<svg id="svg_container" xmlns="http://www.w3.org/2000/svg" style="visibility: visible" class="edit-svg" viewBox="-0.9000000953674316 -3.6610000133514404 698.8726806640625 700.2416381835938" width="703.8726806640625px" height="705.2416381835938px">
        <defs>
            <linearGradient id="sampleGradient" gradientTransform="rotate(1)" x1="0%" y1="50%" x2="100%" y2="50%" gradientUnits="userSpaceOnUse">
                <stop offset="0%" id="first_color" stop-color="#f41d6d"></stop>
                <stop offset="100%" id="second_color" stop-color="#57a6c8"></stop>
            </linearGradient>
        </defs>
    <path fill="rgba(61,255,130,1)" d="M171.78 350.64Q171.78 350.64 171.78 350.64 171.78 352.2 171.84 353.74 171.75 355.28 171.56 356.8 171.37 358.31 171.09 359.81 170.81 361.3 170.43 362.77 170.05 364.24 169.58 365.69 169.1 367.13 168.53 368.56 167.96 369.98 167.28 371.38 166.61 372.78 165.83 374.16 165.05 375.54 164.21 376.89 163.36 378.24 162.46 379.56 161.54 380.88 160.57 382.17 159.59 383.47 158.54 384.73 157.49 385.99 156.37 387.22 155.25 388.46 154.06 389.66 152.86 390.87 151.6 392.05 150.32 393.22 148.98 394.37 147.63 395.53 146.24 396.65 144.83 397.77 143.38 398.85 141.93 399.94 140.42 401 138.92 402.05 137.36 403.07 135.81 404.09 134.2 405.07 132.6 406.05 130.95 407 130.12 407.47 129.28 407.93 128.44 408.39 127.59 408.84 126.74 409.3 125.88 409.74 125.02 410.18 124.15 410.61 123.27 411.05 122.4 411.47 121.53 411.89 120.66 412.31 119.78 412.73 118.91 413.13 118.04 413.54 117.17 413.94 116.3 414.34 115.43 414.73 114.56 415.12 113.69 415.5 112.82 415.88 111.95 416.26 111.09 416.63 110.22 417 109.35 417.36 108.49 417.72 107.62 418.08 106.76 418.43 105.03 419.13 103.31 419.8 101.59 420.46 99.87 421.1 98.16 421.74 96.45 422.35 94.74 422.95 93.06 423.53 91.38 424.11 89.72 424.67 88.07 425.24 86.45 425.8 84.82 426.39 83.23 426.95 81.64 427.51 80.07 428.03 78.5 428.54 76.96 429 75.42 429.46 73.9 429.87 72.38 430.25 70.89 430.58 69.39 430.91 67.97 431.19 66.56 431.49 65.23 431.78 63.9 432.09 62.65 432.36 61.4 432.63 60.23 432.85 59.06 433.09 57.97 433.3 56.88 433.51 55.87 433.67 54.86 433.76 53.93 433.8 53 433.83 52.15 433.88 52.15 433.88 52.15 433.88 50.51 433.88 48.82 433.99 47.14 433.89 45.4 433.68 44.54 433.66 43.67 433.62 42.79 433.58 41.9 433.52 41.01 433.45 40.11 433.36 39.21 433.26 38.29 433.11 37.37 432.93 36.48 432.67 35.6 432.41 34.75 432.07 33.05 431.4 31.5 430.45 29.94 429.51 28.52 428.29 27.08 427.1 25.77 425.65 25.77 425.65 25.77 425.65 25.02 424.93 24.26 423.74 23.49 422.53 22.7 420.84 21.88 419.13 21.03 416.92 20.15 414.68 19.22 411.93 18.75 410.55 18.27 409.09 17.79 407.63 17.29 406.1 16.8 404.57 16.29 402.96 15.79 401.35 15.28 399.67 14.77 397.98 14.26 396.22 13.76 394.46 13.25 392.63 12.75 390.8 12.25 388.89 11.76 386.98 11.27 385 10.79 383.02 10.32 381 9.87 378.97 9.43 376.91 9 374.84 8.59 372.73 8.19 370.62 7.81 368.46 7.44 366.31 7.1 364.11 6.77 361.92 6.46 359.68 6.16 357.44 5.89 355.17 5.63 352.89 5.39 350.57 5.17 348.25 4.98 345.94 4.8 343.64 4.64 341.34 4.5 339.05 4.39 336.76 4.29 334.48 4.21 332.21 4.15 329.95 4.12 327.69 4.1 325.44 4.1 323.2 4.12 320.96 4.16 318.74 4.21 316.51 4.29 314.3 4.38 312.09 4.49 309.93 4.61 307.77 4.75 305.65 4.9 303.53 5.07 301.46 5.24 299.39 5.43 297.37 5.64 295.34 5.85 293.36 6.08 291.39 6.31 289.45 6.56 287.52 6.82 285.64 7.09 283.76 7.37 281.92 7.65 280.08 7.94 278.34 8.24 276.61 8.53 274.98 8.82 273.35 9.12 271.83 9.42 270.31 9.71 268.89 10.32 266.06 10.88 263.64 11.47 261.22 12 259.22 12 259.22 12 259.22 12.44 257.55 12.94 255.8 13.45 254.05 13.99 252.21 14.55 250.38 15.15 248.47 15.76 246.56 16.43 244.56 17.1 242.57 17.82 240.5 18.56 238.44 19.34 236.29 20.15 234.15 21 231.93 21.87 229.72 22.79 227.42 23.73 225.14 24.71 222.82 25.71 220.5 26.75 218.16 27.8 215.82 28.9 213.45 30.01 211.09 31.17 208.7 32.35 206.32 33.57 203.91 34.81 201.5 36.09 199.07 37.39 196.65 38.74 194.2 40.1 191.76 41.51 189.29 42.95 186.84 44.41 184.39 45.9 181.94 47.42 179.5 48.19 178.29 48.97 177.07 49.75 175.86 50.54 174.65 51.34 173.44 52.14 172.23 52.95 171.02 53.77 169.82 54.59 168.62 55.42 167.42 56.25 166.22 57.1 165.02 57.95 163.83 58.8 162.64 59.67 161.45 60.54 160.26 61.41 159.08 62.29 157.89 63.18 156.71 64.08 155.53 64.98 154.36 65.89 153.18 66.8 152.01 67.72 150.84 68.65 149.68 69.57 148.52 70.5 147.37 71.43 146.23 72.37 145.1 73.3 143.98 74.24 142.86 75.18 141.75 77.06 139.54 78.95 137.38 80.85 135.23 82.74 133.13 84.65 131.04 86.55 128.99 88.46 126.96 90.36 124.97 92.28 122.99 94.19 121.05 96.1 119.13 98 117.25 99.91 115.38 101.8 113.57 103.69 111.77 105.56 110.03 107.43 108.29 109.27 106.62 111.11 104.95 112.91 103.34 114.72 101.74 116.49 100.18 118.25 98.63 119.97 97.14 121.68 95.64 123.35 94.2 125.01 92.75 126.61 91.35 128.2 89.94 129.7 88.61 131.19 87.28 132.57 86.02 133.94 84.75 135.21 83.55 136.46 82.34 137.62 81.2 138.75 80.06 139.79 78.98 140.8 77.89 141.72 76.87 142.62 75.85 143.44 74.89 144.23 73.93 144.95 73.03 144.95 73.03 144.95 73.03 146.06 71.6 147.02 70.31 147.94 69.01 148.73 67.87 149.49 66.72 150.13 65.73 150.76 64.73 151.29 63.9 151.8 63.07 152.22 62.42 152.64 61.76 152.97 61.28 153.3 60.8 153.55 60.5 153.8 60.2 153.97 60.08 153.97 60.08 153.97 60.08 154.22 59.92 154.28 60.15 154.34 60.38 154.23 61.01 154.13 61.63 153.84 62.65 153.57 63.67 153.11 65.08 152.66 66.5 152.09 68.16 151.53 69.82 150.86 71.71 150.52 72.66 150.16 73.67 149.79 74.68 149.4 75.75 149.01 76.82 148.58 77.95 148.16 79.07 147.71 80.26 147.26 81.45 146.79 82.68 146.32 83.9 145.84 85.17 145.35 86.43 144.85 87.73 144.34 89.04 143.82 90.38 143.3 91.72 142.76 93.1 142.22 94.48 141.66 95.9 141.1 97.31 140.52 98.77 139.95 100.23 139.35 101.72 138.75 103.22 138.16 104.71 137.57 106.21 136.97 107.7 136.38 109.2 135.79 110.69 135.2 112.19 134.61 113.68 134.02 115.18 133.43 116.67 132.85 118.17 132.26 119.66 131.67 121.15 131.09 122.65 130.5 124.14 129.92 125.64 129.33 127.13 128.76 128.6 128.19 130.07 127.63 131.51 127.07 132.96 126.52 134.37 125.97 135.79 125.43 137.18 124.89 138.57 124.37 139.94 123.84 141.3 123.32 142.64 122.81 143.98 122.3 145.29 121.79 146.6 121.29 147.88 120.8 149.17 120.33 150.39 119.86 151.61 119.42 152.77 118.54 155.08 117.77 157.14 117 159.2 116.34 161 115.68 162.8 115.12 164.34 115.12 164.34 115.12 164.34 114.28 166.65 113.46 168.96 112.64 171.27 111.82 173.59 111.01 175.91 110.21 178.24 109.42 180.56 108.63 182.89 107.85 185.22 107.07 187.56 106.3 189.9 105.54 192.23 104.79 194.58 104.04 196.92 103.3 199.27 102.56 201.62 101.83 203.97 101.11 206.33 100.4 208.69 99.69 211.05 98.99 213.41 98.29 215.77 97.61 218.14 96.93 220.51 96.25 222.88 95.58 225.26 94.93 227.63 94.27 230.01 93.63 232.39 92.98 234.77 92.35 237.16 91.72 239.54 91.11 241.93 90.5 244.33 89.9 246.73 89.32 249.13 88.74 251.54 88.18 253.96 87.63 256.37 87.09 258.8 86.56 261.23 86.04 263.66 85.53 266.1 85.04 268.54 84.56 270.99 84.09 273.44 83.63 275.9 83.18 278.36 82.74 280.82 82.32 283.29 81.91 285.76 81.51 288.23 81.12 290.71 80.74 293.2 80.38 295.68 80.03 298.17 79.69 300.66 79.36 303.16 79.04 305.66 78.74 308.16 78.44 310.67 78.16 313.17 77.89 315.68 77.64 318.2 77.64 318.2 77.64 318.2 77.39 320.71 77.15 323.23 76.92 325.75 76.7 328.27 76.48 330.79 76.28 333.31 76.08 335.83 75.89 338.35 76.96 337.91 78.05 337.48 79.12 337.05 80.21 336.62 81.29 336.19 82.39 335.76 83.47 335.34 84.57 334.91 85.66 334.49 86.76 334.07 87.86 333.65 88.96 333.24 90.07 332.82 91.17 332.41 92.28 332 93.39 331.59 94.5 331.18 95.62 330.77 96.73 330.37 97.85 329.96 98.97 329.56 100.09 329.16 101.21 328.76 102.33 328.37 103.46 327.97 104.59 327.58 105.71 327.18 106.84 326.79 107.97 326.4 109.1 326.02 110.23 325.63 111.37 325.24 112.5 324.86 113.62 324.5 114.74 324.14 115.85 323.8 116.95 323.46 118.04 323.15 119.12 322.84 120.19 322.55 121.26 322.27 122.32 322 123.38 321.74 124.42 321.5 125.46 321.26 126.49 321.05 127.51 320.83 128.53 320.64 129.54 320.45 130.54 320.28 131.54 320.12 132.53 319.97 133.51 319.83 134.49 319.71 135.46 319.6 136.42 319.5 137.38 319.41 138.32 319.34 139.27 319.27 140.21 319.22 141.14 319.18 142.07 319.15 142.99 319.13 143.9 319.14 143.9 319.14 143.9 319.14 145.19 319.14 146.48 319.2 147.77 319.27 149.06 319.4 150.34 319.53 151.63 319.72 152.92 319.91 154.21 320.17 155.49 320.42 156.7 320.81 157.9 321.2 159.03 321.73 160.15 322.26 161.2 322.93 162.24 323.61 163.21 324.42 164.18 325.23 165.06 326.23 165.93 327.23 166.72 328.42 167.51 329.6 168.2 330.98 168.9 332.35 169.5 333.91 170.11 335.47 170.56 337.3 171.02 339.12 171.32 341.21 171.63 343.3 171.78 345.66 171.78 348.02 171.78 350.64 171.78 350.64 171.78 350.64M262.02 420.25Q262.02 420.25 262.02 420.25 260.72 420.51 259.45 420.83 258.17 421.15 256.92 421.3 255.67 421.46 254.44 421.55 253.21 421.63 252 421.65 250.79 421.66 249.6 421.59 248.41 421.52 247.24 421.37 246.06 421.22 244.91 420.98 243.75 420.73 242.61 420.37 241.47 420.01 240.35 419.57 239.24 419.14 238.14 418.65 237.05 418.17 235.97 417.63 234.9 417.1 233.85 416.5 232.8 415.9 231.77 415.23 230.74 414.56 229.73 413.81 228.73 413.06 227.74 412.24 226.75 411.42 225.78 410.53 224.82 409.64 223.87 408.71 222.93 407.78 222.01 406.8 221.08 405.82 220.18 404.79 219.28 403.77 218.4 402.7 217.52 401.64 216.66 400.53 215.81 399.42 214.97 398.27 214.14 397.13 213.33 395.94 212.52 394.75 211.73 393.53 210.94 392.3 210.17 391.04 209.41 389.78 208.67 388.48 207.93 387.18 207.21 385.84 206.49 384.51 205.79 383.13 205.1 381.76 204.43 380.35 203.76 378.94 203.11 377.49 202.46 376.05 201.83 374.56 201.21 373.08 200.6 371.56 200 370.03 199.42 368.48 198.84 366.93 198.28 365.34 197.72 363.76 197.18 362.14 196.64 360.53 196.12 358.88 195.6 357.23 195.1 355.56 194.6 353.88 194.12 352.17 193.64 350.45 193.18 348.71 192.72 346.97 192.28 345.19 191.83 343.41 191.4 341.6 190.98 339.79 190.56 337.94 190.15 336.1 189.76 334.22 189.37 332.34 188.99 330.43 188.62 328.51 188.26 326.56 187.91 324.62 187.57 322.63 187.23 320.65 186.91 318.63 186.59 316.61 186.29 314.56 185.99 312.51 185.71 310.43 185.43 308.36 185.17 306.28 184.91 304.19 184.66 302.08 184.42 299.98 184.19 297.86 183.97 295.74 183.76 293.6 183.55 291.46 183.37 289.3 183.18 287.15 183.01 284.97 182.84 282.8 182.69 280.61 182.54 278.42 182.41 276.21 182.28 274 182.17 271.78 182.05 269.55 181.96 267.31 181.87 265.07 181.79 262.8 181.72 260.54 181.66 258.26 181.6 255.98 181.57 253.69 181.53 251.39 181.51 249.08 181.49 246.76 181.49 244.43 181.49 244.43 181.49 244.43 181.49 242.25 181.51 240.06 181.53 237.88 181.57 235.68 181.61 233.48 181.67 231.28 181.73 229.07 181.81 226.86 181.89 224.65 181.99 222.42 182.09 220.2 182.21 217.97 182.33 215.73 182.47 213.49 182.61 211.25 182.77 209 182.93 206.75 183.11 204.49 183.29 202.23 183.49 199.96 183.69 197.69 183.91 195.41 184.13 193.13 184.37 190.84 184.6 188.55 184.86 186.25 185.12 183.95 185.4 181.64 185.68 179.33 185.98 177.01 186.28 174.69 186.59 172.36 186.91 170.03 187.25 167.72 187.59 165.4 187.95 163.11 188.31 160.82 188.69 158.55 189.07 156.28 189.47 154.02 189.87 151.77 190.29 149.54 190.71 147.3 191.15 145.09 191.59 142.87 192.05 140.68 192.52 138.48 193 136.3 193.48 134.12 193.98 131.96 194.49 129.8 195.01 127.66 195.53 125.51 196.07 123.38 196.61 121.25 197.18 119.14 197.74 117.03 198.32 114.93 198.9 112.83 199.5 110.75 200.1 108.66 200.72 106.59 201.34 104.52 201.98 102.47 202.62 100.4 203.28 98.37 203.93 96.34 204.61 94.33 205.28 92.32 205.98 90.34 206.68 88.35 207.39 86.39 208.1 84.42 208.84 82.49 209.57 80.54 210.32 78.63 211.07 76.71 211.84 74.82 212.61 72.92 213.4 71.05 214.19 69.18 215 67.33 215.8 65.48 216.63 63.67 217.46 61.84 218.31 60.05 219.15 58.25 220.02 56.49 220.89 54.72 221.78 52.98 222.67 51.24 223.58 49.54 224.5 47.83 225.43 46.16 226.37 44.49 227.32 42.86 228.28 41.22 229.27 39.65 230.26 38.09 231.27 36.6 232.28 35.1 233.33 33.69 234.37 32.27 235.44 30.93 236.51 29.59 237.61 28.32 238.72 27.06 239.85 25.88 240.98 24.7 242.14 23.59 243.3 22.49 244.49 21.47 245.68 20.45 246.9 19.51 248.12 18.57 249.37 17.71 250.62 16.85 251.9 16.08 253.18 15.3 254.49 14.61 255.81 13.92 257.14 13.31 258.49 12.7 259.86 12.18 261.23 11.66 262.62 11.21 264.03 10.78 265.46 10.43 265.46 10.43 265.46 10.43 266.84 10.08 268.2 9.82 269.57 9.58 270.91 9.43 272.25 9.27 273.56 9.2 274.87 9.14 276.16 9.17 277.45 9.2 278.72 9.32 279.98 9.45 281.22 9.66 282.46 9.88 283.68 10.18 284.89 10.49 286.08 10.89 287.27 11.29 288.43 11.78 289.59 12.27 290.73 12.84 291.86 13.42 292.97 14.09 294.08 14.76 295.17 15.51 296.25 16.27 297.31 17.11 298.36 17.95 299.39 18.87 300.42 19.8 301.42 20.81 302.42 21.81 303.39 22.9 304.36 23.99 305.31 25.13 306.26 26.26 307.18 27.44 308.1 28.62 309 29.85 309.9 31.07 310.77 32.34 311.64 33.6 312.49 34.91 313.34 36.21 314.16 37.55 314.98 38.89 315.77 40.28 316.57 41.66 317.34 43.08 318.1 44.49 318.85 45.95 319.59 47.4 320.31 48.89 321.02 50.38 321.71 51.91 322.4 53.44 323.07 55.01 323.73 56.57 324.37 58.17 325.01 59.77 325.63 61.42 326.24 63.06 326.83 64.74 327.42 66.42 327.98 68.15 328.55 69.87 329.09 71.61 329.63 73.36 330.15 75.13 330.68 76.9 331.18 78.7 331.68 80.5 332.16 82.33 332.64 84.16 333.1 86.01 333.56 87.86 334 89.75 334.44 91.63 334.86 93.54 335.28 95.45 335.68 97.39 336.08 99.32 336.46 101.29 336.84 103.26 337.2 105.26 337.56 107.26 337.9 109.28 338.24 111.31 338.56 113.37 338.88 115.42 339.18 117.51 339.48 119.6 339.76 121.71 340.04 123.83 340.3 125.98 340.56 128.12 340.8 130.3 341.04 132.48 341.27 134.66 341.49 136.84 341.7 139.02 341.91 141.21 342.11 143.39 342.3 145.58 342.48 147.77 342.66 149.96 342.83 152.15 342.99 154.34 343.14 156.54 343.29 158.73 343.43 160.93 343.56 163.13 343.68 165.33 343.8 167.53 343.91 169.73 344.01 171.94 344.1 174.15 344.19 176.35 344.26 178.56 344.34 180.77 344.4 182.99 344.46 185.2 344.5 187.42 344.55 189.64 344.53 191.87 344.5 194.1 344.48 196.33 344.47 198.56 344.47 200.79 344.47 200.79 344.47 200.79 344.47 203.27 344.49 205.73 344.51 208.19 344.55 210.63 344.52 213.09 344.46 215.53 344.4 217.98 344.32 220.41 344.24 222.85 344.14 225.27 344.04 227.69 343.92 230.1 343.8 232.51 343.66 234.9 343.52 237.3 343.36 239.68 343.19 242.07 343.01 244.44 342.83 246.82 342.63 249.18 342.43 251.54 342.22 253.89 342 256.24 341.76 258.57 341.52 260.91 341.26 263.24 341 265.56 340.72 267.87 340.44 270.19 340.14 272.49 339.84 274.79 339.52 277.08 339.2 279.37 338.87 281.64 338.53 283.9 338.17 286.14 337.81 288.37 337.43 290.58 337.05 292.79 336.65 294.98 336.25 297.16 335.83 299.31 335.41 301.47 334.97 303.6 334.54 305.73 334.08 307.83 333.62 309.93 333.14 312.01 332.66 314.09 332.17 316.14 331.67 318.19 331.15 320.21 330.64 322.24 330.1 324.24 329.57 326.24 329.01 328.21 328.46 330.19 327.89 332.14 327.32 334.09 326.72 336.01 326.13 337.94 325.52 339.84 324.92 341.74 324.29 343.62 323.66 345.5 323.02 347.34 322.37 349.18 321.71 350.99 321.04 352.8 320.36 354.58 319.68 356.35 318.98 358.09 318.28 359.84 317.56 361.55 316.84 363.26 316.09 364.93 315.35 366.6 314.59 368.24 313.83 369.88 313.05 371.49 312.27 373.1 311.47 374.66 310.66 376.23 309.84 377.77 309.01 379.3 308.16 380.79 307.31 382.29 306.44 383.75 305.57 385.2 304.68 386.62 303.78 388.03 302.86 389.41 301.94 390.79 301 392.13 300.06 393.46 299.1 394.76 298.14 396.06 297.15 397.31 296.16 398.55 295.15 399.74 294.14 400.92 293.1 402.04 292.07 403.16 291.01 404.22 289.94 405.27 288.86 406.26 287.77 407.25 286.66 408.18 285.55 409.12 284.43 410.01 283.3 410.92 282.16 411.79 281.03 412.67 279.87 413.5 278.71 414.32 277.51 415.04 276.3 415.71 275.06 416.29 273.81 416.87 272.54 417.39 271.27 417.9 269.98 418.35 268.69 418.81 267.37 419.2 266.06 419.58 264.72 419.78 263.38 419.98 262.02 420.25 262.02 420.25 262.02 420.25M264.13 130.41Q264.13 130.41 264.13 130.41 262.56 130.81 261.1 131.67 259.64 132.52 258.3 133.84 256.96 135.16 255.74 136.93 254.52 138.7 253.41 140.93 252.86 142.04 252.33 143.23 251.8 144.41 251.3 145.66 250.79 146.92 250.31 148.24 249.83 149.56 249.38 150.95 248.92 152.35 248.49 153.81 248.05 155.27 247.64 156.8 247.23 158.32 246.85 159.92 246.46 161.52 246.1 163.19 245.73 164.85 245.39 166.56 245.06 168.26 244.74 170.01 244.43 171.76 244.14 173.54 243.86 175.33 243.6 177.15 243.34 178.98 243.1 180.85 242.86 182.71 242.66 184.62 242.45 186.52 242.26 188.47 242.08 190.41 241.92 192.4 241.76 194.38 241.62 196.36 241.48 198.35 241.37 200.33 241.25 202.31 241.15 204.28 241.05 206.26 240.98 208.24 240.9 210.21 240.84 212.19 240.79 214.16 240.75 216.14 240.72 218.11 240.7 220.08 240.69 222.05 240.69 224.02 240.69 224.02 240.69 224.02 240.7 226.25 240.73 228.46 240.76 230.68 240.81 232.89 240.86 235.11 240.94 237.31 241.02 239.52 241.11 241.72 241.21 243.92 241.34 246.12 241.46 248.32 241.6 250.51 241.75 252.7 241.92 254.89 242.09 257.08 242.28 259.26 242.47 261.44 242.69 263.56 242.91 265.69 243.14 267.75 243.38 269.81 243.65 271.82 243.91 273.82 244.19 275.76 244.48 277.71 244.79 279.59 245.1 281.48 245.43 283.3 245.76 285.13 246.12 286.89 246.48 288.66 246.86 290.37 247.23 292.07 247.64 293.69 248.04 295.31 248.47 296.83 248.89 298.35 249.34 299.79 249.79 301.22 250.26 302.56 250.73 303.9 251.23 305.15 251.73 306.4 252.25 307.55 252.77 308.71 253.31 309.77 253.85 310.84 254.42 311.81 254.99 312.78 255.58 313.61 256.18 314.44 256.8 315.12 258.05 316.5 259.41 317.3 260.77 318.1 262.24 318.32 263.72 318.55 265.3 318.2 265.3 318.2 265.3 318.2 266.21 317.99 267.08 317.62 267.95 317.25 268.77 316.71 270.41 315.63 271.85 313.88 272.58 313 273.25 311.96 273.93 310.92 274.56 309.71 275.18 308.5 275.76 307.12 276.34 305.75 276.88 304.2 277.41 302.66 277.91 301.05 278.42 299.44 278.89 297.77 279.37 296.1 279.81 294.36 280.26 292.62 280.67 290.82 281.09 289.01 281.48 287.15 281.87 285.28 282.23 283.35 282.59 281.41 282.92 279.42 283.25 277.42 283.56 275.36 283.86 273.3 284.14 271.23 284.41 269.16 284.66 267.08 284.92 265 285.14 262.91 285.37 260.82 285.57 258.72 285.77 256.62 285.94 254.52 286.12 252.41 286.27 250.29 286.42 248.17 286.54 246.05 286.66 243.92 286.76 241.78 286.85 239.65 286.94 237.6 287.02 235.56 287.09 233.61 287.16 231.65 287.22 229.79 287.28 227.93 287.33 226.16 287.37 224.38 287.41 222.7 287.44 221.02 287.46 219.43 287.48 217.84 287.49 216.35 287.5 214.85 287.49 213.44 287.49 213.44 287.49 213.44 287.49 211.71 287.46 209.96 287.44 208.21 287.4 206.45 287.36 204.68 287.3 202.89 287.24 201.1 287.16 199.29 287.08 197.48 286.98 195.65 286.88 193.82 286.77 191.98 286.65 190.13 286.52 188.26 286.39 186.39 286.24 184.5 286.08 182.61 285.91 180.76 285.73 178.91 285.53 177.1 285.33 175.29 285.11 173.52 284.88 171.76 284.64 170.03 284.39 168.3 284.12 166.62 283.85 164.93 283.55 163.28 283.26 161.64 282.94 160.03 282.62 158.43 282.28 156.87 281.94 155.3 281.58 153.81 281.21 152.32 280.82 150.9 280.42 149.49 280.01 148.14 279.59 146.8 279.14 145.53 278.7 144.26 278.23 143.06 277.76 141.87 277.26 140.75 276.76 139.63 276.24 138.58 275.72 137.53 275.17 136.56 274.07 134.62 272.83 133.26 271.6 131.9 270.22 131.13 268.84 130.36 267.31 130.18 265.79 130 264.13 130.41 264.13 130.41 264.13 130.41M513.77 76.09Q513.77 76.09 513.77 76.09 513.77 77.82 513.82 79.61 513.83 81.39 513.74 83.22 513.65 85.04 513.52 86.91 513.39 88.78 513.22 90.69 513.13 91.65 513.03 92.62 512.93 93.59 512.82 94.58 512.71 95.56 512.59 96.56 512.47 97.55 512.34 98.56 512.2 99.57 512.06 100.59 511.92 101.61 511.76 102.64 511.61 103.68 511.44 104.72 511.28 105.77 511.1 106.83 510.92 107.89 510.74 108.95 510.56 110.01 510.37 111.08 510.19 112.15 509.99 113.21 509.8 114.28 509.6 115.36 509.4 116.43 509.2 117.5 509 118.58 508.79 119.66 508.58 120.74 508.36 121.82 508.14 122.9 507.92 123.99 507.7 125.08 507.48 126.16 507.25 127.25 507.02 128.35 506.78 129.44 506.55 130.54 506.31 131.64 506.06 132.74 505.82 133.84 505.57 134.94 505.32 136.05 505.07 137.16 504.81 138.27 504.55 139.38 504.29 140.49 504.02 141.61 503.76 142.73 503.49 143.84 503.22 144.96 502.94 146.07 502.67 147.19 502.4 148.3 502.12 149.41 501.85 150.52 501.57 151.63 501.29 152.74 501.01 153.85 500.73 154.96 500.44 156.07 500.16 157.17 499.87 158.28 499.59 159.38 499.3 160.49 499.01 161.59 498.72 162.69 498.43 163.79 498.13 164.89 497.84 165.99 497.54 167.09 497.24 168.19 496.95 169.29 496.65 170.39 496.35 171.49 496.04 172.58 495.74 173.68 495.43 174.77 495.13 175.87 494.82 176.96 494.51 178.06 494.21 179.14 493.9 180.22 493.6 181.29 493.3 182.37 493.01 183.43 492.71 184.49 492.42 185.54 492.13 186.59 491.84 187.63 491.55 188.67 491.27 189.7 490.98 190.73 490.71 191.74 490.43 192.76 490.15 193.77 489.88 194.77 489.61 195.77 489.34 196.76 489.07 197.74 488.54 199.71 488.02 201.63 487.5 203.55 487.01 205.42 486.51 207.29 486.03 209.11 486.03 209.11 486.03 209.11 485.7 210.26 485.37 211.48 485.04 212.7 484.71 213.98 484.37 215.27 484.02 216.64 483.68 218 483.32 219.43 482.97 220.86 482.61 222.37 482.25 223.88 481.88 225.46 481.51 227.04 481.13 228.69 480.75 230.34 480.36 232.07 479.98 233.8 479.57 235.55 479.17 237.31 478.75 239.1 478.34 240.89 477.9 242.72 477.47 244.54 477.02 246.39 476.57 248.25 476.1 250.14 475.63 252.03 475.15 253.95 474.67 255.88 474.17 257.84 473.67 259.8 473.15 261.8 472.64 263.8 472.1 265.81 471.57 267.83 471.03 269.85 470.48 271.88 469.93 273.92 469.37 275.97 468.79 278.03 468.22 280.09 467.63 282.16 467.05 284.24 466.45 286.33 465.84 288.43 465.23 290.53 464.61 292.65 463.98 294.77 463.35 296.91 462.71 299 462.07 301.1 461.41 303.17 460.75 305.24 460.07 307.27 459.4 309.31 458.71 311.31 458.02 313.32 457.32 315.28 456.62 317.26 455.9 319.19 455.18 321.13 454.45 323.03 453.72 324.94 452.98 326.81 452.24 328.68 451.48 330.49 450.73 332.3 449.96 334.06 449.19 335.82 448.4 337.52 447.62 339.22 446.82 340.86 446.02 342.5 445.2 344.08 444.39 345.67 443.57 347.19 442.74 348.72 441.9 350.18 441.06 351.64 440.2 353.04 439.34 354.44 438.47 355.71 437.6 356.99 436.72 358.14 435.83 359.3 434.93 360.32 434.02 361.35 433.1 362.25 432.17 363.13 431.22 363.85 430.26 364.57 429.28 365.15 428.3 365.74 427.31 366.2 426.32 366.45 425.32 366.8 425.32 366.8 425.32 366.8 424.49 367.11 423.66 367.49 422.83 367.66 422.01 367.69 421.19 367.72 420.39 367.61 419.59 367.51 418.81 367.3 418.04 367.1 417.27 366.75 416.51 366.41 415.75 365.92 414.99 365.42 414.25 364.78 413.5 364.14 412.75 363.34 412.01 362.54 411.27 361.65 410.53 360.75 409.81 359.76 409.08 358.77 408.36 357.69 407.64 356.6 406.93 355.43 406.22 354.25 405.52 352.98 404.82 351.71 404.13 350.35 403.44 348.99 402.77 347.54 402.09 346.08 401.43 344.54 400.77 342.99 400.11 341.38 399.46 339.76 398.82 338.09 398.18 336.4 397.55 334.66 396.92 332.91 396.31 331.1 395.69 329.28 395.09 327.4 394.49 325.51 393.89 323.56 393.3 321.6 392.72 319.58 392.14 317.56 391.57 315.47 391 313.37 390.45 311.28 389.89 309.18 389.35 307.08 388.81 304.98 388.29 302.88 387.76 300.78 387.25 298.68 386.73 296.57 386.23 294.47 385.73 292.36 385.24 290.26 384.75 288.15 384.28 286.05 383.8 283.95 383.34 281.84 382.87 279.74 382.42 277.67 381.97 275.59 381.54 273.54 381.11 271.5 380.7 269.48 380.28 267.46 379.89 265.48 379.49 263.49 379.11 261.54 378.73 259.58 378.37 257.66 378.01 255.73 377.67 253.84 377.32 251.95 377 250.09 376.68 248.23 376.37 246.48 376.07 244.73 375.79 243.08 375.5 241.43 375.24 239.89 374.98 238.34 374.74 236.91 374.5 235.47 374.28 234.14 374.06 232.81 373.87 231.59 373.47 229.15 373.17 227.14 373.17 227.14 373.17 227.14 372.78 224.69 372.4 222.23 372.01 219.78 371.63 217.31 371.25 214.85 370.87 212.37 370.49 209.9 370.11 207.42 369.73 204.94 369.35 202.45 368.97 199.96 368.6 197.46 368.22 194.97 367.85 192.46 367.48 189.96 367.11 187.45 366.74 184.94 366.37 182.42 366 179.9 365.63 177.37 365.27 174.85 364.9 172.31 364.54 169.78 364.17 167.24 363.81 164.7 363.45 162.15 363.09 159.61 362.73 157.05 362.37 154.5 362.02 151.94 361.66 149.38 361.31 146.82 360.95 144.25 360.62 141.68 360.29 139.11 359.98 136.53 359.67 133.95 359.38 131.37 359.09 128.79 358.83 126.21 358.56 123.62 358.32 121.04 358.08 118.45 357.85 115.86 357.63 113.27 357.43 110.67 357.23 108.08 357.05 105.49 356.88 102.89 356.72 100.29 356.57 97.69 356.43 95.09 356.3 92.49 356.19 89.89 356.08 87.28 355.99 84.68 355.9 82.08 355.83 79.47 355.76 76.86 355.72 74.26 355.68 71.65 355.65 69.04 355.63 66.43 355.63 63.82 355.63 63.82 355.63 63.82 355.63 61.21 355.67 58.56 355.69 57.23 355.72 55.89 355.75 54.55 355.79 53.19 355.83 51.84 355.88 50.47 355.93 49.11 355.98 47.73 356.04 46.35 356.11 44.96 356.18 43.57 356.26 42.17 356.34 40.77 356.45 39.4 356.56 38.02 356.7 36.68 356.84 35.34 357.01 34.02 357.18 32.71 357.38 31.42 357.78 28.85 358.3 26.39 358.82 23.93 359.47 21.59 360.12 19.25 360.9 17.13 361.69 15.01 362.61 13.12 363.54 11.22 364.6 9.55 365.67 7.89 366.87 6.45 368.07 5.02 369.51 3.98 370.96 2.95 372.63 2.32 373.46 2.01 374.36 1.79 375.25 1.58 376.2 1.46 377.15 1.35 378.16 1.34 379.16 1.33 380.22 1.42 380.22 1.42 380.22 1.42 381.13 1.5 382.01 1.77 382.88 2.04 383.74 2.52 384.6 2.99 385.43 3.66 386.27 4.33 387.08 5.2 387.89 6.07 388.69 7.13 389.48 8.2 390.24 9.47 391.01 10.74 391.76 12.21 392.5 13.68 393.23 15.35 393.95 17.01 394.66 18.8 395.36 20.59 396.04 22.49 396.73 24.39 397.39 26.41 398.05 28.42 398.7 30.55 399.34 32.68 399.97 34.92 400.59 37.16 401.2 39.5 401.8 41.85 402.39 44.3 402.68 45.53 402.97 46.78 403.26 48.04 403.54 49.32 403.82 50.6 404.1 51.89 404.38 53.19 404.66 54.5 404.94 55.8 405.21 57.13 405.48 58.45 405.75 59.79 406.03 61.13 406.29 62.49 406.56 63.84 406.83 65.21 407.09 66.57 407.35 67.96 407.61 69.34 407.87 70.73 408.13 72.13 408.38 73.54 408.64 74.95 408.89 76.37 409.14 77.8 409.39 79.23 409.64 80.67 409.89 82.12 410.13 83.57 410.38 85.04 410.62 86.5 410.86 87.98 411.1 89.45 411.34 90.95 411.57 92.44 411.81 93.94 412.04 95.44 412.27 96.94 412.51 98.44 412.74 99.93 412.97 101.42 413.2 102.9 413.43 104.38 413.65 105.86 413.88 107.34 414.11 108.81 414.33 110.28 414.56 111.74 414.78 113.2 415 114.66 415.23 116.12 415.45 117.57 415.67 119.01 415.89 120.46 416.11 121.9 416.33 123.34 416.55 124.77 416.76 126.21 416.98 127.64 417.19 129.06 417.41 130.48 417.62 131.9 417.83 133.32 418.04 134.73 418.26 136.14 418.46 137.55 418.67 138.95 418.88 140.35 419.09 141.75 419.3 143.14 419.5 144.52 419.71 145.89 419.92 147.26 420.12 148.62 420.32 149.98 420.53 151.32 420.73 152.66 420.93 153.99 421.14 155.32 421.34 156.63 421.54 157.94 421.74 159.25 421.94 160.54 422.14 161.83 422.34 163.12 422.53 164.39 422.73 165.66 422.93 166.92 423.12 168.18 423.32 169.42 423.51 170.67 423.71 171.9 423.9 173.13 424.1 174.35 424.29 175.57 424.48 176.77 424.67 177.97 424.86 179.17 425.05 180.36 425.24 181.53 425.62 183.89 426 186.11 426.38 188.34 426.76 190.43 427.14 192.53 427.53 194.5 427.91 196.46 428.29 198.3 428.67 200.14 429.05 201.85 429.44 203.57 429.82 205.15 430.2 206.74 430.59 208.2 430.97 209.66 431.36 211 431.36 211 431.36 211 431.6 209.82 431.87 208.5 432.15 207.19 432.45 205.74 432.75 204.29 433.08 202.71 433.4 201.13 433.76 199.42 434.12 197.71 434.5 195.87 434.88 194.03 435.29 192.06 435.71 190.09 436.15 187.99 436.59 185.89 437.05 183.67 437.52 181.45 438.01 179.18 438.26 178.04 438.51 176.9 438.75 175.75 439.01 174.59 439.26 173.43 439.52 172.27 439.78 171.1 440.05 169.92 440.31 168.74 440.58 167.55 440.85 166.36 441.12 165.15 441.4 163.95 441.68 162.74 441.96 161.53 442.24 160.31 442.53 159.08 442.81 157.85 443.1 156.62 443.4 155.37 443.69 154.13 443.99 152.87 444.29 151.62 444.6 150.35 444.9 149.09 445.21 147.81 445.52 146.54 445.84 145.25 446.15 143.97 446.47 142.68 446.79 141.39 447.11 140.1 447.43 138.82 447.76 137.53 448.09 136.24 448.42 134.94 448.75 133.65 449.08 132.36 449.42 131.07 449.76 129.78 450.09 128.48 450.44 127.19 450.78 125.9 451.13 124.6 451.47 123.3 451.82 122.01 452.17 120.71 452.53 119.41 452.88 118.12 453.24 116.82 453.6 115.52 453.96 114.22 454.32 112.92 454.69 111.61 455.06 110.31 455.43 109.01 455.8 107.71 456.17 106.4 456.55 105.1 456.92 103.8 457.3 102.49 457.68 101.2 458.07 99.92 458.45 98.65 458.83 97.38 459.22 96.13 459.61 94.88 460 93.65 460.39 92.41 460.78 91.2 461.17 89.99 461.56 88.79 461.96 87.6 462.35 86.42 462.75 85.25 463.15 84.09 463.55 82.93 463.95 81.79 464.35 80.65 464.76 79.53 465.16 78.41 465.57 77.3 465.98 76.2 466.39 75.11 466.8 74.03 467.21 72.96 467.62 71.89 468.04 70.84 468.45 69.79 468.87 68.76 469.28 67.73 469.7 66.72 470.12 65.7 470.54 64.72 470.96 63.73 471.39 62.77 471.81 61.82 472.23 60.88 472.65 59.95 473.08 59.05 473.93 57.25 474.79 55.55 475.64 53.85 476.5 52.27 477.36 50.69 478.23 49.21 479.1 47.74 479.97 46.38 480.84 45.02 481.71 43.77 482.59 42.52 483.47 41.39 484.34 40.25 485.22 39.3 486.09 38.35 486.97 37.6 487.84 36.84 488.71 36.27 489.58 35.71 490.45 35.33 491.32 34.96 492.19 34.78 493.05 34.6 493.92 34.61 494.78 34.62 495.64 34.83 496.5 35.03 497.36 35.43 497.36 35.43 497.36 35.43 498.62 36.01 499.77 36.79 500.91 37.56 501.93 38.51 502.95 39.47 503.86 40.59 504.77 41.69 505.56 42.96 506.35 44.19 507.06 45.49 507.77 46.75 508.39 48.07 509.02 49.36 509.56 50.71 510.1 52.04 510.55 53.44 511.01 54.83 511.39 56.23 511.78 57.63 512.11 59.05 512.43 60.47 512.69 61.91 512.95 63.36 513.14 64.84 513.33 66.31 513.48 67.76 513.63 69.2 513.72 70.61 513.82 72.01 513.82 73.38 513.77 74.75 513.77 76.09 513.77 76.09 513.77 76.09M667.71 203.2Q667.71 203.2 667.71 203.2 668.32 204.54 668.89 205.87 669.28 207.28 669.45 208.77 669.62 210.26 669.56 211.82 669.49 213.39 669.18 215.03 669.18 215.03 669.18 215.03 669.01 215.82 668.71 216.7 668.4 217.58 667.95 218.56 667.49 219.53 666.9 220.6 666.3 221.67 665.56 222.83 664.81 224 663.91 225.26 663.01 226.52 661.97 227.89 660.91 229.25 659.71 230.72 659.1 231.45 658.46 232.21 657.82 232.97 657.14 233.76 656.45 234.55 655.76 235.34 655.06 236.13 654.34 236.93 653.63 237.73 652.9 238.53 652.17 239.33 651.42 240.14 650.67 240.95 649.91 241.76 649.15 242.57 648.38 243.39 647.6 244.21 646.81 245.04 646.02 245.86 645.21 246.69 644.41 247.52 643.59 248.35 642.77 249.19 641.93 250.03 641.1 250.87 640.25 251.72 639.4 252.56 638.54 253.41 637.68 254.26 636.8 255.12 635.92 255.97 635.03 256.83 634.14 257.69 633.23 258.55 632.33 259.41 631.41 260.27 630.49 261.13 629.57 261.99 628.65 262.84 627.73 263.69 626.81 264.53 625.89 265.37 624.97 266.21 624.06 267.04 623.14 267.86 622.22 268.68 621.3 269.5 620.39 270.31 619.47 271.13 618.56 271.93 617.64 272.73 616.73 273.53 615.82 274.32 614.91 275.11 613.99 275.9 613.09 276.67 612.18 277.45 611.27 278.22 610.36 278.99 609.45 279.75 608.54 280.51 607.64 281.26 606.73 282 605.82 282.74 604.92 283.47 604.01 284.2 603.11 284.92 602.2 285.62 601.29 286.33 600.41 287 599.52 287.66 598.66 288.29 596.94 289.53 595.33 290.65 593.72 291.78 592.22 292.79 590.73 293.81 589.36 294.71 587.99 295.64 586.76 296.49 585.53 297.34 584.41 298.06 583.29 298.78 582.27 299.34 581.21 299.75 580.29 300.17 580.29 300.17 580.29 300.17 579.01 300.77 577.62 301.45 576.19 301.96 574.6 302.35 573.01 302.73 571.28 303.04 569.56 303.36 567.71 303.63 565.87 303.92 564.03 304.14 563.11 304.25 562.18 304.35 561.26 304.45 560.34 304.53 559.42 304.6 558.49 304.66 557.57 304.71 556.64 304.74 555.71 304.77 554.78 304.78 553.86 304.78 552.93 304.76 552 304.74 551.09 304.69 550.18 304.64 549.3 304.56 548.41 304.48 547.55 304.37 546.69 304.25 545.85 304.11 545.01 303.96 544.2 303.78 543.39 303.6 542.61 303.39 541.05 302.97 539.58 302.42 538.14 301.86 536.91 301.24 535.7 300.6 534.69 299.89 533.69 299.18 532.89 298.42 532.1 297.64 531.49 296.82 531.49 296.82 531.49 296.82 531.14 296.33 530.8 295.53 530.46 294.72 530.13 293.6 529.8 292.48 529.47 291.04 529.15 289.6 528.83 287.85 528.68 286.97 528.52 286.05 528.37 285.13 528.23 284.17 528.08 283.21 527.94 282.2 527.8 281.2 527.66 280.16 527.53 279.11 527.4 278.03 527.27 276.94 527.15 275.82 527.02 274.69 526.9 273.52 526.78 272.35 526.67 271.14 526.56 269.93 526.45 268.7 526.35 267.47 526.25 266.22 526.15 264.97 526.05 263.69 525.96 262.42 525.87 261.12 525.78 259.83 525.7 258.51 525.61 257.2 525.53 255.86 525.45 254.53 525.37 253.17 525.29 251.81 525.21 250.43 525.14 249.06 525.07 247.7 524.99 246.33 524.92 244.99 524.86 243.64 524.79 242.31 524.72 240.98 524.66 239.66 524.6 238.35 524.53 237.05 524.47 235.75 524.42 234.46 524.36 233.18 524.3 231.91 524.25 230.64 524.2 229.39 524.15 228.13 524.1 226.91 524.05 225.69 524.01 224.51 523.97 223.32 523.93 222.17 523.89 221.02 523.86 219.9 523.83 218.79 523.8 217.71 523.77 216.62 523.74 215.58 523.72 214.53 523.7 213.52 523.68 212.51 523.66 211.53 523.65 210.55 523.63 209.64 523.62 208.73 523.61 207.89 523.58 206.2 523.57 204.77 523.55 203.35 523.55 202.19 523.54 201.03 523.54 200.13 523.54 200.13 523.54 200.13 523.54 198.48 523.55 196.76 523.56 195.04 523.57 193.26 523.59 191.48 523.62 189.63 523.63 188.71 523.65 187.77 523.66 186.83 523.68 185.87 523.7 184.92 523.71 183.95 523.73 182.98 523.76 181.99 523.78 181 523.8 180 523.82 178.99 523.85 177.97 523.87 176.96 523.9 175.92 523.93 174.89 523.95 173.83 523.98 172.78 524.01 171.72 524.04 170.65 524.07 169.57 524.11 168.48 524.14 167.4 524.18 166.32 524.21 165.23 524.25 164.14 524.29 163.06 524.34 161.97 524.38 160.88 524.42 159.79 524.47 158.7 524.52 157.61 524.57 156.52 524.62 155.43 524.67 154.34 524.72 153.24 524.78 152.15 524.83 151.06 524.89 149.96 524.95 148.87 525.01 147.77 525.07 146.67 525.13 145.58 525.19 144.48 525.26 143.38 525.32 142.28 525.39 141.18 525.45 140.08 525.52 138.98 525.59 137.89 525.66 136.78 525.73 135.68 525.8 134.58 525.87 133.48 525.95 132.39 526.02 131.29 526.1 130.2 526.18 129.11 526.26 128.03 526.34 126.94 526.42 125.86 526.51 124.79 526.59 123.71 526.68 122.64 526.77 121.57 526.85 120.51 526.94 119.44 527.03 118.38 527.12 117.33 527.22 116.27 527.31 115.22 527.4 114.17 527.5 113.13 527.59 112.09 527.69 111.05 527.78 110.02 527.88 108.98 527.97 107.96 528.07 106.93 528.17 105.91 528.27 104.89 528.36 103.88 528.46 102.87 528.56 101.86 528.66 100.86 528.75 99.86 528.85 98.88 528.95 97.9 529.05 96.94 529.15 95.98 529.25 95.04 529.35 94.1 529.45 93.18 529.55 92.26 529.66 91.36 529.76 90.47 529.86 89.59 529.96 88.72 530.06 87.86 530.16 87.01 530.26 86.18 530.35 85.35 530.45 84.54 530.54 83.73 530.64 82.94 530.82 81.38 531 79.89 531.16 78.42 531.33 77.03 531.48 75.65 531.62 74.36 531.62 74.36 531.62 74.36 531.71 73.62 531.86 72.87 532.01 72.12 532.21 71.37 532.41 70.63 532.65 69.9 532.77 69.53 532.89 69.17 533.02 68.81 533.15 68.45 533.28 68.09 533.41 67.75 533.54 67.41 533.67 67.08 533.8 66.75 533.93 66.43 534.06 66.11 534.19 65.81 534.32 65.51 534.45 65.22 534.58 64.93 534.71 64.65 534.84 64.37 534.98 64.11 535.11 63.84 535.24 63.59 535.38 63.34 535.51 63.1 535.65 62.86 535.78 62.62 535.91 62.39 536.05 62.17 536.18 61.95 536.31 61.74 536.45 61.53 536.58 61.33 536.72 61.13 536.85 60.94 536.98 60.75 537.12 60.57 537.26 60.39 537.39 60.22 537.53 60.06 537.67 59.9 537.8 59.74 537.93 59.6 538.07 59.46 538.2 59.32 538.33 59.19 538.46 59.07 538.59 58.95 538.72 58.85 538.85 58.74 538.98 58.64 539.11 58.55 539.24 58.46 539.36 58.38 539.49 58.31 539.62 58.24 539.75 58.17 539.87 58.11 540 58.05 540.12 58 540.24 57.95 540.36 57.9 540.48 57.86 540.6 57.82 540.71 57.79 540.83 57.75 540.94 57.73 541.06 57.7 541.17 57.68 541.28 57.66 541.39 57.64 541.5 57.63 541.61 57.62 541.72 57.62 541.82 57.62 541.92 57.62 542.02 57.64 542.12 57.65 542.22 57.67 542.41 57.71 542.59 57.79 542.77 57.87 542.93 57.98 542.93 57.98 542.93 57.98 543.13 58.11 543.37 58.35 543.62 58.58 543.92 58.92 544.22 59.26 544.58 59.69 544.94 60.12 545.36 60.65 545.8 61.17 546.29 61.74 546.79 62.29 547.36 62.88 547.95 63.46 548.62 64.06 549.32 64.63 550.11 65.22 550.94 65.79 551.82 66.35 552.74 66.89 553.7 67.45 554.68 67.98 555.68 68.54 556.7 69.09 557.74 69.67 558.78 70.24 559.8 70.85 560.81 71.45 561.8 72.09 562.79 72.73 563.74 73.41 564.69 74.09 565.6 74.81 565.6 74.81 565.6 74.81 566.39 75.43 567.07 76.02 567.76 76.61 568.34 77.17 568.92 77.73 569.4 78.26 569.88 78.79 570.26 79.28 570.64 79.78 571.01 80.31 571.38 80.85 571.73 81.42 572.08 82 572.42 82.62 572.75 83.24 573.07 83.9 573.07 83.9 573.07 83.9 573.37 84.71 573.5 85.66 573.56 86.14 573.57 86.66 573.59 87.17 573.56 87.73 573.54 88.28 573.47 88.87 573.4 89.45 573.28 90.08 573.17 90.7 573.01 91.36 572.86 92.01 572.66 92.7 572.46 93.4 572.24 94.09 572.03 94.78 571.79 95.48 571.55 96.18 571.3 96.88 571.04 97.58 570.77 98.29 570.49 98.99 570.19 99.7 569.9 100.41 569.58 101.13 569.26 101.85 568.91 102.57 568.74 102.93 568.56 103.29 568.39 103.65 568.2 104.02 568.02 104.38 567.83 104.74 567.64 105.1 567.45 105.46 567.07 106.18 566.68 106.89 566.29 107.6 565.88 108.29 565.48 108.99 565.06 109.68 564.64 110.37 564.21 111.05 563.78 111.73 563.34 112.4 562.9 113.07 562.44 113.73 561.99 114.39 561.52 115.04 561.05 115.69 560.61 116.29 560.17 116.9 559.75 117.47 559.33 118.04 558.95 118.56 558.56 119.09 558.2 119.57 557.84 120.05 557.52 120.48 557.19 120.92 556.9 121.31 556.31 122.1 555.88 122.69 555.88 122.69 555.88 122.69 556.05 123.58 556.21 124.47 556.37 125.37 556.53 126.27 556.68 127.18 556.83 128.08 556.98 128.99 557.13 129.91 557.28 130.82 557.42 131.74 557.56 132.66 557.7 133.58 557.83 134.51 557.97 135.44 558.1 136.37 558.22 137.31 558.35 138.24 558.48 139.18 558.61 140.13 558.74 141.07 558.88 142.01 559.01 142.96 559.15 143.9 559.29 144.85 559.44 145.8 559.58 146.75 559.73 147.7 559.88 148.65 560.04 149.61 560.2 150.56 560.35 151.52 560.52 152.47 560.52 152.47 560.52 152.47 561.19 151.58 561.88 150.7 562.56 149.81 563.26 148.94 563.96 148.07 564.68 147.2 565.39 146.33 566.13 145.48 566.85 144.62 567.6 143.77 568.34 142.93 569.11 142.08 569.86 141.25 570.64 140.41 571.03 140 571.42 139.58 571.82 139.17 572.21 138.76 573.01 137.93 573.8 137.18 574.6 136.42 575.41 135.74 576.21 135.05 577.03 134.43 577.84 133.81 578.67 133.26 579.51 132.7 580.36 132.21 581.21 131.71 582.08 131.28 582.96 130.84 583.86 130.46 584.76 130.08 585.69 129.75 585.69 129.75 585.69 129.75 586.64 129.42 587.57 129.18 588.52 128.93 589.45 128.77 590.39 128.6 591.32 128.52 592.25 128.44 593.18 128.44 594.12 128.44 595.04 128.53 595.97 128.61 596.89 128.78 597.82 128.95 598.73 129.21 599.65 129.46 600.56 129.81 601.47 130.15 602.37 130.58 603.28 131.01 604.16 131.54 605.06 132.06 605.93 132.68 606.81 133.29 607.67 134 608.52 134.71 609.36 135.52 610.2 136.33 611.02 137.23 611.83 138.14 612.62 139.14 613.41 140.15 614.17 141.26 614.17 141.26 614.17 141.26 614.9 142.34 615.48 143.4 616.06 144.47 616.48 145.52 616.89 146.58 617.15 147.61 617.4 148.65 617.5 149.68 617.58 150.7 617.57 151.71 617.55 152.73 617.42 153.72 617.29 154.72 617.05 155.7 616.81 156.68 616.47 157.65 616.11 158.62 615.68 159.57 615.24 160.52 614.73 161.45 614.2 162.39 613.6 163.31 612.99 164.23 612.31 165.13 611.62 166.03 610.93 166.93 610.23 167.82 609.54 168.71 608.84 169.6 608.15 170.48 607.45 171.35 606.75 172.22 606.75 172.22 606.75 172.22 605.89 173.29 604.99 174.34 604.09 175.39 603.17 176.43 602.24 177.47 601.28 178.5 600.32 179.53 599.33 180.55 598.34 181.58 597.33 182.59 596.31 183.6 595.26 184.6 594.21 185.6 593.14 186.58 592.06 187.57 590.96 188.55 589.86 189.52 588.75 190.5 587.64 191.47 586.52 192.45 585.4 193.43 584.28 194.41 583.15 195.39 582.02 196.37 580.89 197.35 579.75 198.33 578.61 199.31 577.46 200.29 576.31 201.28 575.16 202.26 574.01 203.24 572.85 204.23 572.85 204.23 572.85 204.23 572.82 205.62 572.81 207.13 572.79 208.65 572.8 210.3 572.8 211.94 572.93 213.48 573.07 215.03 573.34 216.47 573.34 216.47 573.34 216.47 573.55 217.6 573.8 218.71 574.05 219.82 574.34 220.92 574.62 222.01 574.95 223.09 575.28 224.17 575.64 225.23 576.01 226.3 576.38 227.36 576.75 228.42 577.12 229.48 577.49 230.54 577.86 231.6 578.23 232.66 578.61 233.72 578.61 233.72 578.61 233.72 579.52 232.99 580.7 232.03 581.88 231.07 583.32 229.9 584.05 229.31 584.84 228.66 585.63 228.02 586.48 227.32 587.34 226.62 588.26 225.87 589.18 225.12 590.16 224.31 591.15 223.5 592.14 222.69 593.13 221.88 594.14 221.06 595.14 220.25 596.16 219.43 597.17 218.61 598.19 217.79 599.21 216.97 600.25 216.15 601.28 215.32 602.32 214.49 603.36 213.67 604.41 212.83 605.46 212 606.52 211.17 607.58 210.33 608.63 209.51 609.68 208.7 610.72 207.9 611.76 207.1 612.79 206.31 613.82 205.53 614.85 204.77 615.87 204 616.89 203.25 617.9 202.51 618.91 201.77 619.91 201.04 620.91 200.33 621.91 199.62 622.9 198.92 623.89 198.22 624.82 197.58 625.75 196.95 626.62 196.37 627.5 195.79 628.31 195.27 629.12 194.76 629.88 194.3 631.38 193.38 632.66 192.7 633.94 192.02 634.98 191.57 634.98 191.57 634.98 191.57 636.19 191.06 637.41 190.68 638.63 190.29 639.87 190.04 641.11 189.78 642.36 189.66 643.62 189.53 644.89 189.54 646.16 189.54 647.38 189.65 648.61 189.76 649.79 189.97 650.97 190.18 652.11 190.5 653.25 190.81 654.34 191.23 655.43 191.65 656.47 192.16 657.52 192.67 658.53 193.27 659.53 193.87 660.5 194.57 661.46 195.26 662.38 196.05 663.29 196.83 664.1 197.67 664.9 198.51 665.59 199.39 666.27 200.28 666.85 201.21 667.25 202.22 667.71 203.2 667.71 203.2 667.71 203.2" class="warpedPath currentActivePath"></path><path fill="rgba(255,119,86,1)" d="M165.87 460.82Q165.87 460.82 165.87 460.82 165.87 461.55 165.95 462.25 165.87 462.96 165.71 463.64 165.55 464.33 165.3 465 165.06 465.66 164.73 466.31 164.41 466.95 164 467.57 163.6 468.2 163.11 468.8 162.62 469.4 162.05 469.98 161.48 470.57 160.83 471.13 160.18 471.69 159.5 472.22 158.82 472.76 158.11 473.28 157.4 473.79 156.65 474.29 155.91 474.78 155.13 475.25 154.35 475.72 153.55 476.17 152.74 476.62 151.9 477.05 151.05 477.47 150.18 477.88 149.31 478.28 148.4 478.66 148.4 478.66 148.4 478.66 147.58 479.04 146.76 479.43 145.95 479.81 145.12 480.2 144.3 480.6 143.47 480.99 142.64 481.39 141.81 481.8 140.98 482.2 140.14 482.62 139.3 483.03 138.46 483.45 137.62 483.86 136.78 484.29 135.93 484.72 135.08 485.15 134.24 485.58 133.41 486.03 132.59 486.47 131.78 486.93 130.98 487.38 130.19 487.85 129.41 488.32 128.65 488.8 127.89 489.28 127.16 489.77 126.42 490.26 125.7 490.77 124.99 491.27 124.3 491.79 123.61 492.3 122.94 492.83 122.27 493.35 121.65 493.89 121.02 494.43 120.44 494.98 119.85 495.54 119.31 496.1 118.77 496.66 118.27 497.24 117.77 497.82 117.31 498.41 116.86 498.99 116.44 499.59 116.02 500.19 115.65 500.81 115.28 501.42 114.94 502.04 114.61 502.67 114.35 503.3 114.08 503.94 113.88 504.6 113.69 505.26 113.55 505.93 113.42 506.6 113.35 507.29 113.28 507.97 113.27 508.68 113.26 509.38 113.32 510.1 113.38 510.81 113.5 511.55 113.62 512.28 113.79 513.03 113.79 513.03 113.79 513.03 113.95 513.69 114.16 514.32 114.37 514.96 114.63 515.58 115.15 516.81 115.86 517.97 116.57 519.12 117.47 520.2 118.36 521.28 119.44 522.29 120.51 523.3 121.66 524.29 122.8 525.29 124.01 526.27 124.62 526.76 125.24 527.25 125.86 527.74 126.5 528.23 127.13 528.72 127.79 529.2 128.43 529.69 129.1 530.17 129.76 530.65 130.44 531.14 131.11 531.63 131.79 532.12 132.47 532.61 133.16 533.11 133.85 533.6 134.54 534.1 135.23 534.6 135.94 535.11 136.63 535.62 137.34 536.13 138.04 536.64 138.75 537.15 139.46 537.67 140.18 538.19 140.89 538.7 141.59 539.24 142.28 539.78 142.95 540.33 143.63 540.89 144.28 541.46 144.93 542.03 145.56 542.62 146.19 543.21 146.81 543.82 147.42 544.42 148.01 545.05 148.6 545.67 149.17 546.32 149.74 546.96 150.29 547.62 150.84 548.28 151.37 548.96 151.89 549.64 152.4 550.35 152.9 551.06 153.37 551.78 153.85 552.51 154.3 553.27 154.75 554.02 155.18 554.79 155.6 555.57 156 556.37 156.4 557.17 156.78 557.99 157.16 558.81 157.52 559.65 157.87 560.5 158.18 561.38 158.5 562.26 158.77 563.18 159.04 564.1 159.26 565.05 159.49 566 159.68 566.99 159.87 567.98 160.02 569.01 160.17 570.04 160.28 571.1 160.39 572.16 160.47 573.26 160.54 574.35 160.58 575.48 160.58 575.48 160.58 575.48 160.61 576.27 160.61 577.08 160.6 577.89 160.56 578.73 160.52 579.56 160.45 580.42 160.37 581.28 160.27 582.17 160.17 583.05 160.04 583.96 159.91 584.86 159.75 585.79 159.59 586.72 159.4 587.68 159.22 588.63 159.02 589.6 158.81 590.58 158.59 591.55 158.38 592.53 158.15 593.5 157.93 594.47 157.69 595.44 157.46 596.41 157.21 597.38 156.98 598.34 156.73 599.31 156.49 600.27 156.24 601.23 156 602.19 155.75 603.14 155.51 604.09 155.26 605.04 155.03 605.99 154.79 606.93 154.57 607.86 154.34 608.78 154.13 609.69 153.91 610.59 153.71 611.49 153.52 612.38 153.33 613.26 153.15 614.12 152.98 614.99 152.82 615.84 152.68 616.68 152.53 617.51 152.41 618.33 152.29 619.14 152.19 619.95 152.09 620.72 152.01 621.49 151.94 622.23 151.88 622.97 151.83 623.67 151.79 624.38 151.75 625.05 151.72 625.72 151.7 626.35 151.69 626.99 151.68 627.6 151.68 628.2 151.67 628.77 151.68 629.34 151.68 629.89 151.69 630.43 151.69 630.93 151.7 631.43 151.7 631.9 151.7 632.36 151.7 632.79 151.7 633.21 151.69 633.6 151.68 633.99 151.66 634.34 151.64 634.69 151.61 635.01 151.58 635.32 151.54 635.6 151.5 635.88 151.44 636.12 151.39 636.37 151.31 636.56 151.24 636.75 151.15 636.89 151.06 637.03 150.95 637.12 150.83 637.21 150.7 637.25 150.57 637.29 150.41 637.28 150.26 637.27 150.08 637.21 149.9 637.16 149.69 637.04 149.44 636.83 149.22 636.67 149.22 636.67 149.22 636.67 148.97 636.5 148.75 636.39 148.48 636.16 148.19 635.88 147.89 635.6 147.57 635.26 147.24 634.93 146.89 634.55 146.53 634.17 146.14 633.74 145.74 633.32 145.3 632.85 144.84 632.39 144.33 631.89 143.79 631.4 143.18 630.88 142.53 630.37 141.82 629.85 141.06 629.35 140.25 628.83 139.4 628.33 138.52 627.8 137.61 627.27 136.68 626.71 135.74 626.15 134.8 625.54 133.85 624.94 132.9 624.29 131.95 623.64 131 622.94 130.07 622.23 129.14 621.48 129.14 621.48 129.14 621.48 128.51 620.96 127.93 620.46 127.34 619.96 126.81 619.46 126.27 618.96 125.79 618.46 125.3 617.97 124.86 617.48 124.41 616.99 124.02 616.51 123.63 616.03 123.28 615.56 122.94 615.08 122.64 614.61 122.34 614.14 122.09 613.67 121.84 613.21 121.62 612.75 121.39 612.28 121.19 611.82 120.99 611.36 120.81 610.89 120.64 610.43 120.49 609.97 120.34 609.51 120.21 609.05 120.08 608.59 119.98 608.13 119.88 607.67 119.8 607.22 119.72 606.76 119.67 606.31 119.62 605.85 119.58 605.4 119.55 604.94 119.54 604.49 119.52 604.03 119.53 603.58 119.53 603.12 119.56 602.67 119.58 602.21 119.63 601.76 119.67 601.31 119.74 600.85 119.8 600.4 119.89 599.95 119.98 599.5 120.08 599.05 120.19 598.59 120.29 598.14 120.4 597.69 120.5 597.23 120.6 596.78 120.7 596.32 120.8 595.86 120.9 595.4 121 594.94 121.09 594.48 121.19 594.02 121.29 593.55 121.38 593.09 121.48 592.62 121.57 592.15 121.66 591.68 121.76 591.21 121.84 590.74 121.92 590.26 122 589.78 122.07 589.29 122.13 588.8 122.2 588.31 122.25 587.81 122.31 587.31 122.35 586.81 122.4 586.3 122.43 585.79 122.47 585.27 122.49 584.75 122.51 584.23 122.53 583.71 122.54 583.18 122.52 582.64 122.5 582.1 122.45 581.55 122.4 581 122.31 580.44 122.22 579.88 122.1 579.32 121.98 578.75 121.81 578.17 121.66 577.59 121.46 577 121.26 576.42 121.02 575.82 120.78 575.23 120.5 574.62 120.5 574.62 120.5 574.62 120.11 573.78 119.65 572.94 119.19 572.1 118.65 571.26 118.11 570.42 117.49 569.57 116.86 568.73 116.15 567.88 115.43 567.03 114.63 566.19 113.82 565.34 112.92 564.49 112.02 563.65 111.02 562.8 110.01 561.96 108.9 561.12 107.78 560.28 106.63 559.44 105.47 558.59 104.28 557.75 103.07 556.9 101.84 556.05 100.58 555.2 99.3 554.35 98 553.5 96.67 552.65 95.33 551.79 93.95 550.94 92.56 550.08 91.13 549.22 89.69 548.36 88.21 547.5 86.73 546.63 85.25 545.76 83.76 544.89 82.28 544.02 80.79 543.14 79.31 542.26 77.83 541.38 76.35 540.49 74.87 539.6 73.39 538.7 71.91 537.8 70.45 536.89 68.98 535.98 67.52 535.06 66.05 534.14 64.61 533.21 63.15 532.29 61.8 531.34 60.45 530.39 59.2 529.43 57.95 528.46 56.81 527.48 55.66 526.49 54.63 525.49 53.6 524.48 52.67 523.46 51.75 522.44 50.94 521.39 50.14 520.35 49.45 519.28 48.76 518.22 48.18 517.14 48.18 517.14 48.18 517.14 47.83 516.47 47.52 515.8 47.2 515.12 46.92 514.44 46.63 513.75 46.38 513.06 46.14 512.36 45.92 511.66 45.71 510.95 45.53 510.24 45.35 509.53 45.21 508.81 45.07 508.08 44.96 507.35 44.86 506.62 44.79 505.88 44.72 505.13 44.69 504.38 44.67 503.63 44.67 502.87 44.69 502.11 44.73 501.34 44.79 500.56 44.87 499.78 44.97 499 45.1 498.21 45.23 497.42 45.4 496.62 45.58 495.82 45.79 495.01 46.01 494.2 46.26 493.38 46.52 492.55 46.81 491.74 47.11 490.92 47.43 490.11 47.75 489.3 48.11 488.49 48.47 487.69 48.86 486.88 49.25 486.08 49.68 485.29 50.1 484.49 50.56 483.7 51.02 482.91 51.51 482.12 52.01 481.33 52.53 480.55 53.06 479.77 53.62 479 54.18 478.22 54.77 477.45 55.37 476.69 55.99 475.92 56.62 475.16 57.28 474.41 57.94 473.65 58.63 472.9 59.33 472.15 60.05 471.41 60.77 470.67 61.53 469.93 62.28 469.2 63.07 468.47 63.86 467.75 64.67 467.04 65.48 466.32 66.31 465.63 67.15 464.93 68.01 464.25 68.87 463.57 69.74 462.9 70.62 462.23 71.53 461.58 72.43 460.93 73.35 460.29 74.27 459.66 75.21 459.04 76.15 458.42 77.11 457.81 78.08 457.21 79.06 456.62 80.04 456.03 81.03 455.46 82.03 454.89 83.05 454.33 84.07 453.77 85.1 453.23 86.14 452.69 87.19 452.16 88.24 451.63 89.32 451.12 90.39 450.61 91.48 450.11 92.57 449.62 93.67 449.14 94.78 448.67 95.89 448.23 97.01 447.8 98.12 447.4 99.24 447 100.36 446.63 101.48 446.27 102.61 445.94 103.73 445.61 104.86 445.3 105.99 445 107.12 444.73 108.26 444.46 109.39 444.22 110.53 443.97 111.67 443.76 112.81 443.54 113.95 443.36 115.09 443.17 116.24 443.01 117.39 442.85 118.54 442.72 119.69 442.59 120.84 442.48 121.99 442.38 123.15 442.3 124.31 442.22 125.47 442.17 126.63 442.11 127.79 442.09 128.96 442.06 130.12 442.06 130.12 442.06 130.12 442.06 131.98 442.06 133.78 442.14 135.59 442.23 137.35 442.39 139.1 442.56 140.8 442.8 142.5 443.02 144.14 443.29 145.77 443.5 147.34 443.77 148.91 444.05 150.42 444.45 151.93 444.88 153.37 445.42 154.79 445.97 156.14 446.61 157.46 447.26 158.61 447.96 159.73 448.66 160.67 449.43 161.6 450.19 162.36 451.01 163.11 451.83 163.71 452.72 164.3 453.6 164.74 454.55 165.18 455.5 165.47 456.51 165.75 457.52 165.9 458.6 165.87 459.68 165.87 460.82 165.87 460.82 165.87 460.82M339.37 426.58Q339.37 426.58 339.37 426.58 339.37 428.36 339.41 430.1 339.25 431.87 338.93 433.61 338.6 435.36 338.12 437.08 337.64 438.8 336.99 440.5 336.35 442.2 335.54 443.88 334.73 445.55 333.77 447.21 332.8 448.86 331.67 450.49 330.54 452.11 329.25 453.72 327.96 455.32 326.59 456.89 325.91 457.68 325.21 458.45 324.51 459.23 323.79 460 323.08 460.76 322.34 461.52 321.61 462.28 320.85 463.03 320.1 463.78 319.33 464.52 318.56 465.26 317.77 465.99 316.98 466.72 316.18 467.44 315.37 468.16 314.55 468.87 313.72 469.58 312.88 470.29 312.04 470.99 311.18 471.68 310.32 472.37 309.44 473.05 308.57 473.74 307.67 474.41 306.78 475.08 305.87 475.74 304.95 476.41 304.02 477.06 303.09 477.71 302.16 478.35 301.23 478.99 300.29 479.62 299.35 480.25 298.4 480.87 297.46 481.49 296.5 482.09 295.55 482.7 294.6 483.29 293.64 483.89 292.68 484.47 291.72 485.05 290.76 485.62 289.79 486.19 288.82 486.75 287.85 487.31 286.88 487.86 285.9 488.4 284.92 488.94 283.94 489.47 282.96 489.99 281.97 490.52 280.98 491.03 279.99 491.54 279 492.04 278 492.53 277 493.02 276 493.51 275 493.98 274 494.46 272.99 494.92 271.98 495.38 270.98 495.83 269.99 496.28 269.02 496.72 268.04 497.15 267.09 497.58 266.13 498 265.19 498.41 263.31 499.23 261.5 500.01 259.69 500.77 257.95 501.5 256.21 502.22 254.54 502.9 252.87 503.57 251.27 504.21 249.67 504.84 248.14 505.43 246.61 506.01 245.15 506.56 245.15 506.56 245.15 506.56 245.15 507.38 245.15 508.2 245.15 509.02 245.15 509.85 245.14 510.68 245.13 511.52 245.12 512.35 245.1 513.19 245.08 514.03 245.06 514.88 245.03 515.72 245 516.58 244.97 517.43 244.93 518.28 244.89 519.14 244.85 520 244.8 520.87 244.75 521.73 244.7 522.59 244.64 523.45 244.58 524.31 244.52 525.18 244.45 526.04 244.38 526.9 244.31 527.77 244.24 528.63 244.16 529.49 244.08 530.35 243.99 531.22 243.9 532.08 243.81 532.94 243.72 533.81 243.72 533.81 243.72 533.81 245.28 533.19 246.89 532.58 248.5 531.96 250.16 531.35 251.82 530.73 253.54 530.12 255.25 529.5 257.01 528.88 258.77 528.26 260.59 527.64 262.4 527.01 264.27 526.39 265.2 526.07 266.14 525.76 267.09 525.44 268.05 525.13 269.01 524.81 269.98 524.5 270.95 524.18 271.93 523.87 272.92 523.55 273.89 523.25 274.87 522.95 275.84 522.66 277.79 522.09 279.71 521.59 281.63 521.08 283.52 520.64 285.42 520.2 287.3 519.83 289.17 519.46 291.02 519.16 292.87 518.87 294.7 518.64 296.53 518.42 298.33 518.27 300.14 518.12 301.92 518.06 301.92 518.06 301.92 518.06 303.35 518 304.72 518.01 306.09 518.03 307.4 518.11 308.71 518.2 309.95 518.36 311.19 518.52 312.36 518.74 313.54 518.98 314.65 519.28 315.76 519.58 316.81 519.96 317.86 520.34 318.84 520.79 319.82 521.24 320.74 521.76 321.66 522.29 322.46 522.92 323.26 523.56 323.95 524.3 324.64 525.04 325.21 525.9 325.78 526.75 326.24 527.71 326.7 528.68 327.04 529.75 327.39 530.82 327.62 532 327.85 533.18 327.96 534.46 328.07 535.75 328.07 537.14 328.07 537.14 328.07 537.14 328.07 538.66 327.93 540.15 327.78 541.64 327.49 543.09 327.2 544.53 326.76 545.93 326.32 547.33 325.74 548.69 325.16 550.05 324.43 551.36 323.7 552.67 322.82 553.93 321.95 555.19 320.93 556.4 319.9 557.61 318.74 558.78 317.57 559.93 316.35 561.05 315.12 562.16 313.84 563.23 312.55 564.3 311.21 565.32 309.86 566.34 308.46 567.32 307.06 568.3 305.6 569.23 304.14 570.15 302.62 571.04 301.1 571.91 299.52 572.75 297.94 573.58 296.3 574.36 294.67 575.14 293.01 575.88 291.36 576.61 289.68 577.3 288.01 577.99 286.32 578.63 284.63 579.27 282.92 579.87 281.21 580.46 279.48 581.01 277.76 581.55 276.01 582.05 274.27 582.55 272.51 583 270.75 583.45 268.97 583.86 267.19 584.27 265.48 584.64 263.78 585.01 262.14 585.34 260.5 585.68 258.93 585.98 257.36 586.28 255.86 586.55 254.36 586.82 252.93 587.06 251.5 587.3 250.14 587.51 248.78 587.72 247.48 587.9 246.19 588.08 244.96 588.24 244.96 588.24 244.96 588.24 244.95 589.57 244.92 590.89 244.89 592.22 244.86 593.55 244.82 594.88 244.78 596.2 244.74 597.53 244.69 598.86 244.64 600.18 244.58 601.51 244.52 602.84 244.46 604.16 244.39 605.49 244.32 606.81 244.24 608.13 244.16 609.46 244.08 610.78 243.99 612.1 243.89 613.43 243.79 614.75 243.69 616.08 243.59 617.4 243.48 618.72 243.36 620.05 243.24 621.37 243.12 622.7 242.99 624.03 242.85 625.35 242.72 626.68 242.57 628.01 242.43 629.34 242.28 630.67 242.28 630.67 242.28 630.67 242.12 632.01 241.92 633.5 241.72 635.01 241.46 636.68 241.34 637.51 241.2 638.39 241.06 639.27 240.91 640.2 240.76 641.12 240.59 642.09 240.42 643.06 240.25 644.08 240.07 645.1 239.86 646.1 239.65 647.1 239.4 648.09 239.16 649.09 238.89 650.06 238.61 651.05 238.3 652.01 237.99 652.98 237.65 653.93 237.31 654.89 236.94 655.82 236.56 656.76 236.16 657.69 235.75 658.62 235.31 659.53 234.88 660.44 234.4 661.3 233.92 662.17 233.41 662.99 232.89 663.81 232.33 664.59 231.78 665.36 231.19 666.08 230.59 666.81 229.96 667.49 229.33 668.16 228.66 668.79 227.99 669.41 227.29 669.98 226.58 670.55 225.84 671.07 225.1 671.59 224.31 671.99 223.53 672.39 222.71 672.66 221.07 673.21 219.26 673.28 217.46 673.34 215.5 672.92 214.52 672.7 213.5 672.37 212.5 671.85 211.44 671.4 211.44 671.4 211.44 671.4 209.42 670.51 207.57 669.4 205.74 668.1 204.1 666.37 203.28 665.51 202.51 664.55 201.74 663.59 201.02 662.52 200.3 661.47 199.63 660.32 198.95 659.18 198.32 657.95 197.7 656.73 197.1 655.47 196.5 654.23 195.93 652.96 195.37 651.71 194.83 650.43 194.29 649.17 193.78 647.88 193.27 646.61 192.79 645.32 192.3 644.04 191.85 642.73 191.4 641.44 190.97 640.12 190.55 638.82 190.15 637.48 189.75 636.16 189.38 634.82 189.01 633.49 188.67 632.14 188.32 630.8 188 629.44 187.68 628.09 187.39 626.72 187.09 625.35 186.82 623.96 186.55 622.57 186.3 621.16 186.06 619.76 185.84 618.33 185.61 616.91 185.41 615.46 185.2 614.01 184.99 612.58 184.76 611.15 184.53 609.73 184.28 608.32 184.04 606.91 183.8 605.51 183.57 604.12 183.34 602.73 183.13 601.35 182.91 599.98 182.72 598.61 182.52 597.25 182.34 595.9 182.16 594.55 181.99 593.21 181.83 591.87 181.68 590.56 181.53 589.25 181.4 587.97 181.27 586.69 181.15 585.44 181.04 584.19 180.94 582.97 180.85 581.75 180.77 580.56 180.69 579.36 180.63 578.2 180.57 577.04 180.53 575.91 180.49 574.77 180.46 573.67 180.44 572.56 180.42 571.52 180.4 570.48 180.38 569.5 180.36 568.53 180.35 567.62 180.34 566.71 180.32 565.86 180.31 565.02 180.3 564.24 180.29 563.45 180.29 562.74 180.28 561.31 180.28 560.14 180.28 560.14 180.28 560.14 180.28 559.24 180.29 558.13 180.3 557.02 180.32 555.69 180.34 555.03 180.35 554.31 180.36 553.6 180.38 552.83 180.4 552.06 180.42 551.23 180.44 550.41 180.46 549.53 180.49 548.65 180.51 547.75 180.54 546.85 180.56 545.93 180.59 545.01 180.61 544.06 180.64 543.11 180.66 542.14 180.69 541.16 180.71 540.17 180.73 539.17 180.76 538.15 180.78 537.13 180.81 536.08 180.83 535.04 180.86 533.97 180.88 532.9 180.91 531.82 180.94 530.74 180.98 529.65 181.01 528.56 181.05 527.45 181.09 526.35 181.14 525.23 181.19 524.11 181.24 522.97 181.3 521.84 181.36 520.7 181.42 519.55 181.48 518.39 181.55 517.23 181.62 516.06 181.69 514.89 181.77 513.73 181.84 512.57 181.92 511.43 181.99 510.29 182.07 509.16 182.15 508.03 182.23 506.92 182.32 505.8 182.4 504.71 182.49 503.61 182.57 502.52 182.66 501.44 182.75 500.37 182.84 499.3 182.94 498.24 183.03 497.19 183.14 496.16 183.24 495.14 183.35 494.14 183.46 493.15 183.58 492.18 183.7 491.22 183.83 490.28 183.96 489.34 184.09 488.44 184.23 487.53 184.37 486.66 184.52 485.78 184.67 484.93 184.82 484.09 184.98 483.27 185.14 482.45 185.31 481.69 185.48 480.92 185.65 480.21 186.01 478.79 186.39 477.58 186.78 476.37 187.2 475.38 187.61 474.38 188.06 473.6 188.06 473.6 188.06 473.6 188.56 472.81 189.23 472.02 189.9 471.23 190.74 470.43 191.58 469.63 192.59 468.82 193.59 468 194.76 467.18 195.93 466.35 197.27 465.5 198.61 464.65 200.13 463.79 200.88 463.35 201.68 462.91 202.48 462.47 203.33 462.03 204.18 461.58 205.07 461.12 205.97 460.67 206.91 460.21 207.86 459.75 208.82 459.29 209.78 458.82 210.77 458.36 211.75 457.9 212.76 457.44 213.77 456.97 214.8 456.51 215.83 456.04 216.88 455.58 217.93 455.11 219 454.65 220.08 454.18 221.18 453.71 222.27 453.24 223.39 452.78 224.51 452.3 225.65 451.83 226.79 451.36 227.95 450.88 229.11 450.4 230.29 449.93 231.48 449.45 232.68 448.97 233.88 448.48 235.1 448 236.32 447.51 237.57 447.02 238.81 446.53 240.07 446.04 241.33 445.54 242.61 445.05 243.89 444.55 245.16 444.05 246.44 443.54 247.72 443.04 249 442.54 250.27 442.03 251.54 441.52 252.82 441.01 254.09 440.5 255.36 439.99 256.63 439.48 257.89 438.97 259.16 438.45 260.42 437.95 261.69 437.44 262.95 436.93 264.21 436.43 265.47 435.93 266.73 435.43 267.99 434.94 269.24 434.45 270.5 433.96 271.75 433.47 273 432.98 274.24 432.49 275.49 432 276.73 431.5 277.96 430.99 279.19 430.47 280.41 429.94 281.62 429.39 282.83 428.85 284.04 428.3 285.22 427.78 286.4 427.27 287.54 426.8 288.7 426.34 289.81 425.9 290.93 425.46 292.01 425.05 293.09 424.62 294.13 424.21 295.17 423.79 296.18 423.39 298.19 422.58 300.04 421.83 301.89 421.04 303.6 420.35 305.31 419.67 306.93 419.21 308.55 418.79 310.02 418.45 311.5 418.12 312.82 417.8 312.82 417.8 312.82 417.8 314.02 417.4 315.2 417.04 316.38 416.67 317.55 416.34 318.72 416.01 319.88 415.71 321.03 415.42 322.18 415.15 323.32 414.89 324.43 414.71 325.54 414.53 326.62 414.45 327.7 414.37 328.74 414.39 329.78 414.41 330.78 414.52 331.79 414.65 332.69 414.91 333.59 415.19 334.4 415.61 335.2 416.04 335.9 416.61 336.59 417.21 337.19 417.92 337.79 418.66 338.23 419.57 338.68 420.48 338.98 421.56 339.27 422.64 339.42 423.89 339.37 425.17 339.37 426.58 339.37 426.58 339.37 426.58M504.65 594.8Q504.65 594.8 504.65 594.8 504.65 596.75 504.61 598.69 504.39 600.68 503.94 602.73 503.49 604.77 502.81 606.86 502.14 608.96 501.24 611.1 501.24 611.1 501.24 611.1 500.79 612.12 500.18 613.23 499.58 614.34 498.83 615.54 498.07 616.74 497.17 618.03 496.26 619.32 495.21 620.7 494.15 622.08 492.94 623.56 491.74 625.04 490.38 626.61 489.03 628.18 487.52 629.85 486.77 630.69 485.98 631.55 485.19 632.41 484.37 633.29 483.54 634.18 482.71 635.06 481.87 635.95 481.02 636.84 480.18 637.73 479.32 638.62 478.47 639.51 477.6 640.41 476.73 641.3 475.86 642.19 474.98 643.09 474.09 643.99 473.21 644.88 472.31 645.78 471.41 646.67 470.5 647.57 469.6 648.47 468.68 649.36 467.76 650.26 466.83 651.15 465.9 652.05 464.96 652.94 464.02 653.84 463.07 654.73 462.12 655.62 461.16 656.51 460.2 657.4 459.22 658.29 458.25 659.18 457.27 660.06 456.28 660.94 455.28 661.83 454.29 662.7 453.29 663.57 452.3 664.43 451.31 665.28 450.32 666.13 449.33 666.96 448.34 667.8 447.36 668.61 446.37 669.43 445.39 670.23 444.41 671.03 443.43 671.81 442.45 672.6 441.47 673.37 440.49 674.13 439.52 674.88 438.55 675.63 437.57 676.37 436.6 677.1 435.63 677.81 434.66 678.53 433.69 679.23 432.73 679.93 431.76 680.61 430.8 681.29 429.83 681.95 428.87 682.62 427.91 683.26 426.95 683.91 426 684.54 425.04 685.17 424.08 685.78 423.13 686.39 422.2 686.97 421.28 687.55 420.38 688.09 418.59 689.16 416.92 690.09 415.25 691.02 413.7 691.81 412.15 692.6 410.73 693.25 409.3 693.9 408 694.42 406.7 694.93 405.52 695.32 404.34 695.71 403.29 695.94 402.23 696 401.3 696.14 401.3 696.14 401.3 696.14 400.01 696.33 398.59 696.58 397.17 696.59 395.63 696.44 394.1 696.28 392.44 695.95 390.78 695.61 389.01 695.1 387.23 694.58 385.46 693.95 384.57 693.64 383.68 693.3 382.79 692.95 381.9 692.59 381.02 692.21 380.13 691.82 379.24 691.42 378.35 691 377.47 690.58 376.58 690.13 375.69 689.69 374.81 689.22 373.92 688.75 373.06 688.26 372.2 687.77 371.35 687.26 370.51 686.76 369.69 686.23 368.87 685.71 368.07 685.16 367.28 684.63 366.5 684.07 365.73 683.52 364.97 682.95 363.47 681.83 362.05 680.64 360.65 679.48 359.44 678.34 358.23 677.22 357.22 676.12 356.22 675.04 355.41 673.97 354.61 672.92 354 671.86 354 671.86 354 671.86 353.65 671.25 353.32 670.3 352.99 669.36 352.69 668.08 352.38 666.81 352.09 665.2 351.81 663.6 351.54 661.67 351.41 660.7 351.28 659.7 351.16 658.69 351.04 657.65 350.92 656.6 350.81 655.51 350.7 654.43 350.59 653.3 350.49 652.17 350.39 651 350.29 649.83 350.2 648.62 350.11 647.41 350.02 646.15 349.94 644.9 349.86 643.61 349.77 642.31 349.69 641 349.6 639.68 349.5 638.34 349.41 637.01 349.31 635.65 349.21 634.3 349.11 632.92 349.01 631.54 348.91 630.14 348.82 628.75 348.72 627.33 348.63 625.91 348.54 624.47 348.44 623.03 348.35 621.57 348.27 620.11 348.18 618.67 348.09 617.23 348.01 615.8 347.92 614.38 347.84 612.97 347.76 611.57 347.68 610.18 347.61 608.79 347.53 607.42 347.45 606.04 347.38 604.69 347.31 603.33 347.24 602 347.17 600.66 347.1 599.34 347.03 598.02 346.97 596.73 346.91 595.45 346.85 594.2 346.8 592.95 346.75 591.74 346.7 590.53 346.65 589.35 346.61 588.18 346.57 587.04 346.53 585.91 346.5 584.81 346.46 583.71 346.43 582.64 346.41 581.58 346.38 580.55 346.36 579.53 346.34 578.57 346.32 577.61 346.31 576.73 346.27 574.95 346.25 573.46 346.23 571.96 346.22 570.74 346.21 569.52 346.21 568.58 346.21 568.58 346.21 568.58 346.21 566.85 346.22 565.04 346.24 563.24 346.26 561.36 346.29 559.49 346.33 557.55 346.35 556.58 346.38 555.59 346.4 554.6 346.43 553.59 346.46 552.59 346.49 551.57 346.52 550.54 346.56 549.5 346.59 548.46 346.63 547.41 346.67 546.35 346.71 545.27 346.75 544.2 346.79 543.11 346.84 542.02 346.89 540.91 346.94 539.8 346.99 538.67 347.04 537.55 347.09 536.4 347.15 535.26 347.21 534.11 347.27 532.97 347.34 531.82 347.41 530.67 347.48 529.52 347.56 528.36 347.64 527.21 347.72 526.05 347.81 524.9 347.89 523.74 347.99 522.58 348.08 521.42 348.18 520.26 348.28 519.09 348.38 517.93 348.49 516.76 348.6 515.59 348.71 514.42 348.83 513.25 348.94 512.08 349.07 510.91 349.19 509.73 349.32 508.56 349.45 507.38 349.58 506.2 349.72 505.02 349.86 503.84 350 502.65 350.15 501.47 350.3 500.28 350.45 499.09 350.6 497.9 350.76 496.72 350.93 495.53 351.1 494.35 351.27 493.17 351.45 491.99 351.63 490.81 351.82 489.63 352 488.45 352.2 487.28 352.4 486.11 352.6 484.93 352.81 483.76 353.02 482.59 353.23 481.43 353.45 480.26 353.67 479.09 353.9 477.93 354.13 476.77 354.37 475.61 354.61 474.45 354.85 473.29 355.1 472.13 355.35 470.98 355.61 469.83 355.87 468.68 356.13 467.52 356.4 466.38 356.66 465.23 356.94 464.08 357.21 462.94 357.5 461.79 357.78 460.65 358.07 459.53 358.37 458.4 358.67 457.29 358.98 456.18 359.29 455.08 359.61 453.99 359.94 452.91 360.26 451.83 360.6 450.77 360.93 449.71 361.28 448.66 361.63 447.61 361.99 446.58 362.34 445.55 362.71 444.53 363.07 443.52 363.45 442.52 363.83 441.52 364.21 440.53 364.98 438.57 365.79 436.66 366.6 434.76 367.45 432.92 368.3 431.08 369.2 429.3 369.2 429.3 369.2 429.3 369.75 428.26 370.6 427.08 371.44 425.91 372.6 424.61 373.75 423.3 375.22 421.86 375.96 421.13 376.78 420.37 377.6 419.61 378.5 418.82 379.4 418.02 380.35 417.21 381.3 416.4 382.29 415.57 383.29 414.75 384.34 413.91 385.39 413.08 386.49 412.23 387.59 411.38 388.74 410.51 389.89 409.65 391.08 408.77 392.28 407.89 393.53 407 394.78 406.11 396.07 405.2 397.37 404.29 398.69 403.37 400.02 402.44 401.37 401.51 402.73 400.57 404.11 399.63 405.5 398.68 406.9 397.72 408.31 396.76 409.75 395.79 411.18 394.81 412.65 393.82 414.11 392.83 415.59 391.83 417.08 390.82 418.6 389.82 420.12 388.82 421.63 387.85 423.14 386.88 424.65 385.94 426.15 385 427.65 384.09 429.14 383.19 430.63 382.3 432.11 381.41 433.58 380.54 435.04 379.65 436.49 378.78 437.93 377.89 439.36 377.01 440.78 376.13 442.18 375.26 443.59 374.39 444.96 373.54 446.33 372.68 447.67 371.85 449.01 371.02 450.32 370.21 451.63 369.41 452.91 368.62 454.18 367.84 455.43 367.09 456.67 366.33 457.89 365.6 459.1 364.88 460.29 364.2 461.48 363.51 462.64 362.86 463.81 362.21 464.9 361.6 466 361.01 467.02 360.46 468.05 359.92 469.01 359.43 469.97 358.94 470.86 358.5 472.64 357.61 474.14 356.93 475.63 356.24 476.85 355.75 476.85 355.75 476.85 355.75 478.26 355.19 479.62 354.77 480.98 354.35 482.31 354.1 483.65 353.85 484.94 353.78 486.24 353.72 487.51 353.83 488.78 353.95 489.96 354.24 491.14 354.53 492.23 354.98 493.31 355.43 494.3 356.03 495.28 356.64 496.17 357.4 497.06 358.16 497.85 359.03 498.63 359.9 499.33 360.88 500.02 361.87 500.62 362.95 501.22 364.04 501.72 365.24 502.23 366.43 502.61 367.71 502.98 368.99 503.24 370.36 503.49 371.73 503.62 373.18 503.74 374.63 503.74 376.17 503.74 376.17 503.74 376.17 503.74 377.5 503.66 378.76 503.58 380.01 503.42 381.2 503.26 382.38 503.02 383.49 502.78 384.6 502.46 385.64 502.14 386.68 501.74 387.8 501.34 388.93 500.86 390.12 500.38 391.32 499.82 392.6 499.26 393.88 498.62 395.23 498.62 395.23 498.62 395.23 497.71 396.9 496.29 398.88 495.58 399.87 494.75 400.94 493.91 402 492.95 403.15 491.99 404.29 490.91 405.51 489.82 406.74 488.61 408.04 487.4 409.34 486.06 410.71 484.73 412.09 483.26 413.55 481.8 415 480.31 416.46 478.82 417.92 477.29 419.39 475.77 420.86 474.21 422.34 472.66 423.81 471.07 425.3 469.49 426.78 467.87 428.26 466.26 429.75 464.61 431.24 462.97 432.74 461.29 434.24 460.45 434.98 459.61 435.73 458.76 436.48 457.91 437.24 457.06 437.99 456.21 438.73 455.36 439.47 454.51 440.21 452.83 441.68 451.16 443.12 449.49 444.56 447.83 445.96 446.18 447.37 444.55 448.74 442.92 450.12 441.3 451.46 439.69 452.8 438.09 454.11 436.5 455.42 434.92 456.7 433.34 457.97 431.78 459.22 430.22 460.46 428.78 461.61 427.34 462.76 426.01 463.81 424.69 464.87 423.48 465.83 422.27 466.8 421.18 467.67 420.09 468.54 419.12 469.32 418.14 470.1 417.28 470.79 415.56 472.17 414.31 473.19 414.31 473.19 414.31 473.19 414.14 474.37 413.97 475.55 413.8 476.74 413.62 477.92 413.45 479.11 413.27 480.3 413.09 481.49 412.91 482.68 412.73 483.88 412.55 485.08 412.36 486.27 412.18 487.48 411.99 488.68 411.8 489.88 411.61 491.09 411.42 492.3 411.23 493.51 411.05 494.72 410.87 495.93 410.7 497.13 410.54 498.34 410.38 499.54 410.23 500.75 410.09 501.95 409.95 503.16 409.83 504.36 409.71 505.56 409.6 506.76 409.48 507.96 409.39 509.16 409.29 510.36 409.21 511.56 409.21 511.56 409.21 511.56 410.6 510.33 412.04 509.1 413.47 507.87 414.96 506.63 416.44 505.39 417.97 504.15 419.5 502.9 421.07 501.65 422.65 500.39 424.27 499.13 425.89 497.87 427.55 496.6 429.22 495.34 430.93 494.06 431.79 493.42 432.66 492.78 433.53 492.14 434.41 491.5 436.17 490.22 437.91 489.02 439.65 487.83 441.37 486.73 443.08 485.62 444.78 484.61 446.48 483.6 448.16 482.68 449.83 481.76 451.49 480.93 453.14 480.1 454.78 479.37 456.41 478.63 458.02 477.99 459.64 477.35 461.23 476.81 461.23 476.81 461.23 476.81 462.84 476.26 464.35 475.85 465.86 475.44 467.27 475.18 468.68 474.91 470 474.8 471.31 474.68 472.52 474.71 473.73 474.74 474.84 474.91 475.95 475.09 476.96 475.41 477.97 475.73 478.87 476.2 479.78 476.66 480.59 477.28 481.4 477.89 482.1 478.65 482.81 479.42 483.42 480.32 484.02 481.23 484.53 482.29 485.03 483.34 485.44 484.54 485.84 485.74 486.14 487.09 486.45 488.43 486.65 489.93 486.85 491.42 486.96 493.06 487.06 494.69 487.06 496.48 487.06 496.48 487.06 496.48 487.06 498.21 486.92 499.89 486.77 501.58 486.48 503.2 486.19 504.83 485.75 506.41 485.3 507.98 484.72 509.5 484.13 511.01 483.45 512.48 482.77 513.95 482 515.38 481.24 516.8 480.38 518.17 479.52 519.55 478.57 520.87 477.62 522.19 476.6 523.47 475.59 524.75 474.5 525.99 473.42 527.23 472.27 528.42 471.12 529.61 469.9 530.76 468.67 531.91 467.46 533.04 466.26 534.17 465.06 535.29 463.86 536.4 462.67 537.5 461.49 538.59 460.31 539.67 460.31 539.67 460.31 539.67 458.87 540.98 457.41 542.26 455.94 543.55 454.47 544.8 452.99 546.06 451.49 547.29 450 548.52 448.49 549.73 446.98 550.93 445.45 552.1 443.92 553.28 442.37 554.43 440.83 555.57 439.27 556.69 437.71 557.81 436.13 558.9 434.55 559.99 432.97 561.08 431.39 562.16 429.82 563.24 428.24 564.31 426.66 565.38 425.08 566.45 423.5 567.51 421.93 568.56 420.35 569.61 418.77 570.66 417.2 571.71 415.62 572.75 414.04 573.78 412.47 574.82 410.89 575.84 410.89 575.84 410.89 575.84 410.53 577.52 410.18 579.35 409.82 581.19 409.46 583.17 409.11 585.15 408.93 587.03 408.75 588.91 408.76 590.7 408.76 590.7 408.76 590.7 408.76 592.09 408.81 593.47 408.85 594.85 408.95 596.22 409.04 597.6 409.18 598.96 409.32 600.33 409.5 601.68 409.68 603.04 409.86 604.4 410.05 605.76 410.23 607.12 410.41 608.48 410.6 609.85 410.78 611.22 410.97 612.59 410.97 612.59 410.97 612.59 412.05 611.92 413.46 611.04 414.88 610.16 416.62 609.07 417.49 608.52 418.44 607.92 419.39 607.32 420.42 606.66 421.45 606 422.57 605.29 423.68 604.57 424.88 603.8 426.08 603.03 427.29 602.26 428.5 601.48 429.72 600.69 430.94 599.91 432.18 599.11 433.42 598.32 434.67 597.52 435.92 596.72 437.19 595.91 438.45 595.1 439.73 594.28 441.01 593.47 442.31 592.64 443.6 591.82 444.91 590.99 446.22 590.15 447.51 589.34 448.81 588.52 450.09 587.72 451.38 586.92 452.65 586.13 453.93 585.35 455.19 584.58 456.45 583.81 457.7 583.06 458.95 582.3 460.19 581.57 461.43 580.83 462.66 580.11 463.89 579.4 465.1 578.69 466.32 577.99 467.46 577.35 468.6 576.72 469.66 576.14 470.72 575.57 471.7 575.06 472.69 574.55 473.59 574.1 475.39 573.21 476.88 572.58 478.37 571.95 479.55 571.59 479.55 571.59 479.55 571.59 480.9 571.17 482.21 570.92 483.52 570.68 484.79 570.61 486.05 570.55 487.27 570.67 488.49 570.78 489.67 571.08 490.84 571.37 491.92 571.8 493 572.22 494 572.78 494.99 573.33 495.9 574.02 496.8 574.71 497.61 575.52 498.42 576.34 499.16 577.28 499.89 578.21 500.55 579.26 501.2 580.3 501.78 581.46 502.35 582.62 502.85 583.9 503.35 585.17 503.72 586.49 504.09 587.81 504.34 589.16 504.59 590.52 504.71 591.91 504.65 593.37 504.65 594.8 504.65 594.8 504.65 594.8M697.5 309.23Q697.5 309.23 697.5 309.23 697.67 310.74 697.97 312.19 697.99 313.68 697.86 315.14 697.74 316.6 697.46 318.04 697.18 319.47 696.75 320.88 696.32 322.3 695.75 323.68 695.17 325.06 694.44 326.42 693.71 327.78 692.84 329.12 691.96 330.45 690.95 331.76 689.92 333.07 688.84 334.34 687.76 335.61 686.62 336.84 685.47 338.07 684.28 339.26 683.08 340.45 681.82 341.6 680.57 342.76 679.26 343.87 677.95 344.99 676.59 346.06 675.22 347.14 673.81 348.18 672.4 349.22 670.94 350.22 670.94 350.22 670.94 350.22 669.63 351.19 668.31 352.18 666.99 353.17 665.67 354.17 664.35 355.17 663.01 356.18 661.69 357.2 660.35 358.23 659.01 359.25 657.67 360.29 656.33 361.33 654.98 362.39 653.63 363.44 652.28 364.5 650.93 365.57 649.56 366.64 648.21 367.72 646.88 368.81 645.55 369.9 644.24 371.01 642.94 372.12 641.67 373.24 640.39 374.35 639.15 375.49 637.9 376.62 636.68 377.76 635.46 378.91 634.27 380.06 633.08 381.22 631.91 382.39 630.75 383.55 629.6 384.74 628.46 385.91 627.37 387.11 626.28 388.29 625.24 389.49 624.2 390.69 623.21 391.9 622.22 393.11 621.27 394.32 620.33 395.54 619.44 396.76 618.54 397.99 617.69 399.22 616.84 400.45 616.04 401.7 615.24 402.94 614.49 404.19 613.73 405.44 613.05 406.71 612.38 407.97 611.78 409.25 611.17 410.52 610.65 411.82 610.12 413.11 609.67 414.41 609.21 415.72 608.83 417.04 608.45 418.36 608.14 419.7 607.83 421.04 607.59 422.4 607.35 423.75 607.18 425.13 607.18 425.13 607.18 425.13 607.03 426.33 606.96 427.49 606.89 428.65 606.9 429.77 606.9 432 607.23 434.06 607.54 436.12 608.18 438.02 608.8 439.93 609.75 441.68 610.69 443.43 611.76 445.16 612.82 446.89 614.02 448.6 614.61 449.46 615.24 450.31 615.86 451.17 616.51 452.02 617.17 452.87 617.85 453.72 618.54 454.57 619.25 455.42 619.97 456.27 620.7 457.13 621.43 457.99 622.18 458.86 622.93 459.73 623.69 460.61 624.46 461.5 625.24 462.39 626.01 463.29 626.81 464.19 627.6 465.1 628.4 466.02 629.21 466.94 630.03 467.87 630.85 468.81 631.68 469.75 632.52 470.7 633.31 471.68 634.1 472.66 634.85 473.68 635.6 474.71 636.31 475.76 637.01 476.83 637.67 477.92 638.32 479.02 638.94 480.15 639.54 481.28 640.11 482.45 640.66 483.62 641.18 484.82 641.68 486.03 642.15 487.27 642.6 488.51 643 489.79 643.38 491.07 643.71 492.4 644.02 493.73 644.27 495.1 644.52 496.47 644.7 497.88 644.86 499.29 644.97 500.74 645.06 502.19 645.09 503.68 645.1 505.17 645.05 506.7 644.99 508.23 644.86 509.8 644.72 511.37 644.46 513 644.19 514.62 643.79 516.31 643.38 517.99 642.85 519.74 642.3 521.48 641.64 523.28 640.95 525.07 640.15 526.92 639.33 528.77 638.39 530.67 637.44 532.56 636.36 534.51 635.27 536.45 634.06 538.44 634.06 538.44 634.06 538.44 633.21 539.82 632.25 541.24 631.28 542.65 630.21 544.1 629.14 545.54 627.96 547.02 626.77 548.49 625.48 550 624.18 551.5 622.78 553.03 621.38 554.56 619.87 556.12 618.37 557.67 616.76 559.25 615.16 560.82 613.45 562.43 611.75 564.03 610 565.62 608.25 567.2 606.46 568.78 604.67 570.34 602.84 571.9 601.02 573.46 599.15 575 597.3 576.54 595.41 578.07 593.54 579.6 591.63 581.12 589.74 582.63 587.82 584.14 585.92 585.65 584 587.15 582.1 588.65 580.2 590.13 578.32 591.61 576.45 593.08 574.61 594.55 572.77 596 570.96 597.45 569.17 598.89 567.41 600.34 565.66 601.77 563.96 603.21 562.27 604.64 560.62 606.07 558.99 607.5 557.41 608.94 555.85 610.37 554.33 611.8 552.87 613.21 551.44 614.62 550.07 616.01 548.74 617.4 547.46 618.76 546.22 620.13 545.02 621.46 543.86 622.81 542.75 624.12 541.66 625.44 540.62 626.73 539.6 628.03 538.63 629.29 537.67 630.56 536.76 631.79 535.86 633.03 535.01 634.22 534.17 635.42 533.38 636.57 532.6 637.72 531.85 638.82 531.12 639.92 530.41 640.97 529.72 642.03 529.06 643.03 528.41 644.04 527.79 644.99 527.17 645.95 526.58 646.85 526 647.76 525.44 648.61 524.88 649.47 524.37 650.23 523.86 650.99 523.39 651.67 522.92 652.34 522.49 652.93 522.07 653.51 521.68 654.01 521.29 654.51 520.95 654.91 520.6 655.32 520.29 655.63 519.98 655.95 519.71 656.15 519.5 656.2 519.26 656.33 519.26 656.33 519.26 656.33 519 656.48 518.71 656.72 518.49 656.75 518.31 656.68 518.14 656.6 518 656.42 517.86 656.23 517.77 655.94 517.67 655.64 517.6 655.24 517.52 654.83 517.48 654.32 517.41 653.81 517.36 653.18 517.27 652.56 517.19 651.84 517.05 651.11 516.92 650.27 516.74 649.43 516.57 648.48 516.36 647.52 516.18 646.45 515.96 645.39 515.8 644.2 515.62 643.01 515.51 641.71 515.38 640.4 515.33 638.98 515.27 637.55 515.29 636 515.31 634.46 515.41 632.79 515.41 632.79 515.41 632.79 515.48 631.66 515.58 630.55 515.68 629.43 515.81 628.33 515.95 627.23 516.12 626.14 516.29 625.06 516.5 623.98 516.71 622.91 516.95 621.85 517.2 620.79 517.48 619.74 517.76 618.69 518.08 617.66 518.4 616.62 518.76 615.6 519.11 614.58 519.49 613.57 519.86 612.55 520.25 611.54 520.64 610.53 521.05 609.53 521.46 608.53 521.89 607.53 522.32 606.53 522.76 605.54 523.21 604.55 523.67 603.56 524.14 602.58 524.62 601.6 525.1 600.62 525.6 599.64 526.1 598.67 526.62 597.7 527.14 596.73 527.67 595.76 528.21 594.8 528.76 593.83 529.32 592.87 529.89 591.91 530.47 590.96 531.07 590 531.67 589.05 532.28 588.1 532.91 587.15 533.55 586.21 534.19 585.26 534.86 584.32 535.53 583.38 536.2 582.44 536.88 581.51 537.55 580.57 538.23 579.64 538.9 578.7 539.58 577.77 540.26 576.84 540.94 575.91 541.62 574.98 542.31 574.05 542.99 573.13 543.68 572.2 544.36 571.28 545.05 570.35 545.73 569.43 546.43 568.51 547.11 567.58 547.8 566.65 548.48 565.71 549.16 564.78 549.84 563.83 550.52 562.89 551.19 561.94 551.87 560.99 552.54 560.03 553.21 559.07 553.87 558.1 554.53 557.13 555.19 556.15 555.84 555.18 556.49 554.19 557.14 553.21 557.74 552.21 558.36 551.22 558.93 550.21 559.5 549.2 560.03 548.18 560.56 547.15 561.05 546.12 561.53 545.09 561.97 544.04 562.41 542.99 562.8 541.93 563.19 540.87 563.53 539.8 563.87 538.73 564.15 537.65 564.15 537.65 564.15 537.65 564.54 536.15 564.82 534.65 565.1 533.15 565.26 531.65 565.41 530.15 565.45 528.65 565.48 527.15 565.39 525.66 565.29 524.16 565.07 522.67 564.83 521.18 564.47 519.7 564.1 518.22 563.6 516.74 563.08 515.27 562.44 513.81 561.77 512.36 561.07 510.9 560.36 509.44 559.61 507.98 558.84 506.52 558.04 505.06 557.22 503.61 556.36 502.15 555.49 500.7 554.58 499.24 553.66 497.79 552.69 496.34 551.72 494.9 550.7 493.45 549.68 492.01 548.61 490.57 547.53 489.14 546.47 487.69 545.4 486.26 544.35 484.81 543.28 483.38 542.24 481.93 541.18 480.49 540.14 479.04 539.1 477.6 538.07 476.15 537.03 474.7 536.02 473.24 534.99 471.79 533.99 470.33 532.98 468.88 531.99 467.41 530.99 465.95 530.12 464.46 529.24 462.97 528.49 461.45 527.74 459.93 527.11 458.38 526.48 456.84 525.97 455.25 525.47 453.67 525.09 452.05 524.71 450.44 524.47 448.78 524.22 447.13 524.1 445.44 523.99 443.75 524 442.02 524 442.02 524 442.02 524.02 440.95 524.06 439.87 524.11 438.79 524.2 437.69 524.29 436.6 524.42 435.48 524.54 434.36 524.71 433.23 524.88 432.1 525.08 430.95 525.29 429.79 525.54 428.62 525.78 427.45 526.07 426.26 526.36 425.07 526.69 423.86 527.02 422.65 527.39 421.42 527.76 420.19 528.17 418.94 528.58 417.69 529.03 416.42 529.49 415.14 529.99 413.85 530.49 412.55 531.03 411.24 531.57 409.92 532.15 408.58 532.74 407.24 533.37 405.87 534 404.51 534.67 403.12 535.35 401.73 536.05 400.34 536.75 398.95 537.48 397.55 538.21 396.16 538.96 394.77 539.72 393.37 540.5 391.98 541.29 390.58 542.1 389.18 542.91 387.78 543.75 386.38 544.59 384.97 545.45 383.57 546.32 382.16 547.21 380.75 548.11 379.33 549.03 377.92 549.95 376.5 550.9 375.08 551.85 373.65 552.83 372.22 553.8 370.79 554.81 369.36 555.81 367.92 556.84 366.47 557.88 365.03 558.94 363.58 559.99 362.12 561.08 360.66 562.17 359.2 563.28 357.73 564.39 356.26 565.52 354.79 566.65 353.32 567.8 351.86 568.95 350.39 570.11 348.94 571.27 347.47 572.46 346.02 573.64 344.56 574.84 343.12 576.03 341.66 577.25 340.22 578.46 338.78 579.69 337.34 580.92 335.9 582.17 334.47 583.41 333.04 584.67 331.62 585.93 330.2 587.21 328.79 588.48 327.38 589.78 325.98 591.07 324.58 592.37 323.19 593.68 321.8 595 320.43 596.33 319.05 597.66 317.69 599 316.34 600.36 314.99 601.71 313.65 603.08 312.33 604.45 311 605.82 309.72 607.18 308.43 608.55 307.19 609.9 305.94 611.26 304.74 612.61 303.53 613.96 302.36 615.3 301.19 616.64 300.07 617.98 298.94 619.31 297.86 620.65 296.78 621.98 295.74 623.31 294.7 624.63 293.71 625.96 292.72 627.29 291.78 628.61 290.84 629.94 289.96 631.27 289.08 632.6 288.26 633.92 287.43 635.25 286.66 636.58 285.89 637.91 285.17 639.24 284.45 640.57 283.78 641.88 283.08 643.18 282.4 644.48 281.71 645.77 281.08 645.77 281.08 645.77 281.08 647.83 280.06 649.79 279.17 651.76 278.29 653.67 277.62 655.62 277.02 657.52 276.64 659.44 276.29 661.33 276.19 663.25 276.12 665.14 276.29 667.07 276.5 668.98 276.95 670.95 277.47 672.94 278.26 675.01 279.13 677.12 280.3 679.3 281.54 681.33 282.99 683.39 284.45 685.24 286.05 687.07 287.61 688.65 289.3 690.21 290.95 691.52 292.73 692.81 294.49 693.86 296.4 694.88 298.29 695.67 300.35 696.44 302.4 696.97 304.61 697.22 306.86 697.5 309.23 697.5 309.23 697.5 309.23" class="warpedPath"></path></svg>