<svg id="svg_container" xmlns="http://www.w3.org/2000/svg" data-media-id="WT6hdlZT48v" class="mw-100 mh-100 edit-svg" style="visibility: visible" viewBox="47.130001068115234 241.18499755859375 933.72998046875 520.5050048828125" width="938.72998046875px" height="525.5050048828125px">
        <defs>
            <linearGradient id="sampleGradient" gradientTransform="rotate(1)" x1="0%" y1="50%" x2="100%" y2="50%" gradientUnits="userSpaceOnUse">
                <stop offset="0%" id="first_color" stop-color="#6b6fff"></stop>
                <stop offset="100%" id="second_color" stop-color="#bc91c1"></stop>
            </linearGradient>
        </defs>
    <path fill="#be816c" d="M210.38 415.75Q210.38 415.75 210.38 415.75 212.07 416.38 213.99 417.03 215.9 417.67 218.04 418.32 220.17 418.96 222.51 419.59 223.68 419.91 224.9 420.22 226.12 420.53 227.39 420.83 228.66 421.14 229.98 421.44 231.29 421.73 232.66 422.03 234.02 422.32 235.42 422.6 236.83 422.88 238.28 423.15 239.72 423.42 241.21 423.69 242.7 423.95 244.23 424.2 245.75 424.45 247.31 424.69 248.87 424.92 250.47 425.15 250.47 425.15 250.47 425.15 250.77 426.16 251.06 427.18 251.36 428.2 251.66 429.22 251.96 430.24 252.27 431.26 252.57 432.28 252.88 433.3 253.18 434.32 253.49 435.35 253.8 436.37 254.11 437.39 254.42 438.41 254.73 439.44 255.05 440.46 255.36 441.48 254.23 441.53 253.1 441.57 251.95 441.61 250.8 441.65 249.63 441.69 248.46 441.72 247.28 441.75 246.09 441.78 244.89 441.8 243.67 441.83 242.45 441.85 241.22 441.87 239.98 441.88 238.73 441.89 237.47 441.91 236.21 441.91 234.93 441.92 233.64 441.92 232.35 441.92 231.04 441.92 229.73 441.91 228.42 441.9 227.09 441.88 225.76 441.87 224.42 441.84 223.08 441.82 221.73 441.78 220.37 441.74 219.01 441.7 217.65 441.65 216.28 441.6 214.91 441.54 213.53 441.47 212.15 441.39 210.77 441.31 209.39 441.23 208 441.14 206.61 441.04 205.22 440.93 203.82 440.82 202.43 440.7 201.03 440.57 199.63 440.44 198.23 440.31 196.83 440.17 195.42 440.02 194.02 439.87 192.61 439.71 191.21 439.55 189.8 439.38 188.4 439.2 186.99 439.02 185.59 438.82 184.2 438.61 182.8 438.39 181.41 438.15 180.03 437.91 178.64 437.66 177.25 437.41 175.86 437.16 174.47 436.92 173.07 436.69 171.67 436.45 170.3 436.15 168.9 435.46 167.52 434.73 166.14 434.01 164.75 433.32 163.38 432.61 162.05 431.82 160.72 431.02 159.47 430.09 158.22 429.16 157 428.2 155.77 427.24 154.57 426.25 153.37 425.27 152.18 424.26 151 423.25 149.84 422.21 148.68 421.18 147.54 420.12 146.41 419.06 145.29 417.98 144.18 416.9 143.1 415.79 142.01 414.69 140.96 413.54 139.91 412.4 138.89 411.23 137.88 410.05 136.9 408.84 135.93 407.63 134.98 406.38 134.05 405.14 133.14 403.88 132.25 402.61 131.43 401.39 130.62 400.17 129.88 399 129.16 397.83 128.5 396.72 127.86 395.6 127.29 394.54 126.72 393.49 126.23 392.48 125.75 391.48 125.33 390.53 124.92 389.59 124.59 388.7 124.25 387.81 123.99 386.97 123.48 385.33 123.24 383.87 123.01 382.44 123.05 381.19 123.1 379.97 123.41 378.91 123.72 377.88 124.29 377.01 124.29 377.01 124.29 377.01 124.87 376.24 125.44 375.48 126.01 374.73 126.57 374 127.13 373.27 127.68 372.55 128.23 371.84 128.78 371.13 129.32 370.44 129.86 369.74 130.39 369.06 130.93 368.38 131.46 367.7 131.98 367.03 132.51 366.37 133.03 365.71 133.55 365.05 134.07 364.4 134.59 363.75 135.11 363.11 135.63 362.46 136.14 361.82 136.65 361.19 137.17 360.56 137.68 359.93 138.19 359.3 138.7 358.67 139.2 358.05 139.71 357.43 140.22 356.82 140.73 356.2 141.23 355.59 141.74 354.98 142.24 354.37 142.75 353.76 143.25 353.15 143.76 352.55 144.26 351.95 144.76 351.35 145.27 350.75 145.77 350.15 146.27 349.56 146.78 348.97 147.28 348.37 147.78 347.78 148.28 347.19 148.79 346.61 149.29 346.02 149.79 345.44 150.29 344.85 150.8 344.27 151.3 343.69 151.8 343.11 152.3 342.53 152.81 341.95 153.31 341.38 153.81 340.8 154.31 340.23 154.82 339.66 155.32 339.09 155.82 338.52 156.33 337.95 156.83 337.38 157.33 336.81 155.79 336.6 154.24 336.38 152.7 336.15 151.15 335.92 149.59 335.69 148.04 335.45 146.48 335.2 144.92 334.95 143.36 334.69 141.8 334.42 140.23 334.15 138.66 333.87 137.09 333.59 135.52 333.3 133.94 333.01 132.36 332.71 132.71 332.42 133.06 332.13 133.41 331.84 133.75 331.55 134.1 331.26 134.45 330.97 134.8 330.68 135.15 330.4 135.51 330.11 135.86 329.83 136.21 329.55 136.56 329.27 136.92 328.99 137.28 328.71 137.64 328.44 138 328.17 139.05 328.14 140.1 328.11 141.15 328.08 142.2 328.04 143.24 327.99 144.29 327.94 145.33 327.89 146.37 327.83 147.41 327.76 148.45 327.69 149.48 327.61 150.51 327.53 151.54 327.44 152.57 327.34 153.59 327.23 154.61 327.12 155.63 327 156.64 326.88 157.65 326.75 158.66 326.61 159.66 326.46 160.67 326.3 161.66 326.14 162.66 325.97 163.65 325.8 164.64 325.61 165.63 325.42 166.61 325.22 167.59 325.01 168.56 324.8 169.53 324.58 170.5 324.35 170.5 324.35 170.5 324.35 171.42 323.78 172.32 323.2 173.22 322.6 174.11 322 174.99 321.38 175.86 320.74 176.72 320.1 177.58 319.43 178.42 318.76 179.26 318.07 180.09 317.36 180.91 316.65 181.72 315.91 182.52 315.16 183.31 314.4 184.09 313.61 184.86 312.82 185.62 312.01 186.38 311.18 187.12 310.34 187.85 309.48 188.58 308.61 189.29 307.72 190 306.82 190.7 305.91 191.39 304.98 192.08 304.05 192.76 303.1 193.43 302.14 194.09 301.17 194.75 300.19 195.41 299.21 196.49 298.75 197.57 298.3 198.65 297.84 199.73 297.39 200.81 296.93 201.89 296.48 202.97 296.04 204.06 295.59 205.14 295.15 206.23 294.7 207.31 294.26 208.4 293.83 209.49 293.4 210.58 292.96 211.67 292.53 212.76 292.1 212.68 292.91 212.6 293.73 212.52 294.55 212.45 295.38 212.38 296.2 212.31 297.04 212.25 297.87 212.19 298.71 212.13 299.55 212.07 300.39 212.02 301.23 211.97 302.08 211.92 302.93 211.88 303.78 211.83 304.63 211.79 305.49 211.75 306.35 211.72 307.21 211.68 308.08 211.65 308.94 211.62 309.81 211.59 310.69 211.57 311.56 211.54 312.44 211.52 313.32 211.5 314.21 211.49 315.09 211.47 315.98 211.46 316.88 211.44 317.78 211.43 318.67 211.42 319.58 212.74 319.42 214.06 319.27 215.38 319.12 216.7 318.97 218.04 318.83 219.37 318.69 220.71 318.56 222.06 318.43 223.41 318.3 224.77 318.18 226.13 318.06 227.5 317.95 228.88 317.84 230.27 317.74 231.66 317.65 233.06 317.56 234.47 317.48 235.89 317.4 237.32 317.34 238.76 317.28 240.21 317.23 241.67 317.19 243.15 317.16 244.63 317.13 246.13 317.12 247.64 317.12 249.16 317.13 250.7 317.14 252.25 317.17 253.81 317.21 255.37 317.26 256.93 317.32 256.98 318.14 257.02 318.96 257.07 319.78 257.11 320.6 257.16 321.41 257.2 322.23 257.25 323.05 257.29 323.87 257.34 324.69 257.38 325.51 257.43 326.33 257.47 327.16 257.52 327.98 257.57 328.8 257.54 329.61 257.49 330.43 256.54 331.45 255.41 332.45 254.29 333.45 253.16 334.44 252.03 335.43 250.9 336.42 249.77 337.39 248.63 338.36 247.48 339.33 246.34 340.28 245.19 341.23 244.04 342.17 242.88 343.1 241.71 344.03 240.54 344.94 239.37 345.85 238.37 345.74 237.37 345.63 236.37 345.52 235.37 345.41 234.37 345.3 233.37 345.19 232.38 345.09 231.39 344.98 230.39 344.88 229.4 344.78 228.41 344.68 227.43 344.58 226.44 344.48 225.45 344.38 224.47 344.28 223.49 344.18 222.51 344.09 221.53 343.99 220.55 343.89 219.57 343.8 218.59 343.7 217.62 343.61 216.64 343.52 215.67 343.42 214.7 343.33 213.73 343.24 212.76 343.15 211.79 343.06 210.82 342.97 209.86 342.88 208.89 342.78 207.93 342.69 207.76 343.51 207.6 344.33 207.43 345.15 207.26 345.97 207.1 346.79 206.93 347.61 206.76 348.43 206.59 349.25 206.42 350.07 206.25 350.9 206.08 351.72 205.91 352.54 205.73 353.37 205.56 354.19 205.39 355.01 205.22 355.84 205.04 356.67 204.87 357.49 204.69 358.32 204.52 359.15 204.34 359.98 204.16 360.8 203.99 361.63 203.81 362.46 203.63 363.3 203.45 364.13 203.27 364.96 203.09 365.8 202.91 366.63 202.73 367.47 202.55 368.3 202.37 369.14 202.18 369.98 202 370.82 201.81 371.66 201.63 372.5 201.44 373.35 201.26 374.19 201.07 375.04 200.88 375.88 200.69 376.73 200.5 377.58 200.31 378.43 200.12 379.29 199.93 380.14 199.73 381 199.54 381.86 199.34 382.72 199.15 383.58 198.95 384.44 198.75 385.31 198.55 386.18 198.35 387.04 198.15 387.92 197.94 388.79 197.74 389.67 197.53 390.55 197.32 391.43 197.11 392.31 196.9 393.2 196.69 394.09 196.47 394.98 196.26 395.88 196.04 396.77 195.83 397.6 195.7 398.39 195.57 399.18 195.51 399.93 195.45 400.69 195.46 401.41 195.48 402.13 195.56 402.81 195.74 404.18 196.22 405.4 196.7 406.62 197.49 407.68 198.28 408.74 199.48 409.79 200.69 410.84 202.3 411.85 203.91 412.87 205.93 413.85 207.95 414.82 210.38 415.75 210.38 415.75 210.38 415.75M362.41 309.1Q362.41 309.1 362.41 309.1 360.04 308.91 357.72 308.69 355.4 308.48 353.12 308.23 350.85 307.99 348.63 307.71 346.41 307.44 344.24 307.14 342.06 306.84 339.94 306.51 337.82 306.19 335.74 305.83 333.67 305.47 331.65 305.09 329.62 304.71 327.65 304.29 325.67 303.88 323.75 303.44 321.82 303.01 319.95 302.54 318.07 302.07 316.25 301.57 314.42 301.08 312.65 300.56 310.87 300.04 309.14 299.48 307.42 298.93 305.74 298.35 304.07 297.78 302.44 297.17 300.81 296.56 299.23 295.92 299.23 295.92 299.23 295.92 300.46 294.57 301.73 293.23 303.01 291.88 304.33 290.54 305.64 289.19 307.01 287.84 308.37 286.49 309.77 285.15 311.18 283.8 312.63 282.46 314.08 281.11 315.58 279.77 317.08 278.42 318.62 277.08 320.16 275.73 321.75 274.4 323.34 273.05 324.97 271.73 326.61 270.39 328.29 269.08 329.97 267.76 331.7 266.46 333.42 265.15 335.2 263.87 336.98 262.59 338.8 261.34 340.63 260.08 342.51 258.86 344.38 257.63 346.31 256.44 348.24 255.26 350.22 254.11 350.22 254.11 350.22 254.11 352.49 254.34 354.72 254.62 356.95 254.91 359.14 255.24 361.33 255.59 363.47 255.97 365.62 256.37 367.72 256.8 369.82 257.24 371.88 257.73 373.94 258.21 375.95 258.74 377.97 259.27 379.94 259.84 381.91 260.41 383.83 261.02 385.76 261.63 387.64 262.28 389.52 262.93 391.35 263.61 393.18 264.29 394.97 265.01 396.76 265.73 398.5 266.48 400.24 267.23 401.93 268.01 403.63 268.79 405.27 269.61 406.92 270.42 408.52 271.27 410.12 272.11 411.68 272.99 411.68 272.99 411.68 272.99 410.62 274.26 409.51 275.52 408.4 276.78 407.23 278.02 406.05 279.26 404.82 280.48 403.58 281.7 402.29 282.9 400.99 284.1 399.63 285.29 398.28 286.47 396.86 287.64 395.44 288.8 393.96 289.95 392.48 291.1 390.94 292.23 389.4 293.36 387.8 294.47 386.2 295.58 384.54 296.67 382.88 297.76 381.16 298.83 379.43 299.91 377.65 300.96 375.87 302.02 374.02 303.05 372.18 304.09 370.27 305.1 368.37 306.12 366.4 307.12 364.44 308.12 362.41 309.1 362.41 309.1 362.41 309.1M401.59 336.04Q401.59 336.9 401.59 337.75 401.59 338.61 401.59 339.46 401.6 340.32 401.6 341.17 401.6 342.03 401.6 342.88 401.6 343.73 401.6 344.59 401.6 345.44 401.6 346.3 401.6 347.15 401.61 348 401.61 348.86 401.61 349.71 401.61 350.57 401.61 351.42 401.61 352.27 401.61 353.13 401.61 353.98 401.62 354.83 401.62 355.69 401.62 356.54 401.62 357.4 401.62 358.25 401.62 359.1 401.62 359.96 401.62 360.81 401.62 361.66 401.63 362.52 401.63 363.37 401.63 364.22 401.63 365.08 401.63 365.93 401.63 366.78 401.63 367.64 401.63 368.49 401.64 369.34 401.64 370.2 401.64 371.05 401.64 371.9 401.64 372.76 401.64 373.61 401.64 374.46 401.65 375.32 401.65 376.17 401.65 377.02 401.65 377.88 401.65 378.73 401.65 379.58 401.65 380.44 401.66 381.29 401.66 382.14 401.66 383 401.66 383.85 401.66 384.7 401.66 385.56 401.66 386.41 401.67 387.27 401.67 388.12 401.67 388.97 401.67 389.83 401.67 390.68 401.68 391.53 401.68 392.39 401.68 393.24 401.68 394.1 401.68 394.95 401.68 395.81 401.69 396.66 401.69 397.51 401.69 398.37 401.69 399.22 401.69 400.08 401.7 400.93 401.7 401.79 401.7 402.64 401.7 403.5 401.71 404.35 401.71 405.21 401.71 406.06 401.71 406.92 401.71 407.77 401.72 408.63 401.72 409.49 401.72 410.34 401.72 411.2 401.73 412.05 401.73 412.91 401.73 413.77 401.73 414.62 401.74 415.48 401.74 416.34 401.74 417.19 401.75 418.05 401.75 418.91 401.75 419.77 401.75 420.62 401.76 421.48 401.76 422.34 401.76 423.2 401.77 424.05 401.77 424.91 401.77 425.77 401.78 426.63 401.78 427.49 401.78 428.35 401.79 429.21 401.79 430.07 401.79 430.93 401.8 431.79 401.8 432.65 401.8 433.51 401.81 434.37 401.81 435.23 401.81 436.09 401.82 436.95 401.82 437.81 401.82 438.68 401.83 439.54 401.83 440.4 401.84 441.26 401.84 442.12 401.84 442.99 401.85 443.85 401.85 444.71 401.86 445.58 403.61 445.81 405.32 446.04 407.03 446.28 408.68 446.51 410.34 446.75 411.95 446.98 413.56 447.21 415.12 447.45 416.67 447.68 418.18 447.92 419.69 448.16 421.16 448.39 422.62 448.63 424.03 448.87 425.44 449.1 426.8 449.34 429.53 449.82 432.06 450.3 434.59 450.78 436.93 451.26 439.26 451.74 441.4 452.23 443.54 452.72 445.19 453.22 445.19 453.22 445.19 453.22 445.34 454.15 445.19 455.08 445.04 456.02 444.89 456.95 444.74 457.88 444.59 458.82 444.44 459.75 444.29 460.68 444.14 461.61 443.99 462.55 443.84 463.48 443.69 464.41 443.55 465.33 443.4 466.26 443.25 467.17 443.09 467.93 440.42 467.93 437.75 467.92 435.08 467.94 432.41 467.99 429.74 468.03 427.07 468.08 424.4 468.28 421.74 468.51 419.08 468.75 416.42 468.92 413.74 468.92 411.07 468.92 408.39 468.92 405.72 468.92 403.05 468.92 400.37 468.92 397.7 468.92 395.03 468.92 392.35 468.92 389.68 468.92 387.02 469.12 384.36 469.41 381.71 469.69 379.05 469.92 376.38 469.92 373.7 469.92 371.03 469.92 368.36 469.92 365.68 469.92 363.01 469.92 360.33 469.92 357.66 469.92 354.99 469.92 352.31 469.92 349.64 469.92 346.96 469.92 344.29 469.92 341.62 469.92 338.94 469.92 336.27 469.92 333.59 469.92 330.92 469.92 328.25 469.92 325.57 469.92 322.9 469.92 320.22 469.92 317.55 469.92 314.88 469.92 312.2 469.92 309.53 469.92 306.85 469.92 304.18 469.91 301.53 469.63 298.88 469.35 296.23 469.06 293.57 468.88 290.9 468.81 288.23 468.74 285.57 468.67 282.91 468.46 280.25 468.25 277.6 468.03 274.95 467.79 272.3 467.51 272.06 466.35 271.8 465.12 271.53 463.94 271.26 462.78 270.99 461.64 270.72 460.52 270.44 459.39 270.16 458.27 272.38 457.75 274.75 457.24 277.12 456.73 279.64 456.22 282.16 455.72 284.83 455.21 286.16 454.96 287.54 454.71 288.91 454.46 290.32 454.21 291.73 453.95 293.17 453.7 294.62 453.44 296.11 453.19 297.59 452.93 299.12 452.67 300.64 452.41 302.2 452.15 303.76 451.89 305.36 451.63 306.96 451.36 308.6 451.1 310.23 450.83 311.91 450.56 313.58 450.29 315.3 450.02 315.3 450.02 315.3 450.02 315.28 449.27 315.26 448.52 315.25 447.77 315.23 447.03 315.21 446.29 315.19 445.55 315.18 444.81 315.16 444.07 315.14 443.33 315.13 442.6 315.11 441.86 315.09 441.13 315.08 440.4 315.06 439.67 315.04 438.94 315.03 438.21 315.01 437.48 314.99 436.75 314.98 436.03 314.96 435.3 314.95 434.58 314.93 433.85 314.92 433.13 314.9 432.41 314.89 431.68 314.87 430.96 314.86 430.24 314.85 429.52 314.83 428.8 314.82 428.08 314.81 427.36 314.79 426.64 314.78 425.92 314.77 425.21 314.76 424.49 314.75 423.77 314.74 423.06 314.73 422.34 314.72 421.62 314.71 420.91 314.7 420.19 314.69 419.48 314.68 418.76 314.67 418.05 314.66 417.33 314.66 416.62 314.65 415.9 314.64 415.19 314.63 414.47 314.63 413.76 314.62 413.05 314.61 412.33 314.61 411.62 314.6 410.91 314.6 410.2 314.59 409.48 314.59 408.77 314.58 408.06 314.58 407.35 314.57 406.63 314.57 405.92 314.56 405.21 314.56 404.5 314.55 403.79 314.55 403.07 314.55 402.36 314.54 401.65 314.54 400.94 314.53 400.23 314.53 399.52 314.53 398.81 314.52 398.09 314.52 397.38 314.52 396.67 314.52 395.96 314.51 395.25 314.51 394.54 314.51 393.83 314.5 393.12 314.5 392.41 314.5 391.7 314.5 390.98 314.49 390.27 314.49 389.56 314.49 388.85 314.49 388.14 314.49 387.43 314.48 386.72 314.48 386.01 314.48 385.3 314.48 384.59 314.48 383.88 314.47 383.17 314.47 382.46 314.47 381.75 314.47 381.04 314.47 380.33 314.46 379.62 314.46 378.91 314.46 378.2 314.46 377.49 314.46 376.78 314.46 376.06 314.45 375.35 314.45 374.64 314.45 373.93 314.45 373.22 314.45 372.51 314.45 371.8 314.45 371.09 314.44 370.38 314.44 369.67 314.44 368.96 314.44 368.25 314.44 367.54 314.44 366.83 314.44 366.12 314.44 365.41 314.43 364.7 314.43 363.99 314.43 363.28 314.43 362.57 314.43 361.86 314.43 361.14 314.43 360.43 314.42 359.72 314.42 359.01 314.42 358.3 311.6 358.42 308.78 358.53 305.96 358.65 303.14 358.77 300.33 358.88 297.51 359 294.69 359.12 291.87 359.25 289.05 359.37 286.23 359.49 283.41 359.61 280.59 359.74 277.77 359.86 274.95 359.98 272.13 360.11 269.31 360.24 269.05 359.48 268.79 358.73 268.52 357.97 268.26 357.22 268 356.47 267.73 355.72 267.47 354.96 267.21 354.21 266.95 353.46 266.68 352.71 266.42 351.96 266.16 351.21 265.89 350.46 265.63 349.71 265.37 348.96 265.1 348.21 266.72 347.77 268.34 347.34 269.96 346.9 271.58 346.47 273.2 346.04 274.83 345.62 276.45 345.2 278.08 344.78 279.71 344.36 281.35 343.95 282.98 343.53 284.61 343.13 286.25 342.72 287.89 342.32 289.53 341.91 291.17 341.52 292.82 341.12 294.46 340.73 296.11 340.34 297.76 339.95 299.41 339.57 301.06 339.19 302.72 338.81 304.37 338.44 306.03 338.06 307.69 337.7 309.35 337.33 311.02 336.97 312.68 336.61 314.35 336.26 316.02 335.9 317.69 335.55 319.36 335.21 321.03 334.87 322.71 334.53 324.39 334.19 326.07 333.86 327.75 333.53 329.43 333.21 331.12 332.89 332.8 332.57 334.49 332.26 336.18 331.95 337.87 331.64 339.57 331.34 341.26 331.04 342.96 330.75 344.66 330.46 346.36 330.17 348.06 329.89 349.77 329.61 351.47 329.34 353.18 329.07 354.89 328.8 356.6 328.54 358.32 328.28 360.03 328.03 361.75 327.78 363.47 327.54 365.19 327.3 366.91 327.06 368.64 326.84 370.36 326.61 372.09 326.39 372.09 326.39 372.09 326.39 373.94 326.97 375.78 327.56 377.63 328.14 379.47 328.74 381.31 329.33 383.16 329.93 385 330.53 386.84 331.13 388.69 331.73 390.53 332.34 392.37 332.95 394.22 333.56 396.06 334.18 397.9 334.8 399.75 335.42 401.59 336.04 401.59 336.04 401.59 336.04M620.42 246.24Q620.74 247.47 621.07 248.69 621.42 249.89 621.77 251.09 622.13 252.28 622.5 253.46 622.87 254.64 623.25 255.81 623.63 256.98 624.01 258.15 624.39 259.31 624.78 260.47 625.17 261.63 625.55 262.78 625.94 263.94 626.33 265.09 626.73 266.25 627.12 267.4 627.51 268.55 627.91 269.7 628.3 270.85 628.69 272 629.09 273.15 629.48 274.3 629.88 275.45 630.28 276.6 630.67 277.75 631.07 278.9 631.47 280.04 631.87 281.19 632.26 282.34 632.49 283.48 631.7 283.4 630.73 283.32 629.76 283.24 628.79 283.16 627.82 283.08 626.85 283 625.88 282.91 624.9 282.83 623.14 282.74 621.42 282.71 619.71 282.67 618.04 282.7 616.37 282.72 614.75 282.81 613.13 282.89 611.55 283.03 609.98 283.17 608.45 283.38 606.92 283.58 605.44 283.85 603.96 284.11 602.52 284.44 601.08 284.76 599.69 285.15 599.69 285.15 599.69 285.15 600.33 285.88 600.93 286.62 601.54 287.36 602.1 288.1 602.67 288.85 603.2 289.6 603.73 290.35 604.22 291.11 604.71 291.87 605.16 292.63 605.62 293.4 606.03 294.17 606.44 294.94 606.82 295.72 607.19 296.5 607.53 297.29 607.86 298.08 608.16 298.87 608.45 299.66 608.71 300.47 608.96 301.27 609.17 302.08 609.39 302.89 609.56 303.7 609.74 304.52 609.87 305.35 610 306.17 610.1 307 610.19 307.84 610.25 308.68 610.3 309.52 610.32 310.37 610.32 310.37 610.32 310.37 610.35 311.71 610.28 313.02 610.21 314.33 610.05 315.61 609.9 316.88 609.65 318.12 609.4 319.36 609.06 320.57 608.72 321.77 608.3 322.94 607.87 324.12 607.36 325.25 606.84 326.39 606.24 327.5 605.63 328.6 604.94 329.67 604.25 330.74 603.47 331.78 602.69 332.81 601.83 333.81 600.96 334.82 600.01 335.79 599.05 336.76 598.01 337.69 596.97 338.63 595.85 339.53 594.72 340.43 593.51 341.3 592.29 342.17 590.99 343.01 590.34 343.43 589.67 343.84 589 344.25 588.3 344.65 587.61 345.06 586.91 345.44 586.2 345.83 585.49 346.21 584.77 346.58 584.05 346.95 583.32 347.31 582.59 347.66 581.85 348.01 581.11 348.34 580.36 348.68 579.61 349 578.85 349.32 578.09 349.63 577.32 349.94 576.54 350.23 575.77 350.53 574.98 350.81 574.19 351.09 573.4 351.36 572.6 351.63 571.79 351.89 570.99 352.14 570.17 352.39 569.35 352.63 568.52 352.86 567.69 353.09 566.86 353.3 566.02 353.52 565.17 353.72 564.32 353.92 563.46 354.11 562.6 354.3 561.73 354.48 560.86 354.65 559.98 354.82 559.1 354.98 558.21 355.13 557.32 355.28 556.42 355.41 555.52 355.55 554.61 355.67 553.7 355.79 552.77 355.9 551.85 356.01 550.92 356.11 549.99 356.21 549.05 356.29 548.1 356.37 547.15 356.44 546.2 356.51 545.23 356.57 544.27 356.63 543.3 356.67 542.32 356.71 541.34 356.74 540.35 356.77 539.36 356.79 538.36 356.81 537.36 356.81 536.35 356.82 535.34 356.81 534.32 356.8 533.29 356.78 533.29 356.78 533.29 356.78 531.85 356.67 530.41 356.57 528.97 356.47 527.53 356.37 526.09 356.27 524.65 356.16 523.21 356.06 521.77 355.96 520.68 356.74 519.58 357.52 518.49 358.3 517.4 359.07 516.3 359.85 515.21 360.63 514.12 361.41 513.02 362.19 511.93 362.97 510.83 363.75 509.74 364.52 508.65 365.3 507.55 366.08 506.46 366.86 505.36 367.64 504.26 368.42 505.94 368.47 507.64 368.53 508.49 368.56 509.34 368.6 510.2 368.64 511.06 368.68 511.92 368.73 512.79 368.77 513.65 368.82 514.53 368.87 515.4 368.92 516.27 368.98 517.15 369.04 518.03 369.1 518.92 369.16 519.81 369.23 520.69 369.3 521.59 369.37 522.48 369.44 523.38 369.52 524.28 369.59 525.19 369.68 526.09 369.76 527 369.84 527.91 369.93 528.83 370.02 529.75 370.11 530.67 370.21 531.59 370.31 532.52 370.41 533.45 370.51 534.38 370.62 535.31 370.72 536.25 370.83 537.19 370.95 538.13 371.06 539.08 371.18 540.03 371.3 540.98 371.42 541.94 371.55 542.89 371.67 543.85 371.8 544.81 371.93 545.78 372.07 546.75 372.21 547.72 372.35 548.69 372.49 549.67 372.63 550.65 372.78 551.63 372.93 552.62 373.08 553.61 373.24 554.6 373.39 555.59 373.55 556.59 373.72 557.59 373.88 558.59 374.05 559.6 374.22 560.6 374.39 561.62 374.56 562.63 374.74 563.65 374.92 564.67 375.1 565.68 375.28 566.69 375.47 567.69 375.65 568.69 375.83 569.69 376.02 570.68 376.21 571.67 376.39 572.66 376.58 573.64 376.77 574.62 376.96 575.59 377.15 576.57 377.34 577.53 377.54 578.5 377.73 579.45 377.93 580.41 378.12 581.36 378.32 582.31 378.51 583.25 378.71 584.19 378.91 585.13 379.11 586.06 379.31 586.99 379.51 587.92 379.72 588.84 379.92 589.76 380.12 590.67 380.33 591.58 380.53 592.49 380.74 593.39 380.95 594.29 381.16 595.18 381.37 596.07 381.58 596.96 381.79 597.84 382 598.73 382.21 599.6 382.43 600.47 382.64 601.34 382.86 602.21 383.07 603.06 383.29 603.92 383.5 604.77 383.72 605.63 383.94 606.47 384.16 607.31 384.38 608.15 384.61 608.98 384.83 609.81 385.05 610.64 385.27 611.46 385.5 613.1 385.95 614.71 386.41 616.32 386.86 617.9 387.33 619.48 387.79 621.03 388.26 621.03 388.26 621.03 388.26 621.46 389.29 621.83 390.33 622.2 391.37 622.52 392.4 622.84 393.44 623.11 394.48 623.38 395.52 623.59 396.57 623.8 397.61 623.96 398.66 624.12 399.7 624.23 400.75 624.34 401.8 624.39 402.86 624.45 403.91 624.45 404.96 624.45 404.96 624.45 404.96 624.45 405.8 624.42 406.62 624.39 407.45 624.33 408.27 624.27 409.09 624.19 409.9 624.1 410.71 623.98 411.52 623.86 412.32 623.71 413.12 623.57 413.91 623.39 414.7 623.21 415.49 623 416.27 622.8 417.05 622.56 417.82 622.32 418.6 622.06 419.36 621.79 420.13 621.49 420.88 621.2 421.64 620.87 422.39 620.55 423.14 620.19 423.88 619.84 424.62 619.45 425.36 619.07 426.09 618.66 426.82 618.24 427.54 617.8 428.26 617.36 428.98 616.88 429.69 616.41 430.4 615.91 431.1 615.41 431.81 614.88 432.5 614.35 433.2 613.79 433.88 613.23 434.57 612.64 435.25 612.05 435.93 611.43 436.6 610.81 437.27 610.17 437.93 609.52 438.6 608.84 439.25 608.17 439.91 607.46 440.55 606.76 441.2 606.02 441.84 605.29 442.48 604.53 443.11 603.77 443.74 602.97 444.36 602.18 444.98 601.36 445.6 600.54 446.21 599.7 446.82 598.85 447.42 597.97 448.02 597.09 448.62 596.19 449.21 595.28 449.79 594.35 450.37 593.41 450.96 592.47 451.52 591.53 452.08 590.57 452.62 589.62 453.16 588.65 453.68 587.69 454.2 586.72 454.7 585.75 455.2 584.76 455.68 583.78 456.16 582.79 456.62 581.8 457.08 580.79 457.52 579.79 457.96 578.78 458.38 577.77 458.8 576.74 459.2 575.72 459.61 574.69 459.99 573.65 460.38 572.61 460.76 571.57 461.13 570.51 461.49 569.46 461.85 568.4 462.2 567.33 462.55 566.26 462.87 565.19 463.21 564.1 463.52 563.02 463.83 561.92 464.12 560.83 464.42 559.72 464.69 558.62 464.95 557.5 465.19 556.39 465.42 555.26 465.62 554.14 465.81 553.01 465.98 551.87 466.15 550.73 466.29 549.58 466.44 548.43 466.57 547.27 466.7 546.11 466.82 544.94 466.94 543.77 467.04 542.59 467.14 541.41 467.22 540.22 467.31 539.02 467.39 537.82 467.5 536.61 467.59 535.4 467.69 534.18 467.76 532.97 467.84 531.73 467.89 530.5 467.95 529.26 467.99 528.02 467.96 526.77 467.94 525.52 467.93 524.25 467.93 524.25 467.93 524.25 467.93 523.38 467.93 522.51 467.94 521.64 467.95 520.78 467.97 519.92 467.99 519.07 467.97 518.21 467.94 517.37 467.9 516.52 467.86 515.68 467.81 514.84 467.76 514.01 467.7 512.34 467.57 510.7 467.41 509.07 467.25 507.46 467.04 505.85 466.84 504.27 466.59 502.69 466.35 501.14 466.06 499.59 465.77 498.06 465.44 496.54 465.12 495.04 464.75 493.55 464.38 492.08 463.97 490.61 463.56 489.17 463.1 487.73 462.65 486.32 462.16 484.9 461.66 483.51 461.13 482.12 460.59 480.76 460.01 479.4 459.43 478.06 458.81 476.72 458.19 475.41 457.53 474.09 456.87 472.85 456.16 471.6 455.46 470.43 454.71 469.25 453.96 468.15 453.17 467.04 452.37 466 451.54 464.97 450.71 464 449.83 463.04 448.95 462.14 448.03 461.25 447.11 460.43 446.15 459.61 445.19 458.86 444.19 458.12 443.18 457.44 442.14 456.77 441.1 456.17 440.01 455.58 438.93 455.06 437.8 454.53 436.67 454.09 435.51 453.64 434.34 453.27 433.13 452.9 431.92 452.61 430.67 452.32 429.42 452.1 428.13 451.88 426.84 451.74 425.51 451.74 425.51 451.74 425.51 452.88 424.65 454.04 423.79 455.22 422.92 456.4 422.06 457.59 421.2 458.78 420.33 459.97 419.47 461.16 418.61 462.34 417.74 463.52 416.88 464.71 416.02 465.89 415.15 467.07 414.29 468.24 413.43 469.42 412.57 470.6 411.7 471.77 410.84 472.94 409.98 474.12 409.12 475.29 408.26 476.46 407.4 477.63 406.53 478.79 405.67 479.96 404.81 481.13 403.95 482.3 403.09 483.46 402.23 484.63 401.37 485.79 400.51 486.96 399.65 488.12 398.79 489.28 397.93 487.93 397.84 486.59 397.75 485.24 397.66 483.89 397.57 482.54 397.48 481.19 397.39 479.84 397.3 478.48 397.21 477.13 397.13 475.78 397.04 474.43 396.95 473.08 396.86 471.72 396.77 470.37 396.68 469.02 396.59 467.67 396.51 467.23 395.37 466.79 394.23 466.36 393.09 465.92 391.95 465.49 390.81 465.06 389.67 464.62 388.53 464.19 387.39 463.76 386.25 463.33 385.11 462.9 383.97 462.47 382.83 462.04 381.69 461.61 380.54 461.18 379.4 460.75 378.26 461.86 377.27 462.97 376.29 464.09 375.32 465.22 374.36 466.34 373.41 467.48 372.47 468.61 371.54 469.76 370.62 470.91 369.71 472.06 368.81 473.22 367.92 474.38 367.04 475.55 366.17 476.73 365.31 477.9 364.46 479.09 363.63 480.27 362.79 481.47 361.98 482.66 361.16 483.87 360.37 485.07 359.58 486.29 358.8 487.5 358.03 488.73 357.28 489.95 356.52 491.19 355.79 492.42 355.06 493.67 354.34 494.91 353.63 496.17 352.94 497.43 352.25 498.69 351.57 498.69 351.57 498.69 351.57 497.48 351.2 496.3 350.8 495.12 350.4 493.98 349.98 492.83 349.56 491.71 349.12 490.6 348.67 489.52 348.2 488.43 347.74 487.38 347.25 486.33 346.76 485.31 346.24 484.29 345.73 483.3 345.19 482.32 344.66 481.36 344.1 480.41 343.54 479.48 342.96 478.56 342.37 477.67 341.77 476.78 341.16 475.92 340.53 475.06 339.9 474.23 339.25 473.4 338.6 472.61 337.92 471.81 337.25 471.05 336.55 470.29 335.85 469.56 335.13 468.83 334.4 468.13 333.66 467.43 332.91 466.77 332.16 466.12 331.4 465.5 330.63 464.89 329.87 464.32 329.09 463.76 328.31 463.23 327.52 462.71 326.73 462.23 325.93 461.75 325.13 461.31 324.32 460.87 323.51 460.48 322.68 460.09 321.86 459.74 321.03 459.39 320.2 459.08 319.35 458.78 318.51 458.51 317.65 458.25 316.8 458.03 315.93 457.82 315.06 457.64 314.18 457.47 313.31 457.33 312.42 457.2 311.53 457.12 310.63 457.03 309.73 456.98 308.82 456.94 307.9 456.94 306.98 456.94 306.98 456.94 306.98 456.94 305.65 457.02 304.35 457.11 303.04 457.28 301.77 457.45 300.49 457.71 299.25 457.97 298 458.31 296.78 458.65 295.56 459.08 294.37 459.51 293.18 460.03 292.01 460.54 290.85 461.14 289.71 461.74 288.57 462.43 287.46 463.12 286.35 463.89 285.27 464.66 284.18 465.52 283.12 466.37 282.06 467.31 281.03 468.25 279.99 469.28 278.99 470.3 277.97 471.41 276.99 472.52 276 473.71 275.04 474.91 274.07 476.18 273.14 476.82 272.67 477.48 272.2 478.14 271.74 478.82 271.28 479.5 270.82 480.19 270.37 480.88 269.93 481.58 269.49 482.28 269.06 482.99 268.64 483.7 268.22 484.42 267.81 485.14 267.41 485.87 267.01 486.59 266.62 487.33 266.24 488.07 265.86 488.82 265.49 489.57 265.13 490.33 264.77 491.09 264.42 491.86 264.08 492.63 263.74 493.41 263.42 494.18 263.09 494.97 262.78 495.76 262.47 496.56 262.18 497.36 261.88 498.17 261.6 498.98 261.32 499.8 261.05 500.62 260.79 501.45 260.53 502.28 260.28 503.12 260.05 503.96 259.81 504.81 259.59 505.66 259.37 506.52 259.16 507.38 258.96 508.25 258.77 509.12 258.58 510 258.4 510.88 258.23 511.77 258.07 512.66 257.91 513.56 257.77 514.47 257.62 515.38 257.5 516.29 257.37 517.21 257.26 518.14 257.15 519.07 257.05 520 256.96 520.94 256.88 521.89 256.8 522.84 256.74 523.79 256.68 524.76 256.63 525.72 256.59 526.7 256.56 527.67 256.53 528.66 256.52 529.64 256.51 530.64 256.51 531.64 256.52 532.64 256.54 532.64 256.54 532.64 256.54 533.48 256.56 534.31 256.59 535.15 256.61 535.97 256.66 537.63 256.74 539.25 256.86 540.87 256.99 542.47 257.16 544.06 257.34 545.63 257.55 547.2 257.77 548.73 258.03 550.27 258.29 551.78 258.59 553.29 258.9 554.77 259.25 556.26 259.6 557.71 259.99 559.16 260.38 560.59 260.82 562.02 261.25 563.42 261.73 564.82 262.2 566.19 262.72 567.56 263.24 568.91 263.8 570.25 264.36 571.57 264.96 572.89 265.56 574.19 266.19 575.48 266.83 576.75 267.51 578.02 268.19 579.26 268.9 579.26 268.9 579.26 268.9 579.58 268.18 579.93 267.48 580.27 266.77 580.63 266.09 581 265.41 581.38 264.75 581.77 264.09 582.17 263.45 582.57 262.82 583 262.2 583.42 261.59 583.87 261 584.31 260.4 584.77 259.83 585.24 259.26 585.72 258.72 586.69 257.62 587.74 256.62 588.78 255.62 589.91 254.71 591.04 253.8 592.24 252.99 593.45 252.18 594.73 251.46 596.02 250.74 597.39 250.12 598.75 249.49 600.2 248.97 600.92 248.71 601.66 248.47 602.41 248.23 603.17 248.02 603.93 247.8 604.72 247.61 605.5 247.42 606.3 247.26 607.1 247.1 607.93 246.96 608.75 246.82 609.59 246.7 610.43 246.59 611.29 246.5 612.16 246.41 613.04 246.35 613.92 246.29 614.82 246.25 615.73 246.21 616.65 246.19 617.57 246.18 618.51 246.19 619.45 246.21 620.42 246.24 620.42 246.24 620.42 246.24 620.42 246.24 620.42 246.24M548.96 336.67Q548.96 336.67 548.96 336.67 549.76 336.19 550.5 335.67 551.25 335.15 551.95 334.6 552.64 334.04 553.29 333.44 553.93 332.84 554.53 332.21 555.12 331.57 555.67 330.89 556.21 330.21 556.7 329.49 557.19 328.77 557.63 328.02 558.07 327.26 558.46 326.46 558.85 325.66 559.19 324.82 559.53 323.97 559.82 323.09 560.1 322.21 560.34 321.29 560.57 320.37 560.76 319.4 560.94 318.44 561.07 317.43 561.2 316.43 561.28 315.38 561.36 314.33 561.39 313.25 561.42 312.16 561.39 311.03 561.39 311.03 561.39 311.03 561.38 310.22 561.32 309.42 561.27 308.63 561.18 307.84 561.09 307.05 560.97 306.28 560.84 305.5 560.68 304.74 560.52 303.97 560.33 303.22 560.13 302.46 559.9 301.72 559.67 300.97 559.4 300.24 559.13 299.5 558.83 298.78 558.53 298.06 558.19 297.34 557.85 296.63 557.48 295.93 557.11 295.22 556.7 294.53 556.29 293.84 555.85 293.16 555.4 292.48 554.93 291.81 554.45 291.13 553.93 290.47 553.42 289.81 552.87 289.16 552.33 288.51 551.74 287.87 551.16 287.23 550.56 286.63 549.96 286.03 549.34 285.47 548.72 284.9 548.08 284.38 547.45 283.85 546.79 283.36 545.48 282.39 544.1 281.57 542.71 280.75 541.25 280.08 539.8 279.42 538.27 278.91 536.74 278.4 535.13 278.05 533.53 277.7 531.85 277.5 531.01 277.41 530.15 277.35 529.3 277.29 528.42 277.28 528.42 277.28 528.42 277.28 527.54 277.26 526.66 277.29 525.77 277.32 524.88 277.4 523.98 277.48 523.08 277.6 522.17 277.72 521.26 277.89 520.34 278.06 519.42 278.28 518.49 278.5 517.56 278.76 516.62 279.03 515.68 279.34 514.74 279.65 513.78 280 513.78 280 513.78 280 513.2 280.51 512.66 281.06 512.12 281.6 511.62 282.19 511.12 282.78 510.65 283.4 510.18 284.03 509.76 284.7 509.33 285.36 508.93 286.07 508.54 286.77 508.18 287.51 507.83 288.26 507.51 289.04 507.19 289.82 506.9 290.65 506.62 291.47 506.37 292.33 506.13 293.19 505.92 294.09 505.71 294.99 505.53 295.93 505.36 296.86 505.22 297.84 505.09 298.82 504.99 299.83 504.89 300.85 504.83 301.9 504.76 302.96 504.74 304.05 504.71 305.14 504.72 306.27 504.72 306.27 504.72 306.27 504.73 307.14 504.77 307.98 504.81 308.82 504.88 309.65 504.95 310.47 505.06 311.27 505.16 312.08 505.29 312.87 505.43 313.65 505.59 314.42 505.76 315.19 505.95 315.93 506.15 316.68 506.38 317.41 506.61 318.14 506.86 318.85 507.12 319.56 507.41 320.25 507.71 320.95 508.03 321.62 508.67 322.96 509.44 324.24 510.22 325.51 511.11 326.71 512.01 327.91 513.03 329.03 514.06 330.16 515.18 331.14 516.3 332.13 517.51 332.99 518.72 333.84 520.03 334.55 521.33 335.27 522.73 335.85 524.14 336.43 525.63 336.88 527.12 337.32 528.71 337.63 530.3 337.94 531.98 338.12 532.83 338.21 533.69 338.26 534.56 338.32 535.44 338.34 535.44 338.34 535.44 338.34 536.8 338.37 538.32 338.28 539.84 338.19 541.53 337.98 542.37 337.88 543.26 337.74 544.15 337.61 545.08 337.44 546.01 337.28 546.98 337.08 547.95 336.89 548.96 336.67 548.96 336.67 548.96 336.67M530.17 437.06Q530.17 437.06 530.17 437.06 531.3 437.08 532.44 437.08 533.57 437.07 534.69 437.05 535.82 437.02 536.95 436.98 538.07 436.93 539.19 436.87 540.31 436.8 541.43 436.72 542.55 436.63 543.66 436.52 544.78 436.41 545.89 436.28 547 436.15 548.11 436 549.22 435.85 550.32 435.68 551.43 435.51 552.53 435.31 553.63 435.12 554.73 434.91 555.83 434.69 556.93 434.46 558.03 434.22 559.12 433.96 560.21 433.7 561.31 433.43 562.4 433.15 563.49 432.85 564.57 432.54 565.66 432.22 566.75 431.9 567.8 431.56 568.85 431.22 569.86 430.86 570.87 430.5 571.85 430.12 572.82 429.75 573.76 429.35 574.7 428.96 575.61 428.54 576.51 428.13 577.37 427.7 578.24 427.27 579.07 426.82 579.9 426.36 580.7 425.9 581.49 425.43 582.25 424.94 583 424.45 583.72 423.95 584.44 423.44 585.13 422.91 585.81 422.39 586.46 421.85 587.11 421.3 587.72 420.74 588.33 420.18 588.9 419.6 589.48 419.02 590.01 418.42 590.55 417.82 591.05 417.2 591.05 417.2 591.05 417.2 590.1 416.84 589.13 416.48 588.16 416.13 587.17 415.78 586.18 415.43 585.17 415.09 584.16 414.74 583.13 414.4 582.1 414.07 581.06 413.73 580.01 413.4 578.94 413.07 577.87 412.74 576.78 412.42 575.69 412.1 574.58 411.78 573.47 411.47 572.34 411.16 571.21 410.85 570.07 410.54 568.92 410.24 567.75 409.94 566.58 409.64 565.39 409.34 564.2 409.05 562.99 408.76 561.78 408.47 560.56 408.19 559.33 407.91 558.08 407.63 556.83 407.36 555.56 407.09 554.29 406.82 553 406.55 551.72 406.29 550.41 406.03 549.1 405.77 547.77 405.51 546.44 405.26 545.09 405.01 543.74 404.77 542.37 404.52 541 404.28 539.61 404.05 538.22 403.81 536.81 403.58 535.4 403.35 533.97 403.13 532.54 402.91 531.09 402.69 529.64 402.47 528.17 402.26 526.7 402.05 525.21 401.84 523.72 401.64 522.2 401.44 520.69 401.24 519.16 401.04 517.62 400.85 516.07 400.66 514.51 400.47 512.94 400.29 511.36 400.11 509.77 399.94 509.77 399.94 509.77 399.94 508.63 400.64 507.57 401.34 506.51 402.04 505.51 402.72 504.52 403.41 503.6 404.09 502.68 404.77 501.83 405.45 500.98 406.12 500.2 406.78 499.42 407.44 498.72 408.1 498.01 408.75 497.38 409.4 496.74 410.04 496.18 410.68 495.62 411.32 495.13 411.95 494.64 412.57 494.22 413.19 493.39 414.43 492.84 415.63 492.29 416.83 492.04 418 491.78 419.17 491.81 420.3 491.81 420.3 491.81 420.3 491.84 421.25 492.03 422.15 492.23 423.06 492.59 423.91 492.96 424.76 493.49 425.57 494.01 426.38 494.71 427.13 495.41 427.89 496.27 428.59 497.13 429.3 498.15 429.96 499.18 430.61 500.36 431.22 501.55 431.83 502.9 432.39 504.25 432.94 505.69 433.43 507.13 433.93 508.66 434.35 510.18 434.77 511.8 435.13 512.61 435.31 513.44 435.47 514.27 435.63 515.12 435.78 515.97 435.92 516.84 436.05 517.72 436.18 518.61 436.29 519.51 436.41 520.43 436.5 521.35 436.6 522.29 436.68 523.23 436.76 524.19 436.82 525.15 436.89 526.14 436.93 527.13 436.98 528.13 437.01 529.14 437.05 530.17 437.06 530.17 437.06 530.17 437.06M820.92 370.34Q820.39 370.91 819.67 371.45 818.94 371.99 818.22 372.54 817.49 373.08 816.77 373.62 816.04 374.16 815.31 374.7 814.59 375.25 813.86 375.79 813.14 376.33 812.42 376.88 811.69 377.42 810.97 377.97 810.24 378.52 809.52 379.07 808.8 379.61 808.07 380.16 807.35 380.71 806.63 381.26 805.9 381.81 805.18 382.37 804.46 382.92 803.74 383.47 803.01 384.03 802.29 384.58 801.57 385.14 800.85 385.7 800.13 386.25 799.4 386.81 798.68 387.37 797.96 387.93 796.37 387.62 794.78 387.3 793.19 386.99 791.6 386.67 790.01 386.36 788.43 386.04 786.84 385.73 785.25 385.41 783.66 385.1 782.07 384.79 780.48 384.48 778.9 384.17 777.31 383.85 775.72 383.54 774.14 383.23 772.55 382.92 770.96 382.61 769.38 382.31 767.79 382 766.21 381.69 764.62 381.38 763.04 381.08 761.45 380.77 759.87 380.47 758.28 380.16 756.7 379.86 755.11 379.56 753.53 379.26 751.94 378.96 750.36 378.66 748.78 378.36 747.19 378.06 745.61 377.76 744.02 377.46 742.44 377.16 740.85 376.87 739.27 376.57 737.69 376.28 736.1 375.98 734.52 375.69 732.93 375.4 731.35 375.11 729.76 374.82 728.18 374.53 726.59 374.24 725.01 373.95 723.42 373.66 721.84 373.37 720.25 373.09 718.67 372.8 717.08 372.52 715.49 372.24 713.91 371.95 712.32 371.67 710.73 371.39 709.14 371.11 707.56 370.83 705.97 370.55 704.38 370.27 702.79 369.99 701.2 369.71 699.61 369.44 698.02 369.16 696.43 368.89 696.54 370.86 696.71 372.8 696.88 374.73 697.11 376.61 697.34 378.5 697.63 380.33 697.92 382.17 698.27 383.96 698.62 385.75 699.03 387.49 699.44 389.22 699.91 390.91 700.38 392.6 700.9 394.24 701.43 395.88 702.02 397.47 702.61 399.06 703.25 400.6 703.9 402.14 704.61 403.63 705.31 405.12 706.08 406.56 706.84 408 707.66 409.39 708.49 410.78 709.37 412.12 710.25 413.46 711.19 414.75 712.13 416.04 713.13 417.28 714.12 418.51 715.18 419.7 716.24 420.89 717.33 422.01 718.42 423.13 719.54 424.19 720.67 425.25 721.83 426.24 722.98 427.23 724.18 428.16 725.37 429.08 726.6 429.95 727.83 430.81 729.09 431.61 730.35 432.41 731.65 433.15 732.94 433.89 734.27 434.56 735.6 435.24 736.97 435.85 738.33 436.46 739.73 437.01 741.13 437.56 742.56 438.05 744 438.54 745.46 438.97 746.93 439.4 748.43 439.77 749.94 440.14 751.47 440.45 753.01 440.76 754.58 441.01 756.15 441.26 757.76 441.45 757.76 441.45 757.76 441.45 759.1 441.61 760.46 441.72 761.83 441.82 763.22 441.88 764.62 441.94 766.05 441.95 767.47 441.96 768.93 441.92 770.39 441.88 771.87 441.79 773.36 441.7 774.88 441.56 776.4 441.42 777.95 441.24 779.5 441.06 781.08 440.83 782.66 440.6 784.27 440.33 785.89 440.05 787.53 439.74 789.17 439.42 790.85 439.06 792.52 438.7 794.23 438.29 795.94 437.89 797.68 437.45 799.42 437.01 801.19 436.52 802.96 436.04 804.76 435.51 805.66 435.25 806.57 434.98 807.48 434.7 808.4 434.42 808.4 434.42 808.4 434.42 808.92 435.76 809.45 437.11 809.97 438.45 810.49 439.79 811.01 441.13 811.54 442.47 812.06 443.81 812.58 445.14 813.1 446.48 813.62 447.82 814.15 449.16 814.67 450.49 815.19 451.83 815.71 453.16 816.23 454.5 816.75 455.83 815.78 456.16 814.81 456.49 813.83 456.82 812.86 457.16 811.89 457.49 810.92 457.83 809.95 458.17 808.98 458.51 808.01 458.86 807.04 459.2 806.07 459.55 805.1 459.9 804.13 460.25 803.16 460.6 802.19 460.95 801.22 461.31 800.26 461.67 799.29 462.03 798.32 462.39 797.36 462.75 796.39 463.12 795.42 463.48 794.46 463.85 793.49 464.22 792.53 464.59 791.56 464.97 790.6 465.34 789.63 465.72 788.67 466.09 787.71 466.47 786.74 466.85 785.78 467.24 784.82 467.62 783.85 468.01 782.89 468.39 781.93 468.78 780.96 469.18 780 469.57 779.04 469.97 778.07 470.36 777.11 470.77 776.15 471.17 775.19 471.58 774.22 471.98 773.26 472.4 772.3 472.81 771.33 473.23 770.37 473.65 769.41 474.07 768.44 474.49 767.48 474.92 766.52 475.35 765.56 475.77 764.59 476.2 763.63 476.62 762.67 477.04 761.71 477.46 760.75 477.87 759.79 478.28 758.83 478.69 757.87 479.09 756.91 479.49 755.95 479.89 754.99 480.29 753.42 480.21 751.85 480.12 750.28 480.03 748.71 479.95 747.14 479.86 745.56 479.81 743.99 479.81 742.4 479.61 741.05 479.52 739.7 479.47 738.36 479.41 737.03 479.36 735.71 479.2 734.4 479 733.09 478.8 731.79 478.57 730.5 478.34 729.22 478.09 727.94 477.83 726.67 477.52 725.41 477.19 724.16 476.84 722.92 476.48 721.68 476.1 720.45 475.72 719.23 475.33 718.01 474.95 716.8 474.55 715.59 474.17 714.4 473.77 713.2 473.36 712.02 472.94 710.84 472.51 709.67 472.06 708.5 471.62 707.35 471.14 706.2 470.67 705.06 470.18 703.92 469.68 702.79 469.15 701.67 468.63 700.55 468.08 699.44 467.52 698.35 466.94 697.25 466.36 696.16 465.76 695.08 465.15 694.01 464.51 692.94 463.87 691.89 463.2 690.83 462.53 689.79 461.84 688.75 461.14 687.72 460.41 686.69 459.69 685.67 458.93 684.66 458.17 683.65 457.39 682.65 456.6 681.66 455.78 680.67 454.96 679.69 454.11 678.72 453.26 677.75 452.38 676.79 451.49 675.84 450.58 674.88 449.67 673.95 448.72 673.01 447.77 672.08 446.79 671.15 445.81 670.23 444.8 669.32 443.79 668.43 442.76 667.54 441.73 666.67 440.69 665.81 439.64 664.97 438.57 664.13 437.51 663.31 436.43 662.5 435.35 661.71 434.25 660.92 433.15 660.16 432.03 659.4 430.92 658.67 429.79 657.93 428.66 657.23 427.51 656.53 426.36 655.85 425.2 655.18 424.04 654.54 422.86 653.89 421.68 653.28 420.49 652.67 419.3 652.09 418.09 651.52 416.89 650.97 415.67 650.42 414.44 649.91 413.21 649.39 411.98 648.91 410.73 648.42 409.48 647.97 408.22 647.52 406.96 647.09 405.68 646.67 404.41 646.27 403.12 645.88 401.83 645.51 400.53 645.14 399.23 644.81 397.92 644.47 396.6 644.16 395.28 643.85 393.95 643.57 392.61 643.29 391.27 643.04 389.92 642.79 388.57 642.56 387.21 642.34 385.84 642.15 384.46 641.95 383.09 641.78 381.7 641.62 380.31 641.48 378.91 641.34 377.51 641.22 376.1 641.11 374.68 641.03 373.26 640.95 371.84 640.89 370.4 640.83 368.96 640.81 367.51 640.78 366.07 640.78 364.61 640.78 364.61 640.78 364.61 640.78 363.08 640.81 361.57 640.84 360.06 640.89 358.57 640.95 357.08 641.03 355.61 641.12 354.14 641.23 352.69 641.34 351.24 641.48 349.81 641.62 348.38 641.79 346.97 641.96 345.56 642.16 344.16 642.36 342.77 642.58 341.4 642.81 340.03 643.06 338.68 643.31 337.33 643.59 336 643.88 334.67 644.18 333.35 644.49 332.04 644.83 330.75 645.17 329.46 645.53 328.19 645.9 326.92 646.29 325.66 646.69 324.41 647.11 323.18 647.53 321.95 647.98 320.74 648.43 319.53 648.91 318.34 649.39 317.15 649.89 315.98 650.4 314.8 650.93 313.65 651.47 312.5 652.03 311.37 652.59 310.24 653.18 309.13 653.77 308.02 654.39 306.93 655.01 305.84 655.65 304.77 656.3 303.7 656.97 302.65 657.65 301.6 658.35 300.57 659.05 299.54 659.79 298.53 660.52 297.52 661.28 296.53 662.03 295.54 662.82 294.57 663.61 293.6 664.42 292.65 665.24 291.7 666.08 290.77 666.93 289.85 667.8 288.94 668.67 288.03 669.57 287.14 670.47 286.25 671.38 285.39 672.3 284.54 673.22 283.72 674.15 282.9 675.08 282.12 676.02 281.34 676.97 280.59 677.92 279.84 678.88 279.13 679.84 278.42 680.81 277.74 681.78 277.06 682.77 276.42 683.75 275.79 684.75 275.18 685.74 274.58 686.75 274.02 687.76 273.45 688.78 272.92 689.8 272.39 690.83 271.9 691.86 271.42 692.9 270.96 693.95 270.51 695 270.1 696.05 269.68 697.12 269.31 698.19 268.93 699.26 268.6 700.34 268.26 701.43 267.97 702.51 267.67 703.61 267.41 704.71 267.15 705.82 266.93 706.93 266.72 708.06 266.54 709.18 266.36 710.31 266.22 711.44 266.08 712.58 265.98 713.73 265.88 714.88 265.82 716.04 265.76 717.2 265.74 718.37 265.72 719.54 265.74 720.72 265.76 721.91 265.82 723.09 265.88 724.29 265.97 725.49 266.07 726.7 266.21 727.91 266.35 729.13 266.53 730.35 266.7 731.58 266.92 732.81 267.14 734.05 267.4 735.29 267.66 736.54 267.95 737.79 268.25 739.06 268.59 739.06 268.59 739.06 268.59 740.16 268.89 741.25 269.2 742.34 269.52 743.42 269.86 744.49 270.21 745.56 270.57 746.62 270.94 747.67 271.32 748.72 271.71 749.76 272.12 750.79 272.53 751.82 272.97 752.84 273.4 753.85 273.85 754.86 274.31 755.86 274.79 756.86 275.27 757.84 275.77 758.83 276.27 759.8 276.8 760.77 277.32 761.73 277.87 762.69 278.41 763.63 278.98 764.58 279.55 765.51 280.14 766.44 280.73 767.36 281.34 769.2 282.56 770.99 283.87 772.78 285.18 774.53 286.57 776.27 287.96 777.96 289.43 779.65 290.89 781.3 292.43 782.95 293.97 784.55 295.59 786.16 297.19 787.73 298.87 789.29 300.53 790.82 302.27 792.35 303.99 793.85 305.77 795.35 307.53 796.81 309.36 798.28 311.17 799.68 312.99 801.08 314.79 802.4 316.61 803.73 318.41 804.98 320.23 806.24 322.04 807.41 323.86 808.58 325.67 809.67 327.5 810.76 329.33 811.75 331.17 812.74 333.01 813.62 334.87 814.49 336.73 815.25 338.61 816 340.49 816.66 342.4 817.3 344.3 817.85 346.23 818.4 348.16 818.86 350.11 819.08 351.09 819.29 352.07 819.49 353.06 819.67 354.05 819.86 355.04 820.01 356.04 820.17 357.04 820.31 358.04 820.44 359.05 820.56 360.06 820.67 361.07 820.76 362.09 820.85 363.11 820.92 364.14 820.99 365.17 821.01 366.2 820.97 367.22 820.94 368.25 820.92 369.28 820.92 370.34 820.92 370.34 820.92 370.34 820.92 370.34 820.92 370.34M725.23 298.24Q725.23 298.24 725.23 298.24 723.94 298.75 722.71 299.37 721.48 299.98 720.31 300.7 719.14 301.41 718.02 302.23 716.91 303.04 715.85 303.96 714.79 304.88 713.79 305.89 712.79 306.91 711.84 308.02 710.9 309.13 710.01 310.34 709.12 311.56 708.29 312.86 707.46 314.17 706.69 315.58 705.91 316.98 705.2 318.49 704.48 319.99 703.83 321.58 703.17 323.18 702.57 324.87 701.97 326.57 701.43 328.35 700.89 330.14 700.41 332.02 699.92 333.9 699.5 335.88 699.28 336.86 699.09 337.87 698.89 338.88 698.7 339.92 698.7 339.92 698.7 339.92 699.78 340.05 700.86 340.19 701.93 340.33 703.01 340.47 704.09 340.61 705.16 340.75 706.24 340.89 707.31 341.03 708.39 341.17 709.46 341.31 710.54 341.46 711.61 341.6 712.69 341.75 713.76 341.89 714.84 342.04 715.91 342.18 716.99 342.33 718.06 342.48 719.13 342.63 720.21 342.78 721.28 342.93 722.36 343.08 723.43 343.23 724.5 343.39 725.58 343.54 726.65 343.7 727.72 343.85 728.8 344.01 729.87 344.16 730.94 344.32 732.02 344.48 733.09 344.64 734.16 344.8 735.23 344.96 736.31 345.12 737.38 345.28 738.45 345.44 739.53 345.6 740.6 345.77 741.67 345.93 742.74 346.1 743.82 346.26 744.89 346.43 745.96 346.6 747.04 346.77 748.11 346.94 749.18 347.1 750.25 347.27 751.33 347.45 752.4 347.62 753.47 347.79 754.55 347.96 755.62 348.13 756.69 348.31 757.77 348.48 758.84 348.66 759.91 348.83 760.99 349.01 762.06 349.19 763.13 349.36 764.21 349.54 765.28 349.72 766.36 349.9 767.43 350.08 767.25 348.96 767.03 347.86 766.81 346.75 766.56 345.66 766.3 344.57 766.01 343.49 765.72 342.41 765.4 341.34 765.08 340.27 764.72 339.22 764.36 338.16 763.97 337.11 763.58 336.06 763.15 335.03 762.72 333.99 762.26 332.97 761.8 331.94 761.3 330.93 760.81 329.91 760.28 328.91 759.75 327.9 759.18 326.91 758.62 325.92 758.02 324.94 757.42 323.95 756.79 322.98 756.16 322.01 755.5 321.05 754.83 320.09 754.13 319.14 753.43 318.19 752.7 317.25 751.97 316.31 751.22 315.41 750.47 314.51 749.71 313.65 748.18 311.94 746.59 310.39 745 308.85 743.35 307.47 741.7 306.1 739.98 304.9 738.27 303.71 736.49 302.69 734.71 301.67 732.87 300.83 731.02 300 729.11 299.35 727.2 298.7 725.23 298.24 725.23 298.24 725.23 298.24M901.55 377.73Q902.36 377.01 903.17 376.3 903.96 375.6 904.75 374.9 905.54 374.21 906.31 373.52 907.08 372.84 907.84 372.17 908.6 371.5 909.34 370.84 910.08 370.19 910.82 369.54 911.54 368.9 912.26 368.26 912.97 367.63 913.68 367 914.38 366.38 915.07 365.77 915.76 365.16 916.44 364.56 917.11 363.96 917.78 363.37 918.44 362.78 919.1 362.2 919.75 361.62 920.4 361.05 921.04 360.48 921.68 359.91 922.31 359.36 922.94 358.8 923.57 358.25 924.19 357.71 924.92 357.93 925.67 358.21 926.41 358.49 927.17 358.83 927.92 359.17 928.69 359.56 929.46 359.96 930.24 360.42 931.02 360.88 931.81 361.39 932.6 361.91 933.4 362.48 934.21 363.06 935.03 363.69 935.84 364.32 936.67 365.01 936.67 365.01 936.67 365.01 937.5 365.7 938.31 366.42 939.13 367.13 939.93 367.87 940.73 368.62 941.52 369.38 942.3 370.15 943.08 370.93 943.86 371.72 944.62 372.53 945.39 373.33 946.15 374.16 946.92 374.98 947.68 375.82 948.44 376.66 949.21 377.5 949.98 378.34 950.76 379.19 951.55 380.03 952.36 380.87 953.18 381.69 954.03 382.51 954.9 383.31 955.8 384.1 956.73 384.87 957.69 385.62 958.68 386.35 959.7 387.07 960.74 387.77 961.79 388.47 962.87 389.15 963.78 389.77 963.78 389.77 963.78 389.77 964.53 390.54 965.2 391.3 965.8 392.04 966.38 392.77 966.96 393.5 967.52 394.23 968.09 394.95 968.63 395.66 969.16 396.39 969.67 397.11 970.19 397.83 970.68 398.54 971.18 399.25 971.65 399.95 972.12 400.66 972.56 401.37 973 402.07 973.43 402.77 973.85 403.47 974.25 404.16 974.65 404.86 975.02 405.55 975.39 406.24 975.74 406.93 976.09 407.61 976.42 408.29 976.75 408.98 977.05 409.65 977.35 410.33 977.63 411 977.91 411.68 978.17 412.34 978.42 413.01 978.65 413.67 978.88 414.33 979.09 414.99 979.3 415.64 979.48 416.29 979.66 416.95 979.82 417.59 979.98 418.24 980.12 418.88 980.25 419.52 980.36 420.15 980.47 420.79 980.56 421.42 980.64 422.05 980.7 422.67 980.76 423.29 980.8 423.91 980.84 424.53 980.85 425.14 980.86 425.75 980.86 426.35 980.84 426.96 980.81 427.56 980.77 428.15 980.71 428.75 980.65 429.34 980.57 429.92 980.48 430.51 980.38 431.09 980.27 431.67 980.14 432.24 980.14 432.24 980.14 432.24 978.15 431.76 976.16 431.28 974.19 430.8 972.23 430.31 970.27 429.82 968.33 429.33 966.4 428.83 964.49 428.33 962.58 427.83 960.68 427.32 958.8 426.81 956.93 426.29 955.07 425.77 953.22 425.25 951.39 424.73 949.56 424.2 949.03 423.12 948.5 422.03 947.96 420.94 947.43 419.85 946.89 418.76 946.35 417.67 945.81 416.58 945.27 415.48 944.72 414.39 944.18 413.29 943.64 412.2 943.09 411.1 942.54 410 942 408.9 941.45 407.8 940.9 406.69 940.36 405.59 939.81 404.48 939.26 403.37 938.72 402.26 938.18 401.15 937.63 400.03 937.09 398.91 936.55 397.79 936.01 396.67 935.48 395.54 934.94 394.41 934.41 393.28 933.88 392.14 933.36 391 932.83 389.85 932.31 388.71 931.45 388.94 930.6 389.2 929.75 389.47 928.9 389.77 928.04 390.08 927.2 390.41 926.34 390.75 925.5 391.13 924.65 391.5 923.8 391.91 922.95 392.33 922.11 392.77 921.26 393.23 920.41 393.71 919.57 394.2 918.72 394.72 917.88 395.24 917.04 395.8 916.19 396.36 915.35 396.95 914.5 397.55 913.67 398.18 912.82 398.81 911.98 399.48 911.14 400.15 910.31 400.85 909.46 401.56 908.63 402.3 907.79 403.04 906.95 403.82 906.11 404.6 905.28 405.41 905.28 405.41 905.28 405.41 905.41 406.45 905.54 407.5 905.67 408.54 905.79 409.58 905.92 410.63 906.04 411.67 906.16 412.71 906.28 413.76 906.4 414.8 906.52 415.84 906.63 416.88 906.74 417.92 906.85 418.96 906.96 420 907.07 421.04 907.18 422.08 907.28 423.12 907.38 424.16 907.48 425.2 907.58 426.24 907.68 427.28 907.77 428.32 907.86 429.36 907.95 430.4 908.04 431.44 908.12 432.48 908.21 433.52 908.29 434.55 908.37 435.59 908.44 436.63 908.52 437.67 908.59 438.7 908.66 439.74 908.72 440.78 908.79 441.81 908.85 442.85 908.91 443.88 908.96 444.92 909.02 445.95 909.07 446.99 909.12 448.02 909.17 449.06 909.21 450.09 909.25 451.13 909.29 452.16 909.33 453.19 909.36 454.22 909.39 455.26 909.42 456.29 909.45 457.32 909.47 458.35 909.49 459.38 909.51 460.41 909.52 461.44 909.54 462.47 909.55 463.5 909.56 464.53 909.56 465.55 909.56 466.58 909.56 467.61 909.56 468.63 909.56 469.66 909.55 470.68 909.54 471.71 911.12 472.26 912.65 472.81 914.19 473.36 915.68 473.91 917.18 474.46 918.63 475.01 920.08 475.55 921.49 476.1 922.9 476.65 924.27 477.19 925.63 477.73 926.96 478.28 928.28 478.82 929.56 479.36 930.84 479.9 932.08 480.44 933.31 480.98 934.5 481.52 935.69 482.05 936.84 482.59 937.98 483.12 939.08 483.66 940.18 484.19 941.23 484.72 942.28 485.25 943.28 485.78 944.28 486.31 945.23 486.84 946.18 487.37 947.08 487.89 947.98 488.42 948.83 488.94 948.83 488.94 948.83 488.94 948.55 489.85 948.28 490.76 948 491.67 947.72 492.58 947.43 493.5 947.15 494.41 946.86 495.33 946.58 496.25 946.29 497.17 946.01 498.09 945.73 499.02 945.46 499.94 945.18 500.87 944.91 501.8 944.65 502.73 944.42 503.53 942.7 503.28 940.98 503.02 939.26 502.76 937.54 502.51 935.83 502.25 934.11 501.99 932.39 501.73 930.68 501.48 928.96 501.22 927.24 500.96 925.52 500.7 923.81 500.44 922.09 500.19 920.37 499.93 918.66 499.67 916.94 499.41 915.22 499.16 913.5 498.91 911.78 498.66 910.06 498.42 908.35 498.18 906.63 497.94 904.91 497.7 903.18 497.52 901.45 497.34 899.73 497.16 898 496.97 896.27 496.79 894.55 496.6 892.82 496.4 891.1 496.21 889.38 496.01 887.65 495.81 885.93 495.59 884.21 495.32 882.5 495.05 880.78 494.78 879.07 494.51 877.35 494.24 875.64 493.98 873.92 493.72 872.21 493.46 870.49 493.2 868.77 492.94 867.05 492.72 865.33 492.53 863.6 492.35 861.87 492.17 860.15 491.99 858.42 491.81 856.69 491.62 854.97 491.44 853.24 491.26 851.51 491.08 849.79 490.89 848.06 490.7 846.34 490.51 844.61 490.32 843.75 490.22 842.89 490.13 842.02 490.03 841.16 489.94 840.3 489.84 839.44 489.75 838.57 489.65 837.71 489.55 836.85 489.46 835.98 489.36 835.12 489.27 834.26 489.17 834.1 487.82 833.93 486.26 833.76 484.66 833.58 483.04 833.4 481.41 833.22 479.77 833.04 478.13 832.86 476.48 834.06 475.96 835.36 475.46 836.66 474.95 838.06 474.45 839.46 473.95 840.96 473.46 842.45 472.98 844.05 472.51 844.85 472.27 845.67 472.04 846.5 471.81 847.34 471.58 848.19 471.36 849.07 471.13 849.94 470.91 850.84 470.69 851.74 470.48 852.66 470.26 853.58 470.05 854.53 469.85 855.48 469.64 856.45 469.44 857.42 469.24 858.42 469.04 858.42 469.04 858.42 469.04 858.4 468.1 858.38 467.16 858.37 466.22 858.35 465.27 858.33 464.33 858.31 463.38 858.29 462.43 858.27 461.48 858.25 460.53 858.23 459.58 858.21 458.63 858.19 457.67 858.17 456.72 858.15 455.76 858.13 454.81 858.12 453.85 858.1 452.89 858.08 451.93 858.06 450.98 858.04 450.02 858.02 449.06 858 448.1 857.98 447.14 857.96 446.17 857.94 445.21 857.93 444.25 857.91 443.29 857.89 442.32 857.87 441.36 857.85 440.4 857.83 439.43 857.81 438.47 857.79 437.5 857.78 436.54 857.76 435.57 857.74 434.61 857.72 433.64 857.7 432.67 857.68 431.71 857.66 430.74 857.64 429.77 857.62 428.81 857.6 427.84 857.59 426.87 857.57 425.9 857.55 424.94 857.53 423.97 857.51 423 857.49 422.03 857.47 421.06 857.45 420.09 857.43 419.12 857.41 418.15 857.39 417.18 857.37 416.21 857.34 415.24 857.32 414.27 857.3 413.3 857.28 412.33 857.26 411.36 857.24 410.39 857.22 409.42 857.2 408.45 857.17 407.48 857.15 406.51 857.13 405.54 857.11 404.57 857.09 403.6 857.06 402.62 857.04 401.65 857.02 400.68 857 399.71 856.97 398.74 856.95 397.76 856.93 396.79 856.9 395.82 856.88 394.85 856.86 393.87 856.83 392.9 856.81 391.93 856.79 390.95 856.76 389.98 856.74 389.01 856.71 388.03 856.69 387.06 856.66 386.09 856.64 385.11 856.61 384.14 856.59 383.16 856.56 382.19 856.54 381.22 856.51 380.24 856.49 379.27 856.46 378.29 856.44 377.32 856.41 376.34 856.39 375.36 856.36 374.39 856.33 373.41 856.31 372.44 856.28 371.46 856.25 370.49 856.23 369.51 856.2 368.53 856.17 367.56 856.15 366.58 856.12 365.6 856.09 364.63 856.07 363.65 856.04 362.67 856.01 361.69 855.98 360.72 855.95 359.74 855.93 358.76 855.9 357.78 855.87 356.8 855.84 355.83 855.81 354.85 855.78 353.87 855.76 352.89 855.73 351.91 855.7 350.93 855.67 349.95 855.64 348.97 855.61 347.99 855.58 347.02 855.55 346.04 855.52 345.06 854.04 344.22 852.56 343.39 851.09 342.56 849.61 341.74 848.12 340.92 846.64 340.1 845.15 339.28 843.65 338.48 842.16 337.67 840.66 336.87 839.16 336.07 837.65 335.28 836.14 334.49 834.62 333.71 833.1 332.94 831.57 332.16 831.42 330.96 831.28 329.76 831.14 328.56 830.99 327.36 830.85 326.16 830.71 324.96 830.56 323.76 830.42 322.56 830.28 321.35 830.13 320.15 829.99 318.95 829.85 317.75 829.7 316.55 829.56 315.34 829.42 314.14 829.28 312.94 830.15 312.86 831.02 312.8 831.89 312.74 832.75 312.7 833.6 312.67 834.46 312.65 835.3 312.63 836.15 312.63 836.99 312.64 837.82 312.66 838.65 312.69 839.49 312.73 840.31 312.77 841.14 312.83 841.96 312.89 842.79 312.97 843.61 313.04 844.43 313.14 845.25 313.23 846.07 313.34 846.89 313.46 847.7 313.58 848.52 313.71 849.34 313.85 850.16 314 850.97 314.15 851.79 314.32 852.61 314.49 853.42 314.67 854.24 314.86 855.06 315.05 855.87 315.25 856.69 315.46 857.51 315.68 858.32 315.91 859.14 316.15 859.96 316.39 860.77 316.64 861.59 316.89 862.41 317.16 863.23 317.43 864.04 317.72 864.86 318.01 865.68 318.31 866.5 318.61 867.32 318.92 868.14 319.24 868.96 319.57 869.77 319.9 870.59 320.25 871.41 320.6 872.23 320.96 873.06 321.32 873.88 321.7 874.7 322.08 875.52 322.48 876.34 322.87 877.16 323.28 877.99 323.68 878.81 324.11 879.63 324.53 880.45 324.98 881.27 325.42 882.1 325.87 882.1 325.87 882.1 325.87 883.08 327.34 884.06 328.82 885.04 330.31 886.02 331.79 887 333.28 887.97 334.77 888.95 336.26 889.93 337.74 890.92 339.23 891.9 340.72 892.89 342.21 893.87 343.69 894.86 345.18 895.86 346.66 896.85 348.14 897.85 349.62 897.96 350.52 898.07 351.41 898.18 352.3 898.29 353.19 898.4 354.08 898.51 354.97 898.62 355.86 898.73 356.75 898.84 357.63 898.96 358.52 899.07 359.4 899.19 360.28 899.3 361.16 899.42 362.05 899.53 362.92 899.65 363.8 899.76 364.68 899.88 365.56 900 366.43 900.12 367.31 900.23 368.18 900.35 369.05 900.47 369.92 900.59 370.8 900.71 371.67 900.83 372.53 900.95 373.4 901.07 374.27 901.19 375.14 901.31 376 901.43 376.87 901.55 377.73 901.55 377.73 901.55 377.73" class="warpedPath"></path><path fill="#c88087" d="M227.88 478.16Q227.71 479.28 227.54 480.43 227.37 481.62 227.19 482.84 227.01 484.09 226.83 485.36 226.65 486.67 226.47 487.99 226.29 489.34 226.1 490.7 225.92 492.09 225.73 493.49 225.55 494.9 225.37 496.33 225.19 497.78 225.01 499.23 224.83 500.69 224.66 502.17 224.49 503.65 224.32 505.14 224.15 506.64 223.99 508.15 223.83 509.66 223.68 511.18 223.53 512.71 223.39 514.24 223.25 515.78 223.11 517.32 222.97 518.87 222.84 520.42 222.72 521.97 222.6 523.53 222.48 525.09 222.36 526.66 222.25 528.22 222.14 529.8 222.03 531.37 221.93 532.95 221.83 534.53 221.74 536.11 221.64 537.69 221.55 539.28 221.46 540.87 221.38 542.46 221.3 544.05 221.22 545.65 221.14 547.24 221.07 548.84 221 550.44 220.93 552.05 220.86 553.65 220.8 555.25 220.74 556.86 220.69 558.47 220.63 560.08 220.58 561.69 220.53 563.3 220.49 564.91 220.44 566.52 220.4 568.14 220.37 569.76 220.33 571.37 220.3 572.99 220.27 574.61 220.25 576.23 220.22 577.85 220.2 579.47 220.18 581.09 220.17 582.72 220.15 584.34 220.14 585.97 220.14 587.59 220.13 589.22 220.13 590.85 220.13 592.48 220.13 594.11 220.14 595.74 220.15 597.37 220.16 599 220.17 600.63 220.18 602.26 220.2 603.9 220.22 605.53 220.24 607.17 220.27 608.8 220.29 610.44 220.32 612.08 220.35 613.72 220.39 615.36 220.42 617 220.46 618.64 220.5 620.28 220.54 621.93 220.58 623.57 220.62 625.22 220.67 626.87 220.72 628.52 220.76 630.17 220.81 631.82 220.87 633.48 220.92 635.13 220.97 636.79 221.03 638.45 221.08 640.11 221.14 641.77 221.19 643.44 221.25 645.11 221.31 646.78 221.37 648.46 221.43 650.14 221.49 651.82 221.54 653.5 221.6 655.19 221.66 656.89 221.72 658.58 221.77 660.29 221.83 662 221.89 663.71 221.94 665.43 221.99 667.16 222.04 668.89 222.09 670.63 222.14 672.38 222.19 674.14 222.23 675.91 222.27 677.69 222.31 679.48 222.34 681.29 224.71 682.62 227.01 683.93 229.31 685.22 231.54 686.49 233.78 687.74 235.95 688.97 238.12 690.19 240.23 691.39 242.34 692.57 244.38 693.73 246.42 694.88 248.4 696.01 250.38 697.13 252.29 698.22 254.21 699.31 256.05 700.37 259.75 702.49 263.18 704.5 266.62 706.5 269.79 708.4 272.96 710.3 275.87 712.09 278.78 713.89 281.01 715.42 281.01 715.42 281.01 715.42 281.21 716.55 281.01 717.53 280.81 718.51 280.61 719.48 280.4 720.46 280.2 721.44 280 722.42 279.8 723.4 279.6 724.38 279.4 725.37 279.2 726.36 279.01 727.35 278.82 728.36 278.65 729.38 278.52 730.45 278.42 731.44 274.96 730.47 271.04 729.35 267.52 728.32 264.17 727.33 260.26 726.14 256.35 724.94 252.44 723.71 249.06 722.62 245.59 721.48 241.69 720.18 238.21 718.99 234.85 717.84 230.97 716.46 227.39 715.17 224.09 713.97 220.28 712.54 216.6 711.14 213.31 709.87 209.62 708.4 205.77 706.86 201.94 705.28 198.41 703.81 195.14 702.42 191.88 701 188.43 699.48 184.63 697.77 181.25 696.22 177.99 694.7 174.75 693.16 171.21 691.44 167.46 689.6 163.74 687.72 160.21 685.91 157 684.23 153.79 682.51 150.49 680.72 146.84 678.69 143.48 676.79 140.3 674.97 137.13 673.1 133.8 671.09 130.23 668.91 127.03 666.91 123.91 664.92 120.81 662.89 117.47 660.67 114.06 658.36 111.36 656.47 108.35 654.33 104.97 651.89 101.64 649.4 98.5 647.02 95.86 644.96 92.82 642.53 89.65 639.96 87.04 637.76 84.18 635.31 81.07 632.59 78.46 630.23 75.77 627.74 72.78 624.9 69.86 622.02 67.01 619.18 64.59 616.65 64.12 614.92 63.37 613.27 62.45 611.81 61.42 610.42 60.32 609.05 59.17 607.67 57.99 606.28 56.78 604.9 59.28 606.02 61.96 607.28 64.63 608.55 67.48 609.95 70.35 611.34 73.4 612.86 74.94 613.61 76.52 614.38 78.11 615.16 79.74 615.96 81.38 616.75 83.07 617.57 84.77 618.38 86.52 619.21 88.27 620.04 90.07 620.9 91.88 621.74 93.74 622.61 95.61 623.47 97.53 624.35 99.45 625.23 101.43 626.12 103.42 627.01 105.46 627.92 107.5 628.82 109.6 629.74 109.6 629.74 109.6 629.74 109.25 628.08 108.88 626.44 108.5 624.82 108.11 623.21 107.71 621.61 107.3 620.03 106.88 618.46 106.46 616.9 106.03 615.35 105.6 613.8 105.17 612.26 104.74 610.73 104.3 609.2 103.87 607.68 103.44 606.16 103 604.65 102.58 603.14 102.15 601.63 101.73 600.12 101.31 598.62 100.9 597.12 100.49 595.62 100.09 594.12 99.7 592.62 99.31 591.13 98.93 589.63 98.56 588.14 98.19 586.64 97.83 585.15 97.48 583.66 97.14 582.16 96.8 580.67 96.48 579.18 96.16 577.69 95.86 576.19 95.56 574.7 95.27 573.21 94.99 571.71 94.72 570.22 94.46 568.72 94.21 567.23 93.97 565.73 93.74 564.23 93.52 562.72 93.31 561.22 93.11 559.72 92.92 558.21 92.75 556.7 92.58 555.19 92.42 553.68 92.27 552.17 92.14 550.65 92.01 549.14 91.9 547.62 91.8 546.1 91.71 544.59 91.63 543.07 91.56 541.55 91.5 540.04 91.45 538.52 91.42 537 91.4 535.49 91.39 533.97 91.39 532.46 91.4 530.95 91.42 529.44 91.46 527.92 91.51 526.42 91.57 524.91 91.64 523.4 91.72 521.9 91.81 520.39 91.92 518.89 92.04 517.39 92.17 515.89 92.31 514.39 92.46 512.9 92.63 511.41 92.8 509.92 92.99 508.43 93.19 506.94 93.4 505.46 93.62 503.98 93.85 502.5 94.1 501.03 94.36 499.56 94.62 498.09 94.9 496.63 95.19 495.17 95.49 493.71 95.8 492.26 96.13 490.81 96.46 489.37 96.81 487.93 97.16 486.49 97.53 485.06 97.9 483.64 98.29 482.22 98.69 480.8 99.09 479.39 99.51 477.98 99.94 476.58 100.38 475.19 100.83 473.8 101.28 472.42 101.75 471.04 102.23 469.67 102.72 468.3 103.22 466.94 103.72 465.59 104.24 464.24 104.77 462.9 105.3 461.57 105.85 460.24 106.4 458.92 106.96 457.61 107.54 456.3 108.12 455 108.71 453.71 109.31 452.42 109.91 451.15 110.53 449.88 111.15 448.63 111.78 447.38 112.42 446.14 113.06 444.91 113.72 443.69 114.38 442.48 110.7 440.53 107 438.58 103.28 436.61 99.53 434.64 95.76 432.66 91.96 430.67 88.13 428.67 84.27 426.67 80.37 424.66 76.44 422.65 72.47 420.64 68.47 418.63 64.43 416.62 60.36 414.61 56.26 412.6 52.13 410.61 52.35 409.6 52.58 408.59 52.81 407.58 53.04 406.59 53.26 405.62 53.47 404.67 53.68 403.73 53.89 402.79 54.1 401.84 54.33 400.89 54.59 399.92 54.87 398.93 55.14 397.95 55.41 396.96 55.68 395.97 55.95 394.99 58.77 395.75 61.59 396.51 64.43 397.26 67.27 398.03 70.1 398.8 72.91 399.57 75.69 400.36 78.42 401.16 81.1 401.97 83.72 402.81 86.28 403.66 88.76 404.54 91.17 405.44 93.52 406.37 95.81 407.31 98.04 408.28 100.22 409.26 102.36 410.27 104.46 411.28 106.53 412.3 108.57 413.34 110.58 414.39 112.57 415.44 114.54 416.52 116.49 417.59 118.43 418.67 120.36 419.76 122.29 420.84 124.21 421.92 126.14 422.99 128.06 424.05 129.99 425.1 131.92 426.14 133.86 427.18 135.8 428.2 137.74 429.23 139.68 430.26 141.62 431.29 143.55 432.32 145.48 433.37 147.41 434.42 149.33 435.49 151.25 436.57 153.16 437.65 155.07 438.75 156.98 439.85 158.89 440.94 160.83 442 162.79 443.01 164.78 444 166.76 444.98 168.76 445.94 170.78 446.85 172.81 447.74 174.84 448.63 176.87 449.53 178.88 450.47 180.88 451.44 182.89 452.42 184.89 453.4 186.94 454.29 189.04 455.11 191.14 455.92 193.23 456.75 193.23 456.75 193.23 456.75 195.31 458.21 197.4 459.64 199.51 461.06 201.62 462.46 203.75 463.83 205.89 465.17 208.05 466.5 210.21 467.81 212.39 469.1 214.58 470.39 216.78 471.67 218.98 472.95 221.2 474.24 223.42 475.53 225.64 476.84 227.88 478.16 227.88 478.16 227.88 478.16M412.05 546.85Q412.05 546.85 412.05 546.85 409.21 546.15 406.42 545.42 403.63 544.69 400.91 543.92 398.18 543.16 395.51 542.37 392.84 541.58 390.24 540.76 387.63 539.94 385.08 539.09 382.53 538.23 380.04 537.35 377.55 536.47 375.12 535.56 372.7 534.64 370.33 533.7 367.96 532.76 365.64 531.78 363.33 530.81 361.08 529.81 358.83 528.8 356.64 527.77 354.45 526.74 352.32 525.67 350.18 524.61 348.11 523.51 346.04 522.42 344.03 521.29 342.01 520.16 340.06 519.01 338.1 517.85 336.21 516.66 336.21 516.66 336.21 516.66 337.7 515.25 339.24 513.88 340.78 512.51 342.38 511.16 343.98 509.82 345.64 508.51 347.29 507.2 349 505.93 350.71 504.65 352.48 503.4 354.25 502.15 356.07 500.94 357.9 499.72 359.78 498.54 361.66 497.35 363.6 496.2 365.53 495.04 367.53 493.91 369.52 492.79 371.57 491.69 373.62 490.58 375.72 489.51 377.83 488.43 379.99 487.37 382.15 486.3 384.36 485.24 386.58 484.15 388.84 483.07 391.11 481.98 393.44 480.97 395.77 479.99 398.15 479.09 398.15 479.09 398.15 479.09 400.86 479.81 403.52 480.56 406.17 481.31 408.77 482.07 411.37 482.82 413.92 483.58 416.46 484.33 418.95 485.11 421.45 485.9 423.89 486.74 426.33 487.59 428.71 488.49 431.1 489.4 433.44 490.36 435.77 491.32 438.05 492.32 440.34 493.32 442.57 494.37 444.8 495.41 446.97 496.5 449.15 497.59 451.27 498.71 453.4 499.84 455.47 501.01 457.54 502.18 459.56 503.39 461.58 504.6 463.55 505.85 465.52 507.1 467.43 508.38 469.34 509.68 471.2 511.01 471.2 511.01 471.2 511.01 469.95 512.4 468.62 513.77 467.29 515.13 465.88 516.46 464.48 517.79 463 519.09 461.52 520.38 459.97 521.64 458.41 522.9 456.79 524.13 455.16 525.36 453.46 526.55 451.76 527.74 449.98 528.9 448.21 530.05 446.36 531.18 444.51 532.3 442.58 533.38 440.66 534.47 438.66 535.52 436.67 536.57 434.6 537.59 432.53 538.6 430.38 539.58 428.24 540.56 426.02 541.51 423.8 542.45 421.51 543.36 419.22 544.27 416.86 545.14 414.49 546.01 412.05 546.85 412.05 546.85 412.05 546.85M459.09 588.22Q459.09 589.31 459.09 590.39 459.09 591.47 459.09 592.55 459.09 593.64 459.09 594.72 459.09 595.8 459.09 596.88 459.09 597.97 459.09 599.05 459.09 600.13 459.09 601.22 459.09 602.3 459.09 603.38 459.09 604.47 459.09 605.55 459.09 606.63 459.09 607.71 459.09 608.8 459.09 609.88 459.09 610.96 459.08 612.05 459.08 613.13 459.08 614.22 459.08 615.3 459.08 616.38 459.08 617.47 459.08 618.55 459.08 619.63 459.08 620.72 459.08 621.8 459.08 622.89 459.08 623.97 459.08 625.05 459.08 626.14 459.07 627.22 459.07 628.31 459.07 629.39 459.07 630.48 459.07 631.56 459.07 632.65 459.07 633.73 459.07 634.82 459.07 635.9 459.06 636.99 459.06 638.07 459.06 639.16 459.06 640.24 459.06 641.33 459.06 642.42 459.06 643.5 459.06 644.59 459.05 645.68 459.05 646.76 459.05 647.85 459.05 648.93 459.05 650.02 459.05 651.11 459.04 652.2 459.04 653.28 459.04 654.37 459.04 655.46 459.04 656.55 459.03 657.64 459.03 658.72 459.03 659.81 459.03 660.9 459.03 661.99 459.02 663.08 459.02 664.17 459.02 665.26 459.02 666.35 459.02 667.44 459.01 668.53 459.01 669.62 459.01 670.71 459 671.8 459 672.89 459 673.99 459 675.08 458.99 676.17 458.99 677.26 458.99 678.36 458.98 679.45 458.98 680.54 458.98 681.64 458.97 682.73 458.97 683.83 458.97 684.92 458.96 686.02 458.96 687.12 458.96 688.21 458.95 689.31 458.95 690.41 458.94 691.51 458.94 692.61 458.94 693.71 458.93 694.81 458.93 695.91 458.92 697.01 458.92 698.11 458.91 699.22 458.91 700.32 458.9 701.43 458.9 702.53 458.89 703.64 458.88 704.74 458.88 705.85 458.87 706.96 458.87 708.07 458.86 709.18 458.85 710.29 458.85 711.41 458.84 712.52 458.83 713.64 458.82 714.75 458.82 715.87 458.81 716.99 458.8 718.11 458.79 719.24 458.78 720.36 458.77 721.49 458.76 722.61 458.75 723.74 458.74 724.87 458.73 726.01 458.72 727.14 458.71 728.28 460.85 728.81 462.93 729.32 465.01 729.84 467.03 730.35 469.05 730.85 471.01 731.35 472.97 731.85 474.88 732.34 476.78 732.83 478.62 733.31 480.46 733.79 482.25 734.27 484.03 734.74 485.76 735.21 487.48 735.68 489.15 736.14 492.48 737.06 495.56 737.96 498.65 738.87 501.5 739.75 504.35 740.63 506.96 741.5 509.57 742.37 511.57 743.2 511.57 743.2 511.57 743.2 511.76 744.38 511.57 745.54 511.39 746.7 511.21 747.85 511.03 749.01 510.84 750.17 510.66 751.33 510.48 752.49 510.3 753.65 510.11 754.81 509.93 755.97 509.75 757.14 509.56 758.3 509.38 759.47 509.19 760.66 508.99 761.69 505.69 761.67 502.41 761.64 499.12 761.61 495.82 761.55 492.53 761.5 489.22 761.42 485.91 761.34 482.6 761.24 479.29 761.14 475.97 761.02 472.65 760.89 469.32 760.75 465.99 760.6 462.66 760.43 459.32 760.25 455.98 760.07 452.63 759.86 449.29 759.65 445.94 759.42 442.79 759.2 439.94 758.99 436.83 758.75 433.51 758.48 430.17 758.2 426.84 757.91 423.5 757.6 420.16 757.29 416.81 756.95 413.46 756.61 410.11 756.25 406.75 755.88 403.4 755.5 400.18 755.12 397.18 754.76 394.19 754.38 391.22 754 388 753.58 384.65 753.13 381.29 752.65 377.94 752.18 374.58 751.68 371.22 751.17 367.86 750.65 364.49 750.11 361.13 749.56 357.93 749.03 355.01 748.53 351.85 747.97 348.49 747.37 345.43 746.81 342.52 746.27 339.25 745.64 335.89 744.99 332.52 744.32 329.15 743.64 325.78 742.93 322.41 742.22 319.04 741.48 315.85 740.78 312.97 740.13 309.85 739.41 306.48 738.63 303.44 737.9 300.57 737.21 300.21 735.62 299.91 733.95 299.65 732.34 299.41 730.77 299.17 729.22 298.94 727.69 298.71 726.16 298.47 724.63 301.18 724.32 304.06 724.04 306.94 723.77 310 723.53 313.07 723.3 316.32 723.09 317.94 722.99 319.61 722.89 321.28 722.79 323 722.7 324.72 722.61 326.48 722.52 328.24 722.43 330.05 722.35 331.86 722.26 333.71 722.18 335.56 722.1 337.46 722.02 339.36 721.94 341.31 721.86 343.25 721.78 345.24 721.71 347.23 721.63 349.27 721.56 351.31 721.48 353.39 721.41 353.39 721.41 353.39 721.41 353.41 720.41 353.43 719.41 353.46 718.41 353.48 717.41 353.5 716.42 353.52 715.43 353.54 714.44 353.56 713.46 353.58 712.48 353.6 711.5 353.62 710.52 353.64 709.54 353.65 708.57 353.67 707.6 353.69 706.63 353.71 705.66 353.72 704.69 353.74 703.72 353.76 702.76 353.77 701.8 353.79 700.83 353.8 699.87 353.82 698.91 353.83 697.96 353.84 697 353.86 696.04 353.87 695.09 353.88 694.13 353.9 693.18 353.91 692.23 353.92 691.28 353.93 690.33 353.94 689.38 353.96 688.43 353.97 687.48 353.98 686.53 353.99 685.59 354 684.64 354 683.7 354.01 682.75 354.02 681.81 354.03 680.86 354.04 679.92 354.05 678.98 354.05 678.04 354.06 677.1 354.07 676.15 354.08 675.21 354.08 674.27 354.09 673.33 354.1 672.39 354.1 671.46 354.11 670.52 354.11 669.58 354.12 668.64 354.12 667.7 354.13 666.77 354.13 665.83 354.14 664.89 354.14 663.96 354.15 663.02 354.15 662.08 354.15 661.15 354.16 660.21 354.16 659.28 354.17 658.34 354.17 657.41 354.17 656.47 354.18 655.54 354.18 654.61 354.18 653.67 354.19 652.74 354.19 651.8 354.19 650.87 354.2 649.94 354.2 649.01 354.2 648.07 354.2 647.14 354.21 646.21 354.21 645.28 354.21 644.34 354.21 643.41 354.22 642.48 354.22 641.55 354.22 640.62 354.22 639.69 354.22 638.75 354.23 637.82 354.23 636.89 354.23 635.96 354.23 635.03 354.23 634.1 354.23 633.17 354.24 632.24 354.24 631.31 354.24 630.38 354.24 629.45 354.24 628.52 354.24 627.59 354.24 626.66 354.25 625.73 354.25 624.8 354.25 623.87 354.25 622.94 354.25 622.01 354.25 621.08 354.25 620.15 354.25 619.22 354.26 618.29 354.26 617.36 354.26 616.43 354.26 615.5 354.26 614.58 354.26 613.65 354.26 612.72 354.26 611.79 354.26 610.86 354.26 609.93 354.26 609 354.27 608.08 354.27 607.15 354.27 606.22 354.27 605.29 354.27 604.36 354.27 603.43 354.27 602.51 354.27 601.58 354.27 600.65 350.89 600.26 347.5 599.87 344.12 599.49 340.73 599.1 337.35 598.71 333.97 598.32 330.58 597.93 327.2 597.54 323.82 597.15 320.43 596.77 317.05 596.38 313.67 595.99 310.28 595.6 306.9 595.21 303.52 594.82 300.14 594.43 299.82 593.38 299.51 592.32 299.19 591.27 298.87 590.22 298.56 589.16 298.24 588.11 297.93 587.06 297.61 586.01 297.3 584.95 296.98 583.9 296.66 582.85 296.35 581.8 296.03 580.75 295.72 579.7 295.4 578.65 295.09 577.6 297.03 577.34 298.97 577.1 300.91 576.85 302.86 576.62 304.81 576.38 306.76 576.15 308.71 575.92 310.67 575.7 312.63 575.48 314.59 575.27 316.55 575.06 318.51 574.86 320.48 574.65 322.45 574.46 324.42 574.27 326.39 574.08 328.37 573.9 330.34 573.72 332.32 573.54 334.3 573.38 336.29 573.21 338.27 573.05 340.26 572.89 342.25 572.74 344.24 572.59 346.24 572.45 348.23 572.31 350.23 572.18 352.23 572.05 354.24 571.93 356.24 571.8 358.25 571.69 360.26 571.58 362.27 571.47 364.28 571.37 366.3 571.28 368.32 571.18 370.34 571.1 372.36 571.01 374.39 570.94 376.41 570.86 378.44 570.8 380.47 570.73 382.51 570.67 384.54 570.62 386.58 570.57 388.62 570.52 390.67 570.49 392.71 570.45 394.76 570.43 396.81 570.4 398.86 570.39 400.91 570.37 402.97 570.36 405.02 570.36 407.08 570.36 409.15 570.37 411.21 570.38 413.28 570.4 415.35 570.43 417.42 570.45 419.49 570.49 421.56 570.53 423.64 570.57 423.64 570.57 423.64 570.57 425.86 571.66 428.07 572.75 430.29 573.84 432.5 574.93 434.72 576.03 436.93 577.13 439.15 578.23 441.37 579.33 443.58 580.43 445.8 581.54 448.01 582.65 450.23 583.76 452.44 584.87 454.66 585.99 456.88 587.1 459.09 588.22 459.09 588.22 459.09 588.22M520.78 618.34Q520.78 616.4 520.81 614.48 520.84 612.56 520.9 610.66 520.97 608.77 521.06 606.89 521.16 605.01 521.28 603.16 521.41 601.3 521.57 599.47 521.73 597.64 521.92 595.83 522.11 594.02 522.33 592.23 522.55 590.44 522.8 588.67 523.05 586.91 523.34 585.16 523.62 583.42 523.94 581.7 524.26 579.97 524.6 578.27 524.95 576.57 525.33 574.9 525.71 573.22 526.12 571.56 526.53 569.91 526.97 568.28 527.42 566.65 527.89 565.04 528.36 563.43 528.87 561.84 529.38 560.25 529.91 558.69 530.45 557.13 531.02 555.58 531.59 554.04 532.19 552.53 532.79 551.01 533.42 549.51 534.06 548.02 534.72 546.55 535.39 545.08 536.08 543.63 536.78 542.18 537.51 540.76 538.23 539.34 538.99 537.94 539.75 536.54 540.54 535.16 541.34 533.79 542.16 532.44 542.98 531.09 543.84 529.76 544.69 528.44 545.58 527.13 546.47 525.83 547.39 524.56 548.31 523.28 549.26 522.03 550.21 520.79 551.2 519.56 552.18 518.34 553.2 517.14 554.21 515.94 555.25 514.79 556.28 513.63 557.33 512.52 558.38 511.4 559.44 510.33 560.51 509.26 561.59 508.23 562.67 507.19 563.77 506.2 564.86 505.21 565.98 504.26 567.09 503.31 568.22 502.39 569.35 501.48 570.5 500.61 571.64 499.74 572.8 498.9 573.97 498.07 575.14 497.27 576.32 496.48 577.51 495.72 578.71 494.97 579.92 494.26 581.13 493.55 582.35 492.88 583.58 492.22 584.82 491.59 586.06 490.97 587.32 490.39 588.57 489.81 589.84 489.27 591.12 488.73 592.4 488.22 593.69 487.72 595 487.25 596.3 486.77 597.62 486.33 598.94 485.89 600.28 485.48 601.61 485.07 602.96 484.69 604.32 484.32 605.68 484.01 607.05 483.7 608.43 483.46 609.81 483.22 611.21 483.02 612.6 482.83 614.01 482.66 615.43 482.48 616.85 482.3 618.28 482.11 619.73 481.96 621.17 481.8 622.64 481.68 624.1 481.57 625.57 481.49 627.05 481.42 628.54 481.39 630.03 481.36 631.54 481.36 633.04 481.37 634.56 481.45 636.08 481.56 637.59 481.71 639.09 481.85 640.57 482.03 642.06 482.21 643.53 482.43 645 482.65 646.45 482.91 647.9 483.17 649.33 483.46 650.76 483.76 652.18 484.09 653.6 484.41 654.99 484.77 656.39 485.14 657.77 485.53 659.16 485.93 660.52 486.36 661.88 486.79 663.23 487.25 664.58 487.71 665.91 488.21 667.23 488.7 668.55 489.23 669.86 489.76 671.15 490.32 672.44 490.89 673.72 491.48 674.99 492.08 676.25 492.71 677.51 493.34 678.75 494 679.99 494.66 681.21 495.36 682.43 496.06 683.63 496.79 684.83 497.52 686.02 498.28 687.2 499.05 688.36 499.84 689.53 500.64 690.67 501.47 691.81 502.3 692.94 503.17 694.06 504.03 695.17 504.93 696.27 505.82 697.36 506.75 698.44 507.68 699.5 508.64 700.57 509.6 701.61 510.59 702.65 511.57 703.67 512.59 704.69 513.61 705.69 514.65 706.69 515.69 707.67 516.77 708.64 517.84 709.6 518.94 710.55 520.03 711.48 521.16 712.42 522.27 713.33 523.42 714.24 524.57 715.11 525.73 715.99 526.88 716.83 528.05 717.67 529.22 718.47 530.4 719.28 531.57 720.05 532.76 720.83 533.95 721.57 535.15 722.31 536.35 723.02 537.57 723.73 538.78 724.42 540.01 725.1 541.24 725.76 542.48 726.42 543.72 727.05 544.98 727.68 546.24 728.29 547.51 728.9 548.78 729.49 550.07 730.08 551.36 730.64 552.66 731.21 553.96 731.75 555.29 732.3 556.61 732.81 557.95 733.33 559.28 733.82 560.64 734.31 562 734.78 563.37 735.24 564.74 735.68 566.14 736.12 567.53 736.53 568.94 736.94 570.35 737.32 571.78 737.71 573.21 738.06 574.66 738.41 576.1 738.74 577.57 739.06 579.04 739.36 580.52 739.65 582.01 739.92 583.52 740.19 585.02 740.42 586.55 740.66 588.07 740.87 589.62 741.08 591.17 741.25 592.73 741.43 594.3 741.58 595.88 741.73 597.47 741.85 599.07 741.97 600.68 742.06 602.31 742.15 603.93 742.21 605.58 742.16 607.23 742.13 608.9 742.1 610.58 742.1 612.27 742.1 612.27 742.1 612.27 742.1 613.97 742.13 615.65 742.16 617.33 742.21 618.99 742.15 620.65 742.06 622.3 741.97 623.95 741.85 625.57 741.74 627.2 741.59 628.81 741.44 630.41 741.27 632 741.09 633.59 740.88 635.16 740.68 636.73 740.44 638.29 740.21 639.84 739.94 641.37 739.68 642.91 739.38 644.42 739.09 645.94 738.76 647.44 738.44 648.94 738.09 650.42 737.73 651.9 737.35 653.36 736.97 654.83 736.55 656.28 736.14 657.72 735.7 659.16 735.26 660.59 734.79 662 734.32 663.42 733.81 664.82 733.31 666.22 732.78 667.6 732.25 668.98 731.69 670.35 731.13 671.72 730.55 673.08 729.96 674.43 729.34 675.78 728.72 677.12 728.07 678.45 727.42 679.78 726.75 681.09 726.07 682.41 725.36 683.72 724.66 685.02 723.92 686.32 723.19 687.61 722.42 688.9 721.66 690.19 720.86 691.46 720.07 692.74 719.25 694.01 718.43 695.28 717.58 696.54 716.72 697.81 715.85 699.06 714.97 700.32 714.06 701.57 713.15 702.83 712.22 704.07 711.28 705.32 710.33 706.54 709.38 707.77 708.42 708.97 707.46 710.18 706.48 711.36 705.5 712.55 704.51 713.71 703.51 714.88 702.5 716.01 701.5 717.15 700.47 718.27 699.45 719.38 698.41 720.47 697.37 721.56 696.31 722.62 695.25 723.69 694.18 724.72 693.1 725.76 692.01 726.76 690.92 727.77 689.81 728.74 688.7 729.71 687.58 730.66 686.46 731.6 685.33 732.5 684.2 733.41 683.06 734.28 681.92 735.16 680.76 735.99 679.6 736.83 678.42 737.64 677.23 738.44 676.02 739.21 674.81 739.98 673.58 740.72 672.35 741.45 671.11 742.15 669.88 742.84 668.66 743.5 667.45 744.15 666.25 744.76 665.04 745.37 663.8 745.95 662.53 746.52 661.22 747.07 659.89 747.62 658.53 748.14 657.17 748.65 655.79 749.13 654.41 749.6 653.01 750.04 651.61 750.48 650.19 750.87 648.78 751.27 647.35 751.63 645.91 751.99 644.47 752.31 643.02 752.62 641.56 752.91 640.09 753.06 638.61 753.23 637.13 753.39 635.63 753.59 635.63 753.59 635.63 753.59 634.11 753.8 632.67 754.02 631.33 754.23 630 754.44 628.67 754.53 627.36 754.58 626.03 754.62 624.72 754.62 623.4 754.62 622.07 754.58 620.64 754.55 619.21 754.47 617.77 754.4 616.35 754.28 614.92 754.16 613.52 753.99 612.11 753.83 610.72 753.61 609.33 753.4 607.96 753.14 606.58 752.88 605.22 752.57 603.87 752.27 602.53 751.92 601.19 751.56 599.87 751.16 598.55 750.76 597.24 750.32 595.94 749.87 594.66 749.38 593.38 748.89 592.12 748.35 590.87 747.81 589.63 747.23 588.4 746.64 587.19 746.01 585.97 745.38 584.77 744.71 583.57 744.03 582.38 743.31 581.19 742.59 580.01 741.83 578.82 741.07 577.64 740.26 576.46 739.45 575.29 738.6 574.12 737.75 572.95 736.86 571.79 735.96 570.64 735.03 569.49 734.09 568.35 733.11 567.21 732.13 566.08 731.11 564.95 730.09 563.83 729.02 562.71 727.96 561.61 726.86 560.5 725.75 559.4 724.6 558.31 723.46 557.23 722.27 556.14 721.08 555.07 719.86 554 718.63 552.95 717.38 551.91 716.13 550.9 714.85 549.88 713.58 548.89 712.28 547.91 710.99 546.95 709.67 546 708.35 545.08 707.01 544.15 705.67 543.26 704.31 542.37 702.95 541.51 701.56 540.66 700.18 539.83 698.77 539.01 697.37 538.23 695.94 537.44 694.51 536.7 693.05 535.95 691.6 535.24 690.13 534.53 688.65 533.86 687.16 533.19 685.66 532.56 684.14 531.93 682.62 531.33 681.08 530.73 679.54 530.17 677.97 529.61 676.41 529.09 674.82 528.56 673.23 528.07 671.63 527.58 670.02 527.12 668.39 526.67 666.75 526.24 665.1 525.82 663.45 525.43 661.77 525.04 660.09 524.68 658.39 524.33 656.7 524 654.98 523.68 653.25 523.39 651.51 523.1 649.77 522.84 648 522.58 646.24 522.36 644.45 522.13 642.66 521.94 640.85 521.74 639.04 521.58 637.21 521.42 635.38 521.29 633.53 521.16 631.67 521.07 629.8 520.97 627.92 520.91 626.02 520.84 624.12 520.81 622.2 520.78 620.28 520.78 618.34 520.78 618.34 520.78 618.34M654.09 704.15Q654.09 704.15 654.09 704.15 655.42 702.88 656.66 701.44 657.89 700 659.05 698.39 660.2 696.78 661.27 695.01 662.34 693.23 663.33 691.28 664.32 689.35 665.22 687.24 666.12 685.14 666.94 682.87 667.77 680.6 668.5 678.17 669.24 675.75 669.9 673.17 670.23 671.87 670.54 670.54 670.84 669.21 671.13 667.84 671.42 666.47 671.69 665.06 671.95 663.65 672.2 662.2 672.45 660.75 672.67 659.26 672.9 657.77 673.1 656.24 673.31 654.71 673.49 653.14 673.68 651.58 673.84 649.97 674.01 648.36 674.15 646.71 674.3 645.06 674.42 643.37 674.55 641.68 674.65 639.95 674.76 638.22 674.84 636.45 674.93 634.68 674.99 632.87 675.05 631.06 675.1 629.2 675.14 627.35 675.17 625.46 675.19 623.56 675.2 621.63 675.2 621.63 675.2 621.63 675.2 620.34 675.19 619.08 675.18 617.81 675.17 616.56 675.13 614.06 675.05 611.62 674.97 609.18 674.85 606.8 674.73 604.42 674.57 602.1 674.41 599.78 674.2 597.51 674 595.25 673.75 593.04 673.5 590.83 673.21 588.68 672.92 586.52 672.59 584.43 672.26 582.33 671.88 580.29 671.51 578.24 671.09 576.25 670.67 574.26 670.21 572.33 669.75 570.39 669.24 568.51 668.74 566.62 668.19 564.79 667.64 562.96 667.05 561.18 666.45 559.4 665.82 557.68 665.18 555.95 664.5 554.28 663.81 552.6 663.08 551.03 662.35 549.45 661.58 547.97 660.8 546.49 659.97 545.11 659.15 543.73 658.27 542.45 657.4 541.16 656.48 539.98 655.55 538.8 654.58 537.71 653.61 536.63 652.59 535.65 651.57 534.66 650.51 533.78 649.44 532.9 648.32 532.12 647.21 531.33 646.04 530.66 644.88 529.98 643.66 529.4 642.45 528.83 641.19 528.36 639.93 527.89 638.62 527.52 637.31 527.16 635.95 526.9 634.59 526.64 633.19 526.48 631.78 526.33 630.33 526.28 630.33 526.28 630.33 526.28 628.58 526.23 626.9 526.29 625.22 526.36 623.61 526.54 621.99 526.72 620.44 527.03 618.89 527.33 617.4 527.75 615.91 528.18 614.49 528.72 613.07 529.26 611.71 529.93 610.35 530.59 609.06 531.38 607.77 532.16 606.54 533.06 606.54 533.06 606.54 533.06 605.48 534.64 604.49 536.33 603.5 538.03 602.58 539.86 601.65 541.68 600.79 543.63 599.93 545.58 599.14 547.65 598.35 549.72 597.62 551.92 596.9 554.12 596.23 556.44 595.57 558.77 594.98 561.22 594.39 563.66 593.86 566.24 593.59 567.52 593.35 568.84 593.1 570.16 592.87 571.5 592.64 572.85 592.43 574.23 592.21 575.61 592.01 577.02 591.82 578.43 591.64 579.87 591.46 581.31 591.29 582.78 591.13 584.26 590.98 585.76 590.84 587.26 590.71 588.79 590.58 590.33 590.46 591.89 590.35 593.45 590.25 595.05 590.16 596.64 590.08 598.27 590 599.89 589.93 601.55 589.87 603.2 589.82 604.89 589.78 606.58 589.75 608.29 589.72 610.01 589.71 611.76 589.7 613.5 589.7 615.28 589.7 615.28 589.7 615.28 589.71 617.97 589.77 620.59 589.82 623.21 589.93 625.76 590.03 628.32 590.19 630.82 590.34 633.31 590.54 635.75 590.74 638.18 590.99 640.55 591.24 642.92 591.54 645.22 591.84 647.53 592.19 649.77 592.53 652.01 592.93 654.18 593.32 656.36 593.76 658.47 594.21 660.58 594.7 662.63 595.19 664.68 595.72 666.66 596.26 668.64 596.84 670.56 597.43 672.48 598.06 674.33 598.69 676.18 599.37 677.97 600.04 679.75 600.77 681.47 601.49 683.19 602.26 684.85 603.03 686.5 603.85 688.04 604.66 689.58 605.53 691.02 606.39 692.44 607.3 693.76 608.21 695.08 609.17 696.29 610.12 697.49 611.12 698.58 612.12 699.68 613.17 700.65 614.22 701.63 615.31 702.5 616.4 703.36 617.54 704.11 618.68 704.86 619.87 705.5 621.05 706.13 622.28 706.65 623.51 707.17 624.78 707.58 626.06 707.98 627.38 708.27 628.7 708.56 630.06 708.73 631.43 708.9 632.84 708.96 634.26 709.01 635.71 708.95 637.17 708.89 638.68 708.72 638.68 708.72 638.68 708.72 640.72 708.48 642.71 708.07 644.69 707.66 646.62 707.09 648.55 706.52 650.42 705.78 652.28 705.05 654.09 704.15 654.09 704.15 654.09 704.15M955.73 575Q955.19 576.26 954.64 577.51 954.08 578.76 953.51 580.01 952.92 581.24 952.33 582.47 951.73 583.7 951.12 584.92 950.5 586.13 949.87 587.34 949.23 588.54 948.58 589.74 947.92 590.94 947.25 592.12 946.58 593.31 945.89 594.49 945.2 595.66 944.5 596.83 943.79 598 943.08 599.16 942.35 600.32 941.62 601.47 940.89 602.62 940.14 603.76 939.39 604.9 938.64 606.03 937.88 607.16 937.11 608.29 936.33 609.41 935.55 610.53 934.77 611.64 933.98 612.75 933.18 613.85 932.38 614.95 931.58 616.04 930.77 617.14 929.95 618.22 929.13 619.31 928.31 620.39 927.48 621.47 926.65 622.55 925.81 623.62 924.97 624.69 924.13 625.76 923.28 626.82 922.43 627.88 921.57 628.94 920.72 630 919.86 631.06 918.99 632.11 918.13 633.17 917.26 634.22 916.4 635.27 915.53 636.33 914.66 637.38 913.79 638.43 912.92 639.48 912.05 640.53 911.18 641.58 910.31 642.64 909.45 643.69 908.59 644.75 907.73 645.81 906.87 646.88 907.61 646.88 908.31 646.88 909.02 646.89 909.69 646.9 910.37 646.92 911.01 646.94 911.66 646.97 912.28 647 912.89 647.03 913.48 647.07 914.07 647.12 914.63 647.17 915.75 647.28 916.76 647.41 917.77 647.56 918.67 647.73 919.59 647.9 920.39 648.09 921.22 648.28 921.93 648.49 922.64 648.72 922.97 649.02 922.97 649.02 922.97 649.02 922.14 649.7 921.13 650.4 920.12 651.09 919.11 651.79 918.09 652.48 917.07 653.16 916.05 653.84 915.04 654.52 914.03 655.2 913.06 655.85 912.18 656.43 911.35 656.99 910.53 657.55 909.72 658.13 908.96 658.78 908.38 659.5 907.33 660.21 906.27 660.92 905.21 661.63 904.15 662.34 903.17 662.99 902.22 663.61 901.27 664.22 900.32 664.84 899.37 665.46 898.41 666.07 897.46 666.67 896.5 667.27 895.54 667.87 894.59 668.47 893.6 669.09 892.5 669.75 891.41 670.42 890.32 671.08 889.23 671.75 888.15 672.4 887.18 672.98 886.21 673.55 885.24 674.12 884.27 674.69 883.3 675.26 882.33 675.81 881.36 676.37 880.39 676.92 879.42 677.48 878.45 678.03 877.38 678.63 876.26 679.25 875.14 679.87 874.03 680.48 872.91 681.1 871.85 681.68 870.87 682.21 869.89 682.73 868.91 683.26 867.93 683.79 866.94 684.31 865.96 684.82 864.98 685.33 864 685.84 863.01 686.36 862.03 686.87 860.89 687.44 859.75 688.02 858.61 688.59 857.48 689.17 856.34 689.74 855.32 690.25 854.33 690.73 853.34 691.22 852.35 691.7 851.36 692.18 850.28 692.71 849.13 693.25 847.98 693.8 846.82 694.35 845.67 694.89 844.58 695.41 843.58 695.87 842.59 696.33 842.89 694.89 843.23 693.27 843.57 691.65 843.9 690.02 844.23 688.4 844.57 686.78 844.9 685.15 845.24 683.53 846.32 682.54 847.4 681.55 848.48 680.56 849.57 679.58 850.66 678.59 851.76 677.61 852.86 676.63 853.96 675.66 855.06 674.68 856.16 673.71 857.27 672.75 858.39 671.79 859.5 670.83 860.62 669.87 861.75 668.92 862.87 667.97 863.31 666.65 863.75 665.34 864.19 664.02 864.64 662.71 865.08 661.41 865.53 660.1 865.98 658.8 866.44 657.5 866.89 656.21 867.35 654.91 867.8 653.62 868.26 652.34 868.72 651.05 869.18 649.76 869.65 648.48 870.11 647.2 870.57 645.92 871.04 644.65 871.5 643.37 871.97 642.1 872.43 640.83 872.9 639.56 873.36 638.29 873.83 637.02 874.29 635.75 874.76 634.48 875.22 633.22 875.68 631.95 876.14 630.69 876.61 629.42 877.07 628.16 877.53 626.9 877.99 625.63 878.44 624.37 878.9 623.11 879.35 621.84 879.8 620.58 880.26 619.31 880.71 618.05 881.15 616.79 881.6 615.52 882.04 614.25 882.48 612.99 882.92 611.72 883.36 610.45 883.79 609.18 884.22 607.91 884.65 606.64 885.08 605.37 885.5 604.1 885.92 602.82 886.34 601.55 886.75 600.27 887.16 598.99 887.57 597.71 887.97 596.43 888.37 595.15 888.77 593.86 889.16 592.58 889.55 591.29 889.94 590 890.32 588.71 890.7 587.41 891.08 586.12 891.39 585.01 891.67 583.94 891.95 582.86 892.19 581.82 892.43 580.78 892.63 579.77 892.83 578.76 892.99 577.78 893.15 576.79 893.27 575.85 893.39 574.89 893.48 573.98 893.64 572.13 893.66 570.42 893.67 568.7 893.54 567.12 893.4 565.52 893.13 564.06 892.85 562.58 892.43 561.25 892.01 559.9 891.46 558.69 890.9 557.47 890.21 556.39 889.52 555.3 888.7 554.35 887.88 553.4 886.93 552.58 885.98 551.76 884.91 551.08 883.83 550.39 882.64 549.84 881.44 549.3 880.12 548.89 878.8 548.49 877.36 548.22 875.92 547.96 874.36 547.84 874.36 547.84 874.36 547.84 872.88 547.73 871.17 547.83 869.46 547.92 867.54 548.23 866.57 548.38 865.56 548.59 864.54 548.8 863.47 549.06 862.4 549.33 861.28 549.65 860.16 549.97 858.98 550.34 857.81 550.72 856.58 551.15 855.35 551.59 854.08 552.08 852.8 552.58 851.47 553.13 850.15 553.68 848.77 554.3 847.4 554.92 845.97 555.59 844.55 556.27 843.08 557.02 841.61 557.76 840.1 558.57 838.58 559.38 837.02 560.26 837.02 560.26 837.02 560.26 836.81 562.08 836.59 563.91 836.37 565.73 836.16 567.56 835.94 569.39 835.72 571.21 835.49 573.04 835.27 574.86 835.05 576.69 834.82 578.51 834.59 580.34 834.37 582.16 834.14 583.99 833.91 585.81 833.67 587.64 833.44 589.46 833.2 591.28 832.97 593.1 832.73 594.93 832.49 596.75 832.25 598.57 832.01 600.39 831.76 602.21 831.52 604.04 831.27 605.86 831.02 607.68 830.77 609.5 830.52 611.32 830.27 613.14 830.01 614.96 829.76 616.78 829.5 618.6 829.24 620.42 828.98 622.23 828.72 624.05 828.45 625.87 828.19 627.69 827.92 629.51 827.65 631.33 827.38 633.14 827.11 634.96 826.84 636.78 826.56 638.6 826.28 640.41 826.01 642.23 825.73 644.05 825.45 645.86 825.16 647.68 824.88 649.5 824.59 651.32 824.31 653.13 824.02 654.95 823.73 656.77 823.43 658.58 823.14 660.4 822.84 662.21 822.55 664.03 822.25 665.85 821.95 667.66 821.65 669.48 821.34 671.29 821.04 673.11 820.73 674.92 820.42 676.74 821.55 676.93 822.64 677.16 823.72 677.39 824.75 677.66 825.78 677.92 826.75 678.23 827.73 678.52 828.65 678.86 829.57 679.19 830.44 679.56 831.3 679.93 832.11 680.34 832.92 680.74 833.68 681.19 834.43 681.63 835.13 682.11 835.13 682.11 835.13 682.11 834.79 683.37 834.44 684.63 834.1 685.89 833.76 687.15 833.41 688.41 833.07 689.67 832.73 690.94 832.38 692.2 832.04 693.46 831.69 694.73 831.34 695.99 830.99 697.25 830.65 698.51 830.3 699.77 829.95 701.03 829.65 702.1 828.62 702.55 827.6 702.98 826.57 703.42 825.54 703.85 824.51 704.29 823.48 704.72 822.3 705.21 821.1 705.7 819.89 706.2 818.68 706.7 817.47 707.19 816.26 707.68 815.05 708.16 813.83 708.64 812.62 709.12 811.41 709.61 810.32 710.03 809.29 710.43 808.25 710.83 807.22 711.23 806.19 711.62 805.03 712.06 803.81 712.52 802.6 712.97 801.38 713.43 800.16 713.89 799.05 714.3 798.01 714.67 796.97 715.05 795.94 715.43 794.9 715.8 793.77 716.21 792.54 716.64 791.32 717.08 790.1 717.51 788.87 717.94 787.74 718.34 786.7 718.69 785.66 719.05 784.62 719.4 783.58 719.76 782.47 720.14 781.24 720.54 780.01 720.95 778.78 721.36 777.56 721.77 776.4 722.15 775.36 722.49 774.32 722.82 773.28 723.16 772.24 723.5 771.14 723.85 769.91 724.23 768.68 724.62 767.45 725 766.22 725.39 764.98 725.77 763.75 726.14 762.52 726.52 761.29 726.89 760.06 727.27 758.86 727.63 757.81 727.93 756.77 728.24 756.92 726.54 757.04 724.59 757.12 722.6 757.15 720.6 757.16 718.59 757.16 716.57 757.15 714.55 757.13 712.52 758.16 711.45 759.28 710.34 760.4 709.22 761.6 708.07 762.8 706.9 764.09 705.71 765.37 704.5 766.74 703.27 767.42 702.64 768.12 702.02 768.83 701.39 769.55 700.75 770.28 700.11 771.02 699.46 771.77 698.81 772.53 698.15 773.3 697.49 774.09 696.83 774.88 696.16 775.69 695.48 776.5 694.81 777.33 694.12 778.16 693.44 779.01 692.74 779.01 692.74 779.01 692.74 779.1 691.53 779.19 690.32 779.28 689.11 779.37 687.9 779.45 686.68 779.53 685.47 779.61 684.25 779.69 683.03 779.77 681.81 779.85 680.6 779.92 679.38 780 678.16 780.07 676.93 780.14 675.71 780.21 674.49 780.28 673.27 780.35 672.05 780.41 670.82 780.48 669.6 780.54 668.38 780.61 667.15 780.67 665.93 780.73 664.7 780.79 663.48 780.85 662.25 780.91 661.03 780.97 659.8 781.02 658.57 781.08 657.35 781.13 656.12 781.19 654.89 781.24 653.67 781.29 652.44 781.35 651.21 781.4 649.98 781.45 648.76 781.5 647.53 781.55 646.3 781.6 645.07 781.64 643.84 781.69 642.62 781.74 641.39 781.79 640.16 781.83 638.93 781.88 637.7 781.92 636.47 781.97 635.25 782.01 634.02 782.06 632.79 782.1 631.56 782.15 630.33 782.19 629.1 782.23 627.87 782.27 626.64 782.32 625.41 782.36 624.18 782.4 622.96 782.44 621.73 782.48 620.5 782.52 619.27 782.56 618.04 782.6 616.81 782.65 615.58 782.69 614.35 782.72 613.12 782.76 611.89 782.8 610.66 782.84 609.43 782.88 608.2 782.92 606.98 782.96 605.75 783 604.52 783.04 603.29 783.08 602.06 783.11 600.83 783.15 599.6 783.19 598.37 783.23 597.14 783.26 595.91 783.3 594.68 783.34 593.46 783.38 592.23 783.41 591 783.45 589.77 783.49 588.54 783.53 587.31 783.56 586.08 783.6 584.85 783.64 583.63 783.67 582.4 783.71 581.17 783.75 579.94 783.78 578.71 783.82 577.48 783.86 576.26 783.89 575.03 783.93 573.8 783.97 572.57 784 571.34 784.04 570.12 784.08 568.89 784.12 567.66 784.15 566.44 784.19 565.21 784.23 563.98 784.26 562.76 784.3 561.53 784.34 560.3 784.38 559.08 784.41 557.85 784.45 556.63 784.49 555.4 784.53 554.18 784.57 552.95 784.61 551.73 784.65 550.51 784.69 549.28 784.73 548.06 784.77 546.84 784.81 545.61 784.85 544.39 784.89 543.17 784.93 541.95 784.97 540.73 785.01 539.51 785.06 538.29 785.1 537.07 785.15 535.85 783.43 535.53 781.71 535.2 779.99 534.88 778.28 534.56 776.57 534.24 774.86 533.93 773.16 533.63 771.46 533.32 769.76 533.03 768.07 532.74 766.38 532.45 764.7 532.17 763.02 531.9 761.35 531.63 759.69 531.38 758.03 531.13 757.88 529.69 757.72 528.24 757.57 526.8 757.42 525.36 757.27 523.92 757.11 522.47 756.96 521.03 756.8 519.59 756.65 518.15 756.5 516.7 756.34 515.26 756.19 513.81 756.03 512.37 755.88 510.93 755.72 509.48 755.57 508.04 756.52 507.53 757.49 507.05 758.46 506.58 759.45 506.14 760.44 505.7 761.44 505.29 762.45 504.88 763.47 504.5 764.5 504.13 765.54 503.78 766.58 503.43 767.63 503.1 768.68 502.77 769.74 502.46 770.8 502.15 771.87 501.86 772.94 501.57 774.02 501.3 775.1 501.03 776.18 500.77 777.26 500.52 778.34 500.29 779.43 500.06 780.52 499.85 781.6 499.64 782.7 499.44 783.79 499.26 784.88 499.09 785.97 498.93 787.07 498.78 788.16 498.64 789.26 498.51 790.36 498.39 791.46 498.28 792.56 498.18 793.66 498.09 794.76 498 795.86 497.92 796.96 497.85 798.07 497.79 799.17 497.73 800.28 497.68 801.39 497.64 802.49 497.61 803.6 497.58 804.71 497.56 805.82 497.54 806.93 497.54 808.04 497.54 809.15 497.55 810.26 497.56 811.37 497.58 812.49 497.61 813.6 497.64 814.72 497.67 815.83 497.72 816.95 497.77 818.06 497.83 819.18 497.89 820.3 497.96 821.42 498.03 822.54 498.12 823.65 498.2 824.77 498.3 824.77 498.3 824.77 498.3 825.83 499.7 826.88 501.09 827.94 502.49 828.99 503.88 830.04 505.28 831.09 506.67 832.14 508.06 833.19 509.45 834.24 510.84 835.29 512.22 836.33 513.61 837.38 514.99 838.42 516.37 839.46 517.75 840.5 519.13 841.54 520.5 841.4 521.71 841.26 522.93 841.13 524.14 840.99 525.35 840.86 526.56 840.72 527.78 840.59 528.99 840.45 530.21 840.31 531.42 840.18 532.64 840.04 533.85 839.9 535.07 839.77 536.28 839.63 537.5 839.49 538.71 839.36 539.93 840.66 539.04 841.95 538.17 843.25 537.31 844.53 536.47 845.82 535.64 847.09 534.83 848.37 534.03 849.63 533.25 850.89 532.48 852.14 531.73 853.39 530.99 854.63 530.26 855.87 529.55 857.1 528.86 858.33 528.17 859.54 527.5 860.75 526.84 861.95 526.2 863.16 525.57 864.34 524.96 865.53 524.35 866.7 523.77 867.87 523.19 869.03 522.63 870.19 522.08 871.33 521.55 872.48 521.02 873.61 520.52 874.74 520.02 875.85 519.55 876.96 519.08 878.06 518.63 879.16 518.18 880.24 517.76 881.32 517.34 882.39 516.94 883.46 516.54 884.51 516.16 885.56 515.78 886.6 515.42 887.63 515.07 888.66 514.73 889.68 514.39 890.68 514.07 891.69 513.75 892.68 513.45 893.67 513.14 894.65 512.86 895.62 512.57 896.58 512.31 897.54 512.04 898.49 511.8 900.38 511.3 902.21 510.89 904.03 510.48 905.79 510.17 907.55 509.88 909.25 509.69 909.25 509.69 909.25 509.69 910.35 509.92 911.45 510.19 912.54 510.45 913.62 510.76 914.7 511.07 915.77 511.42 916.84 511.77 917.89 512.16 918.95 512.55 919.99 512.98 921.04 513.4 922.07 513.86 923.11 514.33 924.14 514.83 925.16 515.32 926.18 515.86 927.2 516.39 928.21 516.97 929.22 517.54 930.22 518.14 931.22 518.75 932.22 519.4 933.22 520.04 934.22 520.72 935.21 521.4 936.2 522.11 937.2 522.83 938.19 523.58 939.19 524.33 940.18 525.11 941.18 525.9 942.18 526.72 943.18 527.54 944.14 528.38 945.1 529.21 946.02 530.07 946.95 530.92 947.82 531.78 948.71 532.65 949.54 533.53 950.38 534.41 951.16 535.3 951.96 536.19 952.69 537.1 953.43 538 954.11 538.91 954.8 539.83 955.42 540.75 956.04 541.67 956.59 542.61 957.14 543.53 957.63 544.47 958.11 545.41 958.52 546.36 958.92 547.3 959.25 548.25 959.56 549.19 959.81 550.15 960.04 551.1 960.2 552.06 960.35 553.02 960.41 553.99 960.47 554.95 960.45 555.92 960.45 555.92 960.45 555.92 960.26 557.16 960.06 558.39 959.84 559.61 959.6 560.83 959.35 562.04 959.09 563.24 958.81 564.44 958.52 565.64 958.21 566.83 957.89 568.01 957.56 569.19 957.21 570.36 956.86 571.53 956.49 572.69 956.11 573.85 955.73 575 955.73 575 955.73 575" class="warpedPath"></path></svg>