<svg id="svg_container" xmlns="http://www.w3.org/2000/svg" class="mw-100 mh-100 edit-svg" style="visibility: visible" viewBox="0.570000171661377 -4.721428573131561 697.6199951171875 704.451416015625" width="702.6199951171875px" height="709.451416015625px">
        <defs>
            <linearGradient id="sampleGradient" gradientTransform="rotate(1)" x1="0%" y1="50%" x2="100%" y2="50%" gradientUnits="userSpaceOnUse">
                <stop offset="0%" id="first_color" stop-color="#f41d6d"></stop>
                <stop offset="100%" id="second_color" stop-color="#57a6c8"></stop>
            </linearGradient>
        </defs>
    <path fill="url(#sampleGradient)" d="M117.64 555.71Q118.19 556.58 118.75 557.44 119.31 558.31 119.87 559.17 120.43 560.04 121 560.9 121.56 561.75 122.12 562.61 122.68 563.46 123.25 564.31 123.81 565.16 124.38 566 124.94 566.84 125.5 567.67 126.07 568.5 126.63 569.32 127.19 570.14 127.76 570.95 128.32 571.76 128.88 572.56 129.44 573.35 130 574.13 130.56 574.9 131.11 575.67 131.67 576.42 132.22 577.16 132.77 577.88 133.31 578.59 133.86 579.29 134.4 579.97 134.94 580.64 135.38 581.26 135.39 583.74 135.4 586.22 135.41 588.69 135.42 591.17 135.41 593.64 135.4 596.11 135.39 598.58 135.38 601.05 135.37 603.52 135.35 605.99 135.34 608.46 135.33 610.93 135.32 613.4 135.31 615.87 135.3 618.33 135.28 620.8 134.3 620.31 133.27 619.61 132.22 618.83 131.17 618.03 130.12 617.2 129.07 616.37 128.02 615.53 126.97 614.68 125.93 613.83 124.89 612.96 123.85 612.1 122.82 611.23 121.79 610.36 120.76 609.48 119.74 608.6 118.71 607.71 117.7 606.82 116.68 605.92 115.67 605.03 114.67 604.12 113.66 603.22 112.66 602.31 111.67 601.39 110.67 600.47 109.69 599.55 108.7 598.62 107.72 597.69 106.74 596.76 105.76 595.82 104.79 594.88 103.83 593.94 102.86 592.99 101.9 592.04 100.95 591.08 99.99 590.12 99.04 589.16 98.1 588.19 97.16 587.22 96.22 586.25 95.29 585.27 94.36 584.29 93.43 583.3 92.51 582.32 91.59 581.33 90.68 580.33 89.77 579.33 88.86 578.33 87.96 577.33 87.06 576.32 86.16 575.3 85.27 574.29 84.38 573.27 83.5 572.25 82.62 571.22 81.75 570.19 80.87 569.16 80.01 568.12 79.15 567.08 78.29 566.04 77.43 565 76.58 563.95 75.73 562.89 74.89 561.84 74.05 560.78 74.08 558.1 74.11 555.43 74.14 552.74 74.18 550.05 74.22 547.36 74.26 544.67 74.3 541.97 74.34 539.27 75.04 538.48 75.82 537.73 76.59 536.96 77.45 536.23 77.88 535.86 78.32 535.5 78.77 535.14 79.23 534.78 79.7 534.42 80.19 534.07 80.67 533.71 81.18 533.36 81.68 533.01 82.21 532.66 82.74 532.3 83.28 531.96 83.83 531.6 84.39 531.26 84.96 530.9 85.54 530.55 86.13 530.2 86.74 529.85 87.34 529.49 87.97 529.14 88.6 528.78 89.24 528.42 89.89 528.06 90.56 527.7 90.56 527.7 90.56 527.7 90.69 524.77 90.82 521.83 90.94 518.9 91.06 515.95 91.18 513 91.3 510.05 91.42 507.09 91.53 504.12 91.63 501.15 91.74 498.18 91.84 495.21 91.94 492.22 92.04 489.24 92.13 486.25 92.23 483.26 92.32 480.27 92.4 477.27 92.49 474.27 92.57 471.27 92.65 468.26 92.72 465.25 92.8 462.24 92.87 459.23 92.94 456.21 93 453.19 93.07 450.17 93.13 447.15 93.19 444.12 93.24 441.1 93.3 438.07 93.35 435.04 93.4 432.01 93.45 428.98 93.49 425.94 93.54 422.91 93.58 419.87 93.62 416.83 93.66 413.8 93.69 410.76 93.73 407.72 93.76 404.68 93.79 401.63 93.81 398.59 93.84 395.55 93.86 392.5 93.89 389.46 93.91 386.41 93.92 383.37 93.94 380.32 93.95 377.28 93.97 374.23 93.98 371.19 93.99 368.14 93.99 365.09 94 362.05 94 359 94.01 355.96 94.01 352.91 94 349.86 94 346.82 94 343.77 93.99 340.73 93.98 337.69 93.97 334.64 94 332.7 94.04 330.77 94.07 328.83 94.1 326.89 94.13 324.95 94.16 323.01 94.19 321.06 94.22 319.12 94.25 317.18 94.27 315.24 94.3 313.29 94.33 311.35 94.35 309.4 94.38 307.46 94.4 305.51 94.42 303.56 94.44 301.62 94.47 299.67 94.49 297.72 94.51 295.77 94.53 293.83 94.54 291.88 94.56 289.93 94.58 287.98 94.6 286.03 94.61 284.08 94.63 282.13 94.64 280.18 94.65 278.23 94.67 276.27 94.68 274.32 94.69 272.37 94.7 270.42 94.71 268.47 94.72 266.52 94.73 264.56 94.73 262.61 94.74 260.66 94.75 258.71 94.75 256.76 94.76 254.81 94.76 252.85 94.76 250.9 94.76 248.95 94.76 247 94.76 245.05 94.76 243.1 94.76 241.15 94.76 239.2 94.75 237.25 94.75 235.3 94.75 233.35 94.74 231.4 94.73 229.45 94.72 227.5 94.72 225.55 94.71 223.61 94.7 221.66 94.68 219.72 94.67 217.77 94.66 215.83 94.64 213.88 94.63 211.94 94.61 210 94.44 212.96 94.27 215.92 94.1 218.87 93.92 221.82 93.74 224.77 93.57 227.71 93.39 230.65 93.21 233.58 93.03 236.51 92.84 239.44 92.66 242.35 92.47 245.27 92.29 248.18 92.1 251.08 91.91 253.97 91.72 256.87 91.53 259.75 91.34 262.63 91.14 265.51 90.95 268.37 90.75 271.23 90.56 274.09 90.36 276.94 90.16 279.78 89.95 282.62 89.75 285.45 89.55 288.27 89.34 291.08 89.13 293.89 88.93 296.69 88.72 299.49 88.51 302.27 88.29 305.05 88.08 307.82 87.86 310.59 87.65 313.35 87.43 316.09 87.21 318.84 86.99 321.57 86.77 324.3 86.54 327.01 86.32 329.72 86.09 332.43 85.86 335.12 85.63 337.8 85.4 340.48 85.16 343.15 84.93 345.81 84.69 348.46 84.45 351.11 84.21 353.74 83.97 356.37 83.73 358.99 83.48 361.6 83.24 364.2 82.99 366.79 82.74 369.37 82.48 371.95 82.23 374.51 81.97 377.07 81.71 379.62 81.45 382.16 81.19 384.69 80.93 387.21 80.66 389.72 80.39 392.22 80.12 394.72 79.85 397.2 79.58 399.68 79.3 402.15 79.02 404.6 78.74 407.05 78.46 409.49 78.17 411.92 77.89 414.34 77.6 416.75 77.31 419.16 77.01 421.55 76.72 423.94 76.42 426.31 76.12 428.68 75.81 431.04 75.51 433.38 75.2 435.72 74.89 438.05 74.58 440.38 74.26 442.69 73.95 444.99 73.63 447.29 73.3 449.58 72.98 451.85 72.65 454.12 72.32 456.38 71.99 458.64 71.66 460.88 71.32 463.11 70.98 465.34 70.64 467.56 70.29 469.77 69.95 471.97 69.6 474.16 69.24 476.35 68.89 478.52 68.53 480.69 68.18 482.85 67.81 485.01 67.45 487.15 67.09 489.29 66.72 491.42 66.35 493.54 65.98 495.66 65.61 497.76 65.23 499.86 64.85 501.96 64.47 504.04 64.09 506.12 63.71 508.19 63.33 510.25 62.95 512.31 62.56 514.36 62.18 516.4 61.79 518.43 61.41 520.46 61.02 522.48 60.63 524.49 60.25 526.49 59.86 528.49 59.48 530.48 58.91 530.12 58.33 529.76 57.76 529.39 57.2 529.02 56.63 528.64 56.07 528.26 55.51 527.88 54.95 527.49 54.39 527.1 53.84 526.7 53.29 526.3 52.74 525.9 52.19 525.49 51.65 525.08 51.11 524.67 50.57 524.25 50.03 523.83 49.5 523.41 48.96 522.98 48.44 522.54 47.91 522.11 47.39 521.67 46.87 521.22 46.35 520.78 45.83 520.33 45.32 519.87 44.81 519.41 44.3 518.95 43.79 518.49 43.29 518.02 42.79 517.55 42.32 516.8 42.25 514.55 42.21 512.03 42.18 509.52 42.15 507.01 42.13 504.51 42.1 502.02 42.08 499.54 42.06 497.06 42.04 494.59 42.02 492.14 42 489.69 41.98 487.25 41.96 484.82 41.94 482.4 41.92 480 41.89 477.6 41.86 475.22 41.83 472.84 41.8 470.48 41.77 468.13 41.73 465.79 41.69 463.47 41.65 461.15 41.61 458.85 41.56 456.57 41.51 454.29 41.46 452.03 41.41 449.78 41.35 447.54 41.29 445.32 41.22 443.11 41.15 440.91 41.08 438.73 41.01 436.56 40.93 434.4 40.85 432.26 40.77 430.13 40.68 428.01 40.59 425.91 40.5 423.82 40.41 421.74 40.31 419.68 40.2 417.63 40.1 415.59 39.99 413.57 39.88 411.56 39.77 409.57 39.65 407.59 39.53 405.62 39.41 403.66 39.29 401.72 39.16 399.79 39.03 397.88 38.9 395.97 38.76 394.08 38.62 392.21 38.48 390.34 38.34 388.49 38.2 386.65 38.05 384.83 37.9 383.01 37.75 381.21 37.6 379.42 37.44 377.65 37.29 375.88 37.13 374.13 36.97 372.39 36.8 370.66 36.64 368.94 36.47 367.23 36.3 365.54 36.14 363.86 35.97 362.19 35.79 360.52 35.62 358.87 35.45 357.24 35.27 355.61 35.09 353.99 34.91 352.38 34.73 350.79 34.55 349.2 34.37 347.62 34.19 346.06 34.01 344.5 33.82 342.96 33.64 341.42 33.45 339.89 33.26 338.38 33.08 336.87 32.89 335.37 32.7 333.88 32.51 332.4 32.32 330.93 32.13 329.46 31.94 328.01 31.75 326.56 31.56 325.12 31.37 323.69 31.17 322.27 30.98 320.86 30.79 319.45 30.6 318.05 30.4 316.66 30.21 315.27 30.02 313.9 29.82 312.53 29.63 311.16 29.44 309.81 29.24 308.46 29.05 307.12 28.85 305.78 28.66 304.45 28.47 303.12 28.27 301.8 28.08 300.49 27.89 299.18 27.69 297.88 27.5 296.58 27.3 295.29 27.11 294 26.92 292.72 26.72 291.44 26.53 290.16 26.33 288.89 26.14 287.63 25.94 286.36 25.75 285.1 25.55 283.84 25.6 284.76 25.65 285.67 25.69 286.58 25.74 287.48 25.78 288.39 25.82 289.29 25.87 290.2 25.91 291.1 25.95 292 25.99 292.9 26.03 293.8 26.07 294.69 26.11 295.59 26.15 296.48 26.19 297.38 26.23 298.27 26.26 299.16 26.3 300.05 26.34 300.94 26.37 301.83 26.41 302.72 26.45 303.61 26.48 304.5 26.52 305.39 26.55 306.27 26.59 307.16 26.62 308.04 26.66 308.93 26.69 309.82 26.72 310.7 26.76 311.59 26.79 312.47 26.82 313.36 26.86 314.24 26.89 315.12 26.92 316.01 26.95 316.89 26.99 317.78 27.02 318.66 27.05 319.55 27.08 320.43 27.11 321.32 27.14 322.2 27.17 323.09 27.21 323.97 27.24 324.86 27.27 325.74 27.3 326.63 27.33 327.52 27.36 328.41 27.39 329.29 27.42 330.18 27.45 331.07 27.48 331.96 27.51 332.85 27.54 333.74 27.57 334.63 27.59 335.52 27.62 336.42 27.65 337.31 27.68 338.2 27.71 339.1 27.74 339.99 27.77 340.89 27.75 342.4 27.73 343.9 27.71 345.41 27.69 346.92 27.67 348.42 27.65 349.92 27.63 351.43 27.61 352.93 27.59 354.44 27.57 355.94 27.55 357.44 27.53 358.95 27.5 360.45 27.48 361.96 27.46 363.46 27.43 364.97 27.41 366.48 27.38 367.98 27.36 369.49 27.33 371.01 27.3 372.52 27.27 374.03 27.25 375.55 27.22 377.07 27.19 378.59 27.15 380.11 27.12 381.64 27.09 383.16 27.06 384.69 27.02 386.23 26.98 387.77 26.95 389.31 26.91 390.85 26.87 392.4 26.83 393.95 26.78 395.51 26.74 397.07 26.69 398.63 26.64 400.2 26.59 401.78 26.54 403.36 26.49 404.95 26.43 406.54 26.37 408.14 26.31 409.75 26.25 411.36 26.19 412.98 26.12 414.61 26.05 416.24 25.97 417.89 25.9 419.54 25.82 421.2 25.74 422.87 25.65 424.55 25.56 426.23 25.47 427.93 25.37 429.64 25.27 431.36 25.17 433.09 25.07 434.83 24.95 436.58 24.84 438.35 24.72 440.13 24.6 441.92 24.86 442.71 25.12 443.5 25.38 444.29 25.64 445.09 25.9 445.89 26.16 446.69 26.42 447.49 26.68 448.3 26.95 449.1 27.21 449.91 27.47 450.72 27.74 451.53 28.01 452.35 28.27 453.16 28.54 453.98 28.81 454.79 29.08 455.61 29.35 456.44 29.62 457.26 29.89 458.08 30.16 458.91 30.44 459.73 30.71 460.56 30.99 461.39 31.27 462.22 31.54 463.06 31.82 463.89 32.1 464.73 32.38 465.56 32.66 466.4 32.94 467.24 33.23 468.08 33.11 469.49 32.99 470.89 32.87 472.3 32.75 473.72 32.63 475.14 32.51 476.56 32.39 477.99 32.26 479.42 32.14 480.85 32.02 482.29 31.9 483.73 31.78 485.17 31.66 486.62 31.54 488.07 31.42 489.52 31.31 490.98 30.82 489.91 30.34 488.84 29.86 487.78 29.38 486.71 28.91 485.63 28.44 484.56 27.97 483.48 27.51 482.41 27.05 481.33 26.6 480.25 26.15 479.17 25.7 478.08 25.26 477 24.82 475.91 24.38 474.83 23.95 473.74 23.52 472.64 23.1 471.55 22.68 470.46 22.26 469.36 21.85 468.27 21.44 467.17 21.03 466.07 20.63 464.97 20.23 463.87 19.84 462.76 19.44 461.66 19.06 460.55 18.67 459.45 18.29 458.34 17.92 457.23 17.55 456.11 17.18 455 16.81 453.89 16.45 452.77 16.09 451.66 15.74 450.54 15.39 449.42 15.05 448.3 14.7 447.18 14.37 446.06 14.03 444.94 13.7 443.81 13.37 442.69 13.05 441.56 12.73 440.43 12.41 439.31 12.1 438.18 11.79 437.05 11.49 435.92 11.19 434.79 10.89 433.66 10.6 432.53 10.31 431.39 10.02 430.26 9.73 429.13 9.45 428 9.18 426.88 8.9 425.75 8.63 424.64 8.35 423.53 8.07 422.44 7.79 421.38 7.48 420.41 7.28 419.25 7.06 418.19 6.82 417.17 6.57 416.18 6.32 415.21 6.07 414.24 5.82 413.28 5.57 412.33 5.96 412.14 6.39 412.04 6.6 412 6.81 411.99 7.03 411.99 7.25 412.01 7.47 412.03 7.7 412.07 7.92 412.12 8.16 412.19 8.39 412.26 8.64 412.35 8.88 412.44 9.13 412.55 9.38 412.66 9.64 412.78 9.91 412.91 10.18 413.05 10.45 413.19 10.73 413.35 11.01 413.5 11.31 413.67 11.6 413.84 11.91 414.02 12.21 414.2 12.53 414.39 12.85 414.58 13.18 414.78 13.51 414.97 13.85 415.18 13.85 415.18 13.85 415.18 13.85 413.97 13.84 412.77 13.83 411.58 13.82 410.4 13.81 409.23 13.79 408.07 13.78 406.91 13.76 405.76 13.74 404.62 13.72 403.48 13.7 402.35 13.68 401.22 13.66 400.1 13.64 398.98 13.62 397.87 13.59 396.76 13.57 395.66 13.55 394.56 13.53 393.46 13.51 392.36 13.48 391.27 13.46 390.18 13.44 389.09 13.42 388 13.4 386.92 13.38 385.83 13.36 384.75 13.35 383.67 13.33 382.6 13.31 381.52 13.3 380.44 13.28 379.37 13.27 378.3 13.26 377.23 13.25 376.15 13.24 375.08 13.23 374.01 13.22 372.94 13.21 371.88 13.21 370.81 13.2 369.74 13.2 368.67 13.2 367.61 13.2 366.54 13.2 365.47 13.2 364.41 13.2 363.34 13.2 362.28 13.21 361.21 13.22 360.14 13.22 359.08 13.23 358.01 13.24 356.95 13.25 355.88 13.27 354.81 13.28 353.75 13.3 352.68 13.31 351.61 13.33 350.55 13.35 349.48 13.37 348.41 13.4 347.34 13.42 346.27 13.44 345.2 13.47 344.13 13.5 343.06 13.53 341.99 13.56 340.91 13.59 339.84 13.62 338.77 13.65 337.69 13.69 336.62 13.72 335.54 13.76 334.46 13.8 333.38 13.84 332.3 13.88 331.22 13.92 330.14 13.96 329.05 14.01 327.97 14.05 326.88 14.1 325.8 14.15 324.71 14.19 323.61 14.24 322.52 14.29 321.43 14.34 320.33 14.39 319.23 14.45 318.13 14.5 317.03 14.55 315.93 14.61 314.82 14.66 313.71 14.72 312.6 14.78 311.48 14.83 310.37 14.89 309.25 14.95 308.12 15 307 15.06 305.87 15.12 304.73 15.18 303.59 15.23 302.45 15.29 301.31 15.35 300.15 15.41 299 15.46 297.84 15.52 296.67 15.57 295.5 15.63 294.32 15.68 293.14 15.73 291.95 15.78 290.75 15.83 289.54 15.88 288.33 15.93 287.1 15.97 285.87 16.01 284.63 16.05 283.38 16.09 282.12 16.12 280.85 16.15 279.56 16.17 278.26 16.2 276.95 16.22 275.62 16.23 274.28 16.24 272.92 16.25 271.55 16.01 271.89 15.76 272.24 15.53 272.58 15.29 272.93 15.05 273.27 14.81 273.62 14.57 273.96 14.34 274.31 14.1 274.65 13.87 275 13.63 275.34 13.4 275.68 13.17 276.02 12.93 276.37 12.7 276.7 12.47 277.04 12.24 277.38 12 277.71 11.77 278.04 11.54 278.36 11.3 278.69 11.07 279.01 10.84 279.32 10.6 279.63 10.36 279.93 10.12 280.23 9.88 280.52 9.64 280.8 9.4 281.07 9.15 281.33 8.9 281.58 8.65 281.82 8.76 281.09 8.86 280.36 8.97 279.62 9.07 278.87 9.17 278.1 9.26 277.33 9.35 276.54 9.44 275.73 9.51 274.9 9.58 274.04 9.64 273.15 9.69 272.22 9.72 271.23 9.73 270.19 9.73 269.09 9.7 267.92 9.97 266.85 10.23 265.78 10.5 264.7 10.77 263.63 11.04 262.56 11.32 261.49 11.61 260.42 11.89 259.35 12.17 258.28 12.46 257.21 12.76 256.15 13.06 255.08 13.36 254.02 13.66 252.96 13.97 251.89 14.29 250.83 14.6 249.77 14.92 248.71 15.24 247.66 15.56 246.6 15.9 245.54 16.23 244.49 16.56 243.43 16.9 242.38 17.24 241.33 17.59 240.28 17.94 239.23 18.29 238.18 18.64 237.13 19 236.09 19.37 235.04 19.73 234 20.1 232.96 20.47 231.91 20.84 230.87 21.23 229.84 21.61 228.8 21.99 227.76 22.37 226.72 22.77 225.69 23.17 224.66 23.57 223.63 23.97 222.6 24.37 221.57 24.78 220.54 25.19 219.52 25.61 218.49 26.02 217.47 26.44 216.44 26.87 215.42 27.3 214.4 27.73 213.39 28.16 212.37 28.59 211.35 29.04 210.34 29.48 209.33 29.93 208.32 30.38 207.31 30.83 206.29 31.29 205.29 31.75 204.29 32.21 203.28 32.68 202.28 33.14 201.28 33.1 201.65 33.06 202.02 33.33 203.63 33.61 205.23 33.89 206.84 34.18 208.44 34.47 210.05 34.76 211.65 35.05 213.25 35.34 214.86 35.64 216.46 35.93 218.06 36.23 219.67 36.52 221.27 36.81 222.87 37.11 224.48 37.4 226.08 37.69 227.68 37.98 229.29 38.27 230.89 38.56 232.5 38.85 234.11 39.14 235.72 39.42 237.33 39.71 238.94 39.99 240.56 40.27 242.17 40.55 243.79 40.83 245.41 41.11 247.04 41.38 248.66 41.66 250.29 41.93 251.93 42.2 253.56 42.47 255.2 42.74 256.84 43.01 258.49 43.27 260.14 43.54 261.79 43.8 263.45 44.06 265.12 44.32 266.78 44.58 268.46 44.83 270.13 45.09 271.82 45.34 273.5 45.59 275.19 45.84 276.89 46.09 278.6 46.34 280.31 46.58 282.02 46.82 283.74 47.07 285.47 47.31 287.2 47.55 288.94 47.78 290.69 48.02 292.44 48.25 294.2 48.49 295.97 48.72 297.74 48.95 299.52 49.18 301.31 49.4 303.1 49.63 304.91 49.85 306.72 50.07 308.54 50.29 310.36 50.51 312.19 50.73 314.04 50.95 315.88 51.16 317.74 51.37 319.61 51.59 321.48 51.8 323.36 52 325.25 52.21 327.15 52.41 329.06 52.62 330.98 52.82 332.9 53.02 334.83 53.22 336.78 53.41 338.73 53.61 340.69 53.8 342.66 53.99 344.64 54.18 346.63 54.37 348.62 54.56 350.63 54.74 352.64 54.92 354.67 55.11 356.7 55.28 358.75 55.46 360.8 55.64 362.86 55.81 364.93 55.98 367.01 56.15 369.11 56.32 371.21 56.49 373.32 56.65 375.44 56.81 377.56 56.97 379.7 57.13 381.85 57.29 384.01 57.44 386.18 57.6 388.36 57.75 390.54 57.89 392.74 58.04 394.95 58.19 397.16 58.33 399.39 58.47 401.62 58.61 403.87 58.74 406.12 58.88 408.38 59.01 410.66 59.14 412.94 59.26 415.23 59.39 417.53 59.51 419.84 59.63 422.16 59.75 424.49 59.87 426.83 59.98 429.18 60.09 431.53 60.2 433.9 60.31 436.27 60.42 438.65 60.52 441.05 60.62 443.45 60.93 441.42 61.24 439.38 61.55 437.33 61.85 435.28 62.15 433.22 62.45 431.15 62.75 429.07 63.04 426.99 63.34 424.9 63.63 422.8 63.92 420.69 64.2 418.58 64.49 416.46 64.77 414.32 65.05 412.18 65.33 410.04 65.6 407.88 65.88 405.72 66.15 403.54 66.42 401.36 66.69 399.17 66.95 396.98 67.22 394.77 67.48 392.55 67.74 390.33 67.99 388.1 68.25 385.86 68.5 383.61 68.75 381.35 69 379.08 69.25 376.8 69.49 374.52 69.74 372.22 69.98 369.92 70.22 367.61 70.46 365.29 70.69 362.96 70.93 360.62 71.16 358.27 71.39 355.91 71.62 353.55 71.84 351.17 72.07 348.79 72.29 346.4 72.51 344 72.73 341.59 72.95 339.17 73.16 336.74 73.37 334.31 73.59 331.86 73.8 329.41 74 326.95 74.21 324.48 74.41 322 74.62 319.51 74.82 317.02 75.02 314.51 75.21 312 75.41 309.48 75.6 306.95 75.79 304.41 75.98 301.87 76.17 299.31 76.36 296.75 76.54 294.18 76.73 291.6 76.91 289.02 77.09 286.42 77.26 283.82 77.44 281.22 77.61 278.6 77.79 275.98 77.96 273.34 78.13 270.71 78.29 268.06 78.46 265.41 78.62 262.75 78.79 260.08 78.95 257.41 79.11 254.73 79.26 252.04 79.42 249.35 79.57 246.65 79.72 243.95 79.87 241.23 80.02 238.52 80.17 235.79 80.32 233.06 80.46 230.33 80.6 227.59 80.74 224.84 80.88 222.09 81.02 219.34 81.15 216.58 81.29 213.81 81.42 211.04 81.55 208.27 81.68 205.49 81.81 202.71 81.93 199.92 82.06 197.13 82.18 194.34 82.3 191.54 82.42 188.74 82.54 185.94 82.66 183.14 82.77 180.33 82.89 177.52 83 174.71 83.12 171.9 83.23 169.08 83.34 166.27 83.45 163.45 83.56 160.63 83.67 157.82 83.78 155 83.88 152.18 83.99 149.37 84.1 146.55 84.21 143.74 84.32 140.93 84.43 138.12 84.54 135.32 84.65 132.52 84.77 129.72 84.89 126.93 85.01 124.14 85.14 121.37 85.78 120.63 86.42 119.9 87.06 119.16 87.7 118.43 88.35 117.7 89 116.98 89.65 116.25 90.3 115.53 90.96 114.8 91.61 114.08 92.28 113.37 92.94 112.65 93.6 111.94 94.26 111.22 94.92 110.51 95.6 109.8 96.27 109.1 96.94 108.39 97.62 107.69 98.29 106.98 98.97 106.28 99.65 105.59 100.34 104.89 101.02 104.2 101.7 103.5 102.39 102.81 103.08 102.12 103.78 101.44 104.47 100.75 105.17 100.07 105.86 99.39 106.56 98.7 107.26 98.03 107.97 97.36 108.67 96.69 109.38 96.01 110.08 95.34 110.8 94.67 111.51 94.01 112.23 93.35 112.94 92.69 113.66 92.03 114.38 91.36 115.1 90.71 115.83 90.06 116.55 89.41 117.28 88.76 118 88.11 118.73 87.46 119.47 86.82 120.21 86.18 120.94 85.54 121.68 84.91 122.42 84.27 123.16 83.63 123.9 83.01 124.65 82.38 125.4 81.75 126.14 81.12 126.89 80.5 127.64 79.88 128.4 79.26 129.16 78.65 129.91 78.03 130.17 80.82 130.41 83.69 130.63 86.63 130.85 89.65 131.05 92.72 131.23 95.84 131.41 99 131.58 102.19 130.82 104.68 130 107.21 129.6 108.48 129.18 109.75 128.75 111.03 128.32 112.32 127.89 113.61 127.44 114.91 127 116.21 126.54 117.51 126.08 118.82 125.61 120.14 125.14 121.46 124.66 122.79 124.17 124.11 123.68 125.45 123.19 126.79 122.68 128.14 122.17 129.48 121.66 130.84 121.14 132.19 120.61 133.56 120.08 134.92 119.54 136.29 119 137.67 118.45 139.05 117.9 140.43 117.34 141.82 116.78 143.21 116.21 144.6 116.21 144.6 116.21 144.6 116.29 147.69 116.37 150.78 116.44 153.88 116.52 157 116.59 160.11 116.66 163.24 116.72 166.37 116.79 169.51 116.85 172.66 116.91 175.81 116.97 178.96 117.02 182.13 117.08 185.29 117.13 188.46 117.18 191.64 117.23 194.82 117.28 198 117.32 201.18 117.37 204.37 117.41 207.56 117.46 210.76 117.5 213.96 117.54 217.16 117.58 220.36 117.61 223.56 117.65 226.77 117.69 229.98 117.72 233.19 117.76 236.4 117.79 239.61 117.82 242.83 117.85 246.05 117.88 249.27 117.91 252.49 117.94 255.71 117.97 258.93 118 262.15 118.02 265.38 118.05 268.61 118.07 271.83 118.1 275.06 118.12 278.29 118.14 281.52 118.17 284.75 118.19 287.98 118.21 291.21 118.23 294.45 118.25 297.68 118.27 300.91 118.29 304.15 118.3 307.38 118.32 310.62 118.34 313.86 118.35 317.09 118.37 320.33 118.39 323.57 118.4 326.81 118.41 330.05 118.43 333.29 118.44 336.53 118.45 339.77 118.47 343.01 118.48 346.25 118.49 349.49 118.5 352.73 118.51 355.97 118.52 359.21 118.53 362.45 118.53 365.7 118.54 368.94 118.55 372.18 118.55 375.42 118.56 378.66 118.57 381.91 118.57 385.15 118.58 388.39 118.58 391.64 118.58 394.88 118.59 398.12 118.59 401.36 118.59 404.61 118.59 407.85 118.59 411.09 118.59 414.33 118.59 417.58 118.59 420.82 118.59 424.06 118.58 427.3 118.58 430.54 118.58 433.78 118.57 437.02 118.57 440.26 118.56 443.5 118.55 446.74 118.55 449.98 118.54 453.21 118.53 456.45 118.52 459.69 118.51 462.92 118.5 466.15 118.48 469.39 118.47 472.62 118.46 475.85 118.44 479.08 118.42 482.31 118.41 485.53 118.39 488.76 118.37 491.98 118.35 495.2 118.32 498.42 118.3 501.63 118.28 504.85 118.25 508.06 118.22 511.27 118.19 514.47 118.16 517.67 118.13 520.87 118.1 524.06 118.06 527.25 118.02 530.44 117.98 533.62 117.94 536.79 117.9 539.96 117.85 543.13 117.8 546.28 117.75 549.43 117.69 552.57 117.64 555.71 117.64 555.71 117.64 555.71M260.73 628.73Q261.54 629.52 262.35 630.31 263.16 631.09 263.97 631.87 264.78 632.65 265.6 633.42 266.41 634.19 267.22 634.95 268.02 635.71 268.83 636.46 269.64 637.2 270.45 637.94 271.25 638.67 272.05 639.39 272.85 640.1 273.57 640.79 273.58 643.98 273.59 647.18 273.61 650.37 273.61 653.56 273.6 656.76 273.59 659.95 273.58 663.14 273.57 666.33 273.56 669.53 273.55 672.72 273.53 675.91 273.52 679.1 273.51 682.3 273.5 685.49 273.49 688.68 273.46 691.41 272.55 691.16 271.63 690.94 270.71 690.73 269.8 690.51 268.88 690.3 267.96 690.08 267.04 689.86 266.12 689.63 265.21 689.4 264.29 689.18 263.38 688.95 262.46 688.71 261.55 688.47 260.64 688.23 259.72 687.99 258.81 687.75 257.9 687.51 256.99 687.26 256.08 687 255.17 686.75 254.26 686.49 253.35 686.23 252.44 685.98 251.54 685.71 250.63 685.44 249.73 685.17 248.83 684.9 247.92 684.63 247.02 684.36 246.12 684.07 245.22 683.79 244.32 683.51 243.42 683.22 242.52 682.94 241.62 682.65 240.72 682.35 239.83 682.05 238.93 681.75 238.04 681.46 237.14 681.16 236.25 680.85 235.36 680.54 234.46 680.23 233.57 679.92 232.68 679.6 231.79 679.29 230.91 678.97 230.02 678.64 229.13 678.32 228.25 677.99 227.36 677.66 226.48 677.34 225.6 677 224.72 676.66 223.84 676.32 222.96 675.98 222.08 675.64 221.2 675.3 220.32 674.94 219.45 674.59 218.57 674.23 217.7 673.88 216.82 673.53 215.95 673.17 215.84 669.8 215.75 665.95 215.65 662.1 215.55 658.25 215.46 654.39 215.36 650.54 215.26 646.69 215.17 642.83 215.81 641.05 216.53 639.19 217.26 637.32 218.07 635.36 218.48 634.38 218.91 633.37 219.33 632.37 219.78 631.34 220.24 630.31 220.71 629.25 221.18 628.19 221.68 627.11 222.17 626.03 222.69 624.93 223.21 623.82 223.74 622.69 224.28 621.55 224.85 620.39 225.41 619.23 225.99 618.05 226.57 616.86 227.18 615.64 227.79 614.43 228.41 613.18 229.04 611.94 229.69 610.67 230.34 609.39 231.02 608.09 231.02 608.09 231.02 608.09 230.81 604.76 230.6 601.43 230.38 598.11 230.17 594.78 229.96 591.45 229.75 588.13 229.54 584.8 229.33 581.48 229.12 578.16 228.9 574.84 228.69 571.52 228.48 568.2 228.26 564.89 228.05 561.57 227.84 558.26 227.62 554.95 227.41 551.64 227.2 548.33 226.98 545.02 226.77 541.72 226.55 538.42 226.34 535.11 226.12 531.82 225.91 528.52 225.69 525.22 225.48 521.93 225.26 518.64 225.04 515.35 224.83 512.06 224.61 508.77 224.39 505.49 224.18 502.21 223.52 502.06 222.86 501.92 222.21 501.77 221.55 501.63 220.9 501.48 220.24 501.33 219.59 501.18 218.94 501.03 218.28 500.88 217.63 500.73 216.98 500.58 216.32 500.43 215.67 500.27 215.02 500.12 214.37 499.96 213.72 499.8 213.07 499.65 212.42 499.49 211.77 499.33 211.12 499.17 210.47 499.01 209.83 498.85 209.18 498.69 208.53 498.53 207.88 498.36 207.24 498.2 206.59 498.03 205.95 497.87 205.3 497.7 204.66 497.54 204.01 497.37 203.37 497.2 202.72 497.03 202.08 496.86 201.44 496.69 200.8 496.52 200.16 496.35 199.51 496.18 198.87 496.01 198.23 495.84 197.59 495.66 196.95 495.49 196.31 495.31 195.68 495.14 195.04 494.96 194.4 494.79 193.76 494.61 193.13 494.43 192.49 494.26 191.85 494.08 191.22 493.9 190.58 493.72 189.95 493.54 189.31 493.36 188.68 493.18 188.05 493 187.41 492.82 186.78 492.64 186.15 492.46 185.52 492.28 184.89 492.1 184.26 491.92 183.62 491.73 182.99 491.55 182.75 494.78 182.5 498.01 182.25 501.24 182 504.47 181.75 507.69 181.49 510.92 181.24 514.14 180.99 517.36 180.74 520.58 180.49 523.8 180.24 527.02 179.98 530.24 179.73 533.46 179.48 536.67 179.22 539.89 178.97 543.11 178.71 546.32 178.46 549.54 178.2 552.75 177.95 555.96 177.69 559.18 177.43 562.39 177.18 565.61 176.92 568.82 176.66 572.03 176.41 575.25 176.15 578.46 175.89 581.68 175.63 584.89 175.37 588.11 175.11 591.33 174.85 594.55 175.32 595.16 175.8 595.77 176.27 596.38 176.75 596.99 177.22 597.6 177.7 598.21 178.17 598.82 178.65 599.43 179.13 600.04 179.6 600.65 180.08 601.26 180.56 601.87 181.04 602.48 181.51 603.09 181.99 603.7 182.47 604.31 182.95 604.92 183.43 605.53 183.91 606.14 184.39 606.75 184.88 607.36 185.36 607.97 185.84 608.57 186.32 609.18 186.8 609.79 187.29 610.4 187.77 611.01 188.25 611.62 188.74 612.23 189.22 612.83 189.71 613.44 190.19 614.05 190.15 617 190.11 619.95 190.07 622.9 190.03 625.86 189.98 628.81 189.94 631.77 189.9 634.72 189.86 637.68 189.81 640.64 189.77 643.6 189.73 646.56 189.69 649.52 189.65 652.48 189.61 655.44 189.57 658.39 189.54 660.89 188.81 660.51 188.09 660.13 187.37 659.76 186.65 659.38 185.93 659 185.21 658.61 184.49 658.23 183.78 657.84 183.06 657.45 182.34 657.06 181.63 656.68 180.91 656.28 180.2 655.89 179.49 655.49 178.78 655.09 178.07 654.69 177.36 654.29 176.65 653.89 175.95 653.48 175.24 653.07 174.54 652.67 173.84 652.26 173.13 651.85 172.43 651.44 171.72 651.03 171.03 650.6 170.33 650.18 169.63 649.76 168.94 649.34 168.24 648.92 167.54 648.5 166.85 648.08 166.16 647.65 165.47 647.21 164.77 646.78 164.08 646.35 163.39 645.92 162.7 645.49 162.02 645.05 161.33 644.61 160.65 644.17 159.97 643.72 159.28 643.28 158.6 642.84 157.91 642.4 157.24 641.95 156.56 641.49 155.88 641.04 155.21 640.59 154.53 640.13 153.85 639.68 153.18 639.23 152.51 638.76 151.84 638.3 151.17 637.84 150.5 637.37 149.83 636.91 149.16 636.45 148.49 635.98 147.83 635.51 147.17 635.03 146.51 634.56 145.85 634.09 145.19 633.62 145.09 630.46 144.98 627 144.87 623.59 144.75 620.22 144.63 616.85 144.51 613.49 144.39 610.13 144.27 606.78 144.89 604.97 145.56 603.18 146.23 601.4 146.96 599.63 147.33 598.75 147.71 597.87 148.09 597 148.48 596.13 148.87 595.25 149.28 594.38 149.69 593.51 150.11 592.64 150.53 591.77 150.97 590.91 151.41 590.04 151.86 589.17 152.32 588.3 152.78 587.44 153.25 586.57 153.73 585.7 154.22 584.83 154.72 583.97 155.22 583.1 155.73 582.23 156.24 581.36 156.77 580.49 157.3 579.61 157.85 578.74 157.85 578.74 157.85 578.74 158.15 575.2 158.45 571.67 158.75 568.13 159.06 564.59 159.36 561.05 159.66 557.51 159.96 553.97 160.26 550.43 160.56 546.89 160.86 543.34 161.16 539.79 161.46 536.25 161.77 532.7 162.07 529.15 162.37 525.59 162.67 522.04 162.97 518.48 163.27 514.92 163.57 511.36 163.87 507.8 164.17 504.23 164.47 500.66 164.77 497.09 165.07 493.52 165.37 489.94 165.67 486.36 165.97 482.78 166.27 479.2 166.57 475.61 166.86 472.02 167.16 468.43 167.46 464.83 167.76 461.23 168.06 457.63 168.36 454.03 168.66 450.42 168.96 446.81 169.25 443.2 169.55 439.58 169.85 435.96 170.15 432.34 170.45 428.71 170.74 425.08 171.04 421.45 171.34 417.81 171.64 414.17 171.93 410.53 172.23 406.88 172.53 403.23 172.82 399.58 173.12 395.92 173.42 392.26 173.71 388.59 174.01 384.92 174.3 381.25 174.6 377.57 174.89 373.89 175.19 370.2 175.48 366.51 175.78 362.82 176.07 359.12 176.36 355.42 176.66 351.71 176.95 348 177.24 344.28 177.54 340.56 177.83 336.84 178.12 333.11 178.41 329.38 178.7 325.64 178.99 321.9 179.28 318.15 179.58 314.39 179.87 310.64 180.15 306.87 180.44 303.11 180.73 299.33 181.02 295.56 181.31 291.77 181.6 287.99 181.88 284.19 182.17 280.39 182.45 276.59 182.74 272.78 183.03 268.96 183.31 265.14 183.59 261.32 183.88 257.49 184.16 253.65 184.44 249.81 184.72 245.96 185.01 242.1 185.29 238.24 185.57 234.37 185.85 230.5 186.12 226.62 186.4 222.74 186.68 218.85 186.96 214.95 187.23 211.05 187.51 207.14 187.78 203.22 188.06 199.3 188.33 195.37 188.6 191.44 188.88 187.5 189.15 183.55 189.42 179.6 189.69 175.64 189.96 171.67 190.23 167.7 190.49 163.72 190.76 159.74 191.03 155.75 191.29 151.75 191.56 147.75 191.82 143.74 192.09 139.73 192.35 135.71 192.61 131.68 192.87 127.65 193.13 123.61 193.4 119.57 193.65 115.52 193.91 111.46 194.17 107.4 194.43 103.34 194.69 99.27 194.4 95.78 194.1 92.29 193.81 88.8 193.52 85.32 193.22 81.83 192.93 78.34 192.64 74.86 192.34 71.37 193.03 69.99 193.72 68.61 194.41 67.23 195.1 65.85 195.8 64.47 196.49 63.09 197.18 61.71 197.88 60.32 198.57 58.94 199.27 57.56 199.96 56.18 200.66 54.8 201.36 53.42 202.06 52.04 202.76 50.67 203.46 49.29 204.16 47.91 204.86 46.53 205.57 45.15 206.27 43.78 206.98 42.4 207.68 41.02 208.39 39.65 209.1 38.28 209.8 36.9 210.51 35.53 211.22 34.15 211.93 32.78 212.65 31.42 213.36 30.05 214.07 28.68 214.79 27.31 214.98 29.53 215.17 31.76 215.37 33.98 215.56 36.21 215.76 38.44 215.95 40.67 216.15 42.91 216.34 45.14 216.54 47.38 216.73 49.62 216.93 51.86 217.12 54.1 217.32 56.34 217.52 58.58 217.71 60.82 217.91 63.07 218.1 65.31 218.3 67.56 218.5 69.81 218.69 72.06 218.89 74.31 219.08 76.56 219.28 78.81 219.47 81.06 219.67 83.31 219.86 85.57 220.06 87.82 220.25 90.08 220.44 92.34 220.64 94.59 220.83 96.85 221.03 99.11 221.22 101.37 221.41 103.63 221.6 105.89 221.8 108.16 221.99 110.42 222.18 112.68 222.37 114.95 222.57 117.22 222.76 119.48 222.95 121.75 223.14 124.02 223.33 126.29 223.52 128.56 223.71 130.83 223.9 133.1 224.09 135.38 224.28 137.65 224.47 139.93 224.66 142.2 224.85 144.48 225.04 146.76 225.23 149.04 225.41 151.32 225.6 153.6 225.79 155.88 225.98 158.16 226.16 160.45 226.35 162.73 226.54 165.02 226.72 167.3 226.91 169.59 227.1 171.88 227.28 174.17 227.47 176.46 227.65 178.75 227.84 181.04 228.02 183.34 228.21 185.63 228.39 187.93 228.58 190.23 228.76 192.52 228.95 194.82 229.13 197.12 229.31 199.42 229.5 201.72 229.68 204.03 229.86 206.33 230.04 208.64 230.23 210.94 230.41 213.25 230.59 215.56 230.77 217.87 230.95 220.18 231.13 222.49 231.32 224.8 231.5 227.11 231.68 229.43 231.86 231.74 232.04 234.06 232.22 236.38 232.4 238.7 232.58 241.02 232.76 243.34 232.94 245.66 233.12 247.98 233.3 250.31 233.48 252.63 233.66 254.96 233.83 257.29 234.01 259.61 234.19 261.94 234.37 264.27 234.55 266.61 234.73 268.94 234.9 271.27 235.08 273.61 235.26 275.94 235.44 278.28 235.61 280.62 235.79 282.96 235.97 285.3 236.15 287.64 236.32 289.98 236.5 292.32 236.68 294.67 236.85 297.01 237.03 299.36 237.2 301.71 237.38 304.05 237.56 306.4 237.73 308.75 237.91 311.11 238.08 313.46 238.26 315.81 238.44 318.17 238.61 320.52 238.79 322.88 238.96 325.24 239.14 327.6 239.31 329.96 239.49 332.32 239.66 334.68 239.84 337.04 240.01 339.4 240.19 341.77 240.36 344.13 240.54 346.5 240.71 348.87 240.88 351.24 241.06 353.61 241.23 355.98 241.41 358.35 241.58 360.72 241.75 363.09 241.93 365.47 242.1 367.84 242.28 370.22 242.45 372.6 242.62 374.98 242.8 377.36 242.97 379.74 243.14 382.12 243.32 384.5 243.49 386.88 243.66 389.26 243.84 391.65 244.01 394.03 244.18 396.42 244.36 398.81 244.53 401.2 244.7 403.58 244.88 405.97 245.05 408.37 245.22 410.76 245.39 413.15 245.57 415.54 245.74 417.94 245.91 420.33 246.09 422.73 246.26 425.12 246.43 427.52 246.6 429.92 246.78 432.32 246.95 434.72 247.12 437.12 247.29 439.52 247.47 441.92 247.64 444.33 247.81 446.73 247.98 449.13 248.16 451.54 248.33 453.95 248.5 456.35 248.67 458.76 248.84 461.17 249.02 463.58 249.19 465.99 249.36 468.4 249.53 470.81 249.71 473.22 249.88 475.63 250.05 478.05 250.22 480.46 250.39 482.88 250.57 485.29 250.74 487.71 250.91 490.12 251.08 492.54 251.26 494.96 251.43 497.38 251.6 499.8 251.77 502.22 251.94 504.64 252.12 507.06 252.29 509.48 252.46 511.9 252.63 514.33 252.8 516.75 252.98 519.18 253.15 521.6 253.32 524.03 253.49 526.45 253.67 528.88 253.84 531.31 254.01 533.73 254.18 536.16 254.35 538.59 254.53 541.02 254.7 543.45 254.87 545.88 255.04 548.31 255.21 550.74 255.39 553.17 255.56 555.61 255.73 558.04 255.9 560.47 256.08 562.91 256.25 565.34 256.42 567.77 256.59 570.21 256.77 572.64 256.94 575.08 257.11 577.52 257.28 579.95 257.45 582.39 257.63 584.83 257.8 587.26 257.97 589.7 258.14 592.14 258.32 594.58 258.49 597.02 258.66 599.46 258.83 601.89 259.01 604.33 259.18 606.77 259.35 609.21 259.52 611.65 259.7 614.09 259.87 616.53 260.04 618.97 260.21 621.41 260.39 623.85 260.56 626.29 260.73 628.73 260.73 628.73 260.73 628.73M188.18 424.57Q188.66 424.64 189.14 424.71 189.62 424.78 190.1 424.86 190.58 424.93 191.06 425 191.54 425.07 192.02 425.14 192.51 425.21 192.99 425.29 193.47 425.36 193.95 425.43 194.44 425.5 194.92 425.57 195.4 425.64 195.89 425.71 196.37 425.78 196.85 425.85 197.34 425.92 197.82 425.99 198.3 426.06 198.79 426.13 199.27 426.2 199.76 426.27 200.24 426.34 200.73 426.41 201.21 426.48 201.7 426.55 202.19 426.62 202.67 426.69 203.16 426.76 203.65 426.83 204.13 426.9 204.62 426.96 205.11 427.03 205.59 427.1 206.08 427.17 206.57 427.23 207.06 427.3 207.55 427.37 208.03 427.43 208.52 427.5 209.01 427.57 209.5 427.63 209.99 427.7 210.48 427.76 210.97 427.83 211.46 427.9 211.95 427.96 212.44 428.03 212.93 428.09 213.42 428.15 213.91 428.22 214.4 428.28 214.89 428.35 215.38 428.41 215.88 428.47 216.37 428.53 216.86 428.6 217.35 428.66 217.84 428.72 218.34 428.78 218.83 428.85 219.32 428.91 219.08 425.38 218.84 421.86 218.61 418.33 218.37 414.82 218.13 411.3 217.89 407.79 217.65 404.28 217.41 400.77 217.17 397.27 216.92 393.76 216.68 390.27 216.44 386.77 216.2 383.28 215.96 379.79 215.72 376.3 215.47 372.82 215.23 369.34 214.99 365.86 214.74 362.38 214.5 358.91 214.25 355.44 214.01 351.97 213.76 348.51 213.52 345.05 213.27 341.59 213.03 338.13 212.78 334.68 212.54 331.23 212.29 327.79 212.04 324.34 211.79 320.9 211.55 317.46 211.3 314.03 211.05 310.59 210.8 307.16 210.55 303.74 210.3 300.31 210.05 296.89 209.8 293.47 209.55 290.05 209.3 286.64 209.05 283.23 208.8 279.82 208.55 276.41 208.3 273.01 208.04 269.61 207.79 266.21 207.54 262.81 207.28 259.42 207.03 256.02 206.78 252.64 206.52 249.25 206.27 245.86 206.01 242.48 205.75 239.1 205.5 235.72 205.24 232.35 204.98 228.98 204.73 225.6 204.47 222.24 204.21 218.87 203.95 215.5 203.69 212.14 203.43 208.78 203.2 212.26 202.98 215.74 202.75 219.21 202.52 222.68 202.29 226.15 202.06 229.61 201.83 233.07 201.6 236.52 201.37 239.97 201.14 243.42 200.91 246.87 200.68 250.31 200.45 253.74 200.22 257.18 199.98 260.61 199.75 264.03 199.52 267.46 199.28 270.88 199.05 274.29 198.82 277.7 198.58 281.11 198.35 284.52 198.11 287.92 197.87 291.32 197.64 294.71 197.4 298.1 197.16 301.49 196.93 304.87 196.69 308.25 196.45 311.63 196.21 315 195.97 318.37 195.74 321.74 195.5 325.11 195.26 328.47 195.02 331.82 194.78 335.18 194.54 338.53 194.3 341.87 194.05 345.22 193.81 348.56 193.57 351.89 193.33 355.23 193.09 358.56 192.84 361.89 192.6 365.21 192.36 368.54 192.11 371.85 191.87 375.17 191.63 378.48 191.38 381.79 191.14 385.1 190.89 388.4 190.65 391.71 190.4 395 190.15 398.3 189.91 401.59 189.66 404.88 189.41 408.17 189.17 411.45 188.92 414.74 188.67 418.02 188.42 421.29 188.18 424.57 188.18 424.57 188.18 424.57M397.94 634.99Q398.7 635.44 399.46 635.88 400.23 636.33 400.99 636.78 401.76 637.22 402.52 637.67 403.28 638.12 404.04 638.57 404.81 639.02 405.57 639.48 406.33 639.93 407.1 640.39 407.86 640.85 408.62 641.32 409.39 641.79 410.06 642.27 410.07 645.57 410.08 648.87 410.09 652.17 410.1 655.47 410.09 658.78 410.08 662.08 410.07 665.38 410.06 668.68 410.04 671.98 410.03 675.29 410.02 678.59 410.01 681.89 410 685.19 409.98 688.49 409.97 691.8 409.95 694.69 409.37 694.75 408.77 694.84 408.18 694.94 407.59 695.04 406.99 695.13 406.4 695.23 405.8 695.33 405.21 695.43 404.62 695.52 404.02 695.61 403.43 695.7 402.83 695.79 402.24 695.88 401.64 695.96 401.04 696.05 400.45 696.14 399.85 696.23 399.26 696.32 398.66 696.4 398.07 696.48 397.47 696.56 396.87 696.64 396.28 696.71 395.68 696.79 395.08 696.87 394.49 696.95 393.89 697.03 393.29 697.1 392.7 697.17 392.1 697.24 391.5 697.31 390.9 697.38 390.31 697.45 389.71 697.52 389.11 697.59 388.51 697.66 387.92 697.72 387.32 697.79 386.72 697.85 386.12 697.91 385.52 697.97 384.92 698.03 384.33 698.09 383.73 698.15 383.13 698.21 382.53 698.26 381.93 698.31 381.33 698.37 380.73 698.42 380.13 698.47 379.53 698.52 378.94 698.57 378.34 698.62 377.74 698.67 377.14 698.72 376.54 698.76 375.94 698.8 375.34 698.84 374.74 698.89 374.14 698.93 373.54 698.97 372.94 699.01 372.34 699.05 371.74 699.09 371.33 695.38 370.92 691.19 370.52 687 370.11 682.8 369.7 678.61 369.29 674.41 368.88 670.22 368.47 666.02 368.06 661.82 367.66 657.63 367.25 653.43 366.84 649.23 366.43 645.04 366.02 640.84 365.62 636.64 365.21 632.45 364.8 628.25 364.39 624.05 363.98 619.86 363.58 615.66 363.17 611.47 362.76 607.28 362.35 603.09 361.95 598.89 361.54 594.7 361.13 590.51 360.72 586.32 360.32 582.13 359.91 577.94 359.5 573.75 359.09 569.57 358.69 565.38 358.28 561.19 357.87 557.01 357.47 552.82 357.06 548.64 356.65 544.45 356.25 540.27 355.84 536.09 355.43 531.91 355.03 527.73 354.62 523.55 354.21 519.37 353.81 515.19 353.4 511.01 352.99 506.83 352.59 502.65 352.18 498.48 351.77 494.3 351.37 490.12 350.96 485.95 350.55 481.78 350.15 477.6 349.74 473.43 349.33 469.26 348.93 465.08 348.52 460.91 348.12 456.74 347.71 452.57 347.3 448.4 346.9 444.23 346.49 440.06 346.08 435.9 345.68 431.73 345.18 431.76 344.68 431.79 344.19 431.82 343.69 431.85 343.2 431.88 342.7 431.91 342.2 431.94 341.71 431.97 341.21 432 340.71 432.03 340.22 432.06 339.72 432.09 339.22 432.12 338.73 432.14 338.23 432.17 337.73 432.2 337.24 432.23 336.74 432.26 336.25 432.29 335.75 432.31 335.25 432.34 334.76 432.37 334.26 432.4 333.76 432.42 333.27 432.45 332.77 432.48 332.27 432.5 331.78 432.53 331.28 432.56 330.79 432.58 330.29 432.61 329.79 432.63 329.79 435.73 329.79 438.83 329.79 441.93 329.79 445.03 329.79 448.13 329.79 451.23 329.79 454.33 329.79 457.43 329.79 460.53 329.79 463.64 329.79 466.74 329.79 469.84 329.79 472.94 329.78 476.05 329.78 479.15 329.78 482.25 329.78 485.36 329.78 488.46 329.78 491.57 329.78 494.67 329.78 497.78 329.78 500.89 329.78 503.99 329.78 507.1 329.78 510.21 329.78 513.32 329.77 516.43 329.77 519.54 329.77 522.65 329.77 525.76 329.77 528.87 329.77 531.98 329.77 535.1 329.77 538.21 329.77 541.32 329.77 544.44 329.76 547.55 329.76 550.67 329.76 553.79 329.76 556.91 329.76 560.02 329.76 563.14 329.76 566.26 329.76 569.38 329.76 572.5 329.75 575.63 329.75 578.75 329.75 581.87 329.75 585 329.75 588.12 329.75 591.25 329.75 594.37 329.74 597.5 329.74 600.63 329.74 603.76 329.74 606.89 329.74 610.02 329.74 613.15 329.74 616.28 329.73 619.42 329.73 622.55 329.73 625.68 329.73 628.82 329.73 631.96 330.27 632.41 330.81 632.87 331.34 633.32 331.88 633.78 332.42 634.23 332.96 634.68 333.5 635.14 334.04 635.59 334.58 636.04 335.12 636.49 335.66 636.94 336.2 637.39 336.74 637.84 337.27 638.28 337.81 638.73 338.35 639.18 338.89 639.62 339.43 640.07 339.97 640.51 340.51 640.96 341.05 641.4 341.59 641.84 342.13 642.28 342.67 642.72 343.21 643.16 343.75 643.6 344.29 644.04 344.83 644.48 345.37 644.91 345.9 645.35 346.44 645.79 346.98 646.22 346.97 649.59 346.96 652.97 346.95 656.35 346.93 659.72 346.92 663.1 346.91 666.47 346.89 669.85 346.88 673.23 346.87 676.6 346.86 679.98 346.84 683.35 346.83 686.73 346.82 690.1 346.81 693.47 346.79 696.84 346.78 699.73 345.82 699.73 344.86 699.72 343.9 699.7 342.94 699.68 341.98 699.66 341.02 699.64 340.06 699.61 339.1 699.59 338.14 699.56 337.18 699.52 336.22 699.48 335.26 699.44 334.3 699.41 333.34 699.37 332.38 699.32 331.42 699.26 330.46 699.21 329.5 699.16 328.54 699.11 327.58 699.05 326.62 698.98 325.66 698.91 324.7 698.85 323.74 698.78 322.78 698.71 321.82 698.64 320.87 698.55 319.91 698.47 318.95 698.39 317.99 698.31 317.03 698.23 316.07 698.13 315.12 698.03 314.16 697.94 313.2 697.84 312.25 697.74 311.29 697.64 310.33 697.53 309.38 697.42 308.42 697.3 307.46 697.19 306.51 697.08 305.55 696.96 304.6 696.83 303.64 696.71 302.69 696.58 301.74 696.45 300.78 696.32 299.83 696.18 298.88 696.04 297.92 695.9 296.97 695.76 296.02 695.62 295.07 695.47 294.59 695.39 294.12 695.32 293.64 695.24 293.17 695.16 292.22 695 291.27 694.85 290.32 694.69 289.37 694.53 288.89 694.44 288.42 694.35 287.95 694.27 287.47 694.18 287 694.1 286.53 694.01 286.05 693.93 285.58 693.84 285.44 690.1 285.3 685.92 285.16 681.77 285.02 677.62 284.88 673.47 284.74 669.33 284.59 665.19 284.45 661.05 285.14 658.64 285.92 656.2 286.69 653.77 287.54 651.29 287.97 650.06 288.41 648.81 288.86 647.56 289.32 646.31 289.79 645.05 290.28 643.79 290.76 642.52 291.27 641.24 291.78 639.97 292.3 638.68 292.83 637.4 293.38 636.1 293.92 634.8 294.49 633.49 295.06 632.18 295.64 630.86 296.23 629.54 296.84 628.21 297.45 626.88 298.07 625.54 298.7 624.19 299.35 622.84 300 621.48 300.67 620.12 300.67 620.12 300.67 620.12 300.67 615.83 300.67 611.55 300.68 607.27 300.68 603 300.68 598.72 300.68 594.45 300.69 590.17 300.69 585.9 300.69 581.63 300.69 577.36 300.7 573.1 300.7 568.83 300.7 564.57 300.7 560.3 300.7 556.04 300.7 551.77 300.71 547.51 300.71 543.25 300.71 538.99 300.71 534.73 300.71 530.47 300.71 526.21 300.71 521.96 300.72 517.7 300.72 513.44 300.72 509.19 300.72 504.93 300.72 500.67 300.72 496.42 300.72 492.16 300.72 487.91 300.72 483.66 300.72 479.4 300.72 475.15 300.73 470.9 300.73 466.64 300.73 462.39 300.73 458.14 300.73 453.89 300.73 449.64 300.73 445.38 300.73 441.13 300.73 436.88 300.73 432.63 300.73 428.38 300.73 424.13 300.73 419.88 300.73 415.63 300.73 411.38 300.73 407.13 300.73 402.88 300.73 398.63 300.73 394.38 300.73 390.13 300.73 385.88 300.73 381.63 300.73 377.38 300.73 373.13 300.73 368.88 300.73 364.63 300.74 360.38 300.74 356.13 300.74 351.88 300.74 347.63 300.74 343.39 300.74 339.14 300.74 334.89 300.74 330.64 300.74 326.39 300.74 322.14 300.74 317.89 300.74 313.64 300.74 309.39 300.74 305.14 300.74 300.89 300.74 296.64 300.74 292.39 300.74 288.14 300.74 283.89 300.74 279.64 300.74 275.39 300.74 271.14 300.74 266.89 300.74 262.64 300.74 258.39 300.74 254.13 300.73 249.88 300.73 245.63 300.73 241.38 300.73 237.13 300.73 232.87 300.73 228.62 300.73 224.37 300.73 220.11 300.73 215.86 300.73 211.61 300.73 207.35 300.73 203.1 300.73 198.84 300.73 194.59 300.73 190.33 300.73 186.08 300.73 181.82 300.73 177.56 300.73 173.3 300.73 169.04 300.73 164.79 300.73 160.53 300.73 156.26 300.72 152 300.72 147.74 300.72 143.48 300.72 139.22 300.72 134.95 300.72 130.69 300.72 126.42 300.72 122.15 300.72 117.88 300.72 113.61 300.71 109.34 300.71 105.07 300.71 100.79 300.71 96.52 300.71 92.24 300.71 87.96 300.7 83.68 300.7 79.4 300.7 75.11 299.82 74.62 298.93 74.13 298.05 73.63 297.17 73.14 296.29 72.65 295.41 72.15 294.52 71.66 293.64 71.17 292.76 70.67 291.88 70.18 291 69.68 290.12 69.18 289.23 68.68 288.35 68.17 287.47 67.66 286.59 67.14 286.6 63.85 286.61 60.55 286.62 57.26 286.64 53.96 286.65 50.66 286.66 47.36 286.67 44.07 286.68 40.77 286.69 37.47 286.71 34.17 286.72 30.87 286.73 27.56 286.74 24.26 286.75 20.95 286.76 17.63 286.77 14.31 287.72 14.03 288.66 13.74 289.61 13.44 290.55 13.15 291.5 12.87 292.45 12.58 293.39 12.3 294.34 12.01 295.29 11.73 296.24 11.45 297.19 11.18 298.14 10.91 299.09 10.64 300.04 10.37 300.99 10.1 301.94 9.84 302.89 9.58 303.84 9.32 304.79 9.07 305.74 8.81 306.69 8.56 307.65 8.32 308.6 8.08 309.55 7.83 310.51 7.59 311.46 7.35 312.41 7.12 313.37 6.89 314.32 6.66 315.28 6.43 316.23 6.21 317.19 5.98 318.14 5.77 319.1 5.55 320.05 5.34 321.01 5.13 321.97 4.92 322.92 4.71 323.88 4.51 324.84 4.31 325.79 4.11 326.75 3.91 327.71 3.72 328.66 3.53 329.62 3.34 330.58 3.16 331.54 2.98 332.49 2.8 333.45 2.61 334.41 2.44 335.37 2.27 336.32 2.11 337.28 1.94 338.24 1.77 339.2 1.61 340.16 1.45 341.11 1.3 342.07 1.14 343.03 0.99 343.99 0.84 344.95 0.69 345.9 0.55 346.86 0.41 347.82 0.28 348.51 0.27 349.19 0.33 349.88 0.38 350.55 0.5 351.22 0.63 351.89 0.81 352.56 1 353.22 1.24 353.87 1.48 354.53 1.79 355.18 2.09 355.82 2.46 356.46 2.84 357.1 3.27 357.73 3.7 358.36 4.2 358.99 4.69 359.61 5.24 360.23 5.8 360.84 6.41 361.45 7.03 362.06 7.71 362.66 8.39 363.26 9.13 363.86 9.87 364.44 10.68 365.03 11.48 365.61 12.34 366.19 13.21 366.77 14.13 367.34 15.06 367.9 16.04 368.47 17.03 369.03 18.08 369.58 19.13 370.13 20.24 370.68 21.35 371.22 22.52 371.76 23.69 372.3 24.92 372.83 26.15 373.36 27.44 373.88 28.73 374.4 30.09 374.92 31.44 375.42 32.85 375.93 34.26 376.44 35.74 376.94 37.21 377.43 38.74 377.92 40.28 378.41 41.87 378.9 43.46 379.37 45.11 379.85 46.76 380.32 48.47 380.79 50.19 381.25 51.96 381.71 53.73 382.17 55.55 382.62 57.38 383.07 59.27 383.51 61.16 383.95 63.1 384.39 65.05 384.81 67.02 385.24 68.99 385.65 70.99 386.06 72.99 386.45 75.02 386.85 77.05 387.23 79.1 387.62 81.16 387.99 83.24 388.35 85.32 388.71 87.43 389.07 89.53 389.41 91.67 389.75 93.8 390.08 95.96 390.4 98.12 390.72 100.31 391.03 102.5 391.33 104.71 391.63 106.92 391.92 109.16 392.21 111.4 392.48 113.67 392.75 115.94 393.01 118.23 393.27 120.52 393.52 122.84 393.76 125.16 393.99 127.51 394.22 129.86 394.44 132.23 394.66 134.61 394.87 137.01 395.07 139.41 395.26 141.84 395.45 144.26 395.63 146.72 395.81 149.18 395.97 151.66 396.13 154.14 396.28 156.65 396.43 159.17 396.57 161.7 396.7 164.24 396.83 166.81 396.95 169.38 397.06 171.97 397.17 174.57 397.26 177.19 397.36 179.81 397.44 182.47 397.52 185.12 397.59 187.8 397.66 190.48 397.71 193.19 397.77 195.89 397.81 198.63 397.85 201.37 397.87 204.13 397.9 206.9 397.91 209.69 397.93 212.49 397.93 215.31 397.93 215.31 397.93 215.31 397.93 219.14 397.9 222.93 397.87 226.73 397.82 230.48 397.76 234.24 397.68 237.97 397.6 241.69 397.49 245.38 397.39 249.06 397.25 252.72 397.12 256.37 396.95 259.99 396.79 263.61 396.6 267.19 396.42 270.78 396.2 274.32 395.99 277.87 395.74 281.39 395.5 284.9 395.23 288.39 394.96 291.87 394.67 295.31 394.37 298.76 394.05 302.17 393.72 305.59 393.38 308.96 393.03 312.34 392.65 315.69 392.27 319.03 391.87 322.34 391.46 325.66 391.03 328.93 390.6 332.21 390.15 335.39 389.7 338.57 389.24 341.65 388.77 344.73 388.28 347.71 387.79 350.7 387.28 353.58 386.77 356.47 386.24 359.25 385.72 362.04 385.17 364.72 384.62 367.41 384.06 370 383.49 372.59 382.9 375.08 382.32 377.57 381.71 379.97 381.11 382.36 380.48 384.65 379.86 386.95 379.21 389.14 378.57 391.34 377.91 393.44 377.24 395.53 376.56 397.53 375.88 399.53 375.17 401.43 374.47 403.33 373.75 405.13 373.03 406.93 372.28 408.63 372.28 408.63 372.28 408.63 372.68 412.18 373.09 415.73 373.49 419.28 373.89 422.83 374.29 426.38 374.69 429.93 375.09 433.47 375.49 437.02 375.89 440.57 376.29 444.11 376.69 447.66 377.09 451.21 377.49 454.75 377.89 458.3 378.29 461.84 378.69 465.39 379.09 468.93 379.5 472.47 379.9 476.02 380.3 479.56 380.7 483.1 381.1 486.65 381.5 490.19 381.9 493.73 382.3 497.27 382.7 500.81 383.1 504.35 383.5 507.89 383.9 511.43 384.3 514.97 384.71 518.51 385.11 522.05 385.51 525.58 385.91 529.12 386.31 532.66 386.71 536.19 387.11 539.73 387.51 543.26 387.91 546.8 388.31 550.33 388.71 553.87 389.12 557.4 389.52 560.93 389.92 564.47 390.32 568 390.72 571.53 391.12 575.06 391.52 578.59 391.92 582.12 392.32 585.65 392.72 589.18 393.13 592.71 393.53 596.23 393.93 599.76 394.33 603.29 394.73 606.81 395.13 610.34 395.53 613.86 395.93 617.38 396.33 620.91 396.73 624.43 397.14 627.95 397.54 631.47 397.94 634.99 397.94 634.99 397.94 634.99M329.79 99.11Q329.79 102.98 329.79 106.84 329.79 110.71 329.79 114.58 329.79 118.44 329.79 122.3 329.79 126.17 329.79 130.03 329.79 133.89 329.79 137.74 329.8 141.6 329.8 145.46 329.8 149.31 329.8 153.17 329.8 157.02 329.8 160.87 329.8 164.72 329.8 168.57 329.8 172.42 329.8 176.27 329.8 180.12 329.8 183.96 329.8 187.81 329.8 191.66 329.8 195.5 329.8 199.34 329.8 203.18 329.8 207.03 329.8 210.87 329.8 214.71 329.8 218.55 329.8 222.39 329.8 226.22 329.8 230.06 329.8 233.9 329.8 237.74 329.81 241.57 329.81 245.41 329.81 249.24 329.81 253.08 329.81 256.91 329.81 260.75 329.81 264.58 329.81 268.41 329.81 272.24 329.81 276.08 329.81 279.91 329.81 283.74 329.81 287.57 329.81 291.4 329.81 295.23 329.81 299.06 329.8 302.89 329.8 306.72 329.8 310.55 329.8 314.38 329.8 318.21 329.8 322.04 329.8 325.87 329.8 329.7 329.8 333.53 329.8 337.36 329.8 341.19 329.8 345.01 330.62 345.93 331.42 346.72 332.22 347.52 333.02 348.21 333.81 348.89 334.6 349.46 335.39 350.03 336.16 350.49 336.94 350.95 337.71 351.29 338.48 351.63 339.24 351.86 340 352.09 340.75 352.2 341.5 352.32 342.24 352.32 342.24 352.32 342.24 352.32 343.09 352.32 343.91 352.17 344.73 352.03 345.52 351.73 346.31 351.44 347.07 351 347.83 350.56 348.56 349.97 349.29 349.38 350 348.65 350.7 347.91 351.37 347.03 352.04 346.15 352.68 345.12 353.33 344.09 353.94 342.92 354.55 341.74 355.14 340.42 355.72 339.1 356.28 337.63 356.83 336.16 357.35 334.55 357.88 332.93 358.37 331.17 358.87 329.41 359.33 327.5 359.8 325.59 360.24 323.54 360.67 321.48 361.08 319.28 361.48 317.08 361.86 314.73 362.24 312.38 362.59 309.95 362.95 307.52 363.28 305 363.61 302.48 363.91 299.87 364.22 297.27 364.5 294.58 364.78 291.89 365.04 289.11 365.3 286.33 365.54 283.47 365.77 280.61 365.99 277.66 366.2 274.72 366.39 271.68 366.58 268.65 366.74 265.53 366.91 262.41 367.05 259.2 367.19 256 367.31 252.7 367.43 249.41 367.52 246.03 367.62 242.65 367.69 239.19 367.76 235.72 367.81 232.17 367.86 228.62 367.88 224.98 367.9 221.34 367.9 217.61 367.9 217.61 367.9 217.61 367.91 214.74 367.89 211.91 367.88 209.08 367.86 206.3 367.84 203.52 367.81 200.79 367.77 198.05 367.73 195.37 367.69 192.68 367.63 190.05 367.57 187.41 367.51 184.82 367.37 179.65 367.2 174.66 367.02 169.68 366.8 164.88 366.57 160.09 366.3 155.49 366.04 150.89 365.72 146.48 365.41 142.07 365.05 137.86 364.69 133.64 364.29 129.62 363.89 125.6 363.44 121.77 362.99 117.94 362.5 114.3 362.01 110.67 361.47 107.23 360.93 103.79 360.35 100.54 359.76 97.3 359.14 94.25 358.51 91.2 357.83 88.35 357.16 85.5 356.44 82.85 356.44 82.85 356.44 82.85 355.61 83.33 354.78 83.82 353.94 84.3 353.11 84.79 352.28 85.28 351.44 85.77 350.61 86.27 349.78 86.76 348.94 87.26 348.11 87.76 347.28 88.26 346.44 88.76 345.61 89.26 344.78 89.76 343.94 90.27 343.11 90.78 342.28 91.29 341.44 91.8 340.61 92.31 339.78 92.82 338.95 93.34 338.11 93.86 337.28 94.38 336.45 94.9 335.61 95.42 334.78 95.94 333.95 96.46 333.12 96.99 332.28 97.52 331.45 98.05 330.62 98.58 329.79 99.11 329.79 99.11 329.79 99.11M540.13 586.67Q540.83 586.91 541.52 587.15 542.22 587.4 542.91 587.65 543.61 587.9 544.3 588.16 545 588.42 545.69 588.7 546.39 588.98 547.09 589.27 547.78 589.57 548.48 589.89 549.18 590.22 549.88 590.57 550.59 590.93 551.2 591.33 551.21 594.15 551.22 596.98 551.24 599.81 551.25 602.63 551.24 605.46 551.22 608.3 551.21 611.13 551.2 613.96 551.19 616.79 551.18 619.62 551.17 622.46 551.16 625.29 551.15 628.12 551.13 630.95 551.12 633.79 551.11 636.31 550.57 636.65 550.04 637.02 549.5 637.39 548.96 637.76 548.42 638.13 547.88 638.5 547.34 638.88 546.8 639.25 546.25 639.62 545.71 639.98 545.16 640.35 544.62 640.71 544.07 641.08 543.53 641.44 542.98 641.81 542.44 642.17 541.89 642.53 541.34 642.89 540.79 643.24 540.24 643.6 539.69 643.96 539.13 644.31 538.58 644.67 538.03 645.03 537.48 645.38 536.92 645.73 536.37 646.08 535.81 646.43 535.25 646.77 534.7 647.12 534.14 647.47 533.58 647.82 533.03 648.16 532.47 648.51 531.91 648.84 531.34 649.18 530.78 649.52 530.22 649.86 529.66 650.2 529.09 650.54 528.53 650.88 527.97 651.21 527.4 651.54 526.83 651.87 526.27 652.2 525.7 652.53 525.13 652.86 524.57 653.19 524 653.52 523.43 653.85 522.86 654.18 522.29 654.5 521.71 654.82 521.14 655.14 520.57 655.46 520 655.78 519.42 656.1 518.85 656.42 518.28 656.74 517.7 657.05 517.12 657.36 516.54 657.68 515.97 657.99 515.39 658.3 515.08 656.74 514.77 654.74 514.45 652.74 514.14 650.73 513.82 648.73 513.5 646.72 513.19 644.72 512.87 642.71 512.55 640.7 512.23 638.69 511.91 636.68 511.6 634.68 511.28 632.66 510.96 630.65 510.64 628.64 510.32 626.63 510 624.62 509.69 622.6 509.37 620.59 509.05 618.57 508.73 616.55 508.41 614.54 508.09 612.52 507.77 610.5 507.45 608.48 507.13 606.46 506.81 604.44 506.5 602.41 506.18 600.39 505.86 598.37 505.54 596.34 505.22 594.32 504.9 592.29 504.58 590.26 504.26 588.23 503.95 586.2 503.63 584.17 503.31 582.14 502.99 580.1 502.67 578.07 502.35 576.03 502.04 573.99 501.72 571.96 501.4 569.92 501.08 567.88 500.76 565.83 500.45 563.79 500.13 561.75 499.81 559.7 499.49 557.65 499.18 555.6 498.86 553.55 498.54 551.5 498.23 549.45 497.91 547.4 497.59 545.34 497.28 543.28 496.96 541.23 496.64 539.17 496.33 537.1 496.01 535.04 495.69 532.98 495.38 530.91 495.06 528.84 494.75 526.77 494.43 524.7 494.11 522.63 493.8 520.56 493.48 518.48 493.17 516.4 492.85 514.32 492.54 512.24 492.22 510.16 491.91 508.08 491.59 505.99 491.28 503.9 490.97 501.82 490.65 499.72 490.34 497.63 490.02 495.54 489.71 493.44 489.4 491.34 489.08 489.24 488.77 487.14 488.45 485.04 488.14 482.93 487.83 480.82 487.52 478.72 487.2 476.6 486.89 474.49 486.58 472.38 486.26 470.26 485.95 468.14 485.64 466.02 485.33 463.9 485.02 461.77 484.7 459.65 484.39 457.52 484.08 455.39 483.77 453.26 483.46 451.12 483.14 448.99 482.83 446.85 482.52 444.71 482.21 442.57 481.9 440.42 481.59 438.28 481.28 436.13 480.97 433.98 480.66 431.83 480.35 429.67 480.04 427.51 479.73 425.36 479.42 423.2 479.11 421.03 478.8 418.87 478.49 416.7 478.18 414.54 477.87 412.37 477.56 410.19 477.25 408.02 476.94 405.84 476.63 403.66 476.32 401.48 476.01 399.3 475.7 397.12 475.39 394.93 475.09 392.74 474.6 395.43 474.11 398.13 473.62 400.82 473.13 403.53 472.64 406.23 472.15 408.94 471.66 411.66 471.17 414.37 470.68 417.09 470.19 419.82 469.7 422.54 469.21 425.28 468.72 428.01 468.22 430.75 467.73 433.49 467.24 436.23 467.25 439.05 467.26 441.86 467.26 444.68 467.27 447.49 467.27 450.3 467.28 453.12 467.29 455.93 467.29 458.75 467.3 461.56 467.31 464.38 467.32 467.19 467.32 470.01 467.33 472.82 467.34 475.64 467.35 478.45 467.36 481.27 467.37 484.08 467.38 486.9 467.39 489.72 467.4 492.53 467.41 495.35 467.42 498.17 467.43 500.98 467.44 503.8 467.45 506.62 467.46 509.43 467.47 512.25 467.48 515.07 467.5 517.89 467.51 520.7 467.52 523.52 467.53 526.34 467.55 529.16 467.56 531.98 467.57 534.8 467.59 537.61 467.6 540.43 467.62 543.25 467.63 546.07 467.65 548.89 467.66 551.71 467.68 554.53 467.7 557.35 467.71 560.17 467.73 562.99 467.75 565.81 467.76 568.63 467.78 571.45 467.8 574.27 467.82 577.09 467.84 579.91 467.86 582.73 467.88 585.55 467.9 588.37 467.92 591.2 467.94 594.02 467.96 596.84 467.98 599.66 468 602.48 468.02 605.3 468.04 608.12 468.06 610.94 468.09 613.76 468.11 616.58 468.63 616.79 469.14 617 469.66 617.21 470.18 617.42 470.69 617.63 471.21 617.84 471.73 618.04 472.24 618.25 472.76 618.45 473.27 618.65 473.79 618.86 474.3 619.06 474.82 619.25 475.33 619.45 475.84 619.65 476.36 619.85 476.87 620.04 477.38 620.23 477.9 620.43 478.41 620.62 478.92 620.81 479.43 621 479.94 621.19 480.46 621.37 480.97 621.56 481.48 621.75 481.99 621.93 482.5 622.11 483.01 622.29 483.52 622.47 484.03 622.65 484.54 622.83 484.56 625.99 484.57 629.15 484.59 632.3 484.61 635.46 484.63 638.62 484.65 641.77 484.67 644.93 484.69 648.08 484.71 651.24 484.72 654.4 484.74 657.55 484.76 660.7 484.78 663.85 484.8 667 484.81 670.15 484.82 672.85 483.88 673.25 482.93 673.64 481.97 674.02 481.02 674.41 480.07 674.79 479.12 675.18 478.17 675.55 477.21 675.92 476.25 676.3 475.3 676.67 474.34 677.04 473.38 677.4 472.42 677.76 471.46 678.11 470.49 678.47 469.53 678.82 468.57 679.18 467.6 679.52 466.63 679.86 465.66 680.2 464.69 680.54 463.73 680.88 462.75 681.21 461.78 681.53 460.81 681.85 459.83 682.18 458.86 682.5 457.88 682.82 456.91 683.13 455.93 683.44 454.95 683.75 453.97 684.06 452.99 684.37 452.01 684.66 451.03 684.96 450.04 685.25 449.06 685.54 448.08 685.84 447.09 686.12 446.1 686.4 445.11 686.68 444.13 686.96 443.14 687.23 442.15 687.51 441.16 687.77 440.16 688.03 439.17 688.3 438.18 688.56 437.19 688.82 436.19 689.07 435.2 689.32 434.2 689.56 433.2 689.81 432.21 690.05 431.21 690.29 430.21 690.52 429.21 690.76 428.21 690.99 427.21 691.22 426.21 691.45 425.2 691.66 424.2 691.88 423.2 692.09 422.2 692.31 422.03 688.7 421.87 684.59 421.72 680.45 421.57 676.31 421.42 672.15 421.28 668 421.13 663.85 420.98 659.69 421.7 657.15 422.51 654.54 423.31 651.93 424.2 649.24 424.65 647.9 425.11 646.54 425.58 645.17 426.07 643.79 426.56 642.41 427.07 641.01 427.58 639.61 428.11 638.2 428.63 636.78 429.19 635.35 429.74 633.91 430.31 632.46 430.88 631.01 431.47 629.54 432.06 628.07 432.68 626.58 433.29 625.09 433.92 623.59 434.56 622.08 435.21 620.56 435.86 619.03 436.54 617.49 437.21 615.95 437.91 614.39 437.91 614.39 437.91 614.39 437.89 610.19 437.88 605.98 437.87 601.78 437.86 597.57 437.85 593.36 437.84 589.15 437.83 584.94 437.82 580.72 437.81 576.51 437.8 572.3 437.79 568.08 437.79 563.87 437.78 559.65 437.77 555.44 437.76 551.22 437.76 547.01 437.75 542.79 437.75 538.57 437.74 534.36 437.73 530.14 437.73 525.92 437.72 521.71 437.72 517.49 437.71 513.27 437.71 509.05 437.7 504.83 437.7 500.62 437.7 496.4 437.69 492.18 437.69 487.96 437.68 483.74 437.68 479.53 437.68 475.31 437.67 471.09 437.67 466.87 437.67 462.66 437.67 458.44 437.66 454.22 437.66 450 437.66 445.78 437.66 441.57 437.65 437.35 437.65 433.13 437.65 428.91 437.65 424.69 437.65 420.48 437.64 416.26 437.64 412.04 437.64 407.82 437.64 403.61 437.64 399.39 437.64 395.17 437.64 390.95 437.64 386.74 437.64 382.52 437.63 378.3 437.63 374.08 437.63 369.87 437.63 365.65 437.63 361.43 437.63 357.21 437.63 353 437.63 348.78 437.63 344.56 437.63 340.34 437.63 336.13 437.64 331.91 437.64 327.69 437.64 323.47 437.64 319.26 437.64 315.04 437.64 310.82 437.64 306.6 437.64 302.38 437.64 298.17 437.65 293.95 437.65 289.73 437.65 285.51 437.65 281.3 437.65 277.08 437.66 272.86 437.66 268.64 437.66 264.43 437.66 260.21 437.67 255.99 437.67 251.77 437.67 247.55 437.67 243.34 437.68 239.12 437.68 234.9 437.68 230.68 437.69 226.46 437.69 222.25 437.7 218.03 437.7 213.81 437.7 209.59 437.71 205.37 437.71 201.16 437.72 196.94 437.72 192.72 437.73 188.5 437.74 184.29 437.74 180.07 437.75 175.85 437.75 171.63 437.76 167.42 437.77 163.2 437.77 158.98 437.78 154.77 437.79 150.55 437.8 146.33 437.81 142.12 437.81 137.9 437.82 133.69 437.83 129.47 437.84 125.26 437.85 121.05 437.86 116.83 437.87 112.62 437.89 108.41 437.9 104.2 437.91 99.99 437.92 95.78 437.94 91.58 437.95 87.37 437.97 83.17 437.98 78.97 438 74.77 437.03 73.85 436.05 72.94 435.08 72.03 434.1 71.13 433.13 70.23 432.15 69.33 431.18 68.44 430.2 67.55 429.23 66.67 428.25 65.79 427.28 64.92 426.31 64.06 425.33 63.21 424.36 62.36 423.4 61.53 422.43 60.71 422.44 57.39 422.46 54.07 422.47 50.75 422.48 47.44 422.49 44.12 422.51 40.8 422.52 37.49 422.54 34.17 422.55 30.86 422.56 27.55 422.58 24.24 422.59 20.93 422.61 17.63 422.63 14.34 422.65 11.06 422.68 7.82 423.66 8.03 424.64 8.24 425.62 8.45 426.61 8.66 427.58 8.89 428.56 9.11 429.54 9.34 430.52 9.56 431.49 9.79 432.47 10.03 433.44 10.27 434.42 10.51 435.39 10.75 436.36 10.99 437.34 11.24 438.31 11.49 439.28 11.75 440.25 12.01 441.22 12.26 442.19 12.52 443.16 12.79 444.12 13.06 445.09 13.33 446.05 13.6 447.02 13.87 447.98 14.15 448.94 14.44 449.91 14.72 450.87 15.01 451.83 15.3 452.79 15.59 453.75 15.89 454.7 16.19 455.66 16.49 456.62 16.79 457.58 17.09 458.53 17.4 459.48 17.72 460.43 18.04 461.39 18.35 462.34 18.67 463.29 18.99 464.24 19.32 465.18 19.65 466.13 19.98 467.08 20.32 468.02 20.65 468.97 20.99 469.91 21.33 470.85 21.68 471.79 22.03 472.73 22.38 473.67 22.72 474.61 23.08 475.55 23.45 476.48 23.81 477.42 24.17 478.35 24.53 479.28 24.9 480.21 25.28 481.14 25.65 482.07 26.03 483 26.41 483.93 26.79 484.04 30.78 484.15 34.79 484.26 38.79 484.36 42.8 484.47 46.81 484.57 50.82 484.68 54.83 484.78 58.85 484.32 60.03 483.86 61.2 483.39 62.37 482.91 63.53 482.44 64.69 481.96 65.84 481.47 66.99 480.98 68.13 480.49 69.27 479.99 70.39 479.5 71.52 478.99 72.64 478.48 73.75 477.97 74.86 477.46 75.97 476.93 77.06 476.41 78.16 475.88 79.24 475.35 80.32 474.82 81.4 474.28 82.47 473.73 83.53 473.19 84.6 472.63 85.65 472.08 86.7 471.52 87.75 470.96 88.79 470.39 89.82 469.82 90.86 469.24 91.88 468.67 92.9 468.08 93.92 468.08 93.92 468.08 93.92 468.05 97.43 468.03 100.94 468 104.45 467.97 107.96 467.95 111.47 467.92 114.98 467.9 118.49 467.87 122 467.85 125.51 467.83 129.02 467.8 132.53 467.78 136.04 467.76 139.55 467.74 143.06 467.72 146.56 467.7 150.07 467.68 153.58 467.66 157.09 467.64 160.6 467.62 164.11 467.6 167.61 467.58 171.12 467.56 174.63 467.55 178.14 467.53 181.64 467.52 185.15 467.5 188.66 467.49 192.16 467.47 195.67 467.46 199.17 467.44 202.68 467.43 206.18 467.42 209.69 467.4 213.19 467.39 216.7 467.38 220.2 467.37 223.7 467.36 227.21 467.35 230.71 467.33 234.21 467.32 237.72 467.31 241.22 467.31 244.72 467.3 248.22 467.29 251.73 467.28 255.23 467.27 258.73 467.26 262.23 467.26 265.73 467.25 269.23 467.24 272.74 467.24 276.24 467.23 279.74 467.22 283.24 467.22 286.74 467.21 290.24 467.21 293.74 467.2 297.24 467.2 300.74 467.19 304.24 467.19 307.74 467.19 311.24 467.18 314.74 467.18 318.24 467.52 316.41 467.85 314.58 468.19 312.76 468.52 310.94 468.86 309.12 469.19 307.3 469.53 305.48 469.86 303.66 470.2 301.85 470.53 300.04 470.87 298.22 471.2 296.42 471.54 294.61 471.87 292.8 472.21 291 472.55 289.2 472.88 287.4 473.22 285.6 473.55 283.8 473.89 282.01 474.22 280.22 474.56 278.43 474.9 276.64 475.23 274.85 475.57 273.06 475.9 271.28 476.24 269.5 476.58 267.72 476.91 265.94 477.25 264.16 477.59 262.39 477.92 260.62 478.26 258.85 478.6 257.08 478.93 255.31 479.27 253.54 479.61 251.78 479.94 250.02 480.28 248.26 480.62 246.5 480.95 244.74 481.29 242.99 481.63 241.24 481.96 239.49 482.3 237.74 482.64 235.99 482.98 234.24 483.31 232.5 483.65 230.76 483.99 229.02 484.32 227.28 484.66 225.54 485 223.81 485.34 222.08 485.67 220.34 486.01 218.61 486.35 216.89 486.69 215.16 487.03 213.44 487.36 211.71 487.7 209.99 488.04 208.28 488.38 206.56 488.72 204.84 489.05 203.13 489.39 201.42 489.73 199.71 490.07 198 490.41 196.29 490.75 194.59 491.08 192.88 491.42 191.18 491.76 189.48 492.1 187.78 492.44 186.09 492.78 184.39 493.12 182.7 493.45 181.01 493.79 179.31 494.13 177.63 494.47 175.94 494.81 174.25 495.15 172.57 495.49 170.89 495.83 169.21 496.16 167.53 496.5 165.85 496.84 164.17 497.18 162.5 497.52 160.83 497.86 159.15 498.2 157.48 498.54 155.82 498.88 154.15 499.22 152.48 499.56 150.82 499.89 149.16 500.23 147.5 500.57 145.84 500.91 144.18 501.25 142.52 501.59 140.87 501.93 139.21 502.27 137.56 502.61 135.91 502.95 134.26 503.29 132.61 503.62 130.96 503.96 129.32 504.3 127.67 504.64 126.03 504.98 124.39 505.32 122.74 505.66 121.1 506 119.47 506.34 117.83 506.68 116.19 507.01 114.56 507.35 112.93 507.69 111.29 508.03 109.66 508.37 108.03 508.71 106.4 509.05 104.77 509.39 103.15 509.72 101.52 510.06 99.9 510.4 98.27 509.64 97.32 508.88 96.37 508.12 95.42 507.36 94.47 506.59 93.52 505.83 92.57 505.06 91.62 504.3 90.68 503.53 89.73 502.76 88.78 501.99 87.83 501.23 86.89 500.46 85.94 499.68 85 498.91 84.05 498.14 83.11 498.18 80 498.23 76.9 498.27 73.79 498.32 70.68 498.36 67.57 498.41 64.47 498.45 61.36 498.5 58.25 498.54 55.14 498.59 52.03 498.63 48.92 498.68 45.81 498.72 42.7 498.76 39.59 498.81 36.49 498.85 33.38 499.58 33.73 500.31 34.08 501.04 34.43 501.77 34.78 502.5 35.13 503.23 35.48 503.96 35.84 504.68 36.2 505.41 36.56 506.13 36.92 506.86 37.28 507.58 37.65 508.31 38.01 509.03 38.37 509.75 38.75 510.47 39.12 511.18 39.5 511.9 39.87 512.62 40.24 513.34 40.62 514.06 40.99 514.77 41.38 515.48 41.76 516.19 42.15 516.91 42.54 517.62 42.92 518.33 43.31 519.04 43.7 519.75 44.09 520.45 44.49 521.16 44.89 521.87 45.28 522.57 45.68 523.28 46.08 523.98 46.48 524.68 46.89 525.38 47.29 526.08 47.7 526.78 48.11 527.48 48.52 528.18 48.92 528.87 49.34 529.57 49.76 530.26 50.18 530.95 50.6 531.65 51.02 532.34 51.43 533.03 51.85 533.72 52.28 534.41 52.71 535.09 53.14 535.78 53.57 536.47 54 537.15 54.43 537.84 54.86 538.52 55.3 539.2 55.74 539.88 56.18 540.56 56.62 541.24 57.06 541.92 57.5 542.59 57.95 543.26 58.4 543.94 58.85 544.03 62.7 544.13 66.53 544.22 70.33 544.33 74.1 544.43 77.85 544.53 81.58 544.64 85.28 544.75 88.97 544.28 90.3 543.7 91.7 543.11 93.1 542.41 94.57 541.71 96.04 540.89 97.59 540.48 98.36 540.04 99.15 539.6 99.95 539.14 100.76 538.67 101.57 538.17 102.4 537.67 103.24 537.14 104.09 536.62 104.94 536.06 105.81 535.5 106.69 534.91 107.58 534.33 108.48 533.71 109.4 533.09 110.32 532.44 111.26 531.79 112.2 531.11 113.16 530.44 114.13 529.73 115.12 529.73 115.12 529.73 115.12 529.18 117.73 528.62 120.34 528.07 122.95 527.52 125.57 526.97 128.19 526.42 130.82 525.87 133.45 525.31 136.08 524.76 138.72 524.21 141.36 523.65 144 523.1 146.65 522.54 149.31 521.99 151.96 521.43 154.62 520.88 157.29 520.32 159.96 519.77 162.63 519.21 165.31 518.65 167.99 518.1 170.68 517.54 173.37 516.98 176.06 516.42 178.76 515.87 181.46 515.31 184.17 514.75 186.89 514.19 189.6 513.63 192.33 513.07 195.05 512.52 197.78 511.96 200.52 511.4 203.26 510.84 206.01 510.28 208.76 509.72 211.52 509.16 214.28 508.6 217.04 508.04 219.81 507.48 222.59 506.92 225.37 506.36 228.16 505.8 230.95 505.24 233.75 504.68 236.55 504.12 239.35 503.56 242.17 503 244.98 502.44 247.81 501.88 250.64 501.32 253.47 500.76 256.31 500.2 259.15 499.64 262 499.08 264.86 498.52 267.72 497.96 270.59 497.4 273.46 496.84 276.34 496.28 279.22 495.72 282.11 495.15 285 494.59 287.9 494.03 290.81 494.39 293.31 494.75 295.81 495.11 298.3 495.47 300.8 495.83 303.28 496.19 305.77 496.55 308.25 496.9 310.73 497.26 313.2 497.62 315.68 497.98 318.14 498.34 320.61 498.7 323.07 499.06 325.53 499.42 327.98 499.78 330.44 500.14 332.88 500.5 335.33 500.86 337.77 501.22 340.21 501.58 342.64 501.94 345.08 502.3 347.5 502.66 349.93 503.03 352.35 503.39 354.77 503.75 357.19 504.11 359.6 504.47 362.01 504.83 364.41 505.19 366.81 505.55 369.21 505.91 371.61 506.28 374 506.64 376.39 507 378.78 507.36 381.16 507.72 383.54 508.08 385.92 508.45 388.29 508.81 390.66 509.17 393.03 509.53 395.39 509.89 397.75 510.26 400.11 510.62 402.47 510.98 404.82 511.34 407.17 511.7 409.51 512.07 411.86 512.43 414.2 512.79 416.53 513.15 418.87 513.52 421.2 513.88 423.53 514.24 425.85 514.6 428.17 514.97 430.49 515.33 432.81 515.69 435.12 516.05 437.44 516.42 439.74 516.78 442.05 517.14 444.35 517.5 446.65 517.86 448.95 518.23 451.24 518.59 453.54 518.95 455.82 519.31 458.11 519.68 460.39 520.04 462.68 520.4 464.95 520.76 467.23 521.12 469.5 521.49 471.77 521.85 474.04 522.21 476.31 522.57 478.57 522.93 480.83 523.3 483.09 523.66 485.34 524.02 487.6 524.38 489.85 524.74 492.09 525.1 494.34 525.46 496.58 525.82 498.82 526.19 501.06 526.55 503.3 526.91 505.53 527.27 507.76 527.63 509.99 527.99 512.22 528.35 514.45 528.71 516.67 529.07 518.89 529.43 521.11 529.79 523.32 530.15 525.53 530.51 527.75 530.87 529.95 531.23 532.16 531.58 534.37 531.94 536.57 532.3 538.77 532.66 540.97 533.02 543.16 533.38 545.36 533.73 547.55 534.09 549.74 534.45 551.93 534.81 554.11 535.16 556.3 535.52 558.48 535.88 560.66 536.23 562.84 536.59 565.01 536.94 567.19 537.3 569.36 537.65 571.53 538.01 573.7 538.36 575.87 538.72 578.03 539.07 580.19 539.43 582.35 539.78 584.51 540.13 586.67 540.13 586.67 540.13 586.67M697.79 388.88Q697.79 388.88 697.79 388.88 697.71 389.55 697.65 390.21 697.59 390.87 697.54 391.52 697.43 392.2 697.29 392.87 697.16 393.55 697.01 394.22 696.85 394.9 696.68 395.58 696.5 396.26 696.31 396.94 696.11 397.62 695.9 398.31 695.69 398.99 695.46 399.68 695.23 400.38 694.98 401.07 694.73 401.77 694.47 402.48 694.2 403.19 693.91 403.9 693.63 404.62 693.33 405.34 693.03 406.07 692.71 406.8 692.39 407.54 692.05 408.29 691.72 409.04 691.37 409.81 691.02 410.58 690.66 411.36 690.29 412.14 689.91 412.94 689.54 413.75 689.15 414.58 688.76 415.41 688.36 416.25 687.96 417.11 687.54 417.99 687.13 418.87 686.71 419.78 686.29 420.7 685.87 421.64 685.44 422.6 685.01 423.58 684.58 424.58 684.14 425.6 683.71 426.64 683.27 427.71 682.83 428.8 682.39 429.91 681.96 431.05 681.52 432.23 681.08 433.42 680.64 434.65 680.21 435.9 679.78 437.19 679.35 438.5 678.92 439.85 678.49 441.23 678.07 442.64 677.64 444.07 677.22 445.54 676.8 447.03 676.38 448.54 675.97 450.08 675.56 451.62 675.15 453.18 674.74 454.76 674.34 456.35 673.93 457.95 673.52 459.57 673.12 461.2 672.71 462.83 672.3 464.48 671.89 466.13 671.47 467.79 671.05 469.45 670.63 471.12 670.2 472.79 669.77 474.47 669.33 476.15 668.88 477.83 668.44 479.51 667.98 481.19 667.51 482.87 667.04 484.55 666.56 486.23 666.07 487.9 665.58 489.58 665.07 491.24 664.56 492.91 664.03 494.57 663.51 496.23 662.96 497.88 662.41 499.53 661.85 501.16 661.28 502.8 660.7 504.43 660.11 506.05 659.5 507.66 658.89 509.27 658.27 510.87 657.63 512.46 656.99 514.04 656.33 515.62 655.66 517.18 654.99 518.74 654.29 520.28 653.6 521.83 652.88 523.35 652.16 524.87 651.42 526.38 650.67 527.88 649.91 529.36 649.14 530.85 648.36 532.31 647.56 533.77 646.75 535.21 645.94 536.65 645.1 538.07 644.26 539.48 643.4 540.87 642.53 542.14 641.64 543.44 640.74 544.75 639.84 546.09 639.84 546.09 639.84 546.09 638.84 547.55 637.83 549.05 636.83 550.55 635.79 552.04 634.74 553.42 633.67 554.78 632.59 556.13 631.48 557.44 630.38 558.75 629.24 560.03 628.1 561.3 626.94 562.54 625.76 563.77 624.56 564.96 623.36 566.15 622.13 567.3 620.89 568.44 619.63 569.55 618.36 570.65 617.06 571.71 615.76 572.76 614.43 573.77 613.09 574.77 611.73 575.73 610.36 576.68 608.97 577.59 607.56 578.49 606.13 579.34 604.7 580.18 603.24 580.98 601.77 581.76 600.27 582.5 598.77 583.22 597.3 583.86 595.81 584.49 594.35 585.04 592.89 585.57 591.45 586.03 590.01 586.46 588.59 586.82 587.17 587.16 585.79 587.42 584.4 587.65 583.04 587.81 581.69 587.94 580.37 587.98 579.05 588 577.77 587.93 576.5 587.83 575.26 587.64 574.03 587.42 572.85 587.1 571.67 586.75 570.54 586.3 569.42 585.82 568.34 585.25 567.27 584.63 566.24 583.93 565.23 583.2 564.25 582.37 563.29 581.52 562.36 580.58 561.44 579.62 560.56 578.59 560.56 578.59 560.56 578.59 560.52 575.8 560.49 573.01 560.45 570.22 560.41 567.44 560.37 564.65 560.33 561.86 560.29 559.07 560.26 556.28 560.26 554.2 560.26 552.12 560.27 550.05 560.28 547.98 560.29 545.9 560.31 543.84 560.32 541.77 560.34 539.71 560.36 537.65 560.39 535.59 560.41 533.53 560.44 531.48 560.47 529.42 560.51 527.38 560.54 525.33 560.58 523.28 560.62 521.24 560.67 519.2 560.71 517.17 560.76 515.13 560.81 513.1 560.86 511.07 560.91 509.04 560.97 507.02 561.02 505 561.09 502.98 561.15 500.97 561.21 498.95 561.35 494.93 561.5 490.93 561.65 486.94 561.82 482.96 561.99 478.99 562.18 475.04 562.37 471.09 562.57 467.16 562.78 463.24 563 459.35 563.23 455.45 563.47 451.58 563.72 447.72 563.98 443.88 564.24 440.04 564.52 436.24 564.8 432.43 565.1 428.66 565.1 428.66 565.1 428.66 566.46 428.37 567.81 428.08 569.17 427.77 570.52 427.46 571.88 427.14 573.24 426.81 574.59 426.46 575.94 426.11 577.3 425.75 578.65 425.38 580 425 581.35 424.61 582.7 424.21 584.05 423.81 585.4 423.39 586.75 422.97 587.22 426.02 587.7 429.05 588.18 432.06 588.66 435.07 589.15 438.06 589.63 441.03 590.12 443.99 590.61 446.93 591.11 449.86 591.6 452.77 592.1 455.67 592.6 458.55 593.11 461.42 593.62 464.27 594.13 467.1 594.65 469.92 595.17 472.73 595.69 475.51 596.22 478.28 596.76 481.04 597.29 483.78 597.84 486.5 598.39 489.2 598.94 491.89 599.5 494.56 600.07 497.21 600.64 499.84 601.22 502.46 601.81 505.06 602.41 507.65 603.01 510.21 603.62 512.76 604.89 512.9 606.18 512.93 607.47 512.93 608.78 512.81 610.08 512.67 611.4 512.41 612.71 512.14 614.04 511.75 615.36 511.34 616.7 510.81 618.03 510.27 619.37 509.62 620.7 508.95 622.04 508.17 623.38 507.37 624.72 506.47 626.06 505.55 627.4 504.53 628.74 503.49 630.08 502.35 631.41 501.19 632.74 499.93 634.07 498.66 635.4 497.29 636.72 495.9 638.05 494.42 639.36 492.93 640.68 491.34 641.98 489.74 643.29 488.05 643.94 487.2 644.59 486.33 645.23 485.46 645.88 484.56 645.88 484.56 645.88 484.56 646.68 482.48 647.42 480.43 648.15 478.39 648.83 476.37 649.5 474.36 650.12 472.38 650.74 470.41 651.3 468.47 651.86 466.54 652.36 464.64 652.87 462.76 653.33 460.9 653.79 459.06 654.19 457.24 654.6 455.45 654.96 453.68 655.32 451.92 655.63 450.19 655.95 448.47 656.21 446.78 656.47 445.11 656.69 443.45 656.91 441.81 657.08 440.19 657.25 438.58 657.37 436.98 657.49 435.4 657.57 433.83 657.64 432.26 657.66 430.71 657.69 429.16 657.66 427.62 657.66 427.62 657.66 427.62 657.64 426.22 657.55 424.9 657.46 423.59 657.31 422.36 657.16 421.13 656.95 419.99 656.74 418.84 656.46 417.76 656.17 416.68 655.83 415.68 655.48 414.66 655.06 413.71 654.65 412.76 654.16 411.87 653.67 410.97 653.12 410.13 652.56 409.27 651.94 408.48 651.31 407.67 650.61 406.92 649.91 406.15 649.14 405.44 648.37 404.7 647.53 404.02 646.68 403.32 645.77 402.66 644.85 401.99 643.86 401.36 642.87 400.71 641.81 400.1 640.74 399.47 639.6 398.88 639.6 398.88 639.6 398.88 638.95 398.58 638.29 398.28 637.63 397.96 636.97 397.65 636.31 397.32 635.65 396.98 634.99 396.64 634.33 396.29 633.66 395.93 633 395.56 632.33 395.19 631.67 394.81 631 394.41 630.34 394.02 629.67 393.61 629 393.19 628.33 392.77 627.67 392.34 627 391.9 626.33 391.46 625.65 391 624.98 390.54 624.31 390.07 623.64 389.59 622.97 389.1 622.29 388.61 621.62 388.1 620.94 387.59 620.27 387.07 619.59 386.54 618.92 386.01 618.24 385.47 617.56 384.91 616.88 384.35 616.2 383.79 615.53 383.21 614.85 382.63 614.17 382.04 613.49 381.44 612.81 380.83 612.12 380.22 611.44 379.6 610.76 378.97 610.08 378.33 609.4 377.68 608.71 377.03 608.03 376.37 607.34 375.7 606.66 375.03 605.97 374.34 605.29 373.65 604.6 372.95 603.92 372.25 603.23 371.54 602.54 370.82 601.86 370.09 601.17 369.35 600.48 368.61 599.79 367.86 599.1 367.11 598.41 366.35 597.72 365.58 597.03 364.8 596.34 364.02 595.25 362.59 594.18 361.13 593.12 359.64 592.09 358.11 591.06 356.57 590.06 354.98 589.06 353.37 588.1 351.73 587.14 350.07 586.21 348.37 585.27 346.66 584.38 344.91 583.48 343.15 582.62 341.35 581.75 339.53 580.92 337.69 580.09 335.83 579.3 333.93 578.5 332.02 577.74 330.08 576.98 328.13 576.25 326.15 575.52 324.16 574.83 322.14 574.14 320.1 573.48 318.04 572.82 315.97 572.19 313.87 571.57 311.76 570.98 309.62 570.39 307.48 569.83 305.31 569.27 303.13 568.75 300.92 568.23 298.71 567.74 296.47 567.25 294.22 566.8 291.95 566.35 289.68 565.93 287.38 565.51 285.07 565.12 282.74 564.74 280.41 564.39 278.05 564.04 275.69 563.73 273.31 563.41 270.92 563.13 268.51 562.85 266.1 562.61 263.66 562.36 261.23 562.15 258.77 561.94 256.31 561.76 253.83 561.59 251.35 561.45 248.84 561.31 246.34 561.2 243.82 561.1 241.29 561.03 238.75 560.96 236.21 560.92 233.65 560.89 231.09 560.89 228.51 560.89 228.51 560.89 228.51 560.89 226.33 560.91 224.19 560.93 222.04 560.98 219.93 561.02 217.82 561.08 215.74 561.15 213.66 561.24 211.61 561.32 209.57 561.43 207.56 561.54 205.55 561.67 203.57 561.8 201.6 561.96 199.66 562.11 197.72 562.29 195.82 562.46 193.91 562.66 192.05 562.86 190.19 563.08 188.36 563.52 184.71 564.06 181.21 564.59 177.72 565.22 174.39 565.85 171.08 566.58 167.92 567.31 164.79 568.14 161.82 568.56 160.35 569 158.92 569.44 157.49 569.91 156.12 570.38 154.75 570.87 153.42 571.37 152.11 571.9 150.84 572.42 149.58 572.98 148.37 573.53 147.18 574.12 146.03 574.71 144.89 575.32 143.81 575.94 142.74 576.59 141.72 577.24 140.71 577.91 139.76 578.6 138.82 579.31 137.94 580.02 137.07 580.77 136.26 581.52 135.46 582.29 134.72 583.07 134 583.88 133.33 584.7 132.68 585.54 132.09 586.38 131.51 587.24 130.99 588.11 130.49 588.99 130.06 589.87 129.64 590.76 129.28 591.66 128.93 592.57 128.65 593.48 128.38 594.41 128.17 595.33 127.97 596.27 127.84 597.21 127.71 598.16 127.64 599.1 127.59 600.06 127.59 601.02 127.61 601.98 127.68 602.95 127.76 603.92 127.9 604.89 128.05 605.87 128.26 606.84 128.48 607.82 128.75 608.8 129.03 609.79 129.37 610.77 129.71 611.76 130.12 612.74 130.53 613.73 130.99 614.72 131.47 615.71 132 616.7 132.53 617.69 133.13 618.68 133.73 619.67 134.38 620.66 135.04 621.65 135.76 622.64 136.48 623.63 137.26 624.61 138.04 625.6 138.88 626.58 139.72 627.56 140.62 628.54 141.53 629.53 142.49 630.5 143.45 631.48 144.47 632.45 145.49 633.43 146.57 634.4 147.66 635.37 148.79 636.33 149.93 637.3 151.13 638.26 152.33 639.22 153.58 640.17 154.85 641.12 156.16 642.08 157.47 643.02 158.84 643.96 160.22 644.91 161.64 645.84 163.07 646.77 164.56 646.77 164.56 646.77 164.56 647.6 165.88 648.42 167.21 649.22 168.56 650.01 169.93 650.81 171.29 651.6 172.68 652.37 174.08 653.14 175.5 653.91 176.91 654.66 178.36 655.41 179.8 656.15 181.27 656.89 182.73 657.61 184.23 658.33 185.72 659.04 187.23 659.75 188.75 660.44 190.28 661.13 191.82 661.81 193.38 662.49 194.94 663.15 196.53 663.81 198.11 664.47 199.71 665.11 201.32 665.75 202.94 666.38 204.57 667 206.21 667.61 207.86 668.22 209.52 668.82 211.19 669.41 212.87 670 214.55 670.58 216.25 671.15 217.95 671.72 219.67 672.28 221.39 672.83 223.12 673.37 224.85 673.91 226.6 674.44 228.34 674.97 230.1 675.49 231.85 676 233.62 676.52 235.38 677.02 237.16 677.52 238.93 678.02 240.71 678.51 242.48 679.01 244.25 679.5 246.02 679.98 247.79 680.47 249.55 680.96 251.3 681.45 253.05 681.94 254.78 682.44 256.5 682.94 258.2 683.45 259.87 683.97 261.53 684.5 263.15 685.04 264.75 685.6 266.3 686.18 267.82 686.18 267.82 686.18 267.82 686.23 268.84 686.29 269.84 686.36 270.81 686.42 271.76 686.49 272.7 686.56 273.62 686.63 274.53 686.7 275.42 686.77 276.31 686.84 277.18 686.91 278.04 686.98 278.89 687.04 279.73 687.1 280.56 687.17 281.39 687.22 282.21 687.28 283.02 687.33 283.82 687.38 284.62 687.43 285.41 687.47 286.2 687.51 286.97 687.55 287.75 687.59 288.51 687.62 289.28 687.64 290.03 687.67 290.79 687.69 291.53 687.71 292.28 687.72 293.01 687.73 293.75 687.74 294.47 687.74 295.2 687.74 295.91 687.73 296.63 687.72 297.34 687.71 298.04 687.7 298.74 687.68 299.44 687.66 300.13 687.63 300.83 687.6 301.51 687.57 302.19 687.53 302.87 687.49 303.55 687.44 304.21 687.39 304.88 687.34 305.55 687.29 306.21 687.22 306.86 687.16 307.52 687.09 308.17 687.02 308.82 686.95 309.46 686.87 310.1 686.79 310.73 686.71 311.37 686.62 312 686.53 312.63 686.43 313.25 686.23 314.5 686.01 315.72 686.01 315.72 686.01 315.72 684.65 315.04 683.29 314.35 681.93 313.64 680.57 312.91 679.21 312.17 677.86 311.41 676.51 310.64 675.16 309.86 673.81 309.06 672.47 308.25 671.12 307.43 669.78 306.6 668.44 305.75 667.1 304.9 665.75 304.03 664.41 303.16 664.17 301.66 663.93 300.16 663.7 298.64 663.46 297.11 663.23 295.57 663 294.02 662.77 292.46 662.54 290.88 662.32 289.3 662.1 287.7 661.88 286.09 661.67 284.47 661.46 282.84 661.25 281.19 661.05 279.53 660.85 277.86 660.65 276.18 660.46 274.48 660.27 272.77 660.09 271.05 659.91 269.31 659.73 267.56 659.57 265.79 659.4 264.01 659.24 262.22 659.09 260.41 658.94 258.59 658.8 256.75 658.67 254.89 658.54 253.02 658.42 251.14 658.3 249.23 657.48 247.14 656.63 245.05 655.79 242.94 654.91 240.84 654.04 238.73 653.13 236.63 652.23 234.51 651.29 232.41 650.35 230.3 649.38 228.21 648.41 226.11 647.4 224.03 646.38 221.95 645.33 219.89 644.27 217.83 643.18 215.8 642.08 213.77 640.94 211.76 639.79 209.76 638.6 207.8 637.4 205.83 636.17 203.91 634.92 201.98 633.63 200.1 632.33 198.23 630.99 196.4 629.64 194.58 628.24 192.8 626.83 191.04 625.38 189.33 624.65 188.47 623.91 187.64 623.17 186.8 622.42 185.98 622.42 185.98 622.42 185.98 621.46 186.14 620.55 186.43 619.64 186.73 618.78 187.15 617.92 187.59 617.1 188.16 616.29 188.74 615.54 189.45 614.78 190.16 614.07 191.01 613.37 191.86 612.72 192.84 612.07 193.83 611.48 194.93 610.89 196.05 610.35 197.29 609.81 198.54 609.33 199.91 608.85 201.29 608.43 202.78 608.01 204.28 607.65 205.89 607.29 207.52 606.98 209.25 606.68 210.99 606.43 212.84 606.18 214.69 605.99 216.65 605.8 218.62 605.67 220.69 605.54 222.76 605.46 224.93 605.46 224.93 605.46 224.93 605.38 227.44 605.42 229.98 605.47 232.52 605.65 235.09 605.83 237.65 606.13 240.24 606.44 242.81 606.87 245.4 607.31 247.98 607.87 250.57 608.42 253.14 609.11 255.72 609.79 258.29 610.59 260.85 611.4 263.4 612.33 265.94 613.25 268.46 614.42 271.23 615.01 272.61 615.65 274.04 616.3 275.46 617 276.94 617.71 278.41 618.48 279.94 619.24 281.45 620.07 283.02 620.89 284.57 621.78 286.17 622.66 287.76 623.61 289.4 624.55 291.02 625.55 292.68 626.55 294.32 627.61 296.01 628.67 297.67 629.79 299.37 630.91 301.05 632.09 302.77 633.26 304.46 634.5 306.17 635.11 307.02 635.74 307.88 636.37 308.73 637.02 309.58 637.67 310.43 638.33 311.28 638.99 312.13 639.66 312.98 640.34 313.82 641.03 314.66 641.71 315.5 642.42 316.34 643.12 317.18 643.81 317.99 644.51 318.8 645.19 319.59 645.87 320.37 646.54 321.13 647.2 321.89 647.86 322.63 648.52 323.36 649.16 324.07 649.81 324.78 650.44 325.47 651.08 326.16 651.7 326.83 652.32 327.49 652.93 328.14 654.15 329.41 655.33 330.62 656.51 331.81 657.64 332.95 658.77 334.06 659.86 335.11 660.94 336.15 661.98 337.14 663.02 338.11 664.02 339.03 665.01 339.93 665.96 340.79 666.92 341.64 667.82 342.44 668.72 343.23 669.58 343.98 670.44 344.72 671.25 345.43 672.07 346.12 672.83 346.78 673.6 347.43 674.32 348.05 675.04 348.66 675.71 349.24 676.39 349.82 677.05 350.39 677.7 350.96 678.35 351.54 678.99 352.1 679.61 352.68 680.24 353.24 680.85 353.81 681.46 354.37 682.05 354.93 682.64 355.49 683.22 356.05 683.8 356.61 684.35 357.17 684.91 357.72 685.46 358.29 686 358.84 686.52 359.4 687.05 359.95 687.55 360.51 688.06 361.07 688.55 361.63 689.04 362.18 689.51 362.74 689.98 363.3 690.44 363.86 690.89 364.42 691.32 364.98 691.76 365.54 692.17 366.11 692.59 366.68 692.98 367.25 693.38 367.81 693.75 368.39 694.11 368.97 694.45 369.56 694.79 370.15 695.1 370.75 695.4 371.34 695.68 371.96 695.96 372.56 696.2 373.19 696.45 373.81 696.66 374.45 696.88 375.08 697.07 375.73 697.25 376.38 697.41 377.05 697.56 377.71 697.69 378.39 697.81 379.07 697.9 379.77 697.99 380.47 698.06 381.18 698.12 381.9 698.16 382.63 698.19 383.37 698.19 384.12 698.19 384.87 698.16 385.65 698.1 386.43 697.99 387.24 697.88 388.06 697.79 388.88 697.79 388.88 697.79 388.88" class="warpedPath currentActivePath"></path></svg>