<svg id="warpedSvg0" xmlns="http://www.w3.org/2000/svg" data-id="0" data-media-id="Wl7rpfMJIbu" class="mw-100 mh-100" style="visibility: visible" viewBox="18.81999969482422 235.125 992.3499755859375 526.405029296875" width="997.3499755859375px" height="531.405029296875px">
        <defs>
            <linearGradient id="sampleGradient" gradientTransform="rotate(1)" x1="0%" y1="50%" x2="100%" y2="50%" gradientUnits="userSpaceOnUse">
                <stop offset="0%" id="first_color" stop-color="#6b6fff"></stop>
                <stop offset="100%" id="second_color" stop-color="#bc91c1"></stop>
            </linearGradient>
            <filter id="contrast0">
                <feComponentTransfer>
                    <feFuncR type="linear" slope="1"></feFuncR>
                    <feFuncG type="linear" slope="1"></feFuncG>
                    <feFuncB type="linear" slope="1"></feFuncB>
                </feComponentTransfer>
            </filter>
            <filter id="contrast1">
                <feComponentTransfer>
                    <feFuncR type="linear" slope="1"></feFuncR>
                    <feFuncG type="linear" slope="1"></feFuncG>
                    <feFuncB type="linear" slope="1"></feFuncB>
                </feComponentTransfer>
            </filter>
        </defs>
    <path fill="#be816c" d="M205.19 311.22Q205.1 312.41 205.05 313.55 205 314.69 204.98 315.78 204.84 316.91 204.67 318.01 204.5 319.12 204.31 320.19 203.92 322.35 203.42 324.39 202.93 326.43 202.32 328.35 202.32 328.35 202.32 328.35 200.53 329 198.74 329.66 196.96 330.32 195.19 331 193.43 331.67 191.66 332.36 189.9 333.05 188.15 333.75 186.4 334.45 184.65 335.16 182.9 335.88 181.15 336.6 179.41 337.33 177.67 338.07 175.93 338.81 174.19 339.56 172.45 340.31 170.72 341.07 168.98 341.84 167.25 342.6 165.52 343.38 163.79 344.16 162.07 344.95 160.34 345.74 158.62 346.53 156.9 347.34 155.18 348.14 153.46 348.95 151.74 349.77 150.03 350.59 148.31 351.42 146.6 352.25 146.87 353.55 147.01 355.09 147.14 356.64 147.14 358.42 147.14 359.31 147.1 360.26 147.07 361.21 147 362.22 146.93 363.23 146.83 364.3 146.73 365.37 146.59 366.49 146.59 366.49 146.59 366.49 146.46 367.57 146.3 368.63 146.14 369.68 145.96 370.71 145.78 371.74 145.57 372.74 145.37 373.75 145.13 374.73 144.67 376.68 144.1 378.54 143.53 380.4 142.85 382.15 142.85 382.15 142.85 382.15 143.16 383.45 143.32 384.97 143.5 386.5 143.53 388.26 143.55 389.14 143.53 390.08 143.51 391.02 143.46 392.01 143.41 393.01 143.32 394.06 143.24 395.11 143.12 396.22 143.12 396.22 143.12 396.22 143 397.28 142.86 398.32 142.72 399.35 142.55 400.37 142.38 401.38 142.18 402.37 141.99 403.35 141.76 404.31 141.31 406.23 140.75 408.05 140.19 409.86 139.51 411.57 139.51 411.57 139.51 411.57 139.88 412.89 140.11 414.44 140.34 415.99 140.43 417.77 140.47 418.65 140.48 419.6 140.49 420.54 140.47 421.54 140.44 422.54 140.38 423.59 140.32 424.65 140.22 425.75 140.22 425.75 140.22 425.75 140.13 426.82 140.01 427.85 139.89 428.89 139.74 429.9 139.59 430.91 139.41 431.89 139.24 432.87 139.03 433.82 138.61 435.73 138.07 437.52 137.53 439.31 136.86 440.99 136.86 440.99 136.86 440.99 137.29 442.36 137.58 443.94 137.87 445.53 138.02 447.33 138.1 448.24 138.13 449.19 138.17 450.15 138.17 451.16 138.18 452.17 138.15 453.23 138.11 454.29 138.04 455.41 138.04 455.41 138.04 455.41 137.98 456.48 137.88 457.51 137.79 458.55 137.66 459.56 137.53 460.58 137.37 461.56 137.21 462.54 137.02 463.49 136.64 465.39 136.13 467.17 135.62 468.95 134.97 470.61 134.97 470.61 134.97 470.61 135.46 472.03 135.8 473.65 136.14 475.27 136.34 477.1 136.44 478.02 136.5 478.99 136.57 479.96 136.59 480.98 136.62 482 136.61 483.07 136.6 484.14 136.55 485.26 136.55 485.26 136.55 485.26 136.51 486.34 136.43 487.38 136.36 488.43 136.25 489.44 136.14 490.45 136 491.43 135.85 492.41 135.68 493.36 135.32 495.26 134.83 497.02 134.34 498.79 133.72 500.42 133.72 500.42 133.72 500.42 134.23 501.87 134.6 503.51 134.97 505.16 135.19 507 135.3 507.92 135.38 508.89 135.45 509.86 135.49 510.88 135.52 511.9 135.52 512.97 135.52 514.04 135.48 515.16 135.48 515.16 135.48 515.16 135.44 516.22 135.37 517.26 135.3 518.3 135.19 519.3 135.08 520.3 134.94 521.27 134.79 522.23 134.62 523.17 134.26 525.04 133.77 526.77 133.27 528.51 132.64 529.92 132.64 529.92 132.64 529.92 129.79 530.1 126.94 530.28 124.09 530.46 121.24 530.64 118.39 530.82 115.54 530.99 112.69 531.17 109.84 531.35 106.99 531.53 104.14 531.71 101.29 531.89 98.44 532.06 95.59 532.24 92.74 532.42 89.89 532.6 87.04 532.78 86.51 531.43 86.13 529.75 85.74 528.07 85.5 526.25 85.38 525.35 85.29 524.4 85.21 523.46 85.16 522.48 85.11 521.51 85.09 520.49 85.08 519.48 85.1 518.44 85.1 518.44 85.1 518.44 85.12 517.35 85.18 516.31 85.23 515.27 85.33 514.28 85.42 513.28 85.55 512.33 85.68 511.39 85.84 510.48 86.17 508.68 86.65 507.05 87.12 505.42 87.74 503.96 87.74 503.96 87.74 503.96 87.21 502.5 86.82 500.91 86.44 499.31 86.21 497.59 86.09 496.73 86.02 495.83 85.94 494.94 85.91 494.01 85.88 493.09 85.88 492.13 85.89 491.17 85.94 490.18 85.94 490.18 85.94 490.18 85.99 489.15 86.08 488.15 86.17 487.16 86.3 486.21 86.43 485.27 86.59 484.36 86.76 483.45 86.96 482.58 87.37 480.84 87.92 479.27 88.47 477.69 89.17 476.26 89.17 476.26 89.17 476.26 88.7 474.88 88.4 473.37 88.1 471.86 87.97 470.21 87.9 469.39 87.88 468.53 87.86 467.67 87.89 466.78 87.91 465.89 87.98 464.97 88.05 464.05 88.16 463.09 88.16 463.09 88.16 463.09 88.28 462.09 88.43 461.12 88.58 460.16 88.77 459.23 88.96 458.31 89.19 457.42 89.41 456.53 89.67 455.68 90.19 453.97 90.83 452.41 91.48 450.84 92.25 449.42 92.25 449.42 92.25 449.42 91.9 448.11 91.71 446.66 91.53 445.22 91.53 443.63 91.53 442.84 91.57 442.01 91.62 441.18 91.7 440.31 91.8 439.45 91.93 438.55 92.06 437.65 92.24 436.71 92.24 436.71 92.24 436.71 92.43 435.73 92.65 434.79 92.87 433.85 93.12 432.94 93.37 432.03 93.65 431.15 93.93 430.27 94.24 429.43 94.86 427.74 95.58 426.18 96.31 424.61 97.14 423.17 97.14 423.17 97.14 423.17 96.9 421.94 96.84 420.55 96.78 419.16 96.9 417.63 96.96 416.86 97.06 416.06 97.17 415.25 97.31 414.41 97.46 413.57 97.66 412.68 97.85 411.8 98.08 410.88 98.08 410.88 98.08 410.88 98.33 409.92 98.6 408.99 98.88 408.06 99.17 407.15 99.47 406.25 99.79 405.38 100.11 404.5 100.45 403.66 101.13 401.96 101.9 400.38 102.67 398.79 103.51 397.32 103.51 397.32 103.51 397.32 103.38 396.13 103.41 394.79 103.45 393.45 103.65 391.94 103.76 391.18 103.9 390.38 104.04 389.58 104.22 388.74 104.4 387.9 104.63 387.01 104.85 386.13 105.11 385.19 105.11 385.19 105.11 385.19 105.38 384.22 105.67 383.27 105.95 382.32 106.26 381.39 106.56 380.46 106.88 379.56 107.2 378.65 107.54 377.77 108.2 375.99 108.93 374.31 109.65 372.62 110.43 371.02 110.43 371.02 110.43 371.02 108.75 371.94 107.06 372.86 105.37 373.78 103.69 374.71 102 375.63 100.31 376.56 98.62 377.48 96.92 378.41 95.22 379.33 93.53 380.26 91.82 381.18 90.12 382.1 88.4 383.02 86.69 383.93 84.96 384.84 83.23 385.74 81.5 386.64 79.75 387.53 78 388.41 76.24 389.29 74.46 390.15 72.68 391.01 70.88 391.85 69.07 392.68 67.25 393.49 65.41 394.29 63.55 395.08 61.68 395.85 59.8 396.6 57.9 397.34 55.98 398.06 54.06 398.77 54.33 397.98 54.81 397.06 55.29 396.15 55.97 395.11 56.33 394.6 56.73 394.06 57.14 393.51 57.59 392.94 58.05 392.37 58.56 391.76 59.06 391.15 59.63 390.52 59.63 390.52 59.63 390.52 60.22 389.86 60.83 389.22 61.43 388.58 62.04 387.96 62.64 387.33 63.26 386.72 63.87 386.11 64.5 385.52 65.75 384.33 67 383.17 68.18 381.94 69.11 380.48 69.11 380.48 69.11 380.48 70.9 378.7 72.7 376.95 74.53 375.21 76.35 373.48 78.21 371.78 80.08 370.09 81.96 368.41 83.85 366.75 85.75 365.1 87.68 363.48 89.61 361.86 91.56 360.27 93.52 358.69 95.49 357.12 97.47 355.57 99.46 354.02 101.47 352.51 103.49 351 105.51 349.51 107.55 348.03 109.6 346.56 111.66 345.11 113.72 343.67 115.8 342.25 117.89 340.84 119.98 339.44 122.09 338.06 124.2 336.69 126.32 335.34 128.45 333.99 130.59 332.66 132.74 331.35 134.89 330.04 137.05 328.75 139.22 327.47 141.4 326.2 143.58 324.95 145.77 323.7 147.97 322.47 150.17 321.25 152.38 320.05 154.6 318.85 156.82 317.66 159.05 316.5 161.28 315.33 163.52 314.19 165.77 313.05 168.02 311.92 170.28 310.81 172.54 309.7 174.81 308.61 177.09 307.53 179.36 306.46 181.65 305.4 183.93 304.34 186.23 303.31 188.53 302.28 190.83 301.26 193.14 300.25 195.45 299.25 197.77 298.27 200.09 297.28 202.41 296.32 204.74 295.36 205.06 296.79 205.28 298.51 205.51 300.24 205.6 302.22 205.64 303.21 205.66 304.26 205.67 305.31 205.65 306.43 205.51 307.58 205.39 308.78 205.28 309.98 205.19 311.22 205.19 311.22 205.19 311.22 205.19 311.22 205.19 311.22M350.12 481.45Q353.64 481.19 357.15 480.93 360.66 480.67 364.17 480.41 367.68 480.14 371.2 479.87 374.71 479.6 378.22 479.32 381.73 479.05 385.24 478.76 388.75 478.47 392.25 478.18 395.76 477.88 399.27 477.58 402.77 477.27 406.27 476.96 407.21 478.8 407.91 480.9 408.61 483 409.08 485.36 409.31 486.54 409.48 487.79 409.66 489.04 409.78 490.35 409.71 491.68 409.65 493.07 409.59 494.45 409.59 495.9 409.59 495.9 409.59 495.9 409.59 497.28 409.65 498.61 409.71 499.94 409.78 501.23 409.66 502.53 409.48 503.79 409.31 505.05 409.07 506.27 408.6 508.71 407.9 510.97 407.19 513.2 406.21 514.93 406.21 514.93 406.21 514.93 403.26 514.95 400.3 514.98 397.34 515.19 394.39 515.44 391.44 515.68 388.49 515.94 385.54 516.2 382.59 516.47 379.64 516.68 376.68 516.75 373.72 516.81 370.76 516.88 367.8 517 364.84 517.14 361.89 517.27 358.93 517.43 355.98 517.59 353.02 517.76 350.06 517.88 347.1 517.89 344.14 517.89 341.18 517.89 338.22 518.12 335.27 518.36 332.32 518.61 329.37 518.84 326.41 519.07 323.46 519.31 320.5 519.51 317.55 519.63 314.59 519.75 311.63 519.87 308.67 519.91 305.71 519.95 302.75 519.98 299.79 520.13 296.84 520.36 293.88 520.59 290.93 520.81 287.98 521.04 285.02 521.27 282.07 521.49 279.11 521.72 276.16 521.95 273.21 522.17 270.25 522.38 267.3 522.56 264.34 522.75 261.38 522.88 258.42 522.88 255.46 522.88 252.5 522.89 249.54 523.04 246.58 523.2 243.63 523.36 240.67 523.55 237.72 523.76 234.76 523.98 231.81 524.19 228.85 524.4 225.9 524.61 222.94 524.82 219.99 525.03 217.04 525.25 216.21 523.7 215.71 521.8 215.21 519.92 214.97 517.85 214.85 516.82 214.79 515.75 214.73 514.67 214.73 513.55 214.73 512.43 214.79 511.27 214.86 510.1 214.98 508.89 214.98 508.89 214.98 508.89 215.11 507.63 215.29 506.42 215.48 505.2 215.71 504.03 215.94 502.86 216.23 501.74 216.51 500.62 216.85 499.55 217.52 497.4 218.39 495.44 219.27 493.48 220.35 491.7 220.35 491.7 220.35 491.7 223.77 491.37 227.19 491.04 230.62 490.71 234.04 490.39 237.47 490.08 240.9 489.77 244.34 489.47 247.78 489.17 251.22 488.88 254.67 488.59 258.13 488.3 261.59 488.02 265.05 487.74 268.51 487.47 271.99 487.19 275.46 486.92 274.62 485.14 274.03 483.17 273.43 481.21 273.06 479.06 272.88 477.99 272.75 476.87 272.63 475.75 272.56 474.59 272.49 473.43 272.48 472.22 272.46 471.01 272.5 469.76 272.5 469.76 272.5 469.76 272.54 468.45 272.64 467.19 272.73 465.93 272.88 464.71 273.03 463.5 273.23 462.34 273.43 461.17 273.68 460.06 274.18 457.83 274.91 455.79 275.63 453.75 276.57 451.9 276.57 451.9 276.57 451.9 275.68 450.13 275.02 448.18 274.36 446.23 273.92 444.09 273.7 443.03 273.54 441.91 273.38 440.8 273.28 439.64 273.17 438.47 273.12 437.27 273.07 436.06 273.08 434.8 273.08 434.8 273.08 434.8 273.09 433.49 273.16 432.23 273.22 430.96 273.34 429.74 273.47 428.53 273.64 427.36 273.82 426.18 274.06 425.06 274.53 422.81 275.22 420.75 275.92 418.69 276.85 416.81 276.85 416.81 276.85 416.81 275.93 415.07 275.25 413.13 274.56 411.2 274.11 409.07 273.88 408.01 273.71 406.89 273.54 405.78 273.43 404.62 273.31 403.46 273.26 402.25 273.2 401.04 273.2 399.78 273.2 399.78 273.2 399.78 273.2 398.46 273.26 397.19 273.32 395.93 273.44 394.7 273.55 393.48 273.72 392.3 273.9 391.12 274.13 389.99 274.59 387.73 275.28 385.64 275.97 383.55 276.88 381.65 276.88 381.65 276.88 381.65 275.96 379.92 275.27 378 274.58 376.08 274.12 373.96 273.88 372.9 273.71 371.79 273.54 370.68 273.42 369.51 273.3 368.35 273.24 367.14 273.18 365.92 273.18 364.66 273.18 364.66 273.18 364.66 273.18 363.34 273.23 362.06 273.28 360.79 273.4 359.56 273.51 358.32 273.67 357.14 273.84 355.95 274.07 354.8 274.52 352.51 275.2 350.39 275.88 348.27 276.79 346.32 276.79 346.32 276.79 346.32 275.86 344.61 275.16 342.7 274.46 340.78 273.99 338.65 273.75 337.58 273.57 336.47 273.39 335.35 273.27 334.18 273.15 333 273.08 331.78 273.01 330.55 273 329.27 273 329.27 273 329.27 272.99 327.93 273.04 326.63 273.08 325.33 273.19 324.07 273.29 322.81 273.45 321.59 273.61 320.37 273.82 319.19 274.25 316.83 274.91 314.63 275.57 312.42 276.45 310.38 276.45 310.38 276.45 310.38 273.03 311.17 269.61 311.97 266.18 312.77 262.76 313.57 259.34 314.38 255.92 315.18 252.51 315.98 249.09 316.78 245.67 317.57 242.25 318.36 238.84 319.15 235.42 319.93 232 320.71 228.58 321.48 225.16 322.24 221.74 322.99 220.83 321.39 220.15 319.59 219.47 317.79 219.02 315.79 218.79 314.78 218.62 313.73 218.45 312.68 218.34 311.57 218.22 310.47 218.17 309.31 218.11 308.15 218.11 306.94 218.11 306.94 218.11 306.94 218.11 305.68 218.17 304.46 218.22 303.23 218.34 302.05 218.45 300.86 218.62 299.71 218.79 298.57 219.01 297.45 219.46 295.22 220.12 293.13 220.78 290.98 221.61 288.79 221.61 288.79 221.61 288.79 224.37 287.76 227.13 286.75 229.89 285.75 232.67 284.77 235.44 283.79 238.22 282.83 241 281.87 243.79 280.94 246.58 280.01 249.38 279.1 252.18 278.2 254.98 277.31 257.79 276.43 260.6 275.57 263.42 274.71 266.24 273.88 269.06 273.05 271.88 272.23 274.71 271.43 277.55 270.63 280.38 269.85 283.22 269.08 286.06 268.32 288.91 267.57 291.75 266.84 294.6 266.11 297.46 265.4 300.31 264.69 303.17 264 306.03 263.31 308.9 262.64 311.76 261.98 314.63 261.33 317.5 260.69 320.37 260.06 323.25 259.44 326.13 258.83 329.01 258.23 331.89 257.65 334.77 257.07 337.66 256.5 340.55 255.94 343.44 255.4 346.33 254.86 349.22 254.33 352.12 253.82 355.02 253.31 357.92 252.81 360.82 252.33 363.72 251.85 366.62 251.38 369.53 250.93 372.44 250.48 375.34 250.05 378.25 249.62 381.17 249.2 384.08 248.79 386.99 248.4 389.91 248 392.83 247.63 395.74 247.25 398.66 246.9 401.58 246.55 404.51 246.21 405.51 248.08 406.28 250.17 407.05 252.23 407.6 254.57 407.87 255.73 408.09 256.97 408.3 258.2 408.46 259.51 408.44 260.84 408.42 262.23 408.41 263.63 408.46 265.07 408.46 265.07 408.46 265.07 408.5 266.45 408.61 267.78 408.71 269.11 408.82 270.39 408.75 271.7 408.61 272.98 408.48 274.25 408.28 275.49 407.9 277.98 407.27 280.32 406.65 282.66 405.78 284.86 405.78 284.86 405.78 284.86 402.29 285.45 398.79 286.04 395.3 286.63 391.8 287.23 388.31 287.83 384.82 288.43 381.32 289.04 377.83 289.66 374.35 290.27 370.86 290.89 367.38 291.52 363.89 292.15 360.41 292.79 356.94 293.44 353.46 294.09 349.99 294.74 350.96 296.5 351.71 298.53 352.45 300.56 352.96 302.87 353.22 304.02 353.42 305.24 353.62 306.46 353.76 307.75 353.89 309.04 353.98 310.4 354.06 311.75 354.08 313.17 354.08 313.17 354.08 313.17 354.1 314.54 354.06 315.87 354.02 317.19 353.92 318.49 353.82 319.78 353.66 321.03 353.49 322.29 353.28 323.51 352.83 325.95 352.16 328.25 351.48 330.55 350.57 332.7 350.57 332.7 350.57 332.7 351.51 334.42 352.22 336.41 352.92 338.4 353.4 340.66 353.63 341.79 353.81 343 353.99 344.2 354.11 345.46 354.23 346.73 354.3 348.07 354.36 349.4 354.36 350.81 354.36 350.81 354.36 350.81 354.37 352.15 354.31 353.46 354.26 354.77 354.14 356.05 354.03 357.32 353.86 358.56 353.69 359.8 353.46 361.01 353 363.41 352.31 365.68 351.62 367.94 350.69 370.06 350.69 370.06 350.69 370.06 351.62 371.78 352.32 373.77 353.01 375.77 353.47 378.03 353.71 379.16 353.88 380.36 354.05 381.56 354.17 382.82 354.28 384.09 354.34 385.42 354.4 386.75 354.4 388.15 354.4 388.15 354.4 388.15 354.4 389.49 354.34 390.79 354.28 392.09 354.16 393.36 354.04 394.63 353.87 395.86 353.69 397.09 353.46 398.29 352.99 400.67 352.3 402.92 351.6 405.16 350.67 407.25 350.67 407.25 350.67 407.25 351.59 408.99 352.28 410.99 352.97 413 353.42 415.27 353.65 416.4 353.82 417.6 353.99 418.8 354.1 420.07 354.21 421.33 354.27 422.67 354.32 424 354.31 425.39 354.31 425.39 354.31 425.39 354.31 426.73 354.24 428.03 354.18 429.33 354.06 430.59 353.94 431.85 353.76 433.08 353.58 434.3 353.34 435.49 352.86 437.86 352.15 440.09 351.44 442.31 350.5 444.38 350.5 444.38 350.5 444.38 351.42 446.14 352.1 448.16 352.78 450.18 353.23 452.46 353.45 453.6 353.62 454.8 353.78 456.01 353.89 457.28 353.99 458.54 354.04 459.88 354.08 461.21 354.07 462.6 354.07 462.6 354.07 462.6 354.06 463.94 353.99 465.24 353.92 466.53 353.79 467.79 353.66 469.05 353.47 470.27 353.28 471.49 353.04 472.67 352.54 475.02 351.82 477.22 351.09 479.42 350.12 481.45 350.12 481.45 350.12 481.45 350.12 481.45 350.12 481.45M604.29 356.21Q604.87 358.07 605.31 360.16 605.75 362.24 606.05 364.57 606.19 365.73 606.3 366.95 606.41 368.17 606.48 369.44 606.41 370.73 606.38 372.06 606.34 373.4 606.34 374.8 606.34 374.8 606.34 374.8 606.34 376.14 606.38 377.43 606.41 378.73 606.48 379.97 606.41 381.23 606.3 382.44 606.19 383.65 606.05 384.81 605.75 387.15 605.32 389.31 604.88 391.47 604.29 393.46 604.29 393.46 604.29 393.46 604.88 395.31 605.32 397.4 605.75 399.48 606.05 401.8 606.19 402.96 606.3 404.18 606.41 405.4 606.48 406.68 606.41 407.96 606.38 409.3 606.34 410.64 606.34 412.03 606.34 412.03 606.34 412.03 606.34 413.37 606.38 414.66 606.41 415.95 606.48 417.2 606.41 418.45 606.3 419.66 606.19 420.87 606.05 422.04 605.76 424.38 605.32 426.54 604.88 428.71 604.3 430.71 604.3 430.71 604.3 430.71 604.88 432.55 605.32 434.64 605.76 436.72 606.05 439.04 606.19 440.2 606.3 441.41 606.41 442.63 606.48 443.91 606.41 445.19 606.38 446.53 606.34 447.87 606.34 449.27 606.34 449.27 606.34 449.27 606.34 450.6 606.38 451.9 606.41 453.19 606.48 454.44 606.41 455.69 606.3 456.9 606.19 458.11 606.05 459.28 605.76 461.62 605.33 463.79 604.89 465.96 604.31 467.95 604.31 467.95 604.31 467.95 601.42 468.06 598.52 468.16 595.63 468.27 592.75 468.38 589.86 468.5 586.97 468.61 584.09 468.73 581.21 468.85 581.79 470.7 582.24 472.78 582.68 474.87 582.98 477.2 583.13 478.36 583.25 479.59 583.36 480.81 583.44 482.1 583.52 483.38 583.57 484.73 583.61 486.07 583.62 487.48 583.62 487.48 583.62 487.48 583.63 488.83 583.61 490.13 583.58 491.44 583.52 492.71 583.46 493.97 583.37 495.2 583.28 496.42 583.15 497.61 582.89 499.98 582.5 502.2 582.11 504.41 581.57 506.23 581.57 506.23 581.57 506.23 579.79 506.35 578.01 506.47 576.23 506.57 574.45 506.63 572.67 506.69 570.89 506.75 569.11 506.81 567.33 506.87 565.55 507.02 563.77 507.17 562 507.32 560.22 507.48 558.45 507.63 556.67 507.74 554.88 507.76 553.1 507.79 551.32 507.82 549.53 507.85 547.75 507.87 545.97 508.02 544.2 508.19 542.42 508.35 540.65 508.52 538.87 508.69 537.09 508.8 535.31 508.82 533.53 508.83 531.74 508.85 529.96 508.86 528.17 508.88 526.4 509.02 524.62 509.2 522.85 509.38 521.07 509.56 519.3 509.74 517.52 509.87 515.73 509.87 513.95 509.87 512.17 509.87 510.38 509.88 508.6 509.88 506.82 510.01 505.04 510.18 503.27 510.36 501.49 510.53 499.71 510.71 497.93 510.84 496.15 510.85 494.37 510.85 492.58 510.86 490.8 510.87 489.01 510.88 487.23 510.99 485.46 511.14 483.68 511.29 481.9 511.44 480.12 511.6 478.34 511.73 476.56 511.76 474.78 511.78 472.99 511.81 471.21 511.84 469.42 511.87 467.64 511.96 467 510.24 466.49 508.08 465.96 505.91 465.57 503.54 465.37 502.35 465.21 501.12 465.04 499.88 464.9 498.6 464.77 497.32 464.67 495.99 464.56 494.66 464.49 493.28 464.49 493.28 464.49 493.28 464.42 491.85 464.38 490.47 464.34 489.09 464.35 487.77 464.35 486.45 464.39 485.19 464.43 483.92 464.51 482.72 464.68 480.31 465.01 478.14 465.33 475.96 465.82 474.02 465.82 474.02 465.82 474.02 462.9 474.15 459.97 474.27 457.03 474.39 454.09 474.52 451.14 474.64 448.18 474.76 445.22 474.88 442.25 475 441.51 472.98 440.91 470.78 440.31 468.57 439.86 466.18 439.63 464.99 439.45 463.75 439.26 462.51 439.12 461.22 438.98 459.93 438.87 458.6 438.77 457.26 438.72 455.88 438.72 455.88 438.72 455.88 438.66 454.44 438.64 453.06 438.63 451.68 438.67 450.35 438.7 449.03 438.78 447.77 438.86 446.5 438.98 445.3 439.23 442.88 439.64 440.71 440.05 438.53 440.61 436.59 440.61 436.59 440.61 436.59 437.62 436.7 434.62 436.8 431.62 436.91 428.63 437.02 427.13 437.07 425.63 437.12 424.13 437.17 422.63 437.23 419.64 437.33 416.65 437.44 416.05 435.41 415.6 433.2 415.16 430.99 414.86 428.6 414.71 427.4 414.6 426.16 414.49 424.91 414.41 423.62 414.34 422.33 414.3 421 414.26 419.66 414.26 418.28 414.26 418.28 414.26 418.28 414.26 416.84 414.3 415.46 414.34 414.07 414.41 412.75 414.48 411.42 414.6 410.16 414.71 408.89 414.85 407.68 415.15 405.27 415.59 403.09 416.03 400.91 416.62 398.97 416.62 398.97 416.62 398.97 416.03 396.94 415.59 394.73 415.15 392.52 414.85 390.13 414.7 388.93 414.59 387.69 414.48 386.44 414.41 385.15 414.34 383.86 414.3 382.53 414.26 381.19 414.26 379.81 414.26 379.81 414.26 379.81 414.26 378.36 414.3 376.98 414.33 375.6 414.41 374.27 414.48 372.95 414.59 371.68 414.7 370.41 414.85 369.21 415.14 366.79 415.58 364.61 416.02 362.44 416.61 360.49 416.61 360.49 416.61 360.49 416.02 358.47 415.58 356.26 415.14 354.05 414.85 351.65 414.7 350.45 414.59 349.21 414.48 347.97 414.41 346.68 414.33 345.39 414.3 344.05 414.26 342.71 414.26 341.33 414.26 341.33 414.26 341.33 414.26 339.89 414.3 338.5 414.33 337.12 414.41 335.79 414.48 334.47 414.59 333.2 414.7 331.94 414.85 330.73 415.14 328.32 415.58 326.14 416.02 323.96 416.6 322.01 416.6 322.01 416.6 322.01 419.53 321.91 422.46 321.82 423.92 321.77 425.38 321.72 426.85 321.67 428.31 321.62 431.23 321.52 434.16 321.43 437.08 321.33 440 321.24 439.41 319.21 438.97 316.99 438.53 314.77 438.23 312.37 438.08 311.17 437.97 309.92 437.85 308.67 437.78 307.37 437.7 306.08 437.66 304.74 437.62 303.39 437.62 302 437.62 302 437.62 302 437.61 300.55 437.65 299.16 437.68 297.77 437.75 296.43 437.82 295.1 437.92 293.82 438.03 292.55 438.17 291.33 438.45 288.89 438.88 286.69 439.31 284.48 439.89 282.51 439.89 282.51 439.89 282.51 442.79 282.38 445.7 282.26 448.6 282.13 451.51 282.01 454.41 281.89 457.31 281.77 460.22 281.66 463.12 281.55 462.52 279.48 462.07 277.21 461.61 274.94 461.3 272.47 461.15 271.24 461.03 269.95 460.91 268.66 460.82 267.33 460.74 265.99 460.69 264.6 460.64 263.21 460.62 261.76 460.62 261.76 460.62 261.76 460.61 260.26 460.63 258.81 460.65 257.36 460.7 255.96 460.76 254.57 460.85 253.23 460.94 251.9 461.07 250.62 461.33 248.06 461.73 245.75 462.13 243.44 462.68 241.39 462.68 241.39 462.68 241.39 464.49 241.3 466.29 241.21 468.1 241.12 469.9 241.04 471.71 240.97 473.51 240.89 475.32 240.82 477.12 240.76 478.93 240.69 480.73 240.63 482.54 240.57 484.35 240.52 486.15 240.47 487.96 240.42 489.77 240.38 491.57 240.34 493.38 240.3 495.19 240.27 496.99 240.24 498.8 240.21 500.61 240.19 502.41 240.17 504.22 240.16 506.03 240.14 507.83 240.14 509.64 240.13 511.45 240.12 513.25 240.13 515.06 240.13 516.87 240.14 518.68 240.15 520.48 240.16 522.29 240.18 524.1 240.2 525.9 240.23 527.71 240.25 529.52 240.28 531.32 240.32 533.13 240.36 534.94 240.4 536.74 240.44 538.55 240.49 540.36 240.54 542.16 240.59 543.97 240.65 545.77 240.71 547.58 240.78 549.39 240.85 551.19 240.92 553 240.99 554.8 241.07 556.61 241.15 558.41 241.24 560.22 241.33 562.02 241.42 563.83 241.52 565.63 241.61 567.43 241.71 569.24 241.82 571.04 241.93 572.85 242.04 574.65 242.16 576.45 242.28 578.25 242.4 578.88 244.45 579.38 246.74 579.88 249.01 580.25 251.51 580.44 252.75 580.59 254.05 580.75 255.34 580.87 256.69 581 258.03 581.09 259.43 581.18 260.82 581.24 262.27 581.24 262.27 581.24 262.27 581.3 263.65 581.32 264.99 581.34 266.33 581.32 267.61 581.3 268.89 581.25 270.13 581.19 271.37 581.09 272.55 580.9 274.93 580.55 277.12 580.2 279.31 579.69 281.31 579.69 281.31 579.69 281.31 582.65 281.37 585.61 281.43 588.57 281.49 591.53 281.54 594.5 281.59 597.47 281.63 600.44 281.67 603.41 281.7 604.11 283.57 604.67 285.66 605.24 287.76 605.67 290.09 605.88 291.25 606.07 292.48 606.25 293.7 606.4 294.98 606.4 296.26 606.37 297.6 606.34 298.94 606.34 300.33 606.34 300.33 606.34 300.33 606.34 301.67 606.37 302.96 606.41 304.26 606.48 305.51 606.41 306.76 606.3 307.97 606.19 309.18 606.04 310.34 605.75 312.67 605.3 314.82 604.86 316.98 604.27 318.96 604.27 318.96 604.27 318.96 601.32 318.98 598.36 318.99 595.4 319 592.44 319.02 589.48 319.03 586.52 319.04 583.56 319.05 580.6 319.05 577.64 319.06 574.68 319.07 571.73 319.08 568.78 319.08 565.83 319.09 562.88 319.1 559.93 319.11 556.99 319.12 556.37 317.1 555.9 314.9 555.42 312.7 555.09 310.32 554.92 309.13 554.79 307.89 554.66 306.65 554.56 305.37 554.46 304.08 554.4 302.76 554.34 301.42 554.31 300.05 554.31 300.05 554.31 300.05 554.28 298.61 554.29 297.23 554.29 295.85 554.34 294.53 554.38 293.21 554.46 291.95 554.54 290.69 554.66 289.48 554.89 287.08 555.27 284.91 555.66 282.74 556.19 280.81 556.19 280.81 556.19 280.81 554 280.77 551.8 280.73 549.61 280.69 547.42 280.66 545.23 280.62 543.04 280.59 540.86 280.56 538.67 280.54 536.48 280.51 534.3 280.49 532.11 280.48 529.93 280.46 527.75 280.45 525.57 280.44 523.38 280.44 521.2 280.43 519.02 280.44 516.84 280.44 514.66 280.45 512.48 280.46 510.3 280.47 508.12 280.49 505.94 280.51 503.76 280.53 501.58 280.56 499.4 280.59 497.23 280.62 495.05 280.66 492.87 280.7 490.69 280.74 488.52 280.79 486.34 280.84 486.94 282.81 487.4 285.02 487.86 287.23 488.18 289.69 488.34 290.91 488.46 292.2 488.59 293.48 488.67 294.83 488.76 296.18 488.81 297.58 488.86 298.99 488.88 300.45 488.88 300.45 488.88 300.45 488.89 301.85 488.87 303.21 488.85 304.57 488.79 305.88 488.73 307.19 488.63 308.45 488.53 309.71 488.4 310.93 488.13 313.36 487.71 315.61 487.29 317.86 486.73 319.93 486.73 319.93 486.73 319.93 483.81 319.99 480.89 320.06 477.97 320.13 475.05 320.2 472.13 320.28 469.21 320.36 466.29 320.44 463.37 320.52 463.97 322.44 464.42 324.6 464.87 326.76 465.18 329.16 465.33 330.36 465.45 331.63 465.56 332.89 465.65 334.21 465.73 335.53 465.77 336.92 465.82 338.3 465.82 339.75 465.82 339.75 465.82 339.75 465.83 341.13 465.8 342.47 465.77 343.81 465.71 345.1 465.64 346.4 465.54 347.65 465.44 348.9 465.3 350.1 465.02 352.52 464.59 354.75 464.16 356.98 463.59 359.04 463.59 359.04 463.59 359.04 464.19 360.95 464.64 363.09 465.09 365.24 465.4 367.63 465.56 368.83 465.68 370.08 465.79 371.34 465.88 372.66 465.96 373.97 466 375.35 466.05 376.73 466.06 378.16 466.06 378.16 466.06 378.16 466.07 379.54 466.04 380.88 466.02 382.21 465.95 383.5 465.89 384.79 465.79 386.04 465.69 387.28 465.55 388.49 465.28 390.89 464.86 393.12 464.43 395.35 463.86 397.41 463.86 397.41 463.86 397.41 464.47 399.3 464.93 401.45 465.4 403.59 465.72 405.97 465.88 407.16 466 408.42 466.13 409.67 466.22 410.98 466.31 412.3 466.37 413.67 466.42 415.05 466.44 416.48 466.44 416.48 466.44 416.48 466.46 417.86 466.44 419.19 466.43 420.52 466.37 421.81 466.32 423.1 466.23 424.34 466.14 425.59 466.02 426.79 465.76 429.19 465.36 431.43 464.97 433.66 464.42 435.72 464.42 435.72 464.42 435.72 467.38 435.61 470.33 435.5 473.28 435.39 476.23 435.28 479.17 435.17 482.11 435.06 485.04 434.94 487.98 434.83 488.6 436.72 489.09 438.85 489.58 440.98 489.93 443.35 490.1 444.54 490.25 445.79 490.39 447.03 490.49 448.34 490.6 449.65 490.68 451.02 490.75 452.39 490.79 453.82 490.79 453.82 490.79 453.82 490.83 455.19 490.83 456.52 490.84 457.85 490.8 459.14 490.77 460.42 490.7 461.66 490.63 462.9 490.52 464.1 490.31 466.5 489.95 468.73 489.59 470.96 489.08 473.01 489.08 473.01 489.08 473.01 491.25 472.91 493.42 472.82 495.59 472.72 497.75 472.62 499.92 472.53 502.09 472.43 504.25 472.33 506.41 472.23 508.58 472.13 510.74 472.04 512.9 471.94 515.06 471.84 517.22 471.74 519.38 471.64 521.54 471.54 523.69 471.44 525.85 471.34 528.01 471.25 530.17 471.15 532.32 471.05 534.48 470.95 536.64 470.85 538.79 470.75 540.95 470.65 543.1 470.55 545.26 470.45 547.42 470.35 549.57 470.25 551.73 470.15 553.88 470.06 556.04 469.96 558.19 469.86 557.59 467.88 557.14 465.72 556.68 463.57 556.37 461.22 556.21 460.05 556.09 458.84 555.97 457.62 555.88 456.36 555.8 455.1 555.75 453.79 555.7 452.48 555.68 451.13 555.68 451.13 555.68 451.13 555.67 449.72 555.69 448.36 555.72 447.01 555.78 445.71 555.84 444.41 555.93 443.18 556.03 441.94 556.17 440.76 556.44 438.39 556.85 436.26 557.27 434.13 557.84 432.23 557.84 432.23 557.84 432.23 557.24 430.25 556.79 428.09 556.33 425.92 556.03 423.58 555.87 422.41 555.75 421.2 555.64 419.98 555.55 418.72 555.47 417.46 555.43 416.15 555.38 414.85 555.37 413.5 555.37 413.5 555.37 413.5 555.36 412.08 555.39 410.73 555.41 409.38 555.48 408.08 555.54 406.79 555.64 405.55 555.74 404.31 555.88 403.13 556.16 400.77 556.58 398.64 557.01 396.51 557.58 394.61 557.58 394.61 557.58 394.61 555.39 394.67 553.2 394.73 551.01 394.79 548.82 394.85 546.63 394.91 544.44 394.97 542.25 395.03 540.06 395.09 537.87 395.15 535.68 395.21 533.49 395.27 531.3 395.34 529.1 395.4 526.91 395.46 524.72 395.53 522.53 395.59 521.92 393.59 521.46 391.41 521 389.23 520.69 386.86 520.53 385.68 520.41 384.45 520.29 383.22 520.2 381.95 520.12 380.67 520.07 379.35 520.02 378.03 520.01 376.66 520.01 376.66 520.01 376.66 520 375.24 520.02 373.87 520.05 372.5 520.11 371.2 520.17 369.89 520.27 368.64 520.37 367.38 520.5 366.19 520.77 363.81 521.19 361.66 521.61 359.51 522.18 357.59 522.18 357.59 522.18 357.59 524.75 357.54 527.31 357.49 529.87 357.44 532.43 357.39 535 357.34 537.56 357.29 540.12 357.24 542.69 357.2 545.25 357.15 547.82 357.11 550.38 357.06 552.95 357.02 555.51 356.97 558.08 356.93 560.64 356.89 563.21 356.85 565.78 356.81 568.34 356.77 570.91 356.73 573.48 356.69 576.04 356.65 578.61 356.61 581.18 356.57 583.75 356.53 586.32 356.49 588.88 356.45 591.45 356.41 594.02 356.37 596.59 356.33 599.15 356.29 601.72 356.25 604.29 356.21 604.29 356.21 604.29 356.21M799.97 404.8Q796.21 404.54 792.45 404.28 788.69 404.02 784.93 403.76 781.17 403.51 777.41 403.26 773.65 403.01 769.89 402.76 766.13 402.52 762.37 402.27 758.61 402.03 754.84 401.8 751.08 401.56 747.31 401.33 743.55 401.1 739.78 400.87 736.02 400.64 732.25 400.41 728.48 400.18 724.71 399.96 720.94 399.74 717.17 399.51 713.4 399.29 709.63 399.07 705.85 398.85 702.08 398.63 698.3 398.41 694.53 398.19 690.75 397.97 686.97 397.76 683.19 397.54 679.41 397.32 680.17 399.08 680.73 401.05 681.3 403.01 681.67 405.18 681.86 406.26 682 407.4 682.14 408.53 682.24 409.71 682.33 410.9 682.38 412.13 682.42 413.37 682.42 414.65 682.42 414.65 682.42 414.65 682.42 415.89 682.38 417.08 682.33 418.27 682.24 419.42 682.14 420.57 682 421.68 681.86 422.79 681.67 423.86 681.29 426 680.73 427.98 680.16 429.96 679.41 431.79 679.41 431.79 679.41 431.79 680.17 433.52 680.74 435.46 681.31 437.4 681.69 439.55 681.88 440.62 682.03 441.75 682.17 442.88 682.27 444.06 682.37 445.24 682.42 446.48 682.47 447.71 682.47 449 682.47 449 682.47 449 682.48 450.24 682.43 451.43 682.39 452.63 682.3 453.79 682.21 454.94 682.07 456.06 681.94 457.18 681.75 458.26 681.38 460.42 680.83 462.43 680.27 464.44 679.53 466.3 679.53 466.3 679.53 466.3 683.3 466.17 687.07 466.04 690.84 465.9 694.61 465.76 698.37 465.61 702.14 465.47 705.91 465.32 709.67 465.17 713.44 465.02 717.21 464.87 720.97 464.72 724.74 464.56 728.5 464.41 732.26 464.26 736.03 464.11 739.79 463.96 743.55 463.81 747.31 463.67 751.08 463.53 754.84 463.39 758.6 463.26 762.36 463.14 766.12 463.02 769.88 462.91 773.64 462.81 777.4 462.73 781.16 462.65 784.92 462.59 788.68 462.54 792.44 462.5 796.2 462.48 799.96 462.48 800.72 463.92 801.28 465.54 801.84 467.16 802.22 468.96 802.41 469.86 802.55 470.8 802.69 471.74 802.78 472.73 802.69 473.72 802.64 474.75 802.6 475.79 802.6 476.87 802.6 476.87 802.6 476.87 802.6 477.9 802.64 478.9 802.69 479.9 802.78 480.86 802.69 481.83 802.55 482.76 802.41 483.7 802.22 484.6 801.84 486.41 801.28 488.09 800.72 489.8 799.95 491.3 799.95 491.3 799.95 491.3 797.14 491.54 794.33 491.78 791.51 492.02 788.7 492.26 785.88 492.5 783.07 492.74 780.25 493.07 777.44 493.41 774.63 493.74 771.82 493.97 768.99 494.11 766.17 494.25 763.35 494.39 760.53 494.54 757.7 494.69 754.88 494.83 752.07 495.09 749.26 495.41 746.45 495.73 743.64 496.05 740.82 496.3 738 496.55 735.18 496.8 732.37 497.02 729.55 497.22 726.73 497.43 723.91 497.61 721.08 497.71 718.25 497.82 715.43 497.92 712.61 498.13 709.79 498.4 706.98 498.67 704.16 498.92 701.34 499.09 698.52 499.26 695.7 499.43 692.87 499.56 690.05 499.68 687.23 499.8 684.4 499.96 681.59 500.24 678.77 500.53 675.96 500.82 673.14 500.96 670.31 501.05 667.48 501.14 664.66 501.26 661.84 501.46 659.02 501.65 656.2 501.85 653.37 502.05 650.55 502.24 647.73 502.44 644.91 502.61 642.08 502.7 639.25 502.79 636.43 502.88 633.61 503.13 630.79 503.41 627.98 503.7 625.16 503.91 622.33 503.97 619.51 504.03 618.73 502.34 618.13 500.22 617.54 498.08 617.13 495.78 616.93 494.62 616.77 493.43 616.61 492.23 616.5 490.99 616.39 489.75 616.33 488.46 616.27 487.18 616.25 485.85 616.25 485.85 616.25 485.85 616.23 484.47 616.26 483.14 616.29 481.81 616.37 480.54 616.45 479.27 616.58 478.06 616.7 476.85 616.88 475.7 617.23 473.39 617.77 471.32 618.31 469.24 619.04 467.4 619.04 467.4 619.04 467.4 618.26 465.44 617.66 463.3 617.07 461.16 616.66 458.85 616.46 457.7 616.3 456.5 616.14 455.3 616.03 454.06 615.92 452.81 615.87 451.53 615.82 450.24 615.82 448.92 615.82 448.92 615.82 448.92 615.82 447.53 615.87 446.21 615.92 444.88 616.01 443.61 616.11 442.34 616.25 441.14 616.39 439.93 616.58 438.78 616.96 436.48 617.53 434.43 618.09 432.37 618.85 430.55 618.85 430.55 618.85 430.55 618.09 428.56 617.53 426.41 616.96 424.25 616.58 421.93 616.39 420.77 616.25 419.57 616.11 418.37 616.01 417.12 615.92 415.88 615.87 414.59 615.82 413.31 615.82 411.98 615.82 411.98 615.82 411.98 615.82 410.6 615.87 409.27 615.92 407.95 616.01 406.68 616.11 405.42 616.25 404.21 616.39 403.01 616.58 401.87 616.96 399.58 617.53 397.54 618.1 395.5 618.85 393.7 618.85 393.7 618.85 393.7 618.1 391.7 617.53 389.53 616.96 387.36 616.58 385.03 616.39 383.86 616.25 382.65 616.11 381.44 616.01 380.2 615.92 378.95 615.87 377.66 615.82 376.37 615.82 375.05 615.82 375.05 615.82 375.05 615.82 373.66 615.87 372.34 615.92 371.02 616.01 369.75 616.11 368.49 616.25 367.29 616.39 366.09 616.58 364.96 616.96 362.68 617.53 360.66 618.1 358.63 618.86 356.86 618.86 356.86 618.86 356.86 618.1 354.83 617.53 352.65 616.96 350.46 616.58 348.11 616.39 346.94 616.25 345.73 616.11 344.52 616.01 343.27 615.92 342.02 615.87 340.73 615.82 339.44 615.82 338.11 615.82 338.11 615.82 338.11 615.82 336.73 615.87 335.41 615.92 334.08 616.01 332.82 616.11 331.56 616.25 330.37 616.39 329.17 616.58 328.04 616.96 325.78 617.53 323.77 618.11 321.76 618.87 320.01 618.87 320.01 618.87 320.01 618.11 317.96 617.54 315.75 616.96 313.55 616.58 311.2 616.39 310.02 616.25 308.8 616.11 307.59 616.01 306.34 615.92 305.08 615.87 303.79 615.82 302.5 615.82 301.18 615.82 301.18 615.82 301.18 615.82 299.79 615.87 298.47 615.92 297.15 616.01 295.89 616.11 294.63 616.25 293.44 616.4 292.25 616.59 291.12 616.97 288.86 617.54 286.86 618.12 284.86 618.88 283.12 618.88 283.12 618.88 283.12 618.12 281.05 617.55 278.84 616.97 276.63 616.59 274.27 616.4 273.09 616.25 271.87 616.11 270.65 616.02 269.4 615.92 268.15 615.87 266.86 615.82 265.57 615.82 264.24 615.82 264.24 615.82 264.24 615.82 262.85 615.87 261.53 615.92 260.21 616.02 258.95 616.11 257.7 616.26 256.5 616.4 255.31 616.59 254.18 616.98 251.92 617.56 249.91 618.15 247.89 618.96 246.12 618.96 246.12 618.96 246.12 621.9 246.46 624.84 246.81 627.78 247.17 630.72 247.54 633.65 247.91 636.59 248.31 639.52 248.7 642.45 249.12 645.39 249.53 648.31 249.96 651.24 250.4 654.17 250.85 657.09 251.31 660.01 251.78 662.94 252.25 665.86 252.74 668.77 253.24 671.69 253.75 674.6 254.27 677.52 254.8 680.43 255.34 683.34 255.89 686.24 256.45 689.15 257.02 692.05 257.6 694.95 258.19 697.85 258.8 700.75 259.41 703.64 260.03 706.53 260.66 709.42 261.31 712.31 261.96 715.19 262.63 718.07 263.31 720.95 264 723.83 264.69 726.7 265.41 729.57 266.13 732.44 266.86 735.31 267.61 738.17 268.37 741.03 269.13 743.88 269.91 746.74 270.7 749.59 271.5 752.43 272.31 755.28 273.14 758.12 273.97 760.95 274.82 763.79 275.68 766.61 276.55 769.44 277.44 772.26 278.33 775.08 279.24 777.89 280.16 780.7 281.09 783.51 282.03 786.31 282.99 789.11 283.96 791.9 284.95 794.69 285.94 797.47 286.95 800.25 287.96 803.02 289 803.65 290.88 804.08 292.7 804.51 294.47 804.75 296.36 804.87 297.3 804.94 298.28 805.01 299.25 805.02 300.26 804.86 301.23 804.73 302.25 804.61 303.28 804.53 304.36 804.53 304.36 804.53 304.36 804.45 305.39 804.42 306.4 804.4 307.41 804.42 308.39 804.25 309.34 804.04 310.24 803.83 311.15 803.58 312.01 803.07 313.73 802.39 315.29 801.71 316.85 800.85 318.24 800.85 318.24 800.85 318.24 797.14 317.51 793.43 316.76 789.72 315.99 786.01 315.2 782.3 314.4 778.59 313.58 774.87 312.75 771.14 311.92 767.41 311.07 763.67 310.22 759.93 309.37 756.18 308.51 752.42 307.66 748.66 306.8 744.9 305.95 741.13 305.11 737.35 304.27 733.57 303.43 729.79 302.6 726 301.78 722.2 300.97 718.41 300.17 714.6 299.37 710.8 298.59 706.99 297.82 703.17 297.06 699.36 296.3 695.54 295.56 691.72 294.84 687.89 294.12 684.06 293.41 680.23 292.72 680.96 294.66 681.5 296.78 682.03 298.89 682.37 301.19 682.54 302.34 682.66 303.53 682.79 304.72 682.86 305.95 682.94 307.18 682.97 308.46 682.99 309.74 682.97 311.06 682.97 311.06 682.97 311.06 682.96 312.32 682.89 313.54 682.83 314.75 682.72 315.91 682.61 317.08 682.45 318.19 682.29 319.3 682.09 320.37 681.68 322.49 681.09 324.43 680.5 326.36 679.72 328.1 679.72 328.1 679.72 328.1 680.47 329.96 681.02 332 681.57 334.04 681.93 336.26 682.11 337.37 682.25 338.53 682.38 339.68 682.47 340.89 682.55 342.09 682.59 343.34 682.63 344.59 682.62 345.88 682.62 345.88 682.62 345.88 682.61 347.13 682.56 348.32 682.5 349.52 682.4 350.66 682.3 351.81 682.15 352.92 682.01 354.02 681.81 355.07 681.42 357.19 680.84 359.12 680.27 361.06 679.5 362.81 679.5 362.81 679.5 362.81 683.29 363.21 687.07 363.6 690.85 364 694.63 364.4 698.41 364.8 702.19 365.21 705.97 365.61 709.74 366.02 713.51 366.43 717.29 366.84 721.06 367.25 724.83 367.67 728.59 368.08 732.36 368.49 736.13 368.91 739.89 369.33 743.65 369.74 747.41 370.16 751.17 370.58 754.93 371 758.69 371.42 762.45 371.83 766.2 372.25 769.96 372.67 773.71 373.08 777.46 373.5 781.22 373.91 784.97 374.32 788.72 374.73 792.47 375.14 796.22 375.55 799.97 375.95 800.72 377.48 801.28 379.16 801.85 380.83 802.22 382.67 802.41 383.59 802.55 384.54 802.69 385.5 802.78 386.5 802.69 387.48 802.64 388.51 802.6 389.53 802.6 390.61 802.6 390.61 802.6 390.61 802.6 391.65 802.64 392.65 802.69 393.65 802.78 394.63 802.69 395.58 802.55 396.51 802.41 397.43 802.22 398.31 801.84 400.08 801.28 401.7 800.72 403.32 799.97 404.8 799.97 404.8 799.97 404.8 799.97 404.8 799.97 404.8M979.54 447.71Q981.85 447.51 984.17 447.32 986.49 447.13 988.81 446.96 991.12 446.79 993.43 446.62 995.72 446.47 998.01 446.33 998.97 447.19 999.81 448.18 1000.65 449.16 1001.38 450.27 1001.75 450.82 1002.09 451.41 1002.43 451.99 1002.74 452.6 1002.87 453.23 1003.05 453.89 1003.23 454.55 1003.46 455.23 1003.46 455.23 1003.46 455.23 1003.68 455.89 1003.93 456.52 1004.18 457.15 1004.47 457.76 1004.59 458.38 1004.64 458.98 1004.68 459.59 1004.67 460.19 1004.62 461.38 1004.3 462.52 1003.81 463.71 1002.54 464.89 1002.54 464.89 1002.54 464.89 997.33 465.72 992.11 466.54 987.59 467.22 984.75 467.58 981.91 467.93 979.07 468.29 976.23 468.64 973.39 469 970.56 469.35 967.74 469.8 964.95 470.4 962.16 470.99 959.37 471.58 956.55 472.03 953.73 472.46 950.91 472.89 950.3 471.86 949.83 470.54 949.36 469.23 949.02 467.8 948.85 467.09 948.72 466.36 948.57 465.63 948.47 464.87 948.36 464.11 948.28 463.33 948.19 462.55 948.14 461.75 948.14 461.75 948.14 461.75 948.08 460.91 948.05 460.11 948.02 459.32 948.03 458.55 948.03 457.79 948.06 457.07 948.1 456.34 948.16 455.65 948.29 454.28 948.56 453.04 948.82 451.8 949.24 450.69 949.24 450.69 949.24 450.69 947.02 450.92 944.81 451.15 942.6 451.38 940.4 451.62 938.21 451.85 936.02 452.08 933.83 452.31 931.65 452.53 930.89 451.43 930.25 450.22 929.6 449 929.07 447.67 928.8 447.01 928.56 446.32 928.32 445.63 928.11 444.92 927.9 444.2 927.71 443.46 927.52 442.71 927.36 441.95 927.36 441.95 927.36 441.95 927.19 441.15 927.06 440.38 926.93 439.61 926.83 438.88 926.74 438.14 926.69 437.44 926.63 436.74 926.61 436.08 926.58 434.75 926.7 433.55 926.82 432.35 927.11 431.29 927.11 431.29 927.11 431.29 925.01 431.38 922.91 431.48 920.81 431.57 918.72 431.66 916.63 431.75 914.54 431.84 912.46 431.93 910.38 432.01 909.58 430.87 908.89 429.61 908.2 428.36 907.62 427 907.33 426.32 907.07 425.61 906.8 424.9 906.57 424.17 906.33 423.44 906.12 422.68 905.91 421.92 905.73 421.14 905.73 421.14 905.73 421.14 905.53 420.32 905.38 419.54 905.23 418.76 905.11 418.01 905 417.27 904.92 416.56 904.84 415.85 904.81 415.18 904.73 413.84 904.81 412.64 904.89 411.44 905.12 410.39 905.12 410.39 905.12 410.39 903.5 410.33 901.87 410.27 900.24 410.2 898.62 410.14 897 410.08 895.38 410.01 893.76 409.94 892.15 409.88 890.53 409.81 888.92 409.74 887.31 409.67 885.7 409.6 884.09 409.53 882.48 409.45 880.88 409.38 879.27 409.31 877.67 409.23 876.07 409.15 874.47 409.08 872.87 409 871.27 408.92 869.68 408.84 868.08 408.76 866.49 408.67 864.9 408.59 863.31 408.51 861.72 408.42 860.13 408.34 858.54 408.25 856.96 408.16 855.37 408.07 853.79 407.98 854.41 409.29 854.92 410.75 855.43 412.2 855.83 413.81 856.02 414.61 856.2 415.46 856.37 416.3 856.51 417.18 856.65 418.06 856.76 418.98 856.88 419.89 856.96 420.85 856.96 420.85 856.96 420.85 857.04 421.77 857.08 422.66 857.13 423.54 857.14 424.4 857.14 425.26 857.12 426.09 857.09 426.92 857.02 427.72 856.89 429.33 856.61 430.81 856.33 432.31 855.91 433.68 855.91 433.68 855.91 433.68 856.55 434.96 857.06 436.4 857.59 437.84 857.99 439.44 858.19 440.24 858.36 441.08 858.53 441.92 858.67 442.8 858.81 443.68 858.92 444.6 859.03 445.52 859.11 446.49 859.11 446.49 859.11 446.49 859.18 447.41 859.22 448.31 859.26 449.2 859.26 450.07 859.27 450.94 859.23 451.78 859.2 452.62 859.12 453.43 858.98 455.06 858.68 456.58 858.39 458.1 857.94 459.51 857.94 459.51 857.94 459.51 858.61 460.75 859.15 462.17 859.69 463.57 860.11 465.15 860.32 465.94 860.49 466.77 860.67 467.6 860.82 468.47 860.97 469.34 861.09 470.25 861.21 471.17 861.3 472.12 861.3 472.12 861.3 472.12 861.39 473.03 861.44 473.92 861.49 474.81 861.5 475.67 861.51 476.53 861.49 477.36 861.47 478.19 861.41 479 861.29 480.62 861.02 482.14 860.76 483.67 860.32 484.9 860.32 484.9 860.32 484.9 857.48 485.02 854.63 485.13 851.78 485.25 848.95 485.64 846.13 486.04 843.3 486.45 840.47 486.83 837.64 487.19 834.81 487.56 831.97 487.92 829.14 488.21 826.3 488.51 823.47 488.8 820.63 489.05 819.21 489.17 817.79 489.28 816.38 489.39 814.96 489.51 814.3 488.29 813.83 486.69 813.37 485.08 813.05 483.32 812.89 482.44 812.77 481.53 812.64 480.61 812.55 479.67 812.46 478.72 812.4 477.74 812.34 476.76 812.31 475.74 812.31 475.74 812.31 475.74 812.28 474.68 812.29 473.67 812.3 472.65 812.34 471.68 812.38 470.71 812.46 469.78 812.53 468.86 812.64 467.97 812.86 466.21 813.22 464.62 813.58 463.03 814.07 461.61 814.07 461.61 814.07 461.61 813.5 460.12 813.05 458.49 812.61 456.86 812.3 455.1 812.14 454.22 812.02 453.3 811.89 452.39 811.8 451.44 811.71 450.49 811.67 449.51 811.64 448.53 811.64 447.51 811.64 447.51 811.64 447.51 811.64 446.45 811.67 445.44 811.7 444.43 811.77 443.46 811.83 442.49 811.93 441.56 812.03 440.64 812.16 439.76 812.42 438 812.8 436.43 813.19 434.85 813.7 433.46 813.7 433.46 813.7 433.46 813.18 431.95 812.79 430.3 812.4 428.66 812.15 426.89 812.02 426 811.92 425.08 811.83 424.16 811.76 423.21 811.7 422.26 811.67 421.28 811.63 420.3 811.63 419.28 811.63 419.28 811.63 419.28 811.63 418.23 811.66 417.21 811.7 416.2 811.76 415.23 811.82 414.27 811.92 413.35 812.01 412.43 812.13 411.55 812.38 409.81 812.76 408.25 813.13 406.69 813.62 405.32 813.62 405.32 813.62 405.32 813.12 403.79 812.74 402.13 812.37 400.47 812.12 398.69 812 397.79 811.91 396.87 811.81 395.95 811.75 394.99 811.69 394.04 811.66 393.05 811.63 392.07 811.63 391.06 811.63 391.06 811.63 391.06 811.63 390 811.66 388.99 811.69 387.97 811.75 387.01 811.81 386.05 811.9 385.13 811.99 384.22 812.11 383.35 812.35 381.62 812.7 380.07 813.06 378.53 813.53 377.19 813.53 377.19 813.53 377.19 813.05 375.63 812.69 373.95 812.33 372.28 812.1 370.48 811.98 369.58 811.89 368.65 811.8 367.73 811.74 366.77 811.68 365.81 811.65 364.83 811.62 363.84 811.62 362.83 811.62 362.83 811.62 362.83 811.62 361.77 811.65 360.76 811.68 359.75 811.74 358.79 811.8 357.83 811.88 356.92 811.97 356.01 812.08 355.14 812.31 353.42 812.65 351.9 812.99 350.37 813.44 349.05 813.44 349.05 813.44 349.05 812.99 347.47 812.64 345.78 812.3 344.08 812.07 342.27 811.96 341.37 811.87 340.44 811.79 339.51 811.73 338.55 811.67 337.59 811.65 336.6 811.62 335.61 811.62 334.6 811.62 334.6 811.62 334.6 811.62 333.54 811.65 332.53 811.67 331.52 811.73 330.57 811.78 329.61 811.87 328.7 811.95 327.79 812.06 326.94 812.28 325.22 812.6 323.71 812.93 322.2 813.36 320.9 813.36 320.9 813.36 320.9 812.92 319.3 812.6 317.59 812.27 315.88 812.05 314.06 811.94 313.15 811.86 312.22 811.78 311.28 811.72 310.32 811.67 309.36 811.64 308.37 811.61 307.38 811.61 306.37 811.61 306.37 811.61 306.37 811.61 305.31 811.64 304.3 811.67 303.29 811.72 302.34 811.77 301.38 811.85 300.48 811.93 299.57 812.04 298.72 812.25 297.01 812.56 295.52 812.84 294.04 813.14 292.86 813.14 292.86 813.14 292.86 814.81 293.53 816.47 294.19 818.14 294.86 819.8 295.55 821.46 296.23 823.12 296.91 824.77 297.61 826.43 298.31 828.08 299.01 829.73 299.72 831.38 300.43 833.02 301.15 834.67 301.87 836.3 302.61 837.94 303.34 839.58 304.08 841.21 304.83 842.84 305.58 844.47 306.33 846.1 307.09 847.72 307.86 849.34 308.64 850.96 309.41 852.57 310.2 854.18 310.99 855.8 311.78 857.4 312.58 859 313.39 860.61 314.2 862.21 315.02 863.8 315.85 865.39 316.67 866.98 317.5 868.57 318.35 870.15 319.2 871.73 320.05 873.31 320.91 874.88 321.78 876.45 322.65 878.02 323.52 879.58 324.41 881.14 325.3 882.7 326.19 884.25 327.09 885.79 328.01 887.34 328.92 888.88 329.83 890.42 330.77 891.95 331.7 893.48 332.64 895 333.59 896.52 334.55 898.04 335.5 899.56 336.47 901.06 337.45 902.57 338.42 904.07 339.4 905.56 340.41 907.05 341.41 908.54 342.41 910.02 343.43 911.49 344.45 912.97 345.48 914.44 346.51 915.12 347.81 915.79 349.15 916.51 350.45 917.23 351.76 917.61 352.4 917.99 353.04 918.39 353.67 918.79 354.29 919.19 354.91 919.6 355.53 920.02 356.14 920.44 356.76 920.44 356.76 920.44 356.76 920.85 357.35 921.23 357.89 921.61 358.44 921.95 358.94 922.3 359.45 922.61 359.92 922.93 360.4 923.2 360.84 923.75 361.72 924.15 362.49 924.54 363.26 924.78 363.93 924.78 363.93 924.78 363.93 926.84 364.67 928.91 365.39 931.01 366.09 933.13 366.77 935.28 367.42 937.45 368.04 939.65 368.64 941.87 369.2 943.02 369.96 944.16 370.77 945.29 371.58 946.41 372.44 946.97 372.87 947.51 373.32 948.06 373.78 948.59 374.24 949.01 374.69 949.49 375.16 949.96 375.63 950.48 376.12 950.48 376.12 950.48 376.12 950.98 376.6 951.5 377.07 952 377.54 952.52 378 952.92 378.45 953.27 378.87 953.63 379.3 953.94 379.7 954.55 380.51 954.98 381.23 955.4 381.97 955.63 382.63 955.63 382.63 955.63 382.63 953.24 382.24 950.86 381.85 948.49 381.44 946.13 381.03 947.23 381.84 948.3 382.73 949.36 383.61 950.38 384.57 950.89 385.04 951.39 385.54 951.89 386.04 952.38 386.56 952.86 387.07 953.34 387.61 953.81 388.15 954.27 388.71 954.27 388.71 954.27 388.71 954.71 389.25 955.1 389.77 955.49 390.28 955.84 390.78 956.18 391.28 956.48 391.76 956.77 392.24 957.02 392.71 957.51 393.63 957.81 394.48 958.11 395.34 958.21 396.12 958.21 396.12 958.21 396.12 956.31 395.94 954.41 395.76 952.51 395.59 950.62 395.4 948.73 395.22 946.84 395.03 944.95 394.84 943.07 394.65 941.19 394.46 939.32 394.26 937.45 394.06 935.58 393.85 933.72 393.65 931.86 393.44 930.01 393.23 928.16 393.01 929.11 393.97 929.99 395.02 930.88 396.08 931.7 397.23 932.11 397.8 932.5 398.41 932.89 399.01 933.26 399.63 933.63 400.26 933.98 400.92 934.33 401.57 934.66 402.25 934.66 402.25 934.66 402.25 934.97 402.91 935.24 403.54 935.51 404.17 935.74 404.79 935.96 405.4 936.14 405.99 936.32 406.58 936.45 407.15 936.71 408.29 936.8 409.35 936.87 410.41 936.77 411.39 936.77 411.39 936.77 411.39 939.44 411.46 942.11 411.53 944.79 411.6 947.48 411.66 948.45 412.57 949.35 413.59 950.24 414.61 951.05 415.73 951.46 416.3 951.84 416.89 952.22 417.48 952.58 418.11 952.93 418.73 953.26 419.38 953.6 420.03 953.9 420.72 953.9 420.72 953.9 420.72 954.19 421.37 954.44 422.01 954.68 422.64 954.88 423.26 955.07 423.88 955.22 424.48 955.36 425.08 955.46 425.66 955.65 426.83 955.66 427.92 955.65 429.02 955.46 430.04 955.46 430.04 955.46 430.04 957.61 429.95 959.76 429.86 961.91 429.78 964.07 429.69 966.22 429.61 968.38 429.52 970.53 429.45 972.69 429.37 973.67 430.24 974.56 431.23 975.43 432.21 976.21 433.32 976.6 433.88 976.96 434.46 977.32 435.05 977.65 435.66 977.98 436.28 978.28 436.93 978.58 437.58 978.84 438.26 978.84 438.26 978.84 438.26 979.1 438.91 979.3 439.55 979.5 440.19 979.66 440.81 979.8 441.43 979.9 442.04 980 442.64 980.05 443.23 980.13 444.42 980.01 445.53 979.87 446.66 979.54 447.71 979.54 447.71 979.54 447.71 979.54 447.71 979.54 447.71M918.34 391.82Q917.42 390.75 916.58 389.6 915.74 388.45 914.98 387.22 914.6 386.61 914.25 385.98 913.89 385.35 913.55 384.7 913.21 384.05 912.89 383.38 912.57 382.72 912.26 382.04 912.26 382.04 912.26 382.04 911.95 381.32 911.67 380.65 911.4 379.97 911.16 379.33 910.93 378.69 910.73 378.09 910.54 377.49 910.38 376.93 910.07 375.8 909.91 374.82 909.76 373.85 909.76 373.02 909.76 373.02 909.76 373.02 908.85 371.91 908.02 370.74 907.19 369.56 906.43 368.32 906.05 367.69 905.69 367.05 905.33 366.41 904.99 365.76 904.64 365.1 904.32 364.43 903.99 363.76 903.68 363.07 903.68 363.07 903.68 363.07 903.36 362.36 903.08 361.68 902.8 361 902.55 360.35 902.31 359.71 902.11 359.11 901.91 358.5 901.74 357.94 901.41 356.81 901.24 355.83 901.06 354.86 901.03 354.05 901.03 354.05 901.03 354.05 899.34 353.3 897.64 352.55 895.95 351.8 894.26 351.05 892.57 350.3 890.88 349.55 889.2 348.8 887.51 348.05 885.82 347.31 884.13 346.56 882.44 345.83 880.75 345.09 879.06 344.35 877.36 343.62 875.67 342.9 873.97 342.17 872.27 341.45 870.58 340.74 868.87 340.02 867.17 339.32 865.46 338.61 863.75 337.91 862.04 337.22 860.33 336.53 858.61 335.85 856.89 335.17 855.17 334.49 853.44 333.82 851.71 333.16 849.98 332.5 848.24 331.85 846.49 331.2 847.03 332.63 847.48 334.19 847.93 335.73 848.3 337.4 848.49 338.24 848.65 339.1 848.82 339.97 848.96 340.86 849.11 341.76 849.23 342.68 849.35 343.61 849.45 344.56 849.45 344.56 849.45 344.56 849.55 345.48 849.61 346.36 849.68 347.24 849.72 348.08 849.75 348.92 849.76 349.72 849.76 350.52 849.74 351.29 849.69 352.83 849.51 354.22 849.34 355.61 849.03 356.86 849.03 356.86 849.03 356.86 849.6 358.24 850.07 359.76 850.54 361.27 850.93 362.91 851.12 363.73 851.29 364.58 851.45 365.44 851.6 366.32 851.75 367.21 851.87 368.12 851.99 369.04 852.09 369.99 852.09 369.99 852.09 369.99 852.18 370.91 852.24 371.78 852.3 372.66 852.33 373.5 852.36 374.34 852.36 375.15 852.35 375.96 852.32 376.74 852.24 378.29 852.03 379.7 851.82 381.12 851.48 382.41 851.48 382.41 851.48 382.41 853.55 382.71 855.62 383.01 857.69 383.31 859.76 383.61 861.83 383.91 863.9 384.21 865.97 384.51 868.04 384.81 870.11 385.12 872.18 385.42 874.26 385.72 876.33 386.02 878.41 386.32 880.49 386.63 882.57 386.93 884.65 387.23 886.73 387.53 888.82 387.82 890.91 388.12 893 388.42 895.09 388.71 897.19 389 899.29 389.3 901.39 389.59 903.5 389.87 905.61 390.16 907.72 390.44 909.84 390.72 911.96 391 914.08 391.28 916.21 391.55 918.34 391.82 918.34 391.82 918.34 391.82"></path><path fill="#c88087" d="M255.96 697.71Q256.55 699.2 256.99 700.84 257.44 702.49 257.73 704.27 257.88 705.16 257.99 706.09 258.1 707.01 258.17 707.97 258.1 708.9 258.06 709.88 258.02 710.86 258.02 711.9 258.02 711.9 258.02 711.9 258.02 712.89 258.06 713.85 258.1 714.81 258.17 715.76 258.1 716.66 257.99 717.53 257.88 718.4 257.74 719.22 257.45 720.88 257.02 722.36 256.61 723.83 256.12 724.89 256.12 724.89 256.12 724.89 253.76 724.14 251.48 723.42 249.48 722.77 247.48 722.13 245.27 721.4 242.91 720.61 240.56 719.82 238.55 719.13 236.55 718.44 234.44 717.71 232.09 716.88 229.74 716.05 227.64 715.29 225.65 714.56 223.64 713.82 221.3 712.94 218.96 712.06 216.77 711.23 214.78 710.46 212.79 709.69 210.54 708.8 208.21 707.87 205.88 706.93 203.56 705.98 201.24 705.02 199.1 704.13 197.13 703.29 195.15 702.45 193.18 701.59 191.2 700.73 189.14 699.83 186.85 698.8 184.55 697.76 182.46 696.81 180.49 695.9 178.52 694.99 176.56 694.05 174.59 693.12 172.52 692.12 170.25 691 167.98 689.89 165.73 688.76 163.47 687.62 161.25 686.49 159.31 685.47 157.36 684.45 155.42 683.42 153.48 682.38 151.54 681.34 149.38 680.14 147.17 678.91 145.01 677.71 143.09 676.61 141.17 675.51 139.25 674.39 137.34 673.25 135.42 672.12 133.28 670.82 131.12 669.5 129.05 668.22 127.16 667.03 125.27 665.83 123.38 664.62 121.51 663.4 120.4 662.29 118.95 661.3 117.43 660.38 115.93 659.45 115.18 658.99 114.49 658.56 113.88 658.17 113.29 657.79 112.7 657.41 112.13 657.03 111.57 656.64 111.01 656.26 111.01 656.26 111.01 656.26 110.44 655.86 109.88 655.45 109.23 654.96 108.64 654.5 108.05 654.04 107.53 653.61 107.01 653.17 106.56 652.77 105.66 651.97 105.04 651.28 104.43 650.58 104.1 650 104.1 650 104.1 650 102.51 649.11 101 648.2 99.6 647.37 98.36 646.56 97.74 646.16 97.13 645.76 96.53 645.36 95.95 644.95 95.37 644.54 94.72 644.04 94.05 643.52 93.39 642.98 93.39 642.98 93.39 642.98 92.7 642.43 92.08 641.9 91.46 641.37 90.91 640.88 90.36 640.38 89.97 639.98 89.6 639.59 89.3 639.22 88.69 638.49 88.32 637.85 87.94 637.19 87.74 636.55 87.74 636.55 87.74 636.55 86.19 635.65 84.7 634.69 83.2 633.72 81.79 632.71 81.13 632.24 80.53 631.8 79.94 631.35 79.38 630.89 78.81 630.44 78.26 629.98 77.72 629.51 77.2 629.04 77.2 629.04 77.2 629.04 76.62 628.5 76.05 627.92 75.48 627.35 74.98 626.8 74.48 626.25 74.04 625.73 73.61 625.22 73.25 624.73 72.54 623.74 72.12 622.86 71.71 621.98 71.57 621.22 71.57 621.22 71.57 621.22 70.04 620.29 68.65 619.34 67.33 618.45 66.13 617.52 65.53 617.05 64.95 616.57 64.38 616.1 63.83 615.6 63.22 615.03 62.64 614.43 62.05 613.83 61.49 613.22 61.49 613.22 61.49 613.22 60.9 612.58 60.38 611.96 59.86 611.35 59.42 610.77 59.05 610.25 58.75 609.76 58.45 609.27 58.22 608.8 57.75 607.86 57.53 607.02 57.29 606.1 57.28 605.25 57.28 605.25 57.28 605.25 55.8 604.28 54.42 603.23 53.04 602.17 51.78 601.04 51.16 600.46 50.57 599.87 49.98 599.28 49.41 598.67 48.85 598.06 48.32 597.43 47.78 596.8 47.29 596.14 47.29 596.14 47.29 596.14 46.79 595.45 46.35 594.79 45.91 594.13 45.55 593.5 45.18 592.87 44.88 592.27 44.58 591.68 44.4 591.15 44.12 590.21 44.11 589.37 44.09 588.53 44.32 587.74 44.32 587.74 44.32 587.74 43 586.88 41.75 585.82 40.48 584.72 39.33 583.53 38.75 582.93 38.21 582.31 37.67 581.69 37.19 581.04 36.7 580.39 36.25 579.72 35.8 579.04 35.38 578.34 35.38 578.34 35.38 578.34 34.94 577.62 34.57 576.92 34.21 576.22 33.93 575.54 33.65 574.87 33.44 574.22 33.23 573.57 33.09 572.95 32.81 571.71 32.8 570.59 32.83 569.45 33.13 568.43 33.13 568.43 33.13 568.43 31.8 567.39 30.63 566.25 29.46 565.12 28.48 563.87 27.99 563.25 27.54 562.6 27.08 561.95 26.67 561.28 26.26 560.61 25.88 559.91 25.53 559.21 25.22 558.47 25.22 558.47 25.22 558.47 24.9 557.71 24.65 556.98 24.4 556.24 24.22 555.54 24.03 554.83 23.92 554.15 23.83 553.47 23.82 552.81 23.82 551.48 24.17 550.23 24.7 548.92 26.01 547.49 26.01 547.49 26.01 547.49 31.96 546.57 37.21 545.89 39.19 545.77 41.16 545.66 43.13 545.54 45.1 545.42 49.03 545.19 52.96 544.96 56.9 544.72 60.83 544.49 64.76 544.26 68.69 544.03 72.62 543.8 76.55 543.57 80.49 543.34 84.42 543.1 88.35 542.86 92.28 542.61 93.28 543.75 94.11 545.03 94.95 546.32 95.62 547.75 95.96 548.47 96.26 549.23 96.56 549.98 96.82 550.77 97.09 551.56 97.31 552.39 97.54 553.21 97.73 554.07 97.73 554.07 97.73 554.07 97.92 554.9 98.05 555.69 98.19 556.49 98.28 557.26 98.37 558.03 98.4 558.77 98.44 559.51 98.42 560.23 98.4 561.65 98.17 562.97 97.94 564.29 97.49 565.5 97.49 565.5 97.49 565.5 98.63 566.57 99.61 567.78 100.6 568.98 101.45 570.33 101.87 571.01 102.26 571.71 102.65 572.42 103 573.16 103.36 573.9 103.69 574.68 104.01 575.45 104.3 576.26 104.3 576.26 104.3 576.26 104.58 577.03 104.81 577.77 105.04 578.52 105.21 579.24 105.38 579.96 105.5 580.65 105.62 581.34 105.69 582 105.82 583.33 105.74 584.55 105.66 585.77 105.36 586.88 105.36 586.88 105.36 586.88 106.56 587.91 107.63 589.07 108.7 590.23 109.63 591.52 110.1 592.16 110.54 592.84 110.98 593.51 111.39 594.22 111.79 594.93 112.17 595.66 112.55 596.4 112.9 597.17 112.9 597.17 112.9 597.17 113.23 597.9 113.51 598.61 113.8 599.31 114.02 600 114.25 600.67 114.42 601.33 114.6 601.98 114.72 602.61 114.96 603.85 114.99 604.99 115.02 606.13 114.84 607.16 114.84 607.16 114.84 607.16 116.06 608.18 117.16 609.32 118.27 610.46 119.26 611.71 119.75 612.34 120.22 612.99 120.68 613.65 121.12 614.33 121.56 615.01 121.98 615.72 122.39 616.43 122.78 617.16 122.78 617.16 122.78 617.16 123.16 617.87 123.48 618.54 123.8 619.22 124.07 619.86 124.34 620.51 124.55 621.13 124.77 621.74 124.93 622.33 125.27 623.51 125.39 624.57 125.53 625.62 125.45 626.56 125.45 626.56 125.45 626.56 126.66 627.59 127.78 628.71 128.89 629.84 129.9 631.07 130.41 631.69 130.9 632.33 131.38 632.96 131.84 633.63 132.3 634.29 132.74 634.98 133.18 635.66 133.6 636.37 133.6 636.37 133.6 636.37 134 637.04 134.35 637.69 134.71 638.34 135.01 638.96 135.31 639.57 135.56 640.16 135.81 640.75 136.01 641.3 136.42 642.41 136.63 643.4 136.84 644.38 136.86 645.23 136.86 645.23 136.86 645.23 138.04 646.28 139.13 647.42 140.23 648.56 141.24 649.79 141.74 650.41 142.23 651.04 142.71 651.68 143.18 652.34 143.64 653 144.09 653.68 144.53 654.36 144.96 655.07 144.96 655.07 144.96 655.07 145.37 655.74 145.73 656.38 146.1 657.03 146.41 657.64 146.72 658.25 146.99 658.83 147.25 659.42 147.47 659.96 147.91 661.06 148.16 662.03 148.42 662.99 148.49 663.82 148.49 663.82 148.49 663.82 150.13 664.42 151.78 665.02 153.42 665.62 155.06 666.22 156.69 666.82 158.33 667.42 159.97 668.02 161.6 668.62 163.23 669.22 164.86 669.82 166.5 670.41 168.13 671.01 169.76 671.6 171.39 672.19 173.02 672.78 174.65 673.37 176.28 673.96 177.91 674.54 179.54 675.12 181.18 675.7 182.81 676.28 184.45 676.85 186.08 677.43 187.72 678 189.36 678.56 191 679.13 192.64 679.69 194.28 680.25 195.93 680.8 197.57 681.35 199.22 681.9 200.87 682.45 202.53 682.99 204.18 683.53 205.84 684.06 207.5 684.6 209.17 685.13 210.83 685.65 212.5 686.17 214.18 686.69 215.85 687.2 217.53 687.71 219.22 688.22 220.91 688.72 222.6 689.22 224.3 689.71 226 690.2 227.71 690.68 229.42 691.16 231.14 691.63 232.86 692.1 234.59 692.57 236.33 693.03 238.07 693.48 239.82 693.93 241.58 694.37 243.35 694.81 245.12 695.24 246.91 695.67 248.7 696.09 250.5 696.5 252.31 696.91 254.13 697.31 255.96 697.71 255.96 697.71 255.96 697.71M426.77 721.2Q431.05 721.62 435.32 722.03 439.59 722.44 443.87 722.84 448.14 723.23 452.42 723.61 456.7 723.98 460.97 724.35 465.25 724.71 469.53 725.07 473.81 725.42 478.09 725.76 482.37 726.1 486.65 726.44 490.93 726.77 495.21 727.1 496.35 728.91 497.2 730.91 498.06 732.91 498.63 735.1 498.91 736.2 499.13 737.34 499.34 738.49 499.49 739.68 499.4 740.86 499.33 742.09 499.26 743.32 499.26 744.61 499.26 744.61 499.26 744.61 499.26 745.84 499.33 747.04 499.4 748.25 499.49 749.41 499.34 750.55 499.13 751.65 498.91 752.76 498.63 753.81 498.06 755.93 497.2 757.88 496.34 759.86 495.16 761.53 495.16 761.53 495.16 761.53 491.58 761.46 487.98 761.38 484.38 761.28 480.78 761.18 477.16 761.05 473.55 760.91 469.93 760.76 466.3 760.6 462.67 760.42 459.04 760.22 455.4 760.02 451.76 759.79 448.11 759.56 444.47 759.31 441.28 759.08 438.1 758.84 434.48 758.55 430.86 758.25 427.23 757.93 423.59 757.59 419.95 757.25 416.31 756.89 412.66 756.51 409.01 756.12 405.35 755.71 401.7 755.29 398.39 754.89 395.14 754.49 391.9 754.08 388.46 753.62 384.81 753.13 381.16 752.62 377.51 752.1 373.85 751.56 370.19 751 366.53 750.43 362.87 749.83 359.21 749.23 356 748.68 352.69 748.11 349.03 747.46 345.64 746.84 342.47 746.25 338.9 745.56 335.23 744.85 331.56 744.11 327.9 743.36 324.23 742.59 320.56 741.8 316.91 741 313.76 740.29 310.46 739.54 306.8 738.69 303.46 737.89 300.33 737.13 296.73 736.24 293.07 735.32 289.4 734.37 285.74 733.4 282.08 732.42 278.85 731.53 275.7 730.66 272.06 729.62 268.61 728.63 267.78 726.85 266.97 725.01 266.08 723.23 265.44 721.39 265.12 720.47 264.86 719.53 264.6 718.6 264.41 717.64 264.22 716.69 264.09 715.71 263.97 714.73 263.92 713.73 263.92 713.73 263.92 713.73 263.86 712.69 263.87 711.7 263.89 710.71 263.97 709.78 264.06 708.84 264.22 707.95 264.38 707.07 264.62 706.24 265.09 704.57 265.85 703.11 266.61 701.65 267.67 700.4 267.67 700.4 267.67 700.4 271.93 700.95 276.2 701.5 280.47 702.07 284.73 702.65 289 703.24 293.26 703.84 297.53 704.44 301.79 705.05 306.05 705.66 310.31 706.28 314.57 706.9 318.83 707.51 323.08 708.13 327.34 708.75 331.59 709.36 335.85 709.97 334.7 708.12 333.82 706.17 332.95 704.24 332.35 702.21 332.06 701.2 331.83 700.17 331.61 699.14 331.45 698.08 331.3 697.03 331.21 695.95 331.13 694.88 331.12 693.78 331.12 693.78 331.12 693.78 331.11 692.63 331.17 691.54 331.23 690.45 331.36 689.42 331.49 688.39 331.7 687.42 331.91 686.44 332.19 685.53 332.74 683.69 333.59 682.08 334.44 680.46 335.57 679.06 335.57 679.06 335.57 679.06 334.42 677.34 333.56 675.51 332.7 673.68 332.12 671.75 331.83 670.79 331.61 669.8 331.4 668.81 331.25 667.79 331.11 666.77 331.03 665.72 330.96 664.68 330.96 663.6 330.96 663.6 330.96 663.6 330.95 662.48 331.02 661.41 331.09 660.34 331.23 659.33 331.37 658.31 331.59 657.35 331.8 656.38 332.08 655.47 332.65 653.64 333.5 652.02 334.36 650.4 335.5 648.97 335.5 648.97 335.5 648.97 334.35 647.31 333.49 645.53 332.64 643.75 332.06 641.86 331.78 640.91 331.56 639.93 331.35 638.95 331.2 637.95 331.06 636.94 330.99 635.9 330.92 634.86 330.91 633.8 330.91 633.8 330.91 633.8 330.91 632.68 330.98 631.62 331.05 630.55 331.19 629.53 331.34 628.52 331.55 627.55 331.76 626.59 332.05 625.67 332.61 623.83 333.47 622.19 334.32 620.54 335.46 619.09 335.46 619.09 335.46 619.09 334.32 617.47 333.46 615.72 332.6 613.98 332.03 612.1 331.74 611.17 331.53 610.2 331.31 609.23 331.17 608.23 331.02 607.23 330.95 606.2 330.88 605.16 330.88 604.1 330.88 604.1 330.88 604.1 330.87 602.98 330.94 601.92 331.01 600.85 331.15 599.84 331.29 598.82 331.51 597.85 331.72 596.87 332 595.95 332.57 594.1 333.42 592.43 334.27 590.76 335.41 589.28 335.41 589.28 335.41 589.28 334.26 587.69 333.4 585.97 332.54 584.26 331.97 582.4 331.68 581.47 331.47 580.51 331.25 579.55 331.11 578.55 330.96 577.56 330.89 576.53 330.81 575.49 330.81 574.43 330.81 574.43 330.81 574.43 330.8 573.31 330.87 572.25 330.94 571.18 331.08 570.15 331.22 569.13 331.43 568.15 331.64 567.17 331.92 566.23 332.48 564.36 333.33 562.66 334.17 560.95 335.31 559.42 335.31 559.42 335.31 559.42 331.04 559.54 326.77 559.66 322.51 559.78 318.24 559.89 313.98 560 309.71 560.1 305.44 560.2 301.18 560.3 296.91 560.39 292.65 560.47 288.38 560.55 284.11 560.62 279.84 560.69 275.58 560.75 271.31 560.79 267.04 560.83 265.91 559.36 265.06 557.76 264.21 556.16 263.65 554.43 263.36 553.56 263.15 552.66 262.94 551.76 262.8 550.83 262.66 549.9 262.59 548.93 262.52 547.97 262.52 546.97 262.52 546.97 262.52 546.97 262.52 545.93 262.59 544.93 262.66 543.93 262.8 542.97 262.94 542.01 263.15 541.09 263.36 540.18 263.65 539.3 264.21 537.54 265.06 535.95 265.9 534.33 267.03 532.79 267.03 532.79 267.03 532.79 270.57 532.57 274.12 532.31 277.66 532.04 281.21 531.77 284.75 531.5 288.3 531.23 291.84 530.95 295.39 530.68 298.93 530.41 302.48 530.2 306.03 530.15 309.59 530.11 313.14 530.02 316.69 529.88 320.24 529.73 323.78 529.49 327.33 529.21 330.87 528.94 334.41 528.64 337.96 528.35 341.5 528.1 345.06 528.1 348.61 528.09 352.16 528.01 355.71 527.82 359.26 527.62 362.8 527.44 366.35 527.28 369.9 527.12 373.45 527.03 377 526.95 380.55 526.86 384.1 526.54 387.64 526.22 391.18 525.91 394.72 525.62 398.26 525.32 401.81 525.17 405.37 525.13 408.92 525.1 412.47 524.92 416.01 524.69 419.56 524.47 423.11 524.33 426.66 524.2 430.21 524.07 433.76 523.92 437.3 523.78 440.85 523.61 444.4 523.39 447.94 523.17 451.49 523.03 455.04 522.93 458.59 522.83 462.14 522.59 465.68 522.33 469.22 522.09 472.78 522.03 476.33 521.98 479.88 521.84 483.42 521.54 486.96 521.23 490.51 521.09 494.06 521.08 495.24 522.81 496.14 524.75 497.04 526.67 497.66 528.82 497.97 529.89 498.21 531.01 498.45 532.14 498.62 533.32 498.57 534.5 498.53 535.74 498.49 536.98 498.52 538.27 498.52 538.27 498.52 538.27 498.55 539.5 498.65 540.7 498.75 541.89 498.86 543.05 498.74 544.2 498.56 545.32 498.37 546.44 498.11 547.51 497.59 549.67 496.78 551.66 495.97 553.65 494.87 555.49 494.87 555.49 494.87 555.49 490.59 555.52 486.3 555.56 482.01 555.61 477.73 555.66 473.44 555.72 469.16 555.79 464.88 555.86 460.59 555.94 456.31 556.03 452.03 556.11 447.75 556.21 443.47 556.3 439.2 556.41 434.92 556.51 430.64 556.62 426.37 556.73 427.53 558.34 428.41 560.15 429.29 561.98 429.88 564.01 430.18 565.03 430.4 566.1 430.63 567.17 430.78 568.3 430.94 569.42 431.02 570.6 431.1 571.78 431.11 573.01 431.11 573.01 431.11 573.01 431.12 574.18 431.06 575.32 431 576.46 430.86 577.57 430.73 578.67 430.52 579.73 430.31 580.79 430.03 581.82 429.47 583.86 428.63 585.75 427.78 587.64 426.64 589.38 426.64 589.38 426.64 589.38 427.79 591.01 428.66 592.85 429.52 594.69 430.1 596.74 430.38 597.77 430.6 598.84 430.82 599.92 430.96 601.05 431.11 602.17 431.18 603.35 431.26 604.53 431.26 605.75 431.26 605.75 431.26 605.75 431.26 606.93 431.19 608.07 431.12 609.2 430.98 610.3 430.84 611.4 430.63 612.45 430.42 613.51 430.14 614.52 429.57 616.55 428.71 618.42 427.86 620.28 426.72 621.98 426.72 621.98 426.72 621.98 427.87 623.65 428.72 625.51 429.58 627.38 430.16 629.45 430.44 630.48 430.66 631.56 430.87 632.64 431.02 633.77 431.16 634.91 431.23 636.09 431.3 637.27 431.31 638.5 431.31 638.5 431.31 638.5 431.31 639.67 431.24 640.81 431.17 641.95 431.03 643.04 430.88 644.13 430.67 645.19 430.46 646.24 430.17 647.25 429.61 649.27 428.75 651.11 427.9 652.96 426.76 654.63 426.76 654.63 426.76 654.63 427.9 656.34 428.76 658.23 429.62 660.13 430.19 662.22 430.47 663.26 430.69 664.36 430.9 665.45 431.05 666.59 431.19 667.73 431.26 668.92 431.34 670.11 431.34 671.35 431.34 671.35 431.34 671.35 431.34 672.53 431.27 673.67 431.2 674.81 431.06 675.91 430.91 677.01 430.7 678.06 430.49 679.12 430.2 680.13 429.64 682.15 428.78 683.99 427.93 685.84 426.79 687.5 426.79 687.5 426.79 687.5 427.93 689.26 428.79 691.2 429.65 693.14 430.22 695.28 430.5 696.34 430.72 697.46 430.93 698.58 431.07 699.74 431.22 700.9 431.29 702.12 431.36 703.33 431.36 704.59 431.36 704.59 431.36 704.59 431.36 705.81 431.29 706.97 431.21 708.14 431.07 709.26 430.93 710.39 430.71 711.47 430.5 712.55 430.21 713.59 429.64 715.67 428.78 717.57 427.92 719.47 426.77 721.2 426.77 721.2 426.77 721.2 426.77 721.2 426.77 721.2M744.76 602.87Q745.49 604.41 746.04 606.16 746.59 607.91 746.95 609.88 747.14 610.87 747.27 611.91 747.41 612.95 747.5 614.05 747.41 615.16 747.37 616.32 747.32 617.48 747.32 618.68 747.32 618.68 747.32 618.68 747.32 619.84 747.37 620.95 747.41 622.06 747.5 623.13 747.41 624.22 747.27 625.28 747.14 626.33 746.96 627.36 746.59 629.4 746.05 631.32 745.5 633.24 744.77 635.03 744.77 635.03 744.77 635.03 745.5 636.55 746.05 638.3 746.59 640.05 746.96 642.02 747.14 643 747.27 644.04 747.41 645.08 747.5 646.17 747.41 647.29 747.37 648.45 747.32 649.61 747.32 650.81 747.32 650.81 747.32 650.81 747.32 651.96 747.37 653.07 747.41 654.18 747.5 655.25 747.41 656.34 747.27 657.4 747.14 658.46 746.96 659.48 746.59 661.54 746.05 663.46 745.51 665.39 744.78 667.19 744.78 667.19 744.78 667.19 742.06 667.53 739.35 667.87 736.63 668.21 733.91 668.55 731.19 668.9 728.48 669.24 725.76 669.59 723.05 669.94 723.78 671.47 724.33 673.23 724.87 675 725.24 676.99 725.43 677.98 725.57 679.03 725.71 680.08 725.8 681.19 725.9 682.3 725.95 683.47 726 684.63 726 685.86 726 685.86 726 685.86 726.01 687.03 725.97 688.18 725.93 689.32 725.84 690.43 725.76 691.55 725.63 692.63 725.5 693.71 725.32 694.76 724.97 696.87 724.45 698.86 723.92 700.85 723.21 702.72 723.21 702.72 723.21 702.72 720.97 703.08 718.73 703.45 716.48 703.82 714.24 704.19 711.99 704.56 709.75 704.94 707.51 705.31 705.26 705.68 703.02 706.05 700.78 706.42 698.53 706.8 696.29 707.17 694.05 707.53 691.8 707.9 689.56 708.27 687.31 708.63 688.06 710.26 688.64 712.15 689.22 714.04 689.63 716.18 689.83 717.26 690 718.41 690.16 719.56 690.28 720.77 690.4 721.99 690.48 723.28 690.56 724.58 690.6 725.94 690.6 725.94 690.6 725.94 690.63 727.26 690.63 728.54 690.62 729.83 690.57 731.09 690.52 732.35 690.42 733.59 690.32 734.83 690.17 736.04 689.86 738.47 689.35 740.77 688.79 743.07 687.99 745 687.99 745 687.99 745 684.75 745.63 681.42 746.27 677.7 746.96 673.98 747.63 670.26 748.29 666.97 748.86 663.64 749.42 659.92 750.03 656.21 750.62 652.49 751.2 648.78 751.76 645.07 752.31 641.37 752.83 637.66 753.34 633.97 753.83 630.59 754.27 627.3 754.68 623.99 755.08 620.51 755.49 616.8 755.92 613.09 756.32 609.39 756.71 605.69 757.09 602 757.45 598.31 757.79 594.62 758.12 590.94 758.43 587.26 758.73 583.76 759 580.62 759.23 577.11 759.47 573.4 759.72 572.57 758 571.87 755.85 571.18 753.69 570.66 751.34 570.41 750.17 570.2 748.95 570 747.74 569.84 746.48 569.68 745.22 569.57 743.92 569.45 742.63 569.38 741.29 569.38 741.29 569.38 741.29 569.31 739.89 569.29 738.56 569.27 737.23 569.3 735.95 569.33 734.68 569.41 733.47 569.49 732.26 569.62 731.11 569.88 728.8 570.34 726.72 570.8 724.64 571.45 722.78 571.45 722.78 571.45 722.78 569.16 722.97 566.87 723.15 564.58 723.33 562.29 723.51 559.99 723.68 557.7 723.86 555.4 724.03 553.1 724.2 550.79 724.37 548.49 724.54 546.18 724.7 543.87 724.87 541.56 725.03 539.25 725.2 536.94 725.36 534.62 725.52 533.77 723.72 533.1 721.73 532.43 719.75 531.95 717.6 531.71 716.53 531.51 715.41 531.32 714.29 531.18 713.13 531.04 711.96 530.94 710.76 530.86 709.55 530.82 708.3 530.82 708.3 530.82 708.3 530.78 707 530.79 705.75 530.81 704.5 530.88 703.3 530.95 702.1 531.07 700.95 531.19 699.8 531.36 698.7 531.7 696.5 532.23 694.51 532.76 692.51 533.48 690.72 533.48 690.72 533.48 690.72 530.71 690.95 527.93 691.18 525.16 691.41 522.38 691.64 519.61 691.87 516.84 692.1 514.07 692.33 511.3 692.56 510.56 690.78 510.01 688.83 509.46 686.88 509.09 684.75 508.9 683.68 508.76 682.57 508.63 681.47 508.53 680.31 508.44 679.16 508.4 677.97 508.35 676.77 508.35 675.53 508.35 675.53 508.35 675.53 508.35 674.24 508.4 672.99 508.44 671.74 508.53 670.55 508.63 669.35 508.76 668.21 508.9 667.06 509.08 665.97 509.45 663.78 510 661.79 510.55 659.8 511.28 658.01 511.28 658.01 511.28 658.01 510.55 656.24 510 654.29 509.45 652.34 509.08 650.21 508.9 649.15 508.76 648.04 508.62 646.93 508.53 645.78 508.44 644.62 508.4 643.43 508.35 642.23 508.35 640.99 508.35 640.99 508.35 640.99 508.35 639.69 508.4 638.45 508.44 637.2 508.53 636.01 508.62 634.81 508.76 633.67 508.9 632.52 509.08 631.43 509.45 629.24 509.99 627.25 510.54 625.27 511.27 623.48 511.27 623.48 511.27 623.48 510.54 621.71 509.99 619.75 509.44 617.8 509.08 615.67 508.9 614.61 508.76 613.5 508.62 612.39 508.53 611.23 508.44 610.08 508.39 608.88 508.35 607.69 508.35 606.45 508.35 606.45 508.35 606.45 508.35 605.15 508.39 603.91 508.44 602.66 508.53 601.47 508.62 600.27 508.76 599.13 508.9 597.98 509.08 596.89 509.44 594.7 509.99 592.72 510.53 590.74 511.26 588.95 511.26 588.95 511.26 588.95 513.99 588.75 516.72 588.54 519.45 588.34 522.18 588.13 524.91 587.93 527.64 587.72 530.37 587.52 533.09 587.32 532.36 585.55 531.81 583.6 531.26 581.65 530.9 579.53 530.71 578.47 530.57 577.36 530.44 576.26 530.34 575.11 530.25 573.96 530.2 572.77 530.15 571.58 530.15 570.34 530.15 570.34 530.15 570.34 530.15 569.05 530.19 567.81 530.23 566.58 530.32 565.39 530.41 564.2 530.54 563.06 530.68 561.93 530.86 560.84 531.21 558.67 531.75 556.71 532.29 554.74 533.01 552.98 533.01 552.98 533.01 552.98 535.28 552.83 537.54 552.69 539.8 552.54 542.06 552.4 544.33 552.26 546.59 552.11 548.85 551.97 551.11 551.83 553.37 551.68 555.63 551.54 557.89 551.4 560.15 551.26 562.41 551.12 564.67 550.98 566.93 550.83 569.19 550.69 568.45 548.94 567.89 547.02 567.33 545.1 566.95 543.02 566.76 541.97 566.61 540.89 566.46 539.8 566.36 538.68 566.26 537.55 566.2 536.38 566.15 535.22 566.13 534.01 566.13 534.01 566.13 534.01 566.12 532.75 566.15 531.54 566.18 530.34 566.26 529.18 566.33 528.02 566.45 526.92 566.57 525.81 566.74 524.76 567.07 522.64 567.58 520.72 568.09 518.78 568.78 517.04 568.78 517.04 568.78 517.04 572.38 516.92 575.98 516.8 579.58 516.59 583.17 516.35 586.76 516.1 590.36 515.91 593.96 515.72 597.55 515.54 601.15 515.36 604.75 515.18 608.34 514.95 611.93 514.66 615.52 514.37 619.12 514.25 622.72 514.17 626.32 514.08 629.91 513.71 633.49 513.35 637.08 513.06 640.68 512.95 644.28 512.84 647.88 512.64 651.47 512.39 655.07 512.14 658.66 511.89 662.25 511.64 665.84 511.41 669.44 511.29 673.04 511.17 676.64 510.96 680.22 510.59 683.8 510.23 684.57 511.86 685.17 513.72 685.77 515.56 686.2 517.6 686.42 518.61 686.59 519.68 686.77 520.75 686.9 521.87 687.03 522.99 687.12 524.16 687.21 525.33 687.26 526.56 687.26 526.56 687.26 526.56 687.31 527.73 687.31 528.87 687.31 530.01 687.26 531.11 687.22 532.21 687.12 533.28 687.03 534.35 686.89 535.38 686.61 537.45 686.14 539.37 685.66 541.3 685 543.08 685 543.08 685 543.08 687.28 542.92 689.55 542.76 691.83 542.59 694.11 542.43 696.39 542.26 698.67 542.1 700.96 541.93 703.24 541.76 705.53 541.59 707.82 541.42 710.11 541.25 712.4 541.07 714.7 540.9 717 540.72 719.29 540.55 721.59 540.37 722.43 541.93 723.09 543.7 723.75 545.47 724.22 547.46 724.46 548.45 724.65 549.5 724.84 550.55 724.98 551.65 725.12 552.75 725.21 553.91 725.3 555.07 725.34 556.28 725.34 556.28 725.34 556.28 725.37 557.44 725.35 558.56 725.33 559.69 725.26 560.78 725.19 561.87 725.07 562.93 724.95 563.99 724.78 565.02 724.44 567.07 723.91 568.98 723.38 570.9 722.66 572.68 722.66 572.68 722.66 572.68 725.42 572.44 728.18 572.2 730.95 571.95 733.71 571.71 736.47 571.47 739.23 571.22 741.99 570.97 744.75 570.73 745.48 572.27 746.03 574.02 746.58 575.78 746.95 577.75 747.14 578.74 747.27 579.78 747.41 580.82 747.5 581.92 747.41 583.03 747.36 584.19 747.32 585.35 747.32 586.56 747.32 586.56 747.32 586.56 747.32 587.71 747.36 588.82 747.41 589.94 747.5 591.01 747.41 592.09 747.27 593.15 747.14 594.2 746.95 595.23 746.59 597.27 746.04 599.18 745.49 601.09 744.76 602.87 744.76 602.87 744.76 602.87 744.76 602.87 744.76 602.87M686.84 674.6Q686.1 672.91 685.54 671.05 684.97 669.18 684.59 667.14 684.4 666.12 684.25 665.06 684.11 664 684.01 662.89 683.91 661.78 683.85 660.63 683.79 659.48 683.78 658.29 683.78 658.29 683.78 658.29 683.77 657.05 683.81 655.85 683.84 654.65 683.93 653.5 684.01 652.35 684.14 651.25 684.26 650.14 684.44 649.09 684.78 646.98 685.31 645.06 685.85 643.14 686.56 641.41 686.56 641.41 686.56 641.41 685.82 639.74 685.26 637.89 684.7 636.04 684.32 634.02 684.13 633 683.99 631.95 683.84 630.9 683.74 629.8 683.64 628.7 683.59 627.56 683.54 626.42 683.53 625.23 683.53 625.23 683.53 625.23 683.52 624 683.55 622.81 683.59 621.62 683.67 620.48 683.76 619.34 683.88 618.25 684.01 617.16 684.19 616.11 684.53 614.03 685.07 612.13 685.6 610.23 686.31 608.52 686.31 608.52 686.31 608.52 685.57 606.84 685 604.99 684.44 603.15 684.05 601.13 683.86 600.12 683.71 599.07 683.57 598.02 683.46 596.92 683.36 595.83 683.3 594.69 683.24 593.56 683.23 592.38 683.23 592.38 683.23 592.38 683.21 591.15 683.25 589.97 683.28 588.79 683.35 587.65 683.43 586.52 683.55 585.43 683.67 584.34 683.84 583.3 684.18 581.23 684.7 579.34 685.22 577.45 685.92 575.76 685.92 575.76 685.92 575.76 683.17 575.98 680.43 576.2 677.69 576.42 674.94 576.64 672.2 576.86 669.46 577.08 666.73 577.3 663.99 577.52 663.23 575.82 662.64 573.96 662.06 572.1 661.66 570.06 661.45 569.05 661.29 567.99 661.14 566.93 661.02 565.83 660.9 564.73 660.83 563.59 660.76 562.44 660.74 561.26 660.74 561.26 660.74 561.26 660.71 560.03 660.72 558.84 660.74 557.65 660.8 556.51 660.86 555.37 660.97 554.28 661.08 553.2 661.24 552.15 661.54 550.07 662.04 548.18 662.53 546.3 663.21 544.6 663.21 544.6 663.21 544.6 660.94 544.76 658.68 544.91 656.41 545.06 654.15 545.22 651.88 545.37 649.62 545.52 647.36 545.67 645.09 545.83 642.83 545.98 640.57 546.13 638.31 546.28 636.05 546.42 633.79 546.57 631.53 546.72 629.27 546.87 627.01 547.02 624.75 547.16 622.49 547.31 620.23 547.46 617.97 547.6 615.71 547.75 613.45 547.9 611.19 548.04 608.93 548.19 606.67 548.33 604.42 548.47 602.16 548.62 599.9 548.76 597.64 548.9 595.38 549.05 593.12 549.19 590.87 549.33 591.61 550.97 592.18 552.82 592.74 554.68 593.13 556.75 593.32 557.79 593.47 558.89 593.62 559.98 593.72 561.13 593.83 562.28 593.89 563.49 593.95 564.7 593.96 565.96 593.96 565.96 593.96 565.96 593.97 567.17 593.94 568.35 593.91 569.52 593.83 570.66 593.75 571.8 593.63 572.9 593.5 574 593.33 575.07 592.99 577.21 592.47 579.2 591.94 581.19 591.23 583.04 591.23 583.04 591.23 583.04 588.51 583.24 585.78 583.44 583.06 583.64 580.34 583.84 577.61 584.04 574.89 584.24 572.16 584.44 569.44 584.64 570.18 586.29 570.73 588.17 571.29 590.04 571.67 592.14 571.86 593.19 572 594.3 572.15 595.4 572.24 596.57 572.34 597.73 572.4 598.95 572.45 600.17 572.46 601.45 572.46 601.45 572.46 601.45 572.47 602.67 572.43 603.86 572.39 605.05 572.31 606.2 572.22 607.36 572.09 608.47 571.96 609.59 571.79 610.67 571.44 612.83 570.9 614.85 570.37 616.87 569.65 618.74 569.65 618.74 569.65 618.74 570.39 620.39 570.95 622.27 571.51 624.14 571.89 626.25 572.08 627.3 572.22 628.41 572.37 629.52 572.47 630.69 572.56 631.85 572.62 633.08 572.67 634.3 572.68 635.59 572.68 635.59 572.68 635.59 572.69 636.82 572.66 638.01 572.62 639.21 572.54 640.36 572.45 641.52 572.32 642.64 572.2 643.77 572.02 644.85 571.67 647.03 571.14 649.06 570.61 651.09 569.9 652.98 569.9 652.98 569.9 652.98 570.64 654.64 571.21 656.52 571.78 658.4 572.17 660.52 572.36 661.58 572.51 662.69 572.66 663.81 572.76 664.99 572.87 666.16 572.93 667.4 572.99 668.63 573.01 669.93 573.01 669.93 573.01 669.93 573.03 671.16 573 672.37 572.97 673.57 572.89 674.74 572.82 675.91 572.7 677.04 572.58 678.18 572.41 679.28 572.08 681.48 571.56 683.53 571.05 685.59 570.35 687.51 570.35 687.51 570.35 687.51 573.11 687.26 575.86 687 578.61 686.75 581.36 686.49 584.11 686.23 586.85 685.96 589.6 685.7 592.34 685.43 593.11 687.1 593.7 689 594.29 690.91 594.71 693.06 594.92 694.14 595.08 695.28 595.25 696.41 595.37 697.61 595.49 698.81 595.57 700.07 595.65 701.34 595.69 702.66 595.69 702.66 595.69 702.66 595.73 703.94 595.72 705.17 595.71 706.41 595.65 707.62 595.6 708.82 595.5 709.99 595.4 711.16 595.25 712.3 594.96 714.58 594.49 716.72 594.01 718.86 593.35 720.85 593.35 720.85 593.35 720.85 595.63 720.64 597.9 720.41 600.18 720.19 602.45 719.96 604.72 719.73 606.99 719.49 609.26 719.25 611.52 719.01 613.79 718.76 616.06 718.51 618.32 718.25 620.59 717.99 622.85 717.73 625.11 717.46 627.38 717.19 629.64 716.91 631.9 716.64 634.16 716.35 636.42 716.07 638.67 715.78 640.93 715.48 643.19 715.18 645.45 714.88 647.7 714.57 649.96 714.26 652.21 713.95 654.47 713.63 656.72 713.31 658.97 712.99 661.23 712.66 663.48 712.33 665.73 711.99 664.97 710.21 664.38 708.24 663.79 706.27 663.38 704.12 663.18 703.05 663.02 701.93 662.86 700.81 662.75 699.65 662.64 698.49 662.57 697.29 662.5 696.09 662.48 694.84 662.48 694.84 662.48 694.84 662.46 693.54 662.48 692.3 662.5 691.05 662.57 689.85 662.64 688.66 662.76 687.52 662.88 686.37 663.04 685.28 663.37 683.1 663.89 681.11 664.4 679.13 665.1 677.34 665.1 677.34 665.1 677.34 667.82 677 670.54 676.66 673.26 676.32 675.98 675.98 678.69 675.64 681.41 675.29 684.12 674.95 686.84 674.6 686.84 674.6 686.84 674.6M1007.93 504.88Q1008.79 506.06 1009.39 507.51 1009.94 509.16 1010.24 511.06 1010.39 512.01 1010.49 513.02 1010.56 513.99 1010.56 514.95 1010.34 515.93 1010.17 516.95 1010.01 517.97 1009.89 519.02 1009.89 519.02 1009.89 519.02 1009.76 520.04 1009.66 521 1009.55 521.97 1009.51 522.9 1009.25 523.85 1008.95 524.78 1008.65 525.71 1008.28 526.61 1007.51 528.41 1006.55 530.1 1005.6 531.79 1004.43 533.37 1004.43 533.37 1004.43 533.37 1004.93 534.64 1005.16 536.12 1005.39 537.59 1005.39 539.06 1005.39 539.73 1005.33 540.45 1005.26 541.17 1005.14 541.92 1004.81 542.71 1004.47 543.62 1004.11 544.58 1003.78 545.58 1003.78 545.58 1003.78 545.58 1003.46 546.53 1003.2 547.45 1002.95 548.36 1002.73 549.23 1002.3 550.13 1001.83 551 1001.36 551.88 1000.85 552.73 999.82 554.43 998.6 556.03 997.37 557.63 996 559.14 996 559.14 996 559.14 996.24 560.31 996.18 561.68 996.1 563.03 995.75 564.58 995.57 565.35 995.31 566.17 995.03 566.98 994.68 567.83 994.13 568.72 993.61 569.65 993.1 570.57 992.6 571.52 992.6 571.52 992.6 571.52 992.1 572.42 991.66 573.29 991.22 574.15 990.85 574.98 990.28 575.84 989.68 576.68 989.06 577.51 988.4 578.32 987.09 579.94 985.65 581.47 984.2 583 982.62 584.43 982.62 584.43 982.62 584.43 982.58 585.52 982.26 586.79 981.96 588 981.5 589.14 981.28 589.7 980.99 590.3 980.69 590.9 980.33 591.53 979.71 592.29 979.05 593.14 978.38 593.99 977.73 594.87 977.73 594.87 977.73 594.87 977.11 595.72 976.56 596.52 975.99 597.33 975.48 598.08 974.78 598.88 974.06 599.66 973.33 600.44 972.59 601.2 971.08 602.71 969.46 604.15 967.84 605.58 966.14 606.92 966.14 606.92 966.14 606.92 965.95 607.84 965.53 608.84 965.11 609.81 964.4 610.95 964.02 611.53 963.49 612.22 962.97 612.91 962.36 613.64 961.58 614.41 960.82 615.21 960.05 616.01 959.38 616.71 959.38 616.71 959.38 616.71 958.75 617.37 958.18 617.99 957.6 618.62 957.1 619.21 956.42 619.85 955.64 620.54 954.83 621.25 953.99 621.96 952.33 623.36 950.62 624.7 949.02 625.91 947.37 627.04 947.37 627.04 947.37 627.04 947.12 627.73 946.59 628.57 945.92 629.51 944.88 630.67 944.35 631.25 943.75 631.87 943.14 632.5 942.45 633.16 941.59 633.87 940.73 634.59 939.87 635.31 939.02 636.06 939.02 636.06 939.02 636.06 938.2 636.77 937.5 637.4 936.88 637.94 936.32 638.45 935.6 639.01 934.86 639.56 934.13 640.12 933.37 640.68 931.64 641.95 929.85 643.24 928.18 644.56 927 645.93 927 645.93 927 645.93 924.94 647.52 922.52 649.35 919.94 651.28 917.32 653.19 914.69 655.08 912.38 656.71 910.28 658.17 907.86 659.82 905.17 661.63 902.61 663.32 900.2 664.89 897.77 666.45 895.34 667.98 892.77 669.57 890 671.26 887.33 672.86 887.25 671.72 887.37 670.16 887.48 668.63 887.75 666.91 887.89 666.06 888.08 665.16 888.28 664.27 888.52 663.33 888.77 662.39 889.08 661.42 889.39 660.45 889.75 659.44 889.75 659.44 889.75 659.44 890.13 658.39 890.55 657.38 890.96 656.37 891.41 655.4 891.86 654.43 892.33 653.5 892.81 652.57 893.31 651.67 894.33 649.89 895.43 648.23 896.55 646.59 897.76 645.06 897.76 645.06 897.76 645.06 895.94 645.83 894.11 646.6 892.3 647.36 890.48 648.13 888.67 648.9 886.86 649.67 885.05 650.43 883.25 651.2 881.44 651.96 879.64 652.73 877.84 653.49 876.04 654.25 874.24 655 872.44 655.76 870.64 656.51 868.85 657.26 868.73 655.99 868.8 654.53 868.87 653.07 869.12 651.43 869.25 650.61 869.43 649.74 869.6 648.88 869.82 647.97 870.05 647.06 870.32 646.11 870.59 645.16 870.91 644.17 870.91 644.17 870.91 644.17 871.25 643.13 871.61 642.13 871.97 641.12 872.35 640.15 872.74 639.18 873.15 638.24 873.56 637.31 874 636.4 874.88 634.6 875.86 632.92 876.85 631.24 877.95 629.69 877.95 629.69 877.95 629.69 875.53 630.41 873.12 631.14 870.72 631.86 868.32 632.59 865.92 633.31 863.52 634.04 861.13 634.76 858.74 635.49 858.48 634.18 858.41 632.68 858.33 631.18 858.44 629.5 858.49 628.67 858.58 627.78 858.68 626.9 858.82 625.97 858.97 625.04 859.16 624.07 859.35 623.09 859.58 622.08 859.58 622.08 859.58 622.08 859.83 621.02 860.11 619.99 860.38 618.96 860.69 617.96 860.99 616.97 861.33 616.01 861.67 615.05 862.04 614.12 862.78 612.27 863.65 610.56 864.52 608.84 865.52 607.27 865.52 607.27 865.52 607.27 862.05 608.06 858.59 608.86 855.14 609.65 851.7 610.45 848.26 611.25 844.82 612.05 841.4 612.84 837.98 613.64 837.52 612.24 837.24 610.65 836.96 609.06 836.86 607.29 836.81 606.41 836.81 605.48 836.8 604.55 836.84 603.57 836.88 602.6 836.97 601.58 837.06 600.56 837.19 599.49 837.19 599.49 837.19 599.49 837.32 598.38 837.5 597.31 837.67 596.24 837.88 595.2 838.09 594.16 838.34 593.16 838.59 592.17 838.87 591.21 839.44 589.29 840.17 587.52 840.9 585.75 841.79 584.14 841.79 584.14 841.79 584.14 838.17 584.81 834.57 585.48 830.97 586.15 827.38 586.83 823.79 587.5 820.22 588.18 816.65 588.86 813.08 589.54 813.69 590.93 814.1 592.54 814.51 594.14 814.72 595.98 814.83 596.89 814.89 597.86 814.94 598.83 814.95 599.86 814.95 600.89 814.91 601.97 814.87 603.05 814.77 604.19 814.77 604.19 814.77 604.19 814.69 605.29 814.56 606.35 814.42 607.42 814.25 608.46 814.08 609.5 813.87 610.51 813.66 611.52 813.4 612.51 812.9 614.49 812.24 616.37 811.58 618.25 810.76 620.02 810.76 620.02 810.76 620.02 811.31 621.39 811.66 622.98 812.02 624.57 812.18 626.39 812.26 627.3 812.29 628.27 812.32 629.23 812.31 630.26 812.29 631.28 812.23 632.37 812.16 633.45 812.05 634.59 812.05 634.59 812.05 634.59 811.95 635.69 811.8 636.75 811.66 637.82 811.48 638.87 811.3 639.91 811.08 640.93 810.86 641.96 810.61 642.95 810.1 644.95 809.45 646.86 808.8 648.76 808.01 650.58 808.01 650.58 808.01 650.58 808.5 651.93 808.8 653.52 809.1 655.1 809.23 656.93 809.29 657.84 809.3 658.82 809.31 659.79 809.28 660.83 809.25 661.86 809.18 662.96 809.1 664.05 808.98 665.21 808.98 665.21 808.98 665.21 808.87 666.32 808.72 667.41 808.57 668.5 808.39 669.57 808.2 670.63 807.99 671.68 807.77 672.72 807.52 673.75 807.02 675.8 806.39 677.76 805.76 679.72 805 681.59 805 681.59 805 681.59 805.42 682.97 805.68 684.59 805.93 686.22 806 688.1 806.04 689.04 806.03 690.05 806.02 691.06 805.97 692.13 805.92 693.21 805.82 694.35 805.72 695.49 805.58 696.7 805.58 696.7 805.58 696.7 805.44 697.86 805.26 699 805.09 700.14 804.88 701.25 804.67 702.37 804.42 703.46 804.18 704.56 803.9 705.63 803.33 707.77 802.63 709.8 801.88 711.83 801.01 713.56 801.01 713.56 801.01 713.56 798.25 714.58 795.69 715.51 792.9 716.51 789.89 717.58 787.07 718.56 784.51 719.44 781.76 720.37 778.73 721.38 775.87 722.32 773.3 723.15 770.59 724.02 767.55 724.97 764.52 725.91 761.48 726.83 759.96 727.3 758.53 727.72 757.25 728.1 755.96 728.48 755.61 727.1 755.24 725.36 754.81 723.63 754.52 721.7 754.36 720.74 754.25 719.74 754.13 718.73 754.06 717.68 753.98 716.62 753.94 715.52 753.9 714.41 753.9 713.26 753.9 713.26 753.9 713.26 753.9 712.06 753.94 710.9 753.98 709.74 754.06 708.62 754.14 707.49 754.26 706.41 754.37 705.33 754.53 704.28 754.85 702.19 755.32 700.26 755.8 698.33 756.43 696.55 756.43 696.55 756.43 696.55 755.81 695.02 755.33 693.3 754.86 691.58 754.54 689.67 754.38 688.71 754.26 687.7 754.14 686.7 754.06 685.64 753.98 684.59 753.94 683.49 753.9 682.38 753.9 681.23 753.9 681.23 753.9 681.23 753.9 680.03 753.95 678.87 753.99 677.71 754.07 676.58 754.15 675.46 754.27 674.38 754.39 673.3 754.56 672.25 754.88 670.17 755.37 668.24 755.87 666.32 756.53 664.55 756.53 664.55 756.53 664.55 755.88 663.01 755.39 661.29 754.9 659.56 754.57 657.64 754.4 656.68 754.28 655.67 754.16 654.67 754.07 653.61 753.99 652.56 753.95 651.45 753.91 650.35 753.91 649.2 753.91 649.2 753.91 649.2 753.91 648 753.95 646.84 753.99 645.68 754.08 644.56 754.16 643.44 754.29 642.36 754.42 641.28 754.58 640.24 754.92 638.16 755.43 636.24 755.94 634.32 756.62 632.57 756.62 632.57 756.62 632.57 755.95 631.02 755.44 629.29 754.94 627.55 754.6 625.63 754.43 624.67 754.3 623.66 754.17 622.65 754.09 621.59 754 620.53 753.96 619.43 753.92 618.32 753.92 617.17 753.92 617.17 753.92 617.17 753.92 615.97 753.96 614.81 754 613.65 754.09 612.53 754.18 611.41 754.31 610.33 754.44 609.26 754.61 608.22 754.96 606.15 755.48 604.24 756.01 602.34 756.71 600.6 756.71 600.6 756.71 600.6 756.02 599.04 755.49 597.29 754.97 595.55 754.62 593.61 754.45 592.65 754.31 591.63 754.18 590.62 754.1 589.56 754.01 588.5 753.96 587.4 753.92 586.29 753.92 585.14 753.92 585.14 753.92 585.14 753.92 583.94 753.96 582.78 754.01 581.62 754.1 580.51 754.19 579.39 754.32 578.31 754.45 577.24 754.63 576.2 754.99 574.14 755.53 572.24 756.06 570.35 756.78 568.62 756.78 568.62 756.78 568.62 756.07 567.05 755.53 565.29 755 563.54 754.64 561.6 754.46 560.63 754.33 559.61 754.19 558.6 754.1 557.54 754.01 556.48 753.97 555.37 753.92 554.26 753.92 553.11 753.92 553.11 753.92 553.11 753.92 551.91 753.97 550.75 754.01 549.6 754.1 548.48 754.19 547.36 754.33 546.29 754.47 545.22 754.65 544.19 755.01 542.13 755.56 540.25 756.1 538.36 756.83 536.65 756.83 536.65 756.83 536.65 756.1 535.06 755.56 533.3 755.02 531.53 754.65 529.58 754.47 528.61 754.33 527.59 754.2 526.58 754.11 525.51 754.02 524.45 753.97 523.34 753.93 522.24 753.93 521.09 753.93 521.09 753.93 521.09 753.93 519.88 753.97 518.73 754.02 517.57 754.11 516.46 754.2 515.34 754.34 514.28 754.47 513.21 754.66 512.18 755.03 510.14 755.58 508.28 756.14 506.46 756.92 504.92 756.92 504.92 756.92 504.92 759.26 504.8 761.6 504.67 763.94 504.55 766.28 504.44 768.62 504.32 770.96 504.2 773.3 504.08 775.63 503.81 777.96 503.54 780.29 503.26 782.62 502.98 784.96 502.76 787.29 502.57 789.63 502.37 791.96 502.17 794.3 501.97 796.63 501.77 798.97 501.56 801.3 501.36 803.64 501.11 805.96 500.79 808.29 500.46 810.61 500.13 812.94 499.83 815.27 499.65 817.61 499.46 819.95 499.27 822.28 499.09 824.61 498.85 826.94 498.61 829.27 498.36 831.61 498.12 832.32 499.42 832.84 500.93 833.36 502.44 833.69 504.16 833.86 505.03 833.97 505.95 834.09 506.87 834.16 507.84 834.24 508.82 834.26 509.84 834.28 510.87 834.26 511.95 834.26 511.95 834.26 511.95 834.23 512.99 834.16 514 834.09 515.01 833.97 516 833.85 516.98 833.69 517.94 833.52 518.9 833.31 519.84 832.89 521.71 832.27 523.47 831.66 525.24 830.86 526.9 830.86 526.9 830.86 526.9 833.68 526.55 836.5 526.2 839.32 525.85 842.14 525.5 844.97 525.15 847.8 524.8 850.63 524.45 853.47 524.09 854.18 525.45 854.7 527.01 855.21 528.58 855.52 530.35 855.67 531.24 855.78 532.17 855.88 533.11 855.93 534.1 855.98 535.1 855.98 536.14 855.97 537.18 855.92 538.28 855.92 538.28 855.92 538.28 855.86 539.33 855.76 540.36 855.66 541.38 855.51 542.38 855.35 543.38 855.15 544.35 854.95 545.32 854.7 546.26 854.2 548.15 853.52 549.93 852.83 551.72 851.97 553.39 851.97 553.39 851.97 553.39 854.79 552.97 857.61 552.56 860.45 552.14 863.29 551.72 866.13 551.31 868.98 550.89 871.84 550.48 874.7 550.06 875.33 551.4 875.74 552.93 876.14 554.47 876.33 556.21 876.42 557.09 876.46 558.01 876.49 558.93 876.47 559.9 876.44 560.88 876.36 561.9 876.27 562.93 876.13 564 876.13 564 876.13 564 875.99 565.03 875.81 566.04 875.63 567.04 875.4 568.02 875.16 569 874.89 569.95 874.61 570.9 874.29 571.83 873.64 573.68 872.83 575.43 872.01 577.18 871.02 578.83 871.02 578.83 871.02 578.83 874.72 578.18 878.43 577.53 882.15 576.88 885.89 576.23 889.64 575.59 893.4 574.95 897.17 574.31 900.96 573.67 901.41 574.93 901.62 576.38 901.81 577.84 901.77 579.49 901.74 580.31 901.65 581.19 901.56 582.06 901.41 582.99 901.25 583.91 901.03 584.88 900.81 585.86 900.53 586.88 900.53 586.88 900.53 586.88 900.26 587.86 899.94 588.81 899.63 589.76 899.27 590.69 898.91 591.62 898.52 592.53 898.12 593.44 897.69 594.32 896.81 596.08 895.8 597.76 894.78 599.43 893.62 601.02 893.62 601.02 893.62 601.02 897.18 600.25 900.75 599.49 904.34 598.73 907.94 597.98 911.56 597.23 915.19 596.49 918.84 595.76 922.49 595.03 922.32 593.81 922.37 592.42 922.41 591.02 922.67 589.47 922.79 588.68 922.97 587.86 923.14 587.04 923.37 586.17 923.6 585.3 923.88 584.4 924.15 583.49 924.49 582.54 924.49 582.54 924.49 582.54 924.83 581.55 925.2 580.58 925.56 579.62 925.96 578.69 926.36 577.76 926.78 576.86 927.2 575.96 927.66 575.1 928.56 573.36 929.6 571.76 930.63 570.16 931.8 568.69 931.8 568.69 931.8 568.69 931.42 567.39 931.26 565.92 931.08 564.44 931.12 562.81 931.13 561.99 931.2 561.13 931.26 560.27 931.37 559.37 931.48 558.47 931.64 557.53 931.8 556.59 932.01 555.61 932.01 555.61 932.01 555.61 932.22 554.58 932.47 553.59 932.71 552.6 932.99 551.64 933.27 550.68 933.59 549.76 933.9 548.84 934.25 547.95 934.93 546.17 935.78 544.53 936.62 542.9 937.63 541.4 937.63 541.4 937.63 541.4 937.01 540.03 936.6 538.5 936.17 536.97 935.94 535.27 935.82 534.43 935.75 533.54 935.67 532.65 935.65 531.72 935.61 530.79 935.63 529.81 935.64 528.84 935.69 527.83 935.69 527.83 935.69 527.83 935.74 526.77 935.83 525.75 935.92 524.73 936.05 523.75 936.17 522.77 936.34 521.82 936.5 520.88 936.71 519.97 937.11 518.15 937.7 516.48 938.26 514.81 939.02 513.3 939.02 513.3 939.02 513.3 938.14 511.89 937.43 510.33 936.72 508.77 936.18 507.05 935.9 506.19 935.67 505.29 935.44 504.39 935.24 503.45 935.05 502.51 934.89 501.53 934.73 500.56 934.62 499.54 934.62 499.54 934.62 499.54 934.49 498.48 934.42 497.46 934.34 496.44 934.32 495.45 934.3 494.47 934.32 493.52 934.35 492.58 934.43 491.67 934.59 489.86 934.97 488.19 935.35 486.52 935.94 485 935.94 485 935.94 485 939.66 484.5 943.39 484.04 947.12 483.57 950.85 483.06 954.56 482.5 958.27 481.93 961.96 481.2 965.63 480.42 969.31 479.68 973.04 479.21 976.77 478.74 980.51 478.28 984.24 477.81 987.98 477.34 991.65 476.55 995.33 475.72 998.13 477.16 1001.84 479 1005.72 480.88 1009.19 482.95 1009.67 483.82 1009.99 484.73 1010.29 485.64 1010.53 486.6 1010.51 487.58 1010.56 488.6 1010.59 489.7 1010.66 490.87 1010.66 490.87 1010.66 490.87 1010.73 491.98 1010.86 493.06 1010.99 494.13 1011.17 495.16 1011.09 496.11 1010.94 496.96 1010.78 497.8 1010.57 498.63 1010.16 500.27 1009.51 501.83 1008.83 503.4 1007.93 504.88 1007.93 504.88 1007.93 504.88 1007.93 504.88 1007.93 504.88"></path></svg>