<svg id="svg_container" xmlns="http://www.w3.org/2000/svg" class="mw-100 mh-100 edit-svg" style="visibility: visible" viewBox="-2.1599998474121094 -4.732499986886978 700.181640625 704.6180419921875" width="705.181640625px" height="709.6180419921875px">
        <defs>
            <linearGradient id="sampleGradient" gradientTransform="rotate(1)" x1="0%" y1="50%" x2="100%" y2="50%" gradientUnits="userSpaceOnUse">
                <stop offset="0%" id="first_color" stop-color="#40c7ff"></stop>
                <stop offset="100%" id="second_color" stop-color="#c632d9"></stop>
            </linearGradient>
        </defs>
    <path fill="url(#sampleGradient)" d="M29.48 456.05Q30.02 456.8 30.57 457.55 31.12 458.3 31.67 459.04 32.23 459.78 32.79 460.52 33.36 461.26 33.93 461.99 34.5 462.72 35.07 463.44 35.65 464.16 36.23 464.88 36.82 465.6 37.41 466.31 38 467.02 38.6 467.72 39.2 468.42 39.8 469.12 40.41 469.81 41.02 470.5 41.63 471.19 42.25 471.87 42.87 472.55 43.49 473.22 44.12 473.89 44.75 474.56 45.38 475.22 46.02 475.88 46.66 476.54 47.31 477.19 47.95 477.83 48.61 478.48 48.78 476.28 48.94 474.08 49.1 471.9 49.26 469.72 49.41 467.56 49.55 465.4 49.69 463.24 49.83 461.1 49.95 458.96 50.08 456.82 50.2 454.7 50.31 452.58 50.42 450.46 50.53 448.36 50.63 446.26 50.73 444.16 50.82 442.07 50.91 439.99 51 437.91 51.08 435.83 51.16 433.76 51.24 431.7 51.31 429.64 51.38 427.58 51.44 425.53 51.51 423.48 51.57 421.44 51.62 419.4 51.68 417.36 51.73 415.33 51.78 413.3 51.83 411.27 51.87 409.24 51.92 407.22 51.96 405.2 52 403.19 52.03 401.17 52.07 399.16 52.1 397.15 52.13 395.15 52.17 393.14 52.2 391.14 52.22 389.14 52.25 387.14 52.27 385.14 52.3 383.15 52.32 381.15 52.34 379.16 52.36 377.17 52.38 375.17 52.4 373.18 52.42 371.19 52.44 369.21 52.45 367.22 52.47 365.23 52.48 363.25 52.5 361.26 52.51 359.28 52.52 357.29 52.53 355.31 52.54 353.32 52.55 351.34 52.56 349.36 52.57 347.37 52.58 345.39 52.58 343.41 52.59 341.42 52.6 339.44 52.6 337.46 52.6 335.47 52.61 333.49 52.61 331.5 52.61 329.52 52.61 327.53 52.61 325.54 52.61 323.55 52.61 321.56 52.61 319.57 52.6 317.58 52.6 315.59 52.59 313.6 52.58 311.6 52.58 309.61 52.57 307.61 52.56 305.61 52.55 303.61 52.53 301.6 52.52 299.6 52.5 297.59 52.48 295.58 52.46 293.57 52.44 291.56 52.42 289.54 52.39 287.52 52.37 285.5 52.34 283.48 52.31 281.45 52.27 279.42 52.24 277.38 52.2 275.35 52.16 273.3 52.12 271.26 52.07 269.21 52.02 267.16 51.97 265.1 51.91 263.04 51.85 260.97 51.79 258.9 51.73 256.83 51.66 254.74 51.59 252.66 51.51 250.57 51.43 248.47 51.34 246.37 51.26 244.26 51.16 242.14 51.07 240.02 50.96 237.89 50.86 235.76 50.75 233.62 50.63 231.47 50.51 229.31 50.38 227.15 50.25 224.98 50.12 222.8 49.97 220.61 49.83 218.42 49.68 216.22 48.94 217.49 48.22 218.77 47.49 220.05 46.77 221.32 46.05 222.6 45.33 223.87 44.62 225.15 43.91 226.42 43.21 227.69 42.51 228.96 41.81 230.23 41.11 231.49 40.42 232.75 39.73 234.02 39.04 235.27 38.36 236.53 37.68 237.78 37 239.03 36.32 240.28 35.65 241.52 34.98 242.76 34.31 244 33.64 245.23 32.97 246.45 32.3 247.68 31.64 248.89 30.97 250.1 30.31 251.3 29.65 252.5 28.99 253.68 28.32 254.86 27.66 256.03 27.49 257.47 27.32 258.89 27.14 260.29 26.96 261.68 26.77 263.06 26.58 264.42 26.38 265.77 26.18 267.11 25.97 268.43 25.76 269.74 25.55 271.04 25.33 272.33 25.11 273.6 24.88 274.87 24.65 276.12 24.42 277.36 24.19 278.59 23.95 279.82 23.71 281.03 23.47 282.23 23.22 283.42 22.98 284.6 22.73 285.77 22.47 286.94 22.22 288.09 21.97 289.24 21.71 290.38 21.45 291.51 21.19 292.63 20.93 293.74 20.67 294.85 20.41 295.95 19.87 296.33 19.34 296.7 18.81 297.07 18.27 297.44 17.74 297.8 17.2 298.15 16.66 298.5 16.12 298.85 15.58 299.19 15.03 299.53 14.49 299.86 13.94 300.18 13.4 300.5 12.85 300.82 12.3 301.13 11.75 301.43 11.2 301.73 10.64 302.02 10.09 302.31 9.53 302.59 8.98 302.87 8.42 303.14 7.86 303.4 7.31 303.66 6.75 303.92 6.19 304.16 5.63 304.41 5.07 304.64 4.51 304.87 3.96 305.1 3.4 305.32 2.84 305.53 2.98 304.77 3.12 304 3.26 303.22 3.4 302.45 3.53 301.68 3.67 300.91 3.82 300.14 3.96 299.37 4.11 298.6 4.26 297.82 4.41 297.05 4.56 296.28 4.71 295.5 4.86 294.73 5.02 293.96 5.18 293.18 5.34 292.41 5.5 291.63 5.66 290.86 5.82 290.08 5.99 289.3 6.15 288.53 6.32 287.75 6.49 286.98 6.67 286.2 6.84 285.42 7.01 284.64 7.18 283.87 7.36 283.09 7.54 282.31 7.72 281.53 7.9 280.75 8.08 279.97 8.26 279.19 8.45 278.41 8.63 277.63 8.82 276.85 9.01 276.07 9.2 275.28 9.39 274.5 9.58 273.71 9.77 272.93 9.97 272.14 10.16 271.36 10.36 270.57 10.55 269.78 10.75 268.99 10.95 268.19 11.14 267.4 11.34 266.6 11.54 265.8 11.74 264.99 11.93 264.18 12.13 263.37 12.32 262.55 12.51 261.71 12.7 260.87 12.88 260 13.04 259.11 13.2 258.18 13.33 257.19 13.43 256.12 13.48 254.94 13.48 253.61 13.72 252.76 13.97 251.91 14.22 251.06 14.47 250.21 14.73 249.36 14.98 248.51 15.23 247.66 15.49 246.82 15.76 245.97 16.03 245.12 16.3 244.28 16.56 243.43 16.83 242.59 17.1 241.74 17.38 240.9 17.66 240.06 17.94 239.22 18.22 238.38 18.5 237.54 18.78 236.7 19.08 235.86 19.37 235.03 19.66 234.19 19.96 233.35 20.25 232.52 20.55 231.68 20.85 230.85 21.16 230.02 21.46 229.19 21.77 228.35 22.08 227.52 22.39 226.69 22.7 225.86 23.02 225.04 23.34 224.21 23.66 223.38 23.98 222.56 24.3 221.73 24.63 220.9 24.96 220.08 25.29 219.26 25.63 218.44 25.96 217.62 26.29 216.8 26.63 215.98 26.97 215.16 27.32 214.35 27.67 213.53 28.01 212.71 28.36 211.9 28.71 211.08 29.06 210.27 29.42 209.46 29.78 208.65 30.14 207.84 30.5 207.03 30.86 206.22 31.23 205.41 31.6 204.61 31.97 203.81 32.34 203 32.71 202.2 33.09 201.39 33.46 200.59 33.85 199.79 34.23 198.99 34.62 198.2 35 197.4 35.39 196.6 35.77 195.8 36.17 195.01 36.57 194.22 36.96 193.43 37.36 192.63 37.76 191.84 38.16 191.05 38.57 190.26 38.98 189.48 39.39 188.69 39.79 187.91 40.2 187.12 40.61 186.33 41.03 185.55 41.46 184.78 41.88 184 42.3 183.22 42.72 182.44 43.14 181.66 43.57 180.88 44.01 180.11 44.44 179.34 44.87 178.57 45.31 177.79 45.74 177.02 46.18 176.25 46.63 175.49 47.07 174.72 47.52 173.96 47.96 173.19 48.41 172.43 48.86 171.66 49.32 170.9 49.78 170.15 50.23 169.39 50.69 168.63 51.15 167.87 51.61 167.11 52.08 166.36 52.55 165.61 53.02 164.86 53.49 164.11 53.96 163.36 54.43 162.61 54.91 161.86 55.39 161.12 55.87 160.37 56.35 159.63 56.83 158.89 57.31 158.14 57.8 157.41 58.3 156.67 58.79 155.93 59.28 155.2 59.77 154.46 60.27 153.73 60.77 152.99 61.27 152.27 61.77 151.54 62.28 150.81 62.78 150.08 63.29 149.35 63.8 148.63 64.31 147.91 64.83 147.19 65.34 146.47 65.86 145.75 66.37 145.03 66.89 144.31 67.42 143.6 67.94 142.89 68.47 142.17 69 141.46 69.52 140.75 70.05 140.04 70.59 139.33 71.13 138.63 71.66 137.93 72.2 137.22 72.74 136.52 73.28 135.82 73.82 135.12 74.37 134.42 74.92 133.73 75.47 133.03 76.02 132.34 76.57 131.64 77.12 130.95 77.68 130.27 78.24 129.58 78.8 128.89 79.36 128.21 79.92 127.52 80.48 126.84 81.05 126.16 81.62 125.48 82.19 124.81 82.76 124.13 83.33 123.45 83.9 122.77 84.48 122.11 85.06 121.44 85.65 120.77 86.23 120.1 86.81 119.43 87.39 118.76 87.98 118.1 88.57 117.44 89.16 116.78 89.75 116.12 90.34 115.47 90.93 114.81 91.53 114.15 92.13 113.5 92.73 112.85 93.33 112.2 93.94 111.55 94.54 110.9 95.14 110.26 95.75 109.62 96.37 108.98 96.98 108.34 97.59 107.7 98.2 107.06 98.81 106.42 99.43 105.79 100.06 105.15 100.68 104.52 101.3 103.89 101.92 103.26 102.54 102.63 103.17 102.01 103.8 101.39 104.43 100.77 105.07 100.15 105.7 99.53 106.33 98.91 106.97 98.29 107.61 97.68 108.25 97.07 108.89 96.46 109.53 95.85 110.17 95.24 110.82 94.63 111.47 94.03 112.12 93.43 112.77 92.83 113.42 92.23 114.07 91.63 114.72 91.03 115.38 90.44 116.04 89.85 116.7 89.26 117.36 88.67 118.02 88.08 118.68 87.49 119.35 86.91 120.02 86.32 120.68 85.74 121.35 85.16 122.02 84.58 122.69 84 123.37 83.43 124.05 82.86 124.72 82.29 125.4 81.72 126.08 81.15 126.76 80.58 127.44 80.02 128.13 79.46 128.81 78.9 129.5 78.34 130.19 77.78 130.87 77.22 131.56 76.67 132.26 76.12 132.95 75.57 133.65 75.03 134.34 74.48 135.04 73.93 135.74 73.38 136.44 72.85 137.14 72.31 137.85 71.77 138.55 71.23 139.25 70.7 139.84 70.38 139.82 72.56 139.82 74.84 139.82 77.12 139.81 79.4 139.81 81.69 139.81 83.97 139.81 86.25 139.81 88.54 139.81 90.82 139.8 93.11 139.8 95.39 139.8 97.68 139.8 99.96 139.8 102.24 139.79 104.53 139.79 106.81 139.79 109.1 139.79 111.38 139.79 113.66 139.79 115.95 139.78 118.23 139.78 120.52 139.78 122.8 139.78 125.09 139.78 127.37 139.77 129.65 139.77 131.94 139.77 134.22 139.77 136.51 139.77 138.79 139.77 141.08 139.76 143.36 139.76 145.65 139.76 147.93 139.76 150.21 139.76 152.5 139.76 154.78 139.75 157.07 139.75 159.35 139.75 161.64 139.75 163.92 139.75 166.21 139.74 168.49 139.74 170.77 139.74 173.06 139.74 175.34 139.74 177.63 139.74 179.91 139.73 182.2 139.73 184.48 139.73 186.77 139.73 189.05 139.73 191.33 139.73 193.62 139.73 195.9 139.73 198.19 139.73 200.47 139.73 202.76 139.73 205.04 139.73 207.33 139.73 209.61 139.73 211.9 139.73 214.18 139.73 216.47 138.88 217.09 137.91 217.74 136.94 218.41 135.97 219.08 135 219.77 134.02 220.46 133.05 221.16 132.08 221.87 131.11 222.59 130.13 223.32 129.16 224.05 128.19 224.79 127.21 225.54 126.24 226.29 125.27 227.06 124.29 227.83 124.01 225.45 123.73 223.08 123.44 220.71 123.16 218.35 122.87 216 122.58 213.65 122.29 211.31 122 208.97 121.71 206.64 121.42 204.31 121.12 202 120.82 199.69 120.52 197.38 120.22 195.08 119.92 192.79 119.61 190.51 119.31 188.24 119 185.97 118.69 183.71 118.37 181.45 118.05 179.21 117.74 176.97 117.41 174.75 117.09 172.53 116.76 170.32 116.43 168.12 116.09 165.92 115.76 163.74 115.42 161.57 115.07 159.41 114.72 157.25 114.37 155.11 113.4 155.57 112.42 156.04 111.45 156.52 110.48 157 109.51 157.5 108.54 158.01 107.57 158.52 106.61 159.05 105.64 159.58 104.68 160.12 103.72 160.67 102.76 161.22 101.81 161.79 100.85 162.36 99.9 162.93 98.96 163.52 98.01 164.11 97.07 164.71 96.12 165.32 95.19 165.93 94.25 166.55 93.32 167.17 92.39 167.8 91.46 168.44 90.54 169.08 89.62 169.73 88.7 170.39 87.79 171.05 86.87 171.72 85.97 172.39 85.06 173.07 84.16 173.75 84.33 176.44 84.49 179.14 84.65 181.83 84.81 184.53 84.96 187.23 85.1 189.93 85.24 192.64 85.38 195.34 85.51 198.05 85.64 200.76 85.77 203.46 85.89 206.17 86.01 208.88 86.12 211.6 86.23 214.31 86.33 217.02 86.43 219.74 86.53 222.45 86.62 225.17 86.71 227.88 86.8 230.6 86.89 233.31 86.97 236.03 87.04 238.75 87.12 241.46 87.19 244.18 87.26 246.9 87.32 249.62 87.38 252.33 87.44 255.05 87.5 257.77 87.56 260.49 87.61 263.21 87.66 265.92 87.71 268.64 87.75 271.36 87.79 274.08 87.83 276.79 87.87 279.51 87.91 282.23 87.94 284.95 87.98 287.66 88.01 290.38 88.03 293.1 88.06 295.82 88.09 298.53 88.11 301.25 88.13 303.97 88.15 306.68 88.17 309.4 88.18 312.11 88.2 314.83 88.21 317.55 88.22 320.26 88.23 322.98 88.24 325.7 88.25 328.41 88.25 331.13 88.26 333.84 88.26 336.56 88.26 339.27 88.26 341.99 88.26 344.71 88.25 347.42 88.25 350.14 88.24 352.85 88.23 355.57 88.22 358.29 88.21 361 88.2 363.72 88.18 366.43 88.17 369.15 88.15 371.87 88.13 374.58 88.11 377.3 88.09 380.02 88.07 382.73 88.04 385.45 88.01 388.17 87.98 390.88 87.95 393.6 87.92 396.32 87.89 399.04 87.85 401.76 87.81 404.47 87.77 407.19 87.73 409.91 87.69 412.63 87.64 415.35 87.6 418.07 87.55 420.79 87.49 423.51 87.44 426.23 87.38 428.94 87.32 431.66 87.26 434.38 87.19 437.1 87.13 439.82 87.06 442.54 86.99 445.27 86.91 447.99 86.83 450.71 86.75 453.43 86.67 456.15 86.58 458.87 86.49 461.59 86.39 464.31 86.29 467.03 86.19 469.75 86.09 472.46 85.98 475.18 85.87 477.9 85.75 480.62 85.63 483.34 85.51 486.05 85.38 488.77 85.24 491.49 85.11 494.2 84.97 496.91 84.82 499.63 84.67 502.34 84.51 505.05 84.35 507.76 84.19 510.47 84.02 513.17 83.85 515.88 83.67 518.58 83.49 521.28 84.23 522.45 84.97 523.62 85.72 524.79 86.46 525.96 87.22 527.13 87.97 528.3 88.73 529.47 89.49 530.63 90.25 531.8 91.02 532.97 91.78 534.13 92.56 535.3 93.33 536.47 94.11 537.63 94.89 538.79 95.67 539.96 96.45 541.12 97.24 542.28 98.03 543.44 98.83 544.6 99.63 545.76 100.42 546.91 101.23 548.07 102.03 549.22 102.84 550.38 103.65 551.53 104.46 552.68 105.28 553.83 106.1 554.97 106.92 556.12 107.74 557.26 108.57 558.41 108.43 561.16 108.28 563.9 108.13 566.63 107.98 569.36 107.82 572.07 107.66 574.77 107.49 577.46 107.31 580.13 107.14 582.8 106.96 585.44 106.78 588.07 106.59 590.69 106.41 593.28 106.23 595.86 106.05 598.41 105.89 600.67 105.11 599.9 104.33 599.13 103.55 598.36 102.76 597.59 101.99 596.82 101.22 596.04 100.45 595.25 99.68 594.47 98.91 593.69 98.15 592.9 97.4 592.11 96.64 591.32 95.88 590.52 95.12 589.73 94.38 588.93 93.63 588.12 92.89 587.32 92.14 586.51 91.4 585.71 90.66 584.9 89.93 584.08 89.2 583.26 88.47 582.45 87.73 581.63 87.01 580.81 86.29 579.98 85.57 579.15 84.85 578.32 84.13 577.5 83.42 576.66 82.72 575.82 82.01 574.98 81.3 574.15 80.6 573.31 79.9 572.46 79.21 571.61 78.51 570.76 77.82 569.91 77.13 569.06 76.44 568.21 75.76 567.35 75.08 566.48 74.4 565.62 73.72 564.76 73.05 563.9 72.39 563.03 71.72 562.15 71.05 561.28 70.39 560.41 69.73 559.53 69.08 558.65 68.43 557.77 67.77 556.89 67.12 556.01 66.48 555.12 65.84 554.23 65.2 553.34 64.56 552.45 63.92 551.55 63.29 550.66 62.67 549.76 62.04 548.85 61.42 547.95 60.79 547.05 60.18 546.15 59.57 545.23 58.96 544.32 58.35 543.41 57.74 542.5 57.13 541.58 56.54 540.66 55.94 539.74 55.34 538.82 54.75 537.9 54.16 536.98 53.58 536.04 53 535.11 52.42 534.18 51.83 533.25 51.26 532.32 50.69 531.38 50.13 530.44 49.56 529.5 48.99 528.56 48.43 527.62 47.88 526.67 47.33 525.72 46.78 524.78 46.23 523.83 45.68 522.88 45.14 521.92 44.61 520.96 44.07 520.01 43.53 519.05 43 518.09 42.48 517.12 41.96 516.16 41.44 515.19 40.91 514.23 40.4 513.26 39.89 512.29 39.39 511.31 38.88 510.34 38.37 509.37 37.87 508.39 37.38 507.41 36.89 506.43 36.4 505.45 35.91 504.47 35.42 503.48 34.95 502.49 34.47 501.5 33.99 500.52 33.52 499.53 33.05 498.54 32.59 497.54 32.13 496.54 31.67 495.55 31.21 494.55 30.75 493.55 30.31 492.55 29.87 491.54 29.42 490.54 28.98 489.54 28.54 488.53 28.11 487.52 27.68 486.51 27.25 485.5 27.39 483.73 27.55 481.77 27.71 479.82 27.87 477.88 28.04 475.97 28.19 474.07 28.35 472.19 28.5 470.32 28.64 468.48 28.78 466.65 28.92 464.84 29.04 463.05 29.16 461.28 29.27 459.52 29.38 457.78 29.48 456.05 29.48 456.05 29.48 456.05M148.77 585.14Q149.63 584.46 150.5 583.8 151.36 583.15 152.22 582.52 153.09 581.9 153.95 581.29 154.81 580.69 155.67 580.1 156.53 579.52 157.39 578.94 158.25 578.37 159.11 577.8 159.97 577.23 160.83 576.67 161.69 576.1 162.55 575.54 162.57 572 162.59 568.46 162.61 564.92 162.63 561.39 162.64 557.86 162.66 554.33 162.67 550.81 162.68 547.29 162.7 543.77 162.71 540.25 162.72 536.74 162.73 533.23 162.74 529.72 162.75 526.21 162.76 522.71 162.77 519.2 162.78 515.7 162.79 512.2 162.8 508.69 162.81 505.19 162.82 501.7 162.82 498.2 162.83 494.7 162.84 491.21 162.84 487.71 162.85 484.22 162.86 480.72 162.86 477.23 162.87 473.74 162.87 470.24 162.88 466.75 162.88 463.26 162.89 459.77 162.89 456.28 162.89 452.79 162.9 449.3 162.9 445.81 162.9 442.32 162.91 438.83 162.91 435.35 162.91 431.86 162.92 428.37 162.92 424.88 162.92 421.39 162.93 417.91 162.93 414.42 162.93 410.93 162.93 407.45 162.93 403.96 162.94 400.47 162.94 396.99 162.94 393.5 162.94 390.02 162.94 386.53 162.94 383.05 162.94 379.56 162.95 376.07 162.95 372.59 162.95 369.1 162.95 365.62 162.95 362.13 162.95 358.65 162.95 355.16 162.95 351.68 162.95 348.19 162.95 344.71 162.95 341.22 162.95 337.74 162.95 334.25 162.95 330.76 162.95 327.28 162.95 323.79 162.95 320.31 162.95 316.82 162.94 313.34 162.94 309.85 162.94 306.36 162.94 302.88 162.94 299.39 162.94 295.91 162.94 292.42 162.93 288.93 162.93 285.45 162.93 281.96 162.93 278.47 162.93 274.99 162.92 271.5 162.92 268.01 162.92 264.52 162.92 261.03 162.91 257.55 162.91 254.06 162.91 250.57 162.9 247.08 162.9 243.59 162.9 240.1 162.89 236.61 162.89 233.12 162.88 229.62 162.88 226.13 162.87 222.64 162.87 219.15 162.86 215.65 162.86 212.16 162.85 208.66 162.85 205.17 162.84 201.67 162.84 198.17 162.83 194.67 162.82 191.17 162.82 187.67 162.81 184.17 162.8 180.67 162.79 177.16 162.78 173.65 162.77 170.15 162.76 166.64 162.76 163.13 162.74 159.61 162.73 156.1 162.72 152.58 162.71 149.06 162.7 145.54 162.69 142.01 162.67 138.48 162.66 134.95 162.64 131.41 162.63 127.87 161.8 127.67 160.97 127.48 160.15 127.28 159.32 127.07 158.5 126.87 157.67 126.65 156.85 126.43 156.02 126.21 155.2 125.97 154.37 125.73 153.54 125.48 152.71 125.22 151.89 124.95 151.06 124.66 150.23 124.37 149.39 124.06 149.39 120.28 149.39 116.5 149.39 112.71 149.39 108.93 149.39 105.15 149.39 101.37 149.39 97.59 149.39 93.81 149.39 90.03 149.39 86.25 149.39 82.47 149.38 78.69 149.38 74.9 149.38 71.11 149.38 67.3 149.36 63.39 150.14 62.84 150.93 62.3 151.71 61.76 152.5 61.21 153.28 60.67 154.08 60.14 154.87 59.61 155.66 59.08 156.46 58.55 157.25 58.02 158.04 57.49 158.85 56.97 159.65 56.45 160.45 55.93 161.25 55.41 162.05 54.9 162.86 54.38 163.67 53.88 164.48 53.37 165.29 52.86 166.1 52.36 166.91 51.85 167.72 51.36 168.54 50.86 169.36 50.37 170.18 49.88 170.99 49.38 171.81 48.89 172.64 48.41 173.46 47.93 174.29 47.45 175.11 46.97 175.94 46.49 176.76 46.01 177.6 45.54 178.43 45.08 179.26 44.61 180.09 44.14 180.92 43.68 181.76 43.22 182.6 42.76 183.44 42.31 184.28 41.85 185.12 41.4 185.96 40.95 186.8 40.5 187.65 40.06 188.5 39.62 189.34 39.18 190.19 38.74 191.04 38.3 191.89 37.87 192.74 37.45 193.6 37.02 194.45 36.59 195.3 36.16 196.16 35.74 197.02 35.33 197.88 34.91 198.74 34.5 199.6 34.08 200.46 33.67 201.32 33.26 202.19 32.86 203.06 32.46 203.92 32.06 204.79 31.66 205.66 31.26 206.53 30.87 207.4 30.49 208.27 30.1 209.15 29.71 210.02 29.33 210.89 28.94 211.77 28.57 212.65 28.19 213.53 27.82 214.41 27.45 215.29 27.08 216.17 26.71 217.05 26.35 217.94 25.99 218.82 25.63 219.71 25.27 220.59 24.91 221.48 24.56 222.37 24.21 223.26 23.87 224.15 23.52 225.04 23.18 225.93 22.84 226.83 22.5 227.72 22.17 228.62 21.84 229.52 21.51 230.41 21.18 231.31 20.85 232.21 20.53 233.11 20.21 234.01 19.9 234.91 19.58 235.81 19.26 236.72 18.95 237.62 18.65 238.53 18.35 239.43 18.04 240.34 17.74 241.25 17.44 242.15 17.14 243.07 16.85 243.98 16.57 244.89 16.28 245.8 15.99 246.71 15.7 247.62 15.43 248.54 15.15 249.45 14.88 250.37 14.61 251.28 14.33 252.2 14.06 253.12 13.8 254.04 13.54 254.96 13.28 255.88 13.02 256.8 12.76 257.72 12.51 258.64 12.26 259.57 12.02 259.63 14.28 259.7 16.55 259.77 18.83 259.84 21.11 259.91 23.39 259.97 25.67 260.04 27.96 260.11 30.25 260.17 32.55 260.23 34.85 260.3 37.14 260.36 39.44 260.43 41.75 260.49 44.05 260.55 46.36 260.61 48.67 260.67 50.98 260.73 53.29 260.79 55.6 260.85 57.91 260.91 60.23 260.97 62.54 261.02 64.86 261.08 67.18 261.14 69.5 261.19 71.82 261.25 74.14 261.3 76.46 261.36 78.78 261.42 81.1 261.47 83.42 261.52 85.75 261.58 88.07 261.63 90.4 261.69 92.72 261.74 95.05 261.79 97.37 261.85 99.7 261.9 102.02 261.95 104.35 262 106.68 262.06 109 262.11 111.33 262.16 113.66 262.21 115.99 262.26 118.32 262.32 120.65 262.37 122.98 262.42 125.3 262.47 127.63 262.52 129.96 262.57 132.29 262.62 134.62 262.67 136.95 262.72 139.28 262.78 141.62 262.83 143.95 262.88 146.28 262.93 148.61 262.98 150.94 263.03 153.27 263.08 155.6 263.13 157.94 263.18 160.27 262.53 160.36 261.89 160.45 261.25 160.54 260.6 160.63 259.96 160.73 259.32 160.83 258.67 160.92 258.03 161.03 257.38 161.13 256.74 161.23 256.1 161.34 255.45 161.44 254.81 161.55 254.16 161.66 253.52 161.78 252.88 161.89 252.23 162 251.59 162.12 250.95 162.24 250.3 162.36 249.66 162.48 249.01 162.6 248.37 162.72 247.73 162.85 247.08 162.97 246.44 163.1 245.8 163.23 245.15 163.36 244.51 163.49 243.87 163.62 243.23 163.76 242.58 163.89 242.28 161.81 241.98 159.73 241.67 157.65 241.37 155.58 241.07 153.5 240.76 151.43 240.46 149.36 240.15 147.29 239.85 145.22 239.54 143.15 239.23 141.08 238.93 139.02 238.62 136.96 238.31 134.89 238.01 132.83 237.7 130.78 237.39 128.72 237.08 126.66 236.77 124.61 236.46 122.56 236.15 120.51 235.84 118.46 235.53 116.41 235.22 114.36 234.91 112.32 234.6 110.27 234.29 108.23 233.98 106.19 233.66 104.15 233.35 102.11 233.04 100.07 232.72 98.04 232.14 98.07 231.56 98.1 230.97 98.13 230.39 98.16 229.81 98.2 229.22 98.23 228.64 98.27 228.06 98.31 227.48 98.35 226.9 98.39 226.31 98.43 225.73 98.47 225.15 98.51 224.57 98.55 223.99 98.6 223.41 98.65 222.83 98.69 222.26 98.74 221.68 98.79 221.1 98.84 220.52 98.89 219.94 98.95 219.37 99 218.79 99.06 218.21 99.11 217.64 99.17 217.06 99.23 216.48 99.29 215.91 99.35 215.34 99.41 214.76 99.47 214.19 99.54 213.61 99.6 213.04 99.67 212.47 99.73 211.9 99.8 211.32 99.87 210.75 99.94 210.18 100.01 209.61 100.08 209.04 100.16 208.47 100.23 207.9 100.31 207.33 100.38 206.76 100.46 206.19 100.54 205.62 100.62 205.06 100.7 204.49 100.78 203.92 100.86 203.36 100.95 202.79 101.03 202.22 101.12 201.66 101.2 201.09 101.29 200.53 101.38 199.97 101.47 199.4 101.56 198.84 101.65 198.28 101.74 197.71 101.84 197.15 101.93 196.59 102.03 196.03 102.12 196.07 105.46 196.1 108.79 196.14 112.11 196.17 115.44 196.21 118.76 196.24 122.08 196.27 125.4 196.3 128.71 196.33 132.03 196.36 135.34 196.39 138.64 196.42 141.95 196.45 145.25 196.47 148.55 196.5 151.85 196.52 155.15 196.55 158.44 196.57 161.73 196.6 165.02 196.62 168.31 196.64 171.6 196.66 174.88 196.68 178.17 196.7 181.45 196.72 184.73 196.74 188 196.76 191.28 196.78 194.55 196.79 197.83 196.81 201.1 196.83 204.37 196.84 207.64 196.86 210.9 196.87 214.17 196.89 217.43 196.9 220.7 196.91 223.96 196.92 227.22 196.94 230.48 196.95 233.74 196.96 237 196.97 240.26 196.98 243.51 196.99 246.77 197 250.02 197.01 253.28 197.02 256.53 197.03 259.78 197.04 263.03 197.04 266.28 197.05 269.54 197.06 272.78 197.06 276.03 197.07 279.28 197.08 282.53 197.08 285.78 197.09 289.03 197.09 292.27 197.1 295.52 197.1 298.76 197.11 302.01 197.11 305.26 197.11 308.5 197.12 311.75 197.89 311.56 198.67 311.38 199.45 311.2 200.23 311.01 201.01 310.83 201.79 310.64 202.57 310.46 203.35 310.27 204.13 310.09 204.91 309.9 205.69 309.72 206.47 309.53 207.25 309.35 208.03 309.16 208.82 308.97 209.6 308.79 210.38 308.6 211.17 308.41 211.95 308.23 212.73 308.04 213.52 307.85 214.3 307.67 215.09 307.48 215.87 307.29 216.66 307.1 217.44 306.92 218.23 306.73 219.02 306.54 219.8 306.35 220.59 306.17 221.38 305.98 222.17 305.79 222.5 301.87 222.84 297.95 223.18 294.02 223.51 290.08 223.85 286.15 224.18 282.21 224.52 278.26 224.85 274.31 225.19 270.36 225.52 266.4 225.85 262.43 226.19 258.47 226.52 254.5 226.85 250.52 227.19 246.54 227.52 242.56 228.08 242.47 228.63 242.39 229.19 242.3 229.75 242.22 230.31 242.13 230.87 242.05 231.42 241.96 231.98 241.88 232.54 241.8 233.1 241.72 233.66 241.64 234.22 241.55 234.78 241.47 235.34 241.39 235.9 241.32 236.46 241.24 237.02 241.16 237.58 241.08 238.14 241 238.7 240.93 239.26 240.85 239.82 240.78 240.38 240.7 240.94 240.63 241.5 240.55 242.06 240.48 242.62 240.41 243.18 240.34 243.74 240.27 244.31 240.2 244.87 240.13 245.43 240.06 245.43 243.33 245.44 246.61 245.44 249.89 245.45 253.17 245.45 256.44 245.45 259.72 245.46 263 245.46 266.27 245.46 269.55 245.47 272.83 245.47 276.1 245.47 279.38 245.48 282.66 245.48 285.93 245.48 289.21 245.48 292.49 245.48 295.76 245.49 299.04 245.49 302.31 245.49 305.59 245.49 308.87 245.49 312.14 245.49 315.42 245.5 318.69 245.5 321.97 245.5 325.24 245.5 328.52 245.5 331.79 245.5 335.07 245.5 338.35 245.5 341.62 245.5 344.9 245.5 348.17 245.5 351.45 245.5 354.72 245.5 358 245.5 361.27 245.5 364.55 245.5 367.82 245.5 371.1 245.5 374.38 245.49 377.65 245.49 380.93 245.49 384.2 245.49 387.48 245.49 390.75 245.49 394.03 245.48 397.31 245.48 400.58 245.48 403.86 245.48 407.13 245.47 410.41 245.47 413.69 245.47 416.96 245.47 420.24 245.46 423.51 245.46 426.79 245.46 430.07 245.45 433.34 245.45 436.62 245.44 439.9 245.44 443.18 245.44 446.45 245.43 449.73 244.87 449.67 244.31 449.6 243.75 449.54 243.19 449.47 242.63 449.41 242.06 449.34 241.5 449.28 240.94 449.21 240.38 449.14 239.82 449.07 239.26 449.01 238.7 448.94 238.14 448.87 237.58 448.8 237.02 448.73 236.46 448.65 235.9 448.58 235.34 448.51 234.78 448.44 234.22 448.36 233.67 448.29 233.11 448.22 232.55 448.14 231.99 448.07 231.43 447.99 230.87 447.91 230.31 447.84 229.76 447.76 229.2 447.68 228.64 447.6 228.08 447.53 227.53 447.45 227.36 445.35 227.19 443.25 227.03 441.16 226.86 439.07 226.69 436.97 226.53 434.88 226.36 432.79 226.19 430.7 226.03 428.61 225.86 426.53 225.69 424.44 225.53 422.36 225.36 420.27 225.19 418.19 225.03 416.11 224.86 414.03 224.69 411.95 224.52 409.87 224.36 407.79 224.19 405.72 224.02 403.64 223.85 401.57 223.69 399.5 223.52 397.42 223.35 395.35 223.18 393.28 223.01 391.22 222.85 389.15 222.68 387.08 222.51 385.02 222.34 382.95 222.17 380.89 221.38 380.77 220.6 380.66 219.81 380.54 219.02 380.42 218.24 380.3 217.45 380.18 216.66 380.06 215.88 379.95 215.09 379.83 214.31 379.71 213.52 379.59 212.74 379.47 211.95 379.35 211.17 379.23 210.39 379.12 209.6 379 208.82 378.88 208.04 378.76 207.26 378.64 206.48 378.53 205.69 378.41 204.91 378.29 204.13 378.17 203.35 378.06 202.57 377.94 201.79 377.82 201.01 377.71 200.23 377.59 199.45 377.47 198.68 377.36 197.9 377.24 197.12 377.12 197.12 380.55 197.11 383.97 197.11 387.39 197.11 390.82 197.1 394.24 197.1 397.66 197.09 401.09 197.09 404.51 197.08 407.94 197.08 411.36 197.07 414.79 197.06 418.22 197.05 421.64 197.05 425.07 197.04 428.5 197.03 431.93 197.02 435.36 197.01 438.79 197 442.22 196.99 445.65 196.98 449.09 196.97 452.52 196.96 455.96 196.95 459.39 196.94 462.83 196.92 466.27 196.91 469.71 196.9 473.15 196.88 476.59 196.87 480.03 196.85 483.47 196.84 486.92 196.82 490.36 196.8 493.81 196.79 497.26 196.77 500.71 196.75 504.17 196.73 507.62 196.71 511.08 196.69 514.53 196.67 517.99 196.65 521.45 196.62 524.92 196.6 528.38 196.58 531.85 196.55 535.32 196.52 538.79 196.5 542.26 196.47 545.74 196.44 549.22 196.41 552.7 196.38 556.18 196.35 559.67 196.32 563.16 196.29 566.65 196.26 570.15 196.22 573.64 196.19 577.14 196.15 580.64 196.12 584.15 196.08 587.66 196.04 591.17 196 594.68 195.96 598.2 196.63 598.3 197.3 598.4 197.97 598.5 198.63 598.6 199.3 598.7 199.97 598.8 200.64 598.89 201.31 598.98 201.99 599.08 202.66 599.17 203.33 599.25 204 599.34 204.68 599.43 205.35 599.51 206.03 599.59 206.7 599.68 207.38 599.75 208.06 599.83 208.73 599.91 209.41 599.99 210.09 600.06 210.77 600.13 211.45 600.2 212.13 600.27 212.81 600.34 213.49 600.41 214.17 600.47 214.86 600.53 215.54 600.6 216.22 600.66 216.9 600.71 217.59 600.77 218.27 600.83 218.96 600.88 219.65 600.93 220.33 600.99 221.02 601.03 221.71 601.08 222.39 601.13 223.08 601.17 223.77 601.22 224.46 601.26 225.15 601.3 225.84 601.34 226.53 601.37 227.22 601.41 227.91 601.44 228.6 601.48 229.3 601.51 229.99 601.53 230.68 601.56 231.38 601.59 232.07 601.61 232.76 601.63 233.46 601.65 234.15 601.67 234.85 601.69 235.55 601.71 236.24 601.72 236.94 601.73 237.64 601.74 238.33 601.75 239.03 601.76 239.73 601.77 240.15 599.24 240.57 596.72 240.99 594.2 241.41 591.67 241.82 589.14 242.24 586.6 242.66 584.07 243.07 581.53 243.49 578.99 243.9 576.44 244.32 573.9 244.73 571.35 245.15 568.8 245.56 566.24 245.97 563.68 246.38 561.12 246.79 558.56 247.2 556 247.61 553.43 248.02 550.86 248.43 548.29 248.84 545.71 249.25 543.13 249.65 540.55 250.06 537.97 250.47 535.38 250.87 532.8 251.28 530.21 251.68 527.61 252.09 525.02 252.49 522.42 252.9 519.82 253.54 520.42 254.19 521.03 254.84 521.63 255.49 522.23 256.14 522.83 256.79 523.43 257.44 524.03 258.09 524.63 258.73 525.22 259.38 525.82 260.03 526.41 260.68 527.01 261.33 527.6 261.98 528.19 262.63 528.78 263.28 529.37 263.93 529.96 264.58 530.54 265.23 531.13 265.88 531.71 266.53 532.29 267.17 532.87 267.82 533.45 268.47 534.03 269.12 534.61 269.77 535.18 270.42 535.75 271.07 536.33 271.72 536.9 272.36 537.47 273.01 538.03 273.57 538.59 273.58 540.98 273.49 543.37 273.41 545.76 273.33 548.14 273.24 550.53 273.16 552.92 273.08 555.3 272.99 557.69 272.91 560.07 272.82 562.46 272.74 564.84 272.66 567.23 272.57 569.61 272.49 572 272.41 574.38 272.32 576.77 272.24 579.15 272.15 581.54 272.07 583.92 271.99 586.3 271.9 588.69 271.82 591.07 271.73 593.45 271.65 595.84 271.56 598.22 271.48 600.6 271.4 602.98 271.31 605.36 271.23 607.75 271.14 610.13 271.06 612.51 270.97 614.89 270.89 617.27 270.8 619.65 270.72 622.03 270.63 624.41 270.54 626.79 270.46 629.17 270.37 631.55 270.29 633.93 270.2 636.31 270.11 638.69 270.03 641.06 269.94 643.44 269.85 645.82 269.77 648.19 269.68 650.57 269.59 652.94 269.5 655.31 269.41 657.68 269.32 660.05 269.24 662.42 269.14 664.79 269.05 667.15 268.96 669.51 268.87 671.87 268.77 674.23 268.68 676.58 268.58 678.92 268.48 681.26 268.38 683.6 268.28 685.92 268.17 688.24 268.07 690.16 267.07 689.91 266.07 689.66 265.07 689.41 264.07 689.17 263.07 688.92 262.07 688.66 261.08 688.39 260.08 688.13 259.09 687.87 258.09 687.6 257.1 687.33 256.11 687.05 255.11 686.78 254.12 686.5 253.13 686.22 252.14 685.94 251.15 685.64 250.17 685.35 249.18 685.05 248.19 684.76 247.21 684.46 246.22 684.15 245.24 683.84 244.26 683.53 243.28 683.22 242.3 682.91 241.32 682.6 240.34 682.27 239.36 681.94 238.39 681.62 237.41 681.29 236.43 680.96 235.46 680.62 234.49 680.28 233.52 679.94 232.55 679.6 231.57 679.26 230.61 678.9 229.64 678.55 228.67 678.19 227.71 677.84 226.74 677.48 225.78 677.12 224.82 676.74 223.86 676.37 222.9 676 221.94 675.63 220.98 675.25 220.02 674.87 219.07 674.48 218.12 674.09 217.16 673.71 216.21 673.32 215.26 672.92 214.31 672.52 213.36 672.12 212.41 671.72 211.47 671.31 210.52 670.91 209.58 670.49 208.64 670.07 207.7 669.66 206.76 669.24 205.82 668.82 204.88 668.39 203.95 667.96 203.01 667.53 202.08 667.09 201.14 666.66 200.21 666.22 199.29 665.77 198.36 665.33 197.43 664.88 196.5 664.43 195.58 663.98 194.66 663.52 193.74 663.06 192.82 662.6 191.9 662.14 190.98 661.68 190.06 661.2 189.15 660.73 188.24 660.25 187.33 659.78 186.41 659.3 185.51 658.82 184.6 658.33 183.7 657.84 182.79 657.35 181.88 656.86 180.98 656.36 180.08 655.86 179.19 655.36 178.29 654.85 177.39 654.35 176.5 653.85 175.61 653.33 174.72 652.81 173.83 652.29 172.94 651.77 172.05 651.26 171.17 650.73 170.28 650.2 169.4 649.67 168.52 649.13 167.64 648.6 166.76 648.07 165.89 647.52 165.02 646.98 164.15 646.43 163.27 645.89 162.4 645.34 161.54 644.78 160.67 644.22 159.81 643.66 158.95 643.11 158.08 642.55 157.22 641.98 156.37 641.41 155.52 640.83 154.66 640.26 153.81 639.69 152.95 639.11 152.11 638.53 151.26 637.94 150.42 637.36 149.57 636.78 148.75 636.25 148.73 633.31 148.73 630.1 148.73 626.89 148.74 623.68 148.74 620.46 148.74 617.25 148.74 614.04 148.75 610.83 148.75 607.62 148.75 604.41 148.75 601.2 148.76 597.98 148.76 594.77 148.76 591.56 148.76 588.35 148.77 585.14 148.77 585.14 148.77 585.14M343.47 699.7Q342.58 699.68 341.68 699.71 340.77 699.73 339.86 699.8 338.94 699.78 338.01 699.62 337.07 699.45 336.13 699.23 335.18 699.02 334.22 698.76 333.26 698.5 332.29 698.18 331.31 697.86 330.33 697.5 329.34 697.13 328.34 696.72 327.34 696.3 326.32 695.83 325.31 695.36 324.28 694.85 323.25 694.33 322.21 693.76 321.17 693.19 320.11 692.57 319.06 691.95 317.99 691.27 316.92 690.6 315.84 689.87 314.76 689.15 313.66 688.37 312.57 687.59 311.46 686.76 310.35 685.93 309.28 685.07 308.21 684.21 307.17 683.33 306.14 682.44 305.14 681.53 304.14 680.61 303.17 679.67 302.21 678.73 301.28 677.77 300.35 676.8 299.46 675.82 298.57 674.83 297.71 673.82 296.86 672.81 296.04 671.78 295.22 670.76 294.43 669.71 293.64 668.67 292.89 667.6 292.14 666.54 291.43 665.47 290.71 664.39 290.03 663.3 289.35 662.22 288.71 661.11 288.06 660.02 287.45 658.9 286.84 657.79 286.26 656.67 285.68 655.54 285.14 654.4 285.14 654.4 285.14 654.4 285.14 651.67 285.15 648.93 285.15 646.2 285.15 643.47 285.15 640.74 285.15 638.01 285.15 635.27 285.15 632.54 285.15 629.81 285.15 627.08 285.16 624.35 285.16 621.61 285.16 618.88 285.16 616.15 285.16 613.42 285.16 610.69 285.16 607.95 285.16 605.22 285.16 602.49 285.16 599.76 285.17 597.03 285.17 594.29 285.17 591.56 285.17 588.83 285.17 586.1 285.17 583.37 285.17 580.63 285.17 577.9 285.17 575.17 285.18 572.44 285.18 569.71 285.18 566.98 285.18 564.24 285.18 561.51 285.18 558.78 285.18 556.05 285.18 553.32 285.18 550.58 285.18 547.85 285.18 545.12 285.18 542.39 285.18 539.66 285.18 536.93 285.18 534.19 285.18 531.46 285.18 528.73 285.18 526 285.18 523.27 285.18 520.54 285.18 517.8 285.18 515.07 285.18 512.34 285.18 509.61 285.18 506.88 285.18 504.15 285.18 501.41 285.18 498.68 285.18 495.95 285.18 493.22 285.18 490.49 285.18 487.76 285.18 485.02 285.18 482.29 285.18 479.56 286.23 479.58 287.27 479.6 288.31 479.62 289.36 479.65 290.4 479.67 291.44 479.69 292.49 479.72 293.53 479.74 294.57 479.76 295.62 479.79 296.66 479.81 297.7 479.84 298.75 479.87 299.79 479.89 300.83 479.92 301.88 479.95 302.2 483.22 302.53 486.5 302.86 489.78 303.19 493.06 303.52 496.34 303.85 499.62 304.17 502.9 304.5 506.18 304.83 509.47 305.16 512.75 305.49 516.04 305.81 519.32 306.14 522.61 306.47 525.9 306.8 529.19 307.12 532.48 307.45 535.77 307.78 539.07 308.11 542.36 308.43 545.66 308.76 548.96 309.09 552.26 309.42 555.56 309.74 558.87 310.07 562.17 310.4 565.48 310.73 568.79 311.05 572.1 311.38 575.41 311.71 578.72 312.03 582.04 312.36 585.36 312.99 588.76 313.65 591.87 314.32 594.99 315.02 597.82 315.72 600.66 316.46 603.21 317.2 605.77 317.98 608.04 318.76 610.31 319.57 612.29 320.39 614.28 321.24 615.98 322.1 617.68 322.99 619.09 323.88 620.51 324.81 621.63 325.74 622.76 326.74 623.76 327.73 624.75 328.78 625.61 329.84 626.47 330.96 627.2 331.52 627.56 332.09 627.89 332.67 628.22 333.26 628.51 333.85 628.8 334.46 629.06 335.07 629.32 335.69 629.55 336.31 629.77 336.95 629.96 337.59 630.15 338.24 630.3 338.9 630.46 339.57 630.57 340.23 630.69 340.92 630.78 341.61 630.86 342.31 630.91 343.01 630.95 343.73 630.96 343.73 630.96 343.73 630.96 344.49 630.97 345.23 630.89 345.97 630.79 346.69 630.6 347.41 630.41 348.11 630.11 348.81 629.82 349.5 629.42 350.18 629.03 350.84 628.53 351.51 628.03 352.15 627.43 352.8 626.84 353.42 626.14 354.05 625.44 354.65 624.64 355.26 623.84 355.85 622.94 356.43 622.04 357 621.04 357.57 620.04 358.11 618.94 358.66 617.84 359.19 616.64 359.72 615.44 360.23 614.14 360.74 612.84 361.23 611.44 361.72 610.05 362.19 608.55 362.66 607.06 363.11 605.46 363.56 603.87 363.98 602.19 364.41 600.51 364.8 598.75 365.2 596.99 365.56 595.15 365.93 593.31 366.27 591.38 366.61 589.46 366.92 587.45 367.23 585.44 367.51 583.35 367.79 581.26 368.04 579.09 368.3 576.92 368.52 574.66 368.75 572.41 368.95 570.07 369.14 567.74 369.31 565.32 369.48 562.9 369.62 560.4 369.76 557.9 369.88 555.32 369.99 552.74 370.07 550.08 370.16 547.41 370.21 544.67 370.27 541.92 370.3 539.1 370.33 536.27 370.33 533.36 370.33 533.36 370.33 533.36 370.32 529.95 370.22 526.55 370.12 523.15 369.92 519.76 369.72 516.37 369.42 512.98 369.12 509.6 368.72 506.23 368.32 502.86 367.82 499.5 367.32 496.13 366.72 492.78 366.12 489.42 365.42 486.08 364.71 482.73 363.91 479.39 363.51 477.72 363.09 476.05 362.66 474.38 362.21 472.72 361.76 471.05 361.28 469.39 360.81 467.72 360.31 466.06 359.81 464.4 359.28 462.73 358.75 461.07 358.2 459.41 357.65 457.75 357.08 456.09 356.5 454.43 355.9 452.78 355.3 451.12 354.67 449.46 354.05 447.81 353.39 446.15 352.74 444.5 352.07 442.85 351.39 441.19 350.69 439.54 349.99 437.89 349.26 436.24 348.54 434.59 347.79 432.94 347.03 431.29 346.26 429.65 345.48 428 344.68 426.35 344.68 426.35 344.68 426.35 343.97 424.88 343.28 423.42 342.58 421.96 341.89 420.51 341.2 419.07 340.53 417.64 339.85 416.22 339.19 414.81 338.52 413.41 337.87 412.02 337.22 410.63 336.57 409.26 335.93 407.89 335.3 406.53 334.67 405.18 334.04 403.85 333.42 402.51 332.81 401.19 332.2 399.88 331.6 398.58 331 397.28 330.41 396 329.82 394.72 329.25 393.46 328.67 392.2 328.1 390.95 327.53 389.71 326.98 388.48 326.42 387.25 325.88 386.05 325.33 384.84 324.8 383.65 324.26 382.46 323.74 381.29 323.21 380.12 322.7 378.96 322.19 377.81 321.69 376.67 321.18 375.54 320.69 374.42 319.71 372.19 318.77 370.03 317.83 367.86 316.94 365.77 316.04 363.69 315.19 361.67 314.34 359.65 313.53 357.71 312.72 355.76 311.95 353.89 311.19 352.02 310.47 350.21 309.74 348.41 309.04 346.57 308.33 344.73 307.64 342.85 306.96 340.98 306.28 339.06 305.61 337.14 304.96 335.18 304.31 333.23 303.67 331.23 303.03 329.24 302.41 327.2 301.79 325.17 301.19 323.09 300.58 321.02 300 318.91 299.41 316.79 298.84 314.64 298.27 312.49 297.72 310.3 297.17 308.11 296.63 305.88 296.1 303.65 295.58 301.38 295.06 299.11 294.56 296.8 294.06 294.49 293.57 292.15 293.09 289.8 292.62 287.41 292.15 285.03 291.7 282.6 291.25 280.18 290.83 277.69 290.41 275.21 290.01 272.66 289.62 270.12 289.26 267.52 288.89 264.92 288.55 262.26 288.21 259.6 287.91 256.88 287.6 254.16 287.31 251.39 287.03 248.61 286.78 245.77 286.53 242.94 286.3 240.04 286.08 237.15 285.88 234.19 285.68 231.24 285.51 228.23 285.35 225.21 285.2 222.14 285.06 219.07 284.95 215.94 284.84 212.81 284.75 209.62 284.67 206.43 284.61 203.18 284.56 199.93 284.53 196.63 284.5 193.32 284.5 189.95 284.5 189.95 284.5 189.95 284.5 186.53 284.53 183.16 284.57 179.79 284.63 176.47 284.69 173.15 284.79 169.87 284.89 166.6 285.02 163.38 285.14 160.15 285.31 156.98 285.47 153.8 285.66 150.67 285.85 147.55 286.08 144.47 286.3 141.39 286.56 138.36 286.82 135.33 287.1 132.34 287.39 129.36 287.71 126.42 288.04 123.48 288.39 120.59 288.74 117.7 289.13 114.86 289.51 112.01 289.93 109.22 290.35 106.42 290.8 103.66 291.25 100.91 291.73 98.2 292.21 95.49 292.72 92.82 293.23 90.15 293.77 87.56 294.31 84.96 294.86 82.43 295.42 79.9 296 77.44 296.58 74.97 297.18 72.58 297.78 70.19 298.4 67.86 299.02 65.53 299.66 63.27 300.31 61.01 300.97 58.82 301.64 56.63 302.32 54.51 303.01 52.38 303.72 50.33 304.43 48.27 305.16 46.29 305.89 44.3 306.64 42.39 307.4 40.48 308.17 38.64 308.95 36.8 309.75 35.04 310.54 33.28 311.36 31.59 312.18 29.9 313.02 28.29 313.87 26.68 314.73 25.14 315.6 23.61 316.47 22.17 317.34 20.73 318.22 19.39 319.11 18.04 319.99 16.79 320.88 15.54 321.78 14.38 322.68 13.22 323.58 12.16 324.49 11.1 325.4 10.13 326.32 9.16 327.24 8.28 328.16 7.41 329.09 6.63 330.02 5.85 330.96 5.17 331.9 4.49 332.84 3.89 333.79 3.31 334.74 2.81 335.69 2.33 336.66 1.93 337.62 1.53 338.59 1.22 339.55 0.92 340.53 0.72 341.51 0.51 342.49 0.4 343.48 0.29 344.47 0.27 344.47 0.27 344.47 0.27 345.23 0.26 346.01 0.29 346.8 0.32 347.6 0.38 348.41 0.45 349.23 0.55 350.06 0.65 350.91 0.8 351.75 0.94 352.62 1.13 353.49 1.31 354.38 1.53 355.27 1.75 356.18 2.02 357.09 2.29 358.03 2.59 358.96 2.9 359.92 3.24 360.87 3.59 361.85 3.97 362.82 4.37 363.82 4.79 364.82 5.22 365.84 5.69 366.86 6.17 367.9 6.68 368.94 7.2 370 7.75 371.07 8.31 372.15 8.91 373.23 9.51 374.34 10.16 375.44 10.8 376.5 11.47 377.56 12.13 378.58 12.82 379.6 13.5 380.58 14.21 381.56 14.92 382.49 15.64 383.42 16.36 384.32 17.11 385.21 17.85 386.06 18.61 386.91 19.37 387.71 20.14 388.52 20.92 389.28 21.71 390.05 22.5 390.77 23.31 391.49 24.12 392.17 24.94 392.85 25.76 393.49 26.59 394.13 27.43 394.72 28.27 395.32 29.12 395.87 29.98 396.42 30.84 396.93 31.71 397.95 33.45 398.81 35.23 398.81 35.23 398.81 35.23 398.81 37.51 398.8 39.78 398.8 42.05 398.8 44.32 398.8 46.59 398.79 48.85 398.79 51.12 398.79 53.39 398.79 55.65 398.79 57.91 398.78 60.17 398.78 62.44 398.78 64.7 398.78 66.96 398.78 69.21 398.78 71.47 398.77 73.73 398.77 75.99 398.77 78.24 398.77 80.5 398.77 82.76 398.77 85.01 398.76 87.27 398.76 89.52 398.76 91.77 398.76 94.03 398.76 96.28 398.76 98.53 398.75 100.79 398.75 103.04 398.75 105.29 398.75 107.54 398.75 109.79 398.75 112.05 398.75 114.3 398.75 116.55 398.74 118.8 398.74 121.05 398.74 123.3 398.74 125.55 398.74 127.8 398.74 130.05 398.74 132.3 398.74 134.55 398.74 136.79 398.74 139.04 398.73 141.29 398.73 143.54 398.73 145.79 398.73 148.04 398.73 150.28 398.73 152.53 398.73 154.78 398.73 157.03 398.73 159.28 398.73 161.52 398.73 163.77 398.73 166.02 398.73 168.27 398.73 170.51 398.73 172.76 398.72 175.01 398.72 177.25 398.72 179.5 398.15 179.48 397.57 179.47 396.99 179.45 396.41 179.43 395.83 179.41 395.25 179.4 394.67 179.38 394.09 179.36 393.51 179.35 392.94 179.33 392.36 179.31 391.78 179.29 391.2 179.28 390.62 179.26 390.04 179.24 389.46 179.22 388.88 179.21 388.3 179.19 387.72 179.17 387.15 179.15 386.57 179.14 385.99 179.12 385.41 179.1 384.83 179.08 384.25 179.07 383.67 179.05 383.09 179.03 382.51 179.02 381.93 179 381.35 178.98 380.77 178.97 380.2 178.95 379.87 176.07 379.55 173.19 379.23 170.31 378.91 167.42 378.59 164.54 378.27 161.65 377.95 158.76 377.63 155.88 377.31 152.99 376.99 150.1 376.66 147.2 376.34 144.31 376.02 141.42 375.7 138.52 375.38 135.63 375.06 132.73 374.74 129.83 374.42 126.93 374.1 124.03 373.78 121.12 373.46 118.22 373.14 115.31 372.81 112.4 372.49 109.49 372.17 106.58 371.85 103.67 371.53 100.75 371.21 97.84 370.89 94.92 370.57 92 370.25 89.08 369.93 86.16 369.24 83.87 368.29 81.77 367.81 80.72 367.27 79.72 366.73 78.71 366.12 77.76 365.51 76.81 364.84 75.9 364.16 74.99 363.42 74.14 362.68 73.28 361.87 72.47 361.06 71.67 360.19 70.91 359.31 70.16 358.47 69.49 357.63 68.83 356.83 68.27 356.02 67.7 355.25 67.23 354.47 66.76 353.73 66.38 353 66.01 352.29 65.73 351.59 65.45 350.92 65.26 350.25 65.07 349.61 64.98 348.97 64.89 348.37 64.89 348.37 64.89 348.37 64.89 347.67 64.9 346.98 64.97 346.29 65.05 345.62 65.21 344.94 65.36 344.29 65.59 343.63 65.81 342.98 66.11 342.34 66.42 341.71 66.79 341.08 67.17 340.47 67.62 339.85 68.07 339.25 68.59 338.65 69.12 338.07 69.71 337.49 70.31 336.92 70.98 336.35 71.65 335.79 72.4 335.24 73.14 334.7 73.96 334.16 74.78 333.63 75.67 332.58 77.45 331.59 79.51 330.6 81.58 329.67 83.94 328.74 86.3 327.93 88.92 327.11 91.54 326.42 94.41 325.72 97.28 325.14 100.4 324.56 103.52 324.09 106.89 323.63 110.26 323.28 113.88 322.93 117.5 322.7 121.37 322.47 125.24 322.36 129.36 322.24 133.47 322.24 137.84 322.24 137.84 322.24 137.84 322.24 142.21 322.33 146.45 322.41 150.69 322.57 154.81 322.74 158.92 322.99 162.92 323.23 166.91 323.56 170.78 323.89 174.65 324.31 178.39 324.72 182.14 325.21 185.77 325.71 189.39 326.28 192.9 326.86 196.4 327.52 199.79 328.18 203.18 328.89 206.5 329.61 209.82 330.39 213.07 330.78 214.7 331.18 216.3 331.58 217.91 332 219.5 332.42 221.09 332.85 222.66 333.28 224.24 333.73 225.79 334.18 227.35 334.64 228.89 335.1 230.43 335.58 231.95 336.05 233.47 336.55 234.97 337.04 236.48 337.54 237.96 338.05 239.45 338.57 240.92 339.09 242.39 339.63 243.84 340.16 245.29 340.71 246.73 341.27 248.16 341.83 249.58 342.4 251 342.99 252.46 343.59 253.93 344.21 255.44 344.84 256.95 345.5 258.51 346.16 260.07 346.85 261.68 347.53 263.29 348.25 264.94 348.97 266.6 349.72 268.3 350.47 270 351.26 271.75 352.04 273.5 352.85 275.3 353.66 277.09 354.5 278.94 355.35 280.78 356.22 282.67 357.09 284.56 358 286.5 358.9 288.44 359.84 290.43 360.77 292.41 361.74 294.44 362.71 296.48 363.7 298.56 364.2 299.6 364.71 300.65 365.21 301.7 365.73 302.76 366.24 303.83 366.76 304.9 367.28 305.98 367.81 307.06 367.81 307.06 367.81 307.06 368.45 308.34 369.08 309.63 369.71 310.92 370.32 312.21 370.94 313.5 371.55 314.79 372.16 316.08 372.76 317.38 373.36 318.68 373.95 319.98 374.54 321.28 375.12 322.59 375.71 323.9 376.28 325.21 376.85 326.52 377.41 327.83 377.98 329.14 378.53 330.46 379.08 331.78 379.63 333.1 380.17 334.42 380.71 335.75 381.25 337.08 381.77 338.41 382.3 339.74 382.82 341.07 383.33 342.4 383.84 343.74 384.35 345.08 384.85 346.42 385.35 347.77 385.84 349.11 386.33 350.46 386.81 351.81 387.29 353.16 387.76 354.51 388.23 355.87 388.7 357.22 389.16 358.58 389.61 359.94 390.52 362.67 391.39 365.41 392.26 368.15 393.09 370.91 393.92 373.66 394.72 376.44 395.52 379.21 396.28 382 397.04 384.79 397.76 387.59 398.48 390.4 399.17 393.22 399.86 396.04 400.5 398.93 401.14 401.82 401.74 404.77 402.35 407.72 402.9 410.74 403.46 413.76 403.98 416.84 404.49 419.92 404.96 423.07 405.44 426.22 405.86 429.43 406.29 432.65 406.68 435.93 407.07 439.21 407.41 442.55 407.75 445.9 408.05 449.31 408.35 452.72 408.61 456.2 408.87 459.67 409.08 463.21 409.3 466.76 409.47 470.37 409.64 473.97 409.77 477.65 409.9 481.32 409.98 485.06 410.07 488.8 410.1 492.61 410.05 496.42 410.05 500.29 410.05 500.29 410.05 500.29 410.05 504.11 410.09 507.86 410.09 511.62 410.02 515.3 409.95 518.99 409.84 522.62 409.74 526.24 409.6 529.8 409.46 533.36 409.28 536.85 409.11 540.35 408.9 543.78 408.69 547.21 408.45 550.57 408.2 553.94 407.92 557.24 407.65 560.55 407.33 563.78 407.02 567.02 406.67 570.2 406.32 573.38 405.94 576.49 405.56 579.6 405.14 582.65 404.72 585.71 404.27 588.7 403.81 591.69 403.33 594.62 402.84 597.55 402.32 600.42 401.79 603.29 401.24 606.1 400.68 608.91 400.1 611.64 399.52 614.38 398.91 617.03 398.31 619.69 397.68 622.26 397.05 624.84 396.4 627.35 395.74 629.85 395.07 632.27 394.39 634.7 393.69 637.05 392.99 639.4 392.26 641.67 391.54 643.94 390.79 646.14 390.04 648.33 389.27 650.44 388.49 652.56 387.69 654.59 386.9 656.62 386.07 658.57 385.25 660.52 384.4 662.39 383.56 664.26 382.69 666.04 381.81 667.82 380.92 669.52 380.02 671.21 379.1 672.82 378.18 674.43 377.24 675.95 376.29 677.47 375.33 678.9 374.37 680.33 373.4 681.66 372.42 683 371.44 684.24 370.45 685.48 369.45 686.62 368.45 687.76 367.43 688.82 366.42 689.86 365.39 690.82 364.36 691.77 363.32 692.62 362.28 693.48 361.22 694.24 360.17 695 359.1 695.66 358.03 696.32 356.95 696.89 355.86 697.45 354.77 697.92 353.67 698.38 352.56 698.75 351.45 699.12 350.33 699.4 349.21 699.67 348.07 699.85 346.94 699.93 345.79 699.83 345.21 699.78 344.63 699.75 344.06 699.72 343.47 699.7 343.47 699.7 343.47 699.7 343.47 699.7 343.47 699.7M449.4 625.84Q450.08 625.13 450.77 624.43 451.45 623.72 452.14 623.01 452.82 622.3 453.5 621.58 454.19 620.87 454.87 620.16 455.55 619.44 456.23 618.73 456.91 618.01 457.59 617.29 458.28 616.58 458.96 615.86 459.63 615.14 460.31 614.42 460.99 613.69 461.67 612.97 462.35 612.25 463.02 611.53 463.7 610.8 464.38 610.08 465.05 609.35 465.73 608.62 466.4 607.9 467.08 607.17 467.75 606.44 468.42 605.71 469.09 604.98 469.77 604.25 470.44 603.52 471.11 602.78 471.08 598.78 471.04 594.78 471.01 590.78 470.98 586.78 470.95 582.78 470.92 578.78 470.89 574.79 470.86 570.79 470.84 566.79 470.81 562.8 470.79 558.8 470.76 554.81 470.74 550.82 470.71 546.83 470.69 542.84 470.67 538.85 470.65 534.86 470.63 530.87 470.61 526.89 470.59 522.9 470.57 518.91 470.55 514.93 470.53 510.95 470.52 506.96 470.5 502.98 470.48 499 470.47 495.02 470.46 491.04 470.44 487.06 470.43 483.08 470.42 479.1 470.4 475.12 470.39 471.15 470.38 467.17 470.37 463.19 470.36 459.22 470.35 455.24 470.34 451.27 470.33 447.3 470.32 443.32 470.31 439.35 470.31 435.38 470.3 431.4 470.29 427.43 470.28 423.46 470.28 419.49 470.27 415.52 470.27 411.55 470.26 407.58 470.26 403.61 470.25 399.64 470.25 395.67 470.25 391.7 470.24 387.73 470.24 383.76 470.24 379.79 470.24 375.82 470.23 371.86 470.23 367.89 470.23 363.92 470.23 359.95 470.23 355.98 470.23 352.02 470.23 348.05 470.23 344.08 470.23 340.11 470.23 336.14 470.24 332.17 470.24 328.21 470.24 324.24 470.24 320.27 470.25 316.3 470.25 312.33 470.25 308.36 470.26 304.39 470.26 300.42 470.27 296.45 470.27 292.48 470.28 288.51 470.28 284.54 470.29 280.57 470.3 276.6 470.3 272.63 470.31 268.66 470.32 264.69 470.33 260.71 470.34 256.74 470.35 252.77 470.36 248.79 470.37 244.82 470.38 240.84 470.39 236.87 470.4 232.89 470.41 228.92 470.43 224.94 470.44 220.96 470.45 216.98 470.47 213 470.48 209.02 470.5 205.04 470.51 201.06 470.53 197.08 470.55 193.1 470.56 189.12 470.58 185.13 470.6 181.15 470.62 177.16 470.64 173.18 470.66 169.19 470.68 165.2 470.71 161.21 470.73 157.22 470.75 153.23 470.78 149.24 470.8 145.25 470.83 141.26 470.85 137.26 470.88 133.27 470.91 129.27 470.94 125.28 470.97 121.28 471 117.28 471.03 113.28 471.06 109.28 471.1 105.28 471.13 101.28 471.16 97.28 471.2 93.28 470.39 93.37 469.58 93.47 468.76 93.56 467.95 93.66 467.14 93.76 466.32 93.87 465.51 93.98 464.69 94.09 463.87 94.2 463.06 94.31 462.24 94.43 461.42 94.55 460.6 94.67 459.79 94.79 458.97 94.92 458.15 95.05 457.33 95.18 456.51 95.31 455.69 95.45 454.87 95.59 454.04 95.73 453.22 95.87 452.4 96.02 451.58 96.17 450.75 96.32 449.93 96.47 449.11 96.63 448.28 96.79 447.46 96.95 446.63 97.12 445.81 97.29 444.99 97.46 444.76 100.33 444.54 103.2 444.32 106.07 444.1 108.95 443.88 111.83 443.66 114.71 443.44 117.58 443.22 120.47 443.01 123.35 442.79 126.23 442.57 129.12 442.35 132.01 442.14 134.89 441.92 137.78 441.71 140.67 441.49 143.57 441.28 146.46 441.06 149.35 440.85 152.25 440.64 155.15 440.42 158.04 440.21 160.94 440 163.84 439.79 166.75 439.57 169.65 439.36 172.55 439.15 175.46 438.94 178.37 438.73 181.27 438.52 184.18 438.31 187.09 438.1 190 437.57 190.05 437.03 190.09 436.5 190.14 435.97 190.18 435.43 190.23 434.9 190.28 434.36 190.33 433.83 190.38 433.3 190.43 432.76 190.48 432.23 190.54 431.7 190.59 431.16 190.65 430.63 190.71 430.1 190.77 429.56 190.82 429.03 190.89 428.5 190.95 427.97 191.01 427.43 191.07 426.9 191.14 426.37 191.2 425.83 191.27 425.3 191.34 424.77 191.41 424.24 191.48 423.7 191.55 423.17 191.62 422.64 191.7 422.11 191.77 421.58 191.85 421.04 191.92 421.08 189.04 421.12 186.16 421.15 183.28 421.19 180.4 421.23 177.52 421.26 174.64 421.3 171.76 421.33 168.88 421.37 166 421.41 163.12 421.44 160.24 421.48 157.36 421.52 154.48 421.55 151.6 421.59 148.73 421.63 145.85 421.66 142.97 421.7 140.09 421.74 137.21 421.77 134.33 421.81 131.45 421.84 128.57 421.88 125.69 421.92 122.82 421.95 119.94 421.99 117.06 422.03 114.18 422.06 111.3 422.1 108.42 422.14 105.55 422.17 102.67 422.21 99.79 422.25 96.91 422.29 94.03 422.32 91.16 422.36 88.28 422.4 85.4 422.43 82.52 422.47 79.64 422.51 76.77 422.54 73.89 422.58 71.01 422.62 68.14 422.66 65.26 422.69 62.38 422.73 59.5 422.77 56.63 422.81 53.75 422.84 50.88 422.88 48 422.92 45.12 422.96 42.25 423 39.37 423.03 36.5 423.07 33.63 423.11 30.75 423.15 27.88 423.19 25.02 423.23 22.15 423.28 19.29 423.32 16.43 423.37 13.59 423.42 10.76 423.47 7.95 423.99 8.06 424.5 8.17 425.02 8.28 425.54 8.39 426.05 8.5 426.57 8.62 427.08 8.74 427.6 8.86 428.11 8.97 428.62 9.09 429.14 9.21 429.65 9.33 430.17 9.45 430.68 9.57 431.2 9.69 431.71 9.81 432.22 9.93 432.73 10.06 433.25 10.19 433.76 10.31 434.27 10.44 434.78 10.57 435.3 10.69 435.81 10.82 436.32 10.95 436.83 11.07 437.34 11.2 437.85 11.34 438.36 11.47 438.87 11.61 439.38 11.74 439.89 11.88 440.4 12.01 440.91 12.15 441.42 12.28 441.93 12.42 442.44 12.55 442.95 12.7 443.46 12.84 443.97 12.98 444.48 13.13 444.98 13.27 445.49 13.41 446 13.55 446.51 13.7 447.02 13.84 447.52 13.98 448.03 14.13 448.54 14.28 449.04 14.43 449.55 14.59 450.05 14.74 450.56 14.89 451.07 15.04 451.57 15.19 452.08 15.34 452.58 15.49 453.09 15.64 453.59 15.8 454.09 15.96 454.6 16.12 455.1 16.28 455.6 16.44 456.11 16.6 456.61 16.76 457.11 16.92 457.62 17.08 458.12 17.23 458.62 17.4 459.12 17.57 459.62 17.73 460.12 17.9 460.62 18.07 461.12 18.23 461.62 18.4 462.12 18.57 462.62 18.73 463.12 18.9 463.62 19.07 464.12 19.25 464.62 19.42 465.12 19.6 465.62 19.77 466.11 19.95 466.61 20.12 467.11 20.3 467.61 20.47 468.1 20.65 468.6 20.82 469.1 21 469.59 21.19 470.09 21.37 470.58 21.55 471.08 21.73 471.57 21.92 472.07 22.1 472.56 22.28 473.06 22.46 473.55 22.65 474.05 22.83 474.54 23.02 475.03 23.21 475.52 23.41 476.01 23.6 476.51 23.79 477 23.98 477.49 24.17 477.98 24.36 478.47 24.55 478.97 24.74 479.45 24.94 479.94 25.14 480.43 25.33 480.92 25.53 481.41 25.73 481.9 25.93 482.39 26.13 482.88 26.33 483.37 26.52 483.85 26.72 484.34 26.93 484.83 27.13 485.31 27.34 485.8 27.54 486.28 27.75 486.77 27.95 487.26 28.16 487.74 28.37 488.23 28.57 488.71 28.78 489.2 28.99 489.68 29.2 490.16 29.41 490.64 29.63 491.13 29.84 491.61 30.05 492.09 30.27 492.57 30.48 493.06 30.69 493.54 30.91 494.02 31.12 494.5 31.34 494.98 31.56 495.46 31.78 495.94 32.01 496.41 32.23 496.89 32.45 497.37 32.67 497.85 32.89 498.33 33.11 498.81 33.33 499.29 33.56 499.76 33.78 500.24 34.01 500.71 34.24 501.19 34.47 501.66 34.7 502.14 34.93 502.61 35.16 503.09 35.39 503.56 35.61 504.04 35.84 504.51 36.08 504.98 36.31 505.45 36.55 505.93 36.79 506.4 37.02 506.87 37.26 507.34 37.5 507.81 37.73 508.28 37.97 508.75 38.2 509.22 38.44 509.69 38.69 510.16 38.93 510.63 39.17 511.1 39.42 511.56 39.66 512.03 39.91 512.5 40.15 512.97 40.39 513.43 40.64 513.9 40.88 514.37 41.13 514.83 41.38 515.29 41.63 515.76 41.88 516.22 42.13 516.68 42.38 517.15 42.64 517.61 42.89 518.08 43.14 518.54 43.39 519 43.64 519.46 43.9 519.92 44.16 520.38 44.42 520.84 44.68 521.3 44.93 521.76 45.19 522.22 45.45 522.68 45.71 523.14 45.97 523.6 46.23 524.05 46.49 524.51 46.76 524.96 47.02 525.42 47.29 525.88 47.55 526.33 47.82 526.79 48.08 527.24 48.35 527.7 48.61 528.15 48.88 528.61 49.15 529.06 49.42 529.51 49.7 529.96 49.97 530.41 50.24 530.86 50.51 531.31 50.78 531.77 51.06 532.22 51.33 532.67 51.6 533.12 51.88 533.57 52.16 534.01 52.44 534.46 52.72 534.91 52.99 535.35 53.27 535.8 53.55 536.25 53.83 536.69 54.11 537.14 54.39 537.59 54.67 538.03 54.96 538.47 55.24 538.92 55.53 539.36 55.82 539.8 56.1 540.24 56.39 540.69 56.68 541.13 56.96 541.57 57.25 542.01 57.54 542.45 57.83 542.89 58.12 543.33 58.41 543.77 58.71 544.21 59 544.64 59.29 545.08 59.58 545.52 59.88 545.96 60.17 546.4 60.46 546.76 60.84 546.75 63.08 546.75 65.43 546.75 67.79 546.74 70.16 546.74 72.52 546.74 74.88 546.74 77.24 546.74 79.6 546.74 81.97 546.74 84.33 546.73 86.69 546.73 89.05 546.73 91.42 546.73 93.78 546.73 96.14 546.73 98.51 546.73 100.87 546.72 103.23 546.72 105.59 546.72 107.96 546.72 110.32 546.72 112.68 546.72 115.04 546.72 117.41 546.71 119.77 546.71 122.13 546.71 124.5 546.71 126.86 546.71 129.22 546.71 131.58 546.71 133.95 546.7 136.31 546.7 138.67 546.7 141.04 546.7 143.4 546.7 145.76 546.7 148.13 546.7 150.49 546.7 152.85 546.69 155.21 546.69 157.58 546.69 159.94 546.69 162.3 546.69 164.67 546.69 167.03 546.69 169.39 546.68 171.76 546.68 174.12 546.68 176.48 546.68 178.84 546.68 181.21 546.68 183.57 546.68 185.93 546.68 188.3 546.68 190.66 546.68 193.02 546.68 195.39 546.68 197.75 546.68 200.11 546.68 202.48 546.68 204.84 546.68 207.2 546.68 209.57 546.68 211.93 545.98 212.27 545.19 212.59 544.39 212.91 543.6 213.22 542.81 213.54 542.01 213.84 541.22 214.15 540.43 214.45 539.63 214.75 538.84 215.05 538.05 215.34 537.26 215.63 536.46 215.92 535.67 216.2 534.88 216.49 534.08 216.77 533.87 214.01 533.66 211.24 533.44 208.47 533.23 205.7 533.02 202.93 532.8 200.15 532.59 197.37 532.38 194.58 532.17 191.8 531.96 189.01 531.74 186.21 531.53 183.42 531.32 180.62 531.11 177.81 530.91 175.01 530.7 172.19 530.49 169.38 530.28 166.56 530.08 163.73 529.87 160.91 529.66 158.07 529.46 155.24 529.25 152.39 529.05 149.55 528.85 146.69 528.65 143.84 528.44 140.97 528.24 138.11 528.04 135.23 527.84 132.35 527.65 129.47 527.45 126.58 526.72 125.94 526 125.3 525.27 124.65 524.54 124.01 523.81 123.36 523.09 122.71 522.36 122.06 521.63 121.4 520.9 120.75 520.17 120.09 519.44 119.44 518.71 118.78 517.98 118.12 517.24 117.46 516.51 116.8 515.78 116.14 515.04 115.48 514.31 114.82 513.58 114.15 512.84 113.49 512.1 112.83 511.37 112.17 510.63 111.51 509.89 110.84 509.15 110.18 508.41 109.52 507.67 108.86 506.93 108.2 506.19 107.54 505.45 106.88 504.7 106.22 503.96 105.56 503.92 109.42 503.88 113.27 503.84 117.12 503.81 120.96 503.77 124.8 503.74 128.64 503.71 132.48 503.67 136.31 503.64 140.14 503.61 143.96 503.58 147.78 503.55 151.6 503.53 155.42 503.5 159.23 503.47 163.04 503.45 166.85 503.42 170.65 503.4 174.46 503.38 178.25 503.36 182.05 503.33 185.85 503.31 189.64 503.29 193.43 503.27 197.22 503.26 201 503.24 204.79 503.22 208.57 503.2 212.35 503.19 216.13 503.17 219.91 503.16 223.68 503.14 227.46 503.13 231.23 503.12 235 503.1 238.77 503.09 242.54 503.08 246.31 503.07 250.07 503.06 253.84 503.05 257.6 503.04 261.36 503.03 265.13 503.02 268.89 503.01 272.65 503 276.41 503 280.17 502.99 283.93 502.98 287.68 502.98 291.44 502.97 295.2 502.96 298.95 502.96 302.71 502.96 306.46 502.95 310.22 502.95 313.97 502.94 317.72 502.94 321.48 502.94 325.23 502.93 328.98 502.93 332.74 502.93 336.49 502.93 340.24 502.93 343.99 502.93 347.75 502.93 351.5 502.93 355.25 502.93 359 502.93 362.76 502.93 366.51 502.93 370.26 502.93 374.01 502.93 377.77 502.94 381.52 502.94 385.27 502.94 389.03 502.95 392.78 502.95 396.54 502.96 400.29 502.96 404.05 502.97 407.8 502.97 411.56 502.98 415.32 502.98 419.08 502.99 422.83 503 426.59 503 430.35 503.01 434.12 503.02 437.88 503.03 441.64 503.04 445.4 503.05 449.17 503.06 452.94 503.07 456.7 503.08 460.47 503.09 464.24 503.11 468.01 503.12 471.78 503.13 475.56 503.15 479.33 503.16 483.11 503.18 486.89 503.19 490.67 503.21 494.45 503.22 498.23 503.24 502.02 503.26 505.81 503.28 509.6 503.3 513.39 503.32 517.18 503.34 520.98 503.36 524.78 503.38 528.58 503.41 532.38 503.43 536.19 503.46 540 503.48 543.81 503.51 547.63 503.54 551.45 503.56 555.27 503.59 559.09 503.62 562.92 503.66 566.75 503.69 570.58 503.72 574.42 503.75 578.26 503.79 582.11 503.82 585.96 503.86 589.81 504.5 590.06 505.14 590.32 505.79 590.57 506.43 590.82 507.07 591.07 507.71 591.32 508.35 591.57 508.99 591.81 509.62 592.06 510.26 592.3 510.9 592.54 511.53 592.78 512.17 593.01 512.81 593.25 513.44 593.48 514.07 593.71 514.71 593.94 515.34 594.17 515.97 594.4 516.61 594.62 517.24 594.85 517.87 595.07 518.5 595.29 519.13 595.51 519.75 595.73 520.38 595.94 521.01 596.16 521.64 596.37 522.26 596.58 522.89 596.79 523.51 597 524.14 597.21 524.17 600.68 524.2 604.16 524.23 607.64 524.27 611.13 524.3 614.62 524.34 618.12 524.37 621.63 524.41 625.15 524.45 628.67 524.49 632.2 524.53 635.74 524.56 639.28 524.6 642.83 524.64 646.39 524.68 649.95 524.71 653.13 524.16 653.46 523.61 653.78 523.06 654.09 522.5 654.4 521.94 654.72 521.39 655.03 520.83 655.34 520.28 655.65 519.72 655.96 519.16 656.28 518.61 656.59 518.04 656.89 517.48 657.19 516.92 657.5 516.36 657.8 515.8 658.1 515.24 658.41 514.68 658.71 514.12 659.01 513.55 659.31 512.99 659.61 512.42 659.9 511.86 660.2 511.29 660.49 510.72 660.79 510.16 661.08 509.59 661.38 509.03 661.67 508.46 661.96 507.89 662.24 507.32 662.53 506.74 662.81 506.17 663.1 505.6 663.39 505.03 663.67 504.46 663.96 503.89 664.24 503.32 664.52 502.74 664.79 502.17 665.07 501.59 665.35 501.02 665.62 500.44 665.9 499.87 666.18 499.29 666.45 498.71 666.72 498.13 666.99 497.55 667.26 496.98 667.53 496.4 667.79 495.82 668.06 495.24 668.33 494.66 668.6 494.08 668.86 493.5 669.12 492.91 669.38 492.33 669.64 491.74 669.9 491.16 670.16 490.58 670.41 489.99 670.67 489.41 670.93 488.83 671.19 488.24 671.43 487.65 671.68 487.06 671.93 486.48 672.18 485.89 672.43 485.3 672.68 484.71 672.93 484.12 673.18 483.53 673.42 482.94 673.66 482.35 673.9 481.76 674.14 481.17 674.38 480.58 674.62 479.99 674.86 479.39 675.1 478.8 675.34 478.21 675.57 477.61 675.8 477.02 676.03 476.42 676.26 475.83 676.49 475.23 676.72 474.64 676.95 474.04 677.18 473.44 677.41 472.84 677.63 472.25 677.85 471.65 678.07 471.05 678.29 470.45 678.51 469.85 678.73 469.25 678.95 468.65 679.17 468.05 679.39 467.45 679.6 466.85 679.81 466.24 680.02 465.64 680.23 465.04 680.44 464.44 680.65 463.83 680.87 463.23 681.08 462.63 681.28 462.02 681.48 461.41 681.68 460.81 681.88 460.2 682.08 459.6 682.29 458.99 682.49 458.39 682.69 457.78 682.89 457.17 683.08 456.56 683.27 455.95 683.46 455.34 683.66 454.73 683.85 454.13 684.04 453.52 684.23 452.91 684.42 452.3 684.61 451.68 684.79 451.07 684.97 450.46 685.15 449.85 685.34 449.82 682.02 449.79 678.3 449.76 674.57 449.73 670.84 449.7 667.11 449.67 663.37 449.64 659.63 449.61 655.88 449.58 652.13 449.55 648.38 449.53 644.63 449.5 640.87 449.47 637.12 449.45 633.36 449.42 629.6 449.4 625.84 449.4 625.84 449.4 625.84M637.03 550.17Q636.07 551.53 635.09 552.94 634.11 554.34 633.11 555.79 632.09 557.18 631.04 558.5 629.99 559.83 628.91 561.14 627.82 562.44 626.72 563.74 625.6 565.02 624.45 566.29 623.31 567.56 622.13 568.82 620.94 570.06 619.73 571.3 618.51 572.52 617.26 573.73 616.01 574.94 614.73 576.12 613.44 577.3 612.12 578.46 610.79 579.62 609.44 580.75 608.07 581.88 606.68 582.98 605.28 584.08 603.86 585.16 602.42 586.22 600.95 587.27 599.48 588.3 597.98 589.31 596.47 590.31 595 591.23 593.52 592.14 592.07 592.97 590.63 593.79 589.22 594.54 587.81 595.27 586.44 595.93 585.07 596.57 583.74 597.14 582.41 597.69 581.12 598.17 579.83 598.63 578.59 599.02 577.36 599.39 576.17 599.68 574.98 599.95 573.84 600.14 572.71 600.31 571.63 600.39 570.56 600.45 569.55 600.43 568.54 600.38 567.59 600.24 566.65 600.08 565.77 599.83 564.89 599.55 564.08 599.19 563.27 598.8 562.52 598.35 561.78 597.86 561.08 597.31 561.08 597.31 561.08 597.31 561.08 595.09 561.08 592.87 561.08 590.65 561.08 588.43 561.08 586.21 561.08 583.99 561.08 581.77 561.08 579.55 561.08 577.33 561.08 575.11 561.08 572.89 561.08 570.67 561.08 568.45 561.08 566.23 561.08 564.01 561.08 561.79 561.08 559.57 561.08 557.35 561.08 555.13 561.08 552.91 561.08 550.69 561.08 548.47 561.08 546.25 561.08 544.03 561.08 541.81 561.08 539.59 561.08 537.37 561.08 535.15 561.08 532.93 561.08 530.72 561.08 528.5 561.08 526.28 561.08 524.06 561.08 521.84 561.08 519.62 561.08 517.4 561.08 515.18 561.08 512.96 561.08 510.74 561.08 508.52 561.08 506.3 561.08 504.08 561.08 501.86 561.08 499.64 561.08 497.43 561.08 495.21 561.08 492.99 561.07 490.77 561.07 488.55 561.07 486.33 561.07 484.11 561.07 481.89 561.07 479.67 561.07 477.45 561.07 475.24 561.07 473.02 561.07 470.8 561.07 468.58 561.07 466.36 561.07 464.14 561.07 461.92 561.07 459.7 561.07 457.49 561.07 455.27 562.29 454.96 563.52 454.65 564.75 454.32 565.98 453.99 567.2 453.64 568.43 453.28 569.66 452.91 570.89 452.53 572.12 452.14 573.34 451.74 574.57 451.32 575.8 450.9 577.02 450.47 578.25 450.02 579.48 449.57 580.7 449.11 581.1 451.44 581.51 453.76 581.91 456.08 582.32 458.38 582.72 460.68 583.13 462.97 583.54 465.25 583.95 467.52 584.37 469.78 584.78 472.03 585.2 474.27 585.62 476.5 586.04 478.72 586.46 480.93 586.89 483.14 587.32 485.33 587.75 487.51 588.18 489.68 588.62 491.85 589.06 494 589.5 496.14 589.94 498.27 590.39 500.39 590.84 502.5 591.3 504.6 591.76 506.69 592.22 508.76 592.69 510.83 593.16 512.88 593.64 514.92 594.12 516.95 594.6 518.97 595.46 520.72 596.36 522.21 597.27 523.67 598.22 524.87 599.17 526.05 600.16 526.97 601.16 527.87 602.2 528.51 603.23 529.13 604.3 529.49 605.38 529.84 606.48 529.93 607.59 530 608.73 529.83 609.86 529.64 611.02 529.2 612.19 528.75 613.41 528.13 614.63 527.49 615.91 526.67 617.19 525.84 618.52 524.84 619.19 524.33 619.87 523.78 620.54 523.22 621.24 522.62 621.93 522.02 622.63 521.37 623.33 520.72 624.04 520.03 624.76 519.33 625.48 518.59 626.2 517.84 626.94 517.05 627.67 516.26 628.42 515.43 629.16 514.59 629.91 513.7 630.66 512.82 631.43 511.89 632.19 510.96 632.96 509.98 632.96 509.98 632.96 509.98 633.77 508.95 634.56 507.87 635.33 506.8 636.09 505.7 636.83 504.59 637.55 503.45 638.26 502.32 638.95 501.15 639.63 499.98 640.29 498.79 640.94 497.59 641.56 496.37 642.18 495.15 642.78 493.9 643.37 492.66 643.93 491.39 644.5 490.12 645.04 488.83 645.57 487.55 646.08 486.24 646.59 484.93 647.08 483.61 647.57 482.28 648.03 480.94 648.49 479.61 648.92 478.25 649.36 476.9 649.78 475.53 650.19 474.17 650.58 472.79 650.98 471.42 651.35 470.03 651.72 468.65 652.07 467.28 652.41 465.91 652.73 464.55 653.05 463.19 653.34 461.84 653.63 460.49 653.9 459.15 654.17 457.82 654.41 456.5 654.65 455.18 654.87 453.86 655.08 452.56 655.28 451.26 655.47 449.96 655.64 448.67 655.81 447.39 655.96 446.11 656.1 444.83 656.22 443.56 656.35 442.3 656.44 441.04 656.54 439.78 656.62 438.52 656.69 437.27 656.74 436.02 656.79 434.77 656.82 433.52 656.84 432.27 656.84 431.02 656.85 429.78 656.82 428.52 656.82 428.52 656.82 428.52 656.79 427.06 656.67 425.69 656.54 424.32 656.32 423.05 656.09 421.76 655.77 420.57 655.44 419.36 655.02 418.23 654.59 417.09 654.06 416.02 653.52 414.93 652.88 413.91 652.24 412.87 651.5 411.88 650.75 410.87 649.9 409.91 649.47 409.42 649.01 408.94 648.56 408.45 648.07 407.97 647.59 407.49 647.08 407.01 646.57 406.53 646.03 406.05 645.49 405.57 644.92 405.09 644.36 404.6 643.76 404.12 643.16 403.63 642.54 403.15 641.92 402.66 641.26 402.17 640.61 401.67 639.93 401.17 639.25 400.66 638.54 400.16 637.83 399.64 637.09 399.13 636.35 398.6 635.58 398.07 634.82 397.53 634.02 396.99 633.22 396.44 632.4 395.88 631.57 395.31 630.71 394.74 629.86 394.16 628.97 393.57 628.97 393.57 628.97 393.57 628.19 393.02 627.42 392.47 626.65 391.91 625.88 391.34 625.12 390.76 624.37 390.18 623.62 389.58 622.88 388.98 622.14 388.37 621.41 387.76 620.68 387.14 619.96 386.51 619.24 385.88 618.53 385.24 617.82 384.6 617.12 383.95 616.43 383.29 615.74 382.63 615.06 381.97 614.38 381.3 613.71 380.62 613.04 379.95 612.38 379.27 611.73 378.58 611.08 377.89 610.44 377.2 609.8 376.51 609.17 375.82 608.54 375.11 607.92 374.42 607.3 373.71 606.7 373.01 606.09 372.3 605.5 371.6 604.9 370.89 604.32 370.18 603.74 369.47 603.17 368.76 602.6 368.05 602.04 367.34 600.92 365.91 599.85 364.5 598.78 363.07 597.76 361.67 596.74 360.26 595.76 358.87 594.79 357.47 593.86 356.11 592.94 354.73 592.06 353.38 591.18 352.03 590.36 350.72 589.53 349.39 588.72 348.03 587.91 346.65 587.12 345.24 586.32 343.81 585.55 342.35 584.78 340.88 584.03 339.37 583.27 337.85 582.54 336.29 581.8 334.73 581.09 333.12 580.37 331.51 579.67 329.86 578.98 328.21 578.3 326.51 577.62 324.81 576.96 323.07 576.31 321.33 575.67 319.55 575.03 317.76 574.41 315.94 573.79 314.11 573.19 312.24 572.58 310.37 572 308.47 571.42 306.55 570.86 304.61 570.3 302.66 569.75 300.67 569.21 298.68 568.69 296.65 568.16 294.62 567.67 292.55 567.18 290.47 566.72 288.34 566.26 286.21 565.84 284.04 565.41 281.86 565.02 279.63 564.62 277.4 564.26 275.13 563.9 272.86 563.57 270.54 563.24 268.22 562.94 265.85 562.65 263.48 562.38 261.07 562.12 258.66 561.89 256.21 561.66 253.75 561.46 251.25 561.26 248.75 561.1 246.21 560.93 243.67 560.8 241.08 560.67 238.5 560.57 235.88 560.47 233.25 560.4 230.59 560.33 227.92 560.3 225.22 560.27 222.52 560.27 219.78 560.27 219.78 560.27 219.78 560.27 216.99 560.31 214.26 560.34 211.53 560.42 208.86 560.5 206.19 560.61 203.57 560.73 200.95 560.88 198.39 561.04 195.83 561.23 193.33 561.43 190.83 561.66 188.39 561.89 185.95 562.17 183.57 562.44 181.2 562.76 178.88 563.07 176.57 563.43 174.33 563.79 172.09 564.18 169.91 564.58 167.74 565.02 165.64 565.47 163.54 565.95 161.51 566.44 159.49 566.97 157.54 567.5 155.6 568.08 153.74 568.66 151.89 569.28 150.11 569.91 148.35 570.59 146.67 571.27 145 571.98 143.43 572.7 141.88 573.46 140.42 574.22 138.98 575.01 137.65 575.82 136.33 576.66 135.12 577.5 133.93 578.39 132.84 579.27 131.77 580.2 130.81 581.13 129.86 582.1 129.03 583.07 128.21 584.08 127.5 585.09 126.81 586.14 126.22 587.19 125.66 588.27 125.19 589.36 124.74 590.47 124.4 591.59 124.07 592.73 123.84 593.88 123.63 595.05 123.51 596.22 123.41 597.42 123.41 598.61 123.42 599.83 123.53 601.05 123.65 602.28 123.87 603.51 124.1 604.75 124.42 605.97 124.75 607.2 125.15 608.42 125.57 609.64 126.07 610.86 126.58 612.07 127.17 613.28 127.77 614.48 128.45 615.68 129.14 616.88 129.9 618.07 130.68 619.25 131.53 620.43 132.39 621.6 133.32 622.77 134.26 623.93 135.28 625.09 136.3 626.24 137.4 627.38 138.51 628.52 139.69 629.65 140.87 630.78 142.13 631.89 143.4 633.01 144.73 634.11 146.08 635.21 147.49 636.31 148.91 637.39 150.41 638.47 151.9 639.55 153.47 639.55 153.47 639.55 153.47 640.36 154.68 641.19 155.95 642.03 157.21 642.87 158.54 643.71 159.87 644.56 161.26 645.41 162.65 646.27 164.11 647.12 165.56 647.99 167.07 648.85 168.59 649.72 170.17 650.59 171.75 651.47 173.39 652.34 175.03 653.22 176.73 654.1 178.44 654.98 180.2 655.85 181.97 656.74 183.8 657.61 185.63 658.49 187.52 659.37 189.41 660.25 191.36 661.12 193.32 662 195.33 662.87 197.35 663.74 199.43 664.61 201.51 665.48 203.65 666.33 205.79 667.2 207.99 668.05 210.19 668.85 212.33 669.65 214.47 670.4 216.55 671.14 218.62 671.84 220.64 672.54 222.65 673.19 224.6 673.83 226.55 674.44 228.43 675.04 230.31 675.6 232.13 676.16 233.94 676.69 235.68 677.2 237.42 677.69 239.08 678.17 240.75 678.63 242.34 679.08 243.92 679.49 245.44 679.91 246.94 680.3 248.38 680.69 249.8 681.06 251.15 681.42 252.49 681.76 253.76 682.1 255.01 682.42 256.19 683.07 258.51 683.61 260.54 683.61 260.54 683.61 260.54 683.59 261.36 683.58 262.17 683.57 262.97 683.57 263.76 683.57 264.54 683.57 265.3 683.58 266.06 683.59 266.81 683.61 267.56 683.63 268.29 683.65 269.02 683.68 269.75 683.7 270.46 683.73 271.17 683.77 271.88 683.8 272.58 683.83 273.28 683.87 273.98 683.91 274.67 683.95 275.36 683.99 276.04 684.03 276.72 684.08 277.4 684.12 278.08 684.17 278.75 684.21 279.42 684.26 280.09 684.3 280.76 684.35 281.43 684.4 282.09 684.45 282.75 684.5 283.41 684.54 284.07 684.59 284.73 684.64 285.39 684.69 286.04 684.74 286.7 684.79 287.35 684.84 288 684.89 288.66 684.94 289.31 684.99 289.96 685.04 290.61 685.09 291.25 685.14 291.9 685.19 292.55 685.23 293.19 685.28 293.84 685.33 294.49 685.38 295.13 685.43 295.78 685.47 296.42 685.52 297.06 685.57 297.71 685.61 298.35 685.66 298.99 685.71 299.63 685.75 300.27 685.8 300.92 685.84 301.56 685.89 302.2 685.93 302.84 685.97 303.48 686.02 304.12 685.42 303.72 684.83 303.32 684.24 302.91 683.64 302.5 683.05 302.08 682.46 301.66 681.87 301.23 681.28 300.8 680.7 300.37 680.11 299.93 679.52 299.48 678.94 299.03 678.35 298.58 677.76 298.12 677.18 297.66 676.6 297.2 676.01 296.73 675.43 296.26 674.85 295.78 674.27 295.31 673.68 294.82 673.1 294.34 672.52 293.85 671.94 293.36 671.36 292.86 670.78 292.37 670.2 291.87 669.62 291.36 669.04 290.86 668.46 290.35 667.88 289.84 667.3 289.32 666.98 287.95 666.67 286.57 666.35 285.18 666.05 283.77 665.74 282.35 665.44 280.91 665.14 279.46 664.85 278 664.55 276.52 664.27 275.03 663.98 273.53 663.7 272.01 663.43 270.48 663.16 268.93 662.89 267.37 662.63 265.8 662.37 264.21 662.12 262.6 661.87 260.98 661.63 259.35 661.39 257.7 661.16 256.03 660.93 254.35 660.71 252.65 660.49 250.94 660.28 249.22 660.08 247.47 659.88 245.72 659.68 243.94 659.49 242.15 659.31 240.35 659.13 238.53 658.6 236.48 657.81 234.12 657.42 232.94 656.97 231.68 656.51 230.41 655.99 229.06 655.47 227.71 654.89 226.28 654.3 224.85 653.64 223.34 652.99 221.83 652.26 220.24 651.53 218.65 650.73 216.98 649.93 215.31 649.15 213.74 648.36 212.16 647.6 210.68 646.83 209.2 646.09 207.82 645.35 206.44 644.62 205.15 643.9 203.87 643.2 202.69 642.5 201.51 641.82 200.43 641.14 199.36 640.48 198.38 639.82 197.41 639.19 196.54 639.19 196.54 639.19 196.54 638.45 195.53 637.72 194.58 636.98 193.63 636.26 192.75 635.53 191.88 634.8 191.07 634.08 190.26 633.36 189.52 632.64 188.78 631.92 188.11 631.21 187.45 630.5 186.85 629.79 186.25 629.09 185.72 628.39 185.2 627.7 184.74 627.01 184.29 626.32 183.91 625.64 183.53 624.96 183.22 624.29 182.91 623.62 182.68 622.95 182.44 622.3 182.28 620.98 181.97 619.72 181.93 618.45 181.92 617.23 182.18 616.01 182.47 614.92 183.09 613.82 183.73 612.86 184.71 611.89 185.7 611.06 187.02 610.23 188.35 609.54 190.01 608.85 191.68 608.29 193.66 607.74 195.66 607.33 197.97 606.92 200.29 606.65 202.91 606.38 205.53 606.25 208.45 606.25 208.45 606.25 208.45 606.12 211.37 606.1 214.29 606.09 217.21 606.17 220.12 606.27 223.03 606.46 225.92 606.66 228.81 606.95 231.68 607.25 234.54 607.65 237.37 608.05 240.2 608.55 243 609.05 245.79 609.65 248.54 610.25 251.28 610.94 253.99 611.63 256.68 612.39 259.35 613.16 262 613.98 264.62 614.4 265.93 614.83 267.23 615.26 268.52 615.71 269.8 616.15 271.08 616.62 272.36 617.08 273.62 617.56 274.88 618.04 276.13 618.54 277.38 619.03 278.62 619.55 279.85 620.06 281.07 620.59 282.29 621.12 283.49 621.66 284.69 622.21 285.89 622.77 287.07 623.33 288.25 623.9 289.41 624.48 290.57 625.07 291.72 625.66 292.87 626.27 294 626.88 295.13 627.52 296.29 628.16 297.44 628.84 298.62 629.51 299.8 630.22 301.01 630.92 302.2 631.66 303.43 632.4 304.65 633.17 305.89 633.94 307.12 634.75 308.38 635.55 309.63 636.39 310.9 637.23 312.15 638.1 313.43 638.96 314.69 639.87 315.97 640.77 317.23 641.7 318.51 642.64 319.78 643.61 321.06 644.57 322.32 645.57 323.59 646.58 324.84 647.61 326.1 648.64 327.34 649.71 328.59 650.25 329.2 650.79 329.82 651.33 330.43 651.88 331.04 652.43 331.65 652.99 332.25 653.55 332.85 654.12 333.45 654.12 333.45 654.12 333.45 654.8 334.16 655.47 334.85 656.14 335.54 656.81 336.21 657.47 336.88 658.13 337.54 658.78 338.18 659.42 338.82 660.07 339.46 660.7 340.08 661.34 340.69 661.96 341.3 662.59 341.9 663.21 342.49 663.82 343.07 664.43 343.65 665.04 344.22 665.63 344.78 666.23 345.33 666.82 345.87 667.41 346.41 667.98 346.94 668.56 347.47 669.13 347.99 669.7 348.5 670.26 349.01 670.82 349.5 671.36 350 671.91 350.48 672.45 350.97 672.99 351.44 673.52 351.91 674.05 352.37 674.57 352.83 675.09 353.29 675.6 353.74 676.11 354.18 676.61 354.62 677.11 355.05 677.6 355.48 678.58 356.33 679.52 357.16 680.45 357.97 681.35 358.77 682.25 359.55 683.1 360.32 683.96 361.07 684.77 361.82 685.58 362.55 686.35 363.28 687.12 363.99 687.85 364.7 688.58 365.4 689.26 366.11 689.93 366.8 690.56 367.51 691.18 368.21 691.76 368.93 692.33 369.63 692.85 370.35 693.37 371.06 693.84 371.79 694.31 372.51 694.73 373.25 695.15 373.98 695.51 374.74 695.87 375.48 696.19 376.25 696.5 377.01 696.76 377.79 697.01 378.56 697.22 379.36 697.42 380.16 697.58 380.98 697.73 381.79 697.84 382.64 697.94 383.47 697.98 384.34 698.03 385.2 698.02 386.09 698.02 386.98 697.95 387.91 697.81 388.86 697.7 389.81 697.7 389.81 697.7 389.81 697.59 390.75 697.51 391.66 697.4 392.58 697.23 393.52 697.04 394.45 696.81 395.39 696.59 396.33 696.33 397.27 696.07 398.22 695.78 399.17 695.48 400.12 695.14 401.08 694.81 402.04 694.44 403.01 694.07 403.99 693.67 404.98 693.27 405.97 692.83 406.98 692.4 408 691.93 409.03 691.46 410.08 690.97 411.14 690.47 412.22 689.95 413.32 689.43 414.43 688.88 415.57 688.34 416.73 687.77 417.93 687.2 419.14 686.62 420.4 686.04 421.67 685.44 423 684.85 424.35 684.25 425.73 683.67 427.15 683.07 428.61 682.49 430.1 681.91 431.63 681.33 433.2 680.76 434.81 680.2 436.46 679.63 438.16 679.08 439.9 678.53 441.68 677.99 443.5 677.44 445.36 676.91 447.26 676.37 449.2 675.84 451.17 675.3 453.18 674.77 455.22 674.22 457.29 673.69 459.39 673.14 461.52 672.59 463.66 672.03 465.83 671.46 468.02 670.88 470.23 670.3 472.46 669.69 474.69 669.08 476.94 668.45 479.2 667.81 481.48 667.14 483.75 666.47 486.04 665.78 488.31 665.09 490.59 664.36 492.84 663.64 495.1 662.89 497.34 662.13 499.59 661.34 501.81 660.55 504.03 659.73 506.22 658.9 508.42 658.05 510.59 657.19 512.75 656.3 514.89 655.4 517.03 654.47 519.14 653.53 521.24 652.56 523.32 651.59 525.39 650.59 527.43 649.57 529.46 648.53 531.46 647.48 533.46 646.39 535.42 645.31 537.38 644.18 539.3 643.05 541.22 641.89 543.1 640.71 544.92 639.5 546.65 638.89 547.51 638.27 548.39 637.65 549.27 637.03 550.17 637.03 550.17 637.03 550.17 637.03 550.17 637.03 550.17" class="warpedPath currentActivePath"></path></svg>