<svg id="svg_container" xmlns="http://www.w3.org/2000/svg" class="mw-100 mh-100 edit-svg" style="visibility: visible" viewBox="145.85000610351562 208.3000030517578 679.9200439453125 614.3099975585938" width="684.9200439453125px" height="619.3099975585938px">
        <defs>
            <linearGradient id="sampleGradient" gradientTransform="rotate(0)" x1="0%" y1="50%" x2="100%" y2="50%" gradientUnits="userSpaceOnUse">
                <stop offset="0%" id="first_color" stop-color="#0964ff"></stop>
                <stop offset="100%" id="second_color" stop-color="#64c7d3"></stop>
            </linearGradient>
        </defs>
    <path fill="url(#sampleGradient)" d="M181.67 277.15Q181.67 277.15 181.67 277.15 181.62 279.04 181.56 280.92 181.5 282.8 181.44 284.67 181.38 286.54 181.32 288.4 181.25 290.25 181.18 292.1 181.12 293.94 181.05 295.78 180.97 297.61 180.9 299.43 180.83 301.25 180.75 303.06 180.67 304.87 180.6 306.67 180.52 308.46 180.44 310.25 180.36 312.03 180.28 313.81 180.2 315.58 180.12 317.35 180.04 319.11 179.96 320.87 179.88 322.62 179.8 324.36 179.73 326.11 179.65 327.85 179.57 329.58 179.5 331.31 179.42 333.03 179.35 334.76 179.28 336.47 179.21 338.19 179.14 339.9 179.08 341.61 179.01 343.31 178.95 345.01 178.89 346.71 178.83 348.41 178.78 350.1 178.72 351.79 178.67 353.48 178.63 355.16 178.58 356.85 178.54 358.53 178.49 360.21 178.46 361.88 178.42 363.56 178.39 365.23 178.36 366.9 178.33 368.57 178.31 370.24 178.29 371.91 178.27 373.57 178.25 375.24 178.24 376.9 178.23 378.56 178.22 380.22 178.22 381.88 178.22 383.54 178.22 385.19 178.23 386.85 178.23 388.51 178.73 388.59 179.21 388.66 179.7 388.73 180.17 388.79 180.63 388.84 181.09 388.89 181.55 388.93 181.99 388.96 182.43 388.99 182.86 389.01 183.29 389.02 183.71 389.02 184.13 389.02 184.53 389.01 184.94 389 185.33 388.97 185.73 388.94 186.11 388.89 186.49 388.85 186.87 388.79 187.61 388.67 188.31 388.49 189.01 388.3 189.66 388.05 190.32 387.8 190.93 387.48 191.55 387.17 192.12 386.78 192.7 386.39 193.23 385.94 193.77 385.49 194.26 384.96 194.76 384.44 195.22 383.84 195.67 383.25 196.09 382.58 196.51 381.92 196.89 381.18 197.27 380.45 197.61 379.64 197.96 378.83 198.26 377.96 198.57 377.08 198.85 376.12 199.14 375.16 199.41 374.11 199.67 373.06 199.92 371.92 200.17 370.78 200.4 369.56 200.62 368.34 200.83 367.03 201.04 365.71 201.23 364.31 201.43 362.91 201.6 361.43 201.77 359.94 201.92 358.37 202.08 356.8 202.21 355.15 202.34 353.49 202.46 351.75 202.58 350.01 202.67 348.19 202.77 346.37 202.85 344.46 202.93 342.56 202.99 340.57 203.04 338.59 203.09 336.53 203.13 334.46 203.15 332.32 203.17 330.18 203.17 327.96 203.18 325.75 203.16 323.61 203.14 321.47 203.11 319.41 203.07 317.36 203.02 315.38 202.96 313.41 202.88 311.52 202.81 309.63 202.72 307.82 202.62 306.02 202.51 304.3 202.39 302.58 202.26 300.95 202.13 299.32 201.98 297.78 201.82 296.24 201.65 294.78 201.48 293.33 201.29 291.97 201.1 290.61 200.9 289.33 200.69 288.06 200.46 286.88 200.24 285.7 200 284.6 199.75 283.51 199.49 282.51 199.23 281.51 198.95 280.6 198.68 279.7 198.38 278.88 198.09 278.06 197.76 277.33 197.44 276.61 197.08 275.98 196.72 275.35 196.34 274.81 195.95 274.27 195.53 273.83 195.12 273.39 194.67 273.04 194.23 272.7 193.75 272.45 193.28 272.2 192.78 272.04 192.28 271.89 191.75 271.83 191.22 271.78 190.66 271.82 190.11 271.86 189.53 272 188.95 272.14 188.34 272.37 188.04 272.49 187.73 272.63 187.42 272.77 187.1 272.93 186.79 273.1 186.46 273.29 186.14 273.48 185.81 273.7 185.49 273.91 185.15 274.15 184.82 274.39 184.48 274.65 184.14 274.92 183.8 275.2 183.45 275.49 183.1 275.81 182.75 276.12 182.39 276.46 182.04 276.79 181.67 277.15 181.67 277.15 181.67 277.15M235 569.12Q235 572.2 235 575.28 235 578.36 234.95 580.91 234.67 580.77 234.27 580.3 233.87 579.84 233.47 579.38 233.07 578.92 232.67 578.45 232.28 577.99 231.88 577.53 231.48 577.07 231.08 576.6 230.69 576.14 230.29 575.67 229.9 575.21 229.5 574.75 229.1 574.28 228.71 573.82 228.15 573.16 227.6 572.53 227.05 571.91 226.52 571.33 225.98 570.67 225.46 569.96 224.93 569.25 224.42 568.52 223.91 567.79 223.41 567.05 222.91 566.31 222.42 565.55 221.93 564.79 221.46 564.02 220.98 563.24 220.52 562.45 220.06 561.67 219.6 560.86 219.15 560.06 218.71 559.24 218.27 558.42 217.84 557.59 217.41 556.76 216.99 555.91 216.57 555.06 216.16 554.2 215.76 553.34 215.36 552.46 214.97 551.59 214.58 550.7 214.2 549.81 213.83 548.91 213.45 548 213.09 547.09 212.73 546.17 212.38 545.24 212.03 544.31 211.69 543.37 211.35 542.43 211.02 541.47 210.69 540.52 210.37 539.55 210.05 538.58 209.74 537.6 209.43 536.62 209.14 535.62 208.84 534.63 208.55 533.63 207.98 531.62 207.45 529.55 206.91 527.49 206.42 525.38 205.93 523.27 205.48 521.11 205.03 518.96 204.61 516.75 204.61 516.75 204.61 516.75 204.28 515.03 203.97 513.27 203.65 511.52 203.35 509.73 203.04 507.95 202.75 506.13 202.46 504.32 202.18 502.47 201.9 500.63 201.63 498.76 201.36 496.89 201.1 494.98 200.84 493.08 200.6 491.15 200.35 489.22 200.12 487.26 199.88 485.3 199.66 483.31 199.43 481.33 199.22 479.31 199 477.29 198.8 475.25 198.6 473.2 198.4 471.13 198.21 469.05 198.03 466.95 197.85 464.84 197.68 462.71 197.51 460.57 197.35 458.41 197.2 456.24 197.05 454.04 197.05 454.04 197.05 454.04 196.93 452.2 196.8 450.39 196.67 448.58 196.54 446.82 196.41 445.06 196.28 443.33 196.15 441.61 196.02 439.93 195.89 438.26 195.75 436.62 195.62 434.99 195.48 433.39 195.34 431.8 195.2 430.25 195.06 428.7 194.92 427.19 194.92 427.19 194.92 427.19 194.76 425.49 194.58 423.89 194.41 422.3 194.21 420.8 194.02 419.31 193.8 417.91 193.59 416.51 193.36 415.22 193.13 413.93 192.88 412.73 192.63 411.54 192.36 410.45 192.1 409.36 191.81 408.36 191.53 407.38 191.22 406.49 190.92 405.6 190.6 404.81 190.27 404.02 189.93 403.33 189.59 402.64 189.23 402.05 188.87 401.46 188.49 400.96 188.1 400.47 187.7 400.06 187.3 399.66 186.88 399.36 186.46 399.05 186.02 398.83 185.58 398.62 185.12 398.49 185.12 398.49 185.12 398.49 184.7 398.38 184.28 398.26 183.87 398.15 183.45 398.04 183.03 397.93 182.61 397.81 182.18 397.7 181.76 397.59 181.33 397.48 180.91 397.37 180.48 397.26 180.05 397.15 179.62 397.04 179.19 396.93 178.75 396.82 178.32 396.71 178.34 398.26 178.37 399.81 178.4 401.36 178.43 402.91 178.46 404.45 178.5 406 178.54 407.55 178.58 409.1 178.62 410.65 178.67 412.2 178.72 413.75 178.76 415.29 178.82 416.84 178.87 418.39 178.93 419.94 178.98 421.49 179.04 423.04 179.11 424.6 179.17 426.15 179.23 427.7 179.3 429.25 179.37 430.81 179.44 432.36 179.51 433.92 179.58 435.48 179.66 437.04 179.73 438.6 179.81 440.16 179.88 441.72 179.96 443.28 180.04 444.85 180.12 446.42 180.2 447.99 180.28 449.56 180.36 451.13 180.44 452.71 180.53 454.28 180.61 455.86 180.69 457.45 180.77 459.03 180.85 460.62 180.93 462.21 181.01 463.8 181.1 465.4 181.18 466.99 181.25 468.6 181.33 470.2 181.41 471.81 181.49 473.42 181.56 475.04 181.64 476.66 181.71 478.28 181.78 479.91 181.85 481.54 181.92 483.17 181.98 484.81 182.05 486.46 182.11 488.11 182.17 489.76 182.23 491.41 182.29 493.08 182.35 494.74 182.4 496.41 182.46 498.08 182.83 498.65 183.21 499.21 183.58 499.78 183.96 500.34 184.34 500.9 184.71 501.47 185.09 502.03 185.47 502.59 185.85 503.15 186.24 503.71 186.62 504.27 187 504.83 187.39 505.38 187.77 505.94 188.16 506.5 188.54 507.06 188.58 509.36 188.62 511.67 188.66 513.98 188.7 516.3 188.23 515.58 187.75 514.86 187.28 514.14 186.81 513.41 186.34 512.69 185.87 511.97 185.4 511.24 184.93 510.51 184.47 509.79 184.01 509.06 183.55 508.33 183.09 507.6 182.63 506.86 182.17 506.13 181.71 505.4 181.26 504.66 180.81 503.93 180.36 503.19 179.91 502.45 179.46 501.72 179.02 500.98 178.57 500.24 178.13 499.5 177.69 498.75 177.25 498.01 176.81 497.27 176.38 496.52 175.94 495.77 175.51 495.03 175.08 494.28 174.65 493.53 174.22 492.78 173.8 492.03 173.37 491.28 172.95 490.52 172.53 489.77 172.11 489.02 171.7 488.26 171.28 487.5 170.87 486.75 170.45 485.99 170.05 485.23 169.64 484.47 169.23 483.71 168.82 482.95 168.42 482.19 168.02 481.43 167.62 480.67 167.22 479.9 166.82 479.14 166.42 478.38 166.03 477.62 165.63 476.85 165.24 476.09 164.84 475.33 164.45 474.57 164.05 473.82 163.65 473.07 163.24 472.34 162.83 471.61 162.4 470.91 161.94 470.26 161.42 469.69 160.81 469.24 160.19 467.8 159.57 466.35 158.97 464.9 158.37 463.45 158.91 463.73 159.43 464.04 159.93 464.39 160.41 464.77 160.87 465.18 161.32 465.61 161.75 466.06 162.16 466.53 162.57 467.02 162.97 467.52 163.36 468.03 163.74 468.55 164.11 469.08 164.49 469.62 164.85 470.16 165.22 470.71 164.95 469.26 164.66 467.82 164.37 466.41 164.06 465.01 163.76 463.62 163.44 462.24 163.12 460.88 162.8 459.52 162.48 458.17 162.16 456.83 161.83 455.49 161.51 454.16 161.18 452.83 160.86 451.5 160.54 450.18 160.22 448.86 159.9 447.54 159.59 446.22 159.28 444.91 158.97 443.59 158.67 442.28 158.37 440.97 158.08 439.66 157.79 438.35 157.5 437.03 157.22 435.72 156.94 434.41 156.67 433.1 156.4 431.79 156.14 430.48 155.89 429.16 155.64 427.85 155.39 426.54 155.15 425.22 154.92 423.91 154.69 422.59 154.47 421.28 154.25 419.96 154.04 418.64 153.84 417.32 153.64 416.01 153.45 414.69 153.26 413.37 153.08 412.04 152.91 410.72 152.74 409.4 152.58 408.08 152.43 406.75 152.29 405.43 152.15 404.1 152.01 402.78 151.89 401.45 151.77 400.12 151.65 398.8 151.55 397.47 151.45 396.14 151.36 394.81 151.28 393.48 151.2 392.15 151.13 390.82 151.07 389.49 151.01 388.16 150.97 386.83 150.93 385.5 150.9 384.17 150.87 382.84 150.86 381.51 150.85 380.18 150.85 378.84 150.85 377.51 150.87 376.18 150.89 374.85 150.92 373.51 150.96 372.18 151.01 370.85 151.06 369.51 151.13 368.18 151.2 366.84 151.28 365.5 151.37 364.17 151.46 362.83 151.57 361.49 151.68 360.15 151.8 358.81 151.93 357.47 152.07 356.13 152.22 354.79 152.37 353.45 152.53 352.11 152.71 350.77 152.89 349.43 153.07 348.09 153.27 346.74 153.48 345.4 153.69 344.06 153.91 342.71 154.14 341.37 154.38 340.02 154.63 338.68 154.88 337.33 155.14 335.98 155.42 334.63 155.69 333.28 155.98 331.92 156.28 330.57 156.58 329.21 156.89 327.85 157.21 326.48 157.53 325.12 157.86 323.74 158.2 322.37 158.55 320.98 158.9 319.59 159.26 318.19 159.63 316.78 160 315.36 160.37 313.93 160.75 312.49 161.13 311.03 161.52 309.54 161.91 308.04 162.3 306.52 162.7 304.96 163.09 303.38 163.49 301.76 163.88 300.1 164.26 298.39 164.64 296.65 164.25 297.14 163.85 297.64 163.43 298.16 163 298.69 162.55 299.24 162.09 299.82 161.6 300.4 161.09 301 160.56 301.61 160.01 302.2 159.44 302.77 158.85 303.31 158.24 303.81 157.61 304.24 156.96 304.6 156.3 304.88 156.99 303.46 157.72 302.06 158.44 300.66 159.16 299.24 159.87 298.06 160.57 296.86 161.28 295.66 161.98 294.47 162.68 293.27 163.39 292.07 164.09 290.87 164.64 289.96 165.03 289.38 165.41 288.8 165.79 288.22 166.18 287.64 166.56 287.06 166.94 286.48 167.33 285.9 167.73 285.33 168.13 284.77 168.53 284.2 168.93 283.64 169.34 283.07 169.74 282.51 170.14 281.94 170.55 281.38 170.97 280.83 171.39 280.28 171.81 279.73 172.23 279.18 172.65 278.63 173.08 278.08 173.5 277.53 173.93 276.99 174.37 276.45 174.81 275.91 175.25 275.38 175.69 274.84 176.13 274.31 176.57 273.77 177.01 273.24 177.47 272.72 177.93 272.2 178.39 271.68 178.84 271.16 179.3 270.64 179.76 270.12 180.22 269.6 180.68 269.09 181.16 268.59 181.63 268.08 182.11 267.58 182.58 267.08 183.06 266.57 183.53 266.07 184.01 265.57 184.5 265.08 184.99 264.59 185.48 264.1 185.98 263.62 186.47 263.13 186.96 262.64 187.45 262.16 187.95 261.67 188.46 261.2 188.96 260.73 189.47 260.26 189.97 259.81 190.45 259.38 190.93 258.95 191.41 258.54 191.9 258.14 192.38 257.78 192.86 257.41 193.34 257.08 193.81 256.74 194.28 256.42 194.75 256.11 195.21 255.82 195.67 255.53 196.13 255.28 196.59 255.04 197.05 254.81 197.51 254.59 197.95 254.4 198.4 254.2 198.84 254.03 199.29 253.86 199.72 253.72 200.16 253.59 200.6 253.48 201.03 253.38 201.46 253.3 201.88 253.22 202.3 253.17 202.72 253.12 203.14 253.1 203.55 253.08 203.96 253.09 204.37 253.1 204.77 253.14 205.17 253.18 205.57 253.24 205.96 253.31 206.35 253.41 206.74 253.51 207.12 253.63 207.5 253.76 207.88 253.91 208.25 254.07 208.62 254.25 208.99 254.44 209.35 254.65 209.71 254.87 210.06 255.11 210.41 255.36 210.76 255.63 211.11 255.9 211.44 256.2 211.78 256.51 212.11 256.84 212.44 257.17 212.77 257.53 213.41 258.26 214.03 259.1 214.64 259.95 215.22 260.91 215.8 261.88 216.35 262.96 216.89 264.05 217.41 265.25 217.92 266.46 218.39 267.78 218.87 269.11 219.31 270.56 219.74 272.01 220.15 273.58 220.55 275.16 220.91 276.85 221.27 278.55 221.6 280.35 221.92 282.17 222.21 284.1 222.5 286.04 222.75 288.08 223 290.13 223.21 292.29 223.42 294.45 223.59 296.71 223.77 298.99 223.91 301.36 224.05 303.74 224.15 306.21 224.25 308.69 224.32 311.27 224.39 313.84 224.42 316.52 224.45 319.19 224.45 321.95 224.45 321.95 224.45 321.95 224.44 324.15 224.42 326.29 224.39 328.43 224.34 330.52 224.29 332.61 224.22 334.65 224.15 336.69 224.05 338.68 223.95 340.67 223.83 342.6 223.71 344.54 223.57 346.41 223.43 348.29 223.26 350.11 223.09 351.93 222.9 353.7 222.71 355.46 222.5 357.17 222.28 358.88 222.04 360.53 221.8 362.17 221.54 363.76 221.28 365.35 220.99 366.88 220.71 368.4 220.4 369.87 220.09 371.34 219.76 372.74 219.42 374.15 219.07 375.49 218.71 376.83 218.33 378.11 217.95 379.39 217.55 380.58 217.16 381.76 216.75 382.85 216.35 383.94 215.92 384.93 215.5 385.92 215.07 386.83 214.64 387.72 214.19 388.53 213.74 389.33 213.28 390.05 212.82 390.76 212.35 391.38 211.88 392 211.39 392.53 210.9 393.06 210.4 393.5 209.9 393.94 209.39 394.3 208.87 394.65 208.35 394.91 207.82 395.17 207.28 395.35 206.74 395.53 206.18 395.62 205.63 395.72 205.06 395.73 204.49 395.74 203.91 395.67 203.32 395.61 202.73 395.46 202.73 395.46 202.73 395.46 202.73 397.25 202.73 399.07 203.18 399.2 203.62 399.38 204.05 399.57 204.48 399.83 204.91 400.08 205.33 400.4 205.75 400.73 206.16 401.12 206.57 401.51 206.97 401.97 207.37 402.43 207.77 402.96 208.16 403.5 208.55 404.1 208.93 404.71 209.31 405.39 209.68 406.07 210.05 406.82 210.42 407.57 210.78 408.4 211.14 409.22 211.49 410.12 211.84 411.03 212.18 412 212.52 412.98 212.86 414.04 213.19 415.09 213.51 416.22 213.84 417.36 214.16 418.56 214.47 419.77 214.78 421.06 215.09 422.35 215.39 423.71 215.69 425.08 215.98 426.52 216.27 427.96 216.55 429.48 216.84 431 217.11 432.6 217.38 434.2 217.65 435.88 217.92 437.56 218.17 439.31 218.43 441.07 218.68 442.9 218.93 444.74 219.17 446.65 219.41 448.56 219.64 450.55 219.87 452.55 220.09 454.61 220.32 456.69 220.53 458.83 220.74 460.98 220.95 463.2 221.16 465.43 221.35 467.73 221.55 470.04 221.74 472.41 221.93 474.8 222.11 477.25 222.29 479.71 222.46 482.24 222.46 482.24 222.46 482.24 222.63 484.92 222.81 487.51 222.98 490.11 223.16 492.62 223.34 495.12 223.51 497.54 223.69 499.97 223.86 502.3 224.04 504.63 224.21 506.88 224.39 509.12 224.57 511.28 224.74 513.43 224.92 515.5 225.1 517.57 225.27 519.55 225.45 521.53 225.63 523.41 225.8 525.3 225.98 527.1 226.16 528.9 226.34 530.61 226.51 532.32 226.69 533.94 226.87 535.56 227.05 537.08 227.23 538.61 227.41 540.05 227.77 542.93 228.13 545.44 228.49 547.95 228.87 550.21 229.25 552.48 229.65 554.5 230.05 556.51 230.46 558.28 230.88 560.05 231.31 561.56 231.75 563.07 232.2 564.33 232.65 565.58 233.12 566.56 233.59 567.52 234.08 568.2 234.57 568.84 235 569.12 235 569.12 235 569.12 235 569.12 235 569.12M310.34 643.35Q310.71 643.68 311.07 644.02 311.44 644.35 311.81 644.67 312.17 645 312.54 645.33 312.91 645.65 313.27 645.97 313.64 646.28 314 646.59 314.37 646.89 314.73 647.18 315.09 647.46 315.45 647.72 315.8 647.98 316.1 648.17 316.1 652.11 316.1 656.04 316.1 659.97 316.06 663.23 315.65 663.12 315.15 662.64 314.64 662.16 314.13 661.69 313.62 661.21 313.12 660.73 312.61 660.26 312.1 659.78 311.6 659.31 311.09 658.83 310.58 658.35 310.08 657.88 309.57 657.4 309.07 656.93 308.56 656.45 308.05 655.97 307.55 655.49 307.05 655.02 306.54 654.54 306.04 654.06 305.53 653.59 305.03 653.11 304.52 652.63 304.02 652.15 303.52 651.67 303.01 651.19 302.51 650.72 302.01 650.24 301.51 649.76 301 649.28 300.5 648.8 300 648.32 299.5 647.84 299 647.36 298.5 646.88 297.99 646.4 297.49 645.92 296.99 645.44 296.49 644.96 295.99 644.48 295.49 644 294.99 643.51 294.49 643.03 293.99 642.55 293.49 642.07 293 641.59 292.5 641.1 292 640.62 291.5 640.14 291.01 639.66 290.51 639.17 290.01 638.69 289.51 638.21 289.02 637.72 288.52 637.24 288.02 636.75 287.53 636.27 287.03 635.78 286.54 635.3 286.04 634.81 285.55 634.33 285.05 633.84 284.56 633.35 284.07 632.87 284.1 629.61 284.15 626 284.19 622.38 284.24 618.76 284.68 619.19 285.12 619.61 285.56 620.04 286.01 620.47 286.45 620.89 286.89 621.32 287.34 621.75 287.78 622.17 288.22 622.6 288.67 623.02 289.11 623.45 289.56 623.88 290 624.3 290.45 624.73 290.89 625.15 291.34 625.58 291.12 622.15 290.9 618.73 290.68 615.31 290.46 611.89 290.24 608.47 290.03 605.05 289.81 601.63 289.59 598.21 289.37 594.79 289.15 591.38 288.93 587.97 288.72 584.56 288.5 581.15 288.28 577.74 288.06 574.34 287.84 570.93 287.63 567.54 287.41 564.14 287.19 560.75 286.97 557.36 286.75 553.97 286.54 550.59 286.32 547.21 286.1 543.83 285.88 540.46 285.67 537.09 285.45 533.72 285.23 530.36 285.01 527 284.8 523.65 284.58 520.3 284.36 516.96 283.99 516.68 283.62 516.41 283.26 516.13 282.89 515.86 282.52 515.58 282.15 515.31 281.78 515.03 281.41 514.75 281.05 514.48 280.68 514.2 280.31 513.93 279.95 513.65 279.58 513.37 279.21 513.1 278.85 512.82 278.48 512.55 278.11 512.27 277.75 511.99 277.38 511.72 277.02 511.44 276.65 511.17 276.29 510.89 275.92 510.61 275.56 510.34 275.19 510.06 274.83 509.79 274.47 509.51 274.1 509.23 273.74 508.96 273.38 508.68 273.01 508.41 272.65 508.13 272.29 507.85 271.93 507.58 271.57 507.3 271.21 507.03 270.84 506.75 270.48 506.48 270.12 506.2 269.77 505.93 269.41 505.65 269.05 505.38 268.69 505.11 268.33 504.83 267.97 504.56 267.61 504.28 267.26 504.01 266.9 503.74 266.55 503.47 266.19 503.19 265.83 502.92 265.48 502.65 265.13 502.38 264.77 502.11 264.42 501.84 264.07 501.56 263.71 501.29 263.36 501.02 263.01 500.76 262.66 500.49 262.31 500.22 261.96 499.95 261.61 499.68 261.26 499.42 261.02 502.18 260.78 504.94 260.54 507.7 260.29 510.45 260.05 513.21 259.8 515.96 259.55 518.7 259.3 521.45 259.05 524.19 258.79 526.93 258.54 529.67 258.28 532.41 258.02 535.14 257.76 537.88 257.5 540.61 257.24 543.34 256.97 546.07 256.71 548.8 256.44 551.53 256.17 554.26 255.9 556.99 255.62 559.72 255.35 562.44 255.07 565.17 254.79 567.9 254.52 570.64 254.24 573.37 253.96 576.11 253.67 578.85 253.39 581.59 253.11 584.33 252.83 587.09 253.39 587.68 253.96 588.27 254.52 588.87 255.08 589.46 255.65 590.05 256.22 590.65 256.78 591.24 257.35 591.83 257.92 592.42 258.49 593.01 259.06 593.61 259.63 594.2 260.2 594.79 260.77 595.38 261.34 595.96 261.92 596.55 261.85 600.04 261.79 603.54 261.72 607.04 261.67 610.19 261.35 609.87 261.04 609.54 260.73 609.22 260.42 608.89 260.11 608.57 259.8 608.24 259.49 607.92 259.18 607.59 258.87 607.26 258.56 606.94 258.25 606.61 257.94 606.28 257.63 605.95 257.32 605.63 257.01 605.3 256.7 604.97 256.39 604.65 256.08 604.32 255.77 603.99 255.46 603.66 255.15 603.33 254.84 603 254.54 602.67 254.23 602.35 253.92 602.02 253.61 601.69 253.3 601.36 252.99 601.03 252.69 600.7 252.38 600.37 252.07 600.04 251.77 599.71 251.46 599.38 251.15 599.05 250.85 598.72 250.54 598.39 250.24 598.06 249.93 597.73 249.62 597.4 249.32 597.06 249.01 596.73 248.71 596.4 248.4 596.07 248.1 595.74 247.79 595.4 247.49 595.07 247.19 594.74 246.88 594.41 246.58 594.07 246.27 593.74 245.97 593.41 245.66 593.07 245.36 592.74 245.06 592.41 244.76 592.07 244.45 591.74 244.15 591.4 243.85 591.07 243.55 590.73 243.25 590.4 242.94 590.07 242.64 589.74 242.34 589.41 242.05 589.13 242.18 586.19 242.34 583 242.5 579.82 242.65 576.63 243.08 576.98 243.52 577.36 243.97 577.77 244.42 578.21 244.87 578.67 245.33 579.14 245.79 579.62 246.25 580.1 246.72 580.59 247.18 581.08 247.65 581.58 248.12 582.08 248.59 582.58 249.06 583.08 249.53 583.58 250 584.08 250.29 581.39 250.57 578.7 250.86 576.01 251.15 573.33 251.43 570.66 251.72 567.98 252 565.31 252.28 562.64 252.56 559.97 252.84 557.3 253.11 554.63 253.39 551.96 253.66 549.29 253.93 546.62 254.2 543.94 254.46 541.27 254.73 538.6 254.99 535.92 255.25 533.25 255.5 530.57 255.76 527.89 256.01 525.21 256.26 522.52 256.51 519.84 256.75 517.15 257 514.46 257.24 511.77 257.48 509.07 257.72 506.37 257.96 503.67 258.2 500.97 258.44 498.26 258.67 495.55 258.9 492.84 259.14 490.13 259.37 487.41 259.6 484.69 259.83 481.97 260.06 479.24 260.29 476.51 260.51 473.78 260.74 471.04 260.97 468.3 261.19 465.55 261.42 462.8 261.64 460.05 261.87 457.3 262.09 454.54 262.31 451.78 262.54 449.01 262.76 446.24 262.98 443.46 263.2 440.68 263.42 437.9 263.64 435.11 263.86 432.32 264.08 429.52 264.3 426.72 264.52 423.92 264.74 421.11 264.96 418.29 265.18 415.47 265.4 412.65 265.62 409.82 265.84 406.99 266.06 404.15 266.27 401.31 266.49 398.46 266.71 395.6 266.93 392.75 267.15 389.88 267.36 387.01 267.58 384.14 267.8 381.26 268.01 378.37 268.23 375.48 268.45 372.59 268.66 369.68 268.88 366.78 269.1 363.86 269.31 360.95 269.53 358.02 269.75 355.09 269.96 352.15 270.18 349.21 270.4 346.26 270.61 343.31 270.83 340.35 271.04 337.38 271.26 334.41 271.48 331.43 271.69 328.45 271.91 325.46 272.13 322.46 272.34 319.46 272.56 316.45 272.77 313.44 272.99 310.42 273.21 307.39 273.42 304.36 273.64 301.32 273.85 298.27 274.07 295.22 274.29 292.17 274.5 289.11 274.72 286.04 274.94 282.97 275.15 279.89 275.37 276.81 275.59 273.72 275.8 270.62 276.02 267.52 276.24 264.42 276.45 261.31 276.67 258.2 276.89 255.08 277.11 251.96 277.33 248.84 277.54 245.71 277.76 242.57 277.98 239.44 278.2 236.3 278.42 233.16 278.64 230.02 278.86 226.87 279.08 223.73 279.3 220.58 279.52 217.44 279.89 217.37 280.25 217.31 280.62 217.25 280.98 217.19 281.35 217.13 281.71 217.08 282.08 217.03 282.45 216.98 282.67 220.08 282.89 223.18 283.11 226.28 283.33 229.39 283.54 232.5 283.76 235.61 283.98 238.73 284.2 241.85 284.42 244.97 284.64 248.1 284.86 251.23 285.07 254.36 285.29 257.5 285.51 260.64 285.73 263.78 285.94 266.93 286.16 270.08 286.37 273.23 286.59 276.38 286.8 279.54 287.02 282.71 287.23 285.87 287.45 289.04 287.66 292.22 287.88 295.39 288.09 298.57 288.3 301.76 288.52 304.95 288.73 308.14 288.94 311.34 289.15 314.54 289.36 317.75 289.58 320.95 289.79 324.17 290 327.39 290.21 330.61 290.42 333.84 290.63 337.07 290.84 340.3 291.05 343.54 291.26 346.79 291.48 350.03 291.69 353.29 291.9 356.54 292.11 359.81 292.32 363.07 292.53 366.34 292.74 369.62 292.95 372.9 293.16 376.18 293.37 379.47 293.58 382.77 293.79 386.07 294.01 389.37 294.22 392.67 294.43 395.99 294.64 399.3 294.85 402.62 295.07 405.95 295.28 409.28 295.49 412.61 295.7 415.95 295.92 419.29 296.13 422.63 296.35 425.98 296.56 429.34 296.77 432.7 296.99 436.06 297.2 439.42 297.42 442.79 297.63 446.17 297.85 449.55 298.07 452.93 298.28 456.32 298.5 459.7 298.72 463.1 298.93 466.5 299.15 469.9 299.37 473.3 299.59 476.71 299.8 480.12 300.02 483.54 300.24 486.95 300.46 490.38 300.68 493.8 300.9 497.23 301.12 500.66 301.34 504.1 301.56 507.54 301.78 510.98 302 514.42 302.23 517.87 302.45 521.32 302.67 524.77 302.89 528.23 303.11 531.69 303.34 535.15 303.56 538.61 303.78 542.08 304.01 545.55 304.23 549.02 304.46 552.49 304.68 555.97 304.9 559.45 305.13 562.93 305.35 566.42 305.58 569.9 305.8 573.39 306.03 576.88 306.26 580.37 306.48 583.86 306.71 587.36 306.94 590.85 307.16 594.35 307.39 597.85 307.62 601.35 307.84 604.85 308.07 608.36 308.3 611.86 308.52 615.36 308.75 618.87 308.98 622.37 309.21 625.87 309.43 629.37 309.66 632.87 309.89 636.37 310.11 639.86 310.34 643.35 310.34 643.35 310.34 643.35M273.02 350.56Q272.86 352.76 272.7 354.97 272.54 357.17 272.37 359.36 272.21 361.56 272.05 363.75 271.89 365.93 271.72 368.12 271.56 370.3 271.4 372.47 271.24 374.65 271.08 376.82 270.91 378.99 270.75 381.15 270.59 383.32 270.43 385.48 270.26 387.63 270.1 389.79 269.94 391.94 269.77 394.08 269.61 396.23 269.45 398.37 269.29 400.51 269.12 402.65 268.96 404.78 268.8 406.91 268.63 409.04 268.47 411.16 268.3 413.29 268.14 415.41 267.98 417.52 267.81 419.64 267.65 421.75 267.48 423.86 267.32 425.97 267.15 428.07 266.99 430.17 266.82 432.27 266.66 434.37 266.49 436.46 266.33 438.55 266.16 440.64 265.99 442.73 265.83 444.81 265.66 446.89 265.49 448.97 265.33 451.05 265.16 453.12 264.99 455.2 264.82 457.27 264.66 459.33 264.49 461.4 264.32 463.46 264.15 465.53 263.98 467.58 263.81 469.64 263.64 471.7 263.47 473.75 263.3 475.8 263.13 477.85 262.96 479.9 262.78 481.94 262.61 483.99 262.44 486.03 262.76 486.26 263.07 486.48 263.39 486.71 263.71 486.93 264.03 487.16 264.35 487.39 264.67 487.62 264.98 487.85 265.3 488.07 265.63 488.3 265.95 488.53 266.27 488.76 266.59 488.99 266.91 489.22 267.23 489.45 267.55 489.68 267.88 489.91 268.2 490.14 268.52 490.37 268.85 490.61 269.17 490.84 269.5 491.07 269.82 491.3 270.15 491.53 270.47 491.76 270.8 492 271.12 492.23 271.45 492.46 271.78 492.69 272.1 492.93 272.43 493.16 272.76 493.39 273.08 493.62 273.41 493.86 273.74 494.09 274.07 494.32 274.39 494.56 274.72 494.79 275.05 495.02 275.38 495.26 275.71 495.49 276.04 495.72 276.37 495.96 276.7 496.19 277.03 496.42 277.36 496.66 277.69 496.89 278.02 497.13 278.35 497.36 278.68 497.59 279.01 497.83 279.34 498.06 279.67 498.29 280 498.53 280.33 498.76 280.67 499 281 499.23 281.33 499.46 281.66 499.7 281.99 499.93 282.33 500.16 282.66 500.4 282.99 500.63 283.32 500.86 283.17 498.43 283.01 496 282.85 493.57 282.69 491.14 282.53 488.72 282.37 486.29 282.21 483.87 282.05 481.46 281.89 479.04 281.73 476.63 281.58 474.23 281.42 471.82 281.26 469.42 281.1 467.02 280.94 464.62 280.78 462.23 280.62 459.83 280.46 457.44 280.3 455.06 280.14 452.68 279.98 450.3 279.82 447.92 279.66 445.54 279.5 443.17 279.34 440.8 279.18 438.44 279.02 436.07 278.86 433.71 278.7 431.35 278.54 429 278.38 426.65 278.22 424.3 278.06 421.95 277.9 419.61 277.74 417.27 277.58 414.93 277.42 412.6 277.26 410.26 277.1 407.93 276.94 405.61 276.77 403.28 276.61 400.96 276.45 398.64 276.29 396.33 276.13 394.01 275.96 391.7 275.8 389.4 275.64 387.09 275.48 384.79 275.32 382.49 275.15 380.19 274.99 377.9 274.83 375.61 274.66 373.32 274.5 371.03 274.34 368.75 274.17 366.46 274.01 364.18 273.84 361.91 273.68 359.63 273.52 357.36 273.35 355.09 273.19 352.82 273.02 350.56 273.02 350.56 273.02 350.56M378.97 704.24Q378.95 708.6 378.94 712.95 378.92 717.3 378.9 721.21 378.44 720.78 377.97 720.35 377.5 719.92 377.03 719.49 376.56 719.06 376.1 718.62 375.63 718.19 375.16 717.76 374.69 717.33 374.22 716.9 373.75 716.47 373.28 716.04 372.82 715.61 372.35 715.17 371.88 714.74 371.41 714.31 370.94 713.88 370.47 713.45 370 713.02 369.53 712.59 369.06 712.16 368.59 711.73 368.12 711.3 367.65 710.87 367.18 710.44 366.71 710 366.24 709.57 365.77 709.14 365.3 708.71 364.83 708.28 364.36 707.85 363.89 707.42 363.42 706.99 362.95 706.56 362.48 706.13 362.01 705.7 361.54 705.27 361.07 704.84 360.59 704.41 360.12 703.98 359.65 703.55 359.18 703.12 358.71 702.69 358.24 702.26 357.77 701.83 357.3 701.4 356.83 700.97 356.36 700.54 355.89 700.11 355.41 699.68 354.94 699.25 354.47 698.82 354 698.39 353.53 697.96 353.06 697.53 352.59 697.1 352.12 696.67 351.65 696.24 351.18 695.81 350.71 695.38 350.23 694.95 349.76 694.52 349.29 694.09 348.82 693.66 348.87 689.82 348.92 685.55 348.97 681.29 349.02 677.03 349.67 677.62 350.32 678.21 350.97 678.8 351.62 679.4 352.27 679.99 352.92 680.58 353.58 681.17 354.23 681.76 354.26 678.94 354.28 676.12 354.31 673.3 354.34 670.49 354.37 667.67 354.4 664.86 354.43 662.04 354.46 659.23 354.48 656.41 354.51 653.6 354.54 650.79 354.57 647.97 354.6 645.16 354.63 642.35 354.66 639.54 354.69 636.73 354.71 633.92 354.74 631.11 354.77 628.3 354.8 625.49 354.83 622.69 354.86 619.88 354.88 617.07 354.91 614.27 354.94 611.46 354.97 608.65 354.99 605.85 355.02 603.04 355.05 600.24 355.07 597.43 355.1 594.63 355.13 591.83 355.15 589.02 355.18 586.22 355.2 583.42 355.23 580.61 355.25 577.81 355.28 575.01 355.3 572.21 355.32 569.4 355.35 566.6 355.37 563.8 355.39 561 355.42 558.2 355.44 555.4 355.46 552.59 355.48 549.79 355.5 546.99 355.53 544.19 355.55 541.39 355.57 538.59 355.59 535.79 355.61 532.99 355.63 530.19 355.65 527.39 355.66 524.59 355.68 521.79 355.7 518.99 355.72 516.19 355.74 513.39 355.75 510.59 355.77 507.78 355.79 504.98 355.81 502.18 355.65 500.01 355.49 497.85 355.33 495.68 355.17 493.51 355.01 491.35 354.85 489.19 354.69 487.02 354.53 484.86 354.37 482.7 354.21 480.55 354.05 478.39 353.9 476.23 353.74 474.08 353.58 471.93 353.42 469.78 353.26 467.63 353.1 465.48 352.94 463.33 352.78 461.18 352.62 459.04 352.46 456.89 352.3 454.75 352.14 452.61 351.98 450.47 351.82 448.33 351.66 446.19 351.5 444.05 351.34 441.92 351.18 439.78 351.02 437.65 350.86 435.52 350.7 433.39 350.54 431.26 350.38 429.13 350.22 427 350.06 424.88 349.9 422.75 349.74 420.63 349.58 418.51 349.42 416.39 349.26 414.27 349.1 412.15 348.94 410.03 348.78 407.91 348.62 405.8 348.46 403.68 348.29 401.57 348.13 399.46 347.97 397.35 347.81 395.24 347.65 393.13 347.49 391.02 347.33 388.91 347.16 386.81 347 384.7 346.84 382.6 346.68 380.49 346.52 378.39 346.35 376.29 346.19 374.19 346.03 372.09 345.87 370 345.7 367.9 345.54 365.8 345.38 363.71 345.22 361.62 345.05 359.52 344.89 357.43 344.73 355.34 344.56 353.25 344.4 351.16 344.24 349.07 344.08 346.99 343.91 344.9 343.75 342.81 343.59 340.73 343.42 338.65 343.26 336.56 343.1 334.48 342.93 332.4 342.77 330.32 342.6 328.24 342.44 326.17 342.28 324.09 342.11 322.01 341.95 319.94 341.79 317.86 341.62 315.79 341.46 313.71 341.29 311.64 341.13 309.57 340.97 307.5 340.8 305.43 340.64 303.36 340.47 301.29 340.31 299.22 340.15 297.16 339.98 295.09 339.82 293.03 339.65 290.96 339.49 288.9 339.33 286.83 339.16 284.77 339 282.71 338.83 280.65 338.67 278.59 338.51 276.53 338.34 274.47 338.18 272.41 338.02 270.35 337.85 268.29 337.69 266.23 337.52 264.17 337.36 262.12 337.2 260.06 337.03 258 336.87 255.95 336.71 253.89 336.54 251.83 336.38 249.78 336.21 247.72 336.05 245.67 335.89 243.61 335.72 241.55 335.56 239.5 335.39 237.44 335.23 235.38 335.06 233.32 334.66 233.26 334.25 233.2 333.85 233.14 333.44 233.08 333.04 233.02 332.64 232.95 332.23 232.89 331.83 232.82 331.42 232.75 331.02 232.67 330.62 232.58 330.22 232.49 329.82 232.39 329.42 232.27 329.02 232.13 328.63 231.98 328.63 227.91 328.63 223.84 328.63 219.78 328.63 215.71 329.17 215.76 329.72 215.81 330.27 215.86 330.82 215.91 331.37 215.96 331.91 216.01 332.46 216.06 333.01 216.11 333.56 216.16 334.11 216.22 334.65 216.28 335.2 216.35 335.75 216.41 336.3 216.47 336.85 216.54 337.4 216.6 337.94 216.67 338.49 216.73 339.04 216.8 339.57 216.87 340.09 216.94 340.61 217.02 341.13 217.09 341.64 217.17 342.16 217.24 342.68 217.32 343.2 217.39 343.72 217.47 344.23 217.54 344.75 217.63 345.26 217.72 345.78 217.8 346.29 217.89 346.81 217.98 347.32 218.07 347.83 218.16 348.35 218.25 348.86 218.33 349.38 218.43 349.92 218.53 350.46 218.64 351 218.75 351.54 218.86 352.08 218.97 352.62 219.08 353.16 219.19 353.7 219.3 354.24 219.41 354.78 219.52 355.31 219.65 355.85 219.77 356.38 219.9 356.92 220.02 357.46 220.15 357.99 220.27 358.53 220.4 359.06 220.52 359.6 220.65 360.13 220.79 360.66 220.93 361.19 221.07 361.72 221.21 362.25 221.35 362.78 221.49 362.77 225.86 362.75 230.23 362.74 234.6 362.72 238.97 362.35 238.86 361.98 238.76 361.61 238.66 361.24 238.55 360.86 238.45 360.49 238.35 360.12 238.25 359.75 238.15 359.37 238.05 359 237.95 358.63 237.86 358.25 237.76 357.88 237.67 357.51 237.57 357.13 237.48 356.76 237.39 357.01 240.88 357.27 244.37 357.52 247.87 357.78 251.36 358.03 254.86 358.29 258.36 358.54 261.86 358.79 265.36 359.05 268.86 359.3 272.36 359.55 275.87 359.81 279.37 360.06 282.88 360.31 286.39 360.57 289.9 360.82 293.41 361.07 296.92 361.33 300.43 361.58 303.94 361.83 307.46 362.09 310.98 362.34 314.5 362.59 318.02 362.85 321.54 363.1 325.07 363.36 328.59 363.61 332.12 363.86 335.65 364.12 339.18 364.38 342.72 364.63 346.25 364.89 349.79 365.14 353.33 365.4 356.87 365.66 360.42 365.91 363.97 366.17 367.52 366.43 371.07 366.69 374.62 366.95 378.18 367.2 381.74 367.46 385.3 367.72 388.87 367.98 392.43 368.24 396 368.5 399.58 368.76 403.15 369.02 406.73 369.28 410.31 369.55 413.89 369.81 417.48 370.07 421.06 370.33 424.66 370.6 428.25 370.86 431.85 371.12 435.45 371.38 439.05 371.65 442.65 371.91 446.26 372.18 449.87 372.44 453.48 372.71 457.1 372.97 460.72 373.24 464.34 373.49 461.04 373.75 457.74 374 454.44 374.26 451.13 374.51 447.82 374.77 444.51 375.02 441.19 375.27 437.87 375.53 434.55 375.78 431.23 376.03 427.9 376.28 424.57 376.53 421.24 376.78 417.9 377.03 414.57 377.28 411.23 377.53 407.88 377.78 404.54 378.03 401.19 378.28 397.84 378.52 394.48 378.77 391.13 379.01 387.77 379.26 384.41 379.5 381.04 379.75 377.68 379.99 374.31 380.24 370.94 380.48 367.57 380.72 364.19 380.96 360.82 381.2 357.44 381.44 354.06 381.68 350.68 381.92 347.29 382.15 343.9 382.39 340.52 382.62 337.13 382.86 333.73 383.09 330.34 383.32 326.95 383.56 323.55 383.79 320.15 384.01 316.75 384.24 313.35 384.47 309.95 384.7 306.54 384.92 303.14 385.14 299.73 385.37 296.32 385.59 292.92 385.81 289.51 386.03 286.1 386.25 282.68 386.46 279.27 386.68 275.86 386.89 272.45 387.11 269.04 387.32 265.62 387.53 262.21 387.75 258.8 387.96 255.39 388.17 251.97 388.39 248.56 387.81 248.3 387.23 248.03 386.66 247.77 386.09 247.51 385.52 247.25 384.95 246.99 384.38 246.74 383.81 246.5 383.25 246.25 382.68 246.01 382.12 245.77 381.56 245.54 380.99 245.3 380.43 245.07 379.87 244.84 379.3 244.62 379.31 240.18 379.31 235.75 379.32 231.33 379.32 226.91 379.63 227.03 379.93 227.15 380.24 227.27 380.54 227.4 380.84 227.52 381.15 227.65 381.45 227.77 381.75 227.9 382.06 228.02 382.36 228.15 382.66 228.27 382.97 228.4 383.27 228.52 383.57 228.65 383.88 228.77 384.18 228.9 384.48 229.02 384.79 229.16 385.1 229.3 385.41 229.44 385.73 229.58 386.04 229.72 386.35 229.86 386.66 230 386.97 230.14 387.28 230.28 387.59 230.42 387.9 230.56 388.21 230.7 388.52 230.84 388.84 230.98 389.15 231.12 389.46 231.26 389.78 231.42 390.1 231.58 390.43 231.74 390.75 231.9 391.07 232.06 391.39 232.21 391.71 232.37 392.04 232.53 392.36 232.69 392.68 232.85 393 233.01 393.32 233.16 393.65 233.32 393.97 233.48 394.29 233.64 394.59 233.8 394.89 233.96 395.19 234.11 395.49 234.27 395.78 234.43 396.08 234.59 396.38 234.75 396.67 234.91 396.97 235.06 397.27 235.22 397.56 235.38 397.86 235.54 398.16 235.7 398.46 235.86 398.75 236.01 399.01 236.31 399.1 240.68 399.21 245.19 399.31 249.72 399.41 254.24 398.93 253.96 398.4 253.66 397.88 253.38 397.37 253.1 396.86 252.82 396.36 252.55 395.86 252.29 395.36 252.02 394.86 251.76 394.35 251.5 393.85 251.24 393.34 250.99 392.83 250.73 392.32 250.47 391.81 250.22 391.3 249.96 391.06 253.78 390.83 257.6 390.59 261.42 390.36 265.24 390.13 269.06 389.89 272.88 389.66 276.7 389.43 280.52 389.19 284.35 388.96 288.17 388.72 291.99 388.48 295.81 388.24 299.63 388 303.44 387.75 307.26 387.51 311.08 387.26 314.89 387.01 318.7 386.76 322.52 386.51 326.33 386.25 330.13 386 333.94 385.74 337.75 385.48 341.55 385.22 345.35 384.96 349.15 384.7 352.95 384.43 356.74 384.17 360.53 383.9 364.32 383.64 368.11 383.37 371.9 383.1 375.68 382.83 379.46 382.56 383.24 382.29 387.01 382.02 390.79 381.74 394.56 381.47 398.32 381.19 402.09 380.92 405.85 380.64 409.61 380.37 413.36 380.09 417.12 379.81 420.87 379.54 424.61 379.26 428.36 378.98 432.1 378.7 435.83 378.42 439.57 378.14 443.3 377.85 447.02 377.57 450.75 377.29 454.47 377.01 458.18 376.72 461.9 376.44 465.61 376.15 469.31 375.87 473.01 375.58 476.71 375.3 480.41 375.01 484.1 374.72 487.78 374.43 491.47 374.43 494.73 374.42 498 374.42 501.26 374.41 504.53 374.4 507.79 374.4 511.05 374.39 514.32 374.38 517.58 374.38 520.84 374.37 524.11 374.36 527.37 374.35 530.63 374.35 533.89 374.34 537.15 374.33 540.41 374.32 543.67 374.32 546.93 374.31 550.19 374.3 553.45 374.29 556.71 374.28 559.97 374.27 563.22 374.26 566.48 374.25 569.74 374.25 572.99 374.24 576.25 374.23 579.51 374.22 582.76 374.21 586.02 374.2 589.27 374.19 592.52 374.18 595.78 374.17 599.03 374.15 602.28 374.14 605.53 374.13 608.78 374.12 612.03 374.11 615.28 374.1 618.53 374.09 621.78 374.08 625.03 374.07 628.27 374.05 631.52 374.04 634.76 374.03 638.01 374.02 641.25 374 644.5 373.99 647.74 373.98 650.98 373.97 654.22 373.95 657.46 373.94 660.7 373.93 663.94 373.92 667.17 373.9 670.41 373.89 673.65 373.88 676.88 373.86 680.11 373.85 683.35 373.83 686.58 373.82 689.81 373.8 693.04 373.79 696.27 373.78 699.5 374.43 700.09 375.08 700.68 375.72 701.28 376.37 701.87 377.02 702.46 377.67 703.05 378.32 703.65 378.97 704.24 378.97 704.24 378.97 704.24M478.97 799.06Q479.35 799.42 479.73 799.79 480.11 800.15 480.5 800.52 480.88 800.89 481.26 801.25 481.64 801.61 482.02 801.98 482.4 802.34 482.78 802.7 483.16 803.07 483.54 803.43 483.91 803.78 484.29 804.14 484.66 804.49 484.97 804.78 484.97 809.31 484.97 813.83 484.97 818.34 484.92 822.07 484.5 821.99 483.98 821.48 483.45 820.97 482.92 820.47 482.4 819.96 481.87 819.46 481.34 818.95 480.82 818.45 480.29 817.94 479.76 817.44 479.23 816.93 478.71 816.43 478.18 815.92 477.65 815.42 477.13 814.91 476.6 814.41 476.07 813.9 475.55 813.4 475.02 812.89 474.49 812.39 473.97 811.88 473.44 811.38 472.91 810.87 472.39 810.37 471.86 809.86 471.33 809.36 470.81 808.85 470.28 808.35 469.75 807.84 469.23 807.34 468.7 806.83 468.17 806.33 467.65 805.82 467.12 805.32 466.59 804.81 466.06 804.31 465.54 803.8 465.01 803.3 464.48 802.79 463.96 802.29 463.43 801.78 462.9 801.28 462.38 800.77 461.85 800.27 461.32 799.76 460.8 799.26 460.27 798.75 459.74 798.25 459.22 797.74 458.69 797.24 458.16 796.73 457.64 796.23 457.11 795.72 456.58 795.22 456.06 794.71 455.53 794.21 455 793.7 454.48 793.2 453.95 792.69 453.42 792.19 452.89 791.68 452.37 791.18 451.84 790.67 451.31 790.17 451.36 786.14 451.41 781.67 451.45 777.2 451.5 772.72 451.97 773.18 452.44 773.63 452.92 774.08 453.39 774.53 453.86 774.98 454.33 775.44 454.8 775.89 455.27 776.34 455.74 776.79 456.21 777.24 456.68 777.69 457.15 778.15 457.62 778.6 458.1 779.05 458.57 779.5 459.04 779.95 458.8 775.8 458.57 771.66 458.34 767.51 458.1 763.36 457.87 759.21 457.64 755.06 457.41 750.92 457.17 746.77 456.94 742.62 456.71 738.48 456.48 734.33 456.25 730.18 456.01 726.04 455.78 721.89 455.55 717.75 455.32 713.6 455.09 709.46 454.86 705.31 454.63 701.17 454.4 697.03 454.17 692.88 453.94 688.74 453.71 684.6 453.49 680.46 453.26 676.32 453.03 672.18 452.8 668.04 452.58 663.9 452.35 659.76 452.12 655.62 451.9 651.49 451.67 647.35 451.28 646.98 450.9 646.6 450.51 646.23 450.12 645.86 449.74 645.49 449.35 645.11 448.97 644.74 448.58 644.37 448.2 644 447.81 643.63 447.43 643.25 447.04 642.88 446.66 642.51 446.27 642.14 445.89 641.77 445.5 641.39 445.12 641.02 444.74 640.65 444.35 640.28 443.97 639.91 443.59 639.53 443.21 639.16 442.82 638.79 442.44 638.42 442.06 638.05 441.68 637.68 441.3 637.3 440.92 636.93 440.54 636.56 440.16 636.19 439.78 635.82 439.4 635.45 439.02 635.08 438.64 634.7 438.27 634.33 437.89 633.96 437.51 633.59 437.14 633.22 436.76 632.85 436.38 632.48 436.01 632.11 435.64 631.74 435.26 631.37 434.89 631 434.52 630.63 434.14 630.26 433.77 629.88 433.4 629.51 433.03 629.14 432.66 628.77 432.29 628.4 431.93 628.03 431.56 627.66 431.19 627.29 430.83 626.93 430.46 626.56 430.1 626.19 429.74 625.82 429.38 625.45 429.02 625.08 428.66 624.71 428.3 624.34 427.94 623.97 427.58 623.6 427.31 627.24 427.03 630.88 426.75 634.52 426.47 638.16 426.19 641.79 425.9 645.43 425.61 649.07 425.32 652.7 425.03 656.34 424.73 659.97 424.43 663.61 424.13 667.24 423.82 670.87 423.51 674.51 423.2 678.14 422.88 681.77 422.56 685.41 422.23 689.04 421.91 692.67 421.58 696.3 421.25 699.93 420.91 703.57 420.57 707.2 420.23 710.83 419.89 714.46 419.54 718.1 419.2 721.73 418.85 725.36 418.5 729 418.15 732.63 417.8 736.27 417.46 739.9 418.08 740.51 418.7 741.11 419.32 741.71 419.94 742.32 420.56 742.92 421.18 743.53 421.81 744.13 422.43 744.74 423.06 745.34 423.68 745.95 424.3 746.55 424.93 747.16 425.56 747.76 426.18 748.37 426.81 748.97 427.43 749.58 427.34 754.03 427.25 758.48 427.16 762.93 427.09 766.94 426.74 766.62 426.4 766.29 426.06 765.96 425.72 765.63 425.37 765.3 425.03 764.97 424.69 764.65 424.35 764.32 424 763.99 423.66 763.66 423.32 763.33 422.98 763 422.63 762.68 422.29 762.35 421.95 762.02 421.61 761.69 421.26 761.36 420.92 761.03 420.58 760.71 420.24 760.38 419.89 760.05 419.55 759.72 419.21 759.39 418.87 759.07 418.52 758.74 418.18 758.41 417.84 758.08 417.5 757.75 417.15 757.42 416.81 757.1 416.47 756.77 416.13 756.44 415.79 756.11 415.44 755.78 415.1 755.45 414.76 755.13 414.42 754.8 414.07 754.47 413.73 754.14 413.39 753.81 413.05 753.48 412.7 753.16 412.36 752.83 412.02 752.5 411.68 752.17 411.33 751.84 410.99 751.51 410.65 751.19 410.31 750.86 409.96 750.53 409.62 750.2 409.28 749.87 408.94 749.55 408.59 749.22 408.25 748.89 407.91 748.56 407.57 748.23 407.22 747.91 406.88 747.58 406.54 747.25 406.2 746.92 405.85 746.6 405.51 746.28 405.19 746.02 405.46 741.97 405.78 737.56 406.09 733.16 406.41 728.76 406.84 729.24 407.28 729.74 407.74 730.23 408.22 730.73 408.7 731.24 409.2 731.74 409.7 732.25 410.2 732.76 410.71 733.27 411.23 733.78 411.74 734.29 412.26 734.8 412.77 735.31 413.29 735.82 413.81 736.33 414.33 736.85 414.7 733.25 415.06 729.66 415.43 726.07 415.8 722.48 416.16 718.89 416.53 715.3 416.89 711.71 417.25 708.12 417.61 704.53 417.96 700.94 418.31 697.35 418.65 693.77 419 690.18 419.33 686.59 419.67 683 419.99 679.41 420.32 675.82 420.64 672.23 420.95 668.64 421.26 665.05 421.57 661.46 421.87 657.87 422.17 654.27 422.46 650.68 422.75 647.09 423.04 643.5 423.32 639.9 423.6 636.31 423.88 632.72 424.16 629.12 424.43 625.53 424.7 621.93 424.96 618.33 425.23 614.74 425.49 611.14 425.75 607.54 426.01 603.94 426.27 600.34 426.52 596.75 426.78 593.15 427.03 589.54 427.28 585.94 427.53 582.34 427.78 578.74 428.02 575.13 428.27 571.53 428.51 567.93 428.76 564.32 429 560.71 429.24 557.11 429.49 553.5 429.73 549.89 429.97 546.28 430.2 542.67 430.44 539.06 430.68 535.45 430.92 531.84 431.15 528.22 431.39 524.61 431.63 520.99 431.86 517.38 432.1 513.76 432.33 510.14 432.56 506.52 432.8 502.9 433.03 499.28 433.26 495.66 433.5 492.04 433.73 488.41 433.96 484.79 434.19 481.16 434.43 477.54 434.66 473.91 434.89 470.28 435.12 466.65 435.35 463.02 435.58 459.38 435.81 455.75 436.04 452.11 436.27 448.48 436.5 444.84 436.73 441.2 436.96 437.56 437.2 433.92 437.43 430.28 437.66 426.64 437.89 422.99 438.12 419.34 438.35 415.7 438.58 412.05 438.81 408.4 439.04 404.75 439.27 401.1 439.5 397.44 439.73 393.79 439.96 390.13 440.19 386.47 440.42 382.81 440.65 379.15 440.88 375.49 441.11 371.83 441.35 368.16 441.58 364.5 441.81 360.83 442.04 357.17 442.27 353.5 442.5 349.83 442.73 346.16 442.97 342.48 443.2 338.81 443.43 335.14 443.66 331.46 443.89 327.79 444.13 324.11 444.36 320.43 444.59 316.75 444.82 313.08 445.05 309.4 445.28 305.72 445.51 302.04 445.74 298.36 445.97 294.68 446.2 291 446.43 287.32 446.66 283.64 446.89 279.96 447.11 276.28 447.34 272.6 447.69 272.93 448.04 273.25 448.39 273.57 448.74 273.9 449.09 274.22 449.44 274.55 449.79 274.88 450.14 275.2 450.33 279.27 450.53 283.35 450.73 287.42 450.93 291.49 451.13 295.57 451.33 299.64 451.52 303.72 451.72 307.79 451.92 311.87 452.12 315.94 452.32 320.02 452.52 324.09 452.73 328.17 452.93 332.25 453.13 336.32 453.34 340.4 453.54 344.47 453.75 348.55 453.95 352.63 454.16 356.7 454.37 360.78 454.58 364.85 454.78 368.93 454.99 373.01 455.21 377.08 455.42 381.16 455.63 385.24 455.84 389.31 456.06 393.39 456.27 397.47 456.49 401.54 456.7 405.62 456.92 409.7 457.14 413.78 457.35 417.86 457.57 421.94 457.79 426.01 458.01 430.09 458.23 434.17 458.45 438.25 458.67 442.34 458.89 446.42 459.12 450.5 459.34 454.58 459.56 458.66 459.79 462.74 460.01 466.83 460.23 470.91 460.46 475 460.69 479.08 460.91 483.16 461.14 487.25 461.36 491.34 461.59 495.42 461.82 499.51 462.04 503.6 462.27 507.68 462.5 511.77 462.73 515.86 462.96 519.95 463.19 524.04 463.41 528.13 463.64 532.22 463.87 536.31 464.1 540.41 464.33 544.5 464.56 548.59 464.79 552.69 465.02 556.78 465.25 560.87 465.49 564.97 465.72 569.07 465.95 573.16 466.18 577.26 466.41 581.36 466.64 585.45 466.88 589.55 467.11 593.65 467.34 597.75 467.57 601.85 467.81 605.95 468.04 610.05 468.27 614.15 468.51 618.25 468.74 622.35 468.98 626.46 469.21 630.56 469.44 634.66 469.68 638.77 469.91 642.87 470.15 646.97 470.38 651.08 470.62 655.18 470.86 659.29 471.09 663.4 471.33 667.5 471.56 671.61 471.8 675.72 472.04 679.83 472.28 683.93 472.51 688.04 472.75 692.15 472.99 696.26 473.23 700.37 473.46 704.48 473.7 708.59 473.94 712.7 474.18 716.81 474.42 720.92 474.66 725.03 474.9 729.14 475.14 733.26 475.38 737.37 475.61 741.48 475.85 745.59 476.09 749.71 476.33 753.82 476.57 757.93 476.81 762.04 477.05 766.16 477.29 770.27 477.53 774.38 477.77 778.5 478.01 782.61 478.25 786.72 478.49 790.83 478.73 794.94 478.97 799.06 478.97 799.06 478.97 799.06M440.3 434.04Q440.13 436.74 439.96 439.45 439.78 442.15 439.61 444.85 439.44 447.56 439.27 450.26 439.1 452.96 438.93 455.66 438.76 458.36 438.58 461.06 438.41 463.76 438.24 466.45 438.07 469.15 437.9 471.85 437.72 474.55 437.55 477.24 437.38 479.94 437.2 482.63 437.03 485.32 436.86 488.02 436.68 490.71 436.51 493.4 436.34 496.09 436.16 498.78 435.99 501.47 435.81 504.16 435.64 506.85 435.46 509.54 435.29 512.23 435.11 514.92 434.94 517.61 434.76 520.29 434.59 522.98 434.41 525.66 434.23 528.35 434.06 531.03 433.88 533.72 433.7 536.4 433.52 539.09 433.34 541.77 433.16 544.45 432.99 547.13 432.81 549.81 432.63 552.5 432.44 555.18 432.26 557.86 432.08 560.54 431.9 563.21 431.72 565.89 431.53 568.57 431.35 571.25 431.17 573.93 430.98 576.6 430.8 579.28 430.61 581.96 430.42 584.63 430.24 587.31 430.05 589.98 429.86 592.66 429.67 595.33 429.48 598.01 429.29 600.68 429.1 603.35 428.9 606.03 429.23 606.36 429.55 606.69 429.88 607.02 430.2 607.35 430.53 607.69 430.86 608.02 431.19 608.35 431.51 608.68 431.84 609.01 432.17 609.35 432.5 609.68 432.84 610.01 433.17 610.34 433.5 610.68 433.83 611.01 434.17 611.34 434.5 611.67 434.84 612.01 435.17 612.34 435.51 612.67 435.84 613.01 436.18 613.34 436.52 613.67 436.85 614.01 437.19 614.34 437.53 614.67 437.87 615.01 438.21 615.34 438.55 615.67 438.89 616.01 439.23 616.34 439.57 616.67 439.91 617.01 440.25 617.34 440.59 617.68 440.93 618.01 441.27 618.34 441.62 618.68 441.96 619.01 442.3 619.35 442.65 619.68 442.99 620.01 443.33 620.35 443.68 620.68 444.02 621.02 444.37 621.35 444.71 621.68 445.05 622.02 445.4 622.35 445.75 622.69 446.09 623.02 446.44 623.36 446.78 623.69 447.13 624.03 447.47 624.36 447.82 624.69 448.17 625.03 448.51 625.36 448.86 625.7 449.21 626.03 449.56 626.37 449.9 626.7 450.25 627.04 450.6 627.37 450.43 624.34 450.27 621.31 450.11 618.28 449.94 615.25 449.78 612.21 449.62 609.18 449.46 606.15 449.29 603.12 449.13 600.09 448.97 597.07 448.8 594.04 448.64 591.01 448.48 587.98 448.32 584.95 448.16 581.93 447.99 578.9 447.83 575.87 447.67 572.85 447.51 569.82 447.35 566.8 447.19 563.77 447.03 560.75 446.86 557.72 446.7 554.7 446.54 551.68 446.38 548.65 446.22 545.63 446.06 542.61 445.9 539.59 445.74 536.57 445.58 533.54 445.42 530.52 445.26 527.5 445.1 524.48 444.94 521.46 444.78 518.44 444.61 515.43 444.45 512.41 444.29 509.39 444.13 506.37 443.97 503.35 443.81 500.34 443.65 497.32 443.49 494.3 443.33 491.29 443.17 488.27 443.01 485.26 442.85 482.24 442.69 479.23 442.53 476.21 442.37 473.2 442.21 470.18 442.05 467.17 441.89 464.16 441.73 461.14 441.57 458.13 441.41 455.12 441.26 452.11 441.1 449.09 440.94 446.08 440.78 443.07 440.62 440.06 440.46 437.05 440.3 434.04 440.3 434.04 440.3 434.04M519.9 295.23Q519.93 298.63 519.95 302.02 519.97 305.42 519.99 308.82 520.01 312.22 520.03 315.61 520.05 319.01 520.07 322.41 520.09 325.8 520.11 329.2 520.13 332.59 520.15 335.99 520.16 339.38 520.18 342.78 520.2 346.17 520.21 349.56 520.23 352.96 520.25 356.35 520.26 359.74 520.27 363.13 520.29 366.52 520.3 369.91 520.31 373.3 520.32 376.69 520.34 380.08 520.35 383.47 520.36 386.86 520.37 390.24 520.38 393.63 520.39 397.02 520.39 400.4 520.4 403.79 520.41 407.18 520.42 410.56 520.42 413.94 520.43 417.33 520.43 420.71 520.44 424.1 520.44 427.48 520.45 430.86 520.45 434.24 520.45 437.62 520.45 441.01 520.46 444.39 520.46 447.77 520.46 451.15 520.46 454.53 520.46 457.91 520.46 461.29 520.46 464.66 520.46 468.04 520.46 471.42 520.45 474.8 520.45 478.18 520.45 481.56 520.45 484.93 520.44 488.31 520.44 491.69 520.43 495.06 520.43 498.44 520.42 501.82 520.42 505.19 520.41 508.57 520.4 511.94 520.93 511.42 521.45 510.89 521.98 510.37 522.51 509.84 523.03 509.32 523.56 508.79 524.09 508.27 524.62 507.74 525.13 507.23 525.63 506.63 526.13 506.04 526.62 505.35 527.1 504.67 527.57 503.89 528.05 503.12 528.5 502.26 528.95 501.4 529.39 500.46 529.83 499.51 530.26 498.48 530.68 497.45 531.09 496.33 531.5 495.21 531.89 494 532.28 492.79 532.66 491.5 533.03 490.21 533.39 488.83 533.76 487.45 534.1 485.98 534.44 484.51 534.77 482.96 535.1 481.41 535.41 479.77 535.72 478.13 536.02 476.4 536.31 474.67 536.59 472.86 536.87 471.04 537.13 469.14 537.4 467.24 537.64 465.25 537.89 463.26 538.12 461.19 538.35 459.11 538.56 456.95 538.77 454.79 538.97 452.54 539.17 450.29 539.35 447.95 539.53 445.62 539.69 443.19 539.85 440.77 540 438.25 540.14 435.74 540.27 433.14 540.4 430.54 540.51 427.85 540.62 425.17 540.72 422.39 540.81 419.61 540.89 416.75 540.97 413.88 541.03 410.93 541.09 407.98 541.13 404.93 541.18 401.89 541.2 398.76 541.23 395.63 541.23 392.41 541.24 389.18 541.23 385.87 541.23 385.87 541.23 385.87 541.22 382.45 541.19 379.14 541.16 375.84 541.12 372.65 541.07 369.47 541.01 366.4 540.95 363.34 540.87 360.39 540.79 357.45 540.69 354.62 540.59 351.8 540.48 349.1 540.37 346.39 540.24 343.81 540.1 341.22 539.96 338.76 539.81 336.29 539.64 333.95 539.48 331.61 539.3 329.39 539.12 327.17 538.92 325.06 538.72 322.96 538.51 320.98 538.29 319 538.06 317.15 537.84 315.29 537.59 313.55 537.34 311.82 537.08 310.21 536.82 308.59 536.55 307.1 536.27 305.61 535.98 304.24 535.69 302.88 535.38 301.63 535.07 300.39 534.75 299.27 534.43 298.14 534.1 297.15 533.76 296.15 533.41 295.28 533.06 294.4 532.69 293.65 532.33 292.9 531.95 292.28 531.57 291.65 531.18 291.15 530.79 290.65 530.38 290.27 529.97 289.9 529.55 289.65 529.13 289.39 528.7 289.27 528.26 289.14 527.81 289.14 527.37 289.14 526.9 289.26 526.44 289.38 525.97 289.63 525.49 289.88 525 290.25 524.51 290.62 524.01 291.12 524.01 291.12 524.01 291.12 523.49 291.63 522.98 292.14 522.46 292.66 521.95 293.17 521.44 293.68 520.93 294.2 520.42 294.71 519.9 295.23 519.9 295.23 519.9 295.23M520.36 530.4Q520.35 534.24 520.34 538.08 520.32 541.91 520.31 545.75 520.3 549.58 520.28 553.41 520.27 557.25 520.25 561.08 520.23 564.92 520.22 568.75 520.2 572.58 520.18 576.42 520.16 580.25 520.14 584.08 520.12 587.92 520.1 591.75 520.08 595.58 520.05 599.41 520.03 603.25 520 607.08 519.98 610.91 519.95 614.74 519.93 618.57 519.9 622.4 519.87 626.24 519.84 630.07 519.81 633.9 519.78 637.73 519.75 641.56 519.71 645.39 519.68 649.22 519.65 653.05 519.61 656.88 519.58 660.71 519.54 664.54 519.5 668.37 519.46 672.2 519.43 676.03 519.39 679.86 519.35 683.69 519.31 687.52 519.26 691.34 519.22 695.17 519.18 699 519.14 702.83 519.09 706.66 519.05 710.48 519.01 714.31 518.96 718.14 518.92 721.97 518.87 725.79 518.83 729.62 518.78 733.45 518.74 737.27 518.69 741.1 518.65 744.93 518.6 748.75 518.56 752.58 518.51 756.4 518.47 760.23 518.42 764.05 518.38 767.88 518.33 771.7 518.29 775.53 518.8 775.02 519.31 774.51 519.82 774 520.33 773.49 520.84 772.98 521.35 772.48 521.86 771.97 522.37 771.46 522.88 770.95 523.39 770.44 523.9 769.94 524.41 769.43 524.92 768.92 525.43 768.41 525.94 767.9 526.45 767.4 526.99 766.85 527.53 766.21 528.06 765.57 528.58 764.83 529.1 764.09 529.61 763.26 530.11 762.42 530.61 761.49 531.1 760.56 531.58 759.53 532.06 758.5 532.53 757.37 532.99 756.25 533.45 755.02 533.9 753.8 534.34 752.48 534.78 751.16 535.2 749.74 535.63 748.33 536.04 746.81 536.45 745.3 536.85 743.69 537.25 742.08 537.63 740.38 538.01 738.67 538.38 736.87 538.75 735.07 539.11 733.17 539.47 731.27 539.81 729.27 540.15 727.28 540.48 725.19 540.81 723.1 541.11 720.92 541.42 718.75 541.71 716.5 542 714.25 542.27 711.92 542.53 709.59 542.78 707.18 543.03 704.77 543.26 702.28 543.49 699.79 543.7 697.22 543.9 694.65 544.09 692 544.28 689.35 544.45 686.62 544.62 683.89 544.77 681.08 544.91 678.28 545.04 675.39 545.17 672.5 545.28 669.53 545.39 666.56 545.48 663.51 545.57 660.46 545.63 657.33 545.7 654.21 545.75 651 545.8 647.79 545.83 644.5 545.86 641.21 545.87 637.84 545.87 637.84 545.87 637.84 545.88 635.47 545.88 633.15 545.88 630.83 545.87 628.57 545.86 624.03 545.83 619.71 545.79 615.38 545.73 611.27 545.68 607.15 545.59 603.24 545.51 599.33 545.41 595.63 545.3 591.93 545.17 588.43 545.05 584.94 544.89 581.65 544.74 578.36 544.57 575.28 544.39 572.2 544.2 569.33 544 566.45 543.78 563.78 543.56 561.11 543.31 558.65 543.07 556.19 542.8 553.94 542.54 551.68 542.25 549.63 541.96 547.59 541.65 545.74 541.34 543.9 541 542.27 540.67 540.63 540.31 539.21 539.96 537.78 539.58 536.48 539.21 535.18 538.82 534 538.43 532.83 538.02 531.78 537.62 530.73 537.2 529.81 536.77 528.89 536.33 528.09 535.89 527.3 535.44 526.63 534.98 525.96 534.51 525.42 534.04 524.88 533.55 524.47 533.06 524.06 532.56 523.77 532.05 523.49 531.53 523.33 531.01 523.17 530.47 523.14 529.94 523.11 529.38 523.21 528.83 523.31 528.26 523.53 527.7 523.76 527.11 524.12 526.53 524.47 525.93 524.95 525.33 525.44 524.71 526.05 524.71 526.05 524.71 526.05 524.17 526.59 523.62 527.13 523.08 527.68 522.53 528.22 521.99 528.77 521.44 529.31 520.9 529.86 520.36 530.4 520.36 530.4 520.36 530.4M535.07 776.59Q534.34 777.31 533.62 778.02 532.9 778.74 532.18 779.46 531.45 780.18 530.73 780.9 530.01 781.62 529.28 782.33 528.56 783.05 527.84 783.77 527.12 784.49 526.39 785.21 525.67 785.93 524.95 786.64 524.22 787.36 523.5 788.08 522.78 788.8 522.06 789.52 521.33 790.24 520.61 790.96 519.89 791.67 519.17 792.39 518.44 793.11 517.72 793.83 517 794.55 516.27 795.27 515.55 795.98 514.83 796.7 514.11 797.42 513.38 798.14 512.66 798.86 511.94 799.58 511.22 800.29 510.49 801.01 509.77 801.73 509.05 802.45 508.32 803.17 507.6 803.89 506.88 804.61 506.16 805.32 505.43 806.04 504.71 806.76 503.99 807.48 503.26 808.2 502.54 808.92 501.82 809.63 501.1 810.35 500.37 811.07 499.65 811.79 498.93 812.51 498.21 813.23 497.48 813.95 496.76 814.66 496.04 815.38 495.32 816.1 494.59 816.82 493.87 817.54 493.15 818.26 492.42 818.98 491.7 819.69 490.98 820.41 490.26 821.13 489.53 821.86 488.83 822.61 489.02 818.39 489.25 813.76 489.49 809.12 489.72 804.49 490.11 804.04 490.51 803.6 490.92 803.16 491.33 802.71 491.76 802.26 492.18 801.81 492.61 801.36 493.05 800.91 493.49 800.46 493.92 800.01 494.36 799.56 494.81 799.11 495.25 798.66 495.69 798.2 496.14 797.75 496.58 797.3 496.7 793.54 496.81 789.79 496.93 786.04 497.06 782.28 497.18 778.52 497.31 774.77 497.45 771.01 497.58 767.25 497.71 763.49 497.84 759.73 497.98 755.97 498.11 752.21 498.24 748.45 498.37 744.69 498.5 740.93 498.63 737.17 498.75 733.4 498.86 729.64 498.98 725.88 499.09 722.12 499.19 718.36 499.29 714.59 499.38 710.83 499.47 707.07 499.54 703.31 499.62 699.54 499.69 695.78 499.75 692.02 499.81 688.26 499.86 684.49 499.91 680.73 499.95 676.97 499.99 673.2 500.03 669.44 500.06 665.68 500.1 661.91 500.13 658.15 500.15 654.39 500.18 650.62 500.2 646.86 500.23 643.1 500.25 639.33 500.27 635.57 500.28 631.81 500.3 628.04 500.32 624.28 500.33 620.52 500.35 616.75 500.36 612.99 500.37 609.22 500.38 605.46 500.4 601.7 500.41 597.93 500.42 594.17 500.43 590.41 500.44 586.64 500.44 582.88 500.45 579.11 500.46 575.35 500.47 571.59 500.47 567.82 500.48 564.06 500.49 560.29 500.49 556.53 500.5 552.77 500.5 549 500.51 545.24 500.51 541.47 500.52 537.71 500.52 533.94 500.53 530.18 500.53 526.41 500.54 522.65 500.54 518.89 500.54 515.12 500.55 511.36 500.55 507.59 500.55 503.83 500.55 500.06 500.56 496.3 500.56 492.53 500.56 488.77 500.56 485 500.57 481.24 500.57 477.47 500.57 473.71 500.57 469.94 500.57 466.18 500.57 462.41 500.57 458.65 500.57 454.88 500.57 451.12 500.57 447.35 500.57 443.58 500.58 439.82 500.58 436.05 500.58 432.29 500.57 428.52 500.57 424.76 500.57 420.99 500.57 417.22 500.57 413.46 500.57 409.69 500.57 405.93 500.57 402.16 500.57 398.39 500.57 394.63 500.56 390.86 500.56 387.09 500.56 383.33 500.56 379.56 500.56 375.8 500.55 372.03 500.55 368.26 500.55 364.5 500.54 360.73 500.54 356.96 500.53 353.19 500.53 349.43 500.53 345.66 500.52 341.89 500.51 338.13 500.51 334.36 500.5 330.59 500.49 326.83 500.49 323.06 500.48 319.29 500.47 315.53 500.07 315.95 499.67 316.38 499.27 316.8 498.86 317.23 498.46 317.65 498.06 318.08 497.66 318.5 497.26 318.93 496.86 319.36 496.46 319.78 496.05 320.21 495.65 320.63 495.25 321.06 494.84 321.48 494.43 321.91 494.03 322.33 494.03 317.7 494.03 313.06 494.03 308.43 494.03 303.79 494.53 303.26 495.03 302.72 495.53 302.18 496.04 301.65 496.54 301.11 497.04 300.58 497.55 300.04 498.05 299.51 498.55 298.97 499.06 298.43 499.56 297.9 500.06 297.36 500.57 296.82 501.07 296.29 501.57 295.75 502.08 295.21 502.58 294.68 503.09 294.14 503.59 293.6 504.09 293.06 504.6 292.53 505.1 291.99 505.61 291.45 506.12 290.92 506.62 290.38 507.13 289.84 507.63 289.31 508.14 288.77 508.65 288.24 509.15 287.7 509.66 287.17 510.17 286.63 510.68 286.1 511.19 285.56 511.69 285.03 512.2 284.49 512.71 283.96 513.23 283.43 513.74 282.9 514.25 282.36 514.76 281.83 515.27 281.3 515.78 280.77 516.29 280.24 516.81 279.71 517.32 279.18 517.84 278.65 518.35 278.13 518.87 277.6 519.38 277.07 519.9 276.54 520.42 276.02 520.94 275.5 521.46 274.97 521.98 274.45 522.49 273.93 523.01 273.4 523.54 272.88 524.06 272.37 524.58 271.85 525.11 271.33 525.63 270.81 526.16 270.3 526.68 269.78 527.2 269.27 527.71 268.81 528.23 268.35 528.73 267.94 529.24 267.52 529.73 267.15 530.23 266.77 530.72 266.44 531.21 266.12 531.7 265.83 532.18 265.55 532.66 265.32 533.14 265.08 533.61 264.88 534.08 264.69 534.54 264.53 535.01 264.39 535.46 264.28 535.92 264.18 536.37 264.12 536.82 264.06 537.27 264.04 537.71 264.03 538.14 264.05 538.58 264.08 539.01 264.16 539.44 264.23 539.86 264.35 540.28 264.47 540.7 264.63 541.11 264.79 541.52 264.99 541.93 265.2 542.33 265.45 542.73 265.7 543.12 265.99 543.51 266.28 543.9 266.62 544.28 266.96 544.66 267.34 545.04 267.72 545.41 268.14 545.78 268.57 546.14 269.03 546.5 269.5 546.86 270.01 547.21 270.52 547.56 271.08 548.25 272.19 548.91 273.46 549.57 274.74 550.2 276.19 550.83 277.64 551.42 279.26 552.01 280.87 552.56 282.65 553.12 284.44 553.64 286.35 554.16 288.26 554.64 290.29 555.13 292.32 555.57 294.48 556.02 296.63 556.44 298.91 556.85 301.18 557.22 303.58 557.6 305.97 557.94 308.49 558.27 311 558.57 313.64 558.88 316.27 559.14 319.03 559.4 321.78 559.63 324.66 559.86 327.54 560.06 330.54 560.25 333.54 560.41 336.67 560.57 339.79 560.7 343.04 560.82 346.29 560.92 349.67 561.01 353.04 561.08 356.54 561.14 360.04 561.17 363.67 561.2 367.3 561.2 371.06 561.2 371.06 561.2 371.06 561.2 374.07 561.18 377.03 561.16 380 561.12 382.91 561.08 385.82 561.02 388.67 560.97 391.53 560.89 394.34 560.81 397.14 560.72 399.9 560.62 402.65 560.51 405.35 560.39 408.05 560.26 410.7 560.13 413.36 559.98 415.95 559.82 418.55 559.65 421.1 559.48 423.65 559.29 426.14 559.1 428.64 558.89 431.08 558.68 433.53 558.45 435.92 558.23 438.31 557.98 440.65 557.73 442.99 557.46 445.28 557.2 447.58 556.91 449.81 556.63 452.05 556.32 454.24 556.02 456.43 555.7 458.51 555.38 460.59 555.05 462.57 554.72 464.55 554.38 466.41 554.04 468.28 553.68 470.05 553.33 471.81 552.96 473.47 552.59 475.12 552.21 476.67 551.83 478.22 551.43 479.66 551.04 481.11 550.63 482.44 550.22 483.78 549.8 485.01 549.38 486.24 548.95 487.36 548.52 488.49 548.07 489.5 547.62 490.52 547.17 491.43 546.71 492.34 546.24 493.14 545.77 493.95 545.28 494.64 544.8 495.34 544.3 495.93 543.81 496.52 543.3 497 543.3 497 543.3 497 543.3 499.75 543.3 502.49 543.93 501.89 544.55 501.45 545.17 501 545.77 500.7 546.38 500.4 546.97 500.25 547.57 500.1 548.15 500.1 548.73 500.1 549.3 500.24 549.87 500.39 550.43 500.69 550.99 500.99 551.53 501.43 552.08 501.88 552.61 502.48 553.15 503.07 553.67 503.81 554.19 504.56 554.7 505.45 555.2 506.34 555.7 507.38 556.19 508.42 556.68 509.61 557.16 510.79 557.63 512.13 558.1 513.46 558.56 514.95 559.02 516.43 559.46 518.06 559.91 519.69 560.34 521.47 560.77 523.25 561.18 525.17 561.59 527.09 561.96 529.15 562.34 531.21 562.69 533.41 563.05 535.6 563.37 537.94 563.7 540.28 563.99 542.76 564.29 545.24 564.56 547.86 564.83 550.48 565.08 553.24 565.32 556 565.54 558.9 565.75 561.8 565.94 564.85 566.13 567.89 566.29 571.07 566.46 574.25 566.59 577.57 566.73 580.9 566.84 584.36 566.95 587.83 567.03 591.43 567.11 595.03 567.16 598.78 567.22 602.53 567.23 606.43 567.2 610.37 567.2 614.39 567.2 618.42 567.23 622.3 567.21 626.23 567.14 630.07 567.08 633.91 566.99 637.67 566.89 641.42 566.76 645.08 566.64 648.74 566.48 652.31 566.32 655.88 566.13 659.36 565.94 662.83 565.72 666.22 565.5 669.61 565.24 672.91 564.99 676.2 564.7 679.41 564.41 682.62 564.09 685.73 563.77 688.85 563.42 691.88 563.07 694.91 562.68 697.85 562.29 700.79 561.87 703.64 561.45 706.5 561 709.26 560.54 712.03 560.05 714.71 559.56 717.39 559.04 719.98 558.52 722.58 557.97 725.07 557.41 727.56 556.83 729.96 556.25 732.35 555.64 734.64 555.03 736.94 554.39 739.13 553.75 741.32 553.09 743.41 552.42 745.5 551.73 747.49 551.03 749.48 550.31 751.37 549.95 752.31 549.58 753.23 549.21 754.15 548.83 755.04 548.46 755.93 548.08 756.8 547.69 757.67 547.31 758.51 546.92 759.35 546.52 760.17 546.12 760.98 545.72 761.77 545.32 762.56 544.91 763.33 544.5 764.09 544.08 764.83 543.67 765.57 543.24 766.29 542.82 767 542.39 767.69 541.96 768.37 541.52 769.04 541.08 769.7 540.64 770.33 540.19 770.97 539.74 771.58 539.29 772.19 538.83 772.78 538.38 773.36 537.91 773.92 537.45 774.41 536.98 774.82 536.51 775.22 536.03 775.66 535.55 776.1 535.07 776.59 535.07 776.59 535.07 776.59 535.07 776.59 535.07 776.59M629.16 451.39Q629.16 448.19 629.15 445.04 629.14 441.88 629.13 438.77 629.12 435.66 629.1 432.59 629.09 429.53 629.07 426.51 629.04 423.49 629.02 420.52 628.99 417.54 628.96 414.62 628.92 411.69 628.89 408.8 628.85 405.92 628.81 403.08 628.76 400.24 628.72 397.45 628.67 394.65 628.62 391.9 628.56 389.15 628.51 386.45 628.45 383.74 628.39 381.08 628.32 378.42 628.26 375.8 628.19 373.18 628.12 370.61 628.04 368.04 627.97 365.51 627.89 362.98 627.81 360.49 627.72 358 627.64 355.56 627.55 353.11 627.46 350.71 627.37 348.31 627.27 345.96 627.18 343.6 627.08 341.29 626.97 338.97 626.87 336.7 626.76 334.43 626.66 332.2 626.55 329.97 626.43 327.79 626.32 325.6 626.2 323.46 626.08 321.31 625.96 319.21 625.84 317.11 625.71 315.06 625.58 313 625.45 310.99 625.32 308.97 625.19 307 625.05 305.03 624.92 303.1 624.78 301.17 624.63 299.28 624.49 297.4 624.34 295.56 624.2 293.71 624.05 291.92 623.75 288.31 623.44 284.94 623.12 281.56 622.8 278.41 622.48 275.25 622.15 272.32 621.81 269.39 621.47 266.69 621.13 263.99 620.78 261.51 620.42 259.04 620.06 256.79 619.7 254.55 619.33 252.53 618.96 250.52 618.58 248.74 618.2 246.96 617.81 245.41 617.43 243.86 617.03 242.55 616.63 241.24 616.22 240.16 615.81 239.09 615.39 238.25 614.97 237.41 614.54 236.81 614.1 236.22 613.66 235.86 613.21 235.5 612.75 235.38 612.3 235.26 611.83 235.38 611.36 235.5 610.9 235.86 610.45 236.22 610.01 236.82 609.57 237.42 609.14 238.25 608.72 239.09 608.31 240.16 607.89 241.23 607.5 242.54 607.1 243.85 606.71 245.4 606.33 246.95 605.96 248.74 605.59 250.53 605.24 252.55 604.88 254.58 604.54 256.85 604.2 259.12 603.87 261.62 603.54 264.13 603.23 266.88 602.92 269.63 602.61 272.61 602.31 275.6 602.03 278.83 601.74 282.06 601.46 285.52 601.19 288.99 600.92 292.7 600.66 296.41 600.41 300.36 600.28 302.33 600.16 304.35 600.04 306.38 599.92 308.44 599.8 310.51 599.69 312.63 599.58 314.75 599.47 316.91 599.36 319.07 599.25 321.28 599.14 323.49 599.04 325.75 598.94 328.01 598.84 330.31 598.74 332.61 598.65 334.96 598.55 337.31 598.46 339.71 598.37 342.11 598.28 344.55 598.19 347 598.11 349.49 598.03 351.98 597.95 354.52 597.86 357.06 597.79 359.64 597.71 362.22 597.64 364.85 597.57 367.48 597.5 370.16 597.43 372.84 597.36 375.56 597.3 378.28 597.23 381.05 597.17 383.82 597.11 386.64 597.05 389.45 597 392.32 596.94 395.18 596.89 398.08 596.84 400.99 596.79 403.95 596.74 406.9 596.7 409.9 596.65 412.9 596.61 415.94 596.57 418.98 596.53 422.07 596.49 425.16 596.46 428.3 596.42 431.43 596.39 434.61 596.36 437.79 596.33 441.02 596.3 444.25 596.28 447.52 596.25 450.79 596.23 454.1 596.2 457.41 596.18 460.77 596.16 464.13 596.15 467.54 596.13 470.94 596.11 474.39 596.1 477.84 596.09 481.23 596.08 484.63 596.07 487.97 596.06 491.31 596.05 494.6 596.05 497.89 596.04 501.13 596.04 504.36 596.04 507.55 596.04 510.73 596.04 513.86 596.04 516.99 596.05 520.07 596.05 523.14 596.06 526.17 596.07 529.19 596.08 532.16 596.09 535.13 596.1 538.04 596.12 540.96 596.14 543.82 596.15 546.68 596.17 549.49 596.19 552.29 596.21 555.05 596.24 557.8 596.26 560.5 596.29 563.2 596.32 565.84 596.35 568.49 596.38 571.08 596.41 573.67 596.45 576.2 596.49 578.74 596.53 581.22 596.57 583.7 596.61 586.13 596.66 588.55 596.7 590.92 596.75 593.29 596.8 595.61 596.86 597.93 596.91 600.19 596.97 602.45 597.03 604.66 597.09 606.87 597.16 609.02 597.22 611.17 597.29 613.27 597.37 615.36 597.44 617.41 597.52 619.45 597.6 621.44 597.68 623.42 597.76 625.36 597.85 627.29 597.94 629.17 598.03 631.04 598.13 632.87 598.32 636.51 598.53 639.94 598.75 643.36 598.98 646.54 599.22 649.71 599.47 652.64 599.73 655.56 600.01 658.23 600.29 660.9 600.59 663.33 600.89 665.75 601.2 667.92 601.53 670.09 601.87 672.02 602.21 673.94 602.57 675.62 602.93 677.3 603.32 678.73 603.7 680.16 604.11 681.35 604.51 682.53 604.94 683.47 605.36 684.41 605.81 685.11 606.25 685.8 606.72 686.26 607.18 686.71 607.66 686.92 608.15 687.13 608.64 687.1 609.14 687.08 609.65 686.81 610.17 686.55 610.69 686.04 610.69 686.04 610.69 686.04 611.24 685.52 611.77 684.8 612.31 684.07 612.83 683.14 613.35 682.21 613.86 681.08 614.37 679.94 614.87 678.61 615.36 677.27 615.84 675.74 616.33 674.2 616.79 672.47 617.26 670.73 617.71 668.8 618.15 666.87 618.59 664.74 619.02 662.61 619.43 660.29 619.84 657.96 620.24 655.44 620.64 652.92 621.02 650.21 621.4 647.5 621.76 644.58 622.12 641.68 622.47 638.57 622.81 635.47 623.14 632.17 623.47 628.88 623.79 625.39 624.1 621.9 624.39 618.22 624.69 614.54 624.96 610.66 625.24 606.79 625.5 602.73 625.63 600.7 625.76 598.62 625.88 596.54 626 594.41 626.12 592.29 626.24 590.11 626.36 587.94 626.47 585.72 626.58 583.5 626.69 581.23 626.79 578.96 626.9 576.64 627 574.33 627.1 571.96 627.2 569.6 627.29 567.19 627.38 564.78 627.47 562.32 627.56 559.86 627.65 557.36 627.73 554.85 627.81 552.29 627.89 549.74 627.96 547.14 628.04 544.54 628.11 541.89 628.18 539.24 628.25 536.54 628.31 533.84 628.37 531.09 628.43 528.35 628.49 525.55 628.55 522.76 628.6 519.91 628.65 517.07 628.7 514.18 628.74 511.29 628.79 508.35 628.83 505.4 628.87 502.41 628.9 499.42 628.94 496.39 628.97 493.35 629 490.26 629.03 487.17 629.05 484.03 629.07 480.89 629.09 477.7 629.11 474.52 629.12 471.28 629.14 468.04 629.15 464.75 629.15 461.46 629.16 458.12 629.16 454.78 629.16 451.39 629.16 451.39 629.16 451.39 629.16 451.39 629.16 451.39M650.47 443.07Q650.47 446.4 650.48 449.67 650.49 452.95 650.49 456.18 650.47 459.42 650.44 462.62 650.41 465.83 650.37 468.99 650.32 472.15 650.27 475.27 650.22 478.39 650.16 481.47 650.09 484.55 650.02 487.59 649.94 490.63 649.86 493.63 649.78 496.63 649.68 499.59 649.59 502.55 649.48 505.47 649.38 508.39 649.26 511.26 649.14 514.14 649.02 516.98 648.89 519.82 648.75 522.62 648.62 525.42 648.47 528.18 648.32 530.94 648.16 533.66 648 536.38 647.84 539.06 647.67 541.75 647.49 544.39 647.31 547.04 647.12 549.64 646.93 552.25 646.72 554.82 646.52 557.39 646.31 559.92 646.1 562.45 645.87 564.94 645.65 567.44 645.42 569.9 645.18 572.36 644.94 574.78 644.69 577.21 644.44 579.6 644.18 581.99 643.91 584.34 643.64 586.7 643.36 589.02 643.08 591.34 642.79 593.63 642.5 595.92 642.2 598.17 641.9 600.43 641.58 602.65 641.27 604.88 640.94 607.07 640.62 609.26 640.28 611.42 639.94 613.59 639.59 615.71 639.24 617.85 638.89 619.93 638.53 622.02 638.16 624.06 637.8 626.11 637.43 628.11 637.05 630.11 636.68 632.06 636.3 634.02 635.91 635.93 635.52 637.84 635.13 639.7 634.73 641.57 634.33 643.38 633.93 645.2 633.52 646.97 633.11 648.74 632.7 650.47 632.28 652.19 631.86 653.86 631.44 655.54 631.01 657.16 630.58 658.79 630.15 660.36 629.71 661.94 629.27 663.46 628.83 664.98 628.39 666.46 627.94 667.93 627.5 669.35 627.05 670.76 626.6 672.13 626.15 673.49 625.7 674.8 625.25 676.1 624.79 677.36 624.34 678.62 623.87 679.82 623.4 681.03 622.92 682.19 622.44 683.36 621.95 684.48 621.45 685.59 620.95 686.66 620.45 687.73 619.94 688.75 619.43 689.76 618.92 690.73 618.4 691.69 617.88 692.6 617.36 693.52 616.83 694.38 616.3 695.24 615.77 696.04 615.24 696.85 614.7 697.61 614.16 698.36 613.61 699.06 613.06 699.76 612.51 700.41 611.98 700.87 611.45 701.32 610.92 701.77 610.39 702.29 609.85 702.8 609.32 703.37 608.79 703.94 608.25 704.52 607.7 704.93 607.16 705.28 606.61 705.62 606.08 705.9 605.55 706.18 605.02 706.39 604.49 706.61 603.98 706.75 603.46 706.9 602.95 706.98 602.45 707.06 601.95 707.07 601.45 707.08 600.95 707.02 600.46 706.97 599.98 706.84 599.5 706.72 599.03 706.53 598.56 706.33 598.1 706.07 597.64 705.81 597.19 705.48 596.75 705.14 596.31 704.74 595.87 704.33 595.44 703.87 595.01 703.4 594.59 702.87 594.16 702.34 593.74 701.74 593.32 701.14 592.91 700.48 592.49 699.82 592.09 699.09 591.69 698.36 591.3 697.55 590.91 696.75 590.53 695.88 590.15 695 589.78 694.06 589.42 693.11 589.06 692.09 588.71 691.07 588.37 689.99 588.03 688.9 587.69 687.74 587.36 686.58 587.04 685.35 586.73 684.12 586.42 682.82 586.11 681.51 585.82 680.13 585.53 678.76 585.25 677.31 584.97 675.85 584.7 674.33 584.44 672.8 584.18 671.21 583.94 669.61 583.7 667.93 583.46 666.26 583.24 664.51 583.03 662.76 582.83 660.95 582.63 659.13 582.44 657.24 582.26 655.36 582.1 653.4 581.93 651.44 581.78 649.41 581.63 647.39 581.49 645.29 581.36 643.19 581.23 641.03 581.11 638.86 580.99 636.63 580.87 634.39 580.76 632.09 580.65 629.79 580.55 627.43 580.43 625.06 580.33 622.62 580.21 620.19 580.1 617.69 579.99 615.19 579.87 612.62 579.75 610.05 579.64 607.42 579.51 604.79 579.39 602.09 579.27 599.4 579.15 596.64 579.03 593.88 578.92 591.05 578.8 588.23 578.69 585.34 578.57 582.45 578.47 579.5 578.36 576.55 578.26 573.53 578.16 570.51 578.07 567.44 577.97 564.36 577.89 561.22 577.8 558.07 577.72 554.87 577.64 551.66 577.57 548.4 577.5 545.13 577.44 541.8 577.38 538.47 577.33 535.08 577.27 531.69 577.23 528.23 577.18 524.78 577.15 521.26 577.11 517.74 577.08 514.17 577.06 510.59 577.04 506.95 577.02 503.31 577.01 499.61 577 495.9 577 492.14 577 488.38 577.01 484.66 577.02 480.93 577.04 477.26 577.06 473.58 577.09 469.94 577.11 466.31 577.15 462.71 577.19 459.12 577.23 455.57 577.28 452.02 577.34 448.52 577.39 445.01 577.46 441.55 577.52 438.08 577.59 434.66 577.67 431.24 577.75 427.87 577.84 424.49 577.93 421.16 578.02 417.82 578.12 414.54 578.23 411.25 578.34 408 578.45 404.76 578.57 401.55 578.69 398.35 578.82 395.2 578.95 392.04 579.09 388.93 579.23 385.81 579.38 382.74 579.53 379.68 579.69 376.65 579.85 373.63 580.02 370.65 580.18 367.67 580.36 364.74 580.54 361.8 580.72 358.92 580.91 356.03 581.1 353.18 581.3 350.34 581.5 347.55 581.71 344.75 581.92 342 582.13 339.25 582.35 336.54 582.58 333.84 582.81 331.18 583.04 328.53 583.28 325.91 583.52 323.31 583.76 320.74 584.01 318.18 584.27 315.67 584.53 313.15 584.79 310.69 585.06 308.22 585.33 305.8 585.61 303.39 585.89 301.02 586.17 298.65 586.46 296.33 586.75 294.01 587.05 291.76 587.34 289.51 587.65 287.33 587.95 285.15 588.26 283.04 588.56 280.93 588.88 278.89 589.19 276.85 589.51 274.88 589.83 272.91 590.15 271.01 590.48 269.11 590.81 267.28 591.14 265.45 591.48 263.68 591.82 261.92 592.16 260.23 592.5 258.54 592.86 256.91 593.21 255.29 593.57 253.73 593.92 252.18 594.29 250.69 594.65 249.2 595.03 247.78 595.4 246.36 595.78 245.01 596.16 243.67 596.54 242.38 596.93 241.1 597.32 239.89 597.72 238.68 598.12 237.53 598.52 236.39 598.93 235.31 599.34 234.24 599.76 233.23 600.17 232.22 600.6 231.28 601.02 230.34 601.45 229.47 601.88 228.6 602.32 227.79 602.76 226.99 603.21 226.26 603.66 225.53 604.11 224.86 604.57 224.19 605.03 223.59 605.49 222.99 605.96 222.45 606.43 221.91 606.9 221.45 607.38 220.99 607.87 220.6 608.35 220.21 608.84 219.88 609.33 219.55 609.83 219.29 610.33 219.02 610.84 218.82 611.34 218.63 611.86 218.5 612.37 218.38 612.88 218.33 613.39 218.27 613.89 218.29 614.39 218.3 614.89 218.38 615.38 218.46 615.87 218.61 616.36 218.76 616.84 218.98 617.31 219.21 617.76 219.5 618.22 219.8 618.67 220.16 619.12 220.53 619.57 220.96 620.02 221.39 620.46 221.88 620.91 222.38 621.35 222.94 621.81 223.5 622.26 224.13 622.72 224.75 623.18 225.45 623.64 226.14 624.09 226.9 624.54 227.66 624.99 228.49 625.43 229.31 625.87 230.2 626.3 231.1 626.73 232.05 627.16 233.01 627.58 234.04 627.99 235.06 628.4 236.15 628.81 237.23 629.22 238.39 629.62 239.54 630.02 240.75 630.42 241.96 630.82 243.24 631.21 244.52 631.6 245.85 631.99 247.19 632.37 248.59 632.76 249.98 633.14 251.44 633.52 252.9 633.9 254.41 634.28 255.93 634.65 257.5 635.03 259.07 635.4 260.7 635.77 262.32 636.13 264.01 636.5 265.69 636.87 267.43 637.23 269.17 637.59 270.96 637.95 272.75 638.31 274.59 638.67 276.43 639.02 278.33 639.38 280.22 639.73 282.16 640.08 284.09 640.42 286.06 640.76 288.03 641.09 290.03 641.43 292.04 641.75 294.08 642.08 296.12 642.4 298.21 642.72 300.29 643.03 302.41 643.33 304.53 643.63 306.69 643.93 308.85 644.21 311.06 644.5 313.26 644.77 315.5 645.04 317.74 645.3 320.03 645.56 322.32 645.8 324.65 646.04 326.98 646.27 329.35 646.5 331.72 646.71 334.14 646.92 336.56 647.12 339.02 647.32 341.49 647.5 344 647.69 346.5 647.86 349.06 648.03 351.61 648.19 354.22 648.35 356.82 648.5 359.46 648.65 362.11 648.78 364.81 648.92 367.5 649.04 370.25 649.17 372.99 649.28 375.78 649.4 378.57 649.5 381.41 649.61 384.24 649.7 387.13 649.79 390.02 649.88 392.95 649.96 395.88 650.03 398.87 650.1 401.85 650.16 404.88 650.23 407.91 650.28 410.99 650.33 414.07 650.37 417.2 650.41 420.33 650.44 423.51 650.47 426.69 650.49 429.92 650.49 433.16 650.48 436.45 650.47 439.74 650.47 443.07 650.47 443.07 650.47 443.07M684.87 230.42Q684.87 230.42 684.87 230.42 684.84 233.38 684.8 236.35 684.77 239.31 684.74 242.28 684.71 245.25 684.68 248.22 684.64 251.19 684.61 254.16 684.58 257.14 684.55 260.11 684.52 263.09 684.49 266.06 684.47 269.04 684.44 272.02 684.41 275 684.38 277.98 684.35 280.96 684.33 283.94 684.3 286.92 684.27 289.9 684.25 292.88 684.22 295.86 684.2 298.84 684.17 301.83 684.15 304.81 684.12 307.79 684.1 310.77 684.07 313.76 684.05 316.74 684.03 319.72 684 322.7 683.98 325.69 683.96 328.67 683.94 331.65 683.91 334.64 683.89 337.62 683.87 340.6 683.85 343.58 683.83 346.57 683.81 349.55 683.78 352.53 683.76 355.51 683.74 358.49 683.72 361.48 683.7 364.46 683.68 367.44 683.66 370.42 683.64 373.4 683.62 376.38 683.6 379.36 683.58 382.34 683.55 385.32 683.53 388.3 683.51 391.28 683.49 394.26 683.47 397.24 683.45 400.22 683.43 403.2 683.41 406.17 683.39 409.15 683.37 412.13 683.34 415.11 683.32 418.08 683.3 421.06 683.69 420.9 684.08 420.73 684.47 420.55 684.84 420.36 685.22 420.17 685.59 419.96 685.96 419.75 686.33 419.53 686.69 419.3 687.04 419.06 687.4 418.82 687.75 418.56 688.09 418.3 688.43 418.03 688.77 417.75 689.1 417.46 689.43 417.17 689.76 416.86 690.08 416.55 690.4 416.23 691.03 415.58 691.63 414.87 692.22 414.16 692.79 413.39 693.36 412.62 693.89 411.78 694.43 410.94 694.93 410.04 695.43 409.15 695.91 408.18 696.38 407.23 696.82 406.2 697.25 405.18 697.66 404.1 698.07 403.01 698.44 401.87 698.82 400.72 699.16 399.51 699.5 398.3 699.81 397.03 700.12 395.76 700.4 394.43 700.68 393.09 700.94 391.66 701.2 390.24 701.45 388.71 701.7 387.19 701.93 385.57 702.16 383.95 702.37 382.23 702.59 380.52 702.79 378.71 702.99 376.9 703.17 374.99 703.36 373.08 703.52 371.08 703.69 369.08 703.84 366.97 704 364.87 704.13 362.67 704.27 360.47 704.39 358.17 704.52 355.87 704.62 353.47 704.73 351.08 704.82 348.57 704.91 346.07 704.99 343.47 705.07 340.87 705.13 338.16 705.19 335.45 705.24 332.64 705.29 329.82 705.32 326.9 705.36 323.98 705.37 321.15 705.39 318.32 705.39 315.59 705.39 312.85 705.37 310.2 705.35 307.55 705.32 305 705.28 302.44 705.23 299.98 705.17 297.51 705.1 295.13 705.03 292.75 704.94 290.47 704.85 288.18 704.74 285.98 704.63 283.78 704.51 281.67 704.38 279.56 704.23 277.54 704.09 275.52 703.92 273.59 703.76 271.66 703.58 269.82 703.4 267.98 703.19 266.24 702.99 264.48 702.77 262.83 702.55 261.17 702.31 259.6 702.07 258.04 701.81 256.56 701.55 255.09 701.26 253.69 700.97 252.3 700.64 250.98 700.31 249.66 699.95 248.43 699.6 247.19 699.2 246.03 698.81 244.87 698.38 243.8 697.96 242.72 697.5 241.73 697.03 240.74 696.54 239.83 696.05 238.91 695.52 238.09 694.99 237.26 694.43 236.52 693.86 235.77 693.27 235.12 692.67 234.46 692.04 233.89 691.72 233.61 691.4 233.34 691.08 233.08 690.74 232.84 690.41 232.6 690.07 232.38 689.73 232.16 689.38 231.96 689.03 231.77 688.67 231.59 688.31 231.42 687.94 231.27 687.58 231.12 687.2 230.99 686.83 230.86 686.44 230.75 686.06 230.65 685.66 230.56 685.27 230.48 684.87 230.42 684.87 230.42 684.87 230.42M732.37 570.03Q732.37 573.1 732.37 576.18 732.37 579.25 732.32 581.83 732.07 582.35 731.72 582.72 731.36 583.09 731.01 583.46 730.65 583.83 730.3 584.2 729.94 584.57 729.58 584.94 729.23 585.31 728.87 585.69 728.51 586.06 728.15 586.44 727.78 586.82 727.42 587.19 727.06 587.57 726.69 587.95 726.18 588.48 725.67 589.05 725.16 589.61 724.68 590.18 724.2 590.66 723.73 591.03 723.26 591.41 722.79 591.74 722.33 592.08 721.88 592.36 721.43 592.65 720.99 592.9 720.54 593.14 720.11 593.34 719.67 593.54 719.25 593.7 718.82 593.85 718.41 593.96 717.99 594.07 717.59 594.13 717.18 594.19 716.78 594.21 716.39 594.22 716 594.19 715.61 594.16 715.23 594.08 714.86 594 714.49 593.88 714.12 593.75 713.76 593.58 713.4 593.41 713.05 593.19 712.7 592.97 712.37 592.71 712.03 592.44 711.7 592.13 711.37 591.81 711.05 591.46 710.73 591.1 710.42 590.69 710.11 590.28 709.81 589.83 709.51 589.37 709.22 588.87 708.93 588.37 708.65 587.83 708.36 587.28 708.09 586.68 707.55 585.49 707.05 584.12 706.54 582.74 706.08 581.18 705.61 579.61 705.19 577.86 704.76 576.11 704.37 574.17 704.37 574.17 704.37 574.17 704.07 572.67 703.77 571.08 703.48 569.49 703.2 567.81 702.91 566.13 702.65 564.37 702.38 562.6 702.13 560.74 701.87 558.88 701.63 556.94 701.39 554.99 701.17 552.96 700.94 550.92 700.73 548.8 700.52 546.67 700.32 544.46 700.13 542.25 699.94 539.95 699.76 537.64 699.59 535.25 699.42 532.86 699.26 530.38 699.11 527.9 698.96 525.33 698.82 522.77 698.69 520.11 698.56 517.45 698.45 514.71 698.33 511.97 698.23 509.14 698.13 506.3 698.04 503.39 698.04 503.39 698.04 503.39 697.96 500.93 697.88 498.54 697.8 496.13 697.72 493.79 697.64 491.44 697.56 489.15 697.48 486.85 697.39 484.61 697.3 482.37 697.22 480.18 697.13 477.99 697.04 475.85 696.95 473.71 696.86 471.63 696.76 469.54 696.67 467.51 696.67 467.51 696.67 467.51 696.56 465.22 696.43 463.08 696.31 460.95 696.16 458.97 696.02 456.98 695.86 455.15 695.7 453.32 695.52 451.64 695.34 449.96 695.15 448.43 694.95 446.9 694.74 445.52 694.53 444.14 694.3 442.92 694.07 441.69 693.82 440.62 693.57 439.55 693.3 438.63 693.04 437.71 692.76 436.94 692.47 436.17 692.17 435.56 691.87 434.95 691.56 434.49 691.24 434.03 690.9 433.73 690.57 433.42 690.22 433.28 689.87 433.13 689.5 433.15 689.13 433.16 688.74 433.33 688.74 433.33 688.74 433.33 688.39 433.49 688.04 433.64 687.7 433.8 687.35 433.95 687 434.11 686.65 434.26 686.31 434.42 685.96 434.58 685.61 434.73 685.27 434.89 684.92 435.04 684.57 435.2 684.23 435.36 683.88 435.51 683.53 435.67 683.19 435.83 683.17 438.62 683.15 441.41 683.12 444.2 683.1 446.99 683.08 449.77 683.06 452.56 683.03 455.35 683.01 458.14 682.99 460.93 682.96 463.71 682.94 466.5 682.91 469.29 682.89 472.07 682.86 474.86 682.84 477.64 682.81 480.43 682.78 483.21 682.76 486 682.73 488.78 682.7 491.56 682.67 494.34 682.65 497.12 682.62 499.91 682.59 502.69 682.56 505.46 682.53 508.24 682.5 511.02 682.47 513.8 682.44 516.58 682.41 519.35 682.37 522.13 682.34 524.9 682.31 527.67 682.28 530.45 682.24 533.22 682.21 535.99 682.17 538.76 682.14 541.53 682.11 544.29 682.07 547.06 682.04 549.82 682 552.59 681.96 555.35 681.93 558.11 681.89 560.87 681.86 563.63 681.82 566.39 681.78 569.14 681.75 571.9 681.71 574.65 681.67 577.4 681.64 580.15 681.6 582.9 681.57 585.64 681.53 588.39 681.49 591.13 681.46 593.87 681.42 596.61 681.39 599.35 681.35 602.08 681.31 604.81 681.28 607.55 681.24 610.27 681.21 613 681.62 612.61 682.04 612.21 682.45 611.81 682.86 611.42 683.27 611.02 683.68 610.63 684.1 610.23 684.51 609.84 684.92 609.44 685.33 609.05 685.74 608.65 686.15 608.26 686.56 607.86 686.97 607.47 687.38 607.08 687.79 606.68 687.75 610.24 687.72 613.8 687.68 617.35 687.65 620.9 687.14 621.4 686.62 621.91 686.11 622.42 685.59 622.92 685.07 623.43 684.56 623.94 684.04 624.44 683.52 624.95 683 625.46 682.48 625.97 681.96 626.47 681.45 626.98 680.93 627.49 680.41 627.99 679.89 628.5 679.37 629.01 678.85 629.52 678.33 630.02 677.81 630.53 677.29 631.04 676.77 631.54 676.25 632.05 675.73 632.55 675.21 633.06 674.68 633.57 674.16 634.07 673.64 634.58 673.12 635.09 672.6 635.59 672.08 636.1 671.56 636.6 671.03 637.11 670.51 637.62 669.99 638.12 669.47 638.63 668.95 639.13 668.43 639.64 667.9 640.15 667.38 640.65 666.86 641.16 666.34 641.66 665.81 642.17 665.29 642.67 664.77 643.18 664.25 643.68 663.72 644.19 663.2 644.69 662.68 645.19 662.15 645.7 661.63 646.2 661.11 646.71 660.59 647.21 660.06 647.71 659.54 648.21 659.02 648.71 658.5 649.21 657.98 649.71 657.46 650.2 656.94 650.69 656.43 651.18 655.91 651.65 655.41 652.11 654.92 652.53 654.45 652.89 654.64 648.97 654.84 645.04 655.03 641.12 655.23 637.19 655.59 636.93 655.96 636.65 656.33 636.36 656.71 636.05 657.09 635.74 657.48 635.41 657.86 635.07 658.26 634.73 658.65 634.38 659.05 634.02 659.44 633.66 659.84 633.29 660.24 632.92 660.65 632.55 661.05 632.18 661.45 631.8 661.56 628.72 661.66 625.63 661.77 622.53 661.88 619.43 661.99 616.32 662.1 613.21 662.21 610.09 662.33 606.96 662.44 603.84 662.55 600.71 662.66 597.57 662.77 594.44 662.88 591.3 662.99 588.16 663.09 585.02 663.19 581.88 663.29 578.73 663.38 575.59 663.46 572.44 663.55 569.29 663.62 566.14 663.7 562.99 663.77 559.84 663.83 556.69 663.89 553.54 663.94 550.39 663.99 547.23 664.03 544.08 664.08 540.93 664.11 537.77 664.15 534.62 664.18 531.46 664.21 528.31 664.24 525.15 664.27 522 664.29 518.84 664.31 515.68 664.34 512.53 664.36 509.37 664.37 506.21 664.39 503.06 664.41 499.9 664.42 496.74 664.44 493.59 664.45 490.43 664.47 487.27 664.48 484.11 664.49 480.95 664.5 477.8 664.52 474.64 664.53 471.48 664.54 468.32 664.55 465.16 664.56 462 664.57 458.84 664.57 455.69 664.58 452.53 664.59 449.37 664.6 446.21 664.61 443.05 664.62 439.89 664.62 436.73 664.63 433.57 664.64 430.41 664.64 427.25 664.65 424.09 664.66 420.93 664.66 417.77 664.67 414.61 664.68 411.45 664.68 408.29 664.69 405.13 664.69 401.97 664.7 398.81 664.7 395.65 664.71 392.49 664.72 389.33 664.72 386.17 664.73 383.01 664.73 379.85 664.74 376.69 664.74 373.53 664.75 370.37 664.75 367.21 664.76 364.05 664.76 360.89 664.77 357.73 664.77 354.57 664.78 351.41 664.78 348.25 664.79 345.09 664.79 341.93 664.8 338.77 664.8 335.61 664.81 332.45 664.81 329.29 664.82 326.13 664.82 322.97 664.83 319.81 664.83 316.65 664.84 313.49 664.84 310.33 664.85 307.17 664.85 304.01 664.86 300.85 664.86 297.7 664.87 294.54 664.87 291.38 664.88 288.23 664.89 285.07 664.89 281.92 664.9 278.76 664.91 275.61 664.91 272.46 664.92 269.31 664.93 266.16 664.94 263.02 664.94 259.87 664.95 256.73 664.96 253.59 664.97 250.46 664.98 247.33 664.99 244.2 665.01 241.08 665.02 237.96 665.03 234.85 665.05 231.74 665.07 228.65 664.65 228.64 664.24 228.63 663.83 228.63 663.41 228.62 663 228.62 662.59 228.62 662.17 228.63 661.76 228.64 661.35 228.65 660.94 228.67 660.53 228.7 660.12 228.74 659.72 228.78 659.31 228.84 658.91 228.91 658.51 229 658.51 225.08 658.51 221.15 658.51 217.23 658.51 213.3 659.06 213.32 659.61 213.34 660.15 213.36 660.7 213.38 661.25 213.39 661.8 213.41 662.34 213.43 662.89 213.45 663.44 213.47 663.99 213.49 664.53 213.53 665.08 213.56 665.63 213.6 666.17 213.63 666.72 213.67 667.27 213.7 667.81 213.73 668.36 213.77 668.91 213.8 669.45 213.85 670 213.9 670.54 213.95 671.09 214 671.63 214.05 672.18 214.1 672.73 214.15 673.27 214.2 673.82 214.25 674.36 214.31 674.9 214.37 675.45 214.44 675.99 214.51 676.54 214.57 677.08 214.64 677.62 214.7 678.17 214.77 678.71 214.84 679.26 214.9 679.8 214.98 680.34 215.06 680.88 215.14 681.42 215.22 681.96 215.31 682.51 215.39 683.05 215.47 683.59 215.55 684.13 215.63 684.67 215.71 685.21 215.81 685.75 215.91 686.29 216.01 686.83 216.1 687.37 216.2 687.91 216.3 688.45 216.4 688.99 216.49 689.53 216.59 690.06 216.69 690.6 216.8 691.14 216.92 691.67 217.03 692.21 217.14 692.74 217.26 693.28 217.37 693.8 217.48 694.31 217.61 694.82 217.75 695.32 217.91 695.82 218.08 696.31 218.28 696.8 218.48 697.29 218.7 697.77 218.92 698.24 219.16 698.72 219.4 699.18 219.67 699.65 219.94 700.11 220.23 700.56 220.54 701.01 220.86 701.45 221.19 701.89 221.54 702.33 221.89 702.76 222.26 703.19 222.64 703.61 223.04 704.03 223.43 704.44 223.85 704.85 224.28 705.25 224.72 705.65 225.17 706.04 225.65 706.44 226.12 706.82 226.62 707.2 227.12 707.58 227.64 707.95 228.16 708.32 228.71 708.68 229.25 709.04 229.82 709.4 230.39 709.74 230.98 710.09 231.57 710.43 232.19 710.77 232.8 711.1 233.44 711.43 234.08 711.75 234.74 712.07 235.4 712.38 236.08 712.69 236.77 713 237.47 713.3 238.18 713.6 238.9 713.89 239.63 714.17 240.38 714.46 241.13 714.74 241.9 715.01 242.67 715.28 243.46 715.82 245.04 716.32 246.7 716.82 248.36 717.28 250.11 717.74 251.85 718.18 253.67 718.6 255.49 719 257.39 719.39 259.28 719.75 261.25 720.11 263.21 720.44 265.25 720.77 267.28 721.06 269.39 721.35 271.49 721.61 273.67 721.87 275.83 722.09 278.08 722.32 280.31 722.51 282.63 722.7 284.94 722.86 287.32 723.02 289.7 723.16 292.16 723.29 294.61 723.39 297.14 723.49 299.67 723.56 302.28 723.63 304.89 723.68 307.58 723.73 310.27 723.74 313.05 723.76 315.82 723.75 318.69 723.75 321.55 723.71 324.5 723.71 324.5 723.71 324.5 723.69 326.84 723.64 329.13 723.6 331.42 723.54 333.65 723.48 335.88 723.4 338.06 723.32 340.24 723.22 342.37 723.12 344.51 723.01 346.59 722.89 348.67 722.75 350.7 722.62 352.73 722.46 354.72 722.31 356.7 722.13 358.64 721.96 360.58 721.76 362.47 721.57 364.36 721.35 366.21 721.13 368.05 720.9 369.85 720.66 371.65 720.41 373.41 720.15 375.17 719.87 376.88 719.6 378.59 719.3 380.26 719 381.93 718.68 383.55 718.36 385.18 718.02 386.76 717.68 388.34 717.33 389.84 716.98 391.34 716.61 392.76 716.25 394.18 715.88 395.51 715.5 396.84 715.11 398.09 714.73 399.35 714.33 400.51 713.93 401.68 713.52 402.76 713.11 403.85 712.68 404.84 712.26 405.84 711.83 406.76 711.39 407.67 710.95 408.5 710.5 409.33 710.04 410.07 709.59 410.81 709.12 411.46 708.65 412.12 708.16 412.68 707.68 413.25 707.19 413.72 706.7 414.2 706.19 414.59 705.69 414.97 705.17 415.27 704.66 415.56 704.13 415.76 704.13 415.76 704.13 415.76 704.11 418.13 704.09 420.53 704.49 420.37 704.87 420.3 705.26 420.23 705.64 420.25 706.01 420.28 706.38 420.39 706.75 420.5 707.11 420.7 707.47 420.89 707.82 421.18 708.18 421.47 708.52 421.84 708.87 422.21 709.2 422.67 709.54 423.13 709.87 423.68 710.19 424.22 710.51 424.85 710.83 425.48 711.15 426.2 711.46 426.91 711.76 427.71 712.07 428.5 712.36 429.39 712.66 430.27 712.95 431.23 713.24 432.2 713.52 433.24 713.8 434.29 714.07 435.42 714.35 436.55 714.61 437.76 714.88 438.97 715.14 440.27 715.39 441.56 715.65 442.93 715.9 444.31 716.14 445.77 716.38 447.22 716.62 448.76 716.85 450.3 717.08 451.92 717.31 453.54 717.53 455.24 717.75 456.94 717.97 458.72 718.18 460.5 718.39 462.37 718.59 464.23 718.79 466.18 718.99 468.12 719.18 470.15 719.38 472.17 719.56 474.28 719.75 476.39 719.92 478.58 720.1 480.77 720.27 483.04 720.44 485.31 720.6 487.67 720.77 490.02 720.92 492.46 721.08 494.9 721.22 497.42 721.22 497.42 721.22 497.42 721.38 500.1 721.53 502.67 721.68 505.24 721.83 507.71 721.99 510.18 722.14 512.54 722.3 514.91 722.45 517.17 722.61 519.43 722.76 521.59 722.92 523.74 723.07 525.8 723.23 527.85 723.38 529.8 723.54 531.75 723.7 533.6 723.86 535.45 724.01 537.19 724.17 538.94 724.33 540.58 724.49 542.22 724.65 543.76 724.81 545.3 724.96 546.74 725.12 548.18 725.28 549.51 725.44 550.85 725.6 552.08 725.93 554.55 726.25 556.61 726.57 558.66 726.91 560.41 727.25 562.16 727.61 563.59 727.96 565.03 728.34 566.15 728.71 567.27 729.1 568.09 729.49 568.9 729.89 569.41 730.29 569.93 730.71 570.14 731.13 570.37 731.56 570.32 731.99 570.29 732.37 570.03 732.37 570.03 732.37 570.03 732.37 570.03 732.37 570.03M817.27 474.44Q816.52 475.79 815.77 477.13 815.02 478.46 814.25 479.62 813.54 481.03 812.62 482.57 811.69 484.13 810.68 485.75 809.67 487.38 808.65 489.01 807.61 490.62 806.57 492.24 805.51 493.85 804.44 495.46 803.37 497.06 802.33 498.58 801.3 500.07 800.27 501.56 799.16 503.13 798.04 504.71 796.92 506.28 795.78 507.84 794.65 509.4 793.52 510.92 792.41 512.41 791.3 513.9 790.18 515.37 789.06 516.85 787.93 518.32 786.76 519.83 785.57 521.35 784.39 522.87 783.19 524.37 781.99 525.88 780.79 527.38 779.58 528.88 778.37 530.37 777.18 531.83 776.01 533.24 774.84 534.66 773.66 536.07 772.48 537.48 771.3 538.89 770.06 540.35 768.82 541.82 767.58 543.27 766.33 544.73 765.08 546.18 763.83 547.62 762.57 549.06 761.31 550.5 760.05 551.94 758.79 553.37 757.52 554.8 756.26 556.22 754.99 557.64 753.71 559.06 752.44 560.47 751.16 561.88 749.89 563.29 748.61 564.69 747.33 566.09 746.08 567.45 744.85 568.77 743.63 570.09 742.36 571.47 741.06 572.86 739.81 574.24 739.94 571.54 740.14 568.52 740.34 565.5 740.54 562.48 741.55 561.72 742.56 560.9 743.56 560.04 744.57 559.13 745.58 558.19 746.58 557.22 747.59 556.23 748.6 555.22 749.6 554.19 750.61 553.15 751.62 552.1 752.63 551.04 753.64 549.98 754.65 548.9 755.66 547.82 756.67 546.73 756.81 544.62 756.95 542.49 757.09 540.35 757.23 538.19 757.38 536.02 757.52 533.83 757.67 531.64 757.81 529.44 757.96 527.23 758.1 525.01 758.25 522.79 758.39 520.57 758.54 518.34 758.68 516.11 758.82 513.88 758.95 511.64 759.09 509.41 759.22 507.17 759.35 504.93 759.47 502.69 759.59 500.44 759.7 498.2 759.81 495.96 759.92 493.72 760.02 491.47 760.11 489.23 760.2 486.99 760.29 484.74 760.37 482.5 760.44 480.26 760.52 478.01 760.59 475.77 760.65 473.53 760.72 471.28 760.78 469.04 760.83 466.8 760.89 464.56 760.94 462.32 761 460.07 761.04 457.83 761.09 455.59 761.14 453.35 761.18 451.11 761.23 448.87 761.27 446.63 761.31 444.38 761.35 442.14 761.38 439.9 761.42 437.66 761.45 435.42 761.49 433.18 761.52 430.94 761.55 428.7 761.58 426.46 761.61 424.22 761.63 421.98 761.66 419.74 761.69 417.49 761.71 415.25 761.73 413.01 761.75 410.77 761.77 408.53 761.79 406.29 761.81 404.04 761.83 401.8 761.85 399.56 761.86 397.32 761.88 395.07 761.89 392.83 761.9 390.59 761.91 388.34 761.92 386.1 761.93 383.85 761.94 381.61 761.95 379.36 761.96 377.11 761.96 374.87 761.97 372.62 761.97 370.37 761.98 368.12 761.98 365.87 761.98 363.62 761.98 361.37 761.98 359.12 761.99 356.86 761.98 354.61 761.98 352.36 761.98 350.1 761.98 347.84 761.98 345.59 761.98 343.33 761.97 341.07 761.97 338.81 761.97 336.55 761.96 334.29 761.96 332.02 761.96 329.76 761.95 327.49 761.95 325.22 761.94 322.95 761.94 320.68 761.94 318.41 761.94 316.14 761.93 313.86 761.93 311.59 761.93 309.31 761.93 307.03 761.94 304.75 761.94 302.46 761.94 300.18 761.95 297.89 761.96 295.61 761.97 293.32 761.98 291.03 762 288.73 762.01 286.44 762.03 284.15 762.06 281.85 762.09 279.56 762.12 277.26 762.15 274.97 762.2 272.67 762.24 270.38 762.3 268.09 762.36 265.8 762.42 263.52 762.49 261.24 762.57 258.97 761.44 258.21 760.31 257.45 759.18 256.71 758.04 255.98 756.89 255.25 755.74 254.54 754.59 253.84 753.44 253.15 752.29 252.48 751.13 251.82 749.98 251.19 748.82 250.57 747.67 249.98 746.52 249.42 745.38 248.9 744.25 248.41 744.25 245.39 744.25 242.37 744.25 239.35 744.25 236.34 745.76 237.18 747.26 238.03 748.77 238.88 750.25 239.77 751.73 240.66 753.21 241.55 754.67 242.47 756.13 243.4 757.58 244.33 759.02 245.3 760.45 246.26 761.88 247.23 763.28 248.23 764.69 249.24 766.09 250.25 767.47 251.28 768.85 252.33 770.23 253.37 771.58 254.45 772.93 255.53 774.27 256.61 775.6 257.72 776.91 258.83 778.23 259.95 779.53 261.09 780.81 262.25 782.1 263.4 783.36 264.58 784.62 265.76 785.87 266.95 787.1 268.16 788.32 269.38 789.54 270.6 790.75 271.84 791.93 273.1 793.12 274.35 794.29 275.63 795.44 276.91 796.59 278.2 797.72 279.5 798.83 280.82 799.95 282.14 801.05 283.47 802.12 284.82 803.2 286.18 804.26 287.54 805.3 288.92 806.33 290.3 807.36 291.69 808.35 293.1 809.35 294.51 810.34 295.92 811.29 297.36 812.25 298.8 813.2 300.24 814.11 301.71 815.02 303.18 815.93 304.65 816.8 306.14 817.67 307.63 818.54 309.13 819.36 310.65 820.19 312.17 820.97 313.62 822.23 316.21 823.54 318.9 824.85 321.61 825.77 323.59 824.66 322.59 823.36 321.29 822.14 319.99 821.01 318.71 819.94 317.46 818.93 316.23 817.96 315.02 817.03 313.83 816.12 312.65 815.23 311.47 814.35 310.31 813.47 309.16 812.61 308.02 811.75 306.88 810.89 305.75 810.03 304.63 810.19 306.52 810.38 308.37 810.59 310.19 810.81 311.96 811.05 313.7 811.29 315.4 811.54 317.07 811.79 318.72 812.05 320.34 812.31 321.94 812.57 323.51 812.83 325.07 813.09 326.62 813.35 328.15 813.61 329.67 813.86 331.17 814.11 332.67 814.35 334.16 814.59 335.65 814.83 337.12 815.06 338.59 815.29 340.06 815.51 341.53 815.73 342.99 815.94 344.44 816.15 345.9 816.35 347.35 816.54 348.8 816.73 350.25 816.91 351.7 817.08 353.15 817.25 354.59 817.41 356.04 817.57 357.48 817.72 358.93 817.86 360.37 817.99 361.82 818.12 363.26 818.24 364.7 818.36 366.15 818.46 367.59 818.56 369.03 818.66 370.48 818.74 371.92 818.82 373.37 818.89 374.81 818.95 376.25 819.01 377.7 819.06 379.14 819.1 380.59 819.13 382.03 819.16 383.48 819.18 384.92 819.19 386.36 819.2 387.81 819.19 389.25 819.18 390.69 819.17 392.14 819.14 393.58 819.11 395.02 819.07 396.47 819.02 397.91 818.97 399.35 818.9 400.79 818.83 402.23 818.76 403.67 818.67 405.1 818.58 406.54 818.48 407.98 818.37 409.41 818.26 410.85 818.14 412.28 818.01 413.72 817.87 415.15 817.73 416.58 817.58 418.01 817.42 419.43 817.25 420.86 817.08 422.28 816.9 423.71 816.71 425.13 816.52 426.55 816.32 427.97 816.11 429.38 815.9 430.8 815.67 432.21 815.45 433.62 815.21 435.03 814.97 436.44 814.72 437.84 814.47 439.25 814.21 440.65 813.94 442.05 813.66 443.44 813.38 444.84 813.1 446.23 812.81 447.62 812.51 449.01 812.21 450.4 811.9 451.78 811.58 453.17 811.26 454.55 810.94 455.93 810.61 457.31 810.28 458.69 809.94 460.07 809.6 461.44 809.25 462.82 808.9 464.2 808.55 465.57 808.2 466.95 807.84 468.33 807.48 469.71 807.12 471.1 806.76 472.49 806.4 473.88 806.04 475.28 805.69 476.69 805.33 478.11 804.98 479.53 804.64 480.97 804.3 482.43 803.97 483.9 803.65 485.39 803.34 486.91 803.04 488.45 802.76 490.02 802.5 491.62 803.39 490.43 804.28 489.25 805.17 488.06 806.06 486.88 806.95 485.7 807.84 484.53 808.74 483.37 809.64 482.22 810.55 481.09 811.46 479.98 812.39 478.9 813.34 477.87 814.32 476.88 815.32 475.96 816.36 475.1 817.27 474.44 817.27 474.44 817.27 474.44" class="warpedPath"></path></svg>