<svg id="warpedSvg0" xmlns="http://www.w3.org/2000/svg" data-id="0" data-media-id="Wy1T91tTQ1U" class="mw-100 mh-100" style="visibility: visible" viewBox="7.960000038146973 235.94000244140625 1003.10498046875 525.7100219726562" width="1008.10498046875px" height="530.7100219726562px">
        <defs>
            <linearGradient id="sampleGradient" gradientTransform="rotate(1)" x1="0%" y1="50%" x2="100%" y2="50%" gradientUnits="userSpaceOnUse">
                <stop offset="0%" id="first_color" stop-color="#6b6fff"></stop>
                <stop offset="100%" id="second_color" stop-color="#bc91c1"></stop>
            </linearGradient>
        </defs>
    <path fill="#be816c" d="M113.28 555.57Q115.45 554.99 117.61 554.39 119.77 553.75 121.93 553.11 124.09 552.47 126.24 551.84 128.43 551.33 130.63 550.81 132.82 550.3 135.01 549.79 137.2 549.3 139.4 548.81 141.6 548.32 143.79 547.83 145.99 547.33 148.18 546.8 150.36 546.27 152.55 545.74 154.73 545.2 156.88 544.52 159.02 543.83 161.16 543.14 163.3 542.46 165.48 541.89 167.67 541.38 169.86 540.86 172.05 540.35 174.23 539.83 176.42 539.29 178.6 538.75 180.78 538.22 182.59 537.64 182.76 536.21 182.76 534.5 182.76 532.78 182.76 531.06 182.75 529.34 182.75 527.62 182.75 525.9 182.75 524.18 182.75 522.46 182.75 520.74 182.75 519.03 182.75 517.31 182.75 515.59 182.75 513.87 182.75 512.15 182.75 510.43 182.75 508.71 182.75 506.99 182.75 505.27 182.75 503.55 182.75 501.83 182.75 500.11 182.75 498.39 182.75 496.67 182.75 494.95 182.75 493.23 182.75 491.51 182.75 489.79 182.75 488.07 182.75 486.35 182.75 484.63 182.75 482.91 180.52 483.7 178.06 484.57 175.59 485.42 173.13 486.27 170.67 487.11 168.21 487.95 165.75 488.77 163.29 489.59 160.82 490.41 158.36 491.21 155.9 492.02 153.43 492.81 150.96 493.6 148.5 494.39 146.03 495.17 143.55 495.95 141.08 496.72 138.6 497.49 136.13 498.26 133.64 499.02 131.16 499.78 128.67 500.54 126.18 501.29 123.68 502.05 121.18 502.8 118.68 503.54 116.17 504.29 113.65 505.03 111.13 505.78 108.6 506.52 106.07 507.26 103.53 508 101.85 508.28 100.54 508.19 99.23 508.11 98.28 507.66 97.33 507.22 96.76 506.42 96.18 505.62 95.97 504.46 95.97 504.46 95.97 504.46 95.89 502.94 95.81 501.43 95.73 499.92 95.66 498.41 95.59 496.9 95.53 495.39 95.47 493.88 95.41 492.37 95.36 490.86 95.31 489.35 95.27 487.85 95.23 486.34 95.2 484.83 95.17 483.33 95.15 481.82 95.13 480.32 95.12 478.81 95.11 477.31 95.1 475.8 95.1 474.3 95.11 472.79 95.12 471.29 95.13 469.79 95.15 468.28 95.17 466.78 95.2 465.28 95.24 463.78 95.27 462.28 95.32 460.77 95.37 459.27 95.42 457.77 95.47 456.27 95.54 454.77 95.6 453.26 95.67 451.76 95.75 450.26 95.83 448.76 95.91 447.26 96 445.76 96.09 444.26 96.19 442.76 96.29 441.25 96.4 439.75 96.51 438.25 96.62 436.75 96.74 435.24 96.86 433.74 96.98 432.24 97.11 430.73 97.24 429.23 97.38 427.72 97.52 426.22 97.66 424.71 97.8 423.2 97.95 421.7 98.1 420.19 98.25 418.67 98.4 417.16 98.56 415.65 98.72 414.13 98.88 412.61 99.04 411.1 99.2 409.57 99.37 408.05 99.76 406.6 100.41 405.29 101.07 403.97 101.99 402.78 102.91 401.6 104.09 400.54 105.27 399.49 106.73 398.58 106.73 398.58 106.73 398.58 109.11 397.23 111.5 395.9 113.89 394.57 116.27 393.24 118.65 391.92 121.04 390.61 123.42 389.31 125.8 388.01 128.18 386.72 130.56 385.43 132.95 384.15 135.33 382.88 137.71 381.62 140.09 380.36 142.47 379.11 144.86 377.87 147.24 376.64 149.62 375.41 152 374.19 154.38 372.98 156.77 371.78 159.15 370.58 161.53 369.39 163.91 368.21 166.29 367.03 168.66 365.86 171.04 364.7 173.42 363.55 175.8 362.4 178.19 361.26 180.58 360.13 182.76 359.11 182.76 357.39 182.76 355.67 182.76 353.95 182.76 352.23 182.77 350.51 182.83 348.79 182.9 347.07 182.96 345.35 183.03 343.64 183.09 341.92 183.16 340.2 183.22 338.48 183.29 336.76 183.35 335.04 183.42 333.32 183.48 331.6 183.55 329.88 183.61 328.16 183.68 326.44 183.74 324.73 183.81 323.01 183.87 321.29 183.94 319.57 184.01 317.85 184.07 316.13 184.14 314.41 184.2 312.69 184.27 310.97 184.33 309.25 184.4 307.53 184.47 305.82 184.56 304.15 182.51 305.02 180.26 306.06 178.02 307.11 175.78 308.17 173.55 309.23 171.33 310.32 169.11 311.41 166.89 312.51 164.68 313.63 162.47 314.74 160.28 315.88 158.08 317.02 155.9 318.18 153.72 319.35 151.54 320.52 149.37 321.72 147.21 322.92 145.05 324.13 142.9 325.36 140.76 326.59 138.62 327.84 136.49 329.1 134.37 330.38 132.26 331.66 130.15 332.96 128.05 334.27 125.96 335.59 123.88 336.93 121.8 338.27 119.73 339.63 117.68 341.01 115.62 342.39 113.82 343.63 112.07 344.88 110.32 346.14 108.62 347.42 106.93 348.7 105.28 349.99 103.65 351.3 102.06 352.62 100.47 353.94 98.93 355.27 97.4 356.62 95.91 357.97 94.44 359.33 93 360.7 91.57 362.08 90.19 363.46 88.81 364.85 87.48 366.25 86.15 367.66 84.86 369.07 83.58 370.48 82.34 371.9 81.11 373.33 79.91 374.75 78.72 376.18 77.56 377.61 76.41 379.04 75.29 380.48 74.17 381.91 73.09 383.34 72 384.76 70.95 386.18 69.89 387.6 68.86 389.01 67.82 390.41 66.81 391.8 65.79 393.18 64.79 394.54 63.77 395.9 62.78 397.24 61.77 398.56 60.77 399.86 59.76 401.15 58.76 402.41 56.7 404.89 54.7 407.27 52.62 409.59 50.61 411.83 48.54 414.02 46.56 416.14 44.54 418.23 42.64 420.28 41.68 421.3 40.76 422.31 39.83 423.32 38.94 424.32 38.94 424.32 38.94 424.32 37.61 425.83 36.33 427.36 35.06 428.89 33.85 430.43 32.65 431.97 31.52 433.53 30.39 435.08 29.34 436.67 28.31 438.25 27.33 439.86 26.38 441.47 25.53 443.11 24.68 444.75 23.89 446.41 23.52 447.25 23.18 448.1 22.83 448.95 22.51 449.81 22.51 449.81 22.51 449.81 22.1 450.87 21.7 451.94 21.31 453.02 20.95 454.1 20.59 455.18 20.22 456.26 19.86 457.35 19.5 458.43 19.18 459.53 18.86 460.62 18.54 461.72 18.22 462.82 17.91 463.91 17.62 465.02 17.35 466.13 17.08 467.24 16.8 468.35 16.53 469.46 16.28 470.57 16.05 471.69 15.82 472.81 15.6 473.93 15.37 475.05 15.15 476.17 14.97 477.3 14.79 478.42 14.62 479.55 14.44 480.68 14.26 481.81 14.12 482.94 13.99 484.08 13.86 485.21 13.73 486.35 13.6 487.48 13.49 488.62 13.42 489.76 13.34 490.9 13.26 492.03 13.18 493.17 13.11 494.31 13.08 495.46 13.05 496.6 13.02 497.74 12.99 498.88 12.96 500.02 12.96 501.16 12.99 502.3 13.01 503.45 13.03 504.59 13.05 505.73 13.09 506.87 13.16 508.01 13.23 509.15 13.31 510.29 13.38 511.43 13.45 512.57 13.57 513.71 13.69 514.84 13.81 515.98 13.93 517.11 14.06 518.25 14.21 519.38 14.38 520.51 14.55 521.64 14.73 522.83 14.95 523.98 15.2 525.13 15.51 526.23 15.83 527.33 16.19 528.39 16.55 529.45 16.96 530.47 17.39 531.48 17.88 532.45 18.36 533.42 18.89 534.35 19.43 535.28 20.01 536.17 20.61 537.06 21.26 537.9 21.9 538.75 22.6 539.56 23.29 540.37 24.04 541.14 24.79 541.91 25.58 542.64 26.38 543.38 27.22 544.08 28.06 544.79 28.94 545.46 29.83 546.13 30.76 546.78 32.61 548.09 34.62 549.28 36.61 550.51 38.74 551.63 40.84 552.8 43.05 553.85 45.22 554.94 47.47 555.89 49.66 556.85 51.94 557.66 54.18 558.46 56.5 559.1 58.79 559.73 61.19 560.2 62.39 560.44 63.61 560.63 64.82 560.83 66.07 560.98 67.32 561.13 68.59 561.24 69.86 561.34 71.16 561.4 71.16 561.4 71.16 561.4 73.42 561.52 75.77 561.52 78.1 561.5 80.53 561.33 81.73 561.22 82.96 561.08 84.18 560.93 85.43 560.75 86.68 560.57 87.95 560.37 89.24 560.2 90.55 560.04 91.87 559.89 93.22 559.72 94.57 559.55 95.94 559.35 97.32 559.15 98.72 558.92 100.11 558.69 101.53 558.43 102.96 558.16 104.41 557.88 105.85 557.59 107.33 557.24 108.79 556.81 110.27 556.39 111.76 555.98 113.28 555.57 113.28 555.57 113.28 555.57 113.28 555.57 113.28 555.57M348.16 254.6Q346.53 254.83 344.68 255.17 342.83 255.51 340.98 255.87 339.13 256.22 337.28 256.58 335.43 256.94 333.59 257.31 331.96 257.67 330.39 258.06 328.81 258.46 327.28 258.89 324.23 259.77 321.36 260.79 318.49 261.82 315.81 262.99 313.13 264.18 310.63 265.5 308.14 266.83 305.83 268.3 303.53 269.78 301.4 271.39 299.28 273.01 297.35 274.76 295.41 276.52 293.66 278.41 291.9 280.3 290.33 282.32 288.76 284.34 287.37 286.49 285.97 288.63 284.76 290.9 283.54 293.16 282.51 295.54 281.47 297.92 280.6 300.41 279.74 302.89 279.05 305.49 278.36 308.08 277.84 310.78 277.58 312.13 277.36 313.5 277.14 314.87 276.97 316.27 276.97 316.27 276.97 316.27 276.52 313.95 276.06 311.62 275.6 309.28 275.14 306.93 274.68 304.58 274.21 302.22 273.74 299.85 273.27 297.47 272.8 295.09 272.32 292.69 271.84 290.29 271.36 287.88 270.88 285.46 270.39 283.03 269.91 280.6 269.42 278.17 267.09 278.85 264.76 279.54 262.43 280.24 260.11 280.95 257.78 281.67 255.46 282.39 253.14 283.12 250.83 283.86 248.52 284.61 246.21 285.37 243.9 286.13 241.59 286.9 239.29 287.68 236.99 288.47 234.7 289.27 232.4 290.07 230.11 290.89 227.83 291.71 225.54 292.54 223.26 293.38 220.98 294.22 218.71 295.08 216.43 295.94 214.16 296.81 211.9 297.69 209.63 298.57 207.37 299.45 205.11 300.34 202.84 301.23 200.57 302.11 198.29 302.96 195.99 303.77 196 305.58 196.01 307.39 196.01 309.2 196.02 311.01 196.03 312.82 196.04 314.63 196.05 316.44 196.06 318.25 196.07 320.06 196.08 321.86 196.09 323.67 196.09 325.48 196.1 327.29 196.11 329.1 196.12 330.91 196.13 332.72 196.14 334.53 196.15 336.34 196.16 338.15 196.17 339.96 196.18 341.77 196.18 343.58 196.19 345.39 196.2 347.2 196.21 349.01 196.22 350.82 196.23 352.63 196.24 354.44 196.25 356.25 196.26 358.06 196.27 359.87 196.28 361.68 196.28 363.49 196.29 365.3 196.3 367.11 196.31 368.92 196.32 370.73 196.33 372.54 196.34 374.35 196.35 376.16 196.36 377.97 196.37 379.78 196.38 381.59 196.38 383.4 196.39 385.21 196.4 387.02 196.41 388.83 196.42 390.64 196.43 392.45 196.44 394.26 196.45 396.06 196.46 397.87 196.47 399.68 196.48 401.49 196.48 403.3 196.49 405.11 196.5 406.92 196.51 408.73 196.52 410.54 196.53 412.35 196.54 414.16 196.55 415.97 196.56 417.78 196.57 419.59 196.58 421.4 196.58 423.21 196.59 425.02 196.6 426.83 196.61 428.64 196.62 430.45 196.63 432.26 196.64 434.07 196.65 435.88 196.66 437.69 196.67 439.5 196.68 441.31 196.68 443.12 196.69 444.93 196.7 446.74 196.71 448.55 196.72 450.36 196.73 452.17 196.74 453.98 196.75 455.79 196.76 457.6 196.76 459.41 196.77 461.22 196.78 463.03 196.79 464.84 196.8 466.65 196.81 468.46 196.82 470.27 196.82 472.08 196.83 473.89 196.84 475.7 196.85 477.51 196.86 479.32 196.87 481.13 196.87 482.93 196.88 484.74 196.88 486.55 196.86 488.36 196.75 490.17 196.63 491.98 196.5 493.79 196.38 495.6 196.26 497.41 196.14 499.22 196.01 501.03 195.89 502.84 195.77 504.65 195.64 506.46 195.52 508.27 195.4 510.08 195.28 511.89 195.15 513.7 195.03 515.51 194.91 517.32 194.78 519.13 194.66 520.94 194.54 522.75 194.42 524.56 194.29 526.37 194.17 528.18 194.05 529.99 193.93 531.8 193.81 533.61 193.74 535.22 196.44 534.56 199.14 533.91 201.85 533.25 204.54 532.55 207.23 531.85 209.92 531.15 212.6 530.4 215.26 529.59 217.92 528.79 220.59 527.99 223.3 527.35 226.01 526.72 228.72 526.08 231.42 525.44 234.13 524.79 236.84 524.15 239.55 523.5 242.26 522.88 244.97 522.25 247.68 521.63 250.39 520.99 253.1 520.33 255.8 519.67 258.5 519.01 261.22 518.4 263.94 517.79 266.65 517.19 269.37 516.58 272.08 515.97 274.8 515.36 277.52 514.75 280.22 514.1 280.23 512.97 280.24 511.62 280.25 510.27 280.26 508.92 280.27 507.57 280.28 506.22 280.3 504.87 280.31 503.52 280.32 502.18 280.34 500.83 280.35 499.49 280.36 498.14 280.37 496.8 280.39 495.45 280.4 494.11 280.41 492.76 280.42 491.42 280.44 490.07 280.45 488.72 280.46 487.38 280.47 486.03 280.48 484.69 280.49 483.34 280.5 481.99 280.51 480.65 280.53 479.3 280.54 477.95 280.54 476.6 280.55 475.26 280.56 473.91 280.57 472.56 280.58 471.21 280.59 469.86 280.6 468.51 280.6 467.17 280.61 465.82 280.62 464.47 280.62 463.12 280.63 461.77 280.63 460.42 280.64 459.07 280.64 457.72 280.65 456.37 280.65 455.02 280.65 453.67 280.65 452.31 280.66 450.96 280.66 449.61 280.66 448.26 280.66 446.91 280.66 445.56 280.66 444.21 280.66 442.85 280.66 441.5 280.66 440.15 280.66 438.8 280.66 437.44 280.65 436.09 280.65 434.74 280.65 433.39 280.65 432.03 280.64 430.68 280.64 429.33 280.63 427.97 280.63 426.62 280.62 425.27 280.62 423.91 280.61 422.56 280.6 421.2 280.6 419.85 280.59 418.49 280.58 417.14 280.58 415.79 280.57 414.43 280.56 413.08 280.55 411.72 280.54 410.37 280.53 409.01 280.52 407.65 280.51 406.3 280.5 404.94 280.49 403.59 280.48 402.23 280.47 400.87 280.45 399.52 280.44 398.16 280.43 396.8 280.41 395.45 280.4 394.09 280.39 392.73 280.37 391.38 280.36 390.02 280.34 388.66 280.33 387.3 280.31 385.94 280.29 384.58 280.27 383.22 280.26 381.86 280.24 380.51 280.22 379.15 280.2 377.79 280.18 376.42 280.16 375.06 280.14 373.7 280.12 372.34 280.1 370.98 280.08 369.62 280.05 368.25 280.03 366.89 280.01 365.53 279.98 364.16 279.96 362.8 279.93 361.44 279.9 360.07 279.88 358.7 279.85 357.34 279.82 355.97 279.79 354.6 279.76 353.24 279.73 351.87 279.7 350.5 279.66 349.13 279.63 347.76 279.59 346.39 279.56 345.01 279.52 343.64 279.49 342.27 279.45 340.89 279.71 339.23 280.35 337.82 280.99 336.42 282.01 335.28 283.03 334.14 284.43 333.27 285.83 332.4 287.62 331.8 287.62 331.8 287.62 331.8 289.63 331.26 291.65 330.72 293.67 330.18 295.69 329.65 297.72 329.12 299.74 328.59 301.77 328.06 303.81 327.53 305.84 327 307.88 326.48 309.92 325.96 311.97 325.44 314.02 324.91 316.07 324.39 318.13 323.88 320.19 323.36 322.25 322.84 324.32 322.33 326.39 321.81 328.47 321.3 330.55 320.78 332.63 320.27 334.72 319.76 336.81 319.25 338.9 318.73 340.99 318.22 343.09 317.71 345.18 317.2 347.27 316.69 349.36 316.18 351.44 315.66 353.23 315.22 353.23 313.33 353.23 311.43 353.23 309.53 353.23 307.64 353.23 305.74 353.23 303.84 353.12 301.95 352.92 300.05 352.72 298.15 352.52 296.26 352.32 294.36 352.12 292.47 351.92 290.57 351.72 288.67 351.52 286.78 351.32 284.88 351.12 282.98 350.92 281.09 350.72 279.19 350.52 277.29 350.31 275.4 350.11 273.5 349.91 271.6 349.71 269.71 349.51 267.81 349.31 265.92 349.11 264.02 348.91 262.12 348.71 260.23 348.51 258.33 348.32 256.44 348.16 254.6 348.16 254.6 348.16 254.6M430.86 482.17Q432.1 481.96 433.34 481.74 434.58 481.53 435.81 481.31 437.05 481.1 438.29 480.88 439.53 480.66 440.76 480.39 441.99 480.11 443.22 479.84 444.45 479.57 445.68 479.29 446.91 479.02 448.14 478.75 449.37 478.51 450.61 478.33 451.86 478.14 453.1 477.96 454.35 477.78 455.59 477.59 456.84 477.41 458.08 477.23 459.32 477.01 460.55 476.77 461.79 476.53 463.02 476.29 464.26 476.06 465.49 475.82 466.73 475.58 467.96 475.34 469.21 475.17 470.45 475 471.7 474.83 472.95 474.67 474.2 474.5 475.44 474.34 476.69 474.17 477.94 474.01 479.19 473.87 480.44 473.73 481.69 473.59 482.94 473.45 484.19 473.31 485.44 473.17 486.7 473.03 487.94 472.84 489.17 472.57 490.4 472.31 491.63 472.05 492.86 471.78 494.09 471.52 495.32 471.25 496.55 470.99 497.8 470.82 499.05 470.69 500.3 470.57 501.56 470.44 502.81 470.31 504.06 470.19 505.31 470.06 506.56 469.93 507.82 469.79 509.07 469.65 510.32 469.51 510.31 468.02 510.3 466.33 510.3 464.64 510.3 462.95 510.3 461.26 510.3 459.57 510.29 457.88 510.29 456.19 510.29 454.49 510.29 452.8 510.29 451.11 510.29 449.41 510.29 447.72 510.29 446.02 510.29 444.33 510.29 442.63 510.29 440.94 510.29 439.24 510.29 437.55 510.29 435.85 510.29 434.16 510.29 432.46 510.28 430.76 510.28 429.06 510.28 427.37 510.28 425.67 510.28 423.97 510.28 422.28 510.28 420.58 510.28 418.88 510.28 417.18 510.28 415.48 508.93 415.65 507.58 415.82 506.24 415.99 504.89 416.16 503.54 416.33 502.2 416.5 500.85 416.67 499.51 416.85 498.16 417.02 496.82 417.19 495.47 417.37 494.13 417.55 492.78 417.72 491.44 417.9 490.1 418.08 488.75 418.26 487.41 418.44 486.07 418.62 484.73 418.8 483.38 418.98 482.04 419.16 480.7 419.35 479.36 419.53 478.02 419.72 476.68 419.9 475.34 420.09 474 420.28 472.65 420.47 471.31 420.66 469.97 420.85 468.63 421.04 467.29 421.23 465.95 421.42 464.62 421.62 463.28 421.81 461.94 422.01 460.6 422.2 459.26 422.4 457.92 422.6 456.58 422.79 455.24 422.99 453.9 423.19 452.56 423.39 451.23 423.59 449.89 423.8 448.55 424 447.21 424.2 445.87 424.41 444.53 424.61 443.19 424.81 441.86 425.02 440.52 425.23 439.18 425.43 437.84 425.64 436.5 425.85 435.16 426.06 433.82 426.26 432.48 426.47 431.14 426.68 429.8 426.89 428.46 427.1 427.12 427.31 425.78 427.52 424.44 427.73 423.12 427.71 422.1 427.34 421.08 426.98 420.36 426.27 419.64 425.56 419.22 424.51 418.8 423.46 418.68 422.07 418.68 422.07 418.68 422.07 418.66 420.49 418.64 418.91 418.62 417.33 418.6 415.75 418.58 414.17 418.56 412.58 418.54 411 418.52 409.42 418.51 407.83 418.49 406.25 418.47 404.66 418.45 403.08 418.44 401.49 418.42 399.9 418.4 398.32 418.39 396.73 419.92 396.51 421.45 396.3 422.98 396.08 424.51 395.86 426.03 395.65 427.56 395.43 429.09 395.22 430.62 395 432.15 394.79 433.68 394.58 435.2 394.36 436.73 394.15 438.26 393.94 439.79 393.73 441.31 393.52 442.84 393.31 444.37 393.1 445.9 392.89 447.42 392.68 448.95 392.47 450.48 392.26 452.01 392.06 453.54 391.85 455.06 391.65 456.59 391.44 458.12 391.24 459.65 391.03 461.18 390.83 462.71 390.63 464.24 390.43 465.76 390.23 467.29 390.03 468.82 389.83 470.35 389.63 471.88 389.43 473.41 389.23 474.94 389.04 476.48 388.84 478.01 388.64 479.54 388.45 481.07 388.26 482.6 388.06 484.13 387.87 485.67 387.68 487.2 387.49 488.73 387.3 490.27 387.11 491.8 386.92 493.33 386.73 494.87 386.54 496.4 386.35 497.94 386.17 499.47 385.98 501.01 385.8 502.54 385.61 504.08 385.43 505.61 385.24 507.15 385.06 508.69 384.88 510.22 384.7 511.76 384.51 513.3 384.33 514.84 384.15 516.19 383.99 516.19 382.74 516.19 381.48 516.19 380.22 516.19 378.96 516.19 377.7 516.19 376.44 516.19 375.18 516.19 373.93 516.19 372.67 516.19 371.41 516.19 370.15 516.19 368.89 516.19 367.63 516.19 366.37 516.19 365.12 516.19 363.86 516.19 362.6 516.19 361.34 516.19 360.08 516.19 358.82 516.19 357.56 516.19 356.31 516.19 355.05 516.19 353.79 516.19 352.53 516.19 351.27 516.19 350.01 516.19 348.75 516.19 347.5 516.19 346.24 516.19 344.98 516.19 343.72 516.18 342.46 516.18 341.2 516.18 339.94 516.18 338.69 516.18 337.43 516.18 336.17 516.18 334.91 516.18 333.65 516.18 332.39 516.18 331.13 516.18 329.87 516.18 328.62 516.18 327.36 516.18 326.1 516.18 324.84 516.18 323.58 516.18 322.32 516.18 321.06 516.18 319.81 516.18 318.55 516.18 317.29 516.18 316.03 516.18 314.77 516.18 313.51 516.18 312.25 516.18 311 516.18 309.74 516.18 308.48 516.18 307.22 516.18 305.96 516.18 304.7 516.18 303.44 516.18 302.1 516.21 300.79 516.23 299.47 516.27 298.18 516.25 296.9 516.18 295.65 516.12 294.41 516.03 293.19 515.94 291.97 515.83 290.79 515.72 289.6 515.59 288.45 515.3 286.14 514.81 283.95 514.29 281.77 513.69 279.71 513.09 277.65 512.42 275.71 511.74 273.77 510.99 271.95 510.24 270.13 509.42 268.44 508.59 266.74 507.7 265.16 506.8 263.57 505.84 262.11 504.87 260.64 503.84 259.28 502.81 257.92 501.71 256.68 500.61 255.42 499.45 254.28 498.29 253.14 497.06 252.11 495.83 251.08 494.53 250.16 493.24 249.24 491.87 248.45 491.87 248.45 491.87 248.45 490.12 247.48 488.2 246.65 487.24 246.23 486.24 245.84 485.24 245.46 484.2 245.11 483.15 244.76 482.06 244.44 480.97 244.13 479.84 243.85 478.71 243.57 477.54 243.32 476.36 243.08 475.14 242.87 473.92 242.66 472.66 242.49 471.4 242.32 470.09 242.18 468.79 242.05 467.44 241.95 466.09 241.85 464.69 241.79 463.3 241.73 461.86 241.71 460.42 241.7 458.94 241.71 457.46 241.73 455.93 241.79 454.41 241.85 452.84 241.94 452.84 241.94 452.84 241.94 451.8 242 450.77 242.07 449.74 242.14 448.7 242.21 447.67 242.28 446.63 242.35 445.6 242.41 444.57 242.49 443.53 242.56 442.5 242.64 441.47 242.72 440.43 242.79 439.4 242.87 438.37 242.95 437.33 243.03 436.3 243.11 435.27 243.2 434.23 243.28 433.2 243.36 432.17 243.45 431.14 243.54 430.1 243.63 429.07 243.72 428.04 243.81 427.01 243.9 425.98 243.99 424.94 244.09 423.91 244.18 422.88 244.28 421.85 244.38 420.82 244.47 419.79 244.58 418.52 244.7 417.28 244.85 416.04 245 414.83 245.17 413.62 245.34 412.44 245.54 411.26 245.74 410.11 245.96 408.96 246.17 407.83 246.42 406.71 246.67 405.61 246.93 404.52 247.2 403.45 247.49 402.38 247.78 401.35 248.09 400.31 248.41 399.3 248.74 398.29 249.08 397.31 249.44 395.34 250.16 393.49 250.97 391.65 251.78 389.91 252.67 388.17 253.57 386.55 254.56 384.93 255.54 383.42 256.61 381.9 257.68 380.5 258.83 379.1 259.98 377.81 261.21 376.52 262.44 375.34 263.75 374.15 265.05 373.08 266.43 372.01 267.81 371.04 269.27 370.07 270.72 369.22 272.25 368.36 273.78 367.61 275.39 367.61 275.39 367.61 275.39 366.71 277.43 365.93 279.66 365.14 281.88 364.47 284.28 364.13 285.48 363.82 286.72 363.51 287.97 363.23 289.26 362.94 290.55 362.69 291.88 362.44 293.22 362.21 294.6 361.98 295.97 361.79 297.4 361.59 298.82 361.42 300.29 361.25 301.76 361.11 303.27 360.96 304.79 360.85 306.34 360.74 307.9 360.65 309.51 360.57 311.11 360.51 312.76 360.45 314.41 360.43 316.1 360.4 317.79 360.4 319.53 360.4 319.53 360.4 319.53 360.4 321.15 360.4 322.77 360.4 324.39 360.4 326.01 360.4 327.63 360.4 329.25 360.4 330.87 360.4 332.49 360.4 334.11 360.4 335.73 360.4 337.34 360.4 338.96 360.4 340.58 360.4 342.2 360.4 343.82 360.4 345.44 360.4 347.06 360.4 348.68 360.4 350.3 360.4 351.92 360.4 353.54 360.4 355.16 360.4 356.77 360.4 358.39 360.4 360.01 360.4 361.63 360.4 363.25 360.4 364.87 360.4 366.49 360.4 368.11 360.4 369.73 360.4 371.35 360.4 372.97 360.4 374.59 360.4 376.2 360.4 377.82 360.4 379.44 360.4 381.06 360.4 382.68 360.4 384.3 360.4 385.92 360.4 387.54 360.4 389.16 360.4 390.78 360.4 392.4 360.4 394.02 360.4 395.64 360.4 397.25 360.4 398.87 360.4 400.49 360.4 402.11 360.4 403.73 360.4 405.35 360.4 406.97 360.4 408.59 360.4 410.21 360.4 411.83 360.4 413.45 360.4 415.07 360.4 416.68 360.4 418.3 360.4 419.92 360.4 421.54 360.4 423.16 360.4 424.83 360.43 426.45 360.47 428.07 360.53 429.64 360.6 431.22 360.7 432.75 360.8 434.28 360.94 435.77 361.07 437.26 361.24 438.7 361.41 440.14 361.61 441.54 361.82 442.94 362.07 444.29 362.33 445.65 362.64 446.96 362.97 448.27 363.34 449.53 363.7 450.8 364.1 452.02 364.51 453.24 364.94 454.42 365.37 455.6 365.83 456.73 366.3 457.86 366.79 458.95 367.29 460.03 367.81 461.07 368.86 463.16 370.03 465.06 371.2 466.96 372.48 468.69 373.77 470.4 375.17 471.94 376.56 473.47 378.07 474.81 379.58 476.15 381.2 477.29 382.81 478.42 384.55 479.35 386.27 480.27 388.12 480.99 389.04 481.35 389.99 481.67 390.94 481.98 391.92 482.25 392.9 482.52 393.91 482.75 394.92 482.98 395.97 483.17 395.97 483.17 395.97 483.17 397.78 483.52 399.69 483.78 401.6 484.05 403.6 484.24 404.6 484.34 405.63 484.42 406.65 484.5 407.7 484.55 408.75 484.6 409.82 484.63 410.89 484.63 411.97 484.59 413.06 484.53 414.16 484.44 415.27 484.35 416.4 484.23 417.53 484.11 418.68 483.96 419.83 483.82 421.01 483.69 422.2 483.57 423.41 483.44 424.61 483.3 425.84 483.1 427.07 482.85 428.33 482.62 429.58 482.39 430.86 482.17 430.86 482.17 430.86 482.17 430.86 482.17 430.86 482.17M417.97 349.56Q417.96 348.25 417.95 346.93 417.93 345.61 417.92 344.3 417.91 342.98 417.9 341.66 417.89 340.35 417.88 339.03 417.86 337.71 417.85 336.39 417.84 335.07 417.83 333.76 417.82 332.44 417.8 331.12 417.79 329.8 417.78 328.48 417.77 327.16 417.75 325.83 417.74 324.51 417.73 323.19 417.71 321.87 417.7 320.55 417.69 319.22 417.67 317.9 417.66 316.57 417.65 315.25 417.63 313.92 417.62 312.6 417.6 311.27 417.59 309.94 417.57 308.62 417.56 307.29 417.74 305.71 418.18 304.47 418.62 303.22 419.32 302.31 420.01 301.4 420.96 300.82 421.9 300.24 423.11 299.99 423.11 299.99 423.11 299.99 424.94 299.8 426.78 299.62 428.61 299.43 430.45 299.25 432.29 299.06 434.13 298.88 435.96 298.71 437.8 298.53 439.64 298.36 441.48 298.19 443.33 298.02 445.17 297.85 447.01 297.68 448.86 297.52 450.7 297.36 452.55 297.2 453.87 297.32 454.89 297.76 455.92 298.21 456.64 298.97 457.37 299.73 457.8 300.82 458.23 301.9 458.36 303.3 458.36 303.3 458.36 303.3 458.39 304.6 458.41 305.91 458.44 307.21 458.46 308.51 458.48 309.82 458.51 311.12 458.53 312.42 458.55 313.72 458.57 315.02 458.6 316.32 458.62 317.62 458.64 318.92 458.66 320.22 458.68 321.51 458.7 322.81 458.72 324.11 458.74 325.4 458.76 326.7 458.77 327.99 458.79 329.29 458.81 330.58 458.83 331.88 458.84 333.17 458.86 334.47 458.88 335.76 458.89 337.05 458.91 338.34 458.92 339.64 458.94 340.93 458.95 342.22 458.97 343.51 458.98 344.8 457.69 344.94 456.41 345.09 455.12 345.23 453.84 345.37 452.56 345.51 451.27 345.66 449.99 345.8 448.7 345.95 447.42 346.09 446.14 346.24 444.86 346.38 443.57 346.53 442.29 346.68 441.01 346.83 439.73 346.97 438.45 347.12 437.17 347.27 435.89 347.42 434.6 347.57 433.32 347.72 432.04 347.87 430.76 348.02 429.48 348.17 428.2 348.33 426.92 348.48 425.64 348.63 424.37 348.79 423.09 348.94 421.81 349.1 420.53 349.25 419.25 349.41 417.97 349.56 417.97 349.56 417.97 349.56M622.64 370.82Q622.65 372.03 622.66 373.23 622.66 374.43 622.67 375.63 622.68 376.84 622.69 378.04 622.69 379.24 622.7 380.44 622.71 381.65 622.71 382.85 622.72 384.05 622.72 385.25 622.73 386.45 622.74 387.65 622.74 388.85 622.75 390.06 622.75 391.26 622.76 392.46 622.77 393.66 622.77 394.86 622.78 396.06 622.78 397.26 622.79 398.46 622.8 399.66 622.8 400.86 622.81 402.06 622.81 403.25 622.82 404.45 622.83 405.65 622.83 406.85 622.84 408.05 622.84 409.25 621.74 409.31 620.64 409.37 619.54 409.43 618.44 409.49 617.34 409.55 616.23 409.62 615.13 409.68 614.03 409.74 612.93 409.8 611.83 409.87 610.73 409.93 609.63 410 608.53 410.06 607.43 410.12 606.32 410.19 605.22 410.26 604.12 410.32 603.02 410.39 601.92 410.46 600.82 410.52 599.72 410.59 598.62 410.66 597.52 410.73 596.41 410.8 595.31 410.86 594.21 410.93 593.11 411 592.01 411.07 590.91 411.14 589.81 411.22 588.71 411.29 587.61 411.36 586.29 411.23 585.27 410.82 584.26 410.4 583.54 409.7 582.83 409 582.42 408.01 582 407.02 581.89 405.74 581.89 405.74 581.89 405.74 581.88 403.99 581.87 402.25 581.86 400.5 581.85 398.75 581.84 397 581.83 395.25 581.82 393.5 581.81 391.75 581.8 390 581.79 388.25 581.78 386.5 581.77 384.74 581.76 382.99 581.75 381.23 581.74 379.48 581.73 377.72 581.92 376.31 582.37 375.22 582.82 374.13 583.53 373.35 584.23 372.58 585.19 372.12 586.15 371.67 587.37 371.53 587.37 371.53 587.37 371.53 588.47 371.51 589.57 371.48 590.67 371.45 591.77 371.43 592.87 371.4 593.98 371.38 595.08 371.35 596.18 371.33 597.28 371.3 598.38 371.28 599.49 371.26 600.59 371.23 601.69 371.21 602.79 371.19 603.89 371.16 605 371.14 606.1 371.12 607.2 371.1 608.3 371.08 609.41 371.05 610.51 371.03 611.61 371.01 612.71 370.99 613.82 370.97 614.92 370.95 616.02 370.93 617.13 370.91 618.23 370.89 619.33 370.88 620.44 370.86 621.54 370.84 622.64 370.82 622.64 370.82 622.64 370.82M578.22 460.32Q579.74 460.15 581.25 459.99 582.76 459.82 584.28 459.66 585.37 459.58 586.44 459.53 587.51 459.4 588.55 459.21 590.62 458.81 592.58 458.29 594.54 457.78 596.38 457.16 598.22 456.54 599.94 455.81 601.66 455.09 603.26 454.28 604.87 453.48 606.35 452.56 607.84 451.62 609.2 450.54 610.57 449.45 611.81 448.21 613.06 446.97 614.18 445.59 615.3 444.22 616.31 442.72 617.32 441.22 618.2 439.59 619.09 437.97 619.86 436.22 620.63 434.48 621.28 432.61 621.93 430.74 622.46 428.76 622.99 426.77 623.4 424.66 623.61 423.6 623.78 422.52 623.96 421.43 624.11 420.31 624.11 420.31 624.11 420.31 624.37 422.3 624.63 424.3 624.89 426.29 625.16 428.28 625.42 430.27 625.68 432.26 625.94 434.25 626.2 436.25 626.47 438.24 626.73 440.24 626.99 442.23 627.25 444.23 627.52 446.22 627.78 448.22 628.04 450.22 628.3 452.21 629.95 452.05 631.59 451.9 633.23 451.74 634.87 451.58 636.51 451.42 638.15 451.27 639.8 451.12 641.44 450.96 643.08 450.82 644.72 450.67 646.37 450.54 648.01 450.4 649.65 450.28 651.3 450.18 652.94 450.1 654.59 450.05 656.24 450 657.88 449.96 659.53 449.9 661.18 449.83 662.82 449.73 664.46 449.61 666.11 449.48 667.75 449.34 669.39 449.19 671.03 449.05 672.68 448.9 674.32 448.75 675.96 448.61 677.6 448.48 679.25 448.36 680.71 448.28 680.71 447.21 680.71 446.15 680.71 445.08 680.71 444.01 680.71 442.95 680.71 441.88 680.71 440.81 680.71 439.74 680.71 438.68 680.71 437.61 680.71 436.54 680.71 435.48 680.71 434.41 680.71 433.34 680.71 432.28 680.71 431.21 680.71 430.14 680.71 429.08 680.71 428.01 680.71 426.94 680.71 425.88 680.71 424.81 680.71 423.74 680.71 422.68 680.71 421.61 680.71 420.54 680.71 419.48 680.71 418.41 680.71 417.34 680.71 416.28 680.71 415.21 680.71 414.14 680.71 413.07 680.71 412.01 680.71 410.94 680.71 409.87 680.71 408.81 680.71 407.74 680.71 406.67 680.71 405.61 680.71 404.54 680.71 403.47 680.71 402.41 680.71 401.34 680.71 400.27 680.71 399.21 680.71 398.14 680.71 397.07 680.71 396.01 680.71 394.94 680.71 393.87 680.71 392.81 680.71 391.74 680.71 390.67 680.71 389.61 680.71 388.54 680.71 387.47 680.71 386.41 680.71 385.34 680.71 384.27 680.71 383.2 680.71 382.14 680.71 381.07 680.71 380 680.71 378.94 680.71 377.87 680.71 376.8 680.71 375.74 680.71 374.67 680.71 373.6 680.71 372.54 680.71 371.47 680.71 370.4 680.71 369.34 680.71 368.27 680.71 367.2 680.71 366.14 680.71 365.07 680.71 364 680.71 362.94 680.71 361.87 680.71 360.8 680.71 359.74 680.71 358.67 680.71 357.6 680.71 356.54 680.71 355.47 680.71 354.4 680.71 353.34 680.71 352.27 680.71 351.2 680.71 350.14 680.71 349.07 680.71 348 680.71 346.94 680.71 345.87 680.71 344.8 680.71 343.73 680.71 342.67 680.71 341.6 680.71 340.53 680.71 339.47 680.71 338.4 680.71 337.33 680.71 336.27 680.71 335.2 680.71 334.13 680.71 333.07 680.71 332 680.71 330.93 680.71 329.87 680.71 328.8 680.71 327.73 680.71 326.67 680.71 325.6 680.71 324.53 680.71 323.47 680.71 322.4 680.71 321.33 680.71 320.27 680.71 319.2 680.71 318.13 680.71 317.07 680.71 316 680.71 314.93 680.71 313.87 680.71 312.8 680.71 311.73 680.71 310.44 680.74 309.18 680.76 307.92 680.79 306.69 680.73 305.46 680.64 304.25 680.56 303.04 680.44 301.87 680.33 300.69 680.18 299.54 680.04 298.39 679.87 297.27 679.69 296.14 679.47 295.05 679.23 293.96 678.92 292.89 678.6 291.82 678.25 290.78 677.9 289.74 677.52 288.73 677.14 287.71 676.73 286.73 676.33 285.74 675.9 284.78 675.04 282.85 674.08 281.03 673.12 279.21 672.07 277.49 671.02 275.76 669.88 274.13 668.74 272.49 667.51 270.94 666.29 269.38 664.97 267.92 663.67 266.44 662.27 265.05 660.89 263.64 659.41 262.34 657.94 261.02 656.37 259.81 654.81 258.58 653.15 257.47 651.49 256.35 649.74 255.34 649.74 255.34 649.74 255.34 648.08 254.46 646.32 253.64 644.56 252.82 642.68 252.07 640.8 251.32 638.81 250.64 637.81 250.3 636.79 249.98 635.77 249.66 634.71 249.36 633.66 249.06 632.58 248.77 631.49 248.49 630.38 248.23 629.27 247.96 628.13 247.72 626.99 247.47 625.82 247.25 624.65 247.03 623.45 246.82 622.25 246.62 621.02 246.43 619.8 246.25 618.54 246.09 617.28 245.92 615.99 245.78 615.99 245.78 615.99 245.78 614.8 245.66 613.61 245.53 612.41 245.41 611.22 245.29 610.02 245.17 608.83 245.06 607.63 244.94 606.44 244.83 605.24 244.71 604.05 244.6 602.85 244.5 601.65 244.39 600.46 244.28 599.26 244.18 598.07 244.07 596.87 243.98 595.67 243.88 594.47 243.78 593.28 243.68 592.08 243.58 590.88 243.49 589.69 243.4 588.49 243.31 587.29 243.22 586.09 243.13 584.9 243.05 583.7 242.97 582.5 242.89 581.3 242.8 580.1 242.72 578.9 242.65 577.71 242.57 576.51 242.5 575.31 242.42 574.11 242.35 572.91 242.28 571.71 242.21 570.51 242.15 569.31 242.08 568.11 242.01 566.91 241.95 565.71 241.89 564.51 241.84 563.31 241.78 562.11 241.72 560.91 241.66 559.71 241.61 558.51 241.56 557.31 241.51 556.11 241.46 554.91 241.41 553.71 241.37 552.51 241.33 551.31 241.29 550.11 241.24 548.91 241.2 547.71 241.17 546.51 241.13 545.31 241.1 544.11 241.06 542.91 241.03 541.7 241 540.5 240.97 539.3 240.94 539.32 242.63 539.33 244.31 539.34 246 539.35 247.7 539.36 249.39 539.36 251.08 539.37 252.78 539.38 254.47 539.38 256.16 539.39 257.86 539.39 259.55 539.4 261.24 539.4 262.94 539.4 264.63 539.41 266.32 539.41 268.01 539.41 269.7 539.42 271.39 539.42 273.09 539.42 274.78 539.43 276.47 539.43 278.16 539.43 279.85 539.43 281.53 539.44 283.22 539.44 284.91 539.44 286.6 539.44 288.29 539.45 289.98 539.45 291.67 539.45 293.35 539.45 295.04 540.65 295.05 541.85 295.07 543.05 295.08 544.25 295.1 545.45 295.11 546.65 295.13 547.85 295.15 549.05 295.17 550.25 295.19 551.45 295.21 552.65 295.24 553.85 295.26 555.04 295.28 556.24 295.31 557.44 295.34 558.64 295.36 559.84 295.39 561.04 295.42 562.23 295.45 563.43 295.48 564.63 295.52 565.83 295.55 567.03 295.58 568.22 295.62 569.42 295.66 570.62 295.69 571.82 295.73 573.01 295.77 574.21 295.81 575.41 295.85 576.61 295.9 577.8 295.94 579 295.98 580.2 296.03 581.4 296.08 582.59 296.12 583.79 296.17 584.99 296.22 586.19 296.27 587.39 296.32 588.58 296.37 589.78 296.43 590.98 296.48 592.18 296.54 593.38 296.59 594.57 296.65 595.77 296.71 596.97 296.76 598.17 296.82 599.37 296.88 600.57 296.95 601.77 297.01 602.97 297.07 604.17 297.13 605.37 297.2 606.57 297.27 607.77 297.33 608.97 297.4 610.17 297.47 611.37 297.54 612.57 297.6 613.77 297.67 614.98 297.75 616.18 297.82 617.49 298.12 618.51 298.66 619.53 299.2 620.25 299.99 620.97 300.78 621.39 301.81 621.82 302.83 621.94 304.11 621.94 304.11 621.94 304.11 621.97 305.69 621.99 307.26 622.02 308.84 622.05 310.42 622.07 311.99 622.09 313.56 622.12 315.14 622.14 316.71 622.16 318.28 622.18 319.85 622.21 321.42 622.23 322.99 622.25 324.55 622.27 326.12 622.28 327.69 622.3 329.25 621.15 329.22 619.99 329.18 618.84 329.15 617.69 329.12 616.53 329.08 615.38 329.05 614.23 329.01 613.08 328.98 611.92 328.95 610.77 328.92 609.62 328.89 608.47 328.85 607.32 328.82 606.17 328.79 605.02 328.76 603.87 328.73 602.72 328.7 601.57 328.67 600.42 328.65 599.27 328.62 598.12 328.59 596.97 328.56 595.82 328.54 594.67 328.51 593.52 328.48 592.37 328.46 591.22 328.44 590.08 328.41 588.93 328.39 587.78 328.36 586.63 328.34 585.48 328.32 584.17 328.29 582.89 328.29 581.61 328.29 580.36 328.31 579.1 328.34 577.88 328.38 576.66 328.43 575.47 328.5 574.27 328.57 573.11 328.66 571.95 328.75 570.81 328.87 569.68 328.99 568.58 329.13 567.47 329.27 566.4 329.43 565.33 329.6 564.28 329.78 563.24 329.97 562.22 330.18 560.19 330.61 558.28 331.13 556.37 331.65 554.58 332.26 552.78 332.87 551.11 333.58 549.43 334.29 547.87 335.09 546.31 335.89 544.87 336.78 543.43 337.68 542.11 338.66 540.79 339.65 539.58 340.73 538.38 341.81 537.29 342.98 536.21 344.15 535.24 345.41 534.27 346.68 533.42 348.03 532.57 349.39 531.84 350.83 531.84 350.83 531.84 350.83 530.98 352.53 530.23 354.39 529.48 356.26 528.84 358.3 528.19 360.34 527.66 362.55 527.39 363.65 527.15 364.8 526.9 365.95 526.69 367.13 526.48 368.32 526.29 369.55 526.1 370.79 525.94 372.06 525.78 373.33 525.64 374.65 525.51 375.96 525.4 377.32 525.29 378.68 525.21 380.08 525.13 381.48 525.08 382.92 525.02 384.36 525 385.85 524.97 387.33 524.97 388.86 524.97 388.86 524.97 388.86 524.97 390.21 524.97 391.57 524.97 392.92 524.97 394.28 524.97 395.63 524.97 396.99 524.97 398.34 524.97 399.7 524.97 401.05 524.97 402.41 524.97 403.76 524.97 405.12 524.97 406.48 524.97 407.83 524.97 409.19 524.97 410.54 524.97 411.9 525 413.22 525.03 414.54 525.08 415.83 525.14 417.12 525.22 418.37 525.3 419.62 525.41 420.84 525.54 422.06 525.7 423.24 525.86 424.43 526.05 425.58 526.42 427.87 526.91 430.03 527.39 432.19 527.98 434.21 528.57 436.23 529.27 438.11 529.97 439.99 530.77 441.72 531.58 443.45 532.49 445.04 533.39 446.62 534.41 448.06 535.42 449.49 536.54 450.78 537.66 452.05 538.88 453.18 540.1 454.3 541.43 455.27 542.75 456.24 544.18 457.06 545.61 457.87 547.14 458.54 548.68 459.21 550.32 459.74 551.96 460.27 553.71 460.65 553.71 460.65 553.71 460.65 555.02 460.94 556.4 461.17 557.77 461.38 559.19 461.53 560.62 461.68 562.1 461.76 563.58 461.84 565.11 461.82 566.63 461.76 568.21 461.62 569.79 461.48 571.42 461.28 573.05 461.07 574.75 460.75 576.46 460.51 578.22 460.32 578.22 460.32 578.22 460.32 578.22 460.32 578.22 460.32M836.35 360.08Q836.35 359.26 836.35 358.45 836.35 357.64 836.35 356.82 836.35 356.01 836.35 355.19 836.35 354.38 836.35 353.57 836.35 352.75 836.35 351.94 836.35 351.13 836.35 350.31 836.35 349.5 836.35 348.68 836.35 347.87 836.35 347.06 836.35 346.24 836.35 345.43 836.35 344.61 836.35 343.8 836.35 342.99 836.35 342.17 836.35 341.36 836.35 340.54 836.35 339.73 836.35 338.92 836.35 338.1 836.35 337.29 836.35 336.47 836.35 335.66 836.35 334.85 836.35 334.03 834.91 333.67 833.27 333.24 831.62 332.81 829.97 332.37 828.32 331.94 826.66 331.49 824.99 331.05 823.33 330.6 821.65 330.14 819.98 329.69 818.3 329.23 816.61 328.76 814.92 328.3 813.23 327.83 811.54 327.36 809.84 326.89 808.13 326.41 806.43 325.94 804.72 325.46 803.01 324.98 801.29 324.5 799.58 324.02 797.85 323.54 796.13 323.06 794.41 322.57 792.68 322.09 790.95 321.61 789.21 321.13 787.48 320.64 785.74 320.16 784 319.68 782.26 319.2 782.31 318.12 782.36 317.03 782.41 315.95 782.47 314.86 782.53 313.76 782.59 312.67 782.65 311.57 782.72 310.46 782.78 309.35 782.85 308.24 782.92 307.12 782.99 306 783.07 304.88 783.14 303.74 783.22 302.61 783.3 301.46 783.38 300.32 783.46 299.16 783.54 298 783.63 296.83 783.71 295.66 783.8 294.48 783.89 293.29 783.98 292.09 784.07 290.89 784.16 289.69 784.25 288.48 784.34 287.26 784.43 286.04 784.51 284.82 784.6 283.61 784.68 282.4 782.38 281.62 780.08 280.85 777.78 280.08 775.47 279.33 773.16 278.58 770.85 277.84 768.53 277.11 766.21 276.39 763.89 275.68 761.57 274.97 759.25 274.27 756.92 273.58 754.59 272.89 752.26 272.22 749.92 271.56 747.59 270.9 745.25 270.25 742.91 269.6 740.56 268.97 738.22 268.34 735.87 267.72 733.52 267.11 731.17 266.5 728.82 265.91 726.46 265.32 724.11 264.73 721.75 264.16 719.39 263.59 717.03 263.03 714.66 262.48 712.3 261.93 709.93 261.39 709.88 262.63 709.83 263.88 709.78 265.13 709.73 266.38 709.68 267.64 709.64 268.9 709.6 270.15 709.57 271.4 709.53 272.66 709.5 273.91 709.47 275.15 709.44 276.4 709.42 277.65 709.39 278.89 709.37 280.13 709.35 281.37 709.33 282.61 709.31 283.84 709.29 285.08 709.27 286.31 709.25 287.55 709.24 288.78 709.22 290.01 709.21 291.24 709.19 292.46 709.18 293.69 709.17 294.92 709.16 296.14 709.14 297.37 709.13 298.59 709.12 299.81 709.11 301.03 707.49 300.68 705.86 300.33 704.24 299.99 702.62 299.64 700.99 299.3 699.37 298.96 697.74 298.62 696.12 298.29 694.5 297.96 692.88 297.63 691.25 297.3 689.63 296.97 688.01 296.65 686.39 296.33 684.77 296.01 683.15 295.7 683.15 296.79 683.15 297.89 683.15 298.99 683.15 300.09 683.15 301.18 683.15 302.28 683.15 303.38 683.15 304.48 683.15 305.57 683.15 306.67 683.15 307.77 683.15 308.86 683.15 309.96 683.15 311.06 683.15 312.16 683.15 313.25 683.15 314.35 683.15 315.45 683.15 316.54 683.15 317.64 683.15 318.74 683.15 319.83 683.15 320.93 683.15 322.03 683.15 323.13 683.15 324.22 683.15 325.32 683.15 326.42 683.15 327.51 683.15 328.61 683.15 329.71 683.15 330.8 684.76 331.07 686.38 331.34 687.99 331.61 689.6 331.88 691.22 332.15 692.83 332.42 694.44 332.7 696.05 332.97 697.67 333.25 699.28 333.52 700.89 333.8 702.5 334.08 704.12 334.36 705.73 334.64 707.34 334.92 708.95 335.21 708.95 336.32 708.95 337.43 708.95 338.54 708.95 339.65 708.94 340.76 708.94 341.87 708.94 342.98 708.94 344.09 708.94 345.2 708.94 346.31 708.94 347.42 708.94 348.53 708.94 349.64 708.95 350.75 708.95 351.86 708.95 352.97 708.95 354.08 708.95 355.19 708.95 356.29 708.96 357.4 708.96 358.51 708.96 359.62 708.96 360.73 708.97 361.83 708.97 362.94 708.98 364.05 708.98 365.16 708.99 366.27 708.99 367.37 709 368.48 709 369.59 709.01 370.7 709.01 371.8 709.02 372.91 709.03 374.02 709.04 375.12 709.05 376.23 709.06 377.34 709.06 378.44 709.07 379.55 709.09 380.66 709.1 381.76 709.11 382.87 709.12 383.98 709.14 385.08 709.15 386.19 709.17 387.29 709.18 388.4 709.2 389.51 709.22 390.61 709.24 391.72 709.26 392.82 709.29 393.93 709.31 395.03 709.34 396.14 709.37 397.25 709.4 398.35 709.43 399.46 709.47 400.56 709.51 401.67 709.55 402.77 709.6 403.87 709.65 404.98 709.7 406.08 709.76 407.15 709.86 408.19 709.97 409.23 710.12 410.25 710.28 411.27 710.48 412.26 710.69 413.26 710.94 414.23 711.2 415.2 711.5 416.14 711.81 417.09 712.15 418.01 712.5 418.92 712.89 419.82 713.29 420.71 713.72 421.57 714.16 422.44 714.63 423.28 715.11 424.11 715.62 424.92 716.13 425.73 716.68 426.51 717.23 427.29 717.82 428.05 718.4 428.8 719.02 429.52 719.64 430.24 720.3 430.94 721.6 432.32 723.05 433.59 724.49 434.85 726.06 436 727.63 437.14 729.34 438.17 731.04 439.19 732.87 440.11 734.71 441.01 736.68 441.81 738.65 442.61 740.76 443.31 742.87 444.01 745.12 444.62 746.24 444.93 747.41 445.22 748.57 445.5 749.77 445.77 750.97 446.04 752.2 446.29 753.44 446.54 754.71 446.76 754.71 446.76 754.71 446.76 756.91 447.17 759.23 447.51 761.54 447.85 763.96 448.13 765.18 448.26 766.41 448.38 767.65 448.48 768.91 448.56 770.18 448.6 771.47 448.62 772.75 448.63 774.07 448.62 775.39 448.6 776.73 448.58 778.07 448.57 779.45 448.62 780.82 448.69 782.23 448.75 783.63 448.81 785.06 448.86 786.49 448.91 787.95 448.94 789.41 448.98 790.9 448.98 792.38 448.96 793.89 448.95 795.41 448.93 796.95 448.94 796.95 448.94 796.95 448.94 798.19 448.94 799.43 448.94 800.67 448.94 801.91 448.94 803.15 448.94 804.39 448.94 805.63 448.94 806.87 448.94 808.11 448.97 809.34 449.03 810.58 449.09 811.82 449.15 813.05 449.21 814.29 449.26 815.53 449.32 816.77 449.38 818 449.45 819.24 449.52 820.48 449.59 821.71 449.65 822.95 449.72 824.19 449.79 825.42 449.86 826.66 449.93 827.9 449.93 829.14 449.93 830.38 449.93 831.61 449.93 832.85 449.94 834.09 449.94 835.32 449.94 836.19 449.84 836.36 449.15 836.35 448.27 836.35 447.38 836.35 446.49 836.35 445.6 836.35 444.72 836.35 443.83 836.35 442.94 836.35 442.05 836.35 441.17 836.35 440.28 836.35 439.39 836.35 438.5 836.35 437.62 836.35 436.73 836.35 435.84 836.35 434.95 836.35 434.07 836.35 433.18 836.35 432.29 836.35 431.4 836.35 430.51 836.35 429.63 836.35 428.74 836.35 427.85 836.35 426.96 836.35 426.08 836.35 425.19 836.35 424.3 836.35 423.41 836.35 422.52 836.35 421.64 835.09 421.52 833.6 421.38 832.11 421.24 830.63 421.11 829.14 420.97 827.65 420.85 826.17 420.72 824.68 420.6 823.19 420.48 821.71 420.36 820.22 420.24 818.74 420.13 817.25 420.02 815.77 419.91 814.29 419.8 812.8 419.7 811.32 419.6 809.84 419.5 808.35 419.4 806.87 419.31 805.39 419.21 803.9 419.12 802.42 419.03 800.94 418.95 799.45 418.86 797.97 418.78 796.48 418.7 795 418.62 793.52 418.54 792.03 418.46 790.55 418.39 789.06 418.31 787.45 418.1 786.21 417.75 784.96 417.4 784.08 416.9 783.2 416.4 782.68 415.76 782.17 415.11 782.02 414.32 782.02 414.32 782.02 414.32 782 413.31 781.97 412.3 781.94 411.28 781.92 410.27 781.89 409.26 781.87 408.25 781.84 407.24 781.82 406.22 781.8 405.21 781.78 404.2 781.76 403.18 781.74 402.17 781.72 401.15 781.7 400.14 781.68 399.12 781.66 398.11 781.65 397.09 781.63 396.08 781.61 395.06 781.6 394.04 781.58 393.03 781.57 392.01 781.56 390.99 781.54 389.97 781.53 388.95 781.52 387.94 781.51 386.92 781.5 385.9 781.49 384.88 781.48 383.86 781.47 382.84 781.46 381.82 781.46 380.8 781.45 379.78 781.44 378.76 781.44 377.74 781.43 376.72 781.43 375.7 781.42 374.67 781.42 373.65 781.41 372.63 781.41 371.61 781.41 370.58 781.41 369.56 781.41 368.54 781.4 367.51 781.4 366.49 781.4 365.47 781.41 364.44 781.41 363.42 781.41 362.39 781.41 361.37 781.41 360.34 781.42 359.32 781.42 358.29 781.43 357.26 781.43 356.24 781.44 355.21 781.44 354.18 781.45 353.15 781.46 352.12 781.47 351.09 781.48 350.07 781.49 349.04 783.22 349.39 784.96 349.74 786.69 350.09 788.42 350.44 790.15 350.79 791.88 351.14 793.61 351.49 795.34 351.84 797.07 352.19 798.79 352.55 800.52 352.9 802.24 353.25 803.96 353.6 805.69 353.95 807.41 354.29 809.13 354.64 810.85 354.99 812.57 355.34 814.28 355.69 816 356.03 817.72 356.38 819.43 356.72 821.15 357.07 822.86 357.41 824.58 357.75 826.29 358.09 828.01 358.43 829.72 358.77 831.44 359.11 833.15 359.45 834.87 359.79 836.35 360.08 836.35 360.08 836.35 360.08M911.04 452.46Q912.22 452.55 913.39 452.65 914.57 452.72 915.75 452.75 916.93 452.78 918.11 452.81 919.29 452.83 920.47 452.86 921.65 452.89 922.83 452.92 924.01 452.94 925.18 452.99 926.36 453.04 927.54 453.09 928.72 453.14 929.9 453.18 931.08 453.23 932.26 453.28 933.44 453.33 934.61 453.41 935.79 453.51 936.97 453.6 938.14 453.7 939.32 453.8 940.5 453.89 941.67 453.99 942.85 454.08 944.03 454.18 945.2 454.27 946.38 454.36 947.56 454.45 948.74 454.54 949.91 454.63 951.09 454.72 952.27 454.81 953.44 454.9 954.62 455 955.8 455.1 956.97 455.2 958.15 455.29 959.33 455.39 960.51 455.49 961.68 455.59 962.86 455.68 964.04 455.78 965.21 455.87 966.39 455.96 967.57 456.06 968.75 456.15 969.93 456.24 971.1 456.34 972.28 456.43 973.46 456.52 974.64 456.61 975.82 456.7 977 456.79 978.18 456.88 979.36 456.97 980.54 457.07 981.73 457.16 983.67 457.33 986.42 457.59 989.18 457.86 991.93 458.12 992.61 457.48 993.31 456.77 993.87 456.05 994.28 455.33 994.55 454.59 994.71 453.85 994.79 453.1 994.8 452.35 994.76 451.6 994.68 450.85 994.57 450.09 994.43 449.34 994.27 448.58 994.09 447.82 993.9 447.07 993.69 446.31 993.47 445.56 993.23 444.8 992.99 444.05 992.73 443.3 992.47 442.55 992.2 441.8 991.93 441.05 991.64 440.3 991.35 439.56 991.05 438.81 990.75 438.07 990.44 437.33 990.13 436.59 989.81 435.85 989.48 435.11 989.15 434.37 987.75 434.19 986.34 434 984.94 433.82 983.53 433.64 982.12 433.46 980.7 433.28 979.29 433.11 977.88 432.93 976.48 432.76 975.07 432.59 973.67 432.41 972.27 432.24 970.87 432.07 969.47 431.91 968.08 431.74 966.7 431.57 965.32 431.41 963.94 431.24 962.56 431.08 961.2 430.92 959.83 430.75 958.47 430.59 957.12 430.43 955.77 430.27 954.42 430.11 953.08 429.96 951.74 429.8 950.41 429.64 949.08 429.49 947.76 429.33 946.44 429.18 945.13 429.02 943.82 428.87 942.51 428.72 941.21 428.57 939.91 428.42 938.62 428.27 937.33 428.12 936.04 427.97 934.76 427.82 933.48 427.68 932.2 427.53 930.93 427.38 929.66 427.24 928.39 427.09 927.13 426.95 925.87 426.8 924.61 426.66 923.36 426.51 922.11 426.37 920.86 426.23 919.62 426.09 918.37 425.95 917.13 425.8 915.9 425.66 914.66 425.52 913.43 425.38 912.2 425.24 910.98 425.1 909.75 424.96 908.53 424.82 907.31 424.68 906.09 424.54 904.88 424.4 903.68 424.14 902.76 423.77 901.83 423.39 901.17 422.89 900.52 422.39 900.12 421.78 899.73 421.16 899.6 420.42 899.6 420.42 899.6 420.42 899.56 419.6 899.51 418.79 899.46 417.97 899.4 417.15 899.35 416.33 899.29 415.52 899.23 414.7 899.17 413.88 899.11 413.06 899.04 412.24 898.98 411.42 898.91 410.6 898.84 409.78 898.77 408.95 898.69 408.13 898.62 407.31 899.92 407.55 901.22 407.78 902.53 408.01 903.84 408.25 905.15 408.48 906.46 408.72 907.78 408.95 909.1 409.18 910.43 409.42 911.75 409.65 913.08 409.88 914.42 410.11 915.75 410.35 917.09 410.58 918.44 410.81 919.78 411.05 921.13 411.28 922.49 411.51 923.84 411.74 925.2 411.98 926.57 412.21 927.93 412.44 929.3 412.67 930.68 412.91 932.05 413.14 933.43 413.37 934.82 413.61 936.21 413.84 937.6 414.07 939 414.3 940.4 414.54 941.8 414.77 943.21 415 944.62 415.23 946.03 415.47 947.45 415.7 948.88 415.93 950.3 416.16 951.73 416.4 953.17 416.63 954.61 416.86 956.05 417.09 957.49 417.33 958.94 417.56 960.39 417.79 961.85 418.02 963.31 418.25 964.77 418.49 966.23 418.72 967.7 418.95 969.17 419.18 970.64 419.42 972.11 419.65 973.59 419.88 975.06 420.12 976.54 420.35 978.01 420.59 979.49 420.82 980.96 421.06 982.43 421.3 983.9 421.54 985.37 421.79 986.83 422.04 988.1 422.26 987.79 421.74 987.48 421.22 987.17 420.7 986.85 420.19 986.52 419.68 986.19 419.17 985.87 418.66 985.54 418.15 985.21 417.64 984.89 417.13 984.56 416.62 984.23 416.11 983.91 415.6 983.57 415.1 983.23 414.6 982.89 414.1 982.55 413.6 982.2 413.1 981.86 412.6 981.52 412.1 981.18 411.6 980.84 411.1 980.5 410.6 980.15 410.1 979.79 409.61 979.43 409.12 979.08 408.63 978.72 408.15 978.36 407.66 978.01 407.17 977.65 406.68 977.29 406.19 976.94 405.7 976.57 405.22 976.2 404.74 975.83 404.26 975.46 403.78 975.09 403.3 974.72 402.82 974.35 402.34 973.97 401.87 973.6 401.39 973.23 400.91 972.86 400.43 972.47 399.97 972.09 399.5 971.7 399.03 971.32 398.56 970.94 398.09 970.55 397.62 970.17 397.16 969.78 396.69 969.4 396.22 969.01 395.75 968.62 395.3 968.22 394.84 967.83 394.38 967.43 393.92 967.04 393.46 966.64 393 966.24 392.54 965.85 392.09 965.45 391.63 965.06 391.17 964.62 390.69 964.21 390.23 963.8 389.77 963.42 389.32 962.99 388.86 962.53 388.4 962.07 387.94 961.61 387.48 961.14 387.02 960.67 386.58 960.19 386.13 959.71 385.69 958.74 384.82 957.74 383.96 956.74 383.1 955.72 382.26 954.7 381.42 953.65 380.6 952.61 379.78 951.54 378.98 950.49 378.16 949.41 377.37 948.35 376.56 947.27 375.76 946.21 374.95 945.14 374.14 944.09 373.32 943.04 372.49 942.02 371.65 941 370.8 940.01 369.92 939.02 369.04 938.06 368.13 937.11 367.22 936.18 366.29 935.24 365.36 934.32 364.41 933.4 363.48 933.4 363.48 933.4 363.48 932.23 362.29 931 361.07 930.38 360.46 929.75 359.84 929.12 359.21 928.47 358.59 927.82 357.96 927.15 357.33 926.49 356.69 925.8 356.06 925.11 355.42 924.4 354.78 923.68 354.14 922.95 353.5 922.22 352.86 921.46 352.21 920.7 351.56 919.93 350.91 919.14 350.27 918.34 349.63 917.53 348.98 916.7 348.33 915.87 347.69 915.02 347.03 914.16 346.39 913.28 345.75 912.4 345.1 911.49 344.46 910.59 343.81 909.66 343.16 909.66 343.16 909.66 343.16 909.04 342.75 908.42 342.33 907.81 341.91 907.19 341.49 906.57 341.08 905.95 340.66 905.33 340.24 904.71 339.82 904.09 339.42 903.46 339.01 902.84 338.6 902.22 338.19 901.59 337.78 900.97 337.37 900.34 336.97 899.72 336.56 899.09 336.16 898.46 335.76 897.83 335.36 897.2 334.96 896.57 334.56 895.94 334.16 895.3 333.77 894.67 333.37 894.04 332.97 893.4 332.59 892.77 332.2 892.13 331.81 891.49 331.42 890.86 331.03 890.22 330.64 889.58 330.25 888.8 329.78 888.03 329.33 887.26 328.89 886.51 328.47 885.76 328.04 885.03 327.64 884.3 327.24 883.58 326.87 882.87 326.5 882.17 326.16 881.47 325.81 880.79 325.49 880.11 325.16 879.46 324.86 878.79 324.57 878.15 324.3 877.5 324.03 876.88 323.78 876.25 323.53 875.64 323.31 874.42 322.87 873.28 322.52 872.13 322.17 871.06 321.92 869.98 321.68 868.97 321.52 867.96 321.38 867.02 321.32 866.08 321.27 865.2 321.32 864.32 321.37 863.51 321.52 862.69 321.67 861.93 321.92 861.17 322.17 860.47 322.52 859.77 322.88 859.13 323.33 858.48 323.79 857.9 324.34 857.32 324.89 856.8 325.54 856.8 325.54 856.8 325.54 856.18 326.39 855.63 327.39 855.08 328.39 854.6 329.54 854.36 330.12 854.14 330.73 853.92 331.34 853.72 331.99 853.51 332.64 853.33 333.32 853.15 334.01 852.98 334.73 852.82 335.45 852.67 336.21 852.53 336.97 852.41 337.76 852.28 338.55 852.18 339.38 852.08 340.21 851.99 341.07 851.91 341.94 851.85 342.84 851.78 343.74 851.74 344.67 851.7 345.61 851.68 346.58 851.66 347.55 851.66 348.55 851.66 348.55 851.66 348.55 851.66 349.49 851.66 350.43 851.66 351.36 851.66 352.3 851.66 353.24 851.66 354.17 851.66 355.11 851.66 356.04 851.66 356.98 851.66 357.92 851.66 358.85 851.66 359.79 851.66 360.72 851.66 361.66 851.66 362.6 851.66 363.53 851.66 364.47 851.66 365.41 851.66 366.34 851.66 367.28 851.66 368.21 851.66 369.15 851.66 370.09 851.66 371.02 851.66 371.96 851.66 372.89 851.66 373.83 851.66 374.77 851.66 375.7 851.66 376.64 851.66 377.58 851.66 378.51 851.66 379.45 851.66 380.38 851.66 381.32 851.66 382.26 851.66 383.19 851.66 384.13 851.66 385.06 851.66 386 851.66 386.94 851.66 387.87 851.66 388.81 851.66 389.75 851.66 390.68 851.66 391.62 851.66 392.55 851.66 393.49 851.66 394.43 851.66 395.36 851.66 396.3 851.66 397.23 851.66 398.17 851.66 399.11 851.66 400.04 851.66 400.98 851.66 401.92 851.66 402.85 851.66 403.79 851.66 404.72 851.66 405.66 851.66 406.6 851.66 407.53 851.66 408.47 851.66 409.43 851.69 410.38 851.71 411.32 851.77 412.25 851.82 413.17 851.9 414.08 851.97 414.99 852.08 415.88 852.18 416.77 852.31 417.65 852.44 418.52 852.59 419.37 852.73 420.23 852.89 421.06 853.02 421.9 853.14 422.71 853.23 423.53 853.33 424.32 853.44 425.12 853.57 425.9 853.7 426.67 853.86 427.43 854.02 428.18 854.22 428.92 854.41 429.65 854.64 430.36 854.88 431.08 855.14 431.77 855.68 433.14 856.36 434.43 857.05 435.71 857.89 436.9 858.74 438.08 859.75 439.16 860.78 440.22 861.96 441.19 863.16 442.15 864.52 443.01 865.89 443.86 867.41 444.63 868.95 445.38 870.62 446.05 871.47 446.38 872.34 446.68 873.22 446.99 874.13 447.27 875.05 447.55 876 447.81 876.94 448.07 877.92 448.31 877.92 448.31 877.92 448.31 879.63 448.74 881.42 449.12 883.22 449.5 885.11 449.85 886.06 450.03 887.03 450.21 887.99 450.39 888.98 450.56 889.97 450.74 890.99 450.9 892 451.07 893.03 451.22 894.07 451.38 895.13 451.5 896.19 451.59 897.27 451.66 898.35 451.72 899.46 451.78 900.56 451.83 901.69 451.88 902.82 451.92 903.97 451.95 905.11 452.03 906.28 452.12 907.45 452.19 908.64 452.28 909.83 452.36 911.04 452.46 911.04 452.46 911.04 452.46 911.04 452.46 911.04 452.46M895.77 382.91Q895.68 382.23 895.58 381.55 895.49 380.87 895.4 380.19 895.3 379.51 895.21 378.83 895.11 378.15 895.02 377.47 894.92 376.79 894.82 376.1 894.73 375.42 894.63 374.74 894.53 374.06 894.43 373.38 894.33 372.7 894.23 372.02 894.13 371.34 894.04 370.65 893.94 369.97 893.84 369.29 893.73 368.61 893.63 367.93 893.53 367.24 893.43 366.56 893.33 365.88 893.23 365.19 893.13 364.51 893.02 363.83 892.92 363.14 892.82 362.46 892.72 361.77 892.61 361.09 892.63 360.35 892.85 359.87 893.07 359.39 893.49 359.18 893.91 358.97 894.52 359.02 895.14 359.07 895.95 359.38 895.95 359.38 895.95 359.38 897.21 359.95 898.47 360.53 899.72 361.11 900.98 361.69 902.24 362.27 903.49 362.85 904.75 363.43 906 364.02 907.26 364.6 908.52 365.19 909.77 365.78 911.03 366.37 912.29 366.96 913.55 367.56 914.81 368.15 916.07 368.74 917 369.27 917.78 369.84 918.56 370.41 919.18 371.01 919.81 371.61 920.28 372.24 920.74 372.88 921.05 373.54 921.05 373.54 921.05 373.54 921.27 374.14 921.49 374.72 921.71 375.31 921.93 375.9 922.15 376.49 922.37 377.08 922.59 377.67 922.81 378.25 923.03 378.84 923.25 379.43 923.47 380.02 923.69 380.6 923.91 381.19 924.13 381.77 924.35 382.36 924.57 382.95 924.78 383.53 925 384.12 925.22 384.7 925.43 385.29 925.65 385.87 925.86 386.46 926.08 387.05 926.29 387.63 926.5 388.22 926.71 388.8 926.92 389.39 927.13 389.97 927.34 390.56 927.55 391.15 927.76 391.73 927.97 392.32 926.94 392.03 925.91 391.74 924.88 391.44 923.86 391.15 922.84 390.86 921.81 390.57 920.8 390.27 919.78 389.98 918.76 389.68 917.75 389.39 916.74 389.09 915.73 388.8 914.72 388.5 913.71 388.21 912.7 387.91 911.7 387.62 910.69 387.32 909.69 387.03 908.69 386.73 907.69 386.44 906.69 386.14 905.69 385.85 904.7 385.55 903.7 385.26 902.71 384.96 901.71 384.67 900.72 384.37 899.73 384.08 898.74 383.79 897.75 383.49 896.76 383.2 895.77 382.91 895.77 382.91 895.77 382.91"></path><path fill="#c88087" d="M181.36 595.06Q183.29 594.66 185.21 594.26 187.14 593.87 189.06 593.47 190.98 593.07 192.9 592.68 194.83 592.29 196.75 591.89 198.67 591.5 200.59 591.11 202.51 590.72 204.43 590.33 206.35 589.94 208.27 589.55 210.19 589.16 212.11 588.78 214.03 588.39 215.95 588.01 217.87 587.62 219.79 587.24 221.7 586.86 223.62 586.48 225.53 586.1 227.45 585.72 229.36 585.34 231.28 584.96 233.19 584.58 235.11 584.21 237.02 583.83 238.93 583.46 240.84 583.09 242.75 582.72 245.16 582.46 247.08 582.55 248.99 582.65 250.42 583.1 251.84 583.55 252.77 584.36 253.7 585.17 254.14 586.34 254.14 586.34 254.14 586.34 254.47 587.84 254.8 589.35 255.13 590.85 255.46 592.35 255.79 593.86 256.12 595.36 256.44 596.86 256.77 598.36 257.1 599.87 257.43 601.37 257.75 602.87 258.08 604.37 258.41 605.87 258.73 607.37 259.06 608.87 259.39 610.37 259.71 611.87 260.04 613.36 260.37 614.86 260.7 616.36 261.02 617.85 261.35 619.35 261.68 620.84 262.01 622.34 262.34 623.83 262.67 625.32 263 626.82 263.33 628.31 263.66 629.8 263.99 631.29 264.32 632.79 264.65 634.28 264.98 635.77 265.31 637.26 265.64 638.75 265.97 640.24 266.31 641.72 266.64 643.21 266.97 644.7 267.31 646.19 267.64 647.68 267.98 649.17 268.31 650.65 268.65 652.14 268.98 653.63 269.32 655.11 269.66 656.6 270 658.09 270.33 659.57 270.67 661.06 271.01 662.55 271.35 664.03 271.69 665.52 272.03 667.01 272.37 668.49 272.71 669.98 273.06 671.47 273.4 672.96 273.74 674.44 274.09 675.93 274.43 677.42 274.78 678.9 275.13 680.39 275.47 681.88 275.51 683.14 275.16 684.07 274.81 684.99 274.07 685.58 273.33 686.17 272.21 686.43 271.09 686.69 269.57 686.61 269.57 686.61 269.57 686.61 268.22 686.46 266.87 686.31 265.53 686.16 264.18 686 262.83 685.85 261.49 685.69 260.14 685.53 258.79 685.38 257.45 685.22 256.1 685.06 254.76 684.9 253.41 684.73 252.07 684.57 250.73 684.41 249.38 684.24 248.04 684.08 246.7 683.91 245.35 683.75 244.01 683.58 242.66 683.41 241.32 683.25 239.98 683.08 238.63 682.91 237.29 682.74 235.94 682.58 234.6 682.41 233.25 682.24 231.91 682.07 230.56 681.9 229.21 681.73 227.87 681.56 226.52 681.4 224.76 681.03 223.28 680.52 221.79 680.02 220.57 679.37 219.34 678.74 218.38 677.96 217.42 677.18 216.73 676.26 216.73 676.26 216.73 676.26 216.03 675.12 215.32 673.98 214.62 672.85 213.92 671.71 213.21 670.58 212.51 669.44 211.8 668.31 211.1 667.18 210.39 666.05 209.69 664.92 208.99 663.79 208.28 662.65 207.58 661.52 206.87 660.39 206.17 659.26 205.47 658.13 204.76 656.99 204.06 655.86 203.36 654.73 202.66 653.59 201.96 652.46 201.27 651.32 200.57 650.18 199.87 649.04 199.18 647.9 198.49 646.76 197.79 645.62 197.1 644.47 196.41 643.32 195.73 642.18 195.04 641.03 194.35 639.87 193.67 638.72 192.99 637.57 192.31 636.41 191.63 635.25 190.95 634.09 190.27 632.93 189.6 631.76 188.93 630.6 188.25 629.43 187.59 628.25 186.92 627.08 186.25 625.9 185.59 624.73 184.93 623.54 184.27 622.36 183.61 621.17 182.95 619.99 182.3 618.79 181.65 617.6 181 616.4 180.35 615.2 179.71 614 179.06 612.79 178.42 611.59 177.78 610.37 177.15 609.16 176.51 607.94 175.88 606.72 175.25 605.49 174.62 604.27 174 603.03 173.38 601.8 173.21 600.66 173.63 599.67 174.05 598.68 175.04 597.84 176.05 596.99 177.63 596.3 179.21 595.6 181.36 595.06 181.36 595.06 181.36 595.06 181.36 595.06 181.36 595.06M74.69 626.61Q75.58 627.45 76.47 628.3 77.29 629.06 78.05 629.75 78.8 630.44 79.56 631.13 80.32 631.82 81.11 632.54 82.03 633.34 82.96 634.15 83.88 634.96 84.81 635.77 85.74 636.58 86.54 637.26 87.31 637.91 88.08 638.56 88.86 639.22 89.63 639.87 90.49 640.58 91.45 641.35 92.41 642.13 93.37 642.9 94.33 643.68 95.26 644.44 96.05 645.05 96.84 645.66 97.62 646.28 98.41 646.89 99.19 647.5 100.13 648.21 101.12 648.95 102.1 649.7 103.09 650.44 104.08 651.18 105.07 651.92 106.08 652.64 107.08 653.37 108.09 654.1 109.09 654.82 110.08 655.54 110.89 656.11 111.69 656.67 112.49 657.23 113.29 657.79 114.09 658.35 115.04 658.99 116.07 659.69 117.1 660.38 118.13 661.08 119.15 661.77 120.15 662.44 121.07 663.04 121.99 663.64 122.92 664.25 123.84 664.85 124.76 665.45 125.69 666.04 126.62 666.63 127.54 667.21 128.47 667.8 129.4 668.39 130.41 669.01 131.47 669.66 132.53 670.31 133.65 670.99 134.79 671.66 135.89 672.29 136.93 672.85 137.97 673.41 139.04 673.95 140.11 674.5 141.2 675.02 142.29 675.54 143.41 676.05 144.53 676.55 145.67 677.05 146.83 677.55 148.04 678.05 149.28 678.57 150.56 679.09 151.84 679.6 153.13 680.1 154.4 680.59 155.67 681.06 156.93 681.52 158.19 681.97 159.44 682.41 160.71 682.85 161.97 683.28 163.25 683.72 164.53 684.16 165.83 684.59 168.41 685.49 171.07 686.39 173.7 687.34 176.36 688.3 178.98 689.33 181.6 690.38 184.16 691.5 186.72 692.66 189.21 693.89 191.7 695.15 194.13 696.47 196.59 697.81 199.02 699.21 201.51 700.61 202.75 701.32 204.02 702.03 205.28 702.75 206.56 703.46 207.83 704.18 209.12 704.89 210.4 705.6 211.68 706.29 211.68 706.29 211.68 706.29 213.88 707.49 216.13 708.67 218.42 709.87 220.83 711.06 222.03 711.65 223.22 712.23 224.38 712.79 225.53 713.34 226.66 713.88 227.82 714.41 229.01 714.96 230.29 715.52 231.6 716.09 232.94 716.65 234.27 717.22 235.54 717.74 236.72 718.23 237.91 718.71 239.09 719.18 240.3 719.65 241.68 720.17 243.11 720.69 244.54 721.21 245.98 721.69 247.29 722.09 248.52 722.48 249.76 722.86 251.02 723.27 251.02 723.27 251.02 723.27 252.56 723.77 254.26 724.3 255.96 724.83 257.66 725.37 259.37 725.89 261.07 726.41 262.78 726.93 264.46 727.44 265.91 727.87 267.35 728.29 268.79 728.72 270.34 729.17 272.05 729.65 273.75 730.14 275.46 730.63 276.97 731.05 278.58 731.5 280.16 731.96 281.84 732.44 283.65 732.93 285.44 733.36 287.18 733.74 288.91 734.12 290.6 734.45 292.28 734.77 293.91 735.06 295.54 735.33 297.1 735.55 298.65 735.77 300.06 735.92 301.39 736.05 302.67 736.13 303.98 736.22 305.3 736.28 306.66 736.34 307.98 736.35 309.29 736.36 310.52 736.32 311.74 736.28 312.91 736.18 314.09 736.09 315.24 735.95 316.41 735.81 317.55 735.63 318.7 735.45 319.81 735.22 320.93 734.99 322.01 734.71 323.08 734.42 324.12 734.09 325.16 733.75 326.15 733.36 327.15 732.97 328.11 732.53 329.07 732.07 329.99 731.57 330.92 731.06 331.8 730.5 332.7 729.94 333.56 729.32 335.3 728.06 336.9 726.6 338.53 725.1 340.01 723.42 341.53 721.71 342.87 719.82 344.23 717.91 345.42 715.83 346.02 714.79 346.57 713.7 347.12 712.61 347.62 711.48 347.62 711.48 347.62 711.48 348.37 709.74 349.02 707.9 349.68 706.06 350.25 704.12 350.82 702.18 351.3 700.15 351.78 698.12 352.16 695.99 352.55 693.87 352.85 691.65 353.14 689.43 353.34 687.12 353.54 684.81 353.57 682.42 353.52 681.22 353.49 680 353.47 678.78 353.47 677.54 353.47 677.54 353.47 677.54 353.47 675.99 353.47 674.44 353.47 672.89 353.47 671.33 353.47 669.78 353.46 668.23 353.46 666.68 353.46 665.13 353.46 663.58 353.46 662.02 353.46 660.47 353.46 658.92 353.46 657.37 353.46 655.82 353.46 654.27 353.46 652.71 353.46 651.16 353.46 649.61 353.46 648.06 353.46 646.51 353.46 644.96 353.46 643.4 353.46 641.85 353.46 640.3 353.46 638.75 353.46 637.2 353.46 635.65 353.46 634.09 353.46 632.54 353.46 630.99 353.46 629.44 353.46 627.89 353.46 626.33 353.46 624.78 353.46 623.23 353.46 621.68 353.46 620.13 353.46 618.58 353.46 617.02 353.46 615.47 353.46 613.92 353.46 612.37 353.45 610.82 353.45 609.26 353.45 607.71 353.45 606.16 353.45 604.61 353.45 603.06 353.45 601.5 353.45 599.95 353.45 598.4 353.45 596.85 353.45 595.3 353.45 593.74 353.45 592.19 353.45 590.64 353.45 589.09 353.45 587.54 353.45 585.99 353.45 584.43 353.45 582.88 353.45 581.33 353.45 579.78 353.45 578.23 353.45 576.58 353.5 574.98 353.56 573.37 353.54 571.81 353.43 570.26 353.27 568.75 353.11 567.25 352.89 565.79 352.67 564.34 352.4 562.93 352.12 561.52 351.79 560.15 351.46 558.79 351.07 557.48 350.68 556.16 350.23 554.9 349.78 553.63 349.27 552.42 348.76 551.2 348.19 550.03 347.62 548.87 346.99 547.75 346.35 546.64 345.66 545.58 344.97 544.52 344.21 543.51 343.46 542.5 342.64 541.54 340.99 539.64 339.09 537.95 337.16 536.29 334.98 534.84 332.76 533.41 330.28 532.22 327.75 531.06 324.95 530.12 322.11 529.23 318.99 528.56 315.84 527.92 312.43 527.5 308.99 527.1 305.29 526.92 303.43 526.84 301.51 526.81 299.59 526.78 297.61 526.8 295.63 526.83 293.58 526.91 291.53 526.99 289.43 527.12 289.43 527.12 289.43 527.12 285.87 527.32 282.11 527.65 278.34 527.99 274.38 528.44 272.4 528.66 270.37 528.9 268.33 529.15 266.25 529.42 264.17 529.69 262.03 530 259.9 530.31 257.73 530.66 255.55 531.03 253.33 531.43 251.11 531.83 248.85 532.26 246.57 532.67 244.25 533.11 241.93 533.55 239.56 534.02 237.2 534.5 234.78 535.02 232.37 535.54 229.91 536.08 227.45 536.63 224.94 537.2 222.44 537.77 219.89 538.41 219.89 538.41 219.89 538.41 217.09 539.26 214.29 540.1 211.49 540.94 208.66 541.69 205.83 542.43 203 543.16 200.16 543.87 197.31 544.56 194.47 545.25 191.62 545.92 188.76 546.57 185.91 547.22 183.05 547.86 180.21 548.56 177.36 549.26 174.52 549.95 171.35 550.71 168.27 551.46 165.19 552.22 162.23 553.13 159.3 554.13 156.46 555.13 153.58 556.04 150.76 556.85 147.95 557.65 145.21 558.45 142.47 559.21 139.81 559.99 137.15 560.77 134.59 561.57 132.03 562.39 129.56 563.23 127.1 564.11 124.74 565.03 122.38 565.96 120.1 566.89 117.83 567.82 115.64 568.74 113.44 569.65 111.34 570.55 109.22 571.45 107.2 572.35 105.17 573.25 103.24 574.15 101.3 575.06 99.46 575.97 97.61 576.89 95.86 577.82 94.11 578.75 92.44 579.69 90.79 580.63 89.22 581.58 87.65 582.52 86.17 583.47 84.7 584.41 83.32 585.36 81.94 586.3 80.66 587.24 79.38 588.18 78.2 589.12 75.85 590.98 73.9 592.83 71.98 594.65 70.46 596.45 68.97 598.22 67.88 599.97 66.82 601.68 66.14 603.38 65.8 604.21 65.55 605.03 65.31 605.84 65.15 606.64 65.15 606.64 65.15 606.64 64.96 607.83 64.95 609.04 64.96 610.24 65.19 611.49 65.44 612.76 65.88 614.04 66.29 615.28 66.81 616.45 67.32 617.59 67.99 618.74 68.74 619.94 69.77 621.26 70.81 622.58 72.03 623.93 72.65 624.6 73.32 625.26 73.98 625.93 74.69 626.61 74.69 626.61 74.69 626.61 74.69 626.61 74.69 626.61M359.94 749.36Q369.59 750.89 379.53 752.38 389.44 753.74 398.37 754.87 407.95 755.99 417.88 757.03 427.77 757.96 437.63 758.78 446.62 759.44 456.53 760.07 466.41 760.58 476.26 761 486.07 761.31 495.85 761.52 505.6 761.64 515.33 761.65 525.05 761.57 534.82 761.39 544.63 761.11 554.47 760.73 564.34 760.24 574.25 759.65 583.48 759.01 593.11 758.23 603 757.34 612.91 756.32 622.76 755.22 631.63 754.12 641.34 752.82 651.28 751.37 661.22 749.81 668.62 748.31 669.34 747.5 669.31 746.4 669.3 745.28 669.29 744.17 669.29 743.05 669.28 741.94 669.28 740.82 669.28 739.7 669.28 738.59 669.28 737.47 669.28 736.36 669.28 735.24 669.28 734.13 669.28 733.01 669.28 731.89 669.28 730.78 669.28 729.66 669.28 728.55 669.28 727.43 669.28 726.32 669.28 725.2 669.28 724.09 669.28 722.97 669.28 721.86 669.28 720.74 669.28 719.63 669.28 718.51 669.28 717.4 669.28 716.28 669.28 715.17 669.28 714.05 669.28 712.94 669.28 711.82 669.28 710.71 669.28 709.59 669.28 708.48 669.28 707.36 669.28 706.25 669.28 705.13 669.28 704.02 669.28 702.9 669.28 701.79 669.28 700.67 669.28 699.56 669.28 698.44 669.28 697.33 669.28 696.21 669.28 695.1 669.28 693.98 669.28 692.87 669.28 691.75 669.28 690.64 669.28 689.52 669.28 688.41 669.28 687.3 669.28 686.18 669.28 685.07 669.28 683.95 669.28 682.84 669.28 681.72 669.28 680.61 669.28 679.49 669.28 678.38 669.28 677.26 669.28 676.15 669.28 675.03 669.28 673.92 669.28 672.8 669.28 671.69 669.28 670.57 669.28 669.46 669.28 668.35 669.28 667.23 669.28 666.12 669.28 665 669.28 663.89 669.28 662.77 669.28 661.66 669.28 660.54 669.28 659.43 669.28 658.31 669.28 657.2 669.28 656.08 669.28 654.97 669.28 653.86 669.28 652.74 669.28 651.63 669.28 650.51 669.28 649.4 669.28 648.28 669.28 647.17 669.28 646.05 669.28 644.94 669.28 643.82 669.28 642.71 669.28 641.59 669.28 640.48 669.28 639.37 669.28 638.25 669.28 637.14 669.28 636.02 669.28 634.91 669.28 633.79 669.28 632.68 669.28 631.56 669.28 630.45 669.28 629.33 669.28 628.22 669.28 627.1 669.28 625.99 669.28 624.88 669.28 623.76 669.28 622.65 669.28 621.53 669.28 620.42 669.28 619.3 669.28 618.19 669.28 617.07 669.28 615.96 669.28 614.84 669.28 613.73 669.28 612.62 669.28 611.5 669.28 610.39 669.28 609.27 669.28 608.16 669.28 607.04 669.28 605.93 669.28 604.81 669.28 603.7 669.28 602.58 669.28 601.47 669.28 600.35 669.28 599.24 669.28 598.13 669.28 597.01 669.28 595.9 669.28 594.78 669.28 593.67 669.28 592.55 669.28 591.44 669.28 590.32 669.28 589.21 669.28 588.09 669.28 586.98 669.28 585.87 669.28 584.75 669.28 583.64 669.28 582.52 669.28 581.41 669.28 580.29 669.28 579.18 669.28 578.06 669.28 576.95 669.28 575.83 669.28 574.72 669.28 573.61 669.28 572.49 669.28 571.38 669.28 570.26 669.28 569.15 669.28 568.03 669.28 566.92 669.28 565.8 669.28 564.69 669.28 563.57 669.28 562.46 669.28 561.34 669.28 560.23 669.28 559.12 669.28 558 669.28 556.89 669.28 555.77 669.28 554.66 669.28 553.54 669.28 552.43 669.28 551.31 669.28 550.2 669.28 549.08 669.28 547.97 669.28 546.85 669.28 545.74 669.28 544.63 669.28 543.51 669.28 542.4 669.28 541.28 669.28 540.17 669.28 539.05 669.28 537.94 669.28 536.82 669.28 535.71 669.28 534.59 669.28 533.48 669.28 532.36 669.28 531.25 669.28 530.14 669.28 529.02 669.28 527.91 669.28 526.79 669.28 525.68 669.28 524.56 669.28 523.45 669.28 522.33 669.28 521.22 669.28 520.1 669.31 518.99 669.33 517.87 669.36 516.76 669.38 515.65 669.41 514.53 669.43 513.42 669.46 512.3 669.48 511.19 669.51 510.07 669.53 508.96 669.56 507.84 669.58 506.73 669.61 505.61 669.63 504.5 669.66 503.38 669.68 502.27 669.71 501.15 669.73 500.04 669.76 498.92 669.78 497.81 669.81 496.69 669.83 495.58 669.86 494.47 669.88 493.35 669.91 492.24 669.93 491.12 669.96 490.01 669.98 488.89 670.01 487.78 670.03 486.66 670.06 485.55 670.08 484.43 670.11 483.32 670.13 482.2 670.16 481.09 670.18 479.97 670.21 478.86 670.23 477.74 670.26 476.63 670.28 475.51 670.31 474.4 670.33 473.28 670.36 472.17 670.39 471.05 670.41 469.94 670.44 468.82 670.47 467.71 670.49 466.59 670.53 465.48 670.57 464.37 670.71 463.31 661.97 464.05 652.24 464.16 642.53 464.98 632.84 465.93 623.14 466.9 613.46 467.94 603.72 468.12 594.02 468.92 584.33 469.89 574.65 470.95 565.07 472.7 555.41 473.95 545.73 474.94 536.04 476 526.35 476.99 516.82 478.93 507.15 480.09 497.46 481.09 487.93 483.06 478.26 484.2 468.61 485.48 459.05 487.28 449.43 488.73 439.92 490.79 430.34 492.48 420.75 494.09 411.23 496.16 401.63 497.69 392.06 499.46 382.59 501.71 373.09 503.83 363.43 505.05 363.43 506 363.43 506.95 363.43 507.9 363.43 508.85 363.43 509.81 363.43 510.76 363.43 511.72 363.43 512.67 363.43 513.63 363.43 514.58 363.43 515.54 363.43 516.49 363.43 517.44 363.43 518.4 363.43 519.35 363.43 520.31 363.43 521.26 363.43 522.22 363.43 523.17 363.43 524.13 363.43 525.08 363.43 526.04 363.43 526.99 363.43 527.95 363.43 528.9 363.43 529.86 363.43 530.81 363.43 531.76 363.43 532.72 363.43 533.67 363.43 534.63 363.43 535.58 363.43 536.54 363.43 537.49 363.43 538.45 363.43 539.4 363.43 540.36 363.43 541.31 363.43 542.27 363.43 543.22 363.43 544.17 363.43 545.13 363.43 546.08 363.43 547.04 363.43 547.99 363.43 548.95 363.43 549.9 363.43 550.86 363.43 551.81 363.43 552.77 363.43 553.72 363.43 554.68 363.43 555.63 363.43 556.58 363.43 557.54 363.43 558.49 363.43 559.45 363.43 560.4 363.43 561.36 363.43 562.31 363.43 563.27 363.43 564.22 363.43 565.18 363.43 566.13 363.43 567.08 363.43 568.04 363.43 568.99 363.43 569.95 363.43 570.9 363.43 571.86 363.43 572.81 363.43 573.77 363.43 574.72 363.43 575.68 363.43 576.63 363.43 577.58 363.43 578.54 363.43 579.49 363.43 580.45 363.43 581.4 363.43 582.36 363.43 583.31 363.43 584.27 363.43 585.22 363.43 586.18 363.43 587.13 363.43 588.08 363.43 589.04 363.43 589.99 363.43 590.95 363.43 591.9 363.43 592.86 363.43 593.81 363.43 594.77 363.43 595.72 363.43 596.68 363.43 597.63 363.43 598.58 363.43 599.54 363.43 600.49 363.43 601.45 363.43 602.4 363.43 603.36 363.43 604.31 363.43 605.27 363.43 606.22 363.43 607.18 363.43 608.13 363.43 609.08 363.43 610.04 363.43 610.99 363.43 611.95 363.43 612.9 363.43 613.86 363.43 614.81 363.43 615.77 363.43 616.72 363.43 617.68 363.43 618.63 363.43 619.58 363.43 620.54 363.43 621.49 363.43 622.45 363.43 623.4 363.43 624.36 363.43 625.31 363.43 626.27 363.43 627.22 363.43 628.18 363.43 629.13 363.43 630.08 363.43 631.04 363.43 631.99 363.43 632.95 363.43 633.9 363.43 634.86 363.43 635.81 363.43 636.77 363.43 637.72 363.43 638.68 363.43 639.63 363.43 640.58 363.43 641.54 363.43 642.49 363.43 643.45 363.43 644.4 363.43 645.36 363.43 646.31 363.43 647.27 363.43 648.22 363.43 649.18 363.43 650.13 363.43 651.08 363.43 652.04 363.43 652.99 363.43 653.95 363.43 654.9 363.43 655.86 363.43 656.81 363.43 657.77 363.43 658.72 363.43 659.68 363.43 660.63 363.43 661.58 363.43 662.54 363.43 663.49 363.43 664.45 363.43 665.4 363.43 666.36 363.43 667.31 363.43 668.27 363.43 669.22 363.43 670.18 363.43 671.13 363.43 672.08 363.43 673.04 363.43 673.99 363.43 674.95 363.43 675.9 363.43 676.86 363.43 677.81 363.43 678.77 363.43 679.72 363.43 680.68 363.43 681.63 363.43 682.59 363.43 683.54 363.43 684.49 363.43 685.45 363.43 686.4 363.43 687.36 363.43 688.31 363.43 689.27 363.43 690.22 363.43 691.18 363.43 692.13 363.43 693.09 363.43 694.04 363.43 695 363.43 695.95 363.43 696.9 363.43 697.86 363.43 698.81 363.43 699.77 363.41 700.72 363.33 701.68 363.26 702.63 363.18 703.59 363.11 704.54 363.03 705.5 362.96 706.45 362.88 707.41 362.81 708.36 362.73 709.32 362.66 710.27 362.58 711.22 362.51 712.18 362.43 713.13 362.36 714.09 362.28 715.04 362.21 716 362.13 716.95 362.06 717.91 361.98 718.86 361.91 719.82 361.83 720.77 361.76 721.73 361.68 722.68 361.61 723.64 361.53 724.59 361.46 725.55 361.38 726.5 361.31 727.46 361.23 728.41 361.16 729.37 361.08 730.32 361.01 731.28 360.93 732.23 360.86 733.19 360.78 734.14 360.71 735.1 360.63 736.05 360.56 737.01 360.48 737.97 360.41 738.92 360.33 739.88 360.26 740.83 360.18 741.79 360.11 742.74 360.03 743.7 359.96 744.66 359.88 745.61 359.81 746.57 359.74 747.53 359.66 748.49 359.94 749.36 359.94 749.36 359.94 749.36M992.15 468.18Q988.77 467.85 985.24 467.58 981.71 467.31 978.18 467.04 974.66 466.77 971.13 466.49 967.61 466.21 964.09 465.93 960.57 465.65 957.05 465.36 953.54 465.07 950.02 464.79 946.5 464.52 942.98 464.25 939.46 463.96 935.95 463.67 932.43 463.44 928.91 463.3 925.38 463.16 921.86 463.05 918.34 462.97 914.81 462.88 911.3 462.63 907.78 462.35 904.26 462.1 900.73 462.1 897.21 462.1 893.68 462.02 890.17 461.78 886.65 461.55 883.13 461.37 879.61 461.25 879.68 462.4 879.76 463.57 879.83 464.73 879.91 465.89 879.99 467.05 880.07 468.21 880.16 469.37 880.24 470.53 880.32 471.69 880.41 472.84 880.49 474 880.57 475.15 880.66 476.31 880.74 477.46 880.82 478.61 880.9 479.75 880.98 480.9 881.05 482.04 881.13 483.18 881.2 484.32 881.27 485.46 881.34 486.59 881.4 487.72 881.46 488.85 881.52 489.98 881.58 491.11 881.63 492.23 881.68 493.35 881.72 494.46 881.77 495.58 881.8 496.69 881.84 497.8 881.87 498.91 881.89 500.01 881.91 501.12 881.93 502.22 881.94 503.32 881.95 504.41 881.96 505.51 881.96 506.6 881.95 507.69 881.94 508.77 881.93 509.86 881.91 510.94 881.89 512.02 881.86 513.1 881.83 514.18 881.8 515.25 881.76 516.32 881.71 517.4 881.66 518.46 881.61 519.53 881.55 520.6 881.49 521.66 881.42 522.72 881.35 523.78 881.27 524.84 881.19 525.89 881.11 526.95 881.02 528 880.92 529.05 880.82 530.1 880.72 531.14 880.62 532.19 877.93 532.18 875.25 532.17 872.58 532.16 869.92 532.16 867.26 532.16 864.6 532.16 861.95 532.16 859.31 532.16 856.67 532.17 854.04 532.17 851.41 532.18 848.79 532.2 846.17 532.21 843.56 532.23 840.96 532.25 838.35 532.27 835.76 532.29 833.16 532.31 830.57 532.34 827.99 532.37 825.41 532.4 822.83 532.43 820.26 532.47 817.69 532.5 815.13 532.54 812.57 532.58 810.01 532.63 807.46 532.67 804.91 532.72 802.36 532.77 799.82 532.82 797.28 532.87 794.69 532.93 792.17 533.01 789.65 533.09 787.19 533.19 784.73 533.29 782.33 533.41 779.93 533.54 777.59 533.68 775.26 533.83 772.98 533.99 770.71 534.16 768.5 534.35 766.29 534.54 764.14 534.75 761.99 534.96 759.9 535.19 757.81 535.42 755.78 535.67 753.75 535.93 751.78 536.2 747.85 536.75 744.15 537.38 740.46 538.02 737 538.73 733.55 539.45 730.33 540.24 727.11 541.04 724.13 541.92 721.15 542.79 718.39 543.75 715.65 544.71 713.13 545.74 710.62 546.77 708.33 547.88 706.05 548.99 704 550.18 701.94 551.36 700.12 552.62 698.29 553.88 696.69 555.21 695.1 556.55 693.73 557.95 693.73 557.95 693.73 557.95 692.12 559.61 690.72 561.4 689.32 563.21 688.12 565.15 686.92 567.1 685.93 569.19 685.43 570.23 684.98 571.31 684.54 572.4 684.14 573.51 683.75 574.63 683.4 575.78 683.05 576.94 682.76 578.13 682.46 579.32 682.22 580.54 681.97 581.77 681.77 583.03 681.58 584.29 681.43 585.58 681.28 586.88 681.19 588.21 681.09 589.54 681.04 590.9 680.99 592.27 680.99 593.67 680.99 593.67 680.99 593.67 680.99 595.24 680.99 596.82 680.99 598.39 680.99 599.97 680.99 601.54 680.99 603.11 680.99 604.69 680.99 606.26 680.99 607.84 680.99 609.41 680.99 610.99 680.99 612.56 680.99 614.14 680.99 615.71 680.99 617.29 680.99 618.86 680.99 620.43 680.99 622.01 680.99 623.58 680.99 625.16 680.99 626.73 680.99 628.31 680.98 629.88 680.98 631.46 680.98 633.03 680.98 634.61 680.98 636.18 680.98 637.75 680.98 639.33 680.98 640.9 680.98 642.48 680.98 644.05 680.98 645.63 680.98 647.2 680.98 648.78 680.98 650.35 680.98 651.93 680.98 653.5 680.98 655.07 680.98 656.65 680.98 658.22 680.98 659.8 680.98 661.37 680.98 662.95 680.98 664.52 680.98 666.1 680.98 667.67 680.98 669.24 680.98 670.82 680.98 672.39 680.98 673.97 680.98 675.54 680.98 677.12 680.98 678.69 680.98 680.27 680.98 681.84 680.98 683.42 680.98 684.99 680.98 686.57 680.98 688.14 680.99 689.71 681.03 691.29 681.07 692.86 681.11 694.44 681.15 695.68 681.22 696.89 681.3 698.1 681.42 699.27 681.54 700.43 681.71 701.57 681.88 702.7 682.08 703.79 682.29 704.89 682.54 705.94 682.79 707 683.09 708.02 683.67 710.06 684.43 711.94 685.18 713.83 686.1 715.57 687.01 717.3 688.09 718.88 689.16 720.46 690.39 721.89 691.6 723.32 692.96 724.59 694.31 725.86 695.8 726.98 697.27 728.09 698.88 729.05 700.46 730 702.19 730.8 703.89 731.59 705.73 732.22 707.54 732.84 709.49 733.3 711.42 733.76 713.48 734.06 715.53 734.36 717.74 734.48 719.93 734.61 722.23 734.58 722.23 734.58 722.23 734.58 723.96 734.55 725.82 734.44 727.74 734.3 729.79 734.08 731.85 733.85 734.01 733.53 736.17 733.21 738.43 732.8 740.69 732.39 742.92 731.93 744.92 731.52 746.99 731.04 749.33 730.47 751.88 729.72 754.33 728.97 756.56 728.31 756.56 728.31 756.56 728.31 758.14 727.85 759.85 727.34 761.73 726.77 763.6 726.2 765.47 725.63 767.34 725.05 769.22 724.46 771.09 723.87 772.53 723.41 773.86 723.01 775.19 722.61 776.5 722.17 779.56 721.03 782.49 719.81 785.1 718.67 787.55 717.46 790.19 716.17 792.76 714.77 795.25 713.4 797.55 711.95 799.88 710.49 802.11 708.94 804.35 707.38 806.45 705.74 808.57 704.1 810.56 702.38 812.56 700.66 814.43 698.88 816.31 697.1 818.07 695.26 819.83 693.43 821.48 691.54 823.14 689.67 824.69 687.74 826.25 685.83 827.7 683.87 829.18 681.94 830.54 679.95 831.23 678.97 831.89 677.98 832.56 676.99 833.2 675.99 833.85 674.99 834.46 673.99 835.09 672.99 835.68 671.98 835.68 671.98 835.68 671.98 836.68 670.77 836.96 670.1 836.96 670.1 836.96 670.1 836.81 670.91 836.65 671.73 836.5 672.55 836.34 673.37 836.19 674.19 836.04 675.01 835.89 675.84 835.74 676.67 835.59 677.5 835.45 678.34 835.31 679.18 835.16 680.02 835.02 680.86 834.89 681.71 834.75 682.56 834.62 683.41 834.49 684.27 834.36 685.13 834.23 685.99 834.11 686.86 833.99 687.73 833.88 688.61 833.76 689.49 833.65 690.37 833.54 691.26 833.44 692.15 833.33 693.04 833.23 693.94 833.13 694.84 833.03 695.74 832.92 696.65 832.81 697.56 834.96 696.63 837.15 695.67 839.35 694.7 841.53 693.72 843.69 692.74 845.86 691.75 848.04 690.74 850.24 689.71 852.41 688.68 854.56 687.65 856.71 686.61 858.87 685.55 861.04 684.48 863.19 683.4 865.3 682.34 867.37 681.28 869.44 680.21 871.51 679.13 873.61 678.03 875.74 676.89 877.87 675.75 879.99 674.6 882.07 673.47 884.13 672.34 886.19 671.21 888.27 670.07 890.39 668.92 892.54 667.77 894.72 666.66 896.93 665.62 899.24 664.72 901.45 664.09 902.2 663.61 902.94 663.12 903.69 662.63 904.51 662.08 905.34 661.52 906.17 660.96 906.99 660.41 907.82 659.85 908.65 659.29 909.41 658.78 910.05 658.33 910.7 657.88 911.34 657.43 911.99 656.98 912.63 656.53 913.28 656.08 914.04 655.54 914.85 654.95 915.66 654.37 916.47 653.79 917.28 653.2 918.09 652.62 918.9 652.04 919.69 651.44 920.49 650.84 921.28 650.25 922.08 649.65 922.87 649.06 923.67 648.46 924.4 647.91 925.03 647.41 925.67 646.92 926.3 646.43 926.93 645.94 927.56 645.45 928.2 644.96 928.93 644.37 929.71 643.75 930.48 643.12 931.25 642.5 932.03 641.88 932.8 641.25 933.56 640.64 934.18 640.12 934.81 639.6 935.43 639.07 936.05 638.55 936.68 638.03 937.3 637.51 937.97 636.93 938.72 636.28 939.47 635.63 940.22 634.98 940.96 634.33 941.71 633.68 942.46 633.03 943.19 632.37 943.92 631.71 944.65 631.05 945.37 630.38 946.1 629.72 946.83 629.06 947.55 628.4 948.15 627.83 948.75 627.26 949.34 626.69 949.94 626.13 950.54 625.56 951.14 624.99 951.78 624.37 952.48 623.68 953.18 622.98 953.87 622.29 954.57 621.6 955.26 620.91 955.96 620.22 956.57 619.6 957.15 619 957.73 618.39 958.31 617.79 958.89 617.19 959.47 616.59 960.06 615.97 960.72 615.25 961.38 614.53 962.04 613.81 962.7 613.09 963.36 612.37 964.02 611.66 964.63 610.97 965.19 610.34 965.74 609.7 966.3 609.06 966.85 608.43 967.41 607.79 967.97 607.15 968.57 606.43 969.19 605.68 969.81 604.93 970.43 604.19 971.05 603.44 971.67 602.69 972.28 601.94 972.88 601.18 973.47 600.42 974.07 599.66 974.66 598.9 975.25 598.14 975.85 597.39 976.43 596.62 976.99 595.85 977.56 595.08 978.13 594.31 978.69 593.53 979.26 592.76 979.83 591.99 980.29 591.34 980.72 590.71 981.15 590.09 981.58 589.47 982.01 588.84 982.45 588.22 982.89 587.57 983.41 586.77 983.94 585.97 984.46 585.16 984.98 584.36 985.5 583.56 986.03 582.75 986.54 581.95 987.03 581.13 987.52 580.32 988.01 579.5 988.5 578.69 989 577.88 989.49 577.06 989.95 576.24 990.42 575.41 990.88 574.59 991.34 573.76 991.8 572.94 992.26 572.11 992.71 571.29 993.14 570.45 993.57 569.62 994 568.78 994.43 567.95 994.86 567.11 995.28 566.28 995.7 565.44 996.09 564.59 996.49 563.75 996.88 562.9 997.28 562.06 997.67 561.21 998.06 560.37 998.43 559.51 998.79 558.66 999.15 557.81 999.51 556.95 999.87 556.1 1000.23 555.24 1000.59 554.39 1000.91 553.52 1001.24 552.66 1001.57 551.8 1001.89 550.94 1002.22 550.07 1002.54 549.21 1002.85 548.34 1003.14 547.47 1003.43 546.6 1003.72 545.73 1004.01 544.86 1004.3 543.99 1004.59 543.12 1004.81 542.36 1005.03 541.62 1005.24 540.88 1005.46 540.14 1005.67 539.4 1005.89 538.67 1006.1 537.9 1006.33 536.99 1006.56 536.08 1006.79 535.17 1007.01 534.26 1007.24 533.36 1007.47 532.45 1007.67 531.54 1007.86 530.62 1008.05 529.71 1008.23 528.79 1008.42 527.88 1008.61 526.96 1008.79 526.05 1008.95 525.13 1009.09 524.21 1009.24 523.29 1009.39 522.37 1009.53 521.45 1009.68 520.53 1009.82 519.6 1009.92 518.68 1010.03 517.75 1010.13 516.83 1010.24 515.9 1010.34 514.98 1010.45 514.05 1010.54 513.07 1010.6 512.04 1010.67 511.01 1010.74 509.98 1010.81 508.95 1010.88 507.92 1010.95 506.9 1010.97 506.03 1010.99 505.19 1011.01 504.35 1011.03 503.52 1011.04 502.68 1011.06 501.84 1011.07 501 1011.06 500.16 1011.04 499.32 1011.03 498.49 1011.01 497.65 1010.99 496.81 1010.98 495.97 1010.93 495.03 1010.87 494.01 1010.8 492.99 1010.74 491.97 1010.67 490.95 1010.61 489.93 1010.54 488.91 1010.44 487.97 1010.34 487.05 1010.24 486.12 1010.13 485.19 1010.03 484.27 1009.92 483.34 1009.81 482.41 1009.66 481.49 1009.51 480.57 1009.36 479.65 1009.21 478.73 1009.06 477.8 1008.9 476.88 1007.38 475.76 1004.82 474.48 1002.25 473.21 999.68 471.93 997.11 470.66 994.55 469.39 992.15 468.18 992.15 468.18 992.15 468.18M873.02 573.19Q872.65 574.59 872.27 575.99 871.89 577.38 871.5 578.78 871.1 580.17 870.7 581.55 870.29 582.94 869.88 584.32 869.46 585.7 869.03 587.07 868.6 588.45 868.16 589.82 867.72 591.18 867.27 592.55 866.82 593.91 866.36 595.27 865.9 596.63 865.43 597.98 864.96 599.33 864.48 600.68 864 602.03 863.51 603.38 863.02 604.72 862.53 606.06 862.02 607.4 861.52 608.73 861.01 610.06 860.5 611.39 859.98 612.72 859.46 614.05 858.94 615.37 858.41 616.7 857.88 618.02 857.34 619.34 856.8 620.65 856.26 621.97 855.71 623.28 855.16 624.6 854.61 625.91 854.06 627.22 853.5 628.53 852.94 629.83 852.38 631.14 851.81 632.45 851.24 633.75 850.67 635.05 850.1 636.36 849.53 637.66 848.95 638.97 848.37 640.27 847.8 641.57 847.22 642.88 846.63 644.18 846.05 645.49 845.47 646.79 844.89 648.1 844.3 649.41 843.72 650.72 843.14 652.04 842.55 653.35 841.97 654.67 841.39 655.99 840.81 657.31 840.23 658.64 839.45 659.79 838.4 660.79 837.36 661.8 836.04 662.67 834.72 663.55 833.13 664.28 831.54 665.01 829.68 665.6 829.68 665.6 829.68 665.6 828.08 666.04 826.48 666.47 824.88 666.91 823.28 667.35 821.68 667.78 820.08 668.22 818.48 668.65 816.89 669.08 815.29 669.51 813.7 669.94 812.1 670.37 810.51 670.79 808.91 671.22 807.31 671.64 805.72 672.07 804.12 672.49 802.53 672.91 800.93 673.33 799.34 673.74 797.74 674.16 796.15 674.57 794.55 674.99 792.96 675.4 791.36 675.81 789.76 676.21 788.16 676.62 786.57 677.02 784.97 677.42 783.37 677.82 781.77 678.22 780.17 678.62 778.56 679.01 776.62 679.31 775.16 679.25 773.71 679.19 772.75 678.77 771.79 678.35 771.33 677.59 770.86 676.82 770.9 675.7 770.9 675.7 770.9 675.7 771.14 674.23 771.38 672.76 771.62 671.3 771.86 669.83 772.1 668.37 772.34 666.91 772.58 665.45 772.82 664 773.06 662.54 773.3 661.09 773.54 659.63 773.78 658.18 774.02 656.73 774.26 655.28 774.49 653.83 774.73 652.38 774.97 650.94 775.2 649.49 775.44 648.04 775.67 646.6 775.91 645.15 776.14 643.71 776.37 642.27 776.6 640.82 776.84 639.38 777.07 637.94 777.3 636.5 777.52 635.05 777.75 633.61 777.98 632.17 778.2 630.73 778.43 629.29 778.65 627.84 778.87 626.4 779.09 624.96 779.31 623.51 779.53 622.07 779.75 620.63 779.97 619.18 780.18 617.74 780.39 616.3 780.61 614.85 780.82 613.41 781.02 611.96 781.23 610.51 781.44 609.07 781.64 607.62 781.84 606.17 782.05 604.72 782.25 603.28 782.44 601.83 782.64 600.37 782.83 598.92 783.03 597.47 783.22 596.02 783.41 594.57 783.59 593.11 783.78 591.66 783.96 590.2 784.14 588.74 784.32 587.29 784.5 585.83 784.67 584.37 784.85 582.91 785.37 581.64 786.33 580.63 787.3 579.62 788.71 578.87 790.12 578.12 791.98 577.62 793.84 577.13 796.15 576.9 796.15 576.9 796.15 576.9 798.5 576.76 800.85 576.62 803.2 576.48 805.55 576.35 807.91 576.21 810.27 576.08 812.64 575.94 815.01 575.81 817.38 575.69 819.75 575.56 822.13 575.43 824.51 575.31 826.9 575.18 829.29 575.06 831.68 574.94 834.08 574.83 836.48 574.71 838.89 574.6 841.3 574.48 843.71 574.37 846.13 574.26 848.55 574.16 850.98 574.05 853.41 573.95 855.84 573.85 858.28 573.75 860.73 573.65 863.18 573.55 865.63 573.46 868.09 573.37 870.56 573.28 873.02 573.19 873.02 573.19 873.02 573.19"></path></svg>