<svg id="svg_container" xmlns="http://www.w3.org/2000/svg" data-media-id="W7Od0wIgYCk" class="mw-100 mh-100 edit-svg" style="visibility: visible" viewBox="9.260000228881836 235.17498779296875 1001.8599853515625 526.4349975585938" width="1006.8599853515625px" height="531.4349975585938px">
        <defs>
            <linearGradient id="sampleGradient" gradientTransform="rotate(1)" x1="0%" y1="50%" x2="100%" y2="50%" gradientUnits="userSpaceOnUse">
                <stop offset="0%" id="first_color" stop-color="#6b6fff"></stop>
                <stop offset="100%" id="second_color" stop-color="#bc91c1"></stop>
            </linearGradient>
        </defs>
    <path fill="#be816c" d="M210.11 525.72Q212.27 525.18 214.27 524.68 216.28 524.16 218.12 523.68 219.96 523.19 221.64 522.72 223.32 522.25 224.84 521.8 227.89 520.91 230.29 520.12 232.69 519.32 234.17 518.71 234.17 518.71 234.17 518.71 234.17 520.51 234.17 522.3 234.17 524.1 234.17 525.9 234.17 527.7 234.17 529.49 234.17 531.29 234.17 533.09 234.17 534.88 234.17 536.68 234.17 538.48 234.17 540.28 234.17 542.07 234.17 543.87 234.17 545.67 234.17 547.46 234.17 549.26 234.18 551.06 234.18 552.85 234.18 554.65 234.18 556.45 234.18 558.24 234.18 560.04 234.18 561.84 234.18 563.63 234.18 565.43 234.18 567.23 234.18 569.02 234.18 570.82 234.18 572.62 234.18 574.41 234.18 576.21 232.88 576.89 231.32 577.56 229.79 578.19 228.26 578.75 226.75 579.29 225.23 579.79 223.72 580.27 222.2 580.72 220.68 581.17 219.14 581.6 217.61 582.03 216.07 582.44 214.52 582.85 212.96 583.27 211.39 583.69 209.81 584.09 208.23 584.5 206.63 584.88 205.03 585.27 203.4 585.64 201.78 586 200.14 586.35 198.49 586.7 196.83 587.04 195.17 587.42 193.49 587.78 191.81 588.14 190.11 588.48 188.4 588.75 186.68 589.07 184.97 589.41 183.23 589.79 183.23 589.79 183.23 589.79 181.83 590.09 180.45 590.4 179.07 590.71 177.7 590.97 176.33 591.19 174.96 591.35 173.6 591.5 172.26 591.64 169.57 591.92 166.96 592.11 164.35 592.3 161.81 592.42 159.27 592.54 156.81 592.59 154.34 592.63 151.95 592.61 149.56 592.58 147.24 592.48 144.92 592.39 142.67 592.23 140.42 592.09 138.25 591.88 136.07 591.69 133.97 591.44 131.86 591.19 129.82 590.88 127.77 590.57 125.79 590.19 123.8 589.81 121.88 589.35 119.95 588.9 118.08 588.37 116.2 587.85 114.39 587.26 112.56 586.68 110.79 586.03 109.01 585.39 107.29 584.67 105.56 583.96 103.89 583.18 102.2 582.41 100.57 581.56 98.93 580.73 97.35 579.83 95.75 578.93 94.21 577.97 92.67 577.02 91.18 576.01 89.69 575 88.26 573.92 86.83 572.86 85.46 571.73 84.1 570.6 82.8 569.4 81.51 568.22 80.29 566.96 79.08 565.7 77.95 564.37 76.82 563.05 75.78 561.64 74.75 560.24 73.81 558.76 72.88 557.27 72.05 555.71 71.63 554.92 71.25 554.12 70.86 553.31 70.5 552.48 70.15 551.65 69.82 550.8 69.49 549.95 69.2 549.08 69.2 549.08 69.2 549.08 68.78 547.84 68.37 546.6 67.97 545.36 67.58 544.12 67.19 542.87 66.81 541.63 66.44 540.38 66.08 539.13 65.72 537.87 65.37 536.62 65.03 535.36 64.7 534.1 64.37 532.83 64.06 531.57 63.75 530.3 63.45 529.03 63.15 527.76 62.87 526.49 62.59 525.21 62.33 523.93 62.07 522.65 61.81 521.37 61.57 520.09 61.34 518.8 61.11 517.52 60.89 516.23 60.68 514.94 60.48 513.65 60.29 512.35 60.11 511.06 59.93 509.76 59.77 508.46 59.61 507.16 59.46 505.86 59.32 504.56 59.19 503.26 59.07 501.95 58.96 500.65 58.85 499.34 58.76 498.04 58.67 496.73 58.59 495.42 58.52 494.11 58.46 492.8 58.41 491.49 58.37 490.18 58.33 488.87 58.31 487.56 58.29 486.24 58.28 484.93 58.28 483.62 58.29 482.31 58.31 480.99 58.34 479.68 58.38 478.37 58.42 477.05 58.47 475.74 58.53 474.43 58.6 473.12 58.68 471.81 58.77 470.49 58.87 469.18 58.97 467.87 59.08 466.56 56.31 467.54 53.53 468.52 50.75 469.5 47.95 470.48 45.15 471.45 42.34 472.43 39.53 473.4 36.72 474.37 33.9 475.33 31.07 476.3 28.25 477.26 25.44 478.23 22.62 479.19 19.82 480.15 17.03 481.11 14.26 482.07 14.45 480.79 14.65 479.51 14.85 478.22 15.05 476.94 15.28 475.66 15.54 474.39 15.79 473.12 16.04 471.84 16.3 470.57 16.6 469.31 16.91 468.05 17.21 466.79 17.52 465.52 17.84 464.27 18.2 463.02 18.56 461.77 18.92 460.52 19.28 459.28 19.66 458.04 20.07 456.8 20.48 455.57 20.9 454.34 21.31 453.11 21.75 451.89 22.21 450.68 22.67 449.46 23.13 448.25 23.59 447.03 24.1 445.84 24.6 444.64 25.11 443.44 25.61 442.25 28.24 441.13 30.88 440.02 33.52 438.9 36.15 437.77 38.78 436.63 41.4 435.49 44.01 434.33 46.61 433.17 49.2 432 51.78 430.82 54.35 429.63 56.9 428.43 59.44 427.22 61.98 426.01 64.5 424.79 67.01 423.57 67.37 422.17 67.75 420.76 68.12 419.36 68.5 417.95 68.88 416.54 69.26 415.12 69.64 413.71 70.03 412.29 70.41 410.86 70.79 409.43 71.17 408 71.54 406.55 71.91 405.1 72.27 403.64 72.63 402.17 72.98 400.69 73.31 399.19 73.63 397.68 73.94 396.16 74.23 394.61 74.5 393.05 74.75 391.46 74.98 389.85 75.18 388.21 75.35 386.54 75.48 384.85 75.59 383.12 75.67 381.37 75.71 379.58 75.72 377.78 75.72 375.95 75.71 374.13 77.04 372.89 78.38 371.66 79.73 370.44 81.08 369.22 82.45 368.02 83.82 366.82 85.19 365.62 86.58 364.44 87.97 363.27 89.37 362.1 90.77 360.94 92.19 359.8 93.6 358.65 95.02 357.51 96.46 356.39 97.89 355.28 99.33 354.16 100.78 353.06 102.24 351.97 103.7 350.88 105.16 349.79 106.63 348.73 108.11 347.66 109.59 346.59 111.08 345.55 112.57 344.51 114.06 343.47 115.56 342.44 117.07 341.42 118.59 340.4 120.1 339.39 121.62 338.4 123.15 337.4 124.67 336.41 126.21 335.43 127.75 334.46 129.29 333.49 130.84 332.53 132.39 331.59 133.95 330.64 135.5 329.69 137.07 328.77 138.64 327.84 140.2 326.91 141.78 326 143.36 325.1 144.94 324.19 146.52 323.3 148.12 322.42 149.71 321.53 151.3 320.65 152.91 319.79 154.51 318.93 156.11 318.07 157.72 317.22 159.34 316.37 160.95 315.53 162.57 314.69 164.19 313.87 165.82 313.05 167.44 312.23 169.07 311.42 170.71 310.62 172.34 309.82 172.45 311.72 172.56 313.64 172.68 315.56 172.8 317.5 172.93 319.43 173.05 321.37 173.18 323.3 173.3 325.22 173.42 327.14 173.54 329.06 173.65 330.96 173.76 332.86 173.87 334.75 173.97 336.63 174.07 338.5 174.16 340.37 174.25 342.23 174.34 344.08 174.42 345.93 174.5 347.77 174.58 349.6 174.65 351.43 174.72 353.25 174.78 355.07 174.84 356.88 174.9 358.68 174.95 360.48 175 362.28 175.05 364.07 175.09 365.86 175.13 367.64 175.17 369.42 176.81 368.67 178.46 367.93 180.11 367.19 181.76 366.45 183.41 365.71 185.06 364.97 186.72 364.24 188.37 363.51 190.03 362.78 191.69 362.06 193.35 361.34 195.02 360.62 196.68 359.9 198.35 359.19 200.02 358.48 201.69 357.77 203.37 357.06 205.04 356.36 206.72 355.66 208.4 354.96 210.09 354.26 211.77 353.57 213.46 352.88 215.15 352.19 216.84 351.5 218.53 350.82 220.23 350.13 221.93 349.45 223.63 348.78 225.34 348.1 227.05 347.43 228.76 346.76 228.82 348.51 228.86 350.25 228.88 352 228.89 353.74 228.9 355.49 228.91 357.24 228.92 358.98 228.92 360.73 228.93 362.47 228.93 364.22 228.93 365.96 228.93 367.71 228.94 369.45 228.94 371.2 228.94 372.94 228.94 374.68 228.95 376.43 228.95 378.17 228.95 379.91 228.95 381.66 228.95 383.4 228.95 385.14 228.95 386.89 228.96 388.63 228.96 390.37 228.96 392.12 228.96 393.86 228.96 395.6 228.96 397.34 228.96 399.09 228.97 400.83 228.97 402.57 227.31 403.18 225.65 403.79 223.99 404.4 222.32 405.01 220.66 405.62 219 406.24 217.33 406.85 215.67 407.47 214 408.08 212.34 408.7 210.67 409.32 209 409.94 207.33 410.56 205.67 411.19 204 411.81 202.32 412.43 200.65 413.06 198.98 413.69 197.31 414.32 195.63 414.95 193.96 415.58 192.28 416.21 190.6 416.84 188.93 417.48 187.25 418.11 185.57 418.75 183.89 419.38 182.21 420.02 180.52 420.66 178.84 421.3 177.15 421.95 175.47 422.59 175.47 424 175.48 425.41 175.49 426.82 175.49 428.23 175.5 429.63 175.51 431.04 175.52 432.45 175.53 433.85 175.54 435.26 175.55 436.67 175.57 438.07 175.58 439.48 175.6 440.88 175.61 442.28 175.63 443.69 175.65 445.09 175.67 446.49 175.69 447.9 175.71 449.3 175.73 450.7 175.75 452.1 175.78 453.5 175.8 454.9 175.83 456.3 175.85 457.7 175.88 459.1 175.91 460.5 175.94 461.9 175.98 463.3 176.01 464.7 176.04 466.1 176.08 467.49 176.12 468.89 176.16 470.29 176.19 471.69 176.23 473.08 176.28 474.48 176.32 475.88 176.36 477.27 176.41 478.67 176.46 480.06 176.5 481.46 176.55 482.85 176.6 484.25 176.65 485.64 176.71 487.04 176.76 488.43 176.82 489.82 176.87 491.22 176.93 492.61 176.99 494 177.05 495.39 177.11 496.79 177.17 498.18 177.23 499.57 177.3 500.96 177.36 502.35 177.43 503.74 177.5 505.13 177.57 506.52 177.64 507.91 177.71 509.3 177.78 510.69 177.86 512.08 177.97 514.12 178.24 515.9 178.5 517.67 178.92 519.17 179.34 520.68 179.91 521.91 180.48 523.15 181.2 524.11 181.92 525.08 182.88 525.83 183.84 526.58 185.03 527.11 186.23 527.65 187.67 527.96 189.1 528.27 190.78 528.37 192.45 528.46 194.49 528.35 196.54 528.24 198.95 527.91 201.37 527.58 204.16 527.04 205.55 526.76 207.04 526.43 208.53 526.1 210.11 525.72 210.11 525.72 210.11 525.72 210.11 525.72 210.11 525.72M327.27 258.58Q330.38 257.93 333.43 257.4 336.47 256.88 339.43 256.47 342.4 256.06 345.28 255.77 348.17 255.48 350.97 255.31 353.78 255.14 356.51 255.07 359.24 255.02 361.88 255.07 364.53 255.13 367.09 255.29 369.66 255.46 372.14 255.72 374.62 255.99 376.96 256.35 379.31 256.71 381.51 257.14 383.71 257.58 385.77 258.09 387.83 258.6 389.74 259.18 391.66 259.75 393.43 260.39 395.19 261.03 396.82 261.73 398.44 262.43 399.92 263.2 401.4 263.96 402.73 264.8 404.07 265.63 405.23 266.53 406.38 267.42 407.36 268.37 408.34 269.32 409.14 270.33 409.95 271.34 410.57 272.42 411.2 273.49 411.65 274.63 412.1 275.77 412.38 276.98 412.66 278.18 412.71 279.46 412.47 280.8 412.4 282.13 412.4 282.13 412.4 282.13 412.33 283.5 412.43 284.79 412.26 286.14 411.86 287.48 411.46 288.83 410.89 290.17 410.32 291.51 409.59 292.84 408.86 294.17 407.97 295.49 407.08 296.81 406.02 298.13 404.97 299.44 403.75 300.75 402.53 302.05 401.15 303.35 399.78 304.65 398.28 305.92 396.78 307.19 395.15 308.42 393.53 309.66 391.77 310.86 390.01 312.06 388.12 313.24 386.23 314.41 384.21 315.55 382.19 316.69 380.03 317.79 377.87 318.9 375.57 319.98 373.27 321.05 370.84 322.1 368.4 323.15 365.89 324.14 363.38 325.12 360.79 326.06 358.2 326.99 355.54 327.86 352.87 328.73 350.13 329.55 347.38 330.37 344.56 331.13 341.74 331.89 338.84 332.59 335.94 333.29 332.96 333.94 329.98 334.59 326.93 335.18 326.93 335.18 326.93 335.18 323.82 335.78 320.79 336.3 317.77 336.81 314.83 337.24 311.89 337.67 309.04 338.01 306.19 338.35 303.43 338.61 300.66 338.87 297.98 339.03 295.3 339.2 292.71 339.29 290.12 339.37 287.62 339.37 285.11 339.36 282.7 339.27 280.28 339.19 277.99 339.02 275.7 338.85 273.55 338.61 271.39 338.36 269.36 338.04 267.34 337.71 265.44 337.31 263.55 336.9 261.78 336.42 260.02 335.93 258.39 335.37 256.75 334.81 255.25 334.16 253.75 333.52 252.38 332.8 251.01 332.08 249.81 331.29 248.61 330.49 247.59 329.63 246.56 328.77 245.7 327.84 244.85 326.91 244.16 325.91 243.48 324.9 242.96 323.83 242.45 322.76 242.11 321.61 241.77 320.47 241.59 319.25 241.42 318.03 241.42 316.74 241.42 316.74 241.42 316.74 241.42 315.48 241.59 314.21 241.77 312.94 242.11 311.67 242.45 310.39 242.96 309.11 243.48 307.84 244.16 306.55 244.85 305.26 245.7 303.97 246.56 302.67 247.58 301.36 248.61 300.05 249.81 298.72 251 297.39 252.37 296.05 253.74 294.69 255.24 293.35 256.73 292 258.36 290.66 259.99 289.3 261.74 287.96 263.5 286.59 265.38 285.24 267.27 283.87 269.28 282.52 271.29 281.15 273.44 279.81 275.58 278.45 277.86 277.12 280.14 275.79 282.56 274.48 284.97 273.18 287.48 271.95 289.99 270.72 292.6 269.55 295.2 268.4 297.9 267.31 300.6 266.24 303.39 265.23 306.19 264.24 309.07 263.32 311.96 262.4 314.95 261.57 317.93 260.74 321.01 259.99 324.09 259.24 327.27 258.58 327.27 258.58 327.27 258.58 327.27 258.58 327.27 258.58M404.69 562.41Q402.31 562.67 399.93 562.9 397.55 563.12 395.16 563.34 392.78 563.56 390.4 563.78 388.01 563.99 385.63 564.21 383.25 564.43 380.86 564.64 378.48 564.86 376.1 565.08 373.71 565.29 371.33 565.51 368.95 565.73 366.56 565.95 364.18 566.16 361.8 566.4 359.42 566.63 357.03 566.86 354.66 567.13 352.3 567.52 349.94 567.92 347.57 568.31 345.21 568.66 342.83 568.91 340.45 569.17 338.07 569.42 335.69 569.66 333.31 569.86 330.92 570.07 328.54 570.27 326.16 570.51 323.78 570.77 321.4 571.03 319.02 571.29 316.66 571.63 314.29 572.01 311.93 572.4 309.57 572.79 307.19 573.05 304.81 573.25 302.42 573.45 300.04 573.65 297.66 573.94 295.29 574.26 292.92 574.58 290.55 574.91 288.18 575.22 285.81 575.52 283.43 575.83 281.06 576.13 278.68 576.36 276.3 576.57 273.91 576.78 271.53 576.99 269.16 577.34 266.8 577.71 264.43 578.07 262.07 578.44 259.7 578.8 257.34 579.16 254.97 579.53 252.61 579.89 252.57 578.45 252.53 576.82 252.48 575.2 252.43 573.57 252.37 571.94 252.32 570.3 252.26 568.66 252.2 567.02 252.14 565.38 252.07 563.74 252.01 562.1 251.95 560.46 251.89 558.81 251.83 557.17 251.77 555.52 251.71 553.88 251.64 552.23 251.58 550.59 251.52 548.94 251.46 547.29 251.4 545.65 251.33 544 251.27 542.35 251.21 540.71 251.15 539.06 251.09 537.41 251.03 535.76 250.97 534.12 250.91 532.47 250.84 530.82 250.79 529.17 250.73 527.53 250.67 525.88 250.61 524.23 250.56 522.58 250.52 520.93 250.49 519.28 250.47 517.64 250.46 515.99 250.45 514.34 250.44 512.69 250.44 511.04 250.43 509.39 250.43 507.74 250.43 506.09 250.43 504.45 250.43 502.8 250.42 501.15 250.42 499.5 250.42 497.85 250.42 496.2 250.42 494.55 250.42 492.9 250.42 491.25 250.42 489.6 250.42 487.95 250.42 486.3 250.42 484.65 250.41 483.01 250.41 481.36 250.41 479.71 250.41 478.06 250.41 476.41 250.41 474.76 250.41 473.11 250.41 471.46 250.41 469.81 250.41 468.16 250.41 466.51 250.41 464.86 250.41 463.21 250.41 461.56 250.41 459.91 250.41 458.26 250.41 456.61 250.41 454.96 250.41 453.31 250.41 451.66 250.41 450.01 250.41 448.36 250.41 446.71 250.41 445.06 250.41 443.41 250.41 441.76 250.41 440.11 250.41 438.46 250.41 436.81 250.41 435.16 250.41 433.51 250.41 431.86 250.41 430.22 250.41 428.57 250.41 426.92 250.41 425.27 250.41 423.62 250.41 421.97 250.41 420.31 250.41 418.66 250.41 417.01 250.41 415.36 250.41 413.71 250.41 412.06 250.41 410.41 250.41 408.76 250.41 407.11 250.41 405.46 250.41 403.81 250.41 402.16 250.41 400.51 250.41 398.86 250.41 397.21 250.41 395.56 250.41 393.91 250.41 392.26 250.41 390.61 250.41 388.96 250.41 387.31 250.42 385.66 250.42 384.01 250.42 382.36 250.42 380.71 250.42 379.06 250.42 377.41 250.42 375.76 250.42 374.1 250.42 372.45 250.42 370.8 250.42 369.15 252.84 368.7 255.25 368.24 257.67 367.78 260.09 367.32 262.5 366.87 264.92 366.41 267.34 365.95 269.75 365.5 272.17 365.04 274.59 364.58 277 364.12 279.42 363.67 281.83 363.21 284.25 362.75 286.66 362.29 289.08 361.84 291.49 361.38 293.91 360.92 296.32 360.47 298.73 360.01 301.15 359.56 303.56 359.1 305.97 358.65 308.39 358.19 310.8 357.74 313.21 357.28 315.62 356.83 318.03 356.38 320.45 355.92 322.86 355.47 325.27 355.02 327.68 354.57 330.09 354.12 332.5 353.67 334.9 353.22 337.31 352.77 339.72 352.32 342.13 351.88 344.54 351.43 346.94 350.98 349.35 350.54 351.76 350.09 354.16 349.65 356.57 349.2 358.97 348.76 361.38 348.32 363.78 347.88 366.19 347.43 368.59 346.99 370.99 346.55 373.4 346.12 375.8 345.68 378.2 345.24 380.6 344.8 383.01 344.37 385.41 343.93 387.81 343.5 390.21 343.06 392.61 342.63 395.02 342.19 397.42 341.76 399.82 341.33 402.22 340.9 404.62 340.47 404.62 342.21 404.62 343.94 404.62 345.68 404.62 347.42 404.62 349.15 404.62 350.89 404.62 352.63 404.62 354.36 404.62 356.1 404.62 357.83 404.62 359.57 404.62 361.31 404.62 363.04 404.62 364.78 404.62 366.52 404.62 368.25 404.62 369.99 404.62 371.72 404.62 373.46 404.62 375.2 404.62 376.93 404.62 378.67 404.62 380.41 404.62 382.14 404.62 383.88 404.62 385.61 404.62 387.35 404.62 389.09 404.62 390.82 404.62 392.56 404.62 394.29 404.62 396.03 404.62 397.76 404.62 399.5 404.62 401.24 404.62 402.97 404.62 404.71 404.62 406.44 404.62 408.18 404.62 409.92 404.62 411.65 404.62 413.39 404.62 415.12 404.62 416.86 404.62 418.59 404.62 420.33 404.62 422.07 404.62 423.8 404.62 425.54 404.62 427.27 404.62 429.01 404.62 430.74 404.62 432.48 404.62 434.22 404.62 435.95 404.62 437.69 404.62 439.42 404.62 441.16 404.62 442.89 404.62 444.63 404.62 446.37 404.62 448.1 404.62 449.84 404.62 451.57 404.62 453.31 404.62 455.04 404.62 456.78 404.62 458.51 404.63 460.25 404.63 461.99 404.63 463.72 404.63 465.46 404.63 467.19 404.63 468.93 404.63 470.66 404.63 472.4 404.63 474.14 404.63 475.87 404.63 477.61 404.63 479.34 404.63 481.08 404.63 482.81 404.63 484.55 404.63 486.28 404.63 488.02 404.63 489.75 404.63 491.49 404.64 493.23 404.64 494.96 404.64 496.7 404.64 498.43 404.64 500.17 404.64 501.9 404.64 503.64 404.64 505.37 404.64 507.11 404.64 508.85 404.64 510.58 404.64 512.32 404.64 514.05 404.65 515.79 404.65 517.52 404.65 519.26 404.65 520.99 404.65 522.73 404.65 524.46 404.65 526.2 404.65 527.93 404.65 529.67 404.65 531.4 404.65 533.14 404.65 534.87 404.66 536.61 404.66 538.34 404.66 540.08 404.66 541.81 404.66 543.55 404.66 545.28 404.66 547.01 404.66 548.75 404.66 550.48 404.66 552.22 404.67 553.95 404.67 555.68 404.67 557.42 404.67 559.15 404.68 560.88 404.69 562.41 404.69 562.41 404.69 562.41M544.51 244.8Q546.18 244.86 547.86 244.92 549.53 244.98 551.2 245.05 552.87 245.12 554.54 245.19 556.21 245.26 557.88 245.34 559.55 245.42 561.22 245.5 562.89 245.59 564.56 245.67 566.23 245.76 567.9 245.86 569.57 245.96 571.24 246.06 572.9 246.16 574.57 246.26 576.24 246.37 577.91 246.48 579.58 246.6 581.25 246.71 582.91 246.83 584.58 246.95 586.25 247.07 587.92 247.2 589.58 247.32 591.25 247.45 592.92 247.57 594.59 247.68 596.25 247.77 597.78 247.82 597.77 249.39 597.77 250.97 597.76 252.54 597.76 254.12 597.76 255.69 597.75 257.27 597.75 258.84 597.75 260.42 597.74 261.99 597.74 263.57 597.74 265.14 597.73 266.72 597.73 268.29 597.73 269.87 597.72 271.44 597.72 273.01 597.72 274.59 597.71 276.16 597.71 277.74 597.71 279.31 597.7 280.89 597.7 282.46 597.7 284.04 597.69 285.61 597.69 287.19 597.69 288.76 597.68 290.34 597.68 291.91 597.68 293.49 597.67 295.06 597.67 296.64 597.67 298.21 597.66 299.79 597.66 301.36 597.66 302.94 597.65 304.51 597.65 306.09 597.65 307.66 597.65 309.24 597.65 310.81 597.65 312.38 597.65 313.96 597.65 315.53 597.65 317.11 597.65 318.68 597.65 320.26 597.65 321.83 597.65 323.41 597.65 324.98 597.65 326.56 597.65 328.13 597.65 329.71 597.65 331.28 597.65 332.86 597.65 334.43 597.65 336.01 597.65 337.58 597.65 339.16 597.65 340.73 597.65 342.31 597.65 343.88 597.65 345.45 597.65 347.03 597.65 348.6 597.65 350.18 597.65 351.75 597.65 353.33 597.65 354.9 597.65 356.48 597.65 358.05 597.65 359.63 597.65 361.2 597.65 362.78 597.65 364.35 597.65 365.93 597.65 367.5 597.65 369.08 597.65 370.65 597.65 372.23 597.65 373.8 597.65 375.37 597.65 376.95 597.65 378.52 597.65 380.1 597.65 381.67 597.65 383.25 597.65 384.82 597.65 386.4 597.65 387.97 597.65 389.55 597.65 391.12 597.65 392.7 597.65 394.27 597.65 395.85 597.65 397.42 597.65 399 597.65 400.57 597.65 402.15 597.65 403.72 597.65 405.29 597.65 406.87 597.65 408.44 597.65 410.02 597.65 411.59 597.65 413.17 597.65 414.74 597.65 416.32 597.65 417.89 597.65 419.47 597.65 421.04 597.65 422.62 597.65 424.19 597.65 425.77 597.65 427.34 597.65 428.91 597.65 430.49 597.65 432.06 597.65 433.64 597.65 435.21 597.65 436.79 597.65 438.36 597.65 439.94 597.65 441.51 597.65 443.09 597.65 444.66 597.65 446.24 597.65 447.81 597.65 449.39 597.65 451.2 597.7 452.98 597.72 454.76 597.63 456.51 597.53 458.27 597.4 459.99 597.26 461.72 597.08 463.42 596.9 465.11 596.67 466.78 596.44 468.45 596.17 470.09 595.89 471.73 595.57 473.34 595.25 474.95 594.89 476.53 594.52 478.12 594.11 479.67 593.7 481.23 593.24 482.75 592.78 484.28 592.28 485.78 591.78 487.28 591.23 488.75 590.68 490.22 590.08 491.67 589.49 493.11 588.84 494.53 588.2 495.95 587.51 497.34 586.82 498.74 586.09 500.1 585.35 501.47 584.58 502.8 583.8 504.14 582.99 505.44 582.18 506.75 581.33 508.02 580.47 509.29 579.58 510.53 578.69 511.77 577.76 512.98 576.83 514.19 575.87 515.37 574.9 516.55 573.89 517.7 572.88 518.85 571.83 519.97 570.78 521.09 569.7 522.17 568.61 523.26 567.49 524.32 566.36 525.37 565.19 526.39 564.03 527.42 562.83 528.41 561.62 529.4 560.38 530.36 559.14 531.31 557.86 532.24 556.58 533.16 555.26 534.05 553.94 534.94 552.58 535.8 551.22 536.65 549.84 537.47 548.45 538.28 547.03 539.06 545.62 539.83 544.17 540.57 542.73 541.3 541.26 542 539.79 542.7 538.29 543.36 536.79 544.02 535.26 544.64 533.73 545.26 532.17 545.83 530.62 546.41 529.03 546.94 527.44 547.46 525.83 547.95 524.22 548.44 522.57 548.89 520.93 549.33 519.26 549.74 517.59 550.14 515.89 550.51 514.2 550.87 512.47 551.19 510.75 551.52 508.99 551.8 508.12 551.94 507.23 552.07 506.35 552.15 505.46 552.23 504.57 552.3 503.67 552.39 502.78 552.47 501.87 552.57 501.87 552.57 501.87 552.57 500.66 552.7 499.45 552.86 498.23 553.02 497.02 553.14 495.82 553.2 494.61 553.23 493.41 553.25 492.2 553.24 491 553.24 489.8 553.19 488.6 553.15 487.41 553.07 486.21 552.98 485.01 552.85 483.82 552.7 482.63 552.51 481.44 552.33 480.25 552.11 479.06 551.89 477.88 551.63 476.69 551.36 475.51 551.05 474.33 550.74 473.15 550.4 471.97 550.06 470.8 549.69 469.62 549.33 468.46 548.95 467.29 548.57 466.12 548.17 464.96 547.78 463.81 547.36 462.65 546.94 461.53 546.49 460.4 546.05 459.31 545.58 458.22 545.11 457.17 544.61 456.11 544.12 455.09 543.6 454.07 543.08 453.08 542.53 452.1 541.98 451.15 541.41 450.2 540.84 449.28 540.24 448.37 539.64 447.49 539.01 446.62 538.38 445.77 537.73 444.93 537.08 444.13 536.4 443.33 535.72 442.56 535.01 441.8 534.3 441.07 533.57 440.34 532.83 439.65 532.07 438.96 531.31 438.3 530.52 437.65 529.73 437.04 528.92 436.42 528.1 435.84 527.26 435.84 527.26 435.84 527.26 436.7 525.76 437.56 524.26 438.42 522.77 439.27 521.27 440.12 519.78 440.96 518.28 441.81 516.79 442.65 515.29 443.48 513.8 444.31 512.31 445.14 510.81 445.97 509.32 446.79 507.83 447.61 506.34 448.42 504.84 449.23 503.35 450.04 501.86 450.85 500.37 451.65 498.88 452.45 497.39 453.25 495.9 454.05 494.41 454.84 492.92 455.64 491.43 456.43 489.94 457.22 488.46 458 486.97 458.79 485.48 459.58 484 460.36 482.51 461.14 481.02 461.93 479.54 462.94 480.73 463.97 481.85 465.01 482.96 466.07 483.99 467.13 485.02 468.22 485.97 469.32 486.91 470.43 487.78 471.55 488.64 472.7 489.42 473.85 490.2 475.02 490.9 476.2 491.59 477.41 492.21 478.61 492.82 479.85 493.35 481.08 493.88 482.34 494.33 483.6 494.78 484.89 495.14 486.18 495.5 487.5 495.79 488.82 496.07 490.17 496.27 491.51 496.47 492.88 496.58 494.26 496.7 495.66 496.73 497.06 496.77 498.48 496.72 499.91 496.67 501.36 496.53 501.36 496.53 501.36 496.53 502.46 496.44 503.52 496.3 504.59 496.16 505.62 495.98 506.66 495.8 507.66 495.58 508.66 495.36 509.63 495.11 510.61 494.85 511.55 494.55 512.49 494.25 513.39 493.92 514.3 493.58 515.18 493.21 516.05 492.84 516.9 492.42 517.74 492.01 518.55 491.56 519.36 491.11 520.14 490.62 521.7 489.64 523.13 488.51 524.56 487.37 525.86 486.09 527.16 484.8 528.32 483.37 529.49 481.93 530.52 480.37 531.54 478.81 532.43 477.13 533.31 475.45 534.04 473.64 534.78 471.84 535.38 469.91 535.97 467.99 536.42 465.94 536.64 464.91 536.83 463.86 537.02 462.8 537.18 461.72 537.33 460.63 537.45 459.52 537.56 458.4 537.65 457.25 537.73 456.1 537.77 454.92 537.82 453.75 537.83 452.53 537.83 452.53 537.83 452.53 537.84 450.84 537.86 449.14 537.87 447.44 537.89 445.75 536.9 447.15 535.88 448.48 534.86 449.81 533.81 451.06 532.75 452.32 531.67 453.49 530.59 454.66 529.47 455.75 528.36 456.85 527.21 457.86 526.06 458.87 524.88 459.81 523.7 460.74 522.5 461.6 521.29 462.45 520.04 463.23 518.8 464 517.53 464.69 516.26 465.39 514.96 466 513.65 466.62 512.32 467.15 510.99 467.68 509.63 468.13 508.26 468.58 506.87 468.95 505.48 469.32 504.06 469.61 502.64 469.9 501.18 470.1 499.73 470.31 498.25 470.43 498.25 470.43 498.25 470.43 496.86 470.54 495.49 470.6 494.12 470.66 492.77 470.66 491.43 470.66 490.11 470.6 488.79 470.54 487.49 470.42 486.2 470.3 484.93 470.12 483.66 469.95 482.41 469.71 481.17 469.47 479.95 469.18 478.73 468.88 477.54 468.53 476.35 468.18 475.18 467.76 474.02 467.35 472.88 466.88 471.73 466.41 470.62 465.87 469.5 465.34 468.41 464.75 467.32 464.16 466.25 463.51 465.19 462.86 464.15 462.15 463.1 461.44 462.08 460.67 461.07 459.9 460.07 459.08 459.07 458.25 458.11 457.37 457.14 456.5 456.21 455.57 455.27 454.65 454.36 453.68 453.45 452.71 452.58 451.7 451.7 450.68 450.85 449.62 450 448.56 449.17 447.45 448.35 446.34 447.55 445.18 446.76 444.03 445.99 442.83 445.22 441.62 444.49 440.37 443.75 439.13 443.03 437.83 442.32 436.53 441.64 435.19 440.95 433.85 440.3 432.46 439.64 431.07 439.01 429.64 438.39 428.21 437.79 426.72 437.19 425.24 436.61 423.72 436.04 422.19 435.5 420.62 434.96 419.04 434.45 417.44 433.94 415.84 433.46 414.2 432.99 412.57 432.55 410.91 432.1 409.24 431.7 407.55 431.29 405.86 430.91 404.14 430.54 402.42 430.2 400.66 429.86 398.91 429.55 397.13 429.24 395.35 428.97 393.54 428.7 391.73 428.46 389.89 428.22 388.05 428.01 386.18 427.81 384.31 427.64 382.41 427.46 380.51 427.33 378.59 427.19 376.66 427.09 374.7 426.99 372.75 426.92 370.76 426.85 368.77 426.81 366.76 426.78 364.74 426.78 362.7 426.78 362.7 426.78 362.7 426.78 361.61 426.78 360.53 426.78 359.44 426.78 358.35 426.78 356.23 426.81 354.14 426.85 352.05 426.92 349.98 426.99 347.92 427.09 345.89 427.19 343.85 427.33 341.85 427.47 339.84 427.64 337.87 427.81 335.89 428.02 333.95 428.22 332 428.46 330.08 428.71 328.17 428.98 326.28 429.26 324.39 429.57 322.53 429.88 320.68 430.22 318.85 430.56 317.02 430.94 315.22 431.32 313.42 431.74 311.65 432.15 309.88 432.6 308.14 433.04 306.4 433.53 304.68 434.01 302.97 434.53 301.29 435.04 299.6 435.6 297.95 436.15 296.3 436.73 294.68 437.32 293.07 437.93 291.51 438.54 289.94 439.19 288.41 439.83 286.89 440.5 285.41 441.18 283.92 441.88 282.49 442.59 281.05 443.32 279.65 444.06 278.25 444.82 276.9 445.59 275.54 446.38 274.23 447.18 272.92 448 271.65 448.83 270.38 449.69 269.15 450.54 267.92 451.43 266.74 452.32 265.55 453.23 264.41 454.15 263.27 455.1 262.17 456.05 261.07 457.02 260.02 458 258.96 459.01 257.95 460.02 256.95 461.06 255.98 462.1 255.02 463.16 254.11 464.22 253.21 465.3 252.36 466.39 251.51 467.5 250.72 468.6 249.93 469.73 249.2 470.86 248.47 472.01 247.79 473.17 247.12 474.34 246.51 475.52 245.89 476.71 245.34 477.91 244.78 479.13 244.29 480.35 243.79 481.59 243.35 482.83 242.92 484.1 242.54 485.36 242.17 486.65 241.85 487.94 241.53 489.25 241.28 490.56 241.02 491.89 240.82 493.22 240.62 494.58 240.49 495.93 240.35 497.31 240.27 498.69 240.2 500.09 240.18 500.09 240.18 500.09 240.18 500.95 240.17 501.79 240.18 502.64 240.2 503.48 240.24 505.14 240.31 506.76 240.48 508.38 240.66 509.95 240.93 511.52 241.2 513.05 241.57 514.57 241.94 516.04 242.4 517.51 242.87 518.93 243.42 520.36 243.98 521.73 244.64 523.1 245.29 524.43 246.04 525.75 246.79 527.03 247.64 528.3 248.48 529.53 249.42 530.75 250.35 531.93 251.38 533.11 252.41 534.23 253.53 535.36 254.66 536.44 255.87 537.52 257.08 538.54 258.38 539.57 259.68 540.55 261.07 541.53 262.45 542.46 263.93 542.46 263.93 542.46 263.93 542.59 262.74 542.72 261.55 542.85 260.36 542.97 259.16 543.1 257.97 543.23 256.78 543.36 255.58 543.49 254.38 543.61 253.19 543.74 251.99 543.87 250.79 544 249.6 544.13 248.4 544.26 247.2 544.38 246 544.51 244.8 544.51 244.8 544.51 244.8M514.01 411.04Q515.04 410.98 516.04 410.88 517.04 410.77 518 410.62 518.96 410.47 519.89 410.27 520.82 410.07 521.71 409.83 522.6 409.59 523.46 409.3 524.32 409.02 525.15 408.69 526.8 408.03 528.31 407.19 529.82 406.35 531.2 405.33 532.57 404.32 533.8 403.12 535.04 401.93 536.14 400.56 537.23 399.19 538.19 397.64 538.19 397.64 538.19 397.64 538.2 396.32 538.2 394.99 538.21 393.66 538.22 392.34 538.22 391.01 538.23 389.68 538.23 388.36 538.24 387.03 538.25 385.7 538.25 384.38 538.26 383.05 538.26 381.72 538.27 380.4 538.27 379.07 538.28 377.74 538.28 376.41 538.29 375.09 538.3 373.76 538.3 372.43 538.31 371.1 538.31 369.77 538.32 368.45 538.32 367.12 538.33 365.79 538.33 364.46 538.34 363.13 538.34 361.8 538.35 360.47 538.35 359.14 538.36 357.81 538.36 356.48 538.37 355.15 538.37 353.82 538.37 352.49 538.38 351.16 538.38 349.82 538.39 348.49 538.39 347.16 538.4 345.83 538.4 344.49 538.41 343.16 538.41 341.83 538.41 340.49 538.42 339.16 538.42 337.83 538.43 336.49 538.43 335.16 538.44 333.82 538.44 332.48 538.44 331.15 538.45 329.81 538.45 328.47 538.46 327.14 538.46 325.8 538.47 324.46 538.47 323.12 538.47 321.78 538.48 320.44 538.48 319.1 538.49 317.76 538.49 316.42 538.5 315.07 538.5 313.73 538.5 312.39 537.58 310.85 536.52 309.5 535.46 308.16 534.26 307 533.06 305.85 531.73 304.89 530.39 303.92 528.91 303.15 527.43 302.38 525.81 301.81 525.01 301.52 524.16 301.29 523.32 301.05 522.44 300.86 521.56 300.67 520.65 300.54 519.74 300.4 518.79 300.31 517.84 300.22 516.86 300.19 515.88 300.15 514.86 300.16 514.86 300.16 514.86 300.16 513.13 300.18 511.5 300.44 509.86 300.7 508.32 301.2 506.78 301.7 505.33 302.43 503.89 303.16 502.53 304.13 501.18 305.1 499.92 306.31 498.66 307.52 497.49 308.96 496.32 310.4 495.25 312.07 494.71 312.91 494.2 313.81 493.68 314.7 493.19 315.66 492.7 316.61 492.24 317.6 491.78 318.6 491.35 319.62 490.92 320.65 490.52 321.71 490.12 322.78 489.76 323.88 489.39 324.97 489.05 326.11 488.71 327.24 488.4 328.42 488.09 329.59 487.82 330.79 487.54 332 487.29 333.24 487.04 334.48 486.83 335.76 486.61 337.04 486.42 338.35 486.24 339.66 486.08 341.01 485.92 342.36 485.8 343.74 485.67 345.13 485.57 346.55 485.48 347.97 485.41 349.42 485.35 350.87 485.31 352.36 485.27 353.85 485.27 355.38 485.27 355.38 485.27 355.38 485.26 356.45 485.26 357.53 485.25 358.6 485.25 359.68 485.24 361.16 485.27 362.61 485.29 364.06 485.34 365.47 485.39 366.88 485.48 368.25 485.56 369.63 485.67 370.96 485.78 372.3 485.92 373.6 486.06 374.9 486.23 376.16 486.4 377.43 486.6 378.65 486.8 379.88 487.03 381.06 487.26 382.25 487.52 383.4 487.78 384.55 488.06 385.67 488.35 386.78 488.67 387.86 488.99 388.93 489.33 389.97 489.68 391.01 490.06 392.02 490.43 393.02 490.84 393.98 491.24 394.95 491.68 395.87 492.11 396.8 492.58 397.69 493.04 398.58 493.53 399.41 494.03 400.24 494.54 401.01 495.57 402.56 496.71 403.86 497.84 405.17 499.08 406.24 500.31 407.31 501.65 408.14 502.99 408.97 504.43 409.57 505.87 410.17 507.42 410.53 508.96 410.89 510.61 411.02 511.44 411.09 512.29 411.09 513.14 411.1 514.01 411.04 514.01 411.04 514.01 411.04 514.01 411.04 514.01 411.04M779.73 384.35Q779.73 386.2 779.73 388.06 779.73 389.91 779.73 391.77 779.73 393.62 779.73 395.48 779.73 397.33 779.73 399.19 779.73 401.04 779.73 402.9 779.73 404.75 779.73 406.61 779.73 408.46 779.73 410.32 779.73 412.17 779.73 414.03 779.04 414.06 778.2 414.1 777.36 414.14 776.52 414.18 775.68 414.22 774.84 414.26 774 414.3 773.16 414.35 772.32 414.39 771.48 414.43 770.64 414.48 769.8 414.53 768.96 414.57 768.12 414.62 767.28 414.67 766.44 414.72 765.6 414.77 764.76 414.82 763.92 414.87 763.08 414.92 762.24 414.98 761.4 415.03 760.55 415.08 759.71 415.14 758.87 415.19 758.03 415.25 757.19 415.3 756.35 415.36 755.5 415.42 754.66 415.47 753.82 415.53 752.98 415.59 752.13 415.65 751.29 415.71 750.45 415.77 749.6 415.83 748.76 415.89 747.92 415.95 747.07 416.01 746.23 416.07 745.39 416.13 744.54 416.19 743.7 416.25 742.85 416.32 742.01 416.38 741.16 416.44 740.32 416.5 739.47 416.57 738.63 416.63 737.78 416.7 736.93 416.76 736.09 416.82 735.24 416.89 734.4 416.95 733.55 417.02 732.7 417.08 731.86 417.15 731.01 417.21 730.16 417.28 729.31 417.34 728.47 417.41 727.62 417.47 726.77 417.54 725.92 417.6 725.07 417.67 724.22 417.73 723.37 417.8 722.53 417.86 721.68 417.93 720.83 417.99 719.98 418.06 719.13 418.12 718.28 418.18 717.43 418.25 716.58 418.31 715.73 418.38 714.88 418.44 714.02 418.51 713.17 418.57 712.32 418.64 711.47 418.7 710.62 418.76 709.77 418.83 708.92 418.89 708.07 418.95 707.21 419.02 706.36 419.08 705.51 419.14 704.66 419.21 703.8 419.27 702.95 419.33 702.1 419.39 701.25 419.46 700.39 419.52 699.54 419.58 698.69 419.64 697.83 419.7 696.98 419.76 696.13 419.82 695.27 419.88 694.42 419.95 693.57 420.01 692.71 420.07 691.86 420.12 691 420.18 690.15 420.24 689.3 420.3 688.44 420.36 687.59 420.42 686.73 420.48 685.88 420.54 685.03 420.59 684.17 420.65 683.32 420.71 682.46 420.77 681.61 420.82 680.75 420.88 679.9 420.93 679.05 420.99 678.19 421.05 677.34 421.1 676.48 421.16 675.63 421.21 674.77 421.27 673.92 421.32 673.06 421.37 672.21 421.43 671.36 421.48 671.77 423.66 672.29 425.7 672.8 427.74 673.41 429.65 674.03 431.55 674.73 433.32 675.44 435.08 676.24 436.7 677.05 438.32 677.95 439.8 678.85 441.28 679.85 442.62 680.85 443.95 681.94 445.15 683.04 446.34 684.23 447.39 685.42 448.43 686.68 449.32 687.95 450.2 689.28 450.91 690.62 451.62 692.03 452.17 693.44 452.72 694.92 453.1 696.41 453.48 697.96 453.7 699.52 453.92 701.14 453.97 702.77 454.03 704.47 453.92 705.32 453.87 706.19 453.78 707.05 453.68 707.94 453.55 707.94 453.55 707.94 453.55 709.44 453.33 710.92 453.02 712.39 452.71 713.85 452.31 715.31 451.92 716.75 451.45 718.19 450.97 719.61 450.42 721.02 449.87 722.42 449.23 723.82 448.61 725.19 447.9 726.57 447.19 727.93 446.41 729.28 445.64 730.62 444.78 731.95 443.94 733.24 443 734.52 442.07 735.76 441.05 736.99 440.03 738.17 438.93 739.35 437.84 740.48 436.66 741.62 435.49 742.7 434.23 743.77 432.98 744.8 431.64 745.83 430.31 746.81 428.9 747.79 427.5 748.72 426.01 748.72 426.01 748.72 426.01 749.53 427.28 750.35 428.54 751.16 429.8 751.98 431.06 752.79 432.31 753.61 433.56 754.42 434.8 755.24 436.04 756.05 437.28 756.87 438.51 757.68 439.74 758.5 440.96 759.32 442.18 760.13 443.39 760.95 444.61 761.76 445.81 762.58 447.02 763.4 448.22 764.21 449.42 765.03 450.61 765.84 451.8 766.66 452.99 767.47 454.18 768.29 455.36 769.11 456.54 769.92 457.71 770.74 458.88 771.55 460.06 772.37 461.22 773.18 462.39 773.99 463.55 774.81 464.72 774.07 466 773.27 467.29 772.47 468.59 771.6 469.88 770.73 471.19 769.79 472.51 768.85 473.84 767.85 475.17 766.84 476.53 765.77 477.9 764.7 479.28 763.56 480.68 762.43 482.1 761.22 483.53 760.02 484.99 758.74 486.46 757.47 487.95 756.14 489.42 754.81 490.91 753.42 492.37 752.04 493.85 750.59 495.31 749.14 496.77 747.64 498.2 746.88 498.92 746.11 499.62 745.34 500.33 744.56 501.03 743.77 501.73 742.97 502.42 742.17 503.11 741.35 503.79 740.53 504.47 739.7 505.14 738.86 505.81 738.01 506.47 737.16 507.13 736.3 507.78 735.43 508.43 734.55 509.07 733.67 509.72 732.78 510.34 731.89 510.96 730.99 511.56 730.1 512.16 729.19 512.74 728.28 513.31 727.36 513.86 726.44 514.38 725.5 514.86 724.56 515.33 723.6 515.75 722.65 516.17 721.68 516.56 720.72 516.96 719.74 517.32 718.77 517.69 717.79 518.05 716.81 518.45 715.84 518.86 714.87 519.28 713.89 519.68 712.91 520.08 711.92 520.45 710.93 520.83 709.93 521.19 708.94 521.55 707.93 521.86 706.92 522.1 705.91 522.36 704.9 522.63 703.87 522.92 703.87 522.92 703.87 522.92 702.97 523.18 702.07 523.45 701.17 523.73 700.27 524.02 699.38 524.3 698.48 524.44 697.57 524.55 696.67 524.64 695.78 524.73 694.89 524.81 694 524.88 693.11 524.94 692.23 525 691.36 525.04 690.49 525.08 689.63 525.14 687.92 525.29 686.24 525.37 684.56 525.45 682.91 525.43 681.25 525.38 679.6 525.18 677.96 524.96 676.34 524.66 674.72 524.37 673.13 524.01 671.56 523.67 670.01 523.28 668.47 522.89 666.95 522.42 665.44 521.95 663.96 521.39 662.47 520.82 661.02 520.17 659.57 519.51 658.14 518.78 656.72 518.04 655.33 517.22 653.95 516.4 652.59 515.51 651.24 514.6 649.93 513.65 648.62 512.68 647.35 511.66 646.09 510.63 644.87 509.54 643.65 508.44 642.48 507.29 641.31 506.12 640.18 504.9 639.06 503.67 637.98 502.38 636.9 501.08 635.87 499.72 634.84 498.36 633.86 496.94 632.87 495.51 631.94 494.02 631.01 492.53 630.12 490.98 629.23 489.42 628.39 487.8 627.55 486.18 626.75 484.51 625.95 482.82 625.19 481.08 624.44 479.34 623.72 477.54 623 475.74 622.32 473.88 621.63 472.02 620.98 470.1 620.33 468.18 619.71 466.23 619.09 464.28 618.51 462.3 617.93 460.32 617.38 458.32 616.83 456.31 616.33 454.28 615.82 452.24 615.35 450.19 614.88 448.13 614.45 446.04 614.02 443.96 613.63 441.85 613.25 439.74 612.9 437.61 612.56 435.47 612.25 433.31 611.95 431.15 611.69 428.97 611.43 426.79 611.21 424.58 611 422.38 610.82 420.15 610.65 417.92 610.52 415.67 610.39 413.41 610.3 411.14 610.21 408.87 610.17 406.57 610.13 404.27 610.13 401.95 610.13 401.95 610.13 401.95 610.13 399.52 610.13 397.09 610.13 394.66 610.13 392.23 610.13 389.65 610.17 387.09 610.2 384.54 610.28 382.02 610.35 379.5 610.47 377.02 610.58 374.53 610.73 372.07 610.88 369.62 611.07 367.19 611.26 364.77 611.48 362.38 611.71 359.99 611.97 357.63 612.24 355.27 612.54 352.95 612.84 350.62 613.18 348.33 613.53 346.04 613.9 343.78 614.28 341.53 614.7 339.3 615.12 337.08 615.57 334.89 616.03 332.71 616.52 330.55 617.01 328.4 617.55 326.28 618.08 324.17 618.65 322.09 619.22 320.01 619.83 317.96 620.44 315.92 621.09 313.94 621.74 311.96 622.43 310.04 623.13 308.12 623.86 306.25 624.59 304.4 625.37 302.6 626.14 300.8 626.96 299.07 627.78 297.33 628.64 295.66 629.5 293.99 630.4 292.39 631.31 290.78 632.25 289.24 633.2 287.71 634.18 286.23 635.17 284.76 636.2 283.36 637.24 281.96 638.31 280.62 639.38 279.28 640.5 278.01 641.62 276.74 642.78 275.54 643.94 274.34 645.14 273.2 646.34 272.07 647.58 271 648.83 269.94 650.11 268.93 651.4 267.94 652.72 267.02 654.04 266.11 655.4 265.29 656.76 264.47 658.15 263.73 659.55 263 660.98 262.35 662.41 261.71 663.88 261.14 665.35 260.59 666.85 260.11 668.35 259.64 669.89 259.25 671.43 258.87 673 258.57 674.58 258.27 676.19 258.06 677.8 257.85 679.44 257.72 681.08 257.6 682.76 257.56 684.44 257.53 686.15 257.57 687.87 257.62 689.62 257.75 690.49 257.82 691.37 257.91 692.25 258 693.14 258.11 694.04 258.22 694.94 258.35 695.83 258.49 696.74 258.64 697.65 258.8 698.56 258.97 699.48 259.14 700.41 259.34 700.41 259.34 700.41 259.34 702.01 259.68 703.59 260.09 705.17 260.49 706.72 260.95 708.26 261.41 709.78 261.93 711.3 262.45 712.79 263.02 714.28 263.6 715.74 264.24 717.2 264.87 718.64 265.56 720.07 266.25 721.47 267 722.87 267.75 724.24 268.55 725.62 269.35 726.96 270.21 728.3 271.06 729.61 271.97 730.93 272.88 732.21 273.85 733.49 274.81 734.75 275.82 736 276.83 737.22 277.9 738.45 278.96 739.64 280.07 740.83 281.18 741.99 282.33 743.15 283.49 744.28 284.69 745.41 285.88 746.51 287.11 747.6 288.34 748.65 289.6 749.7 290.86 750.72 292.15 751.73 293.43 752.7 294.74 753.67 296.04 754.61 297.38 755.54 298.7 756.43 300.05 757.32 301.39 758.18 302.75 759.03 304.11 759.84 305.49 760.65 306.86 761.43 308.26 762.2 309.64 762.93 311.05 763.67 312.45 764.36 313.88 765.06 315.29 765.72 316.74 766.38 318.17 767 319.64 767.62 321.09 768.22 322.58 768.81 324.06 769.38 325.57 769.94 327.07 770.49 328.61 771.03 330.14 771.55 331.7 772.08 333.25 772.57 334.83 773.07 336.4 773.54 338 774.01 339.6 774.45 341.22 774.89 342.84 775.3 344.49 775.71 346.14 776.08 347.82 776.46 349.49 776.8 351.2 777.14 352.9 777.44 354.63 777.74 356.37 778.01 358.13 778.27 359.89 778.5 361.68 778.73 363.48 778.92 365.3 779.11 367.12 779.26 368.98 779.42 370.84 779.53 372.72 779.65 374.61 779.72 376.53 779.8 378.45 779.77 380.41 779.73 382.36 779.73 384.35 779.73 384.35 779.73 384.35 779.73 384.35 779.73 384.35M723.07 361.65Q723.14 359.79 723.11 358.05 723.07 356.3 722.93 354.66 722.79 353.02 722.55 351.48 722.31 349.94 721.96 348.51 721.61 347.07 721.16 345.73 720.71 344.39 720.15 343.16 719.6 341.92 718.94 340.78 718.27 339.64 717.51 338.6 716.74 337.56 715.86 336.63 714.99 335.68 714.01 334.85 713.03 334.01 711.94 333.27 710.85 332.53 709.65 331.9 708.46 331.26 707.15 330.74 705.85 330.21 704.44 329.79 703.03 329.37 701.51 329.06 699.99 328.75 698.36 328.55 698.36 328.55 698.36 328.55 696.82 328.36 695.37 328.35 693.91 328.35 692.56 328.51 691.2 328.69 689.93 329.04 688.67 329.39 687.5 329.92 686.33 330.45 685.25 331.17 684.17 331.89 683.19 332.78 682.21 333.68 681.32 334.76 680.44 335.85 679.65 337.11 678.86 338.38 678.13 339.77 677.41 341.17 676.75 342.71 676.08 344.24 675.49 345.91 674.89 347.57 674.36 349.37 673.83 351.17 673.36 353.1 672.9 355.04 672.5 357.1 672.1 359.16 671.76 361.35 671.42 363.55 671.15 365.87 671.15 365.87 671.15 365.87 672.78 365.93 674.4 365.99 676.03 366.04 677.66 366.1 679.28 366.17 680.91 366.23 682.54 366.29 684.16 366.35 685.79 366.42 687.41 366.48 689.03 366.55 690.66 366.61 692.28 366.68 693.9 366.75 695.52 366.82 697.15 366.88 698.77 366.95 700.39 367.02 702.01 367.09 703.62 367.16 705.24 367.24 706.86 367.31 708.48 367.38 710.09 367.45 711.71 367.52 713.32 367.6 714.93 367.67 716.55 367.74 718.16 367.81 719.77 367.89 721.38 367.96 722.98 368.03 723.01 366.44 723.03 364.84 723.05 363.25 723.07 361.65 723.07 361.65 723.07 361.65M871.1 319.69Q872.08 320.22 873.02 320.74 873.96 321.28 874.86 321.81 875.76 322.34 876.63 322.86 877.5 323.39 878.33 323.9 879.16 324.42 879.95 324.93 880.75 325.44 881.52 325.93 883.11 326.8 884.59 327.27 884.59 327.27 884.59 327.27 885.05 327.54 885.51 327.8 885.98 328.07 886.44 328.34 886.9 328.6 887.35 328.87 887.78 329.13 888.21 329.39 888.64 329.66 889.07 329.92 889.49 330.2 889.92 330.47 890.35 330.74 890.77 331.01 891.2 331.28 891.63 331.55 892.05 331.82 892.48 332.09 892.91 332.36 893.33 332.64 893.76 332.91 894.18 333.18 894.6 333.46 895.03 333.74 895.45 334.02 895.87 334.3 896.29 334.58 896.71 334.85 897.14 335.13 897.56 335.41 897.98 335.69 898.4 335.97 898.82 336.25 899.24 336.54 899.66 336.82 900.07 337.11 900.49 337.4 900.91 337.68 901.32 337.97 901.74 338.26 902.15 338.55 902.57 338.83 902.99 339.12 903.4 339.41 903.82 339.7 904.23 339.99 904.64 340.29 905.05 340.58 905.46 340.88 905.87 341.17 906.29 341.47 906.7 341.77 907.11 342.06 907.52 342.36 907.93 342.66 908.34 342.95 908.75 343.25 909.15 343.55 909.56 343.86 909.97 344.16 910.37 344.46 910.78 344.77 911.18 345.07 911.59 345.38 910.2 345.57 908.82 345.75 907.44 345.92 906.07 346.09 904.63 346.24 903.29 346.38 901.96 346.51 900.73 346.62 899.5 346.74 898.37 346.84 897.24 346.93 896.21 347.02 894.15 347.18 892.48 347.32 890.81 347.45 889.52 347.56 889.52 347.56 889.52 347.56 887.68 347.72 885.95 347.88 884.24 348.04 882.63 348.21 881.03 348.37 879.54 348.56 878.05 348.74 876.68 348.95 875.3 349.16 874.03 349.39 872.76 349.63 871.59 349.89 870.42 350.17 869.36 350.47 868.29 350.78 867.32 351.13 866.36 351.48 865.48 351.87 864.59 352.27 863.8 352.71 863 353.16 862.29 353.66 861.58 354.16 860.95 354.71 860.31 355.26 859.77 355.86 859.22 356.47 858.76 357.12 858.29 357.79 857.91 358.49 857.53 359.2 857.23 359.96 857.23 359.96 857.23 359.96 857.43 360.59 857.63 361.23 857.84 361.86 858.04 362.5 858.24 363.13 858.44 363.77 858.64 364.4 858.84 365.04 859.04 365.68 859.24 366.31 859.44 366.95 859.65 367.59 859.85 368.22 860.05 368.86 860.25 369.5 860.45 370.14 860.64 370.78 860.84 371.42 861.04 372.06 861.24 372.7 861.44 373.34 861.64 373.98 861.84 374.62 862.04 375.27 862.23 375.91 862.43 376.55 862.63 377.2 862.83 377.84 863.02 378.49 863.22 379.13 863.42 379.78 863.61 380.42 863.81 381.07 864 381.72 864.2 382.37 864.39 383.02 864.59 383.67 864.78 384.32 864.98 384.97 865.17 385.62 865.37 386.28 865.56 386.93 865.75 387.58 865.95 388.24 866.14 388.9 866.33 389.55 866.52 390.21 866.71 390.87 866.91 391.53 867.1 392.19 867.29 392.85 867.48 393.51 867.67 394.18 867.86 394.84 868.05 395.51 868.24 396.17 868.43 396.84 868.62 397.51 868.81 398.18 868.99 398.85 869.18 399.53 869.37 400.2 869.56 400.87 869.74 401.55 869.93 402.23 870.12 402.91 870.3 403.59 870.49 404.27 870.67 404.95 870.86 405.64 871.04 406.33 871.23 407.02 871.41 407.71 871.59 408.4 871.78 409.09 871.96 409.79 872.14 410.49 872.33 411.18 872.51 411.89 872.69 412.59 872.87 413.3 873.05 414 873.23 414.71 873.42 415.43 873.6 416.14 873.78 416.86 873.96 417.58 874.14 418.3 874.32 419.02 874.5 419.75 874.68 420.48 874.86 421.21 875.03 421.95 875.21 422.68 875.39 423.42 875.57 424.17 875.75 424.91 875.93 425.66 876.11 426.42 876.29 427.17 876.47 427.93 876.65 428.69 876.83 429.46 877.01 430.23 877.19 431 877.37 431.77 877.55 432.55 877.73 433.33 877.91 434.12 878.09 434.91 878.28 435.7 878.46 436.49 878.64 437.29 878.83 438.09 879.01 438.9 879.2 439.71 879.39 440.52 879.58 441.33 879.76 442.15 879.95 442.97 880.14 443.79 880.34 444.62 880.53 445.45 880.72 446.27 880.92 447.11 881.11 447.94 881.3 448.77 881.45 449.44 880.07 450.3 878.66 451.11 877.25 451.91 875.83 452.72 874.42 453.53 873.01 454.34 871.59 455.15 870.18 455.95 868.76 456.76 867.35 457.57 865.94 458.38 864.52 459.18 863.12 460.01 861.72 460.84 860.32 461.67 858.92 462.5 857.52 463.33 856.12 464.16 854.7 464.94 853.28 465.72 851.86 466.5 850.44 467.28 849.02 468.06 847.59 468.84 846.15 469.59 844.71 470.34 843.26 471.09 841.82 471.84 840.38 472.59 838.93 473.33 837.48 474.07 836.03 474.81 834.58 475.54 833.13 476.28 831.68 477.02 830.2 477.68 828.7 478.33 827.2 478.97 825.71 479.61 824.21 480.25 822.72 480.9 821.28 481.65 819.85 482.41 818.42 483.17 816.99 483.93 815.55 484.69 814.11 485.42 812.61 486.01 811.11 486.6 809.61 487.19 808.11 487.78 806.61 488.36 805.11 488.97 803.61 489.61 802.11 490.24 800.62 490.87 799.12 491.51 797.62 492.14 796.14 492.82 794.67 493.51 793.2 494.2 791.73 494.9 790.26 495.59 788.86 496.28 788.79 494.84 788.81 493.21 788.83 491.58 788.85 489.95 788.86 488.32 788.88 486.69 788.9 485.05 788.91 483.42 788.93 481.79 788.95 480.16 788.96 478.53 788.98 476.9 789 475.27 789.02 473.64 789.03 472.01 789.05 470.38 789.07 468.75 789.08 467.12 789.1 465.49 789.12 463.86 789.14 462.23 789.15 460.6 789.17 458.97 789.19 457.34 789.2 455.71 789.22 454.08 789.22 452.45 789.22 450.82 789.22 449.19 789.22 447.56 789.22 445.93 789.22 444.3 789.22 442.66 789.22 441.03 789.22 439.4 789.22 437.77 789.22 436.14 789.22 434.51 789.22 432.88 789.22 431.25 789.22 429.62 789.22 427.99 789.22 426.36 789.22 424.73 789.22 423.1 789.22 421.47 789.22 419.84 789.22 418.21 789.22 416.58 789.22 414.95 789.22 413.32 789.22 411.69 789.22 410.06 789.22 408.43 789.22 406.8 789.22 405.17 789.21 403.54 789.21 401.91 789.21 400.28 789.21 398.65 789.21 397.02 789.21 395.39 789.21 393.76 789.21 392.13 789.21 390.5 789.21 388.87 789.21 387.24 789.21 385.61 789.21 383.98 789.21 382.35 789.21 380.72 789.21 379.09 789.21 377.45 789.21 375.82 789.21 374.19 789.21 372.56 789.21 370.93 789.21 369.3 789.21 367.67 789.21 366.04 789.21 364.41 789.21 362.78 789.21 361.15 789.21 359.52 789.21 357.89 789.21 356.26 789.21 354.63 789.21 353 789.21 351.37 789.21 349.74 789.21 348.11 789.2 346.48 789.2 344.85 789.2 343.22 789.2 341.59 789.2 339.96 789.2 338.33 789.2 336.7 789.2 335.07 789.2 333.44 789.2 331.81 789.2 330.18 789.2 328.55 789.2 326.92 789.2 325.29 789.2 323.66 789.2 322.03 789.2 320.39 789.2 318.76 789.2 317.13 789.2 315.5 789.2 313.87 789.2 312.24 789.2 310.61 789.2 308.98 789.2 307.35 789.2 305.72 789.2 304.09 789.2 302.46 789.2 300.83 789.2 299.2 789.2 297.57 789.2 295.94 789.2 294.31 789.2 292.68 789.2 291.05 789.2 289.42 789.2 287.79 790.06 287.86 790.9 287.99 791.72 288.15 792.52 288.35 793.31 288.56 794.09 288.78 794.87 289.02 795.64 289.26 796.41 289.51 797.17 289.76 797.94 290.02 798.7 290.28 799.46 290.54 800.22 290.8 800.98 291.07 801.74 291.33 802.5 291.6 803.26 291.87 804.01 292.14 804.77 292.42 805.53 292.69 806.28 292.96 807.04 293.24 807.79 293.52 808.54 293.8 809.3 294.08 810.05 294.36 810.8 294.64 811.55 294.93 812.3 295.21 813.05 295.5 813.8 295.78 814.55 296.07 815.3 296.36 816.05 296.65 816.8 296.94 817.55 297.23 818.3 297.53 819.05 297.82 819.79 298.12 820.54 298.41 821.28 298.71 822.03 299.01 822.78 299.31 823.52 299.61 824.26 299.91 825.01 300.21 825.75 300.52 826.5 300.82 827.24 301.12 827.98 301.43 828.72 301.74 829.46 302.05 830.2 302.36 830.95 302.67 831.69 302.98 832.42 303.29 833.16 303.61 833.9 303.92 834.64 304.24 835.38 304.55 836.12 304.87 836.85 305.19 837.59 305.51 838 306.75 838.42 307.99 838.83 309.22 839.25 310.46 839.66 311.69 840.08 312.92 840.5 314.14 840.93 315.36 841.35 316.57 841.78 317.78 842.21 318.98 842.64 320.18 843.08 321.38 843.52 322.56 843.96 323.75 844.4 324.93 844.6 324.4 844.81 323.89 845.02 323.4 845.25 322.92 845.47 322.46 845.71 322.01 845.95 321.57 846.2 321.16 846.7 320.35 847.26 319.63 847.81 318.93 848.42 318.33 849.03 317.75 849.7 317.26 850.37 316.78 851.1 316.41 851.82 316.04 852.61 315.77 853.39 315.52 854.24 315.36 855.08 315.21 855.98 315.16 856.88 315.11 857.82 315.17 858.77 315.24 859.77 315.4 860.77 315.57 861.82 315.84 862.87 316.12 863.98 316.49 865.08 316.88 866.24 317.35 867.4 317.83 868.62 318.42 869.83 319.01 871.1 319.69 871.1 319.69 871.1 319.69 871.1 319.69 871.1 319.69" class="warpedPath"></path><path fill="#c88087" d="M280.8 732.11Q279.66 731.84 278.02 731.38 276.36 730.92 274.5 730.39 272.55 729.84 270.6 729.28 268.81 728.76 267.16 728.27 265.51 727.78 263.76 727.26 261.82 726.67 259.87 726.08 257.92 725.49 255.98 724.87 254.03 724.26 252.09 723.65 250.42 723.11 248.78 722.58 247.13 722.05 245.27 721.43 243.33 720.78 241.4 720.14 239.61 719.53 237.97 718.97 236.33 718.4 234.59 717.8 232.66 717.11 230.73 716.43 228.83 715.75 227.19 715.16 225.55 714.56 223.91 713.96 222.02 713.25 220.09 712.52 218.17 711.8 216.45 711.14 214.81 710.51 213.18 709.87 211.4 709.17 209.48 708.41 207.57 707.64 205.66 706.87 203.75 706.09 201.84 705.3 199.97 704.53 198.34 703.84 196.71 703.15 195.09 702.46 193.46 701.75 191.84 701.04 190.21 700.33 188.4 699.52 186.51 698.68 184.62 697.83 182.87 697.03 181.25 696.28 179.63 695.53 178.01 694.77 176.4 694.01 174.78 693.24 173.13 692.45 171.27 691.54 169.41 690.62 167.66 689.76 167.16 689.51 166.72 689.29 166.28 689.06 165.84 688.84 165.4 688.62 164.96 688.39 164.52 688.17 164.08 687.94 163.64 687.72 163.2 687.5 162.76 687.27 162.32 687.05 161.88 686.83 161.47 686.61 161.09 686.41 160.71 686.21 160.33 686.02 159.95 685.82 159.57 685.62 159.19 685.42 158.81 685.22 158.43 685.02 158.05 684.82 157.67 684.62 157.3 684.42 156.92 684.22 156.54 684.02 156.16 683.82 155.78 683.62 155.4 683.41 155.02 683.21 154.64 683 154.26 682.8 153.89 682.59 153.51 682.39 153.13 682.18 152.75 681.98 152.37 681.77 151.99 681.57 151.61 681.37 151.21 681.14 150.78 680.9 150.35 680.66 149.91 680.42 149.48 680.18 149.05 679.94 148.62 679.7 148.19 679.46 147.76 679.22 147.33 678.98 146.89 678.74 146.46 678.5 146.03 678.26 145.6 678.02 145.23 677.8 144.85 677.59 144.48 677.37 144.1 677.15 143.73 676.94 143.35 676.72 142.98 676.51 142.6 676.29 142.23 676.08 141.85 675.86 141.48 675.64 141.1 675.43 140.73 675.21 140.35 674.99 139.98 674.77 139.6 674.55 139.23 674.33 138.86 674.11 138.48 673.88 138.11 673.66 137.74 673.44 137.36 673.22 136.99 673 136.61 672.78 136.24 672.55 135.87 672.33 135.49 672.11 135.07 671.85 134.65 671.59 134.23 671.33 133.8 671.08 133.38 670.82 132.96 670.56 132.54 670.3 132.12 670.04 131.7 669.79 131.28 669.53 130.86 669.27 130.44 669.01 130.01 668.75 129.62 668.51 129.26 668.28 128.89 668.04 128.52 667.81 128.15 667.57 127.78 667.34 127.41 667.11 127.04 666.87 126.67 666.64 126.31 666.41 125.94 666.17 125.57 665.94 125.2 665.7 124.83 665.47 124.46 665.23 124.1 664.99 123.73 664.75 123.36 664.51 123 664.27 122.63 664.03 122.26 663.79 121.9 663.55 121.53 663.31 121.16 663.07 120.8 662.83 120.43 662.59 120.06 662.35 119.67 662.08 119.26 661.81 118.85 661.53 118.44 661.26 118.04 660.98 117.63 660.7 117.22 660.43 116.81 660.15 116.4 659.87 115.99 659.6 115.59 659.32 115.18 659.04 114.77 658.77 114.38 658.5 114.06 658.28 113.74 658.05 113.42 657.83 113.1 657.61 112.79 657.38 112.47 657.16 112.15 656.94 111.83 656.72 111.51 656.49 111.2 656.27 110.88 656.05 110.56 655.82 110.24 655.6 109.87 655.33 109.47 655.04 109.07 654.75 108.67 654.46 108.27 654.17 107.87 653.88 107.47 653.59 107.07 653.31 106.67 653.02 106.27 652.73 105.87 652.44 105.47 652.15 105.07 651.86 104.68 651.57 104.28 651.27 103.89 650.98 103.5 650.68 103.11 650.39 102.72 650.09 102.32 649.79 101.93 649.5 101.54 649.2 101.15 648.91 100.75 648.61 100.36 648.32 99.97 648.02 99.58 647.72 99.25 647.47 98.93 647.22 98.62 646.98 98.31 646.74 98 646.49 97.68 646.25 97.37 646 97.06 645.76 96.75 645.52 96.44 645.27 96.12 645.03 95.81 644.78 95.5 644.54 95.17 644.28 94.79 643.97 94.41 643.66 94.03 643.35 93.64 643.04 93.26 642.73 92.88 642.42 92.5 642.12 92.12 641.81 91.74 641.5 91.36 641.19 90.98 640.88 90.6 640.57 90.22 640.26 89.89 639.99 89.59 639.73 89.28 639.48 88.97 639.22 88.66 638.96 88.36 638.7 88.05 638.44 87.74 638.18 87.43 637.92 87.13 637.66 86.82 637.4 86.51 637.14 86.2 636.88 85.88 636.6 85.51 636.28 85.14 635.96 84.77 635.64 84.41 635.31 84.04 634.99 83.67 634.67 83.3 634.35 82.93 634.02 82.57 633.7 82.2 633.38 81.83 633.05 81.46 632.73 81.09 632.41 80.78 632.13 80.48 631.85 80.18 631.58 79.88 631.3 79.58 631.03 79.28 630.75 78.98 630.48 78.68 630.2 78.38 629.92 78.08 629.65 77.78 629.37 77.48 629.1 77.18 628.82 76.85 628.52 76.5 628.18 76.15 627.85 75.8 627.51 75.45 627.17 75.1 626.83 74.74 626.49 74.39 626.15 74.04 625.81 73.7 625.46 73.35 625.12 73.01 624.77 72.66 624.41 72.36 624.01 77.15 621.07 81.98 618.09 86.5 615.57 89.71 614.99 92.9 614.44 96.08 613.87 99.25 613.23 102.42 612.59 105.59 612.02 108.79 611.58 111.99 611.14 115.18 610.67 118.36 610.18 121.55 609.68 124.72 609.11 127.89 608.48 131.05 607.84 134.23 607.3 137.42 606.81 140.6 606.32 143.8 605.88 146.99 605.45 150.19 605.02 153.39 604.57 156.58 604.11 159.77 603.65 162.96 603.19 166.16 602.74 169.35 602.28 172.54 601.81 175.73 601.34 178.92 600.84 182.07 600.17 185.23 599.5 188.38 598.84 191.56 598.29 194.73 597.73 197.91 597.2 201.11 596.75 204.3 596.29 207.49 595.83 210.69 595.38 213.88 594.92 217.08 594.51 220.28 594.17 223.49 593.82 226.7 593.51 229.91 593.23 233.12 592.94 236.32 592.53 239.51 592.04 242.69 591.55 245.88 591.06 249.07 590.57 252.26 590.08 255.45 589.59 258.64 589.1 261.82 588.61 265.01 588.12 268.2 587.63 271.39 587.15 274.6 586.86 277.81 586.58 280.58 586.36 280.53 586.91 280.53 587.48 280.53 588.06 280.54 588.63 280.55 589.2 280.56 589.77 280.57 590.34 280.58 590.91 280.59 591.48 280.59 592.05 280.6 592.62 280.61 593.19 280.62 593.76 280.63 594.33 280.64 594.9 280.65 595.47 280.66 596.04 280.67 596.61 280.68 597.18 280.69 597.75 280.7 598.32 280.7 598.89 280.71 599.46 280.72 600.03 280.73 600.61 280.74 601.18 280.75 601.75 280.76 602.32 280.77 602.89 280.78 603.46 280.79 604.03 280.8 604.6 280.81 605.17 280.82 605.74 280.83 606.31 280.83 606.88 280.84 607.45 280.85 608.02 280.86 608.59 280.87 609.16 280.88 609.73 280.89 610.3 280.9 610.87 280.91 611.44 280.92 612.01 280.93 612.58 280.94 613.15 280.95 613.72 280.96 614.29 280.97 614.86 280.97 615.43 280.98 616 280.98 616.57 280.98 617.14 280.98 617.71 280.98 618.28 280.98 618.85 280.98 619.42 280.98 619.99 280.98 620.56 280.98 621.13 280.98 621.7 280.98 622.27 280.98 622.84 280.98 623.41 280.98 623.98 280.98 624.56 280.98 625.13 280.98 625.7 280.98 626.27 280.98 626.84 280.98 627.41 280.98 627.98 280.98 628.55 280.98 629.12 280.98 629.69 280.99 630.26 280.99 630.83 280.99 631.4 280.99 631.97 280.99 632.54 280.99 633.11 280.99 633.68 280.99 634.25 280.99 634.82 280.99 635.39 280.99 635.96 280.99 636.53 280.99 637.1 280.99 637.67 280.99 638.24 280.99 638.81 280.99 639.38 280.99 639.95 280.99 640.52 280.99 641.09 280.99 641.66 280.99 642.23 280.99 642.8 280.99 643.37 280.99 643.94 281 644.51 281 645.08 281 645.65 281 646.22 281 646.79 281 647.36 281 647.93 281 648.5 281 649.07 281 649.64 281 650.21 281 650.78 281 651.35 281 651.92 281 652.49 281 653.06 281 653.63 281 654.2 281 654.77 281 655.34 281 655.91 281 656.48 281 657.05 281 657.62 281.01 658.19 281.01 658.76 281.01 659.33 281.01 659.9 281.01 660.47 281.01 661.04 281.01 661.61 281.01 662.18 281.01 662.75 281.01 663.32 281.01 663.89 281.01 664.46 281.01 665.03 281.01 665.6 281.01 666.17 281.01 666.74 281.01 667.31 281.01 667.88 281.01 668.45 281.01 669.02 281.01 669.59 281.01 670.16 281.01 670.74 281.02 671.31 281.02 671.88 281.02 672.45 281.02 673.02 281.02 673.59 281.02 674.16 281.02 674.73 281.02 675.3 281.02 675.87 281.02 676.44 281.02 677.01 281.02 677.58 281.02 678.15 281.02 678.72 281.02 679.29 281.02 679.86 281.02 680.43 281.02 681 281.02 681.57 281.02 682.14 281.02 682.71 281.02 683.28 281.02 683.85 281.03 684.42 281.03 684.99 281.03 685.56 281.03 686.13 281.03 686.7 281.03 687.27 281.03 687.84 281.03 688.41 281.03 688.98 281.03 689.55 281.03 690.12 281.03 690.69 281.03 691.26 281.03 691.83 281.03 692.4 281.03 692.97 281.03 693.54 281.03 694.11 281.03 694.68 281.03 695.25 281.03 695.82 281.03 696.39 281.03 696.96 281.03 697.53 281.04 698.1 281.04 698.67 281.04 699.24 281.04 699.81 281.04 700.38 281.04 700.95 281.04 701.52 281.04 702.09 281.04 702.66 281.04 703.23 281.04 703.8 281.04 704.37 281.04 704.94 281.04 705.51 281.04 706.08 281.04 706.65 281.04 707.22 281.04 707.79 281.04 708.36 281.04 708.93 281.04 709.5 281.04 710.07 281.04 710.64 281.04 711.21 281.04 711.78 281.05 712.35 281.05 712.92 281.05 713.49 281.05 714.06 281.05 714.63 281.05 715.21 281.05 715.78 281.05 716.35 281.05 716.92 281.05 717.49 281.05 718.06 281.05 718.63 281.05 719.2 281.05 719.77 281.05 720.34 281.05 720.91 281.05 721.48 281.05 722.05 281.05 722.62 281.05 723.19 281.05 723.76 281.05 724.33 281.05 724.9 281.05 725.47 281.05 726.04 281.05 726.61 281.05 727.18 281.06 727.75 281.06 728.32 281.06 728.89 281.06 729.46 281.06 730.03 281.06 730.6 281.06 731.18 281.07 731.75 280.8 732.11 280.8 732.11 280.8 732.11M397.78 573.25Q401.64 572.89 405.39 572.52 409.13 572.14 412.77 571.71 416.38 571.15 419.9 570.69 423.44 570.39 426.89 570.2 430.34 570.02 433.69 569.9 437.04 569.78 440.29 569.73 443.54 569.67 446.69 569.67 449.84 569.68 452.89 569.75 455.94 569.83 458.83 569.97 461.72 570.12 464.45 570.33 467.17 570.54 469.73 570.8 472.3 571.05 474.69 571.36 477.09 571.67 479.33 572.03 481.56 572.39 483.63 572.8 485.71 573.22 487.61 573.69 489.52 574.16 491.27 574.69 493.01 575.22 494.54 575.78 496.07 576.36 497.39 576.97 498.71 577.58 499.81 578.23 500.91 578.89 501.79 579.58 502.68 580.27 503.35 581 504.02 581.74 504.47 582.5 504.92 583.27 505.1 584.08 504.9 584.92 504.93 585.76 504.93 585.76 504.93 585.76 504.95 586.61 505.18 587.44 505.07 588.28 504.67 589.11 504.27 589.95 503.65 590.77 503.04 591.59 502.21 592.4 501.38 593.21 500.34 594 499.3 594.8 498.04 595.58 496.79 596.36 495.32 597.13 493.85 597.89 492.17 598.64 490.48 599.4 488.62 600.12 486.76 600.84 484.72 601.54 482.68 602.23 480.46 602.9 478.25 603.56 475.86 604.2 473.46 604.84 470.9 605.45 468.33 606.06 465.59 606.64 462.84 607.22 459.93 607.77 457.01 608.32 453.92 608.85 450.83 609.37 447.64 609.86 444.45 610.34 441.17 610.79 437.89 611.23 434.5 611.64 431.12 612.04 427.64 612.41 424.16 612.77 420.59 613.1 417.01 613.43 413.34 613.72 409.67 614.01 405.9 614.26 402.13 614.52 398.26 614.74 398.26 614.74 398.26 614.74 394.32 614.96 390.5 615.13 386.67 615.31 382.96 615.44 379.24 615.57 375.64 615.65 372.04 615.73 368.54 615.77 365.05 615.81 361.67 615.81 358.28 615.81 355.01 615.76 351.74 615.71 348.57 615.63 345.41 615.54 342.36 615.41 339.31 615.28 336.42 615.11 333.54 614.95 330.82 614.75 328.09 614.55 325.54 614.31 322.98 614.08 320.59 613.81 318.2 613.54 315.98 613.23 313.76 612.93 311.7 612.59 309.64 612.25 307.75 611.87 305.85 611.5 304.12 611.09 302.4 610.68 300.89 610.24 299.38 609.81 298.09 609.34 296.8 608.88 295.72 608.38 294.64 607.89 293.78 607.36 292.92 606.84 292.27 606.29 291.62 605.73 291.19 605.15 290.76 604.56 290.55 603.95 290.33 603.33 290.33 602.68 290.33 602.68 290.33 602.68 290.33 602.05 290.55 601.41 290.76 600.78 291.19 600.15 291.62 599.52 292.27 598.88 292.91 598.25 293.78 597.62 294.64 596.98 295.71 596.35 296.79 595.71 298.08 595.07 299.37 594.42 300.87 593.77 302.38 593.12 304.1 592.46 305.82 591.79 307.71 591.13 309.59 590.46 311.65 589.79 313.69 589.12 315.91 588.45 318.12 587.77 320.5 587.09 322.87 586.41 325.41 585.72 327.95 585.03 330.66 584.36 333.36 583.67 336.23 583.01 339.1 582.33 342.14 581.67 345.17 580.99 348.31 580.32 351.44 579.63 354.69 578.95 357.94 578.29 361.3 577.7 364.67 577.14 368.15 576.64 371.63 576.15 375.23 575.69 378.82 575.23 382.52 574.81 386.23 574.39 390.04 574 393.86 573.61 397.78 573.25 397.78 573.25 397.78 573.25 397.78 573.25 397.78 573.25M497.25 761.61Q494.22 761.56 491.18 761.5 488.13 761.43 485.08 761.35 482.03 761.26 478.98 761.16 475.92 761.05 472.86 760.93 469.79 760.81 466.72 760.67 463.65 760.52 460.58 760.36 457.5 760.19 454.42 760.01 451.33 759.82 448.25 759.62 445.16 759.41 442.35 759.21 439.72 759.01 436.84 758.79 433.78 758.54 430.71 758.28 427.63 758.01 424.56 757.74 421.48 757.45 418.39 757.15 415.31 756.83 412.22 756.51 409.13 756.18 406.04 755.84 402.94 755.48 400.01 755.13 397.25 754.8 394.49 754.46 391.75 754.11 388.85 753.73 385.77 753.31 382.68 752.89 379.59 752.45 376.5 752 373.4 751.54 370.31 751.07 367.21 750.58 364.1 750.09 361 749.58 358.05 749.08 355.35 748.62 352.51 748.13 349.41 747.57 346.46 747.04 343.78 746.54 340.97 746.01 337.87 745.41 334.77 744.81 331.66 744.18 328.56 743.55 325.45 742.9 322.35 742.24 319.24 741.56 316.25 740.91 313.6 740.31 310.84 739.68 307.74 738.95 304.74 738.25 304.87 737.23 304.86 736.16 304.8 735.16 304.74 734.22 304.67 733.3 304.59 732.4 304.5 731.51 304.42 730.63 304.33 729.76 304.24 728.89 304.15 728.02 304.06 727.16 303.97 726.3 303.88 725.45 303.78 724.59 303.69 723.74 303.6 722.89 303.5 722.03 303.41 721.18 303.31 720.33 303.22 719.49 303.13 718.64 303.03 717.79 302.94 716.94 302.84 716.1 302.75 715.25 302.66 714.41 302.56 713.56 302.47 712.72 302.38 711.87 302.29 711.03 302.2 710.19 302.11 709.34 302.02 708.5 301.95 707.66 301.88 706.81 301.83 705.97 301.8 705.13 301.78 704.29 301.77 703.44 301.76 702.6 301.75 701.76 301.75 700.92 301.74 700.08 301.74 699.24 301.74 698.39 301.74 697.55 301.73 696.71 301.73 695.87 301.73 695.03 301.73 694.19 301.73 693.35 301.73 692.51 301.73 691.67 301.72 690.82 301.72 689.98 301.72 689.14 301.72 688.3 301.72 687.46 301.72 686.62 301.72 685.78 301.72 684.94 301.72 684.1 301.72 683.26 301.72 682.42 301.72 681.58 301.72 680.74 301.71 679.9 301.71 679.06 301.71 678.22 301.71 677.38 301.71 676.53 301.71 675.69 301.71 674.85 301.71 674.01 301.71 673.17 301.71 672.33 301.71 671.49 301.71 670.65 301.71 669.81 301.71 668.97 301.71 668.13 301.71 667.29 301.71 666.45 301.71 665.61 301.71 664.77 301.71 663.93 301.71 663.09 301.71 662.25 301.71 661.41 301.71 660.57 301.71 659.73 301.71 658.89 301.71 658.05 301.7 657.21 301.7 656.37 301.7 655.53 301.7 654.69 301.7 653.85 301.7 653.01 301.7 652.17 301.7 651.33 301.7 650.49 301.7 649.65 301.7 648.81 301.7 647.97 301.7 647.13 301.7 646.29 301.7 645.45 301.7 644.61 301.7 643.77 301.7 642.93 301.7 642.09 301.7 641.25 301.7 640.41 301.7 639.57 301.7 638.73 301.7 637.89 301.7 637.05 301.7 636.22 301.7 635.38 301.7 634.54 301.7 633.7 301.7 632.86 301.7 632.02 301.69 631.18 301.69 630.34 301.69 629.5 304.75 629.4 307.8 629.29 310.85 629.19 313.9 629.08 316.96 628.97 320.01 628.86 323.06 628.75 326.11 628.64 329.17 628.53 332.22 628.42 335.27 628.3 338.33 628.19 341.38 628.07 344.43 627.96 347.48 627.84 350.54 627.72 353.59 627.6 356.64 627.48 359.7 627.36 362.75 627.24 365.8 627.12 368.86 627 371.91 626.87 374.97 626.75 378.02 626.63 381.07 626.5 384.13 626.38 387.18 626.25 390.24 626.13 393.29 626.01 396.35 625.88 399.4 625.76 402.45 625.63 405.51 625.51 408.56 625.38 411.62 625.26 414.67 625.13 417.73 625.01 420.79 624.89 423.84 624.76 426.9 624.64 429.95 624.52 433.01 624.4 436.07 624.28 439.12 624.16 442.18 624.04 445.23 623.92 448.29 623.8 451.35 623.68 454.4 623.56 457.46 623.44 460.52 623.33 463.57 623.21 466.63 623.1 469.69 622.99 472.74 622.87 475.8 622.76 478.86 622.65 481.92 622.54 484.97 622.44 488.03 622.33 491.09 622.22 494.14 622.12 497.2 622.02 497.2 623.1 497.2 624.19 497.2 625.27 497.2 626.36 497.2 627.44 497.2 628.53 497.2 629.62 497.2 630.7 497.2 631.79 497.2 632.87 497.2 633.96 497.2 635.04 497.2 636.13 497.2 637.22 497.2 638.3 497.2 639.39 497.2 640.47 497.2 641.56 497.2 642.64 497.2 643.73 497.2 644.81 497.2 645.9 497.2 646.99 497.2 648.07 497.2 649.16 497.2 650.24 497.21 651.33 497.21 652.41 497.21 653.5 497.21 654.58 497.21 655.67 497.21 656.75 497.21 657.84 497.21 658.93 497.21 660.01 497.21 661.1 497.21 662.18 497.21 663.27 497.21 664.35 497.21 665.44 497.21 666.52 497.21 667.61 497.21 668.7 497.21 669.78 497.21 670.87 497.21 671.95 497.21 673.04 497.21 674.12 497.21 675.21 497.21 676.3 497.21 677.38 497.21 678.47 497.21 679.55 497.21 680.64 497.21 681.72 497.21 682.81 497.21 683.9 497.21 684.98 497.21 686.07 497.22 687.15 497.22 688.24 497.22 689.33 497.22 690.41 497.22 691.5 497.22 692.58 497.22 693.67 497.22 694.76 497.22 695.84 497.22 696.93 497.22 698.02 497.22 699.1 497.22 700.19 497.22 701.28 497.22 702.36 497.22 703.45 497.22 704.54 497.22 705.62 497.23 706.71 497.23 707.8 497.23 708.89 497.23 709.97 497.23 711.06 497.23 712.15 497.23 713.24 497.23 714.33 497.23 715.41 497.23 716.5 497.23 717.59 497.23 718.68 497.23 719.77 497.24 720.86 497.24 721.95 497.24 723.03 497.24 724.12 497.24 725.21 497.24 726.3 497.24 727.39 497.24 728.48 497.24 729.58 497.24 730.67 497.24 731.76 497.24 732.85 497.24 733.94 497.25 735.03 497.25 736.13 497.25 737.22 497.25 738.31 497.25 739.41 497.25 740.5 497.25 741.6 497.25 742.7 497.25 743.79 497.25 744.89 497.25 745.99 497.25 747.09 497.25 748.19 497.25 749.29 497.25 750.39 497.25 751.5 497.25 752.61 497.25 753.72 497.25 754.83 497.25 755.94 497.25 757.07 497.25 758.2 497.25 759.34 497.26 760.52 497.25 761.61 497.25 761.61 497.25 761.61M513.97 659.84Q513.97 658.05 514.02 656.28 514.07 654.52 514.17 652.77 514.26 651.02 514.41 649.29 514.56 647.56 514.75 645.85 514.95 644.13 515.19 642.44 515.43 640.75 515.73 639.07 516.02 637.4 516.36 635.74 516.7 634.09 517.09 632.45 517.48 630.81 517.91 629.19 518.35 627.58 518.84 625.98 519.32 624.38 519.86 622.79 520.39 621.21 520.98 619.65 521.56 618.08 522.19 616.54 522.82 615 523.5 613.47 524.18 611.94 524.9 610.44 525.63 608.93 526.4 607.44 527.18 605.95 528 604.49 528.82 603.04 529.69 601.61 530.55 600.19 531.47 598.8 532.38 597.41 533.34 596.05 534.3 594.69 535.3 593.36 536.3 592.04 537.35 590.75 538.4 589.46 539.5 588.2 540.59 586.94 541.73 585.71 542.87 584.49 544.06 583.29 545.24 582.1 546.47 580.94 547.7 579.79 548.98 578.66 550.26 577.54 551.58 576.44 552.9 575.35 554.27 574.29 555.63 573.23 557.05 572.21 558.46 571.18 559.92 570.19 561.38 569.2 562.88 568.23 564.38 567.27 565.93 566.36 567.47 565.44 569.05 564.57 570.63 563.7 572.25 562.87 573.87 562.05 575.53 561.26 577.18 560.47 578.88 559.73 580.57 558.98 582.31 558.28 584.04 557.58 585.82 556.92 587.59 556.26 589.4 555.64 591.22 555.03 593.07 554.46 594.92 553.88 596.81 553.36 598.7 552.83 600.63 552.34 602.56 551.86 604.53 551.42 606.5 550.98 608.5 550.58 610.51 550.19 612.56 549.83 614.6 549.48 616.69 549.17 617.73 549 618.78 548.84 619.83 548.68 620.89 548.54 620.89 548.54 620.89 548.54 621.97 548.39 623.03 548.25 624.09 548.12 625.15 548 626.2 547.88 627.25 547.78 628.29 547.68 629.33 547.59 631.39 547.42 633.42 547.29 635.45 547.13 637.41 546.93 639.38 546.73 641.31 546.58 643.24 546.44 645.13 546.38 647.02 546.33 648.88 546.34 650.74 546.35 652.56 546.42 654.38 546.5 656.17 546.63 657.95 546.76 659.69 546.93 661.43 547.1 663.13 547.31 664.83 547.52 666.49 547.78 668.16 548.04 669.78 548.36 671.41 548.69 672.99 549.06 674.58 549.44 676.13 549.87 677.68 550.3 679.19 550.77 680.7 551.25 682.17 551.77 683.64 552.29 685.06 552.85 686.49 553.42 687.88 554.03 689.26 554.64 690.61 555.31 691.96 555.97 693.26 556.69 694.57 557.4 695.84 558.17 697.11 558.94 698.34 559.77 699.57 560.6 700.76 561.47 701.96 562.36 703.11 563.29 704.27 564.23 705.38 565.22 706.49 566.21 707.57 567.25 708.64 568.3 709.67 569.4 710.7 570.5 711.68 571.65 712.66 572.8 713.59 574 714.52 575.2 715.4 576.45 716.28 577.71 717.1 579.01 717.92 580.31 718.68 581.65 719.44 582.99 720.15 584.37 720.85 585.74 721.5 587.16 722.15 588.57 722.74 590.02 723.33 591.47 723.88 592.95 724.42 594.44 724.91 595.96 725.4 597.48 725.84 599.03 726.28 600.59 726.68 602.18 727.07 603.77 727.41 605.39 727.75 607.02 728.04 608.68 728.34 610.34 728.58 612.03 728.82 613.73 729.02 615.46 729.21 617.19 729.36 618.95 729.5 620.72 729.6 622.51 729.7 624.31 729.65 626.16 729.6 628.01 729.6 629.88 729.6 629.88 729.6 629.88 729.6 630.85 729.6 631.82 729.6 632.8 729.6 633.77 729.6 635.64 729.65 637.47 729.7 639.31 729.6 641.14 729.5 642.97 729.36 644.78 729.21 646.59 729.02 648.38 728.83 650.17 728.59 651.95 728.34 653.72 728.06 655.47 727.77 657.23 727.43 658.96 727.09 660.7 726.71 662.42 726.32 664.14 725.89 665.83 725.46 667.53 724.98 669.21 724.5 670.9 723.97 672.56 723.44 674.22 722.87 675.87 722.29 677.51 721.67 679.14 721.05 680.77 720.38 682.37 719.71 683.99 719 685.58 718.28 687.17 717.52 688.75 716.76 690.32 715.95 691.87 715.15 693.42 714.3 694.94 713.45 696.46 712.55 697.96 711.66 699.45 710.73 700.92 709.79 702.38 708.81 703.82 707.84 705.27 706.82 706.68 705.8 708.1 704.73 709.49 703.67 710.88 702.57 712.25 701.46 713.61 700.32 714.95 699.17 716.3 697.98 717.61 696.79 718.93 695.56 720.22 694.32 721.51 693.04 722.78 691.77 724.04 690.44 725.28 689.12 726.52 687.75 727.72 686.38 728.93 684.97 730.1 683.56 731.28 682.11 732.42 680.66 733.56 679.17 734.65 677.68 735.74 676.14 736.78 674.6 737.82 673.02 738.81 671.45 739.8 669.84 740.74 668.24 741.67 666.61 742.55 664.99 743.42 663.33 744.25 661.65 745.07 659.89 745.85 658.12 746.62 656.29 747.35 654.46 748.07 652.57 748.74 650.69 749.41 648.76 750.02 646.84 750.63 644.87 751.19 642.9 751.74 640.89 752.24 638.88 752.73 636.83 753.17 634.79 753.61 632.75 753.98 630.89 754.33 629 754.55 628.05 754.64 627.09 754.75 626.12 754.85 625.15 754.97 625.15 754.97 625.15 754.97 624.18 755.09 623.22 755.22 622.25 755.35 621.2 755.5 619.06 755.76 616.96 755.89 614.85 756.02 612.79 756.08 610.73 756.14 608.71 756.13 606.68 756.12 604.7 756.05 602.72 755.97 600.78 755.83 598.84 755.69 596.94 755.48 595.04 755.27 593.19 755 591.34 754.73 589.55 754.39 587.77 754.05 586.05 753.65 584.36 753.24 582.71 752.78 581.04 752.31 579.4 751.78 577.73 751.25 576.08 750.67 574.42 750.08 572.79 749.44 571.16 748.8 569.56 748.1 567.95 747.4 566.38 746.64 564.81 745.89 563.29 745.09 561.76 744.3 560.27 743.46 558.79 742.62 557.34 741.75 555.9 740.87 554.5 739.96 553.09 739.05 551.73 738.11 550.37 737.16 549.05 736.18 547.72 735.2 546.44 734.19 545.16 733.18 543.92 732.14 542.67 731.1 541.47 730.02 540.27 728.94 539.11 727.83 537.95 726.73 536.83 725.58 535.72 724.45 534.65 723.27 533.57 722.09 532.55 720.88 531.53 719.67 530.56 718.43 529.59 717.18 528.68 715.9 527.77 714.62 526.92 713.3 526.08 711.98 525.29 710.63 524.51 709.28 523.79 707.9 523.07 706.53 522.4 705.13 521.74 703.72 521.13 702.29 520.53 700.86 519.97 699.4 519.42 697.94 518.92 696.45 518.42 694.96 517.97 693.44 517.53 691.91 517.13 690.36 516.73 688.81 516.39 687.23 516.04 685.65 515.74 684.04 515.45 682.43 515.2 680.79 514.95 679.14 514.76 677.47 514.56 675.8 514.41 674.09 514.26 672.39 514.17 670.65 514.07 668.92 514.02 667.15 513.97 665.39 513.97 663.59 513.97 663.59 513.97 663.59 513.97 662.65 513.97 661.71 513.97 660.78 513.97 659.84 513.97 659.84 513.97 659.84M587.92 654.97Q587.94 656.39 587.99 657.77 588.04 659.15 588.12 660.49 588.2 661.83 588.3 663.12 588.41 664.41 588.55 665.66 588.69 666.92 588.86 668.12 589.02 669.33 589.22 670.5 589.42 671.66 589.64 672.78 589.87 673.91 590.13 674.98 590.38 676.06 590.67 677.1 590.95 678.13 591.26 679.13 591.58 680.12 591.92 681.07 592.26 682.02 592.63 682.92 593 683.83 593.4 684.69 593.81 685.55 594.23 686.37 595.09 688.01 596.06 689.47 597.04 690.93 598.19 692.18 599.35 693.43 600.69 694.46 602.04 695.49 603.56 696.31 605.09 697.12 606.8 697.72 608.51 698.31 610.41 698.68 612.3 699.05 614.37 699.2 615.41 699.27 616.5 699.29 617.58 699.3 618.71 699.26 619.84 699.22 621.01 699.12 622.19 699.02 623.41 698.87 623.41 698.87 623.41 698.87 624.59 698.71 625.73 698.51 626.86 698.31 627.95 698.07 629.04 697.82 630.09 697.53 631.13 697.24 632.13 696.91 634.13 696.23 635.94 695.37 637.76 694.52 639.39 693.48 641.03 692.44 642.48 691.23 643.93 690.01 645.21 688.62 646.48 687.23 647.57 685.66 648.67 684.1 649.58 682.36 650.5 680.62 651.29 678.74 651.69 677.8 652.06 676.82 652.43 675.85 652.76 674.84 653.1 673.82 653.41 672.78 653.72 671.73 654 670.65 654.28 669.56 654.53 668.44 654.78 667.33 655 666.17 655.22 665.02 655.41 663.83 655.6 662.64 655.76 661.42 655.92 660.19 656.05 658.94 656.19 657.68 656.29 656.38 656.39 655.09 656.46 653.76 656.53 652.43 656.57 651.07 656.62 649.71 656.63 648.31 656.64 646.91 656.62 645.48 656.62 645.48 656.62 645.48 656.61 644.51 656.6 643.55 656.58 642.58 656.57 641.61 656.55 640.2 656.51 638.84 656.46 637.48 656.39 636.16 656.31 634.84 656.2 633.57 656.1 632.3 655.96 631.07 655.83 629.83 655.67 628.65 655.5 627.46 655.31 626.32 655.12 625.17 654.9 624.07 654.67 622.97 654.42 621.92 654.17 620.86 653.89 619.85 653.61 618.84 653.3 617.86 652.99 616.9 652.65 615.97 652.31 615.04 651.95 614.16 651.58 613.28 651.18 612.43 650.79 611.59 650.36 610.8 649.51 609.2 648.54 607.78 647.57 606.35 646.42 605.16 645.28 603.96 643.94 603 642.61 602.03 641.1 601.28 639.59 600.54 637.9 600.02 636.2 599.5 634.33 599.2 632.46 598.9 630.4 598.83 629.37 598.79 628.3 598.8 627.22 598.82 626.11 598.89 624.99 598.96 623.82 599.08 622.66 599.2 621.45 599.38 621.45 599.38 621.45 599.38 620.26 599.55 619.12 599.77 617.98 599.98 616.88 600.24 615.79 600.49 614.74 600.79 613.69 601.09 612.68 601.43 610.67 602.1 608.84 602.95 607.01 603.79 605.36 604.81 603.71 605.82 602.24 607 600.77 608.18 599.48 609.54 598.19 610.89 597.08 612.42 595.98 613.94 595.05 615.64 594.12 617.34 593.31 619.16 592.9 620.08 592.53 621.02 592.15 621.97 591.81 622.95 591.46 623.93 591.15 624.94 590.83 625.95 590.55 626.99 590.26 628.03 590 629.11 589.75 630.18 589.52 631.29 589.3 632.4 589.1 633.54 588.91 634.68 588.75 635.86 588.58 637.03 588.45 638.24 588.31 639.45 588.21 640.69 588.1 641.93 588.03 643.2 587.96 644.48 587.91 645.78 587.87 647.09 587.86 648.43 587.85 649.77 587.87 651.15 587.87 651.15 587.87 651.15 587.88 652.1 587.89 653.06 587.9 654.01 587.92 654.97 587.92 654.97 587.92 654.97M887 456.02Q889.12 454.61 891.16 453.27 893.21 451.93 895.23 450.7 897.26 449.5 899.28 448.43 901.3 447.36 903.29 446.39 905.27 445.4 907.2 444.5 909.16 443.6 911.1 442.83 913.07 442.08 915.04 441.46 917.03 440.84 919.02 440.34 921.04 439.83 923.05 439.43 925.11 439.03 927.18 438.74 929.31 438.45 931.47 438.29 933.7 438.13 935.99 438.1 938.36 438.07 940.8 438.17 943.32 438.29 945.92 438.53 948.6 438.79 951.34 439.17 954.15 439.57 956.99 440.1 959.86 440.63 962.71 441.32 965.57 442.02 968.36 442.88 971.12 443.73 973.79 444.74 976.42 445.76 978.93 446.92 981.4 448.09 983.74 449.42 986.03 450.75 988.2 452.23 990.32 453.72 992.3 455.37 993.27 456.19 994.21 457.05 995.14 457.91 996.03 458.81 996.91 459.7 997.75 460.62 998.57 461.52 999.35 462.43 1000.11 463.33 1000.84 464.25 1001.55 465.17 1002.23 466.15 1002.91 467.18 1003.57 468.29 1004.22 469.42 1004.84 470.6 1005.44 471.79 1006 473.03 1006.55 474.27 1007.07 475.55 1007.58 476.83 1008.03 478.16 1008.46 479.48 1008.86 480.85 1009.27 482.22 1009.61 483.63 1009.92 485.05 1010.2 486.5 1010.49 487.96 1010.72 489.52 1010.91 491.17 1010.97 492.89 1011.02 494.62 1011.06 496.24 1011.06 497.69 1011.08 499.14 1011.08 499.14 1011.08 499.14 1011.1 500.21 1011.12 501.27 1011.1 502.33 1011.07 503.4 1011.05 504.46 1011.03 505.53 1011 506.59 1010.93 507.84 1010.84 509.15 1010.76 510.46 1010.67 511.76 1010.58 513.07 1010.47 514.31 1010.33 515.48 1010.2 516.66 1010.07 517.83 1009.93 519.01 1009.78 520.18 1009.6 521.35 1009.41 522.52 1009.22 523.68 1009.04 524.85 1008.85 526.02 1008.61 527.18 1008.37 528.34 1008.14 529.5 1007.9 530.67 1007.66 531.83 1007.38 532.98 1007.1 534.13 1006.81 535.29 1006.52 536.44 1006.23 537.59 1005.95 538.63 1005.68 539.56 1005.41 540.5 1005.13 541.44 1004.86 542.37 1004.56 543.36 1004.19 544.47 1003.82 545.57 1003.45 546.68 1003.09 547.78 1002.72 548.89 1002.3 549.98 1001.89 551.08 1001.48 552.17 1001.06 553.27 1000.65 554.37 1000.2 555.45 999.74 556.54 999.29 557.62 998.83 558.71 998.37 559.79 997.89 560.87 997.39 561.94 996.89 563.01 996.38 564.09 995.88 565.16 995.37 566.23 994.82 567.29 994.28 568.35 993.74 569.41 993.19 570.47 992.65 571.53 992.06 572.57 991.48 573.62 990.89 574.67 990.31 575.71 989.72 576.76 989.11 577.8 988.48 578.83 987.86 579.86 987.23 580.9 986.61 581.93 985.96 582.95 985.3 583.97 984.63 584.99 983.97 586.01 983.3 587.03 982.68 587.98 982.13 588.77 981.58 589.56 981.03 590.35 980.48 591.14 979.92 591.95 979.2 592.93 978.48 593.91 977.77 594.89 977.05 595.87 976.33 596.84 975.58 597.81 974.83 598.78 974.07 599.74 973.32 600.7 972.56 601.67 971.79 602.62 971.01 603.57 970.22 604.52 969.43 605.47 968.65 606.42 967.89 607.32 967.18 608.13 966.48 608.94 965.77 609.75 965.06 610.55 964.35 611.37 963.51 612.28 962.67 613.2 961.83 614.11 961 615.02 960.16 615.93 959.4 616.72 958.67 617.49 957.93 618.25 957.2 619.02 956.46 619.78 955.64 620.61 954.75 621.49 953.87 622.37 952.99 623.24 952.1 624.12 951.26 624.94 950.5 625.66 949.74 626.39 948.99 627.11 948.24 627.82 947.48 628.37 946.71 629.24 945.64 630.21 944.57 631.18 943.5 632.16 942.41 633.13 941.31 634.08 940.21 635.04 939.11 635.99 938.02 636.95 937.07 637.75 936.15 638.51 935.23 639.28 934.31 640.05 933.32 640.87 932.19 641.78 931.05 642.7 929.91 643.61 928.77 644.53 927.8 645.29 926.87 646.01 925.93 646.74 925 647.46 924 648.23 922.83 649.1 921.66 649.98 920.49 650.86 919.32 651.73 918.13 652.59 916.94 653.45 915.74 654.31 914.55 655.17 913.41 655.98 912.46 656.64 911.51 657.3 910.56 657.96 909.61 658.62 908.48 659.4 907.26 660.22 906.04 661.04 904.82 661.86 903.62 662.66 902.53 663.37 901.43 664.08 900.34 664.79 899.24 665.5 898.14 666.2 897.04 666.89 895.94 667.59 894.84 668.28 893.72 668.98 892.47 669.75 891.21 670.51 889.95 671.28 888.7 672.04 887.52 672.74 886.41 673.4 885.29 674.05 884.18 674.71 883.06 675.37 881.94 676.01 880.82 676.65 879.71 677.29 878.59 677.92 877.38 678.6 877.47 677.69 877.57 676.57 877.68 675.44 877.81 674.31 877.94 673.16 878.08 672.02 878.23 670.87 878.37 669.72 878.53 668.56 878.68 667.41 878.84 666.26 879 665.11 879.16 663.96 879.32 662.81 879.49 661.66 879.66 660.52 879.83 659.37 880.01 658.23 880.19 657.09 880.37 655.95 880.55 654.82 880.73 653.68 880.92 652.55 881.11 651.42 881.3 650.29 881.49 649.17 881.69 648.04 881.88 646.92 882.08 645.81 882.28 644.69 882.48 643.57 882.69 642.46 882.89 641.35 883.1 640.24 883.3 639.13 883.51 638.03 883.72 636.93 883.93 635.83 884.14 634.73 884.35 633.63 884.57 632.53 884.78 631.44 884.99 630.35 885.2 629.25 885.42 628.16 885.63 627.08 885.84 625.99 886.06 624.9 886.27 623.82 886.48 622.73 886.69 621.65 886.9 620.57 887.11 619.49 887.32 618.41 887.53 617.33 887.74 616.26 887.94 615.18 888.15 614.11 888.35 613.03 888.55 611.96 888.75 610.89 888.95 609.81 889.15 608.74 889.35 607.67 889.54 606.6 889.73 605.53 889.92 604.46 890.11 603.39 890.29 602.33 890.48 601.26 890.66 600.19 890.84 599.12 891.01 598.06 891.19 596.99 891.36 595.93 891.53 594.86 891.69 593.8 891.85 592.73 892.01 591.67 892.17 590.6 892.32 589.54 892.48 588.48 892.62 587.41 892.77 586.35 892.91 585.29 893.05 584.22 893.18 583.16 893.31 582.1 893.44 581.04 893.57 579.98 893.69 578.91 893.81 577.85 893.92 576.79 894.03 575.73 894.14 574.67 894.24 573.61 894.34 572.55 894.44 571.49 894.53 570.43 894.62 569.37 894.7 568.31 894.78 567.25 894.86 566.19 894.93 565.13 895 564.08 895.06 563.02 895.12 561.96 895.18 560.9 895.23 559.85 895.27 558.79 895.32 557.73 895.36 556.68 895.39 555.62 895.42 554.56 895.45 553.51 895.47 552.45 895.49 551.4 895.5 550.35 895.51 549.29 895.52 548.24 895.52 547.19 895.52 546.14 895.51 545.09 895.49 544.04 895.48 542.99 895.46 541.94 895.43 540.89 895.4 539.84 895.35 538.4 895.23 537.07 895.1 535.74 894.89 534.53 894.68 533.32 894.4 532.23 894.11 531.13 893.75 530.15 893.39 529.17 892.96 528.31 892.53 527.45 892.03 526.7 891.03 525.21 889.77 524.18 888.52 523.15 887.05 522.48 885.59 521.81 883.93 521.5 882.28 521.19 880.43 521.24 878.59 521.28 876.55 521.67 874.53 522.07 872.21 522.72 869.91 523.38 867.32 524.3 866.02 524.76 864.66 525.29 863.3 525.81 861.86 526.4 860.43 526.98 858.93 527.63 857.43 528.28 855.86 528.99 855.86 528.99 855.86 528.99 854.48 529.62 853.15 530.27 851.82 530.91 850.54 531.58 847.98 532.92 845.62 534.34 843.26 535.75 841.08 537.26 838.91 538.76 836.92 540.36 834.94 541.95 833.13 543.63 831.33 545.32 829.7 547.1 828.07 548.87 826.63 550.75 825.18 552.62 823.9 554.6 823.9 554.6 823.9 554.6 823.93 555.71 823.95 556.82 823.96 557.94 823.98 559.05 824 560.17 824.01 561.29 824.02 562.41 824.03 563.53 824.04 564.65 824.05 565.78 824.06 566.9 824.07 568.03 824.07 569.16 824.07 570.28 824.08 571.41 824.08 572.54 824.08 573.68 824.07 574.81 824.07 575.94 824.06 577.08 824.06 578.21 824.05 579.35 824.04 580.49 824.03 581.63 824.02 582.77 824 583.91 823.99 585.05 823.97 586.19 823.95 587.33 823.93 588.48 823.91 589.62 823.89 590.77 823.87 591.92 823.84 593.07 823.81 594.21 823.79 595.36 823.76 596.51 823.73 597.67 823.7 598.82 823.66 599.97 823.63 601.13 823.59 602.28 823.56 603.44 823.52 604.6 823.48 605.75 823.44 606.91 823.4 608.07 823.35 609.23 823.31 610.39 823.26 611.56 823.22 612.72 823.17 613.89 823.12 615.05 823.07 616.22 823.02 617.39 822.97 618.56 822.92 619.73 822.86 620.9 822.81 622.07 822.75 623.24 822.69 624.42 822.64 625.59 822.58 626.77 822.52 627.95 822.46 629.13 822.4 630.31 822.33 631.49 822.27 632.68 822.21 633.86 822.14 635.05 822.08 636.24 822.01 637.42 821.95 638.62 821.88 639.81 821.81 641 821.74 642.2 821.67 643.4 821.6 644.6 821.53 645.8 821.46 647 821.39 648.2 821.32 649.41 821.25 650.62 821.18 651.83 821.11 653.04 821.03 654.26 820.96 655.47 820.89 656.69 820.81 657.91 820.74 659.14 820.66 660.36 820.59 661.59 820.51 662.82 820.44 664.05 820.36 665.29 820.29 666.53 820.21 667.77 820.14 669.01 820.06 670.25 819.99 671.5 819.91 672.75 819.84 674 819.76 675.26 819.69 676.52 819.61 677.78 819.54 679.04 819.46 680.31 819.39 681.58 819.31 682.85 819.24 684.12 819.16 685.39 819.09 686.67 819.01 687.95 818.94 689.23 818.86 690.52 818.79 691.8 818.72 693.09 818.64 694.37 818.57 695.66 818.5 696.95 818.43 698.24 818.36 699.52 818.28 700.81 818.21 702.09 818.14 703.37 818.07 704.65 817.98 705.93 817.91 707 816.56 707.55 815.21 708.08 813.86 708.62 812.51 709.16 811.16 709.69 809.99 710.15 808.83 710.59 807.68 711.04 806.53 711.48 805.3 711.95 803.94 712.46 802.58 712.97 801.22 713.48 799.87 713.99 798.68 714.42 797.52 714.84 796.37 715.26 795.21 715.68 794 716.12 792.63 716.6 791.27 717.09 789.91 717.57 788.54 718.05 787.34 718.47 786.18 718.86 785.02 719.26 783.87 719.66 782.66 720.07 781.29 720.52 779.93 720.98 778.56 721.43 777.19 721.89 775.96 722.29 774.8 722.66 773.65 723.04 772.49 723.41 771.3 723.79 769.93 724.22 768.55 724.65 767.18 725.08 765.81 725.51 764.44 725.94 763.06 726.35 761.69 726.77 760.32 727.18 758.96 727.59 757.79 727.94 756.63 728.28 755.47 728.62 754.3 728.96 753.03 729.33 751.65 729.72 750.28 730.12 748.9 730.51 747.53 730.9 746.36 731.22 745.19 731.54 744.03 731.87 742.86 732.19 741.6 732.53 740.22 732.9 738.84 733.27 737.47 733.64 736.16 734.01 736.07 732.57 736.06 730.97 736.04 729.36 736.03 727.76 736.02 726.15 736 724.54 735.99 722.94 735.98 721.33 735.96 719.73 735.95 718.12 735.94 716.51 735.93 714.91 735.91 713.3 735.9 711.7 735.89 710.09 735.87 708.48 735.86 706.88 735.85 705.27 735.84 703.67 735.82 702.06 735.81 700.45 735.8 698.85 735.78 697.24 735.77 695.64 735.76 694.03 735.75 692.42 735.74 690.82 735.74 689.21 735.74 687.61 735.74 686 735.74 684.39 735.74 682.79 735.74 681.18 735.74 679.58 735.74 677.97 735.74 676.36 735.74 674.76 735.74 673.15 735.74 671.55 735.74 669.94 735.74 668.33 735.74 666.73 735.74 665.12 735.74 663.52 735.74 661.91 735.74 660.3 735.74 658.7 735.74 657.09 735.75 655.49 735.75 653.88 735.75 652.27 735.75 650.67 735.75 649.06 735.75 647.46 735.75 645.85 735.75 644.24 735.75 642.64 735.75 641.03 735.75 639.43 735.75 637.82 735.75 636.22 735.75 634.61 735.75 633 735.75 631.4 735.75 629.79 735.75 628.19 735.75 626.58 735.75 624.97 735.75 623.37 735.75 621.76 735.75 620.16 735.75 618.55 735.75 616.94 735.75 615.34 735.75 613.73 735.75 612.13 735.75 610.52 735.75 608.91 735.75 607.31 735.75 605.7 735.75 604.1 735.75 602.49 735.75 600.88 735.75 599.28 735.75 597.67 735.75 596.07 735.75 594.46 735.75 592.86 735.75 591.25 735.75 589.64 735.75 588.04 735.75 586.43 735.75 584.83 735.75 583.22 735.75 581.61 735.75 580.01 735.75 578.4 735.75 576.8 735.75 575.19 735.75 573.58 735.75 571.98 735.75 570.37 735.75 568.77 735.75 567.16 735.75 565.55 735.75 563.95 735.75 562.34 735.75 560.74 735.75 559.13 735.75 557.53 735.75 555.92 735.75 554.31 735.75 552.71 735.75 551.1 735.75 549.5 735.75 547.89 735.75 546.28 735.75 544.68 735.75 543.07 735.75 541.47 735.75 539.86 735.75 538.26 735.75 536.65 735.75 535.04 735.75 533.44 735.75 531.83 735.75 530.23 735.75 528.62 737.05 528.16 738.34 527.72 739.63 527.29 740.92 526.88 742.2 526.46 743.49 526.05 744.77 525.64 746.05 525.23 747.32 524.82 748.6 524.4 749.87 523.98 751.14 523.55 752.41 523.12 753.67 522.68 754.94 522.23 756.19 521.77 757.45 521.32 758.71 520.86 759.96 520.4 761.22 519.95 762.49 519.51 763.75 519.08 765.02 518.66 766.3 518.24 767.57 517.82 768.84 517.4 770.11 516.97 771.37 516.52 772.62 516.06 773.87 515.58 775.11 515.09 776.36 514.6 777.6 514.1 778.84 513.61 780.09 513.13 781.34 512.65 782.59 512.17 783.84 511.7 785.1 511.23 786.35 510.76 787.6 510.27 788.84 509.78 790.08 509.26 791.31 508.74 792.54 508.2 793.77 507.66 794.99 507.12 796.22 506.58 797.45 506.04 798.68 505.51 799.91 504.98 801.14 504.45 802.37 503.93 803.61 503.41 804.84 502.89 806.08 502.38 807.31 501.87 808.54 501.36 809.78 500.85 811.01 500.33 812.23 499.81 813.46 499.28 814.67 498.74 815.88 498.18 816.14 499.42 816.39 500.67 816.65 501.93 816.91 503.19 817.16 504.45 817.41 505.72 817.67 506.99 817.92 508.26 818.17 509.54 818.42 510.81 818.67 512.1 818.92 513.38 819.16 514.67 819.41 515.96 819.66 517.26 819.9 518.56 820.68 517.41 821.48 516.27 822.28 515.14 823.1 514.02 823.92 512.89 824.75 511.78 825.59 510.68 826.44 509.58 827.3 508.49 828.17 507.4 829.04 506.32 829.93 505.25 830.82 504.18 831.73 503.12 832.63 502.06 833.56 501.02 834.49 499.97 835.43 498.93 836.37 497.89 837.34 496.87 838.3 495.84 839.28 494.82 840.26 493.8 841.25 492.79 842.25 491.78 843.26 490.78 844.28 489.78 845.31 488.78 846.34 487.78 847.39 486.79 848.43 485.8 849.5 484.82 850.56 483.83 851.63 482.86 852.7 481.89 853.79 480.92 854.87 479.95 855.97 479 857.06 478.04 858.17 477.09 859.28 476.13 860.4 475.18 861.52 474.23 862.65 473.3 863.78 472.36 864.94 471.44 866.09 470.52 867.26 469.63 868.43 468.73 869.63 467.85 870.82 466.97 872.03 466.11 873.24 465.25 874.47 464.4 875.7 463.56 876.95 462.73 878.19 461.9 879.46 461.09 880.72 460.27 881.96 459.41 883.2 458.54 884.46 457.7 885.72 456.85 887 456.02 887 456.02 887 456.02 887 456.02 887 456.02" class="warpedPath"></path></svg>