<svg id="svg_container" xmlns="http://www.w3.org/2000/svg" style="visibility: visible" class="edit-svg" viewBox="1.4466667175292969 -3.944000005722046 697.177001953125 702.7454223632812" width="702.177001953125px" height="707.7454223632812px">
        <defs>
            <linearGradient id="sampleGradient" gradientTransform="rotate(1)" x1="0%" y1="50%" x2="100%" y2="50%" gradientUnits="userSpaceOnUse">
                <stop offset="0%" id="first_color" stop-color="#f41d6d"></stop>
                <stop offset="100%" id="second_color" stop-color="#57a6c8"></stop>
            </linearGradient>
        </defs>
    <path fill="#b29e64" d="M167.1 337.87Q167.1 337.87 167.1 337.87 167.1 339.35 167.16 340.81 167.06 342.26 166.87 343.68 166.68 345.1 166.4 346.49 166.11 347.88 165.73 349.23 165.34 350.59 164.86 351.91 164.37 353.24 163.78 354.53 163.19 355.82 162.49 357.08 161.79 358.35 160.99 359.58 160.17 360.81 159.29 362.01 158.4 363.2 157.45 364.36 156.48 365.53 155.45 366.65 154.4 367.78 153.29 368.87 152.16 369.97 150.96 371.02 149.75 372.08 148.47 373.1 147.18 374.13 145.82 375.11 144.45 376.1 143 377.05 141.55 378 140.06 378.91 138.55 379.82 137.01 380.69 135.46 381.56 133.86 382.4 132.27 383.23 130.63 384.02 128.99 384.81 127.31 385.56 125.63 386.32 123.91 387.03 123.05 387.39 122.17 387.73 121.3 388.08 120.42 388.42 119.54 388.76 118.65 389.08 117.76 389.41 116.86 389.73 115.96 390.05 115.06 390.36 114.16 390.67 113.26 390.98 112.37 391.28 111.47 391.58 110.57 391.88 109.68 392.17 108.78 392.46 107.89 392.74 107 393.02 106.11 393.3 105.22 393.57 104.33 393.84 103.44 394.11 102.56 394.37 101.67 394.63 100.79 394.88 99.9 395.13 99.02 395.38 97.26 395.87 95.5 396.33 93.74 396.78 92 397.21 90.25 397.64 88.51 398.03 86.78 398.41 85.07 398.75 83.36 399.08 81.69 399.36 80.01 399.63 78.37 399.86 76.73 400.08 75.11 400.27 73.5 400.47 71.91 400.65 70.32 400.86 68.75 401.06 67.18 401.26 65.64 401.44 64.11 401.59 62.6 401.71 61.09 401.82 59.66 401.91 58.24 401.97 56.9 401.98 55.57 401.97 54.31 401.94 53.06 401.9 51.89 401.84 50.72 401.79 49.62 401.72 48.53 401.65 47.52 401.55 46.51 401.38 45.58 401.19 44.66 400.99 43.81 400.85 43.81 400.85 43.81 400.85 42.19 400.58 40.51 400.41 38.84 400.04 37.13 399.54 36.28 399.29 35.41 399.01 34.55 398.74 33.67 398.43 32.79 398.13 31.9 397.79 31.02 397.46 30.11 397.09 29.21 396.73 28.35 396.31 27.5 395.89 26.68 395.41 25.05 394.44 23.59 393.25 22.12 392.05 20.81 390.62 19.5 389.17 18.35 387.49 18.35 387.49 18.35 387.49 17.67 386.64 17.05 385.34 16.41 384.03 15.82 382.29 15.2 380.54 14.61 378.35 14 376.16 13.41 373.53 13.11 372.21 12.8 370.83 12.5 369.45 12.2 368.01 11.89 366.56 11.59 365.06 11.28 363.56 10.98 361.99 10.68 360.42 10.39 358.8 10.1 357.17 9.81 355.48 9.53 353.79 9.26 352.04 8.99 350.29 8.73 348.48 8.48 346.67 8.24 344.83 8.02 342.99 7.81 341.11 7.61 339.23 7.43 337.32 7.26 335.42 7.1 333.47 6.96 331.53 6.84 329.56 6.73 327.58 6.64 325.58 6.57 323.57 6.51 321.53 6.47 319.49 6.45 317.42 6.44 315.35 6.46 313.3 6.48 311.24 6.53 309.2 6.59 307.16 6.66 305.14 6.75 303.12 6.86 301.11 6.98 299.1 7.12 297.11 7.27 295.12 7.44 293.14 7.62 291.16 7.83 289.2 8.04 287.25 8.27 285.3 8.51 283.36 8.76 281.46 9.02 279.56 9.29 277.7 9.58 275.85 9.86 274.03 10.16 272.22 10.47 270.44 10.79 268.67 11.11 266.94 11.44 265.21 11.78 263.52 12.12 261.84 12.48 260.19 12.83 258.55 13.2 256.95 13.57 255.34 13.93 253.83 14.3 252.32 14.66 250.9 15.03 249.49 15.38 248.16 15.73 246.84 16.08 245.61 16.79 243.15 17.43 241.05 18.09 238.95 18.67 237.22 18.67 237.22 18.67 237.22 19.16 235.77 19.7 234.26 20.25 232.74 20.82 231.16 21.43 229.58 22.06 227.92 22.7 226.27 23.4 224.55 24.1 222.84 24.84 221.05 25.6 219.27 26.41 217.42 27.22 215.57 28.09 213.66 28.96 211.75 29.89 209.77 30.84 207.81 31.81 205.81 32.8 203.82 33.82 201.8 34.86 199.78 35.93 197.74 37.02 195.71 38.14 193.65 39.28 191.6 40.45 189.53 41.64 187.46 42.87 185.37 44.11 183.28 45.39 181.17 46.69 179.07 48.02 176.95 49.38 174.83 50.76 172.72 52.15 170.61 53.57 168.51 54.29 167.46 55.01 166.42 55.74 165.37 56.48 164.33 57.22 163.28 57.96 162.24 58.71 161.2 59.47 160.16 60.23 159.13 60.99 158.09 61.76 157.06 62.54 156.03 63.32 155 64.11 153.97 64.9 152.94 65.7 151.91 66.5 150.89 67.31 149.87 68.12 148.85 68.94 147.83 69.76 146.81 70.59 145.8 71.42 144.78 72.26 143.77 73.11 142.76 73.95 141.76 74.79 140.77 75.64 139.78 76.48 138.8 77.33 137.82 78.18 136.85 79.03 135.89 80.73 133.98 82.43 132.1 84.14 130.23 85.84 128.4 87.56 126.59 89.26 124.8 90.98 123.03 92.68 121.3 94.4 119.57 96.1 117.88 97.81 116.2 99.51 114.55 101.21 112.91 102.89 111.32 104.57 109.74 106.23 108.21 107.89 106.69 109.52 105.22 111.15 103.75 112.75 102.32 114.35 100.91 115.92 99.53 117.48 98.16 119 96.83 120.52 95.51 122 94.22 123.46 92.93 124.88 91.68 126.29 90.43 127.62 89.24 128.93 88.04 130.16 86.91 131.37 85.77 132.5 84.69 133.6 83.6 134.63 82.58 135.63 81.54 136.56 80.56 137.46 79.58 138.28 78.65 139.09 77.72 139.82 76.85 140.53 75.97 141.17 75.16 141.17 75.16 141.17 75.16 142.17 73.84 143.03 72.67 143.87 71.48 144.59 70.43 145.28 69.36 145.87 68.45 146.45 67.53 146.93 66.76 147.41 65.99 147.8 65.38 148.19 64.77 148.51 64.32 148.82 63.86 149.06 63.58 149.3 63.29 149.47 63.17 149.47 63.17 149.47 63.17 149.71 63.01 149.79 63.2 149.86 63.4 149.78 63.96 149.69 64.51 149.45 65.43 149.21 66.35 148.81 67.63 148.41 68.92 147.9 70.42 147.4 71.93 146.79 73.65 146.49 74.51 146.16 75.43 145.83 76.35 145.47 77.32 145.12 78.29 144.74 79.32 144.35 80.34 143.95 81.42 143.54 82.51 143.11 83.62 142.69 84.74 142.25 85.89 141.8 87.04 141.35 88.22 140.89 89.41 140.41 90.63 139.94 91.85 139.44 93.11 138.95 94.36 138.44 95.65 137.94 96.94 137.41 98.27 136.88 99.59 136.34 100.95 135.8 102.31 135.25 103.67 134.71 105.03 134.17 106.39 133.63 107.75 133.09 109.11 132.55 110.47 132 111.83 131.47 113.19 130.92 114.54 130.39 115.9 129.85 117.26 129.31 118.62 128.77 119.98 128.23 121.33 127.69 122.69 127.16 124.05 126.63 125.38 126.1 126.72 125.58 128.02 125.07 129.33 124.56 130.62 124.05 131.91 123.55 133.17 123.06 134.43 122.57 135.67 122.08 136.9 121.6 138.12 121.12 139.33 120.65 140.52 120.18 141.71 119.71 142.87 119.25 144.03 118.81 145.14 118.38 146.24 117.97 147.29 117.15 149.39 116.42 151.25 115.71 153.11 115.08 154.74 114.46 156.37 113.94 157.76 113.94 157.76 113.94 157.76 113.15 159.85 112.37 161.94 111.6 164.03 110.83 166.13 110.06 168.23 109.3 170.33 108.55 172.43 107.79 174.53 107.05 176.64 106.3 178.74 105.57 180.86 104.83 182.97 104.11 185.08 103.38 187.2 102.66 189.32 101.95 191.44 101.24 193.56 100.54 195.68 99.84 197.81 99.14 199.94 98.46 202.07 97.77 204.2 97.09 206.33 96.41 208.47 95.74 210.61 95.08 212.74 94.42 214.88 93.76 217.03 93.11 219.17 92.46 221.32 91.82 223.46 91.18 225.61 90.55 227.76 89.92 229.92 89.31 232.08 88.7 234.25 88.1 236.42 87.51 238.6 86.93 240.78 86.36 242.96 85.79 245.15 85.24 247.35 84.69 249.55 84.15 251.75 83.62 253.96 83.1 256.18 82.59 258.39 82.09 260.62 81.59 262.84 81.11 265.08 80.64 267.31 80.17 269.55 79.72 271.8 79.27 274.05 78.83 276.3 78.4 278.56 77.98 280.82 77.57 283.09 77.17 285.36 76.78 287.63 76.4 289.91 76.02 292.2 75.66 294.48 75.3 296.77 75.3 296.77 75.3 296.77 74.96 299.07 74.62 301.37 74.28 303.67 73.95 305.97 73.63 308.28 73.31 310.59 73 312.9 72.7 315.21 73.74 314.94 74.8 314.68 75.85 314.41 76.91 314.15 77.96 313.89 79.02 313.63 80.09 313.37 81.15 313.12 82.22 312.86 83.29 312.61 84.36 312.35 85.44 312.1 86.52 311.85 87.6 311.6 88.68 311.35 89.77 311.1 90.85 310.86 91.94 310.61 93.03 310.37 94.13 310.13 95.22 309.88 96.32 309.65 97.41 309.4 98.52 309.17 99.62 308.93 100.72 308.69 101.83 308.46 102.94 308.22 104.04 307.99 105.16 307.76 106.27 307.53 107.38 307.3 108.5 307.07 109.6 306.86 110.7 306.64 111.78 306.45 112.86 306.26 113.93 306.09 115 305.92 116.06 305.77 117.11 305.62 118.15 305.49 119.19 305.36 120.22 305.25 121.24 305.14 122.26 305.06 123.27 304.97 124.27 304.9 125.26 304.83 126.25 304.78 127.23 304.73 128.21 304.71 129.18 304.68 130.14 304.67 131.1 304.67 132.05 304.68 132.99 304.7 133.93 304.73 134.86 304.77 135.79 304.82 136.71 304.88 137.63 304.96 138.54 305.04 139.44 305.13 139.44 305.13 139.44 305.13 140.72 305.27 141.99 305.47 143.27 305.67 144.54 305.93 145.82 306.18 147.09 306.5 148.37 306.81 149.64 307.19 150.92 307.56 152.12 308.05 153.31 308.55 154.42 309.16 155.54 309.78 156.58 310.53 157.61 311.27 158.57 312.14 159.54 313 160.41 314.04 161.28 315.08 162.06 316.28 162.84 317.48 163.53 318.86 164.22 320.23 164.82 321.77 165.43 323.31 165.88 325.09 166.33 326.86 166.64 328.88 166.94 330.89 167.09 333.14 167.1 335.38 167.1 337.87 167.1 337.87 167.1 337.87M258.91 412.74Q258.91 412.74 258.91 412.74 257.64 412.86 256.39 412.96 255.14 413.05 253.91 412.98 252.68 412.89 251.47 412.74 250.26 412.61 249.07 412.5 247.89 412.38 246.73 412.2 245.56 412.02 244.42 411.76 243.27 411.47 242.14 411.07 241.01 410.66 239.9 410.19 238.79 409.72 237.71 409.21 236.62 408.7 235.55 408.16 234.48 407.62 233.44 407.02 232.39 406.42 231.37 405.75 230.34 405.07 229.33 404.33 228.32 403.59 227.33 402.77 226.34 401.95 225.37 401.07 224.4 400.19 223.45 399.24 222.5 398.29 221.56 397.3 220.63 396.31 219.71 395.28 218.8 394.25 217.9 393.18 217 392.12 216.12 391.01 215.24 389.91 214.38 388.77 213.52 387.63 212.67 386.46 211.83 385.29 211 384.08 210.18 382.88 209.37 381.63 208.56 380.4 207.77 379.12 206.98 377.85 206.2 376.55 205.43 375.25 204.67 373.91 203.92 372.57 203.18 371.2 202.44 369.84 201.72 368.43 200.99 367.04 200.29 365.6 199.59 364.17 198.9 362.7 198.21 361.24 197.55 359.73 196.88 358.24 196.23 356.71 195.58 355.18 194.95 353.63 194.32 352.07 193.71 350.49 193.1 348.91 192.51 347.3 191.91 345.7 191.34 344.06 190.77 342.42 190.22 340.76 189.68 339.09 189.15 337.4 188.63 335.7 188.13 333.98 187.63 332.25 187.16 330.5 186.69 328.74 186.24 326.96 185.79 325.18 185.37 323.36 184.95 321.54 184.55 319.7 184.15 317.85 183.77 315.97 183.39 314.1 183.04 312.19 182.68 310.28 182.35 308.34 182.01 306.4 181.7 304.42 181.39 302.45 181.1 300.46 180.8 298.48 180.53 296.47 180.26 294.47 180 292.45 179.75 290.44 179.52 288.41 179.28 286.37 179.07 284.33 178.85 282.28 178.66 280.22 178.47 278.16 178.29 276.08 178.12 274 177.96 271.91 177.81 269.82 177.67 267.71 177.54 265.6 177.42 263.48 177.3 261.35 177.21 259.22 177.11 257.08 177.03 254.92 176.95 252.76 176.9 250.59 176.84 248.42 176.8 246.23 176.76 244.05 176.74 241.84 176.72 239.64 176.72 237.42 176.72 237.42 176.72 237.42 176.72 235.34 176.74 233.26 176.76 231.18 176.8 229.09 176.85 227 176.91 224.91 176.97 222.81 177.05 220.7 177.13 218.6 177.24 216.49 177.34 214.37 177.46 212.25 177.59 210.13 177.73 208 177.87 205.87 178.04 203.73 178.2 201.59 178.39 199.45 178.57 197.3 178.78 195.14 178.98 192.99 179.21 190.82 179.44 188.65 179.68 186.48 179.93 184.3 180.19 182.12 180.46 179.93 180.75 177.74 181.03 175.55 181.34 173.34 181.65 171.14 181.97 168.92 182.3 166.71 182.65 164.51 183 162.31 183.36 160.13 183.73 157.95 184.12 155.79 184.52 153.63 184.93 151.49 185.34 149.35 185.77 147.22 186.2 145.09 186.66 142.99 187.11 140.88 187.59 138.78 188.06 136.69 188.56 134.61 189.05 132.53 189.57 130.47 190.09 128.41 190.62 126.36 191.16 124.31 191.72 122.28 192.27 120.25 192.85 118.23 193.43 116.2 194.03 114.2 194.62 112.18 195.24 110.19 195.86 108.19 196.49 106.2 197.13 104.21 197.78 102.23 198.44 100.25 199.11 98.29 199.79 96.33 200.48 94.39 201.18 92.45 201.89 90.53 202.6 88.6 203.34 86.7 204.07 84.79 204.82 82.91 205.57 81.02 206.34 79.16 207.11 77.28 207.9 75.44 208.69 73.58 209.5 71.75 210.31 69.92 211.13 68.1 211.96 66.29 212.81 64.5 213.66 62.7 214.53 60.93 215.4 59.16 216.29 57.41 217.18 55.66 218.09 53.94 219 52.22 219.94 50.52 220.87 48.83 221.83 47.17 222.79 45.5 223.77 43.87 224.76 42.24 225.77 40.67 226.78 39.11 227.82 37.62 228.86 36.12 229.93 34.7 231 33.28 232.1 31.93 233.2 30.59 234.33 29.31 235.47 28.04 236.63 26.85 237.79 25.66 238.98 24.54 240.18 23.43 241.4 22.39 242.62 21.35 243.88 20.4 245.14 19.44 246.42 18.57 247.71 17.69 249.03 16.9 250.35 16.11 251.69 15.4 253.04 14.69 254.42 14.06 255.8 13.44 257.21 12.88 258.63 12.34 260.07 11.88 261.51 11.42 262.98 11.04 262.98 11.04 262.98 11.04 264.41 10.68 265.82 10.41 267.22 10.14 268.6 9.95 269.98 9.79 271.34 9.7 272.69 9.62 274.02 9.62 275.35 9.64 276.65 9.74 277.96 9.84 279.24 10.03 280.52 10.23 281.77 10.52 283.02 10.81 284.25 11.18 285.47 11.56 286.67 12.03 287.87 12.5 289.04 13.06 290.22 13.63 291.36 14.27 292.51 14.93 293.63 15.66 294.75 16.4 295.84 17.23 296.93 18.06 297.99 18.97 299.05 19.88 300.08 20.87 301.11 21.87 302.12 22.95 303.12 24.02 304.1 25.15 305.08 26.27 306.03 27.45 306.98 28.62 307.91 29.84 308.84 31.05 309.74 32.31 310.64 33.57 311.51 34.88 312.39 36.18 313.23 37.52 314.08 38.86 314.9 40.25 315.72 41.63 316.51 43.05 317.31 44.47 318.07 45.93 318.84 47.39 319.58 48.89 320.32 50.39 321.03 51.93 321.74 53.47 322.43 55.05 323.12 56.63 323.78 58.24 324.43 59.86 325.07 61.52 325.7 63.18 326.31 64.88 326.92 66.57 327.5 68.32 328.08 70.06 328.64 71.82 329.2 73.59 329.74 75.38 330.28 77.18 330.79 79 331.31 80.82 331.81 82.67 332.3 84.52 332.78 86.4 333.25 88.27 333.71 90.18 334.16 92.09 334.59 94.02 335.03 95.96 335.44 97.92 335.85 99.89 336.24 101.88 336.63 103.87 337 105.9 337.38 107.92 337.73 109.98 338.08 112.03 338.41 114.11 338.74 116.19 339.04 118.31 339.35 120.42 339.64 122.57 339.93 124.71 340.2 126.88 340.47 129.06 340.71 131.26 340.96 133.47 341.19 135.67 341.43 137.88 341.64 140.09 341.86 142.3 342.06 144.51 342.26 146.72 342.45 148.94 342.63 151.15 342.8 153.37 342.97 155.59 343.13 157.81 343.28 160.03 343.42 162.25 343.56 164.48 343.68 166.7 343.81 168.93 343.91 171.15 344.02 173.38 344.12 175.61 344.21 177.84 344.28 180.08 344.36 182.31 344.42 184.55 344.49 186.78 344.53 189.02 344.58 191.26 344.56 193.51 344.53 195.76 344.51 198.01 344.49 200.26 344.49 202.51 344.49 202.51 344.49 202.51 344.49 205.01 344.52 207.49 344.54 209.97 344.58 212.44 344.55 214.91 344.48 217.37 344.42 219.84 344.34 222.29 344.26 224.74 344.15 227.17 344.05 229.61 343.92 232.03 343.8 234.45 343.65 236.86 343.51 239.26 343.34 241.66 343.18 244.05 342.99 246.43 342.8 248.81 342.6 251.18 342.39 253.55 342.16 255.9 341.93 258.25 341.68 260.59 341.43 262.93 341.16 265.25 340.89 267.58 340.6 269.89 340.31 272.2 340 274.5 339.69 276.8 339.36 279.08 339.03 281.36 338.67 283.62 338.32 285.87 337.94 288.09 337.56 290.32 337.17 292.51 336.77 294.7 336.35 296.87 335.93 299.03 335.49 301.17 335.05 303.3 334.59 305.41 334.12 307.51 333.64 309.59 333.15 311.66 332.65 313.71 332.14 315.75 331.61 317.77 331.08 319.78 330.53 321.77 329.98 323.75 329.4 325.71 328.83 327.67 328.23 329.6 327.64 331.52 327.02 333.42 326.4 335.32 325.76 337.19 325.12 339.06 324.45 340.9 323.79 342.74 323.1 344.55 322.42 346.36 321.71 348.14 321 349.91 320.27 351.64 319.54 353.38 318.78 355.07 318.03 356.76 317.25 358.42 316.48 360.07 315.68 361.69 314.89 363.3 314.07 364.88 313.26 366.45 312.43 367.99 311.59 369.52 310.74 371.02 309.89 372.51 309.02 373.97 308.15 375.42 307.26 376.84 306.37 378.25 305.46 379.62 304.56 380.99 303.63 382.31 302.71 383.64 301.77 384.92 300.83 386.21 299.87 387.45 298.91 388.68 297.93 389.88 296.96 391.07 295.96 392.22 294.97 393.37 293.95 394.45 292.94 395.54 291.9 396.56 290.87 397.59 289.81 398.55 288.76 399.51 287.69 400.41 286.61 401.31 285.52 402.15 284.42 402.99 283.31 403.76 282.19 404.54 281.06 405.26 279.92 405.97 278.77 406.63 277.61 407.28 276.43 407.87 275.26 408.46 274.06 408.98 272.86 409.51 271.64 409.98 270.42 410.45 269.18 410.86 267.94 411.28 266.68 411.63 265.42 411.98 264.13 412.26 262.85 412.49 261.54 412.55 260.24 412.61 258.91 412.74 258.91 412.74 258.91 412.74M261.74 129.4Q261.74 129.4 261.74 129.4 260.12 129.77 258.61 130.59 257.11 131.42 255.74 132.69 254.36 133.97 253.1 135.69 251.84 137.41 250.71 139.58 250.14 140.66 249.6 141.81 249.05 142.96 248.54 144.18 248.02 145.39 247.52 146.68 247.03 147.96 246.56 149.31 246.09 150.66 245.65 152.08 245.2 153.5 244.78 154.99 244.36 156.47 243.96 158.02 243.57 159.57 243.19 161.19 242.82 162.8 242.47 164.46 242.12 166.11 241.8 167.81 241.48 169.5 241.19 171.23 240.89 172.96 240.63 174.73 240.36 176.5 240.12 178.31 239.88 180.12 239.66 181.97 239.45 183.82 239.26 185.7 239.07 187.59 238.91 189.51 238.75 191.44 238.61 193.36 238.46 195.28 238.34 197.2 238.22 199.12 238.13 201.04 238.03 202.96 237.95 204.88 237.87 206.79 237.81 208.71 237.76 210.62 237.72 212.54 237.69 214.45 237.67 216.37 237.66 218.28 237.67 220.19 237.67 220.19 237.67 220.19 237.67 222.35 237.71 224.51 237.74 226.66 237.8 228.82 237.85 230.97 237.93 233.11 238.01 235.26 238.12 237.4 238.22 239.54 238.35 241.68 238.48 243.82 238.63 245.96 238.78 248.09 238.96 250.23 239.13 252.36 239.33 254.49 239.54 256.62 239.76 258.7 239.98 260.77 240.23 262.79 240.48 264.81 240.75 266.77 241.03 268.73 241.32 270.64 241.62 272.54 241.94 274.39 242.26 276.25 242.6 278.04 242.95 279.84 243.31 281.58 243.68 283.32 244.07 285 244.46 286.69 244.88 288.29 245.29 289.89 245.73 291.4 246.17 292.91 246.63 294.34 247.09 295.77 247.57 297.11 248.06 298.45 248.56 299.7 249.07 300.96 249.6 302.12 250.13 303.29 250.69 304.37 251.24 305.45 251.82 306.44 252.4 307.43 253 308.29 253.61 309.14 254.24 309.87 255.51 311.31 256.89 312.21 258.28 313.1 259.77 313.45 261.27 313.8 262.88 313.59 262.88 313.59 262.88 313.59 263.81 313.47 264.69 313.19 265.57 312.9 266.41 312.44 268.08 311.53 269.56 309.94 270.3 309.15 270.99 308.18 271.68 307.22 272.32 306.09 272.97 304.96 273.57 303.65 274.16 302.35 274.71 300.88 275.26 299.41 275.78 297.87 276.3 296.33 276.79 294.73 277.28 293.12 277.74 291.44 278.21 289.77 278.64 288.03 279.07 286.28 279.47 284.47 279.88 282.66 280.25 280.79 280.63 278.91 280.97 276.97 281.32 275.02 281.63 273.01 281.95 271 282.24 268.97 282.53 266.95 282.79 264.91 283.05 262.88 283.29 260.83 283.52 258.78 283.73 256.72 283.94 254.66 284.13 252.59 284.31 250.52 284.46 248.43 284.62 246.35 284.75 244.26 284.88 242.16 284.98 240.05 285.08 237.95 285.17 235.93 285.26 233.91 285.34 231.98 285.41 230.05 285.47 228.21 285.54 226.37 285.58 224.62 285.63 222.87 285.67 221.21 285.7 219.55 285.73 217.97 285.75 216.4 285.76 214.92 285.77 213.43 285.76 212.04 285.76 212.04 285.76 212.04 285.76 210.33 285.74 208.6 285.71 206.86 285.67 205.11 285.63 203.36 285.57 201.58 285.51 199.81 285.43 198.01 285.35 196.22 285.25 194.4 285.15 192.59 285.03 190.75 284.92 188.92 284.78 187.06 284.64 185.2 284.49 183.32 284.33 181.45 284.15 179.61 283.97 177.77 283.76 175.97 283.56 174.18 283.33 172.42 283.1 170.66 282.84 168.94 282.59 167.23 282.31 165.55 282.03 163.87 281.73 162.23 281.43 160.6 281.1 159 280.77 157.4 280.42 155.85 280.07 154.29 279.7 152.81 279.32 151.32 278.91 149.91 278.51 148.5 278.08 147.16 277.65 145.82 277.19 144.56 276.73 143.29 276.25 142.1 275.76 140.91 275.25 139.79 274.74 138.68 274.2 137.63 273.66 136.59 273.1 135.62 271.97 133.68 270.69 132.32 269.42 130.96 268 130.18 266.58 129.41 265.01 129.21 263.45 129.02 261.74 129.4 261.74 129.4 261.74 129.4M518.63 79.18Q518.63 79.18 518.63 79.18 518.63 80.94 518.68 82.75 518.69 84.55 518.6 86.4 518.51 88.24 518.37 90.13 518.23 92.02 518.04 93.96 517.95 94.93 517.85 95.91 517.74 96.89 517.63 97.88 517.51 98.87 517.38 99.88 517.25 100.89 517.12 101.9 516.98 102.92 516.82 103.95 516.67 104.98 516.51 106.03 516.35 107.07 516.17 108.13 516 109.18 515.81 110.25 515.63 111.32 515.44 112.39 515.24 113.47 515.05 114.54 514.85 115.62 514.65 116.69 514.44 117.77 514.23 118.86 514.02 119.94 513.81 121.02 513.59 122.11 513.37 123.2 513.15 124.28 512.93 125.38 512.7 126.47 512.47 127.56 512.23 128.66 511.99 129.76 511.76 130.86 511.51 131.96 511.27 133.06 511.02 134.17 510.77 135.27 510.51 136.38 510.25 137.49 509.99 138.61 509.73 139.72 509.46 140.84 509.19 141.96 508.92 143.08 508.64 144.2 508.36 145.33 508.08 146.45 507.8 147.58 507.52 148.7 507.23 149.82 506.95 150.95 506.66 152.07 506.37 153.19 506.08 154.31 505.79 155.43 505.49 156.54 505.2 157.66 504.9 158.77 504.61 159.89 504.31 161 504.01 162.12 503.71 163.23 503.41 164.34 503.1 165.45 502.8 166.57 502.49 167.67 502.19 168.78 501.88 169.89 501.57 171 501.26 172.11 500.95 173.21 500.63 174.32 500.32 175.42 500 176.53 499.69 177.63 499.37 178.73 499.05 179.83 498.73 180.94 498.41 182.04 498.09 183.13 497.77 184.22 497.46 185.3 497.14 186.38 496.84 187.45 496.53 188.52 496.22 189.58 495.92 190.63 495.62 191.68 495.32 192.73 495.03 193.76 494.73 194.8 494.44 195.82 494.15 196.85 493.87 197.86 493.58 198.87 493.3 199.87 493.02 200.87 492.75 201.86 492.2 203.84 491.66 205.77 491.13 207.71 490.61 209.59 490.1 211.48 489.6 213.31 489.6 213.31 489.6 213.31 489.27 214.47 488.93 215.7 488.59 216.92 488.25 218.22 487.9 219.52 487.54 220.89 487.19 222.27 486.83 223.71 486.47 225.16 486.1 226.67 485.73 228.19 485.35 229.79 484.97 231.38 484.59 233.04 484.2 234.71 483.81 236.45 483.42 238.2 483.02 239.97 482.61 241.74 482.19 243.55 481.77 245.35 481.33 247.19 480.89 249.03 480.44 250.9 479.99 252.77 479.52 254.68 479.05 256.59 478.57 258.53 478.09 260.47 477.59 262.45 477.1 264.43 476.59 266.44 476.07 268.46 475.55 270.49 475.03 272.52 474.49 274.57 473.95 276.62 473.41 278.68 472.86 280.74 472.3 282.82 471.74 284.9 471.17 286.99 470.6 289.09 470.02 291.21 469.43 293.32 468.84 295.45 468.25 297.59 467.64 299.74 467.04 301.9 466.42 304.02 465.81 306.15 465.18 308.24 464.55 310.33 463.91 312.39 463.27 314.46 462.61 316.48 461.96 318.52 461.29 320.51 460.62 322.51 459.94 324.48 459.27 326.44 458.57 328.37 457.88 330.3 457.18 332.2 456.47 334.09 455.75 335.93 455.04 337.76 454.3 339.54 453.56 341.31 452.81 343.03 452.06 344.74 451.29 346.4 450.53 348.05 449.74 349.64 448.96 351.23 448.16 352.76 447.36 354.3 446.54 355.77 445.73 357.24 444.9 358.65 444.08 360.07 443.23 361.37 442.39 362.67 441.53 363.85 440.67 365.03 439.79 366.09 438.92 367.15 438.02 368.08 437.11 368.99 436.17 369.74 435.23 370.48 434.26 371.09 433.29 371.7 432.31 372.18 431.31 372.44 430.31 372.81 430.31 372.81 430.31 372.81 429.48 373.13 428.65 373.53 427.81 373.7 426.98 373.73 426.16 373.76 425.33 373.65 424.5 373.52 423.67 373.23 422.83 372.94 422 372.5 421.17 372.05 420.34 371.46 419.51 370.87 418.69 370.13 417.86 369.4 417.04 368.51 416.21 367.63 415.4 366.66 414.58 365.69 413.77 364.63 412.96 363.57 412.15 362.43 411.35 361.28 410.55 360.04 409.75 358.81 408.96 357.48 408.16 356.15 407.37 354.73 406.58 353.31 405.79 351.8 405 350.28 404.22 348.68 403.44 347.07 402.66 345.4 401.88 343.72 401.1 341.98 400.33 340.24 399.56 338.43 398.78 336.62 398.02 334.75 397.25 332.87 396.5 330.93 395.74 328.99 394.98 326.98 394.23 324.97 393.48 322.89 392.74 320.81 392 318.67 391.26 316.52 390.54 314.38 389.82 312.23 389.12 310.09 388.42 307.94 387.73 305.79 387.05 303.64 386.38 301.5 385.72 299.35 385.08 297.21 384.43 295.06 383.81 292.92 383.19 290.77 382.58 288.63 381.98 286.49 381.4 284.35 380.82 282.21 380.26 280.1 379.71 277.99 379.18 275.92 378.65 273.84 378.15 271.79 377.65 269.74 377.17 267.73 376.69 265.71 376.24 263.73 375.79 261.75 375.36 259.8 374.94 257.85 374.54 255.93 374.13 254.01 373.76 252.13 373.38 250.25 373.03 248.47 372.67 246.7 372.35 245.03 372.02 243.36 371.72 241.8 371.42 240.24 371.15 238.78 370.87 237.33 370.63 235.98 370.38 234.64 370.15 233.4 369.71 230.93 369.36 228.9 369.36 228.9 369.36 228.9 368.92 226.42 368.49 223.94 368.06 221.45 367.63 218.96 367.2 216.47 366.78 213.97 366.35 211.47 365.93 208.96 365.51 206.46 365.09 203.94 364.68 201.43 364.26 198.9 363.85 196.38 363.44 193.85 363.03 191.32 362.62 188.79 362.21 186.25 361.81 183.71 361.41 181.16 361 178.61 360.6 176.06 360.21 173.5 359.81 170.94 359.41 168.38 359.02 165.82 358.63 163.25 358.23 160.68 357.84 158.1 357.45 155.52 357.07 152.94 356.68 150.36 356.3 147.77 355.91 145.18 355.56 142.58 355.2 139.99 354.86 137.39 354.53 134.79 354.21 132.19 353.9 129.59 353.62 126.98 353.33 124.38 353.07 121.77 352.8 119.16 352.56 116.55 352.32 113.94 352.11 111.33 351.89 108.72 351.7 106.1 351.51 103.49 351.34 100.87 351.17 98.25 351.03 95.63 350.89 93.02 350.77 90.4 350.65 87.78 350.55 85.15 350.46 82.53 350.38 79.91 350.31 77.29 350.26 74.66 350.22 72.04 350.19 69.42 350.17 66.79 350.17 64.17 350.17 64.17 350.17 64.17 350.17 61.54 350.21 58.87 350.23 57.53 350.26 56.18 350.29 54.83 350.34 53.47 350.38 52.11 350.43 50.74 350.48 49.36 350.55 47.98 350.61 46.59 350.69 45.2 350.76 43.8 350.84 42.39 350.93 40.98 351.05 39.6 351.17 38.22 351.32 36.87 351.47 35.52 351.65 34.2 351.83 32.87 352.04 31.58 352.47 28.99 353.03 26.52 353.59 24.05 354.28 21.7 354.98 19.34 355.82 17.21 356.66 15.07 357.64 13.15 358.63 11.23 359.76 9.53 360.9 7.84 362.18 6.36 363.46 4.9 364.99 3.83 366.53 2.76 368.31 2.1 369.2 1.78 370.15 1.55 371.11 1.32 372.12 1.19 373.13 1.07 374.21 1.06 375.28 1.04 376.42 1.12 376.42 1.12 376.42 1.12 377.38 1.19 378.32 1.46 379.26 1.74 380.17 2.21 381.09 2.69 381.98 3.36 382.88 4.04 383.75 4.92 384.62 5.81 385.47 6.89 386.31 7.98 387.14 9.27 387.96 10.56 388.76 12.05 389.56 13.55 390.34 15.25 391.12 16.95 391.87 18.77 392.63 20.59 393.37 22.52 394.1 24.46 394.82 26.52 395.53 28.57 396.22 30.74 396.91 32.9 397.59 35.18 398.26 37.46 398.91 39.85 399.56 42.24 400.19 44.74 400.51 45.99 400.82 47.26 401.13 48.54 401.44 49.84 401.74 51.14 402.04 52.46 402.35 53.78 402.65 55.11 402.95 56.44 403.24 57.79 403.54 59.14 403.83 60.5 404.12 61.86 404.41 63.24 404.7 64.61 404.99 66 405.27 67.39 405.55 68.8 405.84 70.2 406.12 71.62 406.4 73.04 406.67 74.47 406.95 75.9 407.22 77.35 407.49 78.8 407.76 80.26 408.03 81.72 408.3 83.19 408.57 84.66 408.83 86.15 409.1 87.64 409.36 89.14 409.62 90.64 409.87 92.15 410.13 93.66 410.39 95.19 410.64 96.72 410.89 98.24 411.15 99.76 411.4 101.27 411.65 102.78 411.9 104.29 412.15 105.79 412.4 107.29 412.65 108.79 412.89 110.28 413.14 111.77 413.38 113.26 413.63 114.74 413.87 116.22 414.12 117.7 414.36 119.17 414.6 120.64 414.84 122.1 415.08 123.57 415.32 125.03 415.56 126.48 415.8 127.93 416.03 129.38 416.27 130.83 416.51 132.27 416.74 133.71 416.97 135.15 417.21 136.58 417.44 138.01 417.67 139.44 417.9 140.86 418.13 142.28 418.36 143.7 418.59 145.11 418.81 146.51 419.04 147.9 419.27 149.29 419.49 150.67 419.72 152.04 419.95 153.41 420.17 154.77 420.39 156.12 420.62 157.46 420.84 158.8 421.06 160.13 421.29 161.45 421.51 162.77 421.73 164.07 421.95 165.38 422.17 166.67 422.39 167.96 422.61 169.23 422.83 170.51 423.04 171.77 423.26 173.04 423.48 174.29 423.69 175.54 423.91 176.77 424.12 178.01 424.34 179.23 424.55 180.45 424.76 181.66 424.98 182.87 425.19 184.06 425.61 186.45 426.04 188.71 426.47 190.97 426.89 193.1 427.32 195.22 427.74 197.22 428.17 199.22 428.6 201.09 429.02 202.96 429.45 204.7 429.87 206.44 430.3 208.06 430.73 209.67 431.15 211.16 431.58 212.65 432 214.01 432 214.01 432 214.01 432.25 212.82 432.52 211.5 432.8 210.17 433.1 208.71 433.4 207.26 433.73 205.66 434.07 204.07 434.43 202.35 434.79 200.62 435.18 198.77 435.57 196.91 435.99 194.93 436.41 192.94 436.86 190.83 437.3 188.72 437.78 186.48 438.26 184.24 438.76 181.95 439.01 180.81 439.27 179.65 439.53 178.5 439.79 177.33 440.05 176.16 440.32 174.99 440.58 173.81 440.85 172.62 441.13 171.43 441.41 170.23 441.68 169.03 441.97 167.82 442.25 166.61 442.54 165.39 442.83 164.17 443.12 162.93 443.42 161.7 443.72 160.46 444.02 159.21 444.32 157.96 444.63 156.7 444.94 155.44 445.25 154.18 445.57 152.9 445.88 151.62 446.21 150.34 446.53 149.05 446.86 147.76 447.18 146.46 447.51 145.16 447.85 143.87 448.18 142.57 448.52 141.27 448.86 139.97 449.2 138.67 449.55 137.37 449.89 136.06 450.24 134.76 450.59 133.46 450.94 132.15 451.3 130.85 451.66 129.54 452.01 128.24 452.38 126.93 452.74 125.62 453.11 124.32 453.47 123.01 453.85 121.7 454.22 120.39 454.59 119.08 454.97 117.77 455.35 116.45 455.73 115.14 456.11 113.83 456.5 112.52 456.89 111.2 457.28 109.89 457.67 108.57 458.06 107.25 458.46 105.93 458.86 104.62 459.26 103.32 459.66 102.02 460.07 100.74 460.47 99.45 460.88 98.19 461.29 96.93 461.69 95.69 462.11 94.44 462.52 93.22 462.93 91.99 463.35 90.78 463.76 89.58 464.18 88.39 464.6 87.2 465.02 86.03 465.44 84.86 465.87 83.71 466.29 82.56 466.72 81.43 467.15 80.29 467.58 79.18 468.01 78.06 468.44 76.97 468.87 75.87 469.31 74.79 469.74 73.72 470.18 72.66 470.62 71.6 471.06 70.55 471.5 69.51 471.95 68.49 472.39 67.47 472.83 66.47 473.28 65.48 473.73 64.51 474.17 63.54 474.62 62.6 475.07 61.66 475.52 60.75 476.42 58.93 477.33 57.22 478.23 55.52 479.15 53.92 480.06 52.32 480.98 50.84 481.89 49.36 482.82 47.99 483.74 46.63 484.67 45.38 485.59 44.13 486.52 42.99 487.45 41.85 488.38 40.91 489.31 39.97 490.24 39.22 491.16 38.47 492.09 37.92 493.01 37.37 493.93 37.01 494.85 36.66 495.77 36.5 496.69 36.34 497.6 36.38 498.52 36.42 499.43 36.66 500.34 36.9 501.25 37.33 501.25 37.33 501.25 37.33 502.59 37.97 503.8 38.8 505.02 39.63 506.1 40.64 507.18 41.65 508.14 42.83 509.11 43.99 509.94 45.31 510.79 46.59 511.54 47.94 512.29 49.25 512.95 50.62 513.61 51.95 514.18 53.34 514.75 54.7 515.23 56.14 515.71 57.56 516.12 58.99 516.53 60.42 516.87 61.87 517.22 63.32 517.49 64.79 517.76 66.26 517.97 67.76 518.17 69.26 518.32 70.73 518.48 72.19 518.58 73.62 518.68 75.05 518.68 76.44 518.63 77.82 518.63 79.18 518.63 79.18 518.63 79.18M679.57 232.19Q679.57 232.19 679.57 232.19 680.13 233.77 680.63 235.33 680.95 236.94 681.03 238.59 681.09 240.23 680.92 241.9 680.73 243.58 680.29 245.29 680.29 245.29 680.29 245.29 680.05 246.1 679.67 246.98 679.27 247.85 678.73 248.8 678.18 249.74 677.48 250.74 676.77 251.74 675.9 252.8 675.03 253.87 674.01 254.99 672.97 256.1 671.78 257.28 670.58 258.45 669.22 259.68 668.54 260.29 667.82 260.91 667.1 261.53 666.34 262.17 665.57 262.8 664.79 263.43 664.02 264.06 663.22 264.69 662.43 265.31 661.62 265.93 660.81 266.55 659.99 267.17 659.17 267.79 658.33 268.4 657.49 269.01 656.64 269.62 655.79 270.23 654.92 270.84 654.06 271.44 653.18 272.05 652.3 272.65 651.4 273.25 650.51 273.85 649.6 274.45 648.69 275.05 647.77 275.65 646.85 276.25 645.92 276.85 644.98 277.44 644.03 278.04 643.09 278.64 642.12 279.23 641.16 279.83 640.19 280.42 639.21 281.02 638.23 281.61 637.24 282.21 636.25 282.8 635.27 283.39 634.29 283.97 633.3 284.56 632.32 285.13 631.34 285.71 630.37 286.28 629.39 286.86 628.42 287.43 627.44 288 626.47 288.56 625.5 289.13 624.53 289.69 623.57 290.25 622.6 290.81 621.64 291.37 620.68 291.92 619.72 292.48 618.76 293.03 617.81 293.58 616.85 294.12 615.9 294.66 614.95 295.2 613.99 295.74 613.05 296.26 612.1 296.79 611.15 297.32 610.21 297.85 609.27 298.37 608.33 298.91 607.4 299.44 606.47 299.99 605.57 300.53 604.67 301.07 603.8 301.59 602.08 302.64 600.47 303.59 598.86 304.54 597.36 305.38 595.86 306.2 594.47 306.89 593.07 307.57 591.79 308.14 590.51 308.71 589.35 309.21 588.21 309.76 587.17 310.19 586.11 310.48 585.19 310.81 585.19 310.81 585.19 310.81 583.91 311.26 582.49 311.72 581.03 311.95 579.42 312.08 577.82 312.22 576.1 312.32 574.41 312.54 572.6 312.71 570.79 312.87 568.97 312.95 568.05 312.98 567.14 312.99 566.22 313.01 565.3 313 564.39 312.99 563.47 312.97 562.55 312.95 561.63 312.91 560.72 312.86 559.8 312.81 558.89 312.74 557.97 312.67 557.06 312.59 556.17 312.48 555.27 312.37 554.4 312.24 553.53 312.11 552.69 311.95 551.84 311.78 551.02 311.59 550.19 311.39 549.39 311.17 548.6 310.95 547.82 310.69 546.28 310.17 544.83 309.53 543.41 308.88 542.18 308.16 540.97 307.43 539.95 306.65 538.95 305.85 538.14 305.02 537.34 304.17 536.71 303.28 536.71 303.28 536.71 303.28 536.36 302.76 536.01 301.92 535.66 301.08 535.32 299.92 534.97 298.76 534.63 297.28 534.29 295.79 533.95 293.99 533.78 293.09 533.62 292.15 533.46 291.2 533.3 290.22 533.14 289.23 532.99 288.2 532.83 287.18 532.69 286.11 532.54 285.04 532.4 283.93 532.25 282.82 532.11 281.67 531.98 280.52 531.84 279.32 531.71 278.13 531.59 276.9 531.46 275.66 531.34 274.4 531.23 273.15 531.12 271.87 531.02 270.59 530.92 269.29 530.82 267.99 530.73 266.67 530.64 265.35 530.55 264.01 530.46 262.67 530.38 261.31 530.29 259.95 530.21 258.57 530.13 257.18 530.05 255.78 529.98 254.38 529.9 252.99 529.83 251.61 529.75 250.23 529.68 248.86 529.61 247.51 529.55 246.15 529.48 244.82 529.41 243.48 529.35 242.15 529.29 240.83 529.23 239.52 529.17 238.22 529.11 236.93 529.06 235.64 529 234.36 528.95 233.09 528.9 231.85 528.85 230.6 528.81 229.4 528.76 228.2 528.73 227.03 528.69 225.86 528.65 224.72 528.62 223.59 528.59 222.49 528.56 221.39 528.53 220.33 528.51 219.27 528.49 218.25 528.46 217.22 528.45 216.23 528.43 215.24 528.42 214.32 528.4 213.39 528.39 212.54 528.37 210.82 528.35 209.38 528.33 207.94 528.33 206.76 528.32 205.59 528.32 204.69 528.32 204.69 528.32 204.69 528.32 203.01 528.33 201.28 528.34 199.54 528.35 197.74 528.37 195.94 528.4 194.07 528.41 193.14 528.43 192.19 528.45 191.25 528.46 190.28 528.48 189.32 528.5 188.34 528.52 187.36 528.54 186.36 528.57 185.36 528.59 184.35 528.62 183.34 528.64 182.31 528.67 181.28 528.69 180.24 528.72 179.2 528.75 178.14 528.78 177.08 528.81 176 528.84 174.93 528.88 173.84 528.91 172.75 528.95 171.65 528.98 170.56 529.02 169.47 529.06 168.37 529.11 167.28 529.15 166.19 529.2 165.09 529.24 163.99 529.29 162.9 529.34 161.8 529.39 160.7 529.45 159.6 529.5 158.51 529.56 157.41 529.61 156.31 529.67 155.21 529.73 154.11 529.79 153.01 529.85 151.9 529.92 150.8 529.98 149.7 530.05 148.6 530.11 147.49 530.18 146.39 530.25 145.29 530.32 144.18 530.39 143.08 530.46 141.97 530.53 140.87 530.61 139.76 530.68 138.66 530.76 137.55 530.84 136.45 530.91 135.36 531 134.26 531.08 133.17 531.16 132.08 531.24 130.99 531.33 129.91 531.42 128.83 531.51 127.75 531.6 126.68 531.69 125.6 531.78 124.53 531.87 123.47 531.97 122.41 532.06 121.35 532.16 120.29 532.25 119.24 532.35 118.19 532.45 117.14 532.55 116.1 532.65 115.06 532.75 114.02 532.85 112.99 532.95 111.95 533.05 110.93 533.15 109.9 533.25 108.88 533.35 107.87 533.45 106.85 533.55 105.84 533.65 104.84 533.75 103.84 533.86 102.85 533.96 101.87 534.06 100.91 534.16 99.94 534.27 99 534.37 98.06 534.48 97.14 534.58 96.22 534.69 95.32 534.79 94.42 534.89 93.54 535 92.66 535.1 91.8 535.2 90.95 535.3 90.11 535.4 89.28 535.5 88.47 535.59 87.65 535.69 86.86 535.87 85.29 536.06 83.79 536.22 82.31 536.39 80.91 536.54 79.52 536.68 78.21 536.68 78.21 536.68 78.21 536.77 77.46 536.92 76.7 537.07 75.95 537.27 75.19 537.46 74.45 537.71 73.7 537.82 73.33 537.95 72.97 538.07 72.6 538.2 72.24 538.33 71.88 538.46 71.53 538.58 71.18 538.71 70.84 538.84 70.5 538.97 70.18 539.09 69.86 539.22 69.54 539.35 69.23 539.48 68.93 539.6 68.64 539.73 68.35 539.86 68.06 539.99 67.79 540.11 67.51 540.24 67.25 540.37 66.99 540.5 66.73 540.63 66.48 540.76 66.24 540.88 66 541.01 65.76 541.14 65.53 541.27 65.31 541.39 65.09 541.52 64.87 541.65 64.66 541.77 64.46 541.9 64.26 542.03 64.06 542.16 63.87 542.29 63.69 542.41 63.5 542.54 63.33 542.67 63.17 542.79 63.01 542.92 62.85 543.04 62.71 543.17 62.56 543.29 62.43 543.41 62.3 543.53 62.18 543.65 62.06 543.78 61.95 543.9 61.85 544.02 61.75 544.14 61.66 544.26 61.58 544.38 61.49 544.5 61.42 544.62 61.35 544.73 61.28 544.85 61.22 544.96 61.16 545.07 61.11 545.18 61.06 545.29 61.01 545.4 60.96 545.51 60.92 545.62 60.89 545.73 60.85 545.83 60.83 545.94 60.8 546.04 60.78 546.15 60.76 546.25 60.75 546.35 60.73 546.45 60.73 546.54 60.73 546.64 60.74 546.73 60.75 546.83 60.77 547.01 60.81 547.18 60.88 547.36 60.96 547.52 61.08 547.52 61.08 547.52 61.08 547.72 61.21 547.97 61.46 548.21 61.7 548.52 62.06 548.83 62.42 549.2 62.88 549.58 63.34 550.03 63.9 550.5 64.46 551.02 65.08 551.56 65.68 552.17 66.33 552.81 66.96 553.54 67.63 554.31 68.27 555.18 68.94 556.1 69.59 557.07 70.25 558.09 70.88 559.15 71.53 560.24 72.17 561.36 72.84 562.49 73.49 563.64 74.19 564.8 74.88 565.93 75.61 567.07 76.33 568.17 77.09 569.27 77.85 570.33 78.65 571.38 79.45 572.4 80.29 572.4 80.29 572.4 80.29 573.28 81.02 574.04 81.71 574.8 82.4 575.45 83.04 576.1 83.69 576.63 84.29 577.17 84.9 577.59 85.46 578.01 86.02 578.42 86.62 578.83 87.23 579.22 87.87 579.61 88.52 579.99 89.21 580.36 89.9 580.72 90.63 580.72 90.63 580.72 90.63 581.05 91.53 581.19 92.56 581.26 93.08 581.28 93.63 581.3 94.19 581.27 94.78 581.24 95.37 581.17 95.99 581.09 96.62 580.97 97.28 580.84 97.93 580.67 98.63 580.5 99.32 580.28 100.04 580.06 100.77 579.83 101.49 579.59 102.22 579.33 102.94 579.07 103.67 578.8 104.4 578.52 105.13 578.22 105.85 577.91 106.58 577.59 107.31 577.27 108.05 576.92 108.78 576.57 109.51 576.2 110.24 576.02 110.61 575.82 110.98 575.63 111.35 575.43 111.72 575.23 112.09 575.03 112.45 574.83 112.82 574.62 113.18 574.21 113.9 573.79 114.61 573.37 115.32 572.93 116.02 572.49 116.71 572.05 117.4 571.6 118.08 571.14 118.75 570.67 119.42 570.2 120.07 569.73 120.73 569.24 121.37 568.76 122.02 568.26 122.64 567.76 123.27 567.29 123.86 566.82 124.44 566.38 124.99 565.93 125.53 565.52 126.04 565.1 126.54 564.73 127 564.34 127.46 564 127.88 563.65 128.29 563.34 128.67 562.72 129.41 562.27 129.98 562.27 129.98 562.27 129.98 562.44 130.91 562.61 131.85 562.78 132.79 562.95 133.74 563.12 134.69 563.28 135.64 563.44 136.59 563.59 137.55 563.75 138.5 563.9 139.46 564.05 140.43 564.19 141.39 564.33 142.36 564.47 143.33 564.61 144.31 564.74 145.28 564.87 146.26 565.01 147.24 565.15 148.22 565.29 149.21 565.42 150.19 565.57 151.18 565.71 152.17 565.86 153.16 566.01 154.15 566.16 155.14 566.32 156.14 566.47 157.13 566.63 158.13 566.8 159.13 566.96 160.13 567.13 161.13 567.13 161.13 567.13 161.13 567.84 160.3 568.58 159.48 569.31 158.66 570.06 157.85 570.8 157.05 571.57 156.24 572.33 155.45 573.11 154.65 573.89 153.86 574.69 153.08 575.48 152.3 576.3 151.53 577.12 150.75 577.96 149.99 578.37 149.6 578.8 149.22 579.22 148.84 579.65 148.46 580.5 147.7 581.36 147.02 582.22 146.33 583.09 145.71 583.96 145.1 584.84 144.55 585.73 144 586.63 143.52 587.53 143.03 588.46 142.62 589.38 142.2 590.33 141.84 591.29 141.49 592.26 141.2 593.25 140.9 594.26 140.67 594.26 140.67 594.26 140.67 595.29 140.43 596.31 140.28 597.34 140.13 598.36 140.07 599.38 140 600.4 140.03 601.42 140.05 602.43 140.16 603.45 140.28 604.46 140.48 605.47 140.68 606.47 140.97 607.48 141.26 608.47 141.65 609.47 142.03 610.46 142.51 611.45 142.99 612.42 143.56 613.4 144.13 614.36 144.8 615.32 145.47 616.26 146.24 617.2 147.01 618.12 147.88 619.04 148.75 619.93 149.72 620.83 150.69 621.69 151.76 622.56 152.84 623.39 154.02 624.22 155.2 625.01 156.49 625.01 156.49 625.01 156.49 625.78 157.75 626.38 158.96 626.97 160.18 627.4 161.36 627.82 162.55 628.06 163.69 628.3 164.83 628.37 165.94 628.44 167.05 628.39 168.12 628.33 169.2 628.16 170.24 627.99 171.28 627.7 172.29 627.41 173.3 627 174.27 626.59 175.24 626.09 176.18 625.59 177.13 625 178.04 624.41 178.95 623.73 179.83 623.05 180.7 622.29 181.55 621.51 182.4 620.75 183.23 619.97 184.07 619.2 184.89 618.43 185.71 617.66 186.53 616.89 187.34 616.12 188.14 616.12 188.14 616.12 188.14 615.16 189.11 614.18 190.07 613.19 191.03 612.18 191.96 611.16 192.9 610.12 193.82 609.07 194.74 608 195.64 606.92 196.55 605.82 197.43 604.72 198.31 603.59 199.18 602.46 200.04 601.3 200.89 600.14 201.74 598.96 202.56 597.77 203.39 596.59 204.22 595.4 205.05 594.21 205.87 593.01 206.7 591.81 207.52 590.61 208.35 589.41 209.17 588.21 210 587 210.82 585.79 211.64 584.57 212.47 583.36 213.29 582.14 214.11 580.92 214.94 579.7 215.76 579.7 215.76 579.7 215.76 579.65 217.17 579.62 218.7 579.59 220.24 579.57 221.91 579.55 223.58 579.67 225.16 579.79 226.75 580.05 228.25 580.05 228.25 580.05 228.25 580.26 229.42 580.5 230.58 580.74 231.74 581.03 232.89 581.31 234.04 581.63 235.18 581.95 236.32 582.32 237.45 582.68 238.57 583.04 239.7 583.41 240.82 583.77 241.94 584.14 243.07 584.5 244.19 584.87 245.3 585.23 246.42 585.23 246.42 585.23 246.42 586.18 245.83 587.42 245.06 588.65 244.29 590.17 243.34 590.93 242.87 591.76 242.35 592.59 241.83 593.48 241.27 594.38 240.71 595.35 240.1 596.32 239.5 597.36 238.85 598.4 238.2 599.45 237.55 600.5 236.9 601.56 236.25 602.62 235.6 603.7 234.95 604.77 234.3 605.86 233.65 606.94 232.99 608.04 232.34 609.14 231.68 610.25 231.02 611.36 230.37 612.48 229.71 613.6 229.05 614.73 228.39 615.87 227.72 616.99 227.08 618.12 226.43 619.24 225.8 620.35 225.17 621.46 224.55 622.57 223.93 623.68 223.33 624.78 222.73 625.87 222.15 626.97 221.56 628.06 220.99 629.14 220.42 630.23 219.86 631.31 219.3 632.38 218.76 633.46 218.22 634.47 217.72 635.48 217.23 636.43 216.79 637.38 216.34 638.26 215.95 639.14 215.56 639.97 215.22 641.61 214.53 642.99 214.05 644.38 213.57 645.52 213.29 645.52 213.29 645.52 213.29 646.82 212.97 648.14 212.79 649.46 212.61 650.79 212.57 652.12 212.53 653.47 212.63 654.81 212.74 656.17 212.98 657.52 213.22 658.82 213.57 660.12 213.92 661.37 214.37 662.62 214.82 663.81 215.37 665 215.93 666.14 216.59 667.28 217.25 668.36 218 669.44 218.76 670.48 219.6 671.51 220.45 672.49 221.39 673.47 222.33 674.39 223.36 675.31 224.4 676.11 225.46 676.91 226.53 677.58 227.63 678.24 228.73 678.79 229.86 679.16 231.03 679.57 232.19 679.57 232.19 679.57 232.19" class="warpedPath currentActivePath"></path><path fill="#4f4d4c" d="M164.73 445.23Q164.73 445.23 164.73 445.23 164.73 446.01 164.82 446.77 164.73 447.51 164.56 448.23 164.38 448.94 164.12 449.62 163.86 450.3 163.51 450.94 163.16 451.59 162.72 452.21 162.28 452.82 161.76 453.4 161.23 453.98 160.62 454.53 160.01 455.08 159.31 455.59 158.61 456.11 157.88 456.6 157.14 457.08 156.38 457.54 155.61 458 154.81 458.43 154.01 458.86 153.17 459.27 152.33 459.67 151.46 460.04 150.59 460.41 149.69 460.76 148.78 461.1 147.84 461.42 146.9 461.74 145.92 462.03 145.92 462.03 145.92 462.03 145.04 462.32 144.16 462.63 143.28 462.93 142.39 463.24 141.5 463.55 140.61 463.86 139.71 464.18 138.81 464.5 137.91 464.82 137.01 465.15 136.11 465.48 135.2 465.81 134.29 466.14 133.38 466.48 132.47 466.82 131.55 467.17 130.63 467.52 129.74 467.88 128.84 468.24 127.97 468.62 127.1 469 126.24 469.39 125.39 469.78 124.57 470.19 123.74 470.6 122.94 471.02 122.13 471.45 121.35 471.88 120.57 472.32 119.81 472.78 119.06 473.23 118.33 473.7 117.59 474.17 116.9 474.66 116.22 475.16 115.57 475.67 114.93 476.18 114.33 476.71 113.73 477.24 113.17 477.78 112.62 478.33 112.1 478.9 111.59 479.47 111.12 480.06 110.66 480.65 110.23 481.25 109.81 481.86 109.43 482.49 109.06 483.12 108.75 483.77 108.45 484.42 108.21 485.1 107.97 485.78 107.81 486.49 107.64 487.2 107.54 487.93 107.45 488.67 107.42 489.43 107.39 490.19 107.43 490.97 107.48 491.76 107.58 492.57 107.69 493.38 107.87 494.22 107.87 494.22 107.87 494.22 108.02 494.95 108.23 495.67 108.44 496.39 108.71 497.1 109.24 498.51 109.99 499.86 110.74 501.21 111.7 502.5 112.65 503.79 113.81 505.02 114.96 506.25 116.2 507.48 117.44 508.7 118.75 509.93 119.41 510.54 120.08 511.14 120.76 511.75 121.45 512.36 122.14 512.97 122.85 513.57 123.55 514.18 124.28 514.78 125 515.39 125.74 516 126.47 516.61 127.22 517.23 127.96 517.84 128.71 518.46 129.46 519.08 130.22 519.71 130.97 520.33 131.74 520.96 132.5 521.59 133.28 522.23 134.04 522.86 134.82 523.5 135.6 524.14 136.38 524.79 137.17 525.43 137.93 526.09 138.69 526.75 139.43 527.43 140.16 528.11 140.88 528.8 141.6 529.49 142.29 530.2 142.98 530.91 143.66 531.63 144.33 532.35 144.98 533.09 145.62 533.83 146.25 534.59 146.88 535.34 147.49 536.11 148.09 536.88 148.67 537.68 149.25 538.47 149.8 539.28 150.35 540.1 150.88 540.93 151.4 541.77 151.89 542.63 152.39 543.48 152.86 544.36 153.33 545.24 153.77 546.14 154.21 547.04 154.63 547.96 155.05 548.88 155.44 549.82 155.83 550.77 156.18 551.75 156.52 552.72 156.82 553.73 157.12 554.75 157.37 555.79 157.62 556.84 157.83 557.92 158.03 559 158.2 560.11 158.36 561.22 158.48 562.37 158.6 563.52 158.69 564.7 158.77 565.88 158.81 567.1 158.81 567.1 158.81 567.1 158.84 567.94 158.83 568.81 158.82 569.67 158.77 570.57 158.73 571.46 158.64 572.37 158.56 573.28 158.44 574.22 158.32 575.15 158.17 576.11 158.02 577.07 157.83 578.05 157.65 579.03 157.44 580.03 157.23 581.04 156.99 582.06 156.75 583.09 156.5 584.11 156.25 585.14 155.98 586.16 155.72 587.18 155.44 588.2 155.17 589.22 154.88 590.24 154.61 591.26 154.31 592.27 154.03 593.28 153.73 594.3 153.44 595.31 153.14 596.31 152.85 597.32 152.55 598.33 152.26 599.33 151.97 600.32 151.69 601.31 151.41 602.28 151.14 603.26 150.86 604.22 150.61 605.18 150.35 606.12 150.1 607.07 149.86 608 149.63 608.92 149.4 609.84 149.19 610.75 148.98 611.65 148.79 612.54 148.61 613.42 148.44 614.3 148.28 615.15 148.14 615.99 148 616.81 147.89 617.62 147.77 618.4 147.68 619.17 147.59 619.92 147.51 620.66 147.44 621.38 147.39 622.09 147.33 622.77 147.29 623.45 147.26 624.1 147.23 624.74 147.2 625.36 147.19 625.97 147.17 626.55 147.16 627.12 147.15 627.65 147.14 628.18 147.12 628.68 147.12 629.17 147.1 629.62 147.09 630.07 147.06 630.48 147.05 630.89 147.02 631.26 146.99 631.63 146.95 631.96 146.92 632.29 146.87 632.58 146.82 632.88 146.75 633.11 146.69 633.34 146.61 633.52 146.52 633.69 146.42 633.81 146.31 633.93 146.19 633.99 146.06 634.05 145.91 634.06 145.76 634.07 145.59 634.02 145.42 633.97 145.21 633.85 144.96 633.63 144.74 633.48 144.74 633.48 144.74 633.48 144.49 633.3 144.28 633.19 144.01 632.95 143.72 632.65 143.42 632.35 143.09 631.99 142.76 631.63 142.4 631.22 142.03 630.8 141.62 630.33 141.2 629.87 140.74 629.35 140.25 628.84 139.7 628.28 139.12 627.73 138.46 627.14 137.74 626.57 136.95 625.97 136.1 625.38 135.18 624.77 134.22 624.17 133.21 623.53 132.17 622.9 131.11 622.22 130.04 621.55 128.96 620.82 127.87 620.09 126.78 619.31 125.7 618.52 124.62 617.67 123.55 616.82 122.48 615.92 122.48 615.92 122.48 615.92 121.77 615.3 121.1 614.69 120.44 614.09 119.83 613.49 119.21 612.9 118.65 612.31 118.1 611.72 117.6 611.14 117.1 610.56 116.65 609.99 116.2 609.41 115.81 608.85 115.42 608.29 115.08 607.74 114.75 607.18 114.46 606.64 114.19 606.09 113.93 605.55 113.68 605 113.46 604.46 113.24 603.92 113.04 603.38 112.85 602.84 112.68 602.31 112.51 601.77 112.37 601.23 112.24 600.7 112.13 600.17 112.02 599.64 111.94 599.11 111.86 598.58 111.81 598.06 111.76 597.53 111.73 597.01 111.7 596.48 111.7 595.96 111.69 595.44 111.71 594.92 111.73 594.4 111.76 593.88 111.81 593.37 111.87 592.85 111.93 592.33 112.01 591.82 112.1 591.31 112.21 590.8 112.32 590.29 112.45 589.78 112.59 589.27 112.72 588.76 112.85 588.25 112.98 587.74 113.11 587.23 113.24 586.72 113.37 586.21 113.49 585.69 113.62 585.18 113.74 584.66 113.87 584.14 113.99 583.63 114.11 583.11 114.23 582.59 114.36 582.07 114.47 581.55 114.59 581.03 114.7 580.5 114.81 579.97 114.91 579.43 115.01 578.89 115.09 578.35 115.18 577.8 115.26 577.25 115.34 576.7 115.4 576.13 115.47 575.57 115.52 575 115.58 574.43 115.62 573.85 115.66 573.28 115.69 572.69 115.72 572.1 115.71 571.5 115.71 570.9 115.66 570.29 115.62 569.67 115.54 569.05 115.45 568.42 115.33 567.78 115.21 567.14 115.04 566.49 114.87 565.83 114.66 565.17 114.46 564.5 114.2 563.82 113.95 563.14 113.65 562.45 113.65 562.45 113.65 562.45 113.23 561.49 112.73 560.52 112.23 559.55 111.65 558.57 111.06 557.58 110.38 556.59 109.69 555.6 108.91 554.6 108.13 553.59 107.25 552.58 106.36 551.56 105.37 550.54 104.37 549.52 103.27 548.48 102.15 547.45 100.93 546.41 99.7 545.36 98.43 544.31 97.15 543.26 95.83 542.19 94.5 541.13 93.13 540.05 91.75 538.98 90.33 537.9 88.9 536.81 87.43 535.71 85.95 534.62 84.43 533.51 82.9 532.4 81.33 531.28 79.74 530.16 78.12 529.03 76.48 527.89 74.86 526.75 73.22 525.6 71.6 524.45 69.97 523.29 68.35 522.13 66.72 520.96 65.11 519.78 63.49 518.6 61.88 517.41 60.27 516.22 58.67 515.01 57.07 513.8 55.49 512.59 53.9 511.36 52.33 510.13 50.75 508.89 49.3 507.65 47.84 506.4 46.51 505.15 45.17 503.89 43.96 502.62 42.75 501.35 41.66 500.07 40.57 498.79 39.61 497.5 38.66 496.21 37.83 494.91 37.01 493.61 36.32 492.31 35.63 491 35.07 489.69 35.07 489.69 35.07 489.69 34.73 488.88 34.43 488.07 34.13 487.25 33.87 486.43 33.61 485.61 33.38 484.79 33.16 483.96 32.98 483.13 32.8 482.3 32.66 481.46 32.52 480.62 32.42 479.78 32.32 478.94 32.27 478.09 32.21 477.24 32.2 476.39 32.19 475.54 32.22 474.68 32.25 473.82 32.32 472.96 32.4 472.1 32.52 471.23 32.64 470.36 32.81 469.49 32.97 468.62 33.19 467.75 33.4 466.88 33.66 466 33.92 465.13 34.23 464.25 34.54 463.37 34.89 462.49 35.25 461.61 35.64 460.74 36.03 459.87 36.46 459.02 36.89 458.17 37.35 457.32 37.81 456.49 38.31 455.66 38.81 454.83 39.34 454.02 39.88 453.21 40.44 452.42 41.01 451.62 41.62 450.84 42.22 450.07 42.86 449.3 43.5 448.54 44.17 447.8 44.85 447.06 45.55 446.33 46.26 445.6 47 444.89 47.74 444.19 48.51 443.49 49.28 442.81 50.09 442.13 50.89 441.47 51.73 440.81 52.56 440.16 53.43 439.53 54.3 438.9 55.19 438.29 56.08 437.67 57 437.09 57.92 436.5 58.86 435.94 59.8 435.37 60.75 434.83 61.71 434.3 62.69 433.78 63.67 433.27 64.66 432.77 65.66 432.28 66.67 431.81 67.68 431.34 68.71 430.89 69.74 430.44 70.79 430.01 71.84 429.58 72.9 429.17 73.97 428.76 75.05 428.37 76.13 427.98 77.23 427.61 78.33 427.24 79.44 426.89 80.55 426.53 81.68 426.2 82.81 425.87 83.96 425.55 85.11 425.23 86.27 424.93 87.44 424.63 88.62 424.34 89.8 424.05 90.98 423.78 92.17 423.51 93.36 423.26 94.54 423.01 95.73 422.79 96.92 422.56 98.12 422.36 99.31 422.15 100.5 421.98 101.7 421.8 102.9 421.64 104.09 421.49 105.3 421.36 106.5 421.23 107.7 421.13 108.9 421.03 110.11 420.95 111.31 420.87 112.52 420.82 113.73 420.76 114.94 420.74 116.15 420.72 117.36 420.73 118.57 420.75 119.79 420.79 121 420.83 122.22 420.89 123.44 420.96 124.66 421.06 125.88 421.15 127.1 421.27 127.1 421.27 127.1 421.27 129.04 421.47 130.93 421.74 132.82 422.02 134.66 422.38 136.49 422.73 138.27 423.17 140.05 423.6 141.77 424.11 143.49 424.62 145.15 425.2 146.8 425.78 148.39 426.42 149.97 427.05 151.49 427.75 152.98 428.44 154.4 429.21 155.79 429.99 157 430.81 158.18 431.65 159.18 432.54 160.17 433.43 160.98 434.38 161.78 435.33 162.42 436.34 163.05 437.35 163.52 438.41 163.99 439.47 164.3 440.58 164.6 441.7 164.76 442.86 164.73 444.01 164.73 445.23 164.73 445.23 164.73 445.23M335.21 428.86Q335.21 428.86 335.21 428.86 335.21 430.63 335.26 432.36 335.09 434.1 334.76 435.8 334.43 437.5 333.94 439.16 333.44 440.82 332.78 442.45 332.12 444.08 331.3 445.67 330.47 447.26 329.48 448.81 328.49 450.36 327.34 451.87 326.18 453.38 324.86 454.86 323.54 456.33 322.15 457.77 321.45 458.48 320.73 459.19 320.02 459.9 319.28 460.6 318.55 461.29 317.8 461.98 317.05 462.66 316.28 463.34 315.51 464.02 314.72 464.68 313.93 465.35 313.13 466 312.32 466.66 311.5 467.3 310.67 467.94 309.83 468.58 308.99 469.21 308.13 469.83 307.27 470.46 306.39 471.07 305.51 471.68 304.61 472.28 303.72 472.88 302.8 473.47 301.89 474.06 300.96 474.64 300.03 475.22 299.08 475.78 298.13 476.35 297.17 476.91 296.21 477.46 295.25 478.01 294.29 478.55 293.33 479.08 292.36 479.62 291.39 480.14 290.42 480.66 289.44 481.17 288.47 481.68 287.49 482.18 286.51 482.67 285.52 483.16 284.53 483.65 283.54 484.12 282.55 484.59 281.55 485.06 280.56 485.52 279.56 485.97 278.56 486.42 277.55 486.86 276.54 487.3 275.53 487.73 274.52 488.15 273.5 488.57 272.49 488.98 271.46 489.39 270.44 489.79 269.42 490.18 268.39 490.58 267.36 490.96 266.32 491.34 265.31 491.71 264.3 492.07 263.3 492.43 262.3 492.79 261.32 493.14 260.35 493.49 259.38 493.82 257.46 494.5 255.61 495.13 253.76 495.76 251.98 496.35 250.2 496.94 248.49 497.5 246.78 498.05 245.15 498.57 243.51 499.08 241.94 499.56 240.37 500.03 238.87 500.48 238.87 500.48 238.87 500.48 238.88 501.33 238.89 502.19 238.9 503.04 238.9 503.9 238.9 504.76 238.89 505.63 238.89 506.5 238.87 507.37 238.86 508.24 238.84 509.12 238.82 510 238.8 510.88 238.77 511.76 238.74 512.65 238.71 513.54 238.67 514.43 238.63 515.32 238.58 516.21 238.54 517.11 238.48 518 238.43 518.89 238.37 519.78 238.32 520.67 238.25 521.56 238.18 522.45 238.11 523.35 238.04 524.24 237.96 525.13 237.89 526.02 237.8 526.91 237.72 527.8 237.63 528.69 237.63 528.69 237.63 528.69 239.22 528.16 240.87 527.63 242.53 527.1 244.23 526.59 245.93 526.06 247.68 525.55 249.43 525.03 251.24 524.52 253.04 524 254.89 523.49 256.75 522.98 258.65 522.48 259.61 522.22 260.57 521.97 261.54 521.72 262.52 521.47 263.5 521.22 264.49 520.97 265.48 520.71 266.49 520.47 267.49 520.22 268.49 519.98 269.49 519.75 270.48 519.53 272.46 519.09 274.43 518.73 276.39 518.35 278.32 518.05 280.26 517.75 282.18 517.52 284.09 517.29 285.98 517.13 287.87 516.97 289.73 516.89 291.6 516.8 293.44 516.79 295.28 516.78 297.1 516.84 297.1 516.84 297.1 516.84 298.56 516.89 299.96 517.01 301.36 517.13 302.69 517.31 304.02 517.5 305.28 517.75 306.55 518 307.75 518.32 308.95 518.63 310.08 519.02 311.21 519.4 312.28 519.86 313.35 520.31 314.35 520.83 315.35 521.35 316.28 521.94 317.22 522.53 318.03 523.22 318.85 523.91 319.55 524.7 320.25 525.49 320.84 526.38 321.42 527.27 321.89 528.26 322.36 529.25 322.71 530.34 323.06 531.43 323.29 532.62 323.53 533.8 323.65 535.09 323.76 536.38 323.76 537.76 323.76 537.76 323.76 537.76 323.77 539.28 323.62 540.75 323.48 542.22 323.18 543.64 322.89 545.06 322.45 546.43 322.01 547.8 321.42 549.12 320.83 550.43 320.1 551.69 319.36 552.95 318.48 554.16 317.6 555.36 316.57 556.52 315.54 557.66 314.36 558.76 313.19 559.84 311.95 560.89 310.72 561.93 309.42 562.93 308.13 563.93 306.78 564.88 305.42 565.83 304.01 566.74 302.6 567.64 301.13 568.49 299.66 569.35 298.13 570.16 296.6 570.96 295.01 571.72 293.42 572.48 291.77 573.19 290.12 573.89 288.45 574.56 286.79 575.22 285.1 575.84 283.42 576.46 281.71 577.03 280.01 577.6 278.28 578.13 276.56 578.65 274.82 579.14 273.08 579.61 271.31 580.05 269.55 580.49 267.77 580.88 265.99 581.27 264.19 581.61 262.39 581.95 260.66 582.27 258.93 582.58 257.27 582.86 255.61 583.14 254.01 583.4 252.42 583.65 250.89 583.87 249.37 584.09 247.91 584.29 246.45 584.48 245.06 584.66 243.67 584.82 242.35 584.97 241.03 585.11 239.78 585.23 239.78 585.23 239.78 585.23 239.8 586.61 239.81 587.99 239.82 589.36 239.82 590.74 239.83 592.11 239.82 593.48 239.82 594.86 239.82 596.23 239.81 597.6 239.8 598.98 239.79 600.35 239.77 601.72 239.75 603.09 239.73 604.46 239.7 605.83 239.67 607.2 239.65 608.57 239.61 609.94 239.58 611.31 239.54 612.68 239.5 614.05 239.45 615.41 239.4 616.78 239.35 618.15 239.3 619.52 239.24 620.89 239.19 622.27 239.12 623.64 239.06 625.01 238.99 626.38 238.92 627.76 238.84 629.13 238.84 629.13 238.84 629.13 238.77 630.51 238.66 632.06 238.55 633.61 238.4 635.34 238.33 636.2 238.24 637.11 238.16 638.02 238.07 638.98 237.98 639.93 237.88 640.93 237.78 641.94 237.67 642.99 237.56 644.04 237.42 645.07 237.28 646.11 237.11 647.13 236.93 648.16 236.73 649.17 236.52 650.18 236.29 651.18 236.05 652.17 235.78 653.16 235.51 654.14 235.21 655.11 234.91 656.08 234.57 657.04 234.24 658 233.87 658.94 233.51 659.88 233.1 660.77 232.69 661.67 232.24 662.52 231.79 663.37 231.31 664.17 230.82 664.97 230.29 665.72 229.76 666.47 229.19 667.17 228.62 667.87 228.01 668.52 227.4 669.17 226.75 669.77 226.1 670.36 225.41 670.9 224.72 671.44 223.99 671.86 223.25 672.27 222.47 672.57 220.91 673.15 219.16 673.24 217.41 673.32 215.48 672.91 214.51 672.7 213.5 672.37 212.49 671.84 211.43 671.39 211.43 671.39 211.43 671.39 209.41 670.51 207.54 669.39 205.68 668.07 203.96 666.32 203.1 665.44 202.28 664.46 201.46 663.48 200.68 662.39 199.9 661.31 199.14 660.13 198.39 658.96 197.67 657.69 196.95 656.43 196.24 655.14 195.53 653.86 194.84 652.54 194.15 651.23 193.47 649.9 192.79 648.58 192.13 647.23 191.46 645.9 190.8 644.54 190.15 643.19 189.51 641.81 188.86 640.44 188.23 639.05 187.6 637.66 186.99 636.24 186.37 634.83 185.78 633.4 185.18 631.98 184.6 630.54 184.02 629.1 183.45 627.64 182.89 626.19 182.35 624.72 181.8 623.25 181.27 621.76 180.75 620.27 180.24 618.76 179.74 617.25 179.26 615.71 178.78 614.18 178.33 612.62 177.88 611.06 177.48 609.52 177.1 607.98 176.76 606.45 176.44 604.93 176.15 603.41 175.86 601.9 175.6 600.4 175.34 598.91 175.1 597.42 174.87 595.94 174.65 594.47 174.43 593 174.24 591.54 174.04 590.08 173.86 588.63 173.68 587.19 173.52 585.77 173.36 584.36 173.23 582.98 173.09 581.6 172.96 580.25 172.84 578.9 172.74 577.59 172.64 576.27 172.56 574.99 172.48 573.7 172.41 572.45 172.35 571.2 172.3 569.98 172.26 568.75 172.23 567.56 172.21 566.37 172.19 565.25 172.17 564.13 172.15 563.08 172.13 562.03 172.11 561.05 172.1 560.07 172.09 559.16 172.07 558.25 172.07 557.41 172.06 556.57 172.05 555.8 172.04 554.26 172.04 553 172.04 553 172.04 553 172.04 552.03 172.05 550.84 172.06 549.64 172.09 548.22 172.1 547.51 172.11 546.74 172.13 545.97 172.15 545.14 172.17 544.31 172.19 543.42 172.21 542.54 172.23 541.6 172.26 540.65 172.28 539.69 172.31 538.72 172.33 537.73 172.36 536.73 172.39 535.71 172.41 534.69 172.44 533.65 172.46 532.61 172.49 531.53 172.51 530.46 172.54 529.37 172.56 528.27 172.59 527.15 172.61 526.03 172.64 524.88 172.66 523.73 172.69 522.57 172.72 521.41 172.76 520.24 172.8 519.06 172.84 517.88 172.88 516.69 172.93 515.49 172.98 514.29 173.04 513.07 173.09 511.86 173.16 510.63 173.22 509.4 173.29 508.16 173.35 506.92 173.43 505.66 173.5 504.41 173.58 503.17 173.65 501.93 173.73 500.7 173.81 499.48 173.89 498.27 173.97 497.06 174.06 495.87 174.14 494.68 174.23 493.5 174.32 492.33 174.41 491.17 174.5 490.01 174.59 488.87 174.69 487.72 174.78 486.6 174.88 485.47 174.99 484.37 175.09 483.28 175.21 482.22 175.32 481.16 175.45 480.13 175.57 479.1 175.7 478.1 175.83 477.11 175.97 476.14 176.11 475.18 176.26 474.25 176.41 473.32 176.56 472.42 176.72 471.53 176.88 470.66 177.05 469.8 177.22 468.99 177.39 468.18 177.58 467.43 177.94 465.93 178.33 464.67 178.73 463.4 179.16 462.37 179.59 461.33 180.05 460.53 180.05 460.53 180.05 460.53 180.56 459.73 181.25 458.94 181.93 458.15 182.8 457.37 183.65 456.58 184.69 455.8 185.72 455.02 186.92 454.24 188.12 453.46 189.49 452.68 190.86 451.89 192.4 451.11 193.18 450.72 193.99 450.32 194.81 449.93 195.67 449.53 196.54 449.14 197.45 448.74 198.36 448.34 199.32 447.95 200.29 447.54 201.27 447.15 202.25 446.75 203.25 446.36 204.26 445.96 205.28 445.57 206.31 445.18 207.35 444.8 208.4 444.41 209.47 444.02 210.54 443.64 211.63 443.26 212.72 442.87 213.83 442.5 214.95 442.12 216.08 441.74 217.22 441.36 218.38 440.99 219.54 440.61 220.72 440.24 221.9 439.87 223.1 439.5 224.3 439.12 225.52 438.75 226.74 438.38 227.98 438.01 229.23 437.64 230.49 437.26 231.75 436.89 233.03 436.52 234.31 436.14 235.61 435.77 236.91 435.39 238.21 435.02 239.51 434.64 240.81 434.27 242.11 433.9 243.41 433.53 244.7 433.17 246 432.8 247.29 432.44 248.59 432.07 249.88 431.71 251.17 431.35 252.46 430.99 253.75 430.64 255.04 430.28 256.33 429.94 257.61 429.58 258.89 429.24 260.18 428.88 261.46 428.53 262.74 428.18 264.01 427.82 265.29 427.46 266.56 427.09 267.83 426.73 269.1 426.36 270.37 425.99 271.63 425.62 272.9 425.25 274.16 424.88 275.42 424.51 276.68 424.15 277.94 423.79 279.16 423.44 280.38 423.1 281.57 422.76 282.75 422.43 283.9 422.11 285.05 421.79 286.17 421.49 287.28 421.19 288.36 420.9 289.44 420.61 290.48 420.34 292.56 419.8 294.5 419.34 296.44 418.88 298.23 418.49 300.03 418.09 301.68 417.76 303.32 417.42 304.82 417.15 306.32 416.89 307.68 416.69 307.68 416.69 307.68 416.69 308.93 416.51 310.17 416.37 311.41 416.22 312.64 416.1 313.87 415.99 315.07 415.87 316.28 415.73 317.47 415.63 318.66 415.52 319.81 415.48 320.96 415.44 322.07 415.46 323.18 415.48 324.25 415.58 325.32 415.7 326.36 415.92 327.39 416.16 328.33 416.53 329.27 416.92 330.1 417.44 330.92 417.97 331.64 418.62 332.36 419.28 332.98 420.06 333.59 420.85 334.05 421.8 334.51 422.75 334.81 423.85 335.12 424.95 335.27 426.2 335.21 427.46 335.21 428.86 335.21 428.86 335.21 428.86M509.9 379.84Q509.9 379.84 509.9 379.84 509.9 380.93 510 381.96 509.9 383.05 509.69 384.15 509.48 385.25 509.17 386.35 508.85 387.45 508.43 388.55 508.02 389.65 507.49 390.75 506.97 391.85 506.34 392.95 505.72 394.05 504.98 395.15 504.25 396.26 503.42 397.36 502.58 398.46 501.7 399.55 500.83 400.63 499.91 401.69 498.99 402.75 498.04 403.78 497.08 404.82 496.09 405.84 495.09 406.85 494.05 407.85 493.02 408.84 491.94 409.81 490.87 410.78 489.75 411.73 488.64 412.68 487.48 413.61 487.48 413.61 487.48 413.61 486.44 414.49 485.4 415.39 484.35 416.29 483.3 417.2 482.24 418.1 481.19 419.02 480.13 419.94 479.06 420.87 477.99 421.79 476.92 422.73 475.85 423.67 474.76 424.62 473.68 425.56 472.6 426.52 471.51 427.48 470.42 428.44 469.32 429.41 468.25 430.38 467.18 431.36 466.13 432.34 465.08 433.32 464.05 434.32 463.02 435.31 462.02 436.3 461.01 437.3 460.03 438.31 459.04 439.31 458.08 440.33 457.12 441.34 456.18 442.36 455.24 443.39 454.32 444.42 453.41 445.45 452.53 446.48 451.66 447.52 450.83 448.55 450 449.59 449.21 450.63 448.43 451.68 447.68 452.72 446.94 453.77 446.24 454.82 445.54 455.87 444.89 456.92 444.23 457.98 443.62 459.04 443 460.1 442.44 461.16 441.87 462.23 441.37 463.29 440.87 464.36 440.45 465.43 440.03 466.5 439.67 467.58 439.32 468.66 439.04 469.74 438.76 470.82 438.55 471.91 438.34 472.99 438.2 474.09 438.06 475.18 438 476.28 437.93 477.38 437.93 478.48 437.93 478.48 437.93 478.48 437.94 479.45 438.01 480.37 438.09 481.29 438.23 482.16 438.53 483.92 439.11 485.49 439.68 487.06 440.55 488.45 441.41 489.84 442.56 491.04 443.71 492.25 444.99 493.41 446.27 494.57 447.67 495.68 448.38 496.24 449.11 496.78 449.85 497.32 450.62 497.85 451.38 498.38 452.18 498.9 452.98 499.42 453.81 499.93 454.65 500.44 455.5 500.94 456.36 501.45 457.23 501.96 458.11 502.47 459.01 502.98 459.9 503.49 460.82 503.99 461.74 504.5 462.68 505.01 463.62 505.52 464.58 506.03 465.54 506.54 466.52 507.05 467.51 507.56 468.51 508.07 469.52 508.57 470.5 509.11 471.48 509.65 472.45 510.22 473.41 510.79 474.35 511.4 475.29 512 476.21 512.63 477.13 513.27 478.02 513.93 478.92 514.6 479.8 515.29 480.67 515.99 481.53 516.72 482.38 517.44 483.21 518.2 484.05 518.96 484.85 519.76 485.65 520.57 486.42 521.41 487.19 522.26 487.92 523.15 488.66 524.03 489.36 524.97 490.07 525.9 490.74 526.87 491.41 527.85 492.05 528.87 492.69 529.89 493.29 530.95 493.9 532.01 494.47 533.11 495.05 534.22 495.55 535.4 496.05 536.58 496.48 537.84 496.92 539.1 497.27 540.43 497.63 541.77 497.92 543.18 498.21 544.58 498.42 546.07 498.64 547.55 498.78 549.12 498.93 550.68 499 552.31 499.07 553.95 499.07 555.66 499.07 555.66 499.07 555.66 499.07 556.85 498.99 558.1 498.92 559.35 498.77 560.67 498.62 561.98 498.39 563.35 498.16 564.73 497.86 566.16 497.56 567.6 497.18 569.1 496.8 570.59 496.35 572.15 495.89 573.71 495.37 575.33 494.84 576.95 494.23 578.63 493.63 580.32 492.97 582.02 492.31 583.73 491.6 585.45 490.88 587.17 490.12 588.92 489.35 590.66 488.53 592.43 487.7 594.19 486.83 595.98 485.95 597.76 485.02 599.57 484.09 601.38 483.11 603.21 482.12 605.04 481.08 606.89 480.05 608.75 478.96 610.61 477.88 612.47 476.74 614.33 475.61 616.2 474.44 618.07 473.26 619.95 472.03 621.83 470.81 623.72 469.54 625.61 468.27 627.51 466.95 629.41 465.63 631.32 464.27 633.24 462.9 635.15 461.49 637.08 460.08 639.01 458.65 640.91 457.22 642.82 455.76 644.69 454.31 646.57 452.84 648.42 451.36 650.27 449.86 652.09 448.37 653.91 446.85 655.7 445.33 657.49 443.78 659.24 442.24 660.99 440.67 662.71 439.11 664.42 437.52 666.1 435.92 667.77 434.31 669.39 432.69 671 431.06 672.55 429.42 674.1 427.76 675.58 426.1 677.06 424.41 678.48 422.73 679.89 421.02 681.23 419.31 682.56 417.58 683.83 415.84 685.09 414.09 686.28 412.33 687.46 410.54 688.58 408.76 689.68 406.99 690.67 405.22 691.65 403.45 692.52 401.69 693.38 399.94 694.12 398.19 694.86 396.45 695.49 394.71 696.11 392.98 696.61 391.25 697.11 389.53 697.5 387.82 697.89 386.12 698.13 384.42 698.21 382.73 698.37 382.73 698.37 382.73 698.37 380.86 698.53 379.04 698.79 377.23 698.83 375.47 698.73 373.7 698.63 372 698.4 370.29 698.16 368.63 697.8 366.98 697.43 365.39 696.94 363.79 696.45 362.26 695.84 360.72 695.24 359.25 694.53 357.79 693.83 356.39 693.05 355 692.29 353.8 691.45 352.61 690.65 351.62 689.76 350.63 688.89 349.83 687.93 349.04 686.99 348.43 685.95 347.83 684.91 347.41 683.75 346.99 682.61 346.75 681.34 346.51 680.07 346.45 678.68 346.39 677.29 346.51 675.78 346.51 675.78 346.51 675.78 346.59 674.75 346.75 673.73 346.91 672.71 347.14 671.7 347.38 670.68 347.69 669.67 348 668.65 348.39 667.64 348.77 666.63 349.24 665.62 349.7 664.61 350.24 663.6 350.78 662.6 351.39 661.59 352.01 660.58 352.7 659.58 353.39 658.58 354.11 657.57 354.83 656.57 355.59 655.56 356.35 654.56 357.13 653.55 357.92 652.54 358.74 651.54 359.55 650.53 360.4 649.52 361.25 648.51 362.12 647.5 363 646.49 363.9 645.48 364.81 644.46 365.75 643.45 366.68 642.43 367.64 641.42 368.59 640.4 369.57 639.38 370.55 638.36 371.55 637.34 372.55 636.31 373.57 635.29 374.6 634.26 375.64 633.23 376.69 632.2 377.76 631.17 378.83 630.14 379.92 629.1 381.02 628.07 382.14 627.03 383.26 625.99 384.35 624.95 385.45 623.91 386.52 622.88 387.59 621.84 388.64 620.81 389.68 619.78 390.7 618.75 391.72 617.72 392.72 616.69 393.72 615.67 394.69 614.64 395.66 613.62 396.6 612.6 397.55 611.58 398.47 610.56 399.39 609.55 400.27 608.53 401.16 607.51 402.01 606.49 402.86 605.47 403.67 604.45 404.48 603.42 405.26 602.4 406.04 601.38 406.78 600.35 407.52 599.33 408.23 598.3 408.93 597.28 409.6 596.25 410.27 595.23 410.91 594.2 411.54 593.17 412.1 592.15 412.65 591.13 413.13 590.11 413.61 589.1 414.01 588.09 414.4 587.08 414.72 586.07 415.04 585.07 415.28 584.07 415.52 583.08 415.68 582.09 415.85 581.1 415.93 580.12 416.01 579.13 416.02 578.16 416.02 578.16 416.02 578.16 416.02 576.81 415.88 575.5 415.74 574.19 415.45 572.9 415.16 571.62 414.73 570.38 414.29 569.13 413.71 567.92 413.13 566.71 412.4 565.53 411.67 564.35 410.8 563.21 409.93 562.07 408.91 560.96 407.89 559.86 406.72 558.78 405.55 557.72 404.35 556.64 403.16 555.58 401.92 554.51 400.69 553.44 399.43 552.37 398.17 551.3 396.87 550.24 395.58 549.17 394.25 548.11 392.92 547.04 391.56 545.98 390.21 544.91 388.81 543.85 387.42 542.79 386 541.73 384.58 540.67 383.19 539.59 381.8 538.52 380.44 537.43 379.09 536.34 377.76 535.23 376.44 534.13 375.14 533.01 373.85 531.89 372.59 530.75 371.33 529.62 370.1 528.47 368.87 527.32 367.67 526.15 366.48 524.99 365.31 523.81 364.15 522.63 363.13 521.4 362.11 520.17 361.24 518.9 360.37 517.63 359.64 516.31 358.91 514.98 358.33 513.62 357.75 512.25 357.31 510.83 356.88 509.41 356.58 507.95 356.29 506.48 356.15 504.97 356 503.46 356 501.9 356 501.9 356 501.9 356 500.94 356.04 499.96 356.08 498.98 356.16 497.98 356.24 496.99 356.36 495.97 356.48 494.96 356.64 493.92 356.8 492.89 357 491.84 357.2 490.79 357.44 489.72 357.68 488.65 357.97 487.56 358.25 486.47 358.57 485.36 358.89 484.25 359.25 483.13 359.61 482 360.01 480.85 360.42 479.71 360.86 478.54 361.3 477.38 361.78 476.2 362.26 475.02 362.78 473.82 363.3 472.61 363.86 471.39 364.42 470.18 365.02 468.94 365.61 467.7 366.25 466.44 366.89 465.19 367.55 463.93 368.2 462.68 368.88 461.43 369.56 460.19 370.26 458.94 370.96 457.7 371.68 456.46 372.4 455.22 373.14 453.99 373.88 452.76 374.64 451.53 375.4 450.3 376.19 449.08 376.97 447.85 377.77 446.64 378.57 445.42 379.4 444.21 380.22 442.99 381.07 441.79 381.91 440.58 382.78 439.38 383.64 438.18 384.53 436.98 385.42 435.78 386.33 434.59 387.24 433.4 388.18 432.21 389.11 431.03 390.07 429.84 391.03 428.66 392.01 427.48 392.99 426.31 394 425.14 395 423.97 396.02 422.82 397.05 421.67 398.09 420.53 399.13 419.39 400.2 418.26 401.26 417.12 402.35 416 403.43 414.88 404.54 413.77 405.65 412.66 406.78 411.56 407.91 410.46 409.06 409.36 410.22 408.27 411.39 407.19 412.56 406.1 413.76 405.02 414.95 403.95 416.17 402.88 417.39 401.81 418.62 400.75 419.86 399.69 421.12 398.64 422.38 397.58 423.66 396.54 424.94 395.49 426.23 394.46 427.53 393.42 428.85 392.39 430.16 391.35 431.48 390.35 432.8 389.34 434.11 388.37 435.43 387.39 436.74 386.44 438.05 385.48 439.36 384.55 440.66 383.61 441.96 382.69 443.26 381.76 444.55 380.86 445.84 379.96 447.13 379.08 448.42 378.21 449.7 377.37 451 376.54 452.29 375.75 453.59 374.97 454.9 374.24 456.2 373.51 457.51 372.83 458.83 372.18 460.15 371.57 461.47 370.97 462.8 370.41 464.11 369.82 465.38 369.17 466.64 368.5 467.89 367.86 469.15 367.22 470.41 366.62 470.41 366.62 470.41 366.62 472.43 365.74 474.39 365.01 476.34 364.28 478.26 363.75 480.19 363.24 482.04 362.88 483.89 362.51 485.67 362.26 487.43 362.01 489.11 361.88 490.78 361.73 492.37 361.73 493.96 361.74 495.49 361.92 497.02 362.13 498.48 362.5 499.94 362.9 501.22 363.48 502.49 364.07 503.59 364.82 504.68 365.59 505.59 366.51 506.49 367.44 507.22 368.53 507.94 369.62 508.48 370.87 509.02 372.12 509.39 373.52 509.75 374.93 509.93 376.49 509.9 378.12 509.9 379.84 509.9 379.84 509.9 379.84M606.64 587.87Q606.64 587.87 606.64 587.87 605.03 589.61 603.38 591.3 601.57 592.97 599.58 594.58 597.59 596.17 595.42 597.71 593.25 599.23 590.93 600.69 590.93 600.69 590.93 600.69 589.81 601.38 588.54 602.07 587.28 602.76 585.87 603.46 584.47 604.16 582.93 604.87 581.41 605.59 579.76 606.32 578.14 607.05 576.4 607.8 574.7 608.55 572.9 609.34 571.14 610.13 569.31 610.96 568.42 611.38 567.51 611.8 566.61 612.24 565.71 612.68 564.81 613.13 563.94 613.58 563.08 614.04 562.23 614.5 561.4 614.96 560.59 615.43 559.79 615.9 559 616.37 558.23 616.85 557.48 617.33 556.74 617.82 556.02 618.31 555.31 618.8 554.61 619.3 553.93 619.8 553.26 620.3 552.61 620.81 551.97 621.32 551.34 621.83 550.72 622.35 550.11 622.87 549.52 623.39 548.94 623.91 548.37 624.44 547.81 624.97 547.26 625.5 546.72 626.03 546.18 626.57 545.66 627.11 545.15 627.64 544.64 628.18 544.15 628.73 543.66 629.27 543.18 629.81 542.71 630.34 542.26 630.88 541.81 631.41 541.37 631.94 540.94 632.47 540.52 632.99 540.11 633.52 539.7 634.03 539.3 634.55 538.91 635.06 538.53 635.57 538.15 636.07 537.78 636.58 537.42 637.07 537.06 637.57 536.71 638.06 536.36 638.55 536.02 639.03 535.68 639.51 535.35 639.99 535.02 640.46 534.7 640.93 534.39 641.39 534.08 641.85 533.77 642.31 533.47 642.76 533.17 643.21 532.87 643.65 532.58 644.09 532.3 644.52 532.01 644.96 531.74 645.37 531.48 645.78 531.22 646.17 530.72 646.94 530.27 647.62 529.83 648.29 529.44 648.87 529.06 649.45 528.72 649.93 528.39 650.41 528.11 650.79 527.82 651.17 527.59 651.44 527.36 651.72 527.18 651.88 527.06 651.88 526.92 651.96 526.92 651.96 526.92 651.96 526.73 652.07 526.51 652.23 526.36 652.19 526.24 652 526.11 651.81 526.02 651.47 525.92 651.12 525.85 650.63 525.77 650.14 525.71 649.56 525.68 649.27 525.65 648.96 525.62 648.64 525.59 648.31 525.56 647.97 525.53 647.62 525.5 647.26 525.47 646.88 525.43 646.5 525.4 646.1 525.36 645.7 525.32 645.28 525.27 644.85 525.23 644.41 525.18 643.97 525.13 643.5 525.07 643.04 525.02 642.56 524.95 642.07 524.88 641.57 524.81 641.06 524.73 640.54 524.64 640.01 524.54 639.47 524.32 638.38 524.08 637.2 523.8 636.03 523.52 634.86 523.2 633.7 522.9 632.55 522.57 631.39 522.29 630.25 521.98 629.1 521.73 627.97 521.73 627.97 521.73 627.97 521.59 627.31 521.44 626.3 521.29 625.29 521.13 623.93 520.97 622.57 520.8 620.86 520.63 619.16 520.45 617.1 520.36 616.08 520.27 615.01 520.18 613.94 520.09 612.82 520 611.71 519.91 610.55 519.81 609.39 519.72 608.19 519.63 606.99 519.54 605.74 519.45 604.5 519.35 603.21 519.26 601.92 519.17 600.59 519.08 599.26 519 597.88 518.91 596.5 518.83 595.1 518.76 593.7 518.69 592.28 518.63 590.86 518.57 589.42 518.52 587.97 518.47 586.51 518.41 585.04 518.36 583.56 518.31 582.07 518.26 580.56 518.21 579.05 518.16 577.52 518.11 575.99 518.06 574.44 518.02 572.88 517.97 571.35 517.92 569.82 517.87 568.3 517.82 566.79 517.78 565.29 517.73 563.79 517.68 562.32 517.63 560.84 517.59 559.38 517.54 557.92 517.5 556.48 517.45 555.04 517.41 553.61 517.36 552.19 517.32 550.79 517.28 549.38 517.24 548.01 517.2 546.65 517.16 545.32 517.12 544 517.09 542.71 517.06 541.42 517.02 540.18 516.99 538.93 516.97 537.73 516.94 536.52 516.92 535.35 516.89 534.19 516.87 533.06 516.85 531.93 516.84 530.85 516.82 529.76 516.81 528.75 516.79 527.74 516.78 526.8 516.76 524.92 516.74 523.34 516.73 521.75 516.72 520.47 516.71 519.18 516.71 518.19 516.71 518.19 516.71 518.19 516.71 516.36 516.72 514.45 516.73 512.55 516.76 510.58 516.78 508.61 516.81 506.57 516.83 505.55 516.85 504.51 516.87 503.47 516.89 502.41 516.91 501.36 516.94 500.28 516.97 499.21 516.99 498.12 517.02 497.03 517.06 495.92 517.09 494.81 517.12 493.68 517.16 492.56 517.2 491.41 517.24 490.27 517.28 489.11 517.32 487.95 517.37 486.77 517.41 485.59 517.46 484.39 517.51 483.19 517.56 481.99 517.62 480.79 517.68 479.59 517.74 478.39 517.81 477.19 517.87 475.99 517.95 474.78 518.02 473.58 518.1 472.37 518.18 471.16 518.26 469.95 518.35 468.74 518.44 467.53 518.53 466.32 518.63 465.11 518.73 463.89 518.83 462.68 518.93 461.46 519.04 460.24 519.15 459.02 519.27 457.8 519.39 456.58 519.51 455.36 519.63 454.14 519.76 452.91 519.9 451.69 520.03 450.46 520.17 449.23 520.31 448 520.46 446.77 520.61 445.54 520.76 444.3 520.92 443.07 521.08 441.84 521.25 440.62 521.42 439.39 521.6 438.17 521.78 436.95 521.97 435.73 522.16 434.51 522.36 433.3 522.56 432.08 522.76 430.87 522.97 429.65 523.19 428.45 523.41 427.24 523.64 426.03 523.87 424.82 524.11 423.62 524.35 422.41 524.6 421.21 524.85 420.01 525.11 418.81 525.37 417.61 525.64 416.42 525.91 415.22 526.19 414.02 526.47 412.83 526.76 411.63 527.05 410.44 527.35 409.25 527.66 408.06 527.97 406.86 528.28 405.67 528.61 404.5 528.94 403.32 529.28 402.16 529.63 401 529.98 399.85 530.34 398.7 530.72 397.57 531.09 396.44 531.48 395.32 531.87 394.2 532.27 393.09 532.68 391.98 533.1 390.89 533.52 389.79 533.96 388.71 534.4 387.63 534.85 386.56 535.3 385.49 535.77 384.43 536.71 382.31 537.72 380.24 538.72 378.15 539.79 376.13 540.87 374.08 542.01 372.1 542.01 372.1 542.01 372.1 542.7 370.93 543.73 369.62 544.77 368.3 546.14 366.84 547.53 365.37 549.26 363.74 550.13 362.93 551.08 362.07 552.04 361.21 553.08 360.32 554.13 359.42 555.22 358.51 556.32 357.59 557.46 356.67 558.61 355.74 559.8 354.8 561 353.86 562.24 352.91 563.49 351.96 564.78 350.99 566.08 350.03 567.42 349.06 568.77 348.09 570.16 347.11 571.55 346.13 573 345.14 574.45 344.15 575.92 343.17 577.4 342.18 578.91 341.2 580.42 340.22 581.97 339.24 583.51 338.27 585.08 337.29 586.66 336.32 588.26 335.34 589.87 334.37 591.5 333.4 593.13 332.43 594.8 331.46 596.46 330.49 598.15 329.52 599.85 328.55 601.52 327.61 603.2 326.66 604.86 325.74 606.53 324.83 608.18 323.94 609.83 323.07 611.47 322.24 613.12 321.42 614.75 320.64 616.38 319.87 618 319.13 619.62 318.38 621.22 317.65 622.82 316.93 624.41 316.23 625.99 315.53 627.54 314.85 629.09 314.19 630.61 313.55 632.13 312.93 633.61 312.33 635.1 311.75 636.55 311.2 638 310.65 639.42 310.13 640.84 309.63 642.22 309.14 643.61 308.66 644.95 308.2 646.3 307.75 647.61 307.31 648.92 306.87 650.15 306.47 651.38 306.08 652.53 305.72 653.68 305.36 654.76 305.04 655.83 304.72 656.82 304.45 658.8 303.89 660.47 303.51 662.14 303.15 663.5 302.94 663.5 302.94 663.5 302.94 665.06 302.7 666.59 302.69 668.12 302.67 669.62 302.87 671.12 303.09 672.59 303.54 674.07 304.02 675.53 304.75 677.01 305.54 678.41 306.56 679.84 307.65 681.21 308.98 682.61 310.37 683.95 311.98 685.33 313.62 686.64 315.45 687.97 317.27 689.2 319.14 690.43 320.97 691.54 322.82 692.63 324.62 693.58 326.44 694.53 328.22 695.33 330.04 696.13 331.83 696.73 333.64 697.33 335.43 697.74 337.25 698.15 339.06 698.37 340.9 698.58 342.74 698.62 344.62 698.62 344.62 698.62 344.62 698.64 346.24 698.55 347.73 698.45 349.23 698.24 350.59 698.03 351.96 697.7 353.2 697.37 354.44 696.93 355.55 696.49 356.67 695.94 357.85 695.38 359.03 694.71 360.26 694.04 361.5 693.25 362.8 692.46 364.11 691.55 365.47 691.55 365.47 691.55 365.47 690.26 367.08 688.29 368.85 687.3 369.74 686.13 370.67 684.97 371.59 683.64 372.56 682.3 373.53 680.8 374.54 679.29 375.56 677.62 376.62 675.95 377.68 674.11 378.78 672.28 379.89 670.28 381.04 668.28 382.2 666.25 383.36 664.23 384.52 662.17 385.68 660.12 386.85 658.03 388.02 655.95 389.2 653.84 390.37 651.73 391.55 649.6 392.73 647.47 393.92 645.31 395.11 643.16 396.3 640.99 397.49 639.9 398.09 638.81 398.68 637.72 399.28 636.62 399.88 635.52 400.48 634.44 401.08 633.35 401.67 632.28 402.26 630.13 403.44 628.02 404.59 625.92 405.75 623.86 406.88 621.8 408.01 619.77 409.12 617.76 410.22 615.78 411.31 613.81 412.39 611.87 413.45 609.94 414.51 608.04 415.54 606.16 416.57 604.3 417.58 602.46 418.59 600.76 419.52 599.07 420.45 597.52 421.32 595.98 422.18 594.58 422.97 593.18 423.76 591.92 424.48 590.67 425.2 589.56 425.84 588.44 426.49 587.47 427.06 585.52 428.21 584.1 429.07 584.1 429.07 584.1 429.07 583.76 430.35 583.42 431.64 583.07 432.93 582.72 434.22 582.37 435.51 582.02 436.8 581.67 438.09 581.31 439.38 580.95 440.67 580.59 441.96 580.22 443.25 579.86 444.54 579.49 445.83 579.12 447.12 578.75 448.4 578.37 449.7 578 450.99 577.63 452.27 577.27 453.56 576.92 454.85 576.57 456.13 576.23 457.42 575.89 458.71 575.57 459.99 575.24 461.27 574.93 462.56 574.61 463.84 574.31 465.12 574.01 466.4 573.72 467.68 573.43 468.96 573.15 470.24 573.15 470.24 573.15 470.24 574.62 469.25 576.14 468.27 577.67 467.28 579.25 466.31 580.85 465.33 582.5 464.36 584.17 463.4 585.89 462.44 587.62 461.48 589.41 460.54 591.22 459.59 593.08 458.65 594.96 457.72 596.9 456.8 597.87 456.34 598.86 455.88 599.86 455.42 600.87 454.97 602.9 454.06 604.9 453.26 606.92 452.45 608.91 451.75 610.92 451.06 612.89 450.47 614.88 449.88 616.84 449.39 618.81 448.91 620.75 448.54 622.7 448.17 624.62 447.91 626.54 447.65 628.44 447.5 630.34 447.35 632.2 447.31 632.2 447.31 632.2 447.31 634.1 447.28 635.86 447.38 637.63 447.49 639.26 447.73 640.89 447.98 642.38 448.36 643.87 448.74 645.21 449.26 646.56 449.78 647.75 450.43 648.94 451.08 649.98 451.87 651.01 452.65 651.88 453.57 652.75 454.49 653.46 455.53 654.17 456.58 654.71 457.75 655.24 458.92 655.61 460.22 655.96 461.52 656.15 462.94 656.33 464.36 656.34 465.9 656.34 467.44 656.17 469.1 655.98 470.76 655.63 472.54 655.26 474.31 654.71 476.2 654.15 478.08 653.41 480.08 653.41 480.08 653.41 480.08 652.69 482.02 651.82 483.83 650.94 485.64 649.92 487.32 648.9 488.99 647.75 490.53 646.59 492.07 645.31 493.48 644.03 494.89 642.67 496.2 641.32 497.51 639.91 498.72 638.49 499.93 637.02 501.05 635.55 502.17 634.02 503.19 632.5 504.21 630.94 505.16 629.39 506.11 627.81 506.98 626.23 507.85 624.63 508.65 623.03 509.45 621.4 510.18 619.79 510.91 618.21 511.63 616.63 512.35 615.09 513.06 613.56 513.78 612.07 514.48 610.58 515.18 609.12 515.87 609.12 515.87 609.12 515.87 607.35 516.71 605.6 517.52 603.87 518.34 602.15 519.13 600.45 519.92 598.77 520.68 597.11 521.45 595.46 522.19 593.83 522.94 592.22 523.66 590.63 524.38 589.05 525.08 587.49 525.78 585.95 526.45 584.43 527.13 582.92 527.79 581.43 528.45 579.96 529.11 578.5 529.77 577.07 530.44 575.65 531.11 574.25 531.77 572.86 532.45 571.5 533.12 570.14 533.8 568.81 534.47 567.49 535.15 566.18 535.83 564.89 536.52 563.62 537.2 562.36 537.88 561.11 538.57 561.11 538.57 561.11 538.57 560.48 540.21 559.82 542 559.16 543.79 558.47 545.74 557.78 547.67 557.22 549.55 556.67 551.42 556.24 553.23 556.24 553.23 556.24 553.23 555.9 554.64 555.59 556.04 555.27 557.45 554.98 558.85 554.69 560.25 554.42 561.64 554.15 563.04 553.9 564.43 553.64 565.82 553.38 567.21 553.12 568.6 552.85 569.99 552.58 571.37 552.3 572.76 552.02 574.14 551.73 575.52 551.73 575.52 551.73 575.52 552.39 575.07 553.25 574.49 554.12 573.9 555.21 573.18 555.76 572.82 556.37 572.43 556.98 572.04 557.65 571.62 558.33 571.2 559.07 570.74 559.81 570.29 560.62 569.81 561.44 569.33 562.27 568.85 563.12 568.37 563.98 567.9 564.85 567.43 565.74 566.96 566.65 566.49 567.57 566.03 568.5 565.57 569.45 565.11 570.41 564.66 571.4 564.21 572.4 563.77 573.42 563.32 574.45 562.89 575.5 562.45 576.57 562.02 577.64 561.61 578.72 561.2 579.8 560.82 580.9 560.43 581.99 560.07 583.1 559.71 584.2 559.37 585.32 559.03 586.44 558.71 587.57 558.4 588.69 558.11 589.83 557.82 590.97 557.55 592.11 557.28 593.26 557.04 594.42 556.79 595.5 556.59 596.59 556.39 597.61 556.23 598.64 556.07 599.58 555.95 600.53 555.83 601.4 555.75 603.16 555.59 604.56 555.57 605.98 555.55 607.02 555.67 607.02 555.67 607.02 555.67 608.24 555.82 609.32 556.12 610.41 556.43 611.36 556.9 612.31 557.37 613.12 558.01 613.92 558.64 614.57 559.43 615.22 560.22 615.71 561.1 616.19 561.98 616.52 562.95 616.83 563.91 616.99 564.96 617.13 566.01 617.11 567.14 617.08 568.27 616.9 569.47 616.7 570.67 616.36 571.93 616.01 573.19 615.5 574.52 614.98 575.84 614.31 577.22 613.63 578.61 612.82 579.97 612.01 581.33 611.07 582.66 610.12 583.99 609.06 585.3 607.82 586.58 606.64 587.87 606.64 587.87 606.64 587.87" class="warpedPath"></path></svg>