<svg id="svg_container" xmlns="http://www.w3.org/2000/svg" class="mw-100 mh-100 edit-svg" style="visibility: visible" viewBox="12.239999771118164 236.97000122070312 991.47998046875 524.719970703125" width="996.47998046875px" height="529.719970703125px">
        <defs>
            <linearGradient id="sampleGradient" gradientTransform="rotate(1)" x1="0%" y1="50%" x2="100%" y2="50%" gradientUnits="userSpaceOnUse">
                <stop offset="0%" id="first_color" stop-color="#6b6fff"></stop>
                <stop offset="100%" id="second_color" stop-color="#bc91c1"></stop>
            </linearGradient>
        </defs>
    <path fill="#a382ff" d="M129.02 425.61Q129.02 425.61 129.02 425.61 127.95 425.36 126.88 425.13 125.81 424.9 124.75 424.67 123.7 424.4 122.67 424.11 121.64 423.83 120.63 423.53 119.62 423.2 118.63 422.86 117.64 422.53 116.66 422.18 115.68 421.82 114.72 421.46 113.76 421.1 112.82 420.73 111.88 420.36 110.95 419.98 110.02 419.59 109.11 419.2 108.19 418.81 107.3 418.41 106.4 418 105.52 417.59 104.65 417.17 103.79 416.74 102.93 416.31 102.09 415.87 101.25 415.42 100.43 414.97 99.61 414.51 98.81 414.05 98.01 413.58 97.22 413.1 96.44 412.62 95.68 412.12 94.93 411.63 94.19 411.13 93.45 410.63 92.73 410.12 92.01 409.61 91.32 409.1 90.63 408.58 89.95 408.06 89.28 407.54 88.64 407.01 87.99 406.48 87.37 405.95 86.75 405.41 86.15 404.87 85.56 404.33 84.99 403.78 84.43 403.24 83.89 402.68 83.35 402.13 82.84 401.57 82.34 401.01 81.85 400.44 81.38 399.88 80.92 399.31 80.47 398.74 80.05 398.17 79.63 397.6 79.23 397.03 78.83 396.46 78.47 395.89 78.11 395.33 77.78 394.77 77.46 394.22 77.16 393.67 76.86 393.13 76.59 392.59 76.33 392.06 76.09 391.54 75.85 391.02 75.64 390.5 75.43 390 75.24 389.49 75.06 389 74.9 388.51 74.74 388.02 74.61 387.54 74.47 387.06 74.37 386.59 74.26 386.13 74.18 385.66 74.1 385.2 74.05 384.75 73.99 384.3 73.97 383.85 73.94 383.4 73.94 382.96 73.94 382.52 73.97 382.08 73.99 381.65 74.05 381.21 74.1 380.78 74.18 380.35 74.27 379.93 74.37 379.5 74.48 379.07 74.62 378.65 74.75 378.22 74.92 377.8 75.08 377.38 75.27 376.96 75.46 376.54 75.68 376.12 75.9 375.7 76.15 375.28 76.39 374.87 76.67 374.45 76.94 374.03 77.23 373.61 77.53 373.19 77.86 372.77 78.19 372.35 78.55 371.94 78.9 371.52 79.29 371.1 79.67 370.68 80.07 370.25 80.48 369.83 80.91 369.4 81.34 368.97 81.81 368.55 82.27 368.13 82.76 367.7 83.25 367.27 83.75 366.85 84.25 366.43 84.76 366.02 85.27 365.6 85.79 365.19 86.31 364.78 86.85 364.39 87.39 363.99 87.94 363.6 88.49 363.21 89.04 362.82 89.6 362.43 90.17 362.05 90.74 361.66 91.32 361.29 91.9 360.91 92.49 360.54 93.08 360.17 93.68 359.8 94.29 359.44 94.9 359.07 95.51 358.71 96.13 358.35 96.75 357.99 97.38 357.63 98.01 357.27 98.64 356.92 99.28 356.56 99.93 356.21 100.58 355.86 101.23 355.51 101.89 355.16 102.55 354.81 103.21 354.46 103.89 354.11 104.55 353.76 105.23 353.41 105.91 353.06 106.59 352.71 107.28 352.35 107.97 352 108.65 351.65 109.35 351.29 110.04 350.93 110.74 350.57 111.44 350.21 112.14 349.85 112.84 349.48 113.55 349.11 114.25 348.73 114.96 348.35 115.67 347.97 116.38 347.58 117.08 347.19 117.79 346.8 118.5 346.39 119.21 345.99 119.92 345.57 120.63 345.15 121.33 344.72 122.04 344.29 122.74 343.85 123.44 343.4 124.14 342.94 124.84 342.48 125.52 342.01 126.21 341.54 126.89 341.07 127.57 340.59 128.24 340.1 128.91 339.61 129.58 339.11 130.24 338.61 130.9 338.1 131.55 337.59 132.2 337.08 132.85 336.57 133.5 336.05 134.14 335.53 134.79 335.01 135.43 334.48 136.06 333.96 136.7 333.43 137.34 332.91 137.97 332.38 138.61 331.85 139.24 331.33 139.87 330.8 140.51 330.28 141.14 329.76 141.77 329.24 142.41 328.72 143.04 328.2 143.67 327.69 144.31 327.18 144.95 326.67 145.59 326.17 146.22 325.66 146.87 325.16 147.51 324.67 148.15 324.18 148.79 323.69 149.44 323.21 150.09 322.73 150.74 322.25 151.39 321.78 152.05 321.32 152.7 320.85 153.36 320.4 154.02 319.95 154.69 319.5 155.35 319.06 156.02 318.62 156.68 318.18 157.36 317.76 158.03 317.34 158.71 316.93 159.39 316.51 160.07 316.11 160.75 315.71 161.44 315.31 162.13 314.92 162.82 314.54 163.52 314.17 164.22 313.8 164.92 313.43 165.63 313.08 165.63 313.08 165.63 313.08 166.5 312.63 167.36 312.22 168.22 311.81 169.06 311.42 169.9 311.04 170.73 310.69 171.55 310.34 172.35 310.01 173.15 309.68 173.94 309.39 174.72 309.1 175.49 308.84 176.25 308.58 177 308.34 177.74 308.11 178.47 307.9 179.2 307.71 179.91 307.53 180.62 307.37 181.31 307.23 182 307.09 182.67 306.98 183.34 306.88 183.99 306.8 184.65 306.73 185.28 306.69 185.92 306.66 186.54 306.65 187.15 306.66 187.75 306.69 188.35 306.73 188.94 306.8 189.52 306.89 190.06 307.01 190.6 307.14 191.1 307.31 191.6 307.5 192.05 307.72 192.51 307.96 192.92 308.24 193.34 308.52 193.71 308.85 194.09 309.19 194.42 309.56 195.09 310.34 195.57 311.26 196.07 312.19 196.37 313.25 196.68 314.33 196.8 315.51 196.92 316.7 196.84 318 196.64 319.31 196.37 320.71 196.37 320.71 196.37 320.71 196.12 321.97 195.89 323.07 195.54 324.18 195.09 325.16 194.72 326.13 194.29 326.97 193.87 327.8 193.33 328.5 192.78 329.2 192.1 329.76 191.42 330.33 190.61 330.76 189.79 331.19 188.85 331.5 187.91 331.81 186.85 332 186.85 332 186.85 332 185.76 332.2 184.79 332.13 183.82 332.07 182.98 331.73 182.15 331.41 181.45 330.82 180.76 330.24 180.21 329.39 179.67 328.56 179.23 327.68 178.8 326.81 178.47 325.89 178.15 324.98 177.93 324.01 177.72 323.06 177.61 322.04 177.51 321.04 177.23 320.15 176.95 319.27 176.5 318.51 176.28 318.14 176.02 317.8 175.75 317.46 175.44 317.15 175.14 316.85 174.79 316.58 174.44 316.31 174.05 316.07 173.66 315.84 173.21 315.69 172.77 315.54 172.27 315.47 171.77 315.4 171.22 315.41 170.67 315.42 170.06 315.51 169.45 315.6 168.78 315.77 168.12 315.94 167.4 316.18 166.68 316.43 165.9 316.75 165.13 317.08 164.29 317.48 164.29 317.48 164.29 317.48 163.33 317.94 162.37 318.44 161.42 318.95 160.47 319.5 159.53 320.04 158.6 320.63 157.66 321.21 156.74 321.83 155.82 322.45 154.91 323.11 153.99 323.77 153.09 324.45 152.18 325.14 151.28 325.86 150.38 326.58 149.48 327.33 148.59 328.07 147.7 328.85 146.8 329.62 145.91 330.41 145.02 331.2 144.13 332.02 143.23 332.83 142.34 333.66 141.44 334.48 140.54 335.32 139.64 336.16 138.73 337.01 137.82 337.85 136.9 338.71 135.98 339.56 135.05 340.42 134.12 341.27 133.19 342.12 132.25 342.96 131.32 343.81 130.38 344.64 129.45 345.47 128.51 346.3 127.57 347.13 126.63 347.94 125.69 348.77 124.75 349.59 123.82 350.41 123.35 350.82 122.88 351.23 122.41 351.64 121.95 352.05 121.48 352.46 121.01 352.87 120.55 353.28 120.09 353.7 119.62 354.11 119.16 354.53 118.7 354.94 118.24 355.36 117.78 355.78 117.32 356.2 116.87 356.62 116.41 357.04 115.96 357.47 115.51 357.89 115.06 358.32 114.61 358.75 114.16 359.18 113.72 359.62 113.28 360.06 112.84 360.5 112.4 360.94 111.96 361.39 111.53 361.83 111.1 362.28 110.66 362.74 110.24 363.2 109.81 363.65 109.39 364.12 108.97 364.58 108.55 365.06 108.14 365.53 107.73 366.01 107.31 366.49 106.91 366.98 106.5 367.47 106.11 367.96 105.71 368.46 105.33 368.95 104.95 369.44 104.59 369.93 104.22 370.42 103.88 370.9 103.54 371.39 103.22 371.87 102.9 372.35 102.6 372.82 102.3 373.3 102.01 373.78 101.73 374.25 101.47 374.72 101.21 375.2 100.97 375.67 100.73 376.14 100.5 376.6 100.28 377.07 100.08 377.54 99.88 378.01 99.7 378.47 99.52 378.94 99.36 379.4 99.2 379.87 99.06 380.33 98.93 380.8 98.81 381.26 98.69 381.72 98.59 382.18 98.5 382.65 98.42 383.11 98.35 383.58 98.29 384.04 98.24 384.5 98.21 384.97 98.17 385.43 98.16 385.89 98.15 386.36 98.16 386.83 98.19 387.76 98.29 388.69 98.41 389.63 98.6 390.56 98.81 391.51 99.1 392.45 99.39 393.4 99.77 394.34 100.16 395.29 100.64 396.23 101.13 397.18 101.71 398.12 102.29 399.07 102.94 400 103.6 400.93 104.31 401.83 105.04 402.74 105.83 403.62 106.63 404.51 107.49 405.36 108.35 406.22 109.28 407.04 110.21 407.87 111.2 408.65 112.2 409.45 113.26 410.2 114.32 410.96 115.43 411.68 116.56 412.4 117.73 413.08 118.92 413.76 120.15 414.4 121.39 415.04 122.69 415.63 123.98 416.23 125.33 416.79 126.68 417.34 128.08 417.85 129.49 418.36 130.94 418.83 132.4 419.3 133.9 419.72 135.4 420.15 136.96 420.53 136.96 420.53 136.96 420.53 138.14 420.83 139.3 421.09 140.47 421.36 141.62 421.6 142.77 421.84 143.9 422.06 145.03 422.28 146.15 422.47 147.27 422.66 148.36 422.83 149.46 423 150.54 423.15 151.62 423.29 152.68 423.41 153.74 423.53 154.78 423.62 155.82 423.72 156.85 423.78 157.87 423.84 158.87 423.88 159.87 423.91 160.86 423.92 161.84 423.92 162.8 423.9 163.76 423.87 164.7 423.81 165.63 423.76 166.55 423.67 167.46 423.58 168.35 423.46 169.24 423.34 170.11 423.19 170.97 423.03 171.81 422.85 172.65 422.66 173.46 422.44 174.27 422.22 175.06 421.97 175.84 421.71 176.6 421.42 177.35 421.13 178.08 420.8 178.8 420.48 179.5 420.12 180.2 419.76 180.87 419.36 181.54 418.96 182.18 418.54 182.82 418.11 183.43 417.64 184.04 417.18 184.63 416.68 185.21 416.19 185.77 415.66 186.32 415.13 186.86 414.57 187.38 414.01 187.89 413.42 188.4 412.82 188.88 412.2 189.36 411.58 189.82 410.92 190.27 410.27 190.71 409.59 190.71 409.59 190.71 409.59 191.91 410.3 193.11 411.01 194.31 411.72 195.35 412.41 195 413.31 194.46 414.16 193.93 415 193.36 415.81 192.8 416.61 192.2 417.38 191.6 418.15 190.98 418.88 190.34 419.6 189.68 420.29 189.02 420.97 188.32 421.62 187.62 422.26 186.88 422.86 186.14 423.45 185.36 424.01 184.58 424.55 183.76 425.06 182.94 425.56 182.08 426.01 181.21 426.46 180.3 426.87 179.39 427.27 178.45 427.63 177.49 427.98 176.51 428.29 175.51 428.59 174.49 428.84 173.46 429.09 172.4 429.3 171.34 429.51 170.25 429.67 169.15 429.83 168.03 429.95 166.9 430.07 165.75 430.16 164.59 430.25 163.41 430.3 162.23 430.36 161.02 430.38 159.81 430.4 158.58 430.38 157.35 430.35 156.1 430.28 154.86 430.18 153.59 430.05 152.33 429.91 151.05 429.74 149.76 429.57 148.45 429.39 147.13 429.24 145.78 429.08 144.43 428.92 143.06 428.74 141.69 428.55 140.3 428.34 138.92 428.11 137.52 427.8 136.13 427.5 134.72 427.15 133.31 426.8 131.89 426.39 130.48 425.97 129.02 425.61 129.02 425.61 129.02 425.61M335.12 256.98Q335.12 256.98 335.12 256.98 336.35 256.73 337.55 256.58 338.75 256.42 339.92 256.34 341.08 256.27 342.22 256.28 343.36 256.29 344.47 256.39 345.58 256.48 346.66 256.66 347.74 256.85 348.79 257.12 349.85 257.39 350.88 257.75 351.91 258.12 352.92 258.58 353.93 259.04 354.84 259.59 355.76 260.15 356.57 260.8 358.2 262.1 359.39 263.72 360.59 265.35 361.33 267.27 361.85 269.2 362.12 271.4 362.39 273.59 362.52 275.56 362.44 277.55 362.02 279.34 361.6 281.13 360.83 282.72 360.05 284.3 358.92 285.69 357.78 287.08 356.52 288.16 355.25 289.25 353.86 290.03 352.47 290.81 350.97 291.29 349.48 291.78 347.89 291.96 346.3 292.15 344.5 292 342.7 291.86 340.7 291.39 339.7 291.16 338.65 290.84 337.6 290.53 336.5 290.14 335.4 289.76 334.25 289.29 333.11 288.83 331.91 288.29 330.72 287.75 329.52 287.32 328.33 286.88 327.13 286.54 325.93 286.21 324.72 285.97 323.52 285.74 322.31 285.6 321.1 285.46 319.88 285.42 318.66 285.38 317.44 285.44 316.21 285.5 314.98 285.65 313.75 285.8 312.51 286.05 312.51 286.05 312.51 286.05 310.58 286.43 308.76 287.29 306.95 288.14 305.25 289.46 304.4 290.12 303.57 290.89 302.75 291.66 301.96 292.54 301.16 293.42 300.4 294.42 299.63 295.41 298.89 296.51 298.15 297.61 297.43 298.82 296.72 300.03 296.03 301.35 295.34 302.66 294.67 304.08 294.01 305.49 293.37 307.02 292.72 308.53 292.11 310.16 291.49 311.77 290.9 313.5 290.3 315.21 289.73 317.03 289.16 318.84 288.61 320.75 288.06 322.66 287.54 324.59 287.02 326.51 286.54 328.45 286.06 330.38 285.62 332.34 285.17 334.3 284.76 336.27 284.55 337.26 284.36 338.25 284.16 339.24 283.97 340.23 283.79 341.23 283.61 342.23 283.43 343.23 283.26 344.23 283.09 345.23 282.93 346.24 282.77 347.25 282.62 348.27 282.46 349.28 282.32 350.3 282.18 351.32 282.04 352.35 281.91 353.37 281.79 354.4 281.66 355.43 281.54 356.47 281.43 357.5 281.32 358.55 281.22 359.59 281.12 360.64 281.02 361.68 280.93 362.74 280.85 363.79 280.77 364.86 280.69 365.92 280.62 366.98 280.55 368.05 280.49 369.13 280.43 370.2 280.38 371.28 280.33 372.37 280.28 373.46 280.24 374.55 280.21 375.64 280.18 376.74 280.16 377.85 280.13 378.95 280.12 380.06 280.11 381.18 280.1 382.3 280.1 383.42 280.1 384.55 280.11 385.68 280.12 386.82 280.12 386.82 280.12 386.82 280.15 388.35 280.17 389.85 280.2 391.34 280.22 392.8 280.25 394.26 280.29 395.68 280.32 397.11 280.36 398.49 280.4 399.88 280.44 401.22 280.49 402.57 280.53 403.88 280.58 405.2 280.63 406.47 280.69 407.75 280.74 408.99 280.8 410.23 280.86 411.43 280.92 412.63 280.99 413.8 281.06 414.96 281.13 416.1 281.2 417.23 281.28 418.32 281.35 419.42 281.43 420.47 281.51 421.53 281.6 422.56 281.68 423.58 281.77 424.56 281.86 425.55 281.96 426.5 282.14 428.4 282.35 430.16 282.56 431.92 282.78 433.53 283.01 435.14 283.25 436.61 283.49 438.08 283.75 439.39 284.01 440.72 284.29 441.89 284.57 443.06 284.87 444.09 285.46 446.14 286.13 447.59 286.13 447.59 286.13 447.59 286.54 448.55 287.12 449.51 287.7 450.48 288.46 451.44 289.21 452.4 290.14 453.36 291.07 454.33 292.17 455.29 293.27 456.26 294.4 457.08 295.52 457.9 296.67 458.56 297.81 459.23 298.98 459.74 300.15 460.25 301.34 460.6 302.53 460.96 303.96 461.34 305.4 461.71 307.09 462.11 308.78 462.51 310.71 462.92 311.68 463.12 312.71 463.33 313.74 463.53 314.84 463.73 314.84 463.73 314.84 463.73 315.05 465.02 315.26 466.3 315.46 467.58 315.67 468.67 314.16 468.37 312.66 468.07 311.15 467.77 309.64 467.47 308.13 467.16 306.63 466.82 305.13 466.49 303.62 466.16 302.12 465.82 300.62 465.49 299.11 465.15 297.61 464.82 296.11 464.49 294.6 464.15 293.1 463.82 291.6 463.48 290.09 463.15 288.59 462.84 287.08 462.53 285.57 462.23 284.06 461.93 282.55 461.62 281.04 461.32 279.53 461 278.03 460.67 276.52 460.34 275.02 460.01 273.52 459.68 272.01 459.35 270.51 459.02 269.01 458.69 267.5 458.35 266 458.02 264.5 457.69 262.99 457.35 261.49 457.02 259.98 456.71 258.47 456.41 256.96 456.11 255.45 455.8 253.94 455.5 252.43 455.2 250.93 454.88 249.42 454.55 247.92 454.22 246.41 453.88 244.91 453.55 243.41 453.22 241.9 452.89 240.4 452.56 238.9 452.22 237.39 451.89 235.89 451.55 234.39 451.22 232.88 450.89 231.37 450.59 229.86 450.29 228.35 449.98 226.84 449.68 225.33 449.38 223.82 449.08 222.32 448.75 220.81 448.42 219.31 448.09 219.48 447.2 219.65 446.17 219.81 445.16 219.97 444.17 221.57 444.47 223.05 444.73 224.53 445 225.9 445.23 227.27 445.46 228.54 445.65 229.8 445.84 230.95 445.99 232.11 446.14 233.15 446.26 234.19 446.37 235.13 446.45 236.99 446.6 238.42 446.58 239.85 446.55 241.16 446.11 242.47 445.66 243.66 444.78 244.85 443.91 245.92 442.61 246.46 441.96 246.96 441.2 247.47 440.44 247.94 439.58 248.41 438.72 248.84 437.79 249.26 436.86 249.62 435.86 249.99 434.86 250.31 433.8 250.62 432.73 250.88 431.6 251.14 430.47 251.35 429.27 251.55 428.07 251.7 426.8 251.86 425.54 251.96 424.21 252.06 422.88 252.1 421.49 252.15 420.1 252.18 418.5 252.22 416.91 252.24 415.1 252.25 414.2 252.26 413.25 252.27 412.29 252.28 411.29 252.28 410.29 252.29 409.23 252.29 408.17 252.29 407.07 252.29 405.96 252.29 404.8 252.29 403.65 252.29 402.44 252.28 401.23 252.28 399.97 252.27 398.71 252.27 397.4 252.26 396.09 252.25 394.73 252.24 393.37 252.22 391.95 252.21 390.54 252.2 389.08 252.18 387.61 252.16 386.1 252.16 386.1 252.16 386.1 252.15 384.82 252.14 383.55 252.12 382.28 252.11 381 252.09 379.73 252.08 378.46 252.06 377.18 252.05 375.91 252.04 374.63 252.02 373.36 252.01 372.09 252 370.81 251.98 369.54 251.97 368.26 251.95 366.99 251.94 365.71 251.92 364.18 251.9 362.7 251.88 361.21 251.86 359.76 251.84 358.31 251.81 356.91 251.79 355.5 251.76 354.14 251.73 352.77 251.7 351.45 251.67 350.12 251.64 348.84 251.6 347.55 251.57 346.31 251.53 345.06 251.49 343.86 251.45 342.66 251.41 341.5 251.37 340.33 251.32 339.21 251.28 338.09 251.23 337.01 251.18 335.93 251.13 334.89 251.08 333.85 251.03 332.85 250.97 331.85 250.92 330.89 250.86 329.94 250.8 329.02 250.74 328.1 250.68 327.23 250.56 325.48 250.43 323.89 250.29 322.31 250.15 320.89 250.01 319.47 249.86 318.22 249.71 316.97 249.55 315.89 249.38 314.81 249.22 313.9 249.05 312.99 248.87 312.25 248.52 310.78 248.13 310 247.36 308.44 246.64 307.05 245.91 305.67 245.22 304.46 244.54 303.25 243.89 302.22 243.25 301.19 242.64 300.34 242.04 299.48 241.29 298.83 240.55 298.19 239.67 297.75 238.79 297.31 237.77 297.08 236.75 296.85 235.6 296.83 235.6 296.83 235.6 296.83 234.54 296.88 233.4 296.99 232.26 297.1 231.04 297.27 229.82 297.44 228.52 297.68 227.21 297.91 225.83 298.2 224.44 298.48 222.97 298.82 221.5 299.15 219.95 299.52 218.39 299.88 216.74 300.26 215.09 300.6 213.35 300.96 213.35 300.96 213.35 300.96 213.15 300.12 212.96 299.28 212.76 298.44 212.57 297.61 213.6 297.28 214.62 296.93 215.64 296.55 216.65 296.15 217.66 295.73 218.67 295.3 219.68 294.86 220.68 294.41 221.68 293.95 222.68 293.5 223.68 293.04 224.68 292.58 225.68 292.11 226.68 291.65 227.67 291.19 228.67 290.74 229.67 290.28 230.67 289.83 231.67 289.38 232.67 288.93 233.67 288.49 234.67 288.05 235.67 287.61 236.67 287.17 237.67 286.74 238.67 286.32 239.68 285.89 240.68 285.47 241.68 285.05 242.68 284.64 243.69 284.23 244.69 283.82 245.69 283.42 246.7 283.02 247.7 282.62 248.71 282.23 249.71 281.84 250.72 281.46 251.73 281.08 252.73 280.7 253.74 280.33 254.75 279.96 255.75 279.59 256.76 279.23 257.77 278.87 258.78 278.52 259.79 278.17 260.8 277.82 261.81 277.48 262.82 277.14 263.83 276.81 264.84 276.48 265.85 276.15 266.86 275.83 267.88 275.51 268.89 275.2 269.9 274.89 270.92 274.58 271.93 274.28 272.94 273.98 273.96 273.68 274.97 273.39 275.99 273.11 277 272.82 277 272.82 277 272.82 277.09 274.71 277.17 276.61 277.26 278.5 277.34 280.39 277.43 282.28 277.51 284.16 277.6 286.04 277.68 287.92 277.76 289.79 277.84 291.66 277.91 293.53 277.99 295.38 278.06 297.24 278.13 299.09 278.2 300.93 278.27 302.77 278.34 304.61 278.41 306.44 278.47 308.27 278.53 310.09 278.59 311.91 278.65 313.73 278.71 315.54 278.76 317.35 278.82 319.16 278.87 320.96 278.92 322.76 278.97 324.56 279.02 326.35 279.07 328.15 279.11 329.94 279.16 331.73 279.39 329.96 279.66 328.23 279.93 326.49 280.24 324.79 280.55 323.08 280.91 321.41 281.26 319.73 281.65 318.08 282.04 316.43 282.48 314.81 282.91 313.19 283.38 311.6 283.86 310.01 284.37 308.45 284.89 306.88 285.44 305.35 286 303.81 286.59 302.3 287.19 300.79 287.83 299.32 288.46 297.83 289.14 296.39 289.82 294.94 290.54 293.52 291.26 292.1 292.03 290.72 292.79 289.33 293.6 287.98 294.4 286.63 295.25 285.31 296.1 283.99 296.99 282.71 297.88 281.43 298.8 280.2 299.73 278.98 300.69 277.81 301.66 276.63 302.66 275.52 303.66 274.41 304.7 273.35 305.74 272.3 306.81 271.31 307.89 270.31 309 269.38 310.11 268.44 311.27 267.57 312.42 266.7 313.61 265.88 314.8 265.07 316.02 264.32 317.25 263.58 318.52 262.89 319.78 262.21 321.09 261.58 322.39 260.96 323.74 260.4 325.08 259.85 326.47 259.35 327.85 258.86 329.27 258.43 330.69 258 332.15 257.64 333.62 257.28 335.12 256.98 335.12 256.98 335.12 256.98M527.74 361.55Q527.74 361.55 527.74 361.55 526.94 361.52 525.94 361.48 524.95 361.45 523.95 361.41 522.96 361.37 521.96 361.34 520.96 361.3 519.97 361.27 518.97 361.23 517.98 361.2 516.98 361.16 515.98 361.13 514.99 361.09 513.99 361.06 513 361.02 512 360.99 511 360.95 510.01 360.92 509.01 360.89 508.02 360.85 507.02 360.82 506.03 360.78 505.03 360.75 504.04 360.72 503.04 360.68 502.05 360.65 501.06 360.62 500.06 360.58 499.07 360.55 498.07 360.52 497.08 360.49 496.09 360.45 495.1 360.42 494.1 360.39 493.11 360.36 492.12 360.33 491.13 360.29 490.14 360.26 489.14 360.23 488.15 360.2 487.16 360.17 486.17 360.14 485.18 360.11 484.19 360.08 483.2 360.04 482.21 360.01 481.22 359.98 480.23 359.95 479.24 359.92 478.25 359.89 477.26 359.86 476.28 359.83 475.29 359.81 474.3 359.78 473.31 359.75 472.32 359.72 471.34 359.69 470.35 359.66 469.36 359.63 468.37 359.6 467.39 359.58 466.4 359.55 465.41 359.52 464.43 359.49 463.44 359.47 462.46 359.44 461.47 359.41 460.48 359.38 459.5 359.36 458.51 359.33 457.53 359.3 456.54 359.28 455.56 359.25 454.57 359.23 453.59 359.2 452.6 359.18 451.62 359.15 450.63 359.12 449.65 359.1 448.66 359.07 447.68 359.05 446.69 359.02 445.71 359 444.73 358.98 443.74 358.95 442.76 358.93 441.77 358.9 440.79 358.88 439.8 358.85 438.82 358.83 437.84 358.81 436.85 358.78 435.87 358.76 434.88 358.74 433.9 358.72 432.92 358.69 431.93 358.67 430.95 358.65 429.96 358.62 428.98 358.6 427.99 358.58 427.01 358.56 426.03 358.54 425.04 358.51 424.06 358.49 423.07 358.47 422.09 358.45 421.1 358.43 420.12 358.41 419.13 358.38 418.15 358.36 417.16 358.34 416.18 358.32 415.19 358.3 414.21 358.28 413.22 358.26 412.24 358.24 411.25 358.21 410.26 358.19 409.28 358.17 408.29 358.15 407.31 358.13 406.32 358.11 405.33 358.09 404.35 358.07 403.36 358.05 402.38 358.03 401.39 358.01 401.4 360.03 401.41 362.05 401.42 364.07 401.43 366.09 401.44 367.67 401.47 369.22 401.49 370.77 401.54 372.3 401.58 373.83 401.64 375.34 401.7 376.84 401.78 378.33 401.86 379.81 401.95 381.28 402.05 382.74 402.16 384.18 402.27 385.62 402.4 387.04 402.53 388.45 402.68 389.85 402.83 391.25 402.99 392.62 403.16 393.99 403.34 395.35 403.53 396.7 403.73 398.03 403.93 399.36 404.15 400.67 404.36 401.98 404.6 403.27 404.84 404.56 405.09 405.83 405.35 407.1 405.62 408.35 405.89 409.59 406.18 410.82 406.47 412.05 406.77 413.25 407.08 414.46 407.41 415.65 407.73 416.83 408.07 418 408.42 419.16 408.78 420.31 409.5 422.6 410.28 424.81 411.07 427.02 411.93 429.15 412.78 431.29 413.7 433.34 414.62 435.4 415.61 437.37 416.59 439.35 417.64 441.24 418.69 443.14 419.81 444.96 420.92 446.78 422.06 448.51 423.2 450.24 424.37 451.87 425.54 453.5 426.73 455.04 427.93 456.58 429.16 458.02 430.38 459.46 431.63 460.81 432.89 462.15 434.17 463.4 435.45 464.65 436.76 465.79 438.08 466.94 439.42 467.99 440.76 469.03 442.13 469.97 443.5 470.92 444.9 471.75 446.31 472.59 447.74 473.33 449.17 474.07 450.63 474.71 452.09 475.35 453.59 475.88 455.08 476.43 456.6 476.86 458.12 477.3 459.67 477.63 461.23 477.96 462.82 478.18 462.82 478.18 462.82 478.18 464 478.33 465.16 478.44 466.33 478.55 467.47 478.61 468.61 478.67 469.74 478.69 470.86 478.7 471.96 478.66 473.07 478.63 474.15 478.55 475.23 478.47 476.29 478.35 477.36 478.23 478.4 478.06 479.44 477.89 480.46 477.68 481.48 477.47 482.48 477.22 483.48 476.96 484.45 476.67 485.43 476.37 486.39 476.03 487.35 475.69 488.28 475.31 489.22 474.92 490.14 474.5 491.05 474.07 491.95 473.6 492.84 473.13 493.72 472.61 494.59 472.1 495.44 471.54 496.3 470.98 497.13 470.38 497.96 469.77 498.78 469.13 499.59 468.48 500.38 467.79 501.18 467.09 501.95 466.36 502.72 465.62 503.47 464.83 504.22 464.05 504.95 463.22 505.69 462.39 506.4 461.52 507.11 460.65 507.8 459.73 508.49 458.81 509.16 457.85 509.83 456.88 510.48 455.87 511.13 454.86 511.76 453.81 512.39 452.75 513 451.65 513.61 450.55 514.2 449.41 514.79 448.27 515.36 447.08 515.92 445.89 516.47 444.65 517.02 443.42 517.55 442.14 517.55 442.14 517.55 442.14 518.99 443.29 520.43 444.44 521.87 445.59 523.32 446.74 522.69 448.36 522.04 449.93 521.39 451.5 520.72 453.01 520.04 454.52 519.34 455.97 518.64 457.42 517.91 458.82 517.19 460.21 516.43 461.55 515.68 462.89 514.9 464.17 514.13 465.45 513.32 466.67 512.52 467.89 511.7 469.06 510.87 470.22 510.02 471.32 509.16 472.43 508.29 473.47 507.41 474.52 506.51 475.51 505.61 476.49 504.68 477.42 503.75 478.35 502.8 479.22 501.85 480.09 500.87 480.91 499.89 481.72 498.89 482.48 497.88 483.23 496.86 483.94 495.83 484.64 494.77 485.28 493.72 485.93 492.64 486.52 491.56 487.11 490.45 487.65 489.34 488.18 488.21 488.66 487.08 489.15 485.92 489.57 484.76 490 483.57 490.38 482.39 490.75 481.18 491.07 479.96 491.4 478.73 491.67 477.49 491.94 476.22 492.17 474.96 492.39 473.66 492.56 472.37 492.73 471.05 492.85 469.74 492.95 468.4 492.99 467.06 493.02 465.69 493 464.33 492.98 462.93 492.9 461.54 492.8 460.13 492.53 458.72 492.2 457.3 491.91 457.3 491.91 457.3 491.91 456.24 491.7 455.2 491.52 454.15 491.34 453.12 491.17 452.09 490.89 451.06 490.61 450.02 490.4 448.98 490.15 447.95 489.91 446.93 489.64 445.91 489.36 444.89 489.06 443.88 488.75 442.87 488.42 441.87 488.07 440.88 487.69 439.89 487.29 438.91 486.87 437.92 486.44 436.95 485.98 435.98 485.52 435.02 485.03 434.05 484.53 433.1 484 432.15 483.47 431.21 482.91 430.26 482.34 429.33 481.74 428.4 481.15 427.47 480.53 426.54 479.91 425.62 479.26 424.7 478.62 423.79 477.95 422.88 477.29 421.98 476.6 421.07 475.91 420.18 475.19 419.28 474.48 418.39 473.73 417.51 472.98 416.63 472.21 415.75 471.43 414.87 470.63 414 469.82 413.14 468.98 412.27 468.15 411.42 467.28 410.56 466.42 409.71 465.53 408.86 464.64 408.02 463.72 407.18 462.8 406.34 461.86 405.51 460.92 404.68 459.95 403.85 458.98 403.02 457.99 402.2 457 401.38 455.98 400.56 454.96 399.75 453.92 398.94 452.88 398.13 451.82 397.33 450.76 396.54 449.68 395.75 448.6 394.99 447.52 394.22 446.43 393.48 445.33 392.73 444.23 392.01 443.11 391.28 442 390.58 440.87 389.88 439.74 389.2 438.6 388.52 437.46 387.87 436.3 387.21 435.15 386.58 433.98 385.95 432.81 385.35 431.62 384.75 430.44 384.17 429.23 383.6 428.03 383.06 426.82 382.52 425.6 382 424.36 381.49 423.13 381.01 421.88 380.52 420.63 380.07 419.36 379.62 418.09 379.19 416.81 378.76 415.53 378.36 414.22 377.97 412.92 377.59 411.6 377.22 410.28 376.88 408.94 376.53 407.61 376.21 406.25 375.89 404.89 375.6 403.52 375.3 402.15 375.03 400.75 374.77 399.36 374.52 397.95 374.28 396.54 374.06 395.11 373.84 393.68 373.64 392.23 373.45 390.78 373.28 389.31 373.11 387.84 372.96 386.36 372.82 384.87 372.69 383.37 372.57 381.86 372.48 380.33 372.38 378.81 372.31 377.26 372.23 375.72 372.19 374.15 372.14 372.59 372.11 371 372.09 369.42 372.09 367.82 372.09 366.21 372.11 364.63 372.13 363.04 372.17 361.47 372.22 359.91 372.28 358.36 372.34 356.81 372.43 355.28 372.51 353.75 372.62 352.23 372.73 350.72 372.85 349.23 372.98 347.73 373.13 346.25 373.28 344.78 373.45 343.32 373.62 341.86 373.81 340.42 374 338.97 374.21 337.55 374.42 336.12 374.66 334.72 374.89 333.31 375.14 331.92 375.4 330.53 375.67 329.16 375.95 327.78 376.24 326.43 376.54 325.07 376.86 323.73 377.17 322.39 377.51 321.07 377.85 319.74 378.21 318.43 378.56 317.13 378.94 315.84 379.32 314.54 379.72 313.27 380.12 311.99 380.55 310.73 380.97 309.47 381.41 308.23 381.85 306.98 382.31 305.75 382.77 304.52 383.26 303.3 383.74 302.08 384.24 300.88 384.75 299.68 385.27 298.49 385.79 297.3 386.34 296.12 386.88 294.94 387.45 293.78 388.01 292.62 388.59 291.46 389.18 290.31 389.78 289.17 390.39 288.03 391.01 286.9 391.64 285.76 392.28 284.65 392.92 283.52 393.59 282.41 394.25 281.3 394.93 280.22 395.61 279.13 396.3 278.07 396.99 277 397.69 275.97 398.39 274.93 399.11 273.92 399.82 272.91 400.55 271.93 401.28 270.94 402.03 269.98 402.77 269.02 403.52 268.1 404.28 267.16 405.05 266.26 405.82 265.36 406.6 264.49 407.38 263.61 408.18 262.77 408.98 261.93 409.79 261.11 410.6 260.3 411.42 259.52 412.25 258.74 413.09 257.99 413.93 257.24 414.78 256.52 415.63 255.81 416.5 255.12 417.37 254.44 418.25 253.79 419.13 253.14 420.03 252.53 420.92 251.91 421.83 251.33 422.74 250.75 423.67 250.2 424.59 249.66 425.53 249.15 426.47 248.64 427.42 248.16 428.38 247.69 429.35 247.25 430.32 246.81 431.3 246.41 432.28 246 433.28 245.64 434.28 245.27 435.29 244.94 436.3 244.61 437.33 244.32 438.36 244.02 439.4 243.76 440.44 243.51 441.5 243.29 442.56 243.07 443.63 242.88 444.7 242.7 445.78 242.55 446.87 242.41 447.97 242.3 449.07 242.19 450.19 242.11 451.31 242.04 452.41 242.01 453.51 241.97 454.59 241.97 455.68 241.97 456.75 242 457.82 242.04 458.87 242.11 459.93 242.19 460.97 242.29 462.01 242.4 463.03 242.54 464.06 242.69 465.07 242.87 466.08 243.05 467.07 243.26 468.06 243.48 469.04 243.73 470.02 243.98 470.99 244.27 471.95 244.55 472.9 244.88 473.85 245.2 474.79 245.56 475.72 245.92 476.64 246.31 477.56 246.71 478.46 247.14 479.37 247.57 480.26 248.03 481.15 248.5 482.02 249 483.78 250 485.47 251.15 487.17 252.29 488.8 253.58 490.44 254.87 492.02 256.29 493.61 257.72 495.14 259.29 496.67 260.86 498.15 262.56 499.64 264.27 501.07 266.11 501.78 267.03 502.49 267.99 503.19 268.95 503.88 269.94 504.58 270.93 505.26 271.95 505.94 272.98 506.6 274.04 507.27 275.1 507.93 276.18 508.58 277.26 509.22 278.36 509.85 279.46 510.47 280.58 511.09 281.7 511.7 282.84 512.3 283.98 512.88 285.14 513.47 286.3 514.03 287.47 514.6 288.65 515.14 289.85 515.69 291.05 516.21 292.27 516.73 293.48 517.23 294.72 517.72 295.96 518.19 297.21 518.66 298.47 519.11 299.74 519.55 301.02 519.97 302.31 520.38 303.6 520.77 304.92 521.16 306.23 521.53 307.56 521.89 308.89 522.24 310.24 522.58 311.59 522.9 312.96 523.22 314.33 523.52 315.72 523.82 317.11 524.09 318.52 524.37 319.92 524.63 321.35 524.88 322.78 525.12 324.22 525.36 325.67 525.57 327.13 525.79 328.59 525.99 330.07 526.18 331.56 526.36 333.06 526.53 334.56 526.69 336.07 526.85 337.59 526.98 339.13 527.12 340.67 527.24 342.22 527.35 343.78 527.45 345.35 527.55 346.93 527.62 348.52 527.7 350.11 527.76 351.72 527.82 353.34 527.82 354.96 527.78 356.59 527.76 358.24 527.74 359.88 527.74 361.55 527.74 361.55 527.74 361.55M451.33 252.37Q451.33 252.37 451.33 252.37 449.96 252.45 448.62 252.64 447.29 252.82 445.99 253.11 444.7 253.39 443.44 253.77 442.18 254.16 440.97 254.64 439.75 255.13 438.56 255.71 437.38 256.29 436.24 256.98 435.1 257.66 433.99 258.43 432.88 259.21 431.82 260.09 430.75 260.96 429.72 261.93 428.68 262.9 427.69 263.96 426.7 265.02 425.74 266.18 424.78 267.34 423.86 268.58 422.94 269.83 422.06 271.17 421.17 272.5 420.32 273.93 419.48 275.35 418.66 276.86 417.85 278.37 417.08 279.97 416.3 281.56 415.56 283.21 414.82 284.85 414.13 286.55 413.43 288.25 412.76 290 412.1 291.74 411.48 293.54 410.86 295.34 410.27 297.19 409.69 299.03 409.14 300.93 408.59 302.83 408.08 304.78 407.58 306.73 407.11 308.73 406.64 310.73 406.21 312.79 405.77 314.84 405.38 316.95 404.99 319.05 404.64 321.21 404.28 323.37 403.97 325.59 403.66 327.8 403.38 330.08 403.11 332.35 402.87 334.67 402.64 337 402.44 339.38 402.34 340.58 402.25 341.78 402.17 342.99 402.09 344.21 402.09 344.21 402.09 344.21 403.58 344.22 405.08 344.23 406.57 344.24 408.06 344.25 409.56 344.26 411.05 344.27 412.54 344.28 414.04 344.29 415.53 344.29 417.02 344.3 418.51 344.31 420.01 344.32 421.5 344.33 422.99 344.34 424.48 344.35 425.98 344.36 427.47 344.37 428.96 344.38 430.45 344.39 431.95 344.4 433.44 344.42 434.93 344.43 436.42 344.44 437.91 344.45 439.41 344.46 440.9 344.48 442.39 344.49 443.89 344.51 445.38 344.52 446.87 344.54 448.37 344.55 449.86 344.57 451.35 344.58 452.85 344.6 454.34 344.62 455.84 344.64 457.33 344.66 458.83 344.68 460.33 344.7 461.82 344.72 463.32 344.74 464.82 344.76 466.31 344.78 467.81 344.81 469.31 344.83 470.81 344.86 472.31 344.88 473.81 344.91 475.31 344.93 476.82 344.96 478.32 344.99 479.82 345.02 481.33 345.05 482.83 345.07 484.34 345.11 485.84 345.14 487.35 345.17 488.86 345.2 490.37 345.23 491.88 345.27 493.39 345.3 494.9 345.34 496.41 345.37 497.92 345.41 497.87 343.93 497.8 342.48 497.74 341.03 497.66 339.6 497.59 338.17 497.5 336.76 497.41 335.36 497.32 333.97 497.22 332.59 497.12 331.23 497.01 329.87 496.89 328.53 496.77 327.19 496.65 325.88 496.52 324.56 496.38 323.27 496.1 320.69 495.78 318.19 495.46 315.7 495.1 313.3 494.74 310.9 494.33 308.6 493.93 306.29 493.48 304.08 493.04 301.86 492.55 299.74 492.06 297.62 491.54 295.6 491.01 293.57 490.45 291.63 489.89 289.7 489.28 287.86 488.68 286.02 488.05 284.27 487.41 282.53 486.74 280.88 486.06 279.22 485.36 277.67 484.65 276.11 483.91 274.65 483.17 273.18 482.39 271.81 481.62 270.45 480.81 269.17 480 267.9 479.15 266.72 478.31 265.54 477.43 264.46 476.56 263.38 475.64 262.39 474.73 261.41 473.78 260.51 472.84 259.62 471.86 258.83 470.87 258.04 469.86 257.34 468.84 256.64 467.79 256.04 466.74 255.44 465.65 254.93 464.57 254.43 463.44 254.02 462.32 253.61 461.16 253.3 460.01 252.99 458.81 252.78 457.62 252.57 456.39 252.45 455.16 252.33 453.9 252.31 452.63 252.29 451.33 252.37 451.33 252.37 451.33 252.37M654.24 335.87Q654.24 335.87 654.24 335.87 654.2 337.51 654.16 339.15 654.12 340.8 654.08 342.44 654.05 344.08 654.01 345.72 653.98 347.36 653.94 349 653.91 350.64 653.88 352.28 653.85 353.92 653.83 355.55 653.8 357.19 653.77 358.83 653.75 360.47 653.72 362.11 653.7 363.75 653.68 365.38 653.66 367.02 653.63 368.66 653.61 370.3 653.59 371.93 653.57 373.57 653.56 375.21 653.54 376.85 653.52 378.48 653.5 380.12 653.49 381.76 653.47 383.39 653.46 385.03 653.44 386.67 653.43 388.3 653.41 390.1 653.4 391.86 653.39 393.62 653.38 395.34 653.37 397.06 653.36 398.75 653.36 400.43 653.36 402.07 653.35 403.72 653.35 405.32 653.35 406.93 653.36 408.5 653.36 410.06 653.37 411.59 653.37 413.12 653.38 414.61 653.39 416.1 653.4 417.55 653.41 419 653.43 420.42 653.44 421.83 653.46 423.2 653.48 424.58 653.5 425.92 653.54 428.59 653.59 431.11 653.63 433.63 653.69 435.99 653.75 438.36 653.82 440.57 653.89 442.78 653.97 444.84 654.05 446.89 654.14 448.8 654.23 450.7 654.32 452.45 654.42 454.2 654.53 455.79 654.64 457.39 654.75 458.83 654.99 461.71 655.26 463.97 655.53 466.24 655.9 468.22 656.27 470.21 656.74 471.93 657.21 473.64 657.78 475.08 658.35 476.52 659.03 477.68 659.7 478.84 660.47 479.73 661.24 480.61 662.12 481.22 662.99 481.83 663.96 482.16 664.94 482.49 666.01 482.54 666.01 482.54 666.01 482.54 667.36 482.61 668.94 482.23 669.72 482.04 670.56 481.74 671.4 481.45 672.3 481.04 673.19 480.64 674.14 480.12 675.09 479.61 676.09 478.99 677.09 478.38 678.14 477.65 679.2 476.93 680.31 476.11 680.31 476.11 680.31 476.11 680.7 477.42 681.1 478.73 681.49 480.04 681.73 481.34 681.26 482.08 680.52 482.88 679.79 483.69 678.96 484.57 678.13 485.46 677.19 486.42 676.26 487.38 675.23 488.43 674.19 489.48 672.62 490.7 671.83 491.31 670.91 491.96 669.99 492.62 668.93 493.31 667.87 494.01 666.68 494.75 665.49 495.48 664.16 496.26 662.83 497.04 661.37 497.84 660.64 498.25 659.87 498.66 659.11 499.07 658.31 499.48 657.51 499.9 656.71 500.28 655.92 500.67 655.13 501.02 654.34 501.38 653.55 501.71 652.76 502.04 651.98 502.34 651.2 502.65 650.42 502.93 649.64 503.22 648.86 503.47 647.31 503.99 645.77 504.39 644.23 504.79 642.71 505.06 641.19 505.32 639.68 505.45 638.18 505.57 636.69 505.58 635.2 505.6 633.73 505.5 633.73 505.5 633.73 505.5 633.53 504.12 633.35 502.63 633.17 501.14 633.01 499.54 632.84 497.95 632.69 496.25 632.53 494.55 632.39 492.75 632.25 490.95 632.12 489.04 631.99 487.14 631.88 485.13 631.76 483.12 631.66 481.01 631.56 478.91 631.47 476.7 631.38 474.49 631.3 472.18 631.22 469.87 631.16 467.46 631.1 465.05 631.04 462.54 630.99 460.03 630.96 457.41 630.94 456.11 630.92 454.78 630.91 453.45 630.9 452.09 630.88 450.74 630.88 449.36 630.87 447.98 630.86 446.57 630.86 445.17 630.86 443.74 630.85 442.31 630.86 440.85 630.86 439.4 630.86 437.92 630.87 436.44 630.88 434.93 630.88 434.93 630.88 434.93 630.43 436.93 629.96 438.88 629.49 440.83 629.01 442.73 628.53 444.63 628.03 446.49 627.53 448.34 627.02 450.15 626.5 451.95 625.97 453.71 625.44 455.47 624.89 457.18 624.34 458.9 623.78 460.56 623.21 462.22 622.63 463.84 622.05 465.46 621.45 467.02 620.85 468.59 620.24 470.11 619.63 471.63 619 473.1 618.36 474.58 617.72 476 617.07 477.42 616.41 478.8 615.74 480.17 615.06 481.5 614.38 482.83 613.69 484.11 612.99 485.38 612.28 486.61 611.56 487.84 610.82 488.99 610.07 490.14 609.29 491.21 608.51 492.27 607.69 493.26 606.88 494.24 606.03 495.14 605.18 496.04 604.3 496.86 603.42 497.67 602.5 498.39 601.59 499.11 600.64 499.73 599.69 500.36 598.71 500.9 597.73 501.43 596.72 501.88 595.7 502.34 594.65 502.73 593.6 503.13 592.51 503.47 591.43 503.81 590.31 504.07 589.19 504.34 588.04 504.52 586.88 504.7 585.7 504.8 584.51 504.9 583.29 504.82 582.07 504.67 580.82 504.6 579.56 504.53 578.34 504.52 577.12 504.48 575.93 504.27 574.74 504 573.59 503.67 572.44 503.33 571.32 502.93 570.2 502.53 569.11 502.07 568.02 501.61 566.97 501.1 565.91 500.61 564.89 500.07 563.86 499.54 562.87 498.94 561.88 498.34 560.92 497.67 559.96 497 559.03 496.25 558.1 495.5 557.21 494.68 556.31 493.86 555.45 492.97 554.59 492.07 553.76 491.1 552.92 490.13 552.12 489.1 551.32 488.06 550.55 486.95 549.78 485.84 549.04 484.67 548.3 483.49 547.6 482.27 546.9 481.05 546.25 479.78 545.59 478.52 544.98 477.2 544.36 475.89 543.8 474.53 543.23 473.17 542.7 471.77 542.17 470.36 541.69 468.91 541.21 467.46 540.77 465.97 540.34 464.47 539.95 462.92 539.55 461.38 539.21 459.79 538.86 458.2 538.56 456.56 538.26 454.92 538 453.24 537.75 451.56 537.54 449.83 537.34 448.09 537.2 446.32 537.06 444.54 536.97 442.71 536.87 440.89 536.83 439.02 536.78 437.14 536.78 435.23 536.78 435.23 536.78 435.23 536.78 432.56 536.87 429.99 536.97 427.42 537.15 424.93 537.34 422.45 537.62 420.06 537.9 417.66 538.27 415.36 538.64 413.06 539.1 410.84 539.57 408.63 540.12 406.51 540.68 404.38 541.33 402.35 541.98 400.32 542.73 398.37 543.47 396.43 544.3 394.58 545.14 392.72 546.07 390.96 547 389.2 548.02 387.52 549.05 385.85 550.16 384.27 551.28 382.68 552.49 381.19 553.7 379.69 555 378.29 556.3 376.89 557.7 375.57 558.4 374.92 559.12 374.28 559.84 373.65 560.58 373.04 561.33 372.42 562.1 371.84 562.86 371.25 563.65 370.68 564.45 370.11 565.26 369.57 566.08 369.03 566.91 368.5 567.75 367.98 568.61 367.48 569.48 366.99 570.36 366.51 571.24 366.03 572.15 365.58 573.06 365.13 573.99 364.7 574.92 364.27 575.88 363.86 576.83 363.45 577.81 363.07 578.79 362.69 579.79 362.32 580.79 361.96 581.81 361.63 582.84 361.29 583.88 360.97 584.93 360.66 586 360.37 587.07 360.07 588.16 359.81 589.26 359.54 590.37 359.29 591.49 359.05 592.62 358.83 593.76 358.6 594.92 358.41 596.08 358.21 597.27 358.03 598.45 357.86 599.65 357.71 600.86 357.56 602.09 357.43 603.31 357.3 604.56 357.2 605.81 357.09 607.08 357.01 608.36 356.94 609.65 356.88 610.94 356.82 612.26 356.79 613.57 356.76 614.9 356.75 616.24 356.74 617.6 356.76 618.95 356.78 620.33 356.82 621.7 356.86 623.1 356.92 624.5 356.99 625.92 357.07 627.33 357.16 628.77 357.27 630.2 357.38 631.66 357.52 631.66 357.52 631.66 357.52 631.7 355.16 631.74 352.8 631.79 350.44 631.83 348.08 631.88 345.72 631.93 343.36 631.98 341 632.03 338.63 632.08 336.27 632.11 333.97 632.14 331.67 632.14 329.43 632.15 327.2 632.13 325.03 632.11 322.86 632.06 320.75 632.01 318.65 631.94 316.61 631.87 314.56 631.77 312.59 631.67 310.61 631.54 308.7 631.41 306.78 631.26 304.94 631.1 303.09 630.92 301.31 630.74 299.52 630.53 297.8 630.32 296.08 630.08 294.43 629.84 292.77 629.57 291.19 629.3 289.6 629 288.07 628.7 286.55 628.37 285.09 628.04 283.63 627.68 282.24 627.32 280.85 626.93 279.52 626.54 278.19 626.1 276.94 625.66 275.69 625.16 274.51 624.67 273.33 624.13 272.22 623.59 271.11 623 270.08 622.41 269.05 621.76 268.09 621.12 267.13 620.43 266.25 619.73 265.37 618.99 264.56 618.25 263.75 617.45 263.02 616.66 262.28 615.81 261.63 614.97 260.97 614.08 260.39 613.18 259.81 612.24 259.31 611.29 258.81 610.3 258.38 609.3 257.96 608.26 257.61 607.21 257.26 606.12 256.99 605.02 256.72 603.88 256.53 602.73 256.34 601.54 256.22 601.54 256.22 601.54 256.22 600.2 256.1 598.92 256.11 597.64 256.13 596.41 256.29 595.19 256.46 594.03 256.76 592.87 257.07 591.77 257.52 590.67 257.97 589.62 258.56 588.58 259.15 587.6 259.89 586.62 260.62 585.7 261.5 584.79 262.37 583.93 263.39 583.07 264.4 582.28 265.45 581.49 266.5 580.77 267.58 580.05 268.65 579.4 269.76 578.75 270.87 578.17 272.01 577.59 273.14 577.07 274.31 576.56 275.48 576.12 276.67 575.67 277.87 575.29 279.09 574.92 280.32 574.61 281.57 574.61 281.57 574.61 281.57 574.23 283.29 573.84 284.89 573.45 286.5 573.03 287.99 572.62 289.48 572.19 290.87 571.76 292.25 571.31 293.52 570.86 294.79 570.39 295.95 569.92 297.11 569.43 298.16 568.45 300.25 567.4 301.91 566.34 303.56 565.21 304.78 564.07 305.99 562.85 306.77 561.64 307.54 560.34 307.88 559.04 308.22 557.66 308.12 556.28 308.02 555.08 307.62 553.87 307.22 552.84 306.52 551.8 305.83 550.94 304.83 550.08 303.84 549.39 302.55 548.71 301.25 548.19 299.66 547.68 298.07 547.34 296.18 546.99 294.29 546.83 292.11 546.66 289.92 546.66 287.43 546.67 284.94 546.93 282.57 547.19 280.21 547.72 277.96 548.24 275.7 549.03 273.57 549.82 271.43 550.87 269.41 551.39 268.4 551.98 267.41 552.58 266.43 553.24 265.47 553.9 264.52 554.62 263.59 555.35 262.66 556.14 261.76 556.94 260.86 557.8 259.98 558.66 259.11 559.59 258.27 560.51 257.42 561.51 256.61 562.5 255.79 563.57 255.01 564.63 254.23 565.72 253.5 566.81 252.77 567.93 252.1 569.04 251.42 570.19 250.81 571.34 250.19 572.51 249.63 573.68 249.07 574.88 248.57 576.08 248.07 577.31 247.62 578.54 247.18 579.79 246.79 581.05 246.41 582.33 246.08 583.61 245.75 584.92 245.48 586.23 245.21 587.56 245 588.9 244.79 590.26 244.64 591.62 244.49 593 244.39 594.39 244.3 595.81 244.27 597.22 244.23 598.66 244.26 600.1 244.29 601.56 244.38 603.03 244.46 604.52 244.6 606.01 244.75 607.47 244.99 608.92 245.22 610.34 245.53 611.76 245.86 613.14 246.26 614.52 246.67 615.86 247.15 617.2 247.65 618.51 248.22 619.81 248.8 621.08 249.46 622.35 250.12 623.58 250.86 624.81 251.61 626 252.44 627.19 253.27 628.34 254.18 629.49 255.1 630.6 256.1 631.72 257.1 632.79 258.18 633.86 259.26 634.9 260.42 635.93 261.59 636.92 262.83 637.91 264.08 638.86 265.4 639.81 266.73 640.73 268.13 641.63 269.54 642.5 271.02 643.37 272.51 644.17 274.06 644.97 275.62 645.7 277.24 646.44 278.87 647.1 280.56 647.77 282.25 648.37 284.02 648.97 285.77 649.51 287.6 650.04 289.43 650.51 291.32 650.98 293.21 651.39 295.18 651.79 297.13 652.14 299.16 652.49 301.18 652.77 303.28 653.06 305.37 653.29 307.53 653.53 309.68 653.7 311.91 653.88 314.13 654.01 316.43 654.14 318.72 654.21 321.08 654.29 323.44 654.32 325.87 654.35 328.3 654.33 330.8 654.31 333.3 654.24 335.87 654.24 335.87 654.24 335.87M561.53 439.27Q561.53 441.85 561.64 444.33 561.74 446.8 561.94 449.18 562.14 451.55 562.43 453.82 562.73 456.09 563.12 458.25 563.51 460.41 563.99 462.47 564.47 464.53 565.05 466.49 565.63 468.44 566.3 470.29 566.97 472.14 567.74 473.88 568.5 475.63 569.38 477.17 570.25 478.71 571.24 480.05 572.22 481.39 573.32 482.53 574.41 483.67 575.62 484.61 576.83 485.54 578.15 486.27 579.46 487 580.9 487.53 582.33 488.05 583.87 488.37 584.64 488.53 585.44 488.63 586.24 488.74 587.07 488.79 587.9 488.85 588.72 488.82 589.53 488.79 590.34 488.68 591.15 488.56 591.95 488.37 592.75 488.17 593.54 487.9 594.33 487.62 595.12 487.26 595.9 486.9 596.67 486.46 597.44 486.01 598.21 485.48 598.97 484.96 599.72 484.34 600.48 483.73 601.22 483.03 601.97 482.33 602.71 481.55 603.44 480.76 604.17 479.89 604.9 479.03 605.62 478.07 606.34 477.12 607.05 476.08 607.76 475.04 608.46 473.91 609.16 472.79 609.85 471.58 610.55 470.38 611.23 469.09 611.92 467.8 612.57 466.48 613.23 465.17 613.86 463.84 614.49 462.51 615.1 461.16 615.7 459.82 616.28 458.45 616.86 457.08 617.41 455.69 617.96 454.3 618.48 452.89 619.01 451.49 619.5 450.06 620 448.63 620.47 447.19 620.95 445.74 621.39 444.27 621.84 442.81 622.25 441.32 622.67 439.84 623.06 438.34 623.46 436.83 623.82 435.31 624.19 433.79 624.53 432.24 624.87 430.7 625.18 429.14 625.49 427.58 625.78 425.99 626.06 424.41 626.32 422.81 626.58 421.21 626.83 419.6 627.08 417.99 627.31 416.37 627.55 414.76 627.77 413.13 627.99 411.51 628.2 409.88 628.41 408.25 628.61 406.61 628.81 404.97 628.99 403.32 629.18 401.67 629.35 400.02 629.52 398.36 629.68 396.7 629.84 395.04 629.99 393.37 630.14 391.69 630.28 390.02 630.41 388.34 630.53 386.65 630.66 384.96 630.77 383.27 630.88 381.57 630.98 379.87 631.08 378.16 631.17 376.45 631.26 374.74 631.33 373.02 631.41 371.29 631.47 369.56 631.47 369.56 631.47 369.56 630.37 369.48 629.28 369.41 628.19 369.34 627.12 369.3 626.04 369.26 624.99 369.24 623.93 369.21 622.89 369.22 621.85 369.22 620.83 369.24 619.8 369.26 618.8 369.31 617.79 369.35 616.81 369.42 615.82 369.49 614.85 369.58 613.87 369.67 612.92 369.78 611.97 369.89 611.03 370.03 610.09 370.16 609.18 370.32 608.26 370.48 607.36 370.65 606.46 370.83 605.57 371.03 604.69 371.24 603.82 371.46 602.96 371.68 602.11 371.93 601.26 372.17 600.44 372.44 599.61 372.71 598.8 373 597.98 373.29 597.19 373.6 595.61 374.22 594.09 374.94 592.58 375.65 591.14 376.45 589.7 377.25 588.33 378.14 586.97 379.02 585.68 380 584.38 380.97 583.17 382.04 581.95 383.1 580.8 384.25 579.66 385.4 578.59 386.64 577.52 387.87 576.52 389.16 575.52 390.45 574.58 391.79 573.65 393.13 572.78 394.52 571.91 395.91 571.11 397.35 570.31 398.79 569.57 400.29 568.84 401.78 568.17 403.32 567.5 404.87 566.9 406.46 566.3 408.06 565.77 409.7 565.23 411.35 564.77 413.04 564.3 414.74 563.9 416.48 563.5 418.23 563.17 420.03 562.84 421.83 562.57 423.67 562.31 425.52 562.11 427.42 561.91 429.32 561.78 431.27 561.65 433.22 561.59 435.22 561.52 437.22 561.53 439.27 561.53 439.27 561.53 439.27 561.53 439.27 561.53 439.27M773.82 278.82Q773.77 280.41 773.72 282.02 773.66 283.63 773.61 285.24 773.56 286.86 773.5 288.46 773.45 290.07 773.4 291.66 773.35 293.26 773.3 294.84 773.26 296.42 773.22 298 773.18 299.56 773.14 301.13 773.1 302.68 773.07 304.23 773.04 305.77 773.01 307.31 772.98 308.84 772.95 310.37 772.92 311.89 772.9 313.41 772.88 314.92 772.85 316.43 772.83 317.94 772.81 319.44 772.8 320.94 772.78 322.43 772.76 323.92 772.75 325.41 772.73 326.9 772.72 328.38 775.02 329.01 777.31 329.63 779.61 330.25 781.9 330.88 784.19 331.51 786.49 332.14 788.78 332.77 791.07 333.41 793.36 334.04 795.65 334.68 797.94 335.31 800.23 335.95 802.52 336.58 804.81 337.21 807.1 337.85 809.39 338.48 811.68 339.11 813.96 339.74 816.25 340.37 818.54 340.99 820.83 341.61 823.12 342.23 825.4 342.85 827.69 343.46 829.98 344.06 832.27 344.66 834.56 345.26 836.85 345.85 839.14 346.44 841.43 347.02 843.73 347.6 845.72 348.09 845.72 349.02 845.72 349.94 845.72 350.86 845.72 351.78 845.72 352.7 845.72 353.63 845.72 354.55 845.72 355.47 843.73 355 841.43 354.45 839.14 353.9 836.85 353.34 834.56 352.78 832.26 352.21 829.97 351.64 827.68 351.07 825.39 350.49 823.1 349.91 820.81 349.33 818.52 348.74 816.23 348.15 813.93 347.56 811.64 346.97 809.35 346.38 807.06 345.78 804.77 345.18 802.48 344.59 800.18 343.99 797.89 343.39 795.6 342.79 793.31 342.19 791.01 341.59 788.72 341 786.43 340.4 784.13 339.8 781.84 339.21 779.54 338.61 777.24 338.02 774.95 337.43 772.65 336.84 772.64 337.98 772.64 339.12 772.63 340.25 772.62 341.39 772.62 342.53 772.61 343.66 772.6 344.8 772.6 345.93 772.59 347.06 772.58 348.19 772.58 349.33 772.57 350.46 772.57 351.59 772.56 352.72 772.56 353.85 772.55 354.98 772.55 356.11 772.54 357.23 772.54 358.36 772.53 359.49 772.53 360.62 772.52 361.74 772.52 362.87 772.52 364 772.51 365.12 772.51 366.25 772.5 367.37 772.5 368.5 772.5 369.62 772.49 370.75 772.49 371.87 772.48 372.99 772.48 374.12 772.48 375.24 772.47 376.36 772.47 377.49 772.46 378.61 772.46 379.73 772.46 380.85 772.45 381.98 772.45 383.1 772.44 384.22 772.44 385.34 772.44 386.46 772.43 387.59 772.43 388.71 772.43 389.83 772.42 390.95 772.42 392.07 772.41 393.19 772.41 394.31 772.41 395.43 772.4 396.55 772.4 397.67 772.39 398.79 772.39 399.92 772.38 401.04 772.38 402.16 772.38 403.28 772.37 404.4 772.37 405.52 772.36 406.64 772.36 407.76 772.35 408.88 772.35 410 772.34 411.12 772.34 412.24 772.33 413.36 772.33 414.48 772.32 415.59 772.31 416.71 772.31 417.83 772.3 418.95 772.3 420.07 772.29 421.19 772.28 422.31 772.28 423.43 772.27 424.55 772.26 425.67 772.26 426.79 772.25 427.91 772.24 429.03 772.23 430.15 772.23 431.27 772.22 432.39 772.21 433.51 772.2 434.63 772.19 435.75 772.18 436.87 772.17 437.99 772.17 439.11 772.16 440.23 772.15 441.35 772.13 442.47 772.12 443.59 772.11 444.71 772.1 445.83 772.09 446.95 772.08 448.07 772.07 449.19 772.05 450.31 772.04 451.43 772.03 452.55 772.01 453.67 772 454.79 771.99 455.91 771.97 457.04 771.96 458.16 771.94 459.28 771.92 460.4 771.91 461.52 771.89 462.64 771.87 463.77 771.86 464.89 771.84 466.01 771.82 467.14 771.8 468.26 771.78 469.38 771.77 470.51 771.75 471.63 771.73 472.75 771.71 473.88 771.69 475 771.67 476.13 771.65 477.26 771.62 478.38 771.6 479.51 771.58 480.64 771.54 482.62 771.89 484.42 772.23 486.21 772.96 487.81 773.68 489.41 774.8 490.81 775.91 492.21 777.4 493.41 778.9 494.6 780.64 495.5 782.37 496.4 784.34 497 786.31 497.6 788.51 497.9 790.71 498.21 793.15 498.22 793.15 498.22 793.15 498.22 795.89 498.23 798.76 498.12 801.62 498.01 804.61 497.78 806.11 497.66 807.63 497.52 809.16 497.37 810.72 497.2 812.27 497.02 813.86 496.82 815.45 496.61 817.06 496.38 818.68 496.15 820.33 495.9 821.97 495.64 823.65 495.36 825.33 495.09 827.03 494.79 828.74 494.5 830.47 494.19 832.21 493.88 833.97 493.56 835.74 493.24 837.53 492.91 839.32 492.58 841.14 492.24 842.96 491.92 844.81 491.57 844.81 491.57 844.81 491.57 845.11 492.51 845.42 493.45 845.72 494.39 845.72 495.31 844.7 495.72 843.39 496.11 842.07 496.5 840.77 496.89 838.16 497.7 835.58 498.48 833 499.29 830.45 500.08 827.9 500.89 825.39 501.65 822.87 502.43 820.39 503.16 817.91 503.88 815.47 504.54 813.02 505.19 810.61 505.78 808.2 506.37 805.83 506.9 803.46 507.42 801.12 507.88 798.79 508.33 796.49 508.72 794.2 509.12 791.94 509.44 789.68 509.77 787.46 510.03 785.24 510.29 783.07 510.49 780.89 510.69 778.75 510.82 776.61 510.95 774.51 510.97 772.41 510.91 770.35 510.91 770.35 510.91 770.35 510.91 767.68 510.91 765.17 510.98 762.68 510.88 760.35 510.67 758.03 510.47 755.88 510.16 753.73 509.86 751.76 509.45 749.78 509.04 747.98 508.53 746.18 508.02 744.56 507.4 742.94 506.78 741.49 506.06 740.04 505.33 738.77 504.5 737.5 503.67 736.4 502.69 735.3 501.7 734.37 500.55 733.44 499.4 732.67 498.1 731.92 496.79 731.33 495.32 730.74 493.85 730.32 492.22 729.9 490.58 729.65 488.8 729.4 487 729.32 485.06 729.28 484.08 729.28 483.07 729.28 482.06 729.32 481.01 729.32 481.01 729.32 481.01 729.37 479.8 729.41 478.6 729.46 477.39 729.51 476.19 729.55 474.98 729.6 473.78 729.64 472.57 729.68 471.36 729.72 470.16 729.76 468.95 729.8 467.75 729.84 466.54 729.87 465.33 729.91 464.13 729.94 462.92 729.97 461.72 730 460.51 730.03 459.3 730.06 458.1 730.09 456.89 730.11 455.69 730.14 454.48 730.16 453.27 730.18 452.07 730.2 450.86 730.22 449.66 730.24 448.45 730.26 447.25 730.27 446.04 730.29 444.83 730.3 443.63 730.31 442.42 730.33 441.22 730.34 440.01 730.35 438.81 730.36 437.6 730.37 436.4 730.38 435.19 730.39 433.99 730.4 432.78 730.41 431.58 730.42 430.37 730.43 429.17 730.43 427.96 730.44 426.76 730.45 425.55 730.46 424.35 730.46 423.14 730.47 421.94 730.47 420.74 730.48 419.53 730.49 418.33 730.49 417.12 730.5 415.92 730.5 414.71 730.51 413.51 730.51 412.3 730.51 411.1 730.52 409.9 730.52 408.69 730.53 407.49 730.53 406.28 730.54 405.08 730.54 403.87 730.54 402.67 730.55 401.46 730.55 400.26 730.55 399.05 730.56 397.85 730.56 396.65 730.56 395.44 730.57 394.24 730.57 393.03 730.57 391.83 730.58 390.62 730.58 389.42 730.58 388.21 730.58 387.01 730.59 385.8 730.59 384.6 730.59 383.39 730.6 382.19 730.6 380.98 730.6 379.77 730.6 378.57 730.61 377.36 730.61 376.16 730.61 374.95 730.61 373.74 730.62 372.54 730.62 371.33 730.62 370.13 730.62 368.92 730.63 367.71 730.63 366.51 730.63 365.3 730.64 364.09 730.64 362.88 730.64 361.68 730.64 360.47 730.65 359.26 730.65 358.05 730.65 356.84 730.65 355.64 730.66 354.43 730.66 353.22 730.66 352.01 730.67 350.8 730.67 349.59 730.67 348.38 730.67 347.17 730.68 345.96 730.68 344.75 730.68 343.54 730.69 342.33 730.69 341.11 730.69 339.9 730.7 338.69 730.7 337.48 730.71 336.26 730.71 335.05 730.71 333.84 730.72 332.62 730.72 331.41 730.73 330.19 730.73 328.98 730.74 327.76 730.74 326.54 728.49 326.02 726.24 325.5 724 324.98 721.75 324.47 719.5 323.96 717.25 323.46 715 322.96 712.75 322.46 710.5 321.96 708.25 321.47 706.01 320.98 703.76 320.5 701.51 320.02 699.26 319.54 697.01 319.07 694.77 318.6 694.77 317.45 694.77 316.31 694.77 315.16 694.77 314.01 694.77 312.87 694.77 311.72 694.77 310.57 694.77 309.42 696.79 309.86 698.74 310.23 700.69 310.6 702.56 310.92 704.43 311.23 706.23 311.48 708.03 311.73 709.75 311.92 711.47 312.12 713.12 312.25 714.77 312.38 716.34 312.45 717.91 312.52 719.4 312.52 720.9 312.53 722.31 312.48 725.15 312.38 727.69 312.01 730.22 311.66 732.46 311.04 734.69 310.44 736.62 309.57 738.55 308.7 740.18 307.57 741.81 306.44 743.35 305.1 744.12 304.43 744.87 303.71 745.61 302.99 746.34 302.22 747.06 301.44 747.76 300.62 748.46 299.79 749.14 298.91 749.82 298.02 750.47 297.09 751.13 296.15 751.77 295.15 752.4 294.16 753.02 293.11 753.63 292.06 754.22 290.95 754.82 289.84 755.39 288.67 755.96 287.5 756.51 286.27 757.07 285.04 757.6 283.75 758.13 282.46 758.64 281.11 759.15 279.77 759.64 278.37 760.13 276.97 760.59 275.52 760.59 275.52 760.59 275.52 762.25 275.92 763.9 276.32 765.56 276.72 767.22 277.13 768.87 277.55 770.52 277.97 772.17 278.39 773.82 278.82 773.82 278.82 773.82 278.82M995.22 435.2Q995.22 435.2 995.22 435.2 994.44 435.06 993.46 434.89 992.48 434.73 991.49 434.57 990.51 434.41 989.52 434.25 988.54 434.09 987.55 433.92 986.57 433.76 985.58 433.6 984.59 433.44 983.61 433.28 982.63 433.11 981.65 432.95 980.67 432.78 979.69 432.62 978.72 432.45 977.74 432.28 976.77 432.12 975.8 431.95 974.83 431.78 973.87 431.61 972.9 431.43 971.94 431.26 970.99 431.09 970.03 430.91 969.08 430.73 968.13 430.56 967.18 430.38 966.23 430.2 965.29 430.02 964.35 429.84 963.41 429.66 962.47 429.47 961.54 429.29 960.61 429.1 959.68 428.92 958.75 428.73 957.83 428.54 956.91 428.35 955.99 428.16 955.07 427.97 954.16 427.78 953.25 427.59 952.34 427.4 951.43 427.2 950.52 427.01 949.62 426.81 948.72 426.62 947.82 426.42 946.92 426.22 946.03 426.03 945.13 425.83 944.24 425.63 943.35 425.43 942.46 425.23 941.58 425.03 940.69 424.83 939.81 424.63 938.93 424.42 938.05 424.22 937.17 424.02 936.29 423.82 935.42 423.61 934.55 423.41 933.68 423.2 932.81 423 931.94 422.8 931.07 422.59 930.2 422.39 929.34 422.18 928.48 421.97 927.61 421.77 926.75 421.56 925.89 421.35 925.03 421.15 924.18 420.94 923.32 420.73 922.47 420.53 921.61 420.32 920.76 420.11 919.91 419.91 919.05 419.7 918.2 419.49 917.35 419.28 916.51 419.08 915.66 418.87 914.81 418.66 913.97 418.45 913.12 418.24 912.28 418.04 911.43 417.83 910.59 417.62 909.75 417.41 908.91 417.21 908.06 417 907.22 416.79 906.38 416.58 905.54 416.38 904.71 416.17 903.87 415.96 903.03 415.76 902.19 415.55 901.36 415.34 900.52 415.14 899.68 414.93 898.85 414.72 898.01 414.52 897.18 414.31 896.35 414.1 895.51 413.9 894.68 413.69 893.85 413.49 893.01 413.28 892.18 413.08 891.35 412.87 890.52 412.67 889.69 412.46 888.85 412.26 888.02 412.06 887.19 411.85 886.36 411.65 885.53 411.45 884.7 411.24 883.87 411.04 883.04 410.84 882.21 410.63 881.38 410.43 881.43 412.05 881.47 413.66 881.51 415.28 881.55 416.89 881.59 418.15 881.63 419.39 881.68 420.64 881.74 421.86 881.8 423.09 881.87 424.3 881.95 425.51 882.03 426.71 882.12 427.9 882.22 429.08 882.32 430.25 882.44 431.41 882.55 432.57 882.68 433.71 882.81 434.86 882.95 435.98 883.1 437.1 883.25 438.21 883.41 439.32 883.58 440.41 883.75 441.49 883.94 442.56 884.12 443.63 884.32 444.68 884.52 445.73 884.74 446.76 884.95 447.79 885.18 448.8 885.41 449.82 885.66 450.81 885.9 451.8 886.16 452.77 886.42 453.74 886.7 454.7 886.97 455.65 887.26 456.58 887.55 457.51 887.85 458.42 888.16 459.33 888.48 460.22 889.12 461.99 889.82 463.69 890.52 465.38 891.28 466.99 892.05 468.6 892.88 470.12 893.7 471.63 894.6 473.07 895.49 474.5 896.44 475.84 897.4 477.18 898.42 478.44 899.44 479.69 900.5 480.85 901.55 482.01 902.63 483.08 903.72 484.14 904.84 485.12 905.95 486.09 907.1 486.98 908.25 487.86 909.43 488.67 910.61 489.46 911.82 490.18 913.03 490.89 914.27 491.52 915.51 492.15 916.77 492.71 918.04 493.26 919.34 493.73 920.64 494.2 921.97 494.59 923.3 494.98 924.66 495.29 926.02 495.6 927.41 495.83 928.8 496.05 930.23 496.2 931.65 496.34 933.1 496.4 934.55 496.46 936.04 496.45 937.52 496.44 939.04 496.35 939.04 496.35 939.04 496.35 940.18 496.29 941.3 496.21 942.41 496.13 943.51 496.03 944.61 495.93 945.7 495.81 946.78 495.69 947.85 495.54 948.92 495.4 949.97 495.23 951.02 495.07 952.06 494.88 953.1 494.69 954.12 494.47 955.15 494.26 956.16 494.02 957.17 493.78 958.17 493.52 959.18 493.25 960.16 492.96 961.15 492.68 962.13 492.37 963.12 492.06 964.09 491.73 965.06 491.4 966.02 491.05 966.99 490.7 967.95 490.33 968.91 489.96 969.86 489.57 970.81 489.18 971.76 488.78 972.71 488.38 973.64 487.95 974.59 487.54 975.51 487.1 976.45 486.66 977.37 486.21 978.29 485.77 979.19 485.3 980.1 484.84 980.99 484.36 981.88 483.89 982.75 483.39 983.61 482.91 984.45 482.4 985.3 481.9 986.11 481.39 986.92 480.87 987.7 480.34 988.48 479.82 989.23 479.28 989.97 478.74 990.68 478.18 991.39 477.63 992.06 477.06 992.73 476.5 993.36 475.92 993.99 475.34 994.58 474.74 995.17 474.15 995.72 473.54 996.27 472.93 996.78 472.3 996.78 472.3 996.78 472.3 998.51 472.91 1000.24 473.51 1001.98 474.12 1003.72 474.73 1003.13 475.51 1002.49 476.26 1001.83 477.02 1001.13 477.76 1000.42 478.5 999.66 479.22 998.89 479.94 998.06 480.65 997.23 481.36 996.34 482.05 995.44 482.75 994.49 483.42 993.53 484.11 992.52 484.77 991.5 485.45 990.44 486.1 989.37 486.76 988.26 487.41 987.15 488.06 986.01 488.69 984.87 489.33 983.7 489.95 982.55 490.58 981.37 491.19 980.21 491.81 979.04 492.4 977.89 493.01 976.73 493.59 975.59 494.18 974.44 494.74 973.31 495.31 972.17 495.86 971.05 496.41 969.92 496.93 968.8 497.46 967.67 497.97 966.55 498.47 965.43 498.95 964.31 499.44 963.17 499.89 962.04 500.34 960.9 500.76 959.76 501.17 958.6 501.55 957.45 501.93 956.28 502.28 955.11 502.62 953.92 502.93 952.73 503.24 951.53 503.51 950.32 503.78 949.09 504 947.87 504.23 946.62 504.43 945.37 504.62 944.1 504.78 942.83 504.95 941.54 505.13 940.25 505.35 938.93 505.54 937.62 505.71 936.29 505.81 934.95 505.91 933.59 506.04 933.59 506.04 933.59 506.04 932.59 506.14 931.59 506.24 930.59 506.34 929.61 506.45 928.62 506.48 927.64 506.5 926.67 506.52 925.7 506.51 924.73 506.5 923.77 506.47 922.8 506.42 921.85 506.3 920.89 506.18 919.95 506.03 919 505.88 918.06 505.71 917.13 505.55 916.2 505.36 915.27 505.19 914.35 505 913.43 504.82 912.52 504.64 911.61 504.47 910.71 504.28 909.81 504.09 908.92 503.88 908.03 503.67 907.14 503.42 906.26 503.18 905.38 502.9 904.51 502.61 903.64 502.3 902.77 501.99 901.92 501.64 901.06 501.3 900.21 500.93 899.36 500.56 898.52 500.16 897.68 499.77 896.85 499.36 896.01 498.94 895.19 498.5 894.37 498.06 893.56 497.6 892.75 497.13 891.95 496.64 891.15 496.15 890.35 495.63 889.56 495.11 888.78 494.56 888 494.01 887.23 493.43 886.46 492.84 885.7 492.23 884.94 491.62 884.19 490.98 883.44 490.33 882.71 489.66 881.97 488.98 881.24 488.27 880.52 487.56 879.81 486.82 879.1 486.07 878.4 485.3 877.7 484.52 877.02 483.71 876.35 482.91 875.7 482.08 875.05 481.24 874.43 480.39 873.81 479.53 873.21 478.64 872.61 477.76 872.04 476.85 871.46 475.94 870.91 475.01 870.37 474.07 869.84 473.11 869.31 472.16 868.81 471.18 868.31 470.2 867.83 469.19 867.35 468.19 866.89 467.17 866.43 466.14 865.99 465.1 865.55 464.05 865.13 462.99 864.71 461.93 864.32 460.84 863.92 459.76 863.54 458.66 863.16 457.55 862.8 456.43 862.45 455.31 862.11 454.17 861.78 453.03 861.46 451.87 861.15 450.72 860.85 449.54 860.56 448.37 860.29 447.18 860.01 445.99 859.76 444.78 859.51 443.57 859.28 442.35 859.05 441.12 858.84 439.88 858.63 438.64 858.45 437.39 858.26 436.13 858.09 434.86 857.93 433.59 857.78 432.3 857.64 431.02 857.51 429.72 857.39 428.41 857.28 427.1 857.18 425.78 857.1 424.45 857.02 423.12 856.95 421.78 856.89 420.43 856.85 419.08 856.81 417.72 856.79 416.34 856.77 414.97 856.77 413.59 856.77 412.2 856.79 410.84 856.8 409.47 856.84 408.12 856.88 406.78 856.93 405.45 856.98 404.12 857.05 402.82 857.12 401.51 857.21 400.23 857.3 398.94 857.41 397.67 857.51 396.41 857.64 395.16 857.76 393.92 857.9 392.7 858.04 391.47 858.2 390.27 858.36 389.07 858.53 387.89 858.71 386.71 858.9 385.55 859.09 384.39 859.3 383.25 859.51 382.11 859.73 381 859.96 379.88 860.2 378.79 860.44 377.69 860.7 376.62 860.96 375.55 861.23 374.5 861.51 373.46 861.8 372.43 862.09 371.41 862.39 370.4 862.7 369.4 863.02 368.43 863.34 367.45 863.68 366.49 864.01 365.54 864.37 364.61 864.72 363.68 865.08 362.78 865.45 361.87 865.83 360.99 866.21 360.12 866.61 359.26 867 358.41 867.42 357.58 867.82 356.76 868.25 355.96 868.67 355.16 869.11 354.38 869.54 353.61 869.99 352.87 870.44 352.12 870.9 351.41 871.36 350.69 871.84 350 872.31 349.32 872.8 348.66 873.28 348.01 873.78 347.38 874.28 346.75 874.78 346.17 875.28 345.58 875.79 345.03 876.3 344.49 876.82 343.98 877.33 343.48 877.85 343.01 878.37 342.55 878.9 342.12 879.43 341.7 879.97 341.31 880.5 340.92 881.04 340.57 881.58 340.23 882.13 339.91 882.68 339.61 883.24 339.33 883.79 339.06 884.36 338.83 884.92 338.6 885.49 338.4 886.07 338.2 886.65 338.04 887.23 337.88 887.82 337.76 888.4 337.64 889 337.55 889.6 337.47 890.21 337.42 890.81 337.37 891.43 337.35 892.04 337.34 892.66 337.36 893.29 337.38 893.92 337.44 894.55 337.5 895.2 337.59 895.84 337.68 896.49 337.81 897.14 337.94 897.8 338.1 898.46 338.26 899.13 338.46 899.8 338.66 900.48 338.89 901.16 339.13 901.85 339.39 902.54 339.66 903.24 339.96 903.94 340.26 904.65 340.6 905.36 340.94 906.07 341.31 906.79 341.69 907.52 342.09 908.25 342.49 908.99 342.93 909.73 343.37 910.47 343.85 911.22 344.32 911.98 344.83 912.73 345.34 913.5 345.88 914.27 346.41 915.03 346.97 915.78 347.54 916.53 348.11 917.27 348.69 918.01 349.28 918.75 349.87 919.48 350.47 920.2 351.08 920.91 351.71 921.63 352.33 922.33 352.97 923.04 353.61 923.73 354.26 924.43 354.91 925.12 355.58 925.8 356.25 926.48 356.94 927.16 357.62 927.82 358.32 928.49 359.01 929.15 359.72 929.81 360.43 930.47 361.15 931.12 361.88 931.76 362.61 932.41 363.35 933.05 364.1 933.68 364.84 934.32 365.6 934.95 366.36 935.57 367.13 936.83 368.66 938.06 370.24 939.3 371.8 940.53 373.4 941.77 374.99 942.99 376.6 944.24 378.19 945.48 379.81 946.74 381.39 948.01 382.99 949.31 384.56 950.62 386.13 951.28 386.91 951.96 387.68 952.63 388.44 953.32 389.21 954.01 389.96 954.71 390.72 955.41 391.46 956.12 392.2 956.84 392.94 957.55 393.67 958.28 394.39 959 395.1 959.73 395.8 960.45 396.5 961.19 397.19 961.91 397.87 962.65 398.55 963.38 399.23 964.11 399.89 964.84 400.56 965.57 401.22 966.3 401.88 967.03 402.53 967.75 403.18 968.48 403.83 969.19 404.47 969.91 405.11 970.62 405.76 971.34 406.4 972.04 407.04 972.74 407.67 973.44 408.31 974.13 408.95 974.82 409.59 975.5 410.22 976.17 410.86 976.85 411.5 977.51 412.14 978.17 412.78 978.82 413.42 979.47 414.06 980.1 414.71 980.74 415.35 981.36 416 981.98 416.65 982.58 417.3 983.19 417.95 983.78 418.6 984.38 419.26 984.95 419.92 985.53 420.58 986.08 421.25 986.64 421.92 987.18 422.59 987.72 423.26 988.25 423.94 988.78 424.61 989.29 425.29 989.79 425.98 990.27 426.67 990.75 427.37 991.22 428.07 991.69 428.76 992.14 429.46 992.6 430.17 993.03 430.87 993.45 431.59 993.82 432.31 994.14 433.02 994.49 433.74 994.84 434.46 995.22 435.2 995.22 435.2 995.22 435.2M915 353.07Q915 353.07 915 353.07 914.05 352.42 913.13 351.85 912.2 351.29 911.31 350.82 910.41 350.34 909.55 349.96 908.68 349.57 907.85 349.28 907.01 348.99 906.2 348.78 905.39 348.58 904.61 348.46 903.83 348.35 903.07 348.33 902.32 348.3 901.59 348.37 900.86 348.44 900.17 348.6 899.46 348.76 898.79 349.02 898.12 349.27 897.47 349.62 896.82 349.96 896.2 350.4 895.58 350.84 894.99 351.38 894.39 351.91 893.82 352.54 893.25 353.17 892.71 353.89 892.16 354.62 891.64 355.43 891.12 356.25 890.62 357.14 890.12 358.04 889.65 359 889.18 359.97 888.74 361 888.29 362.04 887.87 363.14 887.45 364.25 887.05 365.43 886.66 366.61 886.29 367.86 885.92 369.11 885.58 370.43 885.23 371.75 884.92 373.14 884.6 374.53 884.31 375.99 884.03 377.45 883.77 378.97 883.5 380.49 883.27 382.08 883.04 383.68 882.84 385.33 882.64 386.99 882.47 388.71 882.29 390.43 882.15 392.21 882.01 393.99 881.9 395.84 881.84 396.76 881.79 397.7 881.74 398.63 881.7 399.59 881.7 399.59 881.7 399.59 882.94 399.94 884.18 400.29 885.42 400.64 886.66 400.99 887.89 401.35 889.13 401.7 890.37 402.06 891.6 402.42 892.84 402.77 894.08 403.13 895.32 403.5 896.56 403.86 897.79 404.22 899.03 404.59 900.27 404.95 901.51 405.32 902.75 405.68 903.99 406.05 905.24 406.42 906.48 406.79 907.72 407.16 908.97 407.53 910.21 407.9 911.46 408.27 912.71 408.64 913.96 409.02 915.21 409.39 916.46 409.76 917.71 410.14 918.97 410.51 920.23 410.88 921.49 411.26 922.75 411.63 924.01 412 925.28 412.38 926.54 412.75 927.81 413.12 929.09 413.49 930.36 413.87 931.64 414.24 932.92 414.61 934.2 414.98 935.49 415.35 936.78 415.71 938.07 416.08 939.37 416.45 940.67 416.81 941.98 417.17 943.28 417.54 944.6 417.9 945.91 418.25 947.24 418.61 948.56 418.97 949.89 419.32 951.23 419.67 952.57 420.02 953.91 420.36 955.26 420.71 956.62 421.05 957.98 421.39 959.35 421.72 960.72 422.05 962.1 422.38 963.48 422.71 963.17 421.97 962.85 421.25 962.52 420.53 962.19 419.81 961.86 419.1 961.53 418.39 961.19 417.69 960.85 416.99 960.51 416.29 960.16 415.6 959.81 414.92 959.45 414.24 959.1 413.56 958.74 412.89 958.38 412.22 958.02 411.55 957.29 410.22 956.55 408.92 955.81 407.62 955.05 406.35 954.3 405.07 953.54 403.83 952.78 402.57 952.01 401.34 951.24 400.11 950.47 398.89 949.71 397.67 948.94 396.48 948.18 395.27 947.41 394.09 946.65 392.9 945.89 391.73 945.14 390.55 944.38 389.39 943.64 388.22 942.89 387.07 942.15 385.91 941.41 384.77 940.67 383.62 939.94 382.5 939.21 381.36 938.48 380.25 937.76 379.13 937.03 378.04 936.3 376.94 935.58 375.86 934.85 374.78 934.12 373.72 933.4 372.66 932.66 371.63 931.93 370.59 931.19 369.59 930.46 368.58 929.71 367.61 928.96 366.63 928.2 365.69 927.44 364.74 926.67 363.83 925.89 362.93 925.11 362.05 924.32 361.18 923.52 360.35 922.71 359.52 921.89 358.72 921.07 357.93 920.23 357.18 919.39 356.43 918.53 355.72 917.67 355.01 916.79 354.35 915.9 353.68 915 353.07 915 353.07 915 353.07" class="warpedPath"></path><path fill="#b663ff" d="M20.27 545.43Q19.73 543.78 19.27 542.19 18.92 540.81 18.62 539.44 18.32 538.08 18.07 536.55 17.81 534.91 17.61 533.29 17.42 531.66 17.33 530.06 17.25 528.45 17.24 526.86 17.25 525.28 17.35 523.71 17.46 522.14 17.64 520.6 17.84 519.05 18.12 517.52 18.42 515.98 18.79 514.44 19.19 512.88 19.65 511.34 20.14 509.81 20.7 508.35 21.28 506.93 21.94 505.56 22.61 504.2 23.35 502.87 24.11 501.54 24.95 500.22 25.8 498.89 26.72 497.59 27.65 496.27 28.66 494.98 29.68 493.69 30.77 492.42 31.87 491.16 33.03 489.93 34.22 488.7 35.46 487.49 36.72 486.29 38.04 485.12 39.37 483.95 40.76 482.81 42.16 481.67 43.62 480.56 45.08 479.45 46.6 478.37 48.13 477.29 49.71 476.23 51.3 475.18 52.94 474.15 54.58 473.12 56.26 472.12 57.95 471.12 59.68 470.15 61.41 469.17 63.18 468.22 64.95 467.27 66.76 466.34 68.56 465.41 70.39 464.51 72.22 463.6 74.07 462.72 75.92 461.84 77.78 461 79.62 460.16 81.47 459.37 83.3 458.57 85.14 457.81 86.97 457.06 88.8 456.35 90.61 455.64 92.43 454.98 94.23 454.31 96.03 453.7 97.81 453.08 99.6 452.51 101.38 451.94 103.16 451.42 104.92 450.9 106.69 450.43 108.45 449.95 110.21 449.52 111.96 449.1 113.73 448.71 115.48 448.33 117.24 448 118.99 447.66 120.76 447.37 122.52 447.08 124.29 446.83 126.05 446.58 127.83 446.37 129.61 446.17 131.4 446.01 133.18 445.86 134.98 445.74 136.78 445.63 138.6 445.57 140.41 445.5 142.25 445.47 144.08 445.43 145.93 445.44 147.78 445.46 149.64 445.54 151.5 445.63 153.38 445.79 155.25 445.94 157.15 446.14 159.06 446.3 161 446.47 162.94 446.62 164.91 446.8 166.87 447.01 168.84 447.31 170.81 447.65 172.79 448.04 174.78 448.44 176.79 448.86 178.83 449.18 180.9 449.53 182.97 449.88 185.07 450.27 187.17 450.64 189.3 451.04 191.42 451.44 193.58 451.89 195.72 452.37 197.79 453.07 199.86 453.78 201.9 454.51 203.94 455.24 205.99 455.84 208.07 456.36 210.12 456.92 212.17 457.47 214.19 458.07 216.21 458.69 218.2 459.34 220.19 459.99 222.16 460.66 224.13 461.33 226.07 462.01 228.02 462.69 229.94 463.41 231.85 464.13 233.74 464.89 235.63 465.65 237.5 466.45 239.36 467.25 241.2 468.08 243.04 468.91 244.85 469.76 246.66 470.62 248.45 471.5 250.24 472.38 252.01 473.29 253.77 474.2 255.51 475.14 257.25 476.08 258.97 477.06 260.68 478.03 262.37 479.03 264.06 480.04 265.72 481.07 267.39 482.11 269.03 483.17 270.67 484.24 272.28 485.33 273.9 486.43 275.49 487.55 277.08 488.68 278.65 489.84 280.22 490.99 281.76 492.18 283.3 493.37 284.82 494.58 286.34 495.8 287.83 497.05 289.32 498.3 290.79 499.58 292.26 500.87 293.7 502.18 295.15 503.49 296.57 504.84 297.99 506.19 299.38 507.57 300.78 508.95 302.15 510.37 303.52 511.78 304.86 513.23 306.2 514.68 307.51 516.14 308.81 517.6 310.07 519.08 311.34 520.55 312.56 522.04 313.78 523.52 314.95 525.02 316.13 526.52 317.27 528.03 318.41 529.54 319.5 531.06 320.59 532.58 321.65 534.11 322.7 535.64 323.7 537.18 324.71 538.72 325.68 540.27 326.64 541.82 327.56 543.38 328.48 544.94 329.36 546.51 330.23 548.08 331.06 549.66 331.89 551.24 332.68 552.83 333.47 554.42 334.22 556.02 334.96 557.62 335.67 559.23 336.37 560.83 337.03 562.45 337.69 564.07 338.31 565.69 338.93 567.32 339.5 568.95 340.08 570.58 340.61 572.23 341.15 573.87 341.64 575.52 342.13 577.17 342.58 578.83 343.03 580.49 343.44 582.16 343.85 583.82 344.22 585.5 344.58 587.18 344.91 588.86 345.24 590.54 345.52 592.24 345.81 593.93 346.05 595.63 346.29 597.33 346.5 599.04 346.7 600.75 346.86 602.46 347.02 604.18 347.15 605.9 347.27 607.63 347.34 609.36 347.26 611.05 347.22 612.78 347.18 614.5 347.18 616.25 347.18 617.99 347.22 619.73 347.26 621.47 347.34 623.21 347.28 624.9 347.16 626.57 347.05 628.24 346.89 629.88 346.74 631.52 346.55 633.13 346.35 634.74 346.12 636.33 345.89 637.91 345.63 639.47 345.36 641.03 345.05 642.56 344.75 644.09 344.4 645.59 344.06 647.1 343.68 648.57 343.3 650.05 342.88 651.5 342.47 652.95 342.01 654.37 341.56 655.79 341.07 657.19 340.58 658.58 340.05 659.95 339.52 661.32 338.96 662.66 338.39 664 337.79 665.32 337.2 666.63 336.56 667.92 335.93 669.21 335.25 670.47 334.58 671.73 333.88 672.97 333.17 674.2 332.43 675.41 331.7 676.62 330.92 677.81 330.15 678.99 329.34 680.15 328.53 681.31 327.69 682.44 326.85 683.57 325.98 684.68 325.11 685.79 324.2 686.88 323.3 687.96 322.36 689.02 321.43 690.08 320.46 691.12 319.5 692.15 318.5 693.17 317.51 694.18 316.48 695.17 315.46 696.16 314.41 697.13 313.36 698.1 312.28 699.04 311.2 699.99 310.09 700.91 308.99 701.84 307.86 702.72 306.74 703.61 305.6 704.45 304.47 705.3 303.31 706.11 302.16 706.91 300.98 707.68 299.81 708.45 298.62 709.17 297.44 709.9 296.23 710.58 295.03 711.27 293.8 711.91 292.58 712.55 291.33 713.14 290.08 713.74 288.82 714.29 287.55 714.84 286.26 715.34 284.97 715.84 283.66 716.3 282.34 716.75 281.01 717.16 279.68 717.56 278.33 717.92 276.98 718.28 275.62 718.59 274.25 718.9 272.87 719.16 271.49 719.42 270.09 719.63 268.69 719.83 267.27 719.99 265.86 720.15 264.42 720.26 262.98 720.36 261.51 720.41 260.01 720.45 258.47 720.43 256.92 720.41 255.34 720.33 253.76 720.25 252.18 720.13 250.64 720.01 249.12 719.86 247.63 719.71 246.09 719.5 244.48 719.27 242.78 718.96 241.09 718.65 239.46 718.32 237.94 718.02 236.41 717.68 234.84 717.32 233.05 716.83 231.24 716.33 229.39 715.79 227.77 715.3 226.18 714.8 224.58 714.19 222.81 713.5 220.89 712.74 218.96 712.02 217.12 711.32 215.51 710.73 213.89 710.14 212.28 709.53 210.39 708.71 208.52 707.86 206.65 707 204.81 706.11 202.96 705.21 201.15 704.28 199.44 703.4 197.87 702.52 196.31 701.65 194.76 700.74 193.2 699.83 191.65 698.87 190.06 697.9 188.42 696.86 186.75 695.8 185.09 694.72 183.47 693.64 181.89 692.54 180.33 691.45 178.79 690.33 177.25 689.2 175.71 688.04 174.15 686.87 172.58 685.65 171 684.43 169.42 683.17 167.84 681.91 166.26 680.61 164.69 679.32 163.13 678 161.57 676.69 160.03 675.35 158.49 674.01 156.96 672.65 155.43 671.29 153.9 669.91 152.37 668.53 150.84 667.12 149.3 665.72 147.76 664.3 146.22 662.88 144.67 661.45 143.11 660.02 141.54 658.57 139.97 657.13 138.38 655.67 136.78 654.22 135.18 652.76 133.55 651.31 131.92 649.85 130.26 648.4 128.59 646.94 126.9 645.5 125.2 644.04 123.47 642.6 121.73 641.15 119.96 639.72 118.17 638.28 116.37 636.86 114.54 635.43 112.69 634.01 110.84 632.61 108.97 631.22 107.11 629.85 105.22 628.49 103.35 627.14 101.46 625.8 99.58 624.47 97.68 623.15 95.79 621.84 93.9 620.53 92.01 619.23 90.12 617.94 88.25 616.65 86.36 615.37 84.5 614.09 82.63 612.81 80.79 611.53 78.94 610.25 77.11 608.97 75.28 607.69 73.48 606.4 71.68 605.11 69.91 603.82 68.13 602.52 66.39 601.21 64.65 599.9 62.95 598.58 61.25 597.27 59.59 595.95 57.95 594.63 56.35 593.32 54.77 592.02 53.24 590.72 51.72 589.42 50.25 588.11 48.77 586.78 47.32 585.42 45.88 584.04 44.46 582.62 43.06 581.19 41.69 579.75 40.34 578.29 39.03 576.81 37.74 575.33 36.5 573.84 35.27 572.34 34.1 570.82 32.94 569.3 31.84 567.77 30.74 566.23 29.72 564.68 28.71 563.13 27.75 561.56 26.8 559.99 25.93 558.4 25.08 556.81 24.27 555.21 23.48 553.61 22.78 551.98 22.08 550.36 21.42 548.73 20.81 547.09 20.27 545.43 20.27 545.43 20.27 545.43M144.47 641.35Q146.72 643.89 148.97 646.36 151.19 648.85 153.41 651.26 155.6 653.69 157.8 656.04 159.97 658.41 162.16 660.7 164.32 663 166.5 665.21 168.66 667.43 170.84 669.56 173 671.69 175.19 673.72 177.36 675.76 179.57 677.69 181.76 679.62 183.99 681.44 186.21 683.26 188.46 684.97 190.71 686.67 193 688.26 195.29 689.84 197.63 691.31 199.98 692.78 202.39 694.13 204.81 695.49 207.29 696.72 209.78 697.95 212.3 699.05 214.82 700.13 217.39 701.09 219.96 702.04 222.43 702.81 224.9 703.57 227.28 704.15 229.66 704.72 231.94 705.11 234.23 705.5 236.43 705.71 238.64 705.91 240.75 705.94 242.88 705.96 244.91 705.81 246.96 705.66 248.92 705.33 250.88 705 252.76 704.5 254.64 703.99 256.43 703.32 258.23 702.64 259.95 701.8 261.67 700.95 263.3 699.94 264.94 698.93 266.5 697.75 268.07 696.58 269.55 695.24 271.04 693.91 272.44 692.42 273.86 690.93 275.19 689.29 276.54 687.65 277.8 685.85 279.07 684.06 280.25 682.18 281.45 680.29 282.56 678.31 283.68 676.34 284.72 674.27 285.76 672.2 286.72 670.04 287.69 667.88 288.57 665.62 289.46 663.37 290.26 661.02 290.66 659.85 291.05 658.65 291.43 657.45 291.79 656.23 292.15 655.01 292.49 653.77 292.83 652.52 293.15 651.25 293.47 649.99 293.77 648.7 294.07 647.4 294.35 646.09 294.63 644.77 294.88 643.44 295.14 642.1 295.37 640.73 295.61 639.37 295.82 637.98 296.03 636.6 296.22 635.19 296.41 633.78 296.58 632.34 296.75 630.91 296.89 629.45 297.04 627.99 297.16 626.51 297.29 625.02 297.39 623.52 297.49 622.01 297.57 620.48 297.64 618.95 297.7 617.39 297.75 615.84 297.78 614.26 297.82 612.68 297.82 611.07 297.83 609.47 297.82 607.84 297.8 606.22 297.76 604.56 297.73 602.91 297.66 601.27 297.6 599.63 297.51 598.01 297.43 596.38 297.31 594.77 297.2 593.16 297.07 591.55 296.93 589.95 296.77 588.37 296.61 586.78 296.42 585.2 296.23 583.63 296.02 582.07 295.81 580.51 295.57 578.96 295.33 577.41 295.07 575.87 294.81 574.34 294.52 572.81 294.23 571.29 293.91 569.78 293.6 568.27 293.26 566.77 292.92 565.27 292.55 563.79 292.19 562.31 291.8 560.84 291.4 559.37 290.99 557.91 290.57 556.45 290.12 555 289.68 553.56 289.21 552.13 288.74 550.7 288.24 549.28 287.75 547.86 287.22 546.46 286.7 545.05 286.15 543.66 285.6 542.27 285.03 540.9 284.45 539.52 283.85 538.15 282.65 535.43 281.35 532.76 280.04 530.08 278.63 527.47 277.22 524.85 275.71 522.29 274.2 519.73 272.58 517.22 270.96 514.72 269.25 512.26 267.53 509.81 265.73 507.48 263.94 505.15 262.06 502.93 260.18 500.71 258.22 498.61 256.26 496.51 254.22 494.52 252.19 492.53 250.07 490.66 247.95 488.78 245.75 487.02 243.55 485.26 241.26 483.61 238.98 481.96 236.62 480.42 234.26 478.88 231.81 477.45 229.36 476.03 226.83 474.71 224.3 473.39 221.69 472.18 219.08 470.97 216.38 469.87 213.69 468.76 210.91 467.75 208.14 466.73 205.28 465.8 202.43 464.86 199.49 464.02 196.55 463.17 193.52 462.43 190.49 461.71 187.54 461.14 184.59 460.57 181.73 460.15 178.86 459.72 176.08 459.43 173.3 459.14 170.6 458.99 167.89 458.84 165.26 458.85 162.63 458.85 160.08 459 157.51 459.15 155.02 459.46 152.53 459.76 150.1 460.22 147.66 460.68 145.3 461.3 142.91 461.91 140.6 462.68 138.27 463.46 136.01 464.38 133.72 465.31 131.51 466.39 129.27 467.47 127.1 468.71 124.91 469.95 122.78 471.34 120.63 472.73 118.55 474.27 116.46 475.82 114.43 477.52 112.39 479.22 110.44 481.01 108.49 482.81 106.63 484.7 104.77 486.59 103.01 488.58 101.26 490.57 99.62 492.65 97.99 494.73 96.48 496.91 94.98 499.09 93.62 501.36 92.95 502.5 92.31 503.66 91.67 504.81 91.08 506 90.48 507.18 89.93 508.39 89.38 509.59 88.87 510.82 88.37 512.05 87.9 513.31 87.45 514.56 87.03 515.84 86.62 517.11 86.26 518.41 85.9 519.71 85.58 521.03 85.28 522.35 85.01 523.69 84.76 525.03 84.55 526.4 84.35 527.76 84.19 529.15 84.05 530.53 83.95 531.93 83.86 533.34 83.82 534.76 83.78 536.19 83.8 537.63 83.82 539.07 83.9 540.53 83.98 541.99 84.11 543.47 84.26 544.95 84.45 546.45 84.65 547.94 84.9 549.46 85.16 550.97 85.47 552.5 85.8 554.03 86.17 555.58 86.55 557.12 86.98 558.65 87.42 560.18 87.89 561.69 88.38 563.2 88.91 564.69 89.44 566.19 90.02 567.66 90.6 569.14 91.22 570.6 91.85 572.06 92.52 573.5 93.19 574.95 93.89 576.37 94.61 577.8 95.35 579.21 96.11 580.62 96.89 582.02 97.68 583.41 98.5 584.79 99.32 586.17 100.18 587.53 101.04 588.9 101.92 590.25 102.81 591.6 103.72 592.94 104.64 594.27 105.58 595.6 106.53 596.92 107.49 598.24 108.46 599.55 109.45 600.86 110.45 602.16 111.46 603.45 112.47 604.75 113.51 606.03 114.54 607.32 115.59 608.59 116.64 609.87 117.7 611.14 118.77 612.41 119.85 613.68 120.93 614.95 122.02 616.21 124.19 618.74 126.43 621.24 128.63 623.76 130.89 626.26 133.12 628.77 135.4 631.28 137.65 633.8 139.93 636.3 142.18 638.83 144.47 641.35 144.47 641.35 144.47 641.35M559.7 513.18Q559.7 513.18 559.7 513.18 559.69 514.43 559.68 515.66 559.68 516.88 559.67 518.1 559.66 519.32 559.65 520.55 559.64 521.78 559.63 523.03 559.62 524.29 559.6 525.56 559.58 526.83 559.56 528.12 559.54 529.42 559.52 530.72 559.5 532.04 559.48 533.36 559.46 534.69 559.43 536.03 559.41 537.37 559.38 538.72 559.36 540.07 559.33 541.43 559.31 542.8 559.28 544.17 559.26 545.54 559.23 546.92 559.21 548.3 559.19 549.68 559.17 551.07 559.14 552.46 559.12 553.85 559.1 555.25 559.08 556.65 559.06 558.05 559.04 559.45 559.03 560.85 559.01 562.26 559 563.67 558.98 565.07 558.97 566.49 558.95 567.9 558.94 569.31 558.93 570.73 558.92 572.14 558.91 573.56 558.9 574.98 558.89 576.4 558.89 577.82 558.88 579.24 558.87 580.66 558.87 582.08 558.86 583.5 558.85 584.93 558.85 586.35 558.85 587.78 558.84 589.2 558.84 590.63 558.83 592.06 558.83 593.49 558.83 594.91 558.83 596.34 558.82 597.77 558.82 599.2 558.82 600.63 558.82 602.06 558.82 603.5 558.81 604.93 558.81 606.36 558.81 607.79 558.81 609.23 558.81 610.66 558.81 612.09 558.81 613.53 558.81 614.96 558.81 616.4 558.81 617.83 558.81 619.27 558.81 620.7 558.81 622.14 558.81 623.58 558.81 625.02 558.81 626.45 558.81 627.89 558.82 629.33 558.82 630.77 558.82 632.21 558.82 633.65 558.82 635.09 558.82 636.53 558.83 637.97 558.83 639.41 558.83 640.86 558.83 642.3 558.84 643.74 558.84 645.19 558.84 646.63 558.85 648.08 558.85 649.52 558.85 650.97 558.86 652.41 558.86 653.86 558.87 655.31 558.87 656.76 558.88 658.21 558.88 659.66 558.89 661.11 558.89 662.56 558.9 664.02 558.9 665.47 558.91 666.93 558.92 668.38 558.92 669.84 558.93 671.3 558.94 672.76 558.95 674.22 558.95 675.68 558.96 677.15 558.97 678.61 558.98 680.08 558.99 681.55 559 683.02 559.01 684.49 559.02 685.97 559.04 687.45 559.05 688.93 559.06 690.41 559.07 691.9 559.09 693.39 559.1 694.57 559.13 695.72 559.15 696.87 559.2 698 559.24 699.13 559.3 700.24 559.36 701.35 559.44 702.43 559.52 703.51 559.61 704.57 559.71 705.63 559.82 706.66 559.93 707.7 560.05 708.71 560.18 709.72 560.32 710.71 560.47 711.7 560.63 712.66 560.79 713.62 560.96 714.56 561.14 715.5 561.33 716.42 561.52 717.33 561.73 718.23 562.15 720.02 562.63 721.7 563.11 723.39 563.65 724.97 564.2 726.56 564.81 728.04 565.42 729.53 566.09 730.9 566.77 732.28 567.51 733.54 568.24 734.8 569.05 735.95 569.85 737.09 570.71 738.11 571.58 739.14 572.5 740.03 574.36 741.82 576.46 743.05 578.55 744.29 581.56 745.3 584.56 746.31 588.47 747.08 592.37 747.83 597.18 748.31 601.99 748.77 607.72 748.95 610.58 749.02 613.67 749.02 616.75 749 620.04 748.92 623.33 748.82 626.83 748.64 630.32 748.45 634.03 748.18 637.76 747.89 641.74 747.52 645.73 747.15 649.96 746.7 654.18 746.26 658.61 745.78 663.01 745.35 667.63 744.97 667.63 744.97 667.63 744.97 668.27 745.87 668.9 746.76 669.52 747.65 669.14 748.32 665.75 749.09 660.99 749.88 656.01 750.67 651.04 751.44 646.07 752.18 641.1 752.88 636.14 753.56 631.41 754.18 627 754.74 622.55 755.28 617.64 755.84 612.67 756.38 607.71 756.9 602.76 757.39 597.81 757.85 592.87 758.29 587.94 758.69 583.27 759.05 578.97 759.37 574.01 759.7 569.06 760.01 564.11 760.29 559.17 760.54 554.24 760.77 549.31 760.98 544.4 761.15 539.49 761.3 534.59 761.43 529.7 761.53 524.82 761.61 519.95 761.66 515.1 761.69 510.25 761.69 505.37 761.67 500.5 761.63 495.62 761.55 490.73 761.46 485.84 761.34 480.93 761.2 476.02 761.03 471.1 760.83 466.17 760.61 461.23 760.36 456.28 760.09 451.33 759.79 446.37 759.46 441.78 759.13 437.39 758.8 432.46 758.4 427.53 757.97 422.58 757.52 417.63 757.04 412.67 756.53 407.7 755.99 402.73 755.42 398.14 754.88 393.72 754.33 389.2 753.74 384.24 753.07 379.27 752.37 374.3 751.64 369.33 750.88 364.35 750.1 359.54 749.33 359.94 748.43 360.52 747.41 361.1 746.39 361.68 745.37 366.52 745.87 371.11 746.37 375.7 746.9 380.03 747.36 384.34 747.81 388.38 748.19 392.4 748.55 396.17 748.82 399.95 749.08 403.5 749.26 407.08 749.43 410.43 749.52 413.79 749.59 416.92 749.59 420.04 749.58 422.94 749.5 428.71 749.29 433.54 748.8 438.38 748.29 442.28 747.51 446.19 746.72 449.17 745.69 452.15 744.66 454.2 743.4 456.23 742.15 458 740.3 458.88 739.39 459.7 738.33 460.51 737.28 461.26 736.09 462 734.91 462.68 733.59 463.35 732.29 463.96 730.85 464.57 729.42 465.11 727.87 465.65 726.34 466.12 724.67 466.59 723.03 466.99 721.26 467.4 719.5 467.73 717.63 467.9 716.7 468.05 715.74 468.21 714.78 468.34 713.8 468.48 712.81 468.6 711.8 468.72 710.79 468.82 709.76 468.92 708.72 469.01 707.66 469.1 706.6 469.17 705.52 469.24 704.43 469.3 703.32 469.36 702.21 469.4 701.07 469.44 699.93 469.46 698.77 469.49 697.61 469.5 696.42 469.51 695.23 469.51 694.01 469.5 692.8 469.48 691.56 469.48 691.56 469.48 691.56 469.47 690.5 469.45 689.44 469.44 688.39 469.42 687.33 469.41 686.28 469.4 685.23 469.38 684.18 469.37 683.13 469.36 682.09 469.35 681.04 469.34 680 469.33 678.95 469.32 677.91 469.31 676.87 469.3 675.82 469.29 674.78 469.28 673.74 469.27 672.7 469.27 671.67 469.26 670.63 469.25 669.59 469.24 668.55 469.24 667.52 469.23 666.48 469.23 665.45 469.22 664.42 469.21 663.38 469.21 662.35 469.2 661.32 469.2 660.28 469.19 659.25 469.19 658.22 469.19 657.19 469.18 656.16 469.18 655.13 469.17 654.1 469.17 653.07 469.17 652.04 469.16 651.02 469.16 649.99 469.16 648.96 469.15 647.93 469.15 646.91 469.15 645.88 469.15 644.85 469.14 643.83 469.14 642.8 469.14 641.78 469.14 640.75 469.13 639.73 469.13 638.7 469.13 637.68 469.13 636.65 469.13 635.63 469.12 634.61 469.12 633.58 469.12 632.56 469.12 631.54 469.12 630.52 469.12 629.49 469.12 628.47 469.11 627.45 469.11 626.43 469.11 625.41 469.11 624.38 469.11 623.36 469.11 622.34 469.11 621.32 469.11 620.3 469.11 619.28 469.11 618.26 469.11 617.24 469.11 616.22 469.1 615.2 469.1 614.18 469.1 613.16 469.1 612.14 469.1 611.12 469.1 610.1 469.1 609.08 469.1 608.07 469.1 607.05 469.1 606.03 469.1 605.01 469.1 603.99 469.1 602.98 469.1 601.96 469.11 600.94 469.11 599.92 469.11 598.91 469.11 597.89 469.11 596.87 469.11 595.86 469.11 594.84 469.11 593.83 469.11 592.81 469.11 591.79 469.11 590.78 469.11 589.76 469.12 588.75 469.12 587.73 469.12 586.72 469.12 585.71 469.12 584.69 469.12 583.68 469.12 582.66 469.13 581.65 469.13 580.64 469.13 579.63 469.13 578.61 469.13 577.6 469.14 576.59 469.14 575.58 469.14 574.57 469.14 573.56 469.15 572.54 469.15 571.53 469.15 570.52 469.15 569.52 469.16 568.51 469.16 567.5 469.16 566.49 469.16 565.48 469.17 564.48 469.17 563.47 469.17 562.46 469.18 561.46 469.18 560.45 469.19 559.28 469.17 558.15 469.16 557.01 469.14 555.9 469.11 554.79 469.07 553.71 469.03 552.63 468.97 551.58 468.92 550.53 468.85 549.5 468.78 548.48 468.69 547.49 468.6 546.5 468.5 545.53 468.4 544.57 468.28 543.64 468.17 542.7 468.04 541.8 467.9 540.89 467.76 540.02 467.61 539.14 467.45 538.29 467.28 537.45 467.11 536.63 466.75 535 466.33 533.47 465.92 531.95 465.44 530.54 464.96 529.14 464.42 527.84 463.88 526.55 463.28 525.37 462.67 524.18 462.01 523.11 461.35 522.04 460.62 521.07 459.9 520.1 459.11 519.24 458.33 518.38 457.48 517.62 455.79 516.1 453.86 514.98 453.86 514.98 453.86 514.98 451.26 513.59 446.43 511.9 444.02 511.05 441.04 510.13 438.07 509.2 434.54 508.19 431 507.18 427.34 506.25 423.69 505.32 419.91 504.48 416.13 503.64 412.24 502.89 408.34 502.14 404.33 501.49 400.32 500.83 395.46 500.08 390.61 499.32 384.91 498.47 379.21 497.63 372.67 496.72 369.4 496.28 365.92 495.83 362.44 495.39 358.75 494.95 358.75 494.95 358.75 494.95 358.11 493.89 357.47 492.83 356.82 491.78 356.18 490.72 362.2 491.2 368.26 491.8 374.31 492.47 380.4 493.19 386.5 493.93 392.63 494.7 398.76 495.48 404.93 496.28 411.11 497.06 417.34 497.79 423.57 498.52 429.82 499.36 436.08 500.19 442.39 500.96 448.71 501.65 455.04 502.53 461.36 503.52 467.76 504.3 474.17 504.94 480.64 505.53 483.87 505.84 487.11 506.16 490.36 506.48 493.61 506.81 496.86 507.14 500.12 507.47 503.38 507.8 506.65 508.14 509.93 508.47 513.21 508.81 516.49 509.15 519.78 509.5 523.08 509.84 526.38 510.19 529.68 510.54 532.99 510.9 536.31 511.25 539.63 511.6 542.95 511.95 546.29 512.3 549.63 512.56 552.98 512.8 556.33 513.04 559.7 513.18 559.7 513.18 559.7 513.18M830.65 676.74Q829.73 677.66 828.79 678.58 827.85 679.5 826.89 680.42 825.94 681.35 824.96 682.27 823.99 683.2 823 684.13 822.01 685.07 821 686 819.99 686.94 818.97 687.88 817.95 688.83 816.9 689.77 815.86 690.72 814.8 691.66 813.74 692.61 812.66 693.56 811.59 694.52 810.49 695.47 809.4 696.43 808.28 697.38 807.17 698.34 806.03 699.29 804.9 700.25 803.74 701.2 802.59 702.15 801.42 703.11 800.25 704.06 799.05 705.01 797.86 705.95 796.64 706.9 795.43 707.84 794.2 708.75 792.98 709.67 791.75 710.55 790.52 711.44 789.29 712.29 788.05 713.15 786.81 713.97 785.57 714.79 784.32 715.58 783.07 716.37 781.8 717.13 780.52 717.9 779.22 718.63 777.93 719.36 776.64 720.05 775.38 720.73 774.13 721.37 772.89 722.01 771.61 722.62 770.27 723.25 768.87 723.86 767.45 724.47 766.01 725.06 764.57 725.64 763.1 726.19 761.64 726.74 760.17 727.25 758.74 727.75 757.5 728.09 756.26 728.42 754.98 728.8 753.69 729.17 752.21 729.62 750.72 730.07 749.27 730.47 747.84 730.84 746.62 731.11 745.44 731.37 744.3 731.59 743.14 731.82 741.95 732.03 740.65 732.26 739.38 732.46 738.1 732.67 736.86 732.83 735.63 732.99 734.43 733.12 733.23 733.24 732.08 733.32 730.93 733.41 729.82 733.45 728.72 733.49 727.67 733.49 726.63 733.48 725.65 733.44 724.68 733.39 723.75 733.3 722.82 733.21 721.92 733.09 721.02 732.96 720.15 732.8 719.27 732.64 718.43 732.45 717.58 732.26 716.76 732.04 715.94 731.81 715.15 731.57 714.35 731.32 713.58 731.05 712.8 730.78 712.05 730.49 711.3 730.19 710.58 729.87 709.85 729.55 709.15 729.21 708.44 728.86 707.76 728.5 707.08 728.13 706.43 727.73 705.77 727.34 705.14 726.92 704.51 726.51 703.91 726.07 703.3 725.62 702.72 725.16 702.14 724.69 701.58 724.21 701.02 723.72 700.49 723.21 699.96 722.69 699.45 722.16 698.95 721.62 698.47 721.06 697.99 720.51 697.53 719.92 697.53 719.92 697.53 719.92 696.61 718.82 695.76 717.66 695.32 717.08 694.91 716.49 694.49 715.89 694.09 715.29 693.69 714.68 693.31 714.07 692.92 713.45 692.56 712.82 692.19 712.19 691.83 711.54 691.48 710.9 691.15 710.24 690.81 709.59 690.49 708.92 690.17 708.25 689.87 707.57 689.56 706.89 689.27 706.2 688.98 705.5 688.71 704.8 688.44 704.09 688.18 703.37 687.92 702.66 687.66 701.93 687.4 701.2 687.15 700.45 686.89 699.71 686.63 698.96 686.37 698.2 686.11 697.43 685.85 696.67 685.6 695.89 685.35 695.11 685.12 694.32 684.88 693.53 684.66 692.72 684.44 691.92 684.23 691.11 684.03 690.29 683.84 689.46 683.65 688.64 683.49 687.8 683.32 686.96 683.16 686.11 683.01 685.26 682.88 684.4 682.75 683.53 682.63 682.66 682.52 681.78 682.42 680.9 682.32 680.01 682.25 679.11 682.17 678.22 682.11 677.31 682.05 676.4 682.01 675.47 681.97 674.55 681.95 673.62 681.94 672.69 681.94 671.74 681.94 670.8 681.97 669.86 682 668.92 682.07 667.98 682.14 667.04 682.24 666.11 682.34 665.18 682.48 664.25 682.62 663.32 682.79 662.39 682.96 661.47 683.17 660.54 683.37 659.62 683.61 658.7 683.86 657.79 684.13 656.87 684.41 655.96 684.72 655.05 685.04 654.14 685.39 653.23 685.74 652.33 686.12 651.43 686.51 650.53 686.93 649.63 687.35 648.74 687.81 647.85 688.27 646.95 688.76 646.07 689.26 645.18 689.79 644.3 690.33 643.42 690.89 642.54 691.47 641.66 692.07 640.79 692.68 639.92 693.33 639.05 693.97 638.19 694.66 637.33 695.34 636.47 696.06 635.61 696.79 634.75 697.55 633.9 698.31 633.05 699.11 632.21 699.91 631.36 700.75 630.52 701.59 629.69 702.46 628.85 703.35 628.02 704.26 627.19 705.18 626.37 706.14 625.55 707.1 624.73 708.1 623.91 709.1 623.1 710.14 622.29 711.18 621.48 712.26 620.68 713.34 619.88 714.47 619.08 715.59 618.29 716.75 617.5 717.92 616.72 719.12 615.93 720.33 615.15 721.57 614.39 722.81 613.64 724.07 612.9 725.34 612.16 726.64 611.45 727.93 610.73 729.26 610.04 730.59 609.35 731.94 608.68 733.3 608.01 734.69 607.36 736.08 606.71 737.49 606.08 738.91 605.45 740.36 604.85 741.81 604.24 743.28 603.66 744.76 603.08 746.27 602.51 747.78 601.95 749.31 601.41 750.85 600.87 752.42 600.36 753.99 599.84 755.59 599.34 757.19 598.85 758.81 598.37 760.44 597.9 762.1 597.44 763.76 596.99 765.45 596.56 767.14 596.13 768.85 595.72 770.57 595.31 772.32 594.92 774.07 594.53 775.84 594.16 777.62 593.79 779.43 593.44 781.24 593.09 783.07 592.77 784.91 592.44 786.77 592.13 788.64 591.83 790.53 591.54 792.42 591.26 794.35 590.99 796.27 590.72 798.22 590.48 800.17 590.23 802.15 590.01 804.13 589.78 806.13 589.58 808.14 589.37 810.18 589.18 812.21 589 814.27 588.83 816.34 588.66 818.43 588.52 820.52 588.37 822.64 588.24 824.76 588.11 826.9 588 826.9 588 826.9 588 828.78 587.91 830.64 587.83 832.5 587.75 834.34 587.68 836.18 587.61 838 587.56 839.82 587.51 841.62 587.47 843.42 587.44 845.19 587.41 846.97 587.39 848.72 587.38 850.47 587.37 852.2 587.38 853.93 587.38 855.64 587.4 857.35 587.42 859.03 587.46 860.71 587.49 862.37 587.54 864.04 587.59 865.67 587.65 867.31 587.71 868.92 587.79 870.53 587.87 872.12 587.95 873.71 588.05 875.27 588.15 876.83 588.25 878.37 588.37 879.91 588.49 881.42 588.62 881.42 588.62 881.42 588.62 881.73 587.85 882.03 587.07 882.34 586.3 882.64 585.52 882.94 584.75 883.23 583.97 883.53 583.19 883.82 582.41 884.11 581.63 884.39 580.85 884.68 580.07 884.96 579.29 885.24 578.51 885.51 577.72 885.79 576.94 886.06 576.15 886.32 575.37 886.59 574.58 886.85 573.79 887.11 573 887.37 572.21 887.62 571.42 887.87 570.63 888.12 569.84 888.36 569.05 888.61 568.26 888.85 567.46 889.08 566.67 889.31 565.87 889.54 565.08 889.77 564.28 890 563.49 890.34 562.23 890.66 561.02 890.96 559.81 891.24 558.66 891.5 557.5 891.74 556.39 891.97 555.28 892.16 554.23 892.36 553.17 892.52 552.16 892.68 551.16 892.81 550.2 892.93 549.25 893.03 548.34 893.12 547.44 893.19 546.59 893.25 545.74 893.29 544.94 893.33 544.14 893.34 543.39 893.35 542.64 893.33 541.94 893.31 541.25 893.27 540.6 893.19 539.32 893.01 538.24 892.83 537.16 892.57 536.28 892.3 535.41 891.96 534.63 891.62 533.84 891.2 533.15 890.78 532.45 890.29 531.85 889.8 531.24 889.24 530.73 888.11 529.7 886.7 529.02 885.29 528.34 883.59 528.02 883.59 528.02 883.59 528.02 882.05 527.69 880.28 527.42 878.5 527.15 876.5 526.93 874.49 526.72 872.25 526.57 870.01 526.42 867.54 526.33 865.07 526.23 862.36 526.19 859.65 526.14 856.71 526.14 853.76 526.13 850.59 526.18 849 526.2 847.35 526.23 845.7 526.27 843.99 526.32 843.99 526.32 843.99 526.32 843.8 525.6 843.6 524.88 843.4 524.16 843.21 523.43 846.09 523.15 849.01 522.9 851.93 522.66 854.87 522.43 857.82 522.19 860.79 521.94 863.76 521.66 866.75 521.37 869.75 521.05 872.77 520.74 875.79 520.45 878.84 520.22 881.89 520 884.97 519.76 888.04 519.44 891.14 519.11 894.25 518.82 897.38 518.66 900.52 518.54 903.68 518.39 906.83 518.06 910.01 517.7 911.6 517.52 913.2 517.36 914.8 517.3 916.41 517.27 918.02 517.24 919.63 517.22 921.25 517.19 922.87 517.16 924.49 517.03 926.12 516.89 927.74 516.74 929.38 516.59 931.01 516.45 932.65 516.3 934.28 516.14 935.93 515.97 937.57 515.8 939.22 515.64 940.88 515.47 942.54 515.34 942.54 515.34 942.54 515.34 942.51 516.52 942.48 517.69 942.46 518.84 942.45 519.98 942.43 521.11 942.42 522.24 942.41 523.37 942.39 524.49 942.37 525.62 942.35 526.74 942.32 527.86 942.28 528.98 942.23 530.11 942.17 531.23 942.11 532.35 942.03 533.47 941.94 534.59 941.84 535.71 941.73 536.82 941.61 537.94 941.48 539.05 941.33 540.17 941.17 541.28 941 542.39 940.82 543.49 940.63 544.6 940.43 545.71 940.21 546.81 939.98 547.91 939.75 549.01 939.5 550.11 939.24 551.21 938.97 552.3 938.69 553.4 938.41 554.49 938.11 555.58 937.8 556.67 937.48 557.76 937.16 558.85 936.82 559.93 936.48 561.01 936.13 562.1 935.76 563.18 935.4 564.25 935.02 565.33 934.63 566.4 934.24 567.47 933.84 568.54 933.43 569.61 933.01 570.67 932.59 571.74 932.16 572.8 931.72 573.85 931.28 574.91 930.83 575.96 930.37 577.01 929.91 578.05 929.44 579.1 928.96 580.14 928.48 581.17 927.99 582.21 927.5 583.24 927 584.27 926.5 585.29 925.99 586.31 925.47 587.33 924.95 588.35 924.42 589.36 923.89 590.37 923.35 591.37 922.81 592.38 922.26 593.38 921.7 594.37 921.14 595.37 920.58 596.36 920.01 597.35 919.44 598.34 918.86 599.32 918.27 600.3 917.68 601.28 917.09 602.25 916.49 603.23 915.89 604.2 915.28 605.16 914.67 606.13 914.05 607.09 913.43 608.05 912.8 609 912.18 609.95 911.54 610.9 910.91 611.85 910.27 612.79 909.62 613.73 908.97 614.67 908.32 615.6 907.66 616.53 907 617.46 906.34 618.38 905.67 619.31 905 620.22 904.33 621.14 903.65 622.05 902.97 622.97 902.29 623.87 901.6 624.78 900.91 625.68 900.21 626.58 899.51 627.48 898.81 628.38 898.11 629.27 897.4 630.16 896.69 631.05 895.98 631.94 895.26 632.82 894.54 633.7 893.81 634.58 893.09 635.46 892.36 636.33 891.63 637.2 890.89 638.07 890.16 638.94 889.42 639.8 888.68 640.67 887.93 641.53 887.19 642.38 886.44 643.24 885.69 644.1 884.94 644.95 884.28 645.68 883.65 646.4 883.01 647.12 882.39 647.82 881.76 648.52 881.16 649.2 880.55 649.88 879.96 650.54 879.37 651.2 878.79 651.84 878.22 652.49 877.66 653.12 877.1 653.74 876.55 654.35 876.01 654.96 875.48 655.55 874.95 656.14 874.44 656.72 873.93 657.29 873.44 657.85 872.94 658.41 872.47 658.95 871.99 659.49 871.53 660.01 870.61 661.06 869.76 662.04 868.91 663.02 868.13 663.94 867.34 664.85 866.63 665.7 865.92 666.56 865.29 667.34 864.65 668.13 864.08 668.85 863.51 669.57 863.02 670.23 862.52 670.89 862.09 671.49 861.67 672.08 861.31 672.61 860.6 673.67 860.17 674.46 859.74 675.26 859.54 675.9 859.35 676.54 859.39 677.02 859.42 677.5 859.69 677.81 859.96 678.12 860.46 678.27 860.96 678.41 861.68 678.39 862.41 678.37 863.36 678.18 864.32 677.99 865.51 677.64 866.71 677.29 868.15 676.79 868.15 676.79 868.15 676.79 869.98 676.17 872.32 675.3 873.49 674.87 874.81 674.39 876.13 673.92 877.6 673.4 879.09 672.89 880.72 672.34 882.38 671.81 884.2 671.23 886.05 670.67 888.06 670.07 890.11 669.48 892.32 668.86 892.32 668.86 892.32 668.86 892.34 669.13 892.34 669.42 892.3 669.72 891.99 670.07 890.83 670.45 889.22 670.94 887.64 671.44 885.89 672 884.18 672.57 882.31 673.22 880.48 673.89 878.5 674.65 876.57 675.45 873.87 676.59 872.55 677.19 871.06 677.88 869.59 678.6 867.94 679.42 866.32 680.26 864.54 681.22 862.77 682.19 860.83 683.27 858.92 684.37 856.84 685.58 855.8 686.19 854.72 686.83 853.65 687.47 852.53 688.13 851.41 688.8 850.31 689.46 849.2 690.11 848.11 690.76 847.03 691.4 845.96 692.02 844.9 692.64 843.85 693.25 842.81 693.85 841.78 694.43 840.75 695.01 839.72 695.59 837.63 696.74 835.58 697.83 833.58 698.89 831.7 699.84 829.85 700.78 828.06 701.63 826.27 702.48 824.49 703.28 822.61 704.1 820.68 704.89 820.68 704.89 820.68 704.89 820.7 704.12 820.76 703.32 820.82 702.53 820.93 701.71 821.04 700.89 821.18 700.06 821.33 699.22 821.52 698.37 821.71 697.52 821.92 696.66 822.15 695.81 822.4 694.93 822.65 694.07 822.94 693.19 823.22 692.31 823.54 691.42 823.86 690.54 824.21 689.64 824.56 688.75 824.94 687.84 825.32 686.94 825.73 686.03 826.15 685.12 826.59 684.2 827.04 683.29 827.51 682.36 827.99 681.44 828.49 680.5 829 679.57 829.54 678.63 830.08 677.69 830.65 676.74 830.65 676.74 830.65 676.74 830.65 676.74 830.65 676.74M725.16 707.48Q725.58 708.57 726.09 709.59 726.6 710.6 727.21 711.54 727.8 712.47 728.5 713.32 729.19 714.17 729.97 714.93 730.75 715.7 731.62 716.38 732.49 717.06 733.45 717.65 734.41 718.24 735.47 718.75 736.53 719.26 737.68 719.67 738.84 720.09 740.08 720.39 741.32 720.68 742.66 720.87 743.99 721.04 745.41 721.1 746.83 721.16 748.34 721.11 749.84 721.05 751.44 720.87 753.03 720.69 754.71 720.39 756.4 720.1 758.18 719.68 759.96 719.26 761.84 718.72 763.73 718.17 765.61 717.52 767.49 716.86 769.37 716.09 771.24 715.33 773.1 714.46 774.96 713.59 776.81 712.61 778.66 711.64 780.5 710.56 782.35 709.49 784.19 708.32 786.04 707.14 787.89 705.87 789.74 704.6 791.6 703.24 793.46 701.88 795.27 700.49 797.08 699.11 798.83 697.7 800.59 696.3 802.29 694.87 804 693.45 805.65 692.01 807.31 690.58 808.92 689.12 810.53 687.68 812.09 686.22 812.87 685.49 813.64 684.76 814.41 684.03 815.17 683.3 815.93 682.57 816.67 681.84 817.42 681.1 818.16 680.37 818.16 680.37 818.16 680.37 818.9 679.65 819.62 678.95 820.36 678.24 821.08 677.54 821.8 676.84 822.51 676.15 823.23 675.45 823.94 674.77 824.65 674.08 825.34 673.4 826.05 672.72 826.74 672.05 828.12 670.71 829.47 669.38 830.82 668.07 832.13 666.77 833.44 665.47 834.71 664.19 835.99 662.91 837.21 661.65 838.45 660.39 839.63 659.15 840.82 657.9 841.95 656.67 843.09 655.44 844.18 654.22 845.27 653 846.3 651.79 847.33 650.58 848.31 649.38 849.29 648.18 850.21 646.98 851.13 645.78 851.98 644.59 852.84 643.39 853.64 642.2 854.43 641.01 855.16 639.82 855.16 639.82 855.16 639.82 855.85 638.68 856.55 637.54 857.23 636.39 857.92 635.25 858.6 634.1 859.28 632.95 859.96 631.8 860.63 630.65 861.3 629.49 861.96 628.33 862.62 627.17 863.28 626.01 863.93 624.85 864.58 623.68 865.23 622.51 865.87 621.34 866.51 620.16 867.14 618.99 867.77 617.81 868.39 616.63 869.01 615.44 869.63 614.26 870.24 613.07 870.85 611.87 871.45 610.68 872.04 609.48 872.63 608.28 873.22 607.08 873.8 605.87 874.38 604.67 874.95 603.46 875.52 602.24 874.15 601.79 872.75 601.36 871.34 600.94 869.9 600.55 868.45 600.16 866.97 599.8 865.49 599.45 863.97 599.13 862.45 598.8 860.89 598.51 859.33 598.23 857.74 597.97 856.15 597.72 854.52 597.5 852.9 597.28 851.24 597.1 849.58 596.91 847.89 596.77 846.2 596.62 844.48 596.51 842.76 596.4 841.01 596.32 839.26 596.25 837.49 596.21 835.71 596.17 833.9 596.17 832.1 596.17 830.26 596.2 828.43 596.24 826.57 596.31 824.71 596.38 822.83 596.5 820.95 596.61 819.1 596.74 817.26 596.87 815.44 597.03 813.64 597.19 811.86 597.36 810.09 597.54 808.36 597.74 806.62 597.94 804.93 598.17 803.23 598.39 801.57 598.64 799.91 598.88 798.29 599.15 796.67 599.42 795.09 599.71 793.51 600.01 791.96 600.32 790.42 600.64 788.92 600.97 787.41 601.31 785.94 601.67 784.48 602.03 783.05 602.42 781.62 602.8 780.23 603.21 778.85 603.62 777.5 604.05 776.15 604.49 774.84 604.94 773.53 605.4 772.25 605.88 770.98 606.36 769.75 606.85 768.51 607.34 767.32 607.85 764.93 608.87 762.69 609.95 760.45 611.03 758.36 612.17 756.27 613.31 754.33 614.5 752.39 615.7 750.59 616.96 748.8 618.22 747.15 619.53 745.51 620.85 744 622.22 742.5 623.59 741.14 625.02 741.14 625.02 741.14 625.02 739.86 626.36 738.65 627.7 737.46 629.04 736.33 630.39 735.21 631.74 734.17 633.1 733.13 634.45 732.17 635.82 731.21 637.18 730.32 638.55 729.44 639.93 728.62 641.3 727.82 642.68 727.08 644.06 726.35 645.44 725.68 646.83 725.02 648.22 724.43 649.61 723.85 651 723.33 652.4 722.81 653.8 722.36 655.2 721.91 656.6 721.53 658 721.15 659.41 720.84 660.81 720.52 662.22 720.27 663.63 720.02 665.04 719.84 666.45 719.65 667.86 719.53 669.27 719.53 669.27 719.53 669.27 719.41 670.63 719.33 671.97 719.26 673.31 719.22 674.62 719.19 675.94 719.19 677.24 719.2 678.54 719.24 679.82 719.29 681.1 719.37 682.36 719.45 683.61 719.57 684.85 719.68 686.09 719.83 687.31 719.98 688.53 720.17 689.72 720.35 690.92 720.57 692.09 720.79 693.27 721.04 694.42 721.28 695.58 721.57 696.71 721.85 697.84 722.16 698.95 722.47 700.06 722.82 701.15 723.16 702.24 723.54 703.3 723.91 704.37 724.32 705.41 724.72 706.45 725.16 707.48 725.16 707.48 725.16 707.48 725.16 707.48 725.16 707.48" class="warpedPath"></path></svg>