<svg id="svg_container" xmlns="http://www.w3.org/2000/svg" style="visibility: visible" class="edit-svg" viewBox="1.8600001335144043 -4.054444372653961 698.0800170898438 703.4644165039062" width="703.0800170898438px" height="708.4644165039062px">
        <defs>
            <linearGradient id="sampleGradient" gradientTransform="rotate(1)" x1="0%" y1="50%" x2="100%" y2="50%" gradientUnits="userSpaceOnUse">
                <stop offset="0%" id="first_color" stop-color="#6b6fff"></stop>
                <stop offset="100%" id="second_color" stop-color="#bc91c1"></stop>
            </linearGradient>
        </defs>
    <path fill="rgba(2,5,206,0.58)" d="M167.1 326.75Q167.1 326.75 167.1 326.75 167.1 328.17 167.16 329.58 167.06 330.97 166.87 332.35 166.68 333.72 166.4 335.06 166.11 336.41 165.72 337.73 165.34 339.05 164.85 340.34 164.36 341.63 163.77 342.9 163.17 344.17 162.47 345.41 161.77 346.65 160.96 347.87 160.14 349.09 159.25 350.28 158.35 351.47 157.39 352.63 156.41 353.79 155.37 354.92 154.31 356.06 153.19 357.16 152.05 358.27 150.84 359.34 149.61 360.42 148.32 361.47 147.01 362.52 145.64 363.54 144.25 364.57 142.8 365.56 141.33 366.56 139.82 367.52 138.31 368.49 136.75 369.42 135.19 370.35 133.59 371.25 131.98 372.15 130.34 373.01 128.7 373.87 127.01 374.69 125.33 375.52 123.61 376.3 122.75 376.69 121.88 377.07 121.01 377.45 120.13 377.82 119.25 378.19 118.36 378.55 117.47 378.91 116.57 379.26 115.67 379.61 114.77 379.95 113.88 380.29 112.98 380.62 112.09 380.96 111.2 381.28 110.3 381.6 109.41 381.92 108.52 382.23 107.64 382.54 106.75 382.85 105.86 383.14 104.98 383.44 104.1 383.73 103.21 384.02 102.33 384.3 101.45 384.58 100.57 384.86 99.69 385.14 98.81 385.41 97.06 385.95 95.32 386.46 93.57 386.97 91.84 387.45 90.1 387.91 88.38 388.35 86.65 388.79 84.95 389.21 83.25 389.64 81.58 390.05 79.9 390.45 78.26 390.82 76.62 391.18 75.01 391.49 73.39 391.8 71.81 392.05 70.23 392.28 68.68 392.47 67.12 392.65 65.6 392.8 64.08 392.94 62.58 393.05 61.09 393.16 59.67 393.25 58.26 393.33 56.92 393.39 55.59 393.44 54.34 393.47 53.09 393.5 51.92 393.5 50.75 393.5 49.66 393.48 48.57 393.45 47.56 393.4 46.56 393.28 45.64 393.13 44.71 392.98 43.86 392.87 43.86 392.87 43.86 392.87 42.25 392.69 40.57 392.61 38.91 392.33 37.21 391.94 36.35 391.73 35.49 391.5 34.63 391.27 33.76 391.01 32.88 390.75 31.99 390.46 31.11 390.17 30.21 389.86 29.31 389.54 28.45 389.17 27.6 388.79 26.78 388.36 25.15 387.49 23.69 386.4 22.21 385.31 20.9 384 19.57 382.68 18.39 381.13 18.39 381.13 18.39 381.13 17.7 380.35 17.06 379.13 16.41 377.91 15.79 376.25 15.15 374.59 14.54 372.48 13.92 370.37 13.32 367.82 13.02 366.53 12.72 365.19 12.42 363.85 12.12 362.44 11.82 361.04 11.52 359.57 11.22 358.11 10.93 356.58 10.64 355.05 10.36 353.46 10.08 351.87 9.81 350.22 9.55 348.57 9.29 346.86 9.04 345.14 8.8 343.37 8.57 341.6 8.35 339.79 8.15 337.99 7.96 336.15 7.78 334.31 7.62 332.44 7.47 330.57 7.34 328.67 7.22 326.76 7.12 324.83 7.03 322.89 6.97 320.93 6.91 318.96 6.88 316.96 6.86 314.96 6.86 312.93 6.88 310.9 6.91 308.88 6.96 306.87 7.03 304.87 7.1 302.87 7.2 300.88 7.31 298.9 7.44 296.93 7.58 294.96 7.74 293 7.91 291.05 8.1 289.11 8.3 287.17 8.51 285.25 8.74 283.32 8.99 281.42 9.25 279.51 9.52 277.65 9.79 275.78 10.08 273.96 10.38 272.14 10.68 270.36 10.99 268.58 11.31 266.84 11.64 265.1 11.97 263.4 12.32 261.7 12.67 260.05 13.02 258.39 13.39 256.78 13.76 255.16 14.13 253.59 14.51 252.02 14.88 250.53 15.26 249.05 15.62 247.66 16 246.27 16.36 244.97 16.73 243.67 17.07 242.46 17.79 240.05 18.45 237.99 19.11 235.93 19.71 234.22 19.71 234.22 19.71 234.22 20.2 232.8 20.74 231.31 21.29 229.83 21.89 228.27 22.48 226.72 23.12 225.09 23.78 223.47 24.47 221.78 25.17 220.1 25.93 218.34 26.68 216.59 27.5 214.77 28.32 212.96 29.18 211.08 30.06 209.2 30.99 207.26 31.93 205.33 32.91 203.36 33.9 201.4 34.92 199.42 35.96 197.44 37.03 195.44 38.12 193.44 39.24 191.42 40.37 189.4 41.55 187.36 42.73 185.33 43.96 183.27 45.19 181.22 46.47 179.15 47.76 177.09 49.09 175 50.43 172.92 51.81 170.84 53.19 168.78 54.61 166.71 55.32 165.68 56.04 164.65 56.76 163.62 57.49 162.59 58.23 161.57 58.97 160.54 59.71 159.52 60.46 158.5 61.21 157.48 61.98 156.46 62.74 155.45 63.51 154.43 64.29 153.42 65.07 152.41 65.85 151.4 66.64 150.39 67.44 149.38 68.24 148.38 69.05 147.37 69.86 146.37 70.67 145.37 71.49 144.37 72.32 143.38 73.15 142.38 73.99 141.39 74.82 140.41 75.66 139.43 76.49 138.46 77.33 137.49 78.17 136.53 79.01 135.57 79.85 134.63 81.53 132.74 83.22 130.9 84.91 129.06 86.6 127.26 88.29 125.47 89.98 123.72 91.67 121.98 93.36 120.27 95.05 118.57 96.74 116.9 98.42 115.25 100.1 113.63 101.78 112.01 103.44 110.45 105.11 108.89 106.74 107.39 108.38 105.89 110 104.44 111.61 102.99 113.19 101.59 114.77 100.19 116.31 98.84 117.85 97.49 119.36 96.18 120.85 94.88 122.31 93.61 123.76 92.34 125.16 91.11 126.55 89.88 127.86 88.71 129.15 87.53 130.37 86.42 131.56 85.3 132.67 84.24 133.77 83.17 134.78 82.16 135.77 81.15 136.68 80.19 137.57 79.22 138.39 78.32 139.18 77.4 139.9 76.55 140.61 75.69 141.24 74.89 141.24 74.89 141.24 74.89 142.23 73.61 143.09 72.46 143.91 71.29 144.62 70.27 145.31 69.23 145.89 68.34 146.47 67.44 146.95 66.69 147.42 65.93 147.81 65.34 148.2 64.74 148.51 64.29 148.82 63.85 149.06 63.57 149.3 63.29 149.47 63.17 149.47 63.17 149.47 63.17 149.71 63.01 149.79 63.19 149.87 63.38 149.78 63.92 149.7 64.45 149.46 65.34 149.23 66.23 148.83 67.48 148.43 68.72 147.93 70.18 147.44 71.64 146.84 73.32 146.54 74.15 146.21 75.04 145.89 75.94 145.54 76.88 145.18 77.82 144.81 78.82 144.43 79.82 144.02 80.87 143.62 81.92 143.2 83 142.78 84.09 142.34 85.21 141.91 86.33 141.45 87.48 141 88.63 140.53 89.82 140.06 91 139.57 92.22 139.08 93.45 138.58 94.7 138.07 95.95 137.55 97.24 137.03 98.53 136.49 99.85 135.96 101.18 135.42 102.5 134.88 103.82 134.34 105.14 133.81 106.47 133.27 107.79 132.74 109.11 132.2 110.43 131.67 111.75 131.13 113.07 130.6 114.4 130.06 115.72 129.53 117.04 128.99 118.36 128.46 119.68 127.93 121 127.39 122.32 126.87 123.62 126.35 124.91 125.83 126.19 125.32 127.46 124.82 128.71 124.31 129.97 123.82 131.19 123.33 132.42 122.84 133.63 122.36 134.83 121.88 136.01 121.41 137.19 120.94 138.35 120.47 139.5 120.01 140.64 119.55 141.77 119.12 142.84 118.68 143.92 118.28 144.94 117.46 146.98 116.74 148.8 116.03 150.61 115.41 152.2 114.8 153.78 114.27 155.14 114.27 155.14 114.27 155.14 113.49 157.17 112.72 159.21 111.95 161.25 111.18 163.28 110.42 165.33 109.66 167.37 108.91 169.42 108.16 171.47 107.42 173.52 106.68 175.57 105.94 177.63 105.21 179.69 104.49 181.75 103.77 183.81 103.05 185.87 102.34 187.94 101.63 190.01 100.93 192.08 100.23 194.15 99.54 196.22 98.85 198.3 98.17 200.38 97.49 202.46 96.81 204.54 96.14 206.62 95.48 208.71 94.82 210.79 94.16 212.88 93.51 214.97 92.86 217.06 92.21 219.16 91.57 221.25 90.94 223.35 90.32 225.46 89.7 227.57 89.09 229.68 88.49 231.8 87.89 233.92 87.31 236.05 86.73 238.18 86.16 240.32 85.61 242.46 85.05 244.61 84.51 246.76 83.98 248.91 83.46 251.07 82.94 253.23 82.43 255.4 81.93 257.58 81.45 259.75 80.96 261.94 80.49 264.12 80.03 266.31 79.58 268.51 79.13 270.71 78.7 272.91 78.27 275.12 77.86 277.33 77.45 279.54 77.05 281.76 76.66 283.99 76.28 286.22 75.91 288.45 75.54 290.68 75.54 290.68 75.54 290.68 75.19 292.92 74.84 295.17 74.5 297.41 74.16 299.66 73.83 301.91 73.51 304.16 73.19 306.41 72.88 308.67 73.92 308.37 74.97 308.08 76.01 307.78 77.07 307.49 78.12 307.2 79.18 306.91 80.24 306.62 81.31 306.34 82.37 306.05 83.44 305.77 84.51 305.48 85.58 305.2 86.65 304.91 87.73 304.63 88.81 304.35 89.89 304.08 90.97 303.8 92.06 303.52 93.15 303.24 94.24 302.97 95.33 302.69 96.42 302.42 97.52 302.15 98.62 301.88 99.71 301.6 100.82 301.33 101.92 301.06 103.02 300.8 104.13 300.53 105.24 300.26 106.35 300 107.46 299.73 108.57 299.46 109.67 299.22 110.76 298.97 111.85 298.75 112.93 298.52 113.99 298.32 115.06 298.11 116.11 297.92 117.16 297.74 118.2 297.57 119.24 297.41 120.26 297.26 121.29 297.12 122.3 296.99 123.31 296.86 124.3 296.76 125.3 296.65 126.28 296.57 127.27 296.48 128.24 296.42 129.21 296.35 130.17 296.31 131.12 296.27 132.07 296.24 133.01 296.22 133.95 296.22 134.88 296.21 135.81 296.23 136.73 296.25 137.64 296.29 138.55 296.32 139.45 296.38 139.45 296.38 139.45 296.38 140.73 296.47 142 296.61 143.28 296.75 144.55 296.94 145.82 297.14 147.1 297.39 148.37 297.64 149.65 297.95 150.92 298.25 152.12 298.68 153.31 299.11 154.42 299.66 155.54 300.21 156.57 300.88 157.61 301.56 158.57 302.35 159.53 303.15 160.4 304.11 161.27 305.07 162.05 306.2 162.84 307.33 163.53 308.62 164.22 309.91 164.82 311.36 165.43 312.82 165.88 314.51 166.33 316.2 166.64 318.13 166.94 320.05 167.1 322.21 167.1 324.36 167.1 326.75 167.1 326.75 167.1 326.75M257.08 395.77Q257.08 395.77 257.08 395.77 255.82 395.87 254.59 395.98 253.35 396.1 252.14 396.05 250.92 395.99 249.72 395.87 248.52 395.77 247.35 395.65 246.18 395.52 245.02 395.34 243.87 395.16 242.73 394.91 241.6 394.65 240.48 394.31 239.36 393.96 238.27 393.56 237.17 393.16 236.09 392.7 235.02 392.25 233.96 391.75 232.9 391.25 231.87 390.69 230.83 390.13 229.81 389.5 228.79 388.88 227.8 388.19 226.8 387.5 225.82 386.75 224.84 386 223.88 385.2 222.92 384.39 221.98 383.53 221.04 382.67 220.12 381.76 219.2 380.86 218.3 379.92 217.4 378.98 216.51 377.99 215.63 377.01 214.76 375.99 213.9 374.98 213.05 373.92 212.21 372.87 211.38 371.78 210.55 370.69 209.74 369.56 208.94 368.44 208.15 367.28 207.36 366.12 206.58 364.93 205.81 363.74 205.06 362.52 204.31 361.29 203.57 360.04 202.84 358.78 202.12 357.49 201.41 356.2 200.71 354.88 200.02 353.55 199.34 352.2 198.66 350.84 198 349.45 197.34 348.06 196.7 346.64 196.06 345.21 195.44 343.76 194.82 342.31 194.22 340.84 193.62 339.36 193.03 337.85 192.45 336.35 191.89 334.82 191.33 333.29 190.78 331.73 190.24 330.17 189.72 328.58 189.2 326.99 188.7 325.37 188.2 323.76 187.72 322.11 187.25 320.46 186.8 318.79 186.35 317.11 185.92 315.41 185.49 313.7 185.08 311.97 184.67 310.23 184.29 308.47 183.9 306.7 183.54 304.91 183.18 303.11 182.83 301.28 182.49 299.46 182.17 297.6 181.84 295.74 181.54 293.85 181.24 291.97 180.96 290.06 180.67 288.16 180.41 286.24 180.14 284.33 179.9 282.39 179.65 280.46 179.43 278.52 179.2 276.57 178.99 274.61 178.79 272.65 178.6 270.67 178.41 268.7 178.24 266.71 178.07 264.72 177.92 262.71 177.77 260.7 177.64 258.68 177.51 256.66 177.4 254.63 177.28 252.59 177.19 250.54 177.1 248.49 177.02 246.42 176.95 244.35 176.89 242.27 176.83 240.19 176.8 238.09 176.76 235.99 176.74 233.88 176.72 231.76 176.72 229.63 176.72 229.63 176.72 229.63 176.72 227.64 176.74 225.65 176.76 223.65 176.8 221.64 176.84 219.64 176.9 217.63 176.96 215.61 177.04 213.59 177.12 211.57 177.22 209.55 177.32 207.52 177.44 205.48 177.56 203.44 177.7 201.4 177.84 199.36 178 197.3 178.16 195.25 178.33 193.19 178.51 191.12 178.71 189.05 178.91 186.98 179.13 184.9 179.35 182.82 179.59 180.73 179.82 178.65 180.08 176.55 180.34 174.45 180.62 172.34 180.9 170.23 181.19 168.11 181.49 166 181.81 163.87 182.12 161.74 182.46 159.63 182.8 157.52 183.15 155.42 183.51 153.33 183.89 151.25 184.27 149.18 184.67 147.12 185.06 145.06 185.48 143.01 185.9 140.97 186.34 138.94 186.78 136.91 187.24 134.9 187.7 132.89 188.18 130.89 188.66 128.9 189.16 126.91 189.66 124.93 190.18 122.96 190.7 120.99 191.24 119.04 191.78 117.08 192.34 115.14 192.9 113.19 193.48 111.26 194.05 109.33 194.65 107.41 195.25 105.48 195.86 103.57 196.48 101.65 197.11 99.75 197.75 97.84 198.4 95.96 199.05 94.07 199.73 92.21 200.4 90.34 201.09 88.49 201.78 86.64 202.49 84.81 203.19 82.98 203.92 81.17 204.65 79.35 205.39 77.55 206.14 75.75 206.9 73.98 207.67 72.19 208.45 70.43 209.23 68.66 210.03 66.92 210.83 65.17 211.65 63.45 212.47 61.72 213.32 60.02 214.16 58.31 215.02 56.63 215.88 54.95 216.76 53.29 217.64 51.63 218.55 50 219.45 48.37 220.38 46.77 221.31 45.17 222.26 43.6 223.21 42.03 224.19 40.52 225.16 39.01 226.17 37.57 227.18 36.13 228.21 34.76 229.25 33.39 230.31 32.09 231.37 30.79 232.47 29.56 233.56 28.33 234.68 27.18 235.81 26.03 236.96 24.94 238.11 23.87 239.3 22.86 240.48 21.86 241.69 20.93 242.91 20 244.15 19.15 245.4 18.31 246.67 17.53 247.94 16.76 249.25 16.06 250.55 15.37 251.88 14.75 253.22 14.14 254.58 13.6 255.95 13.07 257.34 12.6 258.73 12.15 260.16 11.78 260.16 11.78 260.16 11.78 261.54 11.41 262.9 11.13 264.26 10.86 265.59 10.67 266.92 10.49 268.23 10.39 269.54 10.3 270.83 10.29 272.11 10.29 273.37 10.36 274.64 10.45 275.87 10.62 277.11 10.8 278.32 11.05 279.53 11.32 280.72 11.66 281.9 12.01 283.06 12.45 284.22 12.88 285.36 13.4 286.49 13.93 287.6 14.54 288.71 15.15 289.79 15.84 290.87 16.53 291.93 17.31 292.98 18.09 294.01 18.95 295.04 19.81 296.04 20.75 297.04 21.69 298.01 22.71 298.98 23.73 299.93 24.79 300.88 25.86 301.8 26.97 302.72 28.08 303.62 29.24 304.52 30.39 305.39 31.59 306.26 32.79 307.11 34.03 307.95 35.26 308.77 36.54 309.59 37.82 310.39 39.14 311.18 40.45 311.95 41.81 312.72 43.16 313.46 44.56 314.2 45.95 314.92 47.38 315.63 48.81 316.32 50.28 317.01 51.75 317.67 53.26 318.34 54.76 318.98 56.31 319.61 57.86 320.23 59.44 320.84 61.03 321.43 62.66 322.01 64.28 322.58 65.95 323.14 67.61 323.68 69.3 324.22 71 324.74 72.71 325.26 74.43 325.77 76.18 326.27 77.92 326.74 79.69 327.22 81.47 327.68 83.27 328.14 85.07 328.58 86.89 329.02 88.72 329.44 90.58 329.86 92.43 330.26 94.32 330.65 96.2 331.03 98.11 331.41 100.03 331.77 101.97 332.13 103.91 332.47 105.88 332.8 107.85 333.12 109.85 333.44 111.85 333.74 113.88 334.04 115.9 334.32 117.96 334.6 120.02 334.86 122.11 335.11 124.19 335.35 126.31 335.59 128.43 335.82 130.55 336.04 132.67 336.25 134.79 336.46 136.91 336.65 139.04 336.85 141.16 337.03 143.29 337.21 145.42 337.37 147.55 337.53 149.68 337.68 151.81 337.83 153.94 337.97 156.08 338.1 158.21 338.22 160.35 338.34 162.49 338.44 164.63 338.55 166.77 338.64 168.91 338.73 171.06 338.8 173.2 338.87 175.35 338.93 177.5 338.99 179.65 339.04 181.8 339.08 183.95 339.06 186.11 339.03 188.27 339.02 190.44 339 192.6 339 194.76 339 194.76 339 194.76 339 197.16 339.02 199.55 339.04 201.93 339.08 204.3 339.05 206.68 338.99 209.05 338.93 211.41 338.85 213.77 338.77 216.12 338.67 218.46 338.57 220.8 338.45 223.13 338.33 225.46 338.19 227.78 338.05 230.09 337.89 232.39 337.73 234.69 337.56 236.98 337.38 239.27 337.18 241.55 336.98 243.82 336.76 246.08 336.54 248.34 336.3 250.59 336.06 252.84 335.8 255.08 335.55 257.31 335.27 259.53 334.99 261.76 334.69 263.96 334.39 266.17 334.08 268.37 333.76 270.56 333.42 272.73 333.08 274.9 332.73 277.03 332.37 279.17 331.99 281.28 331.61 283.39 331.21 285.47 330.81 287.55 330.39 289.6 329.98 291.65 329.54 293.67 329.1 295.7 328.64 297.69 328.18 299.68 327.7 301.65 327.23 303.61 326.73 305.55 326.23 307.49 325.71 309.39 325.2 311.3 324.66 313.18 324.12 315.06 323.57 316.91 323.01 318.76 322.44 320.58 321.86 322.4 321.27 324.19 320.67 325.99 320.06 327.75 319.45 329.51 318.81 331.25 318.18 332.99 317.53 334.68 316.88 336.38 316.2 338.04 315.53 339.69 314.84 341.31 314.15 342.93 313.45 344.51 312.74 346.09 312.01 347.63 311.28 349.17 310.53 350.67 309.78 352.17 309.01 353.62 308.25 355.08 307.46 356.5 306.67 357.92 305.86 359.3 305.05 360.67 304.22 362.01 303.39 363.35 302.54 364.64 301.68 365.94 300.81 367.19 299.94 368.44 299.04 369.65 298.15 370.86 297.23 372.02 296.31 373.18 295.38 374.3 294.44 375.42 293.48 376.49 292.52 377.56 291.53 378.56 290.55 379.56 289.54 380.5 288.54 381.44 287.51 382.31 286.48 383.18 285.43 383.99 284.37 384.81 283.3 385.57 282.23 386.34 281.13 387.06 280.04 387.79 278.93 388.47 277.81 389.16 276.68 389.79 275.54 390.43 274.38 391.01 273.23 391.59 272.05 392.11 270.87 392.64 269.67 393.11 268.46 393.58 267.24 393.99 266.02 394.4 264.77 394.76 263.53 395.11 262.26 395.38 260.99 395.58 259.69 395.63 258.4 395.67 257.08 395.77 257.08 395.77 257.08 395.77M259.01 125.21Q259.01 125.21 259.01 125.21 257.44 125.58 255.99 126.38 254.54 127.19 253.21 128.42 251.87 129.66 250.66 131.32 249.44 132.99 248.34 135.07 247.8 136.12 247.27 137.23 246.75 138.33 246.25 139.51 245.75 140.68 245.27 141.91 244.79 143.15 244.34 144.45 243.88 145.75 243.45 147.11 243.02 148.48 242.62 149.9 242.21 151.33 241.83 152.82 241.44 154.31 241.08 155.87 240.72 157.42 240.39 159.01 240.05 160.6 239.74 162.23 239.43 163.85 239.15 165.52 238.86 167.18 238.6 168.88 238.35 170.58 238.11 172.32 237.88 174.05 237.67 175.83 237.47 177.6 237.29 179.41 237.11 181.22 236.95 183.07 236.79 184.92 236.66 186.76 236.52 188.6 236.41 190.45 236.29 192.29 236.2 194.13 236.1 195.97 236.03 197.81 235.95 199.65 235.9 201.48 235.85 203.32 235.81 205.16 235.78 206.99 235.77 208.83 235.76 210.66 235.76 212.49 235.76 212.49 235.76 212.49 235.77 214.56 235.81 216.63 235.84 218.7 235.9 220.76 235.95 222.82 236.03 224.87 236.11 226.93 236.21 228.98 236.31 231.03 236.44 233.08 236.57 235.13 236.72 237.18 236.86 239.22 237.04 241.26 237.21 243.3 237.41 245.34 237.6 247.38 237.82 249.37 238.04 251.35 238.28 253.28 238.53 255.21 238.79 257.09 239.06 258.96 239.35 260.79 239.64 262.61 239.95 264.38 240.26 266.15 240.6 267.86 240.94 269.58 241.29 271.24 241.65 272.9 242.04 274.51 242.42 276.12 242.82 277.64 243.23 279.17 243.65 280.61 244.08 282.06 244.53 283.42 244.98 284.78 245.45 286.05 245.93 287.33 246.42 288.52 246.92 289.72 247.44 290.82 247.95 291.93 248.5 292.96 249.04 293.99 249.6 294.93 250.17 295.87 250.76 296.69 251.35 297.5 251.97 298.18 253.21 299.55 254.56 300.39 255.9 301.24 257.36 301.56 258.82 301.88 260.38 301.67 260.38 301.67 260.38 301.67 261.29 301.55 262.14 301.27 263 300.99 263.81 300.55 265.43 299.67 266.86 298.15 267.58 297.38 268.25 296.46 268.91 295.53 269.54 294.45 270.16 293.36 270.73 292.12 271.3 290.87 271.83 289.46 272.36 288.05 272.86 286.58 273.35 285.1 273.82 283.56 274.29 282.02 274.74 280.42 275.18 278.81 275.59 277.14 276 275.47 276.39 273.74 276.77 272.01 277.13 270.21 277.49 268.41 277.82 266.54 278.14 264.68 278.44 262.75 278.74 260.82 279.02 258.88 279.29 256.94 279.54 254.99 279.79 253.04 280.01 251.08 280.24 249.11 280.43 247.14 280.63 245.16 280.8 243.17 280.98 241.19 281.12 239.19 281.27 237.19 281.39 235.18 281.51 233.17 281.61 231.15 281.7 229.13 281.78 227.19 281.87 225.26 281.94 223.41 282.01 221.56 282.06 219.79 282.12 218.03 282.17 216.35 282.21 214.67 282.24 213.07 282.27 211.48 282.29 209.97 282.31 208.46 282.32 207.04 282.33 205.62 282.32 204.28 282.32 204.28 282.32 204.28 282.32 202.64 282.29 200.98 282.27 199.31 282.22 197.63 282.18 195.95 282.12 194.25 282.06 192.55 281.98 190.83 281.9 189.11 281.8 187.36 281.71 185.62 281.59 183.86 281.48 182.1 281.34 180.32 281.21 178.54 281.06 176.74 280.9 174.94 280.73 173.18 280.55 171.42 280.35 169.69 280.15 167.97 279.93 166.29 279.7 164.6 279.46 162.96 279.21 161.31 278.94 159.7 278.67 158.1 278.37 156.53 278.08 154.96 277.76 153.43 277.45 151.9 277.11 150.41 276.77 148.92 276.4 147.5 276.03 146.08 275.64 144.73 275.25 143.38 274.83 142.1 274.41 140.82 273.97 139.61 273.53 138.4 273.06 137.26 272.59 136.12 272.09 135.06 271.6 133.99 271.08 132.99 270.56 132 270.01 131.07 268.91 129.22 267.68 127.93 266.45 126.64 265.07 125.91 263.7 125.17 262.18 125 260.67 124.83 259.01 125.21 259.01 125.21 259.01 125.21M508.93 75.71Q508.93 75.71 508.93 75.71 508.93 77.55 508.97 79.45 508.98 81.34 508.89 83.27 508.81 85.2 508.67 87.17 508.54 89.15 508.37 91.18 508.28 92.19 508.18 93.22 508.08 94.24 507.97 95.28 507.86 96.32 507.74 97.37 507.62 98.42 507.49 99.49 507.35 100.55 507.21 101.63 507.07 102.7 506.91 103.79 506.76 104.88 506.59 105.98 506.43 107.09 506.25 108.2 506.08 109.32 505.9 110.44 505.71 111.56 505.53 112.68 505.34 113.8 505.15 114.92 504.95 116.05 504.76 117.17 504.56 118.3 504.35 119.43 504.15 120.56 503.94 121.69 503.73 122.82 503.52 123.96 503.3 125.1 503.08 126.23 502.86 127.37 502.63 128.52 502.41 129.66 502.17 130.8 501.94 131.95 501.7 133.1 501.47 134.24 501.22 135.4 500.98 136.55 500.73 137.7 500.48 138.86 500.23 140.02 499.97 141.18 499.71 142.34 499.45 143.5 499.19 144.67 498.92 145.83 498.65 146.99 498.39 148.16 498.12 149.32 497.84 150.48 497.57 151.64 497.3 152.79 497.02 153.95 496.75 155.1 496.47 156.26 496.19 157.41 495.91 158.56 495.63 159.71 495.34 160.86 495.06 162.01 494.77 163.15 494.49 164.3 494.2 165.44 493.91 166.58 493.62 167.73 493.33 168.87 493.04 170 492.74 171.14 492.45 172.28 492.15 173.42 491.85 174.55 491.56 175.68 491.26 176.81 490.96 177.95 490.65 179.08 490.35 180.21 490.04 181.33 489.74 182.46 489.44 183.58 489.14 184.69 488.84 185.8 488.54 186.9 488.25 187.99 487.95 189.09 487.67 190.17 487.38 191.25 487.09 192.31 486.81 193.38 486.53 194.44 486.25 195.49 485.97 196.54 485.7 197.58 485.43 198.61 485.16 199.65 484.89 200.66 484.62 201.68 484.36 202.69 483.84 204.71 483.33 206.67 482.82 208.63 482.33 210.55 481.84 212.46 481.37 214.32 481.37 214.32 481.37 214.32 481.06 215.49 480.73 216.74 480.41 217.98 480.08 219.29 479.75 220.61 479.41 222 479.07 223.39 478.73 224.85 478.39 226.31 478.03 227.85 477.68 229.39 477.32 230.99 476.97 232.61 476.6 234.29 476.23 235.98 475.86 237.73 475.49 239.49 475.1 241.28 474.72 243.07 474.31 244.89 473.91 246.71 473.5 248.55 473.08 250.4 472.65 252.28 472.22 254.16 471.78 256.07 471.34 257.98 470.88 259.92 470.42 261.86 469.95 263.84 469.48 265.81 468.99 267.82 468.5 269.83 468.01 271.85 467.51 273.87 467 275.9 466.49 277.93 465.97 279.97 465.45 282.01 464.91 284.07 464.38 286.12 463.84 288.18 463.29 290.25 462.74 292.33 462.18 294.41 461.62 296.5 461.05 298.59 460.47 300.69 459.89 302.8 459.3 304.87 458.7 306.94 458.09 308.97 457.48 311 456.86 312.99 456.23 314.99 455.59 316.94 454.95 318.9 454.29 320.81 453.63 322.73 452.96 324.61 452.28 326.49 451.59 328.32 450.9 330.16 450.19 331.96 449.48 333.76 448.75 335.49 448.02 337.22 447.27 338.88 446.52 340.55 445.75 342.15 444.98 343.75 444.19 345.28 443.39 346.82 442.58 348.28 441.77 349.74 440.94 351.13 440.11 352.52 439.25 353.84 438.4 355.16 437.52 356.4 436.65 357.64 435.76 358.77 434.86 359.9 433.96 360.91 433.05 361.94 432.13 362.85 431.2 363.76 430.26 364.54 429.31 365.29 428.33 365.88 427.35 366.44 426.35 366.87 425.34 367.3 424.32 367.61 423.3 367.69 422.28 367.95 422.28 367.95 422.28 367.95 421.43 368.21 420.59 368.54 419.75 368.66 418.92 368.64 418.08 368.61 417.26 368.43 416.42 368.23 415.58 367.83 414.74 367.41 413.9 366.84 413.07 366.28 412.24 365.58 411.42 364.9 410.6 364.08 409.79 363.27 408.99 362.33 408.19 361.38 407.4 360.35 406.61 359.32 405.84 358.2 405.06 357.08 404.29 355.88 403.53 354.67 402.77 353.38 402.02 352.08 401.28 350.7 400.54 349.32 399.81 347.85 399.09 346.38 398.37 344.82 397.66 343.26 396.96 341.61 396.26 339.96 395.57 338.25 394.89 336.54 394.22 334.77 393.54 333 392.89 331.16 392.23 329.33 391.58 327.43 390.94 325.53 390.31 323.57 389.68 321.61 389.07 319.58 388.45 317.56 387.85 315.47 387.25 313.38 386.66 311.23 386.07 309.08 385.5 306.94 384.93 304.78 384.38 302.64 383.82 300.49 383.28 298.35 382.74 296.21 382.21 294.07 381.69 291.93 381.18 289.79 380.66 287.65 380.16 285.52 379.66 283.39 379.18 281.26 378.69 279.14 378.22 277.02 377.74 274.89 377.29 272.8 376.83 270.71 376.39 268.66 375.95 266.6 375.53 264.58 375.11 262.55 374.7 260.56 374.3 258.57 373.91 256.61 373.53 254.66 373.16 252.73 372.8 250.81 372.45 248.92 372.1 247.04 371.77 245.18 371.44 243.33 371.13 241.58 370.82 239.84 370.54 238.2 370.25 236.56 369.99 235.02 369.72 233.49 369.48 232.06 369.23 230.63 369.01 229.31 368.79 227.99 368.59 226.78 368.19 224.36 367.88 222.36 367.88 222.36 367.88 222.36 367.48 219.93 367.1 217.5 366.71 215.06 366.32 212.62 365.93 210.18 365.55 207.74 365.16 205.29 364.78 202.83 364.39 200.38 364.01 197.92 363.63 195.46 363.25 193 362.87 190.53 362.49 188.06 362.12 185.59 361.74 183.11 361.37 180.63 360.99 178.15 360.62 175.66 360.25 173.18 359.88 170.69 359.51 168.19 359.14 165.7 358.78 163.2 358.41 160.7 358.05 158.19 357.68 155.69 357.32 153.18 356.96 150.67 356.6 148.15 356.24 145.63 355.88 143.11 355.53 140.59 355.19 138.07 354.86 135.55 354.55 133.02 354.23 130.49 353.94 127.97 353.65 125.44 353.39 122.91 353.12 120.38 352.87 117.85 352.63 115.31 352.4 112.78 352.18 110.25 351.98 107.72 351.78 105.18 351.6 102.65 351.42 100.11 351.26 97.57 351.11 95.04 350.97 92.5 350.84 89.97 350.72 87.43 350.61 84.89 350.52 82.35 350.43 79.82 350.37 77.28 350.3 74.74 350.25 72.2 350.21 69.66 350.19 67.13 350.16 64.59 350.16 62.05 350.16 62.05 350.16 62.05 350.16 59.51 350.2 56.93 350.22 55.63 350.25 54.33 350.28 53.03 350.32 51.71 350.36 50.4 350.41 49.07 350.46 47.74 350.52 46.4 350.58 45.07 350.65 43.72 350.72 42.37 350.8 41 350.88 39.64 350.99 38.31 351.1 36.98 351.24 35.68 351.38 34.37 351.55 33.1 351.72 31.82 351.92 30.58 352.32 28.08 352.85 25.7 353.37 23.32 354.02 21.05 354.67 18.78 355.45 16.72 356.24 14.66 357.16 12.8 358.09 10.95 359.15 9.29 360.22 7.64 361.42 6.2 362.62 4.77 364.06 3.72 365.5 2.67 367.17 2.01 368.01 1.69 368.9 1.46 369.79 1.23 370.74 1.1 371.69 0.97 372.7 0.95 373.71 0.93 374.77 1 374.77 1 374.77 1 375.68 1.06 376.56 1.32 377.44 1.58 378.3 2.04 379.16 2.5 380 3.16 380.83 3.82 381.65 4.67 382.47 5.53 383.26 6.58 384.06 7.64 384.83 8.9 385.6 10.16 386.35 11.61 387.1 13.07 387.83 14.73 388.56 16.38 389.27 18.16 389.98 19.93 390.67 21.82 391.36 23.71 392.03 25.72 392.7 27.72 393.35 29.84 394.01 31.96 394.64 34.18 395.27 36.41 395.88 38.75 396.49 41.08 397.08 43.52 397.38 44.74 397.67 45.99 397.96 47.24 398.25 48.51 398.54 49.79 398.82 51.08 399.11 52.37 399.39 53.67 399.67 54.98 399.94 56.3 400.22 57.62 400.5 58.95 400.77 60.28 401.04 61.63 401.31 62.98 401.58 64.35 401.85 65.71 402.11 67.09 402.38 68.47 402.64 69.86 402.9 71.25 403.16 72.66 403.42 74.07 403.68 75.49 403.93 76.91 404.18 78.34 404.44 79.78 404.69 81.23 404.94 82.68 405.18 84.14 405.43 85.6 405.67 87.08 405.92 88.56 406.16 90.05 406.4 91.54 406.64 93.04 406.87 94.54 407.11 96.04 407.35 97.54 407.58 99.03 407.82 100.52 408.05 102.01 408.28 103.49 408.51 104.97 408.74 106.45 408.97 107.92 409.2 109.4 409.43 110.86 409.66 112.33 409.89 113.79 410.11 115.25 410.34 116.71 410.56 118.16 410.79 119.61 411.01 121.06 411.23 122.5 411.45 123.94 411.67 125.38 411.89 126.82 412.11 128.25 412.33 129.68 412.55 131.11 412.77 132.53 412.98 133.95 413.2 135.37 413.41 136.79 413.62 138.2 413.83 139.61 414.05 141.02 414.26 142.42 414.47 143.81 414.68 145.19 414.89 146.57 415.1 147.94 415.31 149.31 415.51 150.67 415.72 152.02 415.93 153.36 416.13 154.7 416.34 156.03 416.54 157.36 416.75 158.67 416.95 159.98 417.16 161.29 417.36 162.59 417.56 163.87 417.76 165.16 417.96 166.43 418.17 167.71 418.36 168.97 418.56 170.23 418.76 171.48 418.96 172.72 419.16 173.96 419.36 175.19 419.55 176.42 419.75 177.64 419.94 178.85 420.14 180.05 420.33 181.25 420.72 183.64 421.11 185.91 421.5 188.17 421.89 190.3 422.28 192.44 422.67 194.45 423.07 196.45 423.46 198.34 423.85 200.22 424.24 201.98 424.63 203.73 425.03 205.36 425.42 206.99 425.81 208.5 426.2 210.01 426.6 211.39 426.6 211.39 426.6 211.39 426.84 210.22 427.11 208.92 427.38 207.61 427.67 206.18 427.97 204.74 428.29 203.17 428.62 201.6 428.97 199.9 429.32 198.2 429.7 196.37 430.08 194.54 430.48 192.58 430.89 190.62 431.33 188.53 431.76 186.44 432.22 184.22 432.69 182 433.17 179.74 433.41 178.6 433.66 177.46 433.9 176.31 434.16 175.16 434.41 174 434.66 172.83 434.92 171.66 435.18 170.48 435.45 169.3 435.71 168.11 435.98 166.92 436.25 165.72 436.52 164.51 436.8 163.3 437.08 162.08 437.36 160.86 437.64 159.63 437.93 158.39 438.22 157.16 438.51 155.91 438.8 154.66 439.1 153.4 439.39 152.14 439.7 150.87 440 149.59 440.31 148.31 440.61 147.03 440.93 145.73 441.24 144.44 441.56 143.14 441.87 141.85 442.19 140.55 442.51 139.25 442.84 137.95 443.16 136.65 443.49 135.35 443.82 134.05 444.15 132.74 444.48 131.44 444.82 130.13 445.16 128.82 445.5 127.51 445.84 126.2 446.18 124.89 446.53 123.58 446.88 122.27 447.22 120.95 447.58 119.64 447.93 118.32 448.29 117 448.64 115.69 449 114.37 449.36 113.05 449.73 111.72 450.09 110.4 450.46 109.08 450.83 107.75 451.2 106.43 451.58 105.1 451.95 103.77 452.33 102.44 452.71 101.13 453.09 99.82 453.47 98.52 453.85 97.23 454.24 95.96 454.62 94.68 455.01 93.42 455.4 92.16 455.79 90.93 456.18 89.69 456.57 88.46 456.97 87.24 457.36 86.04 457.76 84.83 458.16 83.65 458.55 82.46 458.96 81.29 459.36 80.13 459.76 78.98 460.16 77.83 460.57 76.69 460.98 75.56 461.38 74.45 461.79 73.33 462.2 72.24 462.61 71.14 463.03 70.06 463.44 68.98 463.86 67.92 464.27 66.86 464.69 65.82 465.11 64.78 465.53 63.76 465.95 62.75 466.37 61.76 466.79 60.77 467.22 59.81 467.64 58.86 468.06 57.92 468.91 56.06 469.77 54.31 470.62 52.56 471.48 50.92 472.34 49.29 473.21 47.76 474.08 46.24 474.95 44.83 475.82 43.42 476.69 42.12 477.57 40.82 478.45 39.64 479.32 38.46 480.2 37.47 481.08 36.48 481.95 35.69 482.83 34.9 483.7 34.3 484.58 33.7 485.45 33.3 486.32 32.9 487.19 32.69 488.06 32.48 488.93 32.47 489.8 32.47 490.66 32.65 491.53 32.84 492.39 33.22 492.39 33.22 492.39 33.22 493.67 33.79 494.82 34.55 495.97 35.31 497 36.27 498.03 37.21 498.95 38.34 499.86 39.46 500.66 40.74 501.47 42 502.18 43.33 502.9 44.64 503.52 46.01 504.16 47.36 504.7 48.78 505.24 50.17 505.69 51.66 506.15 53.12 506.54 54.62 506.93 56.1 507.26 57.61 507.58 59.12 507.84 60.65 508.1 62.19 508.29 63.76 508.49 65.33 508.63 66.86 508.78 68.4 508.87 69.89 508.97 71.39 508.97 72.84 508.93 74.29 508.93 75.71 508.93 75.71 508.93 75.71M680.2 234.01Q680.2 234.01 680.2 234.01 680.79 235.68 681.31 237.34 681.63 239.07 681.7 240.84 681.76 242.62 681.56 244.45 681.34 246.28 680.86 248.16 680.86 248.16 680.86 248.16 680.59 249.06 680.17 250.03 679.74 251.01 679.15 252.07 678.56 253.13 677.8 254.27 677.04 255.41 676.11 256.64 675.17 257.86 674.07 259.16 672.96 260.47 671.68 261.85 670.4 263.23 668.95 264.7 668.23 265.43 667.46 266.18 666.69 266.93 665.88 267.7 665.07 268.47 664.24 269.24 663.41 270.01 662.57 270.78 661.73 271.55 660.87 272.31 660.02 273.08 659.15 273.85 658.28 274.62 657.39 275.38 656.51 276.15 655.61 276.92 654.71 277.68 653.8 278.45 652.88 279.21 651.96 279.98 651.03 280.74 650.09 281.51 649.15 282.27 648.19 283.04 647.24 283.8 646.27 284.56 645.3 285.33 644.32 286.09 643.34 286.86 642.34 287.62 641.35 288.38 640.34 289.15 639.33 289.91 638.31 290.68 637.29 291.44 636.25 292.21 635.21 292.97 634.18 293.73 633.15 294.49 632.12 295.24 631.09 295.99 630.06 296.73 629.04 297.47 628.01 298.2 626.99 298.93 625.97 299.65 624.94 300.37 623.92 301.08 622.9 301.79 621.89 302.49 620.87 303.19 619.85 303.87 618.84 304.56 617.82 305.23 616.81 305.91 615.8 306.58 614.79 307.25 613.79 307.91 612.78 308.58 611.78 309.25 610.78 309.92 609.79 310.58 608.79 311.25 607.8 311.91 606.81 312.57 605.82 313.23 604.83 313.89 603.85 314.55 602.86 315.2 601.91 315.82 600.96 316.45 600.03 317.03 598.18 318.2 596.44 319.22 594.69 320.22 593.06 321.07 591.43 321.88 589.9 322.54 588.38 323.19 586.98 323.74 585.61 324.36 584.36 324.92 583.12 325.49 582 325.91 580.85 326.19 579.86 326.51 579.86 326.51 579.86 326.51 578.46 326.93 576.94 327.42 575.38 327.73 573.68 327.93 571.97 328.1 570.1 328.14 568.24 328.18 566.22 328.1 564.21 328.01 562.19 327.85 561.18 327.78 560.17 327.69 559.16 327.61 558.16 327.51 557.15 327.41 556.14 327.29 555.14 327.18 554.13 327.04 553.12 326.91 552.12 326.76 551.11 326.6 550.11 326.42 549.11 326.25 548.13 326.04 547.15 325.83 546.2 325.6 545.24 325.37 544.31 325.1 543.39 324.84 542.49 324.54 541.59 324.25 540.72 323.93 539.85 323.6 539 323.25 537.33 322.55 535.76 321.74 534.22 320.93 532.9 320.07 531.6 319.21 530.52 318.31 529.46 317.4 528.6 316.47 527.75 315.52 527.1 314.55 527.1 314.55 527.1 314.55 526.74 313.98 526.38 313.07 526.02 312.16 525.67 310.91 525.33 309.65 524.99 308.06 524.66 306.47 524.34 304.53 524.18 303.56 524.02 302.55 523.87 301.54 523.72 300.49 523.57 299.44 523.43 298.34 523.29 297.24 523.15 296.1 523.02 294.95 522.89 293.77 522.76 292.58 522.64 291.35 522.52 290.12 522.4 288.85 522.28 287.58 522.17 286.26 522.06 284.94 521.95 283.6 521.85 282.26 521.74 280.9 521.64 279.53 521.54 278.15 521.44 276.76 521.34 275.36 521.25 273.95 521.15 272.52 521.06 271.09 520.97 269.64 520.88 268.19 520.79 266.72 520.71 265.24 520.62 263.75 520.54 262.25 520.46 260.78 520.38 259.3 520.31 257.84 520.23 256.38 520.16 254.94 520.09 253.5 520.02 252.07 519.95 250.64 519.88 249.24 519.81 247.83 519.75 246.44 519.69 245.04 519.62 243.67 519.56 242.3 519.51 240.94 519.45 239.58 519.4 238.26 519.35 236.94 519.3 235.66 519.25 234.37 519.21 233.13 519.17 231.88 519.13 230.68 519.1 229.47 519.07 228.3 519.03 227.13 519.01 226 518.98 224.87 518.96 223.78 518.93 222.69 518.92 221.63 518.9 220.58 518.88 219.6 518.87 218.61 518.85 217.7 518.83 215.88 518.81 214.34 518.8 212.81 518.79 211.56 518.78 210.31 518.78 209.34 518.78 209.34 518.78 209.34 518.78 207.56 518.79 205.71 518.8 203.86 518.82 201.95 518.84 200.03 518.87 198.04 518.88 197.05 518.9 196.04 518.92 195.03 518.93 194 518.95 192.97 518.97 191.93 519 190.89 519.02 189.82 519.04 188.76 519.07 187.69 519.09 186.61 519.12 185.51 519.15 184.42 519.18 183.31 519.21 182.19 519.24 181.06 519.27 179.94 519.31 178.79 519.34 177.64 519.37 176.48 519.41 175.32 519.45 174.16 519.49 172.99 519.53 171.83 519.57 170.66 519.62 169.49 519.66 168.33 519.71 167.16 519.76 165.99 519.82 164.82 519.87 163.65 519.92 162.48 519.98 161.31 520.04 160.14 520.09 158.97 520.16 157.8 520.22 156.62 520.28 155.45 520.34 154.28 520.41 153.1 520.48 151.93 520.55 150.75 520.62 149.58 520.69 148.4 520.76 147.22 520.83 146.04 520.91 144.87 520.98 143.69 521.06 142.51 521.13 141.33 521.21 140.15 521.29 138.97 521.37 137.8 521.45 136.62 521.54 135.45 521.62 134.28 521.71 133.11 521.8 131.95 521.89 130.79 521.98 129.64 522.07 128.48 522.17 127.33 522.26 126.18 522.36 125.04 522.45 123.9 522.55 122.76 522.65 121.63 522.75 120.5 522.85 119.37 522.95 118.24 523.06 117.12 523.16 116 523.26 114.89 523.37 113.78 523.47 112.67 523.58 111.57 523.69 110.46 523.79 109.37 523.9 108.27 524.01 107.18 524.11 106.1 524.22 105.01 524.32 103.93 524.43 102.86 524.54 101.79 524.65 100.73 524.75 99.68 524.86 98.65 524.97 97.63 525.08 96.62 525.19 95.61 525.3 94.62 525.41 93.64 525.52 92.68 525.62 91.72 525.73 90.77 525.84 89.84 525.95 88.92 526.05 88 526.16 87.11 526.26 86.21 526.37 85.34 526.46 84.47 526.57 83.63 526.75 81.94 526.94 80.34 527.11 78.74 527.29 77.24 527.44 75.75 527.59 74.35 527.59 74.35 527.59 74.35 527.67 73.54 527.83 72.72 527.98 71.91 528.19 71.09 528.38 70.28 528.63 69.47 528.75 69.07 528.88 68.67 529 68.28 529.14 67.88 529.26 67.48 529.4 67.1 529.52 66.72 529.65 66.35 529.78 65.98 529.91 65.62 530.03 65.27 530.16 64.92 530.29 64.58 530.42 64.25 530.54 63.92 530.67 63.6 530.79 63.28 530.92 62.98 531.05 62.67 531.18 62.38 531.31 62.08 531.44 61.8 531.56 61.52 531.69 61.25 531.81 60.97 531.94 60.71 532.06 60.45 532.19 60.2 532.31 59.95 532.44 59.71 532.56 59.47 532.69 59.24 532.81 59.01 532.94 58.79 533.06 58.57 533.19 58.36 533.32 58.15 533.44 57.95 533.57 57.76 533.69 57.58 533.81 57.4 533.93 57.23 534.05 57.06 534.17 56.9 534.29 56.75 534.41 56.61 534.53 56.47 534.65 56.34 534.77 56.21 534.89 56.1 535 55.98 535.12 55.88 535.24 55.78 535.36 55.69 535.47 55.6 535.59 55.52 535.7 55.44 535.81 55.36 535.92 55.29 536.03 55.22 536.14 55.16 536.25 55.1 536.35 55.05 536.46 55 536.56 54.95 536.67 54.91 536.77 54.87 536.88 54.84 536.98 54.8 537.08 54.78 537.18 54.76 537.27 54.74 537.37 54.73 537.47 54.73 537.56 54.73 537.65 54.74 537.84 54.77 538.01 54.83 538.19 54.9 538.36 55.01 538.36 55.01 538.36 55.01 538.56 55.14 538.81 55.39 539.07 55.63 539.39 56 539.72 56.36 540.11 56.83 540.51 57.31 540.99 57.88 541.48 58.46 542.03 59.09 542.61 59.71 543.26 60.37 543.94 61.02 544.72 61.7 545.55 62.35 546.48 63.03 547.47 63.68 548.52 64.34 549.61 64.97 550.76 65.63 551.93 66.26 553.14 66.92 554.36 67.58 555.6 68.28 556.85 68.97 558.08 69.7 559.3 70.42 560.49 71.19 561.68 71.97 562.83 72.78 563.97 73.6 565.07 74.46 565.07 74.46 565.07 74.46 566.02 75.21 566.85 75.92 567.67 76.63 568.38 77.29 569.08 77.97 569.66 78.59 570.24 79.22 570.7 79.81 571.16 80.4 571.61 81.03 572.05 81.67 572.48 82.35 572.91 83.04 573.32 83.77 573.73 84.5 574.12 85.28 574.12 85.28 574.12 85.28 574.49 86.23 574.65 87.35 574.73 87.91 574.76 88.51 574.79 89.12 574.76 89.76 574.74 90.4 574.66 91.09 574.59 91.77 574.46 92.49 574.34 93.21 574.16 93.97 573.99 94.73 573.76 95.53 573.54 96.33 573.29 97.13 573.05 97.93 572.78 98.73 572.51 99.53 572.22 100.34 571.93 101.14 571.62 101.95 571.3 102.75 570.97 103.56 570.63 104.37 570.27 105.18 569.9 105.99 569.51 106.8 569.32 107.21 569.12 107.62 568.91 108.03 568.71 108.43 568.5 108.84 568.28 109.25 568.07 109.65 567.86 110.05 567.42 110.86 566.98 111.64 566.53 112.43 566.08 113.2 565.62 113.98 565.15 114.73 564.67 115.49 564.19 116.23 563.7 116.98 563.2 117.71 562.7 118.44 562.19 119.15 561.68 119.86 561.15 120.56 560.62 121.26 560.13 121.91 559.63 122.56 559.16 123.17 558.69 123.77 558.26 124.33 557.82 124.89 557.42 125.4 557.01 125.91 556.65 126.37 556.28 126.83 555.96 127.24 555.3 128.07 554.82 128.69 554.82 128.69 554.82 128.69 555.01 129.69 555.19 130.69 555.38 131.7 555.56 132.7 555.74 133.71 555.92 134.73 556.09 135.74 556.26 136.76 556.43 137.78 556.59 138.81 556.75 139.84 556.91 140.87 557.06 141.9 557.21 142.94 557.36 143.98 557.51 145.02 557.65 146.06 557.8 147.11 557.94 148.16 558.1 149.21 558.25 150.26 558.4 151.32 558.56 152.37 558.72 153.43 558.88 154.49 559.05 155.55 559.21 156.61 559.38 157.67 559.55 158.74 559.73 159.8 559.91 160.87 560.09 161.94 560.09 161.94 560.09 161.94 560.85 161.03 561.63 160.12 562.41 159.22 563.2 158.32 563.99 157.43 564.81 156.54 565.62 155.66 566.45 154.78 567.28 153.9 568.13 153.03 568.98 152.17 569.85 151.3 570.72 150.44 571.61 149.58 572.05 149.16 572.5 148.73 572.95 148.3 573.41 147.88 574.32 147.03 575.24 146.25 576.15 145.48 577.08 144.78 578.01 144.08 578.95 143.45 579.89 142.82 580.85 142.26 581.82 141.7 582.8 141.21 583.79 140.72 584.81 140.3 585.82 139.87 586.87 139.51 587.92 139.15 589.01 138.86 589.01 138.86 589.01 138.86 590.11 138.55 591.2 138.35 592.3 138.14 593.39 138.03 594.49 137.91 595.58 137.89 596.67 137.87 597.76 137.95 598.85 138.02 599.93 138.2 601.02 138.37 602.09 138.64 603.17 138.91 604.24 139.28 605.32 139.65 606.37 140.12 607.44 140.6 608.48 141.17 609.53 141.75 610.56 142.43 611.6 143.11 612.61 143.9 613.62 144.69 614.61 145.59 615.6 146.49 616.56 147.5 617.52 148.52 618.45 149.64 619.38 150.77 620.27 152.01 621.17 153.25 622.02 154.61 622.02 154.61 622.02 154.61 622.85 155.94 623.49 157.23 624.13 158.53 624.58 159.79 625.03 161.05 625.3 162.28 625.56 163.51 625.63 164.7 625.7 165.9 625.65 167.06 625.59 168.23 625.41 169.37 625.22 170.5 624.91 171.61 624.6 172.71 624.16 173.79 623.72 174.86 623.19 175.9 622.65 176.94 622.02 177.96 621.38 178.97 620.65 179.95 619.92 180.93 619.1 181.88 618.27 182.83 617.45 183.77 616.62 184.71 615.8 185.63 614.97 186.56 614.15 187.47 613.32 188.38 612.49 189.28 612.49 189.28 612.49 189.28 611.47 190.38 610.42 191.45 609.36 192.53 608.27 193.59 607.19 194.64 606.07 195.68 604.95 196.72 603.8 197.74 602.65 198.75 601.47 199.75 600.29 200.75 599.08 201.73 597.87 202.71 596.63 203.66 595.4 204.62 594.13 205.56 592.87 206.49 591.6 207.43 590.33 208.36 589.05 209.29 587.78 210.22 586.5 211.15 585.22 212.08 583.93 213.01 582.64 213.93 581.35 214.85 580.06 215.78 578.77 216.7 577.47 217.62 576.17 218.54 574.86 219.46 573.56 220.37 573.56 220.37 573.56 220.37 573.51 221.89 573.48 223.56 573.44 225.22 573.42 227.03 573.4 228.83 573.53 230.55 573.66 232.27 573.94 233.89 573.94 233.89 573.94 233.89 574.16 235.16 574.42 236.42 574.68 237.68 574.98 238.92 575.28 240.17 575.62 241.4 575.97 242.64 576.36 243.86 576.74 245.08 577.13 246.3 577.52 247.53 577.91 248.75 578.3 249.97 578.7 251.19 579.09 252.41 579.48 253.64 579.48 253.64 579.48 253.64 580.49 252.98 581.81 252.12 583.13 251.26 584.75 250.19 585.56 249.66 586.45 249.08 587.34 248.5 588.3 247.87 589.26 247.23 590.29 246.55 591.33 245.87 592.44 245.14 593.54 244.4 594.67 243.66 595.79 242.93 596.92 242.19 598.06 241.45 599.2 240.7 600.35 239.96 601.51 239.21 602.67 238.46 603.84 237.7 605.01 236.95 606.2 236.19 607.38 235.44 608.58 234.67 609.78 233.91 610.99 233.15 612.2 232.38 613.4 231.63 614.61 230.88 615.8 230.14 616.99 229.41 618.18 228.69 619.37 227.97 620.54 227.26 621.72 226.56 622.89 225.87 624.06 225.18 625.23 224.51 626.39 223.84 627.55 223.18 628.7 222.53 629.85 221.89 631.01 221.24 632.09 220.66 633.17 220.08 634.18 219.55 635.2 219.02 636.15 218.55 637.09 218.08 637.97 217.67 639.73 216.85 641.21 216.26 642.7 215.66 643.91 215.31 643.91 215.31 643.91 215.31 645.32 214.89 646.73 214.63 648.14 214.37 649.56 214.26 650.99 214.15 652.43 214.2 653.86 214.24 655.31 214.43 656.76 214.63 658.15 214.94 659.54 215.25 660.87 215.67 662.21 216.1 663.48 216.64 664.75 217.18 665.97 217.83 667.18 218.49 668.33 219.25 669.49 220.01 670.59 220.88 671.68 221.74 672.72 222.7 673.76 223.67 674.74 224.74 675.72 225.81 676.57 226.92 677.41 228.03 678.11 229.18 678.82 230.33 679.4 231.52 679.77 232.77 680.2 234.01 680.2 234.01 680.2 234.01" class="warpedPath"></path><path fill="#c88087" d="M128.63 578.32Q128.63 578.32 128.63 578.32 128.63 579.2 128.65 580.06 128.61 580.91 128.54 581.74 128.46 582.57 128.35 583.37 128.24 584.18 128.1 584.97 127.96 585.75 127.78 586.52 127.61 587.28 127.41 588.02 127.21 588.76 126.98 589.48 126.76 590.2 126.52 590.89 126.28 591.59 126.03 592.26 125.79 592.93 125.55 593.58 125.31 594.22 125.08 594.84 124.85 595.46 124.62 596.06 124.41 596.65 124.19 597.22 123.99 597.79 123.79 598.33 123.61 598.87 123.43 599.38 123.26 599.89 123.1 600.38 122.95 600.87 122.81 601.33 122.68 601.78 122.55 602.22 122.44 602.65 122.32 603.05 122.22 603.46 122.11 603.84 122.01 604.21 121.9 604.57 121.8 604.92 121.7 605.25 121.64 605.41 121.59 605.57 121.54 605.72 121.48 605.87 121.43 606.02 121.37 606.17 121.31 606.31 121.26 606.45 121.2 606.59 121.14 606.72 121.08 606.86 121.02 606.99 120.97 607.11 120.91 607.24 120.85 607.36 120.79 607.48 120.74 607.6 120.68 607.72 120.62 607.84 120.56 607.95 120.51 608.06 120.45 608.16 120.39 608.27 120.33 608.37 120.28 608.47 120.22 608.57 120.16 608.67 120.1 608.76 119.99 608.95 119.87 609.12 119.76 609.29 119.64 609.44 119.53 609.59 119.41 609.72 119.29 609.85 119.17 609.97 119.05 610.09 118.93 610.19 118.82 610.29 118.7 610.37 118.58 610.45 118.46 610.52 118.34 610.58 118.22 610.63 118.1 610.68 117.97 610.72 117.85 610.75 117.73 610.76 117.6 610.78 117.48 610.78 117.35 610.77 117.23 610.76 117.11 610.74 116.99 610.72 116.87 610.69 116.75 610.65 116.63 610.61 116.52 610.56 116.41 610.51 116.29 610.45 116.18 610.39 116.07 610.32 115.94 610.21 115.82 610.08 115.69 609.96 115.59 609.86 115.59 609.86 115.59 609.86 115.38 609.68 115.19 609.54 114.96 609.3 114.7 609 114.56 608.84 114.42 608.68 114.28 608.51 114.13 608.32 113.98 608.14 113.82 607.94 113.67 607.74 113.5 607.52 113.33 607.31 113.15 607.06 112.97 606.82 112.78 606.54 112.39 606 111.95 605.35 111.49 604.7 110.97 603.94 110.42 603.19 109.8 602.33 109.8 602.33 109.8 602.33 109.46 601.9 108.97 601.26 108.46 600.62 107.78 599.77 107.07 598.93 106.17 597.89 105.24 596.85 104.12 595.62 103.55 595 102.94 594.36 102.33 593.72 101.69 593.05 101.05 592.38 100.38 591.69 99.7 590.99 98.99 590.27 98.28 589.55 97.55 588.8 96.81 588.05 96.05 587.27 95.28 586.49 94.49 585.68 93.69 584.87 92.88 584.03 92.06 583.18 91.23 582.32 90.4 581.46 89.56 580.58 88.72 579.7 87.88 578.8 87.03 577.9 86.17 576.98 85.32 576.06 84.45 575.12 83.59 574.17 82.72 573.21 81.85 572.24 80.97 571.26 80.1 570.27 79.22 569.26 78.34 568.25 77.47 567.24 76.6 566.23 75.74 565.22 74.89 564.21 74.05 563.21 73.21 562.2 72.38 561.19 71.56 560.18 70.74 559.17 69.93 558.16 69.13 557.16 68.33 556.15 67.55 555.14 66.77 554.13 66 553.13 65.23 552.12 64.48 551.13 63.73 550.14 63.01 549.17 62.28 548.19 61.58 547.23 60.88 546.27 60.2 545.33 59.52 544.38 58.86 543.45 58.2 542.53 57.56 541.61 56.93 540.7 56.31 539.8 55.69 538.91 55.09 538.03 54.5 537.15 53.94 536.32 53.39 535.48 52.87 534.7 52.35 533.91 51.87 533.17 51.39 532.43 50.95 531.74 50.08 530.35 49.34 529.16 48.61 527.96 48.03 526.96 48.03 526.96 48.03 526.96 47.54 526.13 47.03 525.25 46.53 524.37 46 523.45 45.49 522.52 44.96 521.54 44.42 520.57 43.87 519.55 43.32 518.53 42.77 517.46 42.21 516.38 41.64 515.27 41.07 514.15 40.49 512.98 39.91 511.81 39.32 510.59 38.73 509.37 38.15 508.13 37.57 506.88 36.99 505.61 36.41 504.34 35.83 503.04 35.27 501.74 34.7 500.41 34.13 499.09 33.57 497.74 33.02 496.38 32.46 495 31.92 493.62 31.38 492.21 30.84 490.81 30.3 489.37 29.78 487.94 29.27 486.49 28.76 485.04 28.26 483.58 28.02 482.85 27.78 482.12 27.54 481.39 27.3 480.65 27.07 479.91 26.84 479.18 26.61 478.44 26.38 477.69 26.16 476.95 25.94 476.21 25.72 475.46 25.5 474.71 25.29 473.97 25.08 473.22 24.87 472.47 24.67 471.71 24.47 470.96 24.27 470.2 24.07 469.44 23.87 468.69 23.68 467.93 23.49 467.16 23.31 466.4 23.13 465.64 22.95 464.87 22.77 464.11 22.6 463.35 22.43 462.59 22.27 461.84 22.11 461.08 21.95 460.33 21.79 459.58 21.5 458.09 21.22 456.61 20.95 455.13 20.7 453.66 20.46 452.2 20.24 450.76 20.03 449.31 19.84 447.88 19.65 446.46 19.49 445.05 19.34 443.64 19.2 442.25 19.08 440.86 18.98 439.5 18.89 438.15 18.84 436.82 18.79 435.5 18.77 434.21 18.76 432.93 18.78 431.67 18.81 430.42 18.87 429.2 18.93 427.98 19.03 426.8 19.14 425.62 19.28 424.48 19.43 423.33 19.61 422.22 19.81 421.12 20.02 420.07 20.26 419.03 20.51 418.05 20.78 417.07 21.07 416.15 21.38 415.24 21.7 414.39 22.03 413.54 22.38 412.75 22.73 411.97 23.1 411.25 23.47 410.53 23.85 409.87 24.22 409.22 24.6 408.63 24.6 408.63 24.6 408.63 25.26 407.7 25.94 406.91 26.61 406.12 27.31 405.46 27.99 404.81 28.71 404.29 29.41 403.76 30.15 403.37 30.89 402.98 31.66 402.72 32.44 402.45 33.25 402.31 34.07 402.17 34.93 402.16 35.79 402.14 36.7 402.25 36.7 402.25 36.7 402.25 37.96 402.4 39.14 402.76 40.33 403.13 41.45 403.73 42.57 404.32 43.62 405.15 44.68 405.98 45.67 407.03 46.67 408.09 47.59 409.28 48.52 410.47 49.39 411.79 49.82 412.44 50.24 413.13 50.66 413.82 51.06 414.55 51.46 415.27 51.85 416.02 52.23 416.78 52.6 417.57 52.98 418.35 53.34 419.16 53.7 419.97 54.05 420.79 54.4 421.62 54.74 422.47 55.08 423.31 55.41 424.18 55.73 425.04 56.05 425.93 56.37 426.82 56.68 427.72 56.99 428.63 57.29 429.56 57.59 430.49 57.88 431.43 58.17 432.38 58.45 433.33 58.73 434.27 59.01 435.21 59.28 436.15 59.55 437.09 59.82 438.03 60.08 438.97 60.34 439.9 60.6 440.84 60.85 441.77 61.1 442.7 61.34 443.63 61.58 444.56 61.82 445.48 62.06 446.41 62.29 447.33 62.51 448.23 62.74 449.14 62.95 450.03 63.17 450.91 63.37 451.78 63.58 452.65 63.78 453.5 63.98 454.35 64.17 455.18 64.36 456.01 64.54 456.82 64.72 457.63 64.89 458.43 65.07 459.22 65.23 460 65.4 460.77 65.55 461.51 65.71 462.24 65.86 462.94 66.17 464.33 66.44 465.56 66.71 466.79 66.96 467.87 67.2 468.94 67.41 469.85 67.41 469.85 67.41 469.85 67.73 471.22 68.05 472.59 68.37 473.96 68.69 475.32 69.02 476.68 69.35 478.04 69.68 479.4 70.01 480.76 70.34 482.12 70.67 483.47 71.01 484.82 71.35 486.17 71.69 487.52 72.03 488.86 72.38 490.2 72.72 491.55 73.07 492.88 73.42 494.22 73.78 495.56 74.13 496.89 74.49 498.22 74.85 499.55 75.21 500.87 75.57 502.2 75.94 503.52 76.3 504.84 76.67 506.16 77.04 507.47 77.42 508.78 77.79 510.09 78.17 511.4 78.55 512.71 78.94 514.01 79.33 515.31 79.72 516.62 80.13 517.92 80.53 519.22 80.95 520.52 81.36 521.82 81.78 523.12 82.21 524.42 82.64 525.72 83.08 527.02 83.52 528.31 83.97 529.61 84.42 530.91 84.88 532.2 85.34 533.49 85.81 534.79 86.28 536.08 86.76 537.37 87.24 538.66 87.73 539.95 88.22 541.24 88.71 542.53 89.21 543.81 89.71 545.1 90.22 546.38 90.73 547.67 91.25 548.95 91.77 550.24 92.29 551.52 92.81 552.8 93.35 554.08 93.35 554.08 93.35 554.08 93.88 555.36 94.41 556.64 94.95 557.92 95.49 559.2 96.03 560.47 96.58 561.75 97.12 563.02 97.67 564.29 97.89 564.12 98.1 563.95 98.32 563.78 98.55 563.61 98.77 563.45 99 563.28 99.23 563.12 99.46 562.96 99.7 562.79 99.94 562.63 100.18 562.47 100.43 562.32 100.67 562.16 100.93 562.01 101.18 561.85 101.44 561.7 101.7 561.55 101.96 561.4 102.23 561.25 102.5 561.1 102.77 560.96 103.05 560.81 103.32 560.67 103.61 560.52 103.89 560.38 104.18 560.24 104.47 560.1 104.77 559.97 105.06 559.83 105.37 559.69 105.67 559.56 105.98 559.43 106.29 559.3 106.61 559.18 106.92 559.06 107.24 558.95 107.56 558.84 107.89 558.75 108.21 558.65 108.53 558.57 108.86 558.49 109.19 558.42 109.52 558.35 109.85 558.3 110.19 558.24 110.52 558.2 110.86 558.16 111.2 558.13 111.54 558.1 111.88 558.08 112.22 558.06 112.56 558.06 112.9 558.05 113.25 558.06 113.59 558.07 113.94 558.09 114.29 558.11 114.63 558.15 114.98 558.18 115.33 558.23 115.68 558.28 116.03 558.34 116.38 558.4 116.73 558.47 116.73 558.47 116.73 558.47 117.23 558.58 117.74 558.72 118.25 558.86 118.77 559.03 119.29 559.21 119.81 559.42 120.34 559.63 120.88 559.88 121.42 560.12 121.93 560.44 122.45 560.76 122.94 561.14 123.43 561.53 123.89 561.99 124.35 562.46 124.78 562.99 125.21 563.52 125.61 564.15 126 564.78 126.36 565.51 126.71 566.24 127.03 567.06 127.34 567.88 127.61 568.8 127.89 569.73 128.09 570.78 128.29 571.84 128.43 573.03 128.56 574.22 128.63 575.55 128.63 576.86 128.63 578.32 128.63 578.32 128.63 578.32M262.74 429.09Q262.74 429.09 262.74 429.09 262.74 430.87 262.73 432.55 262.55 434.22 262.2 435.78 261.85 437.34 261.32 438.8 260.79 440.26 260.09 441.61 259.38 442.96 258.57 444.19 257.75 445.43 256.82 446.55 255.89 447.67 254.85 448.68 253.81 449.69 252.65 450.59 251.49 451.49 250.27 452.3 249.05 453.11 247.77 453.84 246.49 454.57 245.14 455.21 243.8 455.85 242.39 456.41 240.98 456.97 239.6 457.44 238.21 457.92 236.84 458.3 235.48 458.68 234.13 458.97 232.79 459.26 231.46 459.47 231.46 459.47 231.46 459.47 231.45 460.72 231.44 461.96 231.43 463.21 231.42 464.45 231.41 465.69 231.4 466.93 231.39 468.17 231.37 469.41 231.36 470.65 231.34 471.89 231.32 473.12 231.3 474.36 231.29 475.59 231.26 476.82 231.24 478.05 231.22 479.28 231.2 480.51 231.18 481.73 231.15 482.96 231.13 484.18 231.1 485.4 231.07 486.62 231.05 487.84 231.02 489.06 230.99 490.27 230.96 491.49 230.93 492.7 230.9 493.91 230.86 495.12 230.83 496.33 230.8 497.54 230.76 498.74 230.72 499.95 230.69 501.15 230.65 502.35 230.61 503.55 230.57 504.74 230.53 505.94 230.49 507.13 230.45 508.32 230.41 509.52 230.37 510.7 230.32 511.89 230.28 513.08 230.23 514.26 230.19 515.45 230.14 516.63 230.09 517.81 230.05 518.98 230 520.16 229.95 521.33 229.9 522.51 229.85 523.68 229.8 524.85 229.74 526.02 229.69 527.18 229.64 528.35 229.58 529.51 229.53 530.67 229.47 531.83 229.41 532.99 229.36 534.14 229.3 535.3 229.24 536.45 229.18 537.6 229.12 538.75 229.06 539.91 228.99 541.06 228.93 542.22 228.86 543.37 228.8 544.53 228.73 545.69 228.66 546.84 228.59 548 228.52 549.16 228.45 550.32 228.37 551.48 228.3 552.65 228.22 553.81 228.15 554.97 228.07 556.14 227.99 557.3 227.91 558.47 227.83 559.63 227.75 560.8 227.66 561.97 227.58 563.14 227.49 564.31 227.41 565.48 227.32 566.65 227.23 567.82 227.14 568.99 227.05 570.17 226.96 571.34 226.87 572.51 226.77 573.69 226.68 574.87 226.58 576.04 226.48 577.22 226.39 578.4 226.29 579.58 226.19 580.76 226.09 581.94 225.99 583.12 225.88 584.3 225.78 585.48 225.68 586.67 225.57 587.85 225.46 589.04 225.36 590.22 225.25 591.41 225.14 592.6 225.03 593.79 224.92 594.98 224.81 596.17 224.7 597.36 224.58 598.55 224.47 599.74 224.36 600.94 224.24 602.13 224.12 603.33 224.01 604.53 223.89 605.73 223.77 606.92 223.65 608.12 223.53 609.33 223.41 610.53 223.29 611.73 223.29 611.73 223.29 611.73 224.25 612.07 225.22 612.4 226.51 612.85 227.78 613.37 229.06 613.88 230.33 614.47 231.6 615.05 232.85 615.71 234.11 616.37 235.36 617.11 236.6 617.84 237.79 618.66 238.97 619.48 240.09 620.4 241.22 621.31 242.28 622.32 243.34 623.33 244.35 624.43 245.35 625.54 246.25 626.7 247.16 627.87 247.96 629.09 248.77 630.32 249.47 631.6 250.17 632.89 250.78 634.24 251.38 635.59 251.84 637.02 252.29 638.45 252.6 639.96 252.92 641.47 253.08 643.07 253.25 644.66 253.27 646.34 253.27 646.34 253.27 646.34 253.29 647.41 253.24 648.43 253.18 649.44 253.06 650.4 252.94 651.36 252.75 652.25 252.57 653.15 252.31 653.99 252.06 654.84 251.74 655.62 251.42 656.4 251.03 657.13 250.65 657.85 250.2 658.51 249.75 659.18 249.23 659.79 248.72 660.39 248.16 660.95 247.6 661.51 247 662.03 246.4 662.55 245.76 663.02 245.11 663.49 244.41 663.91 243.71 664.34 242.96 664.72 242.21 665.09 241.4 665.43 240.59 665.75 239.73 666.04 238.86 666.32 237.93 666.55 237 666.78 236.04 666.97 235.07 667.16 234.07 667.31 233.06 667.46 232.02 667.57 230.98 667.68 229.9 667.75 228.82 667.82 227.7 667.85 226.59 667.87 225.44 667.86 224.29 667.84 223.12 667.78 221.94 667.72 220.73 667.62 219.52 667.51 218.3 667.37 217.09 667.23 215.88 667.07 214.67 666.9 213.46 666.7 212.25 666.5 211.05 666.27 209.84 666.04 208.63 665.78 207.43 665.52 206.22 665.23 205.02 664.93 203.82 664.61 202.62 664.29 201.43 663.94 200.23 663.59 199.05 663.22 197.88 662.85 196.72 662.47 195.56 662.08 194.42 661.68 193.29 661.28 192.17 660.86 191.05 660.45 189.94 660.01 188.85 659.58 187.76 659.13 186.68 658.69 185.62 658.23 184.56 657.76 183.51 657.29 182.47 656.81 181.47 656.35 180.48 655.88 179.55 655.43 178.61 654.97 177.72 654.53 176.84 654.09 176.01 653.65 174.35 652.78 172.89 651.89 171.43 650.99 170.17 650.24 170.17 650.24 170.17 650.24 169.24 649.67 168.19 649.06 167.15 648.45 166 647.77 164.86 647.01 163.61 646.17 162.36 645.32 161.02 644.36 159.67 643.4 158.37 642.38 157.07 641.34 155.81 640.24 154.56 639.13 153.34 637.96 152.13 636.79 150.96 635.55 149.79 634.32 148.7 633.04 147.61 631.77 146.6 630.47 145.57 629.2 144.62 627.91 143.65 626.67 142.75 625.41 141.84 624.2 141.12 623 140.39 621.82 139.86 620.64 139.33 619.46 139.01 618.26 138.69 617.06 138.58 615.83 138.58 615.83 138.58 615.83 138.44 614.32 138.48 612.95 138.52 611.59 138.74 610.38 138.96 609.17 139.36 608.11 139.76 607.05 140.35 606.14 140.94 605.23 141.64 604.43 142.35 603.62 143.19 602.93 144.02 602.23 144.98 601.64 145.94 601.04 147.02 600.56 148.11 600.07 149.29 599.71 150.46 599.34 151.72 599.09 152.98 598.84 154.31 598.71 155.65 598.58 157.07 598.57 158.48 598.56 159.91 598.63 161.34 598.69 162.78 598.84 164.22 598.98 165.68 599.21 167.13 599.43 168.59 599.73 168.59 599.73 168.59 599.73 168.7 598.7 168.82 597.66 168.93 596.63 169.04 595.6 169.15 594.57 169.27 593.54 169.38 592.51 169.49 591.48 169.61 590.45 169.72 589.42 169.83 588.39 169.95 587.36 170.06 586.33 170.18 585.3 170.29 584.27 170.4 583.24 170.52 582.22 170.63 581.19 170.74 580.16 170.86 579.13 170.97 578.1 171.08 577.07 171.19 576.04 171.31 575.01 171.42 573.98 171.53 572.95 171.64 571.92 171.75 570.89 171.86 569.86 171.97 568.83 172.08 567.79 172.19 566.76 172.3 565.73 172.41 564.7 172.51 563.66 172.61 562.62 172.71 561.58 172.81 560.54 172.91 559.5 173 558.45 173.09 557.4 173.17 556.35 173.26 555.3 173.34 554.25 173.42 553.19 173.5 552.13 173.57 551.08 173.65 550.01 173.72 548.95 173.78 547.89 173.85 546.82 173.91 545.75 173.97 544.68 174.03 543.61 174.09 542.54 174.14 541.46 174.19 540.38 174.24 539.3 174.28 538.23 174.33 537.14 174.37 536.06 174.4 534.97 174.44 533.89 174.47 532.8 174.47 532.8 174.47 532.8 174.5 531.69 174.53 530.58 174.56 529.48 174.6 528.37 174.63 527.27 174.66 526.17 174.69 525.06 174.72 523.96 174.75 522.86 174.78 521.76 174.81 520.66 174.84 519.56 174.87 518.47 174.9 517.37 174.93 516.27 174.96 515.18 174.99 514.08 175.02 512.99 175.05 511.9 175.08 510.81 175.11 509.72 175.14 508.63 175.17 507.54 175.2 506.45 175.23 505.36 175.25 504.28 175.28 503.19 175.31 502.11 175.34 501.02 175.37 499.94 175.39 498.86 175.42 497.78 175.45 496.7 175.47 495.62 175.5 494.54 175.52 493.45 175.55 492.37 175.58 491.29 175.6 490.21 175.62 489.12 175.65 488.04 175.67 486.95 175.69 485.87 175.72 484.78 175.74 483.7 175.76 482.61 175.78 481.53 175.8 480.44 175.82 479.36 175.84 478.27 175.86 477.18 175.88 476.09 175.89 475.01 175.91 473.92 175.93 472.83 175.94 471.74 175.96 470.65 175.97 469.56 175.98 468.47 175.99 467.38 176 466.29 176.01 465.2 176.02 464.11 176.03 463.02 176.03 463.02 176.03 463.02 174.91 463.09 173.86 463.13 172.82 463.17 171.86 463.17 170.9 463.17 170.02 463.14 169.14 463.1 168.34 463.04 168.34 463.04 168.34 463.04 167.22 462.94 166.06 462.79 164.9 462.63 163.71 462.41 162.51 462.19 161.27 461.9 160.04 461.62 158.77 461.27 157.5 460.93 156.27 460.5 155.04 460.06 153.85 459.55 152.66 459.04 151.51 458.45 150.36 457.85 149.25 457.18 148.15 456.51 147.13 455.78 146.12 455.05 145.19 454.27 144.27 453.49 143.44 452.66 142.6 451.82 141.86 450.93 141.12 450.05 140.56 449.08 140 448.1 139.63 447.05 139.25 445.99 139.06 444.84 138.87 443.7 138.86 442.47 138.86 442.47 138.86 442.47 138.85 441.23 138.97 440.07 139.1 438.91 139.35 437.81 139.6 436.72 139.97 435.69 140.34 434.65 140.84 433.69 141.32 432.72 141.93 431.81 142.52 430.89 143.23 430.04 143.92 429.18 144.73 428.37 145.52 427.56 146.44 426.8 147.34 426.03 148.29 425.3 149.25 424.56 150.27 423.86 151.31 423.15 152.42 422.48 153.55 421.81 154.76 421.17 156 420.53 157.31 419.94 158.65 419.34 160.07 418.78 161.5 418.22 163.01 417.71 164.54 417.2 166.14 416.73 166.94 416.49 167.75 416.27 168.56 416.04 169.38 415.82 170.19 415.61 171.02 415.4 171.84 415.19 172.67 414.99 173.5 414.79 174.33 414.6 175.16 414.41 176 414.22 176.84 414.04 177.68 413.87 178.52 413.7 179.37 413.53 180.22 413.37 181.07 413.21 181.92 413.06 182.78 412.91 183.63 412.76 184.49 412.63 185.35 412.49 186.21 412.36 187.07 412.23 187.94 412.11 188.8 411.99 189.67 411.87 190.54 411.76 191.41 411.64 192.28 411.51 193.15 411.36 194.88 411 196.54 410.65 198.19 410.29 199.76 410.01 201.34 409.83 202.83 409.69 204.33 409.56 205.74 409.45 207.15 409.35 208.48 409.28 209.81 409.21 211.06 409.17 212.3 409.12 213.46 409.1 214.61 408.96 215.68 408.84 215.68 408.84 215.68 408.84 216.87 408.7 218.26 408.58 219.65 408.47 221.24 408.43 222.83 408.46 224.61 408.53 225.5 408.57 226.44 408.61 227.38 408.64 228.37 408.65 229.35 408.65 230.34 408.66 231.32 408.68 232.3 408.73 233.29 408.78 234.27 408.86 235.25 408.96 236.23 409.09 237.21 409.22 238.19 409.39 239.17 409.55 240.14 409.73 241.11 409.91 242.09 410.11 243.06 410.31 244.03 410.53 244.99 410.76 245.93 411.02 246.86 411.28 247.77 411.58 248.67 411.88 249.54 412.22 250.41 412.56 251.25 412.94 252.08 413.32 252.89 413.74 253.69 414.16 254.46 414.61 255.22 415.08 255.96 415.58 256.69 416.08 257.38 416.63 258.77 417.74 259.81 419.08 260.85 420.44 261.53 422.01 262.22 423.59 262.56 425.36 262.74 427.12 262.74 429.09 262.74 429.09 262.74 429.09M384.07 589.54Q384.07 589.54 384.07 589.54 383.95 590.65 383.81 591.78 383.68 592.9 383.54 594.02 383.39 595.15 383.24 596.29 383.09 597.42 382.93 598.56 382.77 599.7 382.6 600.84 382.43 601.99 382.25 603.14 382.07 604.29 381.88 605.45 381.7 606.61 381.5 607.77 381.3 608.94 381.1 610.11 380.89 611.28 380.68 612.46 380.46 613.63 380.24 614.82 380.02 616 379.78 617.19 379.55 618.38 379.31 619.57 379.07 620.77 378.82 621.97 378.57 623.17 378.31 624.38 378.05 625.59 377.79 626.81 377.52 628.02 377.24 629.23 376.97 630.43 376.68 631.62 376.39 632.81 376.1 633.99 375.8 635.18 375.5 636.34 375.19 637.51 374.88 638.67 374.56 639.83 374.24 640.97 373.92 642.12 373.58 643.25 373.25 644.38 372.91 645.51 372.56 646.63 372.21 647.74 371.86 648.85 371.49 649.95 371.13 651.05 370.76 652.13 370.38 653.22 370 654.29 369.62 655.37 369.23 656.43 368.83 657.5 368.43 658.55 368.02 659.6 367.61 660.64 367.19 661.68 366.77 662.7 366.34 663.73 365.91 664.74 365.47 665.75 365.02 666.73 364.57 667.71 364.11 668.68 363.65 669.64 363.18 670.58 362.71 671.52 362.23 672.44 361.74 673.35 361.25 674.25 360.75 675.14 360.25 676.01 359.74 676.88 359.22 677.73 358.7 678.58 358.17 679.4 357.64 680.23 357.1 681.03 356.56 681.83 356 682.6 355.45 683.38 354.88 684.13 354.32 684.88 353.74 685.61 353.16 686.33 352.57 687.04 351.98 687.74 351.38 688.41 350.78 689.09 350.17 689.74 349.56 690.39 348.94 691 348.31 691.61 347.68 692.17 347.04 692.73 346.39 693.26 345.75 693.78 345.09 694.25 344.43 694.73 343.76 695.16 343.09 695.6 342.41 695.99 341.72 696.38 341.03 696.72 340.34 697.07 339.63 697.37 338.92 697.67 338.21 697.93 337.49 698.19 336.76 698.4 336.03 698.61 335.29 698.79 334.56 698.96 333.8 699.09 333.05 699.21 332.29 699.29 331.53 699.37 330.76 699.41 329.98 699.4 329.2 699.32 328.42 699.24 327.62 699.19 327.62 699.19 327.62 699.19 326.45 699.1 325.3 699.12 324.15 698.95 323.04 698.67 321.92 698.38 320.83 697.99 319.75 697.6 318.69 697.1 317.64 696.61 316.62 696.01 315.59 695.41 314.6 694.71 313.61 694.01 312.65 693.2 311.69 692.4 310.76 691.49 309.84 690.58 308.93 689.61 308.03 688.63 307.15 687.59 306.28 686.55 305.43 685.44 304.58 684.33 303.75 683.15 302.93 681.98 302.13 680.74 301.34 679.51 300.57 678.21 299.8 676.92 299.06 675.57 298.32 674.22 297.6 672.82 296.89 671.42 296.21 669.98 295.54 668.55 294.89 667.08 294.24 665.62 293.63 664.11 293.01 662.62 292.43 661.09 291.85 659.57 291.3 658 290.75 656.45 290.23 654.86 289.71 653.27 289.22 651.64 288.73 650.02 288.27 648.37 287.81 646.71 287.38 645.05 286.94 643.39 286.53 641.72 286.12 640.06 285.73 638.38 285.34 636.71 284.97 635.03 284.59 633.36 284.23 631.67 283.87 629.98 283.53 628.28 283.17 626.59 282.84 624.88 282.5 623.18 282.18 621.46 281.85 619.74 281.54 618.03 281.23 616.32 280.94 614.62 280.65 612.91 280.38 611.21 280.11 609.51 279.86 607.82 279.61 606.12 279.38 604.43 279.15 602.74 278.95 601.05 278.74 599.36 278.55 597.68 278.37 596 278.2 594.31 278.04 592.63 277.9 590.98 277.75 589.33 277.63 587.71 277.51 586.09 277.4 584.49 277.3 582.9 277.22 581.33 277.14 579.77 277.08 578.23 277.01 576.69 276.97 575.18 276.93 573.68 276.91 572.19 276.89 570.71 276.89 569.26 276.89 569.26 276.89 569.26 276.89 568.24 276.9 567.2 276.9 566.17 276.92 565.13 276.93 564.09 276.96 563.04 276.98 561.99 277.01 560.93 277.04 559.87 277.07 558.8 277.11 557.73 277.15 556.65 277.2 555.57 277.25 554.48 277.3 553.39 277.36 552.29 277.41 551.2 277.48 550.09 277.54 548.98 277.62 547.86 277.69 546.74 277.77 545.62 277.85 544.49 277.94 543.35 278.02 542.21 278.12 541.07 278.21 539.92 278.31 538.76 278.42 537.61 278.52 536.44 278.63 535.27 278.75 534.1 278.86 532.92 278.99 531.75 279.11 530.57 279.24 529.4 279.37 528.22 279.51 527.05 279.64 525.88 279.79 524.7 279.93 523.53 280.08 522.36 280.23 521.19 280.39 520.02 280.55 518.84 280.72 517.67 280.88 516.5 281.05 515.33 281.23 514.16 281.4 512.99 281.58 511.82 281.77 510.65 281.95 509.49 282.15 508.32 282.34 507.15 282.54 505.98 282.74 504.81 282.94 503.65 283.15 502.48 283.36 501.31 283.57 500.14 283.79 498.98 284.01 497.81 284.24 496.65 284.46 495.48 284.7 494.32 284.93 493.16 285.17 492 285.41 490.85 285.65 489.69 285.9 488.54 286.15 487.4 286.4 486.25 286.66 485.11 286.92 483.97 287.18 482.83 287.45 481.69 287.72 480.56 287.99 479.42 288.27 478.3 288.54 477.17 288.83 476.05 289.11 474.92 289.4 473.8 289.69 472.68 289.98 471.57 290.28 470.46 290.58 469.35 290.88 468.24 291.18 467.13 291.48 466.03 291.8 464.93 292.1 463.82 292.42 462.73 292.73 461.63 293.05 460.54 293.37 459.45 293.7 458.37 294.02 457.3 294.35 456.23 294.68 455.17 295.02 454.12 295.35 453.07 295.69 452.04 296.03 451.01 296.38 449.99 296.73 448.97 297.08 447.96 297.44 446.96 297.8 445.97 298.16 444.98 298.52 444 298.89 443.02 299.26 442.06 299.64 441.1 300.02 440.15 300.4 439.2 300.8 438.27 301.19 437.33 301.59 436.41 301.99 435.49 302.4 434.59 302.81 433.68 303.23 432.79 303.66 431.89 304.09 431.02 304.52 430.14 304.97 429.27 305.41 428.4 305.87 427.56 306.32 426.71 306.79 425.88 307.26 425.05 307.74 424.24 308.22 423.42 308.72 422.63 309.21 421.83 309.72 421.05 310.22 420.27 310.74 419.51 311.26 418.75 311.79 418 312.33 417.26 312.87 416.53 313.41 415.8 313.97 415.09 314.53 414.38 315.09 413.68 315.66 412.99 316.24 412.31 316.82 411.64 317.41 410.98 318.01 410.32 318.61 409.68 319.21 409.04 319.83 408.41 320.44 407.79 321.07 407.18 321.69 406.58 322.33 405.99 322.96 405.4 323.61 404.84 324.26 404.28 324.92 403.75 325.58 403.22 326.26 402.72 326.93 402.21 327.61 401.73 328.3 401.26 328.99 400.81 329.69 400.35 330.39 399.93 331.1 399.51 331.82 399.11 332.53 398.7 333.26 398.32 333.98 397.91 334.71 397.52 335.44 397.13 336.18 396.76 336.91 396.39 337.66 396.04 338.41 395.7 339.17 395.38 339.93 395.08 340.71 394.83 341.49 394.59 342.28 394.38 343.07 394.17 343.87 393.99 344.67 393.8 345.48 393.65 345.48 393.65 345.48 393.65 346.51 393.46 347.53 393.38 348.56 393.31 349.57 393.33 350.58 393.34 351.57 393.44 352.56 393.53 353.53 393.71 354.51 393.88 355.46 394.12 356.42 394.37 357.36 394.7 358.29 395.02 359.21 395.43 360.13 395.84 361.04 396.34 361.94 396.83 362.81 397.37 363.68 397.91 364.52 398.5 365.36 399.09 366.16 399.73 366.97 400.37 367.75 401.07 368.52 401.76 369.27 402.52 370.02 403.28 370.73 404.09 371.45 404.92 372.14 405.8 372.82 406.68 373.48 407.63 374.14 408.58 374.76 409.59 375.38 410.6 375.97 411.66 376.55 412.74 377.11 413.87 377.65 415 378.17 416.19 378.68 417.39 379.16 418.64 379.64 419.9 380.08 421.22 380.52 422.53 380.93 423.91 381.34 425.29 381.71 426.73 382.08 428.17 382.4 429.64 382.73 431.11 383.01 432.61 383.28 434.11 383.52 435.63 383.75 437.16 383.94 438.71 384.12 440.27 384.26 441.85 384.4 443.43 384.5 445.04 384.59 446.64 384.64 448.28 384.69 449.91 384.7 451.57 384.7 451.57 384.7 451.57 384.71 453.32 384.71 455.08 384.72 456.84 384.7 458.81 384.69 459.79 384.68 460.83 384.67 461.86 384.65 462.95 384.63 464.04 384.61 465.18 384.58 466.32 384.55 467.52 384.52 468.71 384.49 469.96 384.46 471.2 384.42 472.5 384.38 473.8 384.31 475.09 384.25 476.38 384.16 477.65 384.08 478.93 383.97 480.19 383.86 481.45 383.72 482.7 383.59 483.95 383.43 485.19 383.28 486.42 383.1 487.65 382.92 488.87 382.71 490.08 382.51 491.29 382.29 492.49 382.06 493.68 381.81 494.85 381.55 496.01 381.27 497.13 380.99 498.26 380.68 499.34 380.37 500.43 380.03 501.48 379.69 502.53 379.32 503.54 378.95 504.55 378.55 505.53 378.16 506.5 377.73 507.44 377.31 508.38 376.85 509.28 376.4 510.18 375.9 510.97 375.4 511.77 374.85 512.46 374.31 513.16 373.72 513.75 373.12 514.34 372.48 514.83 371.84 515.32 371.16 515.7 370.47 516.09 369.74 516.37 369.01 516.66 368.23 516.84 367.45 517.02 366.62 517.1 366.62 517.1 366.62 517.1 365.63 517.2 364.69 517.19 363.76 517.18 362.88 517.07 362.01 516.96 361.19 516.75 360.38 516.54 359.62 516.23 358.87 515.91 358.17 515.5 357.48 515.08 356.84 514.57 356.21 514.05 355.63 513.43 355.05 512.82 354.54 512.1 354.02 511.38 353.57 510.53 353.12 509.68 352.73 508.7 352.34 507.73 352.01 506.62 351.68 505.51 351.42 504.26 351.15 503.02 350.95 501.65 350.75 500.28 350.61 498.78 350.47 497.28 350.39 495.64 350.31 494.01 350.3 492.25 350.3 492.25 350.3 492.25 350.29 490.91 350.29 489.57 350.29 488.24 350.31 486.9 350.32 485.56 350.35 484.22 350.38 482.88 350.43 481.54 350.47 480.2 350.5 478.87 350.53 477.53 350.54 476.19 350.56 474.86 350.56 473.52 350.56 472.19 350.54 470.86 350.54 470.86 350.54 470.86 350.52 468.86 350.39 467.11 350.27 465.35 350.05 463.84 349.83 462.32 349.51 461.05 349.19 459.78 348.77 458.74 348.36 457.71 347.73 456.98 347.1 456.25 346.26 455.82 345.42 455.4 344.36 455.27 343.31 455.15 342.05 455.32 342.05 455.32 342.05 455.32 341.33 455.42 340.64 455.61 339.94 455.8 339.26 456.08 338.59 456.36 337.93 456.73 337.28 457.1 336.64 457.56 336 458.02 335.39 458.58 334.77 459.13 334.18 459.77 333.59 460.41 333.01 461.14 332.44 461.87 331.89 462.69 331.33 463.51 330.8 464.38 330.27 465.25 329.75 466.18 329.24 467.11 328.75 468.09 328.25 469.08 327.78 470.11 327.3 471.15 326.84 472.24 326.39 473.34 325.95 474.48 325.51 475.63 325.1 476.83 324.68 478.03 324.28 479.29 323.88 480.55 323.49 481.84 323.1 483.14 322.73 484.47 322.36 485.81 322 487.18 321.65 488.55 321.3 489.96 320.96 491.37 320.63 492.82 320.3 494.26 319.98 495.75 319.66 497.24 319.36 498.76 319.06 500.29 318.77 501.85 318.48 503.41 318.2 504.98 317.93 506.54 317.66 508.11 317.4 509.67 317.15 511.24 316.9 512.81 316.66 514.37 316.42 515.94 316.2 517.51 315.98 519.08 315.76 520.65 315.55 522.22 315.36 523.79 315.16 525.36 314.97 526.94 314.79 528.51 314.61 530.06 314.44 531.62 314.28 533.16 314.12 534.7 313.98 536.23 313.83 537.75 313.7 539.26 313.56 540.77 313.44 542.27 313.32 543.76 313.22 545.24 313.11 546.72 313.02 548.18 312.93 549.65 312.85 551.1 312.77 552.55 312.7 553.94 312.63 555.34 312.57 556.68 312.51 558.03 312.45 559.32 312.4 560.61 312.36 561.85 312.32 563.08 312.29 564.27 312.26 565.46 312.24 566.59 312.22 567.72 312.21 568.8 312.2 569.88 312.2 570.91 312.2 570.91 312.2 570.91 312.2 572.59 312.23 574.41 312.25 576.22 312.3 578.16 312.33 579.13 312.36 580.14 312.4 581.14 312.44 582.18 312.48 583.21 312.52 584.28 312.57 585.35 312.62 586.45 312.67 587.55 312.74 588.64 312.81 589.73 312.89 590.81 312.98 591.89 313.08 592.96 313.17 594.03 313.29 595.08 313.4 596.14 313.53 597.19 313.66 598.23 313.81 599.27 313.95 600.31 314.11 601.33 314.27 602.36 314.45 603.38 314.62 604.39 314.82 605.37 315.02 606.35 315.25 607.29 315.47 608.24 315.72 609.14 315.96 610.05 316.23 610.92 316.77 612.66 317.4 614.25 318.03 615.84 318.75 617.28 319.48 618.73 320.32 619.82 321.16 620.91 322.12 621.64 323.07 622.38 324.15 622.76 325.23 623.14 326.42 623.15 326.42 623.15 326.42 623.15 327.44 623.17 328.41 623.04 329.39 622.91 330.31 622.65 331.24 622.38 332.12 621.98 332.99 621.57 333.82 621.03 334.65 620.48 335.42 619.8 336.2 619.11 336.93 618.29 337.66 617.46 338.33 616.5 339.01 615.54 339.64 614.44 340.26 613.34 340.84 612.16 341.41 610.98 341.94 609.73 342.46 608.48 342.94 607.15 343.42 605.82 343.84 604.41 344.26 603.01 344.64 601.53 345.01 600.05 345.34 598.49 345.66 596.94 345.94 595.31 346.21 593.68 346.44 591.98 346.44 591.98 346.44 591.98 345.64 591.81 344.85 591.59 344.07 591.36 343.29 591.07 342.51 590.79 341.73 590.44 340.96 590.09 340.2 589.68 339.43 589.27 338.7 588.76 337.96 588.25 337.25 587.65 336.55 587.05 335.87 586.35 335.19 585.65 334.54 584.85 333.89 584.06 333.3 583.17 332.72 582.28 332.2 581.29 331.67 580.31 331.21 579.23 330.76 578.15 330.36 576.97 329.97 575.79 329.67 574.51 329.37 573.23 329.17 571.83 328.98 570.44 328.88 568.94 328.78 567.44 328.77 565.82 328.77 565.82 328.77 565.82 328.77 564.36 328.84 562.96 328.91 561.57 329.06 560.26 329.2 558.94 329.42 557.7 329.64 556.46 329.93 555.3 330.22 554.13 330.59 553.05 330.95 551.96 331.39 550.94 331.83 549.93 332.35 548.99 332.86 548.05 333.45 547.18 334.04 546.32 334.65 545.5 335.26 544.68 335.91 543.91 336.55 543.14 337.22 542.42 337.88 541.69 338.58 541.01 339.28 540.33 340 539.7 340.72 539.07 341.47 538.49 342.22 537.9 343 537.37 343.77 536.83 344.58 536.34 345.38 535.85 346.19 535.39 347 534.94 347.82 534.52 348.63 534.1 349.45 533.72 350.27 533.34 351.1 533 351.93 532.66 352.76 532.35 353.6 532.05 354.43 531.78 355.27 531.51 356.12 531.28 356.96 531.05 357.82 530.86 358.67 530.67 359.47 530.49 360.28 530.32 361.05 530.16 361.82 530 362.54 529.86 363.26 529.72 363.95 529.6 364.63 529.48 365.27 529.38 365.91 529.28 366.5 529.19 367.7 529.03 368.72 528.94 368.72 528.94 368.72 528.94 369.46 528.87 370.37 528.84 371.28 528.8 372.36 528.8 372.9 528.8 373.48 528.81 374.06 528.82 374.69 528.83 375.31 528.85 375.98 528.87 376.65 528.9 377.36 528.93 378.07 528.96 378.78 529.02 379.49 529.08 380.2 529.17 380.91 529.26 381.61 529.37 382.32 529.49 383.02 529.63 383.73 529.77 384.43 529.94 385.13 530.12 385.83 530.31 386.53 530.51 387.23 530.74 387.93 530.97 388.63 531.22 389.32 531.48 390 531.77 390.67 532.06 391.32 532.39 391.97 532.72 392.6 533.08 393.22 533.44 393.83 533.84 394.43 534.24 395.01 534.68 395.59 535.12 396.15 535.59 396.71 536.06 397.24 536.57 397.78 537.08 398.29 537.62 399.31 538.72 400.07 540 400.84 541.29 401.35 542.77 401.86 544.26 402.12 545.93 402.26 547.62 402.26 549.5 402.26 549.5 402.26 549.5 402.26 551.37 402.3 553.17 402.23 554.99 402.08 556.75 401.94 558.5 401.72 560.2 401.5 561.9 401.21 563.54 400.92 565.17 400.56 566.75 400.2 568.33 399.76 569.85 399.33 571.37 398.82 572.84 398.31 574.3 397.73 575.7 397.15 577.1 396.51 578.37 395.86 579.64 395.14 580.77 394.43 581.91 393.64 582.91 392.86 583.91 392 584.77 391.15 585.64 390.23 586.37 389.31 587.1 388.31 587.7 387.32 588.29 386.26 588.75 385.2 589.21 384.07 589.54 384.07 589.54 384.07 589.54M539.16 411.79Q539.16 413.03 539.16 414.26 539.16 415.49 539.16 416.72 539.16 417.7 539.16 418.68 539.16 419.66 539.16 420.64 539.16 421.62 539.16 422.6 539.17 423.58 539.17 424.56 539.18 425.54 539.18 426.52 539.19 427.49 539.19 428.47 539.2 429.45 539.2 430.43 539.21 431.41 539.22 432.39 539.22 433.37 539.21 434.36 539.2 435.34 539.19 436.33 539.18 437.31 539.17 438.3 539.15 439.28 539.14 440.27 539.13 441.26 539.12 442.24 539.1 443.23 539.09 444.22 539.08 445.21 539.06 446.19 539.05 447.18 539.03 448.17 539.01 449.16 539 450.15 538.98 451.14 538.96 452.13 538.94 453.12 538.92 454.11 538.91 455.1 538.89 456.09 538.86 457.08 538.84 458.07 538.82 459.06 538.8 460.05 538.78 461.04 538.76 462.04 538.73 463.03 538.71 464.02 538.68 465.01 538.66 466.01 538.63 467 538.61 468 538.58 468.99 538.56 469.98 538.53 470.98 538.5 471.97 538.47 472.97 538.44 473.97 538.41 474.96 538.38 475.96 538.35 476.95 538.32 477.95 538.29 478.95 538.26 479.95 538.23 480.94 538.2 481.94 538.16 482.94 538.13 483.94 538.1 484.94 538.06 485.93 538.03 486.93 538 487.93 537.96 488.93 537.93 489.92 537.89 490.92 537.86 491.92 537.82 492.92 537.79 493.92 537.75 494.92 537.72 495.91 537.68 496.91 537.64 497.91 537.61 498.91 537.57 499.91 537.53 500.9 537.5 501.9 537.46 502.9 537.42 503.9 537.38 504.9 537.35 505.9 537.31 506.89 537.27 507.89 537.23 508.89 537.19 509.89 537.15 510.89 537.11 511.89 537.07 512.89 537.03 513.89 536.99 514.88 536.95 515.88 536.91 516.88 536.87 517.88 536.83 518.88 536.79 519.88 536.75 520.88 536.71 521.88 536.67 522.88 536.62 523.88 536.58 524.87 536.54 525.87 536.5 526.87 536.45 527.87 536.41 528.87 536.37 529.87 536.32 530.87 536.28 531.87 536.24 532.87 536.19 533.87 536.15 534.87 536.1 535.87 536.06 536.87 536.01 537.87 535.97 538.87 535.92 539.87 535.88 540.87 535.83 541.87 535.79 542.87 535.74 543.87 535.74 543.87 535.74 543.87 535.68 545.32 535.62 547.01 535.56 548.7 535.5 550.65 535.47 551.62 535.44 552.65 535.41 553.69 535.38 554.78 535.35 555.88 535.32 557.03 535.29 558.19 535.26 559.41 535.23 560.63 535.19 561.88 535.15 563.13 535.11 564.4 535.07 565.68 535.01 566.98 534.96 568.28 534.9 569.61 534.84 570.94 534.78 572.3 534.71 573.65 534.64 575.04 534.56 576.42 534.48 577.83 534.4 579.25 534.31 580.69 534.23 582.13 534.13 583.57 534.03 585.02 533.93 586.47 533.83 587.93 533.72 589.39 533.61 590.85 533.5 592.32 533.39 593.78 533.27 595.26 533.15 596.74 533.02 598.22 532.9 599.71 532.77 601.2 532.64 602.69 532.5 604.19 532.37 605.69 532.22 607.17 532.07 608.66 531.9 610.12 531.73 611.58 531.55 613.02 531.37 614.47 531.17 615.89 530.98 617.32 530.77 618.72 530.57 620.14 530.35 621.53 530.13 622.93 529.9 624.3 529.68 625.69 529.44 627.05 529.21 628.42 528.96 629.76 528.72 631.09 528.45 632.4 528.2 633.7 527.92 634.97 527.64 636.25 527.34 637.49 527.04 638.73 526.71 639.93 526.38 641.14 526.02 642.31 525.66 643.48 525.27 644.61 524.88 645.75 524.45 646.84 524.02 647.93 523.55 648.94 523.07 649.95 522.55 650.88 522.03 651.81 521.47 652.65 520.91 653.49 520.31 654.25 519.71 655.01 519.07 655.68 518.42 656.35 517.74 656.93 517.06 657.51 516.34 658 515.6 658.3 514.85 658.71 514.85 658.71 514.85 658.71 513.52 659.42 512.25 660.04 510.97 660.47 509.75 660.62 508.53 660.76 507.36 660.63 506.19 660.49 505.07 660.08 503.96 659.66 502.93 659.05 501.89 658.43 500.94 657.62 499.98 656.81 499.11 655.8 498.23 654.8 497.44 653.6 496.64 652.41 495.93 651.08 495.21 649.74 494.57 648.26 493.93 646.79 493.38 645.17 492.82 643.55 492.34 641.8 491.86 640.04 491.48 638.21 491.11 636.38 490.83 634.47 490.55 632.57 490.37 630.59 490.2 628.61 490.12 626.56 490.12 626.56 490.12 626.56 490.06 624.87 490 623.18 489.95 621.49 489.91 619.79 489.87 618.1 489.84 616.41 489.81 614.71 489.8 613.02 489.78 611.32 489.77 609.63 489.76 607.93 489.77 606.23 489.77 604.53 489.79 602.83 489.8 601.13 489.83 599.42 489.85 597.72 489.88 596.02 489.92 594.32 489.96 592.63 490.01 590.93 490.06 589.24 490.12 587.55 490.18 585.86 490.25 584.17 490.32 582.48 490.4 580.8 490.48 579.11 490.56 577.43 490.66 575.75 490.75 574.07 490.85 572.39 490.85 572.39 490.85 572.39 490.06 572.82 489.27 573.25 488.48 573.68 487.68 574.11 486.89 574.54 486.1 574.96 485.3 575.39 484.51 575.82 483.71 576.25 482.92 576.67 482.12 577.1 481.32 577.52 480.53 577.95 479.73 578.37 478.93 578.79 478.14 579.22 477.34 579.64 476.54 580.06 475.74 580.48 474.94 580.9 474.14 581.32 473.35 581.74 472.55 582.16 471.75 582.58 470.95 582.99 470.14 583.41 469.34 583.83 468.54 584.24 467.74 584.66 466.94 585.07 466.14 585.49 465.34 585.9 465.26 587.24 465.17 588.65 465.09 590.06 465.01 591.53 464.93 593.01 464.85 594.55 464.77 596.1 464.68 597.71 464.6 599.33 464.52 601.01 464.44 602.7 464.36 604.45 464.27 606.21 464.19 608.03 464.11 609.86 464.03 611.75 463.95 613.65 463.84 615.54 463.73 617.44 463.59 619.32 463.46 621.21 463.3 623.1 463.13 624.98 462.94 626.86 462.75 628.74 462.53 630.61 462.31 632.49 462.07 634.36 461.82 636.23 461.54 638.1 461.27 639.96 460.97 641.82 460.66 643.69 460.31 645.51 459.97 647.33 459.57 649.1 459.18 650.88 458.74 652.61 458.31 654.35 457.82 656.03 457.34 657.72 456.81 659.36 456.28 661 455.7 662.6 455.12 664.19 454.5 665.73 453.87 667.28 453.2 668.77 452.53 670.27 451.78 671.62 451.03 672.98 450.21 674.19 449.38 675.41 448.48 676.48 447.58 677.55 446.6 678.47 445.63 679.39 444.57 680.18 443.52 680.95 442.39 681.59 441.26 682.21 440.05 682.7 438.85 683.18 437.56 683.51 437.56 683.51 437.56 683.51 436.76 683.72 436 683.85 435.23 683.97 434.5 684.02 433.03 684.1 431.69 683.87 430.36 683.64 429.16 683.09 427.96 682.55 426.91 681.7 425.85 680.86 424.91 679.84 423.97 678.83 423.14 677.65 422.32 676.48 421.61 675.13 420.91 673.79 420.31 672.28 419.72 670.78 419.21 669.16 418.71 667.55 418.29 665.84 417.88 664.12 417.55 662.29 417.22 660.46 416.97 658.52 416.73 656.59 416.55 654.68 416.37 652.77 416.26 650.9 416.15 649.02 416.1 647.18 416.05 645.33 416.07 643.52 416.07 643.52 416.07 643.52 416.09 642 416.11 640.49 416.12 638.97 416.15 637.46 416.17 635.94 416.2 634.43 416.23 632.91 416.27 631.4 416.29 629.88 416.32 628.36 416.34 626.85 416.37 625.33 416.4 623.81 416.44 622.29 416.47 620.77 416.51 619.25 416.55 617.73 416.6 616.21 416.65 614.69 416.7 613.17 416.75 611.65 416.8 610.13 416.86 608.6 416.92 607.08 416.98 605.56 417.04 604.03 417.11 602.51 417.18 600.98 417.25 599.46 417.32 597.93 417.4 596.41 417.48 594.88 417.56 593.36 417.64 591.83 417.72 590.3 417.79 588.78 417.87 587.25 417.94 585.73 418.01 584.2 418.08 582.68 418.14 581.15 418.21 579.62 418.27 578.1 418.34 576.57 418.4 575.05 418.46 573.53 418.52 572 418.57 570.48 418.63 568.95 418.68 567.43 418.73 565.9 418.78 564.38 418.83 562.86 418.88 561.33 418.92 559.81 418.97 558.28 419.01 556.76 419.05 555.24 419.09 553.72 419.13 552.19 419.17 550.67 419.2 549.15 419.23 547.62 419.27 546.1 419.27 546.1 419.27 546.1 419.3 544.5 419.32 542.91 419.35 541.31 419.38 539.71 419.4 538.11 419.43 536.52 419.45 534.92 419.47 533.32 419.49 531.72 419.51 530.12 419.53 528.53 419.54 526.93 419.56 525.33 419.57 523.73 419.59 522.14 419.6 520.54 419.61 518.94 419.61 517.35 419.62 515.75 419.63 514.15 419.63 512.55 419.63 510.96 419.64 509.36 419.64 507.76 419.64 506.16 419.64 504.57 419.63 502.97 419.63 501.37 419.62 499.77 419.62 498.18 419.61 496.58 419.6 494.98 419.59 493.39 419.58 491.79 419.57 490.19 419.57 488.59 419.56 486.99 419.56 485.39 419.56 483.79 419.56 482.18 419.56 480.58 419.56 478.98 419.56 477.37 419.56 475.77 419.57 474.16 419.58 472.55 419.58 470.95 419.59 469.34 419.6 467.73 419.61 466.12 419.62 464.51 419.63 462.9 419.64 461.29 419.66 459.67 419.67 458.06 419.69 456.45 419.71 454.83 419.73 453.22 419.74 451.6 419.76 449.98 419.78 448.37 419.81 446.75 419.83 445.13 419.85 443.51 419.85 443.51 419.85 443.51 419.88 442.44 419.9 441.34 419.92 440.23 419.94 439.07 419.96 437.92 419.98 436.73 420 435.53 420.01 434.29 420.03 433.05 420.04 431.77 420.05 430.49 420.06 429.16 420.07 427.84 420.07 426.47 420.08 425.1 420.08 423.69 420.08 422.28 420.1 420.88 420.12 419.48 420.16 418.1 420.2 416.72 420.26 415.36 420.31 414 420.39 412.65 420.46 411.31 420.55 409.98 420.63 408.66 420.73 407.35 420.83 406.04 420.94 404.75 421.04 403.47 421.15 402.2 421.26 400.93 421.38 399.71 421.49 398.49 421.62 397.32 421.73 396.14 421.86 395.02 421.97 393.89 422.09 392.81 422.2 391.73 422.32 390.7 422.42 389.67 422.56 388.68 422.68 387.69 422.85 386.74 423.03 385.78 423.26 384.85 423.51 383.93 423.86 383.08 424.24 382.24 424.73 381.48 425.24 380.74 425.85 380.09 426.48 379.45 427.2 378.91 427.93 378.36 428.75 377.91 429.57 377.46 430.47 377.05 431.36 376.59 432.32 376.21 433.29 375.82 434.33 375.52 434.33 375.52 434.33 375.52 435.05 375.32 435.76 375.15 436.46 374.98 437.16 374.9 438.56 374.78 439.88 374.81 441.19 374.83 442.43 375.01 443.66 375.15 444.8 375.42 445.93 375.68 446.98 376.09 448.04 376.51 449.01 377.09 449.98 377.68 450.87 378.43 451.76 379.18 452.57 380.08 453.37 380.98 454.12 381.96 454.87 382.94 455.57 383.99 456.26 385.05 456.9 386.18 457.54 387.32 458.13 388.53 458.71 389.75 459.24 391.04 459.77 392.34 460.25 393.72 460.73 395.1 461.15 396.56 461.57 398.02 461.94 399.56 462.31 401.11 462.64 402.69 462.96 404.27 463.25 405.89 463.54 407.5 463.79 409.15 464.03 410.81 464.24 412.49 464.45 414.18 464.62 415.9 464.79 417.63 464.92 419.39 465.05 421.14 465.14 422.94 465.23 424.73 465.28 426.56 465.34 428.39 465.38 430.18 465.43 431.96 465.48 433.7 465.52 435.45 465.56 437.14 465.6 438.84 465.64 440.49 465.68 442.14 465.71 443.75 465.74 445.35 465.78 446.92 465.81 448.48 465.84 449.99 465.87 451.51 465.89 452.98 465.89 452.98 465.89 452.98 465.93 454.94 465.96 456.9 465.98 458.85 466 460.8 466.01 462.75 466.02 464.7 466.02 466.64 466.02 468.58 466.02 470.52 466 472.45 465.99 474.38 465.97 476.31 465.94 478.23 465.91 480.16 465.88 482.08 465.84 483.99 465.8 485.91 465.76 487.83 465.71 489.75 465.67 491.67 465.63 493.59 465.58 495.52 465.54 497.45 465.5 499.38 465.45 501.31 465.41 503.25 465.36 505.18 465.32 507.12 465.27 509.06 465.22 511 465.18 512.95 465.13 514.89 465.13 514.89 465.13 514.89 465.99 514.41 466.85 513.93 467.71 513.46 468.57 512.98 469.43 512.5 470.29 512.02 471.15 511.54 472.01 511.06 472.87 510.58 473.73 510.1 474.59 509.62 475.45 509.14 476.31 508.66 477.17 508.18 478.03 507.7 478.89 507.22 479.75 506.74 480.61 506.26 481.47 505.78 482.33 505.3 483.19 504.82 484.05 504.33 484.91 503.85 485.77 503.37 486.63 502.89 487.49 502.41 488.35 501.93 489.22 501.44 490.08 500.96 490.94 500.48 491.8 500 492.66 499.52 492.67 498.32 492.67 497.13 492.68 495.94 492.68 494.74 492.69 493.55 492.69 492.37 492.7 491.18 492.7 489.99 492.71 488.8 492.72 487.62 492.72 486.43 492.73 485.25 492.73 484.06 492.74 482.88 492.74 481.7 492.75 480.52 492.75 479.34 492.76 478.16 492.76 476.98 492.77 475.81 492.77 474.63 492.78 473.45 492.78 472.28 492.79 471.11 492.79 469.93 492.8 468.76 492.8 467.59 492.8 466.42 492.81 465.25 492.81 464.08 492.82 462.92 492.82 461.75 492.82 460.58 492.83 459.42 492.84 458.25 492.84 457.08 492.85 455.92 492.86 454.75 492.87 453.58 492.88 452.41 492.89 451.25 492.9 450.08 492.92 448.91 492.93 447.74 492.94 446.57 492.96 445.4 492.98 444.24 492.99 443.07 493.01 441.9 493.03 440.73 493.05 439.56 493.07 438.39 493.09 437.22 493.11 436.05 493.14 434.88 493.16 433.71 493.19 432.54 493.21 431.37 493.24 430.2 493.27 429.03 493.29 427.86 493.32 426.69 493.35 425.51 493.38 424.34 493.38 424.34 493.38 424.34 493.4 423.22 493.41 422.09 493.43 420.95 493.44 419.8 493.46 418.64 493.47 417.47 493.48 416.3 493.49 415.11 493.51 413.92 493.52 412.71 493.53 411.5 493.54 410.27 493.55 409.05 493.56 407.8 493.57 406.56 493.58 405.29 493.59 404.03 493.62 402.79 493.65 401.55 493.71 400.32 493.77 399.1 493.85 397.89 493.93 396.68 494.04 395.49 494.15 394.3 494.28 393.12 494.42 391.95 494.58 390.79 494.74 389.63 494.92 388.49 495.1 387.35 495.31 386.23 495.52 385.11 495.77 384.02 496.02 382.94 496.32 381.89 496.61 380.84 496.94 379.82 497.27 378.8 497.65 377.82 498.02 376.84 498.43 375.89 498.85 374.94 499.31 374.02 499.76 373.11 500.26 372.22 500.76 371.34 501.3 370.49 501.83 369.64 502.44 368.86 503.05 368.08 503.73 367.37 504.42 366.65 505.17 366.01 505.92 365.37 506.75 364.81 507.58 364.25 508.49 363.77 509.39 363.29 510.37 362.88 511.35 362.47 512.39 362.13 513.44 361.77 514.55 361.47 514.55 361.47 514.55 361.47 515.5 361.21 516.4 361.06 517.3 360.9 518.16 360.84 519.01 360.78 519.82 360.83 520.64 360.87 521.4 361.03 522.17 361.19 522.9 361.46 523.62 361.73 524.31 362.11 524.99 362.5 525.63 363 526.27 363.5 526.87 364.11 527.47 364.72 528.03 365.38 528.6 366.04 529.13 366.74 529.67 367.45 530.17 368.21 530.67 368.96 531.15 369.76 531.62 370.56 532.06 371.41 532.5 372.26 532.91 373.15 533.32 374.05 533.7 374.99 534.07 375.93 534.42 376.92 534.77 377.91 535.09 378.92 535.41 379.94 535.7 380.98 536 382.01 536.26 383.08 536.53 384.14 536.77 385.23 537.01 386.32 537.22 387.43 537.43 388.54 537.61 389.68 537.8 390.81 537.96 391.98 538.11 393.14 538.25 394.32 538.38 395.51 538.49 396.68 538.6 397.84 538.7 398.98 538.8 400.12 538.88 401.23 538.96 402.35 539.03 403.43 539.09 404.52 539.14 405.59 539.19 406.65 539.22 407.69 539.19 408.75 539.17 409.78 539.16 410.8 539.16 411.79 539.16 411.79 539.16 411.79 539.16 411.79 539.16 411.79M699.82 342.59Q699.82 342.59 699.82 342.59 699.85 343.97 699.94 345.32 699.85 346.66 699.65 347.97 699.45 349.28 699.14 350.56 698.82 351.84 698.4 353.09 697.97 354.34 697.43 355.56 696.89 356.78 696.23 357.97 695.58 359.17 694.81 360.33 694.04 361.5 693.16 362.64 692.28 363.78 691.36 364.89 690.43 366 689.45 367.08 688.48 368.16 687.46 369.21 686.44 370.26 685.38 371.28 684.32 372.3 683.22 373.29 682.12 374.28 680.98 375.24 679.84 376.2 678.66 377.14 677.48 378.07 676.26 378.97 675.05 379.88 673.83 380.75 672.62 381.62 671.41 382.45 670.2 383.29 668.98 384.09 667.77 384.89 666.56 385.66 665.36 386.43 664.15 387.17 662.95 387.9 661.74 388.61 660.55 389.31 659.35 389.98 658.15 390.65 656.96 391.28 655.77 391.92 654.64 392.51 653.51 393.11 652.44 393.66 651.37 394.21 650.35 394.72 649.34 395.23 648.39 395.7 647.44 396.17 646.54 396.59 645.65 397.02 644.81 397.4 643.97 397.78 643.19 398.11 642.41 398.45 641.68 398.75 641.68 398.75 641.68 398.75 641.28 400.77 640.88 402.8 640.48 404.82 640.07 406.84 639.66 408.85 639.24 410.87 638.82 412.87 638.4 414.87 637.97 416.87 637.54 418.87 637.1 420.86 636.66 422.85 636.21 424.83 635.76 426.82 635.31 428.79 634.85 430.77 634.39 432.74 633.93 434.7 633.45 436.67 632.98 438.62 632.5 440.58 632.02 442.53 631.53 444.48 631.04 446.42 630.55 448.37 630.05 450.3 629.54 452.24 629.04 454.17 628.52 456.1 628.01 458.02 627.49 459.94 626.97 461.85 626.44 463.77 625.91 465.68 625.37 467.58 624.83 469.49 624.29 471.39 623.75 473.29 623.19 475.19 622.64 477.08 622.08 478.97 621.52 480.86 620.96 482.74 620.39 484.63 619.81 486.51 619.24 488.38 618.65 490.26 618.07 492.13 617.48 493.99 616.89 495.86 616.29 497.72 615.69 499.58 615.09 501.44 614.48 503.29 613.86 505.14 613.25 506.99 612.63 508.84 612 510.68 611.37 512.52 610.74 514.36 610.1 516.19 609.46 518.02 608.82 519.85 608.17 521.67 608.17 521.67 608.17 521.67 607.47 523.62 606.78 525.55 606.08 527.47 605.38 529.39 604.67 531.31 603.97 533.21 603.26 535.11 602.55 537 601.84 538.89 601.12 540.77 600.4 542.64 599.69 544.51 598.96 546.37 598.24 548.22 597.51 550.07 596.79 551.91 596.06 553.74 595.32 555.58 594.57 557.41 593.81 559.24 593.05 561.06 592.28 562.88 591.51 564.7 590.73 566.52 589.95 568.33 589.16 570.15 588.37 571.96 587.57 573.76 586.77 575.57 585.97 577.37 585.17 579.17 584.36 580.97 584.36 580.97 584.36 580.97 583.63 582.59 582.85 584.3 582.07 586 581.24 587.78 580.41 589.56 579.54 591.43 579.1 592.36 578.66 593.31 578.21 594.27 577.76 595.24 577.31 596.22 576.86 597.18 576.41 598.15 575.96 599.1 575.52 600.05 575.08 600.99 574.65 601.94 574.22 602.87 573.79 603.8 573.37 604.72 572.95 605.64 572.53 606.55 572.12 607.46 571.71 608.35 571.3 609.25 570.9 610.14 570.51 611.03 570.12 611.89 569.74 612.75 569.37 613.58 568.63 615.24 567.94 616.78 567.26 618.32 566.62 619.75 565.99 621.17 565.4 622.47 564.81 623.78 564.32 624.8 563.83 625.83 563.43 626.57 563.04 627.32 562.72 627.78 562.56 628.01 562.43 628.15 562.35 628.16 562.23 628.25 562.23 628.25 562.23 628.25 562.09 628.36 561.93 628.54 561.83 628.56 561.76 628.49 561.68 628.42 561.64 628.26 561.6 628.1 561.6 627.85 561.59 627.6 561.61 627.26 561.63 626.92 561.68 626.49 561.73 626.07 561.82 625.55 561.9 625.03 562.01 624.43 562.12 623.82 562.24 623.17 562.36 622.52 562.5 621.83 562.63 621.14 562.77 620.41 562.92 619.68 563.08 618.9 563.23 618.13 563.4 617.32 563.56 616.5 563.74 615.65 563.92 614.79 564.11 613.9 564.29 613 564.49 612.06 564.69 611.12 564.89 610.17 565.09 609.21 565.29 608.24 565.49 607.27 565.7 606.28 565.9 605.29 566.11 604.28 566.32 603.27 566.53 602.24 566.74 601.22 566.96 600.18 567.17 599.13 567.39 598.07 567.61 597.01 567.84 595.93 568.06 594.86 568.28 593.8 568.49 592.75 568.7 591.72 568.91 590.69 569.12 589.68 569.32 588.68 569.52 587.7 569.72 586.72 569.91 585.76 570.11 584.8 570.3 583.87 570.68 582 571.05 580.24 571.05 580.24 571.05 580.24 571.32 578.85 571.6 577.46 571.87 576.06 572.14 574.67 572.41 573.28 572.68 571.88 572.94 570.49 573.21 569.09 573.47 567.69 573.73 566.29 573.98 564.9 574.24 563.5 574.49 562.09 574.74 560.69 574.99 559.29 575.24 557.89 575.49 556.48 575.73 555.08 575.98 553.67 576.22 552.26 576.46 550.85 576.7 549.44 576.94 548.03 577.17 546.62 577.41 545.21 577.64 543.79 577.87 542.38 578.1 540.96 578.33 539.55 578.56 538.13 578.78 536.71 579.01 535.29 579.23 533.87 579.45 532.45 579.67 531.03 579.89 529.61 580.11 528.18 580.33 526.76 580.54 525.33 580.76 523.9 580.97 522.48 581.18 521.05 581.4 519.62 581.61 518.19 581.81 516.75 582.02 515.32 582.23 513.89 582.43 512.45 582.64 511.01 582.84 509.58 583.04 508.14 583.24 506.7 583.44 505.26 583.64 503.82 583.84 502.37 584.04 500.93 584.23 499.49 584.43 498.04 584.62 496.59 584.82 495.14 585.01 493.7 585.2 492.24 585.39 490.79 585.58 489.34 585.58 489.34 585.58 489.34 585.73 488.13 585.89 486.91 586.05 485.7 586.2 484.49 586.35 483.28 586.51 482.07 586.66 480.86 586.81 479.66 586.96 478.45 587.11 477.25 587.25 476.04 587.4 474.84 587.55 473.64 587.69 472.44 587.84 471.24 587.98 470.04 588.12 468.84 588.26 467.64 588.41 466.45 588.55 465.25 588.68 464.06 588.82 462.87 588.96 461.68 589.1 460.49 589.23 459.3 589.37 458.11 589.5 456.92 589.64 455.74 589.77 454.55 589.9 453.37 590.03 452.18 590.17 451 590.3 449.82 590.43 448.63 590.55 447.45 590.68 446.26 590.81 445.07 590.93 443.88 591.06 442.68 591.18 441.49 591.31 440.29 591.43 439.09 591.55 437.89 591.67 436.68 591.79 435.48 591.91 434.27 592.03 433.06 592.14 431.85 592.26 430.64 592.37 429.42 592.49 428.21 592.6 426.99 592.71 425.77 592.83 424.54 592.94 423.32 593.05 422.09 593.16 420.87 593.26 419.63 593.37 418.4 593.48 417.17 593.59 415.93 593.69 414.69 593.8 413.45 593.9 412.21 593.9 412.21 593.9 412.21 592.99 412.58 592.07 412.93 591.16 413.28 590.24 413.61 589.33 413.94 588.41 414.24 587.5 414.54 586.58 414.82 585.66 415.11 584.75 415.36 583.83 415.62 582.91 415.86 582 416.09 581.08 416.3 580.16 416.52 579.24 416.71 579.24 416.71 579.24 416.71 578.5 416.86 577.65 416.97 576.81 417.09 575.86 417.17 574.91 417.25 573.85 417.29 572.79 417.33 571.63 417.34 570.47 417.35 569.34 417.26 568.21 417.17 567.11 416.97 566.02 416.78 564.95 416.49 563.88 416.2 562.83 415.81 561.79 415.42 560.83 414.9 559.86 414.38 558.97 413.72 558.08 413.07 557.27 412.28 556.45 411.5 555.71 410.58 554.97 409.66 554.42 408.55 553.86 407.44 553.49 406.14 553.12 404.84 552.93 403.36 552.75 401.87 552.75 400.19 552.75 400.19 552.75 400.19 552.75 398.8 552.83 397.42 552.92 396.05 553.09 394.71 553.26 393.36 553.52 392.04 553.78 390.72 554.13 389.42 554.47 388.12 554.91 386.85 555.35 385.57 555.89 384.32 556.42 383.06 557.05 381.83 557.68 380.59 558.41 379.38 559.15 378.16 559.94 376.96 560.73 375.75 561.59 374.57 562.45 373.38 563.38 372.21 564.31 371.03 565.3 369.87 566.3 368.7 567.37 367.55 568.44 366.4 569.57 365.26 570.71 364.12 571.91 362.99 573.12 361.86 574.39 360.74 575.67 359.62 576.99 358.51 577.65 357.96 578.32 357.41 578.99 356.86 579.67 356.31 580.35 355.77 581.04 355.22 581.73 354.68 582.43 354.14 583.13 353.6 583.84 353.07 584.56 352.53 585.28 352 586 351.47 586.73 350.95 587.47 350.43 588.21 349.91 588.95 349.39 589.7 348.88 590.45 348.37 591.22 347.86 591.98 347.35 592.75 346.85 593.52 346.35 594.3 345.85 595.08 345.35 595.86 344.85 596.65 344.35 597.45 343.86 598.24 343.36 599.04 342.87 599.83 342.37 600.62 341.88 601.41 341.39 602.2 340.9 602.99 340.41 603.77 339.93 604.56 339.44 605.34 338.96 606.12 338.48 606.9 338.01 607.69 337.53 608.46 337.07 609.24 336.6 610.02 336.14 610.8 335.68 611.58 335.22 612.35 334.77 613.13 334.33 613.9 333.9 614.68 333.47 615.46 333.04 616.23 332.63 617.01 332.22 617.78 331.82 618.56 331.42 619.33 331.04 620.11 330.67 620.89 330.31 621.66 329.95 622.44 329.61 623.22 329.28 623.99 328.95 624.76 328.62 625.53 328.3 626.29 327.97 627.04 327.64 627.79 327.3 628.52 326.96 629.26 326.6 629.98 326.25 630.71 325.89 631.42 325.54 632.85 324.82 634.25 324.14 635.65 323.46 637.02 322.82 638.39 322.18 639.73 321.58 641.07 321 642.39 320.49 643.72 319.99 645.01 319.53 646.31 319.07 647.53 318.65 648.74 318.21 649.88 317.8 651.02 317.39 652.08 317.02 653.15 316.65 654.14 316.32 655.13 315.97 656.04 315.64 656.95 315.31 657.78 315.02 658.62 314.72 659.39 314.47 660.15 314.22 660.84 314.02 660.84 314.02 660.84 314.02 662.17 313.68 663.56 313.43 664.94 313.18 666.37 312.96 667.08 312.85 667.81 312.75 668.53 312.63 669.25 312.49 669.97 312.34 670.7 312.19 671.44 312.05 672.18 311.92 672.92 311.78 673.65 311.69 674.39 311.6 675.11 311.56 675.83 311.52 676.55 311.52 677.27 311.52 677.97 311.57 678.68 311.62 679.38 311.73 680.08 311.83 680.78 311.98 682.17 312.31 683.55 312.85 684.96 313.46 686.31 314.42 687.72 315.49 689.08 316.94 690.52 318.52 691.9 320.4 693.33 322.3 694.63 324.34 695.91 326.28 696.91 328.39 697.88 330.43 698.56 332.68 698.89 333.79 699.15 334.96 699.4 336.14 699.58 337.37 699.76 338.61 699.83 339.91 699.79 341.21 699.82 342.59 699.82 342.59 699.82 342.59" class="warpedPath"></path></svg>