<svg id="warpedSvg40" xmlns="http://www.w3.org/2000/svg" data-id="40" data-media-id="WQJu14w4ECU" style="visibility: visible" viewBox="7.991999626159668 235.11000061035156 994.0205078125 526.530029296875" width="999.0205078125px" height="531.530029296875px">
        <defs>
            <linearGradient id="sampleGradient" gradientTransform="rotate(1)" x1="0%" y1="50%" x2="100%" y2="50%" gradientUnits="userSpaceOnUse">
                <stop offset="0%" id="first_color" stop-color="#6b6fff"></stop>
                <stop offset="100%" id="second_color" stop-color="#bc91c1"></stop>
            </linearGradient>
            <filter id="contrast0">
                <feComponentTransfer>
                    <feFuncR type="linear" slope="1"></feFuncR>
                    <feFuncG type="linear" slope="1"></feFuncG>
                    <feFuncB type="linear" slope="1"></feFuncB>
                </feComponentTransfer>
            </filter>
            <filter id="contrast1">
                <feComponentTransfer>
                    <feFuncR type="linear" slope="1"></feFuncR>
                    <feFuncG type="linear" slope="1"></feFuncG>
                    <feFuncB type="linear" slope="1"></feFuncB>
                </feComponentTransfer>
            </filter>
        </defs>
    <path fill="#5e4374" d="M253.13 437.12Q253.26 438.28 253.17 439.49 253.04 440.7 252.92 441.91 252.79 443.12 252.66 444.34 252.54 445.55 252.41 446.76 252.29 447.97 252.16 449.18 252.03 450.39 251.91 451.61 251.78 452.82 251.65 454.03 251.52 455.24 251.4 456.45 251.27 457.66 251.14 458.87 251.01 460.08 250.88 461.29 250.76 462.5 250.63 463.7 250.5 464.91 250.37 466.12 250.24 467.33 250.11 468.54 249.98 469.74 249.85 470.95 249.72 472.16 249.59 473.36 249.46 474.57 249.33 475.78 249.2 476.98 249.07 478.19 248.94 479.39 248.81 480.6 248.68 481.8 248.55 483 248.42 484.21 248.29 485.41 248.15 486.61 248.02 487.81 247.89 489.02 247.76 490.22 247.63 491.42 247.49 492.61 247.36 493.81 247.23 495.01 247.09 496.2 246.96 497.4 246.82 498.59 246.69 499.78 246.55 500.97 246.41 502.16 246.27 503.34 246.13 504.52 245.99 505.69 245.85 506.85 245.7 508 245.54 509.14 245.38 510.26 245.21 511.34 245.03 512.4 244.84 513.28 243.06 513.37 241.28 513.53 239.5 513.68 237.72 513.84 235.94 514 234.16 514.15 232.38 514.31 230.6 514.46 228.82 514.61 227.04 514.76 225.26 514.91 223.48 515.06 221.7 515.22 219.92 515.38 218.14 515.54 216.36 515.7 214.58 515.87 212.8 516.02 211.02 516.17 209.24 516.32 207.46 516.47 205.68 516.61 203.9 516.76 202.12 516.92 200.34 517.08 198.56 517.24 196.78 517.4 195 517.56 193.23 517.77 191.46 518.02 189.69 518.27 187.93 518.52 186.16 518.77 184.39 519.02 182.62 519.25 180.85 519.48 179.08 519.71 177.31 519.94 175.54 520.16 173.76 520.37 171.99 520.55 170.21 520.74 168.44 520.92 166.66 521.1 164.88 521.28 163.12 521.57 161.36 521.86 159.59 522.15 157.83 522.45 156.07 522.74 154.3 522.98 152.52 523.13 150.74 523.27 148.96 523.42 147.18 523.57 145.4 523.72 143.63 523.97 141.86 524.23 140.1 524.49 138.33 524.75 136.56 525.01 134.8 525.29 133.04 525.58 131.27 525.87 129.51 526.17 127.75 526.46 125.99 526.76 124.22 527.05 122.46 527.34 120.7 527.64 118.94 527.93 117.18 528.22 115.41 528.52 113.65 528.81 111.89 529.1 110.13 529.4 108.36 529.69 106.6 529.99 104.84 530.28 103.08 530.57 101.31 530.87 99.55 531.16 97.79 531.45 96.03 531.75 94.26 532.04 92.5 532.34 90.74 532.63 88.98 532.92 87.21 533.22 85.46 533.55 83.71 533.92 81.96 534.28 80.21 534.64 78.47 535 76.72 535.36 74.97 535.74 73.22 536.11 71.48 536.48 69.73 536.85 67.98 537.22 66.23 537.55 64.46 537.85 62.7 538.15 60.94 538.45 59.18 538.75 57.42 539.06 55.69 539.49 53.96 539.93 52.22 540.36 50.49 540.79 48.76 541.22 47.02 541.64 45.28 542.05 43.54 542.46 41.8 542.87 40.06 543.27 38.32 543.68 36.58 544.08 34.84 544.48 33.1 544.88 31.36 545.28 29.62 545.68 28.04 546.08 26.65 546.48 25.26 546.87 23.87 547.26 22.49 547.66 21.17 548.07 20.26 545.32 19.35 542.3 18.44 539.29 17.57 536.39 17.2 534.84 16.83 533.3 16.46 531.76 16.11 530.22 15.81 528.67 15.5 527.12 15.2 525.57 14.92 524.02 14.69 522.46 14.46 520.9 14.22 519.34 14.02 517.77 13.85 516.2 13.69 514.63 13.52 513.07 13.4 511.49 13.3 509.92 13.2 508.34 13.1 506.77 13.05 505.19 13.03 503.62 13 502.04 12.98 500.46 13.01 498.88 13.05 497.31 13.09 495.73 13.14 494.15 13.24 492.58 13.35 491.01 13.47 489.43 13.58 487.86 13.76 486.29 13.94 484.73 14.12 483.16 14.31 481.59 14.56 480.04 14.81 478.48 15.06 476.92 15.33 475.37 15.64 473.82 15.96 472.28 16.28 470.73 16.62 469.19 17 467.66 17.38 466.13 17.76 464.6 18.18 463.08 18.62 461.56 19.06 460.05 19.51 458.54 19.99 457.04 20.5 455.54 21 454.05 21.51 452.55 22.06 451.07 22.62 449.6 23.18 448.13 23.75 446.65 24.36 445.2 24.98 443.75 25.6 442.3 26.22 440.85 26.9 439.42 27.57 438 28.25 436.57 28.93 435.15 29.65 433.75 30.38 432.35 31.1 430.95 31.84 429.55 32.61 428.18 33.38 426.8 34.15 425.43 34.94 424.06 35.76 422.71 36.57 421.36 37.39 420.01 38.23 418.68 39.09 417.35 39.95 416.03 40.81 414.71 41.69 413.4 42.6 412.11 43.5 410.82 44.4 409.52 45.33 408.25 46.26 406.98 47.2 405.71 48.14 404.44 49.11 403.2 50.08 401.96 51.06 400.72 52.03 399.48 53.04 398.26 54.05 397.05 55.05 395.83 56.06 394.62 57.1 393.43 58.14 392.25 59.18 391.06 60.22 389.88 61.29 388.72 62.36 387.56 63.43 386.4 64.5 385.25 65.6 384.11 66.69 382.98 67.79 381.84 68.9 380.72 70.02 379.61 71.14 378.5 72.26 377.39 73.4 376.3 74.54 375.21 75.69 374.13 76.83 373.04 78 371.98 79.16 370.92 80.33 369.86 81.5 368.8 82.69 367.76 83.88 366.72 85.07 365.69 86.24 364.64 87.97 363.22 89.69 361.79 91.41 360.37 93.16 358.97 94.9 357.57 96.66 356.19 98.43 354.82 100.19 353.45 101.98 352.11 103.77 350.78 105.57 349.44 107.38 348.14 109.2 346.84 111.02 345.54 112.86 344.27 114.69 342.99 116.54 341.74 118.4 340.49 120.25 339.25 122.13 338.03 124 336.81 125.88 335.6 127.77 334.41 129.67 333.22 131.57 332.05 133.48 330.89 135.39 329.73 137.31 328.58 139.24 327.45 141.16 326.32 143.1 325.21 145.05 324.1 146.99 323 148.95 321.92 150.9 320.84 152.87 319.77 154.84 318.72 156.81 317.66 158.79 316.62 160.77 315.59 162.75 314.57 164.75 313.56 166.74 312.55 168.74 311.55 170.75 310.57 172.76 309.59 174.77 308.62 176.79 307.66 178.81 306.7 180.84 305.76 182.87 304.83 184.9 303.89 186.94 302.98 188.98 302.07 191.02 301.16 193.07 300.27 195.12 299.38 197.18 298.5 199.24 297.64 201.3 296.77 203.36 295.92 205.43 295.07 207.5 294.23 209.58 293.4 209.36 294.64 209.15 295.89 208.94 297.15 208.74 298.41 208.53 299.68 208.33 300.94 208.13 302.21 207.93 303.48 207.74 304.75 207.54 306.01 207.35 307.28 207.16 308.54 206.97 309.81 206.77 311.07 206.58 312.33 206.39 313.59 206.21 314.84 206.02 316.1 205.83 317.35 205.65 318.6 205.46 319.85 205.28 321.09 205.09 322.34 204.91 323.58 204.73 324.82 204.55 326.06 204.37 327.29 204.19 328.53 204.02 329.76 203.84 330.99 203.67 332.22 203.49 333.45 203.32 334.68 203.15 335.91 202.99 337.13 202.82 338.35 202.65 339.58 202.49 340.8 202.33 342.02 202.17 343.23 202.01 344.45 201.86 345.67 201.7 346.88 201.55 348.1 201.4 349.31 201.25 350.52 201.1 351.73 200.96 352.94 200.81 354.15 200.67 355.36 200.53 356.57 200.39 357.78 200.25 358.99 200.11 360.19 199.98 361.4 199.85 362.6 199.71 363.81 199.58 365.01 199.46 366.22 199.33 367.42 199.2 368.62 199.08 369.82 198.95 371.02 198.83 372.23 198.71 373.43 198.59 374.63 198.47 375.83 198.36 377.03 198.24 378.23 198.13 379.43 198.01 380.63 197.9 381.83 197.79 383.03 197.68 384.22 197.57 385.42 197.46 386.62 197.35 387.82 197.25 389.02 197.14 390.21 197.04 391.41 196.93 392.61 196.83 393.81 196.73 395 196.63 396.2 196.53 397.4 196.43 398.59 196.34 399.79 196.24 400.99 196.14 402.18 196.05 403.38 195.96 404.58 195.86 405.77 195.77 406.97 195.68 408.17 195.59 409.36 195.5 410.56 195.42 411.76 195.33 412.95 195.24 414.15 195.16 415.35 195.08 416.54 194.99 417.74 194.91 418.93 194.83 420.13 194.75 421.33 194.67 422.52 194.59 423.72 194.51 424.91 194.44 426.11 194.36 427.31 194.28 428.5 194.21 429.7 194.14 430.89 194.06 432.09 193.99 433.28 193.92 434.48 193.85 435.67 193.78 436.87 193.71 438.06 193.65 439.26 193.58 440.45 193.51 441.65 193.45 442.84 193.38 444.03 193.32 445.23 193.26 446.42 193.19 447.62 193.13 448.81 195.05 448.45 196.96 448.1 198.87 447.74 200.77 447.39 202.68 447.03 204.58 446.67 206.48 446.31 208.38 445.95 210.28 445.59 212.18 445.23 214.07 444.87 215.96 444.51 217.85 444.15 219.74 443.79 221.63 443.42 223.51 443.06 225.39 442.69 227.28 442.32 229.15 441.95 231.03 441.58 232.91 441.21 234.78 440.84 236.65 440.47 238.52 440.1 240.39 439.72 242.26 439.34 244.12 438.97 245.98 438.59 247.84 438.21 249.7 437.83 251.56 437.44 253.13 437.12 253.13 437.12 253.13 437.12M265.17 391.77Q265.17 390.8 265.18 389.84 265.19 388.88 265.2 387.92 265.21 386.97 265.23 386.02 265.25 385.07 265.28 384.13 265.33 382.26 265.41 380.41 265.49 378.56 265.6 376.74 265.71 374.93 265.84 373.14 265.98 371.35 266.14 369.59 266.3 367.84 266.48 366.11 266.67 364.38 266.89 362.68 267.1 360.99 267.34 359.32 267.58 357.65 267.85 356.01 268.12 354.37 268.41 352.76 268.71 351.16 269.03 349.58 269.35 348 269.7 346.44 270.04 344.89 270.42 343.37 270.79 341.85 271.2 340.35 271.6 338.86 272.03 337.39 272.46 335.92 272.91 334.49 273.37 333.05 273.85 331.64 274.33 330.22 274.84 328.84 275.35 327.45 275.89 326.09 276.42 324.73 276.99 323.4 277.55 322.07 278.14 320.76 278.73 319.45 279.34 318.17 279.96 316.88 280.6 315.62 281.25 314.36 281.92 313.12 282.59 311.88 283.29 310.67 283.98 309.45 284.71 308.26 285.43 307.06 286.18 305.89 286.93 304.72 287.71 303.57 288.49 302.41 289.3 301.28 290.1 300.14 290.93 299.03 291.77 297.92 292.62 296.83 293.48 295.73 294.38 294.65 295.28 293.57 296.21 292.5 297.14 291.43 298.1 290.37 299.07 289.32 300.07 288.28 301.08 287.23 302.12 286.21 303.15 285.18 304.23 284.17 305.3 283.15 306.42 282.16 307.53 281.17 308.68 280.19 309.82 279.21 311.01 278.26 312.19 277.3 313.41 276.37 314.63 275.44 315.89 274.52 317.15 273.61 318.45 272.72 319.74 271.83 321.07 270.97 322.4 270.11 323.77 269.27 325.14 268.43 326.55 267.61 327.95 266.8 329.4 266.02 330.84 265.23 332.32 264.47 333.8 263.71 335.32 262.98 336.83 262.25 338.39 261.55 339.94 260.85 341.53 260.18 343.13 259.51 344.76 258.87 346.39 258.23 348.05 257.61 349.72 257 351.42 256.42 353.13 255.84 354.87 255.29 356.61 254.75 358.38 254.23 360.16 253.71 361.98 253.23 362.89 252.99 363.8 252.75 364.72 252.52 365.65 252.29 366.57 252.06 367.51 251.85 368.44 251.63 369.39 251.42 370.33 251.22 371.29 251.01 372.24 250.81 373.2 250.62 374.17 250.43 375.14 250.25 376.11 250.06 377.1 249.89 378.08 249.71 379.07 249.54 380.06 249.38 381.06 249.22 382.06 249.07 383.07 248.92 384.08 248.77 385.1 248.63 386.12 248.49 387.13 248.36 388.14 248.23 389.14 248.12 390.14 248 391.13 247.89 392.13 247.79 393.11 247.69 394.09 247.6 395.07 247.51 396.04 247.43 397.01 247.35 397.97 247.28 398.93 247.22 399.89 247.16 400.83 247.11 401.78 247.06 402.72 247.01 403.66 246.97 404.58 246.95 405.51 246.92 406.43 246.9 407.35 246.88 408.26 246.87 410.08 246.86 411.87 246.88 413.65 246.91 415.4 246.98 417.15 247.05 418.86 247.16 420.57 247.27 422.24 247.42 423.92 247.57 425.55 247.77 427.19 247.96 428.79 248.19 430.38 248.43 431.94 248.7 433.5 248.98 435.03 249.29 436.55 249.61 438.03 249.96 439.51 250.32 440.96 250.71 442.4 251.1 443.81 251.53 445.22 251.97 446.58 252.44 447.95 252.91 449.28 253.42 450.61 253.93 451.89 254.47 453.18 255.02 454.43 255.6 455.67 256.19 456.88 256.8 458.09 257.42 459.25 258.08 460.42 258.73 461.54 259.42 462.66 260.12 463.74 260.84 464.82 261.57 465.86 262.32 466.9 263.08 467.89 263.88 468.88 264.67 469.84 265.5 470.78 266.32 471.69 267.18 472.59 268.04 473.46 268.93 474.32 269.82 475.13 270.74 475.95 271.66 476.72 272.61 477.49 273.57 478.22 274.56 478.96 275.55 479.66 276.58 480.35 277.61 481.02 278.68 481.68 279.75 482.31 280.86 482.93 281.96 483.53 283.11 484.12 284.26 484.68 285.44 485.24 286.63 485.77 287.85 486.3 289.07 486.8 290.34 487.3 291.6 487.78 292.9 488.26 294.2 488.71 295.54 489.17 296.89 489.61 298.27 490.06 299.65 490.49 301.07 490.93 302.49 491.35 303.95 491.78 305.41 492.19 306.91 492.61 308.41 493.01 309.94 493.42 311.48 493.81 313.06 494.19 314.64 494.56 316.26 494.93 317.88 495.28 319.54 495.63 321.2 495.95 322.9 496.28 324.59 496.58 326.33 496.88 328.07 497.16 329.85 497.44 331.63 497.69 333.45 497.95 335.27 498.18 337.13 498.41 338.99 498.61 340.88 498.82 342.78 499 344.72 499.18 346.66 499.33 348.64 499.49 350.62 499.62 352.64 499.74 354.66 499.85 356.72 499.95 358.78 500.03 360.88 500.11 362.98 500.16 365.12 500.18 366.19 500.16 367.27 500.14 368.35 500.13 369.44 500.12 370.53 500.11 371.63 500.1 372.73 500.1 373.84 500.1 374.95 500.11 376.05 500.12 377.15 500.13 378.24 500.14 379.33 500.16 380.41 500.18 381.5 500.15 382.57 500.1 384.72 500.02 386.84 499.94 388.95 499.83 391.03 499.72 393.11 499.59 395.15 499.45 397.2 499.29 399.21 499.13 401.22 498.94 403.19 498.75 405.17 498.53 407.11 498.32 409.04 498.07 410.95 497.83 412.85 497.56 414.72 497.29 416.59 496.99 418.42 496.69 420.25 496.37 422.05 496.04 423.85 495.69 425.61 495.34 427.37 494.96 429.1 494.58 430.82 494.17 432.51 493.76 434.2 493.33 435.85 492.89 437.5 492.43 439.12 491.97 440.74 491.48 442.32 490.99 443.9 490.47 445.44 489.96 446.98 489.41 448.49 488.87 450 488.3 451.47 487.73 452.93 487.13 454.37 486.53 455.8 485.9 457.19 485.27 458.58 484.62 459.94 483.96 461.29 483.28 462.61 482.6 463.93 481.89 465.2 481.18 466.48 480.44 467.72 479.7 468.96 478.93 470.16 478.17 471.35 477.37 472.51 476.58 473.67 475.76 474.79 474.94 475.9 474.09 476.98 473.24 478.06 472.36 479.1 471.48 480.13 470.57 481.13 469.66 482.13 468.71 483.09 467.76 484.06 466.78 484.98 465.8 485.9 464.78 486.79 463.77 487.68 462.72 488.53 461.67 489.37 460.58 490.18 459.5 490.99 458.38 491.77 457.26 492.54 456.11 493.28 454.96 494.01 453.77 494.71 452.58 495.41 451.36 496.07 450.14 496.73 448.89 497.36 447.63 497.99 446.34 498.59 445.05 499.19 443.73 499.77 442.41 500.34 441.05 500.88 439.69 501.42 438.3 501.93 436.91 502.44 435.48 502.91 434.06 503.38 432.6 503.81 431.14 504.23 429.65 504.6 428.16 504.96 426.64 505.28 425.11 505.59 423.55 505.87 422 506.15 420.4 506.43 418.81 506.73 417.18 507.02 415.55 507.32 413.89 507.59 412.23 507.87 410.53 508.11 408.83 508.36 407.1 508.58 405.37 508.79 403.61 508.98 401.84 509.17 400.04 509.32 399.14 509.4 398.24 509.47 397.33 509.54 396.41 509.6 395.5 509.66 394.57 509.72 393.65 509.77 392.71 509.82 391.78 509.86 390.84 509.9 389.9 509.94 388.95 509.97 388 509.99 387.04 509.97 386.09 509.94 385.12 509.93 384.15 509.91 383.18 509.9 382.2 509.9 381.22 509.9 380.24 509.9 379.26 509.9 378.29 509.91 377.32 509.93 376.35 509.94 375.4 509.96 374.44 509.99 373.49 509.97 372.54 509.94 371.6 509.9 370.66 509.87 369.73 509.82 368.8 509.78 367.88 509.72 366.96 509.67 366.04 509.61 365.13 509.55 364.22 509.48 363.32 509.41 362.42 509.34 360.63 509.19 358.88 509.01 357.12 508.82 355.4 508.61 353.67 508.4 351.99 508.16 350.3 507.93 348.65 507.66 347 507.39 345.38 507.09 343.76 506.79 342.18 506.46 340.6 506.14 339.05 505.78 337.51 505.43 335.99 505.05 334.48 504.66 333.01 504.25 331.53 503.85 330.09 503.41 328.65 502.98 327.25 502.52 325.84 502.06 324.47 501.59 323.1 501.11 321.77 500.61 320.44 500.12 319.14 499.59 317.84 499.08 316.58 498.53 315.32 497.99 314.09 497.42 312.87 496.86 311.68 496.26 310.49 495.66 309.33 495.03 308.18 494.41 307.06 493.75 305.94 493.09 304.86 492.4 303.78 491.71 302.73 491 301.68 490.28 300.67 489.54 299.66 488.79 298.69 488.02 297.72 487.25 296.78 486.45 295.85 485.65 294.94 484.83 294.05 484 293.18 483.15 292.32 482.3 291.49 481.42 290.67 480.54 289.87 479.63 289.07 478.72 288.3 477.78 287.54 476.84 286.8 475.87 286.06 474.89 285.35 473.89 284.64 472.89 283.95 471.85 283.27 470.81 282.62 469.75 281.96 468.68 281.34 467.58 280.71 466.48 280.11 465.34 279.5 464.21 278.93 463.05 278.35 461.88 277.79 460.68 277.24 459.48 276.71 458.25 276.17 457.02 275.67 455.76 275.15 454.49 274.67 453.19 274.18 451.9 273.71 450.57 273.24 449.24 272.8 447.87 272.36 446.51 271.94 445.11 271.52 443.71 271.13 442.28 270.74 440.85 270.37 439.39 270 437.93 269.66 436.43 269.31 434.93 269 433.4 268.68 431.87 268.39 430.3 268.1 428.74 267.83 427.14 267.57 425.54 267.33 423.91 267.09 422.28 266.88 420.61 266.66 418.94 266.48 417.24 266.29 415.54 266.13 413.81 265.97 412.08 265.84 410.31 265.71 408.54 265.6 406.74 265.49 404.94 265.41 403.1 265.33 401.26 265.28 399.39 265.25 398.46 265.23 397.51 265.21 396.57 265.2 395.62 265.19 394.66 265.18 393.7 265.17 392.74 265.17 391.77 265.17 391.77 265.17 391.77M378.9 444.29Q380.33 444.25 381.77 444.21 383.21 444.17 384.65 444.13 386.08 444.09 387.52 444.05 388.96 444.01 390.39 443.97 390.41 442.24 390.43 440.5 390.45 438.76 390.46 437.02 390.48 435.28 390.5 433.54 390.52 431.8 390.53 430.06 390.55 428.31 390.57 426.57 390.59 424.82 390.6 423.08 390.62 421.33 390.64 419.58 390.66 417.83 390.67 416.08 390.69 414.33 390.71 412.58 390.73 410.83 390.75 409.07 390.76 407.32 390.78 405.56 390.8 403.8 390.82 402.05 390.84 400.29 390.86 398.53 390.87 396.77 390.89 395.01 390.91 393.24 390.93 391.48 390.95 389.71 390.97 387.95 390.99 386.18 391.01 384.42 391.03 382.65 391.05 380.88 391.07 379.11 391.09 377.33 391.11 375.56 391.13 373.79 391.15 372.01 391.17 370.24 391.19 368.46 391.21 366.68 391.23 364.9 391.25 363.12 391.28 361.33 391.3 359.55 391.32 357.77 391.34 355.98 391.36 354.19 391.39 352.4 391.41 350.61 391.43 348.82 391.46 347.02 391.48 345.23 391.5 343.43 391.53 341.63 391.55 339.83 391.58 338.03 391.6 336.23 391.63 334.42 391.65 332.62 391.68 330.81 390.23 330.95 388.78 331.1 387.34 331.24 385.89 331.39 384.44 331.54 383 331.69 381.55 331.85 380.1 332 380.08 333.8 380.06 335.59 380.04 337.38 380.02 339.17 380 340.96 379.98 342.75 379.96 344.53 379.94 346.32 379.92 348.1 379.9 349.88 379.88 351.66 379.86 353.44 379.84 355.21 379.82 356.99 379.8 358.76 379.78 360.53 379.76 362.3 379.74 364.07 379.72 365.84 379.7 367.6 379.68 369.37 379.66 371.13 379.64 372.89 379.62 374.66 379.6 376.42 379.58 378.17 379.57 379.93 379.55 381.69 379.53 383.44 379.51 385.2 379.49 386.95 379.47 388.71 379.45 390.46 379.44 392.21 379.42 393.96 379.4 395.7 379.38 397.45 379.36 399.2 379.35 400.94 379.33 402.69 379.31 404.43 379.29 406.18 379.27 407.92 379.26 409.66 379.24 411.4 379.22 413.14 379.2 414.87 379.19 416.61 379.17 418.35 379.15 420.08 379.13 421.82 379.11 423.55 379.1 425.29 379.08 427.02 379.06 428.75 379.04 430.48 379.02 432.21 379.01 433.94 378.99 435.66 378.97 437.39 378.95 439.12 378.93 440.84 378.92 442.57 378.9 444.29 378.9 444.29 378.9 444.29M649.35 250.11Q651.02 250.36 652.68 250.61 654.35 250.87 656.01 251.13 657.67 251.39 659.34 251.66 661 251.93 662.66 252.2 664.32 252.48 665.98 252.76 667.64 253.04 669.3 253.33 670.96 253.61 672.61 253.91 674.27 254.21 675.93 254.5 677.58 254.8 679.24 255.11 680.89 255.42 682.55 255.73 684.2 256.05 685.86 256.37 687.51 256.69 689.16 257.01 690.81 257.35 692.46 257.68 694.11 258.01 695.76 258.35 697.41 258.7 699.06 259.04 700.7 259.39 702.35 259.74 703.99 260.1 705.64 260.46 707.28 260.82 708.93 261.19 710.57 261.56 712.21 261.94 713.85 262.31 715.49 262.7 717.13 263.08 718.77 263.46 720.4 263.86 722.04 264.26 723.68 264.66 725.31 265.06 726.94 265.46 728.58 265.87 730.21 266.28 731.84 266.7 733.47 267.12 735.1 267.55 736.73 267.97 738.36 268.4 739.98 268.84 741.61 269.28 743.23 269.72 744.86 270.17 746.48 270.62 748.1 271.07 749.72 271.53 751.34 271.99 752.96 272.45 754.42 272.94 754.4 274.76 754.22 276.62 754.04 278.48 753.86 280.34 753.68 282.21 753.5 284.07 753.32 285.94 753.14 287.8 752.95 289.67 752.77 291.54 752.59 293.41 752.4 295.28 752.22 297.15 752.04 299.03 751.85 300.9 751.67 302.77 751.48 304.65 751.29 306.52 751.1 308.4 750.91 310.27 750.72 312.15 750.52 314.03 750.32 315.91 750.11 317.79 749.89 319.67 749.66 321.55 749.41 323.43 749.16 325.31 748.91 327.19 748.65 329.07 748.39 330.96 748.12 332.84 747.86 334.72 747.59 336.61 747.33 338.49 747.06 340.38 746.79 342.27 746.53 344.15 746.26 346.04 745.99 347.93 745.73 349.82 745.46 351.71 745.19 353.6 744.92 355.49 744.65 357.38 744.39 359.27 744.12 361.16 743.85 363.05 743.58 364.95 743.31 366.84 743.05 368.73 742.78 370.63 742.51 372.52 742.24 374.42 741.98 376.31 741.71 378.21 741.44 380.11 741.17 382 740.9 383.9 740.64 385.8 740.37 387.7 740.1 389.6 739.84 391.5 739.57 393.4 739.3 395.3 739.03 397.21 738.77 399.11 738.5 401.01 738.23 402.92 737.97 404.82 737.7 406.73 737.43 408.63 737.17 410.54 736.9 412.45 736.63 414.36 736.37 416.26 736.1 418.17 735.84 420.09 735.57 422 735.3 423.91 735.04 425.82 734.77 427.74 734.51 429.65 734.24 431.57 733.98 433.48 733.71 435.4 733.45 437.32 733.19 439.24 732.92 441.16 732.66 443.08 732.39 445.01 732.13 446.93 731.87 448.86 731.6 450.79 731.34 452.71 731.08 454.65 730.82 456.58 730.56 458.51 730.29 460.45 730.03 462.39 729.77 464.33 729.51 466.27 729.25 468.22 728.99 470.16 728.73 472.12 728.48 474.07 728.22 476.03 727.96 477.99 727.71 479.95 727.45 481.92 727.2 483.89 726.94 485.87 726.69 487.85 726.44 489.84 726.19 491.83 725.94 493.83 725.69 495.84 725.44 497.85 725.19 499.86 724.95 501.88 724.71 503.91 724.46 505.94 724.22 507.98 723.98 510.02 723.75 512.06 723.51 514.1 723.27 516.15 723.04 518.02 721.74 518.06 720.44 518.1 719.14 518.14 717.84 518.18 716.55 518.25 715.25 518.34 713.96 518.44 712.66 518.53 711.37 518.62 710.07 518.71 708.78 518.81 707.48 518.9 706.18 518.9 704.88 518.9 703.58 518.9 702.28 518.9 700.98 518.9 699.68 518.9 698.38 518.9 697.08 518.9 695.78 518.9 694.48 518.9 693.18 518.9 691.88 518.9 690.58 518.9 689.28 518.9 687.98 518.9 686.68 518.9 685.38 518.9 684.08 518.9 682.78 518.9 681.48 518.9 680.18 518.9 678.88 518.9 677.58 518.9 676.28 518.9 674.98 518.9 673.68 518.9 672.38 518.9 671.08 518.9 669.78 518.9 668.48 518.9 667.18 518.9 665.88 518.9 664.58 518.9 663.28 518.9 661.98 518.9 660.68 518.9 659.38 518.9 658.08 518.9 656.78 518.9 655.48 518.9 654.18 518.9 652.88 518.9 651.58 518.9 650.28 518.9 648.98 518.9 647.68 518.89 646.38 518.89 645.08 518.88 643.78 518.87 642.48 518.86 641.18 518.85 639.88 518.84 638.58 518.83 637.29 518.73 635.99 518.61 634.7 518.49 633.41 518.37 632.11 518.24 630.82 518.12 629.52 518 628.23 517.9 626.93 517.9 625.63 517.9 624.33 517.9 623.03 517.9 621.73 517.9 620.43 517.9 619.13 517.9 617.83 517.89 616.53 517.87 615.23 517.85 613.93 517.83 612.63 517.81 611.33 517.79 610.04 517.77 608.74 517.75 607.44 517.64 606.15 517.53 604.85 517.42 603.56 517.31 602.27 517.19 600.97 517.08 599.68 516.97 598.38 516.9 597.08 516.9 595.78 516.9 594.48 516.9 593.18 516.9 591.88 516.9 590.58 516.9 589.28 516.9 587.98 516.87 586.69 516.83 585.39 516.79 584.09 516.75 582.79 516.72 581.49 516.68 580.19 516.64 578.9 516.59 577.6 516.5 576.31 516.41 575.01 516.31 573.72 516.22 572.42 516.13 571.12 516.03 569.83 515.94 568.53 515.87 567.23 515.82 565.94 515.78 564.64 515.73 563.34 515.68 562.04 515.63 560.75 515.59 559.45 515.54 558.15 515.46 556.86 515.37 556.47 513.44 556.08 511.31 555.67 509.19 555.26 507.07 554.85 504.95 554.43 502.83 554 500.71 553.57 498.58 553.14 496.45 552.7 494.32 552.26 492.19 551.81 490.06 551.37 487.92 550.92 485.78 550.46 483.64 550.01 481.5 549.56 479.36 549.1 477.22 548.65 475.07 548.19 472.93 547.74 470.78 547.29 468.64 546.85 466.49 546.41 464.35 545.97 462.2 545.53 460.05 545.11 457.9 544.68 455.75 544.27 453.61 543.86 451.46 543.45 449.31 543.05 447.16 542.66 445.01 542.27 442.86 541.89 440.71 541.51 438.55 541.14 436.4 540.77 434.25 540.41 432.1 540.06 429.95 539.7 427.8 539.35 425.64 539 423.49 538.66 421.34 538.32 419.19 537.98 417.03 537.65 414.88 537.31 412.73 536.98 410.57 536.65 408.42 536.33 406.26 536 404.11 535.68 401.95 535.36 399.8 535.04 397.64 534.72 395.49 534.4 393.33 534.08 391.18 533.76 389.02 533.45 386.87 533.13 384.71 532.82 382.55 532.51 380.4 532.19 378.24 531.88 376.08 531.57 373.93 531.26 371.77 530.95 369.61 530.64 367.45 530.34 365.3 530.03 363.14 529.72 360.98 529.41 358.82 529.11 356.66 528.8 354.5 528.49 352.35 528.19 350.19 527.88 348.03 527.58 345.87 527.27 343.71 526.97 341.55 526.67 339.39 526.36 337.23 526.06 335.07 525.76 332.91 525.45 330.75 525.15 328.59 524.85 326.43 524.55 324.27 524.24 322.11 523.94 319.95 523.64 317.79 523.34 315.63 523.04 313.47 522.74 311.31 522.44 309.15 522.13 306.99 521.83 304.83 521.53 302.67 521.23 300.51 520.93 298.35 520.63 296.19 520.33 294.03 520.03 291.87 519.73 289.71 519.43 287.55 519.13 285.39 518.83 283.23 518.53 281.07 518.23 278.91 517.93 276.75 517.63 274.6 517.33 272.44 517.03 270.28 516.74 268.12 516.44 265.96 516.14 263.81 515.84 261.65 515.54 259.49 515.24 257.34 514.94 255.18 514.64 253.03 514.34 250.87 514.04 248.72 513.74 246.57 513.45 244.41 513.15 242.26 512.85 240.11 514.6 240.12 516.36 240.12 518.12 240.13 519.87 240.14 521.63 240.16 523.38 240.18 525.14 240.2 526.89 240.23 528.65 240.26 530.4 240.29 532.16 240.32 533.91 240.36 535.67 240.4 537.43 240.44 539.18 240.49 540.94 240.55 542.69 240.6 544.44 240.65 546.2 240.72 547.95 240.78 549.71 240.84 551.46 240.92 553.22 240.99 554.97 241.06 556.72 241.14 558.48 241.23 560.23 241.31 561.99 241.4 563.74 241.5 565.49 241.59 567.25 241.69 569 241.79 570.75 241.9 572.5 242.01 574.25 242.12 576.01 242.24 577.76 242.36 579.51 242.48 581.26 242.6 583.01 242.73 584.76 242.86 586.51 243 588.26 243.14 590.01 243.28 591.76 243.42 593.51 243.57 595.26 243.73 597.01 243.88 598.76 244.04 600.51 244.2 602.26 244.37 604 244.53 605.75 244.71 607.5 244.88 609.24 245.06 610.99 245.24 612.74 245.43 614.48 245.62 616.23 245.8 617.97 246 619.72 246.2 621.46 246.4 623.2 246.61 624.95 246.82 625.02 248.11 625.1 249.4 625.18 250.69 625.25 251.99 625.33 253.29 625.41 254.59 625.48 255.89 625.56 257.19 625.63 258.49 625.71 259.8 625.78 261.1 625.86 262.4 625.93 263.7 626.01 265 626.09 266.3 626.16 267.6 626.24 268.9 626.31 270.2 626.39 271.5 626.46 272.8 626.54 274.09 626.62 275.39 626.69 276.69 626.77 277.98 626.84 279.27 626.92 280.57 627 281.86 627.07 283.15 627.15 284.44 627.23 285.73 627.3 287.01 627.38 288.3 627.46 289.58 627.53 290.87 627.61 292.15 627.69 293.43 627.77 294.71 627.84 295.99 627.92 297.27 628 298.55 628.08 299.83 628.15 301.1 628.23 302.37 628.31 303.65 628.39 304.92 628.47 306.19 628.55 307.46 628.63 308.73 628.7 310 628.78 311.26 628.86 312.53 628.94 313.79 629.02 315.06 629.1 316.32 629.18 317.58 629.26 318.84 629.34 320.1 629.42 321.36 629.5 322.62 629.58 323.87 629.66 325.13 629.74 326.38 629.82 327.64 629.9 328.89 629.98 330.14 630.07 331.4 630.15 332.65 630.23 333.9 630.31 335.14 630.39 336.39 630.47 337.64 630.55 338.89 630.64 340.13 630.72 341.38 630.8 342.62 630.88 343.87 630.97 345.11 631.05 346.35 631.13 347.59 631.21 348.83 631.3 350.07 631.38 351.31 631.46 352.55 631.55 353.79 631.63 355.03 631.71 356.27 631.8 357.5 631.88 358.74 631.96 359.97 632.05 361.21 632.13 362.44 632.22 363.68 632.3 364.91 632.38 366.14 632.47 367.37 632.55 368.61 632.64 369.84 632.72 371.07 632.81 372.3 632.9 373.53 632.98 374.76 633.07 375.99 633.15 377.22 633.24 378.45 633.32 379.67 633.41 380.9 633.5 382.13 633.58 383.36 633.67 384.58 633.76 385.81 633.84 387.03 633.93 388.26 634.02 389.49 634.1 390.71 634.19 391.94 634.28 393.16 634.37 394.39 634.46 395.61 634.54 396.83 634.63 398.06 634.72 399.28 634.81 400.5 634.9 401.73 634.99 402.95 635.08 404.17 635.16 405.4 635.25 406.62 635.34 407.84 637.15 407.95 638.96 408.06 640.76 408.17 642.58 408.28 642.62 407.08 642.67 405.87 642.71 404.66 642.76 403.45 642.8 402.24 642.85 401.03 642.9 399.82 642.94 398.61 642.99 397.4 643.03 396.19 643.08 394.99 643.13 393.78 643.18 392.57 643.22 391.36 643.27 390.15 643.32 388.94 643.37 387.73 643.41 386.52 643.46 385.31 643.51 384.1 643.56 382.89 643.61 381.68 643.66 380.47 643.7 379.26 643.75 378.05 643.8 376.84 643.85 375.63 643.9 374.42 643.95 373.21 644 371.99 644.05 370.78 644.1 369.57 644.15 368.36 644.2 367.15 644.25 365.93 644.3 364.72 644.35 363.51 644.4 362.29 644.45 361.08 644.5 359.86 644.55 358.65 644.6 357.43 644.65 356.22 644.71 355 644.76 353.78 644.81 352.57 644.86 351.35 644.91 350.13 644.96 348.91 645.01 347.69 645.07 346.47 645.12 345.25 645.17 344.03 645.22 342.81 645.27 341.59 645.33 340.36 645.38 339.14 645.43 337.92 645.48 336.69 645.54 335.47 645.59 334.24 645.64 333.02 645.69 331.79 645.75 330.56 645.8 329.33 645.85 328.1 645.91 326.87 645.96 325.64 646.01 324.41 646.07 323.18 646.12 321.94 646.18 320.71 646.23 319.47 646.28 318.24 646.34 317 646.39 315.76 646.45 314.52 646.5 313.28 646.56 312.04 646.61 310.8 646.67 309.56 646.72 308.31 646.78 307.07 646.83 305.82 646.89 304.58 646.94 303.33 647 302.08 647.05 300.83 647.11 299.58 647.16 298.33 647.22 297.07 647.28 295.82 647.33 294.56 647.39 293.31 647.45 292.05 647.5 290.79 647.56 289.53 647.62 288.27 647.67 287.01 647.73 285.74 647.79 284.48 647.84 283.21 647.9 281.95 647.96 280.68 648.02 279.41 648.08 278.14 648.13 276.87 648.19 275.6 648.25 274.33 648.31 273.05 648.37 271.78 648.42 270.51 648.48 269.23 648.54 267.96 648.6 266.68 648.66 265.4 648.72 264.13 648.77 262.85 648.83 261.57 648.89 260.29 648.95 259.02 649.01 257.74 649.07 256.47 649.12 255.19 649.18 253.92 649.24 252.65 649.3 251.38 649.35 250.11 649.35 250.11 649.35 250.11M977.95 409.76Q978.24 410.34 978.53 410.93 978.81 411.53 979.08 412.12 979.36 412.72 979.63 413.32 979.9 413.91 980.17 414.51 980.44 415.12 980.71 415.72 980.97 416.33 981.23 416.94 981.49 417.55 981.74 418.16 981.99 418.78 982.24 419.39 982.49 420.01 982.74 420.63 982.98 421.25 983.22 421.88 983.46 422.51 983.69 423.14 983.92 423.77 984.15 424.4 984.37 425.04 984.6 425.68 984.82 426.32 985.03 426.96 985.24 427.61 985.45 428.26 985.65 428.91 985.85 429.57 986.05 430.22 986.25 430.88 986.43 431.55 986.62 432.21 986.8 432.88 986.98 433.56 987.15 434.24 987.31 434.92 987.47 435.6 987.62 436.3 987.77 436.99 987.91 437.69 988.04 438.4 988.17 439.11 988.28 439.83 988.38 440.56 988.47 441.3 988.55 442.05 988.61 442.82 988.65 443.59 988.66 444.39 988.65 445.2 988.61 446.04 988.52 446.91 988.38 447.82 988.18 448.78 987.9 449.8 987.52 450.89 987.02 452.06 986.39 453.34 985.6 454.73 984.86 455.97 982.94 456.95 981.36 457.77 979.77 458.58 978.18 459.4 976.6 460.21 975.02 461.03 973.46 461.88 971.89 462.73 970.33 463.58 968.76 464.43 967.2 465.28 965.62 466.1 964.03 466.89 962.44 467.69 960.84 468.48 959.25 469.28 957.66 470.06 956.02 470.76 954.39 471.46 952.76 472.16 951.12 472.86 949.49 473.56 947.84 474.22 946.17 474.84 944.51 475.47 942.84 476.09 941.18 476.72 939.51 477.34 937.84 477.97 936.18 478.59 934.51 479.22 932.85 479.84 931.18 480.46 929.52 481.09 927.85 481.71 926.18 482.34 924.52 482.96 922.85 483.59 921.19 484.21 919.52 484.84 917.86 485.46 916.19 486.09 914.52 486.71 912.86 487.33 911.19 487.94 909.5 488.49 907.81 489.04 906.12 489.59 904.43 490.14 902.74 490.69 901.05 491.23 899.36 491.77 897.67 492.31 895.97 492.84 894.28 493.38 892.59 493.91 890.88 494.4 889.17 494.89 887.47 495.39 885.76 495.88 884.05 496.37 882.33 496.82 880.61 497.26 878.88 497.69 877.16 498.12 875.43 498.55 873.71 498.98 871.98 499.4 870.25 499.83 868.52 500.25 866.79 500.67 865.07 501.1 863.34 501.51 861.6 501.9 859.87 502.3 858.14 502.7 856.4 503.09 854.67 503.49 852.93 503.84 851.18 504.18 849.44 504.53 847.7 504.87 845.96 505.21 844.21 505.55 842.47 505.87 840.72 506.19 838.97 506.51 837.22 506.83 835.47 507.15 833.72 507.43 831.96 507.7 830.21 507.98 828.45 508.26 826.7 508.53 824.95 508.84 823.22 509.24 821.48 509.63 819.75 510.03 818.02 510.42 816.29 510.82 814.53 511.07 812.76 511.27 810.99 511.47 809.23 511.67 807.46 511.87 805.69 512.07 803.93 512.28 802.16 512.5 800.39 512.71 798.63 512.92 796.86 513.14 795.1 513.34 793.33 513.54 791.56 513.73 789.79 513.93 788.02 514.13 786.26 514.32 784.48 514.43 782.71 514.53 780.94 514.64 779.17 514.75 777.39 514.86 775.62 514.97 773.85 515.1 772.08 515.23 770.31 515.35 768.54 515.48 766.84 515.63 766.54 513.9 766.29 512.01 766.04 510.13 765.8 508.24 765.55 506.36 765.3 504.47 765.06 502.59 764.81 500.71 764.57 498.82 764.32 496.94 764.07 495.05 763.83 493.17 763.58 491.28 763.33 489.4 763.09 487.52 762.84 485.63 762.6 483.75 762.35 481.86 762.1 479.98 761.86 478.09 761.61 476.21 761.36 474.33 761.12 472.44 760.87 470.56 760.63 468.67 760.47 466.79 760.47 464.91 760.47 463.02 760.46 461.14 760.46 459.25 760.46 457.37 760.46 455.49 760.46 453.6 760.46 451.72 760.46 449.83 760.46 447.95 760.46 446.06 760.46 444.18 760.46 442.3 760.46 440.41 760.46 438.53 760.46 436.64 760.46 434.76 760.46 432.88 760.46 430.99 760.46 429.11 760.46 427.22 760.46 425.34 760.46 423.46 760.46 421.57 760.46 419.69 760.46 417.8 760.46 415.92 760.46 414.04 760.46 412.15 760.46 410.27 760.46 408.38 760.46 406.5 760.46 404.62 760.46 402.73 760.46 400.85 760.45 398.97 760.45 397.08 760.45 395.2 760.45 393.31 760.45 391.43 760.45 389.55 760.45 387.66 760.45 385.78 760.45 383.89 760.45 382.01 760.45 380.13 760.45 378.24 760.45 376.36 760.45 374.47 760.45 372.59 760.45 370.71 760.45 368.82 760.45 366.94 760.45 365.05 760.45 363.17 760.45 361.29 760.45 359.4 760.45 357.52 760.45 355.63 760.45 353.75 760.45 351.87 760.45 349.98 760.45 348.1 760.45 346.22 760.45 344.33 760.45 342.45 760.45 340.56 760.45 338.68 760.45 336.8 760.45 334.91 760.45 333.03 760.45 331.14 760.45 329.26 760.45 327.38 760.45 325.49 760.45 323.61 760.45 321.72 760.44 319.84 760.44 317.96 760.44 316.07 760.44 314.19 760.44 312.3 760.44 310.42 760.44 308.54 760.44 306.65 760.44 304.77 760.44 302.89 760.44 301 760.44 299.12 760.44 297.23 760.44 295.35 760.44 293.47 760.44 291.58 760.44 289.7 760.44 287.81 760.44 285.93 760.44 284.05 760.44 282.16 760.44 280.28 760.44 278.39 760.44 276.51 760.44 274.63 761.58 274.97 762.73 275.32 763.87 275.67 765.01 276.02 766.16 276.37 767.3 276.72 768.44 277.08 769.58 277.44 770.72 277.8 771.86 278.16 772.99 278.52 774.13 278.89 775.27 279.26 776.41 279.63 777.54 280 778.68 280.38 779.81 280.75 780.94 281.13 782.08 281.51 783.21 281.89 784.34 282.28 785.47 282.67 786.6 283.05 787.73 283.44 788.86 283.83 789.99 284.23 791.12 284.63 792.24 285.03 793.37 285.43 794.49 285.83 795.62 286.23 796.74 286.64 797.86 287.05 798.99 287.46 800.11 287.87 801.23 288.29 802.35 288.71 803.47 289.13 804.58 289.55 805.7 289.97 806.82 290.39 807.94 290.83 809.05 291.26 810.16 291.69 811.28 292.13 812.39 292.56 813.5 293 814.61 293.45 815.72 293.89 816.83 294.33 817.94 294.78 819.05 295.23 820.15 295.68 821.26 296.14 822.36 296.59 823.47 297.05 824.57 297.51 825.67 297.98 826.77 298.45 827.87 298.91 828.97 299.38 830.06 299.85 831.16 300.33 832.25 300.81 833.35 301.29 834.44 301.77 835.54 302.25 836.63 302.74 837.72 303.23 838.81 303.72 839.9 304.21 840.98 304.71 842.07 305.21 843.15 305.72 844.24 306.22 845.32 306.72 846.4 307.23 847.48 307.74 848.56 308.26 849.64 308.77 850.72 309.29 851.8 309.8 852.87 310.33 853.94 310.86 855.01 311.39 856.08 311.92 857.15 312.44 858.22 312.98 859.29 313.52 860.35 314.07 861.42 314.61 862.48 315.15 863.54 315.7 864.6 316.25 865.66 316.81 866.72 317.36 867.78 317.91 868.83 318.48 869.88 319.05 870.94 319.61 871.99 320.18 873.04 320.75 874.09 321.33 875.13 321.91 876.18 322.49 877.22 323.07 878.27 323.65 879.31 324.24 880.34 324.83 881.38 325.43 882.41 326.02 883.45 326.62 884.48 327.22 885.51 327.83 886.54 328.44 887.57 329.05 888.6 329.66 889.62 330.27 890.64 330.89 891.66 331.51 892.68 332.14 893.7 332.76 894.72 333.39 895.73 334.03 896.74 334.66 897.75 335.3 898.76 335.94 899.69 336.53 900.37 336.94 900.96 337.35 901.53 337.77 902.1 338.19 902.67 338.61 903.24 339.03 903.81 339.45 904.38 339.87 904.94 340.3 905.51 340.73 906.07 341.16 906.63 341.59 907.19 342.02 907.75 342.46 908.31 342.89 908.87 343.33 909.42 343.77 909.98 344.22 910.53 344.66 911.08 345.11 911.63 345.56 912.18 346.01 912.73 346.46 913.27 346.91 913.82 347.37 914.36 347.83 914.9 348.29 915.44 348.75 915.98 349.21 916.52 349.68 917.06 350.14 917.59 350.61 918.13 351.08 918.66 351.56 919.19 352.03 919.72 352.51 920.25 352.99 920.78 353.47 921.3 353.95 921.82 354.43 922.35 354.92 922.87 355.41 923.39 355.9 923.9 356.39 924.42 356.89 924.93 357.38 925.45 357.88 925.96 358.38 926.47 358.88 926.98 359.39 927.48 359.89 927.99 360.4 928.49 360.91 929 361.42 929.5 361.94 929.99 362.45 930.49 362.97 930.99 363.49 931.48 364.02 931.97 364.54 932.46 365.07 932.95 365.59 933.44 366.12 933.92 366.66 932.82 366.68 931.72 366.71 930.62 366.73 929.52 366.76 928.42 366.77 927.32 366.79 926.23 366.8 925.14 366.82 924.05 366.82 922.96 366.83 921.88 366.83 920.79 366.83 919.71 366.83 918.63 366.83 917.56 366.82 916.48 366.81 915.41 366.79 914.34 366.78 913.27 366.76 912.21 366.74 911.14 366.71 910.08 366.69 909.02 366.66 907.96 366.62 906.91 366.59 905.85 366.55 904.8 366.51 903.75 366.47 902.71 366.42 901.66 366.38 900.62 366.33 899.57 366.27 898.53 366.22 897.5 366.16 896.46 366.11 895.42 366.04 894.39 365.98 893.36 365.92 892.33 365.85 891.3 365.78 890.27 365.71 889.25 365.64 888.22 365.56 887.2 365.49 886.18 365.41 885.16 365.33 884.14 365.25 883.12 365.17 882.1 365.08 881.09 365 880.07 364.91 879.06 364.82 878.05 364.73 877.04 364.64 876.03 364.55 875.02 364.46 874.01 364.36 873 364.27 872 364.17 870.99 364.07 869.98 363.98 868.98 363.88 867.98 363.78 866.97 363.68 867.46 364.87 867.94 366.06 868.43 367.25 868.91 368.44 869.4 369.63 869.88 370.83 870.36 372.02 870.84 373.22 871.87 373.26 872.89 373.3 873.92 373.34 874.94 373.38 875.97 373.42 877 373.45 878.02 373.49 879.05 373.52 880.08 373.56 881.11 373.59 882.14 373.62 883.18 373.65 884.21 373.68 885.25 373.7 886.28 373.73 887.32 373.75 888.36 373.78 889.39 373.8 890.43 373.82 891.47 373.84 892.52 373.85 893.56 373.87 894.61 373.88 895.65 373.89 896.7 373.9 897.75 373.91 898.8 373.92 899.85 373.93 900.9 373.93 901.96 373.93 903.01 373.93 904.07 373.93 905.13 373.93 906.19 373.92 907.25 373.91 908.31 373.91 909.38 373.89 910.44 373.88 911.51 373.87 912.58 373.85 913.65 373.83 914.72 373.81 915.8 373.79 916.87 373.76 917.95 373.73 919.03 373.7 920.11 373.67 921.19 373.64 922.28 373.6 923.36 373.57 924.45 373.53 925.54 373.49 926.63 373.44 927.72 373.4 928.81 373.35 929.91 373.3 931 373.25 932.1 373.2 933.2 373.14 934.3 373.09 935.4 373.03 936.5 372.97 937.6 372.91 938.71 372.85 939.1 373.3 939.49 373.76 939.88 374.22 940.26 374.67 940.65 375.13 941.03 375.6 941.42 376.06 941.8 376.52 942.18 376.99 942.56 377.45 942.94 377.92 943.32 378.39 943.69 378.86 944.07 379.33 944.44 379.81 944.81 380.28 945.18 380.76 945.55 381.24 945.92 381.72 946.29 382.2 946.65 382.68 947.02 383.16 947.38 383.65 947.74 384.13 948.1 384.62 948.46 385.11 948.82 385.6 949.17 386.09 949.53 386.58 949.88 387.08 950.23 387.58 950.58 388.07 950.93 388.57 951.28 389.07 951.63 389.57 951.97 390.08 952.32 390.58 952.66 391.09 953 391.6 953.34 392.11 953.67 392.62 954.01 393.13 954.34 393.64 954.68 394.16 955.01 394.67 955.34 395.19 955.67 395.71 955.99 396.23 956.32 396.75 956.64 397.28 956.97 397.8 957.29 398.33 957.61 398.86 957.92 399.39 958.24 399.92 958.55 400.46 958.87 400.99 959.18 401.53 959.49 402.06 959.79 402.6 960.1 403.14 960.4 403.69 960.71 404.23 961.01 404.78 958.69 405.23 956.37 405.68 954.06 406.13 951.74 406.59 949.42 407.05 947.11 407.51 944.79 407.97 942.48 408.43 940.17 408.9 937.86 409.36 935.55 409.82 933.25 410.28 930.95 410.74 928.65 411.19 926.36 411.65 924.07 412.1 921.78 412.55 919.5 412.99 917.21 413.43 914.93 413.87 912.66 414.31 910.38 414.74 908.11 415.17 905.84 415.59 903.57 416.01 901.31 416.43 899.05 416.84 896.79 417.25 894.53 417.65 892.28 418.05 890.02 418.44 887.77 418.83 888.2 420.13 888.63 421.44 889.05 422.75 889.48 424.07 889.9 425.39 890.32 426.72 890.74 428.05 891.16 429.4 892.49 429.12 893.83 428.84 895.16 428.56 896.5 428.27 897.83 427.99 899.17 427.7 900.5 427.41 901.84 427.12 903.18 426.83 904.52 426.54 905.86 426.24 907.2 425.94 908.54 425.65 909.88 425.34 911.22 425.04 912.57 424.74 913.91 424.43 915.26 424.13 916.6 423.82 917.95 423.51 919.3 423.2 920.65 422.89 922 422.57 923.35 422.26 924.7 421.94 926.06 421.63 927.41 421.31 928.76 420.99 930.12 420.67 931.48 420.35 932.84 420.03 934.2 419.71 935.56 419.39 936.92 419.06 938.28 418.74 939.64 418.42 941.01 418.1 942.38 417.77 943.74 417.45 945.11 417.13 946.48 416.8 947.85 416.48 949.22 416.16 950.59 415.84 951.96 415.52 953.33 415.2 954.7 414.88 956.08 414.56 957.45 414.24 958.82 413.93 960.19 413.61 961.57 413.3 962.94 412.99 964.31 412.68 965.68 412.37 967.05 412.07 968.42 411.77 969.79 411.47 971.16 411.17 972.52 410.88 973.89 410.6 975.25 410.31 976.6 410.03 977.95 409.76 977.95 409.76 977.95 409.76"></path><path fill="#5e4374" d="M213.79 526.13Q213.8 527.01 213.73 527.95 213.62 528.88 213.51 529.82 213.41 530.75 213.3 531.69 213.2 532.62 213.09 533.55 212.98 534.49 212.88 535.42 212.77 536.36 212.67 537.29 212.56 538.23 212.46 539.16 212.35 540.09 212.25 541.03 212.14 541.96 212.04 542.9 211.94 543.83 211.83 544.76 211.73 545.7 211.62 546.63 211.52 547.56 211.42 548.5 211.31 549.43 211.21 550.36 211.11 551.3 211.01 552.23 210.91 553.16 210.8 554.09 210.7 555.03 210.6 555.96 210.5 556.89 210.4 557.82 210.3 558.75 210.2 559.68 210.11 560.62 210.01 561.55 209.93 562.48 209.85 563.41 209.77 564.34 209.7 565.27 209.63 566.2 209.57 567.13 209.5 568.06 209.44 568.99 209.37 569.92 209.31 570.85 209.24 571.78 209.18 572.71 209.12 573.64 209.05 574.57 208.99 575.5 208.93 576.43 208.86 577.35 208.8 578.28 208.74 579.21 208.68 580.14 208.62 581.07 208.55 581.99 208.49 582.92 208.43 583.85 208.37 584.77 208.31 585.7 207.4 585.68 206.5 585.67 205.59 585.65 204.68 585.64 203.77 585.62 202.86 585.61 201.95 585.6 201.04 585.59 200.12 585.58 199.21 585.57 198.29 585.57 197.37 585.56 196.45 585.56 195.53 585.56 194.61 585.55 193.69 585.55 192.77 585.55 191.85 585.55 190.92 585.56 189.99 585.56 189.07 585.57 188.14 585.57 187.21 585.58 186.28 585.59 185.35 585.59 184.41 585.6 183.48 585.62 182.55 585.63 181.61 585.64 180.67 585.65 179.74 585.67 178.8 585.68 178.85 586.59 178.91 587.49 178.97 588.4 179.03 589.3 179.09 590.2 179.15 591.11 179.21 592.01 179.26 592.91 179.32 593.81 179.38 594.72 179.44 595.62 179.5 596.52 179.56 597.42 179.62 598.32 179.68 599.23 179.74 600.13 179.8 601.03 179.86 601.93 179.93 602.83 179.99 603.73 180.05 604.63 180.11 605.53 180.17 606.43 180.23 607.33 180.29 608.23 180.35 609.13 180.42 610.03 180.48 610.93 180.54 611.83 180.6 612.73 180.67 613.63 180.73 614.53 180.79 615.43 180.85 616.33 180.92 617.23 180.98 618.13 181.04 619.03 181.1 619.92 181.17 620.82 181.23 621.72 181.29 622.62 181.36 623.52 181.42 624.42 181.49 625.31 181.55 626.21 181.61 627.11 181.68 628.01 181.74 628.91 181.81 629.8 181.87 630.7 181.93 631.6 182 632.5 182.06 633.39 182.13 634.29 182.19 635.19 182.26 636.08 182.32 636.98 182.39 637.88 182.45 638.77 182.52 639.67 182.58 640.57 182.65 641.46 182.71 642.36 182.78 643.26 182.85 644.15 182.91 645.05 182.98 645.95 183.04 646.84 183.11 647.74 183.18 648.63 183.24 649.53 183.31 650.43 183.38 651.32 183.44 652.22 183.51 653.11 183.58 654.01 183.65 654.9 183.71 655.8 183.78 656.69 183.85 657.59 183.92 658.48 183.99 659.38 184.06 660.27 184.13 661.16 184.2 662.06 184.27 662.95 184.34 663.84 184.41 664.73 184.48 665.63 184.55 666.52 184.62 667.41 184.69 668.3 184.77 669.19 184.84 670.08 184.92 670.97 184.99 671.86 185.07 672.75 185.14 673.63 185.22 674.52 185.3 675.41 185.38 676.29 185.46 677.18 185.54 678.06 185.62 678.94 185.71 679.82 185.79 680.7 185.88 681.58 185.97 682.46 186.06 683.33 186.15 684.21 186.24 685.08 186.34 685.95 186.44 686.82 186.54 687.69 186.64 688.56 186.75 689.42 186.86 690.28 186.97 691.14 187.09 692 187.21 692.85 187.33 693.71 187.47 694.56 187.6 695.41 187.75 696.25 187.9 697.1 188.06 697.94 188.23 698.78 188.36 699.49 187.26 699 186.16 698.5 185.06 698.01 183.96 697.51 182.98 697.06 182.04 696.63 181.1 696.19 180.15 695.75 179.21 695.32 178.27 694.88 177.33 694.43 176.39 693.98 175.44 693.53 174.5 693.09 173.56 692.64 172.51 692.13 171.42 691.59 170.33 691.06 169.25 690.53 168.16 689.99 167.08 689.46 166 688.91 164.92 688.36 163.84 687.81 162.76 687.27 161.68 686.72 160.72 686.22 159.78 685.73 158.85 685.25 157.92 684.76 156.99 684.27 156.06 683.78 155.13 683.28 154.2 682.78 153.27 682.28 152.34 681.78 151.41 681.28 150.38 680.71 149.32 680.12 148.26 679.53 147.2 678.95 146.14 678.36 145.13 677.79 144.21 677.26 143.28 676.73 142.36 676.2 141.44 675.68 140.52 675.15 139.6 674.61 138.69 674.07 137.77 673.52 136.85 672.98 135.93 672.44 134.98 671.87 133.95 671.24 132.91 670.61 131.88 669.97 130.85 669.34 129.81 668.71 128.88 668.13 127.98 667.56 127.07 666.98 126.17 666.41 125.26 665.84 125.04 665.23 124.79 664.54 124.53 663.84 124.27 663.16 124.01 662.48 123.74 661.8 123.47 661.13 123.19 660.47 122.9 659.82 122.61 659.16 122.31 658.52 122.01 657.88 121.71 657.25 121.4 656.62 121.08 656 120.76 655.38 120.44 654.76 120.11 654.16 119.78 653.55 119.45 652.95 119.11 652.36 118.77 651.77 118.43 651.18 118.08 650.59 117.73 650.01 117.38 649.43 117.03 648.86 116.67 648.29 116.32 647.72 115.96 647.15 115.6 646.58 115.24 646.02 114.87 645.46 114.51 644.9 114.14 644.34 113.77 643.78 113.4 643.23 113.03 642.67 112.66 642.12 112.29 641.56 111.92 641.01 111.55 640.46 111.17 639.91 110.8 639.36 110.43 638.81 110.05 638.26 109.68 637.71 109.3 637.16 108.93 636.62 108.55 636.07 108.18 635.52 107.8 634.97 107.42 634.42 107.05 633.87 106.67 633.33 106.3 632.78 105.92 632.23 105.55 631.68 105.17 631.13 104.8 630.58 104.42 630.03 104.05 629.47 103.67 628.92 103.3 628.37 102.92 627.82 102.55 627.26 102.18 626.71 101.81 626.16 101.44 625.6 101.06 625.05 100.69 624.49 100.33 623.93 99.96 623.38 99.59 622.82 99.22 622.26 98.85 621.7 98.49 621.14 98.12 620.58 97.76 620.02 97.4 619.46 97.03 618.9 96.67 618.33 96.31 617.77 95.95 617.2 95.59 616.64 95.24 616.07 94.88 615.5 94.52 614.94 94.17 614.37 93.82 613.8 93.46 613.23 93.11 612.65 92.76 612.08 92.41 611.51 92.06 610.93 91.71 610.36 91.36 609.78 91.02 609.2 90.67 608.62 90.33 608.04 89.99 607.46 89.64 606.88 89.3 606.3 88.96 605.71 88.62 605.12 88.29 604.54 87.95 603.95 87.62 603.36 87.28 602.77 86.95 602.18 86.62 601.58 86.29 600.99 85.96 600.39 85.63 599.8 85.3 599.2 84.98 598.6 84.65 598 84.33 597.4 84.01 596.8 83.69 596.19 83.37 595.59 83.05 594.98 82.74 594.37 82.42 593.76 82.11 593.15 81.8 592.54 81.49 591.93 81.18 591.31 80.08 591.41 78.97 591.5 77.86 591.6 76.75 591.7 75.64 591.79 74.53 591.89 73.42 591.99 72.31 592.08 71.2 592.18 70.08 592.27 68.97 592.37 67.86 592.46 66.74 592.55 65.63 592.64 64.51 592.73 63.39 592.82 62.28 592.91 61.16 593 60.04 593.08 58.93 593.16 57.81 593.24 56.69 593.31 55.57 593.39 54.45 593.46 53.34 593.52 52.22 593.59 51.1 593.65 49.99 593.71 48.88 593.76 47.77 593.82 46.68 593.88 45.59 593.93 45.26 593.41 44.93 592.88 44.61 592.35 44.28 591.83 43.97 591.31 43.72 590.87 43.48 590.44 43.24 590.01 43 589.58 42.77 589.15 42.53 588.72 42.3 588.29 42.06 587.85 41.82 587.41 41.56 586.94 41.28 586.41 40.99 585.87 40.7 585.32 40.4 584.77 40.11 584.22 39.82 583.66 39.52 583.11 39.23 582.56 38.94 582 38.66 581.44 38.38 580.88 38.11 580.32 37.84 579.76 37.57 579.2 37.3 578.63 37.03 578.07 36.76 577.51 36.49 576.94 36.23 576.37 35.97 575.8 35.72 575.23 35.47 574.66 35.22 574.08 34.98 573.51 34.73 572.93 34.49 572.35 34.25 571.77 34.01 571.19 33.78 570.61 33.55 570.02 33.33 569.43 33.11 568.84 32.89 568.25 32.68 567.65 32.47 567.05 32.26 566.45 32.05 565.85 31.86 565.23 31.67 564.62 31.49 563.99 31.31 563.36 31.15 562.71 31 562.05 30.87 561.37 30.75 560.67 30.66 559.93 30.6 559.15 30.59 558.29 30.63 557.36 32.49 556.51 34.34 555.66 36.2 554.81 38.06 553.96 39.52 553.56 40.92 553.23 42.32 552.9 43.72 552.57 45.12 552.24 46.52 551.91 47.92 551.58 49.32 551.23 50.71 550.88 52.11 550.53 53.5 550.19 54.9 549.84 56.29 549.49 57.69 549.15 59.11 548.91 60.52 548.67 61.94 548.43 63.36 548.18 64.78 547.94 66.19 547.7 67.61 547.44 69.01 547.14 70.42 546.84 71.82 546.55 73.23 546.25 74.63 545.95 76.04 545.65 77.45 545.35 78.85 545.06 80.26 544.77 81.67 544.48 83.07 544.19 84.48 543.9 85.89 543.61 87.3 543.34 88.72 543.11 90.14 542.87 91.55 542.63 92.97 542.4 94.39 542.16 95.81 541.92 97.23 541.69 98.64 541.45 100.06 541.22 101.48 540.98 102.9 540.74 104.32 540.51 105.73 540.27 107.15 540.03 108.57 539.8 109.99 539.56 111.4 539.32 112.82 539.09 114.24 538.85 115.66 538.62 117.08 538.38 118.49 538.14 119.91 537.91 121.33 537.67 122.75 537.43 124.17 537.2 125.58 536.96 127 536.73 128.42 536.49 129.84 536.25 131.26 536.02 132.67 535.78 134.09 535.54 135.51 535.31 136.93 535.1 138.35 534.89 139.77 534.68 141.19 534.47 142.61 534.26 144.04 534.05 145.46 533.86 146.89 533.74 148.32 533.62 149.76 533.5 151.19 533.38 152.62 533.26 154.05 533.14 155.48 532.98 156.9 532.74 158.32 532.51 159.73 532.27 161.15 532.03 162.57 531.8 163.99 531.56 165.41 531.37 166.84 531.22 168.27 531.08 169.7 530.93 171.13 530.78 172.56 530.64 173.99 530.49 175.41 530.32 176.84 530.14 178.26 529.95 179.68 529.77 181.11 529.59 182.53 529.4 183.96 529.22 185.38 529.02 186.8 528.82 188.23 528.62 189.65 528.42 191.07 528.21 192.49 528.01 193.91 527.81 195.34 527.67 196.78 527.54 198.21 527.41 199.64 527.29 201.07 527.16 202.5 527.03 203.93 526.9 205.37 526.78 206.8 526.66 208.23 526.54 209.66 526.42 211.1 526.3 212.53 526.19 213.79 526.13 213.79 526.13 213.79 526.13M401.34 520.15Q401.3 521.93 401.29 523.76 401.28 525.6 401.28 527.44 401.27 529.28 401.27 531.12 401.26 532.96 401.26 534.79 401.25 536.63 401.25 538.47 401.24 540.31 401.24 542.15 401.23 543.99 401.23 545.82 401.23 547.66 401.22 549.5 401.22 551.34 401.21 553.18 401.21 555.02 401.2 556.86 401.2 558.69 401.19 560.53 401.19 562.37 401.18 564.21 401.18 566.05 401.17 567.89 401.17 569.73 401.17 571.56 401.17 573.4 401.17 575.24 401.17 577.08 401.17 578.92 401.17 580.76 401.17 582.59 401.17 584.43 401.17 586.27 401.17 588.11 401.17 589.95 401.17 591.79 401.17 593.63 401.17 595.46 401.17 597.3 401.17 599.14 401.17 600.98 401.17 602.82 401.17 604.66 401.17 606.5 401.17 608.33 401.17 610.17 401.17 612.01 401.17 613.85 401.17 615.69 401.17 617.53 401.17 619.36 401.17 621.2 401.17 623.04 401.17 624.88 401.17 626.72 401.17 628.56 401.17 630.4 401.17 632.23 401.17 634.07 401.17 635.91 401.17 637.75 401.17 639.59 401.17 641.43 401.17 643.27 401.17 645.1 401.17 646.94 401.17 648.78 401.17 650.62 401.17 652.46 401.17 654.3 401.17 656.14 401.17 657.97 401.17 659.81 401.17 661.65 401.17 663.49 401.17 665.33 401.17 667.17 401.17 669.01 401.17 670.84 401.17 672.68 401.17 674.52 401.17 676.36 401.17 678.2 401.17 680.04 401.17 681.88 401.17 683.71 401.17 685.55 401.17 687.39 401.17 689.23 401.17 691.07 401.17 692.91 401.17 694.75 401.17 696.58 401.17 698.42 401.17 700.26 401.17 702.1 401.17 703.94 401.17 705.78 401.17 707.62 401.17 709.45 401.17 711.29 401.17 713.13 401.17 714.97 401.17 716.81 401.17 718.65 401.17 720.49 401.17 722.33 401.17 724.16 401.17 726 401.17 727.84 401.17 729.68 401.17 731.52 401.17 733.36 401.17 735.2 401.17 737.04 401.17 738.87 401.17 740.71 401.17 742.55 401.17 744.39 401.17 746.23 401.18 748.07 401.18 749.91 401.18 751.75 401.18 753.58 400.98 755.09 398.78 754.97 396.09 754.64 393.41 754.3 390.73 753.96 387.78 753.56 384.77 753.16 381.75 752.73 378.73 752.31 375.71 751.86 372.69 751.41 369.66 750.95 366.64 750.47 363.61 749.98 360.58 749.49 357.74 749.01 355.11 748.56 352.31 748.07 349.28 747.53 346.4 747.01 343.79 746.52 341.05 746.01 338.02 745.42 334.99 744.83 331.96 744.22 328.93 743.61 325.9 742.97 322.86 742.33 319.83 741.67 316.82 741.01 314.22 740.43 311.63 739.84 308.61 739.14 305.58 738.43 302.96 737.8 300.39 737.18 297.43 736.44 294.39 735.68 291.36 734.9 288.33 734.12 285.3 733.31 282.27 732.5 279.55 731.75 276.99 731.05 274.15 730.24 271.13 729.38 268.35 728.57 265.79 727.82 263.02 726.99 260 726.07 256.98 725.14 253.97 724.19 251.11 723.29 248.56 722.46 245.89 721.59 242.88 720.58 239.97 719.61 237.43 718.73 234.82 717.83 231.82 716.77 228.86 715.72 226.32 714.79 223.77 713.86 220.8 712.74 217.9 711.67 218.02 710.29 218.25 708.83 218.49 707.37 218.72 705.91 218.96 704.45 219.2 703 219.44 701.54 219.67 700.08 219.91 698.62 220.15 697.16 220.38 695.71 220.62 694.25 220.86 692.79 221.1 691.33 221.33 689.88 221.57 688.42 221.81 686.96 222.04 685.5 222.28 684.05 222.52 682.59 222.76 681.13 222.99 679.67 223.23 678.22 223.47 676.76 223.7 675.3 223.86 673.84 223.86 672.39 223.86 670.93 223.86 669.47 223.86 668.01 223.86 666.56 223.86 665.1 223.86 663.64 223.86 662.18 223.86 660.73 223.86 659.27 223.86 657.81 223.86 656.35 223.86 654.9 223.86 653.44 223.86 651.98 223.86 650.52 223.86 649.07 223.86 647.61 223.86 646.15 223.86 644.69 223.86 643.24 223.86 641.78 223.86 640.32 223.86 638.86 223.86 637.41 223.86 635.95 223.86 634.49 223.86 633.03 223.86 631.58 223.86 630.12 223.86 628.66 223.86 627.2 223.86 625.75 223.86 624.29 223.86 622.83 223.86 621.38 223.86 619.92 223.86 618.46 223.86 617 223.86 615.55 223.86 614.09 223.86 612.63 223.86 611.17 223.86 609.72 223.86 608.26 223.86 606.8 223.86 605.34 223.86 603.89 223.86 602.43 223.86 600.97 223.86 599.51 223.86 598.06 223.86 596.6 223.86 595.14 223.86 593.68 223.86 592.23 223.86 590.77 223.86 589.31 223.86 587.85 223.86 586.4 223.86 584.94 223.86 583.48 223.86 582.03 223.86 580.57 223.86 579.11 223.86 577.65 223.86 576.2 223.86 574.74 223.86 573.28 223.86 571.82 223.86 570.37 223.86 568.91 223.86 567.45 223.86 565.99 223.86 564.54 223.86 563.08 223.86 561.62 223.86 560.16 223.86 558.71 223.86 557.25 223.86 555.79 223.86 554.33 223.86 552.88 223.86 551.42 223.86 549.96 223.86 548.51 223.86 547.05 223.86 545.59 223.86 544.13 223.86 542.68 223.86 541.22 223.86 539.76 223.86 538.3 223.86 536.85 223.86 535.39 223.86 533.93 223.86 532.47 223.86 531.02 223.86 529.56 223.86 528.1 223.86 526.64 223.86 525.18 226.63 524.95 229.4 524.72 232.17 524.49 234.94 524.25 237.71 524 240.48 523.76 243.25 523.52 246.03 523.39 248.81 523.27 251.58 523.15 254.36 523.04 257.13 522.95 259.91 522.85 262.69 522.75 265.46 522.54 268.23 522.31 271 522.07 273.77 521.84 276.54 521.61 279.31 521.38 282.08 521.15 284.86 521.08 287.64 521.08 290.42 521.08 293.2 521.08 295.98 521.08 298.77 521.08 301.55 521.08 304.32 520.95 307.09 520.73 309.86 520.52 312.63 520.31 315.41 520.25 318.19 520.18 320.97 520.12 323.75 520.08 326.53 520.08 329.31 520.08 332.09 520.08 334.87 520.08 337.65 520.08 340.43 520.08 343.21 520.08 345.99 520.08 348.78 520.08 351.56 520.08 354.34 520.08 357.12 520.08 359.9 520.08 362.68 520.08 365.46 520.08 368.24 520.08 371.02 520.08 373.8 520.08 376.58 520.08 379.36 520.08 382.15 520.08 384.93 520.08 387.71 520.08 390.49 520.08 393.27 520.08 396.05 520.08 398.83 520.08 401.34 520.15 401.34 520.15 401.34 520.15M592.11 535.67Q591.95 536.87 591.78 538.07 591.62 539.27 591.46 540.47 591.29 541.67 591.13 542.87 590.96 544.07 590.8 545.27 590.64 546.47 590.47 547.68 590.31 548.88 590.14 550.08 589.98 551.28 589.82 552.49 589.66 553.69 589.49 554.9 589.33 556.1 589.17 557.3 589.01 558.51 588.85 559.71 588.69 560.92 588.53 562.12 588.37 563.32 588.21 564.53 588.06 565.73 587.9 566.94 587.75 568.14 587.6 569.35 587.45 570.55 587.3 571.76 587.15 572.96 587.01 574.17 586.87 575.37 586.73 576.58 586.59 577.79 586.45 578.99 586.31 580.2 586.18 581.4 586.05 582.61 585.91 583.81 585.78 585.02 585.65 586.23 585.52 587.43 585.38 588.64 585.25 589.84 585.12 591.05 584.99 592.26 584.86 593.46 584.73 594.67 584.61 595.88 584.48 597.08 584.35 598.29 584.22 599.5 584.09 600.7 583.96 601.91 583.83 603.12 583.71 604.32 583.58 605.53 583.45 606.74 583.32 607.95 583.19 609.15 583.07 610.36 582.94 611.57 582.81 612.78 581.9 612.66 581.01 612.54 580.11 612.43 579.23 612.32 578.35 612.2 577.48 612.09 576.61 611.98 575.75 611.87 574.9 611.76 574.05 611.65 573.21 611.54 572.38 611.43 571.55 611.32 570.73 611.22 569.91 611.11 569.1 611.01 568.3 610.9 567.5 610.8 566.71 610.7 565.93 610.59 565.15 610.49 564.38 610.39 563.61 610.29 562.86 610.2 561.35 610 559.89 609.81 558.43 609.62 557.02 609.43 555.61 609.25 554.26 609.07 552.9 608.9 551.59 608.73 550.29 608.56 549.03 608.39 547.78 608.23 546.57 608.07 545.37 607.92 544.22 607.77 543.07 607.62 541.97 607.48 540.87 607.34 539.82 607.2 538.77 607.07 537.77 606.94 536.78 606.81 535.83 606.69 534.89 606.57 534 606.46 533.1 606.34 532.26 606.24 531.42 606.13 530.64 606.04 529.06 605.84 527.69 605.68 526.32 605.51 525.16 605.38 524 605.24 523.05 605.14 522.1 605.04 521.36 604.96 519.88 604.82 519.24 604.8 517.96 604.77 516.9 604.85 515.85 604.94 515.03 605.14 513.4 605.56 512.69 606.46 511.99 607.36 511.64 609.37 511.46 610.38 511.37 611.66 511.28 612.95 511.28 614.51 511.28 614.51 511.28 614.51 511.28 615.81 511.28 617.11 511.28 618.41 511.28 619.71 511.28 621.01 511.28 622.31 511.28 623.61 511.28 624.91 511.28 626.21 511.28 627.51 511.28 628.82 511.28 630.12 511.28 631.42 511.28 632.72 511.28 634.02 511.28 635.32 511.28 636.63 511.28 637.93 511.28 639.23 511.28 640.54 511.29 641.84 511.29 643.14 511.29 644.45 511.29 645.75 511.29 647.06 511.3 648.36 511.3 649.67 511.3 650.97 511.3 652.28 511.31 653.58 511.31 654.89 511.31 656.2 511.32 657.5 511.32 658.81 511.32 660.12 511.33 661.43 511.33 662.74 511.34 664.05 511.34 665.36 511.34 666.67 511.35 667.98 511.35 669.29 511.36 670.6 511.36 671.91 511.37 673.22 511.37 674.54 511.38 675.85 511.38 677.16 511.39 678.48 511.4 679.79 511.4 681.11 511.41 682.43 511.41 683.74 511.42 685.06 511.43 686.38 511.43 687.7 511.44 689.02 511.45 690.34 511.45 691.66 511.46 692.98 511.47 694.3 511.48 695.62 511.48 696.95 511.49 698.27 512.73 698.28 513.97 698.3 515.21 698.3 516.44 698.31 517.68 698.32 518.92 698.33 520.16 698.34 521.4 698.34 521.39 697.28 521.38 696.22 521.38 695.17 521.37 694.11 521.37 693.05 521.36 692 521.36 690.94 521.35 689.89 521.35 688.83 521.35 687.78 521.34 686.72 521.34 685.67 521.33 684.62 521.33 683.57 521.32 682.51 521.32 681.46 521.32 680.41 521.31 679.36 521.31 678.31 521.3 677.26 521.3 676.21 521.3 675.16 521.29 674.11 521.29 673.06 521.29 672.01 521.28 670.96 521.28 669.92 521.28 668.87 521.27 667.82 521.27 666.77 521.27 665.73 521.27 664.68 521.26 663.63 521.26 662.59 521.26 661.54 521.26 660.5 521.25 659.45 521.25 658.41 521.25 657.36 521.25 656.32 521.25 655.27 521.24 654.23 521.24 653.19 521.24 652.14 521.24 651.1 521.24 650.06 521.24 649.01 521.24 647.97 521.23 646.93 521.23 645.88 521.23 644.84 521.23 643.8 521.23 642.76 521.23 641.72 521.23 640.67 521.23 639.63 521.23 638.59 521.23 637.55 521.23 636.51 521.23 635.47 521.23 634.43 521.23 633.39 521.23 632.35 521.23 631.31 522.42 631.33 523.62 631.36 524.81 631.38 526 631.41 527.2 631.43 528.39 631.46 529.58 631.48 530.78 631.5 531.97 631.53 533.16 631.55 534.35 631.57 535.55 631.6 536.74 631.62 537.93 631.64 539.12 631.66 540.31 631.68 541.5 631.7 542.69 631.73 543.88 631.75 545.07 631.77 546.26 631.79 547.45 631.81 548.64 631.83 549.83 631.85 551.02 631.87 552.21 631.89 553.4 631.91 554.59 631.92 555.78 631.94 556.97 631.96 558.15 631.98 559.34 632 560.53 632.02 561.72 632.03 562.9 632.05 564.09 632.07 565.28 632.08 566.46 632.1 567.65 632.12 568.84 632.13 570.02 632.15 571.21 632.17 572.39 632.18 573.58 632.2 574.76 632.21 575.95 632.23 577.13 632.24 578.32 632.26 579.5 632.27 580.69 632.29 581.87 632.3 583.06 632.32 584.24 632.33 585.43 632.35 586.61 632.36 587.79 632.38 588.98 632.39 590.16 632.4 591.35 632.42 592.53 632.43 593.72 632.45 594.9 632.46 596.08 632.47 597.13 632.49 597.13 633.44 597.13 634.39 597.13 635.34 597.13 636.3 597.13 637.25 597.13 638.2 597.13 639.16 597.13 640.11 597.13 641.06 597.13 642.02 597.13 642.97 597.13 643.92 597.13 644.88 597.13 645.83 597.13 646.78 597.13 647.74 597.13 648.69 597.13 649.64 597.13 650.6 597.13 651.55 597.13 652.5 597.13 653.46 597.13 654.41 597.13 655.36 597.13 656.31 597.13 657.27 597.13 658.22 597.13 659.17 597.13 660.13 597.13 661.08 597.13 662.03 597.13 662.99 597.13 663.94 597.13 664.89 597.13 665.85 597.13 666.8 597.13 667.75 597.13 668.71 597.13 669.66 597.13 670.61 597.13 671.57 597.13 672.52 597.13 673.47 597.13 674.42 597.13 675.38 597.13 676.33 597.13 677.28 597.13 678.24 597.13 679.19 597.13 680.14 597.13 681.1 597.13 682.05 597.13 683 597.13 683.96 597.13 684.91 597.13 685.86 597.13 686.82 597.13 687.77 597.13 688.72 597.13 689.68 597.13 690.63 597.13 691.58 597.13 692.54 597.13 693.49 597.13 694.44 597.13 695.39 597.13 696.35 597.13 697.3 597.13 698.25 597.13 699.21 597.13 700.16 597.13 701.11 597.13 702.07 597.13 703.02 597.13 703.97 597.13 704.93 597.13 705.88 597.13 706.83 597.13 707.79 597.13 708.74 597.13 709.69 597.13 710.65 597.13 711.6 597.13 712.55 597.13 713.51 597.13 714.46 597.13 715.41 597.13 716.36 597.13 717.32 597.13 718.27 597.13 719.22 597.13 720.18 597.13 721.13 597.13 722.08 597.13 723.04 597.13 723.99 597.13 724.94 597.13 725.9 597.13 726.85 597.13 727.8 597.13 728.76 597.13 729.71 597.13 730.66 597.13 731.62 597.13 732.57 597.13 733.52 597.13 734.48 597.13 735.43 597.13 736.38 597.13 737.33 597.13 738.29 597.13 739.24 597.13 740.19 597.13 741.15 597.13 742.1 597.13 743.05 597.13 744.01 597.13 744.96 597.13 745.91 597.13 746.87 597.13 747.82 597.13 748.77 597.13 749.73 597.13 750.68 597.13 751.63 597.13 752.59 597.13 753.54 597.13 754.49 596.33 754.52 595.39 754.57 594.45 754.63 593.51 754.69 592.57 754.76 591.63 754.83 590.69 754.9 589.75 754.97 588.82 755.05 587.89 755.12 586.97 755.19 586.05 755.26 585.15 755.32 584.27 755.39 583.4 755.45 582.54 755.51 581.69 755.58 580.83 755.64 579.97 755.7 579.09 755.76 578.19 755.82 577.27 755.88 576.35 755.94 575.41 756 574.48 756.06 573.54 756.12 572.6 756.18 571.66 756.24 570.71 756.3 569.77 756.35 568.83 756.41 567.88 756.46 566.94 756.52 566 756.57 565.05 756.62 564.11 756.67 563.17 756.72 562.22 756.77 561.28 756.82 560.34 756.87 559.4 756.92 558.45 756.96 557.51 757 556.57 757.05 555.63 757.09 554.69 757.13 553.75 757.17 552.8 757.21 551.86 757.25 550.92 757.29 549.98 757.33 549.04 757.36 548.1 757.4 547.16 757.43 546.22 757.47 545.29 757.5 544.35 757.53 543.41 757.56 542.47 757.59 541.53 757.62 540.59 757.65 539.66 757.67 538.72 757.7 537.78 757.72 537.39 756.49 537 755.25 536.6 754.02 536.21 752.78 535.82 751.55 535.43 750.31 535.03 749.07 534.64 747.83 534.03 747.85 533.41 747.86 532.41 748.74 531.37 749.57 530.34 750.4 529.26 751.17 528.19 751.95 527.08 752.66 525.96 753.38 524.81 754.04 523.66 754.71 522.48 755.31 521.29 755.92 520.06 756.47 518.84 757.02 517.58 757.51 516.32 758 515.03 758.44 513.73 758.87 512.4 759.25 511.06 759.63 509.68 759.95 508.3 760.27 506.88 760.53 505.46 760.79 504 760.99 502.54 761.2 501.05 761.34 499.55 761.49 498.01 761.57 497.24 761.61 496.46 761.64 495.69 761.64 494.9 761.6 494.11 761.56 493.31 761.53 492.51 761.5 491.7 761.48 491.7 761.48 491.7 761.48 490.48 761.46 489.28 761.46 488.08 761.46 486.9 761.44 485.71 761.35 484.55 761.23 483.38 761.1 482.23 760.95 481.09 760.79 479.95 760.61 478.82 760.41 477.71 760.19 476.6 759.97 475.51 759.72 474.41 759.47 473.33 759.18 472.26 758.9 471.2 758.58 470.14 758.26 469.1 757.92 468.06 757.57 467.04 757.19 466.02 756.8 465.01 756.39 464.01 755.98 463.02 755.54 462.04 755.09 461.07 754.62 460.11 754.14 459.16 753.64 458.22 753.13 457.29 752.59 456.36 752.06 455.46 751.49 454.55 750.92 453.67 750.33 452.79 749.73 451.93 749.1 451.07 748.47 450.23 747.82 449.39 747.16 448.57 746.48 447.75 745.79 446.95 745.08 446.15 744.36 445.37 743.62 444.59 742.88 443.82 742.11 443.05 741.34 442.29 740.54 441.54 739.74 440.8 738.92 440.06 738.09 439.33 737.24 438.6 736.39 437.89 735.51 437.17 734.63 436.47 733.72 435.77 732.82 435.09 731.89 434.41 730.96 433.74 730 433.07 729.04 432.41 728.06 431.76 727.08 431.12 726.07 430.48 725.06 429.86 724.03 429.24 722.99 428.63 721.93 428.03 720.87 427.44 719.79 426.85 718.7 426.28 717.59 425.71 716.47 425.16 715.34 424.61 714.2 424.08 713.03 423.54 711.86 423.03 710.67 422.52 709.48 422.04 708.26 421.55 707.04 421.09 705.79 420.63 704.54 420.19 703.27 419.76 701.99 419.35 700.69 418.94 699.39 418.55 698.06 418.17 696.73 417.8 695.37 417.44 694.01 417.1 692.63 416.76 691.24 416.44 689.83 416.13 688.41 415.83 686.97 415.53 685.53 415.26 684.06 414.98 682.59 414.73 681.09 414.47 679.59 414.23 678.07 414 676.54 413.78 674.99 413.57 673.43 413.37 671.85 413.18 670.27 413 668.66 412.82 667.05 412.67 665.41 412.51 663.77 412.37 662.1 412.24 660.43 412.12 658.74 412 657.04 411.91 655.32 411.81 653.59 411.73 651.84 411.65 650.08 411.59 648.3 411.54 646.52 411.5 644.71 411.46 642.9 411.44 641.06 411.43 640.14 411.42 639.22 411.42 638.29 411.42 637.36 411.42 637.36 411.42 637.36 411.42 635.51 411.44 633.69 411.47 631.87 411.51 630.08 411.56 628.29 411.63 626.53 411.7 624.77 411.8 623.04 411.89 621.32 412.01 619.62 412.12 617.92 412.26 616.25 412.4 614.58 412.57 612.94 412.73 611.3 412.92 609.7 413.11 608.09 413.32 606.51 413.53 604.93 413.76 603.38 414 601.84 414.26 600.32 414.51 598.8 414.8 597.31 415.08 595.83 415.38 594.37 415.69 592.91 416.01 591.48 416.34 590.06 416.69 588.66 417.04 587.26 417.42 585.9 417.79 584.53 418.19 583.19 418.59 581.86 419.01 580.55 419.43 579.24 419.88 577.97 420.32 576.69 420.79 575.44 421.26 574.2 421.75 572.98 422.25 571.77 422.76 570.58 423.28 569.39 423.82 568.24 424.35 567.08 424.92 565.96 425.48 564.83 426.07 563.74 426.65 562.64 427.26 561.57 427.87 560.51 428.5 559.47 429.14 558.44 429.79 557.43 430.45 556.43 431.13 555.46 431.81 554.48 432.51 553.54 433.22 552.59 433.94 551.68 434.67 550.77 435.42 549.88 436.17 549 436.95 548.14 437.73 547.29 438.55 546.47 439.36 545.64 440.21 544.85 441.05 544.05 441.93 543.28 442.8 542.52 443.71 541.78 444.62 541.04 445.55 540.33 446.49 539.62 447.46 538.94 448.43 538.26 449.43 537.61 450.43 536.96 451.47 536.34 452.5 535.72 453.56 535.14 454.62 534.55 455.72 534 456.81 533.45 457.94 532.93 459.06 532.41 460.22 531.92 461.37 531.43 462.56 530.97 463.75 530.51 464.97 530.07 466.18 529.63 467.43 529.21 468.68 528.79 469.97 528.4 471.25 528 472.56 527.62 473.88 527.24 475.22 526.89 476.57 526.53 477.94 526.21 479.32 525.89 480.72 525.61 482.13 525.35 483.57 525.14 485 524.94 486.47 524.77 487.93 524.6 489.43 524.46 490.93 524.32 492.46 524.18 493.99 524.04 495.55 523.93 496.33 523.88 497.12 523.83 497.9 523.78 498.7 523.74 499.5 523.7 500.3 523.67 501.1 523.65 501.91 523.65 502.72 523.64 503.54 523.64 504.36 523.64 505.19 523.65 506.01 523.66 506.85 523.67 507.68 523.69 508.52 523.71 509.36 523.73 510.21 523.76 511.06 523.77 511.92 523.79 512.78 523.82 513.64 523.84 514.51 523.87 515.38 523.91 515.38 523.91 515.38 523.91 516.39 523.95 517.42 524 518.44 524.05 519.47 524.1 520.51 524.18 521.55 524.27 522.6 524.36 523.65 524.47 524.71 524.57 525.78 524.68 526.85 524.8 527.93 524.92 529.01 525.04 530.1 525.16 531.2 525.26 532.3 525.37 533.41 525.48 534.53 525.59 535.64 525.71 536.77 525.84 537.9 525.96 539.05 526.09 540.19 526.21 541.34 526.32 542.5 526.42 543.67 526.54 544.84 526.65 546.01 526.77 547.19 526.9 548.38 527.04 549.57 527.2 550.77 527.4 551.97 527.6 553.19 527.82 554.4 528.04 555.62 528.26 556.84 528.49 558.08 528.72 559.31 528.95 560.56 529.18 561.81 529.4 563.07 529.63 564.33 529.86 565.6 530.1 566.87 530.35 568.15 530.6 569.43 530.86 570.72 531.14 572.01 531.42 573.32 531.7 574.62 531.99 575.94 532.28 577.25 532.57 578.58 532.86 579.91 533.14 581.25 533.42 582.58 533.7 583.93 533.98 585.28 534.26 586.64 534.54 588 534.82 589.37 535.1 590.73 535.38 592.11 535.67 592.11 535.67 592.11 535.67 592.11 535.67 592.11 535.67M792.93 660.84Q792.84 661.72 792.74 662.61 792.65 663.49 792.56 664.38 792.47 665.26 792.38 666.15 792.28 667.04 792.19 667.92 792.1 668.81 792.01 669.7 791.92 670.58 791.83 671.47 791.73 672.36 791.64 673.25 791.55 674.13 791.46 675.02 791.37 675.91 791.28 676.8 791.18 677.69 791.09 678.57 791 679.46 790.91 680.35 790.82 681.24 790.73 682.13 790.63 683.02 790.54 683.91 790.45 684.8 790.36 685.69 790.27 686.59 790.18 687.48 790.09 688.37 790 689.26 789.9 690.15 789.81 691.05 789.72 691.94 789.63 692.83 789.54 693.73 789.45 694.62 789.36 695.52 789.27 696.42 789.18 697.31 789.08 698.21 788.99 699.11 788.9 700.01 788.81 700.91 788.72 701.81 788.63 702.71 788.54 703.62 788.45 704.52 788.36 705.43 788.27 706.34 788.18 707.25 788.08 708.17 787.99 709.08 787.9 710.01 787.8 710.94 787.71 711.87 787.61 712.82 787.51 713.77 787.41 714.74 787.3 715.73 787.18 716.73 787.05 717.75 786.95 718.62 785.73 719.03 784.51 719.45 783.29 719.87 781.91 720.33 780.47 720.81 779.02 721.3 777.58 721.78 776.23 722.22 775.01 722.61 773.78 723.01 772.56 723.4 771.31 723.81 769.87 724.26 768.42 724.71 766.97 725.17 765.52 725.62 764.08 726.06 762.63 726.5 761.18 726.94 759.73 727.38 758.39 727.78 757.17 728.14 755.94 728.5 754.72 728.86 753.44 729.23 751.99 729.64 750.54 730.06 749.09 730.47 747.64 730.88 746.39 731.23 745.16 731.57 743.93 731.91 742.7 732.25 741.33 732.62 739.88 733 738.43 733.39 736.97 733.78 735.52 734.17 734.06 734.54 732.61 734.92 731.16 735.29 729.7 735.67 728.25 736.03 726.79 736.39 725.34 736.75 723.89 737.12 722.58 737.43 721.35 737.73 720.11 738.03 718.87 738.33 717.55 738.64 716.1 738.98 714.64 739.32 713.19 739.66 711.75 739.99 710.51 740.27 709.27 740.55 708.03 740.83 706.79 741.11 705.38 741.42 703.92 741.73 702.46 742.05 701.01 742.36 699.55 742.67 698.1 742.98 696.64 743.28 695.19 743.59 693.73 743.89 692.28 744.18 690.82 744.47 689.37 744.76 687.92 745.05 686.64 745.3 685.39 745.54 684.13 745.79 682.88 746.03 681.51 746.28 680.06 746.55 678.61 746.83 677.15 747.1 675.7 747.36 674.24 747.62 672.79 747.88 671.34 748.14 669.89 748.4 668.61 748.61 667.35 748.83 666.09 749.04 664.83 749.26 663.44 749.49 661.98 749.73 660.53 749.97 659.08 750.2 657.62 750.44 656.17 750.66 654.72 750.89 653.27 751.12 651.81 751.34 650.36 751.56 648.91 751.77 647.46 751.99 646.01 752.2 644.56 752.41 643.12 752.62 641.67 752.82 640.22 753.02 638.77 753.22 637.33 753.42 635.88 753.61 634.44 753.8 633.01 753.99 631.73 754.16 630.44 754.32 629.16 754.48 627.87 754.65 626.58 754.8 625.29 754.96 623.99 755.12 622.7 755.27 621.32 755.44 619.87 755.6 618.42 755.77 616.97 755.93 615.52 756.09 614.07 756.25 612.63 756.41 611.18 756.56 609.79 756.73 609.69 755.09 609.66 753.3 609.62 751.51 609.58 749.72 609.55 747.94 609.51 746.15 609.47 744.36 609.44 742.57 609.4 740.78 609.36 738.99 609.33 737.2 609.29 735.41 609.25 733.63 609.22 731.84 609.18 730.05 609.15 728.26 609.11 726.47 609.07 724.68 609.04 722.89 609 721.1 608.96 719.32 608.93 717.53 608.89 715.74 608.85 713.95 608.82 712.16 608.79 710.37 608.79 708.58 608.79 706.8 608.79 705.01 608.79 703.22 608.79 701.43 608.79 699.64 608.79 697.85 608.79 696.06 608.79 694.27 608.79 692.49 608.79 690.7 608.79 688.91 608.79 687.12 608.79 685.33 608.79 683.54 608.79 681.75 608.79 679.97 608.79 678.18 608.79 676.39 608.79 674.6 608.79 672.81 608.79 671.02 608.79 669.23 608.79 667.44 608.79 665.66 608.79 663.87 608.79 662.08 608.79 660.29 608.79 658.5 608.79 656.71 608.79 654.92 608.79 653.14 608.79 651.35 608.79 649.56 608.79 647.77 608.79 645.98 608.79 644.19 608.79 642.4 608.79 640.62 608.79 638.83 608.79 637.04 608.79 635.25 608.79 633.46 608.79 631.67 608.79 629.88 608.79 628.1 608.79 626.31 608.79 624.52 608.79 622.73 608.79 620.94 608.79 619.15 608.79 617.36 608.79 615.58 608.79 613.79 608.79 612 608.79 610.21 608.79 608.42 608.79 606.63 608.79 604.84 608.79 603.06 608.79 601.27 608.79 599.48 608.79 597.69 608.79 595.9 608.79 594.11 608.79 592.32 608.79 590.54 608.79 588.75 608.79 586.96 608.79 585.17 608.79 583.38 608.79 581.59 608.79 579.8 608.79 578.02 608.79 576.23 608.79 574.44 608.79 572.65 608.79 570.86 608.79 569.07 608.79 567.29 608.79 565.5 608.79 563.71 608.79 561.92 608.79 560.13 608.79 558.34 608.79 556.55 608.79 554.77 608.79 552.98 608.79 551.19 608.79 549.4 608.79 547.61 608.79 545.82 608.79 544.03 608.79 542.25 608.79 540.46 608.79 538.67 608.79 536.88 608.79 535.09 608.79 533.3 608.79 531.51 608.79 529.73 608.79 527.94 610.26 527.96 611.73 527.98 613.19 528 614.66 528.02 616.12 528.04 617.59 528.07 619.06 528.08 620.53 528.08 621.99 528.08 623.46 528.08 624.93 528.08 626.4 528.08 627.86 528.08 629.33 528.16 630.79 528.3 632.25 528.44 633.71 528.58 635.17 528.71 636.63 528.85 638.09 528.99 639.56 529.02 641.03 529.03 642.49 529.04 643.96 529.05 645.43 529.06 646.89 529.07 648.36 529.08 649.83 529.08 651.3 529.08 652.76 529.08 654.23 529.08 655.7 529.08 657.17 529.08 658.64 529.08 660.1 529.08 661.57 529.08 663.04 529.08 664.51 529.08 665.97 529.08 667.44 529.08 668.91 529.08 670.38 529.08 671.84 529.08 673.31 529.08 674.78 529.08 676.25 529.08 677.71 529.08 679.18 529.08 680.65 529.08 682.12 529.08 683.59 529.08 685.05 529.08 686.52 529.08 687.99 529.08 689.46 529.08 690.92 529.08 692.39 529.08 693.86 529.08 695.33 529.08 696.79 529.08 698.26 529.08 699.73 529.08 701.2 529.08 702.67 529.08 704.13 529.08 705.6 529.08 707.07 529.08 708.53 529 709.99 528.9 711.46 528.79 712.92 528.69 714.38 528.58 715.84 528.48 717.3 528.37 718.77 528.33 720.23 528.28 721.7 528.24 723.16 528.2 724.63 528.15 726.09 528.11 727.56 528.08 729.03 528.08 730.5 528.08 731.96 528.08 733.43 528.08 734.9 528.08 736.37 528.07 737.83 528 739.29 527.86 740.75 527.71 742.21 527.56 743.67 527.41 745.13 527.26 746.59 527.12 748.05 527.06 749.52 527.03 750.98 527 752.45 526.96 753.91 526.93 755.38 526.9 756.85 526.87 758.3 526.71 759.76 526.54 761.22 526.38 762.68 526.22 764.14 526.06 765.6 525.9 767.06 525.75 768.52 525.65 769.98 525.54 771.44 525.44 772.91 525.33 774.37 525.23 775.83 525.12 777.29 525.03 778.75 524.94 780.22 524.85 781.68 524.76 783.14 524.67 784.6 524.58 786.07 524.49 787.53 524.35 788.99 524.19 790.44 524.02 791.9 523.86 793.36 523.7 794.82 523.54 796.11 523.45 796.13 524.38 796 525.37 795.86 526.37 795.73 527.37 795.59 528.37 795.45 529.37 795.31 530.37 795.18 531.37 795.04 532.37 794.9 533.37 794.76 534.37 794.63 535.37 794.49 536.37 794.35 537.37 794.21 538.37 794.08 539.37 793.94 540.37 793.8 541.36 793.67 542.36 793.53 543.36 793.39 544.36 793.26 545.36 793.12 546.36 792.98 547.36 792.85 548.36 792.71 549.36 792.57 550.36 792.44 551.36 792.3 552.36 792.16 553.36 792.03 554.36 791.89 555.36 791.76 556.36 791.62 557.36 791.49 558.36 791.36 559.36 791.23 560.36 791.11 561.36 790.99 562.37 790.88 563.37 790.78 564.37 790.68 565.37 790.58 566.37 790.49 567.37 790.39 568.37 790.3 569.37 790.21 570.37 790.11 571.38 790.02 572.38 789.92 573.38 789.83 574.38 789.74 575.38 789.64 576.39 789.55 577.39 789.46 578.39 789.37 579.39 789.27 580.4 789.18 581.4 789.09 582.4 788.99 583.4 788.9 584.41 788.81 585.41 788.72 586.41 788.62 587.42 787.57 587.55 786.52 587.67 785.47 587.8 784.41 587.93 783.36 588.05 782.31 588.18 781.26 588.31 780.2 588.43 779.15 588.56 778.1 588.68 777.05 588.8 776 588.93 774.94 589.05 773.89 589.17 772.84 589.29 771.78 589.41 770.73 589.53 769.68 589.65 768.62 589.77 767.57 589.89 766.52 590 765.46 590.12 764.41 590.24 763.35 590.35 762.3 590.47 761.24 590.58 760.19 590.7 759.13 590.81 758.08 590.93 757.02 591.04 755.96 591.15 754.91 591.26 753.85 591.37 752.79 591.48 751.74 591.59 750.68 591.7 749.62 591.81 748.56 591.92 747.5 592.03 746.44 592.13 745.39 592.24 744.33 592.35 743.27 592.45 742.21 592.56 741.15 592.66 740.09 592.76 739.03 592.87 737.97 592.97 736.91 593.07 735.84 593.17 734.78 593.28 733.72 593.38 732.66 593.48 731.6 593.57 730.54 593.67 729.47 593.77 728.41 593.87 727.35 593.97 726.29 594.06 725.22 594.16 724.16 594.26 723.1 594.35 722.03 594.45 720.97 594.54 720.96 596.02 720.96 597.51 720.95 599 720.94 600.48 720.94 601.97 720.93 603.46 720.92 604.95 720.92 606.44 721.96 606.33 723 606.23 724.03 606.12 725.07 606.01 726.11 605.91 727.15 605.8 728.18 605.69 729.22 605.58 730.26 605.47 731.3 605.36 732.33 605.25 733.37 605.14 734.41 605.03 735.44 604.92 736.48 604.81 737.51 604.7 738.55 604.59 739.58 604.47 740.62 604.36 741.66 604.25 742.69 604.13 743.72 604.02 744.76 603.9 745.79 603.79 746.83 603.67 747.86 603.56 748.9 603.44 749.93 603.32 750.96 603.2 752 603.09 753.03 602.97 754.06 602.85 755.1 602.73 756.13 602.61 757.16 602.49 758.19 602.37 759.22 602.25 760.26 602.13 761.29 602.01 762.32 601.88 763.35 601.76 764.38 601.64 765.41 601.51 766.44 601.39 767.48 601.27 768.51 601.14 769.54 601.02 770.57 600.89 771.6 600.76 772.63 600.64 773.66 600.51 774.69 600.38 775.72 600.26 776.75 600.13 777.78 600 778.81 599.87 779.84 599.74 780.87 599.61 781.9 599.48 782.93 599.35 783.96 599.22 784.98 599.09 786.01 598.96 787.04 598.83 786.98 599.64 786.92 600.46 786.86 601.28 786.8 602.09 786.73 602.91 786.67 603.73 786.61 604.54 786.55 605.36 786.49 606.18 786.43 607 786.36 607.81 786.3 608.63 786.24 609.45 786.18 610.27 786.12 611.08 786.06 611.9 785.99 612.72 785.93 613.54 785.87 614.36 785.81 615.17 785.75 615.99 785.68 616.81 785.62 617.63 785.56 618.45 785.5 619.27 785.44 620.08 785.38 620.9 785.32 621.72 785.25 622.54 785.19 623.36 785.13 624.18 785.07 625 785.01 625.82 784.95 626.64 784.88 627.46 784.82 628.28 784.76 629.1 784.7 629.92 784.64 630.74 784.58 631.56 784.52 632.38 784.45 633.2 784.39 634.02 784.33 634.84 784.27 635.66 784.21 636.48 784.15 637.3 784.09 638.12 784.03 638.95 783.96 639.77 783.9 640.59 783.84 641.41 783.78 642.23 783.72 643.05 783.66 643.88 783.6 644.7 783.54 645.52 783.47 646.34 783.41 647.17 783.35 647.99 783.29 648.81 783.23 649.63 783.17 650.46 783.11 651.28 781.17 651.61 779.23 651.94 777.29 652.27 775.35 652.6 773.41 652.93 771.47 653.27 769.53 653.6 767.59 653.94 765.65 654.28 763.71 654.61 761.77 654.95 759.83 655.29 757.89 655.63 755.95 655.97 754.01 656.31 752.07 656.65 750.13 656.98 748.18 657.32 746.24 657.66 744.3 658 742.36 658.34 740.41 658.67 738.47 659.01 736.52 659.34 734.58 659.68 732.63 660.01 730.69 660.35 728.74 660.68 726.79 661.01 724.84 661.34 722.9 661.66 720.95 661.99 720.95 663.52 720.96 665.04 720.97 666.57 720.98 668.1 720.99 669.64 721 671.17 721.01 672.71 721.02 674.24 722.14 674.04 723.27 673.83 724.4 673.62 725.53 673.42 726.65 673.21 727.78 673 728.91 672.79 730.03 672.58 731.16 672.37 732.28 672.16 733.41 671.95 734.54 671.74 735.66 671.53 736.79 671.31 737.91 671.1 739.04 670.89 740.16 670.68 741.29 670.46 742.41 670.25 743.53 670.03 744.66 669.82 745.78 669.61 746.91 669.39 748.03 669.18 749.15 668.96 750.28 668.75 751.4 668.53 752.52 668.32 753.65 668.1 754.77 667.89 755.89 667.67 757.02 667.46 758.14 667.24 759.26 667.03 760.38 666.82 761.51 666.6 762.63 666.39 763.75 666.17 764.87 665.96 766 665.75 767.12 665.54 768.24 665.33 769.36 665.11 770.49 664.9 771.61 664.69 772.73 664.48 773.85 664.27 774.97 664.07 776.1 663.86 777.22 663.65 778.34 663.44 779.46 663.24 780.58 663.03 781.71 662.83 782.83 662.63 783.95 662.42 785.07 662.22 786.19 662.02 787.32 661.82 788.44 661.62 789.56 661.42 790.68 661.23 791.81 661.03 792.93 660.84 792.93 660.84 792.93 660.84M910.44 498.33Q911.73 497.91 912.99 497.45 914.24 496.99 915.47 496.56 916.7 496.12 917.91 495.7 919.12 495.29 920.31 494.89 921.5 494.5 922.67 494.12 923.84 493.75 924.99 493.4 926.14 493.04 927.26 492.71 928.39 492.38 929.5 492.06 930.6 491.75 931.69 491.46 932.78 491.17 933.84 490.9 934.91 490.63 935.96 490.38 937.01 490.13 938.03 489.9 939.06 489.67 940.07 489.45 941.08 489.24 942.07 489.05 943.06 488.86 944.03 488.69 945 488.51 945.95 488.35 946.91 488.19 947.84 488.05 948.77 487.9 949.68 487.76 950.59 487.63 951.49 487.51 952.38 487.39 953.26 487.28 954.14 487.17 955 487.09 955.86 487 956.71 486.93 957.56 486.85 958.4 486.8 959.24 486.75 960.06 486.71 960.89 486.68 961.71 486.67 962.54 486.66 963.35 486.67 964.16 486.68 964.97 486.72 965.78 486.76 966.59 486.82 967.4 486.89 968.2 486.97 969.01 487.07 969.81 487.18 971.44 487.43 973.04 487.77 974.67 488.13 976.27 488.58 977.9 489.05 979.49 489.62 981.11 490.2 982.67 490.88 984.24 491.57 985.73 492.35 987.22 493.14 988.61 494.02 989.99 494.9 991.25 495.87 992.5 496.85 993.64 497.91 994.19 498.44 994.72 499 995.24 499.55 995.73 500.12 996.22 500.68 996.67 501.27 997.12 501.86 997.53 502.46 997.94 503.06 998.32 503.68 998.69 504.29 999.03 504.93 999.36 505.57 999.67 506.22 999.96 506.88 1000.23 507.56 1000.49 508.24 1000.71 508.94 1000.93 509.66 1001.12 510.39 1001.3 511.14 1001.45 511.91 1001.6 512.69 1001.71 513.49 1001.81 514.3 1001.89 515.13 1001.95 515.95 1001.99 516.8 1002.02 517.64 1002.01 518.5 1002 519.36 1001.96 520.24 1001.91 521.11 1001.83 522 1001.75 522.89 1001.63 523.8 1001.5 524.71 1001.35 525.61 1001.18 526.51 1001 527.39 1000.8 528.28 1000.58 529.16 1000.35 530.04 1000.09 530.91 999.83 531.77 999.54 532.63 999.25 533.48 998.94 534.33 998.61 535.17 998.27 536 997.92 536.82 997.55 537.63 997.17 538.44 996.77 539.23 996.37 540.02 995.94 540.8 995.51 541.58 995.06 542.35 994.6 543.12 994.12 543.88 993.63 544.64 993.13 545.4 992.61 546.17 992.08 546.93 991.54 547.69 990.97 548.44 990.4 549.2 989.81 549.96 989.22 550.71 988.61 551.46 987.99 552.21 987.35 552.96 986.71 553.71 986.05 554.45 985.38 555.19 984.7 555.93 984.01 556.66 983.3 557.39 982.59 558.13 981.87 558.85 981.14 559.58 980.39 560.3 979.64 561.02 978.87 561.73 978.11 562.44 977.32 563.15 976.53 563.86 975.73 564.56 974.93 565.27 974.11 565.96 973.29 566.66 972.45 567.36 971.62 568.05 970.77 568.74 969.92 569.42 969.05 570.11 968.19 570.79 967.31 571.47 966.43 572.15 965.54 572.83 965.54 572.83 965.54 572.83 965.58 573.77 965.62 574.71 965.65 575.64 965.67 576.58 965.68 577.51 965.68 578.44 965.67 579.36 965.66 580.29 965.63 581.21 965.6 582.12 965.55 583.04 965.5 583.95 965.44 584.85 965.37 585.76 965.29 586.65 965.2 587.55 965.11 588.44 965 589.32 964.89 590.2 964.78 591.07 964.65 591.94 964.52 592.8 964.38 593.65 964.23 594.5 964.08 595.35 963.91 596.18 963.74 597.01 963.57 597.84 963.38 598.66 963.18 599.48 962.98 600.3 962.76 601.12 962.54 601.93 962.3 602.74 962.05 603.55 961.8 604.36 961.53 605.17 961.26 605.97 960.97 606.77 960.68 607.56 960.38 608.35 960.08 609.13 959.77 609.9 959.46 610.66 959.14 611.41 958.82 612.15 958.5 612.88 958.17 613.61 957.82 614.34 957.47 615.06 957.1 615.78 956.73 616.5 956.35 617.22 955.97 617.91 955.6 618.59 955.23 619.25 954.87 619.89 954.49 620.53 954.1 621.18 953.66 621.85 953.19 622.54 952.69 623.25 952.19 623.95 951.58 624.58 950.91 625.32 950.1 626.08 949.29 626.85 948.49 627.62 947.67 628.39 946.69 629.28 945.71 630.17 944.72 631.07 943.74 631.96 942.75 632.86 941.74 633.73 940.73 634.61 939.72 635.49 938.72 636.37 937.73 637.22 936.89 637.92 936.05 638.63 935.2 639.33 934.36 640.04 933.48 640.77 932.43 641.61 931.39 642.45 930.34 643.29 929.3 644.13 928.31 644.92 927.45 645.59 926.6 646.25 925.74 646.91 924.89 647.58 923.96 648.29 922.88 649.09 921.81 649.9 920.73 650.7 919.66 651.51 918.57 652.3 917.48 653.09 916.38 653.88 915.29 654.66 914.2 655.45 913.21 656.15 912.34 656.76 911.47 657.36 910.6 657.97 909.72 658.58 908.72 659.26 907.6 660.01 906.48 660.77 905.36 661.52 904.24 662.27 903.2 662.96 902.19 663.62 901.19 664.27 900.18 664.92 899.18 665.57 898.17 666.21 897.16 666.85 896.15 667.48 895.14 668.12 894.13 668.76 893.02 669.44 891.86 670.14 890.71 670.84 889.55 671.55 888.4 672.25 888.43 671.55 888.49 670.7 888.54 669.85 888.58 669.01 888.62 668.16 888.65 667.32 888.68 666.48 888.71 665.64 888.73 664.8 888.76 663.97 888.78 663.13 888.8 662.29 888.82 661.46 888.84 660.62 888.86 659.79 888.87 658.95 888.89 658.12 888.91 657.29 888.93 656.46 888.94 655.62 888.96 654.79 888.98 653.96 888.99 653.14 889.01 652.31 889.03 651.48 889.05 650.65 889.06 649.83 889.08 649 889.09 648.18 889.11 647.35 889.13 646.53 889.14 645.71 889.16 644.89 889.17 644.07 889.19 643.25 889.2 642.43 889.22 641.61 889.23 640.79 889.24 639.97 889.25 639.16 889.27 638.34 889.28 637.53 889.29 636.71 889.3 635.9 889.31 635.08 889.32 634.27 889.33 633.46 889.33 632.65 889.34 631.83 889.34 631.02 889.35 630.21 889.35 629.4 889.36 628.59 889.36 627.78 889.36 626.97 889.36 626.17 889.36 625.36 889.36 624.55 889.35 623.74 889.35 622.94 889.34 622.13 889.34 621.32 889.33 620.52 889.32 619.71 888.04 620.28 886.76 620.84 885.48 621.41 884.21 621.97 884.07 622.85 883.93 623.74 883.79 624.62 883.64 625.51 883.5 626.39 883.36 627.28 883.22 628.17 883.07 629.06 882.93 629.95 882.79 630.84 882.64 631.73 882.5 632.62 882.35 633.51 882.21 634.4 882.06 635.3 881.92 636.19 881.77 637.09 881.63 637.99 881.48 638.88 881.33 639.78 881.19 640.68 881.04 641.58 880.9 642.48 880.75 643.38 880.6 644.29 880.46 645.19 880.31 646.1 880.16 647 880.02 647.91 879.87 648.82 879.72 649.73 879.58 650.64 879.43 651.55 879.29 652.46 879.14 653.37 879 654.29 878.85 655.2 878.71 656.12 878.56 657.04 878.42 657.95 878.27 658.87 878.13 659.79 877.98 660.71 877.84 661.63 877.7 662.56 877.55 663.48 877.41 664.4 877.27 665.33 877.12 666.25 876.98 667.18 876.83 668.11 876.69 669.03 876.55 669.96 876.4 670.89 876.26 671.81 876.11 672.74 875.97 673.67 875.82 674.59 875.67 675.52 875.53 676.44 875.38 677.37 875.23 678.29 875.07 679.2 874.94 679.98 873.72 680.66 872.49 681.34 871.39 681.93 870.32 682.51 869.24 683.09 868.17 683.66 867.09 684.24 866.02 684.8 864.94 685.36 863.86 685.92 862.79 686.48 861.66 687.06 860.42 687.69 859.17 688.32 857.92 688.95 856.67 689.58 855.51 690.16 854.43 690.69 853.35 691.22 852.26 691.75 851.18 692.28 849.96 692.87 848.7 693.47 847.44 694.07 846.18 694.67 844.92 695.26 843.83 695.77 842.74 696.27 841.65 696.77 840.56 697.27 839.43 697.79 838.16 698.36 836.88 698.93 835.61 699.5 834.34 700.07 833.16 700.59 832.06 701.07 830.97 701.54 829.88 702.02 828.78 702.49 827.69 702.96 826.6 703.42 825.5 703.88 824.41 704.35 823.31 704.81 822.04 705.34 820.75 705.86 819.47 706.39 818.18 706.92 816.9 707.44 815.61 707.95 814.32 708.47 813.03 708.98 811.74 709.49 810.54 709.97 809.44 710.39 808.34 710.81 807.24 711.24 806.14 711.66 804.9 712.13 803.61 712.62 802.31 713.1 801.02 713.59 799.76 714.08 799.95 712.71 800.19 711.21 800.44 709.71 800.69 708.21 800.94 706.71 801.19 705.21 801.43 703.71 801.68 702.21 801.93 700.71 802.18 699.21 802.43 697.71 802.68 696.21 802.92 694.71 803.17 693.21 803.42 691.71 803.67 690.21 803.92 688.71 804.17 687.21 804.41 685.71 804.66 684.21 804.91 682.7 805.16 681.2 805.41 679.7 805.66 678.2 805.9 676.7 806.06 675.2 806.06 673.7 806.06 672.2 806.07 670.7 806.07 669.2 806.07 667.7 806.07 666.2 806.07 664.7 806.07 663.2 806.07 661.7 806.07 660.2 806.07 658.7 806.07 657.2 806.07 655.7 806.07 654.2 806.07 652.7 806.07 651.2 806.07 649.7 806.07 648.2 806.07 646.7 806.07 645.2 806.07 643.7 806.07 642.2 806.07 640.7 806.07 639.19 806.07 637.69 806.07 636.19 806.07 634.69 806.07 633.19 806.07 631.69 806.07 630.19 806.07 628.69 806.07 627.19 806.07 625.69 806.07 624.19 806.07 622.69 806.07 621.19 806.07 619.69 806.07 618.19 806.07 616.69 806.07 615.19 806.07 613.69 806.07 612.19 806.07 610.69 806.07 609.19 806.07 607.69 806.07 606.19 806.07 604.69 806.07 603.19 806.07 601.69 806.07 600.19 806.07 598.69 806.07 597.19 806.07 595.69 806.07 594.19 806.07 592.69 806.07 591.19 806.07 589.69 806.07 588.19 806.07 586.68 806.07 585.18 806.07 583.68 806.07 582.18 806.07 580.68 806.07 579.18 806.07 577.68 806.07 576.18 806.07 574.68 806.07 573.18 806.07 571.68 806.07 570.18 806.07 568.68 806.07 567.18 806.07 565.68 806.07 564.18 806.07 562.68 806.07 561.18 806.07 559.68 806.07 558.18 806.07 556.68 806.07 555.18 806.07 553.68 806.07 552.18 806.07 550.68 806.07 549.18 806.07 547.68 806.07 546.18 806.07 544.68 806.07 543.18 806.07 541.68 806.07 540.18 806.07 538.68 806.07 537.18 806.07 535.68 806.07 534.18 806.07 532.68 806.07 531.18 806.07 529.68 806.07 528.18 806.07 526.68 806.07 525.18 806.07 523.68 806.08 522.18 806.91 522.08 807.74 521.99 808.57 521.9 809.41 521.8 810.24 521.71 811.07 521.62 811.91 521.52 812.74 521.43 813.57 521.33 814.41 521.24 815.24 521.15 816.07 521.02 816.88 520.84 817.7 520.65 818.52 520.46 819.33 520.28 820.15 520.09 820.97 519.91 821.78 519.72 822.6 519.53 823.42 519.35 824.23 519.16 825.05 518.97 825.87 518.82 826.7 518.68 827.53 518.55 828.36 518.42 829.18 518.29 830.01 518.16 830.84 518.03 831.67 517.9 832.49 517.77 833.32 517.64 834.15 517.51 834.98 517.38 835.8 517.24 836.63 517.09 837.45 516.94 838.27 516.79 839.1 516.64 839.92 516.49 840.74 516.34 841.57 516.18 842.39 516.03 843.22 515.88 844.04 515.73 844.86 515.58 845.69 515.42 846.51 515.26 847.33 515.1 848.15 514.93 848.97 514.77 849.79 514.61 850.61 514.45 851.43 514.28 852.26 514.12 853.08 513.96 853.9 513.8 854.72 513.63 855.54 513.45 856.35 513.26 857.17 513.07 857.99 512.88 858.81 512.7 859.62 512.51 860.44 512.32 861.26 512.13 862.07 511.95 862.89 511.76 863.71 511.57 864.53 511.38 865.34 511.18 866.15 510.98 866.97 510.78 867.78 510.58 868.6 510.38 869.41 510.18 870.23 509.98 871.04 509.79 871.85 509.59 872.67 509.39 873.48 509.19 874.3 508.99 875.11 508.78 875.92 508.58 876.74 508.37 877.55 508.17 878.37 507.97 879.18 507.76 879.99 507.56 880.81 507.36 881.62 507.15 882.43 506.95 883.25 506.75 884.05 506.52 884.86 506.29 885.66 506.06 886.47 505.83 887.27 505.59 888.08 505.36 888.88 505.13 889.68 504.9 890.49 504.66 891.29 504.43 892.1 504.2 892.9 503.97 893.7 503.72 894.5 503.46 895.3 503.21 896.1 502.96 896.89 502.7 897.69 502.45 898.49 502.2 899.29 501.94 900.09 501.69 900.88 501.44 901.68 501.18 902.48 500.93 903.27 500.67 904.07 500.41 904.87 500.15 905.66 499.89 906.46 499.63 907.25 499.37 908.05 499.11 908.85 498.85 909.64 498.59 910.44 498.33 910.44 498.33 910.44 498.33M888.86 579.97Q890.1 579.53 891.33 579.09 892.57 578.65 893.81 578.21 895.05 577.77 896.29 577.32 897.54 576.88 898.79 576.43 898.9 575.53 899.01 574.63 899.12 573.73 899.23 572.83 899.34 571.94 899.45 571.04 899.55 570.14 899.66 569.24 899.76 568.35 899.86 567.45 899.96 566.56 900.06 565.66 900.15 564.77 900.25 563.87 900.34 562.98 900.43 562.09 900.52 561.2 900.61 560.3 900.7 559.41 900.79 558.52 900.87 557.64 900.95 556.75 901.04 555.86 901.12 554.97 901.2 554.09 901.27 553.2 901.35 552.32 901.43 551.43 901.5 550.55 901.57 549.67 901.64 548.79 901.71 547.91 900.43 548.33 899.16 548.74 897.89 549.15 896.61 549.57 895.34 549.98 894.08 550.39 892.81 550.8 891.54 551.2 891.48 552.09 891.41 552.98 891.34 553.86 891.27 554.75 891.2 555.64 891.12 556.54 891.05 557.43 890.98 558.32 890.9 559.21 890.83 560.11 890.75 561 890.67 561.9 890.59 562.8 890.51 563.7 890.43 564.59 890.34 565.49 890.26 566.39 890.18 567.29 890.09 568.2 890 569.1 889.91 570 889.82 570.9 889.73 571.81 889.64 572.71 889.55 573.62 889.45 574.52 889.36 575.43 889.26 576.34 889.16 577.25 889.07 578.15 888.97 579.06 888.86 579.97 888.86 579.97 888.86 579.97"></path></svg>