<svg id="warpedSvg0" xmlns="http://www.w3.org/2000/svg" data-id="0" data-media-id="WHgfIcSGIkX" style="visibility: visible" viewBox="30.110000610351562 236.22999572753906 973.760009765625 523.4500122070312" width="978.760009765625px" height="528.4500122070312px">
        <defs>
            <linearGradient id="sampleGradient" gradientTransform="rotate(1)" x1="0%" y1="50%" x2="100%" y2="50%" gradientUnits="userSpaceOnUse">
                <stop offset="0%" id="first_color" stop-color="#6b6fff"></stop>
                <stop offset="100%" id="second_color" stop-color="#bc91c1"></stop>
            </linearGradient>
        </defs>
    <path fill="#be816c" d="M131.21 478.31Q128.48 477.92 125.76 477.53 123.03 477.14 120.31 476.7 117.6 476.27 114.88 475.84 112.15 475.46 109.41 475.2 106.66 474.93 103.92 474.67 101.18 474.41 98.43 474.15 95.69 473.9 92.94 473.62 90.21 473.3 87.47 472.98 84.73 472.66 82.01 472.23 79.3 471.75 76.59 471.27 73.87 470.84 71.12 470.59 68.38 470.34 65.63 470.09 62.9 469.72 60.18 469.28 57.46 468.84 54.74 468.41 52 468.1 49.26 467.79 46.53 467.47 43.79 467.13 43.96 466.5 44.17 465.77 44.39 465.03 44.61 464.3 44.84 463.57 45.07 462.84 45.3 462.11 45.54 461.39 45.77 460.67 46 459.95 46.23 459.25 46.45 458.54 46.68 457.85 46.9 457.16 47.12 456.49 47.34 455.82 47.55 455.16 47.76 454.51 47.97 453.87 48.18 453.24 48.38 452.62 48.58 452 48.78 451.39 48.98 450.79 49.18 450.2 49.38 449.61 49.57 449.02 49.77 448.45 49.96 447.87 50.15 447.3 50.35 446.74 50.54 446.18 50.73 445.62 50.92 445.07 51.12 444.52 51.31 443.97 51.5 443.42 51.69 442.88 51.89 442.34 52.08 441.8 52.28 441.26 52.47 440.73 52.67 440.2 52.86 439.67 53.06 439.14 53.25 438.61 53.45 438.08 53.65 437.56 53.85 437.04 54.04 436.51 54.24 435.99 54.45 435.47 54.65 434.95 54.85 434.44 55.05 433.92 55.25 433.41 55.46 432.89 55.66 432.38 55.87 431.87 56.08 431.35 56.28 430.84 56.49 430.34 56.7 429.83 56.91 429.32 57.12 428.81 57.33 428.31 57.55 427.8 57.76 427.3 57.97 426.79 58.19 426.29 58.4 425.79 58.62 425.29 58.84 424.78 59.06 424.29 59.28 423.79 59.5 423.29 59.72 422.79 59.94 422.29 60.16 421.8 60.39 421.3 60.61 420.81 60.84 420.31 61.06 419.82 61.29 419.32 61.52 418.83 61.75 418.34 61.98 417.85 62.21 417.36 62.44 416.87 62.67 416.38 62.9 415.89 63.14 415.41 63.37 414.92 63.61 414.43 63.85 413.95 64.08 413.46 64.32 412.98 64.56 412.49 64.8 412.01 65.04 411.53 65.28 411.05 65.53 410.56 65.77 410.08 66.02 409.6 66.26 409.12 66.51 408.65 66.75 408.17 67 407.69 67.25 407.21 67.5 406.74 67.75 406.26 68 405.79 68.25 405.31 68.51 404.84 68.76 404.37 69.01 403.89 69.27 403.42 69.53 402.95 69.78 402.48 70.04 402.01 70.3 401.54 70.56 401.07 70.82 400.61 71.08 400.14 71.34 399.67 71.6 399.21 71.87 398.74 72.13 398.27 70.77 398.49 69.41 398.71 68.06 398.92 66.7 399.13 65.33 399.35 63.97 399.56 62.61 399.77 61.25 399.98 59.88 400.18 58.52 400.39 57.15 400.6 55.79 400.8 54.42 401.01 53.06 401.21 51.69 401.42 50.33 401.62 50.73 401.12 51.12 400.62 51.51 400.11 51.91 399.61 52.32 399.12 52.72 398.63 53.13 398.13 53.54 397.64 53.94 397.15 54.35 396.66 54.75 396.17 55.16 395.67 55.57 395.18 55.98 394.7 56.4 394.21 56.82 393.73 57.24 393.25 57.66 392.77 58.08 392.29 58.5 391.81 58.92 391.33 59.34 390.85 59.76 390.37 60.19 389.9 60.62 389.42 61.05 388.95 61.49 388.48 61.92 388.01 62.35 387.54 62.78 387.07 63.21 386.6 63.64 386.13 64.9 385.78 66.15 385.42 67.4 385.06 68.64 384.7 69.88 384.33 71.12 383.96 72.36 383.58 73.59 383.21 74.82 382.82 76.05 382.43 77.27 382.04 78.5 381.65 79.71 381.25 80.93 380.85 82.14 380.44 83.35 380.03 83.8 379.36 84.24 378.68 84.69 378.01 85.14 377.33 85.59 376.66 86.04 375.98 86.48 375.31 86.93 374.63 87.38 373.95 87.83 373.28 88.28 372.6 88.73 371.92 89.18 371.24 89.62 370.55 90.07 369.87 90.51 369.18 90.95 368.48 91.38 367.78 91.81 367.07 92.24 366.36 92.66 365.63 93.07 364.9 93.47 364.15 93.86 363.38 94.23 362.6 94.59 361.8 94.94 360.97 95.26 360.12 95.56 359.23 95.84 358.32 96.09 357.38 96.33 356.42 97.87 355.22 99.41 354.03 100.95 352.86 102.51 351.69 104.07 350.53 105.63 349.37 107.21 348.24 108.79 347.1 110.37 345.97 111.96 344.86 113.56 343.75 115.16 342.64 116.77 341.56 118.38 340.47 120 339.39 121.63 338.33 123.26 337.27 124.89 336.21 126.53 335.17 128.17 334.13 129.82 333.1 131.47 332.08 133.13 331.07 134.79 330.06 136.46 329.06 138.14 328.07 139.81 327.08 141.49 326.1 143.18 325.14 144.86 324.18 146.55 323.22 148.25 322.27 148.07 323.33 147.89 324.41 147.72 325.49 147.56 326.59 147.4 327.69 147.24 328.79 147.09 329.9 146.94 331 146.78 332.11 146.63 333.22 146.48 334.33 146.33 335.44 146.18 336.54 146.04 337.65 145.89 338.76 145.74 339.86 145.59 340.97 145.44 342.07 145.29 343.17 145.15 344.27 145 345.37 144.86 346.47 144.71 347.57 144.57 348.67 144.43 349.76 144.29 350.86 144.15 351.95 144.01 353.05 143.87 354.14 143.74 355.23 143.6 356.32 143.47 357.41 145.19 356.79 146.91 356.17 148.64 355.56 150.37 354.96 152.09 354.36 153.83 353.77 155.56 353.18 157.3 352.6 159.04 352.02 160.78 351.46 162.53 350.9 164.28 350.34 166.04 349.8 167.81 349.26 169.58 348.73 171.15 348.27 171.15 349.27 171.15 350.28 171.15 351.28 171.15 352.29 171.15 353.3 171.15 354.3 171.15 355.31 171.15 356.31 171.15 357.32 171.15 358.32 171.15 359.33 171.15 360.33 171.15 361.34 171.15 362.34 171.15 363.35 171.15 364.35 171.15 365.36 171.15 366.36 171.15 367.37 171.15 368.37 171.15 369.38 171.15 370.38 171.15 371.39 171.15 372.39 171.15 373.4 171.15 374.4 171.15 375.41 171.15 376.42 171.15 377.42 171.15 378.43 171.14 379.43 171.14 380.44 169.43 380.73 167.49 381.08 165.54 381.42 163.6 381.77 161.65 382.11 159.71 382.46 157.77 382.81 155.83 383.16 153.89 383.52 151.95 383.87 150.01 384.23 148.07 384.59 146.14 384.94 144.2 385.3 142.26 385.66 140.33 386.02 140.25 386.73 140.18 387.44 140.11 388.15 140.03 388.86 139.96 389.57 139.89 390.29 139.82 391 139.75 391.71 139.67 392.42 139.6 393.13 139.53 393.84 139.46 394.55 139.39 395.26 139.32 395.97 139.25 396.68 139.17 397.39 139.1 398.1 139.03 398.82 138.96 399.53 138.89 400.24 138.82 400.95 138.75 401.66 138.68 402.38 138.62 403.09 138.55 403.8 138.48 404.51 138.41 405.23 138.34 405.94 138.27 406.65 138.2 407.37 138.13 408.08 138.07 408.79 138 409.51 137.93 410.22 137.86 410.94 137.8 411.65 137.73 412.37 137.66 413.08 137.6 413.8 137.53 414.51 137.46 415.23 137.4 415.94 137.33 416.66 137.27 417.38 137.2 418.09 137.13 418.81 137.07 419.53 137 420.24 136.94 420.96 136.87 421.68 136.81 422.4 136.75 423.12 136.68 423.83 136.62 424.55 136.55 425.27 136.49 425.99 136.43 426.71 136.36 427.43 136.3 428.15 136.24 428.87 136.17 429.59 136.11 430.32 136.05 431.04 135.98 431.76 135.92 432.48 135.86 433.21 135.8 433.93 135.74 434.65 135.67 435.38 135.61 436.1 135.55 436.82 135.49 437.55 135.43 438.27 135.36 439 135.3 439.73 135.24 440.45 135.18 441.18 135.12 441.91 135.06 442.63 135 443.36 134.93 444.09 134.87 444.82 134.81 445.55 134.75 446.28 134.69 447.01 134.63 447.74 134.56 448.47 134.5 449.2 134.44 449.93 134.38 450.66 134.32 451.39 134.25 452.12 134.19 452.85 134.13 453.59 134.06 454.32 134 455.05 133.93 455.79 133.87 456.52 133.8 457.25 133.74 457.98 133.67 458.72 133.6 459.45 133.53 460.19 133.46 460.92 133.39 461.65 133.32 462.39 133.25 463.12 133.17 463.85 133.1 464.58 133.02 465.31 132.94 466.05 132.86 466.78 132.78 467.51 132.7 468.24 132.61 468.97 132.52 469.69 132.43 470.42 132.33 471.15 132.24 471.88 132.13 472.6 132.03 473.33 131.92 474.06 131.81 474.78 131.69 475.51 131.57 476.24 131.45 476.97 131.32 477.7 131.21 478.31 131.21 478.31 131.21 478.31M257.96 491.02Q255.83 490.76 253.65 490.52 251.47 490.28 249.24 490 247 489.83 244.71 489.65 242.42 489.47 240.08 489.26 237.75 488.91 235.37 488.46 233 488.01 230.57 487.53 228.15 487.05 225.67 486.55 223.2 486.06 220.67 485.57 218.14 485.16 215.71 484.78 213.28 484.39 210.96 483.97 208.63 483.51 206.41 483.02 204.2 482.5 202.08 481.98 199.97 481.45 197.96 480.91 195.96 480.37 194.06 479.84 192.16 479.32 190.37 478.82 188.58 478.33 186.91 477.87 186.91 477.87 186.91 477.87 187.02 476.67 187.13 475.46 187.24 474.27 187.35 473.07 187.46 471.88 187.58 470.69 187.69 469.5 187.8 468.31 187.92 467.12 188.03 465.93 188.14 464.74 188.26 463.56 188.37 462.37 188.48 461.18 188.6 460 188.71 458.81 188.82 457.62 188.93 456.44 189.04 455.25 189.15 454.07 189.26 452.88 189.36 451.7 189.46 450.51 189.55 449.33 189.63 448.14 189.69 446.95 189.73 445.77 189.75 444.58 189.77 443.4 189.79 442.21 189.8 441.03 189.81 439.84 191.4 439.91 192.96 439.97 194.52 440.03 196.04 440.09 197.57 440.16 199.07 440.22 200.57 440.29 202.04 440.35 203.51 440.41 204.95 440.48 206.4 440.54 207.82 440.6 209.24 440.66 210.63 440.72 212.02 440.78 213.38 440.83 214.75 440.89 216.09 440.94 217.43 440.99 218.74 441.04 221.36 441.13 223.87 441.2 226.38 441.27 228.77 441.31 231.17 441.36 233.45 441.37 233.45 441.37 233.45 441.37 235.54 441.38 237.46 441.36 239.39 441.34 241.16 441.28 242.93 441.22 244.53 441.12 246.14 441.03 247.58 440.89 250.47 440.62 252.71 440.19 254.95 439.76 256.53 439.17 258.12 438.57 259.32 437.5 260.52 436.41 261.33 434.84 262.14 433.27 262.57 431.21 262.78 430.18 262.9 429.04 263.01 427.89 263.03 426.62 263.03 426.62 263.03 426.62 263.05 424.69 263.01 423.05 262.97 421.4 262.85 420.04 262.74 418.67 262.56 417.59 262.37 416.51 262.12 415.72 261.62 414.12 260.65 413.01 259.69 411.91 258.26 411.29 256.83 410.67 254.16 410.18 252.82 409.94 251.18 409.73 249.53 409.53 247.58 409.36 247.58 409.36 247.58 409.36 245.53 409.18 243.48 409 241.43 408.82 239.38 408.65 237.33 408.48 235.28 408.32 233.23 408.16 231.19 408 229.14 407.85 227.09 407.7 225.05 407.56 223 407.42 220.96 407.28 218.91 407.15 216.87 407.02 214.82 406.9 212.88 406.8 211.06 406.52 209.24 406.26 207.56 405.82 205.87 405.39 204.32 404.8 202.76 404.21 201.34 403.46 199.91 402.71 198.61 401.8 197.31 400.9 196.15 399.83 194.98 398.76 193.94 397.54 192.9 396.31 191.99 394.93 191.08 393.55 190.29 391.92 189.89 391.12 189.52 390.25 189.15 389.38 188.81 388.45 188.47 387.53 188.16 386.54 187.84 385.56 187.56 384.52 187.27 383.47 187.02 382.37 186.76 381.27 186.53 380.11 186.31 378.94 186.11 377.72 185.91 376.5 185.74 375.22 185.57 373.94 185.42 372.6 185.28 371.26 185.17 369.86 185.05 368.46 184.97 367 184.88 365.54 184.82 364.01 184.77 362.49 184.74 360.91 184.71 359.32 184.71 357.68 184.71 357.68 184.71 357.68 184.71 355.95 184.79 354.26 184.87 352.57 185.03 350.92 185.18 349.27 185.42 347.66 185.66 346.06 185.97 344.49 186.29 342.91 186.68 341.38 187.08 339.84 187.55 338.35 188.02 336.84 188.57 335.38 189.13 333.91 189.76 332.47 190.39 331.03 191.1 329.62 191.81 328.21 192.6 326.83 193.39 325.43 194.25 324.07 195.12 322.7 196.07 321.35 197.01 319.99 198.04 318.65 199.06 317.3 200.17 315.96 201.27 314.61 202.45 313.28 203.63 311.93 204.89 310.6 206.15 309.24 207.49 307.91 208.83 306.55 210.24 305.21 211.65 303.86 213.14 302.53 214.63 301.18 216.2 299.86 217.77 298.54 219.42 297.24 221.07 295.95 222.8 294.68 224.53 293.42 226.33 292.19 228.15 290.96 230.04 289.77 231.93 288.59 233.9 287.45 235.88 286.31 237.93 285.21 239.99 284.12 242.13 283.08 244.27 282.04 246.49 281.05 248.71 280.07 251.01 279.13 253.32 278.2 255.7 277.32 258.09 276.45 260.56 275.62 263.03 274.81 265.58 274.05 265.58 274.05 265.58 274.05 267.55 273.47 269.56 272.91 271.57 272.37 273.62 271.85 275.67 271.34 277.75 270.86 279.84 270.39 281.96 269.94 284.08 269.51 286.24 269.11 288.39 268.71 290.59 268.35 292.78 267.99 295.01 267.66 297.24 267.35 299.5 267.06 301.77 266.79 303.93 266.56 306.09 266.34 308.15 266.16 310.21 265.99 312.16 265.87 314.12 265.74 315.97 265.67 317.81 265.59 319.55 265.56 321.29 265.54 322.92 265.55 324.55 265.57 326.07 265.63 327.58 265.69 328.99 265.8 328.99 265.8 328.99 265.8 328.85 267.39 328.71 268.99 328.57 270.59 328.41 272.19 328.26 273.78 328.1 275.38 327.94 276.98 327.78 278.58 327.62 280.18 327.45 281.77 327.29 283.37 327.13 284.97 326.96 286.56 326.8 288.16 326.64 289.75 326.48 291.35 326.32 292.94 326.16 294.54 326.01 296.13 325.86 297.72 325.72 299.32 325.59 300.91 325.46 302.5 325.35 304.1 325.25 305.69 325.16 307.28 325.08 308.87 325.02 310.46 324.96 312.05 324.92 313.64 324.88 315.23 324.84 316.82 323.3 316.91 321.8 317.01 320.29 317.11 318.81 317.22 317.33 317.33 315.88 317.45 314.43 317.58 313.01 317.71 311.59 317.85 310.2 318 308.8 318.14 307.44 318.3 306.07 318.46 304.74 318.62 303.4 318.79 302.1 318.97 299.49 319.32 297 319.71 294.51 320.1 292.15 320.51 289.79 320.93 287.56 321.38 285.33 321.83 283.23 322.3 283.23 322.3 283.23 322.3 281.46 322.7 279.84 323.11 278.22 323.52 276.75 323.94 275.29 324.36 273.98 324.8 272.66 325.23 271.51 325.67 269.2 326.54 267.5 327.45 265.81 328.35 264.75 329.27 263.68 330.19 262.87 331.39 262.06 332.59 261.51 334.08 260.97 335.55 260.68 337.32 260.39 339.08 260.36 341.12 260.36 341.12 260.36 341.12 260.33 343.06 260.34 344.68 260.35 346.31 260.39 347.62 260.44 348.93 260.52 349.92 260.61 350.92 260.73 351.61 260.97 352.98 261.62 353.83 262.26 354.67 263.3 354.99 264.34 355.32 266.43 355.51 267.47 355.6 268.77 355.67 270.07 355.74 271.64 355.78 271.64 355.78 271.64 355.78 273.23 355.79 274.83 355.8 276.43 355.81 278.02 355.83 279.61 355.85 281.21 355.88 282.8 355.9 284.39 355.93 285.98 355.97 287.58 356 289.17 356.04 290.76 356.08 292.34 356.12 293.93 356.17 295.52 356.22 297.11 356.27 298.47 356.33 299.79 356.44 301.11 356.56 302.39 356.72 303.66 356.89 304.9 357.1 306.14 357.32 307.33 357.58 309.73 358.12 311.96 358.86 314.19 359.61 316.25 360.55 317.29 361.03 318.29 361.65 319.28 362.28 320.25 363.05 321.21 363.83 322.13 364.75 323.06 365.68 323.95 366.75 324.84 367.83 325.69 369.06 326.55 370.29 327.36 371.67 328.18 373.05 328.97 374.58 329.75 376.11 330.49 377.79 331.24 379.48 331.9 381.36 332.55 383.25 333.11 385.34 333.67 387.42 334.14 389.71 334.37 390.85 334.58 392.04 334.79 393.24 334.98 394.48 335.17 395.72 335.33 397.01 335.5 398.31 335.64 399.65 335.78 400.99 335.9 402.38 336.01 403.77 336.11 405.21 336.2 406.65 336.27 408.14 336.34 409.63 336.34 411.17 336.29 412.71 336.27 414.3 336.25 415.89 336.25 417.52 336.25 417.52 336.25 417.52 336.25 418.91 336.27 420.28 336.29 421.64 336.32 422.97 336.36 424.31 336.32 425.62 336.26 426.94 336.18 428.23 336.11 429.51 336.02 430.78 335.92 432.04 335.81 433.28 335.7 434.51 335.57 435.73 335.44 436.94 335.29 438.12 335.14 439.31 334.97 440.46 334.8 441.62 334.61 442.76 334.24 445.02 333.79 447.18 333.34 449.33 332.81 451.39 332.29 453.44 331.68 455.38 331.08 457.32 330.41 459.15 329.73 460.98 328.97 462.71 328.22 464.43 327.39 466.04 326.56 467.64 325.65 469.14 324.74 470.63 323.76 472 322.77 473.38 321.71 474.64 320.65 475.89 319.51 477.03 318.37 478.16 317.15 479.18 315.93 480.19 314.63 481.12 313.33 482.05 311.95 482.89 310.57 483.73 309.11 484.49 307.65 485.24 306.11 485.91 304.57 486.58 302.95 487.16 301.33 487.74 299.64 488.24 297.94 488.73 296.17 489.14 294.4 489.53 292.55 489.83 290.7 490.11 288.78 490.34 286.85 490.59 284.84 490.84 282.83 491.12 280.74 491.35 278.65 491.59 276.49 491.71 274.32 491.8 272.08 491.82 269.84 491.83 267.53 491.78 265.21 491.71 262.82 491.51 260.43 491.25 257.96 491.02 257.96 491.02 257.96 491.02 257.96 491.02 257.96 491.02M461.63 502.8Q458.89 502.57 456.15 502.33 453.41 502.1 450.66 502.03 447.91 501.98 445.16 501.94 442.41 501.86 439.66 501.72 436.91 501.59 434.16 501.46 431.42 501.31 428.67 501.16 425.93 501.01 423.18 500.9 420.42 500.87 417.67 500.83 414.92 500.8 412.17 500.61 409.43 500.36 406.69 500.11 403.95 499.91 401.2 499.91 398.44 499.91 395.68 499.91 392.94 499.72 390.2 499.44 387.46 499.16 384.73 498.91 381.97 498.91 379.21 498.91 376.46 498.91 373.71 498.75 373.73 497.71 373.76 496.49 373.79 495.29 373.82 494.1 373.85 492.92 373.88 491.75 373.91 490.59 373.94 489.43 373.97 488.27 374.01 487.12 374.04 485.96 374.08 484.81 374.11 483.66 374.15 482.52 374.18 481.37 374.22 480.22 374.25 479.08 374.29 477.94 374.32 476.79 374.36 475.65 374.4 474.51 374.43 473.37 374.47 472.23 374.5 471.09 374.54 469.95 374.58 468.81 374.61 467.67 374.65 466.53 374.68 465.4 374.72 464.26 374.75 463.12 374.78 461.99 374.82 460.85 374.85 459.71 374.88 458.58 374.91 457.44 374.94 456.3 374.97 455.17 375 454.03 375.03 452.9 375.05 451.76 375.08 450.63 375.1 449.49 375.12 448.36 375.14 447.22 375.16 446.08 375.18 444.95 375.2 443.81 375.21 442.68 375.23 441.54 375.24 440.41 375.26 439.28 375.27 438.14 375.28 437.01 375.29 435.87 375.3 434.74 375.31 433.6 375.32 432.47 375.33 431.33 375.33 430.2 375.34 429.06 375.35 427.93 375.35 426.79 375.36 425.66 375.37 424.52 375.37 423.39 375.38 422.25 375.38 421.12 375.39 419.99 375.39 418.85 375.4 417.72 375.4 416.58 375.4 415.45 375.41 414.31 375.41 413.18 375.42 412.04 375.42 410.91 375.42 409.77 375.43 408.64 375.43 407.5 375.43 406.37 375.44 405.23 375.44 404.1 375.44 402.96 375.44 401.83 375.45 400.69 375.45 399.56 375.45 398.43 375.46 397.29 375.46 396.16 375.46 395.02 375.46 393.89 375.47 392.75 375.47 391.62 375.47 390.48 375.47 389.35 375.48 388.21 375.48 387.08 375.48 385.94 375.48 384.81 375.49 383.67 375.49 382.53 375.49 381.4 375.49 380.26 375.5 379.13 375.5 377.99 375.5 376.86 375.5 375.72 375.51 374.59 375.51 373.45 375.51 372.32 375.51 371.18 375.52 370.05 375.52 368.91 375.52 367.78 375.52 366.64 375.53 365.5 375.53 364.37 375.53 363.23 375.53 362.1 375.54 360.96 375.54 359.83 375.54 358.69 375.55 357.55 375.55 356.42 375.55 355.28 375.55 354.15 375.56 353.01 373.86 353.08 372.16 353.15 370.45 353.21 368.75 353.28 367.05 353.35 365.35 353.42 363.65 353.48 361.95 353.55 360.25 353.62 358.55 353.68 356.85 353.75 355.14 353.82 353.44 353.88 351.74 353.95 350.04 354.01 348.34 354.08 348.34 352.67 348.34 351.27 348.34 349.86 348.34 348.45 348.34 347.05 348.34 345.64 348.34 344.23 348.34 342.83 348.34 341.42 348.34 340.01 348.34 338.61 348.34 337.2 348.34 335.79 348.34 334.39 348.34 332.98 348.34 331.57 348.34 330.17 348.34 328.76 348.34 327.35 348.34 325.95 348.34 324.54 348.34 323.13 348.34 321.73 348.34 320.32 348.34 318.91 348.34 317.51 348.34 316.1 348.34 314.69 348.34 313.29 348.34 311.88 348.34 310.47 348.34 309.07 350.05 308.96 351.76 308.85 353.47 308.74 355.18 308.62 356.89 308.51 358.6 308.4 360.31 308.28 362.02 308.17 363.73 308.05 365.44 307.93 367.16 307.81 368.87 307.69 370.58 307.57 372.29 307.45 374 307.33 375.71 307.21 375.72 305.47 375.73 303.73 375.74 301.98 375.75 300.24 375.76 298.5 375.76 296.75 375.77 295 375.78 293.25 375.79 291.5 375.8 289.75 375.81 287.99 375.82 286.24 375.83 284.48 375.84 282.72 375.84 280.96 375.85 279.19 375.86 277.42 375.87 275.64 375.88 273.86 375.89 272.08 375.9 270.29 375.91 268.49 375.92 266.68 375.93 264.87 375.95 263.04 375.96 261.2 375.97 259.35 375.98 257.49 376 255.61 376.01 253.72 376.03 251.82 376.05 249.91 378.83 249.5 381.61 249.11 384.39 248.72 387.17 248.34 389.96 247.97 392.74 247.61 395.53 247.26 398.31 246.91 401.1 246.58 403.89 246.25 406.68 245.93 409.47 245.62 412.26 245.32 415.06 245.03 417.85 244.75 420.64 244.47 423.44 244.21 426.24 243.95 429.03 243.7 431.83 243.46 434.63 243.23 437.43 243 440.23 242.79 443.03 242.58 445.83 242.38 448.63 242.19 451.43 242.01 454.23 241.84 457.03 241.67 459.84 241.51 462.64 241.36 465.44 241.23 465.39 243.15 465.32 245.09 465.26 247.02 465.19 248.96 465.12 250.89 465.04 252.81 464.96 254.73 464.88 256.65 464.79 258.56 464.7 260.46 464.61 262.36 464.52 264.25 464.43 266.13 464.34 268.02 464.25 269.89 464.15 271.77 464.06 273.64 463.97 275.51 463.88 277.37 463.79 279.23 463.7 281.09 463.62 282.95 463.54 284.8 463.46 286.65 463.38 288.5 463.3 290.35 463.23 292.2 463.17 294.04 463.1 295.89 463.05 297.73 462.99 299.57 462.94 301.41 465.41 301.27 467.87 301.14 470.33 301.01 472.78 300.88 475.23 300.75 477.68 300.63 480.12 300.5 482.56 300.38 484.99 300.26 487.42 300.14 489.85 300.03 492.27 299.91 494.7 299.8 497.13 299.69 499.56 299.58 501.71 299.48 501.71 301.01 501.71 302.54 501.71 304.07 501.71 305.6 501.71 307.13 501.71 308.66 501.71 310.19 501.71 311.72 501.71 313.25 501.71 314.78 501.71 316.31 501.71 317.84 501.71 319.37 501.71 320.9 501.71 322.43 501.71 323.96 501.71 325.49 501.71 327.02 501.71 328.54 501.71 330.07 501.71 331.6 501.71 333.13 501.71 334.66 501.71 336.19 501.71 337.72 501.71 339.25 501.71 340.78 501.71 342.31 501.71 343.84 501.71 345.37 501.71 346.9 501.71 348.43 499.53 348.49 497.06 348.57 494.58 348.64 492.1 348.72 489.63 348.8 487.15 348.88 484.68 348.95 482.2 349.03 479.72 349.11 477.24 349.19 474.77 349.28 472.29 349.36 469.81 349.44 467.33 349.53 464.85 349.61 462.37 349.7 462.37 350.89 462.36 352.09 462.36 353.28 462.35 354.48 462.35 355.68 462.34 356.87 462.34 358.07 462.33 359.26 462.33 360.46 462.32 361.66 462.32 362.85 462.32 364.05 462.31 365.24 462.31 366.44 462.3 367.63 462.3 368.83 462.3 370.02 462.29 371.22 462.29 372.41 462.28 373.61 462.28 374.8 462.28 376 462.27 377.19 462.27 378.39 462.27 379.58 462.26 380.78 462.26 381.97 462.26 383.17 462.25 384.36 462.25 385.56 462.25 386.75 462.24 387.95 462.24 389.14 462.24 390.34 462.23 391.53 462.23 392.73 462.23 393.92 462.22 395.12 462.22 396.31 462.22 397.51 462.21 398.7 462.21 399.9 462.21 401.09 462.2 402.29 462.2 403.48 462.2 404.68 462.19 405.87 462.19 407.07 462.19 408.26 462.18 409.45 462.18 410.65 462.18 411.84 462.17 413.04 462.17 414.23 462.16 415.43 462.16 416.62 462.16 417.82 462.15 419.01 462.15 420.21 462.15 421.4 462.14 422.6 462.14 423.79 462.13 424.99 462.13 426.18 462.13 427.38 462.12 428.58 462.12 429.77 462.11 430.97 462.11 432.16 462.1 433.36 462.1 434.55 462.1 435.75 462.09 436.94 462.09 438.14 462.08 439.33 462.08 440.53 462.07 441.73 462.07 442.92 462.06 444.12 462.06 445.31 462.05 446.51 462.05 447.71 462.04 448.9 462.04 450.1 462.03 451.3 462.03 452.49 462.02 453.69 462.01 454.88 462.01 456.08 462 457.28 462 458.47 461.99 459.67 461.98 460.87 461.98 462.07 461.97 463.26 461.96 464.46 461.96 465.66 461.95 466.85 461.94 468.05 461.94 469.25 461.93 470.45 461.92 471.64 461.91 472.84 461.91 474.04 461.9 475.24 461.89 476.44 461.88 477.63 461.87 478.83 461.87 480.03 461.86 481.23 461.85 482.43 461.84 483.62 461.83 484.82 461.82 486.02 461.81 487.22 461.8 488.42 461.79 489.62 461.78 490.82 461.77 492.02 461.75 493.22 461.74 494.42 461.73 495.63 461.71 496.84 461.7 498.06 461.68 499.28 461.67 500.51 461.65 501.75 461.63 502.8 461.63 502.8 461.63 502.8M588.85 507.46Q586.71 507.32 584.52 507.22 582.33 507.12 580.09 506.97 577.84 506.87 575.55 506.76 573.26 506.64 570.92 506.48 568.58 506.23 566.2 505.88 563.82 505.54 561.39 505.15 558.96 504.8 556.48 504.43 554 504.07 551.47 503.68 548.95 503.33 546.52 502.97 544.1 502.59 541.78 502.15 539.47 501.67 537.27 501.13 535.06 500.6 532.96 500.07 530.86 499.57 528.87 499.08 526.88 498.6 525 498.1 523.13 497.59 521.38 497.06 519.63 496.53 518 495.97 518 495.97 518 495.97 518.22 494.24 518.44 492.52 518.66 490.79 518.88 489.07 519.1 487.34 519.32 485.61 519.55 483.89 519.77 482.16 520 480.43 520.22 478.7 520.44 476.98 520.67 475.25 520.89 473.52 521.11 471.79 521.34 470.06 521.56 468.34 521.78 466.61 522 464.88 522.22 463.15 522.43 461.42 522.64 459.69 522.85 457.96 523.04 456.24 523.22 454.51 523.37 452.78 523.48 451.05 523.56 449.32 523.62 447.59 523.66 445.86 523.69 444.14 523.71 442.41 523.73 440.68 525.24 440.95 526.72 441.21 528.2 441.47 529.66 441.72 531.11 441.96 532.53 442.19 533.96 442.42 535.36 442.64 536.76 442.86 538.14 443.06 539.53 443.27 540.89 443.46 542.25 443.65 543.58 443.82 544.92 444 546.24 444.16 547.55 444.32 548.84 444.47 550.14 444.62 551.41 444.76 553.95 445.03 556.39 445.25 558.83 445.46 561.17 445.63 563.51 445.79 565.74 445.91 565.74 445.91 565.74 445.91 567.78 446.01 569.67 446.05 571.56 446.1 573.3 446.09 575.03 446.09 576.62 446.03 578.2 445.96 579.62 445.85 582.47 445.62 584.69 445.17 586.9 444.72 588.47 444.05 590.05 443.39 591.25 442.11 592.45 440.84 593.27 438.96 594.09 437.08 594.53 434.58 594.76 433.34 594.88 431.94 595.01 430.54 595.04 428.99 595.04 428.99 595.04 428.99 595.09 426.64 595.06 424.62 595.03 422.6 594.94 420.91 594.84 419.23 594.67 417.88 594.5 416.54 594.26 415.53 593.78 413.51 592.84 412.03 591.9 410.54 590.5 409.59 589.1 408.64 586.49 407.67 585.18 407.19 583.57 406.71 581.96 406.22 580.05 405.74 580.05 405.74 580.05 405.74 578.05 405.21 576.04 404.69 574.04 404.16 572.04 403.64 570.04 403.12 568.04 402.59 566.04 402.07 564.05 401.54 562.05 401.02 560.06 400.5 558.07 399.97 556.07 399.45 554.08 398.92 552.09 398.4 550.11 397.87 548.12 397.35 546.22 396.86 544.46 396.16 542.7 395.45 541.06 394.53 539.42 393.61 537.91 392.47 536.4 391.33 535.02 389.98 533.63 388.63 532.37 387.05 531.11 385.48 529.98 383.69 528.84 381.91 527.83 379.9 526.82 377.89 525.94 375.67 525.06 373.45 524.28 370.9 523.89 369.62 523.54 368.27 523.18 366.91 522.84 365.47 522.51 364.03 522.21 362.51 521.9 360.99 521.63 359.39 521.35 357.78 521.1 356.1 520.85 354.41 520.63 352.65 520.4 350.88 520.21 349.03 520.02 347.18 519.85 345.25 519.68 343.32 519.54 341.31 519.4 339.3 519.29 337.2 519.18 335.11 519.1 332.93 519.01 330.76 518.96 328.5 518.9 326.24 518.87 323.9 518.85 321.56 518.85 319.14 518.85 319.14 518.85 319.14 518.85 316.59 518.92 314.13 519 311.68 519.16 309.31 519.31 306.94 519.54 304.66 519.77 302.38 520.08 300.19 520.39 298 520.78 295.89 521.17 293.79 521.63 291.78 522.1 289.76 522.64 287.84 523.18 285.91 523.8 284.08 524.42 282.24 525.12 280.49 525.82 278.74 526.6 277.07 527.38 275.41 528.24 273.83 529.1 272.25 530.04 270.76 530.98 269.27 532 267.86 533.02 266.45 534.12 265.12 535.22 263.79 536.4 262.55 537.58 261.3 538.85 260.14 540.11 258.98 541.46 257.89 542.8 256.8 544.22 255.78 545.64 254.76 547.14 253.83 548.63 252.89 550.21 252.03 551.78 251.17 553.43 250.39 555.08 249.61 556.8 248.92 558.53 248.22 560.33 247.62 562.13 247.01 564 246.49 565.87 245.97 567.82 245.54 569.77 245.11 571.79 244.77 573.81 244.43 575.9 244.18 577.99 243.94 580.16 243.78 582.32 243.63 584.56 243.56 586.8 243.5 589.11 243.53 591.42 243.57 593.8 243.69 596.19 243.82 598.64 244.04 598.64 244.04 598.64 244.04 600.54 244.22 602.47 244.44 604.4 244.67 606.36 244.95 608.32 245.22 610.31 245.55 612.3 245.88 614.32 246.26 616.34 246.64 618.39 247.08 620.44 247.52 622.52 248 624.6 248.5 626.72 249.04 628.83 249.58 630.97 250.18 633.1 250.78 635.14 251.39 637.18 252.01 639.12 252.63 641.06 253.26 642.9 253.89 644.73 254.52 646.47 255.16 648.21 255.81 649.84 256.45 651.48 257.1 653.01 257.75 654.54 258.39 655.98 259.04 657.41 259.69 658.74 260.33 658.74 260.33 658.74 260.33 658.64 262.09 658.54 263.85 658.44 265.6 658.34 267.35 658.24 269.09 658.13 270.83 658.03 272.57 657.93 274.31 657.82 276.04 657.72 277.78 657.61 279.51 657.51 281.24 657.41 282.97 657.3 284.69 657.2 286.42 657.1 288.15 657 289.87 656.91 291.6 656.81 293.32 656.72 295.05 656.63 296.77 656.55 298.5 656.47 300.22 656.4 301.94 656.33 303.67 656.28 305.39 656.23 307.11 656.19 308.83 656.15 310.55 656.12 312.27 656.1 313.99 656.07 315.71 654.55 315.36 653.05 315.01 651.56 314.67 650.09 314.34 648.63 314.01 647.2 313.7 645.76 313.39 644.36 313.09 642.96 312.8 641.59 312.52 640.21 312.24 638.87 311.97 637.53 311.71 636.22 311.46 634.91 311.22 633.63 310.98 631.07 310.52 628.63 310.13 626.2 309.74 623.89 309.41 621.58 309.09 619.4 308.84 617.23 308.58 615.18 308.4 615.18 308.4 615.18 308.4 613.45 308.24 611.87 308.15 610.29 308.06 608.86 308.04 607.44 308.02 606.16 308.06 604.88 308.1 603.75 308.21 601.49 308.43 599.84 308.91 598.19 309.39 597.15 310.12 596.11 310.86 595.32 312.04 594.53 313.22 593.99 314.85 593.45 316.47 593.16 318.54 592.87 320.61 592.84 323.12 592.84 323.12 592.84 323.12 592.8 325.51 592.81 327.51 592.81 329.52 592.86 331.16 592.9 332.79 592.98 334.05 593.06 335.31 593.18 336.19 593.42 337.96 594.04 339.2 594.67 340.43 595.69 341.14 596.7 341.84 598.74 342.68 599.76 343.1 601.04 343.55 602.32 344.01 603.85 344.5 603.85 344.5 603.85 344.5 605.41 344.96 606.98 345.42 608.54 345.88 610.1 346.34 611.66 346.81 613.23 347.27 614.79 347.73 616.35 348.19 617.91 348.66 619.47 349.12 621.04 349.58 622.6 350.04 624.16 350.51 625.72 350.97 627.28 351.43 628.84 351.89 630.18 352.31 631.47 352.76 632.77 353.22 634.03 353.72 635.28 354.22 636.5 354.76 637.72 355.31 638.89 355.89 641.25 357.06 643.44 358.4 645.64 359.74 647.67 361.25 648.69 362.01 649.67 362.91 650.66 363.82 651.6 364.87 652.55 365.93 653.46 367.13 654.38 368.34 655.25 369.69 656.13 371.04 656.97 372.55 657.81 374.05 658.62 375.71 659.42 377.36 660.19 379.16 660.96 380.97 661.7 382.92 662.44 384.87 663.08 387.01 663.72 389.16 664.28 391.49 664.83 393.83 665.29 396.36 665.52 397.62 665.73 398.93 665.94 400.24 666.12 401.6 666.31 402.96 666.47 404.37 666.63 405.77 666.77 407.23 666.91 408.68 667.02 410.19 667.14 411.69 667.23 413.24 667.32 414.79 667.39 416.39 667.46 417.99 667.46 419.64 667.42 421.28 667.39 422.97 667.37 424.66 667.37 426.41 667.37 426.41 667.37 426.41 667.37 427.89 667.39 429.35 667.41 430.81 667.44 432.24 667.48 433.67 667.44 435.06 667.38 436.46 667.31 437.82 667.23 439.19 667.14 440.53 667.05 441.87 666.94 443.17 666.83 444.48 666.7 445.76 666.57 447.04 666.42 448.29 666.27 449.54 666.1 450.76 665.94 451.98 665.75 453.17 665.38 455.55 664.93 457.81 664.49 460.08 663.97 462.22 663.44 464.37 662.85 466.4 662.25 468.43 661.58 470.34 660.91 472.26 660.16 474.06 659.41 475.85 658.58 477.53 657.75 479.21 656.85 480.78 655.95 482.34 654.97 483.79 653.98 485.23 652.92 486.57 651.86 487.9 650.72 489.11 649.58 490.33 648.35 491.43 647.13 492.53 645.83 493.55 644.52 494.58 643.14 495.53 641.75 496.48 640.28 497.35 638.82 498.23 637.27 499.03 635.72 499.82 634.09 500.55 632.46 501.27 630.76 501.92 629.05 502.56 627.26 503.14 625.48 503.71 623.61 504.21 621.75 504.71 619.81 505.13 617.86 505.55 615.85 505.88 613.83 506.2 611.73 506.45 609.64 506.7 607.46 506.94 605.29 507.23 603.03 507.45 600.78 507.66 598.45 507.78 596.12 507.83 593.72 507.74 591.33 507.57 588.85 507.46 588.85 507.46 588.85 507.46 588.85 507.46 588.85 507.46M754.5 515.39Q752.36 515.23 750.17 515.1 747.97 514.96 745.73 514.78 743.49 514.54 741.21 514.26 738.92 513.98 736.58 513.66 734.24 513.44 731.85 513.25 729.46 513.05 727.02 512.81 724.59 512.5 722.11 512.12 719.62 511.73 717.1 511.3 714.57 510.88 712.14 510.46 709.72 510.04 707.39 509.61 705.07 509.19 702.86 508.74 700.64 508.29 698.53 507.8 696.42 507.28 694.42 506.72 692.43 506.15 690.54 505.56 688.66 504.95 686.89 504.33 685.13 503.7 683.48 503.05 683.48 503.05 683.48 503.05 683.66 501.39 683.83 499.73 684.01 498.06 684.19 496.4 684.37 494.73 684.55 493.06 684.73 491.4 684.91 489.73 685.09 488.07 685.27 486.4 685.45 484.74 685.63 483.07 685.82 481.41 686 479.74 686.18 478.08 686.35 476.41 686.53 474.75 686.71 473.08 686.89 471.42 687.06 469.75 687.23 468.09 687.4 466.42 687.55 464.76 687.7 463.1 687.82 461.43 687.91 459.77 687.97 458.1 688.02 456.44 688.05 454.78 688.07 453.11 688.09 451.45 688.11 449.78 689.65 450.18 691.17 450.56 692.68 450.94 694.16 451.3 695.64 451.66 697.1 452 698.55 452.34 699.98 452.66 701.41 452.98 702.82 453.28 704.23 453.59 705.61 453.87 707 454.15 708.36 454.42 709.72 454.69 711.05 454.94 712.39 455.19 713.7 455.42 715.01 455.65 716.3 455.86 718.88 456.29 721.34 456.66 723.82 457.02 726.18 457.33 728.54 457.63 730.8 457.88 730.8 457.88 730.8 457.88 732.86 458.1 734.76 458.26 736.67 458.42 738.42 458.52 740.17 458.62 741.76 458.65 743.36 458.69 744.79 458.67 747.66 458.63 749.88 458.36 752.11 458.08 753.69 457.57 755.27 457.06 756.47 455.98 757.67 454.9 758.49 453.24 759.31 451.59 759.74 449.36 759.96 448.25 760.08 446.99 760.2 445.73 760.23 444.32 760.23 444.32 760.23 444.32 760.27 442.19 760.24 440.36 760.2 438.52 760.1 436.99 759.99 435.45 759.82 434.22 759.64 432.98 759.39 432.04 758.9 430.17 757.95 428.73 757 427.29 755.59 426.29 754.18 425.29 751.54 424.16 750.22 423.59 748.59 422.99 746.97 422.39 745.04 421.76 745.04 421.76 745.04 421.76 743.01 421.08 740.99 420.4 738.97 419.71 736.94 419.03 734.92 418.34 732.9 417.66 730.89 416.97 728.87 416.27 726.85 415.58 724.84 414.89 722.82 414.19 720.81 413.49 718.79 412.79 716.78 412.09 714.77 411.38 712.76 410.67 710.84 410.01 709.06 409.15 707.27 408.3 705.61 407.24 703.96 406.19 702.43 404.94 700.9 403.68 699.5 402.24 698.09 400.78 696.82 399.14 695.54 397.49 694.4 395.64 693.25 393.8 692.22 391.75 691.2 389.71 690.31 387.46 689.41 385.22 688.63 382.67 688.24 381.4 687.88 380.05 687.51 378.7 687.18 377.27 686.84 375.84 686.53 374.34 686.23 372.84 685.94 371.26 685.66 369.68 685.41 368.02 685.16 366.37 684.94 364.63 684.71 362.9 684.51 361.09 684.32 359.28 684.15 357.4 683.98 355.52 683.84 353.56 683.7 351.6 683.59 349.56 683.47 347.53 683.39 345.41 683.31 343.3 683.25 341.12 683.19 338.93 683.16 336.67 683.14 334.41 683.14 332.07 683.14 332.07 683.14 332.07 683.14 329.61 683.21 327.25 683.29 324.89 683.45 322.63 683.6 320.37 683.84 318.2 684.07 316.04 684.38 313.97 684.7 311.91 685.09 309.94 685.48 307.97 685.95 306.1 686.42 304.24 686.97 302.47 687.52 300.7 688.15 299.03 688.77 297.36 689.48 295.79 690.19 294.22 690.98 292.75 691.77 291.28 692.64 289.9 693.51 288.53 694.46 287.26 695.41 285.99 696.45 284.81 697.48 283.64 698.6 282.57 699.72 281.49 700.92 280.52 702.12 279.54 703.41 278.67 704.69 277.79 706.06 277.01 707.43 276.22 708.87 275.53 710.32 274.83 711.84 274.23 713.37 273.63 714.97 273.13 716.57 272.62 718.25 272.21 719.92 271.81 721.67 271.49 723.42 271.18 725.25 270.97 727.07 270.77 728.97 270.65 730.87 270.55 732.83 270.54 734.8 270.54 736.84 270.63 738.88 270.74 740.99 270.94 743.1 271.15 745.28 271.46 747.46 271.77 749.7 272.19 751.95 272.61 754.27 273.13 756.58 273.67 758.97 274.3 761.35 274.94 763.8 275.69 763.8 275.69 763.8 275.69 765.7 276.27 767.62 276.91 769.55 277.55 771.5 278.24 773.45 278.94 775.43 279.7 777.41 280.45 779.41 281.27 781.42 282.09 783.45 282.96 785.48 283.85 787.54 284.78 789.6 285.73 791.68 286.72 793.76 287.73 795.87 288.79 797.98 289.86 799.98 290.92 801.99 291.98 803.89 293.02 805.79 294.08 807.6 295.11 809.4 296.15 811.1 297.17 812.8 298.19 814.4 299.18 816 300.18 817.51 301.16 819.01 302.13 820.41 303.08 821.82 304.01 823.13 304.92 823.13 304.92 823.13 304.92 823.06 306.48 822.99 308.02 822.92 309.55 822.86 311.07 822.79 312.59 822.73 314.09 822.66 315.6 822.6 317.1 822.54 318.59 822.48 320.09 822.42 321.58 822.36 323.07 822.3 324.55 822.24 326.04 822.18 327.52 822.13 329 822.07 330.49 822.02 331.97 821.96 333.45 821.91 334.92 821.86 336.4 821.82 337.88 821.77 339.36 821.73 340.83 821.7 342.31 821.66 343.78 821.64 345.26 821.61 346.73 821.59 348.21 821.57 349.68 821.56 351.16 821.54 352.63 819.99 352.04 818.47 351.47 816.95 350.9 815.47 350.34 813.98 349.78 812.53 349.24 811.07 348.7 809.65 348.18 808.23 347.66 806.84 347.15 805.45 346.64 804.09 346.16 802.74 345.67 801.41 345.2 800.09 344.73 798.8 344.28 796.21 343.38 793.76 342.57 791.3 341.75 788.98 341.01 786.66 340.28 784.46 339.63 782.27 338.98 780.21 338.42 780.21 338.42 780.21 338.42 778.48 337.95 776.89 337.57 775.3 337.19 773.87 336.89 772.43 336.6 771.14 336.39 769.86 336.19 768.72 336.08 766.46 335.85 764.8 335.97 763.14 336.1 762.09 336.58 761.05 337.06 760.25 337.99 759.46 338.93 758.91 340.32 758.37 341.72 758.09 343.56 757.8 345.41 757.77 347.7 757.77 347.7 757.77 347.7 757.74 349.88 757.75 351.71 757.76 353.55 757.8 355.05 757.85 356.55 757.93 357.72 758.02 358.88 758.14 359.71 758.38 361.36 759.01 362.59 759.64 363.82 760.67 364.62 761.7 365.42 763.76 366.5 764.79 367.04 766.07 367.66 767.36 368.27 768.9 368.95 768.9 368.95 768.9 368.95 770.48 369.62 772.06 370.28 773.64 370.94 775.21 371.6 776.79 372.26 778.36 372.91 779.94 373.57 781.52 374.23 783.09 374.88 784.67 375.53 786.24 376.19 787.82 376.84 789.39 377.49 790.97 378.14 792.54 378.79 794.12 379.43 795.47 380 796.78 380.6 798.09 381.2 799.36 381.83 800.63 382.45 801.85 383.11 803.08 383.77 804.27 384.46 806.65 385.83 808.86 387.31 811.08 388.8 813.14 390.4 814.17 391.2 815.16 392.12 816.15 393.04 817.11 394.08 818.06 395.12 818.98 396.29 819.9 397.45 820.79 398.73 821.67 400.01 822.52 401.42 823.37 402.82 824.18 404.34 825 405.86 825.77 407.5 826.55 409.14 827.29 410.9 828.04 412.66 828.69 414.57 829.34 416.47 829.89 418.53 830.45 420.58 830.91 422.78 831.15 423.89 831.36 425.02 831.57 426.16 831.75 427.34 831.94 428.52 832.1 429.73 832.26 430.94 832.4 432.19 832.54 433.44 832.66 434.73 832.78 436.02 832.87 437.35 832.96 438.67 833.03 440.04 833.1 441.4 833.1 442.8 833.06 444.18 833.03 445.62 833.01 447.05 833.01 448.53 833.01 448.53 833.01 448.53 833.01 449.79 833.03 451.02 833.05 452.26 833.08 453.48 833.12 454.7 833.08 455.87 833.02 457.05 832.95 458.2 832.87 459.36 832.78 460.48 832.69 461.61 832.57 462.7 832.46 463.8 832.33 464.87 832.2 465.95 832.05 466.99 831.9 468.04 831.74 469.06 831.57 470.08 831.38 471.07 831.01 473.06 830.56 474.94 830.11 476.83 829.59 478.61 829.06 480.39 828.46 482.06 827.87 483.74 827.19 485.32 826.51 486.9 825.76 488.37 825.01 489.85 824.18 491.23 823.35 492.6 822.45 493.88 821.54 495.16 820.56 496.34 819.57 497.53 818.51 498.62 817.45 499.71 816.31 500.7 815.16 501.7 813.94 502.6 812.72 503.5 811.42 504.34 810.11 505.19 808.73 505.97 807.34 506.75 805.88 507.47 804.41 508.2 802.87 508.85 801.32 509.51 799.7 510.1 798.07 510.7 796.37 511.22 794.66 511.75 792.88 512.2 791.1 512.66 789.24 513.05 787.38 513.44 785.44 513.75 783.5 514.07 781.48 514.31 779.47 514.55 777.38 514.72 775.28 514.91 773.11 515.1 770.94 515.34 768.68 515.52 766.43 515.7 764.1 515.79 761.78 515.82 759.38 515.71 756.98 515.53 754.5 515.39 754.5 515.39 754.5 515.39 754.5 515.39 754.5 515.39M868.94 521.94Q869.07 521.34 869.22 520.64 869.37 519.93 869.51 519.21 869.65 518.48 869.78 517.74 869.91 516.99 870.03 516.24 870.15 515.48 870.27 514.71 870.39 513.94 870.5 513.16 870.61 512.38 870.71 511.59 870.81 510.8 870.92 510 871.01 509.2 871.11 508.4 871.21 507.6 871.3 506.79 871.39 505.98 871.48 505.17 871.57 504.36 871.66 503.54 871.74 502.73 871.83 501.91 871.91 501.09 871.99 500.27 872.07 499.45 872.15 498.63 872.23 497.81 872.3 496.99 872.37 496.17 872.45 495.35 872.52 494.52 872.59 493.7 872.66 492.88 872.72 492.05 872.79 491.23 872.85 490.4 872.91 489.58 872.97 488.75 873.03 487.92 873.08 487.1 873.13 486.27 873.18 485.45 873.23 484.62 873.28 483.79 873.32 482.97 873.36 482.14 873.4 481.31 873.43 480.49 873.47 479.66 873.5 478.83 873.53 478.01 873.56 477.18 873.58 476.35 873.6 475.53 873.63 474.7 873.64 473.87 873.66 473.05 873.68 472.22 873.69 471.39 873.71 470.57 873.72 469.74 873.73 468.91 873.74 468.09 873.75 467.26 873.76 466.43 873.77 465.61 873.77 464.78 873.78 463.95 873.78 463.13 873.79 462.3 873.79 461.47 873.79 460.65 873.79 459.82 873.79 458.99 873.79 458.17 873.79 457.34 873.79 456.51 873.79 455.69 873.79 454.86 873.78 454.04 873.78 453.21 873.78 452.38 873.77 451.56 873.77 450.73 873.76 449.91 873.75 449.08 873.75 448.25 873.74 447.43 873.73 446.6 873.72 445.78 873.71 444.95 873.7 444.13 873.69 443.3 873.68 442.48 873.67 441.65 873.66 440.82 873.65 440 873.63 439.17 873.62 438.35 873.61 437.52 873.59 436.7 873.58 435.87 873.56 435.05 873.55 434.22 873.53 433.4 873.52 432.57 873.5 431.75 873.48 430.92 873.47 430.1 873.45 429.27 873.43 428.45 873.41 427.63 873.39 426.8 873.38 425.98 873.36 425.15 873.34 424.33 873.32 423.5 873.3 422.68 873.28 421.85 873.25 421.03 873.23 420.2 873.21 419.38 873.19 418.56 873.17 417.73 871.47 417.21 869.78 416.68 868.09 416.15 866.4 415.63 864.71 415.1 863.03 414.58 861.34 414.05 859.66 413.52 857.97 413 856.29 412.47 854.61 411.95 852.93 411.42 851.25 410.9 849.57 410.37 847.89 409.85 846.21 409.32 846.21 408.23 846.21 407.13 846.21 406.03 846.21 404.93 846.21 403.84 846.21 402.74 846.21 401.64 846.21 400.54 846.21 399.45 846.21 398.35 846.21 397.25 846.21 396.15 846.21 395.06 846.21 393.96 846.21 392.86 846.21 391.77 846.21 390.67 846.21 389.57 846.21 388.47 846.21 387.38 846.21 386.28 846.21 385.18 846.21 384.08 846.21 382.99 846.21 381.89 846.21 380.79 846.21 379.69 846.21 378.6 846.21 377.5 846.21 376.4 846.21 375.31 846.21 374.21 847.83 374.84 849.44 375.48 851.06 376.11 852.68 376.75 854.29 377.39 855.91 378.04 857.53 378.68 859.14 379.32 860.76 379.97 862.37 380.62 863.99 381.27 865.6 381.92 867.22 382.58 868.83 383.23 870.44 383.89 872.06 384.55 872.02 383.59 871.99 382.64 871.95 381.7 871.92 380.78 871.9 379.87 871.88 378.97 871.86 378.07 871.85 377.2 871.84 376.32 871.84 375.47 871.84 374.61 871.84 373.78 871.85 372.94 871.87 372.13 871.88 371.32 871.91 370.52 871.93 369.73 871.96 368.96 872 368.18 872.04 367.43 872.08 366.68 872.13 365.95 872.18 365.22 872.23 364.51 872.29 363.8 872.36 363.11 872.42 362.42 872.5 361.75 872.57 361.09 872.66 360.44 872.82 359.15 873.02 357.94 873.22 356.73 873.45 355.6 873.68 354.48 873.94 353.44 874.21 352.4 874.5 351.45 874.8 350.49 875.13 349.63 875.46 348.76 875.82 347.97 876.18 347.19 876.58 346.49 876.97 345.8 877.39 345.19 877.82 344.58 878.28 344.05 878.74 343.53 879.25 343.07 879.76 342.61 880.33 342.21 880.89 341.81 881.52 341.48 882.14 341.15 882.81 340.89 883.48 340.62 884.21 340.42 884.94 340.22 885.72 340.09 886.5 339.96 887.33 339.89 888.16 339.83 889.05 339.83 890.81 339.85 892.79 340.14 894.75 340.44 896.92 341.03 898 341.32 899.13 341.69 900.26 342.07 901.44 342.52 902.61 342.97 903.83 343.5 905.05 344.03 906.32 344.64 907.59 345.25 908.96 345.97 910.33 346.68 911.81 347.5 913.28 348.33 914.86 349.25 916.44 350.19 918.12 351.23 919.79 352.28 921.57 353.44 923.33 354.61 925.2 355.89 927.06 357.18 929.01 358.59 930.96 360.01 933 361.54 935.02 363.1 937.13 364.78 939.24 366.47 941.42 368.29 943.59 370.13 945.84 372.1 946.96 373.09 948.1 374.12 949.23 375.15 950.37 376.22 951.52 377.29 952.69 378.39 953.84 379.51 955.01 380.66 956.18 381.81 957.37 383 958.54 384.21 959.73 385.44 960.92 386.68 962.11 387.96 963.29 389.25 964.5 390.57 965.69 391.91 966.89 393.29 968.09 394.67 969.16 395.91 969.16 395.91 969.16 395.91 969.53 396.37 969.94 396.87 970.35 397.38 970.77 397.88 971.18 398.39 971.59 398.9 972.01 399.4 972.42 399.91 972.84 400.41 973.24 400.93 973.64 401.45 974.04 401.96 974.45 402.48 974.85 403 975.25 403.52 975.65 404.04 976.05 404.55 976.45 405.07 976.85 405.59 977.23 406.12 977.62 406.65 978 407.18 978.39 407.71 978.77 408.24 979.16 408.77 979.55 409.3 979.93 409.83 980.32 410.36 980.69 410.9 981.05 411.44 981.42 411.98 981.79 412.52 979.83 411.54 977.78 410.51 975.73 409.47 973.86 408.52 972 407.56 970.33 406.7 968.66 405.83 967.16 405.06 965.67 404.29 964.36 403.62 963.05 402.94 961.91 402.37 959.64 401.21 958.06 400.48 956.47 399.75 955.23 399.32 953.99 398.9 953.08 398.78 952.17 398.67 951.6 398.86 951.02 399.07 950.77 399.57 950.52 400.09 950.52 400.99 950.52 401.44 950.58 401.99 950.64 402.54 950.76 403.19 950.88 403.84 951.06 404.59 951.23 405.34 951.47 406.19 951.71 407.03 952.01 407.97 952.3 408.92 952.66 409.96 952.66 409.96 952.66 409.96 952.86 410.53 953.05 411.1 953.24 411.67 953.43 412.25 953.63 412.82 953.82 413.39 954.01 413.96 954.19 414.54 954.38 415.11 954.57 415.68 954.75 416.26 954.94 416.83 955.12 417.41 955.3 417.98 955.48 418.56 955.66 419.13 958.09 420.1 960.52 421.06 962.95 422.02 965.39 422.97 967.83 423.93 970.28 424.88 972.73 425.82 975.18 426.76 977.64 427.7 980.11 428.64 982.57 429.57 985.04 430.5 987.51 431.43 989.99 432.35 992.45 433.28 994.62 434.09 994.96 434.76 995.3 435.43 995.64 436.11 995.97 436.78 996.29 437.47 996.61 438.15 996.92 438.84 997.24 439.52 997.55 440.2 997.87 440.89 998.18 441.57 998.5 442.26 998.79 442.96 999.08 443.65 999.37 444.35 999.66 445.04 999.95 445.74 1000.24 446.44 1000.53 447.13 1000.82 447.83 1001.08 448.53 1001.35 449.24 1001.61 449.95 1001.87 450.65 1002.13 451.36 1002.4 452.07 1002.66 452.77 1002.92 453.48 1003.16 454.19 1003.4 454.91 1003.63 455.63 1003.87 456.34 1001.58 455.69 998.96 454.94 996.33 454.2 993.7 453.45 991.07 452.71 988.44 451.97 985.81 451.23 983.18 450.49 980.56 449.75 977.93 449 975.31 448.26 972.69 447.52 970.08 446.77 967.47 446.03 964.86 445.28 962.26 444.54 962.39 445.18 962.52 445.82 962.65 446.46 962.77 447.1 962.9 447.75 963.02 448.39 963.14 449.04 963.25 449.68 963.37 450.33 963.48 450.97 963.6 451.62 963.71 452.26 963.81 452.91 963.92 453.56 964.02 454.2 964.13 454.85 964.23 455.5 964.33 456.15 964.42 456.8 964.52 457.45 964.61 458.1 964.7 458.75 964.79 459.4 964.88 460.05 964.96 460.7 965.04 461.35 965.12 462 965.2 462.65 965.28 463.3 965.35 463.96 965.42 464.61 965.49 465.26 965.56 465.91 965.63 466.57 965.69 467.22 965.75 467.87 965.81 468.53 965.87 469.18 965.92 469.84 965.97 470.49 966.02 471.15 966.07 471.8 966.11 472.46 966.16 473.11 966.2 473.77 966.23 474.42 966.27 475.08 966.3 475.73 966.33 476.39 966.36 477.05 966.39 477.7 966.41 478.36 966.43 479.02 966.45 479.67 966.46 480.33 966.47 480.98 966.48 481.64 966.49 482.3 966.49 482.95 966.5 483.61 966.49 484.27 966.49 484.92 966.48 485.58 966.47 486.23 966.46 486.89 966.44 487.55 966.42 488.2 966.39 488.86 966.37 489.51 966.34 490.17 966.3 490.83 966.26 491.48 966.22 492.14 966.18 492.79 966.13 493.45 966.07 494.1 966.02 494.76 965.95 495.41 965.89 496.06 965.82 496.72 965.74 497.37 965.66 498.02 965.58 498.68 965.49 499.33 965.39 499.98 965.29 500.63 965.19 501.29 965.07 501.94 964.96 502.59 964.83 503.24 964.7 503.89 964.56 504.54 964.41 505.19 964.26 505.84 964.1 506.49 963.93 507.13 963.75 507.78 963.56 508.43 963.36 509.08 963.15 509.72 962.93 510.37 962.7 511.01 962.46 511.66 962.2 512.3 961.93 512.95 961.64 513.59 961.34 514.23 961.03 514.88 960.7 515.52 960.35 516.16 959.98 516.8 959.6 517.44 959.19 518.08 958.77 518.73 958.33 519.37 957.87 520.01 957.4 520.65 956.91 521.29 956.4 521.94 955.88 522.58 955.35 523.23 954.81 523.88 954.27 524.53 953.73 525.19 953.2 525.85 952.67 526.51 952.16 527.18 951.74 527.75 949.15 527.6 946.56 527.45 943.97 527.29 941.38 527.14 938.78 526.99 936.19 526.84 933.6 526.68 931.01 526.53 928.42 526.38 925.83 526.23 923.24 526.07 920.65 525.92 918.06 525.76 915.47 525.6 912.88 525.43 910.29 525.25 907.71 525.03 905.12 524.81 902.54 524.59 899.96 524.31 897.38 523.99 894.81 523.67 892.23 523.35 889.65 523.11 887.07 522.89 884.48 522.68 881.89 522.47 879.3 522.33 876.71 522.19 874.12 522.05 871.53 521.94 868.94 521.94 868.94 521.94 868.94 521.94"></path><path fill="#c88087" d="M179.52 695.43Q177.44 694.45 175.46 693.56 173.46 692.61 171.23 691.41 168.97 690.2 166.8 688.96 164.64 687.71 162.58 686.45 160.61 685.24 158.81 684.04 157.02 682.85 155.29 681.64 153.54 680.41 151.82 679.14 150.06 677.86 148.35 676.56 146.64 675.27 144.98 673.97 143.31 672.68 141.7 671.4 140.06 670.13 138.46 668.86 136.83 667.62 135.23 666.39 133.59 665.19 131.98 664.01 130.32 662.86 128.69 661.73 127.02 660.63 125.37 659.56 123.68 658.5 122.02 657.47 120.32 656.45 118.61 655.42 116.86 654.4 115.1 653.36 113.33 652.34 111.55 651.31 109.77 650.29 108 649.26 106.24 648.26 104.51 647.24 102.77 646.22 101.01 645.16 99.23 644.08 97.42 642.95 95.62 641.81 93.87 640.68 92.19 639.6 90.55 638.51 88.89 637.4 87.16 636.16 85.36 634.86 83.57 633.52 81.86 632.24 80.32 631.03 78.78 629.83 77.22 628.54 75.49 627.06 73.77 625.53 72.05 624 70.38 622.4 68.72 620.8 67.15 619.21 67.15 619.21 67.15 619.21 66.15 618.17 65.22 617.16 64.28 616.15 63.36 615.09 62.36 613.92 61.44 612.79 60.51 611.66 59.71 610.61 59.01 609.64 58.38 608.71 57.75 607.77 57.17 606.85 56.55 605.84 55.97 604.83 55.4 603.81 54.9 602.83 54.4 601.85 53.99 600.9 53.59 599.94 53.27 599.03 52.95 598.11 52.71 597.23 52.48 596.36 52.33 595.52 52.08 593.87 52.17 592.44 52.32 591.04 52.74 589.78 53.17 588.46 53.87 587.22 54.58 585.93 55.58 584.75 56.6 583.56 57.92 582.48 59.26 581.39 60.9 580.43 62.56 579.46 64.51 578.62 66.49 577.78 68.75 577.06 71.03 576.35 73.6 575.76 76.17 575.18 79.03 574.73 81.89 574.28 85.11 573.95 88.34 573.63 91.92 573.43 95.51 573.24 99.45 573.18 103.38 573.12 107.66 573.2 111.93 573.28 116.54 573.49 118.84 573.6 121.22 573.74 123.59 573.88 126.05 574.06 128.51 574.24 131.05 574.45 133.58 574.67 136.19 574.92 138.8 575.17 141.48 575.46 144.17 575.75 146.92 576.07 146.92 576.07 146.92 576.07 150.67 576.52 154.38 576.99 158.08 577.46 161.75 577.96 165.41 578.46 169.03 578.98 172.65 579.51 176.23 580.07 179.8 580.62 183.34 581.21 186.87 581.79 190.37 582.4 193.86 583.01 197.31 583.65 200.76 584.29 204.17 584.96 204.17 584.96 204.17 584.96 203.99 583.8 203.81 582.65 203.63 581.49 203.45 580.34 203.27 579.18 203.1 578.03 202.93 576.87 202.76 575.72 202.5 573.87 202.21 572.17 201.92 570.46 201.6 568.88 201.28 567.31 200.93 565.87 200.58 564.43 200.19 563.12 199.81 561.82 199.39 560.65 198.96 559.47 198.5 558.44 197.58 556.37 196.49 554.84 195.39 553.31 193.76 551.97 192.13 550.62 189.96 549.47 187.78 548.32 185.07 547.36 182.34 546.4 179.07 545.63 175.79 544.86 171.28 544.06 169.03 543.66 166.46 543.26 163.89 542.85 161.01 542.44 158.13 542.03 154.94 541.62 151.74 541.2 148.22 540.78 144.7 540.37 140.87 539.94 137.02 539.52 132.86 539.09 132.86 539.09 132.86 539.09 129.66 538.77 126.5 538.46 123.33 538.15 120.2 537.85 117.06 537.55 113.95 537.26 110.84 536.98 107.76 536.71 104.67 536.44 101.62 536.18 98.56 535.93 95.53 535.68 92.5 535.44 89.5 535.21 86.49 534.99 83.52 534.77 80.54 534.56 77.6 534.36 74.65 534.17 71.73 533.98 68.81 533.8 65.93 533.63 63.04 533.46 60.18 533.31 57.32 533.16 54.5 533.02 51.68 532.88 48.9 532.76 46.11 532.64 43.36 532.53 40.62 532.42 37.91 532.32 37.91 532.32 37.91 532.32 37.63 530.84 37.36 529.34 37.11 527.84 36.87 526.33 36.64 524.82 36.43 523.3 36.23 521.77 36.06 520.24 35.89 518.71 35.74 517.17 35.61 515.62 35.49 514.07 35.39 512.52 35.3 510.98 35.23 509.43 35.18 507.9 35.14 506.37 35.11 504.85 35.11 503.33 35.12 501.82 35.14 500.29 35.18 498.76 35.23 497.23 35.3 495.68 35.39 494.12 35.49 492.55 35.6 490.96 35.73 489.36 35.87 487.74 36.03 486.11 36.2 484.44 36.38 482.75 41.14 482.77 45.8 482.87 50.43 483.01 54.98 483.21 59.51 483.45 63.99 483.71 68.46 483.96 72.88 484.21 77.29 484.52 81.64 484.9 86 485.26 90.31 485.58 94.64 485.85 98.92 486.09 103.21 486.31 107.45 486.56 111.69 486.82 115.86 487.22 120.03 487.71 124.15 488.21 128.28 488.67 132.38 489.13 136.48 489.49 140.55 489.84 144.62 490.18 148.65 490.54 152.68 490.9 156.67 491.28 160.66 491.66 164.61 492.08 168.55 492.49 172.46 492.93 172.46 492.93 172.46 492.93 176.55 493.38 180.52 493.86 184.49 494.33 188.35 494.82 192.21 495.33 195.94 495.88 199.68 496.43 203.3 496.93 206.93 497.41 210.44 497.86 213.97 498.18 217.37 498.53 220.77 498.96 224.04 499.52 227.31 500.1 230.47 500.72 233.62 501.32 236.66 501.92 239.7 502.47 242.63 503.02 245.55 503.56 248.35 504.14 251.15 504.74 253.83 505.37 256.51 506 259.07 506.65 261.63 507.29 264.07 507.95 266.51 508.6 268.82 509.27 271.14 509.94 273.33 510.64 275.51 511.34 277.61 512.07 279.71 512.81 281.71 513.58 283.71 514.36 285.62 515.17 287.52 515.99 289.33 516.85 291.14 517.7 292.85 518.6 294.55 519.5 296.16 520.43 297.75 521.37 299.26 522.35 300.76 523.33 302.16 524.35 303.55 525.38 304.85 526.44 306.14 527.51 307.35 528.61 308.54 529.72 309.64 530.87 310.74 532.02 311.74 533.21 312.74 534.4 313.66 535.63 314.56 536.86 315.39 538.13 316.2 539.4 316.94 540.71 317.67 542.02 318.31 543.36 318.95 544.7 319.54 546.1 320.12 547.51 320.65 548.96 321.18 550.42 321.67 551.94 322.19 553.45 322.69 555.02 323.22 556.59 323.73 558.22 324.26 559.84 324.74 561.52 325.23 563.21 325.67 564.94 326.11 566.68 326.5 568.47 326.89 570.26 327.24 572.11 327.58 573.96 327.87 575.86 328.17 577.76 328.41 579.72 328.66 581.67 328.85 583.68 329.05 585.69 329.2 587.76 329.34 589.82 329.44 591.94 329.34 594.03 329.3 596.19 329.25 598.34 329.25 600.57 329.25 600.57 329.25 600.57 329.25 602.75 329.25 604.93 329.25 607.12 329.25 609.3 329.25 611.48 329.25 613.66 329.25 615.85 329.25 618.03 329.25 620.21 329.25 622.39 329.25 624.58 329.25 626.76 329.25 628.94 329.25 631.12 329.25 633.31 329.25 635.49 329.25 637.67 329.25 639.86 329.26 642.04 329.26 644.22 329.26 646.4 329.26 648.59 329.26 650.77 329.26 652.95 329.26 655.13 329.26 657.32 329.26 659.5 329.26 661.68 329.26 663.86 329.26 666.05 329.26 668.23 329.26 670.41 329.26 672.59 329.26 674.78 329.26 676.96 329.26 679.14 329.26 681.33 329.26 683.51 329.26 685.69 329.26 687.87 329.26 690.06 329.26 692.24 329.26 694.42 329.27 696.6 329.27 698.79 329.27 700.97 329.27 703.15 329.27 705.34 329.27 707.52 329.27 709.7 329.27 711.88 329.27 714.07 329.27 716.25 329.27 718.43 329.27 720.62 329.27 722.8 329.27 724.98 329.27 727.16 329.27 729.35 329.27 731.53 329.27 733.71 329.27 735.89 329.27 738.08 329.27 740.26 326.37 739.67 323.23 739.01 320.16 738.36 317.16 737.7 314.25 737.06 311.38 736.41 308.48 735.74 305.57 735.06 302.71 734.39 299.86 733.7 296.95 732.98 293.97 732.24 290.95 731.47 287.93 730.69 284.93 729.9 281.97 729.11 279.1 728.34 276.27 727.56 273.41 726.76 270.53 725.94 267.68 725.12 264.87 724.29 262 723.44 259.06 722.55 256.09 721.64 253.15 720.73 250.29 719.82 247.48 718.92 244.66 718 241.8 717.05 238.96 716.1 236.18 715.16 235.65 713.48 235.14 711.79 234.62 710.11 234.11 708.42 233.6 706.74 233.08 705.06 232.57 703.39 232.05 701.71 231.54 700.05 231.02 698.39 230.5 696.74 229.97 695.09 229.45 693.45 228.92 691.81 228.39 690.18 227.86 688.56 224.78 687.59 221.7 686.62 221.52 688.12 221.18 689.48 220.84 690.85 220.33 692.07 219.83 693.3 219.16 694.38 218.5 695.46 217.67 696.39 216.85 697.32 215.87 698.1 214.89 698.88 213.75 699.51 212.61 700.13 211.31 700.59 210.02 701.05 208.55 701.35 207.08 701.63 205.5 701.75 203.9 701.86 202.2 701.81 200.49 701.74 198.73 701.54 197.03 701.35 195.3 701.03 193.61 700.71 191.83 700.25 190.05 699.78 187.99 699.06 185.82 698.29 183.57 697.37 181.56 696.37 179.52 695.43 179.52 695.43 179.52 695.43 179.52 695.43 179.52 695.43M201.81 655.81Q205.18 656.67 207.72 657.09 210.26 657.5 211.98 657.46 213.71 657.41 214.92 656.7 216.14 655.98 216.85 654.6 216.85 654.6 216.85 654.6 217.1 653.49 217.04 651.67 217.01 650.76 216.91 649.68 216.81 648.59 216.64 647.33 216.47 646.07 216.22 644.63 215.98 643.19 215.66 641.58 215.34 639.96 214.95 638.17 214.56 636.39 214.1 634.42 214.1 634.42 214.1 634.42 213.78 633.03 213.45 631.63 213.13 630.24 212.81 628.84 212.5 627.45 212.18 626.05 211.87 624.65 211.56 623.26 209.28 622.84 207 622.43 204.71 622.02 202.42 621.61 200.13 621.2 197.84 620.79 195.55 620.38 193.25 619.97 190.32 619.45 187.9 619.26 185.48 619.07 183.59 619.21 181.69 619.35 180.33 619.81 178.98 620.27 178.16 621.06 177.34 621.84 176.99 623.14 176.64 624.43 176.76 626.24 176.82 627.15 177 628.18 177.18 629.21 177.48 630.37 177.78 631.53 178.2 632.81 178.62 634.1 179.16 635.52 179.16 635.52 179.16 635.52 179.6 636.69 180.06 637.78 180.51 638.86 180.98 639.87 181.9 641.87 182.85 643.54 183.8 645.21 184.77 646.55 185.74 647.89 186.72 648.89 188.67 650.9 192.46 652.63 194.34 653.5 196.68 654.29 199.02 655.09 201.81 655.81 201.81 655.81 201.81 655.81 201.81 655.81 201.81 655.81M440.69 759.06Q436.15 758.71 431.53 758.37 426.91 757.84 422.57 757.16 418.22 756.46 414.16 755.63 410.11 754.79 406.38 753.82 402.74 752.85 399.46 751.76 396.18 750.67 393.14 749.46 390.06 748.24 387.23 746.92 384.39 745.61 381.84 744.22 379.29 742.84 376.95 741.32 374.63 739.82 372.5 738.19 370.38 736.6 368.46 734.88 367.5 734.03 366.58 733.15 365.67 732.28 364.81 731.37 363.95 730.47 363.13 729.53 362.32 728.6 361.55 727.64 360.78 726.68 360.06 725.69 359.34 724.69 358.67 723.67 358 722.64 357.38 721.58 356.76 720.52 356.19 719.42 355.61 718.33 355.09 717.2 354.56 716.07 354.09 714.9 353.61 713.73 353.18 712.51 352.75 711.28 352.35 710 351.96 708.72 351.61 707.38 351.26 706.04 350.95 704.64 350.63 703.25 350.36 701.79 350.09 700.33 349.83 698.82 349.52 697.31 349.21 695.73 348.9 694.16 348.61 692.53 348.47 691.71 348.34 690.88 348.21 690.05 348.08 689.21 347.96 688.36 347.84 687.5 347.73 686.64 347.62 685.77 347.51 684.89 347.41 684 347.32 683.11 347.23 682.21 347.14 681.3 347.06 680.38 346.98 679.46 346.91 678.53 346.83 677.59 346.77 676.64 346.71 675.69 346.65 674.73 346.6 673.76 346.56 672.78 346.51 671.8 346.48 670.81 346.44 669.81 346.41 668.8 346.39 667.79 346.37 666.77 346.35 665.75 346.34 664.71 346.33 663.67 346.33 662.61 346.33 662.61 346.33 662.61 346.33 661.59 346.34 660.58 346.35 659.57 346.36 658.57 346.38 657.58 346.4 656.6 346.42 655.62 346.45 654.65 346.49 653.69 346.52 652.74 346.56 651.79 346.61 650.86 346.65 649.92 346.71 649 346.76 648.08 346.82 647.18 346.88 646.27 346.95 645.38 347.02 644.49 347.1 643.62 347.17 642.75 347.26 641.89 347.34 641.03 347.43 640.18 347.52 639.34 347.62 638.51 347.72 637.68 347.83 636.87 347.94 636.05 348.05 635.25 348.17 634.45 348.29 633.67 348.53 632.1 348.81 630.59 349.08 629.09 349.39 627.64 349.69 626.19 350.03 624.8 350.37 623.42 350.73 622.09 351.1 620.76 351.5 619.49 351.9 618.23 352.32 617.02 352.75 615.81 353.21 614.67 353.67 613.52 354.16 612.43 354.65 611.35 355.19 610.3 355.73 609.25 356.33 608.25 356.92 607.24 357.56 606.28 358.2 605.31 358.9 604.39 359.59 603.47 360.33 602.58 361.08 601.7 361.87 600.85 362.66 600.01 363.51 599.21 364.35 598.4 365.25 597.64 366.14 596.88 367.09 596.16 368.04 595.44 369.03 594.75 371.03 593.39 373.22 592.19 375.42 590.99 377.81 589.95 380.21 588.91 382.81 588.03 385.41 587.16 388.29 586.41 391.18 585.67 394.34 585.06 397.5 584.44 400.95 583.97 404.39 583.49 408.12 583.14 411.85 582.79 415.86 582.57 419.87 582.36 424.16 582.27 428.45 582.19 433.02 582.23 435.31 582.26 437.67 582.31 440.03 582.37 442.45 582.46 442.45 582.46 442.45 582.46 446.15 582.59 449.68 582.79 453.21 582.99 456.56 583.26 459.92 583.53 463.1 583.86 466.28 584.2 469.28 584.6 472.29 585 475.12 585.47 477.96 585.94 480.62 586.47 483.28 587.01 485.77 587.61 488.25 588.21 490.57 588.88 492.88 589.55 495.02 590.28 497.16 591.02 499.13 591.82 501.09 592.62 502.89 593.49 504.68 594.36 506.3 595.29 507.92 596.23 509.36 597.23 510.81 598.23 512.08 599.3 513.35 600.37 514.45 601.51 515.55 602.65 516.48 603.85 516.48 603.85 516.48 603.85 520.64 603.98 524.81 604.11 524.81 602.72 524.82 601.32 524.82 599.93 524.82 598.53 524.82 597.14 524.82 595.74 524.82 594.35 524.82 592.96 524.83 591.56 524.83 590.17 524.83 588.78 524.83 587.38 524.83 585.99 524.83 584.6 524.83 583.21 524.83 581.82 524.83 580.42 524.83 579.03 524.83 577.64 524.83 576.25 524.83 574.86 524.83 573.47 524.83 572.08 524.83 570.69 524.82 569.3 524.82 567.91 524.82 566.52 524.82 565.13 524.82 563.74 524.82 562.35 524.82 560.96 524.81 559.57 524.81 558.18 524.81 556.79 524.81 555.4 524.8 554.01 524.8 552.62 524.8 551.24 524.8 549.85 524.79 548.46 524.79 547.07 524.79 545.68 524.79 544.3 524.78 542.91 524.78 541.52 524.78 540.13 524.77 538.74 524.77 537.36 524.77 535.97 524.76 534.58 524.76 533.19 524.76 531.81 524.75 530.42 524.75 529.03 524.75 527.64 524.74 526.26 524.74 524.87 524.74 523.48 524.73 522.09 524.73 520.69 524.73 519.29 524.73 517.89 524.73 516.48 524.72 515.08 528.9 515.08 533.06 515.29 537.2 515.71 541.35 516.07 545.52 516.07 549.7 516.07 553.86 516.2 558.03 516.36 562.19 516.56 566.34 516.83 570.5 517.07 574.68 517.07 578.85 517.07 583.01 517.28 587.17 517.54 591.33 517.76 595.49 517.92 599.66 518.07 603.83 518.07 608 518.07 612.16 518.26 616.32 518.51 620.49 518.73 624.65 518.91 628.81 519.09 632.98 519.29 637.14 519.5 641.3 519.71 645.46 519.94 649.63 520.13 653.79 520.28 657.6 520.45 657.56 521.3 657.56 522.19 657.57 523.08 657.58 523.96 657.58 524.85 657.59 525.74 657.6 526.63 657.6 527.52 657.61 528.41 657.62 529.3 657.63 530.19 657.63 531.08 657.64 531.97 657.65 532.86 657.66 533.74 657.66 534.63 657.67 535.52 657.68 536.41 657.69 537.3 657.69 538.19 657.7 539.08 657.71 539.97 657.72 540.86 657.72 541.75 657.73 542.64 657.74 543.53 657.75 544.42 657.75 545.3 657.76 546.19 657.77 547.08 657.78 547.97 657.78 548.86 657.79 549.75 657.8 550.64 657.81 551.53 657.81 552.42 657.82 553.31 657.83 554.2 657.84 555.09 657.84 555.97 657.85 556.86 657.86 557.75 657.87 558.64 657.87 559.53 657.88 560.42 657.89 561.31 657.9 562.2 657.9 563.09 657.91 563.98 657.92 564.87 657.93 565.76 657.93 566.65 657.93 567.53 657.93 568.42 657.93 569.31 657.93 570.2 657.93 571.09 657.93 571.98 657.93 572.87 657.93 573.76 657.93 574.65 657.93 575.54 657.93 576.43 657.93 577.32 657.93 578.21 657.93 579.1 657.93 579.98 657.93 580.87 657.93 581.76 657.93 582.65 657.93 583.54 657.93 584.43 657.93 585.32 657.93 586.21 657.93 587.1 657.93 587.99 657.93 588.88 657.93 589.77 657.93 590.66 657.93 591.54 657.93 592.43 657.93 593.32 657.93 594.21 657.93 595.1 657.93 595.99 657.93 596.88 657.93 597.77 657.93 598.66 657.93 599.55 657.93 600.44 657.93 601.33 657.93 602.22 657.93 603.1 657.93 603.99 657.93 604.88 657.93 605.77 657.93 606.66 657.93 607.55 657.93 608.44 657.93 609.33 657.93 610.22 657.93 611.11 657.93 612 657.93 612.89 657.93 613.78 657.93 614.66 657.93 615.55 657.93 616.44 657.93 617.33 657.93 618.22 657.93 619.11 657.93 620 657.93 620.89 657.93 621.78 657.93 622.67 657.93 623.56 657.93 624.45 657.93 625.34 657.93 626.23 657.93 627.11 657.93 628 657.93 628.89 657.93 629.78 657.93 630.67 657.93 631.56 657.93 632.45 657.93 633.34 657.93 634.23 657.93 635.12 657.93 636.01 657.93 636.9 657.93 637.79 657.93 638.68 657.93 639.56 657.93 640.45 657.93 641.34 657.93 642.23 657.93 643.12 657.93 644.01 657.93 644.9 657.93 645.79 657.93 646.68 657.93 647.57 657.93 648.46 657.93 649.35 657.93 650.24 657.93 651.12 657.93 652.01 657.93 652.9 657.93 653.79 657.93 654.68 657.93 655.57 657.93 656.46 657.93 657.35 657.93 658.24 657.93 659.13 657.93 660.02 657.93 660.91 657.93 661.8 657.93 662.69 657.93 663.57 657.93 664.46 657.93 665.35 657.93 666.24 657.93 667.13 657.93 668.02 657.93 668.91 657.93 669.8 657.93 670.69 657.93 671.58 657.93 672.47 657.93 673.36 657.93 674.25 657.93 675.14 657.93 676.03 657.93 676.91 657.93 677.8 657.93 678.69 657.93 679.58 657.93 680.47 657.93 681.36 657.93 682.25 657.93 683.14 657.93 684.03 657.93 684.92 657.93 685.81 657.93 686.7 657.93 687.59 657.93 688.48 657.93 689.36 657.93 690.25 657.93 691.14 657.93 692.03 657.93 692.92 657.93 693.81 657.93 694.7 657.93 695.59 657.93 696.48 657.93 697.37 657.93 698.26 657.93 699.15 657.93 700.04 657.93 700.93 657.93 701.82 657.93 702.71 657.93 703.59 657.93 704.48 657.93 705.37 657.93 706.26 657.93 707.15 657.93 708.04 657.93 708.93 657.93 709.82 657.93 710.71 657.93 711.6 657.93 712.49 657.93 713.38 657.93 714.27 657.93 715.16 657.93 716.05 657.93 716.94 657.93 717.82 657.93 718.71 657.93 719.6 657.93 720.49 657.93 721.38 657.93 722.27 657.93 723.16 657.93 724.05 657.93 724.94 657.93 725.83 657.93 726.72 657.93 727.61 657.93 728.5 657.93 729.39 657.93 730.28 657.93 731.17 657.93 732.06 657.93 732.95 657.93 733.83 657.93 734.72 657.93 735.61 657.93 736.5 657.93 737.39 657.93 738.28 657.93 739.17 657.93 740.06 657.93 740.95 657.93 741.84 657.93 742.73 657.93 743.62 657.93 744.51 657.93 745.4 657.93 746.29 657.93 747.18 657.93 748.07 654.24 748.38 650.1 748.85 645.95 749.38 641.81 749.92 637.7 750.45 633.65 750.97 629.7 751.46 625.79 751.93 621.85 752.4 617.81 752.85 613.71 753.3 609.58 753.73 605.44 754.14 601.3 754.54 597.17 754.91 593.05 755.27 588.97 755.61 584.97 755.92 581.03 756.21 577.05 756.49 572.99 756.75 568.87 757 564.74 757.24 560.6 757.45 556.46 757.65 552.33 757.83 548.2 757.99 544.07 758.14 539.95 758.27 535.83 758.37 531.72 758.47 527.61 758.54 527.41 757.11 527.22 755.68 527.02 754.25 526.82 752.82 526.62 751.39 526.42 749.96 526.21 748.54 526.01 747.13 525.8 745.72 525.6 744.33 525.39 742.94 525.19 741.55 524.98 740.18 524.78 738.82 524.57 737.46 524.37 736.11 520.14 736.13 515.91 736.13 515.05 737.72 513.96 739.22 512.87 740.73 511.56 742.14 510.24 743.56 508.7 744.88 507.16 746.2 505.39 747.42 503.62 748.63 501.62 749.74 499.62 750.84 497.4 751.83 495.18 752.81 492.72 753.68 490.27 754.53 487.59 755.27 484.9 755.99 482.15 756.61 479.4 757.22 476.57 757.71 473.75 758.2 470.85 758.57 467.95 758.94 464.99 759.19 462.02 759.43 458.98 759.56 455.93 759.68 452.82 759.68 449.71 759.68 446.53 759.56 443.45 759.27 440.69 759.06 440.69 759.06 440.69 759.06 440.69 759.06 440.69 759.06M500.6 711.86Q503.4 711.91 505.76 711.85 508.13 711.78 510.05 711.61 513.91 711.27 516.02 710.51 518.14 709.76 519.7 707.67 520.47 706.63 521.11 705.26 521.75 703.9 522.24 702.22 522.24 702.22 522.24 702.22 522.49 701.21 522.72 699.91 522.94 698.62 523.14 697.03 523.24 696.24 523.33 695.38 523.43 694.52 523.51 693.59 523.6 692.67 523.68 691.67 523.76 690.67 523.83 689.6 523.9 688.54 523.97 687.4 524.04 686.27 524.09 685.06 524.15 683.86 524.2 682.59 524.26 681.32 524.3 679.99 524.34 678.65 524.38 677.25 524.42 675.85 524.45 674.37 524.47 672.91 524.5 671.37 524.52 669.83 524.53 668.23 524.53 668.23 524.53 668.23 524.54 667.41 524.54 666.61 524.55 665.81 524.55 665.03 524.56 663.47 524.55 662 524.55 660.52 524.54 659.13 524.53 657.73 524.51 656.42 524.49 655.11 524.46 653.88 524.43 652.65 524.39 651.5 524.35 650.34 524.31 649.27 524.26 648.2 524.21 647.21 524.16 646.22 524.1 645.31 524.04 644.4 523.97 643.57 523.83 641.9 523.67 640.56 523.5 639.21 523.3 638.18 523.1 637.15 522.87 636.43 522.87 636.43 522.87 636.43 522.64 635.56 522.38 634.77 522.11 633.97 521.81 633.26 521.21 631.84 520.46 630.73 519.71 629.63 518.82 628.85 517.92 628.06 516.88 627.6 514.8 626.68 510.98 626.14 509.07 625.87 506.73 625.69 504.38 625.52 501.61 625.44 501.61 625.44 501.61 625.44 498.6 625.35 496.11 625.4 493.62 625.45 491.65 625.63 487.71 625.98 485.86 626.88 484.93 627.33 484.15 628.14 483.36 628.96 482.72 630.15 482.08 631.34 481.58 632.9 481.33 633.68 481.12 634.56 480.91 635.43 480.73 636.4 480.55 637.36 480.39 638.57 480.24 639.77 480.1 641.21 479.96 642.66 479.84 644.34 479.78 645.18 479.73 646.08 479.68 646.98 479.63 647.94 479.58 648.9 479.53 649.92 479.49 650.94 479.45 652.02 479.41 653.1 479.37 654.24 479.34 655.38 479.3 656.59 479.27 657.79 479.25 659.05 479.22 660.32 479.2 661.64 479.17 662.97 479.15 664.36 479.13 665.75 479.12 667.2 479.12 667.2 479.12 667.2 479.1 668.65 479.09 670.04 479.08 671.44 479.08 672.77 479.07 674.11 479.07 675.39 479.07 676.67 479.07 677.9 479.08 679.12 479.09 680.29 479.09 681.46 479.11 682.57 479.12 683.68 479.14 684.73 479.16 685.78 479.19 686.78 479.21 687.77 479.25 688.71 479.28 689.64 479.31 690.52 479.39 692.28 479.48 693.8 479.58 695.32 479.71 696.59 479.83 697.87 479.98 698.91 480.13 699.95 480.32 700.89 480.5 701.83 480.73 702.68 481.18 704.39 481.78 705.71 482.39 707.03 483.15 707.97 483.91 708.91 484.82 709.45 486.65 710.53 490.6 711.15 492.57 711.45 495.07 711.63 497.57 711.81 500.6 711.86 500.6 711.86 500.6 711.86 500.6 711.86 500.6 711.86M705.77 741.35Q705.85 740.6 705.95 739.7 706.06 738.79 706.19 737.87 706.32 736.94 706.44 736.01 706.56 735.08 706.68 734.15 706.79 733.22 706.89 732.29 706.99 731.36 707.09 730.44 707.18 729.52 707.26 728.6 707.35 727.68 707.42 726.76 707.5 725.85 707.57 724.93 707.64 724.02 707.71 723.11 707.78 722.21 707.85 721.3 707.91 720.4 707.97 719.49 708.04 718.59 708.1 717.69 708.16 716.8 708.22 715.9 708.28 715 708.35 714.11 708.41 713.22 708.47 712.33 708.53 711.44 708.59 710.55 708.65 709.66 708.71 708.77 708.78 707.88 708.84 707 708.9 706.11 708.97 705.23 709.03 704.34 709.1 703.46 709.17 702.58 709.24 701.7 709.31 700.82 709.38 699.94 709.45 699.06 709.52 698.18 709.6 697.3 709.68 696.42 709.75 695.54 709.83 694.67 709.91 693.79 710 692.91 710.08 692.04 710.16 691.16 710.25 690.29 710.34 689.41 710.42 688.54 710.51 687.66 710.6 686.79 710.69 685.92 710.78 685.04 710.87 684.17 710.97 683.3 711.06 682.42 711.15 681.55 711.25 680.68 711.34 679.81 711.43 678.93 711.53 678.06 711.62 677.19 711.72 676.32 711.81 675.45 711.91 674.58 712.01 673.7 712.1 672.83 712.2 671.96 712.29 671.09 712.39 670.22 712.49 669.35 712.58 668.48 712.68 667.61 712.78 666.74 712.88 665.86 712.97 664.99 713.07 664.12 713.17 663.25 713.26 662.38 713.36 661.51 713.46 660.64 713.55 659.77 713.65 658.9 713.75 658.02 713.84 657.15 713.94 656.28 714.04 655.41 714.13 654.54 714.23 653.67 714.33 652.79 714.42 651.92 714.52 651.05 714.62 650.18 714.71 649.31 714.81 648.43 714.9 647.56 715 646.69 715.09 645.81 715.19 644.94 715.29 644.07 715.38 643.19 715.47 642.32 715.57 641.45 715.66 640.57 715.76 639.7 715.85 638.83 715.95 637.95 716.04 637.08 716.13 636.2 716.23 635.33 716.32 634.45 716.41 633.58 716.5 632.7 716.59 631.83 716.69 630.95 716.78 630.07 716.87 629.2 716.96 628.32 713.87 628.4 710.79 628.49 707.71 628.57 704.63 628.66 701.55 628.74 698.47 628.83 695.39 628.92 692.32 629.01 689.24 629.1 686.17 629.19 683.1 629.28 680.03 629.37 676.96 629.47 673.89 629.56 670.82 629.65 667.76 629.75 667.76 628.58 667.76 627.42 667.76 626.25 667.76 625.08 667.76 623.92 667.76 622.75 667.76 621.58 667.76 620.41 667.76 619.25 667.76 618.08 667.76 616.91 667.76 615.75 667.76 614.58 667.77 613.41 667.77 612.24 667.77 611.08 667.77 609.91 667.77 608.74 667.77 607.58 667.77 606.41 667.77 605.24 667.77 604.08 667.77 602.91 667.77 601.74 667.77 600.57 667.77 599.41 667.77 598.24 667.77 597.07 667.77 595.91 667.77 594.74 667.77 593.57 667.77 592.41 671.03 592.42 674.29 592.43 677.56 592.44 680.82 592.46 684.09 592.48 687.37 592.5 690.65 592.53 693.93 592.55 697.22 592.58 700.5 592.61 703.8 592.64 707.09 592.68 710.39 592.71 713.7 592.75 717.01 592.79 720.32 592.84 720.4 591.81 720.49 590.79 720.57 589.78 720.67 588.79 720.76 587.8 720.87 586.83 720.98 585.86 721.11 584.91 721.24 583.95 721.38 583.02 721.51 582.08 721.67 581.17 721.82 580.25 721.99 579.36 722.16 578.46 722.35 577.58 722.53 576.7 722.73 575.84 722.93 574.99 723.14 574.15 723.36 573.3 723.59 572.48 723.82 571.66 724.07 570.86 724.31 570.06 724.57 569.27 724.83 568.49 725.11 567.73 725.39 566.96 725.68 566.22 726.27 564.73 726.92 563.32 727.57 561.91 728.29 560.57 729 559.24 729.79 557.98 730.57 556.73 731.42 555.55 732.27 554.38 733.19 553.28 734.11 552.18 735.09 551.17 736.08 550.15 737.13 549.21 738.19 548.27 739.31 547.42 740.44 546.56 741.63 545.78 742.83 545 744.15 544.27 745.47 543.54 746.92 542.85 748.37 542.16 749.95 541.52 751.53 540.87 753.24 540.28 754.94 539.68 756.78 539.13 758.62 538.57 760.58 538.07 762.55 537.56 764.64 537.1 766.74 536.63 768.96 536.22 773.4 535.38 778.35 534.73 783.29 534.08 788.75 533.62 791.47 533.4 794.32 533.22 797.17 533.05 800.15 532.93 803.12 532.82 806.23 532.75 809.33 532.68 812.55 532.67 815.78 532.65 819.29 532.67 822.81 532.69 826.61 532.74 830.41 532.8 834.5 532.88 838.59 532.96 842.97 533.08 847.34 533.19 852.01 533.31 856.68 533.38 861.63 533.43 866.59 533.42 871.84 533.41 877.08 533.49 882.6 533.69 888.12 533.99 893.92 534.45 899.7 535.01 905.79 535.51 911.87 535.92 918.26 536.27 921.46 536.43 924.72 536.59 927.99 536.75 931.33 536.92 934.67 537.08 938.08 537.26 941.49 537.43 944.97 537.62 948.45 537.8 952.01 537.99 955.56 538.18 959.19 538.38 962.82 538.58 966.52 538.79 970.22 538.99 973.99 539.21 977.77 539.42 981.62 539.65 985.47 539.87 988.96 540.14 988.96 540.14 988.96 540.14 990.89 541.4 992.98 542.73 995.08 544.06 997.19 545.39 999.29 546.72 1001.39 548.05 1002.34 549.16 1002.03 550.04 1001.71 550.91 1001.39 551.78 1001.06 552.65 1000.74 553.52 1000.41 554.4 1000.06 555.26 999.7 556.12 999.34 556.99 998.97 557.85 998.61 558.71 998.25 559.57 997.88 560.43 997.48 561.29 997.08 562.14 996.68 562.99 996.29 563.85 995.89 564.7 995.49 565.55 995.07 566.4 994.64 567.24 994.21 568.09 993.78 568.93 993.34 569.77 992.91 570.62 988.29 570.35 983.38 570.08 978.45 569.81 973.91 569.57 969.37 569.32 965.21 569.12 961.06 568.91 957.31 568.75 953.56 568.58 950.21 568.46 946.87 568.34 943.93 568.27 938.06 568.12 933.8 568.15 929.54 568.18 925.95 568.44 922.36 568.71 919.42 569.22 916.49 569.73 914.2 570.47 911.91 571.21 910.25 572.18 908.58 573.14 907.1 574.53 906.35 575.23 905.64 576.02 904.94 576.82 904.27 577.72 903.59 578.61 902.96 579.61 902.32 580.6 901.71 581.69 901.1 582.78 900.52 583.97 899.93 585.15 899.37 586.43 899.37 586.43 899.37 586.43 899.06 587.13 898.74 587.83 898.42 588.53 898.1 589.22 897.78 589.92 897.46 590.61 897.13 591.3 896.8 591.99 896.46 592.68 896.13 593.37 895.79 594.06 895.45 594.75 895.1 595.44 894.76 596.12 894.41 596.8 894.06 597.49 899.06 597.67 904.06 597.86 909.07 598.05 914.08 598.24 919.09 598.43 924.1 598.62 929.1 598.8 934.11 598.99 939.12 599.18 944.12 599.36 949.12 599.55 954.12 599.72 959.1 599.9 964.08 600.07 969.05 600.23 973.39 600.36 972.7 601.24 972 602.12 971.29 602.99 970.57 603.86 969.85 604.73 969.13 605.6 968.41 606.47 967.72 607.29 967.07 608.03 966.43 608.77 965.78 609.51 965.13 610.25 964.49 610.99 963.76 611.79 962.99 612.63 962.23 613.46 961.46 614.3 960.69 615.13 959.93 615.97 959.25 616.68 958.57 617.38 957.9 618.08 957.23 618.78 956.55 619.48 955.85 620.2 955.04 621 954.23 621.81 953.43 622.61 952.62 623.41 951.81 624.22 951.05 624.95 950.35 625.62 946.34 625.63 941.75 625.63 937.16 625.62 932.56 625.63 927.95 625.63 923.33 625.64 918.72 625.64 914.1 625.65 909.48 625.66 904.87 625.67 900.25 625.68 895.64 625.7 891.03 625.71 886.43 625.73 881.83 625.75 877.23 625.77 876.77 626.44 876.32 627.11 875.86 627.78 875.4 628.45 874.94 629.12 874.48 629.78 874.02 630.45 873.55 631.12 873.08 631.78 872.62 632.44 872.15 633.1 871.67 633.76 871.2 634.42 870.73 635.08 870.25 635.73 869.78 636.39 869.3 637.04 868.82 637.69 868.34 638.34 867.86 638.99 867.38 639.64 866.9 640.28 866.41 640.93 865.93 641.57 865.44 642.21 864.96 642.85 864.47 643.49 863.98 644.12 863.49 644.76 863 645.39 862.51 646.03 862.02 646.66 861.53 647.29 861.03 647.92 860.54 648.55 860.04 649.18 859.54 649.8 859.04 650.43 858.54 651.05 858.04 651.67 857.53 652.3 857.03 652.92 856.52 653.54 856.02 654.16 855.51 654.78 855 655.39 854.49 656.01 853.98 656.63 853.46 657.24 852.95 657.86 852.44 658.47 851.92 659.08 851.41 659.69 850.89 660.3 850.37 660.91 849.86 661.52 849.34 662.12 848.82 662.73 848.3 663.33 847.78 663.93 847.26 664.54 846.74 665.14 846.22 665.74 845.69 666.34 845.17 666.94 844.65 667.54 844.12 668.13 843.6 668.73 843.07 669.33 842.55 669.92 842.02 670.52 841.49 671.11 840.96 671.71 840.44 672.3 839.91 672.9 839.38 673.49 838.85 674.08 838.32 674.68 837.79 675.27 837.26 675.87 836.73 676.46 836.2 677.05 835.66 677.65 835.13 678.24 834.6 678.84 834.07 679.43 833.54 680.03 833.01 680.63 832.48 681.23 831.95 681.83 831.42 682.43 830.89 683.03 830.37 683.63 829.84 684.24 829.32 684.84 828.79 685.45 828.27 686.06 827.75 686.68 827.23 687.3 826.72 687.92 826.2 688.54 825.69 689.17 825.19 689.8 824.68 690.44 824.18 691.08 823.69 691.73 823.19 692.39 822.7 693.05 822.22 693.72 821.75 694.39 821.28 695.08 820.81 695.77 820.36 696.47 819.91 697.19 819.47 697.91 819.04 698.65 818.62 699.4 818.2 700.16 817.81 700.93 817.42 701.72 817.04 702.52 816.67 703.34 816.32 704.17 815.97 705.01 815.62 705.87 815.28 706.73 814.92 707.61 814.64 708.35 811.07 709.77 808 710.96 804.78 712.19 801.18 713.54 797.89 714.75 794.82 715.87 791.28 717.12 787.75 718.36 784.68 719.42 781.36 720.54 777.73 721.75 774.51 722.8 771.41 723.8 767.78 724.93 764.14 726.06 760.5 727.17 757.19 728.15 754.1 729.06 750.51 730.09 746.96 731.09 743.87 731.95 740.51 732.86 736.85 733.83 733.2 734.79 729.54 735.73 725.88 736.64 722.41 737.5 719.3 738.25 715.84 739.06 712.18 739.91 709.01 740.63 705.77 741.35 705.77 741.35 705.77 741.35"></path></svg>