<svg id="warpedSvg0" xmlns="http://www.w3.org/2000/svg" data-id="0" data-media-id="Wqdq2ZYgJmC" style="visibility: visible" viewBox="-2.2100000381469727 -4.729999989271164 700.6700439453125 704.6199951171875" width="705.6700439453125px" height="709.6199951171875px">
        <defs>
            <linearGradient id="sampleGradient" gradientTransform="rotate(1)" x1="0%" y1="50%" x2="100%" y2="50%" gradientUnits="userSpaceOnUse">
                <stop offset="0%" id="first_color" stop-color="#6b6fff"></stop>
                <stop offset="100%" id="second_color" stop-color="#bc91c1"></stop>
            </linearGradient>
            <filter id="contrast">
                <feComponentTransfer>
                    <feFuncR type="linear" id="filter_R" slope="1.25"></feFuncR>
                    <feFuncG type="linear" id="filter_G" slope="1.25"></feFuncG>
                    <feFuncB type="linear" id="filter_B" slope="1.25"></feFuncB>
                </feComponentTransfer>
            </filter>
        </defs>
    <path fill="#be816c" d="M171.2 305.71Q169.97 305.44 168.26 305.02 166.55 304.59 164.84 304.16 163.1 303.88 161.35 303.61 159.61 303.34 157.86 303.07 156.11 302.84 154.36 302.62 152.61 302.4 150.86 302.17 149.13 301.81 147.41 301.43 145.69 301.06 143.96 300.69 142.23 300.37 140.49 300.07 138.76 299.76 137.02 299.45 135.27 299.24 133.51 299.03 131.76 298.82 130.01 298.61 128.25 298.44 126.49 298.28 124.74 298.11 122.98 297.95 121.21 297.94 119.45 297.94 117.68 297.94 115.92 297.93 113.18 297.68 110.56 297.45 107.94 297.2 105.44 296.9 102.94 296.58 100.55 296.3 98.16 296.04 95.88 295.79 93.6 295.63 91.43 295.5 89.26 295.36 87.21 295.13 85.16 294.83 83.23 294.51 81.3 294.22 79.48 293.94 77.66 293.68 75.96 293.41 74.25 293.14 72.66 292.85 71.08 292.56 69.6 292.26 68.13 291.95 66.78 291.62 64.07 290.97 61.82 290.28 59.58 289.59 57.8 288.85 56.03 288.11 54.52 287.25 53.01 286.39 51.76 285.4 51.13 284.91 50.57 284.39 50.01 283.86 49.52 283.31 49.02 282.76 48.59 282.18 48.16 281.6 47.8 281 47.43 280.4 47.13 279.77 46.83 279.14 46.59 278.49 46.35 277.84 46.17 277.17 45.99 276.49 45.88 275.8 45.76 275.11 45.71 274.39 45.66 273.67 45.67 272.93 45.68 272.19 45.75 271.43 45.82 270.67 45.96 269.88 45.96 269.88 45.96 269.88 46.09 269.1 46.23 268.32 46.36 267.54 46.5 266.77 46.64 265.99 46.77 265.22 46.91 264.44 47.05 263.67 47.18 262.9 47.32 262.13 47.46 261.35 47.6 260.58 47.74 259.81 47.89 259.04 48.03 258.27 48.17 257.51 48.32 256.74 48.46 255.97 48.61 255.2 48.75 254.43 48.9 253.67 49.05 252.9 49.19 252.13 49.34 251.37 49.49 250.6 49.65 249.83 49.8 249.07 49.95 248.3 50.1 247.54 50.26 246.77 50.41 246 50.57 245.24 50.73 244.48 50.89 243.71 51.05 242.95 51.2 242.18 51.37 241.42 51.53 240.65 51.69 239.89 51.85 239.13 52.02 238.36 52.18 237.6 52.35 236.84 52.52 236.08 52.68 235.31 52.85 234.55 53.02 233.79 53.19 233.03 53.37 232.27 53.54 231.51 53.71 230.75 53.89 229.99 54.06 229.23 54.24 228.47 54.41 227.71 54.59 226.95 54.77 226.19 54.95 225.43 55.13 224.67 55.31 223.91 55.5 223.15 55.68 222.4 55.86 221.64 56.05 220.88 56.24 220.12 56.42 219.37 56.61 218.61 56.8 217.86 56.99 217.1 57.18 216.34 57.37 215.59 57.57 214.84 57.76 214.08 57.95 213.33 58.15 212.57 58.35 211.82 58.54 211.07 58.74 210.31 58.94 209.56 59.14 208.81 59.34 208.06 59.54 207.31 59.75 206.56 59.95 205.81 60.15 205.06 60.36 204.31 60.56 203.56 60.77 202.81 60.98 202.06 61.19 201.31 61.4 200.56 61.61 199.81 61.82 199.07 62.03 198.32 62.24 197.57 62.46 196.83 62.67 196.08 62.89 195.34 63.1 194.59 63.32 193.85 63.54 193.1 63.76 192.36 63.98 191.62 64.2 190.87 64.42 190.13 64.64 189.39 64.86 188.65 65.09 187.9 65.31 187.16 65.54 186.42 65.76 185.68 65.99 184.94 66.22 184.2 66.44 183.46 66.67 182.73 66.9 181.99 67.13 181.25 67.36 180.51 67.59 179.77 67.82 179.04 68.06 178.3 68.29 177.56 68.52 176.83 68.76 176.09 68.99 175.36 69.23 174.62 69.47 173.89 69.7 173.15 67.84 174.11 65.98 175.07 64.12 176.02 62.26 176.97 60.4 177.91 58.53 178.85 56.66 179.79 54.79 180.72 52.91 181.65 51.04 182.57 49.16 183.5 47.28 184.41 45.4 185.32 43.52 186.23 41.63 187.14 39.75 188.04 39.98 187.59 40.21 187.15 40.45 186.7 40.68 186.25 40.91 185.81 41.15 185.37 41.39 184.92 41.63 184.48 41.87 184.04 42.11 183.6 42.35 183.15 42.59 182.71 42.83 182.27 43.07 181.82 43.3 181.38 43.55 180.94 43.8 180.5 44.04 180.06 44.29 179.63 44.53 179.19 44.78 178.75 45.02 178.31 45.27 177.87 45.52 177.43 45.76 176.99 46.01 176.55 46.26 176.12 46.51 175.68 46.77 175.25 47.02 174.81 47.27 174.38 47.52 173.94 49.3 172.88 51.07 171.8 52.83 170.72 54.59 169.63 56.34 168.53 58.09 167.43 59.84 166.31 61.58 165.19 63.31 164.06 65.04 162.92 66.76 161.77 68.48 160.62 70.2 159.46 71.91 158.3 73.62 157.13 75.33 155.95 75.59 155.13 75.85 154.3 76.12 153.48 76.38 152.65 76.64 151.82 76.9 150.99 77.15 150.16 77.4 149.32 77.65 148.48 77.9 147.64 78.14 146.79 78.38 145.94 78.62 145.08 78.84 144.22 79.06 143.35 79.28 142.47 79.48 141.58 79.68 140.69 79.87 139.78 80.04 138.86 80.21 137.92 80.35 136.97 80.48 136.01 80.6 135.02 80.69 134.02 80.77 132.99 80.82 131.94 80.86 130.86 80.87 129.76 80.86 128.64 80.84 127.51 80.82 126.36 82.29 124.61 83.76 122.86 85.25 121.13 86.75 119.41 88.27 117.7 89.79 115.99 91.32 114.3 92.87 112.62 94.42 110.94 95.99 109.28 97.57 107.63 99.16 105.98 100.76 104.35 102.36 102.73 103.99 101.12 105.62 99.52 107.26 97.93 108.91 96.35 110.57 94.77 112.25 93.22 113.92 91.67 115.62 90.14 117.32 88.61 119.03 87.09 120.75 85.6 122.48 84.1 124.23 82.62 125.97 81.15 127.73 79.69 129.5 78.25 131.28 76.81 133.07 75.39 133.14 76.62 133.23 77.88 133.34 79.15 133.44 80.42 133.54 81.7 133.65 82.98 133.75 84.25 133.84 85.52 133.94 86.78 134.02 88.04 134.1 89.3 134.18 90.54 134.25 91.79 134.32 93.03 134.38 94.26 134.44 95.49 134.5 96.72 134.55 97.94 134.59 99.15 134.63 100.37 134.67 101.58 134.7 102.78 134.73 103.99 134.76 105.19 134.78 106.38 134.8 107.58 134.82 108.77 134.83 109.96 134.84 111.15 134.85 112.33 134.85 113.52 134.85 114.7 136.97 113.34 139.1 111.99 141.23 110.65 143.37 109.32 145.53 108 147.68 106.69 149.85 105.39 152.03 104.1 154.21 102.82 156.4 101.54 158.6 100.28 160.8 99.03 163.01 97.79 165.23 96.57 167.45 95.35 169.66 94.15 169.74 95.01 169.81 95.87 169.89 96.73 169.96 97.58 170.03 98.44 170.11 99.3 170.18 100.16 170.25 101.02 170.32 101.88 170.39 102.74 170.41 103.6 170.42 104.46 170.42 105.32 170.42 106.18 170.42 107.04 170.42 107.9 170.42 108.76 170.42 109.62 170.42 110.48 170.42 111.34 170.42 112.2 170.42 113.05 170.42 113.91 170.41 114.77 170.41 115.63 170.41 116.49 170.41 117.35 170.41 118.21 170.41 119.07 170.41 119.93 170.41 120.79 170.41 121.65 168.12 122.7 165.83 123.76 163.55 124.83 161.26 125.9 158.98 126.98 156.71 128.07 154.43 129.16 152.16 130.26 149.89 131.36 147.62 132.47 145.36 133.59 143.1 134.71 140.84 135.84 138.59 136.97 136.34 138.11 134.1 139.25 134.05 140.24 133.99 141.23 133.94 142.23 133.88 143.22 133.82 144.21 133.77 145.2 133.71 146.19 133.65 147.18 133.59 148.18 133.53 149.17 133.47 150.16 133.41 151.15 133.35 152.14 133.29 153.13 133.23 154.12 133.16 155.11 133.1 156.09 133.04 157.08 132.98 158.07 132.91 159.06 132.85 160.05 132.79 161.04 132.73 162.03 132.66 163.02 132.6 164 132.53 164.99 132.47 165.98 132.41 166.97 132.34 167.96 132.28 168.94 132.22 169.93 132.15 170.92 132.09 171.91 132.03 172.89 131.96 173.88 131.9 174.87 131.83 175.86 131.77 176.85 131.71 177.83 131.64 178.82 131.58 179.81 131.52 180.8 131.46 181.78 131.39 182.77 131.33 183.76 131.27 184.75 131.2 185.74 131.14 186.72 131.08 187.71 131.02 188.7 130.96 189.69 130.89 190.67 130.83 191.66 130.77 192.65 130.71 193.64 130.65 194.63 130.59 195.62 130.53 196.6 130.47 197.59 130.41 198.58 130.35 199.57 130.29 200.56 130.23 201.55 130.17 202.53 130.11 203.52 130.05 204.51 129.99 205.5 129.93 206.49 129.87 207.48 129.81 208.47 129.76 209.46 129.7 210.45 129.64 211.43 129.58 212.42 129.52 213.41 129.47 214.4 129.41 215.39 129.35 216.38 129.3 217.37 129.24 218.36 129.19 219.35 129.13 220.34 129.07 221.33 129.02 222.32 128.96 223.31 128.91 224.3 128.86 225.29 128.8 226.28 128.75 227.27 128.69 228.26 128.64 229.25 128.59 230.24 128.53 231.23 128.48 232.23 128.43 233.22 128.38 234.21 128.32 235.2 128.27 236.19 128.22 237.18 128.17 238.17 128.12 239.16 128.07 240.15 128.01 241.14 127.96 242.13 127.91 243.12 127.86 244.12 127.81 245.11 127.76 246.1 127.72 247.09 127.67 248.08 127.62 249.07 127.57 250.06 127.52 251.05 127.47 252.04 127.42 253.03 127.38 254.02 127.33 255 127.28 255.99 127.23 256.98 127.19 257.97 127.14 258.96 127.09 259.94 127.05 260.93 127 261.91 126.95 262.9 126.91 263.88 126.86 264.86 126.82 265.84 126.78 266.67 126.87 267.43 126.97 268.18 127.19 268.87 127.65 270.23 128.64 271.32 129.63 272.4 131.16 273.21 132.69 274.03 134.75 274.56 136.81 275.1 140.17 275.56 141.85 275.78 143.85 275.99 145.85 276.19 148.17 276.37 150.48 276.54 153.12 276.68 155.75 276.81 158.7 276.9 160.17 276.94 161.72 276.97 163.26 276.99 164.89 277 166.51 277.01 168.21 277 169.91 276.98 171.41 276.95 171.41 276.95 171.41 276.95 171.41 277.86 171.41 278.76 171.41 279.67 171.41 280.58 171.41 281.48 171.41 282.39 171.41 283.29 171.41 284.2 171.41 285.11 171.41 286.01 171.41 286.92 171.41 287.82 171.41 288.73 171.41 289.64 171.41 290.54 171.41 291.45 171.41 292.35 171.41 293.26 171.41 294.17 171.41 295.07 171.41 295.98 171.41 296.89 171.41 297.79 171.41 298.7 171.41 299.6 171.41 300.51 171.41 301.42 171.42 302.32 171.42 303.23 171.42 304.13 171.42 305.04 171.2 305.71 171.2 305.71 171.2 305.71M262.62 332.3Q262.62 332.3 262.62 332.3 260.88 331.63 259.17 331.01 257.47 330.39 255.8 329.71 254.13 328.99 252.5 328.26 250.85 327.58 249.24 326.87 247.64 326.16 246.07 325.43 244.5 324.69 242.98 323.92 241.45 323.17 239.96 322.39 238.46 321.64 237 320.87 235.54 320.1 234.11 319.31 232.69 318.53 231.3 317.73 229.92 316.93 228.57 316.11 227.23 315.29 225.92 314.45 224.61 313.62 223.34 312.77 222.07 311.93 220.84 311.07 219.61 310.22 218.42 309.35 217.22 308.49 216.07 307.62 214.91 306.75 213.8 305.87 212.69 304.99 211.61 304.1 210.54 303.21 209.51 302.31 208.48 301.41 207.49 300.49 206.5 299.58 205.56 298.64 204.62 297.71 203.72 296.76 202.83 295.81 201.98 294.84 201.13 293.87 200.33 292.88 199.52 291.9 198.76 290.89 198.01 289.89 197.3 288.86 196.59 287.84 195.92 286.79 195.25 285.75 194.63 284.69 194.01 283.63 193.43 282.54 192.86 281.46 192.32 280.35 191.79 279.25 191.3 278.12 190.81 277 190.36 275.85 190.36 275.85 190.36 275.85 189.8 274.39 189.28 272.89 188.76 271.39 188.28 269.84 187.81 268.3 187.37 266.72 186.94 265.13 186.55 263.51 186.17 261.88 185.82 260.21 185.47 258.55 185.16 256.84 184.84 255.13 184.53 253.38 184.21 251.62 183.91 249.83 183.76 248.93 183.61 248.02 183.47 247.11 183.34 246.19 183.2 245.28 183.08 244.35 182.95 243.41 182.84 242.47 182.72 241.53 182.62 240.58 182.51 239.63 182.42 238.66 182.32 237.7 182.23 236.73 182.15 235.75 182.07 234.77 181.99 233.78 181.92 232.78 181.86 231.79 181.8 230.78 181.74 229.77 181.69 228.75 181.64 227.73 181.61 226.7 181.57 225.67 181.54 224.62 181.51 223.58 181.49 222.52 181.47 221.47 181.46 220.4 181.45 219.34 181.45 218.26 181.45 218.26 181.45 218.26 181.45 216.76 181.45 215.26 181.45 213.76 181.45 212.26 181.45 210.76 181.45 209.26 181.45 207.76 181.45 206.26 181.45 204.76 181.45 203.26 181.45 201.76 181.45 200.26 181.45 198.76 181.45 197.26 181.45 195.76 181.45 194.26 181.45 192.76 181.45 191.26 181.45 189.76 181.45 188.26 181.45 186.76 181.45 185.26 181.45 183.76 181.45 182.26 181.45 180.76 181.45 179.26 181.45 177.76 181.45 176.26 181.45 174.76 181.45 173.27 181.45 171.77 181.45 170.27 181.45 168.77 181.45 167.27 181.45 165.77 181.45 164.27 181.45 162.77 181.45 161.27 181.45 159.77 181.45 158.27 181.45 156.77 181.45 155.27 181.45 153.77 181.45 152.27 181.45 150.77 181.45 149.27 181.45 147.77 181.45 146.27 181.45 144.77 181.45 143.27 181.45 141.77 181.45 140.27 181.45 138.77 181.45 137.27 181.45 135.77 181.45 134.27 181.45 132.77 181.45 131.27 181.45 129.77 181.45 128.27 181.45 126.77 181.45 125.27 181.45 123.77 181.45 122.27 181.45 121.04 181.47 119.82 181.49 118.61 181.53 117.41 181.57 116.21 181.63 115.03 181.69 113.85 181.77 112.68 181.85 111.52 181.95 110.37 182.05 109.22 182.17 108.09 182.29 106.96 182.43 105.84 182.57 104.73 182.73 103.63 182.89 102.53 183.07 101.44 183.25 100.36 183.45 99.29 183.65 98.22 183.87 97.17 184.09 96.11 184.33 95.07 184.57 94.03 184.83 93.01 185.09 91.98 185.37 90.97 185.65 89.95 185.95 88.95 186.25 87.95 186.57 86.96 186.89 85.98 187.22 85 187.56 84.02 187.92 83.06 188.28 82.1 188.66 81.14 189.03 80.19 189.43 79.24 189.83 78.3 190.24 77.37 190.66 76.43 191.09 75.5 191.96 73.64 192.91 71.82 193.85 69.98 194.88 68.19 195.89 66.36 196.99 64.57 198.08 62.75 199.25 60.97 200.41 59.14 201.65 57.35 202.89 55.52 204.2 53.71 205.51 51.88 206.89 50.07 208.28 48.23 209.74 46.42 211.2 44.6 212.74 42.81 214.28 41.01 215.9 39.26 217.53 37.51 219.24 35.81 220.95 34.11 222.75 32.48 224.55 30.85 226.44 29.3 228.34 27.76 230.32 26.29 232.31 24.84 234.39 23.47 236.47 22.12 238.65 20.85 239.74 20.22 240.85 19.62 241.96 19.01 243.1 18.44 244.23 17.87 245.39 17.32 246.55 16.77 247.74 16.25 248.92 15.73 250.13 15.24 251.34 14.75 252.57 14.28 253.81 13.82 255.06 13.39 256.32 12.96 257.6 12.55 258.88 12.15 260.18 11.78 261.49 11.41 262.81 11.06 262.81 11.06 262.81 11.06 264.23 10.71 265.62 10.39 267.01 10.08 268.38 9.8 269.74 9.54 271.09 9.31 272.43 9.08 273.74 8.9 275.06 8.72 276.36 8.59 277.65 8.45 278.92 8.35 280.18 8.27 281.43 8.22 282.67 8.17 283.89 8.16 285.1 8.16 286.29 8.2 287.48 8.24 288.65 8.32 289.81 8.4 290.95 8.52 292.09 8.65 293.2 8.81 295.43 9.15 297.54 9.63 299.66 10.13 301.66 10.78 303.67 11.44 305.56 12.24 307.45 13.05 309.23 14 311 14.96 312.66 16.06 314.31 17.16 315.85 18.4 317.38 19.63 318.8 21 320.2 22.37 321.49 23.87 322.77 25.36 323.93 26.99 325.08 28.61 326.12 30.35 327.15 32.1 328.1 33.94 329.05 35.79 329.92 37.74 330.78 39.69 331.58 41.74 332.36 43.8 333.08 45.95 333.79 48.11 334.43 50.36 334.75 51.49 335.05 52.65 335.35 53.8 335.63 54.98 335.91 56.16 336.18 57.37 336.44 58.58 336.68 59.81 336.93 61.04 337.16 62.3 337.38 63.55 337.59 64.84 337.8 66.12 338 67.43 338.19 68.74 338.36 70.07 338.54 71.41 338.7 72.76 338.88 74.12 339.05 75.51 339.23 76.89 339.4 78.3 339.58 79.71 339.74 81.15 339.9 82.59 340.05 84.05 340.19 85.51 340.32 86.99 340.45 88.48 340.57 89.99 340.68 91.5 340.78 93.03 340.88 94.57 340.96 96.13 341.05 97.69 341.11 99.27 341.18 100.86 341.23 102.47 341.25 104.08 341.22 105.71 341.19 107.34 341.17 109 341.15 110.66 341.15 112.34 341.15 112.34 341.15 112.34 341.15 114.76 341.15 117.18 341.15 119.6 341.15 122.02 341.15 124.44 341.15 126.86 341.15 129.28 341.15 131.7 341.15 134.12 341.15 136.54 341.15 138.96 341.15 141.38 341.15 143.8 341.15 146.22 341.15 148.64 341.15 151.06 341.15 153.48 341.15 155.9 341.15 158.32 341.15 160.74 341.15 163.16 341.15 165.58 341.15 168 341.15 170.42 341.15 172.83 341.15 175.25 341.15 177.67 341.15 180.09 341.15 182.51 341.15 184.93 341.15 187.35 341.15 189.77 339.77 189.64 338.17 189.5 336.57 189.35 334.97 189.2 333.37 189.05 331.77 188.91 330.16 188.76 328.56 188.61 326.96 188.46 325.36 188.32 323.76 188.17 322.16 188.03 320.56 187.88 318.96 187.74 317.35 187.59 315.75 187.45 314.15 187.31 312.55 187.16 310.95 187.02 309.35 186.88 307.75 186.74 306.14 186.59 304.54 186.45 302.94 186.31 301.34 186.18 299.74 186.04 298.13 185.9 296.53 185.76 294.93 185.63 293.33 185.49 291.73 185.35 290.12 185.22 288.52 185.09 286.92 184.95 285.32 184.82 283.71 184.69 282.11 184.56 280.51 184.43 278.91 184.3 277.3 184.17 275.7 184.05 274.1 183.92 272.5 183.8 270.89 183.67 269.29 183.55 267.69 183.43 266.09 183.31 264.48 183.19 262.88 183.07 261.28 182.95 259.67 182.83 258.07 182.71 256.47 182.6 254.87 182.48 253.26 182.37 251.66 182.26 250.06 182.15 248.46 182.04 246.85 181.93 245.25 181.82 243.65 181.71 242.04 181.61 240.44 181.5 238.84 181.4 238.84 183.2 238.84 185 238.84 186.81 238.84 188.61 238.84 190.41 238.83 192.21 238.83 194.01 238.83 195.81 238.83 197.61 238.83 199.41 238.83 201.21 238.83 203 238.83 204.8 238.82 206.59 238.82 208.39 238.82 210.18 238.82 211.97 238.82 213.77 238.82 215.56 238.81 217.35 238.81 219.14 238.81 220.93 238.81 222.72 238.8 224.5 238.8 226.29 238.8 228.07 238.8 229.86 238.79 231.64 238.79 233.42 238.79 235.2 238.78 236.98 238.78 238.76 238.78 240.64 238.79 242.44 238.81 244.24 238.85 245.95 238.9 247.67 238.96 249.3 239.02 250.93 239.11 252.48 239.2 254.04 239.31 255.51 239.42 256.98 239.55 258.37 239.69 259.76 239.84 261.07 240 262.38 240.18 263.62 240.36 264.85 240.56 266 240.77 267.16 241 268.24 241.45 270.39 242 272.23 242.55 274.08 243.19 275.61 243.84 277.15 244.58 278.38 245.31 279.61 246.14 280.75 246.97 281.89 247.89 282.93 248.81 283.98 249.83 284.93 250.84 285.89 251.95 286.75 253.05 287.61 254.25 288.39 255.44 289.16 256.73 289.84 258.02 290.52 259.39 291.11 260.77 291.7 262.23 292.2 263.7 292.7 265.03 293.08 266.36 293.46 267.56 293.72 269.97 294.24 271.85 294.27 273.73 294.3 275.1 293.82 276.47 293.35 277.32 292.36 277.32 292.36 277.32 292.36 278.03 291.48 278.67 290.56 279.31 289.63 279.87 288.67 280.44 287.7 280.92 286.7 281.41 285.69 281.82 284.64 282.23 283.59 282.56 282.51 282.89 281.42 283.15 280.3 283.4 279.18 283.58 278.02 283.76 276.87 283.86 275.68 283.97 274.48 284.05 273.17 284.14 271.86 284.22 270.43 284.29 268.99 284.36 267.44 284.42 265.89 284.47 264.21 284.52 262.54 284.55 260.74 284.59 258.95 284.61 257.03 284.64 255.11 284.65 253.08 284.66 251.04 284.65 248.88 284.65 248.88 284.65 248.88 284.65 247.1 284.65 245.32 284.65 243.53 284.65 241.75 284.64 239.96 284.64 238.18 284.64 236.39 284.64 234.61 284.64 232.82 284.64 231.03 284.64 229.24 284.64 227.45 284.64 225.66 284.64 223.87 284.64 222.08 284.64 220.29 286.4 220.57 288.16 220.85 289.92 221.14 291.68 221.42 293.44 221.71 295.2 221.99 296.96 222.28 298.72 222.56 300.48 222.84 302.24 223.13 304 223.41 305.76 223.69 307.52 223.97 309.28 224.25 311.04 224.53 312.8 224.81 314.56 225.09 316.32 225.36 318.08 225.64 319.84 225.91 321.6 226.18 323.35 226.45 325.11 226.72 326.87 226.99 328.63 227.26 330.39 227.52 332.15 227.78 333.91 228.04 335.67 228.3 337.43 228.56 339.19 228.81 340.95 229.07 340.95 231.48 340.95 233.89 340.95 236.3 340.95 238.71 340.95 241.12 340.95 243.53 340.95 245.94 340.95 248.35 340.95 249.89 340.94 251.4 340.93 252.91 340.92 254.39 340.91 255.87 340.89 257.33 340.87 258.78 340.84 260.2 340.81 261.63 340.78 263.02 340.74 264.42 340.7 265.79 340.66 267.15 340.62 268.49 340.57 269.83 340.52 271.14 340.46 272.45 340.4 273.73 340.34 275.01 340.28 276.26 340.21 277.51 340.13 278.74 340.06 279.96 339.98 281.15 339.82 283.54 339.63 285.81 339.44 288.08 339.23 290.23 339.02 292.39 338.78 294.43 338.53 296.46 338.27 298.38 338 300.3 337.71 302.1 337.41 303.9 337.09 305.58 336.77 307.26 336.42 308.83 336.08 310.39 335.7 311.83 335.33 313.28 334.93 314.6 334.53 315.92 334.1 317.13 333.67 318.33 333.24 319.48 332.81 320.62 332.36 321.72 331.92 322.81 331.47 323.85 331.02 324.89 330.56 325.87 329.65 327.83 328.7 329.58 327.75 331.31 326.78 332.84 325.8 334.34 324.79 335.63 323.79 336.9 322.75 337.96 321.71 339 320.65 339.84 319.58 340.65 318.48 341.26 318.48 341.26 318.48 341.26 317.34 341.9 316.12 342.41 314.9 342.9 313.62 343.28 312.33 343.63 310.98 343.87 309.62 344.1 308.2 344.2 306.78 344.3 305.28 344.28 303.79 344.26 302.22 344.14 300.64 344.03 298.97 343.83 297.3 343.65 295.56 343.35 293.81 343.05 292 342.62 290.2 342.18 288.34 341.6 286.47 341.02 284.51 340.38 282.51 339.84 280.41 339.23 278.32 338.61 276.2 337.79 274.09 336.96 271.91 336.04 270.79 335.62 269.66 335.19 268.53 334.75 267.37 334.24 266.22 333.72 265.03 333.23 263.84 332.76 262.62 332.3 262.62 332.3 262.62 332.3M238.61 114.32Q238.61 115.47 238.61 116.62 238.62 117.78 238.62 118.93 238.62 120.08 238.62 121.23 238.62 122.38 238.62 123.53 238.62 124.68 238.63 125.83 238.63 126.98 238.63 128.12 238.63 129.27 238.63 130.42 238.63 131.56 238.63 132.71 238.63 133.85 238.63 135 238.63 136.14 238.63 137.28 238.63 138.43 238.63 139.57 238.63 140.71 238.63 141.85 238.63 142.99 238.63 144.14 238.63 145.28 238.63 146.42 238.64 147.56 238.64 148.7 238.64 149.83 238.64 150.97 240.07 150.96 241.51 150.94 242.95 150.92 244.39 150.91 245.83 150.89 247.26 150.88 248.7 150.86 250.14 150.85 251.58 150.84 253.02 150.82 254.46 150.81 255.89 150.8 257.33 150.79 258.77 150.78 260.21 150.78 261.65 150.77 263.09 150.77 264.53 150.76 265.96 150.76 267.4 150.75 268.84 150.75 270.28 150.75 271.72 150.75 273.16 150.75 274.59 150.76 276.03 150.76 277.47 150.77 278.91 150.77 280.35 150.78 281.79 150.79 283.22 150.8 284.66 150.81 284.66 149.49 284.67 148.18 284.67 146.86 284.67 145.54 284.67 144.22 284.67 142.89 284.67 141.57 284.67 140.25 284.68 138.93 284.68 137.61 284.68 136.28 284.68 134.96 284.68 133.64 284.69 132.31 284.69 130.99 284.69 129.66 284.69 128.34 284.7 127.01 284.7 125.68 284.7 124.35 284.7 123.03 284.71 121.7 284.71 120.37 284.71 119.04 284.72 117.71 284.72 116.37 284.72 115.04 284.73 113.71 284.73 112.37 284.73 111.04 284.74 109.71 284.74 108.37 284.75 106.66 284.74 105 284.73 103.35 284.7 101.76 284.67 100.16 284.63 98.63 284.58 97.09 284.52 95.62 284.46 94.15 284.39 92.74 284.31 91.32 284.22 89.97 284.12 88.62 284.01 87.33 283.9 86.04 283.78 84.81 283.65 83.59 283.51 82.42 283.36 81.26 283.2 80.15 282.88 77.95 282.49 75.99 282.1 74.04 281.64 72.34 281.18 70.64 280.66 69.2 280.13 67.76 279.46 66.53 278.79 65.3 277.98 64.29 277.17 63.28 276.22 62.49 275.27 61.7 274.18 61.12 273.09 60.56 271.86 60.21 270.64 59.87 269.27 59.74 267.91 59.63 266.41 59.73 264.9 59.84 263.27 60.17 263.27 60.17 263.27 60.17 263.04 60.22 263.04 60.22 263.04 60.22 263.04 60.22 261.63 60.51 260.29 60.93 258.96 61.35 257.71 61.89 256.46 62.43 255.3 63.1 254.14 63.76 253.05 64.55 251.98 65.33 250.98 66.23 249.98 67.13 249.07 68.14 248.16 69.14 247.33 70.26 246.5 71.37 245.75 72.6 245.01 73.82 244.34 75.14 243.68 76.47 243.09 77.89 242.51 79.32 242.01 80.84 241.51 82.37 241.08 83.99 240.66 85.62 240.32 87.34 239.98 89.06 239.72 90.89 239.46 92.71 239.28 94.64 239.1 96.56 239 98.59 239 98.59 239 98.59 238.9 100.12 238.82 101.87 238.75 103.62 238.7 105.59 238.68 106.57 238.66 107.61 238.64 108.65 238.63 109.74 238.62 110.83 238.61 111.97 238.61 113.12 238.61 114.32 238.61 114.32 238.61 114.32 238.61 114.32 238.61 114.32M521.95 420.62Q520.61 420.68 518.91 420.47 517.21 420.27 515.51 420.07 513.79 420 512.08 419.95 510.36 419.91 508.65 419.87 506.94 419.73 505.23 419.56 503.52 419.4 501.82 419.23 500.11 419.12 498.39 419.04 496.68 418.97 494.97 418.89 493.26 418.76 491.55 418.59 489.84 418.43 488.14 418.26 486.43 418.05 484.74 417.78 483.04 417.51 481.34 417.24 479.64 416.97 477.94 416.72 476.24 416.47 474.54 416.22 472.85 415.97 471.15 415.69 469.45 415.42 467.76 415.14 467.26 413.39 466.77 411.35 466.28 409.3 465.79 407.25 465.3 405.2 464.82 403.14 464.33 401.09 463.84 399.03 463.36 396.97 462.87 394.91 462.39 392.86 461.9 390.8 461.42 388.75 460.93 386.69 460.45 384.64 459.96 382.59 459.48 380.55 458.99 378.5 458.5 376.46 458.02 374.42 457.53 372.39 457.04 370.35 456.55 368.32 456.07 366.3 455.58 364.27 455.09 362.25 454.6 360.23 454.11 358.21 453.62 356.2 453.13 354.19 452.64 352.18 452.14 350.18 451.65 348.17 451.16 346.17 450.67 344.18 450.17 342.18 449.68 340.19 449.18 338.2 448.69 336.21 448.19 334.22 447.7 332.24 447.2 330.26 446.7 328.28 446.21 326.3 445.71 324.32 445.21 322.35 444.71 320.38 444.22 318.41 443.72 316.44 443.22 314.47 442.72 312.51 442.22 310.54 441.72 308.58 441.22 306.62 440.72 304.66 440.21 302.7 439.71 300.74 439.21 298.79 438.71 296.83 438.21 294.88 437.7 292.93 437.2 290.98 436.7 289.03 436.19 287.08 435.71 288.77 435.24 290.46 434.76 292.16 434.28 293.85 433.8 295.55 433.32 297.24 432.84 298.94 432.35 300.64 431.87 302.34 431.39 304.04 430.91 305.75 430.42 307.45 429.94 309.16 429.45 310.87 428.96 312.58 428.48 314.29 427.99 316 427.5 317.72 427.01 319.43 426.52 321.15 426.03 322.87 425.53 324.59 425.04 326.32 424.55 328.04 424.05 329.77 423.55 331.5 423.06 333.24 422.56 334.97 422.06 336.71 421.56 338.45 421.05 340.19 420.55 341.94 420.05 343.69 419.54 345.44 419.03 347.19 418.53 348.95 418.02 350.71 417.51 352.47 416.99 354.24 416.48 356.01 415.97 357.78 415.45 359.56 414.93 361.34 414.42 363.12 413.9 364.9 413.38 366.69 412.85 368.48 412.33 370.27 411.81 372.07 411.28 373.87 410.76 375.67 410.23 377.47 409.7 379.28 409.17 381.08 408.65 382.89 408.12 384.69 407.59 386.49 407.07 388.29 406.54 390.08 406.02 391.86 405.5 393.63 404.99 395.39 404.48 397.14 403.97 398.64 402.31 398.22 400.66 397.8 399.01 397.39 397.4 396.81 395.81 396.18 394.22 395.54 392.63 394.91 391.04 394.27 389.45 393.63 387.86 393 386.27 392.36 384.69 391.72 383.11 391.06 381.53 390.4 379.95 389.75 378.38 389.07 376.82 388.38 375.25 387.68 373.69 386.98 372.14 386.27 370.6 385.52 369.06 384.77 367.53 384.03 366 383.26 364.51 382.42 363.03 381.57 361.54 380.73 360.05 379.89 358.48 379.21 356.91 378.53 355.35 377.86 353.84 377.24 354.23 376.05 354.7 374.67 355.16 373.28 355.63 371.9 356.09 370.53 356.55 369.14 357.02 367.76 357.48 366.38 357.95 365 358.41 363.61 358.88 362.22 359.35 360.83 359.81 359.44 360.28 358.04 360.75 356.65 361.22 355.25 361.68 353.85 362.15 352.45 362.62 351.05 363.09 349.65 363.56 348.24 364.03 346.84 364.5 345.43 364.97 344.02 365.44 342.62 365.91 341.21 366.38 339.8 366.85 338.38 367.32 336.97 367.78 335.56 368.25 334.14 368.72 332.73 369.19 331.31 369.66 329.9 370.12 328.48 370.59 327.06 371.06 325.64 371.52 324.22 371.99 322.8 372.45 321.38 372.91 319.96 373.37 318.54 373.84 317.11 374.3 315.69 374.75 314.27 375.21 312.84 375.67 311.42 376.13 309.99 376.58 308.57 377.04 307.14 377.49 305.71 377.94 304.28 378.4 302.86 378.85 301.43 379.3 300 379.75 298.57 380.2 297.14 380.65 295.71 381.1 294.28 381.55 292.85 382 291.42 382.45 289.99 382.89 288.56 383.34 287.13 383.79 285.7 384.24 284.27 384.69 282.83 385.13 281.4 385.58 279.97 386.03 278.54 386.48 277.1 386.92 275.67 387.37 274.24 387.82 272.8 388.26 271.37 388.71 269.93 389.16 268.5 389.6 267.06 390.05 265.63 390.5 264.19 390.94 262.76 391.39 261.32 391.84 259.89 392.28 258.45 392.73 257.02 393.17 255.58 393.62 254.14 394.07 252.71 394.51 251.27 394.96 249.83 395.4 248.4 395.85 246.96 396.3 245.52 396.74 244.09 397.19 242.65 397.63 241.21 398.08 239.77 398.52 238.33 398.97 236.9 399.42 235.46 399.86 234.02 400.31 232.58 400.75 231.14 401.2 229.7 401.64 228.26 402.09 226.82 402.53 225.39 402.98 223.95 403.42 222.51 403.87 221.07 404.31 219.63 404.76 218.19 405.2 216.75 405.65 215.3 406.09 213.86 406.54 212.42 406.98 210.98 407.43 209.54 407.87 208.1 408.32 206.66 408.76 205.21 409.21 203.77 409.65 202.33 410.09 200.89 410.54 199.44 410.98 198 411.43 196.56 411.87 195.11 411.46 193.58 411.05 192.04 410.64 190.51 410.23 188.98 409.82 187.44 409.42 185.91 409.01 184.38 408.6 182.84 408.19 181.31 407.78 179.78 407.37 178.24 406.96 176.71 406.55 175.18 406.14 173.64 405.73 172.11 405.32 170.58 404.91 169.05 404.5 167.51 404.09 165.98 403.68 164.45 403.27 162.92 402.86 161.39 402.45 159.85 402.04 158.32 401.63 156.79 401.21 155.26 400.8 153.73 400.39 152.2 399.98 150.67 399.57 149.13 399.16 147.6 398.75 146.07 398.34 144.54 397.93 143.01 397.52 141.48 397.11 139.95 396.7 138.42 396.29 136.89 395.88 135.36 395.47 133.83 395.06 132.3 394.65 130.77 394.24 129.24 393.83 127.71 393.42 126.18 393.01 124.65 392.6 123.12 392.19 121.59 391.78 120.06 391.37 118.53 390.96 117 390.55 115.48 390.13 113.95 389.72 112.42 389.31 110.89 388.9 109.36 388.49 107.84 388.08 106.31 387.67 104.78 387.26 103.25 386.85 101.73 386.44 100.2 386.03 98.67 385.62 97.15 385.21 95.62 384.8 94.09 384.39 92.57 383.98 91.04 383.57 89.52 383.16 87.99 382.75 86.47 382.34 84.94 381.93 83.42 381.52 81.89 381.11 80.37 380.7 78.85 380.29 77.32 379.88 75.8 379.46 74.28 379.05 72.76 378.64 71.24 378.23 69.71 377.82 68.19 377.41 66.67 377 65.15 376.59 63.63 376.18 62.11 375.77 60.6 375.36 59.08 374.95 57.56 374.53 56.04 374.12 54.53 373.71 53.01 373.3 51.5 372.89 49.98 372.48 48.47 372.07 46.95 371.65 45.44 371.24 43.93 370.83 42.42 370.42 40.91 370.01 39.4 369.59 37.89 369.18 36.38 368.77 34.87 368.36 33.36 367.94 31.86 367.53 30.35 367.12 28.85 366.71 27.34 366.29 25.84 365.88 24.34 365.47 22.84 365.05 21.34 364.64 19.84 364.23 18.34 363.81 16.84 363.4 15.35 362.98 13.85 362.57 12.35 362.16 10.86 361.74 9.36 361.33 7.86 360.91 6.36 360.5 4.86 360.09 3.34 359.68 1.82 359.27 0.27 360.86 0.3 362.45 0.36 364.04 0.42 365.63 0.49 367.22 0.56 368.81 0.65 370.39 0.73 371.98 0.82 373.57 0.93 375.16 1.04 376.74 1.15 378.33 1.27 379.91 1.41 381.5 1.54 383.08 1.68 384.67 1.84 386.25 2 387.83 2.16 389.41 2.34 390.99 2.52 392.57 2.71 394.15 2.9 395.73 3.11 397.3 3.32 398.88 3.53 400.46 3.76 402.03 3.99 403.6 4.23 405.17 4.47 406.74 4.73 408.31 4.98 409.88 5.24 410.37 7.24 410.85 9.24 411.33 11.24 411.81 13.26 412.29 15.27 412.76 17.28 413.24 19.3 413.72 21.31 414.2 23.33 414.68 25.34 415.16 27.34 415.63 29.35 416.11 31.35 416.59 33.35 417.07 35.35 417.56 37.35 418.04 39.34 418.52 41.32 419 43.31 419.49 45.29 419.97 47.27 420.45 49.24 420.94 51.21 421.43 53.18 421.91 55.14 422.4 57.11 422.89 59.07 423.38 61.02 423.87 62.97 424.36 64.92 424.85 66.87 425.34 68.81 425.83 70.76 426.33 72.69 426.82 74.63 427.31 76.56 427.81 78.5 428.3 80.43 428.8 82.35 429.3 84.28 429.8 86.2 430.29 88.12 430.79 90.04 431.29 91.95 431.79 93.87 432.29 95.78 432.79 97.69 433.29 99.6 433.8 101.5 434.3 103.41 434.8 105.31 435.3 107.21 435.81 109.11 436.31 111.01 436.81 112.91 437.32 114.8 437.82 116.69 438.33 118.59 438.83 120.48 439.34 122.37 439.85 124.26 440.35 126.14 440.86 128.03 441.37 129.92 441.8 128.28 442.24 126.64 442.68 125 443.11 123.36 443.55 121.72 443.99 120.07 444.42 118.43 444.86 116.78 445.3 115.14 445.73 113.49 446.17 111.84 446.6 110.19 447.04 108.54 447.48 106.88 447.91 105.23 448.35 103.57 448.78 101.91 449.22 100.25 449.65 98.58 450.09 96.92 450.53 95.25 450.96 93.58 451.4 91.91 451.83 90.24 452.27 88.56 452.71 86.89 453.14 85.21 453.58 83.52 454.01 81.84 454.45 80.15 454.89 78.46 455.33 76.77 455.76 75.08 456.2 73.38 456.64 71.68 457.08 69.97 457.52 68.27 457.96 66.56 458.4 64.85 458.84 63.13 459.28 61.41 459.72 59.69 460.17 57.96 460.61 56.23 461.06 54.5 461.5 52.77 461.95 51.03 462.4 49.29 462.85 47.54 463.29 45.79 463.75 44.04 464.2 42.28 464.65 40.53 465.1 38.77 465.56 37 466.02 35.24 466.47 33.47 466.93 31.7 467.39 29.93 467.85 28.17 468.3 26.4 468.76 24.64 469.22 22.88 469.67 21.14 471.15 21.69 472.64 22.24 474.12 22.79 475.6 23.36 477.08 23.93 478.55 24.51 480.02 25.1 481.49 25.69 482.96 26.29 484.42 26.89 485.88 27.51 487.34 28.13 488.8 28.74 490.25 29.38 491.7 30.02 493.14 30.66 494.59 31.31 496.03 31.98 497.46 32.64 498.9 33.3 500.33 33.99 501.76 34.68 503.18 35.36 504.61 36.06 506.02 36.77 507.44 37.48 508.86 38.19 510.26 38.91 511.67 39.65 513.07 40.38 514.47 41.12 515.86 41.87 515.48 43.26 515.12 44.62 514.76 45.96 514.41 47.3 514.06 48.63 513.71 49.97 513.36 51.3 513.01 52.63 512.66 53.96 512.31 55.3 511.96 56.63 511.61 57.97 511.26 59.31 510.91 60.64 510.56 61.98 510.2 63.32 509.85 64.66 509.5 66 509.14 67.35 508.79 68.69 508.43 70.03 508.07 71.38 507.71 72.73 507.35 74.07 506.99 75.42 506.63 76.77 506.27 78.12 505.91 79.47 505.54 80.82 505.18 82.17 504.81 83.52 504.45 84.88 504.08 86.23 503.71 87.58 503.34 88.94 502.97 90.29 502.59 91.65 502.22 93.01 501.84 94.36 501.46 95.72 501.08 97.08 500.7 98.44 500.32 99.8 499.93 101.16 499.55 102.52 499.16 103.88 498.77 105.24 498.37 106.6 497.98 107.96 497.59 109.32 497.19 110.68 496.79 112.05 496.39 113.41 495.99 114.77 495.58 116.13 495.18 117.5 494.77 118.86 494.37 120.23 493.96 121.59 493.55 122.96 493.14 124.32 492.73 125.69 492.32 127.05 491.91 128.42 491.5 129.78 491.08 131.15 490.67 132.52 490.26 133.88 489.84 135.25 489.43 136.62 489.01 137.99 488.6 139.35 488.18 140.72 487.77 142.09 487.35 143.46 486.93 144.82 486.51 146.19 486.1 147.56 485.68 148.93 485.26 150.3 484.84 151.67 484.43 153.03 484.01 154.4 483.59 155.77 483.17 157.14 482.75 158.51 482.33 159.88 481.91 161.25 481.49 162.62 481.07 163.99 480.65 165.36 480.23 166.73 479.81 168.1 479.39 169.47 478.97 170.84 478.55 172.21 478.13 173.58 477.71 174.95 477.29 176.32 476.86 177.69 476.44 179.06 476.02 180.43 475.6 181.8 475.18 183.17 474.76 184.54 474.33 185.91 473.91 187.28 473.49 188.66 473.07 190.03 472.65 191.4 472.22 192.77 471.8 194.14 471.38 195.51 470.96 196.89 470.53 198.26 470.11 199.63 469.69 201 469.26 202.37 468.84 203.75 468.42 205.12 467.99 206.49 467.57 207.87 467.15 209.24 466.72 210.61 466.3 211.98 465.87 213.36 465.45 214.73 465.03 216.11 465.47 217.73 465.91 219.34 466.36 220.96 466.8 222.58 467.24 224.2 467.69 225.82 468.13 227.44 468.58 229.06 469.02 230.67 469.46 232.29 469.91 233.91 470.35 235.53 470.79 237.15 471.24 238.76 471.68 240.38 472.12 242 472.57 243.61 473.01 245.23 473.46 246.85 473.9 248.46 474.34 250.08 474.79 251.7 475.23 253.31 475.67 254.93 476.12 256.54 476.56 258.16 477 259.78 477.45 261.39 477.89 263.01 478.34 264.62 478.78 266.24 479.22 267.85 479.67 269.47 480.11 271.08 480.55 272.7 481 274.31 481.44 275.93 481.89 277.54 482.33 279.15 482.77 280.77 483.22 282.38 483.66 283.99 484.11 285.61 484.55 287.22 484.99 288.83 485.44 290.45 485.88 292.06 486.33 293.67 486.77 295.28 487.22 296.9 487.66 298.51 488.1 300.12 488.55 301.73 488.99 303.34 489.44 304.96 489.88 306.57 490.33 308.18 490.77 309.79 491.22 311.4 491.66 313.01 492.11 314.62 492.55 316.23 493 317.84 493.45 319.45 493.89 321.06 494.34 322.66 494.78 324.27 495.23 325.88 495.68 327.49 496.12 329.09 496.57 330.7 497.01 332.31 497.46 333.91 497.91 335.52 498.35 337.12 498.8 338.73 499.25 340.33 499.7 341.94 500.14 343.54 500.59 345.14 501.04 346.75 501.49 348.35 501.93 349.95 502.38 351.55 502.83 353.15 503.28 354.75 503.73 356.35 504.18 357.95 504.63 359.55 505.08 361.14 505.53 362.74 505.98 364.34 506.43 365.93 506.88 367.53 507.33 369.12 507.78 370.71 508.23 372.31 508.68 373.9 509.13 375.49 509.58 377.08 510.03 378.67 510.49 380.25 510.94 381.84 511.39 383.43 511.84 385.01 512.3 386.59 512.75 388.18 513.2 389.76 513.66 391.34 514.11 392.92 514.56 394.49 515.02 396.07 515.47 397.65 515.93 399.22 516.38 400.79 516.84 402.36 517.29 403.93 517.75 405.5 518.21 407.07 518.66 408.63 519.12 410.2 519.58 411.76 520.03 413.32 520.49 414.88 520.95 416.45 521.41 418.01 521.87 419.58 521.95 420.62 521.95 420.62 521.95 420.62M695.19 404.62Q691.67 405.2 687.17 405.76 682.66 406.34 678.15 406.91 675.28 407.32 673.66 407.6 672.06 407.88 670.45 408.16 668.85 408.44 667.24 408.7 665.64 408.97 664.04 409.24 662.44 409.5 660.84 409.78 659.25 410.07 657.65 410.35 656.05 410.63 654.46 410.91 652.86 411.19 651.26 411.47 649.67 411.74 648.07 412 646.46 412.16 644.85 412.32 643.23 412.48 641.62 412.64 640.02 412.88 638.42 413.12 636.82 413.37 635.22 413.62 633.62 413.88 632.03 414.16 629.55 414.59 627.16 415.02 624.75 415.3 622.46 415.49 620.17 415.65 617.99 415.75 615.81 415.86 613.74 415.92 611.67 415.98 609.7 415.99 607.73 416 605.87 415.96 604.01 415.92 602.25 415.83 600.49 415.74 598.84 415.6 597.19 415.46 595.64 415.26 594.09 415.04 592.65 414.76 591.2 414.48 589.86 414.13 588.52 413.78 587.28 413.39 584.8 412.59 582.74 411.61 580.67 410.63 579.02 409.47 577.37 408.3 575.93 406.87 574.49 405.43 573.27 403.73 572.65 402.88 572.09 401.96 571.52 401.04 571.01 400.06 570.5 399.07 570.04 398.02 569.58 396.96 569.17 395.85 568.76 394.73 568.4 393.55 568.04 392.36 567.73 391.12 567.43 389.87 567.17 388.56 566.92 387.25 566.72 385.88 566.52 384.51 566.37 383.08 566.22 381.64 566.13 380.15 566.04 378.66 566 377.11 565.96 375.57 565.98 373.96 565.98 373.96 565.98 373.96 566 372.37 566.01 370.78 566.03 369.19 566.04 367.6 566.05 366.02 566.07 364.43 566.08 362.84 566.09 361.26 566.1 359.67 566.11 358.09 566.12 356.51 566.13 354.92 566.13 353.34 566.14 351.76 566.15 350.18 566.16 348.6 566.16 347.03 566.17 345.45 566.18 343.87 566.18 342.29 566.19 340.72 566.2 339.14 566.2 337.57 566.21 335.99 566.21 334.42 566.21 332.85 566.22 331.27 566.22 329.7 566.22 328.13 566.23 326.56 566.23 324.99 566.23 323.42 566.23 321.85 566.23 320.28 566.23 318.71 566.23 317.14 566.23 315.57 566.23 314 566.22 312.43 566.22 310.86 566.22 309.3 566.21 307.73 566.21 306.16 566.2 304.6 566.2 303.03 566.19 301.46 566.19 299.9 566.18 298.33 566.17 296.77 566.16 295.2 566.15 293.64 566.15 292.07 566.14 290.51 566.13 288.94 566.11 287.38 566.1 285.81 566.09 284.25 566.08 282.69 566.07 281.12 566.05 279.56 566.04 278 566.02 276.43 566.01 274.87 565.99 273.31 565.98 271.74 565.96 270.18 565.95 268.62 565.93 267.06 565.91 265.49 565.89 263.93 565.87 262.37 565.85 260.81 565.83 259.25 565.81 257.68 565.79 256.12 565.77 254.56 565.75 253 565.73 251.44 565.71 249.87 565.68 248.31 565.66 246.75 565.64 245.19 565.61 243.63 565.59 242.06 565.57 240.5 565.54 238.94 565.51 237.38 565.49 235.82 565.46 234.25 565.44 232.69 565.41 231.13 565.38 229.57 565.35 228 565.33 226.44 565.3 224.88 565.27 223.32 565.24 221.75 565.21 220.19 565.18 218.63 565.15 217.07 565.12 215.5 565.09 213.94 565.06 212.37 565.03 210.81 565 209.25 564.97 207.68 564.94 206.12 564.91 204.55 564.87 202.99 564.84 201.42 564.81 199.86 564.78 198.29 564.75 196.73 564.71 195.16 564.68 193.59 564.65 192.02 564.62 190.46 564.59 188.89 564.55 187.32 564.52 185.75 564.49 184.18 564.46 182.61 564.42 181.04 564.39 179.47 564.36 177.9 564.33 176.33 564.3 174.75 564.27 173.18 562.03 171.73 559.79 170.28 557.55 168.84 555.3 167.4 553.06 165.97 550.82 164.54 548.57 163.12 546.33 161.71 544.08 160.3 541.83 158.9 539.58 157.51 537.33 156.12 535.08 154.74 532.83 153.37 530.58 152 528.32 150.64 528.32 149.38 528.32 148.12 528.32 146.86 528.32 145.59 528.32 144.33 528.32 143.07 528.32 141.81 528.32 140.55 528.32 139.29 528.32 138.03 528.32 136.77 528.32 135.51 528.32 134.25 528.32 132.98 528.32 131.72 528.32 130.46 528.32 129.2 528.32 127.94 528.32 126.68 528.32 125.42 528.32 124.16 528.32 122.9 528.32 121.63 528.32 120.37 528.32 119.11 528.32 117.85 528.32 116.59 528.32 115.33 528.32 114.07 528.32 112.81 528.32 111.55 528.32 110.29 530.55 111.81 532.78 113.35 535.01 114.9 537.23 116.45 539.46 118.02 541.68 119.6 543.9 121.19 546.12 122.79 548.33 124.4 550.54 126.03 552.75 127.66 554.96 129.3 557.16 130.95 559.37 132.61 561.56 134.28 563.76 135.96 563.75 134.17 563.75 132.37 563.75 130.58 563.76 128.77 563.77 126.97 563.78 125.16 563.79 123.35 563.82 121.53 563.84 119.7 563.88 117.88 563.92 116.04 563.96 114.2 564.01 112.36 564.07 110.51 564.14 108.65 564.22 106.78 564.31 104.91 564.41 103.02 564.52 101.13 564.65 99.23 564.79 97.31 564.94 95.39 565.11 93.45 565.3 91.51 565.5 89.55 565.72 87.58 565.96 85.6 566.22 83.61 566.49 81.62 566.77 79.64 567.05 77.67 567.3 75.74 569.82 77.75 572.31 79.78 574.78 81.84 577.24 83.91 579.67 86.02 582.09 88.14 584.48 90.28 586.86 92.45 589.22 94.63 591.55 96.85 593.88 99.07 596.17 101.33 598.44 103.6 600.7 105.89 602.93 108.21 605.15 110.54 607.33 112.9 609.51 115.27 611.65 117.66 613.78 120.08 615.89 122.51 617.96 124.96 620.03 127.43 622.06 129.92 624.07 132.43 626.07 134.96 628.03 137.5 629.98 140.06 631.89 142.64 633.79 145.24 635.66 147.86 637.51 150.49 637.26 152.28 636.99 154.07 636.72 155.85 636.47 157.61 636.25 159.34 636.05 161.04 635.88 162.71 635.74 164.35 635.63 165.96 635.55 167.54 635.5 169.09 635.47 170.63 635.47 172.13 635.49 173.62 635.52 175.09 635.58 176.54 635.65 177.97 635.73 179.39 635.83 180.8 635.95 182.19 636.07 183.57 636.2 184.94 636.34 186.31 636.49 187.66 636.65 189.01 636.81 190.35 636.98 191.69 637.15 193.02 637.33 194.34 637.51 195.66 637.69 196.98 637.88 198.3 640.39 200.48 642.9 202.66 645.41 204.82 647.93 206.98 650.46 209.13 652.98 211.27 655.52 213.4 658.05 215.51 660.6 217.61 663.15 219.7 665.71 221.77 668.28 223.82 670.85 225.86 673.43 227.87 676.01 229.87 678.6 231.85 678.83 232.53 679.07 233.2 679.3 233.87 679.53 234.54 679.76 235.22 679.99 235.89 680.21 236.57 680.43 237.24 680.66 237.92 680.88 238.59 681.1 239.27 681.32 239.95 681.54 240.62 681.76 241.3 681.97 241.98 682.18 242.66 682.39 243.34 682.6 244.02 682.81 244.7 683.03 245.38 683.23 246.06 683.44 246.74 683.64 247.42 683.84 248.1 684.04 248.78 684.24 249.47 684.44 250.15 684.64 250.83 684.84 251.52 685.03 252.2 685.22 252.89 685.41 253.57 682.69 251.88 679.96 250.18 677.23 248.46 674.5 246.75 671.78 245.02 669.05 243.28 666.33 241.54 663.61 239.78 660.9 238.02 658.18 236.26 655.47 234.48 652.77 232.7 650.07 230.92 647.37 229.12 644.67 227.33 641.97 225.53 642.14 226.63 642.3 227.73 642.46 228.84 642.62 229.94 642.77 231.04 642.93 232.15 643.09 233.25 643.24 234.36 643.39 235.46 643.55 236.57 643.7 237.67 643.85 238.77 643.99 239.88 644.14 240.98 644.29 242.09 644.43 243.19 644.57 244.3 644.71 245.4 644.85 246.51 644.99 247.62 645.13 248.72 645.26 249.83 645.4 250.94 645.53 252.04 645.66 253.15 645.79 254.26 645.92 255.36 646.04 256.47 646.17 257.58 646.29 258.69 646.41 259.8 646.53 260.91 646.65 262.01 646.77 263.12 646.88 264.23 647 265.34 647.11 266.45 647.22 267.56 647.33 268.67 647.43 269.78 647.54 270.89 647.64 272 647.74 273.12 647.84 274.23 647.94 275.34 648.04 276.45 648.13 277.56 648.23 278.67 648.32 279.79 648.41 280.9 648.5 282.01 648.59 283.13 648.67 284.24 648.75 285.35 648.83 286.47 648.91 287.58 648.99 288.69 649.07 289.81 649.14 290.92 649.22 292.04 649.29 293.15 649.36 294.27 649.42 295.38 649.49 296.5 649.55 297.61 649.61 298.73 649.67 299.84 649.73 300.96 649.79 302.07 649.84 303.19 649.9 304.31 649.95 305.42 650 306.54 650.04 307.66 650.09 308.77 650.13 309.89 650.17 311.01 650.21 312.12 650.25 313.24 650.29 314.36 650.32 315.47 650.35 316.59 650.38 317.71 650.41 318.83 650.44 319.95 650.46 321.06 650.48 322.18 650.5 323.3 650.52 324.42 650.54 325.54 650.55 326.66 650.56 327.77 650.57 328.89 650.58 330.01 650.59 331.13 650.59 332.25 650.59 333.37 650.59 334.49 650.59 335.61 650.58 336.73 650.58 337.85 650.57 338.97 650.55 340.09 650.54 341.21 650.52 342.33 650.5 343.45 650.48 344.57 650.45 345.69 650.43 346.81 650.4 347.93 650.37 349.06 650.33 350.18 650.29 351.3 650.25 352.43 650.21 353.55 650.16 354.67 650.11 355.8 650.06 356.92 650 358.05 649.94 359.18 649.87 360.3 649.81 361.43 649.73 362.56 649.66 363.69 649.58 364.82 649.5 365.96 649.41 367.09 649.31 368.22 649.23 369.19 649.29 370.07 649.35 370.95 649.55 371.74 649.95 373.33 650.94 374.58 651.92 375.82 653.5 376.71 655.08 377.59 657.27 378.12 659.46 378.65 663.11 379.04 664.94 379.23 667.14 379.4 669.35 379.57 671.93 379.72 674.52 379.88 677.49 380.02 680.46 380.18 683.82 380.33 685.5 380.41 687.28 380.5 689.06 380.6 690.93 380.7 692.8 380.8 694.76 380.92 696.72 381.04 698.46 381.15 698.46 381.15 698.46 381.15 698.4 381.9 698.33 382.64 698.26 383.38 698.19 384.12 698.11 384.86 698.04 385.6 697.96 386.35 697.88 387.09 697.81 387.83 697.73 388.57 697.64 389.31 697.56 390.05 697.47 390.79 697.38 391.53 697.29 392.27 697.2 393.01 697.12 393.75 697.02 394.49 696.92 395.23 696.82 395.97 696.72 396.7 696.62 397.44 696.52 398.18 696.41 398.92 696.31 399.66 696.19 400.4 696.08 401.13 695.96 401.87 695.84 402.61 695.72 403.35 695.61 404.08 695.19 404.62 695.19 404.62 695.19 404.62"></path><path fill="#c88087" d="M139.62 629.63Q138.61 628.86 137.6 628.08 136.59 627.31 135.58 626.54 134.58 625.76 133.59 624.97 132.59 624.18 131.59 623.4 130.6 622.6 129.62 621.8 128.64 621 127.65 620.2 126.67 619.39 125.7 618.57 124.73 617.76 123.76 616.94 122.78 616.12 121.82 615.29 120.87 614.46 119.91 613.62 118.95 612.79 118 611.95 117.05 611.1 116.11 610.26 115.16 609.41 114.22 608.56 113.28 607.7 112.35 606.83 111.42 605.97 110.49 605.11 109.57 604.23 108.65 603.36 108.54 601.66 108.46 599.75 108.37 597.82 108.3 595.89 108.22 593.96 108.15 592.03 108.08 590.09 108.01 588.15 107.94 586.21 107.86 584.27 107.79 582.33 107.71 580.39 107.63 578.46 107.55 576.52 107.47 574.59 107.38 572.66 107.29 570.74 107.2 568.81 107.1 566.89 107 564.98 106.9 563.06 106.79 561.15 106.68 559.24 106.57 557.34 106.45 555.44 106.33 553.54 106.21 551.65 106.08 549.75 105.95 547.87 105.82 545.98 105.69 544.1 105.55 542.23 105.41 540.36 105.26 538.49 105.11 536.62 104.96 534.76 104.81 532.9 104.66 531.05 104.5 529.2 104.34 527.35 104.18 525.5 104.01 523.66 103.84 521.83 103.67 519.99 103.5 518.16 103.33 516.33 103.15 514.51 102.97 512.69 102.79 510.87 102.61 509.06 102.43 507.25 102.24 505.44 102.05 503.63 101.86 501.83 101.67 500.03 101.48 498.24 101.29 496.44 101.09 494.65 100.9 492.87 100.7 491.08 100.5 489.3 100.3 487.52 100.1 485.75 99.9 483.98 99.7 482.21 99.49 480.44 99.29 478.67 99.08 476.91 98.88 475.15 98.67 473.4 98.46 471.64 98.25 469.89 98.04 468.14 97.83 466.4 97.62 464.65 97.41 462.91 97.2 461.17 96.99 459.43 96.78 457.7 96.56 455.97 96.35 454.24 96.14 452.51 95.92 450.79 95.71 449.06 95.49 447.34 95.28 445.63 95.06 443.91 94.85 442.2 94.64 440.48 94.42 438.77 94.21 437.07 93.99 435.36 93.78 433.66 93.56 431.95 93.35 430.25 93.13 428.56 92.92 426.86 92.7 425.17 92.49 423.48 92.27 421.78 92.06 420.1 91.85 418.41 91.63 416.72 91.42 415.04 91.21 413.36 91 411.68 90.78 410 90.57 408.33 90.36 406.65 90.15 404.98 89.94 403.31 89.73 401.64 89.52 399.97 89.31 398.3 89.1 396.63 88.89 394.97 88.69 393.31 88.48 391.64 88.27 389.98 88.06 388.32 87.86 386.66 87.65 385.01 87.45 383.35 87.25 381.7 87.04 380.04 86.84 378.39 86.64 376.74 86.44 375.09 86.29 376.66 86.15 378.23 86 379.8 85.86 381.36 85.72 382.93 85.58 384.48 85.44 386.04 85.3 387.59 85.16 389.15 85.02 390.69 84.89 392.24 84.75 393.78 84.62 395.32 84.48 396.86 84.35 398.39 84.22 399.92 84.08 401.45 83.95 402.98 83.82 404.5 83.69 406.02 83.57 407.54 83.44 409.05 83.31 410.57 83.19 412.08 83.07 413.58 82.94 415.09 82.82 416.59 82.7 418.09 82.58 419.59 82.46 421.08 82.34 422.58 82.23 424.07 82.11 425.55 82 427.04 81.89 428.52 81.77 430 81.66 431.48 81.55 432.96 81.45 434.43 81.34 435.9 81.23 437.37 81.13 438.84 81.02 440.3 80.92 441.76 80.82 443.23 80.72 444.68 80.62 446.14 80.52 447.59 80.42 449.05 80.33 450.5 80.23 451.95 80.14 453.39 80.05 454.84 79.95 456.28 79.86 457.72 79.77 459.16 79.68 460.6 79.59 462.03 79.51 463.47 79.42 464.9 79.34 466.33 79.25 467.76 79.17 469.19 79.08 470.62 79 472.04 78.92 473.46 78.84 474.89 78.76 476.31 78.68 477.73 78.6 479.15 78.52 480.56 78.44 481.98 78.36 483.4 78.28 484.81 78.2 486.23 78.12 487.64 78.05 489.05 77.97 490.47 77.89 491.88 77.81 493.29 77.73 494.7 77.65 496.11 77.57 497.52 77.49 498.93 77.41 500.34 77.33 501.76 77.25 503.17 77.17 504.58 77.08 505.99 77 507.4 76.91 508.82 76.82 510.23 76.73 511.65 76.64 513.07 76.55 514.48 76.45 515.9 76.35 517.33 76.26 518.75 76.15 520.17 76.05 521.6 75.94 523.03 75.83 524.46 75.72 525.89 75.6 527.33 75.49 528.77 75.36 530.21 75.24 531.66 75.11 533.1 74.98 534.55 74.84 536.01 74.7 537.47 74.56 538.93 74.41 540.39 74.26 541.86 74.11 543.33 73.95 544.81 73.79 546.29 73.63 547.77 73.46 549.25 73.29 550.74 73.12 552.23 72.94 553.72 72.77 555.22 72.6 556.71 72.42 558.21 72.25 559.7 72.09 561.19 71.94 562.48 71.2 561.51 70.45 560.53 69.72 559.55 68.99 558.57 68.26 557.58 67.53 556.6 66.8 555.61 66.09 554.62 65.37 553.62 64.66 552.62 63.94 551.63 63.24 550.62 62.54 549.61 61.84 548.61 61.15 547.6 60.45 546.59 59.77 545.57 59.08 544.55 58.4 543.53 57.72 542.51 57.05 541.49 56.38 540.46 55.71 539.43 55.05 538.4 54.38 537.37 53.73 536.33 53.08 535.29 52.43 534.25 51.78 533.21 51.14 532.16 50.51 531.11 49.87 530.06 49.78 529.08 49.69 527.91 49.6 526.75 49.51 525.6 49.41 524.45 49.31 523.31 49.21 522.17 49.09 521.05 48.98 519.93 48.85 518.81 48.72 517.71 48.59 516.61 48.44 515.53 48.29 514.45 48.14 513.37 47.98 512.31 47.81 511.25 47.64 510.2 47.46 509.16 47.27 508.12 47.08 507.09 46.88 506.07 46.68 505.05 46.47 504.04 46.26 503.04 46.05 502.04 45.82 501.05 45.6 500.06 45.37 499.08 45.14 498.1 44.9 497.13 44.66 496.16 44.42 495.2 44.17 494.24 43.92 493.28 43.67 492.33 43.41 491.39 43.15 490.44 42.89 489.5 42.63 488.56 42.37 487.63 42.1 486.7 41.83 485.77 41.57 484.84 41.29 483.92 41.02 483 40.75 482.08 40.47 481.17 40.2 480.25 39.92 479.34 39.64 478.43 39.36 477.52 39.09 476.62 38.81 475.71 38.52 474.81 38.24 473.91 37.96 473.01 37.68 472.11 37.4 471.22 37.12 470.32 36.83 469.43 36.55 468.54 36.27 467.65 35.99 466.76 35.7 465.87 35.42 464.99 35.14 464.1 34.86 463.21 34.58 462.33 34.29 461.45 34.01 460.57 33.73 459.69 33.45 458.81 33.17 457.93 32.89 457.05 32.61 456.17 32.33 455.3 32.06 454.42 31.78 453.55 31.5 452.67 31.22 451.8 30.95 450.93 30.67 450.05 30.4 449.18 30.13 448.31 29.85 447.44 29.58 446.57 29.31 445.7 29.04 444.84 28.77 443.97 28.5 443.1 28.24 442.23 27.97 441.37 27.7 440.5 27.44 439.64 27.17 438.77 26.91 437.91 26.65 437.05 26.39 436.18 26.13 435.32 25.87 434.46 25.61 433.6 25.35 432.74 25.1 431.88 24.84 431.02 24.59 430.16 24.34 429.3 24.09 428.44 23.84 427.58 23.59 426.73 23.34 425.87 23.09 425.01 22.85 424.16 22.6 423.3 22.36 422.44 22.12 421.59 21.88 420.73 21.64 419.88 21.4 419.03 21.16 418.17 20.93 417.32 20.69 416.47 20.46 415.62 20.23 414.76 19.99 413.91 19.77 413.06 19.54 412.21 19.31 411.36 19.09 410.51 18.86 409.66 18.64 408.81 18.42 407.96 18.2 407.12 17.98 406.27 17.76 405.42 17.54 404.57 17.33 403.73 17.12 402.88 16.9 402.03 16.69 401.19 16.49 400.34 16.28 399.5 16.07 398.65 15.87 397.81 15.66 396.97 15.46 396.12 15.26 395.28 15.06 394.44 14.86 393.6 14.67 392.76 14.47 391.92 14.28 391.07 14.09 390.23 13.9 389.39 13.71 388.56 13.52 387.72 13.34 386.88 13.15 386.04 12.97 385.2 12.79 384.36 12.61 383.53 12.43 382.69 12.25 381.86 12.08 381.02 11.9 380.18 11.73 379.35 11.56 378.52 11.39 377.68 11.22 376.85 11.06 376.02 10.89 375.18 10.73 374.35 10.57 373.52 10.41 372.69 10.25 371.86 10.09 371.03 9.94 370.2 9.78 369.37 9.63 368.54 9.48 367.71 9.33 366.88 9.18 366.05 9.04 365.23 8.89 364.4 8.75 363.57 8.61 362.75 8.47 361.92 8.33 361.1 8.2 360.27 8.06 359.45 7.93 358.63 7.8 357.8 7.67 356.98 7.54 356.16 7.41 355.34 7.29 354.52 7.16 353.7 7.04 352.88 6.92 352.06 6.8 351.24 6.69 350.42 6.57 349.6 6.46 348.78 6.34 347.97 6.23 347.15 6.13 346.34 6.02 345.52 5.91 344.7 5.81 343.89 5.71 343.08 5.61 342.26 5.51 341.45 5.41 340.64 5.31 339.82 5.22 339.01 5.13 338.2 5.04 337.39 4.95 336.58 4.86 335.77 4.77 334.96 4.69 334.15 4.61 333.34 4.53 332.53 4.45 331.72 4.37 330.91 4.3 330.11 4.22 329.3 4.15 328.5 4.08 327.69 4.01 326.89 3.95 326.08 3.88 325.28 3.82 324.47 3.75 323.67 3.69 322.87 3.63 322.07 3.58 321.27 3.52 320.47 3.47 319.67 3.42 318.87 3.37 318.07 3.32 317.27 3.27 316.47 3.23 315.68 3.19 314.88 3.14 314.09 3.1 313.3 3.06 312.5 3.02 311.71 2.99 310.92 2.95 310.13 2.92 309.35 2.89 308.56 2.86 307.78 2.82 307 2.79 306.21 3.88 305.98 4.98 305.74 6.07 305.49 7.16 305.25 8.26 305.01 9.35 304.77 10.45 304.53 11.44 304.44 12.41 304.38 13.38 304.33 14.35 304.27 15.31 304.22 16.28 304.17 17.25 304.11 18.22 304.09 19.2 304.09 20.17 304.09 21.14 304.09 22.11 304.09 23.08 304.09 24.05 304.09 25.03 304.09 26 304.09 26.97 304.09 27.94 304.09 28.91 304.09 29.88 304.09 30.86 304.09 31.83 304.09 32.8 304.09 33.77 304.09 34.74 304.09 34.89 305.85 35.03 307.6 35.17 309.35 35.31 311.08 35.45 312.81 35.58 314.52 35.72 316.22 35.86 317.92 35.99 319.6 36.13 321.28 36.26 322.94 36.4 324.6 36.54 326.25 36.67 327.88 36.81 329.52 36.96 331.14 37.1 332.76 37.25 334.37 37.39 335.98 37.54 337.58 37.69 339.17 37.85 340.76 38.01 342.35 38.17 343.93 38.33 345.51 38.49 347.09 38.66 348.66 38.83 350.23 39 351.8 39.18 353.37 39.36 354.94 39.54 356.5 39.73 358.06 39.92 359.62 40.11 361.18 40.3 362.74 40.5 364.3 40.7 365.86 40.9 367.42 41.11 368.98 41.32 370.54 41.53 372.1 41.74 373.66 41.96 375.21 42.18 376.77 42.41 378.33 42.63 379.89 42.86 381.46 43.1 383.02 43.33 384.58 43.57 386.14 43.81 387.71 44.06 389.27 44.31 390.84 44.56 392.41 44.81 393.98 45.06 395.55 45.32 397.12 45.58 398.69 45.85 400.26 46.11 401.84 46.38 403.42 46.66 404.99 46.93 406.57 47.19 408.17 47.45 409.78 47.72 411.38 47.99 412.98 48.26 414.59 48.53 416.2 48.8 417.81 49.08 419.42 49.36 421.03 49.64 422.64 49.93 424.26 50.21 425.88 50.5 427.49 50.79 429.12 51.09 430.74 51.38 432.36 51.68 433.99 51.97 435.62 52.27 437.25 52.57 438.88 52.88 440.52 53.18 442.16 53.49 443.8 53.79 445.44 54.1 447.08 54.41 448.73 54.72 450.38 55.03 452.03 55.34 453.69 55.65 455.35 55.96 457.01 56.27 458.67 56.68 458.93 57.08 459.19 57.05 457.7 57.03 456.2 57 454.7 56.98 453.21 56.96 451.71 56.95 450.2 56.93 448.7 56.92 447.19 56.91 445.69 56.91 444.18 56.9 442.67 56.9 441.16 56.9 439.64 56.91 438.13 56.92 436.61 56.92 435.09 56.94 433.56 56.95 432.04 56.97 430.51 56.99 428.98 57.01 427.45 57.04 425.92 57.07 424.38 57.1 422.85 57.13 421.31 57.17 419.76 57.21 418.22 57.25 416.67 57.29 415.12 57.34 413.57 57.39 412.01 57.44 410.46 57.55 408.95 57.66 407.44 57.78 405.93 57.89 404.41 58.01 402.89 58.13 401.37 58.26 399.84 58.38 398.31 58.51 396.78 58.64 395.24 58.78 393.7 58.91 392.15 59.05 390.6 59.19 389.05 59.34 387.49 59.48 385.93 59.63 384.36 59.78 382.79 59.93 381.22 60.08 379.64 60.24 378.06 60.39 376.47 60.55 374.88 60.71 373.28 60.87 371.68 61.04 370.07 61.2 368.46 61.37 366.84 61.54 365.22 61.71 363.59 61.88 361.96 62.05 360.32 62.23 358.67 62.4 357.02 62.58 355.37 62.76 353.71 62.94 352.04 63.12 350.36 63.3 348.69 63.48 347 63.66 345.31 63.84 343.61 64.03 341.9 64.21 340.19 64.39 338.47 64.58 336.75 64.76 335.02 64.95 333.28 65.13 331.54 65.32 329.79 65.51 328.04 65.69 326.28 65.88 324.51 66.06 322.74 66.25 320.96 66.43 319.19 66.62 317.4 66.8 315.62 66.98 313.83 67.16 312.05 67.35 310.26 67.53 308.48 67.71 306.71 67.88 304.92 68.91 304.95 69.94 304.98 70.97 305.01 71.99 305.04 73.02 305.07 74.05 305.1 75.07 305.14 76.1 305.18 77.12 305.22 78.15 305.27 79.18 305.31 80.2 305.35 81.23 305.41 82.25 305.52 83.28 305.62 84.3 305.72 85.32 305.82 86.35 305.93 87.37 306.03 88.39 306.09 89.42 306.09 90.45 306.09 91.48 306.09 92.51 306.09 93.54 306.09 94.56 306.09 95.59 306.14 96.61 306.22 97.64 306.3 98.66 306.38 99.68 306.46 100.71 306.55 100.95 308.42 101.19 310.31 101.43 312.2 101.67 314.09 101.91 315.98 102.15 317.88 102.39 319.77 102.63 321.66 102.87 323.56 103.11 325.46 103.35 327.36 103.6 329.26 103.84 331.17 104.08 333.07 104.33 334.98 104.57 336.89 104.82 338.81 105.06 340.72 105.31 342.64 105.55 344.56 105.8 346.49 106.05 348.41 106.3 350.34 106.54 352.27 106.79 354.2 107.04 356.14 107.29 358.08 107.54 360.02 107.78 361.96 108.03 363.9 108.28 365.85 108.53 367.8 108.78 369.75 109.03 371.7 109.28 373.66 109.53 375.61 109.78 377.57 110.03 379.54 110.28 381.5 110.53 383.47 110.78 385.44 111.03 387.41 111.28 389.38 111.53 391.36 111.78 393.34 112.03 395.32 112.28 397.3 112.53 399.29 112.78 401.28 113.03 403.27 113.28 405.26 113.53 407.25 113.77 409.25 114.02 411.25 114.27 413.25 114.52 415.26 114.77 417.27 115.01 419.28 115.26 421.29 115.51 423.3 115.75 425.32 116 427.34 116.24 429.36 116.49 431.38 116.6 432.47 116.71 433.56 116.82 434.64 116.92 435.73 117.03 436.82 117.14 437.9 117.25 438.99 117.36 440.08 117.46 441.17 117.57 442.26 117.68 443.35 117.79 444.45 117.9 445.54 118 446.63 118.11 447.72 118.22 448.82 118.32 449.91 118.43 451.01 118.54 452.1 118.65 453.2 118.75 454.3 118.86 455.4 118.96 456.5 119.07 457.59 119.18 458.69 119.28 459.79 119.39 460.9 119.49 462 119.6 463.1 119.71 464.2 119.81 465.31 119.92 466.41 120.02 467.52 120.12 468.62 120.23 469.73 120.33 470.83 120.44 471.94 120.54 473.05 120.65 474.16 120.75 475.27 120.85 476.38 120.96 477.49 121.06 478.6 121.16 479.71 121.26 480.83 121.37 481.94 121.47 483.05 121.57 484.17 121.67 485.28 121.77 486.4 121.88 487.52 121.98 488.63 122.08 489.75 122.18 490.87 122.28 491.99 122.38 493.11 122.48 494.23 122.58 495.35 122.68 496.48 122.78 497.6 122.88 498.72 122.97 499.85 123.07 500.97 123.17 502.1 123.58 502.35 123.97 502.59 124.03 501.56 124.08 500.52 124.13 499.49 124.18 498.45 124.23 497.42 124.28 496.38 124.33 495.34 124.38 494.31 124.43 493.27 124.48 492.24 124.53 491.2 124.58 490.16 124.63 489.12 124.68 488.09 124.73 487.05 124.78 486.01 124.83 484.97 124.88 483.94 124.93 482.9 124.98 481.86 125.03 480.82 125.08 479.78 125.13 478.74 125.18 477.7 125.23 476.66 125.28 475.62 125.33 474.58 125.38 473.54 125.43 472.5 125.47 471.46 125.52 470.42 125.57 469.37 125.62 468.33 125.67 467.29 125.72 466.25 125.77 465.2 125.82 464.16 125.87 463.12 125.92 462.07 125.96 461.03 126.01 459.98 126.06 458.94 126.11 457.89 126.16 456.85 126.21 455.8 126.26 454.76 126.31 453.71 126.36 452.66 126.41 451.62 126.45 450.57 126.5 449.52 126.55 448.47 126.6 447.43 126.65 446.38 126.7 445.33 126.75 444.28 126.8 443.23 126.85 442.18 126.89 441.13 126.94 440.08 126.99 439.03 127.04 437.98 127.09 436.92 127.14 435.87 127.26 433.93 127.38 431.98 127.5 430.03 127.62 428.08 127.74 426.13 127.85 424.17 127.97 422.22 128.09 420.26 128.21 418.3 128.33 416.34 128.45 414.38 128.57 412.42 128.69 410.45 128.81 408.49 128.92 406.52 129.04 404.55 129.16 402.58 129.28 400.61 129.39 398.64 129.51 396.66 129.63 394.69 129.74 392.71 129.86 390.73 129.97 388.75 130.09 386.77 130.2 384.79 130.32 382.81 130.43 380.82 130.54 378.84 130.65 376.85 130.76 374.86 130.87 372.87 130.98 370.88 131.09 368.89 131.2 366.9 131.31 364.91 131.42 362.91 131.52 360.92 131.63 358.92 131.73 356.93 131.84 354.93 131.94 352.94 132.05 350.94 132.15 348.94 132.26 346.95 132.36 344.95 132.46 342.95 132.57 340.96 132.67 338.96 132.78 336.96 132.88 334.97 132.98 332.98 133.09 330.98 133.2 328.99 133.3 327 133.41 325.01 133.52 323.02 133.63 321.03 133.73 319.05 133.85 317.07 133.96 315.1 134.07 313.14 134.18 311.2 134.29 309.27 135.25 309.39 136.21 309.5 137.17 309.63 138.12 309.8 139.07 309.97 140.02 310.13 140.97 310.3 141.92 310.47 142.87 310.64 143.82 310.81 144.77 311.01 145.71 311.22 146.66 311.42 147.6 311.63 148.54 311.83 149.49 312.04 150.43 312.24 151.39 312.4 152.35 312.52 153.3 312.64 154.26 312.76 155.22 312.88 156.18 313.01 157.14 313.13 158.1 313.26 159.06 313.41 160.01 313.55 160.97 313.7 161.92 313.85 162.88 314 163.83 314.14 164.68 314.34 164.73 315.58 164.67 316.86 164.62 318.13 164.56 319.41 164.5 320.68 164.44 321.95 164.38 323.23 164.32 324.5 164.26 325.78 164.2 327.05 164.15 328.32 164.09 329.59 164.03 330.87 163.97 332.14 163.91 333.41 163.85 334.68 163.79 335.95 163.73 337.23 163.67 338.5 163.61 339.77 163.55 341.04 163.49 342.31 163.44 343.58 163.38 344.85 163.32 346.12 163.26 347.39 163.2 348.66 163.14 349.93 163.08 351.2 163.02 352.47 162.96 353.74 162.9 355.01 162.84 356.27 162.78 357.54 162.72 358.81 162.65 360.08 162.59 361.35 162.53 362.61 162.47 363.88 162.41 365.15 162.35 366.41 162.28 367.68 162.22 368.94 162.15 370.21 162.09 371.47 162.02 372.74 161.95 374 161.88 375.27 161.8 376.53 161.73 377.8 161.65 379.06 161.56 380.32 161.47 381.58 161.38 382.85 161.29 384.11 161.2 385.37 161.1 386.63 161.01 387.89 160.91 389.15 160.81 390.42 160.72 391.68 160.62 392.93 160.52 394.19 160.42 395.45 160.32 396.71 160.22 397.97 160.12 399.23 160.02 400.49 159.92 401.74 159.82 403 159.72 404.26 159.62 405.51 159.52 406.77 159.42 408.02 159.32 409.28 159.22 410.53 159.12 411.79 159.02 413.04 158.92 414.3 158.82 415.55 158.72 416.8 158.62 418.05 158.52 419.31 158.42 420.56 158.32 421.81 158.22 423.06 158.12 424.31 158.02 425.56 157.92 426.81 157.82 428.06 157.72 429.31 157.62 430.56 157.52 431.81 157.43 433.05 157.33 434.3 157.23 435.55 157.13 436.8 157.03 438.04 156.93 439.29 156.83 440.53 156.73 441.78 156.63 443.02 156.53 444.27 156.43 445.51 156.33 446.75 156.23 448 156.13 449.24 156.03 450.48 155.93 451.72 155.83 452.96 155.74 454.2 155.64 455.44 155.54 456.68 155.44 457.92 155.34 459.16 155.24 460.4 155.14 461.64 155.04 462.88 154.94 464.12 154.85 465.35 154.75 466.59 154.65 467.83 154.55 469.06 154.45 470.3 154.35 471.53 154.25 472.77 154.15 474 154.06 475.24 153.96 476.47 153.86 477.7 153.76 478.94 153.66 480.17 153.56 481.4 153.46 482.63 153.37 483.86 153.27 485.09 153.17 486.32 153.07 487.55 152.97 488.78 152.87 490.01 152.78 491.24 152.68 492.47 152.58 493.7 152.48 494.92 152.38 496.15 152.28 497.38 152.19 498.6 152.09 499.83 151.99 501.06 151.89 502.28 151.79 503.51 151.69 504.73 151.59 505.95 151.5 507.18 151.4 508.4 151.3 509.62 151.2 510.85 151.1 512.07 151 513.29 150.9 514.51 150.81 515.73 150.71 516.95 150.61 518.17 150.51 519.39 150.41 520.61 150.31 521.83 150.21 523.05 150.11 524.27 150.01 525.49 149.91 526.71 149.82 527.92 149.72 529.14 149.62 530.36 149.52 531.57 149.42 532.79 149.32 534.01 149.22 535.22 149.12 536.44 149.02 537.65 148.91 538.87 148.81 540.08 148.71 541.3 148.61 542.51 148.51 543.72 148.41 544.94 148.31 546.15 148.21 547.36 148.1 548.57 148 549.78 147.9 551 147.8 552.21 147.69 553.42 147.59 554.63 147.49 555.84 147.38 557.05 147.28 558.26 147.17 559.47 147.07 560.68 146.96 561.89 146.86 563.1 146.75 564.3 146.64 565.51 146.54 566.72 146.43 567.93 146.32 569.13 146.21 570.34 146.1 571.55 145.99 572.76 145.88 573.96 145.77 575.17 145.66 576.37 145.55 577.58 145.44 578.78 145.33 579.99 145.21 581.19 145.1 582.4 144.98 583.6 144.86 584.8 144.75 586.01 144.63 587.21 144.51 588.41 144.39 589.61 144.27 590.81 144.15 592.01 144.02 593.22 143.9 594.42 143.78 595.62 143.65 596.81 143.52 598.01 143.39 599.21 143.26 600.41 143.13 601.6 143 602.8 142.86 604 142.73 605.19 142.59 606.38 142.45 607.58 142.31 608.77 142.17 609.96 142.02 611.15 141.88 612.33 141.73 613.52 141.59 614.7 141.44 615.89 141.29 617.07 141.13 618.25 140.98 619.42 140.83 620.6 140.68 621.77 140.52 622.93 140.37 624.1 140.21 625.26 140.06 626.41 139.91 627.56 139.76 628.7 139.62 629.63 139.62 629.63 139.62 629.63M279.16 617.23Q279.17 615.46 279.17 613.68 279.17 611.92 279.17 610.15 279.17 608.39 279.17 606.63 279.17 604.87 279.16 603.11 279.16 601.35 279.16 599.6 279.16 597.85 279.16 596.1 279.16 594.35 279.15 592.61 279.15 590.86 279.15 589.12 279.15 587.38 279.15 585.64 279.14 583.9 279.14 582.16 279.14 580.43 279.13 578.69 279.13 576.96 279.13 575.22 279.13 573.49 279.12 571.76 279.12 570.03 279.12 568.3 279.11 566.57 279.11 564.84 279.11 563.11 279.1 561.38 279.1 559.66 279.1 557.93 279.09 556.21 279.09 554.48 279.09 552.76 279.08 551.03 279.08 549.31 279.08 547.59 279.07 545.87 279.07 544.14 279.07 542.42 279.06 540.7 279.06 538.98 279.06 537.26 279.05 535.54 279.05 533.82 279.05 532.1 279.04 530.38 279.04 528.66 279.04 526.94 279.03 525.22 279.03 523.5 279.03 521.78 279.02 520.06 279.02 518.34 279.02 516.62 279.01 514.91 279.01 513.19 279.01 511.47 279 509.75 279 508.03 279 506.31 277.25 506.5 275.58 506.7 273.91 506.91 272.3 507.14 270.7 507.36 269.17 507.61 267.64 507.86 266.18 508.12 264.72 508.39 263.33 508.67 261.95 508.96 260.63 509.26 259.31 509.57 258.06 509.89 256.82 510.21 255.64 510.55 254.47 510.9 253.36 511.26 252.26 511.62 251.22 512 250.19 512.38 249.23 512.78 248.26 513.18 247.37 513.59 245.59 514.43 244.09 515.34 242.59 516.24 241.37 517.22 240.16 518.2 239.09 519.42 238.03 520.63 237.12 522.09 236.21 523.55 235.45 525.24 234.69 526.94 234.09 528.87 233.78 529.84 233.52 530.87 233.26 531.89 233.03 532.98 232.81 534.07 232.62 535.22 232.43 536.36 232.28 537.57 232.13 538.78 232.02 540.05 231.91 541.31 231.84 542.64 231.77 543.97 231.74 545.36 231.71 546.74 231.71 548.19 231.71 548.19 231.71 548.19 231.72 550.41 231.73 552.64 231.74 554.86 231.75 557.08 231.76 559.31 231.77 561.54 231.79 563.77 231.8 566 231.81 568.23 231.82 570.46 231.84 572.7 231.85 574.94 231.87 577.18 231.89 579.42 231.9 581.66 231.92 583.91 231.93 585.38 231.96 586.8 231.99 588.22 232.04 589.6 232.09 590.98 232.16 592.32 232.23 593.65 232.32 594.94 232.4 596.23 232.51 597.48 232.62 598.73 232.74 599.93 232.99 602.34 233.31 604.56 233.63 606.79 234.03 608.84 234.42 610.89 234.89 612.76 235.35 614.62 235.89 616.31 236.43 617.99 237.04 619.49 237.65 620.99 238.35 622.36 239.05 623.73 239.84 624.97 240.63 626.2 241.51 627.31 242.39 628.41 243.37 629.37 244.34 630.33 245.41 631.16 246.48 631.98 247.64 632.67 248.8 633.35 250.05 633.89 251.31 634.43 252.66 634.83 254.01 635.22 255.3 635.47 256.59 635.72 257.82 635.82 259.05 635.92 260.22 635.89 261.4 635.85 262.51 635.66 263.62 635.48 264.67 635.16 265.72 634.84 266.71 634.38 267.7 633.92 268.63 633.32 269.56 632.73 270.43 632 271.3 631.26 272.09 630.48 272.88 629.7 273.58 628.87 274.29 628.05 274.92 627.17 275.55 626.3 276.09 625.37 276.64 624.45 277.11 623.48 277.57 622.51 277.95 621.49 278.34 620.47 278.64 619.41 278.94 618.34 279.16 617.23 279.16 617.23 279.16 617.23 279.16 617.23 279.16 617.23M232.98 679.83Q232.98 679.83 232.98 679.83 231.03 679.14 229.15 678.55 227.27 677.78 225.47 676.9 223.67 676 221.95 675.03 220.23 674.04 218.59 672.97 216.95 671.9 215.38 670.74 213.81 669.57 212.32 668.32 210.83 667.07 209.41 665.73 208 664.39 206.65 662.98 205.3 661.56 204.03 660.07 202.75 658.58 201.53 657.02 200.32 655.46 199.17 653.84 198.01 652.22 196.91 650.54 195.81 648.87 194.76 647.15 193.71 645.43 192.71 643.66 191.7 641.9 190.75 640.09 189.79 638.29 188.89 636.44 187.98 634.6 187.1 632.71 186.23 630.82 185.39 628.89 184.54 626.96 183.74 624.98 182.93 623 182.16 620.97 181.39 618.94 180.67 616.86 179.94 614.77 179.25 612.63 178.57 610.5 177.93 608.3 177.28 606.11 176.68 603.85 176.08 601.6 175.53 599.29 174.98 596.98 174.47 594.61 174.21 593.42 173.97 592.22 173.73 591.02 173.5 589.8 173.27 588.59 173.07 587.36 172.89 586.13 172.75 584.88 172.63 583.63 172.52 582.37 172.41 581.11 172.31 579.84 172.22 578.56 172.14 577.27 172.06 575.97 171.99 574.67 171.92 573.36 171.87 572.04 171.81 570.71 171.77 569.38 171.73 568.04 171.71 566.68 171.68 565.33 171.66 563.96 171.66 563.96 171.66 563.96 171.66 562.64 171.66 561.31 171.66 559.99 171.66 558.67 171.66 557.34 171.66 556.02 171.66 554.7 171.66 553.37 171.66 552.05 171.66 550.73 171.66 549.4 171.66 548.08 171.66 546.76 171.66 545.43 171.66 544.11 171.66 542.78 171.66 541.46 171.69 540.16 171.71 538.87 171.75 537.6 171.8 536.33 171.87 535.09 171.94 533.85 172.03 532.63 172.12 531.42 172.23 530.23 172.34 529.05 172.48 527.89 172.61 526.73 172.77 525.6 172.93 524.46 173.11 523.36 173.29 522.25 173.49 521.18 173.7 520.1 173.92 519.05 174.15 518 174.4 516.98 174.64 515.96 174.91 514.96 175.46 512.97 176.09 511.09 176.72 509.21 177.44 507.44 178.16 505.66 178.97 504 179.79 502.34 180.69 500.79 181.59 499.23 182.58 497.79 183.57 496.35 184.65 495.01 185.74 493.68 186.91 492.45 188.08 491.23 189.34 490.11 190.6 489 191.95 487.99 193.31 486.99 194.75 486.09 194.75 486.09 194.75 486.09 195.68 485.5 196.69 484.94 197.7 484.37 198.79 483.84 199.88 483.3 201.05 482.8 202.22 482.3 203.47 481.82 204.72 481.35 206.05 480.91 207.38 480.46 208.79 480.05 210.21 479.63 211.7 479.25 213.19 478.87 214.76 478.51 216.33 478.16 217.99 477.84 219.64 477.52 221.37 477.23 223.11 476.93 224.92 476.67 226.73 476.41 228.62 476.18 230.52 475.96 232.49 475.76 234.46 475.56 236.52 475.4 238.57 475.23 240.7 475.1 241.77 475.03 242.86 474.98 243.94 474.92 245.05 474.87 245.05 474.87 245.05 474.87 246.65 474.8 248.57 474.73 250.48 474.65 252.71 474.58 253.82 474.54 255.01 474.5 256.21 474.47 257.47 474.43 258.74 474.39 260.09 474.35 261.44 474.32 262.86 474.28 264.29 474.24 265.61 474.21 266.92 474.18 268.14 474.15 269.35 474.12 270.46 474.09 271.57 474.06 272.57 474.04 274.58 473.99 276.16 473.94 277.74 473.9 278.91 473.87 278.91 473.87 278.91 473.87 278.9 472.09 278.89 470.32 278.89 468.54 278.88 466.77 278.87 464.99 278.86 463.22 278.86 461.44 278.85 459.66 278.84 457.88 278.83 456.1 278.82 454.32 278.81 452.54 278.8 450.76 278.79 448.97 278.78 447.19 278.77 445.4 278.76 443.74 278.74 442.14 278.71 440.53 278.67 438.99 278.63 437.45 278.58 435.96 278.52 434.48 278.45 433.05 278.38 431.63 278.3 430.26 278.21 428.9 278.11 427.59 278.01 426.29 277.9 425.04 277.79 423.79 277.66 422.61 277.4 420.24 277.09 418.11 276.77 415.97 276.4 414.09 276.03 412.2 275.6 410.55 275.18 408.91 274.69 407.51 274.21 406.11 273.57 404.8 272.94 403.49 272.15 402.27 271.37 401.05 270.43 399.92 269.49 398.8 268.4 397.76 267.31 396.73 266.07 395.79 264.83 394.85 263.43 394.01 262.03 393.17 260.48 392.43 258.93 391.69 257.23 391.06 255.52 390.42 253.95 390.01 252.38 389.6 250.95 389.41 249.52 389.22 248.23 389.25 246.94 389.28 245.79 389.52 244.64 389.77 243.63 390.24 242.62 390.7 241.75 391.38 240.89 392.06 240.16 392.96 239.43 393.85 238.85 394.95 238.26 396.05 237.75 397.4 237.24 398.75 236.8 400.34 236.36 401.93 235.99 403.76 235.63 405.59 235.33 407.66 235.18 408.7 235.05 409.8 234.93 410.89 234.82 412.05 234.7 413.2 234.61 414.42 234.52 415.63 234.45 416.91 234.37 418.18 234.32 419.52 234.26 420.85 234.23 422.24 234.19 423.63 234.17 425.09 234.15 426.54 234.15 428.05 234.15 428.05 234.15 428.05 234.15 429.91 234.15 431.77 234.15 433.62 234.16 435.48 234.16 437.33 234.16 439.18 234.16 441.03 234.16 442.88 232.35 442.27 230.54 441.66 228.72 441.05 226.91 440.44 225.1 439.84 223.29 439.23 221.47 438.63 219.66 438.03 217.85 437.42 216.03 436.82 214.22 436.22 212.41 435.62 210.59 435.03 208.78 434.43 206.96 433.83 205.15 433.24 203.33 432.64 201.52 432.05 199.7 431.45 197.89 430.86 196.07 430.27 194.26 429.68 192.44 429.08 190.62 428.49 188.81 427.9 186.99 427.31 185.18 426.72 183.36 426.13 181.54 425.54 179.73 424.96 177.91 424.37 176.09 423.78 176.09 422.54 176.09 421.3 176.09 420.06 176.09 418.82 176.09 417.57 176.09 416.33 176.09 415.09 176.09 413.85 176.09 412.38 176.11 410.94 176.13 409.49 176.16 408.08 176.2 406.66 176.25 405.28 176.3 403.89 176.37 402.53 176.44 401.17 176.53 399.84 176.61 398.5 176.72 397.2 176.82 395.89 176.94 394.61 177.06 393.33 177.2 392.08 177.34 390.83 177.5 389.6 177.65 388.38 177.82 387.18 178 385.98 178.19 384.81 178.38 383.64 178.59 382.49 178.79 381.35 179.02 380.23 179.24 379.11 179.49 378.02 179.73 376.93 179.99 375.86 180.25 374.79 180.53 373.76 180.8 372.72 181.1 371.7 181.39 370.69 181.71 369.7 182.33 367.72 183.03 365.85 183.72 363.98 184.49 362.21 185.26 360.43 186.09 358.76 186.93 357.08 187.84 355.5 188.75 353.92 189.74 352.44 190.72 350.95 191.78 349.56 192.83 348.15 193.96 346.85 195.1 345.54 196.34 344.36 197.58 343.16 198.93 342.08 200.28 341 201.75 340.05 203.21 339.08 204.78 338.25 206.35 337.41 208.03 336.7 209.71 336 211.49 335.44 213.27 334.89 215.15 334.49 217.02 334.11 219 333.88 220.97 333.67 223.04 333.61 225.11 333.55 227.28 333.64 228.37 333.69 229.48 333.77 230.6 333.85 231.73 333.97 232.87 334.09 234.04 334.24 235.2 334.39 236.39 334.58 237.58 334.77 238.79 335 240 335.24 241.24 335.52 242.47 335.81 243.72 336.14 244.98 336.47 246.26 336.83 247.55 337.18 248.86 337.56 250.17 337.95 251.51 338.37 252.85 338.8 254.2 339.29 255.54 339.79 256.92 340.32 258.29 340.85 259.65 341.39 261 341.94 262.32 342.49 263.65 343.05 264.95 343.63 266.24 344.22 267.49 344.86 268.74 345.49 269.97 346.15 271.19 346.8 272.38 347.49 273.57 348.2 274.72 348.94 275.88 349.68 277.01 350.42 278.15 351.16 279.27 351.88 280.41 352.59 281.52 353.32 282.62 354.05 283.7 354.8 284.77 355.58 285.8 356.39 287.86 358.03 289.82 359.73 291.79 361.41 293.66 363.13 295.55 364.85 297.34 366.61 299.12 368.37 300.81 370.2 302.5 372.03 304.09 373.92 305.68 375.8 307.18 377.73 308.69 379.66 310.12 381.62 311.55 383.57 312.9 385.57 314.25 387.55 315.52 389.57 316.8 391.58 317.99 393.62 319.19 395.65 320.34 397.74 321.49 399.81 322.58 401.93 323.67 404.05 324.71 406.22 325.75 408.38 326.73 410.59 327.71 412.8 328.63 415.07 329.55 417.33 330.41 419.65 330.84 420.81 331.25 421.99 331.67 423.16 332.06 424.35 332.46 425.54 332.84 426.74 333.23 427.94 333.59 429.16 333.96 430.38 334.31 431.61 334.66 432.84 334.99 434.09 335.32 435.33 335.63 436.6 335.95 437.86 336.24 439.14 336.53 440.41 336.79 441.71 337.02 443 337.22 444.31 337.41 445.62 337.58 446.94 337.75 448.27 337.91 449.61 338.06 450.95 338.19 452.3 338.32 453.66 338.43 455.03 338.54 456.4 338.63 457.79 338.73 459.18 338.8 460.59 338.88 461.99 338.93 463.41 338.98 464.83 338.95 466.24 338.91 467.65 338.89 469.09 338.87 470.54 338.87 472.01 338.87 472.01 338.87 472.01 338.87 473.76 338.87 475.52 338.87 477.27 338.87 479.03 338.87 480.78 338.87 482.54 338.87 484.3 338.87 486.05 338.87 487.81 338.87 489.56 338.87 491.32 338.87 493.07 338.87 494.83 338.87 496.59 338.87 498.34 338.87 500.1 338.87 501.85 338.87 503.61 338.87 505.37 338.87 507.12 338.87 508.88 338.87 510.63 338.87 512.39 338.87 514.14 338.87 515.9 338.87 517.66 338.87 519.41 338.87 521.17 338.87 522.92 338.87 524.68 338.87 526.43 338.87 528.19 338.87 529.95 338.87 531.7 338.87 533.46 338.87 535.21 338.87 536.97 338.87 538.72 338.87 540.48 338.87 542.24 338.87 543.99 338.87 545.75 338.87 547.5 338.87 549.26 338.87 551.01 338.87 552.77 338.87 554.53 338.87 556.28 338.87 558.04 338.87 559.79 338.87 561.55 338.87 563.31 338.87 565.06 338.87 566.82 338.87 568.57 338.87 570.33 338.87 572.08 338.87 573.84 338.87 575.6 338.87 577.35 338.87 579.11 338.87 580.86 338.87 582.62 338.87 584.37 338.87 586.13 338.87 587.89 338.87 589.64 338.87 591.4 338.87 593.15 338.87 594.91 338.87 596.66 338.87 598.42 338.87 600.18 338.87 601.93 338.87 603.69 338.87 605.44 338.87 607.2 338.87 608.96 338.87 610.71 338.87 612.47 338.87 614.22 338.87 615.98 338.87 617.73 338.87 619.49 338.87 621.25 338.87 623 338.87 624.76 338.87 626.51 338.87 628.27 338.87 630.02 338.87 631.78 338.87 633.54 338.87 635.29 338.87 637.05 338.87 638.8 338.87 640.56 338.87 642.32 338.87 644.07 338.87 645.83 338.87 647.58 338.87 649.34 338.87 651.09 338.87 652.85 338.87 654.61 338.87 656.36 338.87 658.12 338.87 659.87 338.87 661.63 338.87 663.39 338.87 665.14 338.87 666.9 338.87 668.65 338.87 670.41 338.87 672.17 338.87 673.92 338.87 675.68 338.87 677.43 338.87 679.19 338.87 680.94 338.87 682.7 338.87 684.46 338.87 686.21 338.87 687.97 338.87 689.72 338.87 691.48 338.87 693.24 338.87 694.99 338.88 696.75 337.24 696.51 335.36 696.33 333.49 696.19 331.61 696.06 329.74 695.94 327.86 695.81 325.98 695.67 324.11 695.53 322.23 695.38 320.35 695.22 318.48 695.05 316.6 694.88 314.73 694.69 312.86 694.49 310.99 694.29 309.11 694.07 307.24 693.85 305.38 693.61 303.51 693.37 301.64 693.11 299.78 692.85 297.91 692.57 296.05 692.29 294.19 691.99 292.33 691.69 290.47 691.37 288.62 691.05 286.76 690.71 284.91 690.37 283.06 690.01 281.21 689.65 279.36 689.27 279.4 686.97 279.44 684.66 279.48 682.35 279.52 680.04 279.56 677.74 279.6 675.45 279.63 673.16 279.67 670.89 279.7 668.62 279.73 666.37 279.76 664.13 279.79 661.89 279.82 659.67 279.84 657.46 279.86 655.26 279.89 653.06 279.31 654.97 278.62 656.77 277.92 658.59 277.09 660.3 276.27 662.02 275.32 663.64 274.37 665.27 273.29 666.8 272.21 668.33 271.01 669.75 269.8 671.17 268.48 672.49 267.15 673.8 265.7 675.01 264.25 676.2 262.68 677.28 261.1 678.36 259.46 679.23 257.81 680.08 256.09 680.72 254.37 681.35 252.58 681.77 250.8 682.17 248.94 682.36 247.08 682.53 245.15 682.48 243.22 682.42 241.23 682.14 239.24 681.85 237.17 681.34 235.11 680.58 232.98 679.83 232.98 679.83 232.98 679.83M507.07 429.96Q507.07 429.96 507.07 429.96 507.39 429.99 507.66 431.61 507.79 432.43 507.91 433.64 508.03 434.86 508.13 436.47 508.19 437.27 508.23 438.18 508.28 439.09 508.33 440.09 508.37 441.1 508.37 442.2 508.36 443.3 508.36 444.5 508.36 445.7 508.37 447 508.37 448.3 508.38 449.7 508.39 451.1 508.41 452.61 508.43 454.11 508.45 455.71 508.45 455.71 508.45 455.71 508.51 456.79 508.57 457.86 508.62 458.94 508.65 460.01 508.62 461.07 508.6 462.14 508.58 463.2 508.55 464.27 505.45 463.87 502.36 463.53 499.27 463.18 496.19 462.89 493.12 462.59 490.05 462.34 486.99 462.08 483.95 461.89 480.91 461.68 477.88 461.53 474.85 461.37 471.85 461.27 468.84 461.16 465.85 461.11 462.87 461.06 459.9 461.06 456.93 461.07 454.23 461.17 451.52 461.27 449.08 461.48 446.63 461.68 444.45 462 442.26 462.31 440.33 462.74 438.4 463.17 436.73 463.72 435.06 464.27 433.65 464.94 432.23 465.61 431.07 466.4 429.91 467.19 429 468.1 429 468.1 429 468.1 429.02 469.72 429.04 471.34 429.06 472.96 429.08 474.59 429.1 476.21 429.12 477.85 429.13 479.48 429.15 481.11 429.16 482.75 429.17 484.39 429.19 486.03 429.2 487.68 429.21 489.32 429.22 490.97 429.23 492.62 429.24 494.27 429.25 495.92 429.26 497.57 429.27 499.23 429.28 500.88 429.28 502.54 429.29 504.19 429.3 505.85 429.3 507.51 429.31 509.17 429.32 510.83 429.32 512.49 429.33 514.15 429.33 515.82 429.34 517.48 429.34 519.15 429.35 520.81 429.35 522.48 429.36 524.14 429.36 525.81 429.36 527.48 429.37 529.15 429.37 530.81 429.37 532.48 429.38 534.15 429.38 535.82 429.38 537.5 429.39 539.17 429.39 540.84 429.39 542.51 429.39 544.19 429.4 545.86 429.4 547.53 429.4 549.21 429.4 550.89 429.4 552.56 429.4 554.24 429.41 555.92 429.41 557.59 429.41 559.27 429.41 560.95 429.41 562.63 429.41 564.31 429.41 565.99 429.41 567.67 429.41 569.36 429.41 571.04 429.41 572.72 429.41 574.41 429.41 576.09 429.41 577.78 429.41 579.47 429.41 581.15 429.41 582.84 429.41 584.53 429.41 586.22 429.41 587.92 429.41 589.61 429.41 591.3 429.41 593 429.4 594.7 429.4 596.4 429.4 598.1 429.4 599.8 429.4 601.5 429.4 603.21 429.39 604.91 429.39 606.62 429.39 608.33 429.38 610.05 429.38 611.76 429.38 613.48 429.38 615.2 429.37 616.93 429.37 618.66 429.37 620.39 429.36 622.12 429.36 623.86 429.36 625.6 429.36 627.35 429.36 629.1 429.36 630.86 429.36 632.62 429.36 634.39 429.36 636.17 429.36 637.95 429.36 639.74 429.37 641.54 429.37 643.35 429.38 645.16 429.39 646.99 429.4 648.83 429.42 650.68 429.43 652.54 429.45 654.41 429.47 656.3 429.5 658.2 429.52 660.12 429.56 662.06 429.59 664.01 429.63 665.98 429.68 667.97 429.72 669.98 429.78 672.01 429.84 674.05 429.9 676.12 429.96 678.2 430.03 680.3 430.1 682.41 430.18 684.53 430.25 686.64 430.33 688.75 430.38 690.61 427.75 691.22 425.11 691.81 422.46 692.37 419.81 692.92 417.16 693.45 414.5 693.95 411.84 694.44 409.18 694.9 406.51 695.35 403.84 695.77 401.16 696.17 398.49 696.56 395.8 696.91 393.12 697.26 390.44 697.57 387.75 697.88 385.06 698.15 382.37 698.41 379.68 698.64 376.99 698.86 374.29 699.05 371.6 699.23 368.9 699.38 366.21 699.52 363.51 699.63 360.81 699.73 358.12 699.79 355.42 699.85 352.73 699.87 350.03 699.89 347.34 699.88 344.73 699.88 344.68 698.82 344.74 697.6 344.8 696.38 344.85 695.16 344.91 693.94 344.97 692.72 345.02 691.5 345.08 690.28 345.14 689.06 345.19 687.84 345.25 686.63 345.31 685.41 345.36 684.19 345.42 682.97 345.48 681.75 345.53 680.53 345.59 679.31 345.65 678.09 345.7 676.87 345.76 675.65 345.82 674.43 345.87 673.21 345.93 671.99 345.99 670.77 346.04 669.55 346.1 668.33 346.16 667.11 346.21 665.89 346.27 664.67 346.33 663.46 346.38 662.24 346.44 661.02 346.5 659.8 346.55 658.58 346.61 657.36 346.67 656.14 346.72 654.92 346.78 653.7 346.84 652.48 346.89 651.26 346.95 650.04 347.01 648.82 347.06 647.6 347.12 646.38 347.18 645.17 347.23 643.95 347.29 642.73 347.35 641.51 347.4 640.29 347.46 639.07 347.52 637.85 347.57 636.63 347.57 635.41 347.57 634.19 347.57 632.97 347.57 631.75 347.57 630.53 347.57 629.32 347.57 628.1 347.57 626.88 347.57 625.66 347.57 624.44 347.57 623.22 347.57 622 347.57 620.78 347.57 619.56 347.57 618.34 347.57 617.12 347.57 615.9 347.57 614.68 347.57 613.47 347.57 612.25 347.57 611.03 347.57 609.81 347.57 608.59 347.57 607.37 347.57 606.15 347.57 604.93 347.57 603.71 347.57 602.49 347.57 601.27 347.57 600.05 347.57 598.84 347.57 597.62 347.57 596.4 347.57 595.18 347.57 593.96 347.57 592.74 347.57 591.52 347.57 590.3 347.57 589.08 347.57 587.86 347.57 586.64 347.57 585.42 347.57 584.21 347.57 582.99 347.57 581.77 347.57 580.55 347.57 579.33 347.57 578.11 347.57 576.89 347.57 575.67 347.57 574.45 347.57 573.23 347.57 572.01 347.57 570.79 347.57 569.58 347.57 568.36 347.57 567.14 347.57 565.92 347.57 564.7 347.57 563.48 347.57 562.26 347.57 561.04 347.57 559.82 347.57 558.6 347.57 557.38 347.57 556.16 347.57 554.95 347.57 553.73 347.57 552.51 347.57 551.29 347.57 550.07 347.57 548.85 347.57 547.63 347.57 546.41 347.57 545.19 347.57 543.97 347.57 542.75 347.57 541.53 347.57 540.32 347.57 539.1 347.57 537.88 347.57 536.66 347.57 535.44 347.57 534.22 347.57 533 347.57 531.78 347.57 530.56 347.57 529.34 347.57 528.12 347.57 526.91 347.57 525.69 347.57 524.47 347.57 523.25 347.57 522.03 347.57 520.81 347.57 519.59 347.57 518.37 347.57 517.15 347.57 515.93 347.57 514.71 347.57 513.49 347.57 512.28 347.57 511.06 347.57 509.84 347.57 508.62 347.57 507.4 347.57 506.18 347.57 504.96 347.57 503.74 347.57 502.52 347.57 501.3 347.57 500.08 347.57 498.86 347.57 497.65 347.57 496.43 347.57 495.21 347.57 493.99 347.57 492.77 347.57 491.55 347.57 490.33 347.57 489.11 347.57 487.89 347.57 486.67 347.57 485.45 347.57 484.24 347.57 483.02 347.57 481.8 347.57 480.58 347.57 479.36 347.57 478.14 347.57 476.92 347.57 475.7 347.57 474.48 347.57 473.26 347.57 472.04 347.57 470.82 347.57 469.61 347.57 468.39 347.57 467.17 347.57 465.95 347.57 464.73 347.57 463.51 347.57 462.29 347.57 461.07 347.57 459.85 347.57 458.63 347.57 457.41 347.57 456.19 347.57 454.98 347.57 453.76 347.57 452.54 347.57 451.32 347.57 450.1 347.57 448.88 347.57 447.66 347.57 446.44 347.57 445.22 347.57 444 347.57 442.78 347.57 441.57 347.57 440.35 347.57 439.13 347.57 437.91 347.57 436.69 347.57 435.47 347.57 434.25 347.57 433.03 347.57 431.81 347.57 430.59 347.57 429.37 347.57 428.16 347.57 426.94 347.57 425.72 347.57 424.5 347.57 423.28 347.57 422.06 347.57 420.84 347.57 419.62 347.57 418.4 347.57 417.18 347.57 415.96 347.57 414.75 347.57 413.53 347.57 412.31 347.57 411.09 347.57 409.87 347.57 408.65 347.57 407.43 347.57 406.21 347.57 404.99 347.57 403.77 347.57 402.55 347.57 401.34 347.57 400.12 347.57 398.9 347.57 397.68 347.56 396.46 347.56 395.24 347.56 394.02 347.56 392.8 347.56 391.58 347.56 390.37 347.56 389.15 347.56 387.93 350.02 388.79 352.46 389.78 354.89 390.83 357.31 391.92 359.73 393.03 362.13 394.18 364.52 395.36 366.91 396.54 369.31 397.7 371.73 398.84 374.15 399.95 376.59 401.04 379.04 402.1 381.5 403.15 383.97 404.17 386.45 405.18 388.93 406.17 391.41 407.15 393.91 408.11 396.41 409.05 398.93 409.93 401.46 410.77 404 411.59 406.52 412.43 409.04 413.32 411.55 414.24 414.06 415.15 416.57 416.04 419.11 416.88 421.65 417.66 424.22 418.41 426.78 419.14 426.85 419.87 426.92 420.58 426.99 421.29 427.06 422.01 427.13 422.72 427.2 423.44 427.27 424.16 427.33 424.89 427.4 425.62 427.46 426.36 427.52 427.1 427.58 427.85 427.64 428.6 427.7 429.36 427.75 430.13 427.81 430.9 427.86 431.67 427.91 432.46 427.96 433.25 428 434.04 428.05 434.84 428.09 435.64 428.13 436.45 428.17 437.26 428.21 438.08 428.25 438.9 428.29 439.73 428.32 440.56 428.36 441.4 428.39 442.24 428.42 443.08 428.45 443.92 428.92 443.15 429.43 442.42 429.95 441.7 430.5 441.02 431.06 440.34 431.67 439.7 432.27 439.07 432.93 438.48 433.58 437.9 434.28 437.35 434.98 436.81 435.73 436.31 436.47 435.81 437.27 435.35 438.06 434.9 438.91 434.48 440.6 433.65 442.48 432.97 444.37 432.29 446.45 431.74 448.54 431.19 450.83 430.76 453.13 430.31 455.63 429.97 458.14 429.61 460.82 429.36 463.51 429.09 466.38 428.94 467.81 428.86 469.29 428.81 470.76 428.76 472.28 428.74 473.8 428.71 475.37 428.71 476.93 428.71 478.54 428.74 480.15 428.77 481.8 428.83 483.45 428.89 485.14 428.99 486.83 429.08 488.57 429.16 490.31 429.21 492.09 429.28 493.88 429.34 495.71 429.38 497.54 429.38 499.42 429.42 501.29 429.46 503.2 429.61 505.12 429.77 507.07 429.96 507.07 429.96 507.07 429.96M562.24 628.26Q560.95 629.24 559.65 630.22 558.34 631.19 557.03 632.16 555.73 633.12 554.41 634.07 553.08 635.02 551.76 635.96 550.43 636.89 549.09 637.82 547.76 638.75 546.42 639.67 545.07 640.57 543.72 641.47 542.36 642.38 541 643.26 539.64 644.15 538.27 645.03 536.9 645.9 535.52 646.77 534.14 647.63 532.76 648.49 531.37 649.33 529.98 650.17 528.59 651.01 527.19 651.83 525.78 652.65 524.38 653.47 522.97 654.28 521.55 655.07 520.13 655.87 518.77 656.65 518.66 655.9 518.59 655.02 518.52 654.15 518.46 653.27 518.39 652.39 518.33 651.51 518.26 650.63 518.2 649.76 518.13 648.88 518.06 648 518 647.12 517.93 646.24 517.87 645.37 517.8 644.49 517.74 643.61 517.67 642.73 517.6 641.86 517.54 640.98 517.47 640.1 517.41 639.22 517.34 638.35 517.28 637.47 517.21 636.59 517.14 635.71 517.08 634.83 517.01 633.96 516.95 633.08 516.88 632.2 516.82 631.32 516.75 630.45 516.69 629.57 516.62 628.69 516.55 627.81 516.49 626.94 516.42 626.06 516.36 625.18 516.29 624.3 516.23 623.42 516.16 622.55 516.09 621.67 516.03 620.79 515.96 619.91 515.9 619.04 515.83 618.16 515.77 617.28 515.7 616.4 515.64 615.53 515.57 614.65 515.5 613.77 515.44 612.89 515.37 612.02 515.33 611.14 515.33 610.26 515.33 609.38 515.33 608.5 515.33 607.63 515.33 606.75 515.33 605.87 515.33 604.99 515.33 604.12 515.33 603.24 515.33 602.36 515.33 601.48 515.33 600.61 515.33 599.73 515.33 598.85 515.33 597.97 515.33 597.1 515.33 596.22 515.33 595.34 515.33 594.46 515.33 593.59 515.33 592.71 515.33 591.83 515.33 590.95 515.33 590.07 515.33 589.2 515.33 588.32 515.33 587.44 515.33 586.56 515.33 585.69 515.33 584.81 515.33 583.93 515.33 583.05 515.33 582.18 515.33 581.3 515.33 580.42 515.33 579.54 515.33 578.67 515.33 577.79 515.33 576.91 515.33 576.03 515.33 575.16 515.33 574.28 515.33 573.4 515.33 572.52 515.33 571.65 515.33 570.77 515.33 569.89 515.33 569.01 515.33 568.13 515.33 567.26 515.33 566.38 515.33 565.5 515.33 564.62 515.33 563.75 515.33 562.87 515.33 561.99 515.33 561.11 515.33 560.24 515.33 559.36 515.33 558.48 515.33 557.6 515.33 556.73 515.33 555.85 515.33 554.97 515.33 554.09 515.33 553.22 515.33 552.34 515.33 551.46 515.33 550.58 515.33 549.71 515.33 548.83 515.33 547.95 515.33 547.07 515.33 546.2 515.33 545.32 515.33 544.44 515.33 543.56 515.33 542.68 515.33 541.81 515.33 540.93 515.33 540.05 515.33 539.17 515.33 538.3 515.34 537.42 515.34 536.54 515.34 535.66 515.34 534.79 515.34 533.91 515.34 533.03 515.34 532.15 515.34 531.28 515.34 530.4 515.34 529.52 515.34 528.64 515.34 527.77 515.34 526.89 515.34 526.01 515.34 525.13 515.34 524.26 515.34 523.38 515.34 522.5 515.34 521.62 515.34 520.74 515.34 519.87 515.34 518.99 515.34 518.11 515.34 517.23 515.34 516.36 515.34 515.48 515.34 514.6 515.34 513.72 515.34 512.85 515.34 511.97 515.34 511.09 515.34 510.21 515.34 509.34 515.34 508.46 515.34 507.58 515.34 506.7 515.34 505.83 515.34 504.95 515.34 504.07 515.34 503.19 515.34 502.32 515.34 501.44 515.34 500.56 515.34 499.68 515.34 498.8 515.34 497.93 515.34 497.05 515.34 496.17 515.34 495.29 515.34 494.42 515.34 493.54 515.34 492.66 515.34 491.78 515.34 490.91 515.34 490.03 515.34 489.15 515.34 488.27 515.34 487.4 515.34 486.52 515.34 485.64 515.34 484.76 515.34 483.89 515.34 483.01 515.34 482.13 515.34 481.25 515.34 480.37 515.34 479.5 515.34 478.62 515.34 477.74 515.34 476.86 515.34 475.99 515.34 475.11 515.34 474.23 515.34 473.35 515.34 472.48 515.34 471.6 515.34 470.72 515.34 469.84 515.34 468.97 515.34 468.09 515.34 467.21 515.34 466.33 515.34 465.46 515.34 464.58 515.34 463.7 515.34 462.82 515.34 461.95 515.34 461.07 515.34 460.19 515.34 459.31 515.34 458.43 515.34 457.56 515.34 456.68 515.34 455.8 515.34 454.92 515.34 454.05 515.34 453.17 515.34 452.29 515.34 451.41 515.34 450.54 515.34 449.66 515.34 448.78 515.34 447.9 515.34 447.03 515.34 446.15 515.34 445.27 515.34 444.39 515.34 443.52 515.34 442.64 515.34 441.76 515.34 440.88 515.34 440.01 515.34 439.13 515.34 438.25 515.34 437.37 515.34 436.5 515.34 435.62 515.34 434.74 515.34 433.86 515.34 432.99 515.34 432.11 517.15 432.08 518.98 432.15 520.81 432.25 522.64 432.35 524.49 432.41 526.33 432.44 528.18 432.45 530.02 432.46 531.87 432.47 533.72 432.47 535.57 432.47 537.42 432.47 539.27 432.47 541.12 432.47 542.97 432.46 544.82 432.45 546.67 432.44 548.51 432.42 550.36 432.37 552.21 432.29 554.05 432.19 555.9 432.08 557.74 431.96 559.59 431.84 561.43 431.73 563.28 431.62 565.12 431.54 566.97 431.48 568.82 431.42 570.67 431.34 572.51 431.21 574.35 431.05 574.32 431.86 574.3 432.67 574.27 433.49 574.25 434.31 574.22 435.13 574.19 435.95 574.17 436.77 574.14 437.6 574.11 438.43 574.09 439.27 574.06 440.11 574.03 440.95 574.01 441.8 573.98 442.65 573.95 443.5 573.92 444.36 574.73 443.4 575.66 442.49 576.59 441.58 577.63 440.72 578.67 439.86 579.82 439.05 580.97 438.25 582.24 437.49 583.5 436.73 584.88 436.02 586.25 435.31 587.74 434.64 589.23 433.98 590.83 433.35 592.43 432.73 594.14 432.13 595.85 431.53 597.58 430.97 599.31 430.4 601.05 429.88 602.79 429.35 604.55 428.88 606.3 428.41 608.08 428 609.85 427.58 611.64 427.22 613.43 426.86 615.24 426.56 617.05 426.26 618.88 426.02 620.7 425.77 622.55 425.59 624.4 425.41 626.19 425.26 627.98 425.08 629.7 424.85 631.42 424.63 633.08 424.45 634.75 424.29 636.37 424.19 638 424.1 639.57 424.06 641.15 424.04 642.68 424.09 644.21 424.14 645.7 424.24 647.19 424.32 648.63 424.43 648.63 424.43 648.63 424.43 649.98 424.53 651.28 424.67 652.6 424.8 653.87 424.97 655.16 425.15 656.41 425.37 657.68 425.59 658.91 425.86 660.16 426.14 661.38 426.46 662.62 426.78 663.82 427.15 665.04 427.53 666.22 427.95 667.41 428.37 668.56 428.83 669.7 429.29 670.8 429.78 671.88 430.27 672.89 430.78 673.89 431.28 674.81 431.8 675.7 432.31 676.51 432.83 677.3 433.35 678 433.88 678.68 434.4 679.28 434.93 679.86 435.46 680.37 436.01 680.85 436.56 681.27 437.12 681.67 437.68 682.02 438.26 682.37 438.83 682.68 439.42 682.97 440.01 683.23 440.61 683.48 441.22 683.68 441.84 683.89 442.46 684.05 443.1 684.21 443.74 684.33 444.4 684.44 445.05 684.52 445.73 684.59 446.41 684.63 447.11 684.66 447.81 684.65 448.53 684.64 449.24 684.59 449.98 684.54 450.72 684.45 451.48 684.37 452.24 684.24 453.02 684.11 453.8 683.94 454.6 683.77 455.4 683.56 456.23 683.42 456.65 683.27 457.08 683.11 457.5 682.96 457.93 682.81 458.36 682.66 458.79 682.51 459.22 682.37 459.66 682.37 459.66 682.37 459.66 682.13 460.35 681.9 461.05 681.67 461.74 681.44 462.43 681.21 463.13 680.97 463.82 680.73 464.51 680.49 465.2 680.25 465.89 680 466.58 679.76 467.27 679.52 467.96 679.28 468.65 679.02 469.34 678.77 470.03 678.52 470.71 678.26 471.4 678.01 472.09 677.76 472.77 677.5 473.46 677.24 474.14 676.98 474.83 676.72 475.51 676.45 476.19 676.19 476.87 675.92 477.55 675.66 478.24 675.4 478.92 675.12 479.6 674.85 480.28 674.57 480.95 674.3 481.63 674.02 482.31 673.75 482.99 673.47 483.67 673.19 484.34 672.91 485.02 672.62 485.69 672.34 486.36 672.05 487.04 671.77 487.71 671.48 488.38 671.2 489.06 670.9 489.73 670.6 490.39 670.31 491.06 670.01 491.73 669.72 492.4 669.42 493.07 669.12 493.74 668.82 494.41 668.52 495.07 668.21 495.73 667.9 496.4 667.6 497.06 667.29 497.73 666.99 498.39 666.68 499.06 666.36 499.71 666.05 500.37 665.73 501.03 665.41 501.69 665.1 502.35 664.78 503.01 664.47 503.65 664.18 504.27 663.88 504.88 663.6 505.48 663.31 506.08 663.04 506.67 662.72 507.27 662.39 507.87 662.06 508.47 661.72 509.06 661.38 509.64 661.03 510.22 660.68 510.8 660.33 511.37 659.98 511.94 659.63 512.5 659.27 513.06 658.92 513.62 658.56 514.17 658.19 514.72 657.83 515.26 657.46 515.8 657.09 516.34 656.71 516.87 656.34 517.39 655.96 517.92 655.59 518.44 655.21 518.96 654.83 519.47 654.44 519.98 654.06 520.48 653.67 520.98 653.28 521.48 652.89 521.97 652.5 522.46 652.1 522.95 651.71 523.43 651.31 523.91 650.92 524.39 650.52 524.86 649.72 525.81 648.91 526.72 648.09 527.64 647.27 528.52 646.46 529.42 645.63 530.28 644.8 531.14 643.96 531.98 643.13 532.82 642.29 533.64 641.45 534.46 640.6 535.25 639.75 536.04 638.89 536.83 638.04 537.62 637.18 538.4 636.32 539.19 635.45 539.98 634.58 540.77 633.7 541.55 632.83 542.33 631.95 543.12 631.07 543.9 630.19 544.68 629.3 545.47 628.41 546.25 627.53 547.04 626.63 547.82 625.74 548.6 624.84 549.38 623.95 550.17 623.04 550.95 622.15 551.74 621.24 552.52 620.34 553.31 619.43 554.09 618.52 554.87 617.6 555.65 616.69 556.44 615.77 557.22 614.85 558 613.93 558.78 613 559.56 612.07 560.34 612.07 560.34 612.07 560.34 610.99 561.25 609.89 562.16 608.8 563.07 607.69 563.98 606.58 564.9 605.46 565.81 604.34 566.72 603.21 567.62 602.08 568.53 600.92 569.44 599.77 570.34 598.61 571.24 597.44 572.13 596.25 573.02 595.06 573.91 593.85 574.79 592.64 575.66 591.47 576.47 590.29 577.28 589.14 578.02 587.99 578.76 586.87 579.42 585.75 580.08 584.65 580.67 583.56 581.26 582.49 581.77 581.42 582.28 580.37 582.71 579.33 583.14 578.31 583.5 577.28 583.86 576.29 584.13 575.28 584.41 574.33 584.62 573.37 584.82 572.46 584.96 571.55 585.1 570.69 585.17 569.82 585.24 569 585.24 568.18 585.24 567.41 585.18 566.64 585.11 565.91 584.97 565.19 584.84 564.51 584.64 563.83 584.44 563.21 584.17 563.21 584.17 563.21 584.17 563.16 584.83 563.12 585.5 563.08 586.16 563.04 586.82 563 587.49 562.96 588.15 562.92 588.82 562.88 589.48 562.84 590.15 562.81 590.82 562.77 591.48 562.74 592.15 562.71 592.82 562.67 593.49 562.64 594.17 562.61 594.84 562.58 595.51 562.55 596.18 562.53 596.86 562.5 597.54 562.47 598.21 562.45 598.89 562.43 599.57 562.4 600.25 562.38 600.93 562.36 601.61 562.34 602.3 562.32 602.98 562.31 603.67 562.29 604.35 562.27 605.04 562.26 605.73 562.25 606.42 562.24 607.12 562.23 607.81 562.22 608.51 562.21 609.2 562.2 609.9 562.19 610.6 562.19 611.3 562.19 612 562.18 612.71 562.18 613.41 562.18 614.12 562.18 614.83 562.18 615.54 562.19 616.25 562.19 616.96 562.19 617.67 562.2 618.39 562.21 619.1 562.21 619.82 562.22 620.54 562.23 621.25 562.23 621.97 562.24 622.69 562.25 623.41 562.25 624.12 562.26 624.84 562.26 625.55 562.26 626.26 562.26 626.97 562.25 627.67 562.24 628.26 562.24 628.26 562.24 628.26M566.58 545.53Q566.5 546.39 566.44 547.21 566.37 548.04 566.33 548.83 566.29 549.62 566.27 550.37 566.25 551.12 566.25 551.84 566.24 552.56 566.26 553.24 566.28 553.92 566.32 554.56 566.36 555.2 566.42 555.8 566.48 556.41 566.56 556.98 566.63 557.54 566.73 558.07 566.83 558.6 566.95 559.1 567.18 560.08 567.5 560.91 567.81 561.74 568.2 562.42 568.59 563.1 569.05 563.62 569.52 564.15 570.11 564.51 570.69 564.87 571.41 565.06 572.12 565.25 572.96 565.27 573.79 565.3 574.75 565.15 575.71 565.01 576.8 564.7 577.88 564.39 579.09 563.91 580.3 563.43 581.64 562.8 582.97 562.16 584.44 561.36 585.9 560.55 587.26 559.72 588.62 558.89 589.88 558.03 591.14 557.18 592.3 556.3 593.46 555.42 594.52 554.52 595.58 553.62 596.54 552.7 597.51 551.78 598.37 550.84 599.24 549.91 600.01 548.95 600.79 548 601.46 547.02 602.14 546.05 602.78 545 603.43 543.96 604.04 542.85 604.35 542.3 604.65 541.72 604.95 541.15 605.24 540.56 605.53 539.97 605.81 539.36 606.09 538.76 606.37 538.13 606.64 537.51 606.91 536.87 607.17 536.22 607.43 535.56 607.68 534.9 607.93 534.23 608.18 533.55 608.41 532.85 608.65 532.15 608.88 531.44 609.1 530.72 609.32 529.99 609.54 529.25 609.74 528.5 609.95 527.74 610.14 526.97 610.14 526.97 610.14 526.97 610.37 526.06 610.6 525.15 610.83 524.23 611.05 523.32 611.28 522.41 611.5 521.49 611.72 520.58 611.95 519.67 612.17 518.75 612.39 517.84 612.61 516.92 612.83 516.01 613.04 515.09 613.26 514.18 613.47 513.26 613.69 512.34 613.9 511.43 614.11 510.51 614.32 509.59 614.53 508.67 614.74 507.75 614.95 506.84 615.15 505.92 615.36 505 615.56 504.08 615.76 503.16 615.96 502.24 616.16 501.32 616.36 500.39 616.56 499.47 616.75 498.55 616.95 497.63 617.14 496.71 617.33 495.78 617.52 494.86 617.71 493.94 617.9 493.01 618.09 492.09 618.27 491.16 618.45 490.24 618.63 489.31 618.81 488.39 618.99 487.46 619.17 486.53 619.34 485.61 619.52 484.68 619.69 483.75 619.86 482.83 620.02 481.9 620.19 480.97 620.35 480.04 620.52 479.11 620.68 478.18 620.83 477.26 620.99 476.33 621.14 475.4 621.3 474.47 621.45 473.54 621.59 472.6 621.74 471.67 621.88 470.74 622.02 469.81 622.16 468.88 622.29 467.95 622.37 467.41 622.43 466.88 622.5 466.36 622.54 465.85 622.59 465.34 622.63 464.84 622.66 464.35 622.68 463.87 622.71 462.91 622.7 462.01 622.68 461.11 622.6 460.26 622.52 459.42 622.39 458.63 622.26 457.85 622.07 457.12 621.88 456.39 621.64 455.73 621.39 455.06 621.1 454.44 620.8 453.83 620.45 453.28 620.1 452.72 619.7 452.23 619.3 451.73 618.85 451.3 618.39 450.86 617.89 450.48 616.89 449.72 615.7 449.2 614.5 448.67 613.12 448.38 613.12 448.38 613.12 448.38 611.88 448.12 610.47 447.98 609.06 447.83 607.47 447.8 605.89 447.77 604.13 447.85 602.38 447.93 600.45 448.13 600.45 448.13 600.45 448.13 598.75 448.3 597.16 448.54 595.57 448.77 594.09 449.07 592.6 449.38 591.23 449.74 589.85 450.11 588.58 450.55 587.3 450.99 586.14 451.51 584.97 452.02 583.91 452.6 582.84 453.19 581.88 453.85 580.93 454.51 580.07 455.25 579.22 455.99 578.46 456.85 577.7 457.73 577.04 458.73 576.38 459.74 575.81 460.88 575.53 461.45 575.27 462.05 575.01 462.66 574.77 463.29 574.53 463.93 574.32 464.6 574.11 465.28 573.92 465.98 573.73 466.69 573.56 467.43 573.39 468.17 573.25 468.95 573.11 469.72 572.99 470.53 572.86 471.33 572.76 472.17 572.66 473.01 572.59 473.89 572.51 474.76 572.46 475.67 572.46 475.67 572.46 475.67 572.39 476.75 572.32 477.84 572.25 478.93 572.18 480.02 572.11 481.11 572.04 482.2 571.96 483.29 571.89 484.38 571.81 485.47 571.73 486.56 571.66 487.66 571.58 488.75 571.5 489.84 571.42 490.93 571.34 492.02 571.26 493.11 571.17 494.21 571.09 495.3 571 496.39 570.92 497.48 570.83 498.58 570.75 499.67 570.66 500.76 570.57 501.85 570.48 502.95 570.39 504.04 570.3 505.13 570.21 506.22 570.12 507.31 570.02 508.41 569.93 509.5 569.84 510.59 569.74 511.68 569.65 512.78 569.55 513.87 569.45 514.96 569.36 516.05 569.26 517.14 569.16 518.23 569.06 519.33 568.96 520.42 568.86 521.51 568.76 522.6 568.66 523.69 568.56 524.78 568.46 525.88 568.36 526.97 568.26 528.06 568.15 529.15 568.05 530.24 567.95 531.33 567.84 532.43 567.74 533.52 567.64 534.61 567.53 535.7 567.43 536.79 567.32 537.88 567.22 538.97 567.11 540.07 567.01 541.16 566.9 542.25 566.79 543.34 566.69 544.43 566.58 545.53 566.58 545.53 566.58 545.53"></path></svg>