<svg xmlns="http://www.w3.org/2000/svg" data-media-id="Wcv1I6Cu7zD" style="visibility: visible" viewBox="7.944999694824219 235.19000244140625 1000.9649658203125 526.489990234375" width="1005.9649658203125px" height="531.489990234375px" id="warpedSvg8">
        <defs>
            <linearGradient id="sampleGradient" gradientTransform="rotate(1)" x1="0%" y1="50%" x2="100%" y2="50%" gradientUnits="userSpaceOnUse">
                <stop offset="0%" id="first_color" stop-color="#6b6fff"></stop>
                <stop offset="100%" id="second_color" stop-color="#bc91c1"></stop>
            </linearGradient>
            <filter id="contrast0">
                <feComponentTransfer>
                    <feFuncR type="linear" slope="1"></feFuncR>
                    <feFuncG type="linear" slope="1"></feFuncG>
                    <feFuncB type="linear" slope="1"></feFuncB>
                </feComponentTransfer>
            </filter>
            <filter id="contrast1">
                <feComponentTransfer>
                    <feFuncR type="linear" slope="1"></feFuncR>
                    <feFuncG type="linear" slope="1"></feFuncG>
                    <feFuncB type="linear" slope="1"></feFuncB>
                </feComponentTransfer>
            </filter>
        </defs>
    <path fill="#828f90" d="M206.14 294.75Q207.53 294.19 208.93 293.63 210.32 293.08 211.71 292.52 213.11 291.97 214.51 291.43 215.91 290.89 217.31 290.35 218.71 289.81 220.11 289.29 221.52 288.76 222.92 288.23 224.33 287.71 225.73 287.19 227.14 286.68 228.55 286.17 229.96 285.66 231.38 285.16 232.79 284.66 234.2 284.16 235.62 283.66 237.04 283.17 238.46 282.68 239.87 282.2 241.29 281.71 242.71 281.23 244.14 280.76 245.56 280.29 246.98 279.81 248.41 279.35 249.84 278.89 251.26 278.43 250.34 279.93 249.45 281.46 248.57 283 247.7 284.54 246.85 286.09 245.99 287.64 245.14 289.19 244.29 290.75 243.44 292.3 242.6 293.86 241.75 295.41 240.91 296.96 240.07 298.51 239.22 300.06 238.38 301.61 237.54 303.16 236.7 304.71 235.86 306.25 235.02 307.79 234.19 309.33 233.35 310.87 232.52 312.41 231.69 313.94 230.86 315.47 230.03 317 229.2 318.52 228.38 320.05 227.55 321.57 226.73 323.08 225.9 324.6 225.07 326.11 224.25 327.62 223.42 329.12 222.59 330.63 221.75 332.12 220.92 333.62 220.08 335.11 219.24 336.6 218.39 338.08 217.54 339.56 216.69 341.04 215.83 342.51 214.97 343.98 214.1 345.45 213.23 346.91 212.36 348.37 211.48 349.82 210.6 351.28 209.71 352.72 208.81 354.16 207.91 355.6 207.01 357.04 206.1 358.47 205.18 359.9 204.26 361.32 203.33 362.74 202.4 364.15 201.46 365.56 200.52 366.97 199.57 368.37 198.61 369.77 197.65 371.16 196.69 372.55 195.72 373.94 196.05 374.62 196.39 375.3 196.73 375.98 197.08 376.66 197.43 377.35 197.78 378.03 198.13 378.72 198.48 379.41 198.84 380.1 199.2 380.79 199.56 381.49 199.93 382.18 200.29 382.88 200.66 383.58 201.03 384.28 201.41 384.98 201.78 385.68 202.16 386.39 202.54 387.09 202.93 387.8 203.31 388.51 203.7 389.22 204.09 389.93 204.48 390.64 204.88 391.36 205.27 392.07 205.67 392.79 206.07 393.51 206.48 394.23 206.88 394.95 207.29 395.67 207.7 396.4 208.11 397.12 208.52 397.85 208.94 398.58 209.36 399.3 209.78 400.03 210.2 400.77 210.62 401.5 211.05 402.23 211.47 402.97 211.9 403.7 212.33 404.44 212.77 405.18 213.2 405.92 213.64 406.66 214.08 407.4 214.52 408.14 214.96 408.89 215.4 409.63 215.85 410.38 216.29 411.12 216.74 411.87 217.19 412.62 217.65 413.37 218.1 414.12 218.56 414.88 219.01 415.63 219.47 416.38 219.93 417.14 220.39 417.89 220.86 418.65 221.32 419.41 221.79 420.17 222.26 420.93 222.73 421.69 223.2 422.45 223.67 423.21 224.15 423.98 224.62 424.74 225.1 425.5 225.58 426.27 226.06 427.04 226.54 427.8 227.02 428.57 227.5 429.34 227.99 430.11 228.48 430.88 228.96 431.65 229.45 432.42 229.94 433.2 230.43 433.97 230.93 434.74 231.42 435.52 231.92 436.29 232.41 437.07 232.91 437.84 233.41 438.62 233.91 439.4 234.41 440.18 234.91 440.95 235.42 441.73 235.92 442.51 236.43 443.29 236.93 444.07 237.44 444.85 237.95 445.64 238.46 446.42 238.97 447.2 239.48 447.98 240 448.77 240.51 449.55 241.02 450.33 241.54 451.12 242.06 451.9 242.57 452.69 243.09 453.47 243.61 454.26 244.13 455.04 244.65 455.83 245.17 456.61 245.7 457.4 246.22 458.19 246.75 458.98 247.27 459.76 247.8 460.55 248.32 461.34 248.85 462.13 249.38 462.92 249.91 463.71 250.44 464.5 250.97 465.29 251.5 466.09 252.03 466.88 252.57 467.67 253.1 468.47 253.63 469.27 253.74 469.84 251.67 469.93 249.16 469.93 246.65 469.93 244.14 469.93 241.62 469.93 239.11 469.93 236.6 469.93 234.09 469.94 231.58 470.08 229.07 470.23 226.56 470.37 224.06 470.52 221.55 470.62 219.04 470.73 216.53 470.83 214.02 470.92 211.51 470.93 208.99 470.93 206.48 470.93 203.97 470.93 201.45 470.93 198.94 470.93 196.43 470.93 193.92 470.93 191.4 470.93 188.89 470.93 186.38 470.93 183.87 470.93 181.35 470.93 178.84 470.93 176.33 470.93 173.81 470.93 173.18 469.96 172.57 468.86 171.97 467.76 171.36 466.65 170.75 465.55 170.14 464.44 169.52 463.33 168.91 462.23 168.3 461.12 167.69 460.02 167.07 458.91 166.46 457.81 165.85 456.71 165.24 455.6 164.63 454.5 164.02 453.4 163.41 452.3 162.81 451.21 162.2 450.11 161.6 449.02 161 447.93 160.4 446.84 159.8 445.75 159.21 444.66 158.62 443.58 158.03 442.5 157.45 441.42 156.87 440.34 156.29 439.27 155.71 438.2 155.14 437.13 154.57 436.06 154.01 435 153.45 433.94 152.89 432.88 152.34 431.83 151.79 430.78 151.24 429.73 150.7 428.69 150.16 427.65 149.63 426.62 149.1 425.58 148.58 424.55 148.06 423.53 147.55 422.51 147.04 421.49 146.53 420.48 146.03 419.47 145.54 418.46 145.05 417.46 144.56 416.46 144.09 415.47 143.61 414.48 143.14 413.49 142.68 412.51 142.22 411.54 141.77 410.56 141.32 409.6 140.88 408.63 140.45 407.67 140.02 406.72 139.59 405.77 139.18 404.82 138.76 403.88 137.37 403.98 135.97 404.07 134.57 404.16 133.18 404.25 131.78 404.34 130.38 404.43 128.98 404.51 127.57 404.6 126.17 404.68 124.77 404.77 123.36 404.85 121.96 404.94 120.55 405.02 119.15 405.1 117.74 405.18 116.33 405.25 115.93 406.19 115.53 407.13 115.13 408.08 114.73 409.02 114.34 409.97 113.94 410.92 113.55 411.87 113.17 412.82 112.78 413.78 112.4 414.74 112.01 415.7 111.63 416.66 111.26 417.63 110.88 418.6 110.51 419.57 110.14 420.54 109.77 421.52 109.4 422.5 109.04 423.48 108.67 424.46 108.31 425.45 107.95 426.44 107.59 427.43 107.24 428.42 106.89 429.42 106.53 430.42 106.19 431.43 105.84 432.44 105.49 433.45 105.15 434.46 104.81 435.48 104.47 436.5 104.13 437.53 103.79 438.56 103.46 439.59 103.13 440.62 102.8 441.66 102.47 442.71 102.14 443.75 101.81 444.81 101.49 445.86 101.17 446.92 100.85 447.98 100.53 449.05 100.21 450.12 99.89 451.2 99.58 452.27 99.27 453.36 98.96 454.44 98.65 455.53 98.34 456.63 98.03 457.73 97.73 458.83 97.43 459.93 97.12 461.04 96.82 462.15 96.53 463.26 96.23 464.38 95.94 465.49 95.64 466.61 95.35 467.72 95.07 468.84 94.78 469.95 94.53 470.93 92.07 470.93 89.61 470.93 87.15 470.93 84.69 470.93 82.23 470.92 79.77 470.92 77.31 470.92 74.85 470.91 72.39 470.85 69.93 470.78 67.48 470.72 65.02 470.65 62.56 470.51 60.1 470.37 57.65 470.24 55.19 470.11 52.73 470.06 50.27 470.01 47.82 469.97 45.36 469.92 42.9 469.92 40.44 469.92 37.98 469.92 35.52 469.92 33.06 469.92 30.6 469.92 28.14 469.92 25.68 469.92 23.35 469.97 21.02 470.03 18.7 470.09 16.45 470.18 16.62 469.18 16.94 467.98 17.26 466.78 17.59 465.58 17.91 464.38 18.23 463.18 18.56 461.97 18.88 460.77 19.2 459.57 19.51 458.42 19.71 457.81 19.91 457.22 20.11 456.63 20.31 456.04 20.51 455.45 20.7 454.86 20.9 454.27 21.1 453.68 21.3 453.09 21.5 452.5 21.72 451.92 21.94 451.34 22.16 450.76 22.38 450.18 22.61 449.6 22.83 449.02 23.05 448.43 23.27 447.85 23.49 447.27 23.72 446.7 23.96 446.12 24.2 445.55 24.45 444.98 24.69 444.41 24.93 443.84 25.18 443.26 25.42 442.69 25.66 442.12 25.91 441.55 26.16 440.98 26.42 440.42 26.69 439.86 26.95 439.29 27.21 438.73 27.48 438.17 27.74 437.61 28.01 437.04 28.27 436.48 28.53 435.92 28.81 435.36 29.09 434.81 29.38 434.26 29.66 433.71 29.95 433.15 30.23 432.6 30.51 432.05 30.8 431.5 31.08 430.94 31.37 430.39 31.66 429.85 31.97 429.3 32.27 428.76 32.57 428.22 32.88 427.68 33.18 427.13 33.48 426.59 33.78 426.05 34.09 425.51 34.39 424.96 34.71 424.43 35.03 423.9 35.35 423.37 35.67 422.84 35.99 422.3 36.31 421.77 36.63 421.24 36.95 420.71 37.27 420.18 37.6 419.65 37.94 419.12 38.27 418.6 38.61 418.08 38.95 417.56 39.29 417.04 39.63 416.52 39.96 416 40.3 415.48 40.64 414.95 40.98 414.44 41.33 413.92 41.69 413.41 42.04 412.9 42.39 412.39 42.75 411.88 43.1 411.37 43.45 410.86 43.81 410.35 44.16 409.84 44.52 409.33 44.89 408.83 45.26 408.33 45.63 407.83 46 407.33 46.36 406.83 46.73 406.33 47.1 405.83 47.47 405.33 47.84 404.83 48.22 404.34 48.6 403.85 48.98 403.36 49.36 402.87 49.75 402.38 50.13 401.89 50.51 401.4 50.89 400.91 51.28 400.42 51.66 399.94 52.05 399.45 52.45 398.97 52.84 398.5 53.24 398.02 53.63 397.54 54.03 397.06 54.43 396.58 54.82 396.1 55.22 395.62 55.61 395.14 56.02 394.67 56.43 394.21 56.84 393.74 57.24 393.27 57.65 392.8 58.06 392.34 58.47 391.87 58.88 391.4 59.29 390.93 59.7 390.46 60.11 390.01 60.53 389.55 60.95 389.09 61.37 388.63 61.79 388.17 62.21 387.72 62.63 387.26 63.05 386.8 63.47 386.34 63.89 385.89 64.32 385.44 64.75 384.99 65.19 384.54 65.62 384.1 66.05 383.65 66.48 383.2 66.91 382.75 67.34 382.31 67.77 381.86 68.2 381.41 68.64 380.98 69.09 380.54 69.53 380.1 69.97 379.67 70.41 379.23 70.85 378.79 71.29 378.35 71.73 377.92 72.17 377.48 72.62 377.05 73.07 376.62 73.52 376.19 73.97 375.76 74.42 375.33 74.87 374.91 75.32 374.48 75.77 374.05 76.22 373.62 76.67 373.2 77.13 372.78 77.59 372.36 78.05 371.94 78.51 371.52 78.97 371.11 79.43 370.69 79.89 370.27 80.35 369.85 80.81 369.43 81.27 369.02 81.73 368.61 82.2 368.2 82.67 367.79 83.14 367.38 83.6 366.97 84.07 366.56 84.54 366.16 85.01 365.75 85.48 365.34 85.94 364.93 86.42 364.53 86.9 364.13 87.37 363.73 87.85 363.34 88.32 362.94 88.8 362.54 89.28 362.14 89.75 361.74 90.23 361.34 90.71 360.94 91.19 360.55 91.67 360.16 92.16 359.77 92.64 359.38 93.12 358.99 93.61 358.6 94.09 358.21 94.57 357.82 95.06 357.43 95.54 357.05 96.03 356.67 96.52 356.29 97.01 355.9 97.5 355.52 98 355.14 98.49 354.76 98.98 354.38 99.47 354 99.96 353.62 100.45 353.24 100.95 352.87 101.45 352.5 101.94 352.13 102.44 351.76 102.94 351.38 103.44 351.01 103.93 350.64 104.43 350.27 104.93 349.9 105.43 349.53 105.93 349.17 106.44 348.8 106.94 348.44 107.44 348.07 107.95 347.71 108.45 347.35 108.95 346.98 109.46 346.62 109.96 346.26 110.47 345.9 110.98 345.54 111.49 345.19 112 344.83 112.51 344.48 113.02 344.12 113.53 343.77 114.04 343.41 114.54 343.06 115.05 342.69 116.42 341.79 117.78 340.87 119.14 339.96 120.51 339.05 121.88 338.15 123.26 337.26 124.63 336.37 126.02 335.48 127.41 334.61 128.79 333.74 130.18 332.86 131.58 332.01 132.98 331.15 134.39 330.3 135.79 329.45 137.2 328.62 138.62 327.78 140.03 326.95 141.45 326.12 142.87 325.31 144.3 324.5 145.72 323.68 147.15 322.88 148.59 322.09 150.02 321.29 151.46 320.5 152.91 319.72 154.35 318.95 155.8 318.17 157.24 317.4 158.7 316.64 160.16 315.88 159.76 316.96 159.37 318.04 158.98 319.12 158.58 320.2 158.17 321.28 157.76 322.35 157.35 323.41 156.93 324.47 156.5 325.52 156.07 326.57 155.63 327.6 155.19 328.63 154.74 329.66 154.29 330.68 153.83 331.69 153.36 332.69 152.9 333.69 152.42 334.68 151.95 335.67 151.47 336.65 150.98 337.63 150.49 338.6 150 339.57 149.51 340.53 149.01 341.49 148.51 342.45 148.01 343.4 147.51 344.35 147 345.3 146.49 346.24 145.99 347.18 145.48 348.12 144.97 349.06 144.45 350 143.94 350.93 143.43 351.86 142.92 352.79 142.4 353.72 141.89 354.65 141.38 355.58 140.86 356.51 140.35 357.44 139.84 358.36 139.33 359.29 138.82 360.21 138.31 361.14 137.8 362.07 137.29 362.99 136.78 363.92 136.27 364.85 135.77 365.78 135.26 366.71 134.76 367.63 134.25 368.56 133.75 369.49 133.25 370.43 132.75 371.36 132.26 372.29 131.76 373.23 131.27 374.16 130.78 375.1 130.28 376.04 129.8 376.97 129.31 377.91 131.23 377.63 133.14 377.35 135.05 377.06 136.95 376.77 138.86 376.48 140.75 376.19 142.65 375.89 144.54 375.6 145.67 374.49 146.78 373.38 147.89 372.27 149 371.15 150.1 370.03 151.2 368.9 152.29 367.77 153.37 366.63 154.45 365.49 155.52 364.34 156.59 363.19 157.65 362.04 158.71 360.88 159.76 359.71 160.8 358.54 161.84 357.36 162.88 356.18 163.91 354.99 164.93 353.8 165.94 352.6 166.95 351.4 167.96 350.19 168.96 348.98 169.95 347.76 170.94 346.53 171.92 345.3 172.9 344.06 173.87 342.82 174.84 341.57 175.8 340.32 176.75 339.05 177.7 337.79 178.65 336.52 179.59 335.24 180.52 333.95 181.45 332.66 182.37 331.37 183.29 330.07 184.21 328.76 185.12 327.45 186.02 326.13 186.93 324.81 187.82 323.48 188.72 322.14 189.61 320.81 190.5 319.46 191.38 318.11 192.26 316.76 193.14 315.4 194.01 314.04 194.88 312.67 195.75 311.3 196.62 309.93 197.49 308.55 198.35 307.17 199.22 305.79 200.08 304.41 200.94 303.02 201.8 301.64 202.67 300.25 203.53 298.87 204.4 297.49 205.27 296.12 206.14 294.75 206.14 294.75 206.14 294.75M264.99 274.21Q272.33 272.09 279.69 270.03 287.07 268.04 294.47 266.12 301.9 264.29 309.33 262.53 316.79 260.83 324.26 259.21 331.74 257.66 339.24 256.18 346.76 254.77 354.28 253.42 361.82 252.15 369.37 250.94 376.93 249.79 384.49 248.72 392.07 247.71 399.66 246.76 407.25 245.88 414.85 245.06 422.46 244.31 430.07 243.62 437.69 242.99 445.31 242.42 452.94 241.92 460.57 241.48 468.21 241.1 475.85 240.78 483.49 240.53 491.13 240.34 498.77 240.2 505.68 240.19 505.7 241 505.8 241.86 505.91 242.72 506.02 243.59 506.14 244.45 506.25 245.32 506.37 246.18 506.48 247.04 506.6 247.91 506.72 248.77 506.83 249.64 506.95 250.5 507.07 251.36 507.18 252.23 507.3 253.09 507.42 253.95 507.53 254.82 507.65 255.68 507.77 256.54 507.88 257.41 508 258.27 508.12 259.13 508.23 260 508.35 260.86 508.46 261.73 508.58 262.59 508.7 263.45 508.81 264.32 508.93 265.18 509.05 266.04 509.16 266.91 509.28 267.77 509.4 268.63 509.51 269.5 509.63 270.36 509.75 271.22 509.86 272.09 509.98 272.95 510.1 273.81 510.21 274.67 510.33 275.54 510.45 276.4 510.56 277.26 510.68 278.13 510.8 278.99 510.91 279.85 511.03 280.72 511.15 281.58 511.26 282.44 511.38 283.31 511.49 284.17 511.51 285.03 511.51 285.9 511.51 286.76 511.51 287.62 511.51 288.49 511.51 289.35 511.51 290.21 511.51 291.08 511.51 291.94 511.51 292.8 511.51 293.66 511.51 294.53 511.51 295.39 511.51 296.25 511.51 297.12 511.51 297.98 511.51 298.84 511.51 299.71 511.51 300.57 511.51 301.43 511.51 302.3 511.51 303.16 511.51 304.02 511.51 304.89 511.51 305.75 511.51 306.61 511.51 307.47 511.51 308.34 511.51 309.2 511.51 310.06 511.51 310.93 511.51 311.79 511.51 312.65 511.51 313.52 511.51 314.38 511.51 315.24 511.51 316.11 511.51 316.97 511.51 317.83 511.51 318.69 511.51 319.56 511.51 320.42 511.51 321.28 511.51 322.15 511.51 323.01 511.51 323.87 511.51 324.74 511.51 325.6 511.51 326.46 511.51 327.33 511.51 328.19 511.51 329.05 511.51 329.91 511.51 330.78 511.51 331.64 511.51 332.5 511.51 333.37 511.51 334.23 511.51 335.09 511.51 335.96 511.51 336.82 511.51 337.68 511.51 338.54 511.51 339.41 511.51 340.27 511.51 341.13 511.51 342 511.51 342.86 511.51 343.72 511.51 344.59 511.51 345.45 511.51 346.31 511.51 347.18 511.51 348.04 511.51 348.9 511.51 349.76 511.51 350.63 511.51 351.49 511.51 352.35 511.51 353.22 511.51 354.08 511.51 354.94 511.51 355.81 511.51 356.67 511.51 357.53 511.51 358.4 511.51 359.26 511.51 360.12 511.51 360.98 511.51 361.85 511.51 362.71 511.51 363.57 511.51 364.44 511.51 365.3 511.51 366.16 511.51 367.03 511.51 367.89 511.51 368.75 511.51 369.62 511.51 370.48 511.51 371.34 511.51 372.2 511.51 373.07 511.51 373.93 511.51 374.79 511.51 375.66 511.51 376.52 511.51 377.38 511.51 378.25 511.51 379.11 511.51 379.97 511.51 380.83 511.51 381.7 511.51 382.56 511.51 383.42 511.51 384.29 511.51 385.15 511.51 386.01 511.51 386.88 511.51 387.74 511.51 388.6 511.51 389.47 511.51 390.33 511.51 391.19 511.51 392.05 511.51 392.92 511.51 393.78 511.51 394.64 511.51 395.51 511.51 396.37 511.51 397.23 511.51 398.1 511.51 398.96 511.51 399.82 511.51 400.69 511.51 401.55 511.51 402.41 511.51 403.27 511.51 404.14 511.51 405 511.51 405.86 511.51 406.73 511.51 407.59 511.51 408.45 511.51 409.32 511.51 410.18 511.51 411.04 511.51 411.9 511.51 412.77 511.51 413.63 511.51 414.49 511.51 415.36 511.51 416.22 511.51 417.08 511.51 417.95 511.51 418.81 511.51 419.67 511.51 420.54 511.51 421.4 511.51 422.26 511.51 423.12 511.51 423.99 511.51 424.85 511.51 425.71 511.51 426.58 511.51 427.44 511.51 428.3 511.51 429.17 511.51 430.03 511.51 430.89 511.51 431.76 511.51 432.62 511.51 433.48 511.51 434.34 511.51 435.21 511.51 436.07 511.51 436.93 511.51 437.8 511.51 438.66 511.51 439.52 511.51 440.39 511.51 441.25 511.51 442.11 511.51 442.98 511.51 443.84 511.51 444.7 511.51 445.57 511.51 446.43 511.51 447.29 511.51 448.15 511.51 449.02 511.51 449.88 511.51 450.74 511.51 451.61 511.51 452.47 511.51 453.33 511.52 454.2 511.52 455.06 511.52 455.92 511.52 456.78 511.52 457.65 511.52 458.51 511.53 459.37 511.55 460.23 510.89 460.84 504.62 461.19 496.89 461.61 489.15 461.99 481.4 462.23 473.67 462.81 465.92 462.95 458.17 463.35 450.44 463.87 442.68 463.92 434.94 464.49 427.2 464.8 419.45 465.07 411.7 465.44 403.96 465.85 396.21 466.02 388.46 466.41 380.72 466.85 372.96 466.93 365.21 467.33 357.47 467.71 349.71 467.91 341.95 467.91 334.19 467.92 326.45 468.32 318.7 468.69 310.95 468.91 303.19 468.91 295.43 468.92 287.68 469.23 279.94 469.62 272.2 469.91 264.73 469.93 264.42 469.29 264.44 468.53 264.45 467.76 264.46 466.99 264.47 466.23 264.48 465.46 264.49 464.7 264.5 463.93 264.52 463.17 264.53 462.4 264.54 461.64 264.55 460.87 264.56 460.11 264.57 459.34 264.59 458.58 264.6 457.81 264.61 457.05 264.62 456.29 264.63 455.52 264.64 454.76 264.65 453.99 264.67 453.23 264.68 452.46 264.69 451.7 264.7 450.93 264.71 450.17 264.72 449.4 264.73 448.64 264.75 447.87 264.76 447.11 264.77 446.34 264.78 445.58 264.79 444.81 264.8 444.05 264.82 443.28 264.83 442.52 264.84 441.75 264.85 440.99 264.86 440.22 264.87 439.46 264.88 438.69 264.9 437.93 264.91 437.16 264.92 436.4 264.93 435.63 264.94 434.87 264.95 434.1 264.97 433.34 264.98 432.57 264.99 431.81 265 431.05 265 430.28 265 429.52 265 428.75 265 427.99 265 427.22 265 426.46 265 425.69 265 424.93 265 424.16 265 423.4 265 422.63 265 421.87 265 421.1 265 420.34 265 419.57 265 418.81 265 418.04 265 417.28 265 416.51 265 415.75 265 414.98 265 414.22 265 413.45 265 412.69 265 411.92 265 411.16 265 410.39 265 409.63 265 408.86 265 408.1 265 407.33 265 406.57 265 405.81 265 405.04 265 404.28 265 403.51 265 402.75 265 401.98 265 401.22 265 400.45 265 399.69 265 398.92 265 398.16 265 397.39 265 396.63 265 395.86 265 395.1 265 394.33 265 393.57 265 392.8 265 392.04 265 391.27 265 390.51 265 389.74 265 388.98 265 388.21 265 387.45 265 386.68 265 385.92 265 385.15 265 384.39 265 383.62 265 382.86 265 382.09 265 381.33 265 380.56 265 379.8 265 379.04 265 378.27 265 377.51 265 376.74 265 375.98 265 375.21 265 374.45 265 373.68 265 372.92 265 372.15 265 371.39 265 370.62 265 369.86 265 369.09 265 368.33 265 367.56 265 366.8 265 366.03 265 365.27 265 364.5 265 363.74 265 362.97 265 362.21 265 361.44 265 360.68 265 359.91 265 359.15 265 358.38 265 357.62 265 356.85 265 356.09 265 355.32 265 354.56 265 353.79 265 353.03 265 352.27 265 351.5 265 350.74 265 349.97 265 349.21 265 348.44 265 347.68 265 346.91 265 346.15 265 345.38 265 344.62 265 343.85 265 343.09 265 342.32 265 341.56 265 340.79 265 340.03 265 339.26 265 338.5 265 337.73 265 336.97 265 336.2 265 335.44 265 334.67 265 333.91 265 333.14 265 332.38 265 331.61 265 330.85 265 330.08 265 329.32 265 328.55 265 327.79 265 327.02 265 326.26 265 325.49 265 324.73 265 323.96 265 323.2 265 322.43 265 321.67 265 320.9 265 320.14 265 319.37 265 318.61 265 317.84 265 317.08 265 316.32 265 315.55 265 314.79 265 314.02 265 313.26 265 312.49 265 311.73 265 310.96 265 310.2 265 309.43 265 308.67 265 307.9 265 307.14 265 306.37 265 305.61 265 304.84 265 304.08 265 303.31 265 302.55 265 301.78 265 301.02 265 300.25 265 299.49 265 298.72 265 297.96 265 297.19 265 296.43 265 295.66 265 294.9 265 294.13 265 293.36 265 292.6 265 291.83 265 291.07 265 290.3 265 289.54 265 288.77 265 288.01 265 287.24 265 286.48 265 285.71 264.99 284.95 264.99 284.18 264.99 283.42 264.99 282.65 264.99 281.88 264.99 281.12 264.99 280.35 264.99 279.59 264.99 278.82 264.99 278.06 264.99 277.29 264.99 276.52 264.99 275.76 264.99 274.99 264.99 274.21 264.99 274.21 264.99 274.21M759.66 310.45Q759.66 311.57 759.66 312.69 759.66 313.81 759.66 314.93 759.66 316.06 759.66 317.18 759.66 318.3 759.66 319.42 759.66 320.54 759.66 321.67 759.66 322.79 759.66 323.91 759.66 325.03 759.66 326.16 759.66 327.28 759.66 328.4 759.66 329.52 759.66 330.64 759.66 331.77 759.66 332.89 759.66 334.01 759.66 335.13 759.66 336.25 759.66 337.38 759.66 338.5 759.66 339.62 759.66 340.74 759.66 341.86 759.66 342.99 759.66 344.11 759.66 345.23 759.66 346.35 759.66 347.47 759.66 348.6 759.66 349.72 759.66 350.84 759.66 351.96 759.66 353.08 759.66 354.21 759.66 355.33 759.66 356.45 759.66 357.57 759.66 358.69 759.66 359.82 759.66 360.94 759.66 362.06 759.66 363.18 759.66 364.3 759.66 365.43 759.66 366.55 759.66 367.67 759.66 368.79 759.66 369.91 759.66 371.04 759.66 372.16 759.66 373.28 759.66 374.4 759.66 375.52 759.66 376.65 759.66 377.77 759.66 378.89 759.66 380.01 759.66 381.13 759.66 382.26 759.66 383.38 759.66 384.5 759.66 385.62 759.66 386.74 759.66 387.86 759.66 388.99 759.66 390.11 759.66 391.23 759.66 392.35 759.66 393.47 759.66 394.6 759.66 395.72 759.66 396.84 759.66 397.96 759.66 399.08 759.66 400.21 759.66 401.33 759.66 402.45 759.66 403.57 759.66 404.69 759.66 405.82 759.66 406.94 759.66 408.06 759.66 409.18 759.66 410.3 759.66 411.43 759.66 412.55 759.66 413.67 759.66 414.79 759.66 415.91 759.66 417.04 759.66 418.16 759.66 419.28 759.66 420.4 759.66 421.52 759.66 422.65 759.66 423.77 759.66 424.89 759.66 426.01 759.66 427.13 759.66 428.25 759.66 429.38 759.66 430.5 759.66 431.62 759.66 432.74 759.66 433.86 759.66 434.99 759.66 436.11 759.66 437.23 759.66 438.35 759.66 439.47 759.66 440.6 759.66 441.72 759.66 442.84 759.66 443.96 759.66 445.08 759.66 446.21 759.66 447.33 759.66 448.45 759.66 449.57 759.66 450.69 759.66 451.81 759.67 452.93 759.43 453.83 757.13 453.93 754.33 453.92 751.53 453.92 748.73 453.89 745.93 453.82 743.13 453.75 740.33 453.68 737.54 453.49 734.75 453.28 731.96 453.07 729.16 452.93 726.36 452.93 723.55 452.93 720.75 452.93 717.95 452.93 715.14 452.92 712.34 452.92 709.53 452.92 706.73 452.92 703.93 452.92 701.12 452.92 698.32 452.92 695.51 452.92 692.71 452.92 689.91 452.97 687.12 453.25 684.34 453.53 681.55 453.81 678.75 453.92 675.95 453.92 673.14 453.92 670.34 453.92 670.32 452.85 670.3 451.62 670.27 450.39 670.25 449.17 670.23 447.95 670.21 446.74 670.18 445.54 670.16 444.33 670.14 443.13 670.12 441.93 670.1 440.74 670.08 439.54 670.06 438.34 670.04 437.14 670.02 435.94 670 434.74 669.98 433.54 669.97 432.34 669.95 431.13 669.93 429.93 669.91 428.72 669.89 427.52 669.88 426.31 669.86 425.1 669.84 423.89 669.83 422.67 669.81 421.46 669.79 420.24 669.78 419.03 669.76 417.81 669.75 416.59 669.73 415.37 669.72 414.15 669.7 412.93 669.69 411.71 669.68 410.48 669.66 409.26 669.65 408.03 669.64 406.81 669.63 405.58 669.61 404.35 669.6 403.13 669.59 401.9 669.58 400.67 669.57 399.43 669.56 398.2 669.55 396.97 669.54 395.74 669.53 394.5 669.52 393.27 669.51 392.03 669.5 390.8 669.49 389.56 669.48 388.33 669.47 387.09 669.46 385.85 669.46 384.61 669.45 383.37 669.44 382.13 669.43 380.89 669.43 379.65 669.42 378.41 669.41 377.17 669.41 375.93 669.4 374.69 669.4 373.44 669.39 372.2 669.38 370.96 669.38 369.71 669.37 368.46 669.37 367.22 669.37 365.97 669.36 364.73 669.36 363.48 669.35 362.23 669.35 360.98 669.35 359.73 669.34 358.48 669.34 357.23 669.34 355.98 669.33 354.73 669.33 353.48 669.33 352.22 669.33 350.97 669.32 349.72 669.32 348.46 669.32 347.2 669.32 345.95 669.32 344.69 669.32 343.43 669.32 342.17 669.32 340.91 669.31 339.65 669.31 338.39 669.31 337.13 669.31 335.86 669.31 334.6 669.31 333.33 669.32 332.06 669.32 330.8 669.32 329.53 669.32 328.26 669.32 326.98 669.32 325.71 669.32 324.43 669.33 323.16 669.33 321.88 669.33 320.6 669.33 319.32 669.34 318.03 669.34 316.75 669.34 315.46 669.35 314.17 669.35 312.87 669.36 311.58 669.36 310.28 669.37 308.98 669.38 307.68 669.38 306.37 669.39 305.06 669.4 303.75 669.4 302.43 669.41 301.11 669.42 299.79 669.43 298.46 669.44 297.13 669.45 295.79 669.46 294.45 669.47 293.17 668.59 291.92 667.71 290.66 665.94 289.44 664.17 288.21 661.99 287.41 659.81 286.61 657.21 286.26 657.21 286.26 657.21 286.26 655.02 285.96 652.83 285.66 650.64 285.37 648.45 285.09 646.26 284.8 644.07 284.52 641.88 284.25 639.69 283.97 637.49 283.7 635.3 283.44 633.1 283.17 630.91 282.91 628.71 282.66 626.52 282.41 624.32 282.16 622.12 281.91 619.52 281.63 617.32 281.9 615.12 282.18 613.32 283.01 611.52 283.84 610.61 284.93 609.71 286.02 609.7 287.37 609.7 287.37 609.7 287.37 609.69 288.77 609.68 290.18 609.67 291.58 609.66 292.97 609.65 294.37 609.64 295.75 609.64 297.14 609.63 298.52 609.62 299.9 609.62 301.28 609.61 302.66 609.61 304.03 609.6 305.4 609.6 306.77 609.6 308.13 609.59 309.5 609.59 310.86 609.59 312.22 609.58 313.58 609.58 314.93 609.58 316.29 609.58 317.64 609.57 318.99 609.57 320.34 609.57 321.69 609.57 323.04 609.57 324.39 609.57 325.73 609.57 327.07 609.57 328.42 609.57 329.76 609.57 331.1 609.57 332.44 609.57 333.77 609.57 335.11 609.57 336.45 609.57 337.78 609.58 339.12 609.58 340.45 609.58 341.78 609.58 343.12 609.59 344.45 609.59 345.78 609.59 347.11 609.59 348.44 609.6 349.76 609.6 351.09 609.61 352.42 609.61 353.75 609.61 355.07 609.62 356.4 609.62 357.72 609.63 359.05 609.64 360.37 609.64 361.69 609.65 363.02 609.65 364.34 609.66 365.66 609.67 366.98 609.68 368.3 609.68 369.62 609.69 370.94 609.7 372.26 609.71 373.58 609.72 374.9 609.73 376.21 609.74 377.53 609.75 378.85 609.76 380.16 609.78 381.48 609.79 382.8 609.8 384.11 609.82 385.42 609.83 386.74 609.84 388.05 609.86 389.36 609.88 390.67 609.89 391.99 609.91 393.3 609.93 394.61 609.95 395.91 609.97 397.22 609.99 398.53 610.01 399.84 610.03 401.14 610.05 402.45 610.08 403.75 610.1 405.06 610.13 406.36 610.15 407.66 610.18 408.96 610.21 410.26 610.24 411.56 610.27 412.86 610.3 414.16 610.33 415.45 610.36 416.75 610.39 418.04 610.43 419.33 610.46 420.62 610.5 421.91 610.53 423.2 610.57 424.48 610.6 425.77 610.64 427.05 610.68 428.33 610.72 429.61 610.75 430.88 610.79 432.16 610.83 433.43 610.87 434.7 610.91 435.96 610.94 437.23 610.98 438.49 611.02 439.75 611.06 441.01 611.1 442.26 611.13 443.51 611.17 444.76 611.21 446.01 611.24 447.25 611.28 448.5 611.32 449.74 611.35 450.99 611.39 452.24 611.42 453.49 611.45 454.77 611.48 455.9 608.68 455.92 605.88 455.92 603.07 455.92 600.27 456 597.49 456.28 594.7 456.55 591.91 456.83 589.11 456.92 586.31 456.95 583.51 456.98 580.71 457.05 577.92 457.31 575.13 457.57 572.34 457.83 569.54 457.97 566.74 458.05 563.94 458.13 561.15 458.22 558.35 458.43 555.56 458.63 552.77 458.83 549.97 458.98 547.18 459.08 544.38 459.19 541.58 459.3 538.79 459.47 536 459.65 533.2 459.83 530.41 459.98 527.61 460.09 524.82 460.21 522.13 460.34 521.91 459.12 521.8 457.74 521.68 456.36 521.57 454.99 521.46 453.61 521.34 452.24 521.23 450.86 521.11 449.49 521 448.11 520.89 446.73 520.77 445.36 520.66 443.98 520.55 442.61 520.43 441.23 520.32 439.85 520.2 438.48 520.09 437.1 519.98 435.73 519.86 434.35 519.75 432.98 519.63 431.6 519.52 430.22 519.41 428.85 519.29 427.47 519.18 426.1 519.06 424.72 518.95 423.35 518.84 421.97 518.72 420.59 518.61 419.22 518.49 417.84 518.38 416.47 518.37 415.09 518.37 413.72 518.37 412.34 518.37 410.96 518.37 409.59 518.37 408.21 518.37 406.84 518.37 405.46 518.37 404.08 518.37 402.71 518.37 401.33 518.37 399.96 518.37 398.58 518.37 397.21 518.37 395.83 518.37 394.45 518.37 393.08 518.37 391.7 518.37 390.33 518.37 388.95 518.37 387.58 518.37 386.2 518.37 384.82 518.37 383.45 518.37 382.07 518.37 380.7 518.37 379.32 518.37 377.94 518.37 376.57 518.37 375.19 518.37 373.82 518.37 372.44 518.37 371.07 518.37 369.69 518.37 368.31 518.37 366.94 518.37 365.56 518.37 364.19 518.37 362.81 518.37 361.44 518.37 360.06 518.37 358.68 518.37 357.31 518.37 355.93 518.37 354.56 518.37 353.18 518.37 351.8 518.37 350.43 518.37 349.05 518.37 347.68 518.37 346.3 518.37 344.93 518.37 343.55 518.37 342.17 518.37 340.8 518.37 339.42 518.37 338.05 518.37 336.67 518.37 335.3 518.37 333.92 518.37 332.54 518.37 331.17 518.37 329.79 518.37 328.42 518.37 327.04 518.37 325.66 518.37 324.29 518.37 322.91 518.37 321.54 518.37 320.16 518.37 318.79 518.37 317.41 518.37 316.03 518.37 314.66 518.37 313.28 518.37 311.91 518.37 310.53 518.37 309.15 518.37 307.78 518.37 306.4 518.37 305.03 518.37 303.65 518.37 302.28 518.37 300.9 518.37 299.52 518.37 298.15 518.37 296.77 518.37 295.4 518.37 294.02 518.37 292.64 518.37 291.27 518.37 289.89 518.37 288.52 518.37 287.14 518.37 285.77 518.37 284.39 518.37 283.01 518.45 281.67 518.52 280.33 518.68 279.05 518.84 277.76 519.08 276.52 519.32 275.28 519.63 274.09 519.95 272.9 520.34 271.75 520.74 270.61 521.21 269.51 521.69 268.42 522.24 267.37 522.79 266.32 523.43 265.31 524.06 264.31 524.77 263.36 525.49 262.4 526.28 261.49 527.07 260.58 527.94 259.71 528.81 258.84 529.76 258.02 530.72 257.2 531.75 256.42 532.78 255.64 533.89 254.9 535 254.16 536.2 253.46 537.39 252.76 538.66 252.1 539.94 251.44 541.29 250.82 542.64 250.2 544.08 249.63 545.51 249.05 547.03 248.51 548.54 247.98 550.13 247.5 551.73 247.01 553.4 246.58 555.08 246.14 556.83 245.76 558.59 245.38 560.42 245.05 562.25 244.73 564.16 244.46 566.08 244.19 568.07 243.98 570.06 243.77 572.13 243.62 574.2 243.48 576.34 243.39 578.49 243.3 580.72 243.28 582.94 243.25 585.25 243.29 587.55 243.33 589.93 243.43 592.31 243.54 594.77 243.7 597.23 243.87 599.77 244.11 599.77 244.11 599.77 244.11 602.31 244.35 604.84 244.59 607.38 244.85 609.91 245.1 612.45 245.37 614.98 245.65 617.51 245.93 620.04 246.22 622.58 246.51 625.11 246.81 627.64 247.12 630.16 247.44 632.69 247.76 635.22 248.09 637.74 248.43 640.27 248.78 642.79 249.13 645.31 249.49 647.84 249.86 650.36 250.24 652.88 250.62 655.39 251.01 657.91 251.41 660.43 251.81 662.94 252.23 665.45 252.65 667.97 253.07 670.48 253.5 672.99 253.95 675.49 254.4 678 254.86 680.51 255.32 683.01 255.79 685.43 256.31 687.86 256.82 690.2 257.38 692.54 257.94 694.8 258.54 697.05 259.14 699.23 259.78 701.41 260.43 703.51 261.11 705.6 261.79 707.62 262.51 709.63 263.23 711.56 263.99 713.5 264.75 715.35 265.54 717.2 266.33 718.97 267.15 720.75 267.98 722.44 268.83 724.13 269.68 725.74 270.55 727.35 271.42 728.89 272.32 730.42 273.2 731.88 274.11 733.34 275 734.72 275.91 736.1 276.81 737.41 277.72 738.72 278.62 739.95 279.52 741.18 280.41 742.34 281.31 743.5 282.2 744.58 283.09 745.66 283.98 746.67 284.87 747.68 285.76 748.62 286.65 749.55 287.54 750.41 288.45 751.27 289.35 752.05 290.26 752.83 291.17 753.53 292.1 754.24 293.03 754.87 293.97 755.49 294.92 756.04 295.88 756.6 296.85 757.07 297.83 757.54 298.82 757.94 299.82 758.33 300.83 758.65 301.86 758.97 302.89 759.21 303.94 759.45 304.99 759.61 306.07 759.77 307.15 759.72 308.23 759.65 309.32 759.66 310.45 759.66 310.45 759.66 310.45 759.66 310.45 759.66 310.45M912.81 418.87Q910.82 418.4 908.82 417.93 906.83 417.45 904.85 416.98 902.86 416.5 900.88 416.03 898.91 415.55 896.93 415.08 894.96 414.6 892.99 414.13 891.02 413.65 889.06 413.18 887.1 412.71 885.14 412.23 883.19 411.76 881.24 411.29 881.07 410.5 880.91 409.72 880.74 408.94 880.57 408.15 880.4 407.37 880.23 406.59 880.05 405.8 879.88 405.02 879.7 404.23 879.52 403.45 879.34 402.67 879.16 401.88 878.98 401.1 878.79 400.32 878.6 399.53 878.42 398.75 878.23 397.97 878.04 397.18 877.84 396.4 877.65 395.62 877.45 394.83 877.26 394.05 877.06 393.27 876.86 392.48 876.66 391.7 876.46 390.92 876.25 390.14 876.05 389.36 875.84 388.57 875.63 387.79 875.43 387.01 875.22 386.23 876.83 386.68 878.45 387.14 880.07 387.59 881.7 388.05 883.32 388.5 884.95 388.96 886.58 389.41 888.21 389.86 889.84 390.32 891.47 390.77 893.11 391.22 894.75 391.67 896.39 392.12 898.03 392.58 899.68 393.03 901.33 393.48 902.98 393.93 904.63 394.38 906.29 394.82 907.94 395.27 909.6 395.72 911.27 396.17 912.93 396.61 914.6 397.06 916.27 397.5 917.94 397.95 919.62 398.39 921.3 398.83 922.98 399.27 924.66 399.72 926.35 400.16 928.04 400.59 929.73 401.03 931.43 401.47 933.13 401.91 934.83 402.34 936.53 402.78 938.24 403.21 939.95 403.64 941.66 404.08 943.37 404.51 945.09 404.94 946.81 405.37 948.53 405.8 950.25 406.23 951.98 406.65 953.71 407.08 955.44 407.51 957.17 407.93 958.91 408.36 960.65 408.78 962.39 409.2 964.13 409.63 965.87 410.05 967.61 410.48 969.35 410.9 971.09 411.32 972.84 411.75 974.58 412.17 976.32 412.6 978.06 413.03 979.8 413.46 981.54 413.89 982.97 414.25 983.52 415.08 984.05 415.91 984.59 416.74 985.13 417.57 985.66 418.4 986.2 419.23 986.73 420.06 987.24 420.91 987.75 421.76 988.26 422.6 988.77 423.45 989.28 424.3 989.78 425.15 990.26 426.01 990.74 426.88 991.23 427.74 991.71 428.6 992.19 429.47 992.67 430.33 993.12 431.21 993.57 432.09 994.02 432.97 994.47 433.85 994.93 434.73 995.38 435.61 995.8 436.5 996.22 437.4 996.64 438.29 997.06 439.19 997.48 440.08 997.9 440.98 998.3 441.88 998.68 442.79 999.07 443.7 999.46 444.61 999.84 445.52 1000.23 446.43 1000.6 447.35 1000.95 448.27 1001.3 449.2 1001.65 450.12 1002 451.05 1002.35 451.97 1002.69 452.9 1003.01 453.83 1003.32 454.77 1003.63 455.71 1003.95 456.65 1004.26 457.58 1004.57 458.52 1004.85 459.47 1005.13 460.42 1005.41 461.37 1005.69 462.32 1005.96 463.27 1006.24 464.21 1006.48 465.17 1006.72 466.13 1006.95 467.09 1007.19 468.05 1007.42 469.01 1007.66 469.97 1007.87 470.94 1008.06 471.91 1008.28 472.98 1008.57 474.05 1008.86 475.11 1008.91 476.08 1008.91 477.05 1008.82 477.97 1008.72 478.9 1008.54 479.76 1008.35 480.63 1008.06 481.44 1007.76 482.25 1007.35 483 1006.94 483.76 1006.43 484.45 1005.92 485.15 1005.31 485.78 1004.68 486.41 1003.95 486.99 1003.21 487.55 1002.36 488.06 1001.5 488.55 1000.54 488.98 999.56 489.4 998.47 489.75 997.37 490.09 996.16 490.36 994.92 490.62 993.58 490.8 992.22 490.96 990.76 491.05 989.29 491.12 987.72 491.13 986.14 491.12 984.49 491.04 982.85 490.96 981.16 490.82 979.48 490.67 977.76 490.48 976.07 490.29 974.34 490.05 972.64 489.82 970.9 489.54 969.19 489.28 967.42 488.97 965.67 488.69 963.87 488.37 962.08 488.07 960.23 487.74 958.38 487.43 956.47 487.07 954.58 486.7 952.64 486.23 950.72 485.73 948.73 485.16 946.75 484.59 944.68 484.02 942.6 483.53 940.43 483.02 938.27 482.51 936.03 481.96 933.79 481.4 931.48 480.75 929.17 480.1 926.79 479.45 926.79 479.45 926.79 479.45 924.36 478.82 921.93 478.2 919.5 477.58 917.06 476.95 914.63 476.36 912.19 475.77 909.76 475.19 907.32 474.6 904.88 474.04 902.44 473.49 899.99 472.93 897.55 472.38 895.13 471.74 892.7 471.09 890.28 470.45 887.85 469.8 885.39 469.33 882.93 468.87 880.46 468.41 878 467.94 875.53 467.49 873.07 467.03 870.6 466.57 868.14 466.11 865.65 465.75 863.17 465.4 860.68 465.04 858.19 464.69 855.71 464.31 853.23 463.92 850.75 463.54 848.27 463.16 845.82 462.8 843.46 462.48 841.09 462.16 838.8 461.77 836.5 461.39 834.28 461 832.05 460.6 829.9 460.19 827.75 459.78 825.68 459.36 823.6 458.93 821.6 458.5 819.6 458.06 817.67 457.62 815.74 457.18 813.89 456.73 812.03 456.3 810.25 455.88 808.47 455.47 806.77 455.05 805.06 454.63 803.43 454.19 801.81 453.74 800.26 453.27 798.71 452.79 797.25 452.29 795.79 451.78 794.4 451.24 793.03 450.69 791.73 450.11 790.44 449.52 789.23 448.9 788.03 448.26 786.9 447.59 785.79 446.91 784.75 446.2 783.72 445.47 782.77 444.71 781.83 443.95 780.96 443.15 780.1 442.34 779.32 441.51 778.54 440.67 777.83 439.81 777.13 438.94 776.51 438.04 775.88 437.14 775.34 436.22 774.79 435.3 774.32 434.35 773.85 433.4 773.46 432.43 773.07 431.46 772.75 430.46 772.43 429.47 772.19 428.46 771.94 427.44 771.77 426.4 771.6 425.37 771.51 424.31 771.41 423.25 771.39 422.18 771.36 421.1 771.41 420.01 771.41 420.01 771.41 420.01 771.43 419.17 771.43 418.34 771.43 417.5 771.43 416.67 771.43 415.83 771.43 414.99 771.43 414.16 771.43 413.32 771.43 412.49 771.43 411.65 771.43 410.82 771.43 409.98 771.43 409.15 771.43 408.31 771.43 407.47 771.43 406.64 771.43 405.8 771.43 404.97 771.43 404.13 771.43 403.3 771.43 402.46 771.43 401.62 771.43 400.79 771.43 399.95 771.43 399.12 771.43 398.28 771.43 397.45 771.43 396.61 771.43 395.78 771.43 394.94 771.43 394.1 771.43 393.27 771.43 392.43 771.43 391.6 771.43 390.76 771.43 389.93 771.43 389.09 771.43 388.25 771.43 387.42 771.43 386.58 771.43 385.75 771.43 384.91 771.43 384.08 771.43 383.24 771.43 382.41 771.43 381.57 771.43 380.73 771.43 379.9 771.43 379.06 771.43 378.23 771.43 377.39 771.43 376.56 771.43 375.72 771.43 374.88 771.43 374.05 771.43 373.21 771.43 372.38 771.43 371.54 771.43 370.71 771.43 369.87 771.43 369.03 771.43 368.2 771.43 367.36 771.43 366.53 771.43 365.69 771.43 364.86 771.43 364.02 771.43 363.19 771.43 362.35 771.43 361.51 771.43 360.68 771.43 359.84 771.43 359.01 771.43 358.17 771.43 357.34 771.42 356.5 771.42 355.66 771.42 354.83 771.42 353.99 771.42 353.16 771.42 352.32 771.42 351.49 771.42 350.65 771.42 349.81 771.42 348.98 771.42 348.14 771.42 347.31 771.42 346.47 771.42 345.64 771.42 344.8 771.42 343.96 771.42 343.13 771.42 342.29 771.42 341.46 771.42 340.62 771.42 339.79 771.42 338.95 771.42 338.12 771.42 337.28 771.42 336.44 771.42 335.61 771.42 334.77 771.42 333.94 771.42 333.1 771.42 332.27 771.42 331.43 771.42 330.59 771.42 329.76 771.42 328.92 771.42 328.09 771.42 327.25 771.42 326.42 771.42 325.58 771.42 324.74 771.42 323.91 771.42 323.07 771.42 322.24 771.42 321.4 771.42 320.57 771.42 319.73 771.42 318.89 771.42 318.06 771.42 317.22 771.42 316.39 771.42 315.55 771.42 314.72 771.42 313.88 771.42 313.04 771.42 311.95 771.48 310.91 771.54 309.87 771.66 308.88 771.78 307.89 771.97 306.96 772.15 306.03 772.4 305.15 772.64 304.27 772.94 303.44 773.24 302.62 773.61 301.84 773.97 301.07 774.39 300.35 774.81 299.63 775.28 298.97 775.76 298.3 776.29 297.69 776.82 297.08 777.41 296.52 778 295.96 778.64 295.45 779.27 294.95 779.97 294.49 780.65 294.04 781.39 293.63 782.13 293.23 782.92 292.88 783.7 292.52 784.53 292.22 785.35 291.92 786.22 291.67 787.09 291.42 788.01 291.22 788.91 291.01 789.87 290.86 790.82 290.71 791.82 290.62 792.82 290.52 793.87 290.48 794.91 290.44 796.01 290.46 797.1 290.48 798.24 290.55 799.39 290.63 800.59 290.76 801.78 290.9 803.03 291.09 804.28 291.29 805.59 291.55 806.89 291.81 808.25 292.13 809.61 292.45 811.02 292.84 812.44 293.23 813.91 293.68 815.37 294.13 816.9 294.64 818.43 295.16 820.01 295.75 821.59 296.33 823.22 296.98 824.86 297.63 826.55 298.35 826.55 298.35 826.55 298.35 828.27 299.08 829.98 299.82 831.7 300.56 833.41 301.31 835.12 302.06 836.82 302.83 838.53 303.59 840.23 304.36 841.92 305.14 843.62 305.93 845.32 306.71 847 307.51 848.69 308.32 850.37 309.12 852.05 309.94 853.73 310.76 855.41 311.58 857.08 312.41 858.75 313.25 860.41 314.1 862.08 314.94 863.74 315.81 865.39 316.67 867.05 317.53 868.7 318.41 870.34 319.29 871.99 320.18 873.62 321.07 875.26 321.98 876.89 322.89 878.52 323.8 880.14 324.72 881.74 325.64 883.29 326.55 884.83 327.49 886.34 328.43 887.84 329.38 889.3 330.33 890.75 331.3 892.16 332.27 893.57 333.25 894.94 334.23 896.31 335.23 897.63 336.22 898.96 337.22 900.25 338.23 901.53 339.24 902.78 340.26 904.03 341.27 905.24 342.29 906.46 343.31 907.64 344.33 908.83 345.35 910 346.37 911.16 347.38 912.31 348.38 913.46 349.38 914.6 350.37 915.75 351.34 916.89 352.3 918.04 353.25 919.19 354.19 920.35 355.1 921.51 356 922.68 356.88 923.85 357.74 925.04 358.59 926.22 359.42 927.41 360.24 928.59 361.04 929.79 361.83 930.96 362.61 932.15 363.38 933.31 364.15 934.49 364.9 935.63 365.66 936.79 366.4 937.91 367.15 939.04 367.89 940.13 368.63 941.23 369.37 942.29 370.11 943.36 370.84 944.39 371.58 945.42 372.32 946.41 373.06 947.4 373.8 948.34 374.55 949.29 375.3 950.21 376.05 951.12 376.8 951.99 377.56 952.84 378.32 953.53 379.05 954.22 379.78 954.99 380.55 954.99 380.55 954.99 380.55 955.71 381.27 956.42 381.99 957.13 382.72 957.83 383.45 958.53 384.18 959.24 384.91 959.94 385.64 960.63 386.38 961.32 387.12 962 387.87 962.69 388.62 963.37 389.37 964.05 390.11 964.73 390.87 965.4 391.63 966.06 392.4 964.01 391.8 961.67 391.13 959.34 390.47 957.01 389.8 954.68 389.13 952.36 388.47 950.04 387.8 947.73 387.12 945.43 386.45 943.13 385.77 940.84 385.09 938.56 384.41 936.29 383.72 934.02 383.03 931.77 382.34 929.52 381.64 927.28 380.95 925.04 380.24 922.82 379.54 920.6 378.83 918.39 378.12 916.18 377.41 913.98 376.69 911.79 375.97 909.61 375.25 907.43 374.53 905.26 373.81 903.09 373.08 900.93 372.35 898.77 371.62 896.62 370.9 894.47 370.16 893.96 369.04 893.46 367.91 892.95 366.78 892.44 365.65 891.93 364.52 891.42 363.39 890.91 362.26 890.39 361.12 889.88 359.99 889.37 358.85 888.86 357.71 888.35 356.57 887.85 355.42 887.34 354.27 886.84 353.12 886.34 351.96 885.93 351.01 884.94 349.89 883.95 348.77 882.4 347.49 880.85 346.2 879.17 345.14 877.5 344.08 875.68 343.26 875.68 343.26 875.68 343.26 873.89 342.46 872.1 341.67 870.31 340.87 868.52 340.08 866.73 339.29 864.94 338.51 863.14 337.72 861.35 336.94 859.56 336.17 857.76 335.4 855.96 334.63 854.17 333.87 852.37 333.1 850.57 332.35 848.77 331.59 846.97 330.84 845.14 330.09 843.68 329.85 842.21 329.61 841.1 329.88 839.98 330.15 839.51 330.82 839.05 331.48 839.25 332.52 839.25 332.52 839.25 332.52 839.42 333.4 839.59 334.29 839.76 335.17 839.93 336.05 840.1 336.93 840.27 337.81 840.44 338.68 840.61 339.56 840.78 340.43 840.95 341.3 841.12 342.17 841.29 343.04 841.46 343.91 841.63 344.78 841.8 345.64 841.97 346.51 842.14 347.37 842.31 348.24 842.47 349.1 842.64 349.96 842.81 350.82 842.98 351.68 843.15 352.54 843.32 353.4 843.49 354.26 843.65 355.12 843.82 355.97 843.99 356.83 844.15 357.69 844.32 358.54 844.48 359.4 844.65 360.25 844.81 361.11 844.98 361.96 845.14 362.82 845.3 363.67 845.47 364.52 845.63 365.38 845.79 366.23 845.95 367.08 846.11 367.94 846.27 368.79 846.43 369.64 846.59 370.49 846.74 371.34 846.9 372.2 847.06 373.05 847.21 373.9 847.37 374.75 847.52 375.6 847.67 376.45 847.82 377.3 847.98 378.16 848.13 379.01 848.28 379.86 848.43 380.71 848.57 381.56 848.72 382.41 848.87 383.26 849.01 384.11 849.16 384.96 849.3 385.81 849.44 386.66 849.58 387.51 849.72 388.36 849.86 389.21 850 390.06 850.14 390.91 850.27 391.76 850.41 392.61 850.54 393.46 850.68 394.3 850.81 395.15 850.94 396 851.07 396.85 851.2 397.7 851.33 398.55 851.45 399.39 851.58 400.24 851.7 401.09 851.82 401.93 851.95 402.78 852.07 403.63 852.19 404.47 852.3 405.32 852.42 406.16 852.54 407.01 852.65 407.85 852.76 408.7 852.88 409.54 852.99 410.38 853.1 411.22 853.2 412.06 853.31 412.9 853.42 413.74 853.52 414.58 853.62 415.42 853.72 416.26 853.82 417.1 853.92 417.93 854.02 418.77 854.12 419.6 854.21 420.43 854.31 421.26 854.4 422.09 854.49 422.92 854.58 423.75 854.67 424.58 854.75 425.4 854.84 426.22 854.93 427.05 855.01 427.87 855.09 428.68 855.17 429.5 855.25 430.31 855.33 431.13 855.41 431.94 855.48 432.75 855.56 433.55 855.63 434.35 855.7 435.16 855.78 435.95 855.85 436.75 855.92 437.54 855.99 438.33 856.05 439.12 856.12 439.9 856.19 440.68 856.26 441.59 857.19 442.55 858.11 443.51 859.89 444.52 861.66 445.52 863.8 446.27 865.94 447.02 868.44 447.52 868.44 447.52 868.44 447.52 870.91 448.01 873.38 448.52 875.85 449.02 878.33 449.54 880.81 450.06 883.29 450.58 885.77 451.11 888.25 451.65 890.74 452.19 893.23 452.74 895.73 453.29 898.22 453.85 900.72 454.41 903.22 454.98 905.73 455.55 908.24 456.13 910.79 456.73 912.92 456.91 915.05 457.09 916.75 456.85 918.45 456.61 919.26 456.04 920.07 455.47 919.97 454.57 919.97 454.57 919.97 454.57 919.85 453.51 919.72 452.44 919.59 451.36 919.45 450.28 919.3 449.19 919.15 448.1 918.98 447 918.81 445.9 918.64 444.8 918.45 443.69 918.27 442.58 918.07 441.46 917.87 440.34 917.66 439.22 917.44 438.1 917.22 436.98 916.99 435.85 916.75 434.73 916.51 433.6 916.26 432.47 916.01 431.34 915.74 430.21 915.48 429.07 915.2 427.94 914.93 426.81 914.64 425.67 914.35 424.54 914.05 423.41 913.75 422.27 913.45 421.14 913.13 420.01 912.81 418.87 912.81 418.87 912.81 418.87"></path><path fill="#221a21" d="M72.51 513.95Q70.7 513.86 68.89 513.78 67.07 513.69 65.25 513.61 63.43 513.52 61.6 513.43 59.77 513.34 57.94 513.25 56.11 513.16 54.27 513.07 52.43 512.97 50.58 512.88 48.74 512.78 46.89 512.68 45.03 512.58 43.18 512.47 41.32 512.36 39.45 512.25 37.59 512.14 35.72 512.03 33.85 511.91 31.98 511.78 30.11 511.65 28.23 511.52 26.36 511.39 24.48 511.25 22.61 511.1 20.73 510.96 18.86 510.81 17 510.65 15.14 510.5 13.29 510.34 13.23 509.36 13.17 508.38 13.11 507.41 13.05 506.43 13.03 505.58 13.01 504.78 13 503.97 12.98 503.17 12.97 502.36 12.95 501.56 12.94 500.75 12.95 499.92 12.97 499.07 12.99 498.23 13.01 497.38 13.03 496.54 13.05 495.69 13.07 494.84 13.13 493.94 13.19 493.03 13.25 492.11 13.31 491.2 13.38 490.29 13.44 489.37 13.5 488.46 13.59 487.58 13.69 486.71 13.79 485.83 13.89 484.96 13.99 484.09 14.09 483.21 14.19 482.33 15.91 482 17.62 481.66 19.34 481.32 21.06 480.98 22.77 480.64 24.49 480.3 26.12 480.08 27.6 480.08 29.07 480.08 30.55 480.08 32.02 480.07 33.5 480.07 34.97 480.07 36.45 480.07 37.92 480.07 39.4 480.07 40.87 480.07 42.35 480.07 43.82 480.07 45.3 480.07 46.77 480.1 48.25 480.12 49.72 480.15 51.19 480.18 52.67 480.21 54.14 480.23 55.62 480.27 57.09 480.35 58.56 480.43 60.03 480.52 61.51 480.6 62.98 480.68 64.45 480.76 65.92 480.82 67.4 480.86 68.87 480.9 70.35 480.94 71.82 480.98 73.29 481.02 74.77 481.05 76.24 481.07 77.72 481.07 79.19 481.07 80.67 481.07 82.14 481.07 83.61 481.07 85.09 481.07 86.56 481.07 88.04 481.07 89.51 481.07 90.99 481.07 92.46 481.07 93.94 481.07 95.41 481.07 96.89 481.07 98.36 481.07 99.84 481.07 101.31 481.07 102.79 481.07 104.26 481.07 105.73 481.07 107.21 481.07 108.68 481.07 110.16 481.07 111.63 481.07 113.11 481.07 114.58 481.07 116.06 481.07 117.53 481.07 119.01 481.07 120.48 481.07 121.96 481.07 123.43 481.07 124.9 481.07 126.38 481.07 127.85 481.07 129.33 481.07 130.8 481.07 132.28 481.07 133.75 481.07 135.23 481.07 136.7 481.07 138.18 481.07 139.65 481.07 141.13 481.07 142.6 481.07 144.07 481.07 145.55 481.07 147.02 481.07 148.5 481.07 149.97 481.07 151.45 481.07 152.92 481.07 154.4 481.07 155.87 481.07 157.35 481.07 158.82 481.07 160.3 481.07 161.77 481.07 163.24 481.07 164.72 481.07 166.19 481.07 167.67 481.07 169.14 481.07 170.62 481.07 172.09 481.07 173.57 481.07 175.04 481.07 176.52 481.07 177.99 481.07 179.47 481.07 180.94 481.07 182.41 481.07 183.89 481.07 185.36 481.07 186.84 481.07 188.31 481.07 189.79 481.07 191.26 481.07 192.74 481.07 194.21 481.07 195.69 481.07 197.16 481.07 198.63 481.07 200.11 481.07 201.58 481.07 203.06 481.07 204.3 481.13 204.15 482.36 204.02 483.64 203.9 484.93 203.78 486.21 203.66 487.5 203.53 488.78 203.41 490.07 203.29 491.35 203.17 492.64 203.05 493.92 202.93 495.21 202.8 496.5 202.68 497.78 202.56 499.07 202.44 500.35 202.32 501.64 202.19 502.92 202.07 504.21 201.95 505.49 201.83 506.78 201.71 508.06 201.59 509.35 201.46 510.63 201.34 511.92 201.22 513.2 201.1 514.49 200.98 515.77 200.86 517.06 200.73 518.35 200.61 519.63 200.49 520.92 200.37 522.2 199 522.03 197.39 521.83 195.79 521.64 194.18 521.45 192.58 521.27 190.97 521.09 189.36 520.92 187.74 520.75 186.12 520.58 184.49 520.42 182.86 520.26 181.22 520.11 179.58 519.95 177.93 519.81 176.28 519.66 174.63 519.52 172.97 519.38 171.3 519.25 169.63 519.12 167.96 518.99 166.28 518.86 164.6 518.74 162.92 518.62 161.23 518.5 159.54 518.39 157.85 518.27 156.15 518.16 154.45 518.05 152.74 517.94 151.04 517.84 149.33 517.73 147.62 517.63 147.61 518.92 147.61 520.22 147.61 521.51 147.61 522.8 147.62 524.1 147.62 525.39 147.63 526.69 147.64 527.98 147.65 529.28 147.67 530.58 147.69 531.87 147.71 533.17 147.73 534.46 147.75 535.76 147.78 537.06 147.81 538.35 147.84 539.65 147.87 540.94 147.91 542.24 147.95 543.53 147.99 544.83 148.03 546.12 148.07 547.42 148.11 548.71 148.16 550.01 148.21 551.3 148.26 552.6 148.31 553.89 148.37 555.18 148.42 556.48 148.48 557.77 148.54 559.06 148.6 560.36 148.66 561.65 148.72 562.94 148.78 564.23 148.85 565.52 148.92 566.82 148.98 568.11 149.05 569.4 149.12 570.69 149.2 571.98 149.27 573.27 149.35 574.56 149.42 575.85 149.5 577.14 149.58 578.44 149.66 579.73 149.74 581.02 149.82 582.31 149.9 583.6 149.98 584.89 150.07 586.18 150.15 587.47 150.24 588.76 150.33 590.04 150.42 591.33 150.51 592.62 150.6 593.91 150.69 595.2 150.78 596.49 150.87 597.78 150.96 599.07 151.06 600.36 151.15 601.65 151.25 602.95 151.35 604.24 151.44 605.53 151.54 606.82 151.64 608.11 151.74 609.4 151.84 610.69 151.94 611.99 152.04 613.28 152.14 614.57 152.24 615.87 152.34 617.16 152.44 618.45 152.54 619.75 152.65 621.05 152.75 622.34 152.85 623.64 152.96 624.94 153.06 626.24 153.16 627.53 153.27 628.83 153.37 630.14 153.48 631.44 153.58 632.74 153.69 634.05 153.79 635.35 153.89 636.66 154 637.96 154.1 639.27 154.21 640.58 154.31 641.9 154.41 643.21 154.52 644.52 154.62 645.84 154.72 647.16 154.83 648.48 154.93 649.8 155.03 651.12 155.13 652.45 155.23 653.78 155.33 655.11 155.44 656.44 155.54 657.77 155.64 659.11 155.74 660.45 155.83 661.79 155.93 663.13 156.03 664.47 156.13 665.82 156.23 667.17 156.32 668.52 156.42 669.87 156.52 671.22 156.61 672.58 156.7 673.93 156.8 675.29 156.89 676.64 156.98 677.99 157.07 679.33 157.16 680.67 157.25 682 157.35 683.33 157.45 684.48 155.79 683.6 154.13 682.71 152.47 681.82 150.75 680.88 148.86 679.83 146.96 678.78 145.12 677.75 143.47 676.81 141.83 675.86 140.18 674.92 138.55 673.95 136.91 672.98 135.26 672.01 133.42 670.88 131.57 669.75 129.73 668.63 128.09 667.6 126.48 666.58 124.86 665.55 123.25 664.51 121.64 663.46 120.03 662.41 118.28 661.23 116.49 660.03 114.7 658.82 113.19 657.77 111.8 656.8 110.4 655.83 108.78 654.67 107.03 653.4 105.28 652.14 103.55 650.86 103.4 649.77 103.24 648.53 103.08 647.29 102.9 646.06 102.72 644.83 102.52 643.61 102.32 642.4 102.1 641.19 101.87 640 101.63 638.82 101.39 637.65 101.13 636.5 100.86 635.35 100.59 634.21 100.3 633.08 100.01 631.96 99.71 630.85 99.41 629.75 99.1 628.66 98.78 627.57 98.46 626.49 98.13 625.42 97.8 624.35 97.46 623.29 97.12 622.23 96.78 621.18 96.44 620.13 96.09 619.09 95.74 618.05 95.39 617.01 95.04 615.98 94.69 614.94 94.34 613.91 93.98 612.89 93.63 611.86 93.28 610.84 92.92 609.82 92.57 608.79 92.22 607.77 91.87 606.76 91.52 605.74 91.17 604.72 90.82 603.7 90.48 602.68 90.13 601.66 89.79 600.65 89.44 599.63 89.1 598.61 88.76 597.59 88.43 596.57 88.09 595.55 87.76 594.53 87.43 593.51 87.1 592.48 86.77 591.46 86.45 590.43 86.13 589.41 85.81 588.38 85.49 587.35 85.18 586.33 84.87 585.3 84.56 584.26 84.25 583.23 83.95 582.2 83.65 581.17 83.35 580.13 83.06 579.09 82.77 578.06 82.49 577.02 82.2 575.98 81.92 574.94 81.65 573.9 81.37 572.86 81.1 571.82 80.84 570.77 80.58 569.73 80.32 568.68 80.06 567.64 79.81 566.59 79.57 565.54 79.32 564.5 79.08 563.45 78.85 562.4 78.62 561.35 78.39 560.3 78.16 559.24 77.94 558.19 77.73 557.14 77.52 556.08 77.31 555.03 77.11 553.97 76.91 552.91 76.71 551.86 76.52 550.8 76.33 549.74 76.15 548.67 75.97 547.61 75.8 546.55 75.63 545.48 75.46 544.42 75.3 543.35 75.14 542.28 74.99 541.21 74.84 540.14 74.69 539.07 74.55 537.99 74.41 536.91 74.28 535.84 74.15 534.76 74.03 533.68 73.91 532.59 73.79 531.51 73.68 530.42 73.57 529.34 73.47 528.25 73.37 527.16 73.27 526.06 73.18 524.97 73.1 523.87 73.01 522.78 72.94 521.68 72.86 520.58 72.79 519.48 72.73 518.38 72.67 517.27 72.61 516.16 72.56 515.06 72.51 513.95 72.51 513.95 72.51 513.95M214.67 481.08Q220.56 480.83 226.45 480.55 232.34 480.21 238.23 480.1 244.13 480.09 250.03 480.09 255.93 480.09 261.82 480.09 267.72 480.09 273.62 480.09 279.51 479.82 285.4 479.52 291.29 479.22 297.18 479.09 303.08 479.09 308.98 479.09 314.87 479.04 320.76 478.78 326.65 478.49 332.53 478.15 338.43 478.09 344.33 478.09 350.23 478.09 356.12 477.95 362.01 477.67 367.89 477.37 373.78 477.09 379.68 477.04 385.57 476.82 391.45 476.37 397.34 476.18 402.66 476.18 402.56 477.2 402.52 478.29 402.48 479.38 402.45 480.47 402.42 481.56 402.38 482.65 402.35 483.74 402.32 484.83 402.29 485.93 402.26 487.02 402.23 488.11 402.2 489.2 402.17 490.29 402.14 491.38 402.11 492.47 402.08 493.56 402.04 494.65 402.01 495.74 401.98 496.83 401.95 497.93 401.92 499.02 401.89 500.11 401.86 501.2 401.83 502.29 401.8 503.38 401.77 504.47 401.74 505.56 401.71 506.65 401.68 507.74 401.65 508.84 401.62 509.93 401.58 511.02 401.55 512.11 401.52 513.2 401.49 514.29 401.46 515.38 401.43 516.47 401.4 517.56 401.37 518.65 401.34 519.75 401.31 520.84 401.28 521.93 401.25 523.02 401.22 524.11 401.19 525.2 401.16 526.29 401.13 527.38 401.1 528.47 401.06 529.56 401.03 530.66 401 531.75 401 532.84 401 533.93 401 535.02 401 536.11 401 537.2 401 538.29 401 539.38 401 540.47 401 541.57 401 542.66 401 543.75 401 544.84 401 545.93 401 547.02 401 548.11 401 549.2 401 550.29 401 551.38 401 552.48 401 553.57 401 554.66 401 555.75 401 556.84 401 557.93 401 559.02 401 560.11 401 561.2 401 562.29 401 563.38 401 564.48 401 565.57 401 566.66 401 567.75 401 568.84 401 569.93 401 571.02 401 572.11 401 573.2 401 574.29 401 575.39 401 576.48 401 577.57 401 578.66 401 579.75 401 580.84 401 581.93 401 583.02 401 584.11 401 585.2 401 586.3 401 587.39 401 588.48 401 589.57 401 590.66 401 591.75 401 592.84 401 593.93 401 595.02 401 596.11 401 597.2 401 598.3 401 599.39 401 600.48 401 601.57 401 602.66 401 603.75 401 604.84 401 605.93 401 607.02 401 608.11 401 609.21 401 610.3 401 611.39 401 612.48 401 613.57 401 614.66 401 615.75 401 616.84 401 617.93 401 619.02 401 620.11 401 621.21 401 622.3 401 623.39 401 624.48 401 625.57 401 626.66 401 627.75 401 628.84 401 629.93 401 631.02 401 632.12 401 633.21 401 634.3 401 635.39 401 636.48 401 637.57 401 638.66 401 639.75 401 640.84 401 641.93 401 643.03 401 644.12 401 645.21 401 646.3 401 647.39 401 648.48 401 649.57 401 650.66 401 651.75 401 652.84 401 653.93 401 655.03 401 656.12 401 657.21 401 658.3 401 659.39 401 660.48 401 661.57 401 662.66 401 663.75 401 664.84 401 665.94 401 667.03 401 668.12 401 669.21 401 670.3 401 671.39 401 672.48 401 673.57 401 674.66 401 675.75 401 676.85 401 677.94 401 679.03 401 680.12 401 681.21 401 682.3 401 683.39 401 684.48 401 685.57 401 686.66 401 687.76 401 688.85 401 689.94 401 691.03 401 692.12 401 693.21 401 694.3 401 695.39 401 696.48 401 697.58 401 698.67 401 699.76 401 700.85 401 701.94 401 703.03 401 704.12 401 705.21 401 706.3 401 707.4 401 708.49 401 709.58 401 710.67 401 711.76 401 712.85 401 713.94 401 715.03 401 716.12 401 717.22 401 718.31 401 719.4 401 720.49 401 721.58 401 722.67 401 723.76 401 724.85 401 725.94 401 727.04 401 728.13 401 729.22 401 730.31 401 731.4 401 732.49 401 733.58 401 734.68 401 735.77 401 736.86 401 737.95 401 739.04 401 740.13 401 741.22 401 742.32 401 743.41 401 744.5 401 745.59 401 746.68 401 747.77 401 748.86 401.01 749.96 401.01 751.05 401.01 752.14 401.02 753.23 401.03 754.32 400.54 754.97 396.06 754.61 390.53 753.9 384.36 753.07 378.14 752.19 371.9 751.26 365.65 750.28 359.4 749.26 353.9 748.32 347.72 747.22 342.25 746.2 336.06 745.01 329.8 743.75 323.54 742.44 317.28 741.08 311.87 739.86 305.68 738.42 300.29 737.12 294.09 735.57 287.84 733.95 281.59 732.28 276.23 730.8 270.06 729.04 264.7 727.46 258.53 725.59 252.32 723.64 246.98 721.91 240.85 719.87 235.53 718.04 229.41 715.88 224.1 713.94 218.03 711.67 212.93 709.72 212.76 708.9 212.8 708 212.84 707.11 212.88 706.21 212.92 705.32 212.95 704.43 212.99 703.53 213.03 702.64 213.07 701.74 213.11 700.85 213.15 699.96 213.18 699.06 213.22 698.17 213.26 697.28 213.3 696.38 213.33 695.49 213.37 694.59 213.41 693.7 213.45 692.81 213.49 691.91 213.52 691.02 213.56 690.13 213.6 689.23 213.64 688.34 213.67 687.45 213.71 686.55 213.75 685.66 213.79 684.77 213.83 683.87 213.86 682.98 213.9 682.08 213.94 681.19 213.98 680.3 214.01 679.4 214.05 678.51 214.09 677.62 214.13 676.72 214.16 675.83 214.2 674.94 214.24 674.04 214.28 673.15 214.32 672.26 214.35 671.36 214.39 670.47 214.43 669.58 214.47 668.68 214.5 667.79 214.54 666.9 214.58 666 214.62 665.11 214.65 664.22 214.67 663.32 214.67 662.43 214.67 661.54 214.67 660.64 214.67 659.75 214.67 658.86 214.67 657.96 214.67 657.07 214.67 656.18 214.67 655.28 214.67 654.39 214.67 653.5 214.67 652.6 214.67 651.71 214.67 650.82 214.67 649.92 214.67 649.03 214.67 648.14 214.67 647.24 214.67 646.35 214.67 645.46 214.67 644.56 214.67 643.67 214.67 642.78 214.67 641.88 214.67 640.99 214.67 640.1 214.67 639.2 214.67 638.31 214.67 637.42 214.67 636.52 214.67 635.63 214.67 634.73 214.67 633.84 214.67 632.95 214.67 632.05 214.67 631.16 214.67 630.27 214.67 629.37 214.67 628.48 214.67 627.59 214.67 626.69 214.67 625.8 214.67 624.91 214.67 624.01 214.67 623.12 214.67 622.23 214.67 621.33 214.67 620.44 214.67 619.55 214.67 618.65 214.67 617.76 214.67 616.87 214.67 615.97 214.67 615.08 214.67 614.19 214.67 613.29 214.67 612.4 214.67 611.51 214.67 610.61 214.67 609.72 214.67 608.83 214.67 607.93 214.67 607.04 214.67 606.15 214.67 605.25 214.67 604.36 214.67 603.47 214.67 602.57 214.67 601.68 214.67 600.79 214.67 599.89 214.67 599 214.67 598.11 214.67 597.21 214.67 596.32 214.67 595.43 214.67 594.53 214.67 593.64 214.67 592.75 214.67 591.85 214.67 590.96 214.67 590.07 214.67 589.17 214.67 588.28 214.67 587.39 214.67 586.49 214.67 585.6 214.67 584.71 214.67 583.81 214.67 582.92 214.67 582.03 214.67 581.13 214.67 580.24 214.67 579.35 214.67 578.45 214.67 577.56 214.67 576.67 214.67 575.77 214.67 574.88 214.67 573.99 214.67 573.09 214.67 572.2 214.67 571.31 214.67 570.41 214.67 569.52 214.67 568.63 214.67 567.73 214.67 566.84 214.67 565.95 214.67 565.05 214.67 564.16 214.67 563.27 214.67 562.37 214.67 561.48 214.67 560.59 214.67 559.69 214.67 558.8 214.67 557.91 214.67 557.01 214.67 556.12 214.67 555.23 214.67 554.33 214.67 553.44 214.67 552.55 214.67 551.65 214.67 550.76 214.67 549.87 214.67 548.97 214.67 548.08 214.67 547.19 214.67 546.29 214.67 545.4 214.67 544.51 214.67 543.61 214.67 542.72 214.67 541.83 214.67 540.93 214.67 540.04 214.67 539.15 214.67 538.25 214.67 537.36 214.67 536.47 214.67 535.57 214.67 534.68 214.67 533.79 214.67 532.89 214.67 532 214.67 531.11 214.67 530.21 214.67 529.32 214.67 528.43 214.67 527.53 214.67 526.64 214.67 525.75 214.67 524.85 214.67 523.96 214.67 523.07 214.67 522.17 214.67 521.28 214.67 520.39 214.67 519.49 214.67 518.6 214.67 517.71 214.67 516.81 214.67 515.92 214.67 515.03 214.67 514.13 214.67 513.24 214.67 512.35 214.67 511.45 214.67 510.56 214.67 509.67 214.67 508.77 214.67 507.88 214.67 506.99 214.67 506.09 214.67 505.2 214.67 504.31 214.67 503.41 214.67 502.52 214.67 501.63 214.67 500.73 214.67 499.84 214.67 498.95 214.67 498.05 214.67 497.16 214.67 496.27 214.67 495.37 214.67 494.48 214.67 493.59 214.67 492.69 214.67 491.8 214.67 490.91 214.67 490.02 214.67 489.12 214.67 488.23 214.67 487.33 214.67 486.44 214.67 485.55 214.67 484.65 214.67 483.76 214.67 482.87 214.67 481.97 214.67 481.08 214.67 481.08 214.67 481.08M535.75 642.65Q534.09 642.69 532.44 642.72 530.78 642.76 529.12 642.79 527.47 642.82 525.81 642.86 524.16 642.89 522.5 642.92 520.84 642.95 519.19 642.99 517.53 643.02 515.87 643.05 514.22 643.08 512.56 643.11 510.9 643.13 509.24 643.16 509.24 641.77 509.24 640.38 509.23 638.98 509.23 637.59 509.22 636.2 509.22 634.81 509.22 633.42 509.21 632.02 509.21 630.63 509.2 629.24 509.2 627.85 509.19 626.46 509.19 625.07 509.19 623.68 509.18 622.29 509.18 620.9 509.17 619.51 509.17 618.12 509.16 616.73 509.16 615.34 509.16 613.96 509.15 612.57 509.15 611.18 509.14 609.79 509.14 608.4 509.13 607.02 509.13 605.63 509.12 604.24 509.12 602.85 509.11 601.47 509.11 600.08 509.1 598.69 510.58 598.65 512.05 598.61 513.52 598.57 515 598.53 516.47 598.49 517.94 598.45 519.41 598.41 520.89 598.37 522.36 598.33 523.83 598.29 525.31 598.25 526.78 598.21 528.26 598.17 529.73 598.13 531.2 598.08 532.68 598.04 534.15 598 535.63 597.96 537.1 597.91 538.58 597.87 540.05 597.83 541.52 597.79 543 597.74 544.47 597.7 545.95 597.65 547.42 597.61 548.9 597.57 550.38 597.52 551.85 597.48 553.33 597.43 554.8 597.39 556.28 597.35 557.75 597.3 559.23 597.26 560.71 597.21 562.18 597.17 563.66 597.12 565.14 597.08 566.61 597.03 568.09 596.98 569.56 596.94 571.04 596.89 572.52 596.85 573.99 596.8 575.47 596.76 576.95 596.71 578.43 596.66 579.9 596.62 581.38 596.57 582.86 596.52 584.33 596.48 585.81 596.43 587.29 596.38 588.77 596.34 590.24 596.29 591.72 596.24 593.2 596.2 594.67 596.15 596.15 596.1 597.63 596.06 599.1 596.01 600.58 595.96 602.06 595.92 603.28 595.88 603.28 597.5 603.28 599.13 603.28 600.75 603.28 602.38 603.28 604 603.28 605.63 603.28 607.25 603.28 608.88 603.28 610.5 603.28 612.13 603.28 613.75 603.28 615.38 603.28 617 603.28 618.63 603.28 620.25 603.28 621.88 603.28 623.5 603.28 625.13 603.28 626.75 603.28 628.38 603.28 630 603.28 631.62 603.28 633.25 603.28 634.87 603.28 636.5 603.28 638.12 603.28 639.75 603.28 641.37 603.28 643 603.28 644.62 603.28 646.25 603.28 647.87 603.28 649.5 603.28 651.12 603.28 652.75 603.28 654.37 603.28 656 603.28 657.62 603.28 659.25 603.28 660.87 603.28 662.5 603.28 664.12 603.28 665.75 603.28 667.37 603.28 669 603.28 670.62 603.28 672.25 603.28 673.87 603.28 675.5 603.28 677.12 603.28 678.75 603.28 680.37 603.28 682 603.28 683.62 603.28 685.24 603.28 686.87 603.28 688.49 603.28 690.12 603.28 691.74 603.28 693.37 603.28 694.99 603.28 696.62 603.28 698.24 603.28 699.87 603.28 701.67 603.34 703.42 603.4 705.16 603.29 706.85 603.16 708.55 602.98 710.19 602.8 711.83 602.55 713.41 602.3 715 602 716.53 601.69 718.06 601.32 719.54 600.95 721.02 600.52 722.45 600.09 723.87 599.6 725.24 599.1 726.62 598.55 727.94 598 729.26 597.38 730.53 596.77 731.8 596.09 733.02 595.42 734.24 594.68 735.4 593.94 736.57 593.15 737.69 592.35 738.82 591.49 739.89 590.63 740.96 589.71 741.99 588.8 743.02 587.82 744 586.84 744.98 585.81 745.91 584.78 746.85 583.69 747.73 582.61 748.62 581.47 749.46 580.34 750.29 579.15 751.08 577.96 751.86 576.72 752.59 575.47 753.32 574.14 754 572.81 754.67 571.41 755.29 570 755.91 568.52 756.47 567.03 757.03 565.48 757.53 563.94 758.03 562.32 758.47 560.71 758.91 559.03 759.29 557.36 759.66 555.62 759.98 553.88 760.29 552.09 760.55 550.29 760.8 548.43 760.99 546.57 761.17 544.66 761.19 542.74 761.19 540.76 761.25 540.76 761.25 540.76 761.25 538.75 761.31 536.74 761.36 534.74 761.41 532.74 761.46 530.73 761.5 528.73 761.53 526.73 761.57 524.73 761.6 522.74 761.62 520.74 761.64 518.75 761.66 516.76 761.67 514.78 761.67 512.8 761.68 510.81 761.68 508.81 761.67 506.81 761.66 504.81 761.65 502.82 761.63 500.82 761.61 498.83 761.59 496.83 761.56 494.83 761.53 492.83 761.49 490.82 761.45 488.82 761.4 486.81 761.35 484.8 761.3 482.79 761.24 480.78 761.18 478.77 761.11 476.76 761.04 474.78 760.97 472.86 760.95 470.93 760.92 469.07 760.72 467.21 760.52 465.4 760.26 463.6 759.99 461.86 759.67 460.12 759.34 458.43 758.95 456.75 758.57 455.13 758.12 453.52 757.67 451.97 757.16 450.42 756.65 448.94 756.09 447.48 755.52 446.1 754.9 444.74 754.28 443.44 753.61 442.15 752.94 440.9 752.21 439.65 751.48 438.44 750.7 437.22 749.92 436.05 749.09 434.88 748.26 433.76 747.38 432.64 746.51 431.58 745.59 430.52 744.67 429.52 743.71 428.51 742.75 427.57 741.75 426.63 740.76 425.74 739.71 424.86 738.68 424.04 737.59 423.22 736.51 422.46 735.39 421.7 734.26 421 733.09 420.3 731.92 419.66 730.7 419.02 729.48 418.44 728.21 417.86 726.94 417.34 725.62 416.82 724.3 416.37 722.93 415.91 721.56 415.51 720.14 415.12 718.72 414.78 717.25 414.45 715.78 414.17 714.25 413.9 712.72 413.68 711.14 413.47 709.57 413.32 707.93 413.17 706.3 413.07 704.62 412.98 702.93 412.95 701.19 412.95 701.19 412.95 701.19 412.94 699.86 412.94 698.53 412.94 697.21 412.94 695.88 412.94 694.55 412.94 693.22 412.94 691.9 412.94 690.57 412.94 689.24 412.94 687.91 412.94 686.58 412.94 685.26 412.94 683.93 412.94 682.6 412.94 681.27 412.94 679.95 412.94 678.62 412.94 677.29 412.94 675.96 412.94 674.63 412.94 673.31 412.94 671.98 412.94 670.65 412.94 669.32 412.94 668 412.94 666.67 412.94 665.34 412.94 664.01 412.94 662.68 412.94 661.36 412.94 660.03 412.94 658.7 412.94 657.37 412.94 656.05 412.94 654.72 412.94 653.39 412.94 652.06 412.94 650.73 412.94 649.41 412.94 648.08 412.94 646.75 412.94 645.42 412.94 644.09 412.94 642.77 412.94 641.44 412.94 640.11 412.94 638.78 412.94 637.46 412.94 636.13 412.94 634.8 412.94 633.47 412.94 632.14 412.94 630.82 412.94 629.49 412.94 628.16 412.94 626.83 412.94 625.51 412.94 624.18 412.94 622.85 412.94 621.52 412.94 620.19 412.94 618.87 412.94 617.54 412.94 616.21 412.94 614.88 412.94 613.56 412.94 612.23 412.94 610.9 412.94 609.57 412.94 608.24 412.94 606.92 412.94 605.59 412.94 604.26 412.94 602.93 412.94 601.61 412.94 600.28 412.94 598.95 412.94 597.62 412.94 596.3 412.94 594.97 412.94 593.64 412.94 592.31 412.94 590.98 412.94 589.66 412.94 588.33 412.94 587 412.94 585.67 412.94 584.35 412.94 583.02 412.94 581.69 412.94 580.36 412.94 579.03 412.94 577.71 412.94 576.38 412.94 575.05 412.94 573.72 412.94 572.4 412.94 571.07 412.94 569.74 412.94 568.41 412.94 567.08 412.94 565.76 412.94 564.43 412.94 563.1 412.94 561.77 412.94 560.45 412.94 559.12 412.94 557.79 412.94 556.46 412.94 555.13 412.94 553.81 412.94 552.48 412.94 551.15 412.94 549.82 412.94 548.5 412.94 547.17 412.94 545.84 412.94 544.51 412.94 543.18 412.94 541.86 412.94 540.53 412.94 539.2 412.94 537.87 412.94 536.55 412.94 535.22 412.94 533.89 412.94 532.56 412.94 531.23 412.94 529.49 413 527.81 413.06 526.12 413.18 524.49 413.31 522.85 413.49 521.27 413.67 519.69 413.92 518.16 414.17 516.63 414.47 515.15 414.78 513.67 415.15 512.25 415.52 510.82 415.95 509.45 416.37 508.08 416.86 506.76 417.36 505.43 417.91 504.17 418.46 502.9 419.07 501.68 419.68 500.46 420.36 499.3 421.03 498.13 421.76 497.02 422.5 495.9 423.29 494.84 424.09 493.77 424.94 492.76 425.8 491.75 426.72 490.79 427.63 489.82 428.61 488.91 429.58 488 430.62 487.14 431.65 486.28 432.75 485.47 433.85 484.66 435 483.9 436.16 483.13 437.38 482.42 438.59 481.7 439.87 481.03 441.15 480.36 442.49 479.75 443.83 479.14 445.23 478.59 446.63 478.06 448.09 477.58 449.55 477.11 451.07 476.69 452.6 476.26 454.18 475.84 455.76 475.4 457.4 474.99 459.04 474.57 460.75 474.2 462.45 473.85 464.22 473.65 465.99 473.47 467.82 473.35 469.65 473.23 471.55 473.16 473.44 473.02 475.38 472.87 475.38 472.87 475.38 472.87 477.37 472.72 479.35 472.57 481.33 472.42 483.31 472.33 485.3 472.28 487.28 472.23 489.27 472.18 491.25 472.12 493.24 472.03 495.22 471.9 497.2 471.77 499.18 471.65 501.16 471.52 503.15 471.42 505.13 471.35 507.12 471.28 509.1 471.21 511.09 471.13 513.07 471.04 515.05 470.92 517.03 470.8 519.01 470.68 520.99 470.57 522.98 470.47 524.96 470.39 526.94 470.3 528.93 470.22 530.91 470.14 532.89 470.03 534.87 469.9 536.85 469.78 538.83 469.65 540.78 469.53 542.67 469.49 544.56 469.47 546.39 469.52 548.23 469.56 550 469.66 551.77 469.74 553.47 469.84 555.18 469.94 556.83 470.1 558.48 470.27 560.07 470.5 561.66 470.75 563.19 471.07 564.72 471.4 566.19 471.78 567.67 472.16 569.08 472.59 570.49 473.01 571.84 473.48 573.2 473.95 574.49 474.47 575.79 475 577.02 475.59 578.26 476.19 579.44 476.85 580.62 477.5 581.74 478.22 582.87 478.94 583.93 479.72 585 480.5 586.01 481.34 587.02 482.18 587.98 483.08 588.93 483.99 589.83 484.95 590.73 485.91 591.57 486.93 592.41 487.96 593.2 489.05 593.98 490.13 594.71 491.28 595.43 492.43 596.1 493.64 596.77 494.85 597.38 496.11 597.98 497.38 598.53 498.71 599.08 500.04 599.57 501.43 600.07 502.82 600.5 504.27 600.93 505.72 601.3 507.22 601.67 508.73 601.98 510.3 602.29 511.86 602.55 513.49 602.8 515.12 602.99 516.8 603.17 518.49 603.18 520.23 603.19 521.98 603.26 523.78 603.26 523.78 603.26 523.78 603.28 525.45 603.28 527.12 603.28 528.78 603.28 530.45 603.28 532.11 603.28 533.78 603.28 535.45 603.28 537.11 603.28 538.78 603.28 540.44 603.28 542.11 603.28 543.77 603.28 545.44 603.28 547.11 603.28 548.77 603.28 550.44 601.4 550.5 599.27 550.58 597.14 550.66 595 550.74 592.87 550.81 590.73 550.89 588.59 550.97 586.46 551.05 584.32 551.13 582.19 551.21 580.05 551.29 577.92 551.36 575.78 551.44 573.65 551.52 571.51 551.6 569.38 551.68 567.25 551.76 565.12 551.84 562.99 551.92 560.86 552 558.73 552.08 556.6 552.16 554.48 552.25 552.35 552.33 550.23 552.41 548.1 552.49 545.98 552.57 543.86 552.65 541.74 552.73 539.61 552.81 537.49 552.89 535.37 552.97 535.36 550.86 535.34 548.75 535.32 546.65 535.3 544.54 535.28 542.44 535.26 540.33 535.24 538.23 535.22 536.12 535.19 534.02 535.17 531.91 535.14 529.81 535.12 527.71 535.09 525.61 535.07 523.5 535.04 521.4 535.01 519.3 534.99 517.58 534.27 516.1 533.55 514.63 532.14 513.4 530.72 512.17 529 511.6 527.29 511.04 525.26 511.13 525.26 511.13 525.26 511.13 523.26 511.22 521.27 511.31 519.27 511.4 517.28 511.49 515.28 511.58 513.29 511.67 511.3 511.76 509.3 511.85 507.31 511.94 505.32 512.03 503.32 512.12 501.33 512.21 499.34 512.29 497.35 512.38 495.36 512.47 493.37 512.55 491.35 512.64 489.65 513.36 487.95 514.07 486.57 515.41 485.19 516.75 484.5 518.27 483.82 519.8 483.83 521.5 483.83 521.5 483.83 521.5 483.84 522.96 483.85 524.41 483.85 525.87 483.86 527.32 483.87 528.78 483.88 530.23 483.89 531.68 483.9 533.14 483.9 534.59 483.91 536.05 483.92 537.5 483.93 538.96 483.94 540.41 483.94 541.87 483.95 543.32 483.96 544.78 483.97 546.24 483.97 547.69 483.98 549.15 483.99 550.6 483.99 552.06 484 553.51 484.01 554.97 484.01 556.43 484.02 557.88 484.03 559.34 484.03 560.8 484.04 562.25 484.05 563.71 484.05 565.16 484.06 566.62 484.06 568.08 484.07 569.54 484.07 570.99 484.08 572.45 484.09 573.91 484.09 575.36 484.1 576.82 484.1 578.28 484.11 579.74 484.11 581.19 484.12 582.65 484.12 584.11 484.13 585.57 484.13 587.03 484.14 588.48 484.14 589.94 484.15 591.4 484.15 592.86 484.15 594.32 484.16 595.78 484.16 597.24 484.17 598.7 484.17 600.16 484.18 601.61 484.18 603.07 484.18 604.53 484.19 605.99 484.19 607.45 484.2 608.91 484.2 610.37 484.21 611.83 484.21 613.3 484.21 614.76 484.22 616.22 484.22 617.68 484.23 619.14 484.23 620.6 484.23 622.06 484.24 623.52 484.24 624.99 484.25 626.45 484.25 627.91 484.25 629.37 484.26 630.84 484.26 632.3 484.27 633.76 484.27 635.23 484.27 636.69 484.28 638.16 484.28 639.62 484.29 641.09 484.29 642.55 484.3 644.02 484.3 645.48 484.3 646.95 484.31 648.42 484.31 649.88 484.32 651.35 484.32 652.82 484.33 654.29 484.33 655.76 484.34 657.22 484.34 658.69 484.35 660.16 484.35 661.63 484.36 663.11 484.36 664.58 484.37 666.05 484.37 667.52 484.38 668.99 484.39 670.47 484.39 671.94 484.4 673.42 484.4 674.89 484.41 676.37 484.41 677.85 484.42 679.32 484.43 680.8 484.43 682.28 484.44 683.76 484.45 685.25 484.45 686.73 484.46 688.21 484.47 689.7 484.48 691.18 484.48 692.67 484.49 694.15 484.5 695.64 484.51 697.13 484.52 698.63 484.52 700.12 484.53 701.61 484.54 703.11 484.55 704.61 484.56 706.1 484.57 707.6 484.57 709.11 484.59 710.87 485.29 712.43 486 713.99 487.41 715.33 488.82 716.68 490.54 717.37 492.25 718.05 494.28 718.07 494.28 718.07 494.28 718.07 496.29 718.08 498.29 718.1 500.29 718.1 502.3 718.11 504.3 718.12 506.3 718.12 508.31 718.12 510.31 718.11 512.31 718.1 514.31 718.09 516.32 718.08 518.32 718.07 520.32 718.05 522.33 718.03 524.33 718.01 526.33 717.98 528.37 717.95 530.08 717.25 531.79 716.55 533.18 715.19 534.57 713.82 535.27 712.24 535.96 710.67 535.95 708.89 535.95 708.89 535.95 708.89 535.94 706.79 535.93 704.69 535.93 702.6 535.92 700.51 535.91 698.42 535.9 696.34 535.9 694.26 535.89 692.17 535.88 690.1 535.88 688.02 535.87 685.94 535.86 683.87 535.86 681.8 535.85 679.73 535.84 677.66 535.84 675.59 535.83 673.52 535.82 671.46 535.82 669.4 535.81 667.33 535.81 665.27 535.8 663.21 535.8 661.15 535.79 659.09 535.79 657.03 535.78 654.98 535.77 652.92 535.77 650.87 535.76 648.81 535.76 646.76 535.75 644.7 535.75 642.65 535.75 642.65 535.75 642.65M700.7 623.87Q700.7 625.91 700.7 627.95 700.7 630 700.7 632.04 700.7 634.09 700.71 636.13 700.71 638.18 700.71 640.23 700.71 642.28 700.71 644.33 700.71 646.38 700.71 648.43 700.71 650.48 700.71 652.54 700.71 654.59 700.71 656.65 700.71 658.71 700.71 660.77 700.72 662.84 700.72 664.9 700.72 666.97 700.72 669.04 700.72 671.11 700.73 673.19 700.73 675.27 700.73 677.35 700.73 679.44 700.74 681.53 700.74 683.62 700.75 685.72 700.75 687.82 700.76 689.93 703.87 689.33 706.98 688.73 710.09 688.12 713.2 687.5 716.31 686.89 719.41 686.26 722.52 685.63 725.62 685 728.72 684.37 731.82 683.73 734.92 683.09 738.02 682.44 741.12 681.8 744.22 681.15 747.31 680.5 750.41 679.85 753.5 679.2 756.59 678.55 759.68 677.9 762.77 677.26 765.86 676.62 768.94 675.98 772.03 675.34 775.12 674.71 778.2 674.09 781.29 673.47 784.37 672.86 787.46 672.25 790.54 671.66 793.63 671.07 796.71 670.49 799.48 669.98 799.48 671.36 799.48 672.75 799.48 674.13 799.48 675.52 799.48 676.9 799.48 678.29 799.48 679.67 799.48 681.06 799.48 682.44 799.48 683.83 799.48 685.21 799.48 686.6 799.48 687.99 799.48 689.37 799.48 690.76 799.48 692.14 799.48 693.53 799.48 694.91 799.48 696.3 799.48 697.68 799.48 699.07 799.48 700.45 799.48 701.84 799.48 703.22 799.48 704.61 799.48 705.99 799.48 707.38 799.49 708.76 799.49 710.14 799.49 711.53 799.5 712.91 799.27 714.02 797.14 714.97 794.52 715.92 791.46 717 788.38 718.09 785.72 719.01 783.09 719.91 780.02 720.93 776.92 721.96 774.26 722.82 771.62 723.67 768.54 724.64 765.43 725.62 762.31 726.56 759.2 727.51 756.53 728.29 753.88 729.07 750.79 729.95 747.67 730.84 745 731.58 742.35 732.31 739.25 733.14 736.12 733.98 732.99 734.79 729.87 735.59 726.74 736.37 723.61 737.15 720.92 737.8 718.26 738.44 715.16 739.17 712.03 739.89 709.33 740.5 706.66 741.1 703.55 741.78 700.42 742.46 697.29 743.11 694.16 743.77 691.03 744.4 687.9 745.02 685.18 745.55 682.48 746.07 679.38 746.65 676.25 747.23 673.13 747.79 670 748.34 667.26 748.81 664.54 749.28 661.44 749.78 658.31 750.3 655.18 750.78 652.06 751.27 648.94 751.74 645.82 752.2 642.7 752.64 639.59 753.08 636.48 753.5 633.37 753.92 630.58 754.27 627.82 754.62 625.04 754.96 622.25 755.3 619.15 755.65 616.03 756.01 612.92 756.35 609.91 756.7 609.82 755.76 609.84 754.63 609.87 753.49 609.9 752.36 609.92 751.22 609.95 750.08 609.98 748.95 610 747.81 610.03 746.67 610.06 745.54 610.09 744.4 610.11 743.27 610.14 742.13 610.17 740.99 610.19 739.86 610.22 738.72 610.25 737.59 610.28 736.45 610.3 735.31 610.33 734.18 610.36 733.04 610.38 731.91 610.41 730.77 610.44 729.63 610.47 728.5 610.49 727.36 610.52 726.23 610.55 725.09 610.58 723.95 610.6 722.82 610.63 721.68 610.66 720.55 610.68 719.41 610.71 718.27 610.74 717.14 610.77 716 610.79 714.87 610.82 713.73 610.85 712.59 610.88 711.46 610.9 710.32 610.93 709.19 610.96 708.05 610.98 706.91 611.01 705.78 611.04 704.64 611.07 703.51 611.09 702.37 611.12 701.23 611.15 700.1 611.17 698.96 611.18 697.83 611.18 696.69 611.18 695.55 611.18 694.42 611.18 693.28 611.18 692.15 611.18 691.01 611.18 689.87 611.18 688.74 611.18 687.6 611.18 686.47 611.18 685.33 611.18 684.2 611.18 683.06 611.18 681.92 611.18 680.79 611.18 679.65 611.18 678.52 611.18 677.38 611.18 676.24 611.18 675.11 611.18 673.97 611.18 672.84 611.18 671.7 611.18 670.56 611.18 669.43 611.18 668.29 611.18 667.16 611.18 666.02 611.18 664.88 611.18 663.75 611.18 662.61 611.18 661.48 611.18 660.34 611.18 659.2 611.18 658.07 611.18 656.93 611.18 655.8 611.18 654.66 611.18 653.53 611.18 652.39 611.18 651.25 611.18 650.12 611.18 648.98 611.18 647.85 611.18 646.71 611.18 645.57 611.18 644.44 611.18 643.3 611.18 642.17 611.18 641.03 611.18 639.89 611.18 638.76 611.18 637.62 611.18 636.49 611.18 635.35 611.18 634.21 611.18 633.08 611.18 631.94 611.18 630.81 611.18 629.67 611.18 628.54 611.18 627.4 611.18 626.26 611.18 625.13 611.18 623.99 611.18 622.86 611.18 621.72 611.18 620.58 611.18 619.45 611.18 618.31 611.18 617.18 611.18 616.04 611.18 614.9 611.18 613.77 611.18 612.63 611.18 611.5 611.18 610.36 611.18 609.23 611.18 608.09 611.18 606.95 611.18 605.82 611.18 604.68 611.18 603.55 611.18 602.41 611.18 601.27 611.18 600.14 611.18 599 611.18 597.87 611.18 596.73 611.18 595.59 611.18 594.46 611.18 593.32 611.18 592.19 611.18 591.05 611.18 589.91 611.18 588.78 611.18 587.64 611.18 586.51 611.18 585.37 611.18 584.24 611.18 583.1 611.18 581.96 611.18 580.83 611.18 579.69 611.18 578.56 611.18 577.42 611.18 576.28 611.18 575.15 611.18 574.01 611.18 572.88 611.18 571.74 611.18 570.6 611.18 569.47 611.18 568.33 611.18 567.2 611.18 566.06 611.18 564.92 611.18 563.79 611.18 562.65 611.18 561.52 611.18 560.38 611.18 559.25 611.18 558.11 611.18 556.97 611.18 555.84 611.18 554.7 611.18 553.57 611.18 552.43 611.18 551.29 611.18 550.16 611.18 549.02 611.18 547.89 611.18 546.75 611.18 545.61 611.18 544.48 611.18 543.34 611.18 542.21 611.18 541.07 611.18 539.93 611.18 538.8 611.18 537.66 611.18 536.53 611.18 535.39 611.18 534.26 611.18 533.12 611.18 531.98 611.18 530.85 611.18 529.71 611.18 528.58 611.18 527.44 611.18 526.3 611.18 525.17 611.18 524.03 611.18 522.9 611.18 521.76 611.18 520.62 611.18 519.49 611.18 518.35 611.18 517.22 611.18 516.08 611.18 514.94 611.18 513.81 611.18 512.67 611.18 511.54 611.18 510.4 611.18 509.26 611.18 508.13 611.18 506.99 611.18 505.86 611.18 504.72 611.18 503.59 611.18 502.45 611.18 501.31 611.18 500.18 611.18 499.04 611.18 497.91 611.18 496.77 611.18 495.63 611.18 494.5 611.18 493.36 611.18 492.23 611.18 491.09 611.18 489.95 611.18 488.82 611.18 487.68 611.18 486.55 611.18 485.41 611.18 484.27 611.18 483.14 611.18 482 611.18 480.87 611.18 479.73 611.18 478.59 611.18 477.46 611.18 476.32 611.18 475.19 611.18 474.05 611.18 472.91 611.18 471.78 611.18 470.64 611.18 469.51 611.18 468.37 611.18 467.23 611.18 466.1 614.12 465.97 617.07 465.84 620.01 465.71 622.95 465.55 625.89 465.39 628.83 465.22 631.77 465.11 634.72 465.11 637.67 465.1 640.62 465.1 643.55 464.83 646.49 464.55 649.42 464.26 652.36 464.14 655.31 464.13 658.26 464.11 661.21 464.11 664.16 464.1 667.11 464.1 670.06 464.1 673.01 464.1 675.96 464.1 678.91 464.1 681.85 463.96 684.78 463.67 687.71 463.37 690.64 463.11 693.59 463.11 696.54 463.11 699.49 463.11 702.44 463.11 705.39 463.11 708.34 463.11 711.28 463.11 714.23 463.11 717.18 463.11 720.13 463.11 723.08 463.11 726.03 463.11 728.98 463.11 731.92 463.25 734.86 463.47 737.79 463.69 740.73 463.87 743.67 463.94 746.62 464.02 749.56 464.1 752.51 464.1 755.46 464.11 758.41 464.11 761.35 464.25 764.28 464.54 767.21 464.82 770.14 465.08 773.08 465.2 776.02 465.32 778.96 465.45 781.9 465.62 784.83 465.81 787.77 466 790.7 466.23 793.63 466.53 796.56 466.82 799.21 467.16 799.19 468.46 799.19 469.82 799.2 471.18 799.2 472.54 799.21 473.9 799.22 475.26 799.23 476.62 799.24 477.98 799.25 479.34 799.25 480.7 799.26 482.06 799.27 483.43 799.28 484.79 799.29 486.15 799.3 487.51 799.31 488.87 799.31 490.23 799.32 491.59 799.33 492.95 799.34 494.32 799.35 495.68 799.36 497.04 799.37 498.4 799.37 499.76 799.38 501.12 799.39 502.48 799.4 503.84 799.41 505.21 799.42 506.57 799.43 507.93 799.43 509.29 799.44 510.65 796.66 510.78 793.56 510.91 790.46 511.04 787.36 511.15 784.26 511.26 781.16 511.37 778.06 511.46 774.96 511.55 771.86 511.64 768.76 511.72 765.67 511.79 762.57 511.86 759.47 511.93 756.37 512 753.28 512.06 750.18 512.12 747.08 512.18 743.99 512.25 740.89 512.31 737.79 512.37 734.7 512.43 731.6 512.49 728.51 512.55 725.41 512.62 722.31 512.68 719.22 512.75 716.12 512.82 713.03 512.9 709.93 512.98 706.84 513.05 703.74 513.14 700.65 513.22 700.65 515.26 700.65 517.29 700.65 519.32 700.65 521.34 700.66 523.37 700.66 525.39 700.66 527.41 700.66 529.43 700.66 531.45 700.66 533.46 700.66 535.47 700.67 537.49 700.67 539.5 700.67 541.51 700.67 543.52 700.67 545.53 700.67 547.53 700.67 549.54 700.68 551.54 700.68 553.55 700.68 555.55 700.68 557.55 700.68 559.56 700.68 561.56 700.68 563.56 700.68 565.56 700.68 567.56 700.69 569.56 700.69 571.56 700.69 573.56 700.69 575.56 700.69 577.56 703.59 577.31 706.48 577.06 709.38 576.81 712.28 576.55 715.17 576.3 718.07 576.05 720.97 575.8 723.87 575.54 726.76 575.29 729.66 575.04 732.56 574.79 735.46 574.53 738.35 574.28 741.25 574.02 744.15 573.77 747.05 573.51 749.94 573.26 752.84 573 755.74 572.74 758.64 572.48 761.53 572.23 764.43 571.97 767.33 571.7 770.23 571.44 773.12 571.18 776.02 570.91 778.92 570.65 781.82 570.38 784.71 570.11 787.61 569.84 790.51 569.57 793.4 569.3 793.4 570.62 793.4 571.94 793.4 573.26 793.4 574.58 793.4 575.9 793.41 577.22 793.41 578.54 793.41 579.86 793.41 581.18 793.41 582.5 793.41 583.82 793.41 585.14 793.41 586.46 793.41 587.78 793.41 589.1 793.41 590.42 793.41 591.74 793.41 593.06 793.41 594.38 793.41 595.7 793.41 597.02 793.41 598.34 793.41 599.66 793.41 600.98 793.41 602.3 793.41 603.62 793.41 604.94 793.41 606.26 793.41 607.59 793.41 608.91 793.41 610.23 793.41 611.55 790.51 611.92 787.62 612.3 784.72 612.68 781.82 613.07 778.93 613.45 776.03 613.83 773.14 614.22 770.24 614.6 767.34 614.99 764.45 615.37 761.55 615.76 758.65 616.15 755.76 616.53 752.86 616.92 749.96 617.31 747.07 617.7 744.17 618.08 741.27 618.47 738.37 618.86 735.48 619.25 732.58 619.63 729.68 620.02 726.78 620.41 723.89 620.8 720.99 621.18 718.09 621.57 715.19 621.95 712.29 622.34 709.4 622.72 706.5 623.1 703.6 623.49 700.7 623.87 700.7 623.87 700.7 623.87M901.69 599.72Q899.81 599.94 897.92 600.17 896.04 600.4 894.16 600.63 892.29 600.86 890.42 601.09 888.54 601.32 886.67 601.55 884.8 601.78 882.93 602.02 881.07 602.25 879.2 602.49 877.34 602.72 875.47 602.95 873.61 603.19 871.75 603.42 871.59 604.72 871.43 606.02 871.27 607.31 871.11 608.61 870.94 609.9 870.78 611.2 870.62 612.49 870.46 613.79 870.29 615.08 870.13 616.38 869.97 617.67 869.8 618.97 869.64 620.26 869.48 621.56 869.31 622.86 869.15 624.15 868.99 625.45 868.82 626.74 868.66 628.04 868.5 629.34 868.34 630.63 868.18 631.93 868.01 633.23 867.85 634.53 867.69 635.83 867.53 637.13 867.37 638.43 867.22 639.73 867.06 641.03 866.9 642.34 866.74 643.64 866.59 644.95 866.43 646.25 866.28 647.56 866.12 648.87 865.97 650.17 865.82 651.48 865.66 652.8 865.51 654.11 865.36 655.42 865.21 656.74 865.07 658.05 864.92 659.37 864.77 660.69 864.62 662.01 864.48 663.33 864.33 664.65 864.19 665.97 864.05 667.29 863.9 668.62 863.76 669.95 863.62 671.27 863.48 672.6 863.34 673.92 863.2 675.25 863.06 676.58 862.92 677.9 862.79 679.22 862.66 680.54 862.53 681.85 862.41 683.15 862.3 684.44 862.2 685.71 862.14 686.81 860.49 687.65 858.82 688.49 857.15 689.33 855.56 690.13 854.1 690.84 852.65 691.55 851.2 692.26 849.56 693.05 847.87 693.85 846.18 694.65 844.55 695.42 843.09 696.1 841.63 696.77 840.18 697.44 838.54 698.18 836.84 698.94 835.14 699.7 833.47 700.45 832 701.08 830.54 701.72 829.08 702.35 827.61 702.98 826.15 703.6 824.68 704.22 823.2 704.85 821.48 705.55 819.76 706.26 818.04 706.96 816.32 707.66 814.59 708.35 812.87 709.04 811.21 709.72 811.11 708.96 811.07 708.01 811.04 707.07 811 706.12 810.96 705.18 810.93 704.23 810.89 703.28 810.86 702.34 810.82 701.39 810.79 700.45 810.75 699.5 810.72 698.55 810.68 697.61 810.64 696.66 810.61 695.71 810.57 694.77 810.54 693.82 810.5 692.88 810.47 691.93 810.43 690.98 810.4 690.04 810.36 689.09 810.33 688.15 810.29 687.2 810.26 686.25 810.22 685.31 810.18 684.36 810.15 683.41 810.11 682.47 810.08 681.52 810.04 680.58 810.01 679.63 809.97 678.68 809.94 677.74 809.9 676.79 809.87 675.85 809.83 674.9 809.8 673.95 809.76 673.01 809.72 672.06 809.69 671.12 809.65 670.17 809.62 669.22 809.58 668.28 809.55 667.33 809.51 666.38 809.48 665.44 809.44 664.49 809.41 663.55 809.37 662.6 809.34 661.65 809.33 660.71 809.33 659.76 809.33 658.82 809.33 657.87 809.33 656.92 809.33 655.98 809.33 655.03 809.33 654.09 809.33 653.14 809.33 652.19 809.33 651.25 809.33 650.3 809.33 649.35 809.33 648.41 809.33 647.46 809.33 646.52 809.33 645.57 809.33 644.62 809.33 643.68 809.33 642.73 809.33 641.79 809.33 640.84 809.33 639.89 809.33 638.95 809.33 638 809.33 637.06 809.33 636.11 809.33 635.16 809.33 634.22 809.33 633.27 809.33 632.33 809.33 631.38 809.33 630.43 809.33 629.49 809.33 628.54 809.33 627.59 809.33 626.65 809.33 625.7 809.33 624.76 809.33 623.81 809.33 622.86 809.33 621.92 809.33 620.97 809.33 620.03 809.33 619.08 809.33 618.13 809.33 617.19 809.33 616.24 809.33 615.3 809.33 614.35 809.33 613.4 809.33 612.46 809.33 611.51 809.33 610.57 809.33 609.62 809.33 608.67 809.33 607.73 809.33 606.78 809.33 605.83 809.33 604.89 809.33 603.94 809.33 603 809.33 602.05 809.33 601.1 809.33 600.16 809.33 599.21 809.33 598.27 809.33 597.32 809.33 596.37 809.33 595.43 809.33 594.48 809.33 593.54 809.33 592.59 809.33 591.64 809.33 590.7 809.33 589.75 809.33 588.81 809.33 587.86 809.33 586.91 809.33 585.97 809.33 585.02 809.33 584.08 809.33 583.13 809.33 582.18 809.33 581.24 809.33 580.29 809.33 579.34 809.33 578.4 809.33 577.45 809.33 576.51 809.33 575.56 809.33 574.61 809.33 573.67 809.33 572.72 809.33 571.78 809.34 570.83 809.34 569.88 809.34 568.94 809.34 567.99 809.34 567.05 809.34 566.1 809.34 565.15 809.34 564.21 809.34 563.26 809.34 562.32 809.34 561.37 809.34 560.42 809.34 559.48 809.34 558.53 809.34 557.58 809.34 556.64 809.34 555.69 809.34 554.75 809.34 553.8 809.34 552.85 809.34 551.91 809.34 550.96 809.34 550.02 809.34 549.07 809.34 548.12 809.34 547.18 809.34 546.23 809.34 545.29 809.34 544.34 809.34 543.39 809.34 542.45 809.34 541.5 809.34 540.56 809.34 539.61 809.34 538.66 809.34 537.72 809.34 536.77 809.34 535.82 809.34 534.88 809.34 533.93 809.34 532.99 809.34 532.04 809.34 531.09 809.34 530.15 809.34 529.2 809.34 528.26 809.34 527.31 809.34 526.36 809.34 525.42 809.34 524.47 809.34 523.53 809.34 522.58 809.34 521.63 809.34 520.69 809.34 519.74 809.34 518.79 809.34 517.85 809.34 516.9 809.34 515.96 809.34 515.01 809.34 514.06 809.34 513.12 809.34 512.17 809.34 511.23 809.34 510.28 809.34 509.33 809.34 508.39 809.34 507.44 809.34 506.49 809.34 505.55 809.34 504.6 809.34 503.66 809.34 502.71 809.34 501.76 809.34 500.82 809.34 499.87 809.34 498.93 809.34 497.98 809.34 497.03 809.34 496.09 809.34 495.14 809.34 494.19 809.34 493.25 809.34 492.3 809.34 491.36 809.34 490.41 809.34 489.46 809.34 488.52 809.34 487.57 809.34 486.63 809.34 485.68 809.34 484.73 809.34 483.79 809.34 482.84 809.34 481.89 809.34 480.95 809.34 480 809.34 479.06 809.34 478.11 809.34 477.16 809.34 476.22 809.34 475.27 809.34 474.32 809.34 473.38 809.34 472.43 809.34 471.49 809.34 470.54 809.34 469.59 809.34 468.65 809.35 467.71 811.4 467.99 813.45 468.29 815.5 468.58 817.55 468.87 819.6 469.17 821.65 469.46 823.7 469.75 825.76 470.05 827.81 470.34 829.86 470.63 831.91 470.93 833.96 471.22 836.01 471.51 838.07 471.8 840.12 472.1 842.17 472.4 844.22 472.7 846.27 473 848.32 473.31 850.37 473.62 852.42 473.93 854.46 474.25 856.51 474.56 858.56 474.87 860.61 475.17 862.66 475.46 864.71 475.75 866.77 476.05 868.81 476.37 870.85 476.75 872.88 477.12 874.92 477.5 876.95 477.88 878.99 478.26 881.02 478.64 883.06 479.02 885.09 479.41 887.12 479.79 889.13 480.28 891.13 480.81 893.14 481.34 895.14 481.87 897.14 482.41 899.15 482.87 901.17 483.33 903.18 483.79 905.2 484.24 907.22 484.71 909.23 485.19 911.24 485.67 913.25 486.16 915.26 486.64 917.27 487.14 919.28 487.65 921.29 488.16 923.29 488.68 925.3 489.19 927.3 489.72 929.3 490.26 931.3 490.81 933.3 491.35 935.3 491.89 937.3 492.43 939.31 492.97 941.3 493.51 943.23 494.07 945.15 494.64 946.98 495.36 948.8 496.09 950.56 496.84 952.32 497.59 954.03 498.34 955.76 499.02 957.44 499.67 959.13 500.32 960.76 500.99 962.39 501.68 963.96 502.4 965.52 503.15 967.03 503.93 968.54 504.72 969.99 505.53 971.45 506.35 972.87 507.19 974.29 508.02 975.67 508.87 977.06 509.72 978.42 510.57 979.8 511.42 981.14 512.27 982.51 513.1 983.84 513.95 985.2 514.78 986.52 515.62 987.86 516.44 989.16 517.27 990.47 518.09 991.73 518.9 992.98 519.71 994.15 520.51 995.3 521.31 996.36 522.1 997.39 522.88 998.32 523.67 999.22 524.45 1000.02 525.23 1000.79 526.01 1001.46 526.79 1002.12 527.57 1002.67 528.36 1003.22 529.14 1003.67 529.94 1004.11 530.73 1004.46 531.53 1004.8 532.34 1005.05 533.15 1005.29 533.97 1005.44 534.8 1005.6 535.63 1005.67 536.47 1005.74 537.32 1005.74 538.15 1005.74 538.86 1005.67 539.58 1005.6 540.3 1005.34 541.03 1005.06 541.75 1004.84 542.5 1004.84 542.5 1004.84 542.5 1004.56 543.43 1004.22 544.44 1003.89 545.45 1003.55 546.46 1003.22 547.46 1002.88 548.47 1002.52 549.48 1002.14 550.48 1001.76 551.48 1001.38 552.48 1001.01 553.48 1000.63 554.48 1000.21 555.47 999.8 556.46 999.38 557.45 998.96 558.44 998.52 559.49 998.2 560.5 997.62 561.49 996.94 562.43 996.27 563.37 995.5 564.26 994.73 565.15 993.86 565.98 992.97 566.82 991.99 567.6 991.01 568.39 989.94 569.12 988.87 569.86 987.71 570.55 986.54 571.24 985.28 571.88 984.02 572.52 982.67 573.11 981.33 573.71 979.89 574.25 978.46 574.8 976.93 575.31 975.42 575.81 973.81 576.27 972.21 576.73 970.52 577.14 968.84 577.56 967.07 577.93 965.31 578.3 963.47 578.63 961.63 578.96 959.7 579.25 959.7 579.25 959.7 579.25 961.16 579.51 962.49 579.8 963.82 580.09 965.04 580.41 966.25 580.74 967.34 581.09 968.43 581.45 969.4 581.84 970.36 582.22 971.2 582.64 972.04 583.06 972.76 583.51 973.47 583.96 974.06 584.44 974.64 584.91 975.11 585.42 975.57 585.92 975.91 586.45 976.26 586.97 976.48 587.51 976.71 588.04 976.83 588.59 976.96 589.11 976.98 589.65 977 590.18 976.9 590.74 976.8 591.3 976.57 591.9 976.32 592.53 975.92 593.23 975.5 593.94 974.95 594.7 974.95 594.7 974.95 594.7 974.4 595.47 973.85 596.23 973.29 597 972.73 597.76 972.16 598.52 971.58 599.28 971 600.04 970.43 600.8 969.84 601.56 969.26 602.31 968.67 603.06 968.07 603.81 967.47 604.56 966.87 605.3 966.27 606.04 965.68 606.76 965.1 607.47 964.54 608.14 963.99 608.8 963.44 609.45 962.89 610.1 962.33 610.76 961.76 611.42 961.17 612.1 960.55 612.8 959.92 613.51 959.29 614.22 958.65 614.93 958.02 615.63 957.4 616.32 956.8 616.97 956.22 617.61 955.64 618.23 955.07 618.85 954.49 619.46 953.9 620.09 953.29 620.73 952.66 621.39 952 622.07 951.33 622.75 950.66 623.44 950 624.11 949.34 624.78 948.7 625.43 948.09 626.04 947.49 626.63 946.89 627.22 946.3 627.82 945.69 628.41 945.07 629.01 944.43 629.64 943.75 630.29 943.06 630.95 942.36 631.62 941.66 632.28 940.96 632.95 940.26 633.62 939.57 634.29 938.87 634.96 938.19 635.64 937.52 636.32 936.9 637.04 936.37 637.82 936.04 638.63 934.87 639.61 933.69 640.59 932.26 641.75 930.81 642.91 929.36 644.08 928.02 645.14 926.83 646.06 925.65 646.98 924.46 647.9 923 649 921.51 650.11 920.02 651.23 918.51 652.34 917 653.43 915.48 654.53 913.96 655.62 912.68 656.52 911.47 657.36 910.26 658.2 908.97 659.09 907.42 660.13 905.87 661.17 904.31 662.22 902.87 663.17 901.47 664.08 900.08 664.98 898.68 665.89 897.28 666.77 895.88 667.65 894.48 668.53 892.96 669.47 891.36 670.44 891.53 669.45 891.72 668.31 891.92 667.16 892.12 666.02 892.32 664.88 892.53 663.73 892.74 662.6 892.95 661.47 893.17 660.34 893.39 659.22 893.62 658.1 893.85 657 894.08 655.89 894.32 654.8 894.57 653.7 894.81 652.62 895.07 651.54 895.32 650.47 895.58 649.4 895.84 648.33 896.11 647.28 896.38 646.22 896.65 645.17 896.93 644.13 897.2 643.09 897.48 642.05 897.77 641.02 898.05 639.99 898.34 638.97 898.63 637.94 898.92 636.92 899.21 635.91 899.51 634.89 899.8 633.88 900.1 632.87 900.4 631.86 900.69 630.85 900.99 629.85 901.29 628.85 901.59 627.84 901.9 626.84 902.2 625.84 902.5 624.85 902.8 623.85 903.1 622.85 903.41 621.86 903.71 620.86 904.01 619.86 904.31 618.87 904.62 617.88 904.92 616.88 905.22 615.89 905.52 614.89 905.82 613.9 906.12 612.9 906.42 611.91 906.71 610.92 907.01 609.92 907.31 608.93 907.6 607.93 907.9 606.93 908.19 605.94 908.48 604.94 908.77 603.94 909.15 602.64 908.9 601.73 908.65 600.82 907.76 600.29 906.87 599.76 905.35 599.61 903.83 599.47 901.69 599.72 901.69 599.72 901.69 599.72 901.69 599.72 901.69 599.72M919.25 518.53Q916.82 518.05 914.39 517.58 911.97 517.11 909.54 516.64 907.12 516.18 904.71 515.73 902.29 515.28 899.88 514.84 897.47 514.4 895.06 513.97 892.65 513.55 890.25 513.13 887.85 512.71 885.45 512.31 883.05 511.91 880.65 511.51 880.58 512.5 880.51 513.49 880.44 514.47 880.37 515.45 880.3 516.43 880.23 517.41 880.16 518.39 880.09 519.36 880.02 520.34 879.95 521.31 879.88 522.29 879.81 523.26 879.74 524.23 879.66 525.2 879.59 526.17 879.52 527.13 879.44 528.1 879.37 529.06 879.3 530.03 879.22 530.99 879.15 531.95 879.07 532.91 878.99 533.87 878.92 534.83 878.84 535.79 878.76 536.75 878.68 537.71 878.6 538.66 878.52 539.62 878.44 540.57 878.36 541.52 878.28 542.48 878.2 543.43 878.11 544.38 878.03 545.33 877.95 546.28 877.86 547.23 877.78 548.17 877.69 549.12 877.6 550.07 877.52 551.01 877.43 551.96 877.34 552.9 877.25 553.85 877.16 554.79 877.07 555.74 876.98 556.68 876.89 557.62 876.8 558.56 876.7 559.5 876.61 560.44 876.52 561.38 876.42 562.32 876.33 563.26 876.23 564.2 876.14 565.13 876.04 566.07 875.94 567.01 875.84 567.94 875.75 568.88 875.65 569.82 875.55 570.75 875.45 571.68 875.35 572.62 877.56 572.61 879.77 572.6 881.99 572.59 884.21 572.59 886.44 572.59 888.67 572.59 890.9 572.59 893.13 572.59 895.37 572.6 897.61 572.61 899.85 572.62 902.1 572.63 904.35 572.65 906.6 572.67 908.86 572.69 911.12 572.71 913.08 572.73 914.83 572.34 916.58 571.96 918.12 571.18 919.67 570.4 920.57 569.49 921.48 568.57 921.72 567.51 921.72 567.51 921.72 567.51 922.01 566.27 922.29 565.02 922.57 563.77 922.84 562.52 923.11 561.27 923.38 560.02 923.64 558.76 923.9 557.51 924.15 556.25 924.41 554.98 924.65 553.72 924.89 552.45 925.13 551.18 925.36 549.91 925.59 548.63 925.81 547.35 926.03 546.07 926.25 544.79 926.46 543.5 926.66 542.21 926.86 540.91 927.06 539.62 927.24 538.31 927.43 537.01 927.61 535.7 927.78 534.38 927.95 533.07 928.12 531.74 928.28 530.41 928.43 529.08 928.58 527.74 928.72 526.39 928.84 525.23 928.21 524.07 927.58 522.91 926.21 521.74 924.84 520.56 923.1 519.75 921.36 518.95 919.25 518.53 919.25 518.53 919.25 518.53 919.25 518.53 919.25 518.53"></path></svg>