<svg id="warpedSvg1" xmlns="http://www.w3.org/2000/svg" data-id="1" data-media-id="WRzzUtMFaz4" style="visibility: visible" viewBox="9.199999809265137 235.08999633789062 990.9400024414062 526.6900634765625" width="995.9400024414062px" height="531.6900634765625px">
        <defs>
            <linearGradient id="sampleGradient" gradientTransform="rotate(1)" x1="0%" y1="50%" x2="100%" y2="50%" gradientUnits="userSpaceOnUse">
                <stop offset="0%" id="first_color" stop-color="#6b6fff"></stop>
                <stop offset="100%" id="second_color" stop-color="#bc91c1"></stop>
            </linearGradient>
            <filter id="contrast0">
                <feComponentTransfer>
                    <feFuncR type="linear" slope="1"></feFuncR>
                    <feFuncG type="linear" slope="1"></feFuncG>
                    <feFuncB type="linear" slope="1"></feFuncB>
                </feComponentTransfer>
            </filter>
            <filter id="contrast1">
                <feComponentTransfer>
                    <feFuncR type="linear" slope="1"></feFuncR>
                    <feFuncG type="linear" slope="1"></feFuncG>
                    <feFuncB type="linear" slope="1"></feFuncB>
                </feComponentTransfer>
            </filter>
        </defs>
    <path fill="#41badf" d="M140.17 441.9Q138 441.76 135.83 441.61 133.66 441.47 131.49 441.32 129.32 441.18 127.14 441.03 124.97 440.89 122.8 440.74 120.63 440.6 118.46 440.45 116.29 440.31 114.11 440.17 111.94 440.03 109.77 439.89 107.6 439.75 105.43 439.61 103.25 439.47 101.08 439.34 98.91 439.2 96.74 439.06 94.57 438.93 92.39 438.79 90.22 438.66 88.05 438.52 85.88 438.39 83.71 438.25 81.53 438.12 79.36 437.98 77.19 437.85 75.02 437.72 72.84 437.59 70.67 437.46 70.91 436.79 71.19 436.04 71.47 435.28 71.76 434.53 72.05 433.78 72.34 433.04 72.64 432.29 72.94 431.54 73.25 430.8 73.55 430.06 73.86 429.33 74.17 428.6 74.48 427.87 74.79 427.14 75.1 426.42 75.41 425.7 75.72 424.99 76.03 424.28 76.34 423.58 76.65 422.88 76.96 422.18 77.26 421.49 77.57 420.8 77.88 420.12 78.18 419.44 78.49 418.77 78.79 418.1 79.1 417.43 79.4 416.77 79.71 416.11 80.01 415.45 80.31 414.8 80.62 414.14 80.92 413.5 81.22 412.85 81.52 412.21 81.83 411.57 82.13 410.93 82.43 410.29 82.74 409.66 83.04 409.03 83.34 408.4 83.65 407.77 83.95 407.14 84.26 406.52 84.56 405.9 84.87 405.27 85.17 404.66 85.48 404.04 85.79 403.42 86.09 402.81 86.4 402.19 86.71 401.58 87.02 400.97 87.33 400.36 87.64 399.75 87.95 399.15 88.26 398.54 88.57 397.93 88.89 397.33 89.2 396.73 89.51 396.13 89.83 395.53 90.14 394.93 90.46 394.33 90.78 393.73 91.1 393.14 91.41 392.54 91.73 391.95 92.05 391.36 92.37 390.77 92.69 390.18 93.02 389.59 93.34 389 93.66 388.41 93.99 387.82 94.31 387.24 94.64 386.65 94.97 386.07 95.29 385.48 95.62 384.9 95.95 384.32 96.28 383.74 96.61 383.16 96.94 382.58 97.27 382 97.61 381.42 97.94 380.85 98.27 380.27 98.61 379.7 98.94 379.12 99.28 378.55 99.62 377.97 99.96 377.4 100.3 376.83 100.64 376.26 100.98 375.69 101.32 375.12 101.66 374.55 102 373.99 102.34 373.42 102.69 372.85 103.03 372.29 103.38 371.72 103.72 371.16 104.07 370.59 104.42 370.03 104.76 369.47 105.11 368.9 105.46 368.34 105.81 367.78 106.16 367.22 106.51 366.66 106.86 366.1 107.21 365.54 107.56 364.98 107.92 364.42 108.27 363.86 108.62 363.3 108.97 362.74 109.33 362.18 109.68 361.62 110.03 361.06 110.39 360.51 110.74 359.95 111.09 359.39 111.45 358.82 111.8 358.26 110.95 358.57 110.1 358.88 109.24 359.19 108.39 359.49 107.53 359.8 106.67 360.1 105.81 360.4 104.95 360.69 104.08 360.99 103.21 361.28 102.34 361.58 101.47 361.86 100.6 362.15 99.72 362.43 98.84 362.72 97.96 362.99 97.07 363.27 96.19 363.54 95.3 363.82 94.4 364.08 93.51 364.35 92.61 364.61 91.71 364.87 90.8 365.12 89.89 365.38 88.98 365.63 88.07 365.87 87.15 366.12 86.23 366.36 85.31 366.6 84.39 366.83 83.46 367.07 83.97 366.63 84.47 366.18 84.98 365.74 85.48 365.3 85.99 364.86 86.51 364.43 87.02 364 87.53 363.57 88.05 363.14 88.56 362.71 89.08 362.27 89.59 361.84 90.11 361.41 90.62 360.98 91.14 360.56 91.67 360.14 92.19 359.72 92.71 359.3 93.23 358.88 93.76 358.45 94.28 358.03 94.8 357.61 95.32 357.19 95.85 356.78 96.38 356.37 96.91 355.95 97.44 355.54 97.97 355.13 98.5 354.72 99.03 354.31 99.56 353.9 100.09 353.48 100.7 353.03 101.32 352.57 101.93 352.11 102.54 351.65 103.16 351.19 103.77 350.74 104.38 350.28 105 349.82 105.62 349.37 106.24 348.93 106.86 348.48 107.48 348.03 108.1 347.58 108.72 347.13 109.34 346.69 109.96 346.24 110.59 345.8 111.22 345.37 111.84 344.93 112.47 344.49 113.1 344.05 113.73 343.62 114.36 343.18 114.98 342.74 115.62 342.32 116.25 341.89 116.89 341.46 117.52 341.03 118.16 340.61 118.79 340.18 119.43 339.75 120.07 339.33 120.71 338.91 121.35 338.49 121.99 338.08 122.63 337.66 123.27 337.24 123.91 336.82 124.56 336.41 125.2 335.99 125.84 335.58 126.49 335.17 127.14 334.77 127.79 334.36 128.43 333.95 129.08 333.54 129.73 333.14 130.38 332.73 131.03 332.33 131.69 331.93 132.34 331.54 132.99 331.14 133.65 330.74 134.3 330.34 134.95 329.94 135.61 329.55 136.27 329.16 136.93 328.77 137.58 328.38 138.24 327.99 138.9 327.6 139.56 327.21 140.22 326.82 140.88 326.44 141.54 326.06 142.21 325.68 142.87 325.3 143.54 324.92 144.2 324.54 144.87 324.16 145.53 323.78 146.2 323.4 146.87 323.03 147.53 322.66 148.2 322.29 148.87 321.92 149.54 321.55 150.21 321.18 150.88 320.8 151.55 320.44 152.23 320.07 152.9 319.71 153.58 319.35 154.25 318.99 154.92 318.63 155.6 318.26 156.27 317.9 156.95 317.54 157.63 317.19 158.3 316.83 158.98 316.48 159.66 316.13 160.34 315.77 161.02 315.42 161.7 315.07 162.38 314.71 163.06 314.37 163.74 314.02 164.43 313.68 165.11 313.33 165.79 312.99 166.47 312.64 167.16 312.3 167.84 311.95 168.53 311.61 169.21 311.28 169.9 310.94 170.59 310.6 171.28 310.27 171.96 309.93 172.65 309.59 173.34 309.26 174.03 308.93 174.72 308.6 175.41 308.27 176.1 307.94 176.79 307.62 177.49 307.29 178.18 306.96 178.87 306.63 179.56 306.31 180.26 305.99 180.95 305.67 181.65 305.35 182.34 305.02 183.04 304.7 183.73 304.38 184.33 304.14 184.27 305.03 184.22 305.93 184.17 306.84 184.12 307.75 184.08 308.66 184.03 309.57 183.98 310.47 183.93 311.38 183.89 312.29 183.84 313.2 183.79 314.11 183.75 315.02 183.7 315.92 183.65 316.83 183.6 317.74 183.56 318.65 183.51 319.56 183.46 320.47 183.42 321.37 183.37 322.28 183.32 323.19 183.28 324.1 183.23 325.01 183.18 325.92 183.13 326.82 183.09 327.73 183.04 328.64 182.99 329.55 182.95 330.46 182.9 331.37 182.85 332.28 182.85 333.18 182.09 333.39 181.19 333.63 180.3 333.87 179.41 334.11 178.53 334.36 177.64 334.61 176.76 334.87 175.88 335.12 175 335.38 174.13 335.64 173.25 335.9 172.38 336.16 171.51 336.43 170.64 336.7 169.77 336.97 168.9 337.24 168.04 337.51 167.18 337.79 166.31 338.07 165.45 338.35 164.6 338.63 163.74 338.91 162.88 339.2 162.03 339.48 161.17 339.77 160.32 340.06 159.47 340.36 158.62 340.65 157.77 340.95 156.92 341.24 156.08 341.54 155.23 341.84 155.11 342.62 154.98 343.41 154.86 344.19 154.74 344.97 154.62 345.75 154.49 346.53 154.37 347.31 154.25 348.1 154.13 348.88 154.02 349.66 153.9 350.44 153.78 351.22 153.66 352 153.55 352.78 153.43 353.56 153.31 354.34 153.2 355.12 153.08 355.9 152.97 356.68 152.85 357.46 152.74 358.24 152.62 359.02 152.51 359.8 152.4 360.58 152.28 361.36 152.17 362.13 152.06 362.91 151.94 363.69 151.83 364.47 151.72 365.25 151.61 366.03 151.49 366.81 151.38 367.59 151.27 368.37 151.16 369.15 151.05 369.93 150.94 370.71 150.83 371.49 150.72 372.27 150.61 373.05 150.5 373.83 150.39 374.61 150.28 375.39 150.17 376.17 150.06 376.95 149.95 377.73 149.84 378.51 149.73 379.29 149.62 380.08 149.51 380.86 149.4 381.64 149.29 382.42 149.19 383.2 149.08 383.99 148.97 384.77 148.86 385.55 148.75 386.34 148.65 387.12 148.54 387.9 148.43 388.69 148.32 389.47 148.22 390.26 148.11 391.04 148 391.83 147.9 392.61 147.79 393.4 147.69 394.18 147.58 394.97 147.47 395.76 147.37 396.54 147.26 397.33 147.16 398.12 147.05 398.9 146.95 399.69 146.84 400.48 146.74 401.27 146.63 402.06 146.52 402.85 146.42 403.64 146.31 404.43 146.21 405.22 146.1 406.01 146 406.8 145.89 407.59 145.79 408.38 145.68 409.17 145.58 409.96 145.47 410.76 145.36 411.55 145.26 412.34 145.15 413.13 145.04 413.93 144.94 414.72 144.83 415.51 144.72 416.3 144.61 417.1 144.5 417.89 144.39 418.68 144.28 419.48 144.17 420.27 144.06 421.06 143.94 421.85 143.83 422.64 143.71 423.43 143.6 424.23 143.48 425.01 143.36 425.8 143.24 426.59 143.11 427.38 142.99 428.17 142.86 428.95 142.73 429.73 142.6 430.52 142.46 431.3 142.32 432.08 142.18 432.85 142.04 433.63 141.89 434.4 141.74 435.17 141.58 435.94 141.42 436.7 141.25 437.47 141.08 438.22 140.91 438.98 140.73 439.73 140.54 440.49 140.35 441.23 140.17 441.9 140.17 441.9 140.17 441.9M265.88 453.48Q263.8 453.29 261.69 453.11 259.57 452.95 257.4 452.75 255.24 452.53 253.03 452.28 250.82 452.03 248.59 451.64 246.35 451.24 244.07 450.81 242.93 450.59 241.78 450.38 240.63 450.16 239.47 449.96 238.3 449.75 237.13 449.54 235.95 449.33 234.76 449.12 233.58 448.91 232.38 448.7 231.18 448.5 229.96 448.31 228.75 448.13 227.56 447.95 226.36 447.77 225.19 447.6 224.02 447.42 222.87 447.24 221.72 447.06 220.59 446.89 218.33 446.53 216.16 446.18 213.98 445.82 211.89 445.46 209.81 445.1 207.8 444.74 205.8 444.38 203.88 444.02 201.96 443.65 200.12 443.3 198.28 442.96 196.52 442.63 196.52 442.63 196.52 442.63 196.45 441.81 196.38 440.99 196.32 440.17 196.25 439.36 196.18 438.55 196.11 437.74 196.04 436.92 195.97 436.11 195.9 435.3 195.83 434.49 195.76 433.68 195.69 432.87 195.62 432.06 195.55 431.26 195.48 430.45 195.41 429.64 195.34 428.83 195.27 428.02 195.2 427.21 195.13 426.4 195.06 425.59 194.99 424.78 194.93 423.97 194.86 423.16 194.79 422.35 194.72 421.55 194.65 420.74 194.59 419.93 194.53 419.12 194.47 418.31 194.43 417.5 194.39 416.69 196.59 416.74 198.7 416.79 200.82 416.84 202.86 416.9 204.9 416.96 206.87 417.03 208.84 417.1 210.73 417.17 212.62 417.24 214.44 417.31 216.26 417.39 218.01 417.47 219.76 417.55 221.43 417.62 223.11 417.7 224.71 417.78 226.32 417.86 227.85 417.93 229.38 418.01 230.85 418.08 232.31 418.16 233.7 418.22 235.1 418.3 236.42 418.36 237.75 418.43 239 418.49 240.26 418.55 241.45 418.61 243.82 418.73 245.92 418.81 245.92 418.81 245.92 418.81 247.44 418.88 248.85 418.94 250.26 418.99 251.56 419.04 252.86 419.08 254.06 419.11 255.26 419.15 256.35 419.17 258.53 419.21 260.28 419.21 262.04 419.2 263.37 419.14 264.71 419.09 265.88 418.93 267.05 418.77 268.06 418.51 270.09 417.98 271.46 417.04 271.46 417.04 271.46 417.04 272.5 416.26 273.26 415.05 273.64 414.44 273.96 413.71 274.28 412.99 274.53 412.16 274.78 411.32 274.96 410.38 275.15 409.43 275.26 408.37 275.38 407.32 275.43 406.15 275.49 404.98 275.47 403.7 275.47 403.7 275.47 403.7 275.46 402.58 275.43 401.54 275.4 400.51 275.35 399.55 275.29 398.6 275.22 397.72 275.15 396.85 275.05 396.06 274.96 395.27 274.84 394.56 274.73 393.85 274.59 393.23 274.32 391.98 273.96 391.06 273.61 390.14 273.05 389.35 272.49 388.57 271.73 387.91 270.96 387.25 270 386.73 269.03 386.2 267.86 385.81 266.69 385.42 265.11 385.06 263.53 384.71 261.54 384.4 259.55 384.09 257.16 383.82 255.96 383.69 254.66 383.57 253.36 383.45 251.95 383.34 251.95 383.34 251.95 383.34 249.96 383.2 247.97 383.07 245.98 382.94 243.99 382.82 242 382.69 240.01 382.58 238.02 382.46 236.03 382.35 234.04 382.24 232.04 382.14 230.05 382.04 228.06 381.94 226.07 381.85 224.08 381.76 222.08 381.67 220.09 381.59 218.1 381.51 216.24 381.29 214.39 381.07 212.67 380.72 210.96 380.36 209.38 379.87 207.8 379.39 206.37 378.76 204.93 378.15 203.63 377.39 202.98 377.01 202.37 376.6 201.76 376.2 201.18 375.75 200.6 375.31 200.06 374.84 199.51 374.36 199 373.85 198.49 373.34 198.02 372.8 197.54 372.26 197.1 371.69 196.67 371.11 196.25 370.51 195.84 369.9 195.46 369.27 195.07 368.63 194.72 367.96 194.36 367.3 194.03 366.6 193.7 365.91 193.4 365.18 193.1 364.45 192.82 363.7 192.55 362.94 192.3 362.15 192.05 361.36 191.83 360.54 191.61 359.72 191.42 358.87 191.23 358.02 191.07 357.13 190.9 356.25 190.76 355.34 190.63 354.42 190.52 353.47 190.41 352.53 190.33 351.55 190.24 350.57 190.19 349.55 190.16 349.05 190.14 348.53 190.12 348.02 190.11 347.49 190.09 346.97 190.09 346.44 190.08 345.91 190.08 345.37 190.08 345.37 190.08 345.37 190.08 344.79 190.09 344.22 190.1 343.65 190.12 343.08 190.14 342.52 190.17 341.96 190.2 341.4 190.24 340.85 190.29 340.3 190.34 339.75 190.39 339.21 190.45 338.67 190.51 338.14 190.58 337.6 190.65 337.07 190.74 336.55 190.9 335.5 191.1 334.48 191.31 333.45 191.56 332.45 191.8 331.45 192.09 330.48 192.37 329.5 192.7 328.55 193.03 327.6 193.4 326.67 193.76 325.74 194.17 324.84 194.58 323.93 195.03 323.05 195.48 322.16 195.97 321.3 196.46 320.43 196.99 319.59 197.52 318.74 198.08 317.91 198.65 317.08 199.26 316.27 199.87 315.46 200.52 314.66 201.17 313.86 201.85 313.07 202.52 312.28 203.23 311.5 203.94 310.71 204.67 309.92 205.4 309.14 206.16 308.36 206.92 307.57 207.71 306.79 208.5 306.01 209.32 305.23 210.14 304.44 210.98 303.66 211.83 302.88 212.7 302.1 213.57 301.32 214.47 300.55 215.37 299.77 216.31 299.01 217.24 298.24 218.2 297.49 219.16 296.73 220.15 295.99 221.14 295.25 222.16 294.52 223.19 293.8 224.24 293.09 225.29 292.39 226.38 291.7 227.47 291.02 228.58 290.36 229.7 289.7 230.86 289.04 232.02 288.39 233.22 287.74 234.42 287.09 235.65 286.44 236.89 285.8 238.17 285.16 239.45 284.52 240.77 283.89 242.09 283.27 243.45 282.65 244.82 282.03 246.22 281.41 247.62 280.8 249.06 280.2 250.51 279.6 251.99 279.01 253.47 278.42 255 277.84 256.53 277.26 258.09 276.69 259.66 276.13 261.27 275.57 262.88 275.02 264.53 274.47 266.18 273.93 267.87 273.4 269.56 272.87 271.29 272.35 273.03 271.85 274.81 271.34 274.81 271.34 274.81 271.34 276.88 270.76 278.91 270.22 280.94 269.68 282.93 269.17 284.92 268.67 286.87 268.21 288.81 267.75 290.72 267.33 292.63 266.91 294.49 266.52 296.36 266.14 298.18 265.8 300 265.46 301.78 265.15 303.56 264.84 305.3 264.57 307.04 264.31 308.69 264.07 310.34 263.83 311.9 263.62 313.46 263.41 314.93 263.23 316.4 263.04 317.78 262.88 319.17 262.73 320.46 262.59 321.75 262.46 322.96 262.35 325.36 262.13 327.41 262 329.46 261.88 331.11 261.78 332.76 261.69 334.03 261.62 336.55 261.49 337.51 261.46 337.51 261.46 337.51 261.46 337.49 262.63 337.48 263.81 337.47 264.99 337.45 266.17 337.43 267.35 337.41 268.53 337.39 269.71 337.37 270.89 337.34 272.06 337.32 273.24 337.3 274.42 337.27 275.6 337.25 276.77 337.23 277.95 337.2 279.13 337.18 280.3 337.15 281.48 337.13 282.65 337.1 283.83 337.08 285 337.05 286.18 337.03 287.35 337.01 288.53 336.98 289.7 336.96 290.87 336.94 292.05 336.91 293.22 336.89 294.39 336.87 295.57 336.86 296.74 336.84 297.91 336.83 299.08 336.13 299.13 334.9 299.25 333.66 299.37 331.89 299.57 330.11 299.78 327.8 300.07 326.64 300.21 325.35 300.38 324.05 300.55 322.62 300.75 321.19 300.94 319.71 301.16 318.23 301.38 316.7 301.62 315.17 301.86 313.6 302.12 312.02 302.39 310.4 302.68 308.77 302.97 307.1 303.28 305.42 303.6 303.7 303.93 301.98 304.27 300.21 304.63 298.44 305 296.62 305.39 296.62 305.39 296.62 305.39 294.86 305.76 293.22 306.12 291.58 306.49 290.07 306.84 288.55 307.19 287.15 307.52 285.75 307.86 284.48 308.17 281.93 308.81 279.86 309.38 277.8 309.95 276.22 310.45 274.63 310.95 273.27 311.46 271.91 311.97 270.77 312.5 268.49 313.55 267.09 314.66 267.09 314.66 267.09 314.66 265.46 315.82 264.41 317.26 263.89 317.97 263.52 318.76 263.14 319.54 262.91 320.39 262.68 321.24 262.51 322.31 262.34 323.38 262.23 324.66 262.18 325.3 262.13 325.99 262.09 326.69 262.07 327.43 262.04 328.18 262.03 328.98 262.02 329.78 262.02 330.63 262.02 330.63 262.02 330.63 262.03 331.83 262.07 332.92 262.12 334.01 262.2 334.99 262.28 335.97 262.41 336.84 262.53 337.7 262.7 338.46 262.86 339.22 263.06 339.87 263.27 340.52 263.51 341.07 263.99 342.15 264.64 342.81 265.28 343.47 266.38 343.95 267.48 344.43 269.03 344.74 270.58 345.05 272.58 345.19 274.58 345.33 277.04 345.3 277.04 345.3 277.04 345.3 278.7 345.29 280.37 345.28 282.03 345.28 283.7 345.28 285.36 345.28 287.02 345.28 288.69 345.29 290.35 345.3 292.02 345.31 293.68 345.32 295.35 345.34 297.01 345.36 298.67 345.38 300.34 345.41 302 345.44 303.66 345.47 305.3 345.51 306.87 345.59 308.45 345.67 309.97 345.8 311.48 345.93 312.94 346.11 314.4 346.29 315.8 346.51 317.2 346.74 318.54 347.01 319.88 347.29 321.17 347.61 322.45 347.93 323.67 348.3 324.9 348.67 326.06 349.08 327.23 349.5 328.34 350.03 329.45 350.56 330.5 351.21 331.55 351.86 332.54 352.62 333.53 353.39 334.46 354.26 335.39 355.15 336.27 356.14 337.14 357.14 337.96 358.25 338.77 359.37 339.53 360.6 340.29 361.83 340.99 363.18 340.99 363.18 340.99 363.18 341.37 363.91 341.72 364.67 342.08 365.43 342.41 366.23 342.74 367.03 343.05 367.86 343.36 368.7 343.64 369.57 343.92 370.44 344.18 371.34 344.44 372.25 344.68 373.19 344.92 374.13 345.13 375.11 345.34 376.08 345.53 377.09 345.72 378.11 345.89 379.15 346.05 380.2 346.19 381.28 346.34 382.36 346.45 383.48 346.57 384.59 346.67 385.74 346.76 386.89 346.83 388.08 346.9 389.26 346.91 390.48 346.86 391.7 346.84 392.96 346.81 394.21 346.81 395.5 346.81 395.5 346.81 395.5 346.81 396.45 346.82 397.38 346.83 398.32 346.85 399.24 346.87 400.15 346.9 401.06 346.93 401.96 346.89 402.85 346.85 403.74 346.8 404.62 346.75 405.49 346.69 406.36 346.63 407.22 346.56 408.06 346.49 408.91 346.41 409.74 346.33 410.57 346.24 411.38 346.15 412.19 346.05 412.99 345.95 413.79 345.84 414.58 345.73 415.36 345.61 416.13 345.49 416.89 345.36 417.65 345.23 418.4 345.09 419.14 344.81 420.61 344.49 422.02 344.17 423.43 343.82 424.78 343.46 426.12 343.06 427.41 342.66 428.69 342.22 429.91 341.79 431.12 341.31 432.28 340.83 433.43 340.32 434.52 339.8 435.6 339.24 436.63 338.69 437.64 338.09 438.6 337.5 439.55 336.86 440.44 336.23 441.32 335.57 442.16 334.91 442.99 334.23 443.77 333.54 444.55 332.83 445.29 332.12 446.02 331.38 446.7 330.65 447.37 329.89 448 329.13 448.62 328.34 449.2 327.56 449.76 326.75 450.28 325.94 450.79 325.1 451.26 324.26 451.72 323.4 452.13 322.54 452.54 321.66 452.9 320.77 453.25 319.86 453.56 318.95 453.87 318.01 454.13 316.14 454.65 314.16 455 312.18 455.33 310.1 455.5 309.06 455.59 307.98 455.65 306.89 455.72 305.77 455.76 304.64 455.81 303.47 455.84 302.3 455.87 301.09 455.88 299.88 455.9 298.62 455.91 297.37 455.93 296.07 455.93 294.76 455.95 293.42 455.95 292.07 455.95 290.69 455.93 289.3 455.91 287.87 455.86 286.44 455.8 284.98 455.71 283.51 455.63 282 455.53 280.48 455.43 278.93 455.27 277.39 455.07 275.81 454.84 274.22 454.61 272.6 454.36 270.97 454.05 269.29 453.8 267.61 453.63 265.88 453.48 265.88 453.48 265.88 453.48 265.88 453.48 265.88 453.48M467.01 486.8Q464.88 486.35 462.76 485.89 460.63 485.47 458.49 485.08 456.36 484.7 454.22 484.31 452.08 483.92 449.97 483.4 447.86 482.86 445.75 482.32 443.64 481.78 441.53 481.28 439.41 480.82 437.29 480.36 435.17 479.9 433.05 479.44 430.93 478.97 428.8 478.51 426.68 478.05 424.56 477.58 422.43 477.19 420.28 476.86 418.13 476.54 415.99 476.21 413.84 475.88 411.72 475.4 409.6 474.91 407.48 474.43 405.36 473.94 403.22 473.54 401.08 473.2 398.93 472.86 398.9 471.61 398.86 470.22 398.82 468.83 398.78 467.45 398.74 466.07 398.7 464.69 398.66 463.31 398.62 461.93 398.57 460.55 398.53 459.18 398.49 457.8 398.44 456.42 398.4 455.05 398.36 453.67 398.31 452.3 398.27 450.92 398.23 449.55 398.18 448.17 398.14 446.8 398.1 445.42 398.06 444.05 398.02 442.68 397.98 441.3 397.94 439.93 397.9 438.55 397.86 437.18 397.83 435.8 397.79 434.42 397.76 433.05 397.72 431.67 397.69 430.3 397.66 428.92 397.63 427.54 397.6 426.17 397.57 424.79 397.55 423.41 397.52 422.03 397.5 420.66 397.48 419.28 397.45 417.9 397.43 416.52 397.41 415.14 397.4 413.76 397.38 412.38 397.36 411 397.35 409.62 397.33 408.24 397.32 406.86 397.31 405.48 397.29 404.1 397.28 402.72 397.27 401.34 397.26 399.96 397.25 398.58 397.24 397.2 397.24 395.81 397.23 394.43 397.22 393.05 397.21 391.67 397.21 390.28 397.2 388.9 397.19 387.52 397.19 386.13 397.18 384.75 397.18 383.37 397.18 381.98 397.17 380.6 397.17 379.22 397.17 377.83 397.16 376.45 397.16 375.06 397.16 373.68 397.15 372.29 397.15 370.91 397.15 369.52 397.15 368.14 397.15 366.75 397.15 365.36 397.15 363.98 397.15 362.59 397.15 361.21 397.15 359.82 397.15 358.43 397.15 357.05 397.15 355.66 397.15 354.27 397.15 352.88 397.15 351.5 397.15 350.11 397.15 348.72 397.15 347.33 397.15 345.94 397.16 344.56 397.16 343.17 397.16 341.78 397.16 340.39 397.16 339 397.17 337.61 397.17 336.22 397.17 334.83 397.18 333.44 397.18 332.05 397.18 330.66 397.19 329.26 397.19 327.87 397.19 326.48 397.2 325.09 397.2 323.69 397.21 322.3 397.21 320.91 397.22 319.51 397.22 318.12 397.23 316.72 397.23 315.33 397.24 313.93 397.24 312.53 397.25 311.13 397.26 309.74 397.26 308.34 397.27 306.94 397.27 305.54 397.28 304.13 397.29 302.73 397.29 301.33 397.3 299.92 397.31 298.52 397.32 297.11 397.32 295.7 395.97 295.76 394.62 295.82 393.27 295.89 391.92 295.95 390.57 296.01 389.22 296.07 387.87 296.13 386.52 296.19 385.17 296.25 383.82 296.3 382.47 296.36 381.12 296.42 379.77 296.47 378.42 296.52 377.07 296.58 375.72 296.63 374.37 296.68 373.03 296.72 371.68 296.77 370.33 296.82 368.98 296.86 367.63 296.9 366.28 296.94 364.93 296.98 363.58 297.02 362.24 297.05 360.89 297.08 359.54 297.11 358.19 297.14 356.84 297.17 355.5 297.19 354.15 297.22 354.15 295.85 354.15 294.48 354.15 293.11 354.15 291.74 354.15 290.37 354.15 289 354.15 287.63 354.15 286.26 354.15 284.9 354.15 283.53 354.15 282.16 354.15 280.79 354.15 279.42 354.15 278.05 354.15 276.68 354.15 275.31 354.15 273.95 354.15 272.58 354.15 271.21 354.15 269.84 354.15 268.47 354.15 267.1 354.15 265.73 354.15 264.37 354.15 263 354.15 261.63 354.15 260.26 354.15 258.89 354.15 257.52 354.15 256.15 354.15 254.78 354.15 253.41 355.37 253.21 356.6 253 357.83 252.79 359.05 252.58 360.28 252.37 361.5 252.17 362.73 251.97 363.96 251.77 365.19 251.57 366.41 251.37 367.64 251.18 368.87 250.99 370.1 250.8 371.33 250.61 372.56 250.42 373.79 250.24 375.02 250.05 376.25 249.87 377.48 249.69 378.71 249.51 379.94 249.33 381.17 249.16 382.4 248.99 383.63 248.81 384.86 248.64 386.09 248.48 387.33 248.31 388.56 248.14 389.79 247.98 391.02 247.82 392.26 247.66 393.49 247.5 394.72 247.34 395.96 247.19 397.19 247.04 398.43 246.89 399.66 246.74 400.9 246.59 402.13 246.44 403.37 246.3 404.6 246.16 405.84 246.02 407.07 245.88 408.31 245.74 409.54 245.6 410.78 245.47 412.02 245.34 413.25 245.21 414.49 245.07 415.73 244.95 416.96 244.82 418.2 244.7 419.44 244.58 420.68 244.45 421.91 244.34 423.15 244.22 424.39 244.11 425.63 243.99 426.87 243.88 428.1 243.77 429.34 243.66 430.58 243.55 431.82 243.45 433.06 243.34 434.3 243.24 435.54 243.14 436.78 243.04 438.02 242.94 439.26 242.84 440.5 242.75 441.74 242.66 442.98 242.57 444.22 242.48 445.46 242.39 446.7 242.31 447.94 242.23 449.18 242.14 450.42 242.06 451.66 241.98 452.9 241.9 454.14 241.83 455.39 241.75 456.63 241.68 457.87 241.61 459.11 241.54 460.35 241.47 461.59 241.41 462.83 241.34 464.08 241.28 465.32 241.22 466.56 241.16 467.8 241.1 469.04 241.04 470.29 240.99 471.53 240.94 472.77 240.89 474.01 240.84 475.26 240.79 476.5 240.74 477.74 240.7 478.99 240.65 480.23 240.61 481.47 240.57 482.71 240.53 483.96 240.5 485.2 240.46 486.44 240.43 487.69 240.39 488.93 240.36 490.17 240.34 491.42 240.31 492.66 240.28 493.9 240.26 495.14 240.24 496.39 240.22 497.63 240.2 498.88 240.18 500.12 240.16 501.36 240.15 502.61 240.14 503.85 240.13 505.09 240.11 506.34 240.1 507.58 240.1 508.82 240.1 510.07 240.09 511.31 240.09 512.37 240.14 512.23 241.75 512.11 243.4 511.98 245.05 511.86 246.7 511.74 248.36 511.62 250.01 511.5 251.66 511.38 253.32 511.26 254.97 511.14 256.62 511.02 258.28 510.9 259.93 510.78 261.59 510.66 263.24 510.54 264.89 510.42 266.55 510.3 268.2 510.18 269.85 510.05 271.51 509.93 273.16 509.81 274.82 509.69 276.47 509.57 278.12 509.45 279.78 509.33 281.43 509.21 283.08 509.09 284.74 508.97 286.39 508.85 288.05 508.73 289.7 508.61 291.35 508.61 293.01 507.51 292.99 506.23 292.97 504.95 292.96 503.67 292.94 502.39 292.93 501.1 292.91 499.82 292.9 498.53 292.89 497.24 292.89 495.95 292.88 494.66 292.87 493.36 292.87 492.06 292.87 490.76 292.87 489.46 292.87 488.15 292.87 486.85 292.87 485.54 292.88 484.23 292.88 482.91 292.89 481.6 292.9 480.29 292.91 478.97 292.93 477.65 292.94 476.33 292.95 475.01 292.97 473.69 292.99 472.36 293.01 471.04 293.03 469.71 293.05 468.38 293.07 467.05 293.1 467.01 294.64 466.98 296.18 466.94 297.72 466.91 299.27 466.88 300.81 466.85 302.35 466.82 303.89 466.79 305.42 466.77 306.96 466.74 308.5 466.72 310.04 466.7 311.57 466.68 313.11 466.66 314.64 466.64 316.18 466.63 317.71 466.61 319.24 466.59 320.78 466.58 322.31 466.57 323.84 466.55 325.37 466.54 326.9 466.53 328.43 466.52 329.97 466.51 331.5 466.5 333.03 466.49 334.55 466.48 336.08 466.47 337.61 466.47 339.14 466.46 340.67 466.45 342.2 466.45 343.73 466.44 345.25 466.44 346.78 466.43 348.31 466.43 349.83 466.42 351.36 466.42 352.89 466.41 354.41 466.41 355.94 466.41 357.46 466.41 358.99 466.4 360.52 466.4 362.04 466.4 363.57 466.4 365.09 466.39 366.61 466.39 368.14 466.39 369.66 466.39 371.19 466.39 372.71 466.39 374.24 466.39 375.76 466.39 377.28 466.39 378.81 466.39 380.33 466.39 381.85 466.39 383.38 466.39 384.9 466.39 386.42 466.39 387.94 466.39 389.47 466.4 390.99 466.4 392.51 466.4 394.03 466.4 395.55 466.4 397.08 466.41 398.6 466.41 400.12 466.41 401.64 466.41 403.16 466.42 404.68 466.42 406.2 466.42 407.72 466.43 409.24 466.43 410.76 466.44 412.28 466.44 413.8 466.44 415.32 466.45 416.84 466.45 418.36 466.46 419.88 466.46 421.4 466.47 422.92 466.48 424.43 466.48 425.95 466.49 427.47 466.49 428.98 466.5 430.5 466.51 432.02 466.52 433.53 466.52 435.04 466.53 436.56 466.54 438.07 466.55 439.58 466.55 441.1 466.56 442.61 466.57 444.12 466.58 445.63 466.59 447.13 466.6 448.64 466.61 450.15 466.62 451.65 466.63 453.15 466.64 454.65 466.65 456.15 466.66 457.65 466.68 459.15 466.69 460.64 466.7 462.14 466.71 463.63 466.73 465.11 466.74 466.6 466.76 468.08 466.77 469.56 466.79 471.03 466.8 472.5 466.82 473.97 466.84 475.43 466.86 476.89 466.88 478.35 466.9 479.79 466.92 481.23 466.94 482.66 466.97 484.09 466.99 485.52 467.01 486.8 467.01 486.8 467.01 486.8M590.02 514.16Q587.96 513.85 585.86 513.56 583.77 513.21 581.67 512.65 579.57 512.05 577.43 511.4 575.29 510.76 573.07 510.23 570.84 509.72 568.58 509.17 567.45 508.89 566.31 508.6 565.17 508.27 564.04 507.88 562.91 507.49 561.77 507.08 560.64 506.67 559.49 506.25 558.34 505.83 557.18 505.41 556.01 505 554.83 504.6 553.65 504.21 552.49 503.82 551.33 503.43 550.19 503.05 549.05 502.67 547.93 502.29 546.81 501.91 545.71 501.53 543.51 500.78 541.39 500.03 539.28 499.27 537.25 498.53 535.22 497.78 533.28 497.03 531.34 496.29 529.48 495.55 527.62 494.81 525.85 494.08 524.07 493.36 522.38 492.65 522.38 492.65 522.38 492.65 522.4 491.2 522.41 489.76 522.42 488.32 522.43 486.88 522.45 485.44 522.46 484 522.47 482.56 522.48 481.12 522.49 479.68 522.51 478.24 522.52 476.8 522.53 475.36 522.54 473.93 522.55 472.49 522.57 471.05 522.58 469.61 522.59 468.17 522.6 466.73 522.61 465.3 522.63 463.86 522.64 462.42 522.65 460.98 522.66 459.54 522.67 458.11 522.69 456.67 522.7 455.23 522.71 453.79 522.72 452.35 522.73 450.92 522.74 449.48 522.75 448.04 522.75 446.6 524.81 447.06 526.81 447.51 528.8 447.95 530.73 448.38 532.66 448.81 534.53 449.22 536.39 449.64 538.2 450.03 540 450.43 541.73 450.81 543.47 451.2 545.14 451.56 546.81 451.93 548.41 452.27 550.02 452.62 551.56 452.95 553.1 453.28 554.57 453.59 556.05 453.91 557.46 454.2 558.87 454.49 560.21 454.77 561.56 455.04 562.84 455.3 564.12 455.56 565.33 455.79 566.55 456.03 567.69 456.25 569.99 456.69 572.03 457.05 572.03 457.05 572.03 457.05 573.5 457.31 574.87 457.54 576.24 457.77 577.51 457.97 578.77 458.17 579.94 458.34 581.1 458.5 582.17 458.64 584.29 458.92 586 459.08 587.72 459.23 589.02 459.27 590.33 459.3 591.48 459.17 592.63 459.03 593.62 458.72 595.61 458.11 596.98 456.81 596.98 456.81 596.98 456.81 598.01 455.74 598.78 453.98 599.17 453.1 599.5 452.05 599.82 451 600.08 449.77 600.34 448.55 600.54 447.16 600.74 445.76 600.88 444.2 601.01 442.63 601.09 440.9 601.16 439.16 601.17 437.26 601.17 437.26 601.17 437.26 601.17 435.59 601.16 434.04 601.15 432.49 601.11 431.06 601.07 429.63 601.02 428.32 600.96 427.01 600.88 425.82 600.8 424.63 600.7 423.56 600.6 422.49 600.47 421.54 600.23 419.63 599.89 418.2 599.56 416.77 599.03 415.49 598.5 414.21 597.76 413.07 597.03 411.94 596.1 410.95 595.17 409.97 594.04 409.14 592.91 408.3 591.39 407.43 589.86 406.56 587.94 405.65 586.01 404.75 583.69 403.81 582.53 403.34 581.27 402.86 580.01 402.38 578.65 401.9 578.65 401.9 578.65 401.9 576.73 401.23 574.8 400.57 572.87 399.9 570.95 399.24 569.02 398.58 567.09 397.91 565.17 397.25 563.24 396.59 561.31 395.93 559.38 395.28 557.45 394.62 555.52 393.96 553.59 393.3 551.66 392.65 549.73 391.99 547.8 391.34 545.87 390.69 544.07 389.83 542.28 388.96 540.62 387.9 538.96 386.83 537.43 385.55 535.9 384.28 534.51 382.8 533.12 381.32 531.86 379.63 531.23 378.79 530.64 377.89 530.04 377 529.48 376.05 528.92 375.11 528.39 374.11 527.86 373.11 527.37 372.06 526.88 371.01 526.42 369.91 525.96 368.81 525.53 367.66 525.1 366.51 524.7 365.31 524.3 364.11 523.93 362.86 523.55 361.61 523.21 360.31 522.86 359.02 522.54 357.67 522.22 356.33 521.93 354.93 521.63 353.54 521.36 352.1 521.1 350.66 520.86 349.17 520.62 347.67 520.4 346.14 520.19 344.6 520 343.01 519.81 341.42 519.65 339.79 519.49 338.15 519.36 336.47 519.23 334.78 519.12 333.05 519.01 331.31 518.93 329.53 518.85 327.75 518.8 325.92 518.77 325 518.75 324.07 518.73 323.15 518.72 322.21 518.7 321.27 518.7 320.31 518.69 319.36 518.69 318.4 518.69 318.4 518.69 318.4 518.69 317.36 518.7 316.35 518.71 315.33 518.73 314.33 518.75 313.33 518.78 312.34 518.81 311.36 518.85 310.39 518.89 309.43 518.94 308.48 518.99 307.53 519.05 306.59 519.11 305.66 519.18 304.74 519.26 303.83 519.34 302.93 519.5 301.13 519.7 299.39 519.9 297.66 520.15 295.99 520.39 294.32 520.67 292.72 520.96 291.12 521.28 289.59 521.61 288.05 521.97 286.58 522.34 285.11 522.75 283.7 523.15 282.3 523.6 280.96 524.05 279.61 524.54 278.34 525.03 277.06 525.56 275.85 526.09 274.63 526.66 273.48 527.24 272.33 527.85 271.25 528.47 270.16 529.12 269.13 529.78 268.11 530.47 267.13 531.16 266.14 531.88 265.2 532.6 264.26 533.35 263.36 534.1 262.46 534.89 261.61 535.67 260.75 536.49 259.93 537.3 259.11 538.15 258.34 539 257.56 539.88 256.82 540.77 256.08 541.68 255.39 542.59 254.69 543.54 254.04 544.49 253.39 545.46 252.78 546.44 252.17 547.45 251.61 548.46 251.05 549.5 250.53 550.54 250.01 551.61 249.55 552.68 249.08 553.78 248.66 554.88 248.24 556.02 247.87 557.15 247.5 558.31 247.19 559.47 246.87 560.67 246.58 561.87 246.3 563.11 246.04 564.35 245.78 565.62 245.54 566.9 245.31 568.21 245.11 569.53 244.9 570.88 244.73 572.24 244.56 573.63 244.41 575.02 244.27 576.45 244.15 577.88 244.04 579.34 243.95 580.81 243.87 582.32 243.82 583.82 243.76 585.37 243.74 586.91 243.72 588.49 243.73 590.07 243.74 591.69 243.78 593.31 243.82 594.96 243.9 596.62 243.97 598.31 244.08 600.01 244.19 601.74 244.33 603.47 244.47 605.24 244.64 605.24 244.64 605.24 244.64 607.3 244.85 609.31 245.08 611.33 245.31 613.3 245.58 615.27 245.84 617.2 246.13 619.12 246.42 621 246.74 622.87 247.06 624.71 247.4 626.54 247.75 628.32 248.12 630.11 248.5 631.84 248.9 633.58 249.3 635.27 249.72 636.97 250.15 638.57 250.57 640.17 250.99 641.68 251.41 643.19 251.83 644.62 252.23 646.04 252.64 647.37 253.04 648.71 253.44 649.95 253.83 651.2 254.22 652.35 254.6 654.66 255.36 656.62 256.07 658.57 256.79 660.15 257.37 661.72 257.95 662.92 258.4 665.31 259.29 666.22 259.64 666.22 259.64 666.22 259.64 666.07 261.2 665.93 262.77 665.78 264.32 665.62 265.88 665.47 267.43 665.31 268.98 665.15 270.53 665 272.08 664.84 273.62 664.68 275.17 664.52 276.71 664.36 278.26 664.2 279.8 664.04 281.34 663.88 282.88 663.72 284.42 663.57 285.97 663.41 287.51 663.25 289.05 663.09 290.59 662.94 292.12 662.79 293.66 662.63 295.2 662.49 296.74 662.34 298.28 662.2 299.82 662.06 301.35 661.93 302.89 661.81 304.43 661.7 305.97 661.61 307.5 661.53 309.04 660.89 308.85 659.76 308.57 658.63 308.29 656.99 307.91 655.35 307.54 653.21 307.07 652.13 306.83 650.93 306.58 649.72 306.32 648.38 306.04 647.04 305.76 645.66 305.49 644.27 305.22 642.83 304.95 641.38 304.69 639.89 304.43 638.4 304.17 636.85 303.92 635.31 303.67 633.71 303.43 632.11 303.19 630.46 302.96 628.81 302.73 627.11 302.5 625.41 302.28 623.66 302.06 623.66 302.06 623.66 302.06 621.96 301.86 620.38 301.68 618.79 301.5 617.32 301.35 615.85 301.2 614.5 301.07 613.14 300.95 611.9 300.86 609.41 300.67 607.39 300.58 605.37 300.5 603.82 300.52 602.27 300.54 600.93 300.68 599.59 300.83 598.46 301.09 596.2 301.62 594.8 302.62 594.8 302.62 594.8 302.62 593.16 303.6 592.09 305.26 591.55 306.09 591.15 307.1 590.76 308.1 590.5 309.27 590.25 310.44 590.05 311.96 589.84 313.48 589.69 315.36 589.62 316.29 589.56 317.31 589.5 318.34 589.45 319.45 589.4 320.56 589.37 321.76 589.33 322.95 589.31 324.24 589.31 324.24 589.31 324.24 589.28 326.05 589.3 327.7 589.31 329.36 589.37 330.87 589.42 332.37 589.52 333.73 589.62 335.08 589.76 336.29 589.91 337.49 590.09 338.55 590.27 339.61 590.49 340.51 590.94 342.33 591.55 343.54 592.17 344.76 593.22 345.87 594.27 346.98 595.77 347.98 597.26 348.98 599.2 349.87 601.13 350.76 603.5 351.55 603.5 351.55 603.5 351.55 605.11 352.09 606.72 352.63 608.33 353.18 609.94 353.72 611.54 354.27 613.15 354.82 614.75 355.37 616.36 355.91 617.96 356.46 619.57 357.01 621.17 357.56 622.77 358.11 624.37 358.67 625.97 359.22 627.57 359.77 629.17 360.32 630.75 360.87 632.26 361.46 633.77 362.06 635.23 362.69 636.69 363.32 638.09 364 639.49 364.67 640.83 365.39 642.18 366.1 643.47 366.86 644.75 367.61 645.98 368.41 647.22 369.21 648.39 370.05 649.57 370.89 650.69 371.77 651.81 372.65 652.87 373.66 653.93 374.67 654.94 375.82 655.95 376.96 656.9 378.24 657.85 379.51 658.75 380.92 659.65 382.32 660.49 383.86 661.33 385.4 662.11 387.07 662.9 388.74 663.63 390.54 664.36 392.35 665.03 394.28 665.03 394.28 665.03 394.28 665.4 395.32 665.74 396.4 666.08 397.49 666.4 398.61 666.72 399.73 667.02 400.89 667.31 402.05 667.59 403.25 667.86 404.45 668.11 405.69 668.37 406.93 668.59 408.21 668.82 409.49 669.03 410.81 669.23 412.12 669.42 413.48 669.6 414.84 669.76 416.23 669.92 417.63 670.06 419.06 670.2 420.5 670.31 421.97 670.42 423.45 670.52 424.96 670.61 426.47 670.68 428.02 670.75 429.57 670.75 431.16 670.7 432.74 670.68 434.36 670.66 435.98 670.66 437.65 670.66 437.65 670.66 437.65 670.66 438.88 670.67 440.1 670.68 441.31 670.7 442.51 670.72 443.71 670.74 444.89 670.77 446.07 670.73 447.21 670.69 448.36 670.64 449.49 670.59 450.62 670.53 451.73 670.48 452.83 670.41 453.92 670.34 455 670.26 456.07 670.18 457.13 670.1 458.17 670.01 459.22 669.91 460.24 669.81 461.26 669.71 462.26 669.6 463.26 669.48 464.24 669.37 465.22 669.24 466.18 669.11 467.14 668.98 468.08 668.7 469.95 668.39 471.74 668.08 473.53 667.73 475.24 667.38 476.94 666.99 478.57 666.6 480.19 666.17 481.72 665.74 483.26 665.27 484.71 664.8 486.16 664.3 487.53 663.79 488.9 663.24 490.18 662.69 491.47 662.11 492.67 661.52 493.87 660.89 494.98 660.27 496.1 659.61 497.16 658.96 498.22 658.28 499.22 657.6 500.22 656.9 501.17 656.19 502.11 655.46 503 654.72 503.89 653.97 504.73 653.21 505.56 652.42 506.34 651.63 507.12 650.82 507.84 650 508.56 649.16 509.23 648.32 509.89 647.46 510.5 646.59 511.11 645.7 511.66 644.8 512.22 643.88 512.71 642.96 513.21 642.02 513.65 640.12 514.52 638.13 515.17 636.13 515.81 634.04 516.22 632.99 516.43 631.9 516.6 630.8 516.78 629.67 516.93 628.54 517.08 627.36 517.2 626.19 517.32 624.97 517.41 623.76 517.5 622.5 517.56 621.24 517.61 619.95 517.63 618.65 517.65 617.31 517.63 615.98 517.62 614.6 517.57 613.23 517.5 611.82 517.36 610.43 517.18 608.99 516.97 607.56 516.76 606.08 516.51 604.6 516.26 603.08 516.02 601.53 515.86 599.94 515.68 598.35 515.49 596.72 515.28 595.09 514.98 593.41 514.7 591.74 514.42 590.02 514.16 590.02 514.16 590.02 514.16 590.02 514.16 590.02 514.16M753.84 533.55Q751.76 533.36 749.65 533.2 747.53 533.09 745.36 533.04 743.19 532.95 740.98 532.82 738.77 532.69 736.52 532.36 734.28 532 732 531.61 730.86 531.42 729.7 531.22 728.55 531.06 727.38 530.93 726.21 530.81 725.03 530.68 723.86 530.55 722.67 530.42 721.48 530.27 720.28 530.11 719.08 529.91 717.88 529.68 716.67 529.42 715.49 529.16 714.31 528.89 713.15 528.62 711.99 528.35 710.85 528.08 709.71 527.81 708.59 527.54 706.36 527.01 704.21 526.48 702.07 525.96 700.01 525.45 697.94 524.97 695.97 524.48 694 523.99 692.12 523.49 690.23 522.98 688.44 522.45 686.65 521.92 684.96 521.36 684.96 521.36 684.96 521.36 685.02 519.86 685.09 518.35 685.16 516.84 685.22 515.33 685.29 513.83 685.36 512.32 685.42 510.81 685.49 509.3 685.56 507.79 685.63 506.28 685.69 504.77 685.76 503.26 685.83 501.75 685.9 500.24 685.96 498.74 686.03 497.23 686.1 495.72 686.17 494.21 686.23 492.7 686.3 491.19 686.37 489.68 686.43 488.17 686.5 486.66 686.57 485.15 686.63 483.64 686.7 482.14 686.76 480.63 686.82 479.12 686.88 477.61 686.94 476.1 686.98 474.59 687.01 473.08 689.04 473.47 691 473.84 692.96 474.21 694.86 474.56 696.77 474.91 698.61 475.24 700.45 475.56 702.24 475.87 704.02 476.17 705.75 476.46 707.47 476.74 709.13 477.01 710.8 477.28 712.39 477.53 714 477.77 715.53 478 717.07 478.23 718.55 478.45 720.02 478.66 721.43 478.85 722.84 479.05 724.19 479.23 725.54 479.41 726.82 479.57 728.1 479.73 729.32 479.88 730.54 480.02 731.69 480.16 734 480.42 736.05 480.62 736.05 480.62 736.05 480.62 737.53 480.77 738.91 480.89 740.28 481.01 741.56 481.11 742.83 481.21 744.01 481.29 745.18 481.37 746.25 481.42 748.39 481.54 750.12 481.56 751.85 481.59 753.16 481.53 754.48 481.47 755.64 481.25 756.8 481.04 757.8 480.68 759.81 479.97 761.2 478.65 761.2 478.65 761.2 478.65 762.24 477.58 763.04 475.87 763.43 475.02 763.77 474.01 764.1 473.01 764.37 471.84 764.64 470.68 764.84 469.36 765.05 468.04 765.19 466.57 765.34 465.09 765.42 463.46 765.5 461.83 765.51 460.04 765.51 460.04 765.51 460.04 765.53 458.47 765.52 457.02 765.51 455.56 765.48 454.22 765.45 452.88 765.4 451.65 765.34 450.42 765.27 449.3 765.19 448.19 765.09 447.18 764.99 446.17 764.87 445.28 764.63 443.49 764.3 442.14 763.97 440.8 763.44 439.59 762.91 438.38 762.18 437.31 761.44 436.23 760.51 435.3 759.58 434.36 758.45 433.56 757.32 432.75 755.79 431.91 754.26 431.06 752.33 430.18 750.4 429.29 748.08 428.36 746.91 427.89 745.65 427.41 744.39 426.93 743.03 426.44 743.03 426.44 743.03 426.44 741.1 425.77 739.17 425.1 737.24 424.42 735.31 423.75 733.38 423.07 731.45 422.39 729.52 421.71 727.59 421.02 725.66 420.34 723.73 419.65 721.8 418.96 719.87 418.27 717.93 417.57 716 416.88 714.07 416.18 712.14 415.49 710.21 414.79 708.41 413.87 706.62 412.96 704.96 411.83 703.29 410.69 701.77 409.35 700.24 408 698.85 406.43 697.46 404.86 696.2 403.07 695.57 402.18 694.98 401.23 694.38 400.28 693.82 399.28 693.26 398.28 692.73 397.22 692.2 396.16 691.71 395.05 691.21 393.94 690.75 392.77 690.29 391.6 689.86 390.38 689.44 389.16 689.04 387.88 688.64 386.61 688.26 385.29 687.89 383.96 687.54 382.59 687.19 381.21 686.87 379.78 686.55 378.36 686.26 376.88 685.96 375.4 685.7 373.87 685.43 372.34 685.19 370.76 684.95 369.18 684.73 367.55 684.52 365.92 684.33 364.24 684.14 362.56 683.98 360.83 683.82 359.1 683.69 357.31 683.55 355.53 683.45 353.7 683.34 351.87 683.26 349.98 683.18 348.1 683.12 346.17 683.1 345.2 683.08 344.22 683.06 343.24 683.04 342.25 683.03 341.26 683.02 340.26 683.02 339.26 683.02 338.24 683.02 338.24 683.02 338.24 683.02 337.15 683.03 336.08 683.04 335.01 683.06 333.96 683.08 332.91 683.11 331.88 683.14 330.84 683.18 329.83 683.22 328.81 683.27 327.82 683.32 326.82 683.38 325.85 683.44 324.87 683.51 323.91 683.59 322.95 683.67 322.01 683.83 320.14 684.03 318.33 684.24 316.53 684.48 314.8 684.72 313.07 685.01 311.42 685.29 309.76 685.62 308.19 685.95 306.61 686.31 305.11 686.68 303.6 687.09 302.18 687.5 300.75 687.95 299.4 688.4 298.04 688.9 296.77 689.39 295.49 689.92 294.29 690.46 293.09 691.04 291.96 691.61 290.83 692.23 289.78 692.85 288.73 693.52 287.75 694.18 286.78 694.87 285.85 695.57 284.93 696.3 284.06 697.03 283.2 697.79 282.38 698.55 281.57 699.34 280.81 700.14 280.05 700.97 279.34 701.8 278.63 702.66 277.98 703.52 277.32 704.42 276.73 705.32 276.13 706.25 275.58 707.18 275.04 708.14 274.55 709.1 274.06 710.1 273.62 711.09 273.19 712.12 272.81 713.15 272.43 714.21 272.11 715.27 271.79 716.35 271.52 717.44 271.26 718.56 271.06 719.68 270.85 720.83 270.7 721.98 270.56 723.16 270.47 724.33 270.39 725.55 270.34 726.77 270.29 728.02 270.28 729.27 270.27 730.56 270.29 731.85 270.32 733.18 270.38 734.51 270.44 735.88 270.54 737.24 270.65 738.64 270.79 740.05 270.93 741.48 271.11 742.92 271.29 744.4 271.51 745.87 271.73 747.39 271.99 748.9 272.25 750.45 272.55 751.99 272.86 753.58 273.2 755.16 273.54 756.78 273.93 758.4 274.31 760.05 274.73 761.71 275.17 763.4 275.63 765.09 276.1 766.81 276.61 768.53 277.13 770.29 277.68 770.29 277.68 770.29 277.68 772.35 278.33 774.35 279.01 776.35 279.68 778.31 280.37 780.26 281.07 782.16 281.78 784.07 282.5 785.92 283.23 787.78 283.97 789.58 284.72 791.39 285.48 793.15 286.25 794.9 287.03 796.61 287.82 798.32 288.62 799.98 289.42 801.64 290.24 803.21 291.02 804.78 291.81 806.26 292.57 807.73 293.34 809.12 294.07 810.51 294.81 811.81 295.52 813.11 296.22 814.32 296.9 815.54 297.58 816.66 298.23 818.91 299.52 820.81 300.68 822.7 301.85 824.23 302.79 825.76 303.72 826.93 304.44 829.25 305.86 830.13 306.4 830.13 306.4 830.13 306.4 830 307.8 829.87 309.19 829.74 310.57 829.6 311.93 829.47 313.29 829.33 314.65 829.2 316 829.07 317.34 828.93 318.68 828.8 320.02 828.67 321.36 828.54 322.7 828.4 324.03 828.27 325.36 828.14 326.7 828.01 328.03 827.88 329.36 827.75 330.68 827.62 332.01 827.49 333.34 827.37 334.67 827.24 335.99 827.12 337.32 827 338.64 826.88 339.97 826.76 341.29 826.65 342.62 826.55 343.94 826.45 345.26 826.36 346.59 826.28 347.91 826.21 349.23 825.57 348.96 824.43 348.53 823.28 348.1 821.63 347.5 819.98 346.89 817.82 346.12 816.74 345.73 815.53 345.29 814.31 344.86 812.97 344.38 811.62 343.9 810.23 343.42 808.84 342.93 807.39 342.44 805.95 341.95 804.45 341.46 802.95 340.96 801.41 340.46 799.86 339.96 798.26 339.46 796.66 338.96 795.02 338.45 793.36 337.95 791.67 337.44 789.96 336.93 788.21 336.42 788.21 336.42 788.21 336.42 786.52 335.93 784.93 335.48 783.35 335.03 781.88 334.63 780.41 334.23 779.05 333.88 777.7 333.52 776.46 333.22 773.97 332.6 771.95 332.17 769.93 331.74 768.38 331.49 766.83 331.24 765.49 331.15 764.15 331.06 763.02 331.12 760.76 331.24 759.35 331.98 759.35 331.98 759.35 331.98 757.71 332.65 756.63 334.09 756.09 334.8 755.69 335.71 755.29 336.61 755.04 337.71 754.78 338.8 754.57 340.24 754.37 341.68 754.21 343.47 754.14 344.36 754.07 345.34 754.01 346.32 753.96 347.39 753.91 348.45 753.88 349.6 753.84 350.75 753.82 351.99 753.82 351.99 753.82 351.99 753.79 353.73 753.8 355.33 753.81 356.93 753.87 358.39 753.92 359.85 754.02 361.16 754.12 362.48 754.26 363.66 754.4 364.83 754.58 365.87 754.77 366.91 754.99 367.8 755.44 369.59 756.05 370.82 756.66 372.05 757.72 373.22 758.77 374.39 760.27 375.49 761.77 376.59 763.71 377.63 765.65 378.67 768.03 379.64 768.03 379.64 768.03 379.64 769.64 380.31 771.25 380.98 772.87 381.65 774.48 382.31 776.09 382.98 777.7 383.64 779.31 384.31 780.92 384.97 782.53 385.63 784.14 386.29 785.75 386.95 787.36 387.6 788.96 388.26 790.57 388.91 792.18 389.57 793.78 390.22 795.36 390.86 796.88 391.54 798.4 392.21 799.86 392.91 801.33 393.61 802.73 394.34 804.14 395.07 805.49 395.83 806.84 396.58 808.13 397.37 809.43 398.15 810.66 398.96 811.9 399.77 813.08 400.6 814.26 401.44 815.39 402.3 816.51 403.17 817.58 404.14 818.65 405.1 819.66 406.18 820.67 407.25 821.63 408.43 822.59 409.61 823.49 410.89 824.39 412.17 825.23 413.56 826.08 414.94 826.86 416.44 827.65 417.92 828.39 419.52 829.12 421.11 829.8 422.81 829.8 422.81 829.8 422.81 830.16 423.73 830.51 424.68 830.85 425.62 831.17 426.6 831.49 427.58 831.79 428.59 832.09 429.59 832.37 430.63 832.64 431.67 832.89 432.74 833.15 433.81 833.38 434.92 833.61 436.02 833.81 437.15 834.02 438.28 834.2 439.45 834.39 440.61 834.55 441.81 834.71 443 834.85 444.23 834.98 445.45 835.1 446.71 835.22 447.97 835.31 449.26 835.4 450.55 835.47 451.87 835.54 453.19 835.54 454.54 835.5 455.88 835.47 457.26 835.45 458.64 835.45 460.06 835.45 460.06 835.45 460.06 835.45 461.11 835.46 462.14 835.47 463.17 835.49 464.19 835.51 465.21 835.54 466.21 835.56 467.22 835.52 468.19 835.48 469.17 835.43 470.13 835.38 471.08 835.32 472.02 835.27 472.96 835.2 473.89 835.13 474.81 835.05 475.71 834.97 476.62 834.88 477.51 834.8 478.39 834.7 479.26 834.6 480.13 834.49 480.98 834.38 481.83 834.27 482.67 834.15 483.5 834.02 484.32 833.89 485.13 833.76 485.93 833.48 487.53 833.17 489.06 832.86 490.58 832.5 492.04 832.15 493.5 831.76 494.89 831.36 496.28 830.93 497.6 830.5 498.92 830.03 500.17 829.55 501.42 829.04 502.6 828.53 503.79 827.98 504.9 827.43 506.02 826.84 507.07 826.24 508.12 825.61 509.1 824.98 510.09 824.32 511.03 823.66 511.97 822.98 512.87 822.29 513.77 821.58 514.63 820.87 515.49 820.13 516.31 819.39 517.13 818.63 517.91 817.86 518.69 817.07 519.43 816.27 520.17 815.45 520.86 814.63 521.56 813.78 522.22 812.94 522.87 812.06 523.48 811.19 524.1 810.29 524.66 809.38 525.23 808.46 525.75 807.53 526.27 806.58 526.75 804.67 527.7 802.65 528.47 800.64 529.26 798.52 529.87 797.46 530.18 796.36 530.47 795.26 530.77 794.11 531.05 792.97 531.33 791.78 531.59 790.59 531.85 789.36 532.09 788.14 532.33 786.86 532.56 785.59 532.78 784.28 532.99 782.96 533.19 781.61 533.37 780.25 533.56 778.85 533.71 777.45 533.85 776.02 533.91 774.58 533.93 773.11 533.92 771.63 533.9 770.11 533.86 768.59 533.82 767.03 533.8 765.46 533.87 763.85 533.93 762.24 533.98 760.59 534.01 758.94 533.96 757.25 533.88 755.57 533.7 753.84 533.55 753.84 533.55 753.84 533.55 753.84 533.55 753.84 533.55M930.12 534.11Q927.47 534.28 924.83 534.46 922.19 534.61 919.54 534.7 916.89 534.8 914.25 534.9 911.6 534.93 908.95 534.93 906.3 534.93 903.65 534.93 901.01 534.93 898.36 534.93 895.71 534.93 893.06 534.98 890.42 535.14 887.78 535.29 885.13 535.44 882.49 535.58 879.85 535.69 877.2 535.81 874.56 535.93 871.91 535.93 869.26 535.93 866.62 535.93 863.97 535.93 861.32 535.93 858.67 535.93 856.02 535.93 853.38 535.93 850.73 535.93 848.08 535.93 845.51 535.95 845.44 535.19 845.46 534.29 845.47 533.4 845.48 532.5 845.5 531.61 845.51 530.71 845.53 529.82 845.54 528.92 845.56 528.03 845.57 527.14 845.58 526.24 845.6 525.35 845.61 524.45 845.63 523.56 845.64 522.66 845.65 521.77 845.67 520.87 845.68 519.98 845.7 519.09 845.71 518.19 845.72 517.3 845.74 516.4 845.75 515.51 845.77 514.61 845.78 513.72 845.79 512.82 845.81 511.93 845.82 511.04 845.84 510.14 845.85 509.25 845.86 508.35 845.88 507.46 845.89 506.56 845.91 505.67 845.92 504.77 845.94 503.88 845.95 502.99 845.96 502.09 845.98 501.2 845.99 500.3 846.01 499.41 846.02 498.51 846.03 497.62 846.05 496.72 846.06 495.83 846.08 494.94 846.09 494.04 846.1 493.15 846.12 492.25 846.13 491.36 846.15 490.46 846.15 489.57 846.15 488.67 846.15 487.78 846.15 486.89 846.15 485.99 846.15 485.1 846.15 484.2 846.15 483.31 846.15 482.41 846.15 481.52 846.15 480.63 846.15 479.73 846.15 478.84 846.15 477.94 846.15 477.05 846.15 476.15 846.15 475.26 846.15 474.36 846.15 473.47 846.15 472.58 846.15 471.68 846.15 470.79 846.15 469.89 846.15 469 846.15 468.1 846.15 467.21 846.15 466.32 846.15 465.42 846.15 464.53 846.15 463.63 846.15 462.74 846.15 461.84 846.15 460.95 846.15 460.05 846.15 459.16 846.15 458.27 846.15 457.37 846.15 456.48 846.15 455.58 846.15 454.69 846.15 453.79 846.15 452.9 846.15 452.01 846.15 451.11 846.15 450.22 846.15 449.32 846.15 448.43 846.15 447.53 846.15 446.64 846.15 445.75 846.15 444.85 846.15 443.96 846.15 443.06 846.15 442.17 846.15 441.27 846.15 440.38 846.15 439.49 846.15 438.59 846.15 437.7 846.15 436.8 846.15 435.91 846.15 435.01 846.15 434.12 846.15 433.22 846.15 432.33 846.15 431.44 846.15 430.54 846.15 429.65 846.15 428.75 846.15 427.86 846.15 426.96 846.15 426.07 846.15 425.18 846.15 424.28 846.15 423.39 846.15 422.49 846.15 421.6 846.15 420.7 846.15 419.81 846.15 418.92 846.15 418.02 846.15 417.13 846.15 416.23 846.15 415.34 846.15 414.44 846.15 413.55 846.15 412.66 846.15 411.76 846.15 410.87 846.15 409.97 846.15 409.08 846.15 408.18 846.15 407.29 846.15 406.39 846.15 405.5 846.15 404.61 846.15 403.71 846.14 402.82 846.14 401.92 846.14 401.03 846.14 400.13 846.14 399.24 846.14 398.35 846.14 397.45 846.14 396.56 846.14 395.66 846.14 394.77 846.14 393.87 846.14 392.98 846.14 392.09 846.14 391.19 846.14 390.3 846.14 389.4 846.14 388.51 846.14 387.61 846.14 386.72 846.14 385.83 846.14 384.93 846.14 384.04 846.14 383.14 846.14 382.25 846.14 381.35 846.14 380.46 846.14 379.57 846.14 378.67 846.14 377.78 846.14 376.88 846.14 375.99 846.14 375.09 846.14 374.2 846.14 373.3 846.14 372.41 846.14 371.52 846.14 370.62 846.14 369.73 846.14 368.83 846.14 367.94 846.14 367.04 846.14 366.15 846.14 365.26 846.14 364.36 846.14 363.47 846.14 362.57 846.14 361.68 846.14 360.78 846.14 359.89 846.14 359 846.14 358.1 846.14 357.21 846.14 356.31 846.14 355.42 846.14 354.52 846.14 353.63 846.14 352.73 846.14 351.84 846.14 350.95 846.14 350.05 846.14 349.16 846.14 348.26 846.14 347.37 846.14 346.47 846.14 345.58 846.14 344.69 846.14 343.79 846.14 342.9 846.14 342 846.14 341.11 846.14 340.21 846.14 339.32 846.14 338.42 846.14 337.53 846.14 336.64 846.14 335.74 846.14 334.85 846.14 333.95 846.14 333.06 846.14 332.16 846.14 331.27 846.14 330.37 846.14 329.48 846.14 328.59 846.14 327.69 846.14 326.8 846.14 325.9 846.14 325.01 846.14 324.11 846.14 323.22 846.14 322.32 846.14 321.43 846.14 320.54 846.14 319.64 846.14 318.75 846.14 317.85 846.14 316.96 846.14 316.06 846.14 315.17 846.14 314.27 846.14 313.38 846.14 312.48 846.14 311.59 846.14 310.69 846.14 309.8 846.14 308.91 846.14 308.01 846.14 307.12 848.29 308.15 850.45 309.18 852.6 310.22 854.75 311.28 856.89 312.33 859.03 313.41 861.16 314.49 863.29 315.58 865.41 316.69 867.52 317.8 869.63 318.93 871.74 320.07 873.84 321.21 875.93 322.37 878.02 323.53 880.1 324.71 882.17 325.9 884.24 327.1 886.3 328.32 888.35 329.54 890.4 330.77 892.44 332.02 894.48 333.27 896.5 334.54 898.52 335.82 900.54 337.12 902.54 338.42 904.54 339.73 906.52 341.07 908.5 342.41 910.48 343.76 912.43 345.13 914.39 346.5 916.33 347.9 918.27 349.3 920.2 350.71 922.11 352.15 924.03 353.58 925.92 355.04 927.8 356.51 929.69 357.99 931.55 359.49 933.41 361 935.25 362.52 937.07 364.06 938.9 365.61 940.7 367.18 942.5 368.76 944.28 370.35 946.05 371.96 947.81 373.58 949.55 375.22 951.28 376.87 953 378.54 954.69 380.22 956.38 381.91 958.05 383.63 959.7 385.36 961.34 387.1 962.95 388.87 964.56 390.63 966.14 392.43 967.71 394.23 969.15 395.9 969.7 396.57 970.28 397.28 970.87 398 971.45 398.72 972.04 399.43 972.63 400.15 973.21 400.88 973.78 401.61 974.34 402.34 974.91 403.08 975.48 403.81 976.05 404.54 976.62 405.28 977.17 406.02 977.71 406.77 978.26 407.52 978.81 408.27 979.35 409.02 979.9 409.77 980.44 410.52 980.96 411.29 981.48 412.06 982.01 412.82 982.53 413.59 983.05 414.36 983.58 415.12 984.08 415.9 984.58 416.68 985.08 417.46 985.58 418.24 986.09 419.02 986.59 419.81 984.9 419.11 982.96 418.31 981.03 417.5 979.1 416.68 977.18 415.86 975.26 415.03 973.35 414.19 971.44 413.35 969.54 412.5 967.64 411.64 965.75 410.78 963.87 409.91 961.99 409.03 960.12 408.15 958.26 407.26 956.39 406.37 954.54 405.48 952.69 404.57 950.84 403.67 949 402.76 947.16 401.85 945.33 400.93 943.5 400.02 941.67 399.09 939.84 398.17 938.02 397.25 936.2 396.32 934.39 395.4 932.57 394.47 930.76 393.54 928.95 392.61 927.14 391.68 927.38 392.85 927.61 394.02 927.85 395.19 928.09 396.36 928.32 397.52 928.56 398.68 928.8 399.84 929.03 401 929.27 402.16 929.5 403.32 929.73 404.48 929.97 405.64 930.2 406.79 930.42 407.95 930.65 409.11 930.88 410.27 931.1 411.42 931.32 412.58 931.54 413.74 931.76 414.89 931.97 416.05 932.19 417.21 932.4 418.37 932.6 419.53 932.81 420.68 933.01 421.84 933.21 423 933.41 424.17 933.61 425.33 933.8 426.49 933.99 427.65 934.17 428.82 935.95 429.35 937.73 429.88 939.52 430.41 941.31 430.94 943.1 431.47 944.89 431.99 946.69 432.52 948.49 433.05 950.29 433.57 952.09 434.09 953.9 434.62 955.71 435.14 957.52 435.66 959.34 436.18 961.16 436.7 962.98 437.21 964.81 437.73 966.63 438.24 968.46 438.76 970.3 439.27 972.13 439.78 973.97 440.29 975.81 440.8 977.66 441.3 979.5 441.81 981.35 442.32 983.2 442.82 985.05 443.32 986.9 443.82 988.75 444.33 990.6 444.83 992.45 445.33 992.77 446.21 993.09 447.11 993.4 448 993.71 448.89 994.01 449.79 994.31 450.69 994.6 451.58 994.89 452.49 995.17 453.39 995.44 454.29 995.72 455.2 995.98 456.11 996.24 457.02 996.5 457.93 996.74 458.84 996.99 459.76 997.22 460.67 997.46 461.59 997.68 462.51 997.91 463.43 998.12 464.35 998.33 465.27 998.54 466.2 998.74 467.12 998.93 468.05 999.12 468.98 999.31 469.91 999.48 470.84 999.66 471.77 999.82 472.7 999.98 473.63 1000.14 474.57 998.17 474.24 996.21 473.92 994.24 473.59 992.27 473.27 990.31 472.95 988.34 472.63 986.38 472.31 984.42 472 982.46 471.68 980.5 471.37 978.55 471.05 976.59 470.74 974.64 470.43 972.69 470.12 970.75 469.81 968.81 469.5 966.87 469.19 964.93 468.88 963 468.57 961.07 468.27 959.15 467.96 957.23 467.65 955.31 467.35 953.39 467.04 951.48 466.73 949.57 466.43 947.67 466.12 945.77 465.82 943.87 465.51 941.98 465.21 940.09 464.9 938.2 464.6 938.27 465.67 938.33 466.74 938.38 467.81 938.43 468.89 938.48 469.96 938.53 471.03 938.57 472.11 938.6 473.18 938.63 474.25 938.66 475.33 938.69 476.4 938.7 477.48 938.72 478.55 938.73 479.63 938.73 480.71 938.73 481.78 938.73 482.86 938.72 483.94 938.71 485.02 938.69 486.09 938.66 487.17 938.63 488.25 938.59 489.33 938.55 490.41 938.5 491.49 938.45 492.57 938.38 493.65 938.32 494.73 938.24 495.81 938.16 496.89 938.07 497.97 937.98 499.06 937.87 500.14 937.76 501.22 937.64 502.31 937.51 503.39 937.37 504.48 937.23 505.56 937.07 506.65 936.9 507.74 936.73 508.83 936.54 509.92 936.34 511.01 936.14 512.1 935.92 513.2 935.69 514.29 935.45 515.39 935.19 516.49 934.93 517.59 934.66 518.69 934.37 519.79 934.08 520.9 933.77 522.01 933.46 523.12 933.14 524.23 932.81 525.34 932.47 526.46 932.13 527.57 931.79 528.69 931.44 529.8 931.1 530.91 930.76 532.02 930.42 533.12 930.12 534.11 930.12 534.11 930.12 534.11"></path><path fill="#375152" d="M161.52 686.61Q159.43 685.52 157.35 684.43 155.28 683.33 153.2 682.21 151.12 681.09 148.76 679.78 146.4 678.47 144.21 677.23 142.16 676.06 140.11 674.87 138.06 673.66 136.02 672.46 133.8 671.12 131.5 669.71 129.25 668.32 127.23 667.05 125.21 665.77 123.2 664.47 121.19 663.16 119.13 661.8 116.89 660.29 114.66 658.78 112.81 657.51 111.07 656.29 109.18 654.95 107 653.38 104.81 651.8 102.66 650.19 100.51 648.57 98.54 647.07 96.83 645.74 95.12 644.41 94.9 643.03 94.72 641.55 94.57 640.1 94.44 638.67 94.3 637.26 94.14 635.87 93.98 634.49 93.79 633.12 93.59 631.76 93.38 630.43 93.15 629.1 92.91 627.79 92.65 626.49 92.39 625.21 92.11 623.94 91.82 622.68 91.53 621.43 91.22 620.19 90.91 618.96 90.59 617.74 90.27 616.53 89.94 615.32 89.6 614.12 89.26 612.93 88.92 611.75 88.57 610.57 88.23 609.39 87.88 608.22 87.53 607.05 87.17 605.88 86.82 604.72 86.47 603.56 86.11 602.4 85.76 601.24 85.41 600.09 85.05 598.93 84.7 597.78 84.35 596.62 84 595.47 83.66 594.32 83.31 593.17 82.97 592.01 82.63 590.86 82.29 589.71 81.96 588.55 81.63 587.4 81.3 586.25 80.97 585.09 80.65 583.94 80.33 582.79 80.02 581.63 79.71 580.47 79.4 579.32 79.1 578.16 78.8 577 78.5 575.85 78.21 574.69 77.93 573.53 77.65 572.37 77.37 571.21 77.1 570.05 76.83 568.89 76.57 567.73 76.31 566.56 76.06 565.4 75.81 564.24 75.57 563.07 75.33 561.91 75.1 560.74 74.88 559.58 74.66 558.41 74.44 557.24 74.23 556.07 74.02 554.9 73.83 553.73 73.63 552.56 73.44 551.38 73.26 550.21 73.08 549.03 72.91 547.85 72.74 546.67 72.58 545.49 72.42 544.31 72.27 543.12 72.13 541.94 71.99 540.75 71.86 539.56 71.73 538.37 71.61 537.18 71.49 535.98 71.38 534.79 71.28 533.59 71.18 532.39 71.09 531.19 71 529.99 70.92 528.79 70.85 527.59 70.78 526.39 70.72 525.18 70.66 523.98 70.61 522.77 70.57 521.57 70.54 520.36 70.5 519.16 70.48 517.95 70.46 516.75 70.45 515.54 70.45 514.33 70.45 513.13 70.46 511.92 70.47 510.71 70.49 509.5 70.52 508.3 70.56 507.09 70.6 505.88 70.64 504.67 70.7 503.46 70.76 502.25 70.82 501.04 70.9 499.83 70.98 498.62 71.06 497.41 71.16 496.2 71.25 494.99 71.36 493.77 71.47 492.56 71.59 491.34 71.72 490.13 69.98 489.92 68.23 489.7 66.49 489.48 64.73 489.27 62.98 489.05 61.22 488.83 59.45 488.6 57.68 488.38 55.91 488.15 54.13 487.93 52.35 487.7 50.56 487.47 48.77 487.23 46.97 487 45.17 486.76 43.37 486.52 41.56 486.28 39.75 486.03 37.93 485.78 36.12 485.53 34.29 485.28 32.47 485.02 30.64 484.76 28.82 484.49 26.99 484.23 25.16 483.96 23.33 483.68 21.5 483.41 19.67 483.13 17.84 482.85 16.02 482.56 14.2 482.28 14.38 481.15 14.56 480.02 14.73 478.89 14.91 477.76 15.09 476.63 15.3 475.5 15.53 474.38 15.75 473.25 15.98 472.13 16.2 471.01 16.45 469.89 16.72 468.77 17 467.66 17.27 466.55 17.54 465.43 17.82 464.32 18.14 463.21 18.46 462.11 18.78 461 19.11 459.9 19.43 458.79 19.78 457.69 20.15 456.6 20.52 455.51 20.88 454.41 21.25 453.32 21.63 452.23 22.05 451.14 22.46 450.06 22.88 448.98 23.29 447.9 23.72 446.8 25.76 446.7 27.81 446.59 29.85 446.48 31.9 446.37 33.95 446.26 36 446.15 37.83 446.08 39.28 446.1 40.72 446.12 42.17 446.14 43.61 446.16 45.06 446.17 46.5 446.19 47.94 446.25 49.39 446.33 50.83 446.42 52.27 446.5 53.71 446.59 55.15 446.67 56.59 446.76 58.04 446.84 59.48 446.93 60.92 447.01 62.36 447.1 63.8 447.18 65.24 447.27 66.68 447.35 68.12 447.43 69.56 447.52 71 447.6 72.45 447.69 73.89 447.77 75.33 447.86 76.77 447.94 78.21 448.03 79.65 448.12 81.09 448.21 82.53 448.3 83.97 448.39 85.41 448.48 86.85 448.57 88.29 448.66 89.73 448.75 91.18 448.84 92.62 448.93 94.06 449.02 95.5 449.11 96.94 449.2 98.38 449.29 99.82 449.38 101.26 449.47 102.7 449.56 104.14 449.65 105.58 449.74 107.02 449.83 108.46 449.92 109.9 450.01 111.34 450.11 112.78 450.2 114.22 450.29 115.66 450.39 117.1 450.48 118.54 450.58 119.98 450.67 121.42 450.77 122.86 450.87 124.3 450.96 125.74 451.06 127.18 451.15 128.62 451.25 130.06 451.35 131.5 451.44 132.94 451.54 134.38 451.63 135.82 451.73 137.26 451.83 138.7 451.92 140.14 452.02 141.58 452.12 143.02 452.21 144.46 452.31 145.9 452.4 147.35 452.5 148.79 452.6 150.23 452.69 151.67 452.79 153.11 452.88 154.55 452.98 155.99 453.08 157.42 453.19 158.86 453.29 160.3 453.39 161.74 453.49 163.18 453.59 164.62 453.69 166.06 453.8 167.5 453.9 168.94 454 170.38 454.1 171.82 454.21 173.26 454.31 174.7 454.41 176.14 454.52 177.58 454.62 179.02 454.72 180.46 454.83 181.9 454.93 183.33 455.06 184.76 455.27 186.19 455.47 187.62 455.68 189.05 455.89 190.47 456.09 191.9 456.3 193.33 456.48 194.77 456.64 196.2 456.8 197.63 456.96 199.07 457.13 200.5 457.29 201.93 457.45 203.37 457.57 204.81 457.68 206.25 457.79 207.69 457.9 209.13 458.01 210.57 458.12 211.79 458.27 211.59 459.82 211.4 461.43 211.22 463.03 211.04 464.64 210.86 466.24 210.68 467.85 210.5 469.45 210.32 471.06 210.13 472.66 209.95 474.27 209.77 475.87 209.59 477.48 209.41 479.09 209.23 480.69 209.05 482.3 208.87 483.9 208.68 485.51 208.5 487.11 208.32 488.72 208.14 490.33 207.96 491.93 207.78 493.54 207.6 495.14 207.42 496.75 207.23 498.35 207.05 499.96 206.87 501.57 206.69 503.17 206.51 504.78 206.33 506.38 206.16 507.99 206.15 509.6 204.87 509.34 203.38 509.03 201.89 508.73 200.4 508.43 198.91 508.14 197.41 507.85 195.92 507.56 194.42 507.27 192.91 506.99 191.4 506.71 189.89 506.43 188.37 506.15 186.85 505.88 185.33 505.61 183.8 505.34 182.27 505.07 180.74 504.81 179.2 504.55 177.66 504.29 176.12 504.03 174.57 503.78 173.02 503.53 171.46 503.28 169.91 503.03 168.35 502.78 166.79 502.54 165.22 502.3 163.65 502.06 162.08 501.82 160.51 501.58 158.93 501.35 157.35 501.12 157.28 502.56 157.21 503.99 157.14 505.43 157.08 506.87 157.02 508.31 156.96 509.75 156.91 511.19 156.86 512.62 156.82 514.06 156.78 515.5 156.74 516.94 156.7 518.37 156.67 519.81 156.64 521.25 156.62 522.68 156.59 524.12 156.57 525.55 156.56 526.99 156.54 528.42 156.53 529.86 156.52 531.29 156.52 532.73 156.51 534.16 156.51 535.59 156.51 537.03 156.51 538.46 156.52 539.89 156.52 541.33 156.53 542.76 156.54 544.19 156.55 545.62 156.57 547.05 156.59 548.49 156.6 549.92 156.62 551.35 156.65 552.78 156.67 554.21 156.7 555.64 156.72 557.07 156.75 558.5 156.78 559.93 156.82 561.36 156.85 562.79 156.88 564.22 156.92 565.65 156.96 567.08 157 568.51 157.04 569.94 157.08 571.37 157.13 572.8 157.17 574.23 157.22 575.66 157.27 577.09 157.32 578.52 157.37 579.95 157.42 581.38 157.47 582.81 157.53 584.24 157.58 585.67 157.64 587.1 157.69 588.53 157.75 589.96 157.81 591.39 157.87 592.82 157.93 594.25 158 595.68 158.06 597.11 158.12 598.54 158.19 599.97 158.26 601.41 158.32 602.84 158.39 604.27 158.46 605.7 158.53 607.14 158.6 608.57 158.66 610.01 158.74 611.45 158.81 612.88 158.88 614.32 158.95 615.76 159.02 617.2 159.09 618.64 159.17 620.08 159.24 621.52 159.31 622.96 159.38 624.4 159.46 625.85 159.53 627.3 159.6 628.74 159.68 630.19 159.75 631.64 159.82 633.09 159.89 634.55 159.96 636 160.04 637.46 160.11 638.92 160.18 640.38 160.25 641.84 160.31 643.3 160.38 644.77 160.45 646.24 160.52 647.71 160.58 649.19 160.65 650.66 160.71 652.14 160.77 653.63 160.84 655.11 160.9 656.6 160.95 658.09 161.01 659.59 161.07 661.09 161.12 662.59 161.18 664.1 161.23 665.61 161.28 667.13 161.33 668.64 161.38 670.17 161.42 671.69 161.46 673.22 161.5 674.75 161.54 676.28 161.58 677.81 161.6 679.33 161.62 680.85 161.63 682.36 161.61 683.86 161.58 685.32 161.52 686.61 161.52 686.61 161.52 686.61M400.99 755.08Q398.76 754.96 396.07 754.63 393.39 754.29 390.72 753.95 387.77 753.55 384.75 753.15 381.74 752.72 378.72 752.3 375.7 751.85 372.67 751.4 369.65 750.94 366.62 750.46 363.59 749.97 360.56 749.48 357.73 749 355.1 748.55 352.29 748.06 349.27 747.52 346.39 747 343.78 746.51 341.04 746 338.01 745.41 334.98 744.82 331.95 744.21 328.92 743.59 325.88 742.96 322.85 742.32 319.82 741.66 316.8 741 314.21 740.42 311.62 739.83 308.6 739.13 305.57 738.42 302.95 737.79 300.38 737.16 297.41 736.43 294.38 735.67 291.35 734.89 288.32 734.11 285.29 733.3 282.26 732.49 279.54 731.74 276.98 731.03 274.14 730.23 271.12 729.37 268.34 728.56 265.78 727.81 263.01 726.98 260 726.06 256.98 725.13 253.96 724.18 251.1 723.28 248.56 722.45 245.88 721.58 242.88 720.57 239.97 719.59 237.42 718.72 234.82 717.82 231.82 716.76 228.86 715.71 226.32 714.78 223.77 713.85 220.8 712.73 217.9 711.66 217.87 710.78 217.94 709.79 218.02 708.8 218.09 707.81 218.17 706.83 218.25 705.84 218.33 704.85 218.4 703.86 218.48 702.87 218.56 701.89 218.63 700.9 218.71 699.91 218.79 698.92 218.87 697.94 218.94 696.95 219.02 695.96 219.1 694.97 219.18 693.99 219.25 693 219.33 692.01 219.41 691.02 219.48 690.04 219.56 689.05 219.64 688.06 219.72 687.07 219.79 686.09 219.87 685.1 219.95 684.11 220.03 683.12 220.1 682.14 220.18 681.15 220.26 680.16 220.33 679.18 220.41 678.19 220.49 677.2 220.57 676.21 220.64 675.23 220.72 674.24 220.8 673.25 220.87 672.26 220.95 671.28 221.03 670.29 221.11 669.3 221.18 668.31 221.26 667.33 221.34 666.34 221.42 665.35 221.49 664.36 221.57 663.38 221.65 662.39 221.72 661.4 221.75 660.41 221.75 659.43 221.75 658.44 221.75 657.45 221.75 656.47 221.75 655.48 221.75 654.49 221.75 653.5 221.75 652.52 221.75 651.53 221.75 650.54 221.75 649.55 221.75 648.57 221.75 647.58 221.75 646.59 221.75 645.6 221.75 644.62 221.75 643.63 221.75 642.64 221.75 641.65 221.75 640.67 221.75 639.68 221.75 638.69 221.75 637.71 221.75 636.72 221.75 635.73 221.75 634.74 221.75 633.76 221.75 632.77 221.75 631.78 221.75 630.79 221.75 629.81 221.75 628.82 221.75 627.83 221.75 626.84 221.75 625.86 221.75 624.87 221.75 623.88 221.75 622.9 221.75 621.91 221.75 620.92 221.75 619.93 221.75 618.95 221.75 617.96 221.75 616.97 221.75 615.98 221.75 615 221.75 614.01 221.75 613.02 221.75 612.03 221.75 611.05 221.75 610.06 221.75 609.07 221.75 608.09 221.75 607.1 221.75 606.11 221.75 605.12 221.75 604.14 221.75 603.15 221.75 602.16 221.75 601.17 221.75 600.19 221.75 599.2 221.75 598.21 221.75 597.22 221.75 596.24 221.75 595.25 221.75 594.26 221.75 593.28 221.75 592.29 221.75 591.3 221.75 590.31 221.75 589.33 221.75 588.34 221.75 587.35 221.75 586.36 221.75 585.38 221.75 584.39 221.75 583.4 221.75 582.41 221.75 581.43 221.75 580.44 221.75 579.45 221.75 578.47 221.75 577.48 221.75 576.49 221.75 575.5 221.75 574.52 221.75 573.53 221.75 572.54 221.75 571.55 221.75 570.57 221.75 569.58 221.75 568.59 221.75 567.6 221.75 566.62 221.75 565.63 221.75 564.64 221.75 563.66 221.75 562.67 221.75 561.68 221.75 560.69 221.75 559.71 221.75 558.72 221.75 557.73 221.75 556.74 221.75 555.76 221.75 554.77 221.75 553.78 221.75 552.8 221.75 551.81 221.75 550.82 221.75 549.83 221.75 548.85 221.75 547.86 221.75 546.87 221.75 545.88 221.75 544.9 221.75 543.91 221.75 542.92 221.75 541.93 221.75 540.95 221.75 539.96 221.75 538.97 221.75 537.99 221.75 537 221.75 536.01 221.75 535.02 221.75 534.04 221.75 533.05 221.75 532.06 221.75 531.07 221.75 530.09 221.75 529.1 221.75 528.11 221.75 527.13 221.75 526.14 221.75 525.15 221.75 524.16 221.75 523.18 221.75 522.19 221.75 521.2 221.75 520.21 221.75 519.23 221.75 518.24 221.75 517.25 221.75 516.26 221.75 515.28 221.75 514.29 221.75 513.3 221.75 512.32 221.75 511.33 221.75 510.34 221.75 509.35 221.75 508.37 221.75 507.38 221.75 506.39 221.75 505.4 221.75 504.42 221.75 503.43 221.75 502.44 221.75 501.46 221.75 500.47 221.75 499.48 221.75 498.49 221.75 497.51 221.75 496.52 221.75 495.53 221.75 494.54 221.75 493.56 221.75 492.57 221.75 491.58 221.75 490.6 221.75 489.61 221.75 488.62 221.75 487.63 221.75 486.65 221.75 485.66 221.75 484.67 221.75 483.68 221.75 482.7 221.75 481.71 221.75 480.72 221.75 479.73 221.75 478.75 221.75 477.76 221.75 476.77 221.75 475.79 221.75 474.8 221.75 473.81 221.75 472.82 221.75 471.84 221.75 470.85 221.75 469.86 221.75 468.87 221.75 467.89 221.75 466.9 221.75 465.91 221.75 464.92 221.75 463.94 221.75 462.95 221.75 461.96 221.75 460.97 221.75 459.99 221.75 459 224.63 459.22 227.51 459.44 230.38 459.66 233.25 459.97 236.11 460.32 238.97 460.68 241.83 461.05 244.69 461.46 247.54 461.87 250.4 462.28 253.27 462.53 256.15 462.77 259.03 463.01 261.9 463.27 264.78 463.53 267.65 463.79 270.52 464.1 273.36 464.59 276.2 465.07 279.05 465.56 281.91 465.91 284.78 466.24 287.64 466.57 290.51 466.87 293.39 467.13 296.26 467.39 299.13 467.67 301.99 468.05 304.85 468.43 307.71 468.81 310.56 469.23 313.41 469.68 316.26 470.12 319.11 470.54 321.97 470.9 324.83 471.27 327.69 471.64 330.53 472.14 333.37 472.65 336.21 473.16 339.07 473.54 341.94 473.85 344.81 474.16 347.68 474.49 350.53 474.87 353.39 475.24 356.25 475.62 359.09 476.14 361.92 476.66 364.75 477.19 367.6 477.67 370.45 478.11 373.29 478.55 376.14 479 378.98 479.51 381.82 480.01 384.66 480.52 387.49 481.04 390.33 481.56 393.17 482.08 396.01 482.57 398.86 483.02 401.7 483.47 404.3 483.94 404.17 485.59 404.07 487.3 403.97 489.01 403.87 490.73 403.77 492.44 403.68 494.16 403.58 495.87 403.48 497.58 403.39 499.3 403.29 501.01 403.19 502.73 403.09 504.44 403 506.15 402.9 507.87 402.8 509.58 402.71 511.3 402.61 513.01 402.51 514.73 402.41 516.44 402.32 518.15 402.22 519.87 402.12 521.58 402.03 523.3 401.93 525.01 401.83 526.73 401.73 528.44 401.64 530.15 401.54 531.87 401.44 533.58 401.35 535.3 401.25 537.01 401.19 538.73 399.02 538.35 396.57 537.92 394.13 537.5 391.67 537.07 389.22 536.65 386.76 536.23 384.3 535.81 381.83 535.39 379.36 534.97 376.89 534.55 374.42 534.13 371.94 533.72 369.46 533.3 366.98 532.89 364.49 532.48 362 532.07 359.51 531.66 357.02 531.25 354.53 530.84 352.03 530.44 349.53 530.03 347.03 529.63 344.53 529.23 342.03 528.82 339.52 528.42 337.02 528.02 334.51 527.63 332 527.23 329.49 526.83 326.98 526.44 324.47 526.04 321.95 525.65 321.93 527.24 321.9 528.84 321.87 530.43 321.85 532.03 321.82 533.62 321.8 535.21 321.78 536.81 321.75 538.4 321.73 539.99 321.71 541.58 321.69 543.17 321.67 544.76 321.65 546.35 321.64 547.94 321.62 549.53 321.6 551.11 321.59 552.7 321.57 554.29 321.56 555.88 321.54 557.47 321.53 559.05 321.51 560.64 321.5 562.23 321.49 563.81 321.48 565.4 321.46 566.99 321.45 568.57 321.44 570.16 321.43 571.75 321.42 573.33 321.41 574.92 321.4 576.5 323.6 576.9 325.8 577.29 328 577.68 330.21 578.08 332.41 578.47 334.61 578.86 336.81 579.26 339.01 579.65 341.21 580.04 343.41 580.44 345.61 580.83 347.81 581.22 350.01 581.62 352.21 582.01 354.41 582.4 356.61 582.8 358.81 583.19 361.01 583.59 363.21 583.98 365.41 584.38 367.6 584.77 369.8 585.17 372 585.56 374.2 585.96 376.4 586.35 378.6 586.75 380.8 587.15 383 587.54 385.19 587.94 387.39 588.33 389.59 588.73 391.79 589.13 391.79 590.84 391.79 592.55 391.79 594.26 391.78 595.97 391.78 597.68 391.78 599.39 391.78 601.1 391.78 602.81 391.78 604.53 391.78 606.24 391.77 607.95 391.77 609.66 391.77 611.37 391.77 613.08 391.77 614.79 391.77 616.5 391.77 618.21 391.77 619.92 391.76 621.63 391.76 623.34 391.76 625.05 391.76 626.77 391.76 628.48 391.76 630.19 391.76 631.9 391.75 633.61 391.75 635.32 391.75 637.03 391.75 638.74 391.75 640.45 391.75 642.17 391.75 643.88 389.54 643.45 387.33 643.03 385.12 642.6 382.91 642.17 380.7 641.74 378.49 641.32 376.28 640.89 374.07 640.46 371.86 640.03 369.65 639.6 367.44 639.17 365.23 638.74 363.02 638.3 360.81 637.87 358.6 637.44 356.39 637 354.18 636.57 351.98 636.14 349.77 635.7 347.56 635.26 345.35 634.83 343.14 634.39 340.94 633.95 338.73 633.52 336.52 633.08 334.32 632.64 332.11 632.2 329.9 631.76 327.7 631.32 325.49 630.87 323.29 630.43 321.08 629.99 321.07 631.67 321.06 633.34 321.04 635.02 321.03 636.69 321.02 638.37 321 640.05 320.99 641.73 320.97 643.41 320.96 645.09 320.94 646.77 320.93 648.45 320.91 650.13 320.89 651.81 320.88 653.5 320.86 655.18 320.84 656.87 320.82 658.55 320.8 660.24 320.78 661.93 320.76 663.62 320.73 665.31 320.71 667 320.68 668.7 320.66 670.4 320.63 672.09 320.61 673.79 320.58 675.49 320.55 677.2 320.52 678.91 320.49 680.61 320.45 682.32 320.42 684.04 322.95 684.59 325.48 685.14 328.01 685.69 330.54 686.24 333.07 686.78 335.61 687.32 338.14 687.86 340.67 688.39 343.21 688.92 345.74 689.45 348.28 689.98 350.81 690.5 353.35 691.03 355.89 691.54 358.42 692.06 360.96 692.58 363.49 693.09 366.03 693.6 368.56 694.11 371.1 694.62 373.63 695.13 376.17 695.63 378.7 696.13 381.23 696.64 383.77 697.14 386.3 697.64 388.83 698.13 391.36 698.63 393.89 699.13 396.42 699.62 398.95 700.12 401.19 700.56 401.19 702.27 401.19 703.99 401.19 705.7 401.19 707.42 401.19 709.13 401.19 710.84 401.19 712.56 401.19 714.27 401.19 715.99 401.19 717.7 401.19 719.42 401.19 721.13 401.19 722.85 401.19 724.56 401.19 726.28 401.19 727.99 401.19 729.71 401.19 731.42 401.19 733.13 401.19 734.85 401.19 736.56 401.19 738.28 401.19 739.99 401.19 741.71 401.19 743.42 401.19 745.14 401.19 746.85 401.19 748.57 401.19 750.28 401.19 752 401.2 753.71 400.99 755.08 400.99 755.08 400.99 755.08M500.85 761.64Q498.39 761.61 495.88 761.6 493.37 761.6 490.8 761.51 488.23 761.39 485.6 761.22 482.98 761.05 480.3 760.83 477.61 760.6 474.88 760.34 473.51 760.2 472.12 760.05 470.74 759.9 469.34 759.74 467.94 759.57 466.53 759.4 465.12 759.22 463.7 759.03 462.27 758.84 460.83 758.64 459.39 758.44 457.94 758.22 456.49 758 455.07 757.78 453.64 757.55 452.25 757.33 450.85 757.1 449.49 756.86 448.14 756.62 446.82 756.38 444.24 755.9 441.81 755.41 439.37 754.91 436.99 754.4 434.56 753.87 432.2 753.33 429.84 752.78 427.57 752.23 425.29 751.67 423.12 751.1 420.95 750.54 418.89 749.97 418.89 749.97 418.89 749.97 418.89 748.46 418.88 746.95 418.88 745.44 418.88 743.94 418.88 742.43 418.88 740.93 418.88 739.42 418.88 737.92 418.88 736.41 418.88 734.91 418.88 733.4 418.88 731.9 418.89 730.4 418.89 728.89 418.89 727.39 418.89 725.89 418.89 724.39 418.89 722.88 418.89 721.38 418.9 719.88 418.9 718.38 418.9 716.87 418.9 715.37 418.9 713.87 418.9 712.37 418.91 710.87 418.91 709.37 418.91 707.87 418.91 706.36 418.91 704.86 418.91 703.36 418.91 701.86 421.4 702.18 423.81 702.49 426.21 702.79 428.54 703.07 430.87 703.35 433.12 703.62 435.37 703.88 437.54 704.13 439.71 704.37 441.8 704.6 443.9 704.83 445.91 705.04 447.93 705.26 449.86 705.45 451.8 705.64 453.65 705.82 455.51 706 457.29 706.17 459.07 706.33 460.77 706.48 462.47 706.62 464.09 706.75 465.71 706.89 467.26 707 468.8 707.12 470.26 707.22 471.73 707.33 473.11 707.42 475.88 707.59 478.34 707.72 478.34 707.72 478.34 707.72 480.11 707.81 481.76 707.88 483.41 707.95 484.94 708 486.47 708.05 487.87 708.08 489.27 708.11 490.55 708.12 493.11 708.14 495.17 708.09 497.24 708.04 498.81 707.92 500.38 707.8 501.76 707.54 503.14 707.27 504.33 706.86 506.72 706.03 508.36 704.63 508.36 704.63 508.36 704.63 509.58 703.49 510.5 701.73 510.96 700.85 511.34 699.81 511.73 698.78 512.03 697.59 512.34 696.4 512.57 695.06 512.79 693.71 512.95 692.22 513.1 690.72 513.17 689.07 513.25 687.42 513.24 685.62 513.24 685.62 513.24 685.62 513.24 684.04 513.21 682.58 513.19 681.12 513.13 679.77 513.08 678.42 513 677.19 512.92 675.96 512.82 674.84 512.71 673.72 512.58 672.72 512.45 671.71 512.3 670.82 511.99 669.03 511.58 667.7 511.17 666.37 510.52 665.18 509.87 664 508.98 662.96 508.09 661.92 506.96 661.03 505.84 660.14 504.47 659.39 503.11 658.65 501.26 657.88 499.42 657.11 497.1 656.32 494.78 655.53 491.99 654.71 490.59 654.3 489.07 653.88 487.55 653.47 485.92 653.05 485.92 653.05 485.92 653.05 483.6 652.47 481.28 651.89 478.96 651.3 476.65 650.72 474.33 650.13 472.01 649.54 469.7 648.95 467.38 648.36 465.06 647.76 462.75 647.16 460.43 646.56 458.12 645.96 455.8 645.36 453.49 644.75 451.17 644.14 448.85 643.53 446.54 642.92 444.39 642.09 442.23 641.26 440.24 640.2 438.25 639.15 436.42 637.87 434.59 636.59 432.92 635.1 431.26 633.59 429.75 631.87 429 631.01 428.29 630.09 427.57 629.18 426.9 628.2 426.23 627.23 425.6 626.2 424.97 625.17 424.38 624.09 423.78 623 423.23 621.86 422.68 620.72 422.17 619.52 421.66 618.33 421.18 617.08 420.71 615.83 420.26 614.53 419.81 613.23 419.4 611.88 418.98 610.52 418.6 609.12 418.22 607.72 417.87 606.26 417.52 604.8 417.2 603.3 416.88 601.79 416.59 600.23 416.31 598.67 416.05 597.06 415.8 595.44 415.57 593.78 415.35 592.12 415.16 590.4 414.97 588.69 414.81 586.93 414.65 585.16 414.52 583.34 414.39 581.53 414.3 579.66 414.2 577.79 414.14 575.87 414.11 574.91 414.08 573.94 414.06 572.97 414.04 571.99 414.03 571 414.02 570.01 414.01 569.01 414.01 568 414.01 568 414.01 568 414.01 566.92 414.02 565.85 414.04 564.79 414.06 563.74 414.08 562.7 414.12 561.67 414.16 560.64 414.2 559.63 414.25 558.62 414.31 557.63 414.37 556.64 414.44 555.67 414.51 554.7 414.6 553.74 414.68 552.79 414.78 551.85 414.97 549.98 415.2 548.18 415.44 546.38 415.73 544.65 416.01 542.93 416.35 541.27 416.68 539.62 417.06 538.04 417.44 536.46 417.87 534.96 418.3 533.45 418.77 532.02 419.25 530.59 419.77 529.23 420.3 527.88 420.87 526.6 421.44 525.31 422.05 524.11 422.67 522.9 423.34 521.77 424 520.64 424.71 519.58 425.43 518.52 426.18 517.54 426.94 516.56 427.74 515.64 428.53 514.71 429.36 513.84 430.19 512.97 431.05 512.16 431.91 511.35 432.81 510.59 433.7 509.84 434.63 509.14 435.56 508.45 436.53 507.81 437.49 507.17 438.49 506.59 439.49 506.01 440.52 505.49 441.55 504.97 442.61 504.51 443.68 504.05 444.78 503.65 445.88 503.25 447.01 502.91 448.14 502.57 449.3 502.29 450.47 502.01 451.67 501.79 452.87 501.56 454.11 501.39 455.34 501.21 456.61 501.09 457.89 500.96 459.19 500.88 460.5 500.8 461.85 500.75 463.2 500.71 464.6 500.69 465.99 500.68 467.43 500.71 468.87 500.74 470.35 500.8 471.83 500.88 473.34 501 474.86 501.12 476.42 501.29 477.98 501.45 479.59 501.64 481.2 501.83 482.85 502.03 484.51 502.22 486.21 502.43 487.91 502.65 489.66 502.9 491.41 503.14 493.2 503.42 494.99 503.69 496.83 503.99 498.67 504.29 500.54 504.67 502.4 505.08 504.31 505.52 506.22 505.95 508.18 506.42 510.13 506.88 512.13 507.37 512.13 507.37 512.13 507.37 514.47 507.94 516.75 508.52 519.04 509.08 521.28 509.63 523.52 510.17 525.71 510.73 527.91 511.28 530.05 511.82 532.2 512.36 534.3 512.91 536.39 513.46 538.44 514.03 540.49 514.59 542.49 515.16 544.49 515.73 546.44 516.32 548.39 516.91 550.23 517.47 552.08 518.05 553.83 518.61 555.57 519.18 557.2 519.74 558.84 520.32 560.38 520.87 561.91 521.42 563.36 521.93 564.8 522.42 566.15 522.88 568.85 523.77 571.16 524.56 573.47 525.36 575.33 526.01 577.19 526.67 578.62 527.17 581.47 528.16 582.56 528.53 582.56 528.53 582.56 528.53 582.64 529.85 582.72 531.17 582.8 532.48 582.89 533.8 582.97 535.12 583.05 536.44 583.13 537.76 583.22 539.08 583.3 540.4 583.38 541.73 583.47 543.05 583.55 544.37 583.63 545.69 583.71 547.01 583.8 548.33 583.88 549.66 583.96 550.98 584.04 552.3 584.13 553.62 584.21 554.95 584.29 556.27 584.37 557.59 584.45 558.91 584.52 560.24 584.6 561.56 584.67 562.88 584.74 564.21 584.81 565.53 584.87 566.85 584.93 568.18 584.98 569.5 585.02 570.83 584.18 570.61 582.69 570.28 581.21 569.95 579.08 569.5 576.96 569.04 574.19 568.46 572.81 568.16 571.27 567.84 569.73 567.51 568.04 567.15 566.34 566.79 564.59 566.43 562.85 566.07 561.05 565.7 559.25 565.34 557.39 564.97 555.54 564.6 553.63 564.24 551.73 563.87 549.77 563.5 547.82 563.13 545.81 562.75 543.8 562.38 541.74 562.01 539.67 561.63 537.56 561.26 537.56 561.26 537.56 561.26 535.51 560.89 533.61 560.57 531.71 560.24 529.95 559.94 528.19 559.65 526.57 559.39 524.95 559.13 523.47 558.9 520.52 558.45 518.13 558.15 515.74 557.85 513.91 557.69 512.08 557.54 510.5 557.52 508.93 557.5 507.61 557.62 504.98 557.85 503.37 558.64 503.37 558.64 503.37 558.64 501.48 559.37 500.28 560.82 499.68 561.55 499.25 562.45 498.82 563.35 498.56 564.43 498.3 565.51 498.11 566.94 497.92 568.36 497.81 570.12 497.75 571 497.7 571.96 497.66 572.93 497.64 573.98 497.61 575.03 497.6 576.16 497.6 577.29 497.61 578.51 497.61 578.51 497.61 578.51 497.62 580.23 497.68 581.81 497.74 583.38 497.84 584.82 497.94 586.26 498.09 587.55 498.24 588.85 498.44 590.01 498.63 591.16 498.87 592.18 499.11 593.19 499.4 594.07 499.97 595.82 500.72 597 501.48 598.19 502.76 599.29 504.04 600.39 505.85 601.4 507.66 602.42 510 603.34 512.34 604.26 515.21 605.09 515.21 605.09 515.21 605.09 517.15 605.67 519.1 606.24 521.04 606.81 522.99 607.38 524.94 607.94 526.89 608.51 528.83 609.07 530.78 609.64 532.73 610.2 534.68 610.76 536.63 611.32 538.58 611.87 540.53 612.43 542.48 612.98 544.43 613.53 546.38 614.08 548.3 614.63 550.14 615.2 551.99 615.78 553.77 616.39 555.55 616.99 557.27 617.63 558.98 618.27 560.62 618.94 562.27 619.61 563.84 620.31 565.42 621.01 566.93 621.74 568.44 622.47 569.88 623.23 571.31 623.99 572.68 624.78 574.06 625.57 575.36 626.48 576.66 627.38 577.89 628.39 579.13 629.4 580.29 630.52 581.46 631.64 582.55 632.87 583.65 634.1 584.68 635.44 585.7 636.78 586.66 638.22 587.62 639.67 588.51 641.23 589.4 642.78 590.22 644.44 590.22 644.44 590.22 644.44 590.67 645.34 591.08 646.27 591.5 647.2 591.89 648.17 592.28 649.13 592.64 650.13 593 651.12 593.34 652.15 593.67 653.18 593.97 654.24 594.28 655.3 594.56 656.39 594.84 657.49 595.09 658.61 595.34 659.74 595.56 660.9 595.78 662.06 595.98 663.25 596.17 664.45 596.34 665.67 596.5 666.9 596.64 668.16 596.78 669.42 596.89 670.71 597 672 597.09 673.33 597.17 674.66 597.17 676.01 597.12 677.36 597.09 678.75 597.06 680.14 597.06 681.57 597.06 681.57 597.06 681.57 597.06 682.63 597.07 683.67 597.09 684.71 597.11 685.73 597.13 686.75 597.17 687.76 597.19 688.77 597.15 689.75 597.1 690.74 597.04 691.71 596.98 692.67 596.91 693.62 596.84 694.58 596.76 695.51 596.68 696.44 596.58 697.36 596.49 698.27 596.39 699.17 596.28 700.07 596.16 700.95 596.04 701.83 595.92 702.7 595.79 703.56 595.65 704.41 595.51 705.25 595.35 706.08 595.2 706.91 595.04 707.73 594.71 709.35 594.33 710.91 593.96 712.47 593.54 713.96 593.11 715.45 592.65 716.88 592.18 718.3 591.66 719.66 591.15 721.02 590.59 722.31 590.02 723.61 589.42 724.84 588.81 726.07 588.15 727.23 587.5 728.4 586.8 729.5 586.1 730.61 585.35 731.65 584.6 732.69 583.82 733.69 583.05 734.7 582.24 735.66 581.43 736.63 580.6 737.56 579.76 738.49 578.9 739.38 578.03 740.28 577.14 741.14 576.24 742 575.32 742.83 574.39 743.66 573.44 744.45 572.49 745.25 571.5 746 570.52 746.76 569.51 747.48 568.49 748.2 567.45 748.88 566.4 749.57 565.32 750.2 564.24 750.85 563.12 751.44 560.88 752.63 558.51 753.63 556.14 754.63 553.63 755.43 552.38 755.83 551.08 756.2 549.77 756.58 548.42 756.93 547.06 757.28 545.66 757.62 544.25 757.95 542.79 758.25 541.34 758.56 539.83 758.84 538.33 759.12 536.78 759.38 535.22 759.64 533.62 759.87 532.02 760.1 530.37 760.31 528.72 760.51 527.02 760.69 525.32 760.87 523.57 761.03 521.83 761.17 520.03 761.3 518.24 761.42 516.4 761.52 514.57 761.61 512.69 761.68 510.8 761.75 508.85 761.78 506.89 761.74 504.89 761.7 502.9 761.66 500.85 761.64 500.85 761.64 500.85 761.64 500.85 761.64 500.85 761.64M738.83 733.3Q736.11 734.02 733.4 734.72 730.69 735.42 727.97 736.11 725.26 736.78 722.68 737.42 720.37 737.98 718.05 738.53 715.34 739.17 712.62 739.8 710.19 740.35 707.88 740.87 705.4 741.42 702.68 742.01 699.96 742.6 697.25 743.16 694.53 743.73 691.81 744.28 689.1 744.82 686.57 745.32 684.24 745.77 681.83 746.23 679.12 746.74 676.4 747.24 673.69 747.73 670.98 748.21 668.47 748.65 666.11 749.05 663.66 749.46 660.95 749.91 658.23 750.35 655.52 750.77 655.49 749.51 655.45 748.08 655.4 746.65 655.35 745.21 655.31 743.78 655.27 742.34 655.24 740.9 655.21 739.46 655.19 738.02 655.16 736.59 655.14 735.16 655.12 733.73 655.1 732.3 655.09 730.88 655.07 729.46 655.05 728.04 655.04 726.62 655.03 725.21 655.01 723.8 655 722.39 654.99 720.99 654.98 719.59 654.97 718.19 654.96 716.79 654.95 715.4 654.94 714.01 654.93 712.62 654.92 711.23 654.92 709.84 654.91 708.46 654.9 707.07 654.9 705.69 654.89 704.31 654.88 702.94 654.88 701.56 654.87 700.18 654.86 698.81 654.86 697.44 654.85 696.07 654.85 694.7 654.84 693.33 654.84 691.96 654.83 690.59 654.83 689.23 654.83 687.86 654.82 686.5 654.82 685.13 654.81 683.77 654.81 682.41 654.81 681.05 654.8 679.69 654.8 678.33 654.79 676.97 654.79 675.61 654.79 674.26 654.78 672.9 654.78 671.55 654.78 670.19 654.77 668.84 654.77 667.48 654.77 666.13 654.76 664.78 654.76 663.42 654.76 662.07 654.75 660.72 654.75 659.37 654.75 658.02 654.74 656.67 654.74 655.32 654.74 653.97 654.74 652.62 654.73 651.27 654.73 649.92 654.73 648.58 654.72 647.23 654.72 645.88 654.72 644.53 654.72 643.19 654.71 641.84 654.71 640.5 654.71 639.15 654.7 637.81 654.7 636.46 654.7 635.12 654.69 633.77 654.69 632.43 654.69 631.09 654.69 629.74 654.68 628.4 654.68 627.06 654.68 625.72 654.67 624.37 654.67 623.03 654.67 621.69 654.66 620.35 654.66 619.01 654.66 617.67 654.65 616.33 654.65 614.99 654.65 613.65 654.64 612.31 654.64 610.97 654.63 609.64 654.63 608.3 654.63 606.96 654.62 605.63 654.62 604.29 654.61 602.96 654.61 601.62 654.6 600.29 654.6 598.95 654.6 597.62 654.59 596.29 654.59 594.96 654.58 593.62 654.58 592.29 654.57 590.97 654.56 589.64 654.56 588.31 654.55 586.98 654.55 585.66 654.54 584.33 654.53 583.01 654.53 581.69 654.52 580.37 654.51 579.05 654.51 577.73 654.5 576.41 652.91 576.33 651.33 576.24 649.74 576.15 648.16 576.06 646.57 575.97 644.98 575.89 643.4 575.8 641.81 575.71 640.23 575.63 638.64 575.55 637.06 575.46 635.47 575.38 633.89 575.3 632.3 575.23 630.72 575.15 629.13 575.07 627.55 575 625.96 574.93 624.38 574.86 622.79 574.79 621.21 574.72 619.62 574.66 618.04 574.6 616.45 574.54 614.87 574.48 613.28 574.42 611.69 574.37 610.11 574.32 608.52 574.27 606.94 574.22 605.35 574.18 603.77 574.14 603.77 572.65 603.77 571.16 603.77 569.67 603.77 568.18 603.77 566.69 603.77 565.2 603.77 563.71 603.77 562.22 603.77 560.73 603.77 559.24 603.77 557.75 603.77 556.26 603.77 554.77 603.77 553.28 603.76 551.79 603.76 550.3 603.76 548.81 603.76 547.32 603.76 545.83 603.76 544.34 603.76 542.85 603.76 541.36 603.76 539.87 603.76 538.38 603.76 536.89 603.76 535.41 603.76 533.92 603.76 532.43 603.76 530.94 603.76 529.45 603.76 527.96 603.76 526.48 605.16 526.81 606.56 527.15 607.95 527.5 609.35 527.84 610.74 528.18 612.14 528.52 613.55 528.82 614.97 529.06 616.39 529.29 617.81 529.52 619.24 529.75 620.66 529.98 622.08 530.21 623.51 530.42 624.93 530.63 626.36 530.83 627.79 531.03 629.22 531.24 630.65 531.44 632.08 531.65 633.51 531.85 634.94 532.06 636.36 532.26 637.79 532.46 639.22 532.67 640.65 532.87 642.08 533.08 643.51 533.28 644.94 533.48 646.36 533.69 647.79 533.89 649.22 534.1 650.65 534.3 652.08 534.5 653.51 534.69 654.94 534.88 656.37 535.07 657.8 535.26 659.23 535.45 660.66 535.64 662.09 535.84 663.52 536.03 664.95 536.23 666.38 536.43 667.81 536.62 669.24 536.82 670.67 537.02 672.1 537.2 673.53 537.38 674.97 537.56 676.4 537.74 677.83 537.92 679.26 538.1 680.69 538.26 682.13 538.39 683.57 538.51 685 538.63 686.44 538.75 687.87 538.87 689.31 539 690.75 539.1 692.18 539.19 693.62 539.28 695.06 539.37 696.5 539.46 697.93 539.55 699.37 539.64 700.81 539.78 702.24 539.95 703.67 540.11 705.11 540.28 706.54 540.44 707.97 540.61 709.41 540.78 710.84 540.95 712.27 541.12 713.71 541.3 715.14 541.47 716.57 541.64 718 541.82 719.44 541.95 720.88 541.97 722.32 541.99 723.77 542 725.21 542.02 726.65 542.04 728.09 542.05 729.53 542.14 730.97 542.29 732.4 542.43 733.84 542.58 735.27 542.73 736.71 542.88 738.14 543.03 739.58 543.08 741.02 543.09 742.47 543.11 743.91 543.13 745.35 543.15 746.79 543.17 748.24 543.19 749.67 543.32 751.11 543.45 752.55 543.58 753.98 543.71 755.42 543.84 756.86 543.97 758.3 544.06 759.74 544.07 761.18 544.08 762.62 544.09 764.07 544.1 765.51 544.11 766.95 544.12 768.39 544.2 769.83 544.34 771.27 544.48 772.7 544.62 774.14 544.76 775.57 544.9 777.01 545.03 778.45 545.06 779.9 545.06 781.34 545.06 782.78 545.06 784.23 545.06 785.67 545.06 786.91 545.1 786.92 546.18 786.95 547.29 786.99 548.41 787.03 549.53 787.07 550.64 787.11 551.76 787.15 552.88 787.19 554 787.23 555.11 787.26 556.23 787.3 557.35 787.34 558.46 787.38 559.58 787.42 560.7 787.46 561.82 787.5 562.93 787.54 564.05 787.58 565.17 787.62 566.29 787.66 567.4 787.7 568.52 787.74 569.64 787.77 570.76 787.81 571.87 787.85 572.99 787.89 574.11 787.93 575.23 787.97 576.34 788.01 577.46 788.05 578.58 788.09 579.7 788.09 580.81 786.72 580.83 785.11 580.84 783.5 580.85 781.89 580.86 780.28 580.87 778.67 580.87 777.06 580.87 775.45 580.87 773.84 580.87 772.23 580.87 770.62 580.86 769.02 580.85 767.41 580.84 765.8 580.83 764.2 580.82 762.6 580.8 760.99 580.78 759.39 580.76 757.78 580.74 756.18 580.72 754.58 580.69 752.98 580.67 751.38 580.64 749.78 580.61 748.18 580.58 746.58 580.54 744.98 580.51 743.38 580.47 741.78 580.43 740.19 580.39 738.59 580.34 736.99 580.3 737.01 581.44 737.02 582.59 737.04 583.73 737.05 584.87 737.07 586.02 737.08 587.17 737.09 588.31 737.1 589.46 737.12 590.61 737.13 591.76 737.14 592.91 737.15 594.06 737.16 595.21 737.17 596.36 737.17 597.51 737.18 598.66 737.19 599.82 737.2 600.97 737.21 602.12 737.21 603.28 737.22 604.43 737.23 605.59 737.23 606.74 737.24 607.9 737.24 609.06 737.25 610.21 737.25 611.37 737.26 612.53 737.26 613.69 737.27 614.85 737.27 616.01 737.28 617.17 737.28 618.33 737.29 619.49 737.29 620.65 737.3 621.81 737.3 622.97 737.3 624.13 737.31 625.29 737.31 626.46 737.32 627.62 737.32 628.78 737.32 629.95 737.33 631.11 737.33 632.27 737.33 633.44 737.34 634.6 737.34 635.77 737.34 636.93 737.35 638.1 737.35 639.26 737.36 640.43 737.36 641.6 737.36 642.76 737.37 643.93 737.37 645.1 737.37 646.27 737.38 647.43 737.38 648.6 737.38 649.77 737.39 650.94 737.39 652.11 737.39 653.28 737.4 654.45 737.4 655.62 737.41 656.79 737.41 657.97 737.41 659.14 737.42 660.31 737.42 661.49 737.43 662.66 737.43 663.83 737.44 665.01 737.44 666.19 737.45 667.36 737.45 668.54 737.46 669.72 737.46 670.9 737.47 672.08 737.47 673.26 737.48 674.44 737.49 675.62 737.49 676.8 737.5 677.99 737.51 679.17 737.51 680.36 737.52 681.55 737.53 682.74 737.54 683.93 737.55 685.12 737.56 686.32 737.57 687.51 737.58 688.71 737.59 689.91 737.6 691.11 737.61 692.32 737.62 693.52 737.63 694.73 737.65 695.94 737.66 697.16 737.68 698.38 737.69 699.6 737.71 700.83 737.73 702.06 737.75 703.29 737.77 704.53 737.79 705.77 737.81 707.02 737.83 708.28 737.86 709.54 737.88 710.8 737.91 712.07 737.94 713.36 737.97 714.64 738 715.94 738.04 717.24 738.08 718.55 738.12 719.88 738.16 721.21 738.21 722.54 738.26 723.89 738.31 725.24 738.38 726.6 738.45 727.97 738.54 729.34 738.64 730.71 738.75 732.07 738.83 733.3 738.83 733.3 738.83 733.3M858.62 688.62Q856.87 689.5 855.21 690.35 853.65 691.12 852.08 691.88 850.43 692.65 848.56 693.49 846.7 694.32 844.84 695.14 843.18 695.83 841.51 696.52 840.66 696.87 839.77 697.22 838.83 697.6 837.85 697.99 836.87 698.38 835.88 698.76 834.9 699.14 833.95 699.5 833.03 699.84 832.14 700.16 831.25 700.48 830.35 700.79 829.46 701.11 828.58 701.41 827.69 701.71 826.82 702 825.94 702.3 825.06 702.58 824.17 702.88 823.27 703.17 821.43 703.76 819.61 704.32 817.79 704.88 816.04 705.39 814.29 705.89 812.64 706.33 811 706.76 809.44 707.14 807.85 707.51 806.3 707.84 804.72 708.16 803.17 708.44 803.17 708.44 803.17 708.44 803.1 707.51 803.03 706.58 802.96 705.64 802.89 704.71 802.82 703.77 802.75 702.84 802.68 701.9 802.6 700.97 802.53 700.03 802.46 699.1 802.39 698.16 802.32 697.23 802.24 696.29 802.17 695.36 802.1 694.42 802.03 693.49 801.96 692.55 801.88 691.62 801.81 690.68 801.74 689.75 801.67 688.81 801.6 687.88 801.53 686.94 801.46 686.01 801.39 685.08 801.32 684.14 801.25 683.21 801.19 682.27 801.13 681.34 801.07 680.41 801.03 679.47 801 678.54 803.11 678.07 805.13 677.61 807.15 677.15 809.09 676.69 811.02 676.23 812.88 675.77 814.72 675.32 816.49 674.87 818.25 674.41 819.94 673.97 821.63 673.52 823.24 673.09 824.85 672.65 826.39 672.22 827.92 671.79 829.38 671.37 830.84 670.95 832.24 670.54 833.63 670.13 834.95 669.73 836.27 669.33 837.53 668.94 838.79 668.55 839.98 668.18 841.17 667.8 842.29 667.44 843.42 667.07 844.48 666.73 846.6 666.03 848.48 665.39 848.48 665.39 848.48 665.39 849.83 664.92 851.09 664.49 852.34 664.05 853.51 663.63 854.67 663.21 855.74 662.82 856.8 662.43 857.78 662.07 859.72 661.33 861.3 660.71 862.88 660.08 864.09 659.56 865.31 659.03 866.4 658.49 867.49 657.94 868.47 657.38 870.44 656.24 871.93 655.03 871.93 655.03 871.93 655.03 873.08 654.07 874.11 652.87 874.63 652.28 875.12 651.62 875.62 650.96 876.08 650.25 876.55 649.54 876.98 648.77 877.42 647.99 877.83 647.16 878.24 646.33 878.62 645.44 879 644.55 879.35 643.6 879.35 643.6 879.35 643.6 879.65 642.77 879.91 642 880.17 641.23 880.39 640.53 880.6 639.83 880.77 639.2 880.94 638.56 881.07 637.99 881.2 637.42 881.28 636.92 881.36 636.42 881.39 635.98 881.46 635.1 881.35 634.49 881.24 633.87 880.89 633.39 880.53 632.9 879.93 632.55 879.33 632.2 878.49 631.98 877.64 631.75 876.54 631.66 875.45 631.56 873.92 631.57 872.39 631.57 870.43 631.66 868.47 631.75 866.08 631.94 864.88 632.03 863.57 632.14 862.26 632.25 860.84 632.39 860.84 632.39 860.84 632.39 858.83 632.6 856.81 632.8 854.79 633 852.77 633.19 850.74 633.39 848.71 633.58 846.68 633.77 844.64 633.95 842.6 634.13 840.56 634.31 838.52 634.49 836.47 634.67 834.41 634.84 832.36 635.01 830.3 635.18 828.24 635.34 826.17 635.51 824.26 635.5 822.34 635.49 820.58 635.3 818.8 635.11 817.18 634.75 815.55 634.38 814.07 633.84 812.58 633.3 811.23 632.58 810.56 632.22 809.92 631.81 809.28 631.4 808.68 630.95 808.08 630.5 807.51 630.01 806.94 629.51 806.41 628.97 805.87 628.43 805.38 627.84 804.88 627.25 804.41 626.62 803.95 625.99 803.52 625.32 803.08 624.65 802.67 623.94 802.26 623.23 801.88 622.47 801.5 621.72 801.15 620.93 800.8 620.14 800.47 619.3 800.15 618.47 799.85 617.6 799.56 616.73 799.29 615.81 799.02 614.9 798.78 613.95 798.54 613 798.33 612.01 798.12 611.01 797.94 609.98 797.76 608.95 797.61 607.88 797.46 606.81 797.34 605.7 797.21 604.59 797.12 603.45 797.03 602.3 796.97 601.11 796.94 600.52 796.92 599.92 796.89 599.32 796.88 598.71 796.86 598.09 796.85 597.47 796.85 596.85 796.85 596.22 796.85 596.22 796.85 596.22 796.85 595.54 796.86 594.88 796.87 594.21 796.89 593.55 796.92 592.9 796.95 592.25 796.99 591.6 797.04 590.96 797.08 590.32 797.14 589.69 797.2 589.06 797.27 588.44 797.35 587.82 797.43 587.21 797.51 586.59 797.61 585.99 797.8 584.79 798.04 583.62 798.28 582.45 798.57 581.32 798.86 580.2 799.19 579.11 799.53 578.02 799.92 576.97 800.31 575.92 800.75 574.9 801.19 573.89 801.67 572.92 802.16 571.95 802.7 571.02 803.24 570.09 803.83 569.2 804.42 568.31 805.06 567.46 805.7 566.62 806.4 565.81 807.09 565.01 807.84 564.24 808.58 563.48 809.38 562.77 810.18 562.05 811.02 561.37 811.85 560.69 812.73 560.04 813.61 559.4 814.53 558.79 815.45 558.19 816.41 557.61 817.37 557.05 818.37 556.52 819.37 555.99 820.42 555.5 821.46 555.01 822.54 554.55 823.63 554.11 824.75 553.69 825.87 553.28 827.04 552.9 828.2 552.52 829.4 552.18 830.6 551.83 831.85 551.52 833.09 551.2 834.37 550.91 835.65 550.63 836.96 550.37 838.28 550.1 839.63 549.87 840.99 549.63 842.37 549.42 843.76 549.21 845.19 549.02 846.62 548.83 848.09 548.66 849.56 548.48 851.08 548.32 852.6 548.15 854.17 548 855.73 547.85 857.35 547.71 858.96 547.57 860.62 547.44 862.28 547.31 863.98 547.2 865.69 547.08 867.44 546.97 869.19 546.87 870.99 546.77 872.79 546.67 874.63 546.57 876.47 546.43 878.36 546.28 880.25 546.13 882.18 545.99 884.11 545.84 886.09 545.69 888.07 545.53 890.1 545.37 892.12 545.22 894.19 545.1 896.27 545.07 898.39 545.06 900.52 545.05 902.69 545.05 902.69 545.05 902.69 545.05 905.22 545.05 907.7 545.06 910.18 545.07 912.6 545.09 915.02 545.06 917.39 545 919.76 544.95 922.07 544.92 924.39 544.84 926.65 544.76 928.91 544.68 931.12 544.62 933.33 544.61 935.49 544.67 937.66 544.75 939.78 544.84 941.89 544.91 943.91 544.96 945.92 544.99 947.83 545.01 949.75 545.04 951.55 545.06 953.37 545.08 955.08 545.1 956.79 545.12 958.41 545.15 960.03 545.19 961.54 545.24 964.6 545.37 967.25 545.53 969.95 545.68 972.16 545.8 974.43 545.91 976.19 546 979.85 546.16 981.3 546.22 981.3 546.22 981.3 546.22 982.08 547.04 982.82 547.85 983.48 548.66 984.04 549.47 984.48 550.27 984.81 551.06 985.04 551.84 985.17 552.62 985.24 553.39 985.25 554.16 985.21 554.92 985.14 555.68 985.03 556.44 984.89 557.19 984.73 557.95 984.56 558.7 984.36 559.45 984.15 560.19 983.93 560.94 983.7 561.68 983.45 562.43 983.2 563.17 982.93 563.91 982.66 564.65 982.38 565.39 982.1 566.13 981.8 566.86 981.5 567.6 981.19 568.33 980.88 569.06 980.56 569.79 980.24 570.52 979.33 570.52 977.7 570.54 976.07 570.56 973.72 570.6 971.36 570.64 968.29 570.7 966.76 570.72 965.04 570.75 963.33 570.78 961.44 570.82 959.55 570.85 957.59 570.89 955.64 570.93 953.63 570.98 951.62 571.03 949.55 571.08 947.48 571.14 945.35 571.2 943.22 571.26 941.04 571.33 938.86 571.4 936.62 571.48 934.38 571.56 932.09 571.65 929.81 571.73 927.46 571.83 927.46 571.83 927.46 571.83 925.2 571.92 923.1 572.01 921 572.11 919.06 572.2 917.12 572.29 915.34 572.38 913.56 572.47 911.93 572.56 908.7 572.75 906.07 572.93 903.46 573.12 901.45 573.3 899.45 573.49 897.72 573.71 895.99 573.94 894.53 574.2 891.62 574.73 889.77 575.43 889.77 575.43 889.77 575.43 887.65 576.13 886.2 577.15 885.47 577.65 884.92 578.24 884.36 578.82 883.97 579.48 883.58 580.14 883.23 580.99 882.88 581.83 882.57 582.86 882.41 583.38 882.27 583.94 882.12 584.5 881.98 585.1 881.84 585.71 881.7 586.36 881.57 587.01 881.44 587.71 881.44 587.71 881.44 587.71 881.26 588.69 881.14 589.58 881.02 590.47 880.96 591.28 880.9 592.08 880.9 592.79 880.9 593.51 880.96 594.13 881.02 594.76 881.14 595.3 881.26 595.83 881.44 596.28 881.81 597.18 882.43 597.72 883.05 598.26 884.22 598.66 885.38 599.05 887.09 599.3 888.8 599.55 891.06 599.66 893.32 599.77 896.13 599.73 896.13 599.73 896.13 599.73 898.04 599.71 899.94 599.69 901.85 599.67 903.76 599.64 905.66 599.62 907.57 599.59 909.47 599.57 911.38 599.54 913.28 599.51 915.19 599.48 917.09 599.45 918.99 599.42 920.9 599.39 922.8 599.36 924.7 599.32 926.61 599.29 928.47 599.25 930.26 599.25 932.04 599.24 933.75 599.26 935.45 599.28 937.07 599.32 938.69 599.37 940.23 599.44 941.76 599.51 943.21 599.6 944.66 599.7 946.02 599.82 947.38 599.93 948.65 600.08 949.92 600.22 951.11 600.39 952.28 600.56 953.35 600.79 954.41 601.03 955.36 601.33 956.3 601.63 957.12 601.99 957.93 602.35 958.63 602.78 959.32 603.21 959.89 603.7 960.45 604.19 960.89 604.74 961.32 605.29 961.63 605.9 961.94 606.5 962.13 607.16 962.13 607.16 962.13 607.16 962.24 607.51 962.3 607.87 962.37 608.23 962.4 608.59 962.44 608.95 962.43 609.32 962.43 609.68 962.39 610.06 962.34 610.44 962.25 610.84 962.16 611.24 962.02 611.67 961.85 612.11 961.63 612.59 961.39 613.07 961.11 613.57 960.83 614.08 960.51 614.61 960.18 615.13 959.81 615.68 959.46 616.2 959.1 616.69 958.76 617.16 958.37 617.65 957.98 618.14 957.56 618.65 957.13 619.16 956.62 619.69 956.01 620.27 955.35 620.9 954.69 621.54 954.04 622.19 954.04 622.19 954.04 622.19 953.55 622.67 953.09 623.14 952.62 623.61 952.18 624.07 951.73 624.53 951.35 624.92 950.97 625.29 950.54 625.67 950.11 626.05 949.68 626.42 949.25 626.8 948.81 627.17 948.37 627.54 947.93 627.9 947.49 628.27 947.02 628.65 946.5 629.07 945.98 629.49 945.46 629.9 944.93 630.31 944.41 630.72 943.88 631.13 943.36 631.54 942.83 631.94 942.31 632.34 941.78 632.74 941.25 633.14 940.71 633.53 939.64 634.3 938.57 635.06 937.5 635.81 936.43 636.54 935.37 637.27 934.34 637.95 933.33 638.61 932.33 639.24 931.34 639.86 930.35 640.48 929.35 641.1 928.34 641.72 927.32 642.35 926.28 642.97 925.24 643.61 924.2 644.24 923.16 644.88 922.12 645.51 921.09 646.14 920.07 646.76 919.06 647.39 918.06 648.02 917.07 648.65 916.08 649.28 915.11 649.92 914.15 650.56 913.19 651.21 912.25 651.86 911.31 652.53 910.39 653.19 909.47 653.87 908.56 654.54 907.67 655.23 906.78 655.92 905.91 656.62 905.04 657.32 904.18 658.02 903.32 658.72 902.47 659.43 901.63 660.13 900.79 660.84 899.95 661.53 898.3 662.94 896.63 664.3 894.96 665.67 893.25 666.99 892.38 667.65 891.49 668.33 890.59 669 889.66 669.69 888.74 670.37 887.8 671.05 886.87 671.72 885.92 672.39 884.99 673.06 884.03 673.72 883.07 674.39 882.09 675.05 881.11 675.71 880.1 676.37 879.09 677.04 878.01 677.73 876.89 678.44 875.69 679.17 874.49 679.9 873.26 680.64 872.07 681.36 870.93 682.02 869.82 682.67 868.67 683.33 867.53 683.98 866.35 684.63 865.18 685.28 863.98 685.92 862.79 686.52 861.49 687.18 860.07 687.88 858.62 688.62 858.62 688.62 858.62 688.62 858.62 688.62 858.62 688.62"></path></svg>