<svg id="warpedSvg1" xmlns="http://www.w3.org/2000/svg" data-id="1" data-media-id="WH2Lk931H1T" style="visibility: visible" viewBox="13.889999389648438 237.08999633789062 994.510009765625 524.0999755859375" width="999.510009765625px" height="529.0999755859375px">
        <defs>
            <linearGradient id="sampleGradient" gradientTransform="rotate(1)" x1="0%" y1="50%" x2="100%" y2="50%" gradientUnits="userSpaceOnUse">
                <stop offset="0%" id="first_color" stop-color="#6b6fff"></stop>
                <stop offset="100%" id="second_color" stop-color="#bc91c1"></stop>
            </linearGradient>
        </defs>
    <path fill="#41badf" d="M159.87 457.21Q160.27 458.37 160.66 459.54 161.06 460.71 161.45 461.88 161.85 463.05 162.25 464.22 162.64 465.39 163.04 466.57 163.44 467.74 163.84 468.92 164.23 470.09 164.63 471.27 165.03 472.45 165.43 473.63 165.83 474.81 166.23 475.99 166.63 477.17 167.03 478.35 167.43 479.54 167.83 480.72 168.23 481.9 168.63 483.09 169.03 484.28 169.43 485.46 169.83 486.65 170.23 487.84 170.63 489.03 171.03 490.22 171.44 491.41 171.84 492.61 172.24 493.8 172.45 495.06 171.69 495.63 170.74 496.25 169.78 496.87 168.82 497.47 167.85 498.08 166.88 498.67 165.9 499.26 164.91 499.84 163.93 500.41 162.93 500.98 161.94 501.54 160.94 502.1 159.93 502.65 158.92 503.2 157.91 503.75 156.89 504.3 155.88 504.84 154.85 505.38 153.82 505.92 152.79 506.46 151.76 507 150.72 507.53 149.68 508.07 148.63 508.6 147.58 509.13 146.53 509.66 145.47 510.19 144.41 510.72 143.35 511.25 142.28 511.78 141.21 512.31 140.14 512.84 139.06 513.37 137.99 513.89 136.92 514.42 135.85 514.93 134.79 515.46 133.73 515.98 132.68 516.51 131.63 517.04 130.58 517.57 129.54 518.1 128.5 518.62 127.46 519.13 126.41 519.64 125.37 520.13 124.32 520.6 123.27 521.05 122.22 521.49 121.17 521.92 120.12 522.35 119.08 522.77 118.03 523.18 116.99 523.59 115.94 523.98 114.89 524.35 113.83 524.71 112.78 525.06 111.74 525.41 110.69 525.73 109.64 526.02 108.59 526.32 107.55 526.62 106.5 526.93 106.5 526.93 106.5 526.93 104.98 527.37 103.47 527.83 101.97 528.28 100.48 528.64 98.99 529 97.52 529.33 96.06 529.71 94.63 530.07 93.2 530.44 91.79 530.76 90.37 531.08 88.97 531.36 87.57 531.63 86.18 531.85 84.79 532.07 83.41 532.25 82.03 532.43 80.69 532.54 79.35 532.65 78.05 532.69 76.74 532.72 75.47 532.7 74.21 532.68 72.98 532.6 71.75 532.53 70.57 532.41 69.38 532.28 68.23 532.11 67.08 531.93 65.97 531.7 64.85 531.47 63.77 531.18 62.69 530.89 61.66 530.53 60.62 530.18 59.62 529.76 58.62 529.34 57.66 528.86 56.7 528.38 55.78 527.83 54.86 527.29 53.98 526.69 53.09 526.08 52.25 525.42 51.41 524.77 50.61 524.05 49.81 523.34 49.05 522.58 48.3 521.82 47.61 520.99 46.92 520.17 46.31 519.28 45.69 518.39 45.15 517.44 44.61 516.49 44.15 515.47 43.7 514.45 43.32 513.37 42.95 512.29 42.66 511.14 42.52 510.57 42.4 509.97 42.28 509.38 42.18 508.78 42.09 508.17 42.01 507.54 41.94 506.92 41.89 506.27 41.89 506.27 41.89 506.27 41.82 505.37 41.76 504.47 41.7 503.57 41.64 502.68 41.59 501.78 41.55 500.88 41.5 499.99 41.47 499.09 41.43 498.2 41.4 497.31 41.38 496.41 41.36 495.52 41.34 494.63 41.33 493.74 41.32 492.85 41.32 491.96 41.32 491.07 41.33 490.19 41.34 489.3 41.35 488.41 41.37 487.52 41.4 486.64 41.42 485.75 41.46 484.87 41.49 483.98 41.53 483.1 41.58 482.22 41.63 481.33 41.68 480.45 41.74 479.57 41.8 478.69 41.87 477.81 41.94 476.93 42.02 476.05 42.1 475.17 42.18 474.29 42.27 473.41 42.37 472.54 42.46 471.66 42.56 470.79 42.67 469.91 42.78 469.04 42.9 468.16 43.01 467.29 43.14 466.42 43.26 465.55 43.4 464.68 43.53 463.81 43.67 462.94 43.82 462.07 43.96 461.2 44.12 460.34 44.27 459.47 44.43 458.61 44.6 457.75 44.77 456.88 44.94 456.02 45.12 455.16 45.3 454.3 45.48 453.44 45.67 452.58 45.86 451.73 46.06 450.87 46.26 450.02 44.56 450.67 42.86 451.33 41.16 451.98 39.45 452.64 37.74 453.29 36.03 453.94 34.31 454.59 32.59 455.24 30.87 455.89 29.15 456.53 27.43 457.18 25.71 457.83 23.99 458.48 22.28 459.12 20.58 459.77 18.89 460.43 19.18 459.46 19.46 458.48 19.77 457.52 20.09 456.56 20.41 455.6 20.74 454.64 21.06 453.68 21.39 452.72 21.73 451.77 22.09 450.82 22.45 449.88 22.81 448.93 23.18 447.98 23.54 447.04 23.91 446.1 24.31 445.17 24.71 444.24 25.11 443.3 25.51 442.37 25.9 441.44 26.31 440.52 26.75 439.6 27.18 438.69 27.62 437.77 28.05 436.86 28.48 435.94 28.93 435.03 29.39 434.13 29.86 433.23 30.32 432.33 30.79 431.43 31.25 430.53 32.85 429.79 34.45 429.05 36.05 428.31 37.65 427.57 39.25 426.82 40.84 426.07 42.43 425.31 44.01 424.55 45.59 423.78 47.16 423.02 48.73 422.24 50.29 421.46 51.84 420.68 53.39 419.9 54.93 419.1 56.47 418.31 56.69 417.75 56.92 417.19 57.14 416.63 57.37 416.07 57.59 415.51 57.82 414.95 58.05 414.39 58.28 413.84 58.51 413.28 58.74 412.72 58.97 412.16 59.2 411.6 59.43 411.04 59.66 410.48 59.9 409.92 60.13 409.36 60.36 408.8 60.6 408.24 60.83 407.68 61.06 407.12 61.3 406.56 61.53 406 61.77 405.43 62 404.87 62.23 404.31 62.47 403.74 62.7 403.18 62.93 402.61 63.16 402.04 63.39 401.47 63.62 400.9 63.85 400.33 64.08 399.75 64.3 399.18 64.53 398.6 64.75 398.02 64.97 397.44 65.19 396.85 65.4 396.27 65.62 395.68 65.83 395.08 66.03 394.49 66.24 393.89 66.44 393.29 66.63 392.68 66.83 392.07 67.02 391.46 67.2 390.84 67.38 390.21 67.55 389.58 67.72 388.95 67.88 388.31 68.04 387.66 68.19 387.01 68.34 386.36 68.47 385.69 68.61 385.02 68.73 384.35 68.85 383.67 68.96 382.98 69.07 382.29 69.18 381.6 69.28 380.9 69.38 380.21 70.22 379.37 71.07 378.54 71.91 377.71 72.76 376.88 73.62 376.06 74.48 375.25 75.34 374.43 76.21 373.62 77.07 372.8 77.95 372 78.83 371.21 79.71 370.41 80.59 369.61 81.47 368.82 82.36 368.04 83.26 367.26 84.15 366.48 85.05 365.7 85.94 364.93 86.85 364.16 87.76 363.4 88.67 362.64 89.58 361.88 90.49 361.12 91.41 360.37 92.34 359.62 93.26 358.88 94.19 358.14 95.11 357.4 96.04 356.66 96.98 355.93 97.92 355.21 98.86 354.48 99.8 353.76 100.74 353.04 101.69 352.33 102.64 351.62 103.6 350.91 104.55 350.2 105.5 349.49 106.46 348.8 107.43 348.1 108.39 347.41 109.35 346.72 110.32 346.03 111.29 345.35 112.27 344.67 113.24 344 114.22 343.32 115.19 342.64 116.17 341.98 117.16 341.32 118.14 340.66 119.13 339.99 120.11 339.33 121.11 338.68 122.1 338.04 123.1 337.39 124.09 336.74 125.09 336.1 126.09 335.46 127.09 334.83 128.1 334.2 129.1 333.57 129.03 334.3 128.96 335.04 128.89 335.78 128.82 336.53 128.76 337.27 128.69 338.02 128.63 338.77 128.56 339.52 128.5 340.27 128.43 341.02 128.36 341.77 128.3 342.52 128.23 343.27 128.16 344.02 128.1 344.76 128.03 345.51 127.96 346.26 127.89 347 127.82 347.74 127.74 348.49 127.67 349.23 127.6 349.97 127.52 350.7 127.45 351.44 127.37 352.18 127.3 352.91 127.22 353.64 127.14 354.38 127.06 355.11 126.99 355.84 126.91 356.56 126.83 357.29 126.75 358.02 126.66 358.74 126.58 359.46 126.5 360.19 126.42 360.91 126.34 361.63 126.25 362.34 126.17 363.06 126.09 363.78 126 364.49 125.92 365.21 125.84 365.92 125.75 366.63 125.67 367.34 125.58 368.05 125.5 368.76 125.42 369.47 125.33 370.18 125.25 370.88 125.16 371.59 125.08 372.29 125 373 124.91 373.7 124.83 374.4 124.75 375.1 124.67 375.81 124.58 376.51 124.5 377.21 124.42 377.91 124.34 378.6 124.26 379.3 124.18 380 125.29 379.37 126.4 378.74 127.51 378.12 128.62 377.49 129.73 376.87 130.84 376.25 131.95 375.63 133.05 375.01 134.16 374.39 135.26 373.77 136.37 373.16 137.47 372.55 138.57 371.93 139.67 371.32 140.77 370.71 141.87 370.11 142.96 369.5 144.06 368.9 145.15 368.29 146.25 367.69 147.34 367.09 148.43 366.49 149.51 365.89 150.6 365.3 151.68 364.7 152.77 364.11 153.85 363.52 154.93 362.93 156.01 362.34 157.08 361.75 158.16 361.16 159.23 360.58 159.16 361.84 159.1 363.1 159.05 364.36 158.99 365.62 158.95 366.88 158.9 368.14 158.86 369.4 158.82 370.66 158.78 371.92 158.74 373.17 158.71 374.43 158.68 375.69 158.64 376.95 158.61 378.21 158.58 379.46 158.55 380.72 158.53 381.98 158.5 383.23 158.47 384.49 158.45 385.74 158.42 387 158.4 388.26 158.37 389.51 158.35 390.77 158.33 392.02 158.3 393.28 158.28 394.53 158.26 395.79 158.24 397.04 158.22 398.3 158.2 399.55 158.18 400.81 157.01 401.34 155.85 401.88 154.68 402.42 153.52 402.96 152.35 403.5 151.19 404.04 150.02 404.58 148.85 405.12 147.68 405.66 146.51 406.2 145.34 406.74 144.17 407.28 143 407.82 141.83 408.37 140.66 408.91 139.48 409.45 138.31 409.99 137.14 410.54 135.96 411.08 134.78 411.62 133.6 412.17 132.42 412.71 131.24 413.25 130.06 413.8 128.88 414.34 127.69 414.89 126.51 415.43 125.32 415.98 124.13 416.52 122.94 417.07 121.75 417.62 120.56 418.16 120.51 418.88 120.46 419.6 120.41 420.33 120.36 421.05 120.31 421.77 120.26 422.49 120.21 423.21 120.16 423.93 120.11 424.65 120.07 425.37 120.02 426.09 119.98 426.82 119.93 427.54 119.89 428.26 119.84 428.98 119.8 429.7 119.76 430.42 119.72 431.14 119.68 431.86 119.64 432.59 119.6 433.31 119.56 434.03 119.52 434.75 119.48 435.47 119.44 436.19 119.41 436.91 119.37 437.64 119.34 438.36 119.3 439.08 119.27 439.8 119.23 440.52 119.2 441.25 119.17 441.97 119.14 442.69 119.11 443.41 119.07 444.13 119.04 444.86 119.02 445.58 118.99 446.3 118.96 447.02 118.93 447.75 118.9 448.47 118.88 449.19 118.85 449.91 118.83 450.64 118.8 451.36 118.78 452.08 118.75 452.81 118.73 453.53 118.71 454.25 118.69 454.98 118.67 455.7 118.64 456.42 118.62 457.15 118.6 457.87 118.59 458.59 118.57 459.32 118.55 460.04 118.53 460.77 118.52 461.49 118.5 462.22 118.48 462.94 118.47 463.66 118.45 464.39 118.44 465.26 118.49 466.03 118.54 466.81 118.66 467.5 118.78 468.19 118.97 468.79 119.16 469.4 119.42 469.91 119.93 470.94 120.72 471.62 121.5 472.31 122.55 472.64 123.6 472.97 124.85 473.06 126.09 473.15 127.53 473 128.96 472.85 130.59 472.45 132.22 472.06 134.03 471.41 134.03 471.41 134.03 471.41 135.37 470.93 136.8 470.35 138.24 469.76 139.76 469.06 141.29 468.35 142.91 467.53 144.52 466.71 146.24 465.78 147.95 464.84 149.65 463.84 151.36 462.83 153.07 461.76 154.77 460.69 156.47 459.55 158.17 458.41 159.87 457.21 159.87 457.21 159.87 457.21 159.87 457.21 159.87 457.21M270.86 474.55Q270.86 474.55 270.86 474.55 269.47 475 268.09 475.47 266.7 475.95 265.32 476.36 263.92 476.72 262.53 477.04 261.14 477.36 259.76 477.65 258.37 477.93 256.98 478.19 255.6 478.44 254.22 478.67 252.84 478.89 251.46 479.08 250.08 479.27 248.7 479.44 247.32 479.61 245.95 479.75 244.59 479.9 243.22 480.02 241.86 480.14 240.5 480.24 239.14 480.34 237.78 480.43 236.43 480.52 235.08 480.58 233.73 480.64 232.38 480.65 231.02 480.67 229.66 480.63 228.3 480.59 226.93 480.5 225.56 480.41 224.21 480.28 222.85 480.15 221.52 479.99 220.18 479.83 218.87 479.64 217.55 479.45 216.25 479.22 214.95 478.99 213.66 478.72 212.37 478.46 211.09 478.15 209.81 477.85 208.54 477.5 207.27 477.16 206 476.78 204.73 476.4 203.48 475.99 202.21 475.57 200.96 475.12 199.7 474.67 198.45 474.19 197.2 473.7 195.96 473.18 194.71 472.66 193.47 472.1 192.23 471.55 191.01 470.96 189.78 470.37 188.57 469.74 187.37 469.11 186.18 468.45 186.18 468.45 186.18 468.45 186.7 466.96 187.24 465.47 187.78 463.98 188.35 462.49 188.96 461 189.61 459.51 190.28 458.02 190.97 456.53 191.66 455.04 192.36 453.55 193.05 452.06 193.75 450.56 194.44 449.07 195.14 447.58 195.83 446.09 196.52 444.6 197.21 443.1 197.9 441.61 198.59 440.12 199.28 438.63 199.96 437.13 200.65 435.64 201.33 434.15 202.02 432.65 202.7 431.16 203.38 429.67 204.07 428.17 204.75 426.68 205.43 425.18 206.11 423.69 206.79 422.19 207.46 420.7 208.54 421.11 209.61 421.51 210.67 421.91 211.74 422.29 212.8 422.68 213.86 423.04 214.92 423.4 215.97 423.74 217.03 424.08 218.07 424.41 219.12 424.73 220.16 425.04 221.2 425.34 222.24 425.63 223.27 425.91 224.3 426.18 225.32 426.44 226.35 426.69 227.36 426.94 228.38 427.17 229.39 427.39 230.4 427.6 231.4 427.81 232.4 428 233.39 428.19 234.39 428.36 235.37 428.53 236.36 428.68 237.34 428.83 238.32 428.96 239.29 429.09 240.26 429.21 241.23 429.32 242.18 429.41 243.14 429.5 244.08 429.56 245.02 429.63 245.95 429.68 246.88 429.72 247.8 429.75 248.72 429.77 249.62 429.77 250.53 429.78 251.43 429.76 252.32 429.73 253.2 429.69 254.08 429.65 254.96 429.59 255.83 429.52 256.69 429.43 257.55 429.35 258.4 429.24 259.24 429.13 260.08 429 260.92 428.87 261.75 428.72 263.4 428.41 265.01 428.01 266.62 427.62 268.18 427.14 268.18 427.14 268.18 427.14 269.83 426.63 271.27 426.04 272.71 425.46 273.94 424.79 275.16 424.13 276.18 423.39 277.21 422.65 278.02 421.83 278.83 421.01 279.43 420.12 280.04 419.22 280.43 418.25 280.83 417.28 281.02 416.22 281.21 415.17 281.19 414.04 281.19 414.04 281.19 414.04 281.17 412.78 280.83 411.7 280.49 410.63 279.83 409.74 279.17 408.85 278.19 408.15 277.21 407.45 275.91 406.94 275.26 406.68 274.46 406.46 273.66 406.23 272.7 406.04 271.74 405.84 270.63 405.68 269.52 405.51 268.25 405.38 266.98 405.24 265.56 405.14 264.14 405.03 262.56 404.96 261.77 404.93 260.95 404.9 260.12 404.87 259.25 404.85 258.38 404.83 257.48 404.81 256.57 404.8 255.62 404.8 255.62 404.8 255.62 404.8 254.44 404.8 253.29 404.79 252.13 404.78 251 404.77 249.87 404.75 248.76 404.73 247.65 404.71 246.56 404.69 245.48 404.66 244.41 404.63 243.35 404.59 242.31 404.56 241.27 404.52 240.25 404.47 239.24 404.43 238.24 404.37 237.25 404.32 236.28 404.27 235.31 404.21 234.36 404.14 233.41 404.08 232.49 404.01 231.57 403.94 230.67 403.86 229.77 403.79 228.89 403.7 228.01 403.62 227.16 403.53 226.31 403.44 225.48 403.35 224.65 403.25 223.85 403.15 222.24 402.94 220.71 402.7 219.17 402.46 217.71 402.18 216.25 401.91 214.87 401.59 213.48 401.28 212.17 400.93 210.86 400.58 209.62 400.2 208.38 399.81 207.22 399.39 206.06 398.97 204.97 398.51 203.89 398.06 202.88 397.56 201.87 397.07 200.93 396.53 200 395.99 199.13 395.41 198.27 394.82 197.48 394.2 196.69 393.57 195.97 392.9 195.25 392.22 194.61 391.51 193.96 390.79 193.39 390.03 192.82 389.27 192.32 388.46 191.82 387.65 191.39 386.8 190.97 385.95 190.59 385.04 190.22 384.12 189.9 383.15 189.58 382.17 189.31 381.14 189.04 380.1 188.83 379 188.62 377.9 188.46 376.75 188.3 375.59 188.19 374.36 188.08 373.14 188.03 371.86 187.97 370.58 187.97 369.23 187.97 369.23 187.97 369.23 187.97 367.44 188.06 365.65 188.14 363.86 188.31 362.08 188.47 360.29 188.73 358.52 188.98 356.74 189.31 354.96 189.65 353.19 190.07 351.42 190.49 349.65 190.99 347.89 191.49 346.12 192.08 344.36 192.66 342.59 193.33 340.83 194 339.07 194.73 337.33 195.46 335.59 196.25 333.87 197.05 332.15 197.9 330.45 198.76 328.75 199.68 327.08 200.59 325.39 201.57 323.73 202.55 322.07 203.59 320.42 204.63 318.77 205.73 317.14 206.83 315.51 207.99 313.9 209.15 312.28 210.37 310.7 211.58 309.12 212.85 307.59 214.12 306.05 215.45 304.55 216.78 303.05 218.17 301.6 219.56 300.15 221 298.75 222.45 297.35 223.96 296 224.71 295.33 225.48 294.67 226.25 294 227.03 293.36 227.82 292.71 228.62 292.08 229.42 291.44 230.23 290.82 231.05 290.2 231.88 289.6 232.7 289 233.54 288.42 234.38 287.84 235.23 287.28 236.08 286.71 236.94 286.17 237.8 285.63 238.67 285.11 239.54 284.58 240.42 284.08 241.31 283.57 242.2 283.09 243.09 282.61 244 282.14 244.9 281.68 245.82 281.23 246.74 280.78 247.66 280.36 248.59 279.93 249.53 279.53 250.47 279.12 251.42 278.74 252.37 278.35 253.33 277.98 254.29 277.62 255.27 277.27 256.24 276.93 257.22 276.6 258.21 276.27 259.2 275.96 259.2 275.96 259.2 275.96 260.43 275.59 261.65 275.24 262.88 274.89 264.09 274.57 265.31 274.25 266.52 273.96 267.74 273.67 268.94 273.41 270.15 273.15 271.35 272.91 272.55 272.68 273.74 272.48 274.94 272.28 276.13 272.1 277.32 271.92 278.5 271.78 279.68 271.63 280.86 271.51 282.04 271.39 283.21 271.3 284.38 271.21 285.55 271.15 286.71 271.09 287.87 271.06 289.03 271.02 290.18 271.02 291.33 271.01 292.48 271.03 293.63 271.05 294.77 271.1 295.91 271.15 297.04 271.23 298.17 271.31 299.31 271.43 300.44 271.56 301.58 271.73 302.71 271.91 303.85 272.13 304.99 272.35 306.13 272.62 307.26 272.89 308.4 273.21 309.54 273.53 310.68 273.89 311.82 274.25 312.96 274.66 314.09 275.07 315.23 275.52 316.36 275.98 317.5 276.47 318.63 276.96 319.76 277.5 320.89 278.03 322.02 278.61 323.14 279.18 324.27 279.79 325.39 280.4 326.5 281.05 327.62 281.7 328.73 282.38 329.83 283.06 330.94 283.78 332.04 284.49 333.14 285.25 333.14 285.25 333.14 285.25 332.36 286.74 331.58 288.23 330.81 289.73 330.04 291.22 329.27 292.72 328.5 294.21 327.74 295.71 326.97 297.21 326.21 298.7 325.44 300.2 324.68 301.71 323.92 303.21 323.16 304.71 322.4 306.21 321.65 307.72 320.89 309.22 320.13 310.73 319.38 312.23 318.62 313.74 317.86 315.25 317.11 316.76 316.36 318.26 315.6 319.77 314.85 321.28 314.1 322.79 313.34 324.31 312.59 325.82 311.84 327.33 311.09 328.84 310.34 330.35 309.59 331.87 308.84 333.38 307.81 332.95 306.8 332.53 305.79 332.12 304.81 331.72 303.82 331.32 302.85 330.95 301.88 330.57 300.93 330.22 299.99 329.86 299.06 329.52 298.13 329.19 297.22 328.87 296.32 328.55 295.43 328.26 294.54 327.96 293.68 327.69 292.81 327.41 291.97 327.16 291.12 326.9 290.3 326.67 289.47 326.43 288.67 326.22 287.86 326 287.08 325.81 285.51 325.42 284.03 325.12 282.55 324.81 281.15 324.59 279.75 324.37 278.38 324.23 277 324.08 275.64 324.01 274.29 323.94 272.96 323.94 271.62 323.94 270.31 324.02 269 324.1 267.71 324.25 266.42 324.4 265.16 324.63 263.89 324.86 262.65 325.16 261.4 325.46 260.18 325.84 260.18 325.84 260.18 325.84 258.75 326.28 257.44 326.84 256.14 327.39 254.97 328.07 253.79 328.74 252.75 329.52 251.7 330.31 250.79 331.21 249.87 332.1 249.19 333.1 248.51 334.1 248.06 335.2 247.61 336.29 247.39 337.49 247.18 338.69 247.2 339.98 247.2 339.98 247.2 339.98 247.21 341.37 247.57 342.52 247.92 343.67 248.61 344.58 249.3 345.5 250.32 346.18 251.34 346.87 252.7 347.32 253.38 347.55 254.22 347.74 255.06 347.93 256.07 348.08 257.07 348.24 258.24 348.36 259.4 348.48 260.73 348.57 262.06 348.65 263.56 348.7 265.05 348.76 266.71 348.78 267.53 348.79 268.4 348.79 269.27 348.79 270.18 348.79 271.09 348.78 272.04 348.77 272.99 348.75 273.98 348.73 273.98 348.73 273.98 348.73 275.18 348.71 276.35 348.71 277.53 348.7 278.68 348.71 279.83 348.71 280.96 348.73 282.09 348.74 283.19 348.76 284.3 348.79 285.38 348.82 286.46 348.86 287.51 348.9 288.57 348.95 289.6 349 290.63 349.05 291.64 349.12 292.65 349.18 293.63 349.25 294.61 349.32 295.57 349.4 296.53 349.49 297.47 349.58 298.4 349.67 299.32 349.77 300.23 349.87 301.12 349.98 302 350.09 302.87 350.2 303.73 350.32 304.57 350.45 305.41 350.58 306.23 350.71 307.04 350.85 307.84 351 308.63 351.14 309.41 351.3 310.96 351.61 312.43 351.96 313.89 352.32 315.28 352.71 316.66 353.1 317.97 353.54 319.27 353.97 320.49 354.44 321.72 354.92 322.86 355.43 324 355.94 325.06 356.49 326.12 357.05 327.1 357.64 328.08 358.23 328.99 358.88 329.89 359.52 330.73 360.21 331.57 360.9 332.34 361.63 333.1 362.37 333.8 363.16 334.5 363.95 335.12 364.78 335.75 365.62 336.31 366.5 336.86 367.38 337.35 368.32 337.83 369.25 338.25 370.23 338.67 371.21 339.03 372.25 339.39 373.29 339.7 374.38 340.02 375.48 340.28 376.63 340.54 377.79 340.74 379 340.95 380.21 341.11 381.48 341.26 382.75 341.37 384.07 341.47 385.4 341.46 386.8 341.41 388.22 341.41 389.66 341.41 389.66 341.41 389.66 341.41 390.58 341.43 391.49 341.45 392.39 341.48 393.28 341.42 395.1 341.26 396.89 341.11 398.68 340.87 400.45 340.64 402.21 340.33 403.95 340.02 405.69 339.63 407.4 339.25 409.11 338.78 410.79 338.32 412.48 337.78 414.13 337.24 415.79 336.62 417.42 336.01 419.05 335.32 420.65 334.64 422.25 333.88 423.82 333.13 425.39 332.31 426.93 331.49 428.48 330.61 429.99 329.72 431.51 328.77 432.99 327.82 434.47 326.8 435.93 325.78 437.38 324.7 438.81 323.61 440.23 322.46 441.62 321.31 443.01 320.11 444.36 318.9 445.71 317.63 447.01 316.37 448.31 315.04 449.56 313.71 450.82 312.33 452.03 310.94 453.24 309.49 454.4 308.04 455.56 306.53 456.67 305.78 457.23 305.01 457.78 304.24 458.32 303.46 458.86 302.67 459.4 301.87 459.94 301.08 460.47 300.27 461 299.46 461.54 298.63 462.06 297.81 462.58 296.98 463.09 296.14 463.6 295.29 464.1 294.44 464.6 293.58 465.09 292.72 465.57 291.84 466.04 290.96 466.51 290.07 466.96 289.18 467.42 288.27 467.86 287.37 468.3 286.45 468.73 285.53 469.16 284.6 469.57 283.67 469.98 282.72 470.38 281.77 470.78 280.81 471.16 279.85 471.55 278.88 471.92 277.9 472.29 276.91 472.65 275.92 473.01 274.92 473.32 273.92 473.61 272.91 473.91 271.89 474.22 270.86 474.55 270.86 474.55 270.86 474.55M491.97 372.52Q492.39 373.66 492.81 374.79 493.22 375.93 493.64 377.06 494.06 378.2 494.47 379.33 494.89 380.46 495.31 381.6 495.72 382.73 496.14 383.86 496.56 385 496.97 386.13 497.39 387.26 497.81 388.4 498.22 389.53 498.64 390.66 499.06 391.79 499.47 392.93 499.89 394.06 500.31 395.19 500.72 396.33 501.14 397.46 501.56 398.59 501.97 399.73 502.39 400.86 502.81 402 503.22 403.13 503.64 404.27 504.06 405.4 504.47 406.54 504.89 407.67 505.11 408.84 504.33 409.22 503.34 409.62 502.35 410.01 501.35 410.41 500.35 410.8 499.34 411.18 498.34 411.56 497.32 411.94 496.31 412.31 495.28 412.68 494.26 413.04 493.23 413.4 492.2 413.76 491.16 414.12 490.12 414.47 489.07 414.82 488.02 415.17 486.96 415.52 485.9 415.87 484.84 416.21 483.77 416.56 482.7 416.91 481.63 417.26 480.55 417.6 479.46 417.95 478.37 418.3 477.29 418.66 476.19 419.01 475.09 419.36 473.99 419.71 472.88 420.07 471.77 420.42 470.66 420.77 469.55 421.12 468.44 421.46 467.33 421.79 466.22 422.12 465.11 422.44 464.01 422.76 462.9 423.06 461.8 423.36 460.7 423.65 459.59 423.94 458.49 424.22 457.39 424.5 456.29 424.76 455.2 425.03 454.1 425.28 453 425.54 451.91 425.78 450.82 426.02 449.73 426.25 448.63 426.48 447.55 426.7 446.46 426.92 445.37 427.13 444.29 427.35 443.2 427.55 442.12 427.75 441.04 427.92 439.96 428.07 438.88 428.23 437.8 428.38 436.73 428.57 436.73 428.57 436.73 428.57 435.19 428.94 433.67 429.34 432.15 429.73 430.65 430.03 429.15 430.33 427.66 430.59 426.17 430.82 424.69 431.01 423.22 431.2 421.76 431.35 420.3 431.5 418.86 431.62 417.42 431.73 416 431.8 414.57 431.87 413.17 431.91 411.76 431.96 410.41 431.97 409.05 431.99 407.74 431.98 406.44 431.98 405.18 431.94 403.92 431.89 402.71 431.81 401.5 431.72 400.33 431.58 399.16 431.44 398.03 431.25 396.9 431.05 395.82 430.81 394.73 430.56 393.69 430.25 392.65 429.94 391.65 429.57 390.66 429.2 389.72 428.77 388.77 428.33 387.88 427.83 386.99 427.33 386.14 426.77 385.3 426.2 384.51 425.57 383.71 424.93 382.97 424.24 382.22 423.54 381.52 422.77 380.83 422.01 380.18 421.18 379.54 420.35 378.96 419.44 378.39 418.52 377.89 417.53 377.38 416.53 376.96 415.46 376.53 414.38 376.17 413.23 375.82 412.07 375.54 410.84 375.27 409.6 375.07 408.29 374.97 407.63 374.89 406.96 374.82 406.28 374.76 405.58 374.7 404.89 374.66 404.17 374.62 403.46 374.61 402.72 374.61 402.72 374.61 402.72 374.58 401.7 374.56 400.67 374.54 399.64 374.52 398.61 374.5 397.58 374.48 396.55 374.47 395.52 374.45 394.48 374.44 393.45 374.43 392.42 374.41 391.39 374.4 390.36 374.39 389.32 374.38 388.29 374.37 387.26 374.36 386.22 374.35 385.19 374.35 384.16 374.34 383.12 374.33 382.09 374.33 381.06 374.32 380.02 374.31 378.99 374.31 377.95 374.3 376.92 374.3 375.88 374.29 374.85 374.29 373.81 374.28 372.77 374.28 371.74 374.28 370.7 374.27 369.67 374.27 368.63 374.27 367.59 374.26 366.56 374.26 365.52 374.26 364.48 374.25 363.45 374.25 362.41 374.25 361.37 374.25 360.34 374.25 359.3 374.24 358.26 374.24 357.22 374.24 356.18 374.24 355.15 374.24 354.11 374.23 353.07 374.23 352.03 374.23 350.99 374.23 349.96 374.23 348.92 374.23 347.88 374.23 346.84 374.22 345.8 374.22 344.76 374.22 343.72 374.22 342.68 374.22 341.64 374.22 340.6 374.22 339.56 374.22 338.52 374.22 337.48 374.22 336.44 372.61 336.68 371 336.92 369.4 337.17 367.79 337.41 366.18 337.65 364.58 337.89 362.97 338.14 361.36 338.38 359.76 338.62 358.15 338.87 356.54 339.11 354.94 339.36 353.33 339.6 351.72 339.85 350.12 340.09 348.51 340.34 348.51 339.09 348.51 337.85 348.51 336.6 348.51 335.35 348.51 334.1 348.51 332.86 348.51 331.61 348.51 330.36 348.51 329.12 348.51 327.87 348.51 326.62 348.51 325.38 348.51 324.13 348.51 322.88 348.51 321.64 348.51 320.39 348.51 319.14 348.51 317.89 348.51 316.65 348.51 315.4 348.51 314.15 348.51 312.91 348.51 311.66 348.51 310.41 348.51 309.17 348.51 307.92 348.51 306.67 348.51 305.43 348.51 304.18 348.51 302.93 348.51 301.68 348.51 300.44 350.11 300.21 351.72 299.97 353.33 299.74 354.93 299.51 356.54 299.29 358.15 299.06 359.75 298.83 361.36 298.6 362.96 298.38 364.57 298.15 366.18 297.93 367.78 297.7 369.39 297.48 371 297.26 372.6 297.04 374.21 296.82 374.21 296.1 374.21 295.38 374.21 294.66 374.21 293.94 374.21 293.23 374.21 292.51 374.21 291.79 374.21 291.07 374.21 290.35 374.21 289.63 374.21 288.91 374.21 288.19 374.21 287.47 374.21 286.75 374.21 286.03 374.21 285.31 374.21 284.59 374.21 283.87 374.2 283.15 374.2 282.42 374.2 281.7 374.2 280.98 374.2 280.26 374.2 279.53 374.2 278.81 374.2 278.09 374.2 277.36 374.2 276.64 374.2 275.91 374.2 275.19 374.2 274.46 374.2 273.73 374.2 273.01 374.2 272.28 374.2 271.55 374.19 270.82 374.19 270.09 374.19 269.36 374.19 268.63 374.19 267.9 374.19 267.17 374.19 266.44 374.19 265.71 374.19 264.97 374.18 264.24 374.18 263.5 374.18 262.77 374.18 262.03 374.18 261.29 374.17 260.56 374.17 259.82 374.17 259.08 374.17 258.34 374.17 257.59 374.16 256.85 374.16 256.11 374.16 255.37 374.16 254.62 374.15 253.88 374.15 253.14 374.15 252.39 374.15 251.65 374.14 250.91 374.14 250.17 375.31 249.99 376.49 249.82 377.66 249.65 378.84 249.47 380.01 249.31 381.19 249.14 382.36 248.98 383.54 248.81 384.71 248.64 385.89 248.49 387.06 248.33 388.24 248.17 389.42 248.01 390.59 247.86 391.77 247.7 392.95 247.55 394.12 247.41 395.3 247.26 396.48 247.11 397.66 246.96 398.83 246.82 400.01 246.68 401.19 246.54 402.37 246.4 403.55 246.26 404.73 246.13 405.91 245.99 407.08 245.86 408.26 245.72 409.44 245.59 410.62 245.47 411.8 245.34 412.98 245.22 414.16 245.09 415.34 244.97 416.52 244.85 417.7 244.73 418.89 244.61 420.07 244.5 421.25 244.38 422.43 244.27 423.61 244.16 424.79 244.05 425.97 243.94 427.15 243.83 428.34 243.73 429.52 243.63 430.7 243.52 431.88 243.42 433.07 243.32 434.25 243.22 435.43 243.13 436.61 243.04 437.8 242.94 438.98 242.85 440.16 242.76 441.35 242.67 442.53 242.59 443.71 242.5 444.9 242.41 446.08 242.33 447.26 242.25 448.45 242.17 449.63 242.09 449.63 242.82 449.63 243.56 449.62 244.29 449.62 245.03 449.62 245.76 449.61 246.5 449.61 247.24 449.61 247.97 449.6 248.71 449.6 249.45 449.59 250.18 449.59 250.91 449.59 251.65 449.58 252.38 449.58 253.11 449.57 253.84 449.57 254.57 449.56 255.3 449.56 256.03 449.55 256.76 449.55 257.48 449.54 258.21 449.54 258.93 449.53 259.65 449.53 260.38 449.52 261.1 449.51 261.82 449.51 262.54 449.5 263.25 449.5 263.97 449.49 264.68 449.48 265.4 449.48 266.11 449.47 266.83 449.47 267.54 449.46 268.25 449.45 268.96 449.45 269.67 449.44 270.38 449.43 271.08 449.43 271.79 449.42 272.5 449.42 273.2 449.41 273.91 449.4 274.61 449.4 275.31 449.39 276.01 449.39 276.72 449.38 277.42 449.37 278.12 449.37 278.82 449.36 279.52 449.36 280.21 449.35 280.91 449.34 281.61 449.34 282.31 449.33 283 449.33 283.7 449.32 284.39 449.32 285.09 449.31 285.78 449.31 286.48 449.3 287.17 449.3 287.86 450.57 287.73 451.84 287.6 453.1 287.47 454.37 287.34 455.64 287.21 456.91 287.09 458.18 286.96 459.44 286.83 460.71 286.7 461.98 286.58 463.24 286.45 464.51 286.32 465.77 286.2 467.04 286.07 468.3 285.95 469.57 285.82 470.83 285.69 472.09 285.57 473.35 285.44 474.62 285.32 475.88 285.19 477.14 285.06 478.4 284.94 479.66 284.81 480.92 284.68 482.18 284.56 483.44 284.43 484.69 284.3 485.95 284.17 487.21 284.04 488.46 283.91 489.72 283.79 489.71 284.94 489.7 286.09 489.69 287.24 489.68 288.4 489.68 289.55 489.67 290.7 489.67 291.85 489.66 293 489.66 294.15 489.65 295.3 489.65 296.45 489.65 297.6 489.64 298.76 489.64 299.91 489.64 301.06 489.64 302.21 489.63 303.36 489.63 304.5 489.63 305.65 489.63 306.8 489.63 307.95 489.63 309.1 489.62 310.25 489.62 311.4 489.62 312.55 489.62 313.7 489.62 314.85 489.62 315.99 489.62 317.14 489.62 318.29 489.62 319.44 489.62 320.59 488.35 320.75 487.09 320.91 485.83 321.07 484.56 321.24 483.3 321.4 482.04 321.56 480.78 321.73 479.51 321.89 478.25 322.05 476.99 322.22 475.72 322.38 474.46 322.54 473.2 322.71 471.93 322.87 470.67 323.03 469.4 323.2 468.14 323.36 466.88 323.53 465.61 323.69 464.35 323.86 463.08 324.02 461.82 324.19 460.55 324.35 459.29 324.52 458.02 324.68 456.76 324.85 455.49 325.02 454.23 325.18 452.96 325.35 451.7 325.52 450.43 325.69 449.16 325.86 449.16 326.57 449.16 327.29 449.16 328.01 449.16 328.72 449.16 329.44 449.16 330.15 449.16 330.87 449.16 331.59 449.16 332.3 449.16 333.02 449.16 333.73 449.16 334.45 449.16 335.16 449.16 335.88 449.16 336.59 449.16 337.31 449.16 338.02 449.16 338.74 449.16 339.45 449.16 340.17 449.16 340.88 449.16 341.59 449.16 342.31 449.16 343.02 449.17 343.74 449.17 344.45 449.17 345.16 449.17 345.87 449.17 346.59 449.17 347.3 449.17 348.01 449.17 348.73 449.17 349.44 449.17 350.15 449.17 350.86 449.17 351.57 449.18 352.29 449.18 353 449.18 353.71 449.18 354.42 449.18 355.13 449.18 355.84 449.18 356.55 449.18 357.26 449.19 357.97 449.19 358.68 449.19 359.39 449.19 360.1 449.19 360.81 449.19 361.52 449.19 362.23 449.2 362.94 449.2 363.65 449.2 364.36 449.2 365.06 449.2 365.77 449.2 366.48 449.21 367.19 449.21 367.89 449.21 368.6 449.21 369.31 449.21 370.01 449.22 370.72 449.22 371.43 449.22 372.27 449.29 373.04 449.36 373.81 449.5 374.5 449.63 375.2 449.84 375.82 450.04 376.44 450.31 376.98 450.85 378.07 451.67 378.87 452.48 379.66 453.56 380.16 454.64 380.66 455.91 380.96 457.19 381.26 458.66 381.35 460.13 381.45 461.79 381.35 463.46 381.25 465.32 380.96 465.32 380.96 465.32 380.96 466.69 380.74 468.16 380.43 469.63 380.13 471.2 379.74 472.76 379.35 474.43 378.88 476.1 378.4 477.86 377.84 479.62 377.29 481.39 376.67 483.15 376.06 484.91 375.4 486.68 374.73 488.44 374.01 490.21 373.3 491.97 372.52 491.97 372.52 491.97 372.52 491.97 372.52 491.97 372.52M598.49 416.41Q598.49 416.41 598.49 416.41 597.04 416.26 595.6 416.14 594.15 416.02 592.7 415.96 591.25 415.91 589.8 415.83 588.35 415.75 586.91 415.65 585.46 415.54 584.02 415.41 582.58 415.27 581.14 415.11 579.7 414.95 578.27 414.77 576.83 414.58 575.4 414.36 573.97 414.15 572.54 413.91 571.11 413.67 569.68 413.4 568.26 413.14 566.84 412.85 565.42 412.55 564 412.23 562.58 411.92 561.16 411.57 559.74 411.23 558.33 410.87 556.92 410.5 555.51 410.11 554.1 409.73 552.69 409.32 551.28 408.92 549.9 408.5 548.52 408.08 547.16 407.64 545.8 407.21 544.47 406.75 543.13 406.3 541.82 405.82 540.51 405.33 539.22 404.82 537.93 404.31 536.66 403.76 535.4 403.22 534.15 402.64 532.9 402.06 531.67 401.45 530.44 400.83 529.24 400.19 528.03 399.54 526.84 398.86 525.65 398.18 524.48 397.46 523.31 396.74 522.16 395.99 521.01 395.24 519.88 394.45 518.74 393.67 517.64 392.85 516.53 392.03 515.44 391.18 514.35 390.32 513.29 389.44 513.29 389.44 513.29 389.44 513.93 388.29 514.57 387.14 515.22 385.98 515.88 384.83 516.55 383.68 517.23 382.53 517.92 381.38 518.62 380.23 519.31 379.08 520.01 377.94 520.71 376.79 521.41 375.64 522.11 374.5 522.81 373.35 523.51 372.21 524.21 371.06 524.91 369.92 525.6 368.78 526.3 367.64 527 366.5 527.69 365.36 528.39 364.22 529.09 363.08 529.78 361.94 530.48 360.8 531.17 359.67 531.87 358.53 532.56 357.39 533.25 356.26 533.95 355.12 534.64 353.99 535.34 352.86 536.4 353.55 537.46 354.21 538.52 354.88 539.57 355.53 540.62 356.18 541.67 356.8 542.72 357.43 543.77 358.04 544.81 358.64 545.85 359.23 546.89 359.81 547.92 360.38 548.96 360.95 549.99 361.49 551.01 362.04 552.04 362.56 553.06 363.09 554.08 363.6 555.1 364.1 556.11 364.59 557.12 365.08 558.12 365.54 559.13 366.01 560.13 366.46 561.13 366.91 562.13 367.33 563.12 367.76 564.11 368.17 565.1 368.58 566.08 368.97 567.07 369.36 568.04 369.74 569.02 370.11 569.99 370.46 570.96 370.81 571.91 371.14 572.87 371.47 573.81 371.77 574.76 372.08 575.69 372.36 576.63 372.65 577.55 372.91 578.47 373.17 579.39 373.41 580.3 373.65 581.2 373.87 582.1 374.09 583 374.29 583.89 374.48 584.77 374.66 585.65 374.84 586.52 374.99 587.39 375.15 588.25 375.28 589.11 375.41 589.96 375.53 591.66 375.75 593.31 375.89 594.97 376.03 596.59 376.08 596.59 376.08 596.59 376.08 598.29 376.14 599.77 376.07 601.26 376.01 602.53 375.81 603.8 375.62 604.86 375.3 605.92 374.98 606.77 374.53 607.61 374.08 608.24 373.51 608.88 372.93 609.29 372.23 609.71 371.52 609.92 370.69 610.12 369.85 610.12 368.89 610.12 368.89 610.12 368.89 610.11 367.81 609.77 366.79 609.43 365.77 608.76 364.82 608.1 363.86 607.1 362.97 606.1 362.07 604.78 361.24 604.11 360.82 603.29 360.39 602.47 359.95 601.5 359.49 600.52 359.03 599.38 358.55 598.25 358.08 596.95 357.58 595.66 357.08 594.21 356.56 592.76 356.04 591.15 355.49 590.35 355.22 589.5 354.95 588.66 354.67 587.77 354.39 586.89 354.11 585.97 353.83 585.04 353.54 584.08 353.25 584.08 353.25 584.08 353.25 582.88 352.89 581.71 352.54 580.53 352.18 579.38 351.83 578.23 351.48 577.11 351.12 575.98 350.77 574.88 350.42 573.78 350.07 572.7 349.72 571.62 349.37 570.57 349.02 569.52 348.68 568.49 348.33 567.46 347.98 566.46 347.64 565.45 347.29 564.47 346.95 563.49 346.61 562.54 346.27 561.58 345.92 560.65 345.58 559.72 345.24 558.82 344.9 557.91 344.56 557.03 344.22 556.15 343.89 555.29 343.55 554.43 343.21 553.6 342.88 552.77 342.54 551.96 342.2 550.35 341.53 548.81 340.85 547.27 340.17 545.8 339.48 544.33 338.79 542.94 338.09 541.55 337.38 540.24 336.67 538.92 335.95 537.68 335.23 536.44 334.5 535.28 333.76 534.12 333.02 533.03 332.27 531.94 331.53 530.93 330.77 529.91 330.01 528.97 329.23 528.03 328.45 527.17 327.65 526.3 326.85 525.5 326.04 524.71 325.22 523.99 324.39 523.27 323.55 522.62 322.7 521.97 321.85 521.39 320.97 520.82 320.1 520.32 319.21 519.81 318.32 519.38 317.42 518.95 316.51 518.58 315.56 518.2 314.61 517.88 313.63 517.55 312.64 517.29 311.62 517.02 310.59 516.8 309.53 516.59 308.46 516.43 307.36 516.26 306.25 516.16 305.11 516.05 303.97 516 302.79 515.94 301.61 515.94 300.39 515.94 300.39 515.94 300.39 515.94 298.76 516.03 297.17 516.11 295.57 516.28 294.01 516.45 292.45 516.71 290.93 516.97 289.4 517.31 287.91 517.65 286.42 518.08 284.96 518.51 283.5 519.02 282.07 519.54 280.64 520.14 279.25 520.73 277.86 521.42 276.49 522.1 275.13 522.85 273.82 523.61 272.51 524.42 271.24 525.24 269.97 526.12 268.75 527.01 267.53 527.96 266.35 528.91 265.18 529.92 264.05 530.94 262.92 532.02 261.83 533.11 260.74 534.26 259.7 535.4 258.66 536.62 257.67 537.83 256.67 539.11 255.74 540.38 254.8 541.71 253.93 543.04 253.06 544.43 252.24 545.82 251.43 547.27 250.68 548.72 249.93 550.23 249.25 551.73 248.57 553.3 247.95 554.08 247.64 554.88 247.35 555.67 247.06 556.48 246.78 557.3 246.51 558.12 246.25 558.95 245.99 559.79 245.75 560.63 245.51 561.48 245.29 562.33 245.07 563.19 244.87 564.05 244.67 564.92 244.49 565.79 244.31 566.68 244.15 567.56 243.99 568.45 243.85 569.34 243.71 570.24 243.59 571.14 243.47 572.05 243.37 572.96 243.26 573.88 243.18 574.8 243.1 575.73 243.04 576.66 242.98 577.6 242.94 578.54 242.9 579.49 242.88 580.44 242.86 581.4 242.86 582.36 242.86 583.33 242.88 584.3 242.9 585.28 242.94 586.26 242.98 587.25 243.04 588.24 243.11 589.24 243.19 589.24 243.19 589.24 243.19 590.47 243.29 591.7 243.41 592.92 243.53 594.14 243.68 595.36 243.82 596.57 243.99 597.78 244.15 598.99 244.34 600.19 244.53 601.39 244.74 602.58 244.95 603.77 245.17 604.96 245.41 606.14 245.66 607.32 245.91 608.5 246.19 609.67 246.46 610.84 246.76 612 247.05 613.16 247.37 614.32 247.69 615.47 248.03 616.62 248.37 617.77 248.73 618.91 249.09 620.05 249.47 621.18 249.85 622.31 250.25 623.44 250.66 624.56 251.08 625.69 251.51 626.8 251.95 627.92 252.39 629.03 252.88 630.15 253.37 631.26 253.89 632.38 254.42 633.5 254.99 634.62 255.56 635.74 256.17 636.86 256.78 637.98 257.43 639.1 258.08 640.22 258.77 641.34 259.46 642.47 260.19 643.59 260.91 644.72 261.67 645.85 262.44 646.98 263.24 648.11 264.03 649.25 264.86 650.38 265.69 651.52 266.56 652.66 267.42 653.8 268.31 654.95 269.2 656.1 270.12 657.25 271.04 658.41 271.99 659.56 272.94 660.72 273.92 661.89 274.89 663.05 275.89 663.05 275.89 663.05 275.89 662.31 276.91 661.57 277.93 660.82 278.94 660.07 279.96 659.32 280.98 658.57 282 657.81 283.02 657.06 284.05 656.3 285.07 655.54 286.1 654.78 287.12 654.02 288.15 653.26 289.18 652.5 290.21 651.74 291.24 650.98 292.27 650.22 293.3 649.45 294.33 648.69 295.37 647.93 296.4 647.16 297.44 646.4 298.48 645.64 299.51 644.87 300.55 644.11 301.59 643.35 302.63 642.58 303.67 641.82 304.72 641.06 305.76 640.29 306.8 639.53 307.85 638.76 308.89 637.71 308.19 636.68 307.51 635.65 306.83 634.64 306.17 633.63 305.51 632.64 304.87 631.65 304.23 630.69 303.62 629.72 303.01 628.78 302.42 627.83 301.83 626.91 301.26 625.99 300.69 625.09 300.15 624.18 299.6 623.3 299.08 622.43 298.56 621.57 298.07 620.71 297.57 619.87 297.1 619.04 296.63 618.22 296.18 617.41 295.73 616.62 295.31 615.03 294.46 613.53 293.71 612.04 292.95 610.62 292.3 609.21 291.65 607.82 291.07 606.43 290.48 605.07 289.97 603.7 289.46 602.35 289.01 601.01 288.57 599.68 288.2 598.36 287.83 597.06 287.53 595.76 287.22 594.48 286.99 593.2 286.77 591.94 286.61 590.68 286.45 589.44 286.36 589.44 286.36 589.44 286.36 587.99 286.26 586.67 286.3 585.35 286.35 584.16 286.53 582.96 286.72 581.9 287.04 580.83 287.37 579.9 287.84 578.96 288.31 578.26 288.95 577.56 289.58 577.09 290.39 576.63 291.19 576.4 292.16 576.17 293.13 576.17 294.26 576.17 294.26 576.17 294.26 576.18 295.47 576.53 296.59 576.87 297.71 577.56 298.74 578.25 299.77 579.28 300.7 580.31 301.64 581.68 302.48 582.36 302.9 583.21 303.35 584.07 303.79 585.08 304.26 586.1 304.72 587.28 305.21 588.46 305.7 589.81 306.21 591.16 306.73 592.67 307.26 594.18 307.8 595.86 308.36 596.7 308.64 597.58 308.92 598.46 309.21 599.38 309.5 600.31 309.79 601.27 310.09 602.23 310.39 603.24 310.69 603.24 310.69 603.24 310.69 604.46 311.07 605.65 311.44 606.85 311.82 608.02 312.2 609.19 312.58 610.33 312.96 611.48 313.34 612.6 313.71 613.73 314.09 614.83 314.47 615.92 314.85 617 315.23 618.07 315.61 619.13 315.99 620.18 316.37 621.2 316.75 622.23 317.13 623.23 317.51 624.24 317.89 625.22 318.27 626.2 318.64 627.15 319.02 628.11 319.4 629.04 319.78 629.97 320.16 630.88 320.54 631.78 320.92 632.67 321.29 633.55 321.67 634.41 322.05 635.27 322.43 636.1 322.81 636.94 323.18 637.75 323.56 638.57 323.94 639.36 324.33 640.95 325.09 642.45 325.86 643.96 326.63 645.38 327.4 646.8 328.18 648.14 328.96 649.48 329.75 650.73 330.54 651.99 331.33 653.16 332.13 654.33 332.93 655.42 333.73 656.51 334.54 657.52 335.35 658.52 336.16 659.45 337 660.39 337.83 661.25 338.68 662.11 339.53 662.9 340.39 663.69 341.26 664.4 342.15 665.12 343.04 665.76 343.94 666.41 344.85 666.98 345.77 667.55 346.69 668.05 347.64 668.55 348.58 668.97 349.54 669.4 350.5 669.78 351.49 670.15 352.49 670.47 353.51 670.79 354.54 671.06 355.59 671.32 356.65 671.54 357.74 671.75 358.83 671.91 359.95 672.07 361.07 672.18 362.23 672.28 363.38 672.27 364.56 672.22 365.74 672.22 366.96 672.22 366.96 672.22 366.96 672.22 367.74 672.24 368.52 672.26 369.29 672.3 370.05 672.23 371.56 672.07 373.03 671.91 374.5 671.67 375.92 671.43 377.34 671.11 378.71 670.79 380.08 670.39 381.41 669.99 382.73 669.52 384.01 669.04 385.29 668.48 386.52 667.92 387.75 667.28 388.93 666.65 390.12 665.94 391.26 665.23 392.39 664.45 393.49 663.67 394.58 662.82 395.62 661.97 396.67 661.05 397.67 660.12 398.67 659.13 399.63 658.14 400.58 657.08 401.49 656.02 402.4 654.89 403.26 653.75 404.12 652.55 404.93 651.35 405.75 650.09 406.5 648.82 407.26 647.5 407.97 646.17 408.67 644.78 409.32 643.4 409.97 641.94 410.56 640.49 411.15 638.98 411.67 637.47 412.19 635.89 412.65 635.1 412.88 634.3 413.09 633.5 413.3 632.68 413.5 631.86 413.7 631.02 413.89 630.19 414.08 629.33 414.26 628.48 414.44 627.62 414.61 626.75 414.78 625.87 414.94 624.99 415.09 624.1 415.23 623.21 415.37 622.3 415.5 621.39 415.62 620.47 415.73 619.55 415.84 618.61 415.93 617.68 416.02 616.73 416.1 615.78 416.18 614.82 416.24 613.85 416.31 612.87 416.38 611.9 416.47 610.9 416.56 609.91 416.64 608.9 416.71 607.89 416.79 606.87 416.84 605.85 416.9 604.81 416.94 603.77 416.99 602.73 416.9 601.68 416.76 600.62 416.64 599.56 416.52 598.49 416.41 598.49 416.41 598.49 416.41M760.12 428.59Q760.12 428.59 760.12 428.59 758.77 428.34 757.43 428.13 756.09 427.91 754.75 427.66 753.41 427.37 752.07 427.06 750.73 426.76 749.38 426.53 748.03 426.32 746.68 426.07 745.33 425.83 743.99 425.56 742.64 425.29 741.3 425 739.96 424.71 738.62 424.4 737.28 424.08 735.94 423.74 734.6 423.4 733.27 423.03 731.93 422.67 730.6 422.28 729.26 421.88 727.93 421.47 726.6 421.05 725.27 420.62 723.93 420.2 722.6 419.75 721.27 419.32 719.94 418.87 718.6 418.42 717.27 417.94 715.93 417.46 714.62 416.96 713.31 416.45 712.01 415.91 710.72 415.37 709.44 414.79 708.16 414.21 706.9 413.61 705.64 412.99 704.4 412.35 703.15 411.71 701.92 411.03 700.68 410.36 699.46 409.65 698.24 408.95 697.03 408.21 695.81 407.47 694.61 406.71 693.4 405.94 692.2 405.14 691 404.34 689.81 403.51 688.61 402.68 687.43 401.82 686.25 400.96 685.08 400.08 683.9 399.19 682.74 398.28 681.58 397.36 680.44 396.42 679.3 395.48 678.18 394.51 678.18 394.51 678.18 394.51 678.72 393.53 679.27 392.55 679.83 391.57 680.41 390.59 681.03 389.61 681.67 388.63 682.33 387.65 683 386.67 683.68 385.69 684.36 384.71 685.04 383.73 685.72 382.76 686.4 381.78 687.08 380.8 687.76 379.83 688.44 378.86 689.11 377.88 689.79 376.91 690.47 375.94 691.14 374.97 691.82 374 692.49 373.03 693.17 372.06 693.84 371.1 694.51 370.13 695.18 369.17 695.86 368.21 696.53 367.24 697.2 366.28 697.87 365.32 698.54 364.37 699.22 363.41 700.26 364.19 701.3 364.96 702.33 365.72 703.37 366.46 704.4 367.2 705.43 367.92 706.46 368.64 707.48 369.34 708.5 370.03 709.51 370.71 710.53 371.39 711.54 372.04 712.55 372.7 713.55 373.33 714.55 373.97 715.55 374.58 716.54 375.19 717.53 375.78 718.52 376.38 719.5 376.95 720.48 377.52 721.46 378.07 722.43 378.62 723.4 379.15 724.36 379.68 725.32 380.19 726.28 380.71 727.24 381.2 728.19 381.69 729.13 382.16 730.08 382.63 731.02 383.08 731.96 383.53 732.88 383.96 733.81 384.39 734.73 384.8 735.64 385.2 736.54 385.59 737.45 385.97 738.34 386.33 739.23 386.69 740.11 387.03 740.99 387.37 741.86 387.69 742.73 388 743.59 388.3 744.44 388.59 745.29 388.87 746.14 389.14 746.97 389.39 747.81 389.65 748.63 389.88 749.46 390.11 750.27 390.32 751.09 390.53 751.89 390.72 753.5 391.1 755.07 391.39 756.63 391.69 758.16 391.9 758.16 391.9 758.16 391.9 759.76 392.12 761.17 392.22 762.57 392.31 763.77 392.26 764.97 392.22 765.97 392.05 766.96 391.88 767.76 391.57 768.56 391.26 769.15 390.83 769.75 390.39 770.15 389.82 770.54 389.25 770.74 388.54 770.93 387.84 770.93 387 770.93 387 770.93 387 770.92 386.06 770.61 385.14 770.29 384.22 769.66 383.32 769.04 382.41 768.1 381.52 767.16 380.63 765.91 379.75 765.28 379.31 764.51 378.83 763.73 378.35 762.81 377.83 761.88 377.31 760.81 376.76 759.74 376.2 758.51 375.6 757.28 375.01 755.91 374.37 754.53 373.73 753 373.05 752.24 372.71 751.43 372.36 750.63 372.01 749.79 371.66 748.95 371.29 748.07 370.92 747.19 370.55 746.27 370.17 746.27 370.17 746.27 370.17 745.13 369.7 744.01 369.23 742.88 368.76 741.78 368.3 740.68 367.83 739.61 367.37 738.53 366.91 737.47 366.45 736.42 365.99 735.38 365.53 734.35 365.07 733.34 364.62 732.32 364.17 731.34 363.72 730.35 363.27 729.38 362.82 728.41 362.37 727.47 361.93 726.52 361.48 725.6 361.04 724.68 360.6 723.78 360.16 722.88 359.72 722 359.29 721.12 358.86 720.27 358.42 719.42 357.99 718.59 357.57 717.76 357.14 716.95 356.71 716.14 356.29 715.36 355.87 713.79 355.03 712.29 354.19 710.79 353.34 709.37 352.49 707.94 351.65 706.59 350.8 705.23 349.95 703.95 349.1 702.67 348.25 701.46 347.39 700.25 346.54 699.11 345.69 697.97 344.83 696.91 343.98 695.85 343.12 694.86 342.26 693.87 341.41 692.95 340.54 692.03 339.68 691.18 338.81 690.33 337.93 689.56 337.05 688.78 336.17 688.08 335.29 687.37 334.4 686.74 333.51 686.1 332.61 685.54 331.71 684.98 330.81 684.49 329.9 683.99 329 683.57 328.08 683.15 327.17 682.78 326.23 682.42 325.28 682.1 324.31 681.79 323.34 681.52 322.34 681.26 321.34 681.05 320.31 680.84 319.28 680.68 318.23 680.52 317.17 680.42 316.09 680.32 315 680.26 313.89 680.21 312.77 680.21 311.63 680.21 311.63 680.21 311.63 680.21 310.11 680.3 308.64 680.38 307.16 680.55 305.73 680.72 304.3 680.97 302.91 681.22 301.52 681.56 300.18 681.9 298.84 682.32 297.55 682.74 296.25 683.25 295.01 683.76 293.76 684.35 292.55 684.95 291.35 685.62 290.2 686.3 289.04 687.05 287.94 687.8 286.84 688.61 285.8 689.43 284.76 690.31 283.78 691.2 282.8 692.15 281.87 693.11 280.94 694.13 280.08 695.16 279.21 696.26 278.4 697.35 277.59 698.52 276.84 699.69 276.09 700.93 275.39 702.17 274.7 703.47 274.08 704.78 273.46 706.14 272.91 707.51 272.36 708.93 271.88 710.36 271.4 711.85 271 713.33 270.6 714.88 270.27 716.43 269.94 718.03 269.69 718.83 269.56 719.65 269.45 720.46 269.35 721.29 269.26 722.12 269.17 722.97 269.11 723.81 269.04 724.67 268.99 725.53 268.94 726.4 268.91 727.27 268.89 728.15 268.88 729.02 268.88 729.91 268.89 730.8 268.9 731.69 268.94 732.59 268.98 733.49 269.03 734.4 269.09 735.31 269.17 736.22 269.25 737.15 269.34 738.07 269.44 739 269.57 739.93 269.69 740.87 269.83 741.81 269.97 742.76 270.13 743.71 270.29 744.67 270.48 745.62 270.67 746.59 270.87 747.56 271.07 748.53 271.3 749.5 271.53 750.49 271.78 751.47 272.03 752.46 272.29 753.45 272.56 754.46 272.85 754.46 272.85 754.46 272.85 755.69 273.21 756.91 273.59 758.14 273.97 759.35 274.37 760.57 274.76 761.77 275.18 762.98 275.6 764.17 276.04 765.37 276.47 766.55 276.93 767.74 277.39 768.91 277.86 770.09 278.34 771.26 278.83 772.42 279.32 773.58 279.84 774.73 280.35 775.88 280.88 777.03 281.41 778.16 281.96 779.3 282.52 780.42 283.08 781.55 283.65 782.66 284.24 783.77 284.83 784.88 285.44 785.98 286.04 787.08 286.67 788.17 287.29 789.25 287.93 790.33 288.57 791.4 289.23 792.47 289.89 793.54 290.59 794.6 291.29 795.66 292.02 796.72 292.75 797.77 293.52 798.83 294.29 799.87 295.1 800.92 295.91 801.96 296.75 802.99 297.58 804.02 298.46 805.05 299.33 806.07 300.23 807.09 301.13 808.1 302.06 809.11 302.99 810.1 303.94 811.1 304.89 812.08 305.87 813.06 306.84 814.03 307.84 814.99 308.83 815.94 309.84 816.88 310.84 817.81 311.86 818.73 312.88 819.64 313.91 820.55 314.94 821.44 315.99 822.32 317.02 823.19 318.08 823.19 318.08 823.19 318.08 822.35 318.74 821.52 319.41 820.71 320.07 819.89 320.74 819.09 321.41 818.3 322.09 817.51 322.76 816.73 323.44 815.96 324.12 815.19 324.8 814.43 325.48 813.67 326.17 812.91 326.86 812.15 327.55 811.4 328.24 810.65 328.94 809.9 329.63 809.15 330.33 808.4 331.04 807.65 331.74 806.91 332.45 806.16 333.15 805.41 333.86 804.67 334.58 803.92 335.29 803.18 336.01 802.43 336.73 801.69 337.45 800.95 338.17 800.2 338.9 799.46 339.63 798.72 340.36 797.77 339.58 796.84 338.83 795.91 338.07 795 337.34 794.08 336.6 793.19 335.88 792.3 335.17 791.42 334.47 790.54 333.77 789.68 333.1 788.82 332.42 787.98 331.77 787.14 331.11 786.32 330.48 785.49 329.85 784.69 329.24 783.88 328.63 783.09 328.04 782.3 327.45 781.53 326.89 780.76 326.32 780 325.78 779.25 325.24 778.51 324.72 777.04 323.68 775.64 322.74 774.24 321.8 772.91 320.96 771.59 320.12 770.27 319.34 768.96 318.56 767.66 317.84 766.36 317.13 765.08 316.48 763.79 315.82 762.52 315.24 761.25 314.65 760 314.13 758.74 313.61 757.5 313.16 756.26 312.71 755.04 312.32 753.82 311.94 752.61 311.62 752.61 311.62 752.61 311.62 751.2 311.25 749.9 311.04 748.61 310.82 747.43 310.76 746.26 310.7 745.2 310.79 744.15 310.88 743.21 311.12 742.28 311.37 741.58 311.81 740.87 312.25 740.39 312.89 739.92 313.52 739.66 314.35 739.41 315.18 739.39 316.2 739.39 316.2 739.39 316.2 739.37 317.29 739.68 318.36 739.99 319.43 740.64 320.48 741.29 321.52 742.27 322.54 743.25 323.56 744.56 324.56 745.22 325.05 746.03 325.6 746.85 326.14 747.83 326.74 748.8 327.33 749.93 327.97 751.06 328.62 752.36 329.3 753.64 329.99 755.09 330.73 756.54 331.47 758.14 332.25 758.94 332.64 759.78 333.05 760.62 333.45 761.5 333.87 762.37 334.28 763.29 334.71 764.2 335.14 765.16 335.58 765.16 335.58 765.16 335.58 766.31 336.12 767.44 336.65 768.58 337.19 769.68 337.72 770.79 338.24 771.87 338.77 772.95 339.29 774.01 339.81 775.06 340.33 776.09 340.85 777.12 341.36 778.13 341.87 779.14 342.38 780.12 342.88 781.1 343.38 782.06 343.88 783.02 344.38 783.95 344.87 784.88 345.36 785.79 345.84 786.7 346.33 787.59 346.81 788.47 347.29 789.34 347.76 790.2 348.24 791.04 348.71 791.87 349.18 792.69 349.64 793.51 350.1 794.3 350.56 795.09 351.02 795.86 351.47 796.63 351.92 797.38 352.37 798.13 352.82 798.85 353.27 800.31 354.16 801.69 355.04 803.07 355.91 804.38 356.78 805.68 357.65 806.91 358.51 808.14 359.36 809.29 360.21 810.44 361.05 811.51 361.89 812.59 362.72 813.58 363.55 814.58 364.37 815.51 365.19 816.43 366 817.29 366.82 818.15 367.63 818.94 368.45 819.73 369.27 820.46 370.09 821.18 370.91 821.84 371.73 822.5 372.55 823.1 373.38 823.69 374.2 824.22 375.03 824.75 375.86 825.21 376.69 825.67 377.52 826.06 378.36 826.46 379.19 826.8 380.04 827.15 380.89 827.45 381.76 827.74 382.63 827.99 383.52 828.24 384.4 828.44 385.31 828.64 386.21 828.78 387.13 828.93 388.05 829.03 388.99 829.13 389.93 829.12 390.88 829.07 391.82 829.07 392.79 829.07 392.79 829.07 392.79 829.07 393.42 829.09 394.04 829.11 394.66 829.15 395.28 829.08 396.48 828.93 397.63 828.78 398.79 828.56 399.89 828.34 401 828.04 402.06 827.74 403.11 827.37 404.12 827 405.14 826.55 406.1 826.1 407.07 825.58 407.98 825.06 408.91 824.47 409.78 823.87 410.66 823.21 411.49 822.55 412.32 821.82 413.11 821.09 413.91 820.29 414.66 819.5 415.41 818.64 416.13 817.78 416.85 816.85 417.52 815.92 418.21 814.93 418.85 813.94 419.5 812.88 420.1 811.83 420.72 810.7 421.29 809.58 421.87 808.4 422.41 807.22 422.95 805.98 423.45 804.74 423.95 803.45 424.41 802.15 424.88 800.79 425.31 799.43 425.74 798.02 426.13 796.6 426.53 795.12 426.88 794.38 427.06 793.63 427.23 792.88 427.4 792.11 427.55 791.34 427.71 790.56 427.85 789.77 428 788.98 428.13 788.18 428.26 787.37 428.38 786.56 428.5 785.73 428.61 784.91 428.72 784.07 428.81 783.23 428.9 782.38 428.98 781.53 429.06 780.67 429.12 779.81 429.19 778.93 429.24 778.06 429.29 777.17 429.33 776.28 429.36 775.37 429.38 774.47 429.41 773.56 429.42 772.64 429.42 771.71 429.42 770.79 429.41 769.85 429.39 768.9 429.36 767.95 429.32 767 429.28 766.03 429.22 765.07 429.16 764.09 429.06 763.11 428.94 762.11 428.83 761.12 428.72 760.12 428.59 760.12 428.59 760.12 428.59M931.86 445.64Q930.77 445.57 929.69 445.5 928.6 445.43 927.52 445.37 926.43 445.28 925.35 445.18 924.27 445.09 923.19 444.99 922.11 444.89 921.03 444.8 919.94 444.7 918.86 444.61 917.78 444.51 916.7 444.38 915.62 444.24 914.55 444.1 913.47 443.95 912.39 443.81 911.32 443.67 910.24 443.52 909.16 443.38 908.09 443.24 907.01 443.12 905.92 443.04 904.84 442.96 903.76 442.87 902.67 442.79 901.59 442.7 900.51 442.62 899.43 442.54 898.34 442.45 897.26 442.36 896.18 442.27 895.1 442.17 894.02 442.07 892.93 441.97 891.85 441.87 890.77 441.78 889.69 441.68 888.61 441.58 887.53 441.46 886.45 441.31 885.38 441.15 884.3 441 883.23 440.85 882.15 440.69 881.08 440.54 880 440.39 878.93 440.23 877.85 440.1 876.77 440.01 875.68 439.93 874.6 439.84 873.52 439.75 872.43 439.67 871.35 439.58 870.27 439.49 869.19 439.41 868.1 439.31 867.02 439.2 865.94 439.09 864.86 438.98 863.78 438.86 862.7 438.75 862.7 438.44 862.71 438.04 862.71 437.64 862.71 437.23 862.72 436.83 862.72 436.42 862.73 436.01 862.73 435.6 862.74 435.19 862.74 434.78 862.75 434.37 862.76 433.96 862.76 433.55 862.77 433.14 862.78 432.72 862.79 432.31 862.8 431.89 862.8 431.48 862.81 431.06 862.82 430.64 862.83 430.22 862.84 429.81 862.85 429.39 862.86 428.97 862.87 428.55 862.88 428.12 862.89 427.7 862.9 427.28 862.91 426.86 862.92 426.43 862.93 426.01 862.94 425.59 862.95 425.16 862.95 424.74 862.96 424.31 862.97 423.89 862.98 423.46 862.99 423.03 863 422.61 863 422.18 863.01 421.75 863.02 421.33 863.03 420.9 863.03 420.47 863.04 420.04 863.05 419.62 863.05 419.19 863.06 418.76 863.06 418.33 863.07 417.9 863.07 417.47 863.07 417.05 863.08 416.62 863.08 416.19 863.08 415.76 863.08 415.33 863.08 414.9 863.08 414.47 863.08 414.04 863.08 413.61 863.08 413.18 863.08 412.75 863.08 412.32 863.07 411.9 863.07 411.47 863.07 411.04 863.06 410.61 863.06 410.18 863.05 409.75 863.04 409.32 863.04 408.89 863.03 408.46 863.02 408.03 863.02 407.6 863.01 407.17 863 406.74 862.99 406.31 862.98 405.88 862.97 405.45 862.96 405.02 862.95 404.59 862.94 404.16 862.93 403.73 862.91 403.3 862.9 402.87 862.89 402.44 862.88 402.01 862.86 401.58 862.85 401.15 862.84 400.72 862.82 400.29 862.81 399.86 862.79 399.43 862.78 399 862.76 398.57 862.75 398.14 862.73 397.71 862.72 397.28 862.7 396.85 862.68 396.42 862.67 395.99 862.65 395.56 862.64 395.13 862.62 394.7 862.6 394.27 862.58 393.84 862.57 393.41 862.55 392.98 862.53 392.55 862.51 392.12 862.49 391.69 862.48 391.26 862.46 390.83 862.44 390.4 862.42 389.97 862.4 389.54 862.38 389.11 862.36 388.68 862.34 388.25 862.32 387.82 862.3 387.39 862.28 386.96 862.26 386.53 862.24 386.1 862.22 385.67 862.2 385.24 862.18 384.81 862.16 384.38 860.81 384.05 859.46 383.71 858.11 383.37 856.76 383.03 855.41 382.7 854.06 382.36 852.72 382.02 851.37 381.68 850.03 381.34 848.68 381 847.34 380.66 846 380.32 844.66 379.98 843.32 379.64 841.98 379.29 840.64 378.95 840.64 378.15 840.64 377.36 840.64 376.56 840.64 375.77 840.64 374.97 840.64 374.18 840.64 373.38 840.64 372.58 840.64 371.79 840.64 370.99 840.64 370.2 840.64 369.4 840.64 368.61 840.64 367.81 840.64 367.01 840.64 366.22 840.64 365.42 840.64 364.63 840.64 363.83 840.64 363.04 840.64 362.24 840.64 361.44 840.64 360.65 840.64 359.85 840.64 359.06 840.64 358.26 840.64 357.47 840.64 356.67 840.64 355.87 840.64 355.08 840.64 354.28 840.64 353.49 841.91 353.89 843.18 354.28 844.44 354.68 845.71 355.08 846.97 355.48 848.24 355.89 849.5 356.29 850.76 356.69 852.02 357.1 853.28 357.5 854.54 357.91 855.8 358.32 857.06 358.72 858.32 359.13 859.57 359.54 860.83 359.95 860.79 359.34 860.76 358.74 860.72 358.13 860.69 357.52 860.65 356.91 860.61 356.3 860.58 355.69 860.54 355.08 860.51 354.47 860.47 353.86 860.43 353.25 860.4 352.64 860.36 352.03 860.33 351.42 860.29 350.8 860.25 350.19 860.22 349.67 860.21 349.16 860.19 348.64 860.2 348.14 860.2 347.64 860.22 347.15 860.23 346.66 860.27 346.18 860.3 345.7 860.35 345.24 860.4 344.77 860.47 344.32 860.53 343.86 860.62 343.42 860.7 342.98 860.79 342.55 860.89 342.12 861 341.7 861.11 341.29 861.24 340.88 861.36 340.48 861.5 340.08 861.64 339.69 861.8 339.31 861.96 338.93 862.13 338.57 862.29 338.2 862.48 337.85 862.66 337.49 862.86 337.15 863.06 336.81 863.27 336.49 863.48 336.16 863.7 335.85 863.92 335.53 864.15 335.23 864.38 334.93 864.62 334.65 864.87 334.36 865.12 334.09 865.37 333.82 865.63 333.57 865.89 333.31 866.16 333.07 866.7 332.59 867.28 332.16 867.86 331.74 868.48 331.37 869.1 331.01 869.76 330.7 870.41 330.39 871.1 330.14 871.8 329.9 872.53 329.71 873.26 329.52 874.03 329.4 874.8 329.27 875.6 329.21 876.41 329.15 877.26 329.14 878.1 329.15 878.98 329.21 879.87 329.27 880.79 329.4 881.71 329.53 882.68 329.72 883.64 329.91 884.64 330.17 885.64 330.43 886.69 330.75 887.73 331.08 888.81 331.47 889.88 331.87 890.99 332.33 892.1 332.79 893.25 333.32 893.82 333.59 894.4 333.87 894.99 334.15 895.57 334.45 896.16 334.76 896.76 335.07 897.36 335.39 897.97 335.73 898.57 336.06 899.19 336.41 899.81 336.76 900.43 337.13 901.05 337.51 901.68 337.9 902.31 338.28 902.95 338.69 903.59 339.09 904.25 339.51 904.9 339.93 905.55 340.37 905.55 340.37 905.55 340.37 906.54 341.04 907.54 341.73 908.54 342.42 909.56 343.14 910.57 343.87 911.6 344.63 912.62 345.4 913.66 346.19 914.71 346.98 915.76 347.81 916.81 348.64 917.88 349.5 918.95 350.36 920.04 351.25 921.12 352.15 922.22 353.07 923.32 354 924.44 354.96 925.55 355.92 926.69 356.91 927.83 357.89 928.99 358.9 930.16 359.91 931.35 360.94 931.96 361.45 932.57 361.96 933.19 362.47 933.82 362.98 934.45 363.48 935.1 363.99 935.76 364.48 936.44 364.98 937.12 365.46 937.83 365.94 938.55 366.41 939.29 366.87 940.05 367.32 940.83 367.76 941.62 368.18 942.3 368.54 942.3 368.54 942.3 368.54 942.66 368.91 942.87 369.23 943.08 369.55 943.28 369.87 943.49 370.2 943.69 370.53 943.89 370.86 944.08 371.19 944.28 371.52 944.47 371.86 944.66 372.19 944.85 372.53 945.03 372.88 945.21 373.23 945.39 373.57 945.57 373.93 945.74 374.28 945.91 374.63 946.08 374.99 946.24 375.35 946.4 375.72 946.56 376.08 946.72 376.45 946.87 376.82 947.02 377.2 947.16 377.57 947.31 377.95 947.45 378.33 947.58 378.72 947.72 379.1 947.85 379.49 947.98 379.88 946.53 379.23 945.06 378.57 943.59 377.91 942.1 377.24 940.62 376.56 939.11 375.86 937.62 375.17 936.09 374.46 934.58 373.75 933.18 373.1 931.79 372.44 930.5 371.84 929.22 371.24 928.04 370.71 926.87 370.17 925.8 369.7 925.8 369.7 925.8 369.7 924.98 369.33 924.23 369.02 923.48 368.7 922.8 368.43 921.43 367.9 920.31 367.56 919.2 367.23 918.34 367.09 917.47 366.96 916.86 367.03 916.24 367.11 915.86 367.39 915.49 367.67 915.36 368.15 915.3 368.4 915.3 368.69 915.3 368.98 915.36 369.32 915.42 369.67 915.54 370.06 915.67 370.45 915.86 370.89 915.86 370.89 915.86 370.89 916.09 371.44 916.33 371.99 916.56 372.55 916.8 373.1 917.04 373.65 917.27 374.2 917.5 374.75 917.74 375.31 917.97 375.86 918.21 376.41 918.44 376.96 918.67 377.51 918.9 378.07 919.13 378.62 919.36 379.17 919.59 379.73 920.72 380.1 921.86 380.47 922.99 380.84 924.13 381.22 925.27 381.59 926.41 381.96 927.55 382.33 928.69 382.7 929.84 383.06 930.98 383.43 932.13 383.8 933.28 384.16 934.43 384.53 935.59 384.89 936.74 385.25 937.9 385.62 939.06 385.98 940.23 386.34 941.39 386.7 942.56 387.05 943.73 387.41 944.9 387.77 946.07 388.12 947.25 388.47 948.42 388.83 949.6 389.18 950.79 389.53 951.97 389.88 953.15 390.23 954.34 390.57 955.53 390.92 956.72 391.26 957.12 391.79 957.52 392.32 957.92 392.84 958.31 393.37 958.7 393.9 959.09 394.43 959.48 394.97 959.87 395.5 960.26 396.03 960.64 396.57 961.03 397.11 961.41 397.64 961.79 398.18 962.17 398.72 962.55 399.26 962.92 399.81 963.3 400.35 963.67 400.89 964.04 401.44 964.41 401.98 964.78 402.53 965.14 403.08 965.51 403.63 965.87 404.18 966.23 404.73 966.59 405.29 966.94 405.84 967.3 406.4 967.65 406.95 968 407.51 968.35 408.07 968.7 408.63 967.38 408.35 966.07 408.07 964.75 407.8 963.44 407.52 962.13 407.24 960.81 406.96 959.5 406.69 958.19 406.41 956.88 406.13 955.57 405.85 954.27 405.58 952.96 405.3 951.66 405.02 950.35 404.74 949.05 404.46 947.75 404.19 946.46 403.91 945.16 403.63 943.86 403.35 942.57 403.07 941.28 402.79 939.99 402.51 938.7 402.23 937.42 401.95 936.13 401.67 934.85 401.39 933.57 401.1 932.29 400.82 931.01 400.54 929.73 400.26 928.46 399.98 927.19 399.69 927.31 400.05 927.43 400.4 927.54 400.76 927.66 401.12 927.78 401.47 927.9 401.83 928.01 402.18 928.13 402.54 928.24 402.9 928.35 403.25 928.47 403.61 928.58 403.97 928.69 404.33 928.8 404.68 928.91 405.04 929.02 405.4 929.13 405.76 929.24 406.11 929.34 406.47 929.45 406.83 929.55 407.19 929.66 407.55 929.76 407.91 929.87 408.26 929.97 408.62 930.07 408.98 930.17 409.34 930.27 409.7 930.37 410.06 930.46 410.42 930.56 410.78 930.65 411.14 930.75 411.5 930.84 411.86 930.93 412.22 931.03 412.58 931.12 412.94 931.2 413.3 931.29 413.66 931.38 414.02 931.47 414.38 931.55 414.74 931.63 415.1 931.71 415.46 931.8 415.82 931.87 416.18 931.95 416.55 932.03 416.91 932.11 417.27 932.18 417.63 932.25 417.99 932.32 418.35 932.39 418.71 932.46 419.08 932.53 419.44 932.59 419.8 932.66 420.16 932.72 420.52 932.78 420.88 932.84 421.25 932.9 421.61 932.95 421.97 933.01 422.33 933.06 422.69 933.11 423.05 933.16 423.42 933.2 423.78 933.25 424.14 933.29 424.5 933.33 424.86 933.37 425.23 933.4 425.59 933.44 425.95 933.47 426.31 933.5 426.67 933.53 427.03 933.55 427.4 933.58 427.76 933.6 428.12 933.61 428.48 933.63 428.84 933.64 429.2 933.65 429.56 933.66 429.93 933.67 430.29 933.67 430.65 933.67 431.01 933.67 431.37 933.67 431.73 933.66 432.09 933.65 432.45 933.64 432.81 933.62 433.17 933.61 433.53 933.59 433.89 933.56 434.25 933.54 434.61 933.51 434.97 933.48 435.33 933.45 435.69 933.41 436.05 933.37 436.41 933.33 436.76 933.29 437.12 933.24 437.48 933.2 437.84 933.15 438.2 933.1 438.56 933.04 438.91 932.99 439.27 932.93 439.63 932.87 439.99 932.81 440.34 932.75 440.7 932.69 441.06 932.63 441.41 932.56 441.77 932.5 442.13 932.43 442.48 932.37 442.84 932.3 443.2 932.23 443.55 932.17 443.91 932.1 444.27 932.04 444.63 931.97 444.99 931.91 445.35 931.86 445.64 931.86 445.64 931.86 445.64"></path><path fill="#375152" d="M218.94 712.06Q218.94 712.06 218.94 712.06 217.32 711.45 215.96 710.98 214.55 710.38 213.12 709.71 211.59 708.99 209.92 708.15 208.25 707.3 206.57 706.4 204.9 705.5 203.23 704.53 201.58 703.58 199.95 702.58 198.39 701.61 196.85 700.6 195.33 699.59 193.78 698.54 192.23 697.48 190.67 696.4 189.09 695.32 187.51 694.22 185.9 693.13 184.3 692.01 182.68 690.92 181.07 689.82 179.44 688.74 177.82 687.67 176.17 686.62 174.51 685.58 172.82 684.57 171.13 683.57 169.4 682.61 167.66 681.66 165.88 680.76 164.11 679.88 162.3 679.03 160.48 678.21 158.64 677.43 156.8 676.66 154.94 675.93 153.09 675.2 151.22 674.51 149.36 673.82 147.49 673.15 145.63 672.47 143.76 671.81 141.9 671.13 140.02 670.45 138.15 669.76 136.27 669.06 134.46 668.35 132.66 667.66 130.95 666.96 129.26 666.28 127.65 665.59 126.05 664.89 124.52 664.18 122.99 663.46 121.54 662.72 120.05 661.96 118.55 661.09 117.04 660.23 115.6 659.33 114.2 658.46 113.14 657.71 113.14 657.71 113.14 657.71 111.96 656.89 110.92 656.07 109.8 655.17 108.63 654.12 107.46 653.06 106.45 652.01 105.46 650.95 104.64 649.9 103.84 648.85 103.25 647.83 102.74 646.85 102.42 645.9 102.11 644.93 101.93 643.94 101.73 642.91 101.69 641.87 101.65 640.82 101.76 639.77 101.89 638.72 102.16 637.67 102.44 636.61 102.86 635.55 103.29 634.48 103.86 633.4 104.43 632.32 105.15 631.24 105.88 630.14 106.74 629.05 107.62 627.95 108.64 626.85 109.67 625.73 110.84 624.63 112.02 623.51 113.34 622.4 114.66 621.29 116.12 620.19 117.59 619.09 119.2 618 120.81 616.9 122.56 615.82 123.43 615.28 124.34 614.74 125.25 614.2 126.2 613.66 127.14 613.13 128.12 612.6 129.1 612.06 130.11 611.53 131.12 611 132.17 610.48 133.21 609.95 134.29 609.44 135.37 608.91 136.48 608.4 137.6 607.88 138.74 607.37 139.89 606.86 141.06 606.36 142.23 605.86 143.43 605.36 144.63 604.87 145.86 604.39 147.09 603.9 148.34 603.43 149.6 602.96 150.88 602.49 152.16 602.03 153.46 601.58 154.77 601.13 156.1 600.69 157.44 600.25 158.79 599.82 160.15 599.39 161.53 598.98 162.92 598.56 164.32 598.16 165.73 597.76 167.16 597.37 168.59 596.98 170.05 596.61 171.5 596.23 172.98 595.87 174.46 595.51 175.96 595.16 177.46 594.82 178.98 594.49 180.51 594.16 182.05 593.84 182.05 593.84 182.05 593.84 184.03 593.44 185.97 593.08 187.92 592.72 189.83 592.39 191.73 592.07 193.61 591.79 195.48 591.51 197.31 591.27 199.15 591.03 200.95 590.83 202.74 590.64 204.51 590.48 206.27 590.33 207.99 590.22 209.71 590.11 211.4 590.04 213.08 589.98 214.73 589.95 216.38 589.93 217.98 589.96 219.59 589.98 221.16 590.05 222.72 590.12 224.25 590.24 225.78 590.36 227.27 590.52 228.75 590.68 230.2 590.89 231.64 591.11 233.05 591.36 234.45 591.62 235.82 591.93 235.82 591.93 235.82 591.93 235.47 590.26 235.12 588.59 234.76 586.92 234.41 585.26 234.01 583.33 233.46 581.55 232.92 579.78 232.23 578.17 231.55 576.56 230.71 575.11 229.88 573.67 228.9 572.39 227.92 571.12 226.79 570.01 225.65 568.91 224.37 567.97 223.08 567.05 221.64 566.29 220.2 565.53 218.61 564.95 217.02 564.37 215.23 563.96 213.44 563.56 211.46 563.33 209.47 563.11 207.29 563.06 205.11 563.01 202.74 563.14 200.36 563.27 197.8 563.57 196.51 563.72 195.18 563.92 193.85 564.12 192.47 564.35 191.09 564.59 189.66 564.87 188.23 565.15 186.76 565.48 185.28 565.8 183.76 566.17 182.24 566.53 180.67 566.94 180.67 566.94 180.67 566.94 179.2 567.32 177.75 567.72 176.3 568.12 174.87 568.54 173.44 568.96 172.04 569.39 170.63 569.83 169.24 570.28 167.85 570.73 166.49 571.2 165.12 571.67 163.78 572.15 162.44 572.64 161.12 573.14 159.8 573.64 158.5 574.16 157.2 574.67 155.93 575.2 154.65 575.73 153.4 576.28 152.15 576.82 150.92 577.38 149.7 577.94 148.49 578.52 147.29 579.09 146.11 579.67 144.93 580.26 143.78 580.86 142.62 581.46 141.49 582.07 140.37 582.68 139.26 583.3 138.16 583.92 137.06 584.56 135.96 585.2 134.86 585.85 133.76 586.51 132.66 587.17 131.57 587.84 130.48 588.53 129.39 589.21 128.3 589.9 127.22 590.6 126.13 591.31 125.05 592.02 123.97 592.74 122.9 593.46 121.83 594.2 120.76 594.93 119.69 595.68 118.63 596.42 117.57 597.18 116.51 597.93 115.46 598.7 114.41 599.47 113.36 600.24 112.32 601.02 111.28 601.81 110.25 602.59 109.22 603.39 108.2 604.18 107.18 604.98 106.16 605.78 105.15 606.59 105.15 606.59 105.15 606.59 103.52 605.78 101.88 604.97 100.24 604.17 98.6 603.36 96.96 602.56 95.32 601.76 93.68 600.95 92.04 600.15 90.4 599.36 88.76 598.56 87.12 597.76 85.48 596.96 83.84 596.16 82.2 595.37 80.56 594.57 78.92 593.77 77.28 592.97 75.64 592.17 74 591.37 72.37 590.57 70.73 589.77 69.1 588.98 67.48 588.18 65.85 587.38 64.23 586.59 62.62 585.8 61.01 585.02 59.41 584.24 57.81 583.46 56.22 582.68 54.63 581.91 53.04 581.13 54.54 579.9 56.07 578.66 57.61 577.4 59.19 576.15 60.78 574.88 62.4 573.61 64.03 572.34 65.69 571.07 67.35 569.8 69.04 568.54 70.73 567.28 72.44 566.04 74.15 564.79 75.88 563.57 77.61 562.35 79.37 561.14 81.12 559.94 82.89 558.76 84.66 557.58 86.45 556.42 88.24 555.26 90.06 554.12 91.87 552.98 93.7 551.86 95.53 550.73 97.38 549.63 99.24 548.53 101.12 547.45 103 546.37 104.9 545.33 106.81 544.28 108.74 543.27 110.67 542.25 112.63 541.25 114.58 540.25 116.56 539.26 118.54 538.27 120.53 537.28 122.53 536.29 124.54 535.29 126.54 534.29 128.57 533.27 130.58 532.24 132.62 531.22 134.65 530.2 136.73 529.23 138.81 528.29 140.92 527.39 143.04 526.5 145.18 525.63 147.33 524.77 149.5 523.94 151.67 523.11 153.86 522.3 156.06 521.49 158.28 520.71 160.51 519.93 162.75 519.18 165.02 518.51 167.32 517.88 169.62 517.25 171.95 516.64 174.22 515.88 176.51 515.09 176.51 515.09 176.51 515.09 178.67 514.35 180.81 513.63 182.95 512.92 185.06 512.24 187.18 511.56 189.27 510.91 191.36 510.27 193.44 509.72 195.53 509.16 197.58 508.64 199.64 508.13 201.68 507.65 203.71 507.2 205.73 506.77 207.74 506.34 209.71 505.92 211.68 505.46 213.61 505.01 215.53 504.55 217.44 504.14 219.35 503.75 221.24 503.43 223.14 503.12 225.01 502.86 226.88 502.58 228.72 502.32 230.54 502.03 232.34 501.76 234.13 501.48 235.89 501.24 237.65 501.01 239.39 500.82 241.14 500.64 242.85 500.5 244.57 500.37 246.26 500.28 247.96 500.19 249.62 500.15 251.29 500.1 252.92 500.1 254.56 500.1 256.17 500.13 257.77 500.17 259.35 500.24 260.92 500.31 262.47 500.42 264.01 500.52 265.53 500.67 267.04 500.82 268.52 501 269.99 501.19 271.44 501.41 272.89 501.63 274.3 501.9 275.71 502.16 277.09 502.47 278.47 502.77 279.82 503.12 281.16 503.47 282.47 503.86 283.78 504.25 285.05 504.69 286.32 505.13 287.56 505.6 288.8 506.09 289.99 506.61 291.18 507.14 292.34 507.71 293.49 508.29 294.6 508.91 295.71 509.54 296.78 510.2 297.84 510.88 298.86 511.59 299.88 512.31 300.87 513.08 301.84 513.85 302.78 514.66 303.72 515.47 304.61 516.33 305.5 517.19 306.36 518.09 307.21 519 308.02 519.95 308.83 520.91 309.6 521.9 310.36 522.9 311.09 523.94 311.82 524.98 312.51 526.07 313.19 527.15 313.84 528.28 314.49 529.41 315.1 530.58 315.7 531.75 316.28 532.96 316.84 534.17 317.38 535.42 317.91 536.67 318.4 537.96 318.9 539.25 319.36 540.58 319.82 541.91 320.24 543.28 320.66 544.65 321.05 546.05 321.43 547.46 321.79 548.9 322.14 550.34 322.46 551.82 322.77 553.3 323.06 554.82 323.34 556.33 323.59 557.88 323.84 559.43 324.06 561.02 324.28 562.6 324.46 564.22 324.65 565.84 324.8 567.5 324.95 569.15 325.07 570.84 325.2 572.53 325.29 574.25 325.38 575.97 325.43 577.72 325.49 579.48 325.52 581.26 325.52 581.26 325.52 581.26 325.55 582.89 325.57 584.52 325.6 586.14 325.63 587.77 325.65 589.4 325.68 591.02 325.7 592.65 325.73 594.28 325.75 595.9 325.78 597.53 325.81 599.16 325.83 600.79 325.86 602.41 325.88 604.04 325.91 605.67 325.93 607.29 325.96 608.92 325.99 610.55 326.01 612.17 326.04 613.8 326.06 615.43 326.09 617.05 326.11 618.68 326.14 620.31 326.17 621.94 326.19 623.56 326.22 625.19 326.24 626.82 326.27 628.44 326.29 630.07 326.32 631.7 326.34 633.33 326.37 635.05 326.45 636.64 326.53 638.22 326.66 639.68 326.79 641.13 326.97 642.45 327.15 643.77 327.38 644.95 327.85 647.32 328.51 649.16 329.18 651 330.05 652.3 330.91 653.6 332.09 654.62 333.27 655.63 334.77 656.36 336.27 657.08 338.09 657.51 339.91 657.94 341.85 658.08 341.85 658.08 341.85 658.08 341.85 660.67 341.85 663.27 341.85 665.87 341.85 668.47 341.85 671.06 341.85 673.66 341.85 676.26 341.85 678.86 341.85 681.45 341.85 684.05 341.85 686.65 341.85 689.24 341.85 691.84 341.85 694.44 341.85 697.04 341.85 699.63 341.85 702.23 341.85 704.83 341.85 707.43 341.85 710.02 341.85 712.62 341.85 715.22 341.85 717.81 341.85 720.41 341.85 723.01 341.85 725.61 341.85 728.2 341.85 730.8 341.85 733.4 341.85 736 341.85 738.59 341.85 741.19 340.9 741.5 339.82 741.73 338.77 741.9 337.78 742.03 336.8 742.13 335.85 742.21 334.9 742.27 333.97 742.31 333.05 742.35 332.13 742.36 331.23 742.38 330.33 742.37 329.43 742.36 328.55 742.34 327.67 742.31 326.79 742.27 325.92 742.22 325.08 742.16 324.23 742.1 323.4 742.03 321.75 741.87 320.18 741.67 318.62 741.46 317.13 741.14 315.82 740.78 314.63 740.51 314.63 740.51 314.63 740.51 313.69 740.3 312.78 740.13 311.87 739.95 310.88 739.73 309.83 739.42 308.81 739.09 307.78 738.77 306.78 738.41 305.79 738.06 304.89 737.7 304.05 737.35 303.23 736.98 302.42 736.61 301.62 736.21 300.81 735.81 300.01 735.37 298.3 734.49 296.65 733.49 294.98 732.49 293.41 731.4 291.85 730.31 290.39 729.12 288.94 727.94 287.6 726.67 286.27 725.4 285.02 724.04 283.78 722.68 282.61 721.23 281.45 719.79 280.36 718.25 279.27 716.71 278.26 715.08 277.24 713.46 276.29 711.74 275.34 710.02 274.47 708.21 273.59 706.4 272.79 704.49 271.98 702.59 271.25 700.59 271.25 700.59 271.25 700.59 270.5 698.48 269.75 696.38 269 694.28 268.24 692.18 267.7 693.26 267.14 694.29 266.58 695.32 266.01 696.3 265.45 697.27 264.87 698.21 264.3 699.13 263.7 700.01 263.12 700.88 262.52 701.71 261.92 702.53 261.3 703.31 260.69 704.08 260.07 704.81 259.44 705.53 258.8 706.21 258.17 706.89 257.51 707.52 256.86 708.14 256.18 708.72 255.51 709.3 254.82 709.83 254.14 710.36 253.43 710.85 252.72 711.33 251.99 711.76 251.26 712.2 250.51 712.59 249.77 712.97 249.01 713.32 248.25 713.66 247.48 713.96 246.71 714.26 245.93 714.52 245.16 714.77 244.37 714.98 243.58 715.19 242.77 715.35 241.96 715.51 241.12 715.63 240.28 715.74 239.43 715.81 238.59 715.88 237.76 715.92 236.95 715.96 236.13 715.96 235.32 715.96 234.47 715.92 233.58 715.86 232.64 715.74 231.68 715.62 230.7 715.45 229.71 715.28 228.73 715.09 227.85 714.92 226.97 714.72 226.1 714.52 225.22 714.28 224.33 714.05 223.37 713.75 222.28 713.37 221.17 712.92 220.05 712.48 218.94 712.06 218.94 712.06 218.94 712.06M218.74 668.43Q218.74 668.43 218.74 668.43 220.33 668.61 221.91 668.67 223.49 668.73 225.04 668.65 226.6 668.58 228.14 668.37 229.68 668.16 231.21 667.81 232.75 667.45 234.17 666.99 235.6 666.53 236.92 665.95 238.25 665.37 239.46 664.69 240.68 663.99 241.79 663.19 241.79 663.19 241.79 663.19 242.64 662.47 243.39 661.69 244.15 660.9 244.8 660.06 245.47 659.22 246.03 658.33 246.59 657.43 247.05 656.48 247.52 655.53 247.81 654.56 248.11 653.58 248.23 652.58 248.36 651.58 248.3 650.56 248.25 649.53 248.02 648.5 248.02 648.5 248.02 648.5 247.58 646.47 247.13 644.45 246.68 642.42 246.24 640.4 245.79 638.38 245.35 636.35 244.91 634.33 244.46 632.3 242.51 631.77 240.48 631.31 238.44 630.85 236.33 630.46 234.21 630.07 232.02 629.75 230.92 629.59 229.8 629.45 228.68 629.31 227.54 629.18 225.26 628.93 223.11 628.78 220.96 628.64 218.94 628.58 216.91 628.53 215.03 628.57 213.14 628.61 211.39 628.74 211.39 628.74 211.39 628.74 209.48 628.88 207.68 629.11 205.88 629.34 204.2 629.66 202.52 629.98 200.97 630.38 199.42 630.78 197.99 631.26 196.56 631.74 195.26 632.3 193.96 632.85 192.79 633.48 191.63 634.11 190.59 634.81 189.57 635.51 188.67 636.28 187.77 637.04 187.07 637.83 186.36 638.62 185.85 639.43 185.34 640.24 185.01 641.08 184.69 641.91 184.54 642.78 184.41 643.64 184.45 644.53 184.5 645.42 184.73 646.35 184.96 647.28 185.37 648.24 185.78 649.21 186.36 650.21 186.36 650.21 186.36 650.21 186.85 651.07 187.44 651.88 188.02 652.7 188.69 653.49 189.35 654.27 190.11 655.02 190.86 655.78 191.69 656.51 192.52 657.24 193.44 657.94 194.35 658.64 195.34 659.32 196.32 660.01 197.39 660.66 198.46 661.32 199.6 661.96 200.74 662.6 201.89 663.19 203.04 663.77 204.21 664.3 205.37 664.83 206.55 665.3 207.72 665.77 208.91 666.18 210.1 666.6 211.31 666.94 212.52 667.29 213.75 667.57 214.97 667.86 216.22 668.07 217.47 668.29 218.74 668.43 218.74 668.43 218.74 668.43M472.38 760.87Q472.38 760.87 472.38 760.87 470.65 760.79 468.93 760.76 467.21 760.71 465.51 760.65 463.82 760.49 462.14 760.3 460.45 760.1 458.79 759.87 457.12 759.63 455.47 759.35 453.82 759.07 452.19 758.76 450.56 758.44 448.95 758.08 447.35 757.72 445.79 757.33 444.28 756.94 442.84 756.51 441.42 756.08 440.01 755.61 438.55 755.14 437.08 754.63 435.58 754.12 434.09 753.56 432.59 753.01 431.1 752.41 429.61 751.82 428.13 751.18 426.66 750.55 425.2 749.88 423.74 749.2 422.31 748.5 420.87 747.79 419.46 747.05 418.06 746.31 416.68 745.54 415.31 744.78 413.97 743.99 412.63 743.19 411.31 742.37 410.01 741.56 408.73 740.71 407.45 739.87 406.21 739 404.96 738.14 403.74 737.25 402.52 736.36 401.33 735.45 400.14 734.54 398.97 733.6 397.8 732.67 396.66 731.72 395.51 730.78 394.4 729.81 393.28 728.84 392.19 727.86 391.1 726.88 390.03 725.88 388.97 724.88 387.93 723.87 386.89 722.86 385.88 721.84 384.88 720.82 383.89 719.78 382.91 718.75 381.96 717.71 381.01 716.67 380.09 715.61 379.18 714.57 378.29 713.51 377.4 712.45 376.55 711.38 375.69 710.32 374.87 709.24 374.04 708.17 373.25 707.08 372.46 705.99 371.69 704.89 370.93 703.79 370.2 702.68 369.46 701.57 368.76 700.45 368.06 699.32 367.38 698.18 366.71 697.05 366.06 695.89 365.41 694.74 364.79 693.57 364.17 692.41 363.57 691.22 362.98 690.04 362.4 688.83 361.82 687.63 361.27 686.41 360.7 685.2 360.16 683.96 359.62 682.72 359.11 681.48 358.59 680.23 358.1 678.97 357.62 677.71 357.16 676.44 356.71 675.17 356.28 673.88 355.86 672.6 355.47 671.3 355.09 670.01 354.73 668.7 354.38 667.39 354.06 666.06 353.74 664.74 353.46 663.4 353.17 662.06 352.92 660.71 352.67 659.36 352.46 658 352.25 656.63 352.07 655.25 351.89 653.87 351.75 652.48 351.6 651.08 351.5 649.67 351.39 648.26 351.32 646.84 351.25 645.42 351.21 643.98 351.18 642.54 351.18 641.08 351.18 641.08 351.18 641.08 351.18 639.68 351.21 638.28 351.24 636.88 351.31 635.5 351.37 634.11 351.47 632.74 351.57 631.37 351.7 630 351.83 628.64 352 627.29 352.16 625.94 352.36 624.59 352.56 623.25 352.79 621.92 353.02 620.59 353.29 619.27 353.55 617.95 353.85 616.63 354.14 615.32 354.47 614.02 354.8 612.72 355.17 611.43 355.53 610.14 355.93 608.85 356.32 607.57 356.75 606.3 357.18 605.03 357.64 603.76 358.11 602.5 358.6 601.25 359.1 599.99 359.63 598.75 360.16 597.5 360.71 596.28 361.27 595.05 361.85 593.84 362.43 592.63 363.04 591.44 363.64 590.25 364.28 589.07 364.91 587.9 365.57 586.74 366.23 585.58 366.92 584.44 367.61 583.3 368.32 582.18 369.03 581.05 369.77 579.94 370.51 578.84 371.28 577.75 372.04 576.65 372.84 575.58 373.63 574.5 374.45 573.45 375.26 572.39 376.11 571.35 376.95 570.3 377.82 569.28 378.7 568.25 379.59 567.24 380.49 566.23 381.42 565.23 382.34 564.24 383.29 563.26 384.24 562.28 385.22 561.32 386.19 560.36 387.19 559.42 388.18 558.48 389.2 557.56 390.22 556.63 391.26 555.73 392.31 554.83 393.37 553.95 394.43 553.06 395.52 552.2 396.61 551.34 397.72 550.49 398.83 549.65 399.96 548.82 401.09 548 402.24 547.19 403.4 546.38 404.57 545.6 405.75 544.81 406.95 544.04 408.15 543.28 409.37 542.53 410.59 541.78 411.84 541.05 413.08 540.32 414.35 539.62 415.62 538.91 416.91 538.22 418.2 537.53 419.51 536.86 420.82 536.19 422.15 535.55 423.48 534.91 424.83 534.3 426.18 533.69 427.54 533.11 428.91 532.52 430.29 531.97 431.68 531.42 433.08 530.89 434.48 530.37 435.9 529.88 437.32 529.39 438.76 528.93 440.2 528.47 441.65 528.04 443.11 527.61 444.58 527.21 446.06 526.81 447.55 526.45 449.04 526.09 450.55 525.76 452.06 525.43 453.59 525.13 455.12 524.83 456.66 524.57 458.21 524.31 459.77 524.08 461.34 523.85 462.92 523.66 464.5 523.46 466.1 523.31 466.1 523.31 466.1 523.31 467.7 523.15 469.29 523.04 470.87 522.93 472.44 522.86 474.01 522.79 475.56 522.76 477.11 522.74 478.64 522.76 480.17 522.78 481.69 522.84 483.21 522.9 484.71 523.01 486.21 523.12 487.69 523.27 489.18 523.43 490.64 523.62 492.11 523.82 493.56 524.06 495.01 524.31 496.44 524.59 497.88 524.88 499.29 525.21 500.71 525.54 502.11 525.91 503.51 526.29 504.89 526.71 506.27 527.13 507.63 527.59 509 528.05 510.35 528.56 511.69 529.07 513.02 529.62 514.35 530.17 515.64 530.75 516.94 531.34 518.19 531.96 519.44 532.59 520.65 533.25 521.87 533.91 523.04 534.61 524.22 535.31 525.35 536.04 526.49 536.78 527.59 537.55 528.68 538.32 529.74 539.12 530.8 539.93 531.82 540.77 532.84 541.61 533.82 542.49 534.8 543.37 535.74 544.28 536.68 545.19 537.58 546.14 538.49 547.08 539.35 548.07 540.22 549.05 541.04 550.06 541.87 551.08 542.65 552.13 543.44 553.18 544.19 554.26 544.94 555.35 545.65 556.47 545.65 556.47 545.65 556.47 545.67 554.53 545.68 552.6 545.7 550.66 545.72 548.72 545.73 546.78 545.75 544.83 545.77 542.89 545.79 540.94 545.81 538.99 545.83 537.04 545.85 535.09 545.86 533.13 545.88 531.17 545.9 529.21 545.92 527.25 545.94 525.28 545.96 523.31 545.99 521.34 546.01 519.37 546.03 517.39 546.05 515.41 546.07 513.43 546.09 511.44 546.12 509.45 546.14 507.46 546.16 505.46 546.18 503.46 546.21 501.45 546.23 499.44 546.25 497.43 546.27 495.41 546.3 493.39 546.32 491.36 546.34 489.33 546.37 487.29 546.39 485.25 546.41 483.2 546.44 481.15 546.46 479.1 546.48 477.03 546.5 474.97 546.53 472.9 546.55 470.82 546.57 468.74 546.59 466.65 546.61 464.55 546.64 462.46 546.66 460.35 546.68 458.24 546.7 456.13 546.72 454.01 546.73 451.89 546.75 449.76 546.77 447.63 546.79 445.49 546.81 443.35 546.82 441.21 546.84 439.06 546.85 436.92 546.87 434.76 546.88 432.61 546.9 430.45 546.91 428.3 546.92 426.17 548.45 426.16 549.97 426.15 551.49 426.14 553.01 426.12 554.53 426.11 556.06 426.11 557.58 426.11 559.1 426.11 560.62 426.11 562.15 426.11 563.67 426.11 565.19 426.11 566.71 426.11 568.24 426.11 569.76 426.11 571.28 426.11 572.8 426.11 574.32 426.11 575.85 426.11 577.37 426.11 578.89 426.11 580.41 426.11 581.94 426.11 583.46 426.11 584.98 426.11 586.5 426.11 588.03 426.11 589.55 426.11 591.07 426.11 592.59 426.11 594.11 426.16 595.63 426.31 597.14 426.46 598.65 426.62 600.17 426.77 601.68 426.93 603.19 427.08 604.71 427.11 606.23 427.11 607.76 427.11 609.28 427.11 610.8 427.11 612.32 427.11 613.85 427.14 615.36 427.22 616.88 427.3 618.4 427.38 619.91 427.46 621.43 427.54 622.95 427.62 624.47 427.7 625.99 427.77 627.5 427.85 629.02 427.92 630.54 427.99 632.06 428.07 633.57 428.16 635.09 428.3 636.6 428.43 638.12 428.56 639.63 428.7 641.15 428.83 642.66 428.97 644.18 429.01 644.13 430.86 644.07 432.71 644.01 434.55 643.93 436.4 643.86 438.24 643.77 440.08 643.69 441.91 643.6 443.73 643.51 445.55 643.41 447.36 643.31 449.17 643.22 450.98 643.12 452.78 643.02 454.58 642.92 456.37 642.81 458.17 642.71 459.96 642.61 461.75 642.51 463.54 642.41 465.32 642.3 467.11 642.2 468.89 642.1 470.67 642 472.46 641.9 474.24 641.8 476.02 641.71 477.79 641.61 479.57 641.52 481.35 641.43 483.12 641.34 484.9 641.25 486.68 641.17 488.45 641.1 490.22 641.03 492 640.96 493.77 640.91 495.54 640.85 497.31 640.81 499.09 640.76 500.86 640.73 502.63 640.69 504.4 640.66 506.17 640.64 507.94 640.62 509.71 640.59 511.48 640.58 513.25 640.56 515.02 640.54 516.78 640.53 518.55 640.52 520.32 640.5 522.09 640.49 523.85 640.48 525.62 640.47 527.39 640.46 529.15 640.46 530.92 640.45 532.69 640.44 534.45 640.43 536.22 640.43 537.99 640.42 539.75 640.41 541.52 640.41 543.28 640.4 545.05 640.4 546.81 640.39 548.58 640.39 550.34 640.38 552.11 640.38 553.87 640.37 555.63 640.37 557.4 640.36 559.16 640.36 560.93 640.36 562.69 640.35 564.46 640.35 566.22 640.35 567.98 640.34 569.75 640.34 571.51 640.34 573.27 640.33 575.04 640.33 576.8 640.33 578.56 640.32 580.33 640.32 582.09 640.32 583.85 640.32 585.62 640.31 587.38 640.31 589.14 640.31 590.91 640.31 592.67 640.3 594.43 640.3 596.2 640.3 597.96 640.3 599.72 640.29 601.49 640.29 603.25 640.29 605.01 640.29 606.78 640.29 608.54 640.28 610.3 640.28 612.07 640.28 613.83 640.28 615.59 640.28 617.36 640.27 619.12 640.27 620.88 640.27 622.65 640.27 624.41 640.27 626.17 640.27 627.94 640.26 629.7 640.26 631.47 640.26 633.23 640.26 634.99 640.26 636.76 640.26 638.52 640.25 640.29 640.25 642.05 640.25 643.82 640.25 645.58 640.25 647.35 640.25 649.11 640.25 650.88 640.24 652.64 640.24 654.41 640.24 656.18 640.24 657.64 640.3 659 640.36 660.35 640.49 661.58 640.61 662.82 640.8 663.94 640.98 665.06 641.23 666.07 641.73 668.08 642.48 669.63 643.24 671.18 644.24 672.27 645.24 673.35 646.62 674.19 647.99 675.02 649.75 675.6 651.5 676.18 653.63 676.51 655.76 676.84 658.02 676.94 658.02 676.94 658.02 676.94 658.02 679.1 658.02 681.27 658.02 683.43 658.02 685.6 658.02 687.76 658.02 689.93 658.02 692.09 658.02 694.26 658.02 696.43 658.02 698.59 658.02 700.76 658.02 702.92 658.02 705.09 658.02 707.25 658.02 709.42 658.02 711.58 658.02 713.75 658.02 715.91 658.02 718.08 658.02 720.24 658.02 722.41 658.02 724.57 658.02 726.74 658.02 728.9 658.02 731.07 658.02 733.23 658.02 735.4 658.02 737.56 658.02 739.73 658.02 741.9 658.02 744.06 658.02 746.22 656.71 746.63 655.18 747.06 653.64 747.52 652.13 747.98 650.62 748.44 649.14 748.89 647.66 749.34 646.22 749.76 644.78 750.18 643.37 750.58 641.97 750.98 640.6 751.35 639.24 751.72 637.91 752.07 636.58 752.41 635.29 752.73 632.77 753.35 630.58 753.85 628.41 754.34 626.36 754.74 624.31 755.13 622.39 755.35 620.28 755.52 618.27 755.75 618.27 755.75 618.27 755.75 616.7 755.93 615.18 756.13 613.65 756.33 612.17 756.52 610.68 756.61 609.24 756.66 607.8 756.71 606.41 756.72 605.01 756.72 603.65 756.69 602.3 756.65 600.99 756.58 599.68 756.5 598.41 756.38 597.14 756.27 595.92 756.11 593.48 755.79 591.21 755.31 588.96 754.83 586.92 754.19 584.92 753.54 583.08 752.74 581.23 751.94 579.5 750.98 577.76 750.03 576.16 748.93 574.55 747.82 573.1 746.57 571.66 745.32 570.37 743.92 569.08 742.52 567.96 740.97 566.83 739.43 565.88 737.74 564.92 736.05 564.12 734.22 563.33 732.4 562.7 730.43 562.07 728.47 561.61 726.36 561.61 726.36 561.61 726.36 561.11 724.18 560.61 722 560.12 719.82 559.63 717.65 558.77 719.08 557.87 720.46 556.97 721.84 556.04 723.18 555.1 724.52 554.13 725.81 553.15 727.11 552.14 728.36 551.13 729.61 550.08 730.82 549.03 732.02 547.94 733.18 546.85 734.35 545.72 735.46 544.59 736.57 543.42 737.64 542.26 738.71 541.05 739.73 539.85 740.75 538.6 741.72 537.36 742.69 536.08 743.61 534.79 744.53 533.47 745.4 532.15 746.27 530.8 747.09 529.44 747.91 528.05 748.68 526.65 749.45 525.22 750.17 523.79 750.89 522.33 751.55 520.86 752.22 519.38 752.84 517.91 753.45 516.42 754.03 514.94 754.6 513.44 755.13 511.94 755.66 510.44 756.14 508.93 756.62 507.41 757.06 505.88 757.49 504.35 757.88 502.81 758.27 501.27 758.62 499.72 758.96 498.16 759.26 496.61 759.56 495.03 759.81 493.46 760.06 491.88 760.27 490.29 760.47 488.69 760.64 487.09 760.8 485.48 760.91 483.87 761.02 482.25 761.1 480.62 761.16 478.98 761.19 477.34 761.14 475.69 761.04 474.04 760.93 472.38 760.87 472.38 760.87 472.38 760.87M499.88 688.11Q499.88 688.11 499.88 688.11 501.51 688.1 503.12 687.99 504.73 687.89 506.32 687.68 507.9 687.48 509.46 687.18 511.01 686.88 512.54 686.48 514.07 686.08 515.58 685.59 517.08 685.09 518.56 684.5 520.04 683.91 521.49 683.22 522.93 682.53 524.36 681.75 525.78 680.97 527.18 680.09 528.57 679.21 529.94 678.23 531.31 677.26 532.65 676.19 533.99 675.12 535.31 673.96 536.62 672.8 537.91 671.54 539.19 670.28 540.45 668.93 541.71 667.58 542.94 666.14 544.18 664.7 545.38 663.17 545.38 663.17 545.38 663.17 545.39 661.87 545.4 660.57 545.41 659.27 545.42 657.98 545.43 656.68 545.44 655.38 545.44 654.09 545.45 652.8 545.46 651.5 545.47 650.21 545.48 648.92 545.49 647.63 545.5 646.34 545.51 645.05 545.52 643.76 545.53 642.47 545.53 641.18 545.54 639.89 545.55 638.61 545.56 637.32 545.57 636.04 545.58 634.75 545.59 633.46 545.6 632.18 545.6 630.9 545.61 629.61 545.62 628.33 545.63 627.05 545.64 625.76 545.65 624.48 545.66 623.2 545.67 621.92 544.8 620.04 543.84 618.26 542.87 616.48 541.8 614.8 540.73 613.12 539.56 611.54 538.39 609.96 537.12 608.47 535.85 606.98 534.47 605.59 533.1 604.21 531.62 602.91 530.14 601.62 528.56 600.43 526.98 599.24 525.3 598.14 523.62 597.05 521.91 596.1 520.2 595.16 518.47 594.36 516.74 593.57 514.99 592.92 513.23 592.27 511.45 591.78 509.67 591.28 507.87 590.92 506.06 590.57 504.23 590.37 502.4 590.17 500.55 590.11 498.7 590.05 496.82 590.14 496.82 590.14 496.82 590.14 495.5 590.2 494.22 590.32 492.93 590.45 491.67 590.63 489.15 590.99 486.73 591.58 484.32 592.18 482.02 593 479.71 593.83 477.52 594.89 475.32 595.95 473.28 597.18 471.24 598.41 469.36 599.82 467.47 601.22 465.74 602.8 464.88 603.58 464.05 604.41 463.22 605.24 462.44 606.11 461.65 606.99 460.9 607.89 460.15 608.79 459.44 609.73 458.73 610.66 458.06 611.62 457.39 612.59 456.76 613.58 456.13 614.57 455.53 615.59 454.94 616.62 454.38 617.67 453.83 618.72 453.31 619.8 452.8 620.88 452.32 622 451.84 623.11 451.42 624.24 451 625.37 450.64 626.51 450.28 627.66 449.97 628.82 449.67 629.99 449.43 631.17 449.18 632.35 448.99 633.55 448.8 634.75 448.68 635.97 448.55 637.19 448.47 638.42 448.4 639.66 448.39 640.92 448.39 640.92 448.39 640.92 448.37 642.23 448.41 643.51 448.45 644.78 448.55 646.03 448.65 647.27 448.8 648.49 448.95 649.7 449.16 650.88 449.36 652.07 449.63 653.22 449.89 654.37 450.21 655.49 450.52 656.61 450.9 657.7 451.27 658.79 451.7 659.85 452.13 660.91 452.62 661.94 453.1 662.97 453.64 663.97 454.19 664.97 454.78 665.93 455.38 666.9 456.03 667.84 456.69 668.78 457.4 669.68 458.11 670.59 458.87 671.47 459.64 672.35 460.46 673.19 461.28 674.04 462.16 674.86 463.04 675.67 463.96 676.44 464.88 677.21 465.83 677.93 466.78 678.65 467.77 679.32 468.76 679.99 469.79 680.61 470.82 681.23 471.89 681.8 472.95 682.37 474.06 682.89 475.16 683.42 476.3 683.89 477.44 684.36 478.62 684.78 479.8 685.19 481.02 685.56 482.23 685.93 483.49 686.25 484.74 686.56 486.03 686.82 487.32 687.09 488.65 687.3 489.98 687.5 491.35 687.66 492.71 687.82 494.12 687.92 495.52 688.02 496.96 688.07 498.4 688.11 499.88 688.11 499.88 688.11 499.88 688.11M818.86 706.62Q817.06 707.36 815.26 708.07 813.45 708.79 811.65 709.51 810.03 710.14 808.49 710.74 806.95 711.33 805.34 711.95 803.53 712.63 801.71 713.3 799.91 713.98 798.33 714.56 796.79 715.12 795.24 715.68 793.57 716.28 791.76 716.92 789.94 717.57 788.14 718.2 786.59 718.73 785.05 719.26 783.5 719.79 781.77 720.37 779.95 720.98 778.12 721.58 776.37 722.16 774.82 722.66 773.28 723.16 771.73 723.66 769.94 724.22 768.11 724.8 766.28 725.37 764.45 725.94 762.61 726.49 760.78 727.05 758.97 727.6 757.41 728.05 755.86 728.51 754.31 728.97 752.57 729.46 750.74 729.99 748.9 730.51 747.14 731.01 745.58 731.44 744.02 731.87 742.47 732.3 740.67 732.78 738.84 733.27 737 733.76 735.16 734.25 733.32 734.72 731.48 735.2 729.64 735.67 727.8 736.13 725.96 736.59 724.12 737.04 722.46 737.45 720.9 737.83 719.33 738.2 717.7 738.59 715.86 739.02 714.02 739.45 712.18 739.88 710.57 740.24 708.99 740.6 709.13 739.78 709.28 738.75 709.42 737.72 709.56 736.68 709.7 735.64 709.84 734.59 709.97 733.54 710.1 732.49 710.23 731.44 710.35 730.38 710.48 729.32 710.6 728.26 710.72 727.21 710.84 726.15 710.96 725.09 711.08 724.02 711.19 722.96 711.3 721.9 711.42 720.84 711.52 719.78 711.63 718.72 711.74 717.66 711.84 716.6 711.95 715.54 712.05 714.48 712.15 713.42 712.25 712.37 712.35 711.31 712.44 710.25 712.54 709.19 712.64 708.14 712.73 707.08 712.83 706.02 712.92 704.97 713.01 703.91 713.1 702.86 713.19 701.81 713.28 700.75 713.37 699.7 713.46 698.65 713.55 697.59 713.64 696.54 713.73 695.49 713.81 694.44 713.9 693.39 713.98 692.34 714.07 691.29 714.15 690.24 714.23 689.19 714.31 688.14 714.4 687.09 714.48 686.05 714.56 685 714.64 683.95 714.72 682.91 714.79 681.86 714.87 680.81 714.95 679.77 715.02 678.72 715.1 677.68 715.17 676.63 715.24 675.59 715.32 674.54 715.39 673.5 715.46 672.46 715.53 671.41 715.6 670.37 715.67 669.33 715.74 668.29 715.81 667.24 715.87 666.2 715.94 665.16 716.01 664.12 716.07 663.08 716.14 662.04 716.2 661 716.27 659.96 716.33 658.92 716.39 657.88 716.46 656.84 716.52 655.8 716.58 654.76 716.64 653.72 716.7 652.68 716.76 651.64 716.83 650.6 716.89 649.56 716.95 648.52 717 647.49 717.06 646.45 717.12 645.41 717.18 644.37 717.24 643.33 717.3 642.3 717.36 641.26 717.41 640.22 717.47 639.18 717.53 638.15 717.58 637.11 717.64 636.07 717.7 635.03 717.75 634 717.81 632.96 717.86 631.92 717.92 630.89 717.97 629.85 718.03 628.81 718.08 627.78 718.14 626.74 718.19 625.7 718.25 624.67 718.3 623.63 718.35 622.6 718.41 621.56 718.46 620.52 718.51 619.49 718.56 618.45 718.62 617.41 718.67 616.38 718.72 615.34 718.77 614.31 718.82 613.27 718.87 612.23 718.92 611.2 718.97 610.16 719.02 609.13 719.07 608.09 719.12 607.05 716.21 607.25 713.29 607.45 710.37 607.64 707.46 607.83 704.54 608.03 701.63 608.22 698.71 608.41 695.8 608.6 692.89 608.79 689.97 608.98 687.06 609.17 684.14 609.36 681.23 609.54 678.31 609.73 675.4 609.91 672.48 610.1 672.48 608.18 672.48 606.25 672.48 604.33 672.49 602.41 672.49 600.49 672.49 598.57 672.49 596.65 672.49 594.72 672.49 592.8 672.49 590.88 672.49 588.96 672.49 587.04 672.49 585.12 672.49 583.19 672.49 581.27 672.49 579.35 672.49 577.43 672.49 575.51 672.49 573.59 672.49 571.66 672.49 569.74 672.49 567.82 672.49 565.9 672.49 563.98 672.49 562.06 672.49 560.13 672.49 558.21 672.49 556.29 672.49 554.37 672.49 552.45 672.49 550.53 672.49 548.6 675.53 548.55 678.57 548.5 681.62 548.46 684.67 548.41 687.72 548.37 690.77 548.33 693.83 548.29 696.89 548.26 699.95 548.23 703.02 548.2 706.08 548.17 709.16 548.15 712.23 548.12 715.31 548.1 718.39 548.09 721.48 548.07 721.52 546.6 721.57 545.13 721.61 543.65 721.66 542.18 721.7 540.7 721.74 539.23 721.78 537.75 721.82 536.28 721.86 534.8 721.9 533.33 721.94 531.85 721.98 530.38 722.01 528.9 722.05 527.42 722.09 525.95 722.12 524.47 722.15 523.2 722.22 521.95 722.29 520.69 722.4 519.45 722.51 518.21 722.67 516.99 722.82 515.76 723.01 514.55 723.21 513.34 723.44 512.15 723.68 510.96 723.95 509.78 724.23 508.6 724.55 507.44 724.87 506.28 725.23 505.13 725.59 503.98 725.99 502.85 726.39 501.73 726.84 500.61 727.28 499.5 727.77 498.41 728.26 497.31 728.79 496.24 729.31 495.16 729.89 494.1 730.46 493.04 731.07 492 731.68 490.96 732.34 489.94 732.99 488.92 733.69 487.91 734.39 486.91 735.12 485.93 735.85 484.95 736.62 483.99 737.38 483.03 738.18 482.1 738.97 481.17 739.8 480.26 740.63 479.36 741.5 478.48 742.36 477.6 743.26 476.74 745.05 475.03 746.97 473.42 748.9 471.81 750.95 470.3 753.01 468.79 755.19 467.38 757.37 465.98 759.69 464.68 762 463.38 764.45 462.18 766.89 460.98 769.46 459.89 772.02 458.8 774.71 457.81 777.4 456.83 780.21 455.94 783.02 455.05 785.96 454.26 788.89 453.47 791.96 452.76 795.01 452.06 798.2 451.44 801.38 450.82 804.69 450.3 807.99 449.8 811.42 449.4 814.84 449.03 818.37 448.79 821.89 448.56 825.51 448.41 829.14 448.23 832.88 448.12 834.75 448.04 836.64 447.99 838.54 447.94 840.46 447.91 842.38 447.87 844.33 447.87 846.28 447.86 848.25 447.9 850.22 447.98 852.21 448.13 854.2 448.29 856.22 448.49 858.23 448.67 860.28 448.84 862.33 448.98 864.41 449.15 866.49 449.32 868.6 449.51 870.71 449.66 872.85 449.83 872.85 449.83 872.85 449.83 876.06 450.09 879.31 450.46 882.54 450.97 885.83 451.52 889.13 452.02 892.49 452.46 895.85 452.89 899.27 453.36 902.69 453.81 906.17 454.32 909.65 454.91 913.18 455.6 916.73 456.29 920.35 456.96 923.98 457.6 927.7 458.27 931.45 458.93 935.28 459.65 939.15 460.41 943.13 461.27 947.17 462.15 951.37 463.09 955.68 464.04 960.22 465.04 962.56 465.54 964.99 466.06 967.48 466.57 970.08 467.11 972.77 467.65 975.59 468.2 978.52 468.77 981.61 469.36 984.84 469.96 988.22 470.59 991.72 471.22 995.32 471.87 998.93 472.51 1002.47 473.14 1005.83 473.73 1008.4 474.25 1008.4 474.25 1008.4 474.25 1008.12 475.69 1007.27 477.1 1006.43 478.51 1005.63 479.94 1004.85 481.37 1004.07 482.8 1003.28 484.25 1002.49 485.71 1001.7 487.18 1000.91 488.69 1000.1 490.21 999.28 491.72 998.45 493.21 997.61 494.66 996.75 496.08 995.88 497.47 995 498.86 994.1 500.25 993.19 501.65 992.27 503.06 991.33 504.5 990.38 505.96 989.41 507.44 988.43 508.92 987.44 510.41 986.43 511.9 985.41 513.39 984.38 514.87 983.33 516.34 982.27 517.81 981.2 519.28 980.11 520.74 976.2 519.99 972.14 519.28 968.07 518.56 963.86 517.87 959.66 517.18 955.32 516.52 950.99 515.86 946.53 515.23 942.1 514.6 937.93 514.07 933.79 513.54 929.91 513.11 926.04 512.68 922.44 512.35 918.85 512.02 915.53 511.8 915.53 511.8 915.53 511.8 912.99 511.63 910.61 511.54 908.24 511.45 906.03 511.44 901.63 511.43 897.87 511.74 894.12 512.06 891 512.71 887.88 513.36 885.38 514.34 882.87 515.32 880.97 516.63 879.06 517.94 877.73 519.58 877.07 520.4 876.55 521.3 876.03 522.2 875.65 523.17 875.27 524.15 875.03 525.21 874.78 526.26 874.68 527.4 874.68 527.4 874.68 527.4 874.54 528.82 874.4 530.23 874.25 531.65 874.09 533.06 873.92 534.48 873.74 535.89 873.56 537.29 873.37 538.7 873.17 540.1 872.97 541.51 872.75 542.91 872.54 544.31 872.31 545.7 872.08 547.1 871.83 548.49 871.59 549.88 874.58 549.96 877.58 550.04 880.59 550.12 883.6 550.21 886.63 550.3 889.66 550.38 892.7 550.47 895.74 550.57 898.8 550.66 901.86 550.75 904.93 550.85 908.01 550.95 911.09 551.05 914.19 551.15 917.29 551.25 920.4 551.35 923.52 551.45 926.64 551.56 929.77 551.66 932.91 551.77 936.06 551.87 939.21 551.98 942.37 552.09 945.54 552.19 948.72 552.3 951.89 552.41 955.08 552.51 958.27 552.62 961.46 552.72 964.66 552.82 967.86 552.92 971.07 553.02 970.58 554.42 970.08 555.83 969.57 557.22 969.05 558.62 968.51 560.01 967.96 561.4 967.4 562.79 966.82 564.17 966.24 565.55 965.64 566.93 965.03 568.3 964.41 569.67 963.77 571.03 963.13 572.39 962.47 573.75 961.81 575.09 961.13 576.44 960.44 577.77 959.75 579.1 959.05 580.42 958.34 581.73 957.62 583.03 956.9 584.32 956.17 585.6 955.44 586.86 954.7 588.12 953.96 589.37 953.2 590.61 952.44 591.84 951.67 593.08 950.88 594.31 950.08 595.55 947.13 595.59 944.19 595.64 941.26 595.69 938.33 595.73 935.4 595.78 932.48 595.83 929.57 595.89 926.66 595.94 923.76 596 920.87 596.06 917.98 596.12 915.1 596.19 912.22 596.26 909.35 596.33 906.49 596.41 903.63 596.49 900.78 596.57 897.94 596.66 895.11 596.75 892.28 596.85 889.45 596.94 886.64 597.04 883.83 597.15 881.02 597.26 878.23 597.37 875.44 597.48 872.65 597.6 869.88 597.72 867.11 597.84 864.34 597.96 861.58 598.09 858.83 598.22 858.55 599.05 858.26 599.88 857.98 600.7 857.69 601.52 857.4 602.35 857.11 603.17 856.82 603.99 856.52 604.81 856.23 605.63 855.93 606.45 855.63 607.27 855.33 608.09 855.03 608.91 854.73 609.73 854.42 610.54 854.12 611.36 853.81 612.17 853.5 612.99 853.19 613.8 852.88 614.61 852.57 615.43 852.25 616.24 851.94 617.05 851.62 617.86 851.3 618.67 850.98 619.48 850.66 620.29 850.34 621.1 850.02 621.91 849.7 622.72 849.37 623.52 849.05 624.33 848.72 625.14 848.39 625.95 848.06 626.75 847.73 627.56 847.4 628.36 847.07 629.17 846.74 629.97 846.4 630.78 846.07 631.58 845.73 632.39 845.39 633.19 845.06 634 844.72 634.8 844.38 635.61 844.04 636.41 843.7 637.22 843.36 638.02 843.02 638.83 842.68 639.63 842.33 640.44 841.99 641.24 841.65 642.05 841.3 642.85 840.96 643.66 840.61 644.47 840.27 645.27 839.92 646.08 839.58 646.89 839.23 647.7 838.89 648.51 838.54 649.32 838.19 650.13 837.85 650.94 837.5 651.76 837.16 652.57 836.81 653.39 836.46 654.2 836.12 655.02 835.77 655.84 835.43 656.66 835.08 657.48 834.74 658.3 834.4 659.13 834.05 659.95 833.71 660.78 833.37 661.61 833.03 662.44 832.69 663.27 832.35 664.11 832.01 664.95 831.67 665.79 831.34 666.63 831 667.47 830.67 668.32 830.34 669.17 830.01 670.02 829.68 670.88 829.35 671.73 829.02 672.59 828.7 673.46 828.38 674.32 828.06 675.19 827.74 676.07 827.42 676.94 827.1 677.82 826.79 678.71 826.48 679.59 826.17 680.49 825.87 681.38 825.57 682.28 825.26 683.18 824.97 684.09 824.67 685 824.38 685.92 824.09 686.83 823.8 687.76 823.52 688.68 823.24 689.62 822.96 690.55 822.69 691.49 822.42 692.43 822.15 693.38 821.89 694.33 821.63 695.28 821.37 696.24 821.12 697.2 820.87 698.16 820.63 699.12 820.39 700.09 820.15 701.05 819.92 702.01 819.7 702.98 819.48 703.94 819.26 704.9 819.04 705.86 818.86 706.62 818.86 706.62 818.86 706.62"></path></svg>