<svg id="warpedSvg1" xmlns="http://www.w3.org/2000/svg" data-id="1" data-media-id="WfqzYv8in86" style="visibility: visible" viewBox="-4.944999996572733 -4.699999988079071 704.8350219726562 704.5750122070312" width="709.8350219726562px" height="709.5750122070312px">
        <defs>
            <linearGradient id="sampleGradient" gradientTransform="rotate(1)" x1="0%" y1="50%" x2="100%" y2="50%" gradientUnits="userSpaceOnUse">
                <stop offset="0%" id="first_color" stop-color="#6b6fff"></stop>
                <stop offset="100%" id="second_color" stop-color="#bc91c1"></stop>
            </linearGradient>
            <filter id="contrast">
                <feComponentTransfer>
                    <feFuncR type="linear" id="filter_R" slope="1.25"></feFuncR>
                    <feFuncG type="linear" id="filter_G" slope="1.25"></feFuncG>
                    <feFuncB type="linear" id="filter_B" slope="1.25"></feFuncB>
                </feComponentTransfer>
            </filter>
        </defs>
    <path fill="#41badf" d="M113.13 348.7Q111.87 348.23 110.64 347.79 109.41 347.34 108.19 346.92 106.98 346.48 105.79 345.98 104.6 345.48 103.44 344.97 102.27 344.47 101.13 343.95 99.98 343.44 98.86 342.91 97.74 342.39 96.64 341.85 95.53 341.32 94.45 340.77 93.38 340.23 92.32 339.67 91.26 339.11 90.23 338.55 89.2 337.98 88.19 337.39 87.19 336.8 86.21 336.19 84.26 334.95 82.39 333.67 80.52 332.42 78.73 331.14 76.94 329.88 75.23 328.59 73.53 327.3 71.91 325.98 70.29 324.66 68.75 323.32 67.22 321.98 65.77 320.63 64.32 319.28 62.96 317.9 61.6 316.54 60.33 315.14 59.06 313.76 57.87 312.35 56.69 310.94 55.6 309.51 54.51 308.09 53.51 306.65 52.51 305.22 51.6 303.76 50.68 302.31 49.86 300.85 49.03 299.39 48.29 297.92 47.56 296.47 46.9 294.99 46.26 293.53 45.69 292.06 45.13 290.6 44.65 289.13 44.17 287.67 43.78 286.19 43.39 284.73 43.09 283.26 42.93 282.52 42.8 281.79 42.67 281.05 42.56 280.31 42.45 279.58 42.37 278.84 42.28 278.1 42.21 277.36 42.15 276.62 42.1 275.87 42.06 275.13 42.04 274.38 42.02 273.63 42.02 272.88 42.02 272.13 42.04 271.37 42.06 270.62 42.11 269.86 42.15 269.1 42.22 268.33 42.28 267.57 42.37 266.79 42.46 266.02 42.57 265.24 42.68 264.46 42.81 263.68 42.94 262.89 43.1 262.09 43.1 262.09 43.1 262.09 43.25 261.32 43.4 260.55 43.55 259.77 43.71 259 43.86 258.23 44.01 257.46 44.17 256.69 44.33 255.92 44.48 255.15 44.64 254.39 44.8 253.62 44.96 252.85 45.12 252.09 45.28 251.32 45.45 250.56 45.61 249.79 45.77 249.03 45.94 248.26 46.1 247.5 46.27 246.74 46.44 245.98 46.6 245.21 46.77 244.45 46.94 243.69 47.11 242.93 47.29 242.17 47.46 241.41 47.63 240.65 47.81 239.89 47.98 239.14 48.16 238.38 48.33 237.62 48.51 236.86 48.69 236.11 48.87 235.35 49.05 234.6 49.23 233.84 49.41 233.09 49.59 232.33 49.78 231.58 49.96 230.82 50.15 230.07 50.33 229.32 50.52 228.56 50.71 227.81 50.9 227.06 51.09 226.31 51.28 225.56 51.47 224.81 51.66 224.05 51.85 223.3 52.05 222.55 52.24 221.81 52.44 221.06 52.63 220.31 52.83 219.56 53.03 218.81 53.23 218.06 53.43 217.32 53.63 216.57 53.83 215.82 54.03 215.08 54.23 214.33 54.44 213.58 52.66 213.87 50.89 214.16 49.11 214.45 47.33 214.73 45.55 215 43.77 215.28 41.98 215.55 40.19 215.82 38.4 216.08 36.61 216.34 34.82 216.6 33.03 216.86 31.24 217.12 29.45 217.37 27.67 217.62 25.89 217.87 26.26 216.95 26.63 216.04 27.02 215.13 27.4 214.22 27.79 213.31 28.18 212.4 28.56 211.49 28.95 210.58 29.35 209.67 29.75 208.77 30.15 207.86 30.55 206.96 30.95 206.06 31.36 205.16 31.78 204.26 32.19 203.36 32.61 202.46 33.02 201.56 33.44 200.67 33.87 199.78 34.3 198.89 34.72 197.99 35.15 197.1 35.58 196.21 36.02 195.33 36.46 194.44 36.9 193.56 37.35 192.67 37.79 191.79 38.23 190.91 38.69 190.03 39.15 189.15 40.79 188.59 42.44 188.02 44.09 187.43 45.72 186.83 47.36 186.22 48.98 185.58 50.6 184.94 52.21 184.27 53.82 183.6 55.41 182.91 57 182.2 58.59 181.49 60.16 180.76 61.73 180.01 63.3 179.26 64.86 178.5 65.12 177.64 65.39 176.78 65.66 175.92 65.93 175.06 66.19 174.19 66.46 173.33 66.73 172.47 66.99 171.6 67.26 170.73 67.52 169.86 67.78 168.99 68.05 168.12 68.31 167.25 68.57 166.37 68.83 165.49 69.08 164.61 69.34 163.72 69.59 162.83 69.84 161.94 70.09 161.04 70.34 160.14 70.58 159.24 70.82 158.33 71.06 157.41 71.29 156.49 71.52 155.57 71.75 154.63 71.97 153.69 72.18 152.74 72.39 151.78 72.59 150.82 72.79 149.84 73.78 148.66 74.76 147.47 75.74 146.27 76.72 145.06 77.69 143.85 78.67 142.63 79.64 141.41 80.61 140.18 81.58 138.95 82.55 137.71 83.52 136.47 84.48 135.23 85.45 133.99 86.42 132.74 87.39 131.49 88.37 130.25 89.34 129 90.31 127.75 91.29 126.5 92.26 125.24 93.24 123.99 94.22 122.74 95.21 121.49 96.19 120.24 97.18 118.99 98.17 117.74 99.16 116.49 100.15 115.24 101.15 114 102.15 112.75 103.15 111.51 104.15 110.27 105.16 109.02 106.16 107.78 107.17 106.55 108.19 105.31 109.21 104.08 110.23 102.84 111.25 101.61 112.27 100.39 113.3 99.16 114.33 97.94 115.37 96.72 116.4 95.5 117.44 94.28 118.49 93.07 119.53 91.86 120.58 90.65 121.63 89.44 122.69 88.24 123.75 87.04 124.81 85.84 125.87 84.65 126.94 83.46 128.01 82.27 129.08 81.09 130.16 79.91 131.24 78.73 132.32 77.56 133.41 76.39 134.49 75.22 135.59 74.06 136.68 72.91 137.78 71.75 137.79 72.74 137.8 73.73 137.82 74.72 137.84 75.73 137.86 76.74 137.88 77.75 137.91 78.77 137.94 79.8 137.97 80.82 138 81.85 138.03 82.88 138.06 83.92 138.1 84.96 138.13 86 138.16 87.04 138.2 88.08 138.23 89.13 138.27 90.17 138.3 91.22 138.34 92.27 138.37 93.33 138.4 94.38 138.44 95.43 138.47 96.49 138.51 97.54 138.54 98.6 138.57 99.66 138.6 100.72 138.64 101.78 138.67 102.84 138.7 103.9 138.73 104.96 138.76 106.02 138.79 107.08 138.81 108.14 138.84 109.21 138.87 110.27 138.89 111.33 138.92 112.39 138.94 113.46 138.97 114.52 138.99 115.59 139.01 116.65 139.03 117.71 139.05 118.78 139.07 119.84 139.08 120.91 139.1 121.97 139.12 123.04 139.13 124.1 139.14 125.17 139.16 126.23 139.17 127.29 139.18 128.36 139.18 129.42 139.19 130.49 139.2 131.55 139.2 132.61 139.21 133.68 139.21 134.74 139.21 135.81 139.21 136.87 139.21 137.93 139.21 138.99 140.2 138.56 141.19 138.12 142.18 137.69 143.17 137.26 144.17 136.83 145.17 136.41 146.17 136 147.18 135.58 148.19 135.17 149.2 134.76 150.21 134.36 151.23 133.96 152.25 133.57 153.27 133.18 154.29 132.79 155.32 132.41 156.35 132.03 157.39 131.65 158.42 131.29 159.46 130.92 160.5 130.56 161.55 130.2 162.59 129.85 163.64 129.5 164.69 129.16 165.74 128.82 166.79 128.49 167.84 128.16 168.89 127.84 169.93 127.52 170.98 127.21 171.86 126.94 171.86 128.99 171.86 131.04 171.86 133.1 171.86 135.15 171.86 137.2 171.86 139.25 171.86 141.3 171.86 143.35 171.86 145.4 171.86 147.45 171.86 149.5 171.86 151.55 171.86 153.6 171.86 155.65 171.86 157.7 171.86 159.75 171.86 161.8 171.86 163.86 171.86 165.91 171.86 167.96 171.86 170.01 171.86 172.06 171.86 174.11 171.86 176.16 171.86 178.21 171.86 180.26 171.86 182.31 171.86 184.36 171.86 186.41 171.86 188.46 171.86 190.51 171.86 192.56 170.96 192.7 169.89 192.86 168.83 193.02 167.77 193.19 166.7 193.35 165.64 193.51 164.57 193.68 163.51 193.85 162.45 194.01 161.39 194.18 160.32 194.35 159.26 194.52 158.2 194.69 157.14 194.87 156.08 195.04 155.02 195.21 153.96 195.39 152.9 195.56 151.84 195.74 150.78 195.92 149.72 196.1 148.66 196.27 147.6 196.45 146.54 196.64 145.49 196.82 144.43 197 143.37 197.18 142.32 197.37 141.26 197.55 140.21 197.74 139.15 197.92 138.1 198.11 138.07 199.24 138.03 200.38 138 201.51 137.97 202.65 137.94 203.78 137.9 204.91 137.87 206.05 137.84 207.18 137.8 208.31 137.77 209.45 137.74 210.58 137.7 211.71 137.67 212.85 137.64 213.98 137.6 215.11 137.57 216.25 137.53 217.38 137.5 218.51 137.47 219.65 137.43 220.78 137.4 221.91 137.36 223.05 137.33 224.18 137.29 225.31 137.26 226.45 137.23 227.58 137.19 228.72 137.16 229.85 137.12 230.98 137.09 232.12 137.05 233.25 137.02 234.38 136.98 235.52 136.95 236.65 136.92 237.78 136.88 238.92 136.85 240.05 136.81 241.19 136.78 242.32 136.74 243.45 136.71 244.59 136.67 245.72 136.64 246.86 136.6 247.99 136.57 249.13 136.53 250.26 136.5 251.39 136.46 252.53 136.43 253.66 136.4 254.8 136.36 255.93 136.33 257.07 136.29 258.2 136.26 259.34 136.22 260.47 136.19 261.61 136.15 262.74 136.12 263.88 136.08 265.01 136.05 266.15 136.01 267.28 135.98 268.42 135.94 269.55 135.91 270.69 135.87 271.82 135.94 272.92 136.01 274.02 136.18 275.08 136.35 276.15 136.62 277.18 136.89 278.22 137.27 279.22 137.65 280.22 138.12 281.19 138.6 282.17 139.19 283.11 139.77 284.06 140.46 284.97 141.15 285.89 141.94 286.78 142.73 287.67 143.58 288.47 144.42 289.28 145.33 289.99 146.23 290.72 147.19 291.35 148.14 291.98 149.16 292.52 150.17 293.07 151.23 293.52 152.3 293.97 153.41 294.32 154.53 294.67 155.7 294.93 156.87 295.18 158.08 295.34 158.08 295.34 158.08 295.34 159.84 295.55 161.59 295.67 163.34 295.78 165.08 295.79 166.82 295.79 168.56 295.69 170.3 295.58 171.86 295.36 171.86 295.36 171.86 295.36 171.86 297.31 171.86 299.26 171.86 301.21 171.86 303.16 171.86 305.11 171.86 307.06 171.85 309.01 171.85 310.96 171.85 312.91 171.85 314.86 171.85 316.81 171.85 318.76 171.85 320.71 171.85 322.66 171.85 324.61 171.85 326.56 171.85 328.51 171.85 330.46 171.85 332.41 171.85 334.36 171.85 336.31 171.85 338.26 171.85 340.21 171.85 342.16 171.85 344.11 171.85 346.06 171.85 348.01 171.85 349.97 171.85 351.92 171.85 353.87 171.85 355.82 171.85 357.77 170.43 358.35 168.8 358.79 167.14 359.18 165.45 359.45 163.74 359.67 162 359.78 160.24 359.85 158.47 359.82 156.7 359.75 154.9 359.6 153.11 359.42 151.3 359.18 149.48 358.95 147.64 358.66 145.79 358.39 143.92 358.08 142.04 357.78 140.14 357.43 138.26 357.04 136.38 356.54 134.51 356.01 132.62 355.43 130.73 354.85 128.82 354.22 126.92 353.6 124.98 352.95 123.03 352.35 121.06 351.69 119.09 351.02 117.11 350.24 115.13 349.45 113.13 348.7 113.13 348.7 113.13 348.7 113.13 348.7 113.13 348.7M269.01 403.04Q268.12 402.86 267.23 402.7 266.34 402.55 265.46 402.42 264.59 402.24 263.75 401.92 262.91 401.57 262.07 401.19 261.24 400.81 260.41 400.41 259.59 400.02 258.77 399.6 257.94 399.21 257.1 398.84 256.27 398.46 255.45 398.07 254.62 397.67 253.81 397.25 252.99 396.83 252.18 396.39 251.37 395.94 250.58 395.45 249.79 394.95 249 394.44 248.22 393.92 247.44 393.38 246.66 392.84 245.89 392.28 245.13 391.71 244.37 391.12 243.61 390.52 242.86 389.91 242.1 389.29 241.36 388.66 240.61 388.03 239.87 387.38 238.39 386.1 236.93 384.76 235.46 383.43 234.03 382.01 232.6 380.58 231.2 379.05 229.81 377.5 228.45 375.88 227.09 374.25 225.75 372.54 224.42 370.83 223.11 369.05 221.8 367.28 220.52 365.44 219.24 363.6 217.99 361.71 216.74 359.83 215.53 357.9 214.31 355.98 213.13 354 211.95 352.03 210.8 350.02 209.65 348.01 208.53 345.96 207.41 343.91 206.33 341.82 205.25 339.75 204.2 337.62 203.14 335.51 202.12 333.36 201.1 331.22 200.12 329.03 199.13 326.86 198.17 324.64 197.22 322.43 196.3 320.18 195.37 317.94 194.49 315.65 193.6 313.37 192.75 311.05 191.9 308.73 191.08 306.36 190.27 304.01 189.5 301.6 188.73 299.19 188 296.74 187.27 294.29 186.59 291.8 185.91 289.32 185.28 286.8 184.65 284.29 184.07 281.73 183.49 279.18 182.95 276.59 182.42 274 181.93 271.37 181.45 268.74 181 266.07 180.56 263.4 180.17 260.68 179.77 257.97 179.42 255.21 179.07 252.46 178.76 249.66 178.45 246.86 178.19 244.01 177.93 241.16 177.71 238.27 177.49 235.38 177.32 232.44 177.14 229.5 177.01 226.51 176.88 223.52 176.79 220.48 176.75 218.96 176.72 217.43 176.69 215.9 176.66 214.36 176.64 212.81 176.63 211.26 176.62 209.7 176.62 208.13 176.62 208.13 176.62 208.13 176.62 206.58 176.63 205.05 176.64 203.51 176.66 201.98 176.68 200.46 176.71 198.94 176.75 197.43 176.79 195.93 176.87 192.93 177 189.97 177.13 187.02 177.29 184.11 177.46 181.2 177.67 178.34 177.88 175.48 178.13 172.66 178.38 169.85 178.68 167.07 178.97 164.3 179.3 161.57 179.64 158.84 180.01 156.15 180.39 153.46 180.8 150.82 181.22 148.17 181.68 145.56 182.13 142.95 182.63 140.38 183.13 137.81 183.67 135.27 184.2 132.73 184.78 130.23 185.36 127.72 185.97 125.25 186.59 122.77 187.25 120.33 187.9 117.88 188.59 115.47 189.27 113.06 189.99 110.7 190.7 108.32 191.45 105.99 192.19 103.65 192.96 101.35 193.73 99.03 194.54 96.76 195.34 94.48 196.17 92.23 197 89.97 197.86 87.75 198.71 85.52 199.6 83.32 200.48 81.11 201.4 78.94 202.31 76.76 203.26 74.62 204.2 72.46 205.18 70.35 206.15 68.23 207.15 66.15 208.16 64.07 209.2 62.03 210.24 59.98 211.31 57.99 212.38 55.99 213.49 54.05 214.59 52.1 215.74 50.21 216.88 48.32 218.05 46.51 219.22 44.69 220.43 42.95 221.63 41.21 222.86 39.55 224.09 37.89 225.36 36.32 226.62 34.74 227.92 33.25 229.21 31.77 230.54 30.36 231.87 28.96 233.22 27.65 234.58 26.34 235.97 25.12 237.37 23.91 238.79 22.78 240.22 21.66 241.67 20.62 243.13 19.6 244.62 18.66 246.11 17.73 247.63 16.88 248.39 16.47 249.16 16.08 249.93 15.68 250.7 15.31 251.48 14.94 252.26 14.59 253.05 14.25 253.84 13.93 254.64 13.62 255.44 13.32 256.24 13.03 257.05 12.75 257.86 12.48 258.68 12.24 259.5 12 260.32 11.78 260.32 11.78 260.32 11.78 261.86 11.38 263.37 11.07 264.89 10.79 266.39 10.6 267.89 10.41 269.38 10.33 270.86 10.26 272.32 10.28 273.79 10.31 275.24 10.45 276.68 10.59 278.11 10.84 279.54 11.09 280.95 11.45 282.36 11.81 283.75 12.27 285.14 12.74 286.51 13.31 287.89 13.89 289.24 14.58 290.59 15.26 291.93 16.06 293.26 16.85 294.58 17.75 295.89 18.66 297.19 19.67 298.49 20.68 299.76 21.8 301.04 22.92 302.3 24.14 303.56 25.37 304.79 26.7 306.03 28.04 307.24 29.46 308.45 30.89 309.63 32.41 310.81 33.93 311.96 35.53 313.11 37.14 314.23 38.84 315.36 40.54 316.45 42.32 317.54 44.11 318.6 45.98 319.67 47.85 320.7 49.81 321.74 51.76 322.75 53.81 323.75 55.85 324.73 57.98 325.71 60.11 326.66 62.32 327.61 64.53 328.53 66.82 329.45 69.12 330.34 71.5 331.22 73.87 332.08 76.33 332.93 78.8 333.76 81.34 334.57 83.88 335.36 86.5 336.13 89.13 336.87 91.83 337.61 94.54 338.29 97.31 338.97 100.07 339.6 102.9 340.22 105.73 340.8 108.61 341.36 111.5 341.89 114.45 342.41 117.39 342.88 120.4 343.35 123.4 343.78 126.47 344.2 129.53 344.59 132.66 344.97 135.78 345.3 138.97 345.64 142.15 345.94 145.39 346.23 148.63 346.48 151.93 346.73 155.23 346.94 158.59 347.15 161.95 347.32 165.36 347.48 168.78 347.61 172.25 347.73 175.72 347.81 179.25 347.9 182.79 347.86 186.37 347.82 189.96 347.82 193.61 347.82 193.61 347.82 193.61 347.82 196.1 347.86 198.57 347.9 201.04 347.82 203.49 347.74 205.93 347.62 208.36 347.5 210.78 347.34 213.18 347.18 215.57 346.98 217.94 346.78 220.32 346.54 222.67 346.3 225.01 346.02 227.34 345.74 229.66 345.42 231.96 345.42 231.96 345.42 231.96 343.91 231.94 342.39 231.92 340.87 231.9 339.35 231.89 337.84 231.87 336.32 231.85 334.8 231.82 333.29 231.8 331.77 231.78 330.26 231.75 328.74 231.73 327.23 231.7 325.71 231.68 324.2 231.65 322.68 231.62 321.17 231.6 319.66 231.57 318.15 231.54 316.64 231.51 315.13 231.48 313.62 231.44 312.11 231.41 310.6 231.38 309.09 231.35 307.59 231.31 306.08 231.28 304.58 231.24 303.07 231.21 301.57 231.17 300.07 231.13 298.56 231.1 297.06 231.06 295.56 231.02 294.06 230.98 292.57 230.94 291.07 230.9 289.57 230.86 288.07 230.83 286.58 230.79 285.08 230.74 283.59 230.7 282.1 230.66 280.61 230.62 279.12 230.58 277.62 230.54 276.13 230.5 274.65 230.46 273.16 230.42 271.67 230.37 270.18 230.33 268.7 230.29 267.21 230.25 265.73 230.21 264.24 230.16 262.76 230.12 261.28 230.08 259.8 230.04 258.32 230 256.84 229.95 255.36 229.91 253.88 229.87 252.4 229.83 250.92 229.79 249.44 229.75 249.46 231.73 249.51 233.67 249.57 235.6 249.66 237.49 249.76 239.38 249.9 241.22 250.03 243.07 250.21 244.86 250.39 246.66 250.61 248.41 250.83 250.17 251.09 251.88 251.35 253.59 251.66 255.25 251.96 256.92 252.3 258.54 252.65 260.16 253.03 261.74 253.42 263.32 253.85 264.86 254.27 266.4 254.74 267.9 255.21 269.4 255.72 270.85 256.23 272.31 256.78 273.72 257.33 275.14 257.93 276.51 258.52 277.89 259.16 279.22 259.79 280.55 260.47 281.84 261.14 283.14 261.84 284.36 262.53 285.58 263.24 286.74 263.95 287.89 264.68 288.97 265.41 290.06 266.16 291.07 266.9 292.08 267.67 293.03 268.43 293.97 269.21 294.84 269.99 295.71 270.79 296.51 271.59 297.3 272.41 298.03 273.23 298.75 274.06 299.4 274.9 300.05 275.75 300.63 276.6 301.2 277.47 301.7 278.34 302.2 279.23 302.63 280.12 303.05 281.03 303.4 281.93 303.75 282.86 304.02 283.78 304.29 284.72 304.49 285.67 304.68 286.63 304.79 286.63 304.79 286.63 304.79 288.08 304.97 289.57 304.99 291.06 305.01 292.59 304.88 294.11 304.75 295.68 304.47 296.46 304.33 297.25 304.15 298.04 303.96 298.85 303.74 299.65 303.52 300.46 303.26 301.27 303 302.09 302.7 302.91 302.4 303.74 302.06 304.57 301.72 305.41 301.34 306.25 300.96 307.1 300.54 307.95 300.12 308.81 299.66 309.67 299.2 310.54 298.69 311.41 298.19 312.28 297.65 313.16 297.1 314.04 296.52 314.92 295.93 315.8 295.29 316.68 294.66 317.56 293.98 318.44 293.3 319.33 292.58 320.21 291.85 321.09 291.08 321.98 290.31 322.86 289.5 323.74 288.68 324.63 287.82 325.51 286.96 326.4 286.06 327.29 285.15 328.18 284.2 329.06 283.25 329.95 282.25 330.84 281.25 331.73 280.21 332.62 279.17 333.51 278.08 334.4 276.99 335.29 275.86 336.18 274.73 337.08 273.55 337.97 272.37 338.86 271.15 339.76 269.92 340.65 268.65 340.65 268.65 340.65 268.65 341.93 269.84 343.2 271.02 343.2 274.15 343.2 277.29 343.2 280.43 343.2 283.57 343.21 286.7 343.21 289.84 343.21 292.98 343.21 296.12 343.21 299.26 343.21 302.39 343.21 305.53 343.21 308.67 343.21 311.81 343.21 314.95 343.21 318.09 343.21 321.22 343.21 324.36 343.21 327.5 343.21 330.64 343.21 333.78 343.21 336.92 343.21 340.06 343.21 343.2 343.21 346.34 343.21 349.48 343.21 352.62 343.21 355.76 343.21 358.9 343.21 362.04 343.21 365.18 343.21 368.32 343.21 371.46 342.22 372.8 341.22 374.09 340.23 375.38 339.23 376.61 338.22 377.85 337.22 379.04 336.22 380.22 335.21 381.35 334.2 382.48 333.19 383.56 332.18 384.64 331.16 385.67 330.15 386.69 329.13 387.66 328.11 388.63 327.09 389.55 326.07 390.46 325.05 391.33 324.02 392.19 323 393.01 321.97 393.82 320.94 394.58 319.91 395.34 318.87 396.06 317.84 396.77 316.8 397.43 315.77 398.1 314.72 398.72 313.68 399.33 312.64 399.91 311.59 400.48 310.55 401.01 309.5 401.53 308.42 402.01 307.34 402.48 306.23 402.9 305.12 403.31 303.98 403.65 302.84 403.98 301.67 404.26 300.5 404.53 299.29 404.75 298.09 404.95 296.86 405.1 295.63 405.25 294.37 405.35 293.11 405.44 291.81 405.5 290.52 405.56 289.18 405.58 287.85 405.6 286.49 405.57 285.13 405.53 283.74 405.43 282.35 405.33 280.93 405.18 279.51 405.02 278.05 404.83 276.6 404.66 275.11 404.43 273.62 404.05 272.09 403.69 270.57 403.35 269.01 403.04 269.01 403.04 269.01 403.04 269.01 403.04 269.01 403.04M248.91 170.28Q250.13 170.18 251.34 170.08 252.55 169.98 253.76 169.88 254.98 169.79 256.19 169.69 257.41 169.59 258.63 169.5 259.84 169.41 261.06 169.32 262.28 169.23 263.5 169.14 264.72 169.05 265.94 168.96 267.16 168.88 268.38 168.79 269.6 168.71 270.83 168.63 272.05 168.55 273.28 168.47 274.5 168.39 275.73 168.31 276.95 168.24 278.18 168.16 279.41 168.09 280.64 168.02 281.87 167.95 283.1 167.88 284.33 167.81 285.56 167.75 286.8 167.68 288.03 167.62 287.99 163.93 287.95 160.25 287.91 157.02 287.79 153.91 287.68 150.8 287.48 147.81 287.28 144.83 287.01 141.96 286.73 139.09 286.37 136.35 286.02 133.6 285.58 130.99 285.15 128.37 284.63 125.87 284.12 123.38 283.53 121.01 282.93 118.65 282.26 116.41 281.59 114.18 280.85 112.24 280.11 110.31 279.3 108.68 278.49 107.05 277.62 105.73 276.74 104.41 275.8 103.38 274.85 102.37 273.84 101.65 272.83 100.94 271.75 100.53 270.67 100.13 269.53 100.02 268.38 99.92 267.17 100.12 267.17 100.12 267.17 100.12 266.16 100.29 265.19 100.74 264.22 101.2 263.29 101.94 262.37 102.68 261.49 103.7 260.61 104.72 259.78 106.02 258.95 107.32 258.16 108.9 257.37 110.47 256.63 112.32 255.88 114.16 255.18 116.28 254.48 118.4 253.82 120.78 253.16 123.16 252.59 125.57 252.01 127.97 251.53 130.4 251.04 132.83 250.64 135.28 250.24 137.74 249.93 140.22 249.62 142.7 249.39 145.21 249.16 147.72 249.02 150.26 248.88 152.8 248.82 155.37 248.77 157.95 248.8 160.56 248.8 160.56 248.8 160.56 248.83 162.99 248.86 165.42 248.89 167.85 248.91 170.28 248.91 170.28 248.91 170.28M397.92 416.82Q396.57 416.82 395.23 416.82 393.89 416.82 392.54 416.82 391.2 416.82 389.85 416.82 388.51 416.82 387.17 416.82 385.82 416.82 384.48 416.82 383.13 416.82 381.79 416.82 380.45 416.82 379.1 416.82 377.76 416.82 376.41 416.82 375.07 416.82 373.73 416.82 372.38 416.82 371.04 416.82 369.69 416.82 368.35 416.8 367.01 416.76 365.67 416.72 364.33 416.67 362.99 416.63 361.65 416.57 360.32 416.42 359 416.27 357.67 416.13 356.34 415.98 355.05 415.88 355.03 412.53 355.05 408.87 355.08 405.22 355.1 401.57 355.12 397.91 355.15 394.26 355.17 390.61 355.2 386.95 355.22 383.3 355.24 379.64 355.27 375.99 355.29 372.34 355.31 368.68 355.34 365.03 355.36 361.38 355.39 357.72 355.41 354.07 355.43 350.42 355.46 346.76 355.48 343.11 355.51 339.46 355.53 335.8 355.55 332.15 355.55 328.49 355.55 324.84 355.55 321.19 355.55 317.53 355.55 313.88 355.55 310.23 355.55 306.57 355.55 302.92 355.55 299.27 356.89 299.37 358.22 299.47 359.56 299.57 360.89 299.67 362.23 299.77 363.56 299.86 364.89 299.95 366.23 300.05 367.56 300.14 368.9 300.22 370.24 300.31 371.57 300.4 372.91 300.48 374.24 300.56 375.58 300.64 376.92 300.72 377.73 298.22 378.54 295.72 379.35 293.22 380.16 290.71 380.97 288.22 381.78 285.72 382.59 283.22 383.4 280.72 384.22 278.23 385.03 275.73 385.84 273.24 386.65 270.75 387.46 268.26 388.27 265.77 389.08 263.28 389.89 260.8 390.7 258.31 391.51 255.83 392.32 253.35 393.14 250.87 393.95 248.39 394.76 245.91 395.57 243.44 396.38 240.96 397.19 238.49 398 236.02 398.81 233.55 399.62 231.09 400.43 228.63 401.25 226.16 402.06 223.7 402.87 221.25 402.05 218.18 401.24 215.12 400.42 212.05 399.61 208.98 398.8 205.91 397.98 202.84 397.17 199.76 396.35 196.68 395.54 193.6 394.72 190.51 393.91 187.42 393.09 184.34 392.28 181.24 391.47 178.15 390.65 175.06 389.84 171.96 389.02 168.86 388.21 165.76 387.39 162.66 386.58 159.56 385.76 156.45 384.95 153.35 384.13 150.24 383.31 147.13 382.5 144.03 381.68 140.92 380.87 137.81 380.05 134.7 379.23 131.58 378.42 128.47 377.6 125.36 376.78 122.25 375.62 122.13 374.46 122.02 373.3 121.91 372.14 121.8 370.97 121.69 369.81 121.59 368.65 121.48 367.49 121.37 366.33 121.27 365.17 121.16 364.01 121.06 362.85 120.96 361.68 120.85 360.52 120.75 359.36 120.65 358.2 120.55 358.2 116.8 358.2 113.04 358.2 109.29 358.2 105.53 358.2 101.78 358.2 98.03 358.21 94.27 358.21 90.52 358.21 86.77 358.21 83.01 358.21 79.26 358.21 75.5 358.21 71.75 358.21 68 358.21 64.24 358.21 60.49 358.21 56.73 358.21 52.98 358.21 49.22 358.21 45.46 358.21 41.71 358.21 37.95 358.22 34.2 358.22 30.44 358.22 26.68 358.22 22.92 358.22 19.16 358.22 15.4 358.22 11.64 358.23 7.87 358.23 4.09 358.25 0.3 359.38 0.33 360.51 0.35 361.64 0.39 362.77 0.43 363.91 0.48 365.04 0.52 366.17 0.57 367.3 0.62 368.43 0.68 369.56 0.74 370.7 0.81 371.83 0.87 372.96 0.94 374.09 1.02 375.22 1.1 376.35 1.18 377.48 1.26 378.6 1.36 379.73 1.45 380.86 1.55 381.99 1.64 383.12 1.74 384.25 1.86 385.37 1.97 386.5 2.09 387.63 2.2 388.75 2.32 389.88 2.45 391 2.58 392.13 2.71 393.25 2.85 394.38 2.99 395.5 3.14 396.62 3.28 397.75 3.43 398.87 3.58 399.99 3.74 401.11 3.91 402.23 4.08 403.35 4.24 404.47 4.41 405.59 4.59 406.71 4.78 407.83 4.96 408.94 5.15 410.06 5.33 411.18 5.53 412.29 5.73 413.4 5.93 414.52 6.14 415.63 6.34 416.75 6.56 417.86 6.78 418.97 7 420.08 7.22 421.19 7.44 422.3 7.68 423.4 7.92 424.51 8.15 425.62 8.39 426.73 8.63 427.83 8.89 428.93 9.14 430.04 9.4 430.74 12.59 431.44 15.79 432.14 19 432.84 22.21 433.54 25.43 434.24 28.64 434.94 31.86 435.63 35.07 436.33 38.29 437.03 41.5 437.72 44.71 438.42 47.92 439.12 51.12 439.81 54.33 440.51 57.53 441.21 60.72 441.91 63.91 442.61 67.1 443.31 70.28 444.01 73.46 444.71 76.63 445.41 79.8 446.12 82.96 446.82 86.12 447.52 89.27 448.23 92.41 448.94 95.55 449.64 98.69 450.35 101.81 451.06 104.93 451.77 108.05 452.48 111.16 453.3 108.41 454.12 105.66 454.94 102.92 455.76 100.17 456.57 97.44 457.39 94.7 458.21 91.97 459.02 89.24 459.83 86.51 460.65 83.78 461.46 81.06 462.27 78.34 463.08 75.62 463.9 72.91 464.71 70.19 465.51 67.48 466.32 64.78 467.13 62.07 467.94 59.37 468.74 56.67 469.55 53.97 470.35 51.27 471.15 48.58 471.96 45.88 472.76 43.19 473.56 40.51 474.36 37.82 475.15 35.14 475.95 32.47 476.74 29.8 477.53 27.13 478.32 24.47 479.49 24.93 480.65 25.4 481.81 25.87 482.98 26.34 484.14 26.82 485.29 27.31 486.45 27.8 487.6 28.29 488.76 28.78 489.91 29.28 491.05 29.79 492.2 30.3 493.35 30.8 494.49 31.32 495.63 31.84 496.77 32.37 497.91 32.89 499.05 33.42 500.18 33.96 501.31 34.51 502.44 35.05 503.57 35.6 504.69 36.15 505.82 36.71 506.94 37.27 508.06 37.83 509.18 38.4 510.29 38.98 511.41 39.56 512.52 40.14 513.63 40.72 514.74 41.31 514.8 44.87 514.91 48.35 515.04 51.77 515.19 55.16 515.35 58.53 515.52 61.88 515.7 65.22 515.88 68.56 516.06 71.89 516.24 75.22 516.42 78.54 516.6 81.86 516.79 85.18 516.97 88.5 517.15 91.82 517.33 95.14 517.51 98.45 517.69 101.77 517.86 105.08 518.01 108.4 518.16 111.71 518.27 115.02 518.36 118.34 518.42 121.65 518.47 124.96 518.5 128.27 518.52 131.58 518.54 134.89 518.55 138.21 518.57 141.52 518.58 144.83 518.59 148.14 517.37 147.91 516.16 147.68 514.94 147.44 513.72 147.2 512.51 146.96 511.29 146.71 510.08 146.46 508.87 146.21 507.66 145.96 506.46 145.7 505.25 145.44 504.05 145.18 502.85 144.91 501.65 144.65 500.46 144.38 499.26 144.11 498.55 145.94 497.83 147.78 497.12 149.62 496.4 151.46 495.68 153.3 494.97 155.15 494.25 157 493.53 158.86 492.82 160.71 492.1 162.57 491.38 164.44 490.67 166.3 489.95 168.17 489.23 170.05 488.51 171.92 487.8 173.8 487.08 175.68 486.36 177.57 485.64 179.46 484.92 181.35 484.2 183.25 483.48 185.15 482.76 187.05 482.04 188.96 481.32 190.87 480.6 192.78 479.88 194.69 479.16 196.61 478.44 198.54 477.72 200.46 477 202.39 476.28 204.33 476.72 205.95 477.15 207.57 477.59 209.18 478.03 210.8 478.46 212.41 478.9 214.02 479.34 215.63 479.77 217.24 480.21 218.85 480.65 220.45 481.08 222.05 481.52 223.66 481.96 225.26 482.39 226.85 482.83 228.45 483.27 230.04 483.71 231.64 484.14 233.23 484.58 234.82 485.02 236.4 485.45 237.99 485.89 239.58 486.32 241.16 486.76 242.74 487.2 244.32 487.63 245.9 488.07 247.48 488.51 249.05 488.94 250.63 489.38 252.2 489.82 253.77 490.25 255.34 490.69 256.91 491.13 258.48 491.56 260.04 492 261.61 492.43 263.17 492.87 264.73 493.31 266.29 493.74 267.85 494.18 269.41 494.61 270.97 495.05 272.52 495.49 274.08 495.92 275.63 496.36 277.18 496.79 278.73 497.23 280.28 497.66 281.83 498.1 283.38 498.54 284.92 498.97 286.47 499.41 288.01 499.84 289.56 500.28 291.1 500.71 292.64 501.15 294.18 501.58 295.71 502.02 297.25 502.45 298.79 502.89 300.32 503.32 301.86 503.76 303.39 504.19 304.92 505.38 304.99 506.56 305.05 507.74 305.12 508.92 305.19 510.11 305.27 511.29 305.34 512.47 305.42 513.65 305.5 514.84 305.59 516.02 305.68 517.2 305.77 518.39 305.86 519.57 305.96 520.75 306.06 521.94 306.16 522.97 306.25 522.97 309.46 522.97 312.68 522.97 315.89 522.97 319.1 522.97 322.31 522.97 325.52 522.97 328.74 522.97 331.95 522.97 335.16 522.97 338.37 522.97 341.58 522.97 344.8 522.97 348.01 522.97 351.22 522.97 354.43 522.97 357.64 522.97 360.85 522.97 364.07 522.97 367.28 522.97 370.49 522.97 373.7 522.97 376.91 522.97 380.12 522.97 383.34 522.97 386.55 522.97 389.76 522.97 392.97 522.97 396.18 522.97 399.39 522.98 402.6 522.98 405.81 522.88 408.45 522.05 408.84 520.99 408.97 519.93 409.1 518.87 409.23 517.81 409.36 516.74 409.49 515.68 409.58 514.61 409.62 513.54 409.66 512.48 409.7 511.41 409.74 510.34 409.78 509.27 409.82 508.2 409.89 507.14 409.96 506.07 410.04 505.01 410.11 503.94 410.19 502.87 410.26 501.81 410.35 500.75 410.49 499.69 410.63 498.63 410.77 497.56 410.92 496.5 411.06 495.44 411.2 494.38 411.3 493.31 411.39 492.25 411.48 491.19 411.57 490.12 411.66 489.06 411.75 487.99 411.83 486.92 411.87 485.86 411.91 484.79 411.96 483.72 412 482.65 412.04 481.59 412.08 480.52 412.16 479.46 412.27 478.4 412.38 477.33 412.49 476.27 412.6 475.21 412.71 474.14 412.82 473.08 412.87 472.01 412.91 470.94 412.95 469.87 412.99 468.81 413.03 467.74 413.07 466.67 413.14 465.61 413.25 464.55 413.36 463.48 413.47 462.42 413.58 461.36 413.69 460.3 413.8 459.23 413.86 458.16 413.9 457.09 413.94 456.03 413.98 454.96 414.02 454.53 412.78 454.11 411.21 453.68 409.64 453.26 408.08 452.84 406.51 452.41 404.95 451.99 403.38 451.56 401.82 451.14 400.24 450.72 398.67 450.29 397.1 449.87 395.52 449.44 393.94 449.02 392.36 448.59 390.78 448.17 389.2 447.74 387.62 447.32 386.03 446.9 384.45 446.47 382.86 446.05 381.27 445.62 379.68 445.2 378.09 444.77 376.5 444.35 374.9 443.92 373.31 443.5 371.71 443.07 370.12 442.65 368.52 442.22 366.92 441.8 365.32 441.38 363.72 440.95 362.12 440.53 360.52 440.1 358.92 439.68 357.31 439.25 355.71 438.83 354.1 438.41 352.49 437.98 350.89 437.56 349.28 437.13 347.67 436.71 346.06 436.28 344.45 435.86 342.83 435.44 341.22 435.01 339.6 434.59 337.99 434.16 336.37 433.74 334.76 433.32 333.14 432.89 331.52 432.47 329.9 432.05 328.28 431.62 326.65 431.2 325.03 430.78 323.4 430.35 321.78 429.93 320.15 429.51 318.52 429.08 316.9 428.66 315.27 428.24 313.64 427.81 312 427.35 313.62 426.88 315.24 426.42 316.85 425.95 318.47 425.48 320.09 425.02 321.72 424.55 323.34 424.09 324.96 423.62 326.59 423.15 328.21 422.69 329.84 422.22 331.47 421.76 333.1 421.29 334.73 420.82 336.36 420.36 337.99 419.89 339.63 419.43 341.26 418.96 342.9 418.49 344.53 418.03 346.17 417.56 347.81 417.09 349.45 416.63 351.09 416.16 352.73 415.69 354.37 415.23 356.01 414.76 357.66 414.29 359.3 413.83 360.95 413.36 362.6 412.89 364.24 412.42 365.89 411.96 367.54 411.49 369.19 411.02 370.84 410.56 372.5 410.09 374.15 409.62 375.8 409.15 377.46 408.69 379.12 408.22 380.77 407.75 382.43 407.29 384.09 406.82 385.75 406.35 387.41 405.88 389.07 405.42 390.73 404.95 392.39 404.48 394.05 404.01 395.71 403.55 397.37 403.08 399.03 402.61 400.68 402.14 402.34 401.67 403.99 401.2 405.65 400.73 407.3 400.27 408.95 399.8 410.59 399.33 412.24 398.86 413.88 398.39 415.53 397.92 416.82 397.92 416.82 397.92 416.82M631.07 399.53Q629.94 399.63 628.83 399.75 627.72 399.87 626.62 400.01 625.53 400.11 624.47 400.16 623.4 400.2 622.35 400.22 621.31 400.24 620.28 400.22 619.25 400.19 618.24 400.14 617.23 400.09 616.24 400.03 615.25 399.95 614.28 399.85 613.31 399.72 612.36 399.55 611.41 399.39 610.47 399.21 609.54 399.03 608.62 398.84 607.71 398.66 606.81 398.48 605.03 398.15 603.32 397.76 601.61 397.37 599.98 396.9 598.34 396.44 596.78 395.89 595.22 395.35 593.74 394.71 592.26 394.07 590.85 393.34 589.44 392.61 588.1 391.79 586.77 390.96 585.51 390.03 584.24 389.11 583.06 388.08 581.87 387.05 580.76 385.92 579.64 384.79 578.6 383.55 577.56 382.31 576.59 380.96 575.62 379.6 574.72 378.13 573.82 376.66 572.99 375.07 572.16 373.48 571.4 371.77 570.64 370.06 569.95 368.24 569.26 366.4 568.63 364.46 568.01 362.51 567.46 360.45 566.9 358.38 566.42 356.21 565.93 354.03 565.52 351.74 565.31 350.6 565.12 349.43 564.92 348.26 564.75 347.06 564.57 345.86 564.41 344.64 564.25 343.42 564.11 342.17 563.97 340.92 563.84 339.65 563.71 338.38 563.6 337.08 563.49 335.78 563.4 334.46 563.3 333.14 563.22 331.79 563.14 330.45 563.08 329.08 563.01 327.71 562.97 326.32 562.92 324.93 562.89 323.52 562.85 322.1 562.84 320.67 562.82 319.24 562.82 317.78 562.82 316.32 562.84 314.85 562.84 314.85 562.84 314.85 562.85 313.41 562.87 311.97 562.88 310.53 562.89 309.09 562.9 307.65 562.92 306.22 562.93 304.78 562.94 303.34 562.95 301.9 562.95 300.46 562.96 299.02 562.97 297.58 562.98 296.14 562.98 294.7 562.99 293.26 562.99 291.82 563 290.38 563 288.94 563.01 287.5 563.01 286.06 563.01 284.62 563.02 283.18 563.02 281.74 563.02 280.3 563.02 278.86 563.02 277.42 563.02 275.98 563.02 274.54 563.02 273.1 563.02 271.66 563.02 270.22 563.02 268.78 563.02 267.34 563.02 265.9 563.02 264.46 563.01 263.02 563.01 261.58 563.01 260.14 563.01 258.7 563 257.26 563 255.82 563 254.38 562.99 252.94 562.99 251.49 562.98 250.05 562.98 248.61 562.97 247.17 562.97 245.73 562.96 244.29 562.96 242.85 562.95 241.41 562.95 239.96 562.94 238.52 562.93 237.08 562.93 235.64 562.92 234.2 562.92 232.75 562.91 231.31 562.9 229.87 562.9 228.43 562.89 226.98 562.88 225.54 562.88 224.1 562.87 222.65 561 221.78 559.13 220.91 557.26 220.04 555.39 219.17 553.52 218.31 551.65 217.44 549.78 216.59 547.91 215.73 546.05 214.88 544.18 214.02 542.31 213.18 540.44 212.33 538.57 211.49 536.71 210.65 534.84 209.81 532.97 208.97 532.97 206.69 532.97 204.4 532.97 202.11 532.97 199.82 532.97 197.53 532.97 195.24 532.97 192.95 532.97 190.66 532.97 188.37 532.97 186.08 532.97 183.79 532.97 181.51 532.97 179.22 532.97 176.93 532.97 174.64 532.97 172.35 532.97 170.06 532.97 167.77 532.97 165.48 532.97 163.19 532.97 160.9 532.97 158.61 532.97 156.32 532.97 154.04 532.97 151.75 532.97 149.46 532.97 147.17 532.97 144.88 532.97 142.59 532.97 140.3 532.97 138.01 532.97 135.72 534.83 136.77 536.69 137.84 538.56 138.91 540.42 140 542.27 141.09 544.13 142.2 545.99 143.32 547.85 144.45 549.7 145.6 551.56 146.75 553.41 147.91 555.26 149.09 557.11 150.27 558.96 151.47 560.81 152.67 562.65 153.89 562.66 152.19 562.66 150.5 562.67 148.8 562.68 147.11 562.69 145.41 562.69 143.71 562.71 142.01 562.72 140.31 562.73 138.61 562.75 136.91 562.76 135.2 562.78 133.5 562.8 131.79 562.82 130.09 562.84 128.38 562.87 126.67 562.89 124.96 562.92 123.25 562.95 121.54 562.99 119.83 563.02 118.12 563.06 116.41 563.1 114.69 563.14 112.98 563.19 111.26 563.24 109.55 563.29 107.83 563.35 106.11 563.41 104.39 563.47 102.68 563.54 100.96 563.61 99.24 565.05 99.92 566.48 100.61 567.91 101.32 569.34 102.03 570.76 102.75 572.18 103.48 573.6 104.21 575.01 104.96 576.42 105.72 577.82 106.48 579.22 107.26 580.61 108.04 582 108.83 583.39 109.63 584.76 110.44 586.14 111.25 587.51 112.08 588.87 112.91 590.23 113.76 591.58 114.61 592.92 115.47 594.26 116.33 595.59 117.21 596.92 118.09 598.24 118.99 599.55 119.89 600.86 120.8 602.16 121.72 603.46 122.64 604.74 123.58 606.02 124.52 607.3 125.47 608.56 126.43 609.82 127.39 611.07 128.37 612.32 129.35 613.55 130.34 614.78 131.34 616.01 132.35 617.22 133.36 618.43 134.39 619.63 135.42 620.82 136.46 622 137.5 623.18 138.56 624.35 139.62 625.51 140.69 626.66 141.77 627.8 142.85 628.94 143.95 630.06 145.05 631.18 146.15 632.29 147.27 633.39 148.39 634.48 149.52 635.57 150.66 636.64 151.8 637.71 152.95 638.77 154.11 639.81 155.28 640.85 156.45 641.88 157.63 642.91 158.82 643.91 160.01 643.88 161.09 643.84 162.16 643.8 163.23 643.77 164.3 643.73 165.36 643.7 166.41 643.67 167.46 643.64 168.51 643.62 169.55 643.61 170.58 643.6 171.6 643.59 172.62 643.59 173.63 643.6 174.64 643.61 175.64 643.63 176.63 643.65 177.61 643.68 178.59 643.71 179.57 643.75 180.53 643.8 181.5 643.84 182.45 643.9 183.4 643.95 184.35 644.02 185.29 644.08 186.23 644.15 187.16 644.22 188.08 644.3 189 644.38 189.92 644.47 190.84 644.55 191.75 644.64 192.65 644.74 193.56 644.83 194.46 644.93 195.35 645.03 196.25 645.13 197.14 645.24 198.03 645.35 198.91 645.46 199.79 645.57 200.67 645.68 201.55 645.79 202.43 645.91 203.3 646.03 204.17 646.14 205.04 646.26 205.91 646.38 206.78 646.51 207.64 646.63 208.51 646.75 209.37 646.88 210.23 647 211.09 647.13 211.95 647.25 212.8 647.38 213.66 647.5 214.51 647.63 215.37 647.76 216.22 647.89 217.07 648.01 217.92 648.14 218.77 648.27 219.62 649.34 220.46 650.42 221.29 651.49 222.12 652.57 222.95 653.65 223.78 654.74 224.6 655.82 225.42 656.91 226.23 658 227.04 659.1 227.85 660.19 228.66 661.29 229.46 662.39 230.25 663.5 231.04 664.61 231.83 665.72 232.61 666.83 233.39 667.95 234.16 669.07 234.93 670.19 235.69 671.32 236.45 672.45 237.21 673.58 237.95 674.72 238.7 675.86 239.43 677 240.17 678.14 240.89 679.28 241.61 680.43 242.33 681.57 243.04 682.72 243.75 683.69 244.35 684.07 245.56 684.45 246.77 684.82 247.99 685.18 249.21 685.54 250.42 685.91 251.64 686.26 252.86 686.61 254.09 686.95 255.31 687.29 256.53 687.64 257.76 687.96 258.99 688.28 260.22 688.61 261.45 688.93 262.68 689.24 263.91 689.55 265.14 689.85 266.38 690.16 267.61 690.45 268.85 690.74 270.09 691.03 271.32 691.31 272.56 691.59 273.8 691.86 275.05 692.13 276.29 692.39 277.53 692.66 278.78 692.91 280.02 693.15 281.27 693.4 282.52 693.65 283.76 692.61 283.31 691.38 282.78 690.15 282.25 688.92 281.72 687.68 281.19 686.45 280.66 685.21 280.13 683.98 279.59 682.74 279.06 681.5 278.53 680.27 277.99 679.03 277.45 677.8 276.92 676.57 276.38 675.34 275.84 674.1 275.3 672.88 274.76 671.65 274.22 670.42 273.67 669.2 273.13 667.97 272.59 666.75 272.04 665.53 271.5 664.31 270.95 663.1 270.4 661.88 269.85 660.67 269.31 659.46 268.76 658.25 268.21 657.04 267.65 655.84 267.1 654.64 266.55 654.73 267.45 654.83 268.35 654.92 269.25 655.02 270.16 655.11 271.06 655.2 271.96 655.29 272.86 655.37 273.76 655.46 274.66 655.55 275.57 655.63 276.47 655.71 277.37 655.79 278.27 655.87 279.17 655.95 280.08 656.03 280.98 656.11 281.88 656.18 282.78 656.25 283.69 656.33 284.59 656.4 285.49 656.46 286.39 656.53 287.3 656.6 288.2 656.66 289.1 656.73 290.01 656.79 290.91 656.85 291.81 656.91 292.72 656.96 293.62 657.02 294.53 657.07 295.43 657.13 296.33 657.18 297.24 657.23 298.14 657.28 299.05 657.32 299.95 657.37 300.85 657.41 301.76 657.45 302.66 657.49 303.57 657.53 304.47 657.57 305.38 657.6 306.28 657.64 307.19 657.67 308.09 657.7 309 657.73 309.9 657.76 310.81 657.78 311.71 657.8 312.62 657.83 313.53 657.85 314.43 657.86 315.34 657.88 316.24 657.9 317.15 657.91 318.06 657.92 318.96 657.93 319.87 657.94 320.78 657.94 321.68 657.94 322.59 657.95 323.5 657.95 324.41 657.94 325.31 658.05 326.2 658.16 327.09 658.37 327.96 658.59 328.83 658.92 329.68 659.24 330.53 659.68 331.35 660.12 332.17 660.67 332.97 661.22 333.77 661.89 334.54 662.55 335.31 663.34 336.06 664.12 336.8 665.01 337.52 665.91 338.24 666.87 338.89 667.84 339.54 668.86 340.13 669.89 340.71 670.99 341.23 672.08 341.74 673.24 342.2 674.41 342.65 675.63 343.05 676.86 343.45 678.16 343.78 679.46 344.12 680.82 344.41 682.19 344.69 683.62 344.93 683.62 344.93 683.62 344.93 685.68 345.27 687.74 345.57 689.81 345.88 691.87 346.15 693.93 346.43 695.99 346.67 698.04 346.93 699.87 347.1 699.87 347.1 699.87 347.1 699.88 348.31 699.89 349.51 699.89 350.72 699.88 351.93 699.87 353.14 699.86 354.35 699.85 355.56 699.82 356.77 699.79 357.98 699.76 359.19 699.73 360.39 699.7 361.6 699.65 362.81 699.6 364.02 699.56 365.23 699.51 366.44 699.44 367.64 699.38 368.85 699.31 370.06 699.24 371.27 699.17 372.47 699.09 373.68 699 374.88 698.91 376.09 698.83 377.3 698.73 378.5 698.62 379.71 698.52 380.91 698.41 382.12 698.3 383.32 698.18 384.52 698.05 385.73 695.88 386.1 693.24 386.49 690.42 386.95 687.45 387.47 684.43 388.05 681.45 388.65 678.62 389.29 675.99 389.92 673.56 390.57 671.29 391.18 669.16 391.8 667.13 392.37 665.18 392.94 663.27 393.47 661.41 394 659.57 394.49 657.76 394.97 655.96 395.42 654.17 395.86 652.39 396.26 650.62 396.66 648.85 397.03 647.08 397.4 645.31 397.73 643.54 398.07 641.76 398.36 639.99 398.65 638.21 398.9 636.43 399.13 634.65 399.25 632.87 399.36 631.07 399.53 631.07 399.53 631.07 399.53 631.07 399.53 631.07 399.53"></path><path fill="#375152" d="M79.47 571.98Q79.04 571.44 78.6 570.91 78.16 570.37 77.73 569.84 77.29 569.3 76.85 568.77 76.42 568.22 76 567.68 75.57 567.14 75.14 566.6 74.71 566.05 74.28 565.51 73.86 564.97 73.43 564.43 73.01 563.88 72.59 563.33 72.17 562.78 71.75 562.23 71.33 561.68 70.91 561.13 70.49 560.59 70.07 560.04 69.66 559.48 69.25 558.93 68.84 558.37 68.43 557.82 68.02 557.26 67.6 556.7 67.19 556.15 66.78 555.59 66.38 555.03 65.98 554.47 65.58 553.91 65.17 553.35 64.77 552.78 64.37 552.22 63.97 551.66 63.57 551.1 63.17 550.53 62.78 549.96 62.38 549.39 61.99 548.83 61.6 548.26 61.2 547.69 60.81 547.12 60.42 546.55 60.03 545.98 59.65 545.4 59.26 544.83 58.88 544.26 58.5 543.68 58.11 543.11 57.73 542.53 57.34 541.96 56.97 541.38 56.59 540.8 56.22 540.22 55.84 539.64 55.47 539.06 55.09 538.48 54.72 537.9 54.34 537.32 53.98 536.73 53.61 536.14 53.42 534.95 53.21 533.57 53 532.2 52.79 530.82 52.58 529.45 52.37 528.08 52.15 526.71 51.93 525.35 51.71 523.99 51.48 522.63 51.25 521.28 51.02 519.93 50.79 518.58 50.55 517.24 50.31 515.9 50.06 514.56 49.81 513.23 49.56 511.9 49.3 510.58 49.04 509.25 48.77 507.94 48.51 506.62 48.24 505.31 47.96 504 47.68 502.7 47.4 501.4 47.11 500.1 46.82 498.81 46.53 497.52 46.23 496.24 45.93 494.95 45.63 493.67 45.33 492.4 45.02 491.13 44.71 489.86 44.39 488.59 44.07 487.33 43.75 486.07 43.43 484.81 43.1 483.56 42.78 482.31 42.44 481.06 42.11 479.81 41.78 478.57 41.44 477.33 41.1 476.09 40.76 474.85 40.42 473.62 40.07 472.39 39.73 471.16 39.38 469.93 39.03 468.71 38.68 467.49 38.33 466.27 37.98 465.05 37.62 463.83 37.27 462.62 36.92 461.4 36.56 460.19 36.2 458.98 35.85 457.77 35.49 456.57 35.13 455.36 34.78 454.16 34.42 452.96 34.06 451.75 33.7 450.55 33.34 449.36 32.99 448.16 32.63 446.96 32.27 445.77 31.91 444.57 31.56 443.38 31.2 442.19 30.85 441 30.49 439.81 30.14 438.62 29.79 437.43 29.43 436.24 29.08 435.06 28.73 433.87 28.38 432.69 28.03 431.5 27.69 430.32 27.34 429.14 27 427.95 26.65 426.77 26.31 425.59 25.97 424.41 25.63 423.23 25.29 422.05 24.96 420.87 24.62 419.69 24.29 418.51 23.96 417.34 23.63 416.16 23.3 414.98 22.98 413.81 22.65 412.63 22.33 411.45 22.01 410.28 21.69 409.1 21.38 407.93 21.06 406.75 20.75 405.58 20.44 404.41 20.13 403.23 19.83 402.06 19.52 400.89 19.22 399.72 18.92 398.54 18.63 397.37 18.33 396.2 18.04 395.03 17.75 393.86 17.46 392.69 17.18 391.51 16.89 390.34 16.61 389.17 16.34 388 16.06 386.83 15.79 385.66 15.52 384.49 15.25 383.32 14.99 382.16 14.72 380.99 14.47 379.82 14.21 378.65 13.39 378.28 12.56 377.92 11.73 377.55 10.89 377.18 10.05 376.81 9.21 376.43 8.36 376.06 7.52 375.68 6.67 375.3 5.82 374.92 4.96 374.54 4.11 374.15 3.27 373.76 2.42 373.37 1.59 372.98 0.76 372.58 0.66 370.85 0.57 369.11 0.47 367.38 0.39 365.65 0.33 363.92 0.26 362.19 0.2 360.45 0.16 358.72 0.12 356.99 0.09 355.26 0.07 353.53 0.06 351.79 0.05 350.06 0.06 348.33 0.07 346.6 0.09 344.87 0.12 343.14 0.16 341.41 0.2 339.68 0.26 337.95 0.32 336.22 0.39 334.48 0.47 332.75 0.56 331.02 0.66 329.29 0.76 327.56 0.88 325.83 1 324.1 1.12 322.37 1.27 320.64 1.42 318.91 1.56 317.18 2.02 317.26 2.48 317.34 2.94 317.42 3.4 317.49 3.85 317.57 4.31 317.65 4.77 317.72 5.23 317.8 5.68 317.88 6.14 317.95 6.6 318.03 7.06 318.11 7.51 318.18 7.97 318.28 8.44 318.45 8.92 318.62 9.39 318.8 9.86 318.97 10.33 319.15 10.8 319.33 11.28 319.5 11.75 319.68 12.22 319.85 12.69 320.03 13.16 320.2 13.64 320.38 14.11 320.55 14.58 320.73 15.05 320.92 15.51 321.1 15.98 321.29 16.45 321.48 16.92 321.67 17.38 321.85 17.85 322.04 18.32 322.23 18.79 322.41 19.25 322.6 19.72 322.79 20.19 322.97 20.66 323.16 21.13 323.34 21.6 323.5 22.08 323.66 22.56 323.82 23.04 323.97 23.51 324.13 23.99 324.29 24.47 324.44 24.95 324.6 25.43 324.76 25.9 324.92 26.38 325.07 26.86 325.23 27.34 325.39 27.81 325.55 28.29 325.7 28.77 325.86 29.25 326.02 29.72 326.18 30.2 326.33 30.68 326.49 31.16 326.65 31.63 326.81 32.11 326.97 32.59 327.12 33.07 327.28 33.54 327.44 34.02 327.6 34.49 327.77 34.95 327.97 35.41 328.17 35.87 328.38 36.33 328.58 36.79 328.79 37.25 328.99 37.72 329.2 38.18 329.4 38.64 329.61 39.1 329.81 39.56 330.01 40.02 330.22 40.48 330.42 40.94 330.62 41.4 330.81 41.87 331 42.34 331.19 42.8 331.38 43.27 331.58 43.73 331.77 44.2 331.96 44.67 332.15 45.13 332.34 45.6 332.53 46.06 332.72 46.53 332.91 47 333.1 47.46 333.28 47.93 333.46 48.4 333.64 48.87 333.82 49.34 334 49.82 334.18 50.29 334.36 50.76 334.54 51.23 334.72 51.7 334.9 52.17 335.08 52.64 335.26 53.11 335.43 53.58 335.61 54.05 335.79 54.53 335.95 55.01 336.1 55.48 336.26 55.96 336.42 56.44 336.58 56.92 336.74 57.39 336.9 57.87 337.06 58.35 337.22 58.83 337.38 59.3 337.54 59.78 337.7 60.26 337.86 60.73 338.03 61.19 338.23 61.65 338.43 61.72 340.49 61.79 342.56 61.86 344.62 61.93 346.68 62.01 348.74 62.08 350.79 62.15 352.84 62.23 354.89 62.31 356.93 62.39 358.98 62.47 361.01 62.55 363.05 62.63 365.08 62.72 367.12 62.8 369.15 62.89 371.17 62.97 373.2 63.06 375.23 63.15 377.25 63.24 379.27 63.33 381.29 63.42 383.31 63.52 385.33 63.61 387.34 63.71 389.36 63.8 391.37 63.9 393.39 64 395.4 64.1 397.41 64.2 399.42 64.3 401.43 64.4 403.44 63.92 403.18 63.44 402.93 62.96 402.67 62.47 402.41 61.99 402.16 61.51 401.9 61.03 401.65 60.54 401.39 60.06 401.14 59.57 400.88 59.09 400.62 58.61 400.37 58.12 400.11 57.64 399.86 57.15 399.6 56.66 399.35 56.85 400.59 57.04 401.83 57.23 403.08 57.42 404.32 57.61 405.56 57.8 406.81 57.99 408.05 58.18 409.3 58.37 410.55 58.56 411.79 58.75 413.04 58.94 414.29 59.13 415.53 59.33 416.78 59.52 418.03 59.71 419.28 59.9 420.53 60.09 421.78 60.28 423.03 60.48 424.28 60.67 425.54 60.86 426.79 61.05 428.04 61.25 429.3 61.44 430.56 61.63 431.81 61.82 433.07 62.01 434.33 62.21 435.59 62.4 436.84 62.59 438.11 62.78 439.37 62.97 440.63 63.17 441.89 63.36 443.16 63.55 444.42 63.74 445.69 63.93 446.95 64.12 448.22 64.31 449.49 64.5 450.76 64.69 452.03 64.88 453.3 65.07 454.58 65.26 455.85 65.45 457.13 65.63 458.4 65.82 459.68 66.01 460.96 66.2 462.24 66.38 463.52 66.57 464.8 66.75 466.09 66.94 467.37 67.12 468.66 67.3 469.95 67.49 471.24 67.67 472.53 67.85 473.82 68.03 475.11 68.21 476.41 68.39 477.7 68.57 479 68.75 480.3 68.8 479.29 68.86 478.28 68.91 477.27 68.97 476.26 69.02 475.25 69.07 474.23 69.13 473.22 69.19 472.21 69.24 471.2 69.3 470.18 69.36 469.17 69.41 468.15 69.47 467.14 69.53 466.12 69.59 465.1 69.65 464.09 69.71 463.07 69.77 462.05 69.83 461.03 69.9 460.01 69.96 458.99 70.02 457.97 70.08 456.95 70.15 455.93 70.21 454.91 70.28 453.88 70.34 452.86 70.41 451.83 70.47 450.81 70.54 449.78 70.61 448.75 70.68 447.73 70.75 446.7 70.81 445.67 70.88 444.64 70.95 443.61 71.02 442.58 71.1 441.55 71.17 440.51 71.24 439.48 71.31 438.45 71.38 437.41 71.46 436.37 71.53 435.34 71.61 434.3 71.68 433.26 71.76 432.23 71.83 431.19 71.91 430.15 71.99 429.1 72.06 428.06 72.14 427.02 72.22 425.98 72.3 424.93 72.38 423.89 72.46 422.84 72.54 421.8 72.62 420.75 72.7 419.7 72.78 418.65 72.87 417.6 72.95 416.55 73.03 415.5 73.11 414.45 73.2 413.4 73.28 412.35 73.37 411.29 73.45 410.24 73.54 409.18 73.63 408.13 73.71 407.07 73.8 406.01 73.89 404.95 73.97 403.89 74.06 402.83 74.15 401.77 74.24 400.71 74.33 399.65 74.42 398.59 74.51 397.52 74.6 396.46 74.69 395.39 74.78 394.33 74.87 393.26 74.96 392.19 75.06 391.12 75.15 390.06 75.24 388.99 75.34 387.92 75.43 386.85 75.52 385.77 75.62 384.7 75.71 383.63 75.81 382.56 75.9 381.48 76 380.41 76.09 379.33 76.19 378.26 76.29 377.18 76.38 376.1 76.48 375.03 76.58 373.95 76.67 372.87 76.77 371.79 76.87 370.71 76.97 369.63 77.07 368.55 77.17 367.47 77.26 366.38 77.36 365.3 77.46 364.22 77.56 363.13 77.66 362.05 77.76 360.96 77.86 359.88 77.97 358.79 78.07 357.7 78.17 356.61 78.27 355.52 78.37 354.43 78.48 353.34 78.58 352.25 78.68 351.16 78.79 350.06 78.89 348.97 79 347.87 79.1 346.78 79.2 345.68 79.91 345.96 80.6 346.26 81.29 346.57 81.98 346.88 82.67 347.18 83.37 347.49 84.06 347.8 84.75 348.11 85.44 348.41 86.13 348.72 86.83 349.01 87.54 349.28 88.25 349.55 88.95 349.82 89.66 350.09 90.37 350.36 91.07 350.62 91.78 350.89 92.49 351.16 93.19 351.43 93.9 351.7 94.61 351.96 95.32 352.23 96.03 352.49 96.74 352.76 97.44 353.03 98.15 353.29 98.86 353.56 99.57 353.82 100.28 354.09 100.99 354.35 101.7 354.62 101.86 355.88 102.03 357.13 102.2 358.39 102.37 359.65 102.54 360.91 102.71 362.17 102.87 363.43 103.04 364.69 103.21 365.96 103.38 367.22 103.54 368.49 103.71 369.75 103.87 371.02 104.04 372.29 104.2 373.55 104.37 374.82 104.53 376.09 104.7 377.37 104.86 378.64 105.03 379.91 105.19 381.19 105.35 382.46 105.51 383.74 105.68 385.02 105.84 386.3 106 387.58 106.16 388.86 106.32 390.14 106.48 391.42 106.64 392.71 106.8 393.99 106.96 395.28 107.12 396.57 107.28 397.85 107.43 399.14 107.59 400.43 107.75 401.73 107.91 403.02 108.06 404.31 108.22 405.61 108.37 406.91 108.53 408.2 108.69 409.5 108.84 410.8 108.99 412.1 109.15 413.4 109.3 414.71 109.46 416.01 109.61 417.32 109.76 418.62 109.91 419.93 110.07 421.24 110.22 422.55 110.37 423.86 110.52 425.17 110.67 426.48 110.82 427.8 110.97 429.11 111.12 430.43 111.27 431.74 111.42 433.06 111.57 434.38 111.71 435.7 111.86 437.02 112.01 438.35 112.16 439.67 112.3 441 112.45 442.32 112.6 443.65 112.74 444.98 112.89 446.31 113.03 447.64 113.18 448.97 113.32 450.3 113.47 451.63 113.61 452.97 113.75 454.3 113.9 455.64 114.04 456.97 114.18 458.31 114.32 459.65 114.46 460.99 114.61 462.33 114.75 463.68 114.89 465.02 115.03 466.36 115.17 467.71 115.31 469.06 115.45 470.4 115.59 471.75 115.73 473.1 115.87 474.45 116 475.8 116.14 477.16 116.28 478.51 116.42 479.86 116.56 481.22 116.69 482.57 116.83 483.93 116.96 485.29 117.1 486.65 117.24 488.01 117.37 489.37 117.51 490.73 117.64 492.09 117.78 493.46 117.91 494.82 118.04 496.19 118.18 497.55 118.31 498.92 118.44 500.29 118.58 501.66 118.71 503.03 118.84 504.4 118.97 505.77 119.1 507.14 119.23 508.51 119.37 509.89 119.5 511.26 119.63 512.64 119.76 514.01 119.89 515.39 120.01 516.77 120.14 518.14 120.27 519.52 120.4 520.9 120.53 522.28 120.66 523.67 120.78 522.33 120.91 520.99 121.03 519.65 121.16 518.3 121.28 516.96 121.41 515.62 121.53 514.28 121.65 512.94 121.78 511.59 121.9 510.25 122.03 508.91 122.15 507.56 122.28 506.22 122.4 504.87 122.52 503.53 122.65 502.18 122.77 500.84 122.9 499.49 123.02 498.14 123.15 496.8 123.27 495.45 123.39 494.1 123.52 492.76 123.64 491.41 123.77 490.06 123.89 488.71 124.02 487.36 124.14 486.01 124.27 484.66 124.39 483.31 124.52 481.96 124.64 480.61 124.77 479.26 124.89 477.91 125.02 476.56 125.14 475.2 125.27 473.85 125.39 472.5 125.52 471.15 125.64 469.79 125.77 468.44 125.89 467.09 126.02 465.73 126.15 464.38 126.27 463.03 126.4 461.67 126.53 460.32 126.65 458.96 126.78 457.61 126.91 456.25 127.03 454.9 127.16 453.54 127.29 452.19 127.42 450.83 127.54 449.48 127.67 448.12 127.8 446.76 127.93 445.41 128.06 444.05 128.19 442.7 128.32 441.34 128.44 439.98 128.57 438.63 128.7 437.27 128.1 436.96 127.51 436.65 126.91 436.34 126.31 436.03 125.71 435.72 125.11 435.41 124.51 435.1 123.9 434.79 123.3 434.48 122.7 434.16 122.1 433.85 121.5 433.54 120.9 433.23 120.3 432.92 119.7 432.61 119.1 432.3 119.09 430.04 119.08 427.79 119.07 425.53 119.06 423.28 119.05 421.03 119.04 418.78 119.03 416.54 119.01 414.29 119 412.05 118.99 409.8 118.98 407.56 118.97 405.32 118.95 403.09 118.94 400.85 118.93 398.62 118.91 396.39 118.9 394.16 118.89 391.93 118.87 389.7 118.85 387.48 118.84 385.26 118.82 383.04 118.8 380.82 118.79 378.6 118.77 376.39 118.75 374.18 118.73 371.97 118.71 369.76 118.68 367.56 118.66 365.36 118.64 363.16 118.61 360.97 119.34 361.24 120.08 361.52 120.81 361.79 121.54 362.07 122.27 362.34 123.01 362.62 123.74 362.89 124.47 363.17 125.21 363.44 125.94 363.72 126.66 364.02 127.38 364.32 128.1 364.62 128.83 364.93 129.55 365.23 130.27 365.53 130.99 365.84 131.71 366.14 132.43 366.44 133.15 366.75 133.87 367.06 134.59 367.37 135.31 367.68 136.03 367.99 136.75 368.29 137.47 368.6 138.19 368.91 138.91 369.22 139.65 369.46 140.39 369.71 141.14 369.96 141.88 370.2 142.62 370.45 143.36 370.69 144.1 370.94 144.84 371.18 145.59 371.43 146.32 371.7 147.05 371.98 147.78 372.25 148.51 372.53 149.24 372.8 149.97 373.08 150.71 373.35 151.44 373.63 152.17 373.9 152.89 374.21 153.61 374.52 154.33 374.83 155.05 375.14 155.77 375.45 156.48 375.75 157.2 376.06 157.92 376.37 158.64 376.68 159.38 376.94 160.11 377.21 160.85 377.47 161.59 377.73 162.32 378 163.06 378.26 163.79 378.52 164.53 378.79 165.18 379.12 165.05 381.43 164.92 383.83 164.79 386.24 164.66 388.64 164.53 391.05 164.41 393.45 164.28 395.85 164.15 398.26 164.02 400.66 163.89 403.07 163.77 405.47 163.64 407.88 163.51 410.28 163.38 412.69 163.25 415.09 163.12 417.5 163 419.9 162.87 422.31 162.74 424.71 162.61 427.12 162.48 429.52 162.36 431.93 162.34 434.33 162.34 436.74 162.34 439.14 162.34 441.55 162.34 443.95 162.34 446.36 162.34 448.76 162.34 451.17 162.34 453.57 162.34 455.98 161.78 455.63 161.14 455.23 160.5 454.84 159.86 454.45 159.23 454.06 158.59 453.67 157.96 453.29 157.32 452.9 156.69 452.52 156.05 452.14 155.41 451.76 154.77 451.38 154.13 451 153.49 450.63 152.85 450.25 152.2 449.88 152.05 451.27 151.9 452.66 151.75 454.05 151.6 455.44 151.45 456.83 151.3 458.22 151.15 459.61 151 461 150.85 462.39 150.7 463.77 150.55 465.16 150.41 466.55 150.26 467.94 150.11 469.32 149.96 470.71 149.82 472.1 149.67 473.48 149.52 474.87 149.38 476.26 149.23 477.64 149.08 479.03 148.94 480.41 148.79 481.8 148.64 483.18 148.5 484.56 148.35 485.95 148.21 487.33 148.06 488.72 147.92 490.1 147.77 491.48 147.62 492.86 147.48 494.25 147.33 495.63 147.19 497.01 147.04 498.39 146.9 499.77 146.75 501.15 146.61 502.53 146.46 503.91 146.32 505.29 146.17 506.67 146.03 508.05 145.88 509.43 145.74 510.81 145.59 512.19 145.44 513.57 145.3 514.94 145.15 516.32 145.01 517.7 144.86 519.07 144.72 520.45 144.57 521.83 144.43 523.2 144.28 524.58 144.13 525.95 143.99 527.33 143.84 528.7 143.7 530.07 143.55 531.45 143.4 532.82 143.26 534.19 143.11 535.57 142.96 536.94 142.82 538.31 142.67 539.68 142.52 541.05 142.38 542.42 142.23 543.79 142.08 545.16 141.93 546.53 141.79 547.9 141.64 549.27 141.49 550.63 141.34 552 141.19 553.37 141.04 554.73 140.89 556.1 140.75 557.47 140.6 558.83 140.45 560.2 140.3 561.56 140.15 562.92 140 564.29 139.84 565.65 139.69 567.01 139.54 568.37 139.39 569.73 139.24 571.09 139.09 572.45 138.93 573.81 138.78 575.17 138.63 576.53 138.47 577.89 138.32 579.24 138.17 580.6 138.01 581.95 137.86 583.31 137.7 584.66 137.55 586.01 137.39 587.37 137.24 588.72 137.08 590.07 136.92 591.42 136.77 592.77 136.61 594.12 136.45 595.46 136.3 596.81 136.14 598.15 135.98 599.5 135.82 600.84 135.67 602.18 135.51 603.52 135.35 604.86 135.19 606.2 135.04 607.54 134.88 608.88 134.72 610.21 134.57 611.54 134.41 612.87 134.25 614.2 134.1 615.53 133.94 616.86 133.79 618.18 133.63 619.5 133.48 620.82 133.33 622.13 133.18 623.45 133.04 624.53 132.46 624.08 131.88 623.62 131.3 623.16 130.72 622.7 130.15 622.23 129.58 621.76 129.01 621.3 128.43 620.83 127.86 620.36 127.29 619.9 126.72 619.43 126.15 618.95 125.59 618.48 125.02 618 124.46 617.53 123.89 617.05 123.33 616.57 122.76 616.1 122.2 615.62 121.64 615.13 121.09 614.65 120.53 614.16 119.97 613.68 119.41 613.19 118.86 612.71 118.3 612.22 117.75 611.73 117.2 611.24 116.65 610.74 116.1 610.25 115.55 609.76 115 609.26 114.45 608.77 113.91 608.27 113.37 607.77 112.82 607.27 112.28 606.77 111.74 606.26 111.2 605.76 110.66 605.26 110.12 604.76 109.58 604.25 109.05 603.74 108.51 603.23 107.98 602.72 107.45 602.21 106.91 601.7 106.38 601.19 105.85 600.67 105.32 600.15 104.8 599.63 104.27 599.11 103.74 598.6 103.22 598.08 102.69 597.56 102.17 597.04 101.65 596.51 101.13 595.98 100.62 595.46 100.1 594.93 99.58 594.41 99.06 593.88 98.54 593.35 98.03 592.82 97.88 591.35 97.73 589.68 97.57 588 97.42 586.32 97.27 584.64 97.12 582.96 96.97 581.28 96.83 579.61 96.68 577.93 96.53 576.25 96.38 574.57 96.24 572.89 96.09 571.21 95.94 569.53 95.79 567.86 95.64 566.18 95.5 564.51 95.35 562.83 95.2 561.16 95.05 559.49 94.9 557.82 94.74 556.15 94.59 554.48 94.44 552.81 94.29 551.14 94.13 549.48 93.98 547.81 93.82 546.15 93.66 544.49 93.51 542.83 93.35 541.17 93.19 539.52 93.03 537.86 92.87 536.21 92.7 534.56 92.54 532.91 92.38 531.26 92.21 529.61 92.04 527.97 91.88 526.32 91.71 524.68 91.54 523.04 91.37 521.4 91.2 519.77 91.03 518.13 90.85 516.5 90.68 514.87 90.5 513.24 90.33 511.61 90.15 509.98 89.97 508.36 89.79 506.73 89.61 505.11 89.43 503.49 89.25 501.88 89.07 500.26 88.88 498.65 88.7 497.04 88.51 495.42 88.33 493.82 88.14 492.21 87.95 490.6 87.76 489 87.57 487.4 87.43 488.75 87.3 490.09 87.16 491.44 87.02 492.79 86.89 494.13 86.75 495.48 86.62 496.82 86.49 498.16 86.35 499.5 86.22 500.84 86.08 502.18 85.95 503.52 85.82 504.86 85.69 506.2 85.55 507.53 85.42 508.87 85.29 510.2 85.16 511.54 85.03 512.87 84.9 514.2 84.77 515.54 84.64 516.87 84.51 518.2 84.38 519.53 84.25 520.86 84.12 522.19 83.99 523.52 83.86 524.84 83.73 526.17 83.6 527.5 83.47 528.82 83.35 530.15 83.22 531.47 83.09 532.8 82.96 534.12 82.84 535.44 82.71 536.77 82.58 538.09 82.46 539.41 82.33 540.73 82.2 542.05 82.08 543.37 81.95 544.69 81.83 546 81.7 547.32 81.58 548.64 81.46 549.95 81.33 551.27 81.21 552.58 81.09 553.9 80.97 555.21 80.85 556.52 80.72 557.84 80.6 559.15 80.49 560.46 80.37 561.77 80.25 563.07 80.14 564.38 80.02 565.68 79.91 566.99 79.8 568.29 79.69 569.59 79.58 570.89 79.47 571.98 79.47 571.98 79.47 571.98M216.87 673.66Q216.07 673.34 215.29 673.05 214.51 672.76 213.73 672.42 212.96 672.02 212.2 671.57 211.44 671.12 210.68 670.63 209.94 670.14 209.2 669.6 208.46 669.07 207.73 668.5 207 667.93 206.28 667.32 205.56 666.7 204.85 666.05 204.14 665.4 203.45 664.7 202.75 664.01 202.06 663.28 201.38 662.54 200.7 661.77 200.02 660.99 199.36 660.18 198.69 659.37 198.03 658.52 197.38 657.66 196.73 656.77 196.09 655.88 195.45 654.95 194.82 654.03 194.19 653.06 193.56 652.09 192.96 651.1 192.35 650.11 191.76 649.09 191.16 648.08 190.59 647.03 190.02 645.99 189.46 644.93 188.9 643.86 188.36 642.78 187.81 641.69 187.29 640.58 186.76 639.48 186.25 638.35 185.74 637.22 185.24 636.08 184.74 634.93 184.26 633.76 183.78 632.6 183.31 631.42 182.84 630.24 182.39 629.03 181.93 627.84 181.49 626.62 181.05 625.4 180.62 624.16 180.2 622.93 179.79 621.67 179.37 620.41 178.98 619.14 178.58 617.86 178.2 616.56 177.82 615.27 177.46 613.96 177.1 612.66 176.76 611.34 176.43 610.03 176.11 608.7 175.8 607.38 175.51 606.04 175.22 604.71 174.96 603.36 174.69 602.01 174.45 600.65 174.21 599.29 173.99 597.92 173.78 596.54 173.58 595.16 173.39 593.77 173.21 592.37 173.04 590.97 172.9 589.56 172.75 588.15 172.62 586.72 172.5 585.3 172.4 583.86 172.3 582.42 172.23 580.96 172.16 579.51 172.11 578.04 172.06 576.57 172.03 575.09 172.01 573.61 172.01 572.11 172.01 572.11 172.01 572.11 172.01 570.49 172.04 568.91 172.06 567.34 172.12 565.8 172.18 564.26 172.27 562.77 172.35 561.28 172.47 559.83 172.58 558.38 172.73 556.97 172.87 555.56 173.05 554.19 173.22 552.83 173.42 551.51 173.63 550.18 173.86 548.9 174.09 547.62 174.35 546.38 174.61 545.14 174.9 543.94 175.19 542.75 175.51 541.59 175.83 540.44 176.18 539.32 176.53 538.21 176.9 537.14 177.28 536.07 177.69 535.04 178.09 534.01 178.53 533.02 178.96 532.04 179.43 531.09 179.89 530.15 180.38 529.24 180.86 528.34 181.36 527.48 181.86 526.62 182.39 525.8 182.91 524.97 183.45 524.19 183.99 523.42 184.55 522.68 185.11 521.94 185.69 521.24 186.27 520.54 186.86 519.89 187.46 519.23 188.08 518.62 188.69 518 189.33 517.43 189.96 516.86 190.62 516.32 191.27 515.79 191.95 515.3 192.62 514.81 193.31 514.36 194.01 513.91 194.72 513.5 195.43 513.09 196.16 512.72 196.89 512.35 197.64 512.03 198.39 511.7 199.16 511.41 199.93 511.13 200.71 510.87 201.48 510.62 202.27 510.41 203.05 510.19 203.84 510.02 204.64 509.84 205.43 509.69 206.23 509.55 207.04 509.44 207.85 509.33 208.66 509.26 209.47 509.19 210.29 509.15 211.12 509.12 211.94 509.12 212.77 509.12 213.61 509.15 214.45 509.19 215.29 509.26 216.13 509.33 216.98 509.43 217.84 509.54 218.69 509.68 219.55 509.82 220.42 509.99 221.29 510.17 222.16 510.38 223.03 510.59 223.91 510.84 224.8 511.09 225.68 511.37 225.68 511.37 225.68 511.37 226.74 511.7 227.79 512.07 228.84 512.44 229.88 512.84 230.92 513.24 231.96 513.67 233 514.11 234.04 514.58 235.08 515.04 236.11 515.55 237.14 516.05 238.16 516.58 239.19 517.12 240.21 517.69 241.23 518.25 242.25 518.86 243.27 519.46 244.28 520.09 245.29 520.73 246.3 521.4 247.31 522.07 248.31 522.77 249.31 523.47 250.31 524.21 251.31 524.95 252.3 525.72 253.3 526.49 254.28 527.3 255.27 528.1 256.26 528.94 257.24 529.78 258.22 530.65 258.22 530.65 258.22 530.65 258.23 529.26 258.23 527.87 258.23 526.48 258.24 525.09 258.24 523.7 258.25 522.32 258.25 520.93 258.25 519.54 258.26 517.09 258.13 514.74 257.99 512.4 257.72 510.16 257.45 507.93 257.04 505.81 256.63 503.69 256.09 501.67 255.54 499.66 254.85 497.76 254.17 495.85 253.35 494.06 252.52 492.26 251.57 490.57 250.61 488.87 249.51 487.29 248.41 485.7 247.22 484.24 246.63 483.51 246.01 482.81 245.39 482.12 244.75 481.45 244.11 480.79 243.44 480.15 242.78 479.52 242.09 478.92 241.4 478.32 240.69 477.75 239.97 477.18 239.24 476.64 238.5 476.1 237.74 475.59 236.98 475.08 236.2 474.61 235.42 474.13 234.61 473.69 233.81 473.24 232.98 472.83 232.15 472.41 231.3 472.03 230.44 471.64 229.57 471.29 228.69 470.94 227.79 470.62 226.9 470.29 225.97 470 225.97 470 225.97 470 224.79 469.62 223.56 469.33 222.33 469.04 221.06 468.83 219.78 468.63 218.46 468.5 217.81 468.44 217.14 468.4 216.47 468.36 215.78 468.34 215.1 468.32 214.41 468.32 213.72 468.32 213.02 468.34 212.31 468.36 211.6 468.4 210.88 468.45 210.16 468.51 209.43 468.57 208.7 468.66 207.96 468.74 207.21 468.85 206.46 468.95 205.7 469.08 204.95 469.2 204.18 469.35 203.41 469.5 202.65 469.66 201.9 469.83 201.16 470.01 200.43 470.19 199.71 470.39 198.99 470.59 198.28 470.8 197.58 471.01 196.89 471.25 196.2 471.48 195.53 471.73 194.86 471.97 194.21 472.24 193.56 472.5 192.92 472.79 192.28 473.07 191.66 473.37 191.04 473.67 190.43 473.98 189.22 474.62 188.08 475.32 186.93 476.02 185.86 476.79 184.78 477.56 183.76 478.4 183.76 478.4 183.76 478.4 182.85 477.34 181.93 476.27 181.02 475.21 180.11 474.15 180.11 471.94 180.11 469.72 180.11 467.51 180.11 465.3 180.11 463.09 180.11 460.87 180.11 458.66 180.11 456.45 180.11 454.24 180.11 452.02 180.11 449.81 180.11 447.6 180.1 445.39 180.1 443.18 180.1 440.97 180.1 438.76 180.1 436.55 180.1 434.34 180.1 432.13 180.1 429.92 180.1 427.71 180.09 425.5 180.09 423.29 180.09 421.09 180.09 418.88 180.09 416.67 180.08 414.47 180.08 412.27 180.07 410.06 180.07 407.86 180.06 405.67 180.06 403.47 181.01 403.17 181.97 402.89 182.93 402.62 183.89 402.36 184.85 402.11 185.82 401.87 186.78 401.64 187.75 401.42 188.72 401.2 189.7 401.01 190.68 400.81 191.66 400.63 192.64 400.46 193.62 400.31 194.6 400.15 195.59 400.03 196.57 399.9 197.56 399.81 198.54 399.71 199.53 399.64 200.52 399.58 201.5 399.54 202.49 399.51 203.48 399.5 204.47 399.49 205.46 399.5 206.46 399.5 207.46 399.53 208.46 399.55 209.46 399.59 210.47 399.63 211.48 399.7 212.48 399.76 213.48 399.85 214.48 399.93 215.46 400.03 216.45 400.14 217.43 400.25 218.41 400.38 219.37 400.52 220.34 400.67 221.29 400.83 222.25 400.99 223.19 401.17 224.14 401.35 225.08 401.54 226.02 401.73 226.95 401.94 227.88 402.14 228.8 402.36 229.72 402.58 230.63 402.81 231.55 403.02 232.48 403.18 233.41 403.33 234.33 403.5 235.25 403.66 236.17 403.84 237.08 404.02 237.98 404.22 238.87 404.47 239.75 404.75 240.62 405.03 241.49 405.33 241.49 405.33 241.49 405.33 242.7 405.75 243.89 406.18 245.09 406.6 246.27 407 247.46 407.41 248.63 407.82 249.8 408.24 250.94 408.67 252.1 409.07 253.25 409.46 254.39 409.85 255.52 410.26 256.65 410.66 257.75 411.09 258.85 411.55 259.91 412.07 260.98 412.58 262.02 413.11 263.07 413.64 264.1 414.16 265.14 414.65 266.17 415.12 267.22 415.56 268.24 416.01 269.27 416.45 270.27 416.92 271.28 417.38 272.26 417.86 273.25 418.34 274.21 418.84 275.18 419.34 276.12 419.86 277.07 420.38 277.99 420.91 278.92 421.45 279.82 422 280.72 422.56 281.61 423.13 282.49 423.7 283.36 424.29 284.22 424.87 285.07 425.47 285.92 426.07 286.74 426.68 287.57 427.3 288.38 427.92 289.18 428.55 289.97 429.2 290.76 429.84 291.52 430.5 292.29 431.16 293.04 431.83 293.79 432.51 294.51 433.2 295.24 433.89 295.95 434.59 296.66 435.29 297.35 436.01 298.04 436.73 298.71 437.46 299.37 438.19 300.02 438.93 300.67 439.68 301.3 440.44 301.93 441.2 302.54 441.97 303.15 442.75 303.74 443.54 304.33 444.33 304.9 445.13 305.47 445.94 306.02 446.77 307.12 448.41 308.14 450.13 309.16 451.85 310.1 453.64 311.04 455.43 311.9 457.3 312.76 459.16 313.54 461.1 314.32 463.04 315.01 465.05 315.71 467.07 316.33 469.15 316.95 471.24 317.49 473.4 318.03 475.56 318.49 477.79 318.95 480.02 319.33 482.31 319.71 484.61 320.02 486.98 320.33 489.35 320.55 491.79 320.78 494.22 320.93 496.73 321.09 499.23 321.16 501.8 321.2 503.09 321.22 504.39 321.23 505.69 321.23 507.01 321.23 507.01 321.23 507.01 321.23 508.74 321.23 510.47 321.23 512.2 321.23 513.93 321.23 515.66 321.22 517.39 321.22 519.13 321.22 520.86 321.22 522.59 321.22 524.32 321.22 526.05 321.22 527.78 321.22 529.52 321.21 531.25 321.21 532.98 321.21 534.71 321.21 536.45 321.21 538.18 321.21 539.91 321.21 541.65 321.21 543.38 321.2 545.12 321.2 546.85 321.2 548.59 321.2 550.32 321.2 552.05 321.2 553.79 321.2 555.52 321.19 557.26 321.19 559 321.19 560.73 321.19 562.47 321.19 564.2 321.19 565.94 321.19 567.68 321.18 569.41 321.18 571.15 321.18 572.89 321.18 574.62 321.18 576.36 321.18 578.1 321.17 579.84 321.17 581.57 321.17 583.31 321.17 585.05 321.17 586.79 321.17 588.53 321.16 590.27 321.16 592.01 321.16 593.75 321.16 595.49 321.15 597.23 321.15 598.97 321.15 600.71 321.15 602.45 321.15 604.19 321.14 605.93 321.14 607.67 321.14 609.42 321.14 611.16 321.13 612.9 321.13 614.64 321.13 616.39 321.12 618.13 321.9 618.29 322.68 618.45 323.46 618.61 324.24 618.76 325.02 618.92 325.8 619.08 326.57 619.24 327.35 619.4 328.13 619.56 328.91 619.72 329.68 619.88 330.46 620.05 331.24 620.21 332.01 620.37 332.79 620.53 333.43 620.67 333.43 623 333.43 625.32 333.43 627.65 333.43 629.98 333.43 632.31 333.43 634.64 333.43 636.96 333.43 639.29 333.43 641.62 333.43 643.95 333.43 646.27 333.43 648.6 333.43 650.93 333.43 653.26 333.43 655.58 333.43 657.91 333.43 660.24 333.43 662.57 333.43 664.89 333.43 667.22 333.43 669.55 333.43 671.88 333.43 674.21 333.43 676.53 333.43 678.86 333.43 681.19 333.43 683.52 333.43 685.84 333.43 688.17 333.43 690.5 333.43 692.83 333.43 695.15 332.5 695.03 331.42 694.91 330.34 694.82 329.25 694.73 328.17 694.65 327.08 694.57 325.99 694.49 324.9 694.41 323.81 694.33 322.73 694.24 321.64 694.15 320.55 694.06 319.46 693.96 318.37 693.86 317.29 693.76 316.2 693.66 315.11 693.55 314.03 693.44 312.94 693.33 311.85 693.21 310.77 693.09 309.68 692.96 308.6 692.83 307.51 692.7 306.43 692.57 305.34 692.43 304.26 692.29 303.18 692.15 302.09 692 301.01 691.85 299.93 691.69 298.85 691.53 297.77 691.37 296.68 691.21 295.6 691.04 294.52 690.87 293.44 690.7 292.37 690.52 291.29 690.34 290.21 690.15 289.13 689.97 288.06 689.77 286.98 689.58 285.9 689.38 284.83 689.18 283.76 688.98 282.68 688.77 281.61 688.55 280.54 688.34 279.46 688.12 278.39 687.9 277.32 687.68 276.25 687.45 275.19 687.22 274.12 686.98 273.05 686.74 271.98 686.5 270.92 686.26 269.85 686.01 268.79 685.76 267.72 685.5 266.66 685.24 265.6 684.98 264.54 684.72 264.38 683.31 264.22 681.91 264.07 680.51 263.91 679.1 263.75 677.69 263.59 676.29 263.44 674.88 263.28 673.47 263.13 672.06 262.97 670.66 262.81 669.25 262.66 667.84 262.5 666.44 262.34 665.03 262.19 663.63 262.03 662.22 261.87 660.82 261.72 659.41 261.56 658.01 261.4 656.61 261.25 655.21 261.09 653.81 260.93 652.41 260.77 651.01 260.61 649.61 260.46 648.21 260.3 646.82 260.14 645.42 259.98 644.03 259.82 642.64 259.66 641.24 259.5 639.85 259.12 641.13 258.72 642.37 258.32 643.6 257.89 644.8 257.46 646 257.01 647.15 256.56 648.31 256.08 649.42 255.6 650.53 255.1 651.6 254.6 652.67 254.08 653.7 253.55 654.73 253 655.71 252.45 656.69 251.88 657.63 251.31 658.57 250.71 659.47 250.11 660.37 249.49 661.22 248.87 662.07 248.23 662.88 247.58 663.68 246.92 664.44 246.25 665.2 245.56 665.92 244.87 666.63 244.15 667.3 243.44 667.97 242.7 668.59 241.96 669.21 241.2 669.78 240.45 670.36 239.69 670.87 238.93 671.39 238.16 671.85 237.4 672.31 236.64 672.72 235.88 673.13 235.12 673.48 234.36 673.83 233.6 674.12 232.84 674.42 232.08 674.66 231.32 674.9 230.56 675.08 229.8 675.26 229.04 675.39 228.28 675.52 227.51 675.59 226.75 675.66 225.99 675.68 225.23 675.7 224.47 675.66 223.71 675.62 222.95 675.52 222.19 675.43 221.42 675.29 220.66 675.14 219.9 674.93 219.15 674.68 218.39 674.33 217.63 673.97 216.87 673.66 216.87 673.66 216.87 673.66 216.87 673.66 216.87 673.66M242.51 615.58Q243.57 615.91 244.65 616.07 245.73 616.22 246.83 616.19 247.93 616.16 249.05 615.95 250.18 615.74 251.32 615.34 252.47 614.95 253.43 614.48 254.39 614.01 255.17 613.47 255.95 612.93 256.54 612.32 257.14 611.72 257.55 611.04 257.55 611.04 257.55 611.04 257.57 609.69 257.59 608.34 257.61 607 257.62 605.65 257.64 604.31 257.66 602.97 257.68 601.62 257.69 600.28 257.71 598.94 257.72 597.6 257.74 596.27 257.76 594.93 257.77 593.6 257.79 592.26 257.8 590.93 257.81 589.59 257.83 588.26 257.84 586.93 257.86 585.6 257.87 584.27 257.88 582.95 257.9 581.62 257.91 580.29 257.92 578.97 257.93 577.64 257.94 576.32 257.96 575 257.97 573.68 257.98 572.36 257.99 571.04 258 569.72 258.01 568.4 257.08 567.88 255.52 566.73 254.74 566.16 253.8 565.42 252.87 564.69 251.78 563.8 250.68 562.9 249.67 562.17 248.65 561.44 247.71 560.87 246.76 560.3 245.89 559.9 245.03 559.5 244.23 559.26 244.23 559.26 244.23 559.26 243.37 559 242.55 558.88 241.73 558.76 240.96 558.78 240.18 558.8 239.45 558.96 238.72 559.12 238.03 559.42 237.34 559.72 236.69 560.16 236.05 560.6 235.44 561.18 234.84 561.76 234.28 562.48 233.72 563.2 233.2 564.06 232.68 564.93 232.22 565.9 231.76 566.87 231.37 567.95 230.98 569.03 230.65 570.22 230.32 571.4 230.05 572.7 229.78 574 229.57 575.41 229.37 576.82 229.22 578.34 229.08 579.87 229 581.5 228.92 583.13 228.9 584.88 228.9 584.88 228.9 584.88 228.87 587.47 229.08 589.98 229.28 592.49 229.73 594.93 230.17 597.37 230.86 599.73 231.2 600.91 231.6 602.07 232.01 603.24 232.47 604.38 232.93 605.52 233.43 606.55 233.94 607.59 234.48 608.51 235.02 609.43 235.61 610.25 236.19 611.06 236.82 611.76 237.45 612.47 238.12 613.06 238.78 613.65 239.49 614.12 240.21 614.6 240.96 614.97 241.71 615.33 242.51 615.58 242.51 615.58 242.51 615.58 242.51 615.58 242.51 615.58M344.62 699.87Q344.7 697.7 344.84 695.34 344.99 692.98 345.14 690.62 345.29 688.26 345.44 685.89 345.58 683.53 345.73 681.17 345.88 678.81 346.03 676.45 346.17 674.09 346.32 671.73 346.47 669.37 346.62 667 346.76 664.64 346.91 662.28 347.06 659.92 347.21 657.56 347.35 655.2 347.5 652.84 347.65 650.48 347.8 648.11 347.95 645.75 347.98 643.39 347.98 641.03 347.98 638.67 347.98 636.31 347.98 633.95 347.98 631.59 347.98 629.22 347.98 626.86 347.98 624.5 349.31 624.37 350.64 624.23 351.97 624.09 353.29 623.96 354.61 623.82 355.93 623.68 357.25 623.55 358.58 623.41 359.9 623.27 361.22 623.13 362.55 622.99 363.88 622.85 365.21 622.71 366.54 622.57 367.87 622.42 369.21 622.28 369.23 620.46 369.25 618.65 369.27 616.84 369.29 615.03 369.3 613.22 369.32 611.41 369.33 609.6 369.35 607.79 369.36 605.98 369.37 604.18 369.38 602.37 369.39 600.57 369.4 598.76 369.41 596.96 369.42 595.15 369.43 593.35 369.44 591.54 369.45 589.74 369.45 587.94 369.46 586.14 369.47 584.34 369.47 582.54 369.48 580.74 369.48 578.94 369.49 577.14 369.49 575.34 369.5 573.54 369.5 571.74 369.51 569.94 369.51 568.15 369.52 566.35 369.52 564.55 369.52 562.76 369.53 560.96 369.53 559.16 369.53 557.37 369.54 555.57 369.54 553.78 369.54 551.99 369.55 550.19 369.55 548.4 369.55 546.6 369.55 544.81 369.56 543.02 369.56 541.23 369.56 539.43 369.56 537.64 369.57 535.85 369.57 534.06 369.57 532.27 369.57 530.48 369.57 528.69 369.58 526.9 369.58 525.11 369.58 523.32 369.58 521.53 369.58 519.75 369.58 517.96 369.59 516.17 369.59 514.39 369.59 512.6 369.59 510.81 369.59 509.03 369.59 507.24 368.24 507.34 366.89 507.43 365.54 507.53 364.19 507.62 362.84 507.72 361.49 507.82 360.14 507.92 358.79 508.02 357.44 508.12 356.09 508.22 354.73 508.32 353.38 508.43 352.03 508.53 350.68 508.64 349.34 508.75 347.99 508.86 347.99 506.74 347.99 504.62 347.99 502.5 347.99 500.38 347.99 498.26 347.99 496.14 347.99 494.02 347.99 491.9 347.99 489.77 347.99 487.65 347.99 485.53 347.99 483.41 347.99 481.29 347.99 479.17 347.99 477.05 347.99 474.93 347.99 472.81 347.99 470.69 347.99 468.57 347.99 466.45 347.99 464.33 347.99 462.21 347.99 460.09 347.99 457.97 347.99 455.85 347.99 453.73 347.99 451.61 347.99 449.49 347.99 447.37 347.99 445.25 347.99 443.13 347.99 441.01 349.58 440.7 351.17 440.42 352.77 440.15 354.36 439.91 355.95 439.68 357.55 439.47 359.14 439.27 360.73 439.09 362.32 438.91 363.92 438.73 365.51 438.54 367.11 438.36 368.7 438.16 370.3 437.97 371.89 437.76 373.49 437.56 375.09 437.34 376.69 437.13 378.29 436.91 379.89 436.69 381.49 436.47 383.09 436.25 384.69 436.03 386.29 435.81 387.88 435.58 389.48 435.36 391.09 435.14 392.69 434.91 394.29 434.69 395.89 434.47 397.49 434.24 399.09 434.02 400.69 433.79 402.29 433.56 403.89 433.33 405.49 433.1 407.08 432.86 408.68 432.6 410.28 432.33 411.87 432.02 413.46 431.67 415.05 431.3 416.64 430.93 418.23 430.59 419.82 430.3 421.42 430.04 423.02 429.8 424.62 429.57 426.22 429.34 427.82 429.11 429.42 428.89 431.02 428.65 432.62 428.38 434.21 428.06 435.8 427.73 437.4 427.39 438.99 427.05 440.58 426.73 442.17 426.42 443.77 426.11 445.36 425.8 446.95 425.45 448.54 425.07 450.13 424.69 450.13 425.95 450.13 427.21 450.13 428.47 450.12 429.73 450.12 430.99 450.12 432.25 450.12 433.5 450.11 434.76 450.11 436.01 450.11 437.26 450.1 438.52 450.1 439.77 450.1 441.02 450.1 442.27 450.09 443.52 450.09 444.77 450.09 446.02 450.09 447.26 450.08 448.51 450.08 449.76 450.08 451.01 450.07 452.26 450.07 453.51 450.07 454.76 450.07 456.01 450.06 457.26 450.06 458.51 450.06 459.76 450.06 461.01 450.05 462.26 450.05 463.51 450.05 464.76 450.54 463.63 451.08 462.53 451.62 461.42 452.2 460.33 452.78 459.25 453.4 458.18 454.02 457.12 454.68 456.07 455.34 455.03 456.04 454.01 456.75 452.99 457.49 451.99 458.24 450.99 459.02 450.01 459.81 449.03 460.64 448.07 461.46 447.11 462.33 446.17 463.2 445.23 464.11 444.31 465.02 443.4 465.97 442.5 466.93 441.61 467.92 440.73 468.91 439.86 469.95 439 470.98 438.15 472.06 437.32 473.14 436.49 474.25 435.68 475.37 434.86 476.53 434.07 477.69 433.28 478.83 432.54 479.97 431.79 481.1 431.09 482.22 430.39 483.33 429.74 484.44 429.1 485.53 428.5 486.62 427.91 487.69 427.36 488.76 426.81 489.82 426.3 490.87 425.78 491.91 425.3 492.95 424.83 493.97 424.39 494.98 423.94 495.98 423.53 496.98 423.1 497.96 422.72 498.94 422.33 499.91 421.99 500.87 421.65 501.82 421.35 502.77 421.09 503.7 420.89 504.63 420.69 505.55 420.54 506.46 420.38 507.36 420.28 508.26 420.17 508.99 420.2 508.99 420.2 508.99 420.2 508.97 421.59 508.96 423.06 508.95 424.52 508.95 425.99 508.94 427.46 508.94 428.93 508.94 430.39 508.93 431.86 508.93 433.33 508.92 434.8 508.92 436.27 508.91 437.73 508.91 439.2 508.91 440.67 508.9 442.14 508.9 443.6 508.89 445.07 508.89 446.54 508.88 448.01 508.88 449.48 508.88 450.94 508.87 452.41 508.87 453.88 508.86 455.35 508.86 456.82 508.85 458.28 508.85 459.75 508.85 461.22 508.84 462.69 508.84 464.15 508.83 465.62 508.83 467.09 508.82 468.56 508.82 470.03 508.82 471.49 508.82 472.96 508.82 474.43 508.82 475.9 508.82 477.37 508.82 478.83 508.82 480.3 508.82 481.77 508.82 483.24 508.82 484.71 508.82 486.17 508.82 487.64 508.82 489.11 508.82 490.58 508.82 492.05 508.82 493.51 508.82 494.98 508.82 496.45 508.82 497.92 508.82 499.39 508.82 500.85 508.82 502.32 508.82 503.79 508.82 505.26 508.82 506.73 508.82 508.2 508.82 509.66 508.82 511.13 508.82 512.6 508.82 514.07 507.77 513.7 506.58 513.38 505.39 513.06 504.22 512.78 503.05 512.49 501.91 512.22 500.77 511.96 499.65 511.73 498.54 511.49 497.45 511.28 496.37 511.08 495.31 510.9 494.25 510.72 493.21 510.56 492.18 510.41 491.17 510.29 490.16 510.16 489.18 510.06 488.2 509.97 487.25 509.9 486.3 509.83 485.37 509.79 484.44 509.75 483.54 509.74 482.64 509.73 481.77 509.75 480.89 509.77 480.05 509.82 478.35 509.91 476.77 510.13 476.77 510.13 476.77 510.13 475.76 510.26 474.79 510.44 473.83 510.62 472.9 510.84 471.98 511.06 471.1 511.32 470.22 511.59 469.38 511.89 467.7 512.51 466.19 513.3 464.68 514.09 463.34 515.05 461.99 516.02 460.82 517.16 459.65 518.31 458.64 519.64 457.64 520.96 456.81 522.47 455.97 523.98 455.3 525.67 454.64 527.36 454.05 529.17 453.47 530.98 452.97 532.91 452.47 534.84 452.06 536.89 451.64 538.95 451.31 541.12 450.97 543.29 450.72 545.58 450.47 547.87 450.31 550.29 450.23 551.49 450.16 552.73 450.1 553.96 450.06 555.23 450.02 556.5 450 557.79 449.98 559.09 449.98 560.42 449.98 560.42 449.98 560.42 449.98 561.93 449.98 563.43 449.99 564.94 449.99 566.45 449.99 567.97 449.99 569.48 449.99 570.99 449.99 572.51 450 574.02 450 575.54 450 577.06 450 578.58 450.01 580.1 450.01 581.62 450.01 583.14 450.02 584.67 450.02 586.19 450.02 587.72 450.03 589.25 450.03 590.78 450.04 592.31 450.04 593.84 450.05 595.38 450.05 596.92 450.06 598.45 450.06 599.99 450.07 601.54 450.08 603.08 450.08 604.62 450.09 606.17 450.1 607.72 450.11 609.27 451.79 608.89 453.47 608.51 455.15 608.13 456.82 607.74 458.5 607.35 460.18 606.96 461.85 606.56 463.53 606.16 465.2 605.76 466.88 605.35 468.55 604.95 470.22 604.54 471.89 604.13 473.56 603.72 475.23 603.31 476.9 602.9 476.91 605.09 476.92 607.28 476.93 609.48 476.94 611.68 476.96 613.88 476.97 616.09 476.99 618.3 477 620.52 477.02 622.74 477.04 624.97 477.06 627.2 477.08 629.44 477.1 631.68 477.12 633.94 477.15 636.2 477.18 638.46 477.21 640.74 477.24 643.02 477.27 645.32 477.3 647.62 477.34 649.93 477.38 652.26 477.42 654.59 477.46 656.94 477.51 659.29 477.55 661.66 477.6 664.04 477.65 666.43 477.7 668.82 477.75 671.22 477.8 673.62 477.84 675.79 476.84 676.17 475.85 676.56 474.86 676.94 473.86 677.33 472.86 677.7 471.86 678.07 470.86 678.43 469.86 678.8 468.86 679.17 467.86 679.53 466.86 679.88 465.85 680.24 464.84 680.59 463.84 680.94 462.83 681.29 461.82 681.62 460.81 681.96 459.8 682.3 458.79 682.63 457.77 682.96 456.76 683.29 455.74 683.61 454.73 683.93 453.71 684.25 452.69 684.57 451.67 684.87 450.65 685.18 449.63 685.48 448.61 685.79 447.59 686.09 446.56 686.38 445.54 686.67 444.51 686.96 443.48 687.24 442.46 687.53 441.43 687.81 440.4 688.08 439.37 688.35 438.34 688.62 437.31 688.9 436.27 689.16 435.24 689.41 434.2 689.67 433.17 689.92 432.14 690.18 431.1 690.43 430.06 690.67 429.02 690.91 427.98 691.15 426.95 691.38 425.91 691.62 424.86 691.84 423.82 692.06 422.78 692.29 421.74 692.51 420.69 692.73 419.65 692.94 418.6 693.14 417.56 693.35 416.51 693.56 415.47 693.76 414.42 693.95 413.37 694.14 412.32 694.33 411.27 694.52 410.23 694.71 409.18 694.89 408.12 695.06 407.07 695.23 406.02 695.41 404.97 695.58 403.92 695.74 402.86 695.9 401.81 696.06 400.76 696.21 399.7 696.37 398.65 696.52 397.59 696.66 396.54 696.8 395.48 696.94 394.43 697.08 393.37 697.21 392.31 697.33 391.25 697.46 390.2 697.58 389.14 697.71 388.08 697.82 387.02 697.93 385.96 698.04 384.9 698.15 383.84 698.25 382.78 698.36 381.72 698.45 380.66 698.54 379.6 698.63 378.54 698.72 377.48 698.81 376.42 698.89 375.36 698.96 374.3 699.03 373.24 699.11 372.18 699.18 371.11 699.24 370.05 699.3 368.99 699.36 367.93 699.41 366.87 699.47 365.8 699.52 364.74 699.56 363.68 699.6 362.62 699.64 361.56 699.68 360.49 699.72 359.43 699.74 358.37 699.77 357.31 699.79 356.25 699.82 355.18 699.84 354.12 699.84 353.06 699.85 352 699.86 350.94 699.87 349.87 699.88 348.81 699.87 347.75 699.86 346.69 699.85 345.63 699.85 344.62 699.87 344.62 699.87 344.62 699.87M518.71 656.67Q518.6 655.31 518.52 653.8 518.44 652.29 518.36 650.78 518.28 649.28 518.2 647.77 518.12 646.26 518.03 644.75 517.95 643.24 517.87 641.74 517.79 640.23 517.71 638.72 517.63 637.21 517.55 635.71 517.47 634.2 517.38 632.69 517.3 631.18 517.22 629.67 517.14 628.17 517.06 626.66 516.98 625.15 516.9 623.64 516.81 622.13 516.73 620.63 516.65 619.12 516.57 617.61 516.49 616.1 516.41 614.59 516.33 613.09 516.25 611.58 516.16 610.07 516.12 608.56 517.04 608.18 517.96 607.8 518.88 607.42 519.8 607.03 520.71 606.64 521.62 606.24 522.52 605.85 523.42 605.45 524.32 605.05 525.21 604.65 526.1 604.24 526.99 603.83 527.88 603.42 528.76 603.01 529.63 602.6 530.51 602.18 530.49 601.13 530.47 600.08 530.46 599.03 530.44 597.98 530.43 596.93 530.42 595.88 530.4 594.83 530.39 593.79 530.39 592.74 530.38 591.69 530.37 590.64 530.36 589.59 530.36 588.54 530.35 587.49 530.35 586.45 530.34 585.4 530.34 584.35 530.34 583.3 530.34 582.25 530.34 581.21 530.34 580.16 530.34 579.11 530.34 578.06 530.34 577.01 530.34 575.97 530.34 574.92 530.34 573.87 530.34 572.82 530.34 571.78 530.35 570.73 530.35 569.68 530.35 568.64 530.36 567.59 530.36 566.54 530.37 565.49 530.37 564.45 530.37 563.4 530.38 562.35 530.38 561.31 530.39 560.26 530.39 559.21 530.4 558.17 530.4 557.12 530.41 556.07 530.42 555.03 530.42 553.98 530.43 552.94 530.43 551.89 530.44 550.84 530.45 549.8 530.45 548.75 530.46 547.71 530.47 546.66 530.47 545.61 530.48 544.57 530.49 543.52 530.49 542.48 530.5 541.43 530.51 540.39 530.51 539.34 530.52 538.29 530.53 537.25 530.54 536.2 530.54 535.16 530.55 534.11 530.56 533.07 530.57 532.02 530.57 530.98 530.58 529.93 530.59 528.89 530.6 527.84 530.61 526.8 530.61 525.75 530.62 524.71 530.63 523.66 530.64 522.62 530.64 521.57 530.65 520.53 530.66 519.48 530.67 518.44 530.68 517.39 530.69 516.35 530.69 515.3 530.7 514.26 530.71 513.21 530.72 512.17 530.73 511.13 530.73 510.08 530.74 509.04 530.75 507.99 530.76 506.95 530.77 505.9 530.78 504.86 530.78 503.82 530.79 502.77 530.8 501.73 530.81 500.68 530.82 499.64 530.83 498.6 530.83 497.55 530.84 496.51 530.85 495.46 530.86 494.42 530.87 493.38 530.88 492.33 530.89 491.29 530.89 490.25 530.9 489.2 530.91 488.16 530.92 487.12 530.93 486.07 530.94 485.03 530.94 483.99 530.95 482.95 530.96 481.9 530.97 480.86 530.98 479.82 530.99 478.78 531 477.73 531 476.69 531.01 475.65 531.02 474.61 531.03 473.57 531.04 472.52 531.05 471.48 531.06 470.44 531.07 469.4 531.07 468.36 530.13 468.59 529.19 468.81 528.25 469.04 527.31 469.28 526.38 469.51 525.44 469.75 524.5 469.99 523.57 470.23 522.64 470.48 521.7 470.73 520.77 470.98 519.84 471.24 518.91 471.49 517.98 471.75 517.05 472.02 516.13 472.28 516.13 470.95 516.13 469.62 516.13 468.28 516.13 466.95 516.13 465.61 516.13 464.28 516.13 462.94 516.13 461.61 516.13 460.27 516.13 458.94 516.13 457.6 516.13 456.27 516.13 454.93 516.13 453.6 516.13 452.26 516.13 450.93 516.13 449.6 516.13 448.26 516.13 446.93 516.13 445.59 516.13 444.26 516.13 442.92 516.13 441.59 516.13 440.25 516.13 438.92 516.13 437.58 516.13 436.25 516.13 434.91 516.13 433.58 516.13 432.24 516.13 430.91 516.13 429.58 517.24 429.15 518.36 428.75 519.48 428.37 520.61 428.01 521.75 427.67 522.89 427.34 524.04 427.02 525.19 426.72 526.34 426.43 527.49 426.14 528.65 425.87 529.81 425.61 530.96 425.36 532.12 425.12 533.29 424.88 534.45 424.66 535.61 424.44 536.77 424.21 537.94 423.99 539.1 423.76 540.26 423.53 541.42 423.29 542.59 423.05 543.75 422.8 544.91 422.55 546.08 422.3 547.24 422.04 548.4 421.78 549.57 421.52 550.73 421.25 551.89 420.99 553.05 420.73 554.22 420.46 555.38 420.2 556.54 419.93 557.71 419.67 558.87 419.41 560.03 419.14 561.2 418.88 562.36 418.62 563.53 418.36 564.69 418.1 565.86 417.84 567.02 417.58 568.19 417.33 569.35 417.08 570.52 416.83 571.68 416.58 572.85 416.33 574.01 416.08 575.18 415.83 576.34 415.58 577.51 415.33 578.68 415.09 579.84 414.84 581.01 414.59 582.17 414.35 583.34 414.1 584.51 413.85 585.67 413.61 586.84 413.36 588 413.12 589.17 412.87 590.33 412.63 590.3 413.34 590.27 414.05 590.24 414.76 590.2 415.47 590.17 416.19 590.14 416.9 590.1 417.61 590.07 418.33 590.04 419.04 590.01 419.76 589.97 420.48 589.94 421.19 589.91 421.91 589.87 422.63 589.84 423.34 589.81 424.06 589.77 424.78 589.74 425.49 589.71 426.21 589.67 426.93 589.64 427.65 589.6 428.37 589.57 429.09 589.54 429.8 589.5 430.52 589.47 431.24 589.43 431.96 589.4 432.68 589.36 433.4 589.33 434.11 589.29 434.83 589.25 435.55 589.67 434.9 590.11 434.25 590.54 433.61 590.99 432.98 591.44 432.35 591.9 431.73 592.36 431.11 592.84 430.5 593.31 429.9 593.8 429.3 594.29 428.71 594.79 428.13 595.3 427.54 595.81 426.97 596.33 426.4 596.86 425.84 597.39 425.28 597.93 424.74 598.47 424.19 599.03 423.65 599.58 423.12 600.15 422.6 600.72 422.08 601.31 421.57 601.89 421.06 602.49 420.56 603.08 420.07 603.7 419.58 604.31 419.1 604.93 418.63 605.55 418.17 606.19 417.71 606.83 417.27 607.48 416.84 608.13 416.43 608.79 416.04 609.45 415.66 610.12 415.31 610.8 414.96 611.48 414.64 612.17 414.32 612.87 414.03 613.56 413.74 614.27 413.47 614.98 413.19 615.7 412.93 616.42 412.67 617.16 412.42 617.89 412.18 618.63 411.96 619.38 411.74 620.13 411.54 620.89 411.34 621.66 411.15 622.42 410.96 623.2 410.8 623.98 410.63 624.77 410.48 625.57 410.34 626.37 410.21 627.17 410.09 627.99 409.99 628.81 409.9 629.63 409.82 629.63 409.82 629.63 409.82 630.73 409.72 631.8 409.66 632.88 409.6 633.93 409.57 634.98 409.55 636.01 409.57 637.04 409.58 638.06 409.63 639.07 409.69 640.06 409.77 641.06 409.86 642.03 409.99 643.01 410.12 643.96 410.28 644.92 410.44 645.86 410.64 646.8 410.84 647.73 411.08 648.66 411.32 649.57 411.59 650.49 411.86 651.39 412.17 652.29 412.48 653.18 412.82 654.08 413.16 654.96 413.53 655.85 413.9 656.73 414.3 657.62 414.7 658.49 415.14 659.38 415.56 660.26 416.02 661.15 416.48 662.02 416.96 662.91 417.43 663.79 417.92 664.67 418.41 665.54 418.92 666.43 419.43 667.29 419.95 668.17 420.48 669.02 421.02 669.88 421.55 670.72 422.11 671.55 422.66 672.36 423.24 673.16 423.81 673.93 424.39 674.68 424.98 675.4 425.58 676.11 426.18 676.77 426.81 677.42 427.42 678.02 428.06 678.61 428.7 679.16 429.35 679.69 430.01 680.18 430.68 680.65 431.35 681.08 432.05 681.5 432.74 681.87 433.45 682.23 434.16 682.55 434.9 682.86 435.63 683.13 436.38 683.39 437.13 683.61 437.89 683.83 438.64 684 439.42 684.17 440.19 684.3 440.98 684.43 441.76 684.52 442.57 684.6 443.37 684.65 444.18 684.69 445 684.7 445.83 684.7 446.66 684.67 447.51 684.64 448.35 684.56 449.22 684.49 450.08 684.38 450.95 684.26 451.83 684.12 452.73 683.97 453.62 683.78 454.53 683.59 455.43 683.37 456.36 683.15 457.29 682.9 458.23 682.61 459.18 682.26 460.15 681.91 461.12 681.59 462.1 681.59 462.1 681.59 462.1 681.26 463.07 680.96 464.03 680.65 464.98 680.29 465.94 679.91 466.9 679.5 467.86 679.1 468.82 678.66 469.78 678.22 470.73 677.76 471.68 677.3 472.63 676.81 473.58 676.33 474.53 675.81 475.47 675.3 476.41 674.77 477.35 674.23 478.29 673.67 479.23 673.11 480.17 672.53 481.1 671.95 482.03 671.34 482.97 670.73 483.9 670.11 484.82 669.48 485.75 668.83 486.68 668.18 487.61 667.5 488.53 666.83 489.46 666.14 490.38 665.44 491.3 664.73 492.22 664.01 493.15 663.28 494.06 662.55 494.97 661.8 495.88 661.06 496.78 660.29 497.68 659.53 498.57 658.76 499.46 657.98 500.34 657.19 501.22 656.4 502.1 655.6 502.97 654.8 503.85 653.98 504.71 653.17 505.58 652.34 506.44 651.52 507.3 650.68 508.15 649.85 509.01 649.01 509.86 648.16 510.71 647.31 511.56 646.46 512.41 645.6 513.25 644.74 514.1 643.88 514.94 643.01 515.78 642.14 516.62 641.27 517.47 640.4 518.3 639.52 519.15 638.64 519.98 637.76 520.83 636.88 521.65 636.01 522.48 635.13 523.3 634.26 524.11 633.39 524.92 632.52 525.72 631.65 526.51 630.79 527.31 629.92 528.08 629.06 528.87 628.2 529.63 627.34 530.4 626.48 531.15 625.62 531.9 624.76 532.64 623.9 533.38 623.04 534.1 622.19 534.82 621.33 535.53 620.47 536.23 619.61 536.92 618.75 537.61 617.88 538.28 617.02 538.95 616.15 539.6 615.28 540.25 614.41 540.88 613.54 541.5 612.66 542.11 611.78 542.72 610.89 543.3 610.89 543.3 610.89 543.3 610.28 543.7 609.68 544.08 609.08 544.45 608.49 544.81 607.9 545.16 607.32 545.49 606.74 545.82 606.17 546.13 605.6 546.43 605.04 546.72 604.48 547 603.92 547.25 603.37 547.51 602.83 547.74 602.29 547.97 601.75 548.17 601.22 548.37 600.69 548.55 600.16 548.73 599.65 548.88 599.13 549.03 598.62 549.16 598.11 549.28 597.61 549.38 597.1 549.48 596.61 549.55 596.11 549.62 595.63 549.66 595.14 549.7 594.66 549.72 594.18 549.74 593.7 549.72 593.23 549.71 592.77 549.68 592.3 549.65 591.85 549.6 591.4 549.55 590.95 549.48 590.51 549.41 590.08 549.32 589.65 549.23 589.22 549.13 588.8 549.02 588.39 548.89 587.98 548.77 587.58 548.62 587.18 548.48 586.79 548.31 586.4 548.15 586.02 547.97 585.64 547.78 585.27 547.58 584.53 547.18 583.84 546.7 583.14 546.22 582.49 545.68 581.84 545.12 581.23 544.5 581.23 544.5 581.23 544.5 581.16 545.42 581.08 546.35 581 547.27 580.92 548.19 580.85 549.11 580.77 550.04 580.7 550.96 580.62 551.89 580.54 552.81 580.47 553.74 580.39 554.66 580.32 555.59 580.25 556.52 580.17 557.45 580.1 558.37 580.03 559.3 579.95 560.23 579.88 561.16 579.81 562.09 579.74 563.02 579.67 563.95 579.6 564.89 579.53 565.82 579.46 566.75 579.39 567.68 579.32 568.62 579.26 569.55 579.19 570.49 579.12 571.43 579.06 572.36 578.99 573.3 578.93 574.24 579.7 573.72 580.47 573.2 581.24 572.67 582.01 572.14 582.78 571.62 583.55 571.09 584.32 570.56 585.09 570.03 585.85 569.5 586.62 568.96 587.38 568.43 588.15 567.9 588.91 567.36 589.67 566.82 590.43 566.28 591.19 565.74 591.06 567 590.93 568.26 590.8 569.52 590.67 570.78 590.54 572.05 590.41 573.32 590.29 574.59 590.17 575.86 590.05 577.13 589.93 578.41 589.81 579.69 589.7 580.97 589.59 582.25 589.48 583.54 589.37 584.83 589.27 586.12 589.16 587.41 589.06 588.7 588.96 590 588.86 591.3 588.76 592.6 588.67 593.9 588.57 595.2 588.48 596.5 588.39 597.81 588.3 599.11 588.21 600.42 588.11 601.72 588.02 603.02 587.93 604.33 587.83 605.62 587.74 606.79 587.25 607.24 586.76 607.69 586.27 608.15 585.78 608.6 585.28 609.05 584.79 609.49 584.29 609.94 583.79 610.38 583.3 610.83 582.8 611.27 582.3 611.72 581.81 612.16 581.31 612.61 580.8 613.04 580.3 613.48 579.8 613.92 579.29 614.36 578.79 614.79 578.29 615.23 577.78 615.67 577.28 616.11 576.77 616.54 576.26 616.96 575.75 617.39 575.24 617.82 574.73 618.25 574.21 618.68 573.7 619.11 573.19 619.54 572.68 619.96 572.16 620.39 571.64 620.81 571.13 621.23 570.61 621.65 570.09 622.07 569.58 622.49 569.06 622.91 568.54 623.33 568.01 623.74 567.49 624.16 566.97 624.57 566.44 624.98 565.92 625.4 565.4 625.81 564.87 626.22 564.35 626.63 563.82 627.04 563.29 627.44 562.76 627.85 562.23 628.25 561.7 628.66 561.17 629.06 560.64 629.47 560.1 629.87 559.57 630.27 559.03 630.67 558.5 631.06 557.96 631.46 557.42 631.86 556.89 632.25 556.35 632.65 555.81 633.05 555.27 633.44 554.73 633.83 554.19 634.21 553.64 634.6 553.1 634.99 552.56 635.38 552.02 635.77 551.47 636.16 550.93 636.54 550.38 636.92 549.83 637.3 549.28 637.68 548.73 638.06 548.19 638.44 547.64 638.82 547.09 639.2 546.54 639.57 545.98 639.94 545.43 640.32 544.87 640.69 544.32 641.06 543.77 641.43 543.21 641.8 542.66 642.17 542.1 642.54 541.54 642.9 540.98 643.27 540.42 643.63 539.86 643.99 539.3 644.35 538.74 644.72 538.18 645.08 537.62 645.44 537.05 645.8 536.49 646.15 535.92 646.5 535.36 646.86 534.79 647.21 534.22 647.56 533.66 647.92 533.09 648.27 532.52 648.62 531.95 648.96 531.38 649.31 530.81 649.65 530.24 650 529.67 650.34 529.09 650.69 528.52 651.03 527.95 651.37 527.37 651.71 526.8 652.04 526.22 652.38 525.64 652.72 525.07 653.05 524.49 653.39 523.91 653.72 523.33 654.06 522.75 654.38 522.17 654.71 521.59 655.04 521.01 655.36 520.42 655.69 519.84 656.02 519.26 656.35 518.71 656.67 518.71 656.67 518.71 656.67M598.74 516.63Q599.36 516.37 599.96 516.08 600.56 515.79 601.15 515.48 601.74 515.16 602.32 514.82 602.89 514.48 603.45 514.11 604.58 513.38 605.65 512.55 606.72 511.71 607.73 510.78 608.75 509.85 609.71 508.82 610.68 507.8 611.59 506.67 612.5 505.55 613.36 504.34 614.23 503.12 615.03 501.81 615.44 501.16 615.82 500.5 616.21 499.83 616.59 499.15 616.97 498.48 617.33 497.79 617.69 497.1 618.03 496.4 618.38 495.7 618.71 494.98 619.04 494.27 619.35 493.55 619.67 492.82 619.97 492.08 620.27 491.35 620.55 490.59 620.83 489.84 621.1 489.08 621.37 488.31 621.62 487.54 621.86 486.76 622.1 485.97 622.33 485.18 622.54 484.37 622.76 483.56 622.95 482.74 623.15 481.92 623.32 481.09 623.5 480.25 623.66 479.4 623.81 478.55 623.95 477.68 623.95 477.68 623.95 477.68 624.09 476.78 624.2 475.91 624.32 475.04 624.4 474.2 624.48 473.36 624.54 472.54 624.59 471.73 624.62 470.94 624.64 470.15 624.64 469.39 624.63 468.63 624.6 467.89 624.56 467.16 624.5 466.45 624.44 465.74 624.35 465.06 624.25 464.37 624.13 463.71 624.01 463.06 623.86 462.42 623.72 461.79 623.54 461.18 623.36 460.58 623.16 459.99 622.95 459.41 622.72 458.85 622.49 458.3 622.23 457.76 621.97 457.23 621.68 456.73 621.39 456.22 621.08 455.74 620.76 455.25 620.43 454.8 620.1 454.35 619.75 453.94 619.04 453.11 618.27 452.42 617.5 451.73 616.66 451.18 615.82 450.63 614.91 450.22 614 449.81 613.03 449.54 612.05 449.28 611.01 449.16 609.97 449.04 608.87 449.07 607.77 449.1 606.61 449.28 606.61 449.28 606.61 449.28 605.82 449.4 605.05 449.57 604.28 449.74 603.53 449.96 602.77 450.18 602.04 450.46 601.3 450.73 600.58 451.05 599.87 451.37 599.17 451.74 598.46 452.12 597.78 452.54 597.1 452.97 596.43 453.44 595.76 453.92 595.11 454.45 594.46 454.98 593.86 455.54 593.25 456.1 592.69 456.68 592.13 457.26 591.62 457.87 591.11 458.48 590.64 459.12 590.17 459.76 589.75 460.42 589.32 461.09 588.94 461.78 588.56 462.47 588.23 463.18 587.89 463.9 587.6 464.64 587.6 464.64 587.6 464.64 587.56 465.37 587.51 466.1 587.46 466.83 587.41 467.57 587.36 468.3 587.32 469.03 587.27 469.76 587.22 470.49 587.17 471.22 587.12 471.96 587.07 472.69 587.02 473.42 586.97 474.15 586.92 474.89 586.87 475.62 586.81 476.35 586.76 477.08 586.71 477.81 586.66 478.55 586.61 479.28 586.55 480.01 586.5 480.74 586.45 481.48 586.39 482.21 586.34 482.94 586.28 483.67 586.23 484.41 586.18 485.14 586.12 485.87 586.06 486.6 586.01 487.34 585.95 488.07 585.9 488.8 585.84 489.53 585.79 490.27 585.73 491 585.67 491.73 585.61 492.47 585.56 493.2 585.5 493.93 585.44 494.67 585.38 495.4 585.33 496.13 585.27 496.87 585.21 497.6 585.15 498.33 585.09 499.07 585.03 499.8 584.97 500.53 584.91 501.27 584.85 502 584.79 502.73 584.73 503.47 584.67 504.2 584.61 504.94 584.55 505.67 584.49 506.4 584.43 507.14 584.37 507.87 584.3 508.61 584.24 509.34 584.18 510.07 584.12 510.81 584.06 511.54 584.31 512.16 584.59 512.71 584.87 513.27 585.17 513.77 585.47 514.27 585.8 514.71 586.13 515.15 586.49 515.54 586.84 515.92 587.22 516.25 587.6 516.58 588 516.85 588.41 517.12 588.84 517.33 589.27 517.54 589.72 517.7 590.18 517.86 590.66 517.96 591.14 518.06 591.65 518.1 592.16 518.14 592.7 518.13 593.23 518.12 593.79 518.05 594.36 517.98 594.95 517.86 595.54 517.73 596.15 517.56 596.77 517.38 597.42 517.15 598.06 516.92 598.74 516.63 598.74 516.63 598.74 516.63 598.74 516.63 598.74 516.63"></path></svg>