<svg xmlns="http://www.w3.org/2000/svg" data-media-id="W0Zy6EdQWvw" style="visibility: visible" viewBox="18.239999771118164 -4.634444415569305 678.489990234375 703.9244384765625" width="683.489990234375px" height="708.9244384765625px" media="214" id="warpedSvg2">
        <defs>
            <linearGradient id="sampleGradient" gradientTransform="rotate(1)" x1="0%" y1="50%" x2="100%" y2="50%" gradientUnits="userSpaceOnUse">
                <stop offset="0%" id="first_color" stop-color="#6b6fff"></stop>
                <stop offset="100%" id="second_color" stop-color="#bc91c1"></stop>
            </linearGradient>
            <filter id="contrast">
                <feComponentTransfer>
                    <feFuncR type="linear" id="filter_R" slope="1.25"></feFuncR>
                    <feFuncG type="linear" id="filter_G" slope="1.25"></feFuncG>
                    <feFuncB type="linear" id="filter_B" slope="1.25"></feFuncB>
                </feComponentTransfer>
            </filter>
        </defs>
    <path fill="#f08816" d="M26.65 215.85Q27.53 213.81 28.4 211.75 29.29 209.7 30.2 207.66 31.11 205.62 32.05 203.6 32.98 201.57 33.94 199.55 34.91 197.54 35.89 195.53 36.89 193.53 37.89 191.54 38.91 189.55 39.94 187.57 40.98 185.6 42.05 183.63 43.11 181.67 44.2 179.72 45.29 177.77 46.4 175.83 47.52 173.9 48.65 171.97 49.8 170.06 50.95 168.15 52.12 166.24 53.3 164.35 54.49 162.46 55.7 160.58 56.91 158.71 58.14 156.84 59.39 154.99 60.63 153.13 61.9 151.3 63.18 149.46 64.46 147.64 65.77 145.82 67.07 144.01 68.4 142.21 69.73 140.42 71.08 138.64 72.43 136.86 73.8 135.09 75.18 133.34 76.56 131.59 77.97 129.85 79.38 128.12 80.8 126.4 82.24 124.69 83.68 122.98 85.14 121.29 86.6 119.6 88.08 117.93 89.57 116.26 91.06 114.6 92.57 112.96 94.09 111.32 95.62 109.69 97.16 108.08 98.71 106.46 100.27 104.87 101.84 103.28 103.42 101.7 105.01 100.13 106.39 98.82 106.3 99.85 106.23 100.89 106.16 101.93 106.09 102.97 106.02 104.01 105.95 105.05 105.88 106.09 105.81 107.13 105.74 108.17 105.67 109.21 105.6 110.25 105.53 111.29 105.47 112.33 105.4 113.37 105.33 114.42 105.26 115.46 103.62 117.23 101.76 119.25 99.89 121.29 98.03 123.35 96.16 125.44 94.29 127.54 92.43 129.67 90.56 131.81 88.7 133.97 86.85 136.14 85 138.33 83.16 140.54 81.33 142.76 79.5 144.99 77.69 147.24 75.89 149.51 75.9 150.4 75.91 151.29 75.91 152.18 75.9 153.06 75.9 153.95 75.88 154.83 75.87 155.71 75.85 156.58 75.82 157.46 75.79 158.33 75.76 159.2 75.73 160.07 75.69 160.93 75.65 161.8 75.61 162.66 75.57 163.52 75.52 164.38 75.47 165.24 75.42 166.1 75.37 166.96 75.32 167.81 75.27 168.67 75.22 169.52 75.16 170.37 75.11 171.23 75.05 172.08 74.99 172.93 74.94 173.78 74.88 174.62 74.82 175.47 74.76 176.32 74.71 177.16 74.65 178.01 74.59 178.85 74.54 179.7 74.48 180.54 74.42 181.39 74.37 182.23 74.31 183.07 74.26 183.91 74.2 184.75 74.15 185.59 74.1 186.44 74.04 187.28 73.99 188.12 73.94 188.95 73.89 189.79 73.84 190.63 73.79 191.47 73.74 192.31 73.69 193.15 73.64 193.99 73.59 194.82 73.54 195.66 73.49 196.5 73.45 197.33 73.4 198.17 73.35 199.01 73.31 199.84 73.26 200.68 73.22 201.52 73.17 202.35 73.13 203.19 73.08 204.02 73.04 204.86 72.99 205.69 72.95 206.53 72.91 207.36 72.87 208.2 72.82 209.03 72.78 209.87 72.74 210.7 72.7 211.54 72.65 212.37 72.61 213.21 72.57 214.04 72.53 214.87 72.49 215.71 72.45 216.54 72.41 217.38 72.37 218.21 72.33 219.04 72.29 219.88 72.25 220.71 72.21 221.55 72.17 222.38 72.13 223.21 72.1 224.05 72.06 224.88 72.02 225.72 71.98 226.55 71.94 227.38 71.91 228.22 71.87 229.05 71.83 229.88 71.8 230.72 71.76 231.55 71.72 232.39 71.69 233.22 71.65 234.05 71.62 234.89 71.58 235.72 71.55 236.55 71.51 237.39 71.48 238.22 71.44 239.06 71.41 239.89 71.38 240.72 71.34 241.56 71.31 242.39 71.28 243.22 71.24 244.06 71.21 244.89 71.18 245.73 71.15 246.56 71.11 247.39 71.08 248.23 71.05 249.06 71.02 249.9 70.99 250.73 70.96 251.57 70.93 252.4 70.9 253.23 70.87 254.07 70.84 254.9 70.81 255.74 70.78 256.57 70.75 257.41 70.72 258.24 70.69 259.08 70.66 259.91 70.64 260.75 70.61 261.58 70.58 262.41 70.55 263.25 70.53 264.08 70.5 264.92 70.47 265.76 70.45 266.59 70.42 267.43 70.39 268.26 70.37 269.1 70.34 269.93 70.32 270.77 70.29 271.6 70.27 272.44 70.24 273.28 70.22 274.11 70.19 274.95 70.17 275.78 70.15 276.62 70.12 277.46 70.1 278.29 70.08 279.13 70.06 279.97 70.03 280.8 70.01 281.64 69.99 282.48 69.97 283.31 69.95 284.15 69.92 284.99 69.9 285.83 69.88 286.66 69.86 287.5 69.84 288.34 69.82 289.18 69.8 290.01 69.78 290.85 69.76 291.69 69.74 292.53 69.72 293.37 69.71 294.21 69.69 295.05 69.67 295.88 69.65 296.72 69.63 297.56 69.62 298.4 69.6 299.24 69.58 300.08 69.56 300.92 69.55 301.76 69.53 302.6 69.51 303.44 69.5 304.29 69.48 305.13 69.47 305.97 69.45 306.81 69.44 307.65 69.42 308.49 69.41 309.34 69.39 310.18 69.38 311.02 69.36 311.86 69.35 312.71 69.33 313.55 69.32 314.39 69.31 315.24 69.29 316.08 69.28 316.93 69.27 317.77 69.25 318.62 69.24 319.46 69.23 320.31 69.22 321.16 69.2 322 69.19 322.85 69.18 323.7 69.17 324.54 69.16 325.39 69.15 326.24 69.13 327.09 69.12 327.94 69.11 328.79 69.1 329.64 69.09 330.49 69.08 331.34 69.07 332.19 69.06 333.04 69.05 333.89 69.03 334.74 69.02 335.6 69.01 336.45 69 337.3 68.99 338.15 68.98 339.01 68.97 339.86 68.96 340.71 68.95 341.57 68.94 342.42 68.93 343.27 68.92 344.13 68.9 344.98 68.89 345.83 68.88 346.68 68.87 347.54 68.86 348.39 68.85 349.24 68.83 350.09 68.82 350.94 68.81 351.79 68.79 352.63 68.78 353.48 68.77 354.32 68.75 355.16 68.74 356 68.72 356.84 68.71 357.68 68.69 358.51 68.67 359.34 68.66 360.17 68.64 360.99 68.62 361.81 68.6 362.63 68.58 363.45 68.56 364.26 68.54 364.92 66.38 364.92 64.23 364.92 62.07 364.92 59.91 364.92 57.75 364.92 55.6 364.92 53.44 364.92 51.28 364.92 49.12 364.92 46.97 364.92 44.81 364.92 42.65 364.92 40.49 364.92 38.34 364.92 36.18 364.92 34.02 364.92 34.04 364.26 34.07 363.44 34.1 362.64 34.12 361.83 34.15 361.03 34.17 360.23 34.2 359.44 34.22 358.64 34.25 357.85 34.27 357.06 34.29 356.28 34.31 355.5 34.33 354.72 34.35 353.94 34.37 353.17 34.39 352.4 34.41 351.64 34.42 350.88 34.44 350.12 34.46 349.37 34.47 348.62 34.49 347.87 34.5 347.13 34.52 346.39 34.53 345.66 34.55 344.92 34.56 344.19 34.58 343.47 34.59 342.74 34.61 342.02 34.62 341.3 34.63 340.59 34.65 339.87 34.66 339.16 34.68 338.45 34.69 337.74 34.71 337.03 34.72 336.33 34.74 335.62 34.76 334.92 34.77 334.22 34.79 333.52 34.81 332.82 34.82 332.12 34.84 331.42 34.86 330.72 34.88 330.02 34.9 329.33 34.92 328.63 34.94 327.94 34.96 327.25 34.98 326.55 35 325.86 35.02 325.17 35.04 324.48 35.07 323.79 35.09 323.09 35.11 322.4 35.14 321.71 35.16 321.02 35.18 320.34 35.21 319.65 35.24 318.96 35.26 318.27 35.29 317.58 35.32 316.89 35.34 316.2 35.37 315.52 35.4 314.83 35.43 314.14 35.46 313.46 35.49 312.77 35.52 312.08 35.55 311.4 35.58 310.71 35.61 310.02 35.65 309.34 35.68 308.65 35.71 307.97 35.75 307.28 35.78 306.59 35.82 305.91 35.85 305.22 35.89 304.54 35.93 303.85 35.96 303.17 36 302.48 36.04 301.8 36.08 301.12 36.12 300.43 36.16 299.75 36.2 299.06 36.24 298.38 36.28 297.69 36.32 297.01 36.37 296.33 36.41 295.64 36.45 294.96 36.5 294.28 36.54 293.59 36.59 292.91 36.64 292.22 36.68 291.54 36.73 290.86 36.78 290.18 36.82 289.49 36.87 288.81 36.92 288.13 36.97 287.44 37.02 286.76 37.07 286.08 37.12 285.4 37.18 284.71 37.23 284.03 37.28 283.35 37.34 282.67 37.39 281.99 37.44 281.3 37.5 280.62 37.55 279.94 37.61 279.26 37.67 278.58 37.73 277.89 37.78 277.21 37.84 276.53 37.9 275.85 37.96 275.17 38.02 274.49 38.08 273.81 38.14 273.13 38.2 272.45 38.27 271.77 38.33 271.08 38.39 270.4 38.46 269.72 38.52 269.04 38.59 268.36 38.65 267.68 38.72 267 38.78 266.32 38.85 265.64 38.92 264.96 38.99 264.28 39.06 263.61 39.12 262.93 39.19 262.25 39.27 261.57 39.34 260.89 39.41 260.21 39.48 259.53 39.55 258.85 39.63 258.17 39.7 257.49 39.77 256.82 39.85 256.14 39.92 255.46 40 254.78 40.08 254.1 40.15 253.43 40.23 252.75 40.31 252.07 40.39 251.39 40.47 250.72 40.55 250.04 40.63 249.36 40.71 248.68 40.79 248.01 40.87 247.33 40.95 246.65 41.04 245.98 41.12 245.3 41.2 244.62 41.29 243.95 41.37 243.27 41.46 242.59 41.54 241.92 41.63 241.24 41.72 240.57 41.81 239.89 41.89 239.22 41.98 238.54 42.07 237.86 42.16 237.19 42.25 236.51 42.34 235.84 42.44 235.16 42.53 234.49 42.62 233.81 42.71 233.14 42.81 232.46 42.9 231.79 43 231.12 43.09 230.44 43.19 229.77 43.28 229.09 43.38 228.42 43.48 227.74 43.57 227.07 43.67 226.4 43.77 225.72 43.87 225.05 43.97 224.37 44.07 223.7 44.17 223.03 44.27 222.35 44.37 221.68 44.47 221 44.57 220.33 44.67 219.66 44.78 218.98 44.88 218.31 44.98 217.63 45.08 216.96 45.19 216.28 45.29 215.61 45.39 214.93 45.5 214.26 45.6 213.58 45.71 212.91 45.81 212.23 45.91 211.56 46.02 210.88 46.12 210.2 46.23 209.53 46.33 208.85 46.43 208.17 46.53 207.49 46.64 206.81 46.74 206.14 46.84 205.45 46.94 204.77 47.04 204.09 47.14 203.41 47.24 202.73 47.33 202.04 47.43 201.35 47.52 200.67 47.61 199.98 47.7 199.29 47.79 198.6 47.88 197.9 47.96 197.21 48.05 196.51 48.13 195.81 48.2 195.11 48.27 194.4 48.34 193.7 48.41 192.99 48.47 192.27 48.53 191.55 48.58 190.83 48.63 190.11 48.67 189.37 48.71 188.64 48.74 187.9 48.76 187.15 47.16 189.56 45.58 191.97 44 194.39 42.43 196.79 40.86 199.2 39.29 201.59 37.73 203.98 36.16 206.36 34.59 208.71 33.01 211.05 31.42 213.37 29.82 215.66 28.2 217.92 26.56 220.15 24.91 222.34 23.24 224.49 23.45 223.95 23.65 223.41 23.86 222.87 24.07 222.33 24.28 221.78 24.49 221.24 24.7 220.7 24.92 220.17 25.14 219.63 25.36 219.09 25.57 218.55 25.79 218.01 26.01 217.48 26.22 216.94 26.44 216.4 26.65 215.85 26.65 215.85 26.65 215.85M220.44 59.7Q220.42 61.07 220.39 62.44 220.37 63.81 220.35 65.18 220.33 66.55 220.3 67.92 220.28 69.28 220.26 70.65 220.23 72.02 220.21 73.39 220.19 74.76 220.17 76.13 220.14 77.5 220.12 78.87 220.1 80.24 220.07 81.61 220.05 82.97 220.03 84.34 220.01 85.71 219.98 87.08 219.96 88.45 219.94 89.82 219.91 91.19 219.89 92.56 219.88 93.93 219.88 95.3 219.88 96.66 219.88 98.03 219.88 99.4 219.88 100.77 219.88 102.14 219.88 103.51 219.88 104.88 219.88 106.25 219.88 107.62 219.88 108.99 219.88 110.36 219.88 111.72 219.88 113.09 219.88 114.46 219.88 115.83 219.88 117.2 219.88 118.57 219.88 119.94 219.88 121.31 219.88 122.68 219.88 124.05 219.88 125.42 219.88 126.78 219.88 128.15 219.88 129.52 219.88 130.89 219.88 132.26 219.88 133.63 219.88 135 219.88 136.37 219.88 137.74 219.88 139.11 219.88 140.48 219.88 141.85 219.88 143.21 219.88 144.58 219.88 145.95 219.88 147.32 217.79 148.12 215.38 149.04 212.98 149.96 210.58 150.89 208.18 151.82 205.78 152.75 203.38 153.68 200.98 154.61 198.58 155.55 196.18 156.49 193.78 157.44 191.38 158.38 188.98 159.33 186.58 160.27 184.18 161.23 181.78 162.18 181.78 160.9 181.78 159.63 181.77 158.36 181.77 157.08 181.77 155.81 181.77 154.53 181.77 153.26 181.77 151.98 181.77 150.71 181.77 149.43 181.76 148.16 181.76 146.88 181.76 145.61 181.76 144.33 181.76 143.06 181.76 141.78 181.76 140.5 181.76 139.23 181.75 137.95 181.75 136.67 181.75 135.4 181.75 134.12 181.75 132.84 181.75 131.56 181.75 130.28 181.75 129 181.75 127.73 181.74 126.45 181.74 125.17 181.74 123.89 181.74 122.61 181.74 121.32 181.74 120.04 181.74 118.76 181.74 117.48 181.74 116.2 181.74 114.91 181.74 113.63 181.74 112.34 181.73 111.06 181.73 109.77 181.73 108.49 181.73 107.2 181.73 105.91 181.73 104.62 181.73 103.33 181.73 102.04 181.72 100.75 181.72 99.45 181.72 98.16 181.72 96.86 181.71 95.56 181.71 94.27 181.7 92.97 181.69 91.66 181.69 90.36 181.68 89.05 181.67 87.75 181.66 86.44 181.65 85.12 181.63 83.81 181.62 82.49 181.6 81.17 181.58 79.85 181.55 77.94 181.23 76.47 180.91 75 180.31 73.98 179.7 72.96 178.81 72.4 177.91 71.83 176.74 71.73 174.38 71.53 171.84 72.23 169.29 72.95 166.57 74.59 166.57 74.59 166.57 74.59 163.84 76.24 161.39 78.52 158.94 80.8 156.76 83.67 155.67 85.09 154.87 86.62 154.07 88.14 153.55 89.76 153.03 91.37 152.8 93.08 152.56 94.77 152.6 96.57 152.6 96.57 152.6 96.57 152.63 97.9 152.67 99.2 152.7 100.5 152.75 101.78 152.79 103.06 152.84 104.31 152.9 105.56 152.96 106.79 153.02 108.02 153.09 109.22 153.16 110.43 153.24 111.62 153.33 112.8 153.42 113.96 153.51 115.13 153.61 116.27 153.71 117.41 153.82 118.54 153.93 119.66 154.06 120.76 154.18 121.87 154.31 122.95 154.45 124.04 154.59 125.11 154.74 126.17 154.89 127.22 155.05 128.27 155.22 129.3 155.38 130.33 155.56 131.34 155.74 132.36 155.93 133.35 156.12 134.35 156.32 135.33 156.51 136.31 156.72 137.28 156.92 138.25 157.13 139.21 157.34 140.17 157.56 141.12 157.77 142.06 158 142.99 158.22 143.93 158.45 144.85 158.68 145.77 158.92 146.68 159.16 147.59 159.41 148.49 159.65 149.38 159.9 150.27 160.16 151.16 160.41 152.03 160.93 153.78 161.48 155.48 162.02 157.18 162.6 158.84 163.17 160.5 163.78 162.1 164.38 163.72 165 165.29 165.62 166.87 166.25 168.4 166.89 169.93 167.55 171.43 168.21 172.92 168.88 174.37 169.56 175.83 170.25 177.25 170.95 178.66 171.66 180.04 172.38 181.42 173.11 182.75 173.84 184.09 174.59 185.39 175.35 186.69 176.1 187.97 176.85 189.25 177.6 190.5 178.35 191.76 179.1 192.99 179.86 194.22 180.61 195.42 181.36 196.63 182.11 197.82 182.86 199 183.61 200.16 184.36 201.32 185.12 202.45 185.87 203.59 186.62 204.69 186.62 204.69 186.62 204.69 187.22 205.56 187.83 206.48 188.45 207.39 189.08 208.35 189.71 209.31 190.36 210.3 191.01 211.31 191.68 212.35 192.34 213.39 193.03 214.48 193.71 215.57 194.41 216.7 195.11 217.83 195.82 219.01 196.54 220.19 197.27 221.41 198 222.64 198.72 223.94 199.44 225.25 200.15 226.64 200.86 228.02 201.55 229.49 202.25 230.96 202.93 232.5 203.62 234.06 204.29 235.68 204.96 237.32 205.62 239.03 206.28 240.74 206.93 242.53 207.58 244.33 208.22 246.2 208.86 248.08 209.47 250.05 210.08 252.03 210.66 254.1 210.96 255.14 211.24 256.2 211.53 257.26 211.81 258.34 212.09 259.43 212.36 260.54 212.63 261.65 212.9 262.78 213.17 263.92 213.43 265.08 213.69 266.24 213.94 267.42 214.19 268.6 214.44 269.81 214.69 271.02 214.93 272.25 215.17 273.49 215.4 274.74 215.64 276 215.87 277.28 216.09 278.56 216.31 279.87 216.53 281.17 216.75 282.5 216.96 283.83 217.17 285.19 217.37 286.55 217.56 287.95 217.74 289.34 217.92 290.77 218.09 292.19 218.26 293.65 218.42 295.1 218.56 296.59 218.71 298.08 218.85 299.6 218.98 301.12 219.1 302.67 219.22 304.22 219.33 305.8 219.44 307.38 219.53 308.99 219.62 310.61 219.7 312.25 219.79 313.89 219.85 315.56 219.92 317.24 219.97 318.94 220.03 320.64 220 322.38 219.96 324.12 219.94 325.89 219.91 327.66 219.9 329.45 219.88 331.24 219.88 333.06 219.88 333.06 219.88 333.06 219.88 335.36 219.91 337.5 219.63 339.66 219.07 341.68 218.51 343.69 217.68 345.56 216.85 347.42 215.73 349.12 214.63 350.8 213.35 352.33 212.06 353.84 210.6 355.17 209.13 356.49 207.49 357.63 205.84 358.75 204.01 359.72 202.19 360.68 200.24 361.5 198.29 362.33 196.22 363.02 194.15 363.72 191.96 364.29 189.77 364.86 187.45 365.31 185.14 365.75 182.8 366.09 180.46 366.42 178.1 366.61 175.75 366.69 173.36 366.65 170.98 366.39 168.58 366.19 168.58 366.19 168.58 366.19 166.17 365.99 163.78 365.99 161.37 365.88 159 365.66 156.62 365.43 154.27 365.1 151.92 364.77 149.6 364.31 147.28 363.84 145.08 363.2 142.88 362.51 140.79 361.7 138.7 360.91 136.72 360.04 134.74 359.21 132.87 358.28 131.01 357.37 129.32 356.36 127.63 355.37 126.11 354.28 124.59 353.2 123.25 352.02 121.91 350.84 120.74 349.55 119.57 348.26 118.67 346.84 117.78 345.43 117.15 343.88 116.53 342.33 116.18 340.64 115.83 338.96 115.75 337.12 115.75 337.12 115.75 337.12 115.71 336.03 115.66 334.94 115.62 333.85 115.57 332.75 115.53 331.66 115.48 330.57 115.44 329.48 115.39 328.38 115.35 327.29 115.3 326.2 115.26 325.11 115.21 324.01 115.17 322.92 115.13 321.83 115.08 320.74 115.04 319.65 114.99 318.55 114.95 317.46 114.9 316.37 114.86 315.28 114.81 314.18 114.77 313.09 114.72 312 114.68 310.91 114.65 309.82 114.65 308.72 114.65 307.63 114.65 306.54 114.65 305.45 114.65 304.35 114.65 303.26 114.65 302.17 114.65 301.08 114.65 299.99 114.65 298.89 114.65 297.8 114.65 296.71 114.65 295.62 114.65 294.52 114.65 293.43 114.65 292.34 114.65 291.25 114.65 290.16 114.65 289.06 114.65 287.97 114.65 286.88 114.65 285.79 114.65 284.7 114.65 283.6 114.65 282.51 114.65 281.42 114.65 280.33 114.65 279.23 114.65 278.14 114.65 277.05 114.65 275.96 114.65 274.87 114.65 273.77 114.65 272.68 114.65 271.59 114.65 270.5 114.65 269.41 114.65 268.31 114.65 267.22 117.05 266.7 119.45 266.18 121.85 265.67 124.25 265.15 126.66 264.64 129.06 264.14 131.46 263.63 133.86 263.13 136.27 262.63 138.67 262.13 141.07 261.63 143.47 261.14 145.87 260.64 148.27 260.15 150.68 259.66 153.08 259.17 153.08 260.36 153.08 261.55 153.08 262.74 153.09 263.93 153.09 265.13 153.09 266.32 153.09 267.51 153.1 268.7 153.1 269.89 153.1 271.08 153.11 272.27 153.11 273.46 153.11 274.66 153.12 275.85 153.12 277.04 153.12 278.23 153.13 279.42 153.13 280.61 153.14 281.8 153.14 282.99 153.15 284.18 153.15 285.37 153.16 286.56 153.17 287.75 153.17 288.94 153.18 290.14 153.19 291.33 153.2 292.52 153.2 293.71 153.21 294.9 153.22 296.09 153.23 297.28 153.24 298.47 153.25 299.66 153.27 300.85 153.28 302.04 153.29 303.23 153.31 304.42 153.32 305.61 153.34 306.8 153.35 307.99 153.37 309.17 153.39 310.36 153.4 311.55 153.42 312.74 153.44 313.93 153.46 315.12 153.48 316.31 153.5 317.5 153.52 318.69 153.55 319.88 153.57 321.07 153.59 322.26 153.61 323.44 153.64 324.63 153.66 325.82 153.68 327.01 153.71 328.2 153.73 329.39 153.76 330.58 153.78 331.77 153.81 332.96 153.83 334.14 153.86 335.33 153.9 337.05 154.21 338.49 154.51 339.94 155.09 341.13 155.67 342.32 156.52 343.24 157.37 344.18 158.49 344.85 160.73 346.2 163.18 346.89 165.63 347.59 168.28 347.61 168.28 347.61 168.28 347.61 170.93 347.62 173.35 346.94 175.77 346.25 177.96 344.85 179.06 344.14 179.88 343.16 180.7 342.17 181.24 340.9 181.78 339.63 182.04 338.08 182.3 336.53 182.29 334.7 182.29 334.7 182.29 334.7 182.27 333.06 182.24 331.45 182.21 329.84 182.17 328.25 182.13 326.66 182.07 325.1 182.01 323.54 181.94 322 181.87 320.46 181.78 318.95 181.7 317.44 181.6 315.96 181.5 314.48 181.39 313.02 181.28 311.57 181.15 310.14 181.02 308.71 180.88 307.31 180.74 305.91 180.59 304.54 180.43 303.17 180.26 301.82 180.1 300.48 179.91 299.16 179.73 297.85 179.53 296.56 179.34 295.27 179.12 294.01 178.91 292.76 178.69 291.53 178.46 290.3 178.22 289.1 177.98 287.9 177.74 286.72 177.49 285.54 177.23 284.38 176.98 283.23 176.72 282.09 176.46 280.96 176.19 279.84 175.92 278.73 175.64 277.64 175.36 276.55 175.08 275.48 174.8 274.41 174.51 273.36 174.21 272.31 173.92 271.29 173.62 270.26 173.31 269.26 173.01 268.26 172.69 267.27 172.38 266.29 172.06 265.33 171.74 264.38 171.41 263.44 170.75 261.57 170.07 259.78 169.38 258 168.67 256.3 167.95 254.61 167.22 252.98 166.49 251.36 165.75 249.8 165 248.25 164.24 246.77 163.47 245.29 162.69 243.88 161.91 242.47 161.11 241.13 160.32 239.8 159.5 238.53 158.69 237.27 157.86 236.07 157.03 234.88 156.18 233.75 155.33 232.63 154.51 231.53 153.68 230.44 152.87 229.38 152.06 228.32 151.26 227.29 150.47 226.26 149.69 225.26 148.91 224.27 148.15 223.3 147.39 222.33 146.65 221.39 145.9 220.46 145.18 219.55 144.45 218.64 143.74 217.76 143.74 217.76 143.74 217.76 143.02 216.91 142.32 216.01 141.61 215.13 140.91 214.2 140.21 213.28 139.52 212.33 138.83 211.38 138.14 210.39 137.46 209.4 136.78 208.38 136.1 207.37 135.43 206.31 134.76 205.27 134.1 204.18 133.44 203.1 132.78 201.99 132.12 200.88 131.49 199.72 130.85 198.56 130.23 197.36 129.61 196.16 129 194.92 128.4 193.67 127.82 192.38 127.24 191.09 126.68 189.76 126.12 188.43 125.57 187.05 125.03 185.67 124.51 184.25 123.98 182.82 123.48 181.36 122.97 179.89 122.49 178.37 122.01 176.85 121.56 175.27 121.11 173.69 120.68 172.06 120.46 171.24 120.26 170.41 120.05 169.58 119.85 168.74 119.65 167.9 119.45 167.04 119.26 166.18 119.07 165.31 118.88 164.44 118.7 163.56 118.51 162.67 118.34 161.77 118.16 160.87 117.99 159.96 117.82 159.05 117.66 158.12 117.5 157.19 117.34 156.25 117.18 155.31 117.03 154.35 116.88 153.39 116.74 152.42 116.6 151.45 116.47 150.45 116.34 149.46 116.22 148.45 116.1 147.44 115.99 146.41 115.87 145.38 115.77 144.34 115.67 143.29 115.58 142.23 115.48 141.16 115.4 140.08 115.31 138.99 115.24 137.89 115.17 136.79 115.1 135.67 115.04 134.55 114.98 133.41 114.92 132.27 114.88 131.11 114.83 129.95 114.79 128.77 114.76 127.59 114.73 126.39 114.7 125.19 114.68 123.98 114.66 122.76 114.65 121.52 114.64 120.29 114.64 119.03 114.64 119.03 114.64 119.03 114.64 117.2 114.92 115.33 115.2 113.47 115.75 111.57 116.3 109.67 117.12 107.72 117.94 105.76 119.03 103.75 120.12 101.72 121.37 99.66 122.62 97.57 124.03 95.45 125.43 93.27 126.99 91.05 128.53 88.79 130.24 86.47 131.96 84.11 133.78 81.77 135.6 79.41 137.55 77.08 139.51 74.75 141.6 72.48 143.7 70.21 145.94 68.02 148.19 65.83 150.5 63.79 152.82 61.76 155.2 59.87 157.58 57.99 160.03 56.25 162.48 54.53 165 52.96 165 52.96 165 52.96 167.51 51.39 170.03 50.01 172.55 48.65 175.08 47.46 177.61 46.29 180.13 45.3 182.67 44.34 185.2 43.54 187.74 42.77 190.17 42.23 192.61 41.71 194.93 41.41 197.25 41.13 199.44 41.07 201.63 41.01 203.68 41.16 205.72 41.3 207.54 41.69 209.34 42.07 210.93 42.68 212.51 43.29 213.87 44.13 215.22 44.97 216.36 46.05 217.5 47.12 218.35 48.5 219.19 49.88 219.74 51.57 220.28 53.26 220.54 55.25 220.48 57.4 220.44 59.7 220.44 59.7 220.44 59.7 220.44 59.7 220.44 59.7M231.61 20.65Q233.23 20.08 234.85 19.51 236.47 18.95 238.1 18.4 239.73 17.86 241.36 17.31 243 16.79 244.63 16.27 246.27 15.75 247.91 15.25 249.56 14.76 251.21 14.27 252.85 13.78 254.51 13.32 256.16 12.85 257.82 12.39 259.48 11.95 261.14 11.51 262.8 11.07 264.47 10.66 266.13 10.25 267.8 9.83 269.47 9.44 271.15 9.05 272.82 8.67 274.5 8.29 276.18 7.93 277.86 7.57 279.54 7.22 281.23 6.89 282.91 6.56 284.6 6.23 286.29 5.92 287.98 5.61 289.67 5.31 291.36 5.02 293.06 4.74 294.75 4.46 296.45 4.2 298.15 3.95 299.85 3.7 301.55 3.46 303.25 3.23 304.96 3 306.66 2.78 308.37 2.58 310.07 2.39 311.78 2.19 313.49 2.02 315.2 1.84 316.91 1.67 318.62 1.52 320.33 1.37 322.04 1.23 323.76 1.1 325.47 0.98 327.19 0.86 328.9 0.76 330.62 0.66 332.33 0.57 334.05 0.48 335.77 0.42 337.48 0.35 338.97 0.37 338.9 1.71 338.85 3.12 338.8 4.53 338.76 5.93 338.71 7.34 338.66 8.75 338.62 10.16 338.57 11.57 338.53 12.98 338.48 14.39 338.44 15.8 338.39 17.21 338.34 18.62 338.3 20.03 338.25 21.44 338.21 22.85 336.24 23.12 334.02 23.41 331.8 23.7 329.57 23.99 327.34 24.28 325.1 24.56 322.86 24.85 320.62 25.14 318.38 25.43 316.14 25.72 313.89 26.02 311.65 26.33 309.41 26.64 307.16 26.96 304.92 27.28 302.67 27.62 302.66 29 302.65 30.38 302.64 31.76 302.62 33.13 302.61 34.49 302.59 35.86 302.58 37.22 302.56 38.57 302.55 39.93 302.53 41.28 302.51 42.63 302.5 43.98 302.48 45.32 302.46 46.67 302.44 48.01 302.42 49.35 302.41 50.68 302.39 52.02 302.37 53.35 302.35 54.69 302.33 56.02 302.31 57.35 302.3 58.68 302.28 60.01 302.26 61.33 302.24 62.66 302.22 63.98 302.21 65.31 302.19 66.63 302.17 67.95 302.16 69.28 302.14 70.6 302.13 71.92 302.11 73.24 302.1 74.56 302.08 75.87 302.07 77.19 302.06 78.51 302.05 79.83 302.03 81.14 302.02 82.46 302.01 83.78 302 85.09 301.99 86.41 301.98 87.72 301.98 89.04 301.97 90.35 301.96 91.66 301.95 92.98 301.95 94.29 301.94 95.6 301.93 96.91 301.93 98.23 301.92 99.54 301.92 100.85 301.91 102.16 301.91 103.47 301.9 104.79 301.9 106.1 301.9 107.41 301.89 108.72 301.89 110.03 301.89 111.34 301.88 112.65 301.88 113.96 301.88 115.27 301.87 116.58 301.87 117.89 301.87 119.2 301.87 120.51 301.87 121.82 301.86 123.13 301.86 124.44 301.86 125.74 301.86 127.05 301.86 128.36 301.86 129.67 301.85 130.98 301.85 132.29 301.85 133.6 301.85 134.9 301.85 136.21 301.85 137.52 301.85 138.83 301.85 140.14 301.85 141.45 301.85 142.75 301.84 144.06 301.84 145.37 301.84 146.68 301.84 147.99 301.84 149.29 301.84 150.6 301.84 151.91 301.84 153.22 301.84 154.52 301.84 155.83 301.84 157.14 301.84 158.45 301.84 159.75 301.84 161.06 301.84 162.37 301.84 163.68 301.84 164.98 301.84 166.29 301.84 167.6 301.84 168.9 301.84 170.21 301.84 171.52 301.84 172.83 301.84 174.13 301.84 175.44 301.84 176.75 301.84 178.05 301.84 179.36 301.84 180.67 301.84 181.98 301.84 183.28 301.84 184.59 301.84 185.9 301.84 187.2 301.84 188.51 301.84 189.82 301.84 191.12 301.84 192.43 301.84 193.74 301.84 195.04 301.84 196.35 301.84 197.66 301.84 198.96 301.84 200.27 301.85 201.58 301.85 202.89 301.85 204.19 301.85 205.5 301.85 206.81 301.85 208.11 301.85 209.42 301.85 210.73 301.85 212.03 301.85 213.34 301.85 214.65 301.85 215.95 301.86 217.26 301.86 218.57 301.86 219.87 301.86 221.18 301.86 222.49 301.86 223.8 301.86 225.1 301.86 226.41 301.87 227.72 301.87 229.02 301.87 230.33 301.87 231.64 301.87 232.94 301.87 234.25 301.88 235.56 301.88 236.86 301.88 238.17 301.88 239.48 301.88 240.79 301.89 242.09 301.89 243.4 301.89 244.71 301.89 246.02 301.89 247.32 301.9 248.63 301.9 249.94 301.9 251.24 301.9 252.55 301.91 253.86 301.91 255.17 301.91 256.47 301.92 257.78 301.92 259.09 301.92 260.4 301.93 261.71 301.93 263.01 301.93 264.32 301.94 265.63 301.94 266.94 301.95 268.25 301.95 269.55 301.95 270.86 301.96 272.17 301.96 273.48 301.97 274.79 301.97 276.1 301.98 277.41 301.98 278.71 301.99 280.02 301.99 281.33 302 282.64 302 283.95 302.01 285.26 302.02 286.57 302.02 287.88 302.03 289.19 302.03 290.5 302.04 291.81 302.05 293.12 302.05 294.43 302.06 295.74 302.07 297.05 302.08 298.37 302.08 299.68 302.09 300.99 302.1 302.3 302.11 303.61 302.12 304.93 302.12 306.24 302.13 307.55 302.14 308.87 302.15 310.18 302.16 311.49 302.17 312.81 302.18 314.13 302.19 315.44 302.2 316.76 302.21 318.07 302.22 319.39 302.23 320.71 302.24 322.03 302.25 323.35 302.26 324.67 302.27 325.99 302.28 327.31 302.29 328.63 302.3 329.96 302.31 331.28 302.32 332.61 302.34 333.93 302.35 335.26 302.36 336.59 302.37 337.92 302.39 339.25 302.4 340.59 302.41 341.92 302.43 343.26 302.44 344.6 302.46 345.94 302.47 347.28 302.48 348.62 302.5 349.97 302.52 351.32 302.53 352.67 302.55 354.02 302.57 355.38 302.58 356.73 302.6 358.09 302.62 359.46 302.64 360.83 302.66 362.21 302.68 363.59 302.7 364.74 300.56 364.87 298.41 364.98 296.26 365.1 294.13 365.3 291.99 365.53 289.86 365.77 287.71 365.87 285.55 365.88 283.39 365.88 281.25 365.98 279.12 366.3 276.99 366.61 274.86 366.87 272.7 366.87 270.55 366.87 268.39 366.87 268.37 365.77 268.35 364.42 268.32 363.06 268.3 361.71 268.27 360.35 268.25 359 268.22 357.66 268.19 356.31 268.17 354.97 268.14 353.64 268.11 352.31 268.09 350.98 268.06 349.65 268.03 348.33 268.01 347 267.98 345.68 267.95 344.36 267.93 343.05 267.9 341.73 267.87 340.42 267.84 339.11 267.82 337.8 267.79 336.49 267.76 335.18 267.74 333.87 267.71 332.57 267.68 331.26 267.66 329.96 267.63 328.66 267.6 327.35 267.58 326.05 267.55 324.75 267.53 323.45 267.5 322.15 267.48 320.85 267.45 319.55 267.43 318.26 267.4 316.96 267.38 315.66 267.35 314.37 267.33 313.07 267.31 311.77 267.29 310.48 267.26 309.18 267.24 307.89 267.22 306.6 267.2 305.3 267.18 304.01 267.16 302.71 267.14 301.42 267.12 300.13 267.11 298.83 267.09 297.54 267.07 296.25 267.06 294.96 267.04 293.66 267.03 292.37 267.02 291.08 267 289.79 266.99 288.5 266.98 287.2 266.97 285.91 266.96 284.62 266.95 283.33 266.94 282.04 266.93 280.75 266.92 279.46 266.91 278.17 266.9 276.87 266.89 275.58 266.89 274.29 266.88 273 266.87 271.71 266.87 270.42 266.86 269.13 266.86 267.84 266.85 266.55 266.85 265.26 266.84 263.97 266.84 262.68 266.83 261.39 266.83 260.1 266.83 258.81 266.82 257.52 266.82 256.23 266.82 254.94 266.81 253.65 266.81 252.36 266.81 251.07 266.8 249.78 266.8 248.49 266.8 247.2 266.8 245.91 266.79 244.62 266.79 243.33 266.79 242.04 266.79 240.75 266.79 239.46 266.78 238.17 266.78 236.88 266.78 235.59 266.78 234.3 266.78 233.01 266.78 231.72 266.77 230.43 266.77 229.14 266.77 227.85 266.77 226.56 266.77 225.27 266.77 223.98 266.77 222.69 266.77 221.41 266.76 220.12 266.76 218.83 266.76 217.54 266.76 216.25 266.76 214.96 266.76 213.67 266.76 212.38 266.76 211.09 266.76 209.8 266.76 208.51 266.76 207.22 266.76 205.93 266.76 204.64 266.76 203.35 266.75 202.06 266.75 200.77 266.75 199.48 266.75 198.19 266.75 196.9 266.75 195.61 266.75 194.32 266.75 193.03 266.75 191.74 266.75 190.45 266.75 189.16 266.75 187.87 266.75 186.58 266.75 185.29 266.75 184 266.75 182.71 266.75 181.42 266.75 180.13 266.75 178.85 266.75 177.56 266.75 176.27 266.75 174.98 266.75 173.69 266.75 172.4 266.75 171.11 266.75 169.82 266.75 168.53 266.75 167.23 266.75 165.94 266.75 164.65 266.75 163.36 266.75 162.07 266.75 160.78 266.75 159.49 266.75 158.2 266.76 156.91 266.76 155.62 266.76 154.33 266.76 153.04 266.76 151.75 266.76 150.46 266.76 149.17 266.76 147.88 266.76 146.59 266.76 145.3 266.76 144.01 266.76 142.72 266.76 141.42 266.77 140.13 266.77 138.84 266.77 137.55 266.77 136.26 266.77 134.97 266.77 133.68 266.77 132.39 266.77 131.09 266.78 129.8 266.78 128.51 266.78 127.22 266.78 125.93 266.78 124.64 266.78 123.34 266.78 122.05 266.79 120.76 266.79 119.47 266.79 118.17 266.79 116.88 266.79 115.59 266.8 114.29 266.8 113 266.8 111.71 266.8 110.41 266.81 109.12 266.81 107.83 266.81 106.53 266.81 105.24 266.82 103.94 266.82 102.65 266.82 101.35 266.83 100.06 266.83 98.76 266.83 97.47 266.84 96.17 266.84 94.88 266.84 93.58 266.85 92.28 266.85 90.99 266.85 89.69 266.86 88.39 266.86 87.09 266.86 85.79 266.87 84.49 266.87 83.19 266.88 81.89 266.88 80.59 266.88 79.29 266.89 77.99 266.89 76.69 266.9 75.38 266.9 74.08 266.9 72.77 266.91 71.47 266.91 70.16 266.92 68.86 266.92 67.55 266.92 66.24 266.93 64.93 266.93 63.62 266.93 62.3 266.94 60.99 266.94 59.68 266.94 58.36 266.95 57.04 266.95 55.72 266.95 54.4 266.95 53.08 266.95 51.75 266.95 50.42 266.96 49.09 266.96 47.76 266.96 46.43 266.96 45.09 266.95 43.75 266.95 42.4 266.95 41.06 266.95 39.7 266.94 38.35 266.94 36.99 266.93 35.63 266.93 34.26 264.71 34.75 262.49 35.25 260.28 35.76 258.07 36.27 255.85 36.78 253.65 37.3 251.44 37.82 249.23 38.35 247.03 38.87 244.82 39.39 242.62 39.9 240.42 40.42 238.22 40.92 236.01 41.41 233.81 41.9 231.61 42.37 231.61 41.01 231.61 39.66 231.61 38.3 231.61 36.94 231.61 35.58 231.61 34.23 231.61 32.87 231.61 31.51 231.61 30.15 231.61 28.8 231.61 27.44 231.61 26.08 231.61 24.72 231.61 23.37 231.61 22.01 231.61 20.65 231.61 20.65 231.61 20.65M452.33 48.58Q452.31 49.88 452.29 51.17 452.27 52.46 452.24 53.76 452.22 55.05 452.2 56.34 452.18 57.63 452.16 58.93 452.14 60.22 452.12 61.51 452.1 62.81 452.08 64.1 452.06 65.39 452.04 66.69 452.02 67.98 452 69.27 451.98 70.56 451.96 71.86 451.94 73.15 451.92 74.44 451.89 75.74 451.87 77.03 451.85 78.32 451.83 79.62 451.82 80.91 451.82 82.2 451.82 83.5 451.82 84.79 451.82 86.08 451.82 87.37 451.82 88.67 451.82 89.96 451.82 91.25 451.82 92.55 451.82 93.84 451.82 95.13 451.82 96.43 451.82 97.72 451.82 99.01 451.82 100.31 451.82 101.6 451.82 102.89 451.82 104.19 451.82 105.48 451.82 106.77 451.82 108.06 451.82 109.36 451.82 110.65 451.82 111.94 451.82 113.24 451.82 114.53 451.82 115.82 451.82 117.12 451.82 118.41 451.82 119.7 451.82 121 451.82 122.29 451.82 123.58 451.82 124.88 451.82 126.17 451.82 127.46 451.82 128.76 451.82 130.05 451.82 131.34 449.81 131.29 447.49 131.22 445.18 131.15 442.87 131.08 440.56 131.01 438.25 130.94 435.93 130.87 433.62 130.8 431.31 130.73 428.99 130.66 426.68 130.59 424.37 130.51 422.06 130.44 419.74 130.37 417.43 130.29 415.11 130.22 415.11 128.87 415.12 127.53 415.12 126.18 415.12 124.84 415.12 123.49 415.12 122.15 415.12 120.8 415.12 119.46 415.13 118.11 415.13 116.77 415.13 115.42 415.13 114.07 415.13 112.73 415.14 111.38 415.14 110.04 415.14 108.69 415.14 107.34 415.14 106 415.15 104.65 415.15 103.3 415.15 101.96 415.16 100.61 415.16 99.26 415.16 97.92 415.17 96.57 415.17 95.22 415.18 93.87 415.18 92.53 415.18 91.18 415.19 89.83 415.19 88.48 415.2 87.13 415.21 85.78 415.21 84.43 415.22 83.08 415.23 81.73 415.23 80.38 415.24 79.03 415.25 77.68 415.26 76.32 415.27 74.97 415.28 73.62 415.29 72.26 415.3 70.91 415.31 69.56 415.32 68.2 415.33 66.84 415.34 65.49 415.35 64.13 415.36 62.77 415.38 61.41 415.39 60.05 415.4 58.69 415.42 57.32 415.43 55.96 415.45 54.59 415.46 53.22 415.48 51.85 415.49 50.48 415.51 49.11 415.52 47.73 415.54 46.36 415.56 44.98 415.58 43.59 415.6 41.6 415.36 39.86 415.11 38.12 414.58 36.64 414.06 35.15 413.26 33.93 412.46 32.7 411.38 31.74 409.22 29.8 406.83 28.64 404.44 27.47 401.81 27.1 401.81 27.1 401.81 27.1 399.18 26.74 396.75 27.25 394.33 27.76 392.11 29.13 391.01 29.81 390.17 30.84 389.33 31.87 388.77 33.25 388.21 34.63 387.92 36.35 387.63 38.06 387.61 40.12 387.61 40.12 387.61 40.12 387.6 41.64 387.6 43.15 387.6 44.65 387.62 46.14 387.63 47.62 387.65 49.09 387.68 50.56 387.71 52.01 387.75 53.47 387.8 54.9 387.85 56.33 387.91 57.75 387.97 59.17 388.04 60.57 388.11 61.97 388.2 63.36 388.28 64.75 388.38 66.12 388.47 67.49 388.58 68.84 388.69 70.19 388.81 71.53 388.93 72.87 389.06 74.19 389.19 75.52 389.33 76.82 389.47 78.13 389.63 79.42 389.78 80.72 389.95 81.99 390.11 83.27 390.29 84.53 390.47 85.79 390.65 87.04 390.84 88.29 391.03 89.53 391.22 90.76 391.42 91.98 391.62 93.21 391.82 94.41 392.03 95.62 392.24 96.82 392.45 98.02 392.67 99.2 392.89 100.38 393.12 101.55 393.34 102.72 393.58 103.88 393.81 105.04 394.05 106.18 394.29 107.33 394.54 108.46 395.03 110.72 395.56 112.93 396.08 115.14 396.63 117.3 397.18 119.45 397.76 121.56 398.33 123.66 398.93 125.72 399.52 127.77 400.13 129.78 400.75 131.78 401.38 133.74 402.01 135.69 402.66 137.59 403.31 139.49 403.98 141.34 404.64 143.19 405.33 144.99 406.02 146.79 406.72 148.54 407.43 150.29 408.15 151.99 408.87 153.69 409.6 155.34 410.32 157 411.05 158.62 411.77 160.24 412.49 161.81 413.22 163.39 413.94 164.93 414.66 166.46 415.39 167.96 416.11 169.46 416.83 170.92 417.56 172.37 418.28 173.79 419.01 175.21 419.73 176.59 419.73 176.59 419.73 176.59 420.31 177.67 420.9 178.8 421.49 179.93 422.1 181.09 422.71 182.26 423.34 183.47 423.96 184.67 424.61 185.92 425.25 187.16 425.9 188.45 426.56 189.73 427.24 191.05 427.91 192.38 428.6 193.74 429.29 195.1 429.99 196.5 430.7 197.9 431.39 199.37 432.09 200.83 432.77 202.37 433.45 203.9 434.12 205.5 434.8 207.09 435.46 208.76 436.12 210.42 436.76 212.15 437.41 213.87 438.05 215.67 438.69 217.46 439.31 219.32 439.94 221.17 440.55 223.1 441.17 225.02 441.76 227.02 442.35 229.02 442.91 231.1 443.19 232.13 443.47 233.19 443.75 234.25 444.02 235.33 444.29 236.41 444.55 237.51 444.81 238.61 445.07 239.72 445.33 240.84 445.58 241.98 445.83 243.12 446.08 244.28 446.32 245.43 446.56 246.61 446.8 247.79 447.03 248.98 447.26 250.18 447.49 251.4 447.71 252.61 447.93 253.85 448.15 255.09 448.37 256.34 448.58 257.6 448.79 258.88 449 260.15 449.19 261.45 449.39 262.76 449.57 264.09 449.75 265.42 449.92 266.78 450.09 268.13 450.25 269.52 450.4 270.9 450.54 272.32 450.69 273.73 450.82 275.17 450.95 276.61 451.06 278.07 451.18 279.54 451.29 281.04 451.39 282.53 451.48 284.05 451.57 285.58 451.65 287.13 451.73 288.68 451.79 290.25 451.86 291.83 451.91 293.44 451.96 295.04 451.94 296.69 451.9 298.33 451.87 300 451.85 301.67 451.84 303.37 451.82 305.06 451.82 306.78 451.82 306.78 451.82 306.78 451.82 308.95 451.85 310.97 451.57 313.04 451.03 314.99 450.49 316.95 449.68 318.81 448.86 320.67 447.78 322.43 446.7 324.2 445.45 325.87 444.19 327.54 442.76 329.12 441.32 330.72 439.71 332.22 438.1 333.74 436.31 335.16 434.52 336.58 432.6 337.88 430.69 339.19 428.66 340.39 426.63 341.61 424.49 342.7 422.34 343.76 420.06 344.67 417.79 345.6 415.51 346.51 413.25 347.46 410.95 348.26 408.62 348.93 406.26 349.47 403.92 349.84 401.57 350.42 401.57 350.42 401.57 350.42 399.21 351 396.87 351.61 394.52 351.93 392.19 352.1 389.85 352.25 387.53 352.23 385.21 352.22 382.92 352.06 380.62 351.9 378.45 351.58 376.27 351.27 374.21 350.8 372.15 350.34 370.21 349.7 368.27 349.07 366.44 348.27 364.63 347.46 362.99 346.46 361.36 345.45 359.9 344.26 358.45 343.06 357.17 341.67 355.9 340.27 354.8 338.69 353.71 337.1 352.88 335.31 352.06 333.51 351.51 331.51 350.95 329.51 350.67 327.31 350.39 325.1 350.38 322.7 350.38 322.7 350.38 322.7 350.37 321.27 350.36 319.84 350.36 318.4 350.35 316.97 350.34 315.54 350.34 314.11 350.33 312.68 350.32 311.24 350.32 309.81 350.31 308.38 350.3 306.95 350.3 305.52 350.29 304.08 350.28 302.65 350.28 301.22 350.27 299.79 350.26 298.35 350.26 296.92 350.25 295.49 350.24 294.06 350.24 292.63 350.23 291.19 350.22 289.76 350.22 288.33 350.21 286.9 350.21 285.47 350.21 284.04 350.21 282.6 350.21 281.17 350.21 279.74 350.21 278.31 350.21 276.88 350.21 275.44 350.21 274.01 350.21 272.58 350.21 271.15 350.21 269.72 350.21 268.28 350.21 266.85 350.21 265.42 350.21 263.99 350.21 262.56 350.21 261.12 350.21 259.69 350.21 258.26 350.21 256.83 350.21 255.4 350.21 253.97 350.21 252.53 350.21 251.1 350.21 249.67 350.21 248.24 350.21 246.81 350.21 245.38 350.21 243.94 350.21 242.51 350.21 241.08 350.21 239.65 350.21 238.22 350.21 236.78 350.21 235.35 350.21 233.92 350.21 232.49 350.21 231.06 352.53 230.91 354.85 230.75 357.17 230.6 359.49 230.45 361.8 230.29 364.12 230.13 366.44 229.97 368.76 229.82 371.08 229.66 373.39 229.5 375.71 229.33 378.03 229.17 380.35 229.01 382.66 228.85 384.98 228.68 387.3 228.52 387.3 229.9 387.3 231.28 387.3 232.67 387.3 234.05 387.3 235.43 387.3 236.82 387.3 238.2 387.3 239.58 387.3 240.97 387.3 242.35 387.3 243.73 387.3 245.12 387.3 246.5 387.3 247.88 387.3 249.27 387.31 250.65 387.31 252.03 387.31 253.42 387.31 254.8 387.31 256.19 387.31 257.57 387.31 258.95 387.31 260.34 387.31 261.72 387.31 263.11 387.31 264.49 387.32 265.87 387.32 267.26 387.32 268.64 387.32 270.03 387.32 271.41 387.32 272.8 387.33 274.18 387.33 275.57 387.33 276.95 387.33 278.34 387.33 279.72 387.34 281.11 387.34 282.5 387.34 283.88 387.34 285.27 387.35 286.65 387.35 288.04 387.35 289.43 387.36 290.81 387.36 292.2 387.36 293.59 387.37 294.98 387.37 296.36 387.38 297.75 387.38 299.14 387.39 300.53 387.39 301.92 387.39 303.31 387.4 304.7 387.4 306.09 387.41 307.48 387.41 308.87 387.42 310.26 387.42 311.65 387.43 313.04 387.44 314.44 387.44 315.83 387.45 317.22 387.46 319.23 387.74 320.89 388.02 322.55 388.56 323.85 389.11 325.16 389.93 326.11 390.75 327.06 391.84 327.66 394.02 328.85 396.41 329.21 398.8 329.56 401.4 329.09 401.4 329.09 401.4 329.09 403.99 328.62 406.37 327.41 408.74 326.2 410.9 324.26 411.97 323.3 412.78 322.09 413.59 320.88 414.12 319.43 414.66 317.97 414.92 316.27 415.19 314.57 415.18 312.62 415.18 312.62 415.18 312.62 415.18 310.88 415.16 309.16 415.14 307.45 415.11 305.76 415.08 304.08 415.03 302.43 414.99 300.77 414.93 299.15 414.87 297.52 414.79 295.93 414.72 294.33 414.63 292.77 414.55 291.2 414.44 289.66 414.34 288.13 414.23 286.62 414.11 285.11 413.98 283.63 413.85 282.14 413.71 280.69 413.57 279.24 413.41 277.81 413.25 276.38 413.08 274.99 412.91 273.59 412.73 272.22 412.54 270.84 412.34 269.5 412.15 268.16 411.93 266.84 411.72 265.52 411.49 264.23 411.26 262.94 411.03 261.67 410.79 260.4 410.55 259.15 410.31 257.89 410.06 256.66 409.81 255.43 409.55 254.21 409.3 253 409.03 251.8 408.77 250.61 408.5 249.43 408.23 248.25 407.95 247.09 407.67 245.94 407.38 244.8 407.1 243.66 406.8 242.54 406.51 241.42 406.21 240.31 405.91 239.21 405.6 238.13 405.3 237.05 404.98 235.98 404.35 233.85 403.69 231.8 403.03 229.74 402.35 227.77 401.66 225.78 400.96 223.86 400.26 221.94 399.54 220.08 398.82 218.22 398.08 216.41 397.35 214.61 396.6 212.86 395.85 211.12 395.08 209.43 394.31 207.74 393.53 206.12 392.74 204.49 391.94 202.92 391.14 201.35 390.32 199.84 389.51 198.33 388.71 196.85 387.91 195.36 387.13 193.9 386.35 192.44 385.58 191.01 384.82 189.58 384.07 188.18 383.32 186.77 382.59 185.39 381.85 184.01 381.14 182.66 380.42 181.3 379.72 179.98 379.01 178.65 378.33 177.35 378.33 177.35 378.33 177.35 377.64 176.08 376.96 174.76 376.27 173.44 375.6 172.07 374.92 170.7 374.26 169.29 373.59 167.87 372.93 166.4 372.27 164.93 371.61 163.42 370.96 161.9 370.31 160.33 369.67 158.77 369.03 157.15 368.39 155.54 367.76 153.87 367.12 152.21 366.5 150.48 365.89 148.76 365.29 146.97 364.69 145.19 364.11 143.34 363.53 141.5 362.97 139.59 362.4 137.68 361.86 135.72 361.32 133.75 360.79 131.73 360.27 129.7 359.76 127.61 359.26 125.53 358.77 123.38 358.28 121.23 357.82 119.02 357.35 116.8 356.92 114.52 356.48 112.24 356.06 109.89 355.86 108.71 355.65 107.52 355.45 106.33 355.26 105.12 355.06 103.91 354.87 102.68 354.69 101.45 354.5 100.21 354.32 98.97 354.14 97.71 353.97 96.45 353.8 95.17 353.63 93.89 353.46 92.6 353.3 91.3 353.14 89.99 352.98 88.68 352.83 87.35 352.68 86.03 352.53 84.68 352.39 83.34 352.25 81.97 352.12 80.61 351.99 79.23 351.86 77.84 351.75 76.44 351.63 75.04 351.52 73.62 351.41 72.2 351.31 70.76 351.21 69.32 351.12 67.86 351.03 66.4 350.95 64.92 350.87 63.44 350.79 61.94 350.72 60.45 350.66 58.93 350.59 57.41 350.54 55.88 350.49 54.34 350.44 52.79 350.39 51.24 350.36 49.66 350.32 48.09 350.29 46.5 350.27 44.91 350.25 43.3 350.23 41.69 350.22 40.06 350.21 38.43 350.21 36.78 350.21 36.78 350.21 36.78 350.21 34.38 350.49 32.16 350.76 29.95 351.31 27.93 351.86 25.91 352.68 24.07 353.51 22.24 354.61 20.6 355.71 18.95 356.99 17.46 358.28 15.97 359.75 14.63 361.23 13.28 362.89 12.08 364.55 10.87 366.4 9.82 368.27 8.76 370.25 7.86 372.24 6.96 374.34 6.22 376.44 5.49 378.66 4.93 380.88 4.38 383.22 4 385.56 3.65 387.91 3.46 390.27 3.29 392.65 3.28 395.03 3.28 397.44 3.46 399.84 3.64 402.26 4.01 402.26 4.01 402.26 4.01 404.68 4.37 407.07 4.9 409.45 5.44 411.8 6.14 414.15 6.86 416.46 7.73 418.77 8.62 421.04 9.66 423.32 10.71 425.47 11.91 427.61 13.11 429.63 14.44 431.65 15.77 433.54 17.21 435.44 18.64 437.21 20.17 438.98 21.67 440.58 23.26 442.17 24.8 443.58 26.43 445 28.02 446.23 29.69 447.46 31.34 448.52 33.08 449.58 34.81 450.36 36.65 451.15 38.47 451.66 40.41 452.18 42.35 452.42 44.4 452.36 46.41 452.33 48.58 452.33 48.58 452.33 48.58 452.33 48.58 452.33 48.58M570.41 100.52Q570.47 101.44 570.54 102.36 570.6 103.29 570.66 104.21 570.73 105.13 570.79 106.06 570.86 106.98 570.92 107.91 570.99 108.83 571.05 109.75 571.12 110.68 571.18 111.6 571.25 112.52 571.31 113.45 571.38 114.37 571.44 115.29 571.51 116.22 571.57 117.14 571.64 118.07 571.7 118.99 571.77 119.91 571.83 120.84 571.9 121.76 571.96 122.68 572 123.61 572 124.53 572 125.46 572 126.38 572 127.3 572 128.23 572 129.15 572 130.07 572 131 572 131.92 572 132.84 572 133.77 572 134.69 572 135.62 572 136.54 572 137.46 572 138.39 572 139.31 572 140.23 572 141.16 572 142.08 572 143.01 572 143.93 572 144.85 572 145.78 572 146.7 572 147.63 572 148.55 572 149.47 572 150.4 572 151.32 572 152.24 572 153.17 572 154.09 572 155.02 572 155.94 572 156.86 572 157.79 572 158.71 572 159.63 569.84 159.1 567.37 158.49 564.9 157.88 562.43 157.26 559.96 156.65 557.49 156.02 555.02 155.4 552.55 154.78 550.08 154.15 547.61 153.52 545.14 152.89 542.66 152.26 540.19 151.63 537.72 150.99 535.25 150.36 532.78 149.72 532.78 148.67 532.77 147.63 532.77 146.58 532.77 145.53 532.77 144.48 532.77 143.43 532.77 142.38 532.76 141.34 532.76 140.29 532.76 139.24 532.76 138.19 532.75 137.14 532.75 136.09 532.75 135.04 532.75 133.99 532.74 132.95 532.74 131.9 532.74 130.85 532.73 129.8 532.73 128.75 532.72 127.7 532.72 126.65 532.71 125.6 532.71 124.55 532.7 123.5 532.7 122.45 532.69 121.39 532.68 120.34 532.67 119.29 532.67 118.24 532.66 117.19 532.65 116.13 532.64 115.08 532.63 114.03 532.61 112.98 532.6 111.92 532.59 110.87 532.58 109.81 532.56 108.76 532.55 107.7 532.53 106.65 532.51 105.59 532.5 104.53 532.48 103.47 532.46 102.41 532.44 101.35 532.43 100.29 532.41 99.23 532.39 98.17 532.37 97.11 532.35 96.04 532.33 94.97 532.31 93.91 532.29 92.84 532.28 91.77 532.26 90.7 532.24 89.62 532.22 88.55 532.21 87.47 532.19 86.39 532.18 85.3 532.17 84.22 532.16 83.13 532.15 82.04 532.14 80.46 531.85 78.97 531.57 77.47 531.01 76.06 530.45 74.64 529.62 73.31 528.79 71.98 527.67 70.73 525.45 68.23 522.99 66.25 520.53 64.27 517.83 62.85 517.83 62.85 517.83 62.85 515.11 61.44 512.58 60.85 510.06 60.28 507.74 60.52 506.58 60.65 505.7 61.18 504.82 61.71 504.23 62.65 503.64 63.59 503.33 64.92 503.03 66.26 503.01 67.98 503.01 67.98 503.01 67.98 503 69.26 503 70.52 503.01 71.79 503.03 73.04 503.05 74.29 503.08 75.53 503.11 76.77 503.16 78 503.21 79.23 503.27 80.44 503.33 81.66 503.4 82.87 503.48 84.07 503.56 85.27 503.65 86.46 503.75 87.64 503.85 88.83 503.96 90 504.07 91.17 504.19 92.34 504.32 93.5 504.45 94.65 504.59 95.8 504.74 96.95 504.89 98.09 505.05 99.22 505.21 100.35 505.38 101.47 505.55 102.59 505.74 103.7 505.92 104.81 506.12 105.91 506.31 107.01 506.52 108.1 506.72 109.19 506.93 110.26 507.14 111.34 507.36 112.41 507.58 113.48 507.8 114.54 508.03 115.59 508.26 116.64 508.49 117.69 508.73 118.72 508.97 119.76 509.22 120.79 509.46 121.81 509.72 122.83 509.97 123.84 510.23 124.85 510.49 125.85 510.76 126.84 511.29 128.83 511.86 130.78 512.42 132.72 513.02 134.62 513.61 136.52 514.23 138.38 514.85 140.24 515.49 142.05 516.13 143.86 516.79 145.64 517.44 147.4 518.12 149.13 518.8 150.84 519.5 152.53 520.19 154.2 520.91 155.83 521.62 157.46 522.36 159.05 523.1 160.64 523.85 162.18 524.6 163.72 525.38 165.22 526.15 166.71 526.93 168.17 527.7 169.62 528.47 171.04 529.25 172.46 530.02 173.83 530.8 175.21 531.57 176.55 532.34 177.88 533.12 179.18 533.89 180.48 534.66 181.74 535.44 182.99 536.21 184.22 536.98 185.43 537.76 186.62 537.76 186.62 537.76 186.62 538.37 187.55 539.01 188.52 539.64 189.48 540.29 190.47 540.95 191.46 541.61 192.48 542.28 193.5 542.97 194.54 543.65 195.59 544.35 196.66 545.06 197.73 545.77 198.83 546.49 199.92 547.23 201.05 547.97 202.17 548.72 203.31 549.47 204.46 550.21 205.65 550.95 206.83 551.68 208.06 552.41 209.29 553.13 210.56 553.85 211.82 554.55 213.13 555.25 214.44 555.95 215.79 556.64 217.13 557.32 218.52 558 219.9 558.67 221.33 559.33 222.75 559.99 224.21 560.65 225.67 561.28 227.18 561.9 228.69 562.51 230.25 562.81 231.02 563.1 231.81 563.4 232.6 563.68 233.41 563.97 234.21 564.25 235.02 564.53 235.84 564.81 236.66 565.08 237.49 565.35 238.33 565.62 239.16 565.88 240.01 566.14 240.86 566.39 241.73 566.65 242.59 566.9 243.46 567.14 244.34 567.38 245.22 567.63 246.11 567.86 247.01 568.09 247.91 568.32 248.82 568.55 249.73 568.77 250.65 568.99 251.58 569.2 252.52 569.41 253.46 569.6 254.42 569.79 255.37 569.97 256.35 570.15 257.33 570.32 258.32 570.49 259.32 570.64 260.33 570.79 261.34 570.93 262.37 571.07 263.4 571.19 264.45 571.32 265.5 571.43 266.57 571.54 267.64 571.63 268.73 571.73 269.81 571.81 270.92 571.9 272.03 571.97 273.15 572.04 274.28 572.09 275.43 572.15 276.57 572.12 277.75 572.08 278.92 572.05 280.11 572.03 281.31 572.01 282.52 572 283.73 572 284.96 572 284.96 572 284.96 572 286.51 572.02 287.95 571.74 289.44 571.16 290.86 570.59 292.3 569.73 293.67 568.86 295.06 567.72 296.39 566.58 297.74 565.25 299.04 563.93 300.36 562.41 301.64 560.9 302.94 559.2 304.22 557.5 305.52 555.61 306.78 553.72 308.07 551.71 309.29 549.7 310.52 547.56 311.65 545.41 312.78 543.15 313.85 540.89 314.96 538.52 316.03 536.17 317.15 533.79 318.2 531.41 319.25 528.99 320.18 526.57 321.11 524.1 321.86 521.62 322.38 519.1 322.99 519.1 322.99 519.1 322.99 516.58 323.55 514.08 324.19 511.58 324.65 509.11 325.02 506.64 325.4 504.24 325.79 501.85 326.25 499.48 326.56 497.09 326.8 494.81 326.84 492.52 326.85 490.34 326.7 488.17 326.54 486.11 326.22 484.05 325.89 482.11 325.4 480.18 324.9 478.44 324.2 476.69 323.48 475.13 322.56 473.56 321.63 472.18 320.5 470.8 319.35 469.61 318.02 468.41 316.68 467.49 315.13 466.58 313.58 465.95 311.83 465.32 310.08 464.97 308.14 464.62 306.2 464.56 304.08 464.56 304.08 464.56 304.08 464.52 302.81 464.48 301.55 464.44 300.28 464.4 299.01 464.37 297.75 464.33 296.48 464.29 295.22 464.25 293.95 464.21 292.69 464.18 291.42 464.14 290.15 464.1 288.89 464.06 287.62 464.02 286.36 463.99 285.09 463.95 283.83 463.91 282.56 463.87 281.29 463.83 280.03 463.8 278.76 463.76 277.5 463.72 276.23 463.68 274.97 463.64 273.7 463.62 272.43 463.62 271.17 463.62 269.9 463.62 268.64 463.62 267.37 463.62 266.11 463.62 264.84 463.62 263.58 463.62 262.31 463.62 261.04 463.62 259.78 463.62 258.51 463.62 257.25 463.62 255.98 463.62 254.72 463.62 253.45 463.62 252.19 463.62 250.92 463.62 249.65 463.62 248.39 463.62 247.12 463.62 245.86 463.62 244.59 463.62 243.33 463.62 242.06 463.62 240.8 463.62 239.53 463.62 238.26 463.62 237 463.62 235.73 463.62 234.47 463.62 233.2 463.62 231.94 463.62 230.67 463.62 229.41 463.62 228.14 463.62 226.88 463.62 225.61 463.62 224.34 463.62 223.08 466.09 223.16 468.57 223.25 471.04 223.32 473.52 223.4 475.99 223.47 478.46 223.54 480.94 223.61 483.41 223.68 485.89 223.74 488.36 223.8 490.83 223.86 493.31 223.92 495.78 223.97 498.26 224.03 500.73 224.08 503.2 224.14 503.2 225.28 503.2 226.42 503.21 227.57 503.21 228.71 503.21 229.86 503.21 231 503.22 232.14 503.22 233.29 503.22 234.43 503.22 235.58 503.23 236.72 503.23 237.87 503.23 239.01 503.23 240.15 503.24 241.3 503.24 242.44 503.25 243.59 503.25 244.73 503.25 245.88 503.26 247.02 503.26 248.17 503.27 249.31 503.27 250.46 503.28 251.6 503.28 252.75 503.29 253.89 503.3 255.04 503.3 256.18 503.31 257.33 503.32 258.47 503.33 259.62 503.33 260.77 503.34 261.91 503.35 263.06 503.36 264.2 503.37 265.35 503.39 266.5 503.4 267.64 503.41 268.79 503.42 269.94 503.44 271.08 503.45 272.23 503.47 273.38 503.48 274.52 503.5 275.67 503.51 276.82 503.53 277.97 503.55 279.12 503.57 280.26 503.59 281.41 503.61 282.56 503.62 283.71 503.64 284.86 503.66 286.01 503.69 287.16 503.71 288.31 503.73 289.46 503.75 290.6 503.77 291.75 503.79 292.9 503.81 294.06 503.84 295.21 503.86 296.36 503.88 297.51 503.92 299.16 504.23 300.51 504.55 301.85 505.14 302.88 505.74 303.9 506.62 304.61 507.49 305.31 508.65 305.69 510.96 306.45 513.49 306.5 516.01 306.55 518.76 305.91 518.76 305.91 518.76 305.91 521.49 305.27 523.99 304.06 526.49 302.87 528.75 301.13 529.89 300.27 530.73 299.25 531.58 298.23 532.14 297.05 532.69 295.87 532.97 294.52 533.24 293.18 533.22 291.67 533.22 291.67 533.22 291.67 533.21 290.31 533.18 288.98 533.15 287.65 533.11 286.35 533.06 285.04 533.01 283.76 532.95 282.48 532.88 281.22 532.81 279.96 532.72 278.73 532.63 277.49 532.53 276.28 532.43 275.06 532.32 273.87 532.21 272.68 532.08 271.51 531.95 270.33 531.8 269.18 531.66 268.03 531.5 266.9 531.34 265.77 531.17 264.66 531 263.55 530.81 262.46 530.63 261.37 530.42 260.3 530.22 259.22 530.01 258.17 529.79 257.12 529.56 256.09 529.33 255.05 529.08 254.04 528.84 253.02 528.58 252.02 528.33 251.02 528.07 250.03 527.8 249.04 527.53 248.07 527.27 247.09 526.99 246.12 526.71 245.16 526.43 244.21 526.14 243.25 525.85 242.31 525.56 241.37 525.26 240.45 524.96 239.52 524.66 238.6 524.35 237.69 524.03 236.78 523.72 235.88 523.4 234.99 523.08 234.09 522.75 233.22 522.42 232.34 522.08 231.47 521.4 229.73 520.7 228.05 519.99 226.36 519.26 224.72 518.52 223.08 517.77 221.48 517.02 219.87 516.25 218.31 515.48 216.73 514.7 215.21 513.91 213.67 513.11 212.18 512.3 210.68 511.48 209.22 510.66 207.76 509.82 206.34 508.99 204.92 508.13 203.54 507.27 202.15 506.4 200.81 505.53 199.46 504.68 198.13 503.83 196.8 502.99 195.49 502.16 194.17 501.34 192.87 500.52 191.57 499.72 190.29 498.92 189.01 498.14 187.74 497.35 186.48 496.59 185.23 495.82 183.98 495.07 182.76 494.32 181.53 493.59 180.32 493.59 180.32 493.59 180.32 492.85 179.14 492.13 177.91 491.4 176.67 490.68 175.4 489.96 174.12 489.24 172.8 488.53 171.47 487.83 170.1 487.12 168.73 486.42 167.32 485.72 165.9 485.03 164.44 484.34 162.97 483.66 161.46 482.98 159.95 482.31 158.4 481.63 156.84 480.97 155.22 480.31 153.61 479.67 151.94 479.03 150.28 478.41 148.56 477.79 146.83 477.19 145.06 476.6 143.28 476.02 141.45 475.44 139.62 474.88 137.74 474.32 135.85 473.78 133.92 473.24 131.98 472.72 129.99 472.2 127.99 471.7 125.95 471.21 123.89 470.74 121.78 470.28 119.67 469.83 117.51 469.61 116.42 469.4 115.32 469.19 114.22 468.98 113.11 468.77 112 468.57 110.87 468.37 109.74 468.18 108.6 467.98 107.46 467.79 106.3 467.61 105.14 467.42 103.97 467.24 102.8 467.07 101.62 466.89 100.43 466.73 99.23 466.56 98.03 466.4 96.82 466.23 95.61 466.08 94.38 465.93 93.15 465.78 91.91 465.64 90.67 465.5 89.41 465.37 88.16 465.24 86.88 465.12 85.61 465 84.32 464.89 83.04 464.78 81.74 464.68 80.43 464.58 79.12 464.48 77.8 464.4 76.47 464.31 75.14 464.23 73.79 464.16 72.45 464.09 71.09 464.02 69.73 463.96 68.35 463.91 66.98 463.86 65.59 463.81 64.2 463.77 62.8 463.73 61.4 463.71 59.98 463.68 58.57 463.66 57.14 463.64 55.71 463.63 54.27 463.62 52.82 463.62 51.37 463.62 51.37 463.62 51.37 463.62 49.24 463.91 47.38 464.2 45.52 464.78 43.92 465.36 42.33 466.23 41 467.11 39.68 468.27 38.62 469.45 37.57 470.81 36.73 472.19 35.89 473.76 35.26 475.35 34.63 477.14 34.22 478.93 33.8 480.93 33.6 482.95 33.41 485.09 33.41 487.24 33.42 489.5 33.62 491.77 33.84 494.14 34.26 496.52 34.7 499 35.34 501.47 36.01 503.95 36.83 506.43 37.68 508.92 38.68 511.39 39.71 513.88 40.89 516.36 42.1 518.85 43.45 518.85 43.45 518.85 43.45 521.32 44.84 523.75 46.34 526.17 47.87 528.54 49.51 530.9 51.18 533.22 52.96 535.52 54.77 537.77 56.69 540.02 58.64 542.14 60.64 544.24 62.65 546.22 64.71 548.19 66.76 550.05 68.84 551.91 70.9 553.66 72.96 555.43 74.99 557.04 76.96 558.67 78.87 560.14 80.74 561.63 82.55 562.96 84.33 564.31 86.07 565.48 87.78 566.67 89.48 567.59 91.13 568.52 92.77 569.18 94.37 569.83 95.96 570.22 97.54 570.3 98.97 570.41 100.52 570.41 100.52 570.41 100.52 570.41 100.52 570.41 100.52M651.28 171.83Q651.46 172.15 651.67 172.51 651.89 172.88 652.1 173.25 652.32 173.62 652.53 174 652.75 174.37 652.96 174.74 653.18 175.11 653.39 175.48 653.61 175.85 653.82 176.23 654.04 176.6 654.25 176.98 654.46 177.35 654.67 177.73 652.37 175.47 649.84 172.91 647.34 170.28 644.86 167.62 642.4 164.91 639.95 162.17 637.52 159.41 635.08 156.63 632.65 153.83 630.21 151.04 627.76 148.24 625.3 145.45 622.82 142.66 620.34 139.88 617.84 137.12 615.32 134.37 615.35 135.42 615.39 136.47 615.44 137.5 615.5 138.53 615.57 139.55 615.64 140.57 615.72 141.58 615.81 142.59 615.9 143.59 615.99 144.59 616.09 145.59 616.19 146.59 616.29 147.58 616.4 148.57 616.51 149.56 616.61 150.55 616.72 151.53 616.84 152.52 616.95 153.5 617.06 154.49 617.18 155.47 617.29 156.45 617.41 157.43 617.52 158.41 617.64 159.39 617.76 160.37 617.87 161.35 617.99 162.33 618.11 163.3 618.23 164.28 618.35 165.26 618.46 166.24 618.58 167.21 618.7 168.19 618.82 169.17 618.93 170.14 619.05 171.12 619.17 172.1 619.28 173.07 619.4 174.05 619.52 175.03 619.63 176 619.75 176.98 619.86 177.96 619.98 178.93 620.09 179.91 620.21 180.89 620.32 181.86 620.44 182.84 620.55 183.82 620.66 184.79 620.77 185.77 620.89 186.75 621 187.73 621.11 188.7 621.22 189.68 621.33 190.66 621.44 191.64 621.55 192.62 621.66 193.59 621.77 194.57 621.88 195.55 621.98 196.53 622.09 197.51 624.63 198.39 627.16 199.27 629.7 200.14 632.25 201.02 634.79 201.9 637.33 202.77 639.88 203.65 642.43 204.52 644.98 205.4 647.53 206.27 650.08 207.14 652.63 208.01 655.19 208.88 657.75 209.74 660.31 210.61 662.87 211.47 663.01 211.92 663.16 212.36 663.31 212.81 663.45 213.25 663.6 213.7 663.74 214.14 663.89 214.59 664.03 215.03 664.18 215.48 664.32 215.93 664.46 216.37 664.61 216.82 664.75 217.27 664.89 217.71 665.03 218.16 665.17 218.61 662.54 217.94 659.91 217.28 657.27 216.62 654.64 215.95 652.01 215.29 649.39 214.63 646.76 213.96 644.14 213.3 641.51 212.63 638.89 211.97 636.27 211.3 633.65 210.63 631.04 209.97 628.42 209.3 625.81 208.63 623.2 207.96 623.27 208.62 623.33 209.27 623.4 209.92 623.47 210.58 623.53 211.23 623.6 211.89 623.67 212.54 623.73 213.2 623.8 213.85 623.86 214.51 623.93 215.16 623.99 215.82 624.06 216.47 624.12 217.13 624.18 217.78 624.25 218.44 624.31 219.09 624.37 219.75 624.43 220.4 624.5 221.06 624.56 221.71 624.62 222.37 624.68 223.03 624.74 223.68 624.8 224.34 624.86 224.99 624.92 225.65 624.98 226.31 625.04 226.96 625.1 227.62 625.16 228.28 625.22 228.93 625.27 229.59 625.33 230.25 625.39 230.91 625.44 231.56 625.5 232.22 625.56 232.88 625.61 233.54 625.67 234.19 625.72 234.85 625.77 235.51 625.83 236.17 625.88 236.83 625.93 237.49 625.98 238.14 626.04 238.8 626.09 239.46 626.14 240.12 626.19 240.78 626.24 241.44 626.28 242.1 626.33 242.76 626.38 243.42 626.42 244.08 626.47 244.74 626.51 245.4 626.56 246.06 626.6 246.72 626.64 247.38 626.68 248.04 626.72 248.7 626.76 249.36 626.8 250.03 626.84 250.69 626.88 251.35 626.91 252.01 626.94 252.67 626.98 253.34 627.01 254 627.04 254.66 627.06 255.33 627.09 255.99 627.11 256.66 627.14 257.32 627.16 257.98 627.18 258.65 627.2 259.32 627.21 259.98 627.23 260.65 627.24 261.31 627.25 261.98 627.25 262.65 627.26 263.32 627.26 263.99 627.26 264.65 627.26 265.32 627.26 265.99 627.25 266.67 627.24 267.34 627.23 268.01 627.22 268.68 627.2 269.36 627.18 270.03 627.16 270.7 627.13 271.38 627.1 272.06 627.06 272.74 627.02 273.42 626.98 274.1 626.93 274.78 626.88 275.46 626.82 276.14 626.76 276.83 626.69 277.51 626.62 278.2 626.54 278.89 626.45 279.58 626.35 280.28 626.25 280.97 626.14 281.67 626.03 282.36 625.9 283.06 625.77 283.76 625.63 284.46 625.48 285.17 625.32 285.87 625.15 286.58 624.97 287.28 624.79 287.99 624.6 288.7 624.4 289.41 624.19 290.12 623.98 290.82 623.77 291.53 623.55 292.24 623.33 292.95 623.14 293.54 620.37 294.29 617.61 295.1 614.87 296 612.14 296.89 609.4 297.79 606.67 298.68 603.91 299.51 601.14 300.26 598.36 301.02 595.6 301.81 592.83 302.6 590.07 303.42 587.32 304.24 584.56 305.05 581.79 305.81 579.13 306.56 579.05 305.86 579.1 305 579.15 304.15 579.2 303.29 579.26 302.44 579.31 301.58 579.36 300.72 579.41 299.87 579.47 299.01 579.52 298.16 579.57 297.3 579.62 296.45 579.68 295.59 579.73 294.73 579.78 293.88 579.83 293.02 579.89 292.17 579.94 291.31 579.99 290.46 580.05 289.6 580.1 288.74 580.15 287.89 580.2 287.03 580.26 286.18 580.31 285.32 580.36 284.47 580.41 283.61 580.47 282.75 580.52 281.9 580.57 281.04 580.62 280.19 580.68 279.33 580.73 278.48 580.78 277.62 580.83 276.76 580.89 275.91 580.94 275.05 580.99 274.2 581.04 273.34 581.09 272.49 581.15 271.63 581.2 270.78 581.25 269.92 581.3 269.06 581.36 268.21 581.41 267.35 581.46 266.5 581.51 265.64 581.57 264.79 581.62 263.93 581.67 263.08 581.69 262.22 581.69 261.36 581.69 260.51 581.69 259.65 581.69 258.8 581.69 257.94 581.69 257.09 581.69 256.23 581.69 255.38 581.69 254.52 581.68 253.66 581.68 252.81 581.68 251.95 581.68 251.1 581.68 250.24 581.68 249.39 581.68 248.53 581.68 247.68 581.68 246.82 581.68 245.97 581.68 245.11 581.68 244.25 581.68 243.4 581.68 242.54 581.68 241.69 581.68 240.83 581.68 239.98 581.68 239.12 581.68 238.27 581.68 237.41 581.68 236.56 581.68 235.7 581.68 234.84 581.68 233.99 581.68 233.13 581.68 232.28 581.68 231.42 581.68 230.57 581.68 229.71 581.68 228.86 581.68 228 581.68 227.15 581.68 226.29 581.68 225.43 581.68 224.58 581.68 223.72 581.68 222.87 581.68 222.01 581.68 221.16 581.68 220.3 581.68 219.45 581.68 218.59 581.68 217.74 581.68 216.88 581.68 216.02 581.68 215.17 581.68 214.31 581.68 213.46 581.68 212.6 581.68 211.75 581.68 210.89 581.68 210.04 581.68 209.18 581.67 208.33 581.67 207.47 581.67 206.61 581.67 205.76 581.67 204.9 581.67 204.05 581.67 203.19 581.67 202.34 581.67 201.48 581.67 200.63 581.67 199.77 581.67 198.92 581.67 198.06 581.67 197.2 581.67 196.35 581.67 195.49 581.67 194.64 581.67 193.78 581.67 192.93 581.67 192.07 581.67 191.22 581.67 190.36 581.67 189.51 581.67 188.65 581.67 187.8 581.67 186.94 581.67 186.08 581.67 185.23 581.67 184.37 581.67 183.52 581.67 182.66 581.67 181.81 581.67 180.95 581.67 180.1 581.67 179.24 581.67 178.39 581.67 177.53 581.67 176.67 581.67 175.82 581.67 174.96 581.66 174.11 581.66 173.25 581.66 172.4 581.66 171.54 581.66 170.69 581.66 169.83 581.66 168.98 581.66 168.12 581.66 167.26 581.66 166.41 581.66 165.55 581.66 164.7 581.66 163.84 581.66 162.99 581.66 162.13 581.66 161.28 581.66 160.42 581.66 159.57 581.66 158.71 581.66 157.85 581.66 157 581.66 156.14 581.66 155.29 581.66 154.43 581.66 153.58 581.66 152.72 581.66 151.87 581.66 151.01 581.66 150.16 581.66 149.3 581.66 148.44 581.66 147.59 581.66 146.73 581.66 145.88 581.66 145.02 581.66 144.17 581.66 143.31 581.65 142.46 581.65 141.6 581.65 140.75 581.65 139.89 581.65 139.03 581.65 138.18 581.65 137.32 581.65 136.47 581.65 135.61 581.65 134.76 581.65 133.9 581.65 133.05 581.65 132.19 581.65 131.34 581.65 130.48 581.65 129.62 581.65 128.77 581.65 127.91 581.65 127.06 581.65 126.2 581.65 125.35 581.65 124.49 581.65 123.64 581.65 122.78 581.65 121.92 581.65 121.07 581.65 120.21 581.65 119.36 581.65 118.5 581.65 117.65 581.65 116.79 581.65 115.94 581.65 115.08 581.65 114.22 581.65 113.37 581.65 112.51 581.65 111.66 581.65 110.8 581.65 109.95 581.65 109.09 581.65 108.23 581.65 107.38 581.65 106.52 581.65 105.67 581.65 104.81 581.65 103.96 581.65 103.1 581.65 102.24 581.65 101.39 581.65 100.53 581.65 99.68 581.65 98.82 581.65 97.97 581.65 97.11 581.65 96.25 581.65 95.4 581.65 94.54 581.65 93.69 581.65 92.83 581.65 91.97 581.65 91.12 581.65 90.26 581.65 89.4 581.65 88.55 581.65 87.7 584.21 89.99 586.75 92.3 589.27 94.63 591.76 97 594.24 99.38 596.68 101.79 599.11 104.23 601.52 106.68 603.89 109.16 606.24 111.67 608.57 114.19 610.87 116.74 613.16 119.31 615.41 121.91 617.64 124.53 619.84 127.16 622.02 129.82 624.17 132.5 626.3 135.2 628.39 137.92 630.46 140.66 632.51 143.43 634.52 146.21 636.52 149.01 638.48 151.83 640.41 154.67 642.32 157.53 644.2 160.41 646.05 163.3 647.87 166.22 649.66 169.15 651.28 171.83 651.28 171.83 651.28 171.83"></path><path fill="#241f2b" d="M149.17 376.08Q149.41 377.08 149.66 378.07 149.9 379.08 150.14 380.1 150.38 381.15 150.62 382.2 150.85 383.25 151.09 384.31 151.33 385.37 151.56 386.44 151.8 387.5 152.03 388.57 152.27 389.64 152.51 390.71 152.74 391.77 152.98 392.84 153.22 393.91 153.45 394.98 153.69 396.05 153.93 397.13 154.17 398.2 154.41 399.27 154.65 400.34 154.89 401.41 155.13 402.49 155.37 403.56 155.62 404.63 155.86 405.71 156.1 406.78 156.35 407.85 156.59 408.93 156.84 410 157.09 411.08 157.34 412.15 157.58 413.23 157.83 414.31 158.08 415.38 158.33 416.46 158.59 417.54 158.84 418.62 159.09 419.7 159.35 420.78 159.61 421.86 159.86 422.94 160.12 424.02 160.38 425.1 160.65 426.18 160.91 427.27 161.17 428.35 161.44 429.43 161.71 430.52 161.98 431.6 162.25 432.69 162.53 433.78 162.8 434.87 163.08 435.95 163.36 437.04 163.64 438.13 163.92 439.22 164.21 440.32 164.49 441.41 164.78 442.5 165.07 443.6 165.36 444.69 165.65 445.79 165.94 446.88 166.23 447.98 166.52 449.08 166.82 450.18 167.11 451.28 167.41 452.38 167.7 453.48 168 454.58 168.29 455.68 168.59 456.79 168.89 457.89 169.18 459 169.48 460.11 169.78 461.21 170.08 462.32 170.37 463.43 170.67 464.54 170.97 465.65 171.27 466.77 171.57 467.88 171.87 468.99 172.16 470.11 172.46 471.23 172.76 472.34 173.06 473.46 173.36 474.58 173.66 475.7 173.95 476.82 174.25 477.94 174.55 479.07 174.85 480.19 175.15 481.32 175.44 482.44 175.74 483.57 176.04 484.7 176.34 485.83 176.63 486.96 176.93 488.09 177.23 489.22 177.52 490.35 177.82 491.48 178.11 492.62 178.41 493.76 178.7 494.89 179 496.03 179.29 497.17 179.59 498.31 179.88 499.45 180.18 500.59 180.47 501.74 180.76 502.88 181.05 504.03 181.35 505.17 181.64 506.32 181.93 507.47 182.22 508.62 182.51 509.77 182.8 510.92 183.09 512.07 183.38 513.23 183.67 514.38 183.96 515.54 184.25 516.69 184.54 517.85 184.82 519.01 185.11 520.17 185.4 521.33 185.68 522.5 185.97 523.66 186.25 524.82 186.54 525.99 186.82 527.16 187.11 528.32 187.39 529.49 187.67 530.66 187.95 531.83 188.24 533.01 188.52 534.18 188.8 535.35 189.08 536.53 189.36 537.71 189.64 538.88 189.92 540.06 190.19 541.24 190.47 542.42 190.75 543.61 191.02 544.79 191.3 545.97 191.57 547.16 191.85 548.35 192.12 549.53 192.39 550.72 192.67 551.91 192.94 553.11 193.21 554.3 193.48 555.49 193.75 556.69 194.02 557.88 194.29 559.08 194.56 560.28 194.82 561.48 195.09 562.68 195.36 563.88 195.62 565.08 195.89 566.29 196.15 567.49 196.42 568.7 196.68 569.91 196.94 571.11 197.2 572.32 197.46 573.53 197.72 574.75 197.98 575.96 198.24 577.17 198.5 578.39 198.75 579.61 199.01 580.83 199.27 582.04 199.52 583.26 199.78 584.49 200.03 585.71 200.28 586.93 200.53 588.16 200.78 589.38 201.03 590.61 201.28 591.84 201.53 593.07 201.78 594.3 202.03 595.53 202.28 596.76 202.52 598 202.77 599.23 203.01 600.47 203.25 601.71 203.5 602.95 203.74 604.19 203.98 605.43 204.22 606.67 204.46 607.91 204.7 609.16 204.94 610.4 205.18 611.65 205.41 612.9 205.65 614.15 205.89 615.4 206.12 616.65 206.35 617.9 206.59 619.15 206.82 620.41 207.05 621.66 207.28 622.92 207.51 624.17 207.74 625.43 207.97 626.69 208.2 627.95 208.43 629.21 208.66 630.47 208.88 631.74 209.11 633 209.34 634.26 209.56 635.53 209.78 636.79 210.01 638.06 210.23 639.33 210.46 640.6 210.68 641.86 210.9 643.13 211.12 644.4 211.34 645.67 211.56 646.95 211.78 648.22 212 649.49 212.22 650.76 212.44 652.03 212.66 653.31 212.88 654.58 213.1 655.85 213.32 657.12 213.54 658.4 213.76 659.67 213.98 660.94 214.2 662.22 214.42 663.49 214.64 664.76 214.86 666.03 215.08 667.3 215.3 668.57 215.53 669.83 215.75 671.1 215.96 672.36 215.42 672.91 212.5 671.84 208.83 670.24 205.17 668.61 201.53 666.92 197.92 665.2 194.32 663.43 190.73 661.63 187.18 659.78 183.64 657.89 180.12 655.96 176.63 654 173.16 651.98 169.72 649.93 166.29 647.85 162.89 645.73 159.52 643.56 159.45 642.59 159.42 641.38 159.39 640.15 159.36 638.92 159.34 637.69 159.31 636.46 159.28 635.23 159.25 634.01 159.21 632.8 159.16 631.6 159.11 630.41 159.05 629.23 158.98 628.06 158.91 626.89 158.83 625.74 158.74 624.6 158.65 623.47 158.55 622.35 158.44 621.23 158.32 620.13 158.2 619.03 158.08 617.94 157.95 616.86 157.81 615.79 157.67 614.72 157.53 613.66 157.37 612.61 157.22 611.56 157.06 610.52 156.9 609.48 156.73 608.45 156.56 607.43 156.38 606.41 156.21 605.39 156.02 604.38 155.84 603.37 155.65 602.37 155.46 601.37 155.27 600.38 155.07 599.38 154.88 598.4 154.68 597.41 154.47 596.43 154.27 595.45 154.06 594.47 153.85 593.5 153.64 592.53 153.43 591.56 153.22 590.6 153 589.64 152.78 588.68 152.56 587.72 152.34 586.76 152.12 585.81 151.9 584.86 151.67 583.91 151.45 582.96 151.22 582.01 150.99 581.07 150.76 580.12 150.53 579.18 150.3 578.24 150.07 577.31 149.84 576.37 147.37 575.06 144.91 573.75 142.45 572.44 139.98 571.12 137.52 569.8 135.06 568.48 132.6 567.16 130.14 565.84 127.69 564.51 125.23 563.18 122.77 561.86 120.31 560.53 117.85 559.2 115.39 557.87 112.93 556.54 110.47 555.21 110.52 555.89 110.56 556.57 110.61 557.25 110.66 557.93 110.7 558.61 110.75 559.29 110.8 559.97 110.85 560.65 110.9 561.33 110.95 562.01 110.99 562.7 111.04 563.38 111.09 564.06 111.14 564.74 111.19 565.42 111.24 566.1 111.28 566.79 111.33 567.47 111.38 568.16 111.42 568.85 111.47 569.53 111.51 570.22 111.56 570.91 111.6 571.61 111.64 572.3 111.68 573 111.72 573.7 111.75 574.4 111.79 575.1 111.82 575.81 111.85 576.52 111.87 577.23 111.9 577.95 111.92 578.67 111.93 579.39 111.94 580.12 111.95 580.86 111.96 581.6 111.96 582.35 111.95 583.1 111.94 583.86 111.92 584.63 111.89 585.4 111.86 586.19 111.82 586.98 111.77 587.78 111.71 588.59 111.65 589.42 111.57 590.25 111.48 591.1 111.39 591.95 111.28 592.83 111.16 593.71 111.03 594.61 110.88 595.52 110.73 596.44 110.56 597.37 110.38 598.32 110.2 599.28 110 600.25 109.8 601.22 109.6 602.2 109.4 603.17 109.24 603.92 106.34 601.15 103.48 598.34 100.66 595.5 97.86 592.63 95.09 589.73 92.37 586.79 89.67 583.83 87.01 580.84 84.38 577.81 81.79 574.75 79.23 571.67 76.7 568.56 74.22 565.42 71.77 562.25 69.36 559.06 67.08 555.99 66.78 555.48 66.54 555.02 66.3 554.56 66.06 554.1 65.82 553.63 65.59 553.16 65.36 552.69 65.13 552.22 64.91 551.74 64.69 551.26 64.47 550.77 64.26 550.29 64.04 549.8 63.83 549.31 63.62 548.82 63.42 548.32 63.22 547.82 63.02 547.32 62.82 546.82 62.62 546.32 62.43 545.81 62.24 545.3 62.05 544.79 61.86 544.28 61.68 543.76 61.5 543.25 61.32 542.73 61.14 542.2 60.97 541.68 60.8 541.15 60.63 540.63 60.46 540.1 60.3 539.56 60.13 539.03 59.97 538.49 59.81 537.95 59.66 537.41 59.5 536.87 59.35 536.33 59.2 535.78 59.05 535.23 58.91 534.68 58.77 534.13 58.63 533.57 58.49 533.02 58.35 532.46 58.22 531.9 58.09 531.34 57.96 530.77 57.83 530.21 57.71 529.64 57.58 529.07 57.46 528.5 57.34 527.92 57.23 527.34 57.12 526.77 57 526.19 56.89 525.6 56.79 525.02 56.68 524.44 56.58 523.85 56.48 523.26 56.38 522.67 56.28 522.07 56.19 521.48 56.1 520.88 56.01 520.28 55.92 519.68 55.84 519.08 55.75 518.47 55.67 517.87 55.59 517.26 55.52 516.65 55.44 516.03 55.37 515.42 55.3 514.8 55.23 514.19 55.17 513.57 55.11 512.94 55.04 512.32 54.98 511.7 54.93 511.07 54.87 510.44 54.82 509.81 54.77 509.18 54.72 508.54 54.68 507.91 54.63 507.27 54.59 506.63 54.55 505.99 54.51 505.34 54.48 504.7 54.44 504.05 54.41 503.4 54.38 502.75 54.36 502.1 54.33 501.44 54.31 500.79 54.29 500.13 54.27 499.47 54.25 498.81 54.24 498.15 54.22 497.48 54.21 496.82 54.21 496.15 54.2 495.48 54.2 494.81 54.19 494.13 54.19 493.46 54.2 492.78 54.2 492.1 54.21 491.42 54.21 490.74 54.22 490.06 54.24 489.37 54.25 488.69 54.27 488 54.29 487.31 54.31 486.61 54.33 485.92 54.35 485.23 54.38 484.53 54.41 483.83 54.44 483.13 54.47 482.43 54.51 481.73 54.54 481.02 54.58 480.31 54.62 479.6 54.67 478.89 54.71 478.18 54.76 477.47 54.81 476.76 54.86 476.04 54.91 475.32 54.96 474.6 55.02 473.88 55.08 473.16 55.14 472.43 55.2 471.71 55.26 470.98 55.33 470.25 55.4 469.52 55.47 468.79 55.54 468.05 55.62 467.32 55.69 466.58 55.77 465.84 55.85 465.1 55.93 464.36 56.01 463.62 56.1 462.88 56.19 462.13 56.28 461.38 56.37 460.63 56.46 459.88 56.56 459.13 56.65 458.38 56.75 457.62 56.85 456.87 56.96 456.11 57.06 455.35 57.17 454.59 57.28 453.83 57.39 453.06 57.5 452.3 57.61 451.53 57.73 450.76 57.85 449.99 57.97 449.22 58.09 448.45 58.22 447.67 58.34 446.9 58.47 446.12 58.6 445.34 58.73 444.56 58.86 443.78 59 443 59.14 442.21 59.28 441.43 59.42 440.64 59.56 439.85 59.71 439.06 59.85 438.27 60 437.48 60.16 436.68 60.31 435.89 60.46 435.09 60.62 434.29 60.78 433.49 60.94 432.69 61.11 431.89 61.27 431.08 61.44 430.28 61.61 429.47 61.78 428.66 61.96 427.85 62.13 427.04 62.31 426.22 62.49 425.41 62.67 424.59 62.86 423.77 63.04 422.95 63.23 422.13 63.43 421.31 63.62 420.48 63.82 419.65 64.02 418.83 64.22 417.99 64.42 417.16 64.63 416.33 64.84 415.49 65.05 414.66 65.26 413.82 65.48 412.97 65.7 412.13 65.92 411.28 66.15 410.44 66.37 409.59 66.61 408.73 66.84 407.88 67.08 407.02 67.32 406.16 67.56 405.3 67.81 404.43 68.07 403.56 68.32 402.69 68.58 401.81 68.85 400.93 69.12 400.05 69.39 399.16 69.67 398.27 69.95 397.37 70.24 396.47 70.53 395.57 70.83 394.65 71.14 393.74 71.45 392.81 71.76 391.89 72.09 390.95 72.42 390.01 72.75 389.06 73.09 388.11 73.44 387.14 73.79 386.17 74.15 385.2 74.52 384.21 74.89 383.22 75.26 382.22 75.63 381.22 76.01 380.21 76.39 379.19 76.77 378.17 77.15 377.14 77.53 376.11 77.9 375.08 82.36 375.08 86.82 375.08 91.28 375.08 95.74 375.08 100.2 375.08 104.66 375.08 109.12 375.08 113.58 375.08 118.04 375.08 122.5 375.08 126.95 375.08 131.41 375.11 135.86 375.27 140.29 375.64 144.71 376.08 149.17 376.08 149.17 376.08 149.17 376.08M110.18 541.69Q114.49 543.69 118.81 545.7 123.12 547.7 127.43 549.71 131.74 551.71 136.06 553.71 140.37 555.71 144.68 557.71 144.42 556.65 144.17 555.6 143.91 554.55 143.65 553.5 143.4 552.45 143.14 551.4 142.88 550.35 142.62 549.3 142.37 548.26 142.11 547.21 141.85 546.17 141.59 545.13 141.33 544.08 141.07 543.04 140.81 542 140.55 540.96 140.29 539.92 140.03 538.88 139.77 537.84 139.51 536.81 139.25 535.77 138.99 534.74 138.73 533.7 138.47 532.67 138.21 531.63 137.95 530.6 137.69 529.57 137.43 528.54 137.17 527.51 136.91 526.48 136.65 525.45 136.38 524.42 136.12 523.39 135.86 522.36 135.6 521.34 135.34 520.31 135.08 519.28 134.82 518.26 134.56 517.23 134.3 516.21 134.04 515.19 133.78 514.16 133.52 513.14 133.26 512.12 133.01 511.1 132.75 510.08 132.49 509.06 132.23 508.04 131.97 507.02 131.71 506 131.45 504.98 131.2 503.97 130.94 502.95 130.68 501.93 130.42 500.92 130.17 499.9 129.91 498.89 129.65 497.87 129.4 496.86 129.14 495.85 128.89 494.84 128.63 493.82 128.38 492.81 128.12 491.8 127.87 490.79 127.61 489.78 127.36 488.77 127.1 487.76 126.85 486.75 126.6 485.75 126.35 484.74 126.1 483.73 125.84 482.73 125.59 481.72 125.34 480.71 125.09 479.71 124.84 478.7 124.59 477.7 124.34 476.7 124.1 475.69 123.85 474.69 123.6 473.69 123.35 472.69 123.11 471.69 122.86 470.68 122.62 469.68 122.37 468.68 122.13 467.68 121.88 466.69 121.64 465.69 121.4 464.69 121.16 463.69 120.92 462.69 120.67 461.7 120.43 460.7 120.2 459.71 119.96 458.71 119.72 457.71 119.48 456.72 119.25 455.73 119.01 454.73 118.78 453.74 118.54 452.75 118.31 451.75 118.08 450.76 117.85 449.77 117.62 448.78 117.39 447.79 117.16 446.8 116.93 445.8 116.7 444.82 116.48 443.83 116.26 442.84 116.03 441.85 115.81 440.86 115.59 439.87 115.37 438.88 115.15 437.9 114.93 436.91 114.72 435.92 114.5 434.93 114.29 433.95 114.08 432.96 113.87 431.98 113.66 430.99 113.45 430 113.25 429.02 113.04 428.03 112.92 428.99 112.81 429.94 112.7 430.89 112.59 431.84 112.48 432.79 112.37 433.74 112.27 434.68 112.17 435.63 112.07 436.57 111.97 437.51 111.87 438.46 111.77 439.4 111.68 440.34 111.59 441.28 111.5 442.21 111.41 443.15 111.32 444.09 111.24 445.02 111.16 445.95 111.07 446.89 110.99 447.82 110.92 448.75 110.84 449.68 110.76 450.6 110.69 451.53 110.62 452.46 110.55 453.38 110.48 454.31 110.41 455.23 110.34 456.15 110.28 457.07 110.21 457.99 110.15 458.91 110.09 459.83 110.03 460.75 109.97 461.66 109.91 462.58 109.86 463.49 109.8 464.41 109.75 465.32 109.7 466.23 109.65 467.14 109.6 468.05 109.55 468.96 109.51 469.87 109.46 470.77 109.42 471.68 109.38 472.58 109.34 473.49 109.3 474.39 109.26 475.29 109.22 476.19 109.19 477.09 109.15 477.99 109.12 478.88 109.09 479.78 109.06 480.68 109.03 481.57 109 482.46 108.97 483.36 108.95 484.25 108.92 485.14 108.9 486.03 108.88 486.92 108.86 487.8 108.84 488.69 108.82 489.58 108.81 490.46 108.79 491.34 108.78 492.23 108.77 493.11 108.76 493.99 108.75 494.87 108.74 495.75 108.73 496.62 108.72 497.5 108.72 498.38 108.72 499.25 108.71 500.12 108.71 501 108.71 501.87 108.72 502.74 108.72 503.61 108.72 504.48 108.73 505.34 108.74 506.21 108.75 507.07 108.75 507.94 108.77 508.8 108.78 509.66 108.79 510.53 108.81 511.39 108.82 512.24 108.84 513.1 108.86 513.96 108.88 514.82 108.9 515.67 108.92 516.53 108.95 517.38 108.97 518.23 109 519.08 109.02 519.93 109.05 520.78 109.08 521.63 109.11 522.48 109.15 523.32 109.18 524.17 109.22 525.01 109.25 525.85 109.29 526.69 109.33 527.54 109.37 528.38 109.41 529.21 109.45 530.05 109.5 530.89 109.54 531.73 109.59 532.56 109.64 533.4 109.69 534.23 109.73 535.06 109.79 535.89 109.84 536.72 109.89 537.55 109.95 538.38 110 539.21 110.06 540.04 110.12 540.86 110.18 541.69 110.18 541.69 110.18 541.69M374.07 662.33Q374.08 659.8 374.09 657.32 374.1 654.86 374.11 652.44 374.12 650.05 374.13 647.69 374.13 645.34 374.14 643.02 374.15 640.72 374.16 638.43 374.17 636.16 374.17 633.9 374.18 631.65 374.19 629.41 374.2 627.19 374.2 624.97 374.21 622.76 374.21 620.56 374.22 618.36 374.22 616.17 374.23 613.99 374.23 611.81 374.24 609.63 374.24 607.46 374.25 605.3 374.25 603.14 374.26 600.98 374.26 598.82 374.26 596.67 374.27 594.52 374.27 592.37 374.27 590.22 374.27 588.08 374.28 585.94 374.28 583.8 374.28 581.66 374.28 579.52 374.28 577.39 374.29 575.26 374.29 573.12 374.29 570.99 374.29 568.86 374.29 566.73 374.29 564.61 374.29 562.48 374.3 560.35 374.3 558.23 374.3 556.1 374.3 553.98 374.3 551.86 374.3 549.74 374.3 547.61 374.3 545.49 374.3 543.37 374.3 541.25 374.3 539.13 374.3 537.02 374.3 534.9 374.3 532.78 374.3 530.66 374.3 528.55 374.3 526.43 374.3 524.31 374.3 522.2 374.3 520.08 374.3 517.97 374.3 515.85 374.3 513.74 374.3 511.63 374.3 509.51 374.3 507.4 374.3 505.29 374.3 503.18 374.3 501.06 374.3 498.95 374.3 496.84 374.3 494.73 374.29 492.62 374.29 490.51 374.29 488.4 374.29 486.29 374.29 484.18 374.29 482.07 374.28 479.96 374.28 477.86 374.28 475.75 374.28 473.64 374.27 471.53 374.27 469.43 374.27 467.32 374.26 465.22 374.26 463.11 374.26 461.01 374.25 458.91 374.25 456.8 374.24 454.7 374.23 452.6 374.23 450.5 374.22 448.4 374.21 446.3 374.2 444.2 374.19 442.1 374.18 440.01 374.16 437.91 374.15 435.82 374.13 433.73 374.12 431.64 374.1 429.55 374.08 427.46 374.05 425.38 374.03 423.29 374 421.21 373.97 419.14 373.95 417.06 373.91 414.99 373.88 412.92 373.85 410.86 373.82 408.8 373.78 406.74 373.75 404.7 373.72 402.65 373.68 400.62 373.65 398.59 373.61 396.58 373.58 394.57 373.55 392.57 373.52 390.59 373.49 388.62 373.47 386.77 370.89 385.95 368.31 385.15 363.17 385.36 363.17 385.36 363.17 385.36 360.75 385.41 355.63 385.88 353.07 386.11 349.83 386.43 346.59 386.76 342.67 387.17 338.75 387.58 334.16 388.07 329.56 388.54 324.29 389.09 319.02 389.62 313.06 390.21 310.08 390.5 306.93 390.8 303.79 391.09 300.47 391.4 300.47 391.4 300.47 391.4 300.47 392.35 300.47 393.31 300.47 394.28 300.47 395.25 300.47 396.22 300.47 397.2 300.47 398.19 300.47 399.18 300.47 400.17 300.47 401.16 300.48 402.16 300.48 403.17 300.48 404.17 300.49 405.18 300.49 406.19 300.49 407.21 300.5 408.22 300.5 409.24 300.5 410.26 300.51 411.28 300.51 412.31 300.52 413.34 300.52 414.36 300.53 415.39 300.53 416.42 300.53 417.46 300.54 418.49 300.54 419.53 300.55 420.56 300.55 421.6 300.56 422.64 300.56 423.68 300.57 424.72 300.57 425.76 300.57 426.81 300.58 427.85 300.58 428.89 300.59 429.94 300.59 430.98 300.6 432.03 300.6 433.08 300.6 434.13 300.61 435.18 300.61 436.22 300.62 437.27 300.62 438.32 300.62 439.38 300.63 440.43 300.63 441.48 300.63 442.53 300.64 443.58 300.64 444.64 300.65 445.69 300.65 446.74 300.65 447.8 300.65 448.85 300.66 449.91 300.66 450.96 300.66 452.02 300.67 453.07 300.67 454.13 300.67 455.19 300.67 456.24 300.68 457.3 300.68 458.36 300.68 459.42 300.68 460.47 300.69 461.53 300.69 462.59 300.69 463.65 300.69 464.71 300.69 465.77 300.7 466.82 300.7 467.88 300.7 468.94 300.7 470 300.7 471.06 300.7 472.12 300.71 473.18 300.71 474.24 300.71 475.3 300.71 476.36 300.71 477.42 300.71 478.48 300.71 479.55 300.72 480.61 300.72 481.67 300.72 482.73 300.72 483.79 300.72 484.85 300.72 485.91 300.72 486.98 300.72 488.04 300.72 489.1 300.72 490.16 300.73 491.22 300.73 492.29 300.73 493.35 300.73 494.41 300.73 495.47 300.73 496.54 300.73 497.6 300.73 498.66 300.73 499.73 300.73 500.79 300.73 501.85 300.73 502.92 300.73 503.98 300.73 505.04 300.73 506.11 300.74 507.17 300.74 508.24 300.74 509.3 300.74 510.36 300.74 511.43 300.74 512.49 300.74 513.56 300.74 514.62 300.74 515.69 300.74 516.75 300.74 517.82 300.74 518.88 300.74 519.95 300.74 521.01 300.74 522.08 300.74 523.14 300.74 524.21 300.74 525.27 300.74 526.34 300.74 527.41 300.74 528.47 300.74 529.54 300.74 530.6 300.74 531.67 300.74 532.74 300.74 533.8 300.74 534.87 300.74 535.94 300.74 537 300.74 538.07 300.74 539.14 300.74 540.21 300.74 541.27 300.74 542.34 300.74 543.41 300.74 544.48 300.74 545.55 300.74 546.61 300.74 547.68 300.74 548.75 300.74 549.82 300.74 550.89 300.74 551.96 300.74 553.03 300.74 554.1 300.74 555.16 300.74 556.23 300.73 557.3 300.73 558.37 300.73 559.44 300.73 560.52 300.73 561.59 300.73 562.66 300.73 563.73 300.73 564.8 300.73 565.87 300.73 566.94 300.73 568.02 300.73 569.09 300.73 570.16 300.73 571.23 300.73 572.31 300.72 573.38 300.72 574.45 300.72 575.53 300.72 576.6 300.72 577.68 300.72 578.75 300.72 579.83 300.72 580.9 300.71 581.98 300.71 583.06 300.71 584.13 300.71 585.21 300.71 586.29 300.71 587.37 300.71 588.45 300.7 589.53 300.7 590.61 300.7 591.69 300.7 592.77 300.7 593.85 300.69 594.93 300.69 596.02 300.69 597.1 300.69 598.18 300.68 599.27 300.68 600.36 300.68 601.44 300.67 602.53 300.67 603.62 300.67 604.71 300.66 605.8 300.66 606.89 300.66 607.98 300.65 609.07 300.65 610.17 300.64 611.26 300.64 612.36 300.63 613.46 300.63 614.56 300.62 615.66 300.62 616.76 300.61 617.87 300.6 618.97 300.6 620.08 300.59 621.19 300.58 622.3 300.58 623.41 300.57 624.53 300.56 625.65 300.55 626.77 300.54 627.89 300.53 629.01 300.52 630.14 300.51 631.27 300.5 632.41 300.49 633.55 300.48 634.69 300.47 635.83 300.46 636.98 300.45 638.13 300.44 639.29 300.43 640.45 300.41 641.62 300.4 642.79 300.39 643.96 300.37 645.15 300.36 646.34 300.34 647.53 300.33 648.74 300.31 649.95 300.29 651.16 300.27 652.39 300.26 653.63 300.24 654.87 300.22 656.13 300.2 657.39 300.18 658.67 300.15 659.96 300.13 661.26 300.1 662.58 300.08 663.91 300.05 665.25 300.02 666.61 299.99 667.99 303.34 668.32 306.52 668.62 309.7 668.89 312.71 669.13 318.74 669.55 324.09 669.84 329.44 670.07 334.11 670.2 338.77 670.28 342.76 670.28 346.74 670.25 350.03 670.16 353.33 670.05 355.94 669.89 361.15 669.55 363.61 669.1 363.61 669.1 363.61 669.1 368.84 668.19 371.45 666.46 374.06 664.76 374.07 662.33 374.07 662.33 374.07 662.33 374.07 662.33 374.07 662.33M445.97 379.68Q446.05 381.85 446.12 384.01 446.2 386.18 446.27 388.34 446.35 390.51 446.43 392.67 446.5 394.84 446.58 397.01 446.65 399.17 446.73 401.34 446.8 403.5 446.88 405.67 446.96 407.83 447.03 410 447.11 412.16 447.18 414.33 447.26 416.5 447.33 418.66 447.33 420.83 447.33 422.99 447.33 425.16 447.33 427.32 447.33 429.49 447.33 431.65 447.33 433.82 447.33 435.99 447.33 438.15 447.33 440.32 447.33 442.48 447.33 444.65 447.33 446.81 447.33 448.98 447.33 451.14 447.33 453.31 447.33 455.48 447.33 457.64 447.33 459.81 447.33 461.97 447.33 464.14 447.33 466.3 447.33 468.47 447.33 470.64 447.33 472.8 447.33 474.97 447.33 477.13 447.33 479.3 447.33 481.46 447.33 483.63 447.33 485.79 447.33 487.96 447.33 490.13 447.33 492.29 447.33 494.46 447.33 496.62 447.33 498.79 447.33 500.95 447.33 503.12 447.33 505.29 447.33 507.45 447.33 509.62 447.33 511.78 447.33 513.95 447.33 516.11 447.33 518.28 447.33 520.45 447.33 522.61 447.33 524.78 447.33 526.94 447.33 529.11 447.33 531.27 447.33 533.44 447.33 535.61 447.33 537.77 447.33 539.94 447.33 542.1 447.33 544.27 447.33 546.43 447.33 548.6 447.33 550.76 447.33 552.93 447.33 555.1 447.33 557.26 447.33 559.43 447.33 561.59 447.33 563.76 447.33 565.92 447.33 568.09 447.33 570.26 447.33 572.42 447.33 574.59 447.33 576.75 447.33 578.92 447.33 581.09 447.33 583.25 447.33 585.42 447.33 587.58 447.33 589.75 447.33 591.91 447.33 594.08 447.33 596.25 447.33 598.41 447.33 600.58 447.33 602.74 447.33 604.91 447.33 607.08 447.33 609.24 447.33 611.41 447.33 613.57 447.33 615.74 447.33 617.9 447.33 620.07 447.33 622.24 447.33 624.4 447.33 626.57 447.33 628.73 447.33 630.9 447.33 633.07 447.33 635.23 447.33 637.4 447.33 639.57 447.33 641.73 447.33 643.9 447.33 646.06 447.33 648.23 447.33 650.4 447.33 652.56 447.33 654.73 447.33 656.9 447.33 658.29 447.52 659.59 447.53 660.9 447.14 662.15 446.75 663.4 446.17 664.59 445.59 665.77 444.82 666.9 443.28 669.17 440.96 671.2 438.64 673.28 435.56 675.18 432.47 677.18 428.65 679.17 424.84 681.3 420.3 683.43 415.75 685.64 410.46 687.76 407.8 688.81 404.96 689.82 402.12 690.82 399.08 691.76 399.08 691.76 399.08 691.76 396.17 692.62 392.94 693.44 389.7 694.25 386.13 695 382.56 695.72 378.66 696.38 374.75 697 370.52 697.55 366.27 698.04 361.22 698.47 356.16 698.84 350.31 699.1 347.38 699.2 344.25 699.26 341.12 699.29 337.78 699.29 334.45 699.25 330.92 699.16 327.39 699.04 323.66 698.86 323.66 698.86 323.66 698.86 319.93 698.6 316.31 698.31 312.7 697.98 309.2 697.61 305.7 697.21 302.32 696.73 298.94 696.23 295.67 695.72 292.42 695.17 289.27 694.63 286.13 694.05 283.1 693.47 277.06 692.22 271.47 690.99 271.47 690.99 271.47 690.99 265.75 689.62 260.05 688.17 254.39 686.61 248.74 684.96 243.13 683.22 237.56 681.38 232.01 679.46 226.69 677.53 226.5 676.45 226.52 675.28 226.53 674.11 226.55 672.94 226.56 671.76 226.57 670.59 226.59 669.42 226.6 668.25 226.62 667.08 226.63 665.91 226.65 664.74 226.66 663.57 226.68 662.39 226.69 661.22 226.71 660.05 226.72 658.88 226.74 657.71 226.75 656.54 226.76 655.37 226.78 654.2 226.79 653.03 226.81 651.86 226.82 650.69 226.84 649.52 226.85 648.35 226.87 647.18 226.88 646.01 226.9 644.83 226.91 643.66 226.92 642.49 226.94 641.32 226.95 640.15 226.97 638.98 226.98 637.81 227 636.64 227.01 635.47 227.03 634.3 227.04 633.13 227.05 631.96 227.07 630.79 227.08 629.62 227.1 628.45 227.11 627.28 227.13 626.11 227.14 624.94 227.16 623.77 227.17 622.6 227.18 621.43 227.2 620.26 227.21 619.09 227.23 617.92 227.23 616.75 227.23 615.58 227.23 614.41 227.23 613.24 227.23 612.07 227.23 610.9 227.23 609.73 227.23 608.56 227.23 607.39 227.23 606.22 227.23 605.05 227.23 603.88 227.23 602.71 227.23 601.54 227.23 600.37 227.23 599.2 227.23 598.03 227.23 596.86 227.23 595.69 227.23 594.52 227.23 593.35 227.23 592.18 227.23 591.01 227.23 589.84 227.23 588.67 227.23 587.5 227.23 586.33 227.23 585.16 227.23 583.99 227.23 582.82 227.23 581.65 227.23 580.47 227.23 579.3 227.23 578.13 227.23 576.96 227.23 575.79 227.23 574.62 227.23 573.45 227.23 572.28 227.23 571.11 227.23 569.94 227.23 568.77 227.23 567.6 227.23 566.43 227.23 565.26 227.23 564.09 227.23 562.92 227.23 561.75 227.23 560.58 227.23 559.41 227.23 558.24 227.23 557.07 227.23 555.9 227.23 554.73 227.23 553.56 227.23 552.39 227.23 551.22 227.23 550.05 227.23 548.88 227.23 547.71 227.23 546.54 227.23 545.37 227.23 544.2 227.23 543.03 227.23 541.86 227.23 540.69 227.23 539.52 227.23 538.35 227.23 537.18 227.23 536.01 227.23 534.84 227.23 533.67 227.23 532.5 227.23 531.33 227.23 530.16 227.23 528.99 227.23 527.82 227.23 526.65 227.23 525.48 227.23 524.31 227.23 523.14 227.23 521.97 227.23 520.8 227.23 519.63 227.23 518.46 227.23 517.29 227.23 516.12 227.23 514.95 227.23 513.78 227.23 512.61 227.23 511.44 227.23 510.27 227.23 509.1 227.23 507.93 227.23 506.76 227.23 505.59 227.23 504.42 227.23 503.25 227.23 502.08 227.23 500.91 227.23 499.74 227.23 498.57 227.23 497.4 227.23 496.23 227.23 495.06 227.23 493.89 227.23 492.72 227.23 491.55 227.23 490.38 227.23 489.21 227.23 488.04 227.23 486.87 227.23 485.7 227.23 484.53 227.23 483.36 227.23 482.19 227.23 481.02 227.23 479.85 227.23 478.68 227.23 477.51 227.23 476.34 227.23 475.17 227.23 474 227.23 472.83 227.23 471.66 227.23 470.49 227.23 469.32 227.23 468.15 227.23 466.98 227.23 465.81 227.23 464.64 227.23 463.47 227.23 462.3 227.23 461.13 227.23 459.96 227.23 458.79 227.23 457.62 227.23 456.45 227.23 455.28 227.23 454.11 227.23 452.94 227.23 451.77 227.23 450.6 227.23 449.43 227.23 448.26 227.23 447.09 227.23 445.92 227.23 444.76 227.23 443.59 227.23 442.42 227.23 441.25 227.23 440.08 227.23 438.91 227.23 437.74 227.23 436.57 227.23 435.4 227.23 434.23 227.23 433.06 227.23 431.89 227.23 430.72 227.23 429.55 227.23 428.38 227.23 427.21 227.23 426.04 227.23 424.87 227.23 423.7 227.23 422.53 227.23 421.36 227.23 420.19 227.23 419.02 227.23 417.85 227.23 416.68 227.23 415.51 227.23 414.34 227.23 413.17 227.23 412 227.23 410.83 227.23 409.66 227.23 408.49 227.23 407.32 227.23 406.15 227.23 404.98 227.23 403.81 227.23 402.64 227.23 401.47 227.23 400.3 227.23 399.13 227.23 397.96 227.23 396.79 227.23 395.62 227.23 394.45 227.23 393.28 227.23 392.11 227.23 390.94 227.23 389.77 227.23 388.61 227.23 387.44 227.23 386.27 227.23 385.1 227.23 383.93 227.23 382.76 227.23 381.59 227.23 380.42 227.23 379.25 227.23 378.09 230.18 378.08 233.14 378.08 236.09 378.08 239.05 378.09 242 378.07 244.96 378.01 247.91 377.92 250.84 377.57 253.77 377.2 256.73 377.12 259.7 377.12 262.68 377.13 265.65 377.14 268.63 377.14 271.61 377.15 274.59 377.15 277.54 376.82 280.5 376.41 283.48 376.21 286.49 376.21 289.49 376.14 292.49 375.85 295.48 375.55 298.5 375.38 301.52 375.21 304.54 374.93 307.56 374.56 310.59 374.24 313.62 373.96 316.67 373.72 319.73 373.55 322.8 373.36 322.8 373.36 322.8 373.36 325.92 372.93 328.94 372.47 331.97 372.08 334.89 371.76 340.75 371.24 346.2 370.63 351.63 369.84 356.65 369.13 361.67 368.42 366.28 367.8 370.9 367.19 375.11 366.68 379.31 366.19 383.11 365.78 386.91 365.35 390.29 364.99 393.67 364.59 396.63 364.26 396.63 364.26 396.63 364.26 399.65 363.92 402.49 363.66 405.34 363.4 407.99 363.23 413.32 362.91 417.91 362.96 422.51 363.06 426.39 363.53 430.28 364.07 433.44 364.97 436.61 365.91 439.02 367.3 441.44 368.72 443.08 370.56 443.9 371.48 444.53 372.51 445.16 373.54 445.59 374.67 446.03 375.81 446.07 377.07 445.92 378.35 445.97 379.68 445.97 379.68 445.97 379.68 445.97 379.68 445.97 379.68M678.04 287.29Q680.97 288.73 684.13 290.22 687.31 291.71 690.49 293.21 693.66 294.7 695.28 295.93 695.45 296.91 695.61 297.89 695.76 298.87 695.91 299.85 696.06 300.83 696.2 301.81 696.33 302.79 696.47 303.77 696.6 304.75 696.73 305.73 688.41 307.86 679.12 310.18 669.85 312.49 660.66 314.77 651.56 317.04 642.58 319.3 633.71 321.56 624.95 323.81 616.29 326.07 607.72 328.32 599.22 330.56 590.79 332.8 582.42 335.04 574.09 337.27 565.8 339.49 557.54 341.71 557.83 343.44 558.11 345.17 558.38 346.9 558.62 348.64 558.85 350.38 559.06 352.12 559.26 353.86 559.45 355.6 559.62 357.35 559.78 359.09 559.92 360.84 560.06 362.59 560.19 364.33 560.31 366.08 560.42 367.83 560.52 369.58 560.61 371.33 560.7 373.07 560.78 374.82 560.86 376.57 560.92 378.32 560.99 380.07 561.04 381.81 561.09 383.56 561.14 385.31 561.18 387.06 561.22 388.81 561.25 390.55 561.28 392.3 561.3 394.05 561.32 395.8 561.33 397.55 561.35 399.29 561.35 401.04 561.36 402.79 561.36 404.54 561.36 406.28 561.35 408.03 561.34 409.78 561.33 411.52 561.31 413.27 561.29 415.02 561.27 416.77 561.24 418.51 561.21 420.26 561.18 422.01 561.14 423.75 561.1 425.5 561.06 427.24 561.02 428.99 560.97 430.73 560.92 432.48 560.86 434.23 560.81 435.97 560.75 437.72 560.68 439.46 560.62 441.2 560.55 442.95 560.48 444.69 560.4 446.44 560.33 448.18 560.25 449.92 560.17 451.67 560.08 453.41 566.87 450.74 573.67 448.07 580.47 445.4 587.29 442.74 594.1 440.07 600.93 437.4 607.76 434.73 614.6 432.06 621.44 429.39 628.29 426.71 635.14 424.04 642 421.37 648.86 418.69 655.72 416.01 662.59 413.34 669.45 410.66 669.33 411.67 669.2 412.68 669.07 413.69 668.94 414.7 668.8 415.71 668.67 416.73 668.53 417.74 668.38 418.75 668.24 419.76 668.09 420.77 667.94 421.78 667.79 422.79 667.64 423.79 667.48 424.8 667.32 425.81 667.16 426.82 660.37 429.65 653.58 432.47 646.8 435.3 640.01 438.12 633.23 440.94 626.46 443.76 619.69 446.59 612.92 449.41 606.16 452.23 599.4 455.05 592.65 457.87 585.91 460.7 579.17 463.52 572.44 466.34 565.72 469.16 559 471.98 558.92 473.14 558.84 474.3 558.76 475.46 558.68 476.62 558.6 477.78 558.52 478.93 558.43 480.09 558.35 481.25 558.26 482.41 558.17 483.57 558.08 484.73 557.99 485.88 557.9 487.04 557.81 488.2 557.72 489.36 557.62 490.51 557.53 491.67 557.43 492.83 557.33 493.98 557.23 495.14 557.13 496.3 557.03 497.45 556.93 498.61 556.82 499.77 556.72 500.92 556.61 502.08 556.51 503.23 556.4 504.39 556.29 505.54 556.18 506.7 556.07 507.85 555.96 509.01 555.85 510.16 555.73 511.32 555.62 512.47 555.5 513.63 555.39 514.78 555.27 515.94 555.15 517.09 555.03 518.25 554.91 519.4 554.79 520.55 554.67 521.71 554.55 522.86 554.42 524.02 554.3 525.17 554.18 526.32 554.05 527.48 553.92 528.63 553.8 529.79 553.67 530.94 553.54 532.1 553.41 533.25 553.28 534.41 553.15 535.56 553.02 536.72 552.89 537.87 552.76 539.03 552.62 540.19 552.49 541.34 552.36 542.5 552.22 543.66 552.09 544.81 551.95 545.97 551.82 547.13 551.69 548.29 551.55 549.45 551.42 550.61 551.28 551.77 551.15 552.94 551.01 554.1 550.88 555.26 550.75 556.43 550.61 557.6 550.48 558.77 550.35 559.93 550.22 561.11 550.09 562.28 549.96 563.45 549.83 564.63 549.7 565.81 549.58 566.99 549.45 568.17 549.33 569.36 549.21 570.55 549.09 571.74 548.97 572.94 548.86 574.14 548.75 575.34 548.64 576.55 548.53 577.76 548.43 578.98 548.33 580.21 548.24 581.44 548.15 582.67 548.07 583.92 547.99 585.17 547.92 586.43 547.86 587.7 547.8 588.98 547.75 590.28 547.71 591.58 547.68 592.9 547.67 594.23 547.66 595.58 547.67 596.95 547.69 598.34 547.72 599.75 547.78 601.18 547.85 602.63 547.94 604.12 548.06 605.63 548.2 607.18 548.36 608.76 548.55 610.37 548.77 612.03 549.03 613.73 549.31 615.47 549.63 617.26 549.98 619.09 550.37 620.97 550.79 622.9 551.24 624.86 551.72 626.86 552.22 628.89 552.72 630.92 553.21 632.93 553.57 634.54 547.82 638.58 541.99 642.5 536.08 646.29 530.1 649.97 524.04 653.54 517.92 656.97 511.72 660.28 505.46 663.47 499.14 666.54 492.75 669.47 486.31 672.27 479.81 674.95 473.26 677.5 466.66 679.9 460.02 682.18 453.6 684.26 453.28 683.24 453.26 681.93 453.24 680.61 453.22 679.3 453.2 677.99 453.18 676.68 453.16 675.37 453.14 674.06 453.13 672.75 453.11 671.44 453.09 670.13 453.07 668.82 453.05 667.51 453.03 666.2 453.01 664.89 453 663.59 452.98 662.28 452.96 660.97 452.94 659.66 452.92 658.35 452.9 657.04 452.89 655.73 452.87 654.43 452.85 653.12 452.83 651.81 452.81 650.5 452.8 649.19 452.78 647.88 452.76 646.58 452.74 645.27 452.72 643.96 452.71 642.65 452.69 641.34 452.67 640.04 452.65 638.73 452.63 637.42 452.62 636.11 452.6 634.8 452.58 633.5 452.56 632.19 452.55 630.88 452.53 629.57 452.51 628.26 452.49 626.96 452.48 625.65 452.46 624.34 452.44 623.03 452.42 621.73 452.4 620.42 452.39 619.11 452.37 617.8 452.36 616.49 452.37 615.19 452.37 613.88 452.37 612.57 452.37 611.26 452.37 609.96 452.37 608.65 452.37 607.34 452.37 606.03 452.37 604.73 452.37 603.42 452.37 602.11 452.37 600.8 452.37 599.5 452.37 598.19 452.37 596.88 452.37 595.57 452.37 594.26 452.37 592.96 452.37 591.65 452.37 590.34 452.37 589.03 452.37 587.73 452.37 586.42 452.37 585.11 452.37 583.8 452.38 582.5 452.38 581.19 452.38 579.88 452.38 578.57 452.38 577.27 452.38 575.96 452.38 574.65 452.38 573.34 452.38 572.04 452.38 570.73 452.38 569.42 452.38 568.11 452.38 566.81 452.38 565.5 452.38 564.19 452.38 562.88 452.38 561.58 452.38 560.27 452.38 558.96 452.38 557.65 452.38 556.35 452.38 555.04 452.38 553.73 452.38 552.42 452.38 551.12 452.39 549.81 452.39 548.5 452.39 547.19 452.39 545.88 452.39 544.58 452.39 543.27 452.39 541.96 452.39 540.65 452.39 539.35 452.39 538.04 452.39 536.73 452.39 535.42 452.39 534.12 452.39 532.81 452.39 531.5 452.39 530.19 452.39 528.89 452.39 527.58 452.39 526.27 452.39 524.96 452.39 523.66 452.39 522.35 452.39 521.04 452.39 519.73 452.39 518.43 452.39 517.12 452.39 515.81 452.39 514.5 452.39 513.2 452.39 511.89 452.39 510.58 452.39 509.27 452.4 507.97 452.4 506.66 452.4 505.35 452.4 504.04 452.4 502.74 452.4 501.43 452.4 500.12 452.4 498.81 452.4 497.51 452.4 496.2 452.4 494.89 452.4 493.58 452.4 492.28 452.4 490.97 452.4 489.66 452.4 488.35 452.4 487.05 452.4 485.74 452.4 484.43 452.4 483.12 452.4 481.82 452.4 480.51 452.4 479.2 452.4 477.89 452.4 476.58 452.4 475.28 452.4 473.97 452.4 472.66 452.4 471.35 452.4 470.05 452.4 468.74 452.4 467.43 452.4 466.12 452.4 464.82 452.4 463.51 452.4 462.2 452.4 460.89 452.4 459.59 452.4 458.28 452.4 456.97 452.4 455.66 452.4 454.36 452.4 453.05 452.4 451.74 452.4 450.43 452.4 449.13 452.4 447.82 452.4 446.51 452.4 445.2 452.4 443.9 452.4 442.59 452.4 441.28 452.4 439.97 452.4 438.67 452.4 437.36 452.4 436.05 452.4 434.74 452.4 433.43 452.4 432.13 452.4 430.82 452.4 429.51 452.4 428.2 452.4 426.9 452.4 425.59 452.4 424.28 452.4 422.97 452.4 421.67 452.4 420.36 452.4 419.05 452.4 417.74 452.4 416.44 452.4 415.13 452.4 413.82 452.4 412.51 452.4 411.21 452.4 409.9 452.4 408.59 452.4 407.28 452.4 405.98 452.4 404.67 452.4 403.36 452.4 402.05 452.4 400.74 452.4 399.44 452.4 398.13 452.4 396.82 452.4 395.51 452.4 394.21 452.4 392.9 452.4 391.59 452.4 390.28 452.4 388.98 452.4 387.67 452.4 386.36 452.4 385.05 452.4 383.75 452.4 382.44 452.4 381.13 452.4 379.82 452.4 378.52 452.4 377.21 452.4 375.9 452.39 374.59 452.39 373.28 452.39 371.98 452.39 370.67 452.39 369.36 452.39 368.05 452.39 366.75 452.39 365.44 452.39 364.13 452.39 362.82 452.39 361.52 452.39 360.21 452.39 358.9 452.39 357.59 452.39 356.29 452.39 354.98 452.39 353.67 452.39 352.36 452.39 351.05 452.38 349.75 459.5 347.97 466.62 346.19 473.74 344.41 480.87 342.68 488.03 341.09 495.16 339.41 502.2 337.36 509.26 335.4 516.41 333.78 523.55 332.1 530.61 330.11 537.6 327.89 544.63 325.84 551.81 324.33 558.86 322.34 565.91 320.3 572.99 318.37 580.07 316.44 587.14 314.46 594.17 312.38 601.24 310.4 608.28 308.32 615.25 306.04 622.28 303.94 629.34 301.91 636.33 299.67 643.36 297.58 650.47 295.75 657.53 293.72 664.56 291.57 671.55 289.29 678.04 287.29 678.04 287.29 678.04 287.29"></path></svg>