<svg xmlns="http://www.w3.org/2000/svg" data-media-id="WyiG7u4mMe4" style="visibility: visible" viewBox="7.956666946411133 235.1875 988.9633178710938 525.3533935546875" width="993.9633178710938px" height="530.3533935546875px">
        <defs>
            <linearGradient id="sampleGradient" gradientTransform="rotate(1)" x1="0%" y1="50%" x2="100%" y2="50%" gradientUnits="userSpaceOnUse">
                <stop offset="0%" id="first_color" stop-color="#6b6fff"></stop>
                <stop offset="100%" id="second_color" stop-color="#bc91c1"></stop>
            </linearGradient>
        </defs>
    <path fill="#be816c" d="M153.89 357.69Q153.77 358.84 153.66 359.99 153.55 361.15 153.44 362.3 153.32 363.45 153.21 364.61 153.1 365.76 152.99 366.92 152.88 368.07 152.77 369.23 152.65 370.38 152.54 371.54 152.43 372.69 152.32 373.85 152.21 375.01 152.1 376.16 151.99 377.32 151.87 378.47 151.76 379.63 151.65 380.79 151.54 381.94 151.43 383.1 151.31 384.26 151.2 385.41 151.09 386.57 150.98 387.73 150.87 388.89 150.75 390.04 150.64 391.2 150.53 392.36 150.42 393.52 150.31 394.68 150.19 395.83 150.08 396.99 149.97 398.15 149.86 399.31 149.75 400.47 149.63 401.63 149.52 402.78 149.41 403.94 149.3 405.1 149.19 406.26 149.07 407.42 148.96 408.58 148.85 409.74 148.74 410.9 148.63 412.06 148.51 413.22 148.4 414.38 148.29 415.54 148.18 416.7 148.07 417.86 147.96 419.02 147.84 420.18 147.73 421.34 147.62 422.5 147.51 423.66 147.4 424.83 147.29 425.99 147.18 427.15 147.07 428.31 146.95 429.47 146.84 430.63 146.73 431.79 146.62 432.96 146.51 434.12 146.4 435.28 146.29 436.44 146.17 437.6 146.06 438.77 145.95 439.93 145.84 441.09 145.73 442.25 145.62 443.41 145.51 444.58 145.39 445.74 145.28 446.9 145.17 448.06 145.06 449.22 144.94 450.39 144.83 451.55 144.72 452.71 144.61 453.87 144.49 455.03 144.38 456.19 144.26 457.35 144.15 458.51 144.04 459.67 143.92 460.83 143.8 461.99 143.69 463.15 143.57 464.31 143.45 465.47 143.34 466.63 143.22 467.78 143.1 468.94 142.98 470.1 142.86 471.25 142.74 472.41 142.62 473.56 142.49 474.71 142.37 475.87 142.25 477.02 142.12 478.17 142 479.32 141.87 480.47 141.74 481.62 141.61 482.77 141.48 483.91 141.35 485.06 141.21 486.2 141.08 487.35 140.94 488.49 140.81 489.63 140.67 490.77 140.53 491.91 140.38 493.05 140.24 494.19 140.1 495.33 139.95 496.46 139.8 497.6 139.65 498.73 139.5 499.87 139.34 501 139.19 502.12 139.03 503.25 138.87 504.37 138.74 505.32 137.71 505.13 136.67 504.95 135.64 504.76 134.61 504.57 133.58 504.38 132.55 504.16 131.53 503.92 130.51 503.68 129.49 503.45 128.47 503.21 127.45 502.97 126.43 502.73 125.4 502.5 124.38 502.26 123.36 502.03 122.33 501.82 121.31 501.6 120.28 501.38 119.26 501.16 118.23 500.94 117.21 500.72 116.18 500.5 115.16 500.28 114.12 500.11 113.09 499.93 112.05 499.76 111.02 499.59 109.98 499.42 108.95 499.25 107.91 499.08 106.88 498.91 105.84 498.74 104.81 498.58 103.77 498.42 102.73 498.26 101.7 498.1 100.66 497.94 99.62 497.78 98.59 497.62 97.55 497.46 96.51 497.3 95.48 497.13 94.44 496.97 93.41 496.8 92.37 496.63 91.34 496.46 90.3 496.29 89.27 496.12 88.23 495.95 87.2 495.78 86.17 495.58 85.14 495.38 84.11 495.18 83.08 494.98 82.05 494.78 81.02 494.58 79.99 494.38 78.96 494.18 77.93 493.98 76.91 493.74 75.89 493.51 74.87 493.27 73.84 493.04 72.82 492.8 72.99 491.9 73.19 490.86 73.39 489.81 73.59 488.77 73.79 487.73 73.99 486.7 74.2 485.66 74.4 484.62 74.61 483.58 74.82 482.55 75.03 481.51 75.24 480.48 75.45 479.45 75.66 478.42 75.88 477.4 76.09 476.37 76.31 475.35 76.53 474.34 76.75 473.32 76.97 472.31 77.19 471.3 77.41 470.29 77.64 469.29 77.86 468.29 78.09 467.29 78.32 466.3 78.55 465.31 78.78 464.32 79.01 463.33 79.24 462.35 79.47 461.37 79.71 460.39 79.95 459.42 80.19 458.45 80.43 457.48 80.67 456.51 80.91 455.55 81.15 454.58 81.4 453.63 81.64 452.67 81.89 451.71 82.14 450.76 82.39 449.81 82.65 448.87 82.9 447.92 83.16 446.98 83.41 446.04 83.67 445.1 83.93 444.16 84.19 443.23 84.46 442.3 84.72 441.37 84.99 440.44 85.25 439.51 85.52 438.59 85.79 437.66 86.07 436.74 86.34 435.82 86.61 434.91 86.89 433.99 87.17 433.08 87.45 432.16 87.73 431.25 88.01 430.34 88.3 429.44 88.58 428.53 88.87 427.62 89.16 426.72 89.45 425.82 89.74 424.92 90.03 424.02 90.33 423.12 90.62 422.22 90.92 421.33 91.22 420.43 91.52 419.54 91.82 418.65 92.12 417.76 92.43 416.87 92.73 415.98 93.04 415.09 93.35 414.21 93.66 413.32 93.97 412.44 94.28 411.55 94.59 410.67 94.91 409.79 95.22 408.91 95.54 408.03 95.85 407.15 96.17 406.27 96.49 405.4 96.81 404.52 97.13 403.65 97.46 402.77 97.78 401.9 98.11 401.02 98.43 400.15 98.76 399.28 99.08 398.4 99.41 397.53 99.74 396.66 100.07 395.79 100.4 394.92 100.73 394.05 101.06 393.17 101.39 392.3 101.72 391.43 102.05 390.56 102.39 389.69 102.72 388.82 103.05 387.95 103.39 387.08 103.72 386.21 104.05 385.34 104.39 384.46 104.72 383.59 105.05 382.72 105.39 381.84 105.72 380.97 106.05 380.09 106.38 379.22 106.72 378.34 107.05 377.46 107.38 376.58 107.71 375.7 108.04 374.81 108.36 373.93 107.73 374.16 107.09 374.39 106.45 374.62 105.81 374.84 105.17 375.07 104.52 375.3 103.88 375.52 103.24 375.75 102.59 375.97 101.95 376.2 101.3 376.42 100.66 376.64 100.01 376.86 99.36 377.08 98.71 377.3 98.06 377.52 97.41 377.73 96.75 377.95 96.1 378.16 95.44 378.37 94.79 378.58 94.13 378.79 93.47 379 92.81 379.21 92.14 379.41 91.48 379.61 90.81 379.81 90.14 380.01 89.47 380.21 88.8 380.4 88.13 380.6 87.45 380.79 86.77 380.97 86.09 381.16 85.41 381.34 84.73 381.52 84.04 381.7 83.35 381.87 82.66 382.04 81.96 382.21 81.26 382.38 80.57 382.54 79.86 382.7 79.16 382.85 78.45 383.01 77.74 383.15 77.02 383.3 76.31 383.44 75.59 383.58 74.87 383.72 74.14 383.85 73.41 383.98 72.68 384.1 71.95 384.22 71.21 384.34 70.47 384.45 69.73 384.56 68.98 384.67 68.23 384.77 67.48 384.87 66.73 384.97 65.98 385.07 65.22 385.16 64.47 385.25 65.11 384.58 65.75 383.92 66.39 383.26 67.03 382.59 67.66 381.93 68.31 381.27 68.97 380.62 69.62 379.97 70.28 379.32 70.93 378.67 71.59 378.02 72.24 377.37 72.91 376.73 73.58 376.1 74.24 375.46 74.91 374.83 75.58 374.19 76.25 373.56 76.92 372.93 77.61 372.31 78.29 371.69 78.97 371.07 79.65 370.45 80.34 369.83 81.02 369.21 81.71 368.59 82.4 367.99 83.1 367.38 83.79 366.77 84.49 366.17 85.18 365.56 85.87 364.94 86.65 364.31 87.42 363.67 88.19 363.02 88.96 362.38 89.73 361.73 90.5 361.09 91.28 360.46 92.06 359.83 92.84 359.2 93.62 358.57 94.4 357.94 95.19 357.31 95.98 356.7 96.77 356.08 97.56 355.47 98.36 354.85 99.15 354.24 99.94 353.62 100.75 353.02 101.55 352.42 102.35 351.82 103.16 351.22 103.96 350.62 104.77 350.02 105.58 349.43 106.39 348.84 107.21 348.25 108.02 347.67 108.83 347.08 109.65 346.49 110.47 345.91 111.29 345.34 112.12 344.77 112.94 344.19 113.76 343.62 114.59 343.05 115.42 342.48 116.25 341.92 117.08 341.36 117.91 340.8 118.75 340.24 119.58 339.68 120.42 339.13 121.26 338.58 122.1 338.03 122.94 337.49 123.78 336.94 124.62 336.39 125.47 335.85 126.32 335.31 127.17 334.78 128.02 334.25 128.87 333.71 129.72 333.18 130.57 332.65 131.42 332.12 132.28 331.6 133.14 331.08 134 330.56 134.85 330.04 135.71 329.52 136.58 329.01 137.44 328.5 138.31 327.99 139.17 327.48 140.03 326.97 140.9 326.46 141.77 325.96 142.64 325.46 143.51 324.96 144.39 324.47 145.26 323.97 146.13 323.47 147.01 322.98 147.88 322.5 148.76 322.01 149.64 321.53 150.52 321.04 151.4 320.55 152.28 320.08 153.16 319.6 154.05 319.13 154.93 318.65 155.82 318.18 156.7 317.71 157.59 317.24 158.48 316.78 159.37 316.31 160.26 315.85 161.15 315.39 162.04 314.92 162.94 314.47 163.83 314.01 164.73 313.56 165.62 313.11 166.52 312.66 167.42 312.2 168.31 311.76 169.22 311.31 170.12 310.87 171.02 310.43 171.92 309.99 172.82 309.55 173.72 309.11 174.63 308.68 175.54 308.25 176.44 307.82 177.35 307.39 178.26 306.96 179.17 306.53 180.08 306.11 180.99 305.69 181.9 305.27 182.81 304.85 183.72 304.43 184.63 304.01 185.55 303.6 186.47 303.19 187.38 302.78 188.3 302.37 189.21 301.96 190.13 301.55 191.05 301.15 191.97 300.75 192.89 300.35 193.81 299.94 194.73 299.54 195.57 299.24 195.63 300.68 195.7 302.16 195.77 303.64 195.85 305.13 195.92 306.61 196 308.09 196.07 309.58 196.15 311.06 196.22 312.54 196.3 314.03 196.37 315.51 196.45 316.99 196.52 318.48 196.6 319.96 196.67 321.44 196.75 322.93 196.82 324.41 196.9 325.89 196.97 327.38 197.05 328.86 197.12 330.34 197.2 331.83 197.27 333.31 197.35 334.79 197.42 336.28 197.5 337.76 197.57 339.24 197.65 340.73 197.72 342.21 197.73 343.69 197.73 345.18 197.73 346.66 197.13 346.76 196.39 346.87 195.65 346.99 194.91 347.12 194.17 347.24 193.43 347.37 192.7 347.5 191.96 347.63 191.23 347.76 190.5 347.9 189.77 348.04 189.05 348.18 188.33 348.32 187.61 348.47 186.89 348.61 186.17 348.76 185.46 348.91 184.75 349.06 184.04 349.22 183.34 349.38 182.64 349.53 181.94 349.7 181.24 349.86 180.54 350.02 179.85 350.19 179.15 350.35 178.46 350.52 177.77 350.69 177.09 350.87 176.4 351.04 175.72 351.22 175.04 351.39 174.36 351.57 173.68 351.75 173 351.93 172.33 352.12 171.65 352.3 170.98 352.49 170.31 352.67 169.64 352.86 168.97 353.05 168.31 353.24 167.64 353.43 166.97 353.63 166.31 353.82 165.65 354.01 164.99 354.21 164.33 354.41 163.67 354.61 163.01 354.8 162.35 355 161.7 355.21 161.04 355.41 160.39 355.61 159.73 355.81 159.08 356.02 158.43 356.22 157.78 356.43 157.13 356.64 156.48 356.85 155.83 357.05 155.18 357.26 154.53 357.47 153.89 357.69 153.89 357.69 153.89 357.69M207.39 517.38Q207.02 515.79 206.79 514.07 206.57 512.34 206.34 510.62 206.12 508.89 205.9 507.17 205.67 505.44 205.45 503.72 205.23 501.99 205 500.27 204.78 498.55 204.55 496.82 204.33 495.1 204.11 493.37 203.88 491.65 203.66 489.92 203.43 488.2 203.21 486.47 202.99 484.75 202.76 483.02 202.54 481.3 202.31 479.57 202.09 477.85 201.87 476.12 201.64 474.4 201.5 472.67 201.5 470.95 201.5 469.22 201.5 467.5 201.5 465.78 201.5 464.05 201.49 462.33 201.49 460.6 201.49 458.88 201.49 457.15 201.49 455.43 201.49 453.7 201.49 451.98 201.49 450.25 201.49 448.53 201.49 446.8 201.49 445.08 201.49 443.35 201.49 441.63 201.49 439.9 201.49 438.18 201.49 436.45 201.49 434.73 201.49 433 201.49 431.28 201.49 429.55 201.49 427.83 201.49 426.1 201.49 424.38 201.49 422.65 201.49 420.93 201.49 419.2 201.49 417.48 201.49 415.75 201.49 414.03 201.49 412.3 201.49 410.58 201.49 408.86 201.49 407.13 201.49 405.41 201.49 403.68 201.49 401.96 201.49 400.23 201.49 398.51 201.49 396.78 201.49 395.06 201.49 393.33 201.49 391.61 201.49 389.88 201.49 388.16 201.49 386.43 201.49 384.71 201.49 382.98 201.49 381.26 201.49 379.53 201.49 377.81 201.49 376.08 201.49 374.36 201.49 372.63 201.49 370.91 201.49 369.18 201.49 367.46 201.49 365.73 201.49 364.01 201.49 362.28 201.49 360.56 201.49 358.83 201.49 357.11 201.49 355.38 201.49 353.66 201.49 351.93 201.49 350.21 201.49 348.48 201.49 346.76 201.49 345.03 201.49 343.31 201.49 341.58 201.49 339.86 201.49 338.13 201.49 336.41 201.49 334.68 201.49 332.96 201.49 331.23 201.49 329.51 201.49 327.78 201.49 326.06 201.49 324.34 201.49 322.61 201.49 320.89 201.49 319.16 201.49 317.43 201.49 315.71 201.49 313.98 201.49 312.26 201.49 310.53 201.49 308.81 201.49 307.08 201.49 305.36 201.49 303.63 201.49 301.91 201.49 300.18 201.49 298.46 201.49 296.72 204.23 295.6 206.97 294.48 209.73 293.38 212.48 292.29 215.24 291.22 218 290.15 220.78 289.1 223.55 288.06 226.33 287.04 229.12 286.03 231.91 285.04 234.7 284.05 237.5 283.08 240.3 282.12 243.11 281.17 245.92 280.23 248.74 279.31 251.56 278.4 254.38 277.5 257.21 276.61 260.04 275.74 262.88 274.88 265.72 274.03 268.56 273.19 271.4 272.37 274.25 271.56 277.11 270.75 279.96 269.97 282.82 269.19 285.69 268.42 288.55 267.67 291.42 266.93 294.29 266.19 297.16 265.47 300.04 264.76 302.92 264.06 305.8 263.37 308.69 262.69 311.57 262.02 314.46 261.37 317.35 260.72 320.25 260.09 323.14 259.46 326.04 258.85 328.94 258.25 331.85 257.66 334.75 257.07 337.66 256.5 340.57 255.94 343.48 255.39 346.4 254.85 349.31 254.32 352.23 253.8 355.15 253.29 358.07 252.79 360.99 252.3 363.91 251.82 366.84 251.35 369.77 250.89 372.7 250.44 375.63 250.01 378.56 249.57 381.49 249.16 383.98 248.9 383.84 251.15 383.75 253.48 383.67 255.81 383.59 258.14 383.51 260.47 383.44 262.8 383.36 265.14 383.28 267.47 383.2 269.8 383.12 272.13 383.04 274.46 382.96 276.79 382.88 279.12 382.81 281.45 382.73 283.78 382.65 286.11 382.57 288.44 382.49 290.77 382.41 293.11 382.33 295.44 382.25 297.77 382.18 300.1 382.1 302.43 382.02 304.76 381.94 307.09 381.9 309.42 381.9 311.75 381.9 314.08 381.9 316.41 381.9 318.74 381.9 321.07 381.9 323.4 381.9 325.73 381.9 328.06 381.9 330.39 381.9 332.72 381.9 335.05 381.9 337.39 381.9 339.72 381.9 342.05 381.9 344.38 381.9 346.71 381.9 349.04 381.9 351.37 381.9 353.7 381.9 356.03 381.9 358.36 381.9 360.69 381.9 363.02 381.9 365.35 381.9 367.68 381.9 370.01 381.9 372.34 381.9 374.67 381.9 377 381.9 379.33 381.9 381.66 381.9 383.99 381.9 386.32 381.9 388.65 381.9 390.98 381.9 393.31 381.9 395.64 381.9 397.97 381.9 400.3 381.9 402.64 381.9 404.97 381.9 407.3 381.9 409.63 381.9 411.96 381.9 414.29 381.9 416.62 381.9 418.95 381.9 421.28 381.9 423.61 381.9 425.94 381.9 428.27 381.9 430.6 381.9 432.93 381.9 435.26 381.9 437.59 381.9 439.92 381.9 442.25 381.9 444.58 381.9 446.91 381.9 449.24 381.9 451.57 381.9 453.9 381.9 456.23 381.9 458.56 381.9 460.89 381.9 463.22 381.9 465.55 381.9 467.88 381.9 470.21 381.9 472.55 381.9 474.88 381.9 477.21 381.9 479.54 381.9 481.87 381.9 484.2 381.9 486.53 381.9 488.86 381.9 491.19 381.9 493.52 381.9 495.85 381.9 498.18 381.9 500.51 381.9 502.84 381.9 505.17 381.9 507.5 381.9 509.83 381.9 512.16 381.9 514.49 381.9 516.82 381.9 519.15 381.9 521.48 381.9 523.82 381.9 526.15 381.9 528.48 381.9 530.81 381.9 533.14 381.9 535.47 381.9 537.8 381.91 540.13 381.91 542.46 381.91 544.79 381.55 546.65 379.62 546.51 376.89 546.07 374.15 545.64 371.4 545.2 368.66 544.77 365.91 544.34 363.17 543.92 360.42 543.51 357.67 543.1 354.92 542.69 352.17 542.27 349.43 541.85 346.68 541.42 343.96 540.89 341.27 540.21 338.58 539.53 335.88 538.88 333.13 538.48 330.38 538.08 327.63 537.69 324.88 537.29 322.13 536.9 319.37 536.51 316.62 536.12 313.87 535.77 311.11 535.41 308.35 535.05 305.61 534.63 302.86 534.22 300.11 533.8 297.39 533.28 294.68 532.68 291.97 532.08 289.25 531.54 286.49 531.19 283.73 530.85 280.97 530.5 278.24 530.01 275.51 529.5 272.79 528.99 270.05 528.51 267.32 528.07 264.58 527.62 261.84 527.17 259.12 526.62 256.41 526.07 253.69 525.52 250.95 525.1 248.2 524.71 245.45 524.32 242.71 523.87 239.99 523.32 237.27 522.77 234.55 522.23 231.83 521.63 229.12 521.02 226.41 520.42 223.67 519.98 220.91 519.63 218.16 519.27 215.41 518.87 212.69 518.36 209.97 517.85 207.39 517.38 207.39 517.38 207.39 517.38M514.66 385.11Q515.62 385.15 516.59 385.2 517.55 385.24 518.52 385.29 519.49 385.33 520.46 385.38 521.43 385.42 522.39 385.47 523.36 385.52 524.33 385.56 525.3 385.61 526.27 385.66 527.24 385.7 528.21 385.75 529.18 385.8 530.15 385.85 531.12 385.89 532.09 385.94 533.07 385.99 534.04 386.04 535.01 386.09 535.98 386.14 536.95 386.19 537.93 386.24 538.9 386.28 539.87 386.33 540.85 386.38 541.82 386.43 542.8 386.48 543.77 386.53 544.75 386.58 545.72 386.63 546.7 386.69 547.67 386.74 548.65 386.79 549.63 386.84 550.6 386.89 551.58 386.94 552.55 386.99 553.53 387.04 554.51 387.09 555.49 387.15 556.46 387.2 557.44 387.25 558.42 387.3 559.4 387.36 560.38 387.41 561.35 387.46 562.33 387.51 563.31 387.57 564.29 387.62 565.27 387.67 566.25 387.72 567.22 387.78 568.2 387.83 569.18 387.88 570.16 387.94 571.14 387.99 572.12 388.04 573.09 388.1 574.07 388.15 575.05 388.2 576.03 388.26 576.83 388.3 576.83 390.8 576.83 393.29 576.83 395.79 576.83 398.28 576.83 400.78 576.83 403.27 576.83 405.77 576.83 408.26 576.83 410.75 576.83 413.25 576.83 415.74 576.83 418.24 576.83 420.73 576.83 423.23 576.83 425.72 576.83 428.22 576.83 430.71 576.83 433.21 576.83 435.7 576.83 438.2 576.83 440.69 576.83 443.19 576.83 445.68 576.83 448.18 576.83 450.67 576.83 453.16 576.83 455.66 576.83 458.15 576.83 460.65 576.83 463.14 576.83 465.64 576.83 468.13 576.83 470.63 576.83 473.12 576.83 475.62 576.83 478.11 576.83 480.61 576.83 483.1 576.83 485.6 576.83 488.09 576.83 490.59 576.83 493.08 576.83 495.58 576.83 498.07 576.83 500.56 576.83 503.06 576.83 505.55 576.83 508.05 576.83 510.54 576.83 513.04 576.83 515.53 576.83 518.03 576.83 520.52 576.83 523.02 576.83 525.51 576.83 528.01 576.83 530.5 576.83 533 576.83 535.49 576.83 537.99 576.83 540.48 576.83 542.98 576.83 545.47 576.83 547.96 575.52 548.65 574.04 549.3 572.55 549.94 571.08 550.56 569.6 551.18 568.13 551.77 566.66 552.35 565.2 552.91 563.73 553.45 562.28 553.97 560.83 554.48 559.38 554.96 557.94 555.42 556.5 555.86 555.07 556.29 553.64 556.69 552.22 557.08 550.8 557.44 549.39 557.8 547.98 558.13 546.58 558.45 545.18 558.75 543.79 559.05 542.4 559.32 541.02 559.59 539.64 559.83 538.27 560.07 536.9 560.28 535.54 560.49 534.18 560.67 532.83 560.85 531.48 561.01 530.14 561.16 528.82 561.3 527.5 561.44 526.21 561.55 524.92 561.67 523.66 561.77 522.39 561.87 521.15 561.95 519.92 562.03 518.7 562.09 517.49 562.15 516.31 562.2 515.12 562.24 513.97 562.27 512.81 562.3 511.68 562.34 510.54 562.43 509.43 562.5 508.32 562.58 507.23 562.65 506.15 562.71 505.09 562.75 504.04 562.79 503.01 562.81 501.98 562.79 500.98 562.72 499.99 562.64 499.02 562.47 498.05 562.29 497.1 562.15 496.16 562 495.25 561.88 495.25 561.88 495.25 561.88 493.73 561.67 492.23 561.49 490.73 561.3 489.25 561.12 487.77 560.82 486.32 560.48 484.86 560.15 483.43 559.78 481.99 559.42 480.58 559.03 479.16 558.64 477.77 558.21 476.38 557.79 475 557.36 473.63 556.98 472.27 556.58 470.91 556.19 469.58 555.76 468.24 555.32 466.93 554.84 465.62 554.32 464.33 553.74 463.05 553.14 461.79 552.5 460.53 551.86 459.29 551.18 458.05 550.5 456.83 549.8 455.61 549.1 454.41 548.37 453.21 547.64 452.04 546.89 450.86 546.14 449.71 545.37 448.55 544.6 447.42 543.8 446.29 543 445.18 542.17 444.07 541.34 442.98 540.47 441.9 539.6 440.84 538.69 439.77 537.78 438.74 536.83 437.7 535.88 436.68 534.89 435.67 533.91 434.68 532.88 433.69 531.86 432.73 530.8 431.77 529.75 430.83 528.66 429.89 527.57 428.98 526.45 428.06 525.33 427.17 524.18 426.29 523.04 425.43 521.86 424.57 520.68 423.73 519.48 422.9 518.27 422.09 517.04 421.28 515.81 420.5 514.54 419.72 513.29 418.97 511.99 418.23 510.7 417.51 509.38 416.8 508.06 416.12 506.71 415.44 505.36 414.79 503.98 414.14 502.6 413.53 501.18 412.91 499.77 412.32 498.33 411.74 496.89 411.18 495.41 410.62 493.94 410.09 492.43 409.56 490.92 409.05 489.38 408.55 487.84 408.06 486.27 407.57 484.69 407.11 483.09 406.64 481.48 406.19 479.84 405.73 478.2 405.29 476.53 404.85 474.86 404.43 473.15 404 471.44 403.6 469.7 403.19 467.96 402.8 466.18 402.41 464.4 402.04 462.59 401.67 460.78 401.33 458.93 400.98 457.08 400.65 455.2 400.33 453.32 400.03 451.4 399.73 449.49 399.45 447.53 399.18 445.58 398.92 443.59 398.67 441.6 398.44 439.58 398.21 437.56 398.01 435.5 397.81 433.44 397.63 431.34 397.45 429.24 397.3 427.11 397.15 424.98 397.02 422.81 396.89 420.64 396.79 418.44 396.69 416.23 396.61 413.99 396.53 411.75 396.48 409.47 396.43 407.2 396.41 404.88 396.38 402.57 396.38 400.22 396.38 400.22 396.38 400.22 396.38 397.82 396.41 395.46 396.43 393.1 396.49 390.77 396.54 388.45 396.62 386.17 396.7 383.89 396.81 381.64 396.92 379.4 397.06 377.19 397.19 374.99 397.35 372.82 397.52 370.65 397.71 368.52 397.9 366.39 398.11 364.3 398.33 362.2 398.57 360.15 398.82 358.09 399.09 356.08 399.36 354.06 399.66 352.08 399.96 350.1 400.28 348.16 400.61 346.21 400.96 344.31 401.31 342.4 401.69 340.53 402.07 338.66 402.48 336.83 402.89 335 403.32 333.2 403.76 331.41 404.22 329.65 404.68 327.88 405.17 326.16 405.66 324.43 406.17 322.74 406.69 321.05 407.23 319.4 407.77 317.74 408.34 316.12 408.91 314.5 409.51 312.91 410.1 311.32 410.73 309.77 411.35 308.21 412 306.69 412.65 305.17 413.33 303.68 414 302.19 414.71 300.73 415.41 299.27 416.14 297.84 416.87 296.41 417.63 295.02 418.38 293.62 419.17 292.25 419.95 290.88 420.76 289.54 421.57 288.2 422.41 286.9 423.24 285.59 424.11 284.31 424.97 283.03 425.86 281.78 426.74 280.53 427.65 279.32 428.55 278.1 429.48 276.91 430.41 275.72 431.36 274.57 432.31 273.41 433.28 272.29 434.25 271.17 435.25 270.08 436.24 268.99 437.26 267.94 438.27 266.88 439.31 265.86 440.35 264.84 441.41 263.86 442.47 262.88 443.55 261.93 444.63 260.99 445.73 260.08 446.84 259.17 447.96 258.3 449.09 257.43 450.23 256.6 451.38 255.77 452.55 254.98 453.72 254.19 454.92 253.44 456.11 252.69 457.32 251.98 458.54 251.27 459.77 250.6 461.01 249.94 462.27 249.31 463.53 248.68 464.81 248.1 466.09 247.51 467.4 246.97 468.7 246.43 470.03 245.92 471.35 245.43 472.7 244.97 474.05 244.51 475.42 244.09 476.79 243.68 478.19 243.31 479.58 242.94 481 242.61 482.41 242.28 483.85 242 485.29 241.72 486.75 241.48 488.21 241.24 489.7 241.04 491.18 240.85 492.68 240.69 494.19 240.54 495.72 240.44 497.25 240.33 498.8 240.27 500.35 240.21 501.92 240.19 501.92 240.19 501.92 240.19 503.57 240.18 505.26 240.21 506.95 240.25 508.68 240.34 509.55 240.39 510.42 240.45 511.3 240.51 512.19 240.59 513.08 240.66 513.97 240.75 514.87 240.84 515.78 240.95 516.69 241.05 517.61 241.17 518.53 241.29 519.46 241.42 520.39 241.55 521.33 241.7 522.27 241.85 523.22 242.01 524.17 242.17 525.13 242.35 526.09 242.52 527.06 242.72 528.03 242.91 529.02 243.11 530 243.32 530.99 243.54 531.99 243.76 532.99 244 534 244.24 535.01 244.49 536.03 244.74 537.05 245 538.08 245.27 539.12 245.55 540.15 245.83 541.2 246.13 542.25 246.43 543.31 246.74 544.37 247.05 545.44 247.38 546.51 247.71 547.59 248.05 548.67 248.4 549.76 248.75 550.86 249.11 551.96 249.49 553.07 249.86 554.19 250.25 555.3 250.64 556.43 251.05 557.56 251.45 558.71 251.87 559.85 252.29 561.01 252.73 562.17 253.17 563.34 253.62 564.52 254.07 565.71 254.53 565.71 254.53 565.71 254.53 565.77 255.94 565.81 257.51 565.86 259.08 565.9 260.83 565.94 262.57 565.96 264.48 565.98 266.4 565.99 268.48 566 270.56 566 272.81 565.99 275.06 565.98 277.49 565.96 279.91 565.92 282.5 565.88 285.09 565.83 287.85 565.77 290.61 565.7 293.16 565.62 295.71 565.53 298.06 565.44 300.41 565.33 302.55 565.21 304.69 565.08 306.62 564.95 308.56 564.81 310.29 564.67 312.02 564.51 313.54 564.2 316.58 563.87 318.81 563.87 318.81 563.87 318.81 562.23 318.67 560.6 318.53 558.96 318.39 557.33 318.25 555.71 318.12 554.09 317.98 552.47 317.85 550.85 317.72 549.37 317.59 547.94 317.47 546.51 317.36 545.12 317.24 543.73 317.13 542.38 317.03 541.04 316.93 539.74 316.83 538.44 316.74 537.18 316.65 535.92 316.56 534.71 316.48 533.49 316.4 532.32 316.33 531.14 316.25 530.01 316.19 528.88 316.12 527.79 316.06 526.7 316 525.65 315.95 524.6 315.9 523.59 315.85 522.58 315.8 521.62 315.76 520.65 315.73 519.72 315.69 518.8 315.66 517.91 315.63 516.14 315.58 514.52 315.55 514.52 315.55 514.52 315.55 513.31 315.53 512.14 315.51 510.97 315.5 509.83 315.5 508.69 315.49 507.59 315.5 506.49 315.5 505.42 315.52 504.35 315.53 503.32 315.56 502.29 315.58 501.29 315.61 500.29 315.64 499.33 315.68 498.37 315.72 497.44 315.77 496.51 315.82 495.62 315.88 494.72 315.94 493.86 316 492.15 316.13 490.57 316.29 488.99 316.45 487.54 316.65 486.1 316.84 484.8 317.06 483.49 317.28 482.32 317.53 481.15 317.78 480.12 318.06 479.09 318.34 478.19 318.65 477.3 318.95 476.54 319.29 475.02 319.96 474.05 320.73 473.08 321.51 472.65 322.39 472.65 322.39 472.65 322.39 471.96 323.69 471.33 325.15 470.7 326.62 470.12 328.26 469.53 329.9 469 331.72 468.47 333.53 467.99 335.52 467.51 337.51 467.08 339.67 466.65 341.83 466.27 344.16 465.89 346.49 465.56 349 465.23 351.5 464.96 354.18 464.82 355.52 464.69 356.85 464.56 358.18 464.43 359.5 464.19 362.15 463.98 364.77 463.77 367.39 463.59 369.98 463.41 372.58 463.27 375.14 463.13 377.71 463.02 380.25 462.91 382.79 462.83 385.3 462.76 387.81 462.71 390.3 462.67 392.79 462.67 395.26 462.67 395.26 462.67 395.26 462.66 397.49 462.67 399.66 462.68 401.82 462.72 403.93 462.75 406.04 462.8 408.08 462.85 410.13 462.92 412.11 462.99 414.1 463.09 416.02 463.18 417.95 463.29 419.81 463.4 421.67 463.53 423.47 463.66 425.27 463.81 427.02 463.96 428.76 464.13 430.44 464.31 432.12 464.5 433.74 464.69 435.36 464.9 436.92 465.11 438.48 465.35 439.98 465.58 441.48 465.83 442.93 466.08 444.37 466.36 445.75 466.63 447.13 466.92 448.45 467.22 449.77 467.53 451.03 468.16 453.55 468.88 455.9 469.6 458.26 470.41 460.43 471.22 462.61 472.12 464.62 473.02 466.63 474.01 468.46 475 470.3 476.08 471.96 477.16 473.62 478.33 475.11 479.51 476.6 480.77 477.92 482.04 479.24 483.39 480.38 484.75 481.53 486.23 482.56 487.71 483.59 489.31 484.51 490.92 485.43 492.65 486.24 493.51 486.64 494.41 487.02 495.3 487.39 496.23 487.74 497.15 488.08 498.11 488.4 499.07 488.72 500.06 489.01 501.05 489.3 502.07 489.56 503.09 489.82 504.14 490.05 505.19 490.28 506.27 490.49 507.35 490.69 508.47 490.86 509.58 491.04 510.72 491.18 511.87 491.33 513.04 491.44 513.04 491.44 513.04 491.44 513.76 491.51 514.47 491.58 514.48 489.92 514.49 488.26 514.5 486.6 514.51 484.94 514.51 483.28 514.52 481.62 514.53 479.95 514.54 478.29 514.55 476.63 514.55 474.97 514.56 473.31 514.57 471.65 514.58 469.98 514.58 468.32 514.59 466.66 514.6 465 514.6 463.33 514.61 461.67 514.61 460.01 514.62 458.35 514.62 456.68 514.63 455.02 514.63 453.36 514.64 451.7 514.64 450.03 514.65 448.37 514.65 446.71 514.66 445.04 514.66 443.38 514.66 441.72 514.67 440.05 514.67 438.39 514.67 436.73 514.68 435.06 514.68 433.4 514.68 431.74 514.68 430.07 514.69 428.41 514.69 426.74 514.69 425.08 514.69 423.42 514.69 421.75 514.69 420.09 514.69 418.42 514.69 416.76 514.69 415.09 514.69 413.43 514.69 411.76 514.69 410.1 514.69 408.43 514.69 406.77 514.69 405.1 514.69 403.44 514.69 401.77 514.68 400.11 514.68 398.44 514.68 396.77 514.68 395.11 514.67 393.44 514.67 391.77 514.67 390.11 514.66 388.44 514.66 386.77 514.66 385.11 514.66 385.11 514.66 385.11M586.39 572.44Q586.29 570.1 586.27 567.53 586.24 564.95 586.22 562.38 586.19 559.8 586.17 557.23 586.14 554.65 586.12 552.07 586.1 549.5 586.07 546.92 586.05 544.35 586.02 541.77 586 539.19 585.97 536.62 585.95 534.04 585.92 531.47 585.9 528.89 585.87 526.32 585.85 523.74 585.82 521.16 585.8 518.59 585.77 516.01 585.75 513.44 585.73 510.86 585.7 508.28 585.68 505.71 585.68 503.13 585.68 500.56 585.68 497.98 585.68 495.41 585.68 492.83 585.68 490.25 585.68 487.68 585.68 485.1 585.68 482.53 585.68 479.95 585.68 477.37 585.68 474.8 585.68 472.22 585.68 469.65 585.68 467.07 585.68 464.49 585.68 461.92 585.68 459.34 585.68 456.77 585.68 454.19 585.68 451.62 585.68 449.04 585.68 446.46 585.68 443.89 585.68 441.31 585.68 438.74 585.68 436.16 585.68 433.58 585.68 431.01 585.68 428.43 585.68 425.86 585.68 423.28 585.68 420.71 585.68 418.13 585.68 415.55 585.68 412.98 585.68 410.4 585.68 407.83 585.68 405.25 585.68 402.67 585.68 400.1 585.68 397.52 585.68 394.95 585.68 392.37 585.68 389.79 585.68 387.22 585.68 384.64 585.68 382.07 585.68 379.49 585.68 376.92 585.68 374.34 585.68 371.76 585.68 369.19 585.68 366.61 585.68 364.04 585.68 361.46 585.68 358.88 585.68 356.31 585.68 353.73 585.68 351.16 585.68 348.58 585.68 346 585.68 343.43 585.68 340.85 585.68 338.28 585.68 335.7 585.68 333.13 585.68 330.55 585.68 327.97 585.68 325.4 585.68 322.82 585.68 320.25 585.68 317.67 585.68 315.09 585.68 312.52 585.68 309.94 585.68 307.37 585.68 304.79 585.68 302.21 585.68 299.64 585.68 297.06 585.68 294.49 585.68 291.91 585.68 289.33 585.68 286.76 585.68 284.18 585.68 281.61 585.68 279.03 585.68 276.45 585.68 273.88 585.68 271.3 585.69 268.73 585.69 266.15 585.69 263.58 585.69 261 585.69 258.42 585.69 255.85 585.69 253.27 585.69 250.7 585.69 248.12 585.69 245.54 585.69 242.97 587.11 243.08 588.54 243.2 589.97 243.31 591.4 243.43 592.83 243.55 594.26 243.67 595.69 243.8 597.12 243.92 598.54 244.05 599.97 244.19 601.4 244.32 602.83 244.46 604.25 244.59 605.68 244.74 607.11 244.88 608.53 245.02 609.96 245.17 611.39 245.32 612.81 245.47 614.24 245.63 615.66 245.78 617.09 245.94 618.51 246.1 619.94 246.26 621.36 246.43 622.78 246.59 624.21 246.77 625.63 246.94 627.05 247.11 628.48 247.28 629.9 247.47 631.32 247.65 632.74 247.83 634.17 248.01 635.59 248.21 637.01 248.4 638.43 248.59 639.85 248.78 641.27 248.98 642.69 249.18 644.11 249.38 645.53 249.58 646.95 249.79 648.37 250 649.78 250.21 651.2 250.42 652.62 250.64 654.04 250.86 655.45 251.08 656.87 251.3 658.29 251.53 659.7 251.76 661.12 251.99 662.53 252.22 663.94 252.45 665.36 252.69 666.77 252.93 668.19 253.17 669.6 253.41 671.01 253.66 672.42 253.91 673.83 254.16 675.25 254.42 676.66 254.67 678.07 254.93 679.48 255.19 680.89 255.46 682.29 255.72 683.7 255.99 685.11 256.26 686.52 256.53 687.93 256.81 689.33 257.09 690.74 257.37 692.14 257.65 693.55 257.94 694.95 258.22 696.36 258.52 697.76 258.81 699.16 259.1 700.57 259.4 701.97 259.7 703.37 260.01 704.77 260.31 706.17 260.62 707.57 260.93 708.97 261.24 710.37 261.56 711.77 261.87 713.16 262.19 714.56 262.52 715.96 262.84 717.35 263.17 718.75 263.5 720.14 263.84 721.54 264.17 722.93 264.51 724.32 264.85 725.71 265.19 727.1 265.54 728.5 265.89 729.89 266.24 731.28 266.59 732.66 266.95 734.05 267.31 735.44 267.67 736.83 268.04 738.21 268.41 739.6 268.78 740.98 269.15 742.37 269.52 743.75 269.9 745.13 270.28 746.51 270.67 747.89 271.05 749.27 271.44 750.65 271.83 752.03 272.23 753.41 272.62 754.78 273.02 756.16 273.43 757.54 273.83 758.91 274.24 760.29 274.65 761.66 275.06 763.03 275.48 764.4 275.9 765.59 276.36 765.46 278.36 765.36 280.45 765.25 282.54 765.15 284.64 765.05 286.74 764.94 288.83 764.84 290.93 764.74 293.02 764.64 295.12 764.53 297.22 764.43 299.31 764.33 301.41 764.22 303.51 764.12 305.6 764.02 307.7 763.91 309.79 763.81 311.89 763.71 313.99 763.61 316.08 763.5 318.18 763.4 320.28 763.3 322.37 763.19 324.47 763.09 326.57 762.99 328.66 762.89 330.76 762.78 332.85 762.68 334.95 762.58 337.05 762.47 339.14 762.44 341.24 762.44 343.34 761.14 343.08 759.64 342.77 758.15 342.47 756.66 342.16 755.17 341.85 753.68 341.54 752.18 341.23 750.68 340.92 749.18 340.6 747.67 340.29 746.16 339.97 744.65 339.65 743.13 339.33 741.62 339.01 740.09 338.69 738.57 338.37 737.04 338.04 735.51 337.72 733.98 337.4 732.45 337.08 730.91 336.75 729.37 336.43 727.83 336.11 726.29 335.79 724.75 335.46 723.2 335.14 721.65 334.82 720.11 334.5 718.55 334.18 717 333.86 715.45 333.54 713.89 333.23 712.34 332.91 710.78 332.6 709.22 332.28 707.66 331.97 706.1 331.66 704.53 331.35 702.97 331.04 701.4 330.73 699.84 330.43 698.27 330.12 696.7 329.82 695.13 329.52 693.56 329.22 691.99 328.92 690.42 328.63 688.84 328.33 687.27 328.04 685.7 327.75 684.12 327.46 682.54 327.17 680.97 326.89 679.39 326.6 677.81 326.32 676.23 326.04 674.65 325.76 673.07 325.49 671.49 325.21 669.91 324.94 668.33 324.67 666.74 324.4 665.16 324.13 663.58 323.86 663.56 325.76 663.53 327.66 663.51 329.56 663.49 331.46 663.47 333.36 663.45 335.25 663.43 337.15 663.42 339.04 663.4 340.93 663.38 342.82 663.36 344.71 663.35 346.6 663.33 348.49 663.31 350.37 663.3 352.26 663.28 354.14 663.27 356.02 663.25 357.91 663.24 359.79 663.22 361.67 663.21 363.55 663.19 365.43 663.18 367.31 663.17 369.19 663.16 371.06 663.14 372.94 663.13 374.82 663.12 376.69 663.11 378.57 663.1 380.44 663.09 382.32 663.07 384.19 664.4 384.4 665.72 384.62 667.05 384.83 668.37 385.04 669.7 385.26 671.02 385.48 672.35 385.69 673.67 385.91 674.99 386.13 676.31 386.34 677.64 386.56 678.96 386.78 680.28 387 681.6 387.22 682.92 387.44 684.24 387.66 685.56 387.89 686.88 388.11 688.2 388.33 689.52 388.55 690.84 388.78 692.15 389 693.47 389.23 694.79 389.45 696.1 389.68 697.42 389.91 698.74 390.13 700.05 390.36 701.37 390.59 702.68 390.82 703.99 391.04 705.31 391.27 706.62 391.5 707.93 391.73 709.24 391.96 710.55 392.19 711.86 392.42 713.17 392.65 714.48 392.89 715.79 393.12 717.1 393.35 718.41 393.58 719.72 393.81 721.03 394.05 722.33 394.28 723.64 394.51 724.94 394.75 726.25 394.98 727.55 395.21 728.86 395.45 730.16 395.68 731.47 395.91 732.77 396.15 734.07 396.38 735.37 396.62 736.68 396.85 737.98 397.09 739.28 397.32 740.58 397.55 741.88 397.79 743.18 398.02 744.48 398.26 745.78 398.49 747.08 398.72 747.08 400.62 747.07 402.51 747.07 404.41 747.06 406.3 747.06 408.2 747.06 410.09 747.05 411.99 747.05 413.88 747.04 415.77 747.04 417.67 747.04 419.56 747.03 421.46 747.03 423.35 747.03 425.24 747.02 427.14 747.02 429.03 747.02 430.92 747.02 432.82 747.01 434.71 747.01 436.6 747.01 438.5 747.01 440.39 747 442.28 747 444.17 747 446.07 747 447.96 747 449.85 746.99 451.75 746.99 453.64 746.99 455.53 746.99 457.42 746.99 459.32 745.68 459.1 744.37 458.89 743.06 458.68 741.75 458.47 740.44 458.25 739.13 458.04 737.82 457.83 736.51 457.62 735.2 457.41 733.89 457.2 732.58 456.99 731.27 456.78 729.96 456.57 728.65 456.36 727.34 456.15 726.03 455.94 724.72 455.73 723.4 455.52 722.09 455.31 720.78 455.1 719.47 454.9 718.16 454.69 716.84 454.48 715.53 454.27 714.22 454.07 712.9 453.86 711.59 453.65 710.28 453.45 708.96 453.24 707.65 453.04 706.34 452.83 705.02 452.63 703.71 452.42 702.39 452.22 701.08 452.02 699.76 451.81 698.45 451.61 697.13 451.41 695.81 451.2 694.5 451 693.18 450.8 691.86 450.6 690.55 450.39 689.23 450.19 687.91 449.99 686.6 449.79 685.28 449.59 683.96 449.39 682.64 449.19 681.32 448.99 680 448.79 678.69 448.59 677.37 448.39 676.05 448.19 674.73 448 673.41 447.8 672.09 447.6 670.77 447.4 669.45 447.2 668.13 447.01 666.81 446.81 665.49 446.61 664.17 446.41 662.84 446.22 662.84 448.3 662.84 450.37 662.83 452.45 662.83 454.52 662.82 456.6 662.82 458.68 662.82 460.75 662.81 462.83 662.81 464.9 662.81 466.98 662.81 469.05 662.8 471.13 662.8 473.2 662.8 475.28 662.8 477.35 662.8 479.43 662.79 481.5 662.79 483.58 662.79 485.65 662.79 487.72 662.79 489.8 662.79 491.87 662.79 493.94 662.79 496.02 662.78 498.09 662.78 500.16 662.78 502.24 662.78 504.31 662.78 506.38 662.78 508.46 662.78 510.53 662.78 512.6 664.34 512.81 665.9 513.02 667.46 513.23 669.02 513.44 670.57 513.65 672.13 513.86 673.69 514.07 675.24 514.28 676.8 514.49 678.36 514.7 679.91 514.91 681.47 515.12 683.03 515.33 684.58 515.54 686.14 515.75 687.69 515.96 689.25 516.18 690.81 516.39 692.36 516.6 693.92 516.81 695.47 517.03 697.03 517.24 698.58 517.45 700.14 517.67 701.69 517.88 703.24 518.1 704.8 518.31 706.35 518.53 707.91 518.74 709.46 518.96 711.02 519.18 712.57 519.39 714.12 519.61 715.68 519.83 717.23 520.05 718.78 520.27 720.34 520.48 721.89 520.7 723.44 520.92 724.99 521.15 726.55 521.37 728.1 521.59 729.65 521.81 731.2 522.04 732.76 522.26 734.31 522.48 735.86 522.71 737.41 522.94 738.96 523.16 740.52 523.39 742.07 523.62 743.62 523.85 745.17 524.08 746.72 524.31 748.27 524.54 749.82 524.77 751.37 525 752.92 525.24 754.47 525.47 756.02 525.71 757.58 525.95 759.13 526.18 760.68 526.42 762.22 526.66 762.22 528.79 762.22 530.93 762.22 533.06 762.22 535.19 762.22 537.32 762.22 539.45 762.22 541.58 762.22 543.71 762.22 545.84 762.22 547.98 762.22 550.11 762.22 552.24 762.22 554.37 762.22 556.5 762.22 558.63 762.22 560.76 762.22 562.89 762.22 565.03 762.22 567.16 762.22 569.29 762.22 571.42 762.22 573.55 762.22 575.68 762.22 577.81 762.22 579.94 762.22 582.08 762.22 584.21 762.22 586.34 762.22 588.47 762.22 590.6 762.22 592.73 762.19 594.61 760.85 594.38 759.48 594.16 758.11 593.95 756.74 593.74 755.37 593.53 754 593.32 752.63 593.14 751.25 593 749.87 592.86 748.49 592.72 747.11 592.59 745.73 592.45 744.36 592.31 742.98 592.14 741.61 591.96 740.23 591.79 738.86 591.61 737.49 591.43 736.11 591.26 734.74 591.08 733.37 590.87 732 590.66 730.63 590.44 729.27 590.23 727.9 590.02 726.53 589.81 725.16 589.62 723.78 589.5 722.39 589.39 721.01 589.27 719.63 589.16 718.25 589.04 716.87 588.93 715.49 588.75 714.13 588.5 712.77 588.26 711.4 588.01 710.04 587.77 708.67 587.52 707.31 587.27 705.93 587.1 704.56 586.94 703.18 586.79 701.8 586.64 700.43 586.49 699.05 586.34 697.67 586.19 696.29 586.06 694.91 585.94 693.53 585.81 692.15 585.69 690.77 585.56 689.39 585.43 688.01 585.29 686.64 585.11 685.27 584.92 683.89 584.73 682.52 584.54 681.15 584.35 679.78 584.16 678.41 583.96 677.04 583.73 675.68 583.51 674.31 583.28 672.95 583.05 671.58 582.83 670.21 582.6 668.84 582.44 667.46 582.3 666.08 582.16 664.7 582.02 663.32 581.89 661.94 581.75 660.56 581.61 659.18 581.47 657.8 581.33 656.42 581.2 655.04 581.06 653.66 580.92 652.28 580.78 650.9 580.64 649.52 580.5 648.14 580.36 646.77 580.22 645.39 580.08 644.01 579.94 642.63 579.8 641.25 579.66 639.87 579.5 638.49 579.35 637.12 579.2 635.74 579.05 634.36 578.89 632.98 578.74 631.61 578.57 630.23 578.39 628.86 578.21 627.49 578.02 626.11 577.84 624.74 577.66 623.37 577.48 622.01 577.22 620.65 576.95 619.29 576.68 617.93 576.41 616.57 576.13 615.22 575.86 613.85 575.62 612.48 575.46 611.1 575.31 609.72 575.16 608.34 575 606.96 574.85 605.59 574.7 604.21 574.54 602.83 574.38 601.45 574.23 600.08 574.07 598.7 573.91 597.32 573.75 595.95 573.59 594.57 573.43 593.19 573.25 591.82 573.08 590.44 572.91 589.07 572.74 587.7 572.57 586.39 572.44 586.39 572.44 586.39 572.44M971.95 547.45Q971.94 548.72 971.91 549.99 971.88 551.26 971.84 552.52 971.79 553.77 971.73 555.02 971.66 556.27 971.58 557.52 971.5 558.76 971.4 559.99 971.3 561.23 971.18 562.45 971.06 563.68 970.93 564.9 970.79 566.11 970.64 567.32 970.48 568.53 970.32 569.73 970.15 570.93 969.96 572.12 969.77 573.31 969.57 574.5 969.37 575.68 969.15 576.85 968.93 578.02 968.7 579.19 968.46 580.35 968.21 581.51 967.96 582.66 967.7 583.81 967.43 584.95 967.15 586.09 966.87 587.22 966.57 588.35 966.28 589.47 965.97 590.59 965.66 591.71 965.34 592.82 965.02 593.92 964.69 595.02 964.35 596.11 964.01 597.2 963.66 598.29 963.3 599.37 962.94 600.44 962.58 601.51 962.22 602.58 961.85 603.64 961.47 604.7 961.1 605.75 960.72 606.8 960.35 607.84 959.97 608.88 959.6 609.92 959.23 610.95 958.87 611.98 958.52 613.01 958.17 614.04 957.84 615.06 957.53 616.08 957.22 617.1 956.94 618.12 956.67 619.14 956.04 619.74 953.89 619.57 951.18 619.15 948.46 618.72 945.73 618.3 943.01 617.87 940.29 617.45 937.56 617.02 934.84 616.6 932.12 616.17 929.68 615.8 928.7 615.68 927.74 615.57 926.79 615.45 925.83 615.34 924.87 615.22 923.92 615.11 922.96 614.99 922.01 614.88 921.05 614.77 920.1 614.65 919.15 614.53 918.19 614.41 917.24 614.29 916.29 614.17 915.33 614.05 914.38 613.93 913.43 613.82 912.47 613.7 911.52 613.58 910.57 613.46 909.62 613.34 908.66 613.22 907.71 613.1 906.76 612.98 905.81 612.86 904.85 612.74 903.9 612.62 902.95 612.5 902 612.38 901.05 612.26 900.09 612.15 899.14 612.03 898.19 611.91 897.24 611.79 896.28 611.67 895.33 611.55 894.38 611.43 893.43 611.31 892.48 611.19 891.53 611.07 890.57 610.94 889.62 610.82 888.67 610.69 887.72 610.57 886.77 610.44 885.82 610.32 884.87 610.19 883.92 610.07 882.96 609.94 882.01 609.82 881.06 609.69 880.11 609.57 879.16 609.44 878.21 609.31 878.39 607.49 878.65 605.45 878.9 603.42 879.15 601.38 879.4 599.35 879.65 597.31 879.9 595.28 880.15 593.24 880.39 591.21 880.62 589.17 880.85 587.13 881.08 585.09 881.3 583.05 881.51 581.01 881.71 578.96 881.91 576.91 882.09 574.86 882.27 572.8 882.44 570.74 882.59 568.68 882.74 566.62 882.88 564.55 883.01 562.47 883.12 560.39 883.23 558.31 883.33 556.22 883.41 554.13 883.48 552.03 883.54 549.93 883.59 547.82 883.63 545.71 883.66 543.59 883.66 542.64 883.66 541.36 883.66 540.07 883.66 538.44 883.65 536.81 883.64 534.83 883.61 532.85 883.58 530.52 883.53 528.18 883.38 526.11 883.22 524.03 882.97 522.23 882.7 520.42 882.34 518.88 881.98 517.34 881.53 516.07 881.07 514.79 880.45 513.67 879.82 512.54 879.04 511.56 878.26 510.58 877.32 509.75 876.39 508.92 875.3 508.24 875.3 508.24 875.3 508.24 873.84 507.88 872.22 507.47 870.61 507.06 868.84 506.59 867.07 506.13 865.15 505.62 863.23 505.1 861.16 504.54 860.12 504.26 859.05 503.96 857.97 503.67 856.86 503.36 855.75 503.06 854.61 502.74 853.46 502.42 852.27 502.09 851.09 501.76 849.87 501.41 848.65 501.07 847.39 500.71 846.13 500.36 844.84 499.99 843.54 499.62 842.21 499.24 842.21 499.24 842.21 499.24 842.08 500.91 841.96 502.57 841.83 504.24 841.7 505.9 841.57 507.56 841.44 509.22 841.3 510.89 841.16 512.54 841.02 514.2 840.88 515.86 840.74 517.52 840.59 519.17 840.44 520.83 840.3 522.48 840.14 524.13 839.99 525.78 839.83 527.43 839.68 529.08 839.52 530.73 839.36 532.37 839.19 534.02 839.02 535.66 838.86 537.3 838.69 538.94 838.51 540.58 838.34 542.22 838.16 543.85 837.98 545.49 837.8 547.12 837.61 548.75 837.43 550.38 837.24 552.01 837.05 553.64 836.85 555.26 836.66 556.89 836.46 558.51 836.26 560.13 836.06 561.75 835.85 563.36 835.64 564.98 835.43 566.59 835.22 568.2 835 569.8 834.78 571.41 834.56 573.01 834.34 574.62 834.11 576.21 833.89 577.81 833.65 579.41 833.42 581 833.18 582.59 832.95 584.18 832.7 585.76 832.46 587.35 832.21 588.93 831.96 590.51 831.71 592.08 831.46 593.66 831.2 595.23 830.94 596.81 830.68 598.38 830.42 599.95 830.15 601.52 829.92 602.85 829.02 602.72 828.11 602.6 827.21 602.48 826.3 602.35 825.4 602.22 824.5 602.09 823.59 601.96 822.69 601.83 821.78 601.7 820.88 601.57 819.97 601.44 819.07 601.31 818.16 601.19 817.26 601.11 816.35 601.02 815.44 600.94 814.53 600.85 813.62 600.77 812.71 600.68 811.8 600.6 810.89 600.51 809.98 600.43 809.07 600.34 808.17 600.25 807.26 600.16 806.35 600.07 805.44 599.98 804.53 599.89 803.62 599.79 802.72 599.7 801.81 599.61 800.9 599.52 799.99 599.43 799.09 599.31 798.18 599.18 797.28 599.05 796.37 598.92 795.47 598.8 794.56 598.67 793.66 598.54 792.76 598.41 791.85 598.28 790.95 598.15 790.04 598.02 789.14 597.88 788.24 597.74 787.34 597.6 786.43 597.47 785.53 597.33 784.63 597.19 783.72 597.05 782.82 596.92 781.92 596.78 781.01 596.65 780.11 596.54 779.2 596.43 778.3 596.31 777.39 596.2 776.49 596.09 775.58 595.98 774.67 595.87 773.77 595.76 772.87 595.66 772.01 595.58 771.94 593.37 771.93 590.93 771.91 588.48 771.9 586.04 771.89 583.6 771.87 581.16 771.86 578.71 771.85 576.27 771.83 573.83 771.82 571.38 771.81 568.94 771.79 566.5 771.78 564.06 771.77 561.61 771.75 559.17 771.74 556.73 771.73 554.28 771.71 551.84 771.7 549.4 771.69 546.96 771.67 544.51 771.66 542.07 771.65 539.63 771.63 537.18 771.62 534.74 771.61 532.3 771.6 529.86 771.6 527.41 771.61 524.97 771.61 522.53 771.61 520.08 771.61 517.64 771.61 515.2 771.61 512.76 771.61 510.31 771.61 507.87 771.61 505.43 771.61 502.99 771.61 500.54 771.61 498.1 771.61 495.66 771.61 493.21 771.61 490.77 771.61 488.33 771.61 485.89 771.61 483.44 771.61 481 771.61 478.56 771.61 476.11 771.61 473.67 771.61 471.23 771.61 468.79 771.61 466.34 771.61 463.9 771.61 461.46 771.61 459.01 771.61 456.57 771.61 454.13 771.61 451.69 771.61 449.24 771.61 446.8 771.61 444.36 771.61 441.91 771.61 439.47 771.61 437.03 771.61 434.59 771.61 432.14 771.61 429.7 771.61 427.26 771.61 424.81 771.61 422.37 771.61 419.93 771.61 417.49 771.61 415.04 771.61 412.6 771.61 410.16 771.61 407.71 771.61 405.27 771.61 402.83 771.61 400.39 771.61 397.94 771.61 395.5 771.61 393.06 771.61 390.61 771.61 388.17 771.61 385.73 771.61 383.29 771.61 380.84 771.61 378.4 771.61 375.96 771.61 373.51 771.61 371.07 771.61 368.63 771.61 366.19 771.61 363.74 771.61 361.3 771.61 358.86 771.61 356.41 771.61 353.97 771.61 351.53 771.61 349.08 771.61 346.64 771.61 344.2 771.61 341.76 771.61 339.31 771.61 336.87 771.61 334.43 771.61 331.98 771.61 329.54 771.61 327.1 771.61 324.66 771.61 322.21 771.61 319.77 771.61 317.33 771.61 314.88 771.61 312.44 771.61 310 771.61 307.55 771.61 305.11 771.61 302.67 771.61 300.22 771.61 297.78 771.61 295.34 771.61 292.9 771.61 290.45 771.61 288.01 771.61 285.57 771.61 283.12 773.25 283.51 774.9 283.9 776.56 284.3 778.23 284.7 779.91 285.11 781.57 285.53 783.24 285.95 784.9 286.38 786.56 286.81 788.22 287.25 789.87 287.69 791.51 288.14 793.15 288.6 794.79 289.06 796.42 289.53 798.04 290 799.66 290.48 801.28 290.96 802.89 291.45 804.49 291.94 806.09 292.44 807.69 292.95 809.28 293.46 810.86 293.98 812.44 294.5 814.01 295.03 815.58 295.57 817.15 296.1 818.71 296.65 820.26 297.2 821.81 297.76 823.35 298.32 824.89 298.89 826.42 299.46 827.95 300.03 829.46 300.62 830.98 301.21 832.49 301.8 834 302.4 835.49 303 836.99 303.62 838.48 304.23 839.96 304.85 841.44 305.48 842.91 306.11 844.38 306.74 845.84 307.38 847.29 308.03 848.74 308.69 850.19 309.34 851.63 310 853.06 310.68 854.49 311.35 855.91 312.02 857.33 312.71 858.74 313.4 860.14 314.09 861.54 314.79 862.94 315.49 864.32 316.21 865.71 316.92 867.09 317.63 868.46 318.36 869.82 319.09 869.82 319.09 869.82 319.09 871.06 319.75 872.27 320.42 873.49 321.09 874.68 321.77 875.88 322.45 877.05 323.13 878.23 323.81 879.39 324.5 880.55 325.2 881.69 325.89 882.83 326.58 883.95 327.28 885.07 327.99 886.18 328.7 887.28 329.41 888.37 330.12 889.45 330.84 890.52 331.56 891.58 332.28 892.63 333 893.68 333.73 894.71 334.46 895.74 335.19 896.76 335.93 897.77 336.66 898.77 337.4 899.76 338.14 900.74 338.89 902.69 340.38 904.58 341.88 906.46 343.4 908.28 344.92 910.09 346.44 911.84 347.98 913.59 349.52 915.27 351.06 916.95 352.61 918.57 354.16 920.18 355.73 921.73 357.29 923.28 358.85 924.78 360.42 926.26 361.99 927.69 363.56 929.12 365.14 930.49 366.71 931.86 368.29 933.19 369.88 934.51 371.47 935.79 373.08 937.07 374.69 938.31 376.31 939.56 377.93 940.76 379.56 941.96 381.19 943.13 382.83 944.31 384.46 945.45 386.1 946.6 387.73 947.72 389.36 948.85 390.99 949.96 392.62 951.07 394.24 952.17 395.85 953.28 397.46 954.36 399.05 955.47 400.64 956.56 402.21 957.67 403.78 958.76 405.33 959.88 406.86 960.98 408.39 962.1 409.89 963.21 411.39 964.34 412.87 965.46 414.34 966.59 415.79 967.71 417.23 968.85 418.66 969.97 420.09 971.11 421.51 972.23 422.92 973.36 424.33 974.47 425.74 975.58 427.15 976.67 428.56 977.77 429.96 978.83 431.38 979.9 432.79 980.93 434.21 981.96 435.63 982.95 437.06 983.94 438.5 984.89 439.94 985.83 441.39 986.72 442.86 987.61 444.33 988.44 445.82 989.26 447.31 990.03 448.82 990.79 450.33 991.49 451.87 992.18 453.41 992.8 454.97 993.42 456.54 993.96 458.13 994.49 459.72 994.96 461.34 995.4 462.97 995.77 464.62 995.77 464.62 995.77 464.62 996.11 466.17 996.36 467.66 996.59 469.16 996.73 470.59 996.86 472.03 996.91 473.41 996.94 474.79 996.88 476.11 996.81 477.43 996.66 478.7 996.5 479.96 996.25 481.16 995.99 482.36 995.65 483.5 995.3 484.64 994.87 485.72 994.43 486.8 993.91 487.82 993.39 488.84 992.78 489.79 992.17 490.75 991.48 491.64 990.78 492.54 990.01 493.37 989.24 494.2 988.39 494.96 987.53 495.73 986.61 496.44 985.68 497.14 984.68 497.78 983.68 498.42 982.62 499 981.55 499.58 980.4 500.09 979.25 500.61 978.02 501.05 976.8 501.49 975.5 501.87 974.2 502.25 972.83 502.56 971.46 502.87 970.02 503.11 968.59 503.36 967.09 503.53 965.59 503.71 964.03 503.83 962.47 503.95 960.85 504 959.24 504.05 957.57 504.04 955.91 504.03 954.19 503.95 952.47 503.88 950.71 503.74 948.95 503.61 947.14 503.42 945.34 503.22 943.48 502.96 941.64 502.71 939.75 502.39 937.87 502.08 935.95 501.7 934.03 501.33 932.07 500.9 932.07 500.9 932.07 500.9 931.88 502.19 931.68 503.48 933.84 504.33 935.9 505.27 937.98 506.21 939.96 507.24 941.96 508.27 943.86 509.37 945.77 510.48 947.58 511.67 949.39 512.85 951.1 514.12 952.82 515.38 954.43 516.73 956.05 518.07 957.54 519.48 959.04 520.9 960.43 522.39 961.81 523.87 963.04 525.39 964.27 526.9 965.34 528.43 966.41 529.96 967.32 531.52 968.22 533.07 968.96 534.64 969.69 536.21 970.25 537.8 970.81 539.38 971.19 540.99 971.56 542.59 971.76 544.21 971.94 545.82 971.95 547.45 971.95 547.45 971.95 547.45 971.95 547.45 971.95 547.45M845.46 441.8Q846.39 442.28 847.77 442.88 849.15 443.49 850.98 444.23 852.81 444.97 855.09 445.85 856.23 446.29 857.49 446.76 858.75 447.24 860.12 447.75 860.12 447.75 860.12 447.75 862.15 448.51 864.09 449.21 866.03 449.91 867.86 450.55 869.71 451.2 871.45 451.78 873.19 452.36 874.84 452.88 876.48 453.4 878.03 453.87 879.58 454.33 881.02 454.73 882.47 455.13 883.82 455.47 885.16 455.81 886.41 456.09 887.65 456.36 888.79 456.58 889.93 456.8 890.97 456.95 893.04 457.25 894.69 457.3 896.33 457.35 897.54 457.14 898.76 456.93 899.52 456.45 899.52 456.45 899.52 456.45 900.94 455.58 902.07 453.64 902.62 452.68 903.1 451.44 903.58 450.21 903.98 448.71 904.37 447.21 904.68 445.44 904.98 443.67 905.2 441.62 905.41 439.58 905.54 437.26 905.6 436.1 905.64 434.86 905.67 433.63 905.69 432.33 905.69 432.33 905.69 432.33 905.71 429.89 905.58 427.58 905.44 425.26 905.15 423.05 904.86 420.84 904.43 418.75 903.99 416.65 903.41 414.67 902.83 412.68 902.11 410.8 901.39 408.93 900.53 407.17 899.67 405.4 898.67 403.76 897.68 402.11 896.55 400.59 895.42 399.07 894.11 397.56 892.8 396.06 891.31 394.57 889.83 393.09 888.17 391.63 886.5 390.17 884.66 388.74 882.82 387.31 880.79 385.92 879.78 385.22 878.72 384.53 877.66 383.85 876.56 383.17 875.45 382.5 874.3 381.83 873.15 381.17 871.95 380.52 870.75 379.87 869.51 379.23 868.26 378.59 866.97 377.96 866.97 377.96 866.97 377.96 865.81 377.4 864.04 376.62 862.27 375.85 859.89 374.86 858.7 374.37 857.36 373.82 856.01 373.28 854.52 372.69 853.02 372.11 851.37 371.47 849.71 370.84 847.91 370.16 847.91 370.16 847.91 370.16 847.83 372.45 847.76 374.74 847.68 377.02 847.61 379.29 847.53 381.56 847.46 383.83 847.39 386.1 847.32 388.36 847.25 390.62 847.18 392.88 847.11 395.13 847.03 397.38 846.96 399.62 846.89 401.87 846.82 404.11 846.75 406.34 846.68 408.58 846.6 410.81 846.53 413.04 846.46 415.27 846.38 417.49 846.3 419.71 846.23 421.93 846.15 424.15 846.07 426.36 845.99 428.57 845.9 430.78 845.82 432.99 845.73 435.2 845.65 437.4 845.56 439.6 845.46 441.8 845.46 441.8 845.46 441.8"></path><path fill="#c88087" d="M85.84 636.8Q84.84 635.93 83.8 635.01 82.75 634.1 81.7 633.18 80.7 632.29 79.84 631.51 78.98 630.73 78.13 629.95 77.27 629.17 76.35 628.31 75.34 627.36 74.34 626.4 73.33 625.45 72.33 624.49 71.35 623.52 70.37 622.55 69.4 621.58 68.42 620.6 67.45 619.63 66.63 618.78 65.82 617.93 65 617.08 64.19 616.23 63.35 615.35 62.43 614.33 61.5 613.32 60.58 612.31 59.65 611.3 58.8 610.34 58.02 609.44 57.24 608.55 56.47 607.65 55.69 606.75 54.84 605.74 53.98 604.69 53.11 603.63 52.24 602.58 51.38 601.53 50.55 600.46 49.72 599.39 48.89 598.32 48.06 597.25 47.24 596.18 46.44 595.09 45.65 594.01 44.86 592.92 44.07 591.83 43.38 590.86 42.77 589.98 42.17 589.1 41.56 588.22 40.96 587.34 40.25 586.26 39.52 585.13 38.79 584 38.06 582.87 37.34 581.74 36.65 580.6 35.96 579.45 35.27 578.31 34.59 577.16 33.91 576.01 33.27 574.85 32.63 573.69 31.99 572.53 31.34 571.37 30.73 570.2 30.13 569.02 29.53 567.85 28.94 566.67 28.34 565.5 27.78 564.31 27.23 563.12 26.68 561.94 26.13 560.75 25.59 559.56 25.08 558.35 24.58 557.15 24.08 555.95 23.58 554.75 23.1 553.54 22.64 552.33 22.19 551.12 21.74 549.9 21.29 548.69 20.87 547.47 20.46 546.24 20.06 545.02 19.66 543.79 19.26 542.57 18.95 541.5 18.65 540.46 18.35 539.42 18.05 538.38 17.75 537.3 17.44 536.03 17.12 534.75 16.81 533.47 16.5 532.2 16.21 530.91 15.95 529.63 15.69 528.34 15.44 527.06 15.18 525.77 14.96 524.48 14.76 523.18 14.56 521.89 14.36 520.59 14.16 519.3 14.01 518 13.87 516.7 13.72 515.4 13.58 514.1 13.45 512.77 13.36 511.34 13.27 509.9 13.18 508.47 13.09 507.04 13.03 505.71 13.01 504.53 12.99 503.35 12.97 502.16 12.95 500.98 12.96 499.76 12.99 498.52 13.02 497.27 13.05 496.03 13.08 494.78 14.72 494.55 16.36 494.32 18 494.08 19.64 493.85 21.28 493.62 22.92 493.4 24.43 493.63 25.94 493.89 27.45 494.15 28.95 494.41 30.46 494.68 31.96 494.94 33.46 495.25 34.96 495.57 36.46 495.89 37.95 496.21 39.45 496.53 40.94 496.85 42.44 497.17 43.94 497.49 45.43 497.81 46.93 498.13 48.42 498.45 49.92 498.77 51.42 499.07 52.92 499.35 54.43 499.64 55.93 499.93 57.43 500.21 58.93 500.5 60.44 500.76 61.95 500.99 63.47 501.22 64.98 501.45 66.49 501.69 68 501.92 69.51 502.19 71 502.54 72.49 502.88 73.98 503.22 75.47 503.57 76.96 503.91 78.46 504.24 79.96 504.53 81.46 504.82 82.96 505.11 84.46 505.4 85.96 505.7 87.46 505.98 88.97 506.23 90.48 506.47 91.99 506.72 93.5 506.97 95.02 507.21 96.53 507.46 98.04 507.69 99.55 507.92 101.06 508.16 102.57 508.39 104.09 508.62 105.6 508.86 107.11 509.1 108.62 509.35 110.13 509.6 110.26 510.66 110.38 511.73 110.5 512.8 110.63 513.87 110.75 514.95 110.88 516.01 111 517.08 111.13 518.14 111.25 519.2 111.38 520.26 111.51 521.31 111.64 522.36 111.77 523.41 111.9 524.46 112.03 525.51 112.16 526.55 112.29 527.6 112.43 528.64 112.56 529.68 112.7 530.72 112.83 531.76 112.97 532.8 113.11 533.83 113.25 534.87 113.39 535.9 113.53 536.94 113.68 537.97 113.82 539 113.97 540.03 114.12 541.06 114.27 542.09 114.42 543.12 114.57 544.15 114.72 545.18 114.88 546.2 115.03 547.23 115.19 548.25 115.35 549.28 115.52 550.3 115.68 551.32 115.84 552.34 116.01 553.36 116.18 554.38 116.35 555.4 116.52 556.42 116.7 557.43 116.88 558.45 117.05 559.46 117.23 560.48 117.42 561.49 117.6 562.5 117.79 563.51 117.98 564.52 118.17 565.53 118.36 566.54 118.55 567.55 118.75 568.56 118.95 569.57 119.15 570.57 119.35 571.58 119.56 572.58 119.76 573.58 119.97 574.59 120.18 575.59 120.39 576.59 120.61 577.59 120.83 578.59 121.04 579.59 121.27 580.59 121.49 581.58 121.71 582.58 121.94 583.57 122.17 584.57 122.4 585.56 122.63 586.56 122.87 587.55 123.1 588.54 123.34 589.53 123.58 590.52 123.82 591.51 124.07 592.5 124.31 593.49 124.56 594.48 124.81 595.47 125.06 596.45 125.31 597.44 125.57 598.43 125.82 599.41 126.08 600.39 126.34 601.38 126.6 602.36 126.86 603.34 127.13 604.33 127.39 605.31 127.66 606.29 127.93 607.27 128.2 608.25 128.47 609.23 128.74 610.21 129.02 611.19 129.29 612.17 129.57 613.15 129.84 614.13 130.12 615.11 130.4 616.09 130.68 617.07 130.96 618.05 131.25 619.03 131.53 620.01 131.81 620.98 132.1 621.96 132.39 622.94 132.67 623.92 132.96 624.9 133.25 625.89 133.53 626.87 133.82 627.85 134.11 628.83 134.4 629.81 134.69 630.8 134.98 631.78 135.27 632.77 135.56 633.76 135.84 634.74 136.13 635.73 136.42 636.72 136.71 637.72 137 638.71 138.5 639.33 140 639.95 141.5 640.57 143 641.19 144.5 641.81 146.01 642.42 147.51 643.04 149.01 643.65 150.51 644.26 152.01 644.87 153.51 645.48 155.01 646.09 156.51 646.69 158.01 647.3 159.52 647.9 161.02 648.5 162.52 649.1 164.03 649.69 165.53 650.29 167.04 650.88 168.54 651.47 170.05 652.06 171.56 652.65 173.07 653.24 174.58 653.82 176.09 654.4 177.61 654.99 179.12 655.56 180.64 656.14 182.16 656.72 183.68 657.29 185.2 657.86 186.72 658.43 188.25 658.99 189.77 659.56 191.3 660.12 192.83 660.68 194.37 661.24 195.9 661.8 197.44 662.36 198.98 662.91 200.53 663.46 202.07 664.01 203.62 664.56 205.17 665.11 206.73 665.65 208.29 666.2 209.85 666.74 211.41 667.28 212.98 667.82 214.55 668.35 216.12 668.89 217.7 669.42 219.28 669.95 220.87 670.48 222.46 671 224.05 671.53 225.65 672.05 227.25 672.58 228.86 673.1 230.47 673.62 232.08 674.14 233.7 674.65 235.12 675.1 235.12 676.45 235.12 677.79 235.12 679.13 235.12 680.48 235.12 681.82 235.12 683.17 235.12 684.51 235.12 685.85 235.12 687.2 235.12 688.54 235.12 689.89 235.12 691.23 235.12 692.57 235.12 693.92 235.13 695.26 235.13 696.61 235.13 697.95 235.13 699.29 235.13 700.64 235.13 701.98 235.13 703.33 235.13 704.67 235.13 706.01 235.13 707.36 235.13 708.7 235.13 710.04 235.13 711.39 235.13 712.73 235.13 714.08 235.13 715.42 235.13 716.76 234.96 717.79 233.95 717.54 232.6 717.05 231.25 716.57 229.89 716.09 228.61 715.64 227.47 715.22 226.32 714.8 225.17 714.38 224.03 713.96 222.72 713.47 221.37 712.97 220.03 712.46 218.68 711.95 217.37 711.46 216.23 711.01 215.09 710.57 213.94 710.13 212.8 709.69 211.53 709.18 210.19 708.65 208.84 708.11 207.5 707.58 206.16 707.04 204.82 706.49 203.49 705.94 202.15 705.39 200.82 704.84 199.58 704.32 198.44 703.84 197.3 703.36 196.16 702.87 195.03 702.39 193.89 701.9 192.75 701.4 191.61 700.9 190.48 700.41 189.27 699.88 187.95 699.28 186.63 698.69 185.3 698.09 183.98 697.5 182.81 696.96 181.67 696.44 180.54 695.91 179.41 695.39 178.28 694.86 177.14 694.32 176.01 693.78 174.88 693.24 173.75 692.7 172.5 692.1 171.2 691.46 169.89 690.82 168.58 690.18 167.28 689.53 165.98 688.88 164.68 688.22 163.39 687.56 162.09 686.9 160.88 686.28 159.76 685.7 158.64 685.11 157.52 684.53 156.4 683.94 155.28 683.34 154.17 682.74 153.05 682.14 151.93 681.54 150.76 680.9 149.49 680.19 148.21 679.48 146.94 678.78 145.67 678.07 144.52 677.42 143.42 676.78 142.31 676.15 141.2 675.51 140.1 674.87 139 674.22 137.89 673.57 136.79 672.92 135.69 672.27 134.49 671.55 133.25 670.79 132.01 670.03 130.77 669.27 129.54 668.51 128.44 667.83 127.36 667.14 126.27 666.45 125.18 665.76 124.09 665.07 123.01 664.36 121.93 663.65 120.85 662.95 119.76 662.24 118.57 661.44 117.36 660.62 116.16 659.81 114.95 659 113.84 658.24 112.9 657.58 111.96 656.93 111.03 656.27 110.08 655.61 108.96 654.81 107.78 653.95 106.6 653.1 105.43 652.25 104.25 651.4 103.09 650.53 101.94 649.66 100.78 648.79 99.62 647.92 98.62 647.15 97.69 646.43 96.77 645.71 95.85 644.99 94.91 644.26 93.79 643.35 92.67 642.44 91.54 641.54 90.42 640.63 89.4 639.79 88.5 639.03 87.59 638.27 86.69 637.51 85.84 636.8 85.84 636.8 85.84 636.8M247.16 722.01Q246.87 720.63 246.76 719.16 246.65 717.69 246.54 716.22 246.43 714.75 246.31 713.29 246.2 711.82 246.09 710.35 245.97 708.88 245.86 707.42 245.74 705.95 245.63 704.48 245.52 703.01 245.4 701.55 245.29 700.08 245.18 698.61 245.06 697.15 244.95 695.68 244.83 694.21 244.72 692.74 244.61 691.28 244.49 689.81 244.38 688.34 244.27 686.88 244.15 685.41 244.08 683.94 244.08 682.48 244.08 681.01 244.08 679.54 244.08 678.07 244.08 676.61 244.08 675.14 244.08 673.67 244.08 672.21 244.08 670.74 244.08 669.27 244.08 667.81 244.08 666.34 244.08 664.87 244.08 663.4 244.08 661.94 244.08 660.47 244.08 659 244.08 657.54 244.08 656.07 244.08 654.6 244.08 653.14 244.08 651.67 244.08 650.2 244.08 648.74 244.08 647.27 244.08 645.8 244.08 644.34 244.08 642.87 244.08 641.4 244.08 639.93 244.08 638.47 244.08 637 244.08 635.53 244.08 634.07 244.08 632.6 244.08 631.13 244.08 629.67 244.08 628.2 244.08 626.73 244.08 625.27 244.08 623.8 244.08 622.33 244.08 620.87 244.08 619.4 244.08 617.93 244.08 616.47 244.08 615 244.08 613.53 244.08 612.06 244.08 610.6 244.08 609.13 244.08 607.66 244.08 606.2 244.08 604.73 244.08 603.26 244.08 601.8 244.08 600.33 244.08 598.86 244.08 597.4 244.08 595.93 244.08 594.46 244.08 593 244.08 591.53 244.08 590.06 244.08 588.6 244.08 587.13 244.08 585.66 244.08 584.19 244.08 582.73 244.08 581.26 244.08 579.79 244.08 578.33 244.08 576.86 244.08 575.39 244.08 573.93 244.08 572.46 244.07 570.99 244.07 569.53 244.07 568.06 244.07 566.59 244.07 565.13 244.07 563.66 244.07 562.19 244.07 560.73 244.07 559.26 244.07 557.79 244.07 556.33 244.07 554.86 244.07 553.39 244.07 551.93 244.07 550.46 244.07 548.99 244.07 547.53 244.07 546.06 244.07 544.59 244.07 543.12 244.07 541.66 244.07 540.19 244.07 538.72 244.07 537.26 244.07 535.79 244.07 534.32 247.54 534.81 251.02 535.3 254.47 535.88 257.91 536.57 261.34 537.26 264.79 537.85 268.25 538.42 271.71 538.99 275.15 539.63 278.6 540.28 282.06 540.83 285.54 541.27 289.03 541.71 292.46 542.38 295.89 543.14 299.32 543.87 302.79 544.4 306.26 544.93 309.73 545.42 313.21 545.88 316.69 546.33 320.17 546.82 323.65 547.31 327.12 547.81 330.6 548.31 334.07 548.81 337.51 549.46 340.91 550.32 344.31 551.17 347.76 551.78 351.23 552.32 354.7 552.85 358.18 553.37 361.65 553.89 365.12 554.41 368.59 554.96 372.06 555.5 375.52 556.05 378.99 556.6 382.46 557.13 385.94 557.5 389.43 557.86 392.91 558.23 396.39 558.59 399.88 558.95 403.34 559.47 406.81 560.04 410.27 560.62 413.74 561.14 417.21 561.66 420.68 562.21 424.15 562.78 427.61 563.35 431.07 563.92 434.54 564.5 438 565.03 441.5 565.25 444.99 565.46 448.47 565.8 451.95 566.33 455.42 566.85 458.88 567.41 462.35 567.98 465.29 568.52 465.34 569.96 465.46 571.46 465.58 572.96 465.71 574.46 465.83 575.97 465.96 577.47 466.09 578.97 466.21 580.48 466.34 581.98 466.47 583.48 466.59 584.99 466.72 586.49 466.85 587.99 466.97 589.5 467.1 591 467.23 592.5 467.35 594.01 467.48 595.51 467.61 597.01 467.73 598.51 467.86 600.02 467.99 601.52 468.11 603.02 468.24 604.53 468.37 606.03 468.44 607.53 468.44 609.04 468.44 610.54 468.44 612.04 468.44 613.55 468.44 615.05 468.44 616.55 468.44 618.06 468.44 619.56 468.44 621.06 468.44 622.57 468.44 624.07 468.44 625.57 468.44 627.08 468.44 628.58 468.44 630.08 468.44 631.59 468.44 633.09 468.44 634.59 468.44 636.09 468.44 637.6 468.44 639.1 468.44 640.6 468.44 642.11 468.44 643.61 468.44 645.11 468.44 646.62 468.44 648.12 468.44 649.62 468.44 651.13 468.44 652.63 468.44 654.13 468.44 655.64 468.44 657.14 468.44 658.64 468.44 660.15 468.44 661.65 468.44 663.15 468.44 664.66 468.44 666.16 468.44 667.66 468.44 669.17 468.44 670.67 468.44 672.17 468.44 673.68 468.44 675.18 468.44 676.68 468.44 678.19 468.44 679.69 468.44 681.19 468.44 682.7 468.44 684.2 468.44 685.7 468.44 687.21 468.44 688.71 468.44 690.21 468.44 691.71 468.44 693.22 468.44 694.72 468.44 696.22 468.44 697.73 468.44 699.23 468.44 700.73 468.44 702.24 468.44 703.74 468.44 705.24 468.44 706.75 468.44 708.25 468.44 709.75 468.44 711.26 468.44 712.76 468.44 714.26 468.44 715.77 468.44 717.27 468.44 718.77 468.44 720.28 468.44 721.78 468.44 723.28 468.44 724.79 468.44 726.29 468.44 727.8 468.44 729.3 468.44 730.8 468.44 732.31 468.44 733.81 468.44 735.31 468.44 736.82 468.44 738.32 468.44 739.82 468.44 741.33 468.44 742.83 468.44 744.33 468.44 745.84 468.44 747.34 468.44 748.85 468.44 750.35 468.44 751.85 468.44 753.36 468.44 754.86 468.44 756.37 468.44 757.87 468.45 759.37 468 760.53 465.46 760.58 461.89 760.4 458.31 760.2 454.72 759.99 451.13 759.77 447.53 759.53 443.96 759.29 440.87 759.06 437.67 758.82 434.1 758.53 430.52 758.23 426.94 757.92 423.35 757.59 419.76 757.25 416.17 756.88 412.57 756.51 408.97 756.13 405.36 755.72 401.76 755.31 398.49 754.91 395.27 754.52 392.07 754.11 388.71 753.67 385.11 753.19 381.51 752.68 377.91 752.17 374.3 751.63 370.69 751.09 367.08 750.52 363.46 749.94 359.85 749.35 356.6 748.8 353.42 748.25 349.82 747.61 346.36 746.98 343.24 746.4 339.83 745.75 336.22 745.06 332.6 744.33 328.98 743.6 325.36 742.84 321.74 742.07 318.12 741.28 314.85 740.55 311.75 739.85 308.17 739.02 304.67 738.19 301.59 737.45 298.26 736.63 294.64 735.73 291.02 734.8 287.41 733.86 283.79 732.89 280.34 731.96 277.28 731.11 273.91 730.16 270.31 729.13 267.15 728.2 264.04 727.28 260.44 726.19 256.85 725.08 253.26 723.96 250.03 722.93 247.16 722.01 247.16 722.01 247.16 722.01M593.57 758.25Q591.79 758.4 590.04 758.57 588.29 758.73 586.57 758.89 584.85 758.99 583.39 759.03 581.94 759.07 580.5 759.09 578.99 759.11 577.34 759.11 575.68 759.11 574.05 759.09 572.42 759.06 570.82 759.01 569.23 758.95 567.65 758.87 566.08 758.78 564.54 758.67 563 758.55 561.48 758.41 559.96 758.27 558.48 758.09 556.99 757.92 555.53 757.72 554.07 757.52 552.64 757.29 551.21 757.06 549.8 756.8 548.4 756.54 547.02 756.26 545.64 755.97 544.29 755.66 542.94 755.34 541.62 755 540.29 754.66 539 754.29 537.7 753.92 536.43 753.52 535.15 753.12 533.91 752.7 532.66 752.28 531.44 751.83 530.22 751.38 529.02 750.9 527.82 750.42 526.65 749.92 525.48 749.42 524.33 748.89 523.18 748.36 522.05 747.81 520.92 747.25 519.82 746.67 518.71 746.09 517.63 745.49 516.54 744.89 515.48 744.26 514.41 743.63 513.37 742.98 512.32 742.32 511.3 741.65 510.28 740.97 509.27 740.27 508.27 739.57 507.28 738.85 506.3 738.12 505.33 737.37 504.37 736.62 503.42 735.84 502.48 735.06 501.55 734.25 500.62 733.45 499.72 732.61 498.81 731.78 497.93 730.91 497.05 730.05 496.19 729.16 495.33 728.27 494.49 727.35 493.66 726.43 492.85 725.49 492.04 724.55 491.27 723.57 490.5 722.6 489.75 721.6 489.02 720.6 488.32 719.58 487.63 718.55 486.97 717.5 486.32 716.44 485.71 715.36 485.1 714.28 484.54 713.17 483.97 712.06 483.45 710.93 482.92 709.79 482.44 708.63 481.95 707.47 481.5 706.28 481.05 705.09 480.63 703.88 480.21 702.66 479.83 701.42 479.44 700.17 479.09 698.9 478.74 697.63 478.42 696.34 478.09 695.04 477.8 693.72 477.51 692.39 477.25 691.04 476.99 689.69 476.76 688.32 476.52 686.94 476.32 685.54 476.12 684.13 475.95 682.7 475.77 681.27 475.63 679.81 475.49 678.36 475.37 676.87 475.26 675.39 475.17 673.88 475.08 672.37 475.03 670.83 474.97 669.3 474.94 667.73 474.91 666.17 474.91 664.58 474.91 664.58 474.91 664.58 474.91 663.02 474.94 661.49 474.97 659.96 475.04 658.46 475.1 656.96 475.19 655.48 475.29 654.01 475.41 652.56 475.54 651.11 475.69 649.69 475.85 648.27 476.04 646.88 476.22 645.49 476.44 644.13 476.66 642.76 476.91 641.43 477.16 640.09 477.44 638.79 477.72 637.48 478.03 636.2 478.34 634.93 478.68 633.68 479.03 632.43 479.4 631.21 479.77 629.99 480.17 628.8 480.58 627.61 481.01 626.44 481.45 625.28 481.91 624.15 482.38 623.02 482.87 621.92 483.37 620.81 483.89 619.74 484.42 618.67 484.98 617.63 485.53 616.58 486.12 615.57 486.71 614.56 487.33 613.58 487.94 612.6 488.59 611.65 489.24 610.7 489.92 609.78 490.6 608.86 491.3 607.98 492.01 607.09 492.75 606.24 493.49 605.39 494.26 604.57 495.02 603.75 495.82 602.96 496.62 602.17 497.45 601.42 498.28 600.67 499.14 599.95 499.99 599.23 500.88 598.54 501.77 597.86 502.69 597.2 503.6 596.55 504.55 595.93 505.5 595.32 506.47 594.73 507.45 594.15 508.45 593.59 509.44 593.04 510.46 592.51 511.47 591.98 512.51 591.48 513.54 590.98 514.59 590.5 515.65 590.03 516.72 589.58 517.79 589.13 518.88 588.71 519.98 588.3 521.09 587.9 522.2 587.51 523.33 587.15 524.46 586.79 525.61 586.46 526.76 586.12 527.93 585.82 529.1 585.51 530.29 585.24 531.48 584.96 532.69 584.71 533.9 584.46 535.12 584.24 536.35 584.01 537.6 583.81 538.85 583.61 540.12 583.44 541.39 583.26 542.68 583.11 543.97 582.96 545.27 582.83 546.58 582.7 547.91 582.59 549.24 582.49 550.59 582.41 551.94 582.33 553.31 582.27 554.68 582.21 556.07 582.18 557.46 582.14 558.87 582.11 560.28 582.08 561.71 582.05 563.15 582.02 564.6 582.02 566.05 582 567.53 582 569.01 581.95 570.51 581.9 572.01 581.84 573.53 581.8 575.05 581.76 576.59 581.75 578.12 581.83 579.67 581.96 581.23 582.09 582.8 582.25 584.37 582.4 585.97 582.58 587.56 582.76 589.17 582.96 589.17 582.96 589.17 582.96 590.87 583.18 592.54 583.41 594.21 583.63 595.86 583.88 597.51 584.11 599.13 584.35 600.75 584.6 602.34 584.86 603.94 585.12 605.51 585.4 607.08 585.67 608.62 585.96 610.16 586.26 611.68 586.57 613.19 586.9 614.68 587.28 616.15 587.7 617.6 588.15 619.05 588.6 620.47 589.06 621.89 589.51 623.3 589.95 624.7 590.37 626.09 590.8 627.47 591.21 628.83 591.64 630.19 592.06 631.52 592.49 632.86 592.92 634.17 593.36 635.48 593.79 636.77 594.24 638.05 594.69 639.31 595.15 640.57 595.61 641.81 596.08 643.05 596.55 644.26 597.04 645.47 597.52 646.65 598.02 647.84 598.52 649 599.04 650.16 599.55 651.29 600.08 652.43 600.61 653.54 601.16 654.65 601.7 655.73 602.26 656.82 602.82 657.88 603.39 658.94 603.97 659.97 604.56 661.01 605.14 662.02 605.74 663.03 606.34 664.02 606.96 665.01 607.57 665.97 608.19 666.94 608.81 667.87 609.45 668.82 610.08 669.73 610.72 670.65 611.36 671.54 612.02 672.43 612.67 673.3 613.33 674.17 613.99 675.02 614.66 675.87 615.33 676.69 616.01 677.51 616.69 678.31 617.38 679.11 618.07 679.88 618.77 680.65 619.47 681.4 620.18 682.15 620.89 682.87 621.61 683.59 622.33 684.29 623.07 684.98 623.8 685.65 624.55 686.32 625.29 686.95 626.05 687.59 626.81 688.19 627.58 688.79 628.35 689.37 629.14 689.93 629.92 690.47 630.72 691.01 631.52 691.51 632.33 692.01 633.15 692.49 633.97 692.96 634.8 693.4 635.64 693.84 636.48 694.25 637.34 694.66 638.2 695.05 639.07 695.43 639.94 695.78 640.83 696.14 641.71 696.46 642.61 696.79 643.52 697.09 644.43 697.38 645.35 697.66 646.28 697.93 647.22 698.17 648.17 698.41 649.11 698.63 650.08 698.84 651.04 699.03 652.02 699.22 653 699.38 654 699.54 655 699.68 656.01 699.81 657.02 699.92 658.05 700.03 659.08 700.11 660.13 700.19 661.17 700.24 662.24 700.21 663.3 700.18 664.38 700.16 665.46 700.16 666.55 700.16 666.55 700.16 666.55 700.16 667.66 700.18 668.75 700.21 669.85 700.24 670.93 700.19 672.01 700.11 673.07 700.03 674.13 699.93 675.18 699.83 676.23 699.69 677.27 699.56 678.3 699.41 679.32 699.25 680.34 699.07 681.35 698.89 682.36 698.68 683.35 698.47 684.35 698.23 685.33 698 686.31 697.74 687.27 697.48 688.24 697.19 689.19 696.91 690.15 696.6 691.09 696.28 692.03 695.95 692.95 695.61 693.88 695.25 694.8 694.88 695.71 694.49 696.61 694.1 697.52 693.69 698.41 693.27 699.3 692.83 700.18 692.39 701.06 691.93 701.93 691.46 702.79 690.97 703.65 690.48 704.51 689.96 705.36 689.45 706.2 688.9 707.04 688.36 707.88 687.79 708.71 687.23 709.53 686.63 710.35 686.04 711.17 685.42 711.98 684.81 712.8 684.17 713.6 683.52 714.41 682.86 715.2 682.19 716 681.5 716.79 680.81 717.59 680.09 718.37 679.37 719.16 678.63 719.95 677.89 720.73 677.13 721.51 676.37 722.29 675.58 723.07 674.79 723.85 673.98 724.62 673.17 725.4 672.33 726.17 671.49 726.94 670.63 727.7 669.76 728.47 668.87 729.22 667.98 729.98 667.07 730.72 666.15 731.47 665.21 732.21 664.27 732.95 663.3 733.68 662.33 734.41 661.33 735.12 660.34 735.84 659.31 736.54 658.28 737.25 657.23 737.94 656.17 738.63 655.09 739.31 654 739.99 652.88 740.65 651.76 741.31 650.61 741.95 649.46 742.6 648.28 743.22 647.09 743.85 645.88 744.45 644.66 745.06 643.41 745.65 642.17 746.23 640.89 746.8 639.62 747.36 638.32 747.9 637.02 748.45 635.71 748.96 634.4 749.48 633.07 749.97 631.77 750.46 630.47 750.92 629.18 751.38 627.88 751.81 626.58 752.24 625.26 752.65 623.94 753.05 622.57 753.44 621.17 753.83 619.69 754.19 618.18 754.56 616.64 754.91 615.1 755.26 613.52 755.57 611.94 755.89 610.34 756.19 608.73 756.48 607.1 756.74 605.47 757 603.8 757.25 602.14 757.48 600.45 757.69 598.76 757.84 597.04 757.97 595.32 758.09 593.57 758.25 593.57 758.25 593.57 758.25 593.57 758.25 593.57 758.25M590.78 721.56Q592.11 721.49 593.38 721.38 594.66 721.26 595.88 721.1 597.1 720.94 598.26 720.73 599.42 720.53 600.53 720.28 601.64 720.03 602.69 719.74 603.74 719.46 604.74 719.12 605.74 718.79 606.69 718.42 607.63 718.05 608.52 717.64 609.41 717.23 610.25 716.75 611.09 716.28 611.88 715.74 612.67 715.2 613.41 714.6 614.16 714 614.85 713.34 615.54 712.69 616.19 711.96 616.83 711.25 617.43 710.47 618.03 709.69 618.58 708.85 619.12 708.01 619.62 707.12 619.62 707.12 619.62 707.12 620.1 706.35 620.55 705.53 621 704.71 621.42 703.83 621.83 702.96 622.22 702.03 622.6 701.11 622.95 700.13 623.31 699.15 623.63 698.12 623.95 697.09 624.24 696.01 624.53 694.93 624.78 693.8 625.04 692.66 625.27 691.48 625.49 690.3 625.69 689.06 625.88 687.83 626.04 686.54 626.2 685.25 626.33 683.91 626.46 682.57 626.56 681.18 626.61 680.49 626.65 679.78 626.69 679.07 626.73 678.35 626.76 677.62 626.78 676.89 626.81 676.15 626.82 675.41 626.84 674.66 626.85 673.9 626.86 673.13 626.86 672.36 626.86 671.59 626.85 670.8 626.84 670.01 626.83 669.21 626.83 669.21 626.83 669.21 626.81 668.42 626.79 667.65 626.77 666.88 626.74 666.12 626.71 665.37 626.67 664.62 626.63 663.88 626.58 663.15 626.54 662.42 626.48 661.7 626.43 660.99 626.37 660.28 626.31 659.58 626.24 658.89 626.17 658.2 626.09 657.52 625.94 656.17 625.75 654.87 625.57 653.57 625.35 652.32 625.13 651.07 624.89 649.87 624.64 648.67 624.36 647.53 624.08 646.38 623.78 645.28 623.47 644.18 623.13 643.14 622.79 642.09 622.42 641.09 622.05 640.1 621.64 639.15 621.24 638.2 620.81 637.3 620.38 636.41 619.92 635.56 619.46 634.71 618.96 633.91 618.47 633.11 617.95 632.37 617.95 632.37 617.95 632.37 617.42 631.6 616.85 630.87 616.27 630.14 615.65 629.45 615.02 628.76 614.34 628.11 613.67 627.45 612.94 626.83 612.21 626.21 611.43 625.64 610.65 625.05 609.82 624.51 608.98 623.97 608.1 623.46 607.22 622.96 606.28 622.49 605.35 622.02 604.36 621.59 603.38 621.16 602.34 620.77 601.31 620.37 600.22 620.02 599.13 619.67 597.99 619.35 596.85 619.04 595.66 618.76 594.47 618.49 593.23 618.25 591.99 618.01 590.7 617.82 589.4 617.62 588.06 617.47 588.06 617.47 588.06 617.47 587.05 617.38 586.03 617.31 585.02 617.24 583.99 617.19 582.97 617.14 581.93 617.11 580.9 617.08 579.86 617.07 578.82 617.06 577.77 617.07 576.72 617.08 575.66 617.11 574.6 617.14 573.53 617.2 572.46 617.25 571.39 617.32 570.31 617.39 569.33 617.49 568.36 617.58 567.48 617.71 565.72 617.95 564.36 618.3 563 618.64 562.04 619.09 561.08 619.54 560.51 620.09 560.51 620.09 560.51 620.09 559.95 620.56 559.42 621.19 558.88 621.82 558.39 622.59 557.89 623.37 557.43 624.3 556.97 625.24 556.55 626.32 556.12 627.41 555.73 628.65 555.34 629.89 554.99 631.28 554.81 631.98 554.65 632.72 554.48 633.46 554.32 634.23 554.16 635.01 554.01 635.82 553.86 636.64 553.72 637.49 553.58 638.34 553.45 639.21 553.31 640.07 553.19 640.95 553.07 641.83 552.96 642.72 552.85 643.61 552.75 644.51 552.65 645.41 552.56 646.32 552.47 647.24 552.38 648.16 552.3 649.08 552.23 650.02 552.16 650.96 552.1 651.9 552.04 652.85 551.99 653.81 551.94 654.77 551.9 655.74 551.86 656.71 551.83 657.69 551.8 658.68 551.79 659.67 551.77 660.66 551.76 661.67 551.75 662.67 551.75 663.69 551.75 664.71 551.77 665.73 551.78 666.76 551.8 667.8 551.8 667.8 551.8 667.8 551.82 668.61 551.85 669.4 551.87 670.2 551.9 670.98 551.96 672.55 552.05 674.06 552.14 675.57 552.25 677.03 552.36 678.49 552.49 679.9 552.63 681.31 552.78 682.66 552.94 684.01 553.13 685.31 553.31 686.61 553.52 687.86 553.73 689.11 553.96 690.3 554.19 691.5 554.44 692.63 554.7 693.77 554.98 694.86 555.26 695.94 555.56 696.97 555.86 698 556.18 698.98 556.51 699.95 556.86 700.88 557.21 701.8 557.58 702.66 557.95 703.53 558.34 704.34 558.73 705.15 559.15 705.9 559.15 705.9 559.15 705.9 559.72 707.02 560.35 708.06 560.97 709.1 561.65 710.06 562.33 711.02 563.06 711.89 563.78 712.77 564.56 713.56 565.34 714.35 566.17 715.06 566.99 715.76 567.87 716.39 568.75 717.01 569.67 717.55 570.6 718.09 571.58 718.54 572.55 718.99 573.59 719.38 574.62 719.77 575.71 720.09 576.79 720.41 577.94 720.67 579.08 720.92 580.28 721.11 581.48 721.3 582.74 721.43 584 721.55 585.31 721.6 586.62 721.66 587.99 721.65 589.36 721.64 590.78 721.56 590.78 721.56 590.78 721.56 590.78 721.56 590.78 721.56M770.79 663.73Q770.51 664.79 770.24 665.85 769.96 666.91 769.68 667.97 769.41 669.04 769.13 670.1 768.85 671.16 768.57 672.22 768.29 673.28 768.01 674.35 767.72 675.41 767.44 676.47 767.15 677.53 766.87 678.6 766.58 679.66 766.29 680.72 766.09 681.5 765.89 682.29 765.69 683.07 765.49 683.85 765.29 684.63 765.08 685.42 764.88 686.2 764.67 686.98 764.46 687.76 764.25 688.54 764.05 689.33 763.83 690.11 763.62 690.89 763.41 691.67 763.2 692.45 762.98 693.23 762.76 694.01 762.55 694.79 762.33 695.57 762.11 696.35 761.88 697.14 761.66 697.92 761.44 698.7 761.21 699.47 760.98 700.25 760.75 701.03 760.52 701.81 760.29 702.59 760.05 703.37 759.82 704.15 759.58 704.93 759.34 705.7 759.1 706.48 758.86 707.26 758.61 708.03 758.37 708.81 758.12 709.59 757.87 710.36 757.61 711.13 757.36 711.91 757.1 712.68 756.84 713.46 756.58 714.23 756.32 715 756.06 715.77 755.79 716.54 755.52 717.31 755.25 718.08 754.98 718.84 754.7 719.61 754.42 720.38 754.14 721.14 753.86 721.9 753.57 722.67 753.28 723.43 752.99 724.18 752.7 724.94 752.4 725.7 752.1 726.45 751.8 727.2 751.49 727.95 751.18 728.7 750.87 729.44 750.6 730.08 749.97 730.26 749.33 730.44 748.7 730.62 748.07 730.8 747.45 730.97 746.91 731.12 746.38 731.27 745.84 731.42 745.3 731.56 744.77 731.71 744.23 731.86 743.7 732.01 743.16 732.15 742.62 732.3 742.06 732.46 741.43 732.63 740.8 732.79 740.16 732.96 739.53 733.13 738.89 733.3 738.26 733.47 737.63 733.64 736.99 733.81 736.36 733.98 735.73 734.15 735.09 734.31 734.46 734.47 733.82 734.64 733.19 734.8 732.56 734.97 731.92 735.13 731.29 735.29 730.65 735.46 730.02 735.62 729.39 735.78 728.75 735.94 728.12 736.1 727.49 736.25 726.85 736.41 726.22 736.57 725.58 736.73 724.95 736.88 724.32 737.04 723.68 737.2 723.11 737.34 722.57 737.47 722.03 737.6 721.49 737.73 720.96 737.86 720.42 737.99 719.88 738.12 719.34 738.25 718.8 738.38 718.26 738.51 717.65 738.65 717.01 738.8 716.38 738.95 715.74 739.09 715.11 739.24 714.48 739.39 713.84 739.54 713.21 739.69 712.58 739.84 711.98 739.99 712.09 739 712.25 737.9 712.42 736.8 712.59 735.7 712.75 734.59 712.92 733.49 713.09 732.39 713.25 731.29 713.42 730.19 713.59 729.09 713.75 727.98 713.92 726.88 714.09 725.78 714.25 724.68 714.42 723.58 714.59 722.47 714.76 721.37 714.92 720.27 715.09 719.17 715.26 718.07 715.42 716.97 715.59 715.86 715.76 714.76 715.92 713.66 716.09 712.56 716.2 711.46 716.2 710.35 716.2 709.25 716.2 708.15 716.2 707.05 716.2 705.95 716.2 704.85 716.2 703.74 716.2 702.64 716.2 701.54 716.2 700.44 716.2 699.34 716.2 698.23 716.2 697.13 716.2 696.03 716.2 694.93 716.2 693.83 716.2 692.73 716.2 691.62 716.21 690.52 716.21 689.42 716.21 688.32 716.21 687.22 716.21 686.12 716.21 685.01 716.21 683.91 716.21 682.81 716.21 681.71 716.21 680.61 716.21 679.5 716.21 678.4 716.21 677.3 716.21 676.2 716.21 675.1 716.21 674 716.21 672.89 716.21 671.79 716.21 670.69 716.21 669.59 716.21 668.49 716.21 667.38 716.21 666.28 716.21 665.18 716.21 664.08 716.21 662.98 716.21 661.88 716.21 660.77 716.21 659.67 716.21 658.57 716.21 657.47 716.21 656.37 716.21 655.26 716.21 654.16 716.21 653.06 716.21 651.96 716.21 650.86 716.21 649.76 716.21 648.65 716.21 647.55 716.21 646.45 716.21 645.35 716.21 644.25 716.21 643.15 716.21 642.04 716.21 640.94 716.21 639.84 716.21 638.74 716.21 637.64 716.21 636.53 716.21 635.43 716.22 634.33 716.22 633.23 716.22 632.13 716.22 631.03 716.22 629.92 716.22 628.82 716.22 627.72 716.22 626.62 716.22 625.52 716.22 624.41 716.22 623.31 716.22 622.21 716.22 621.11 716.22 620.01 716.22 618.91 716.22 617.8 716.22 616.7 716.22 615.6 716.22 614.5 716.22 613.4 716.22 612.29 716.22 611.19 716.22 610.09 716.22 608.99 716.22 607.89 716.22 606.79 716.22 605.68 716.22 604.58 716.22 603.48 716.22 602.38 716.22 601.28 716.22 600.17 716.23 599.07 717.31 599.16 718.41 599.25 719.5 599.34 720.59 599.44 721.68 599.53 722.78 599.62 723.87 599.71 724.96 599.8 726.05 599.93 727.13 600.1 728.21 600.27 729.3 600.43 730.38 600.6 731.46 600.77 732.54 600.94 733.63 601.1 734.71 601.27 735.79 601.41 736.88 601.55 737.97 601.69 739.05 601.83 740.14 601.97 741.23 602.11 742.31 602.25 743.4 602.39 744.49 602.52 745.58 602.63 746.67 602.74 747.76 602.85 748.85 602.96 749.94 603.07 751.03 603.17 752.12 603.28 753.21 603.4 754.29 603.56 755.38 603.72 756.46 603.89 757.55 604.06 758.63 604.22 759.71 604.39 760.8 604.56 761.88 604.72 762.97 604.86 764.06 604.97 765.15 605.07 766.24 605.17 767.33 605.28 768.42 605.38 769.52 605.48 770.61 605.59 771.7 605.69 772.79 605.82 773.87 605.95 774.96 606.08 776.05 606.22 777.14 606.35 778.23 606.48 779.31 606.62 780.4 606.75 781.49 606.89 782.57 607.06 783.66 607.22 784.74 607.39 785.83 607.55 786.54 608.44 787.26 609.32 787.97 610.19 788.69 611.06 789.41 611.93 790.13 612.79 790.84 613.64 791.56 614.5 792.28 615.35 792.99 616.19 793.7 617.04 794.42 617.89 795.12 618.73 795.83 619.58 796.54 620.42 797.24 621.26 797.94 622.1 798.64 622.94 799.33 623.78 800.02 624.62 800.71 625.46 801.39 626.29 802.07 627.12 802.75 627.95 803.42 628.78 804.08 629.61 804.75 630.43 805.41 631.25 806.06 632.07 806.71 632.88 807.36 633.69 808 634.5 808.63 635.31 809.26 636.11 809.89 636.91 810.51 637.7 811.12 638.49 811.73 639.28 812.33 640.07 812.93 640.85 813.52 641.63 814.1 642.4 814.68 643.17 815.25 643.93 815.81 644.69 816.37 645.45 816.93 646.2 817.47 646.95 818.01 647.7 818.54 648.44 819.06 649.17 819.58 649.9 820.09 650.63 820.59 651.35 821.09 652.07 821.58 652.78 822.06 653.49 822.53 654.19 823 654.89 823.45 655.59 823.9 656.28 824.35 656.96 824.78 657.64 825.21 658.31 825.59 658.91 825.95 659.49 826.31 660.06 826.65 660.62 826.98 661.18 827.29 661.72 827.59 662.26 827.88 662.78 828.16 663.3 828.42 663.81 828.68 664.31 828.92 664.8 829.16 665.29 829.37 665.76 829.58 666.23 829.78 666.68 829.97 667.14 830.15 667.58 830.32 668.01 830.47 668.44 830.62 668.86 830.76 669.27 830.89 669.68 831.01 670.07 831.12 670.47 831.22 670.85 831.32 671.23 831.4 671.6 831.48 671.96 831.54 672.32 831.61 672.67 831.66 673.01 831.66 673.01 831.66 673.01 832.13 673 832.61 672.99 833.05 672.51 833.48 672.03 833.91 671.55 834.33 671.07 834.76 670.59 835.19 670.11 835.62 669.63 836.05 669.15 836.47 668.66 836.9 668.18 837.32 667.7 837.75 667.21 838.17 666.73 838.59 666.24 839.01 665.76 839.43 665.27 839.85 664.79 840.27 664.3 840.69 663.81 841.11 663.32 841.53 662.84 841.94 662.35 842.36 661.86 842.77 661.37 843.18 660.88 843.59 660.38 844.01 659.89 844.42 659.4 844.82 658.9 845.23 658.41 845.64 657.91 846.04 657.42 846.51 656.85 846.97 656.28 847.43 655.71 847.88 655.14 848.34 654.56 848.79 653.99 849.25 653.41 849.7 652.84 850.15 652.26 850.59 651.68 851.04 651.1 851.48 650.52 851.92 649.94 852.36 649.36 852.79 648.78 853.23 648.19 853.66 647.6 854.09 647.02 854.51 646.43 854.94 645.84 855.36 645.25 855.78 644.66 856.19 644.06 856.61 643.47 857.02 642.87 857.43 642.27 857.83 641.67 858.23 641.07 858.63 640.47 859.03 639.87 859.42 639.27 859.81 638.66 860.2 638.05 860.58 637.44 860.97 636.83 861.34 636.22 861.72 635.61 862.09 635 862.46 634.38 862.82 633.76 863.18 633.15 863.54 632.52 863.89 631.9 864.25 631.28 864.59 630.66 864.94 630.03 865.28 629.4 865.62 628.77 865.95 628.14 866.29 627.51 866.62 626.88 866.94 626.24 867.27 625.61 867.59 624.97 867.91 624.33 868.22 623.69 868.54 623.05 868.85 622.4 869.15 621.76 869.46 621.11 869.76 620.46 870.07 619.81 870.37 619.16 870.66 618.5 871.73 618.64 872.8 618.77 873.87 618.9 874.94 619.05 876.01 619.19 877.07 619.33 878.14 619.47 879.21 619.61 880.28 619.75 881.35 619.89 882.41 620.04 883.48 620.18 884.55 620.32 885.62 620.46 886.69 620.6 887.76 620.74 888.82 620.88 889.89 621.02 890.96 621.16 892.03 621.3 893.1 621.43 894.17 621.57 895.24 621.7 896.3 621.83 897.37 621.97 898.44 622.1 899.51 622.23 900.58 622.37 901.65 622.5 902.72 622.64 903.79 622.77 904.86 622.9 905.93 623.04 907 623.17 908.06 623.3 909.13 623.44 910.2 623.57 911.27 623.7 912.34 623.84 913.41 623.97 914.48 624.11 915.55 624.24 916.62 624.37 917.69 624.51 918.76 624.64 919.83 624.77 920.9 624.9 921.97 625.03 923.04 625.16 924.11 625.29 925.18 625.41 926.25 625.54 927.32 625.67 928.39 625.8 929.46 625.92 930.53 626.05 931.61 626.18 932.68 626.3 933.75 626.43 934.82 626.56 935.89 626.68 936.96 626.81 938.04 626.93 938.96 627.08 939.56 628.05 940.21 629.05 940.87 630.06 941.52 631.06 942.18 632.07 942.47 633.01 941.62 633.76 940.77 634.5 939.92 635.25 939.07 635.99 938.22 636.74 937.42 637.42 936.71 638.02 936 638.62 935.28 639.22 934.57 639.81 933.86 640.41 933.04 641.08 932.16 641.79 931.27 642.5 930.39 643.22 929.5 643.93 928.62 644.64 927.86 645.24 927.13 645.8 926.41 646.36 925.68 646.93 924.96 647.49 924.23 648.05 923.33 648.73 922.42 649.41 921.51 650.09 920.6 650.78 919.69 651.46 918.77 652.14 917.85 652.81 916.92 653.47 915.99 654.14 915.07 654.81 914.14 655.48 913.27 656.09 912.54 656.61 911.8 657.12 911.06 657.63 910.32 658.15 909.58 658.66 908.74 659.24 907.79 659.88 906.84 660.52 905.89 661.15 904.95 661.79 904 662.43 903.12 663.01 902.27 663.56 901.41 664.12 900.56 664.67 899.71 665.22 898.86 665.78 898.01 666.32 897.15 666.86 896.29 667.4 895.44 667.94 894.58 668.47 893.72 669.02 892.74 669.61 891.76 670.21 890.79 670.8 889.81 671.4 888.83 671.99 887.88 672.57 887.01 673.08 886.15 673.59 885.28 674.1 884.41 674.61 883.55 675.12 882.68 675.63 881.81 676.13 880.94 676.62 880.07 677.12 879.2 677.62 878.33 678.12 877.38 678.65 876.38 679.2 875.38 679.76 874.38 680.31 873.37 680.87 872.37 681.42 871.47 681.91 870.59 682.38 869.71 682.85 868.83 683.33 867.96 683.8 867.08 684.27 866.2 684.73 865.32 685.19 864.44 685.64 863.56 686.1 862.68 686.56 861.78 687.03 860.76 687.55 859.74 688.06 858.72 688.58 857.7 689.09 856.68 689.61 855.7 690.1 854.82 690.53 853.93 690.97 853.05 691.4 852.16 691.83 851.27 692.27 850.31 692.73 849.28 693.22 848.25 693.71 847.22 694.2 846.19 694.69 845.16 695.18 844.23 695.62 843.34 696.03 842.45 696.44 841.56 696.85 840.67 697.26 839.77 697.67 838.75 698.13 837.71 698.6 836.67 699.06 835.64 699.53 834.6 700 833.63 700.37 833.22 700.61 832.69 700.84 832.16 701.07 831.62 701.3 831.09 701.53 830.55 701.77 830.01 702 829.48 702.23 828.94 702.46 828.41 702.7 827.87 702.92 827.33 703.15 826.8 703.38 826.26 703.6 825.72 703.83 825.19 704.06 824.65 704.28 824.11 704.51 823.58 704.74 822.99 704.98 822.36 705.24 821.73 705.5 821.1 705.76 820.47 706.01 819.84 706.27 819.21 706.53 818.58 706.79 817.95 707.05 817.32 707.31 816.69 707.56 816.06 707.81 815.42 708.06 814.79 708.32 814.16 708.57 813.53 708.82 812.89 709.07 812.26 709.32 811.63 709.57 811.01 709.82 810.47 710.03 809.93 710.24 809.39 710.44 808.85 710.65 808.31 710.86 807.77 711.07 807.23 711.28 806.69 711.48 806.15 711.69 805.57 711.91 804.94 712.15 804.3 712.39 803.67 712.63 803.03 712.87 802.39 713.1 801.76 713.34 801.12 713.58 800.49 713.82 799.85 714.06 799.28 714.27 798.74 714.46 798.2 714.66 797.66 714.86 797.12 715.05 796.58 715.25 796.46 714.83 796.38 714.34 796.27 713.84 796.15 713.35 796.04 712.85 795.92 712.36 795.81 711.86 795.7 711.35 795.59 710.85 795.48 710.34 795.37 709.83 795.26 709.32 795.15 708.8 795.03 708.29 794.91 707.77 794.79 707.25 794.66 706.73 794.52 706.2 794.39 705.67 794.25 705.14 794.1 704.61 793.95 704.07 793.79 703.53 793.63 702.99 793.47 702.44 793.29 701.89 793.12 701.34 792.93 700.78 792.74 700.22 792.55 699.66 792.35 699.09 792.14 698.51 791.93 697.94 791.71 697.36 791.48 696.77 791.25 696.18 791.01 695.59 790.76 694.99 790.51 694.39 790.25 693.78 789.98 693.17 789.71 692.55 789.43 691.93 789.14 691.3 788.84 690.67 788.53 690.04 788.22 689.39 787.9 688.75 787.57 688.1 787.24 687.44 786.89 686.78 786.54 686.12 786.18 685.45 785.81 684.77 785.44 684.09 785.05 683.4 784.66 682.71 784.26 682.02 783.85 681.31 783.43 680.61 783.01 679.9 782.57 679.18 782.13 678.46 781.68 677.73 781.41 677.32 781.14 676.91 780.87 676.49 780.59 676.07 780.31 675.65 780.03 675.23 779.74 674.81 779.46 674.38 779.17 673.96 778.87 673.53 778.58 673.1 778.28 672.67 777.98 672.24 777.68 671.8 777.37 671.37 777.06 670.93 776.75 670.49 776.44 670.05 776.12 669.61 775.8 669.17 775.48 668.72 775.16 668.27 774.83 667.83 774.5 667.38 774.17 666.93 773.84 666.47 773.5 666.02 773.16 665.56 772.82 665.11 772.47 664.65 772.13 664.19 771.78 663.73 771.28 663.73 770.79 663.73 770.79 663.73 770.79 663.73"></path></svg>