<svg xmlns="http://www.w3.org/2000/svg" data-media-id="WZRmLaBpPg2" style="visibility: visible" viewBox="12.127727508544922 236.427490234375 998.4622802734375 525.23583984375" width="1003.4622802734375px" height="530.23583984375px">
        <defs>
            <linearGradient id="sampleGradient" gradientTransform="rotate(1)" x1="0%" y1="50%" x2="100%" y2="50%" gradientUnits="userSpaceOnUse">
                <stop offset="0%" id="first_color" stop-color="#6b6fff"></stop>
                <stop offset="100%" id="second_color" stop-color="#bc91c1"></stop>
            </linearGradient>
        </defs>
    <path fill="#41badf" d="M74.29 375.43Q74.29 375.43 74.29 375.43 73.62 376.06 72.99 376.68 72.37 377.31 71.8 377.93 71.23 378.55 70.7 379.15 70.18 379.76 69.69 380.36 69.21 380.95 68.77 381.54 68.34 382.14 67.96 382.72 67.58 383.31 67.24 383.88 66.9 384.46 66.6 385.02 66.31 385.59 66.07 386.16 65.83 386.72 65.63 387.28 65.43 387.84 65.28 388.39 65.14 388.95 65.03 389.5 64.93 390.05 64.87 390.6 64.82 391.15 64.8 391.7 64.79 392.25 64.83 392.79 64.86 393.34 64.94 393.89 65.02 394.44 65.15 394.99 65.27 395.55 65.44 396.1 65.61 396.67 65.82 397.22 66.03 397.79 66.29 398.35 66.55 398.92 66.86 399.49 67.17 400.06 67.53 400.62 67.89 401.19 68.3 401.75 68.73 402.31 69.2 402.86 69.68 403.41 70.22 403.95 70.77 404.49 71.38 405.01 72 405.54 72.68 406.05 73.37 406.55 74.11 407.04 74.87 407.53 75.68 408.01 76.51 408.48 77.39 408.94 78.28 409.4 79.23 409.84 80.19 410.28 81.2 410.7 81.2 410.7 81.2 410.7 82.16 411.08 83.15 411.44 84.15 411.8 85.18 412.14 86.22 412.48 87.3 412.81 88.37 413.14 89.48 413.46 90.6 413.79 91.74 414.11 92.89 414.44 94.07 414.75 95.25 415.07 96.46 415.37 97.67 415.68 98.92 415.97 100.16 416.26 101.44 416.54 102.72 416.81 104.03 417.05 105.34 417.25 106.68 417.4 108.03 417.53 109.4 417.64 110.78 417.75 112.19 417.84 113.59 417.93 115.02 418.11 116.46 418.26 117.93 418.37 119.4 418.49 120.89 418.63 120.89 418.63 120.89 418.63 122.04 418.74 123.17 418.86 124.3 419 125.41 419.15 126.54 419.25 127.65 419.34 128.77 419.42 129.87 419.49 130.97 419.55 132.06 419.6 133.15 419.66 134.23 419.69 135.31 419.73 136.37 419.75 137.43 419.76 138.48 419.76 139.53 419.76 140.57 419.73 141.61 419.67 142.63 419.58 143.66 419.47 144.67 419.34 145.68 419.22 146.68 419.08 147.68 418.94 148.66 418.8 149.64 418.66 150.61 418.53 151.57 418.4 152.52 418.26 153.47 418.13 154.4 417.99 155.33 417.85 156.25 417.7 157.16 417.55 158.06 417.38 158.95 417.21 159.83 417.02 160.71 416.84 161.57 416.63 162.43 416.43 163.27 416.21 164.11 415.98 164.93 415.74 165.75 415.49 166.55 415.23 167.34 414.96 168.12 414.67 168.89 414.38 169.65 414.07 170.4 413.75 171.12 413.42 171.85 413.07 172.55 412.71 173.25 412.35 173.93 411.96 174.6 411.57 175.25 411.15 175.9 410.74 176.52 410.3 177.14 409.85 177.74 409.39 178.34 408.92 178.92 408.43 178.92 408.43 178.92 408.43 179.69 407.73 180.41 407.02 181.13 406.29 181.79 405.54 182.45 404.79 183.06 404.02 183.66 403.24 184.22 402.44 184.77 401.64 185.28 400.82 185.78 399.99 186.24 399.15 186.7 398.31 187.11 397.44 187.52 396.58 187.75 395.71 187.75 395.71 187.75 395.71 186.93 395.51 185.98 395.31 185.02 395.11 184.06 394.91 183.1 394.71 182.13 394.51 181.17 394.31 180.2 394.1 179.65 395.09 179.05 396.04 178.45 396.99 177.8 397.89 177.14 398.78 176.43 399.63 175.72 400.48 174.95 401.27 174.17 402.07 173.34 402.81 172.49 403.55 171.6 404.24 170.69 404.92 169.73 405.56 168.76 406.18 167.73 406.76 166.69 407.33 165.59 407.85 164.49 408.37 163.33 408.84 162.16 409.3 160.93 409.72 159.7 410.13 158.41 410.49 157.11 410.86 155.76 411.18 154.41 411.5 153 411.78 151.59 412.06 150.13 412.3 148.66 412.54 147.14 412.74 147.14 412.74 147.14 412.74 145.96 412.9 144.78 413.02 143.6 413.15 142.43 413.24 141.26 413.33 140.09 413.39 138.92 413.44 137.76 413.47 136.59 413.49 135.44 413.48 134.28 413.47 133.13 413.42 131.98 413.38 130.84 413.31 129.7 413.24 128.57 413.14 128.57 413.14 128.57 413.14 127.06 413.01 125.64 412.84 124.22 412.67 122.88 412.46 121.54 412.25 120.28 412 119.02 411.76 117.84 411.47 116.67 411.18 115.58 410.86 114.49 410.53 113.49 410.16 112.49 409.79 111.57 409.37 110.66 408.95 109.84 408.49 109.01 408.02 108.28 407.51 107.55 407.01 106.9 406.45 106.26 405.9 105.71 405.31 105.16 404.72 104.7 404.09 104.25 403.45 103.88 402.78 103.52 402.11 103.24 401.39 102.98 400.68 102.8 399.93 102.62 399.18 102.53 398.39 102.53 398.39 102.53 398.39 102.47 397.8 102.44 397.19 102.42 396.59 102.44 395.95 102.46 395.32 102.52 394.66 102.58 394.01 102.68 393.33 102.78 392.65 102.92 391.95 103.06 391.25 103.24 390.52 103.42 389.8 103.64 389.05 103.86 388.31 104.12 387.54 104.38 386.77 104.68 385.98 104.97 385.2 105.31 384.38 105.64 383.58 106.01 382.74 106.39 381.91 106.8 381.05 107.2 380.2 107.65 379.32 108.09 378.45 108.58 377.54 109.06 376.65 109.57 375.72 109.83 375.26 110.1 374.79 110.36 374.32 110.64 373.85 110.64 373.85 110.64 373.85 110.91 373.37 111.19 372.91 111.46 372.44 111.74 371.98 112.28 371.06 112.83 370.16 113.38 369.26 113.93 368.38 114.47 367.51 115.02 366.66 115.56 365.8 116.1 364.97 116.64 364.14 117.18 363.33 117.71 362.52 118.25 361.73 118.78 360.94 119.3 360.16 119.83 359.39 120.35 358.64 120.87 357.88 121.38 357.14 121.89 356.41 122.4 355.68 122.91 354.96 123.41 354.26 123.9 353.55 124.39 352.86 124.88 352.17 125.37 351.5 125.85 350.82 126.32 350.16 126.79 349.5 127.26 348.86 127.72 348.21 128.18 347.58 128.64 346.95 129.09 346.34 129.54 345.72 129.98 345.12 130.42 344.52 130.85 343.94 131.28 343.35 131.71 342.79 132.13 342.22 132.55 341.66 133.39 340.55 134.2 339.52 135.01 338.48 135.81 337.51 136.59 336.54 137.37 335.65 138.15 334.76 138.91 333.95 139.67 333.14 140.43 332.41 140.43 332.41 140.43 332.41 141.33 331.56 142.25 330.79 143.17 330.02 144.12 329.33 145.07 328.64 146.05 328.03 146.54 327.73 147.04 327.44 147.54 327.16 148.04 326.9 148.04 326.9 148.04 326.9 148.55 326.64 149.03 326.43 149.5 326.22 149.94 326.05 150.83 325.73 151.59 325.6 152.35 325.47 152.98 325.53 153.62 325.6 154.13 325.86 154.65 326.13 155.04 326.6 155.45 327.07 155.73 327.74 156.02 328.41 156.18 329.28 156.36 330.15 156.41 331.22 156.41 331.22 156.41 331.22 156.44 331.64 156.45 332.21 156.46 332.79 156.47 333.52 156.48 334.25 156.48 335.13 156.48 336.02 156.47 337.07 156.47 337.07 156.47 337.07 156.45 337.71 156.45 338.32 156.45 338.93 156.46 339.5 156.5 340.66 156.59 341.69 156.7 342.72 156.86 343.62 157.03 344.53 157.26 345.31 157.5 346.09 157.8 346.74 158.11 347.4 158.48 347.93 158.86 348.46 159.3 348.86 159.74 349.27 160.25 349.54 160.25 349.54 160.25 349.54 161.04 349.96 162.02 350.21 163 350.46 164.16 350.53 164.74 350.57 165.37 350.56 166 350.56 166.67 350.51 167.35 350.46 168.07 350.37 168.79 350.27 169.55 350.14 169.55 350.14 169.55 350.14 170.37 349.99 171.14 349.81 171.93 349.64 172.67 349.43 173.42 349.23 174.12 349 174.83 348.76 175.51 348.49 176.85 347.96 178.05 347.3 179.24 346.64 180.28 345.85 181.32 345.06 182.2 344.14 183.08 343.22 183.8 342.16 184.52 341.1 185.08 339.91 185.64 338.72 186.03 337.4 186.03 337.4 186.03 337.4 186.3 336.29 186.43 335.2 186.56 334.12 186.56 333.06 186.56 333.06 186.56 333.06 186.56 332.33 186.5 331.62 186.44 330.91 186.32 330.22 186.19 329.53 185.99 328.86 185.77 328.2 185.48 327.55 185.19 326.91 184.84 326.29 184.5 325.67 184.1 325.08 183.7 324.48 183.26 323.91 182.82 323.35 182.34 322.81 181.86 322.27 181.34 321.76 180.83 321.25 180.28 320.77 179.74 320.3 179.16 319.85 178.6 319.42 178 319.01 177.42 318.61 176.81 318.25 176.21 317.89 175.59 317.57 174.98 317.25 174.34 316.97 173.72 316.7 173.08 316.46 173.08 316.46 173.08 316.46 172.45 316.25 171.82 316.09 171.2 315.94 170.57 315.83 169.95 315.72 169.31 315.65 168.68 315.59 168.03 315.57 167.39 315.56 166.73 315.58 166.08 315.61 165.41 315.68 164.74 315.76 164.05 315.87 163.37 315.98 162.66 316.14 161.96 316.29 161.23 316.49 160.51 316.69 159.77 316.93 159.03 317.17 158.27 317.45 157.5 317.72 156.72 318.04 155.94 318.37 155.13 318.73 154.33 319.09 153.5 319.49 152.67 319.89 151.82 320.32 150.97 320.77 150.1 321.25 150.1 321.25 150.1 321.25 149.5 321.58 148.91 321.92 148.32 322.26 147.74 322.6 147.15 322.95 146.56 323.31 145.98 323.67 145.4 324.05 144.82 324.42 144.24 324.81 143.67 325.19 143.09 325.59 142.51 325.98 141.94 326.39 141.37 326.79 140.79 327.21 140.22 327.63 139.65 328.05 139.08 328.48 138.52 328.92 137.95 329.36 137.38 329.81 136.81 330.25 136.25 330.71 135.68 331.16 135.11 331.63 134.55 332.09 133.98 332.57 133.41 333.04 132.85 333.52 132.28 334 131.71 334.49 131.14 334.98 130.57 335.48 130 335.97 129.43 336.47 128.85 336.98 128.28 337.48 127.7 337.99 127.12 338.5 126.54 339.02 125.95 339.53 125.37 340.05 124.78 340.57 124.18 341.08 123.59 341.61 122.99 342.12 122.38 342.65 121.77 343.16 121.16 343.69 120.54 344.2 119.92 344.72 119.29 345.24 118.65 345.76 118.01 346.27 117.36 346.78 116.7 347.29 116.04 347.79 115.37 348.3 114.69 348.8 114.01 349.29 113.32 349.79 112.62 350.27 111.91 350.76 111.91 350.76 111.91 350.76 111.27 351.19 110.63 351.62 109.98 352.04 109.34 352.45 108.69 352.87 108.04 353.27 107.39 353.67 106.74 354.07 106.09 354.47 105.44 354.86 104.78 355.24 104.13 355.63 103.48 356.01 102.83 356.39 102.18 356.76 101.53 357.14 100.87 357.51 100.23 357.88 99.58 358.25 98.94 358.62 98.29 358.98 97.65 359.35 97.01 359.71 96.37 360.07 95.74 360.43 95.11 360.8 94.48 361.16 93.86 361.52 93.23 361.88 92.62 362.25 92 362.61 91.39 362.98 90.78 363.34 90.18 363.7 89.57 364.07 88.98 364.44 88.39 364.8 87.8 365.17 87.22 365.54 86.64 365.92 86.07 366.29 85.5 366.67 84.93 367.04 84.38 367.42 83.82 367.8 83.27 368.18 82.72 368.56 82.18 368.95 81.64 369.33 81.12 369.73 80.59 370.12 80.08 370.51 79.56 370.91 79.06 371.31 78.55 371.71 78.05 372.11 77.56 372.51 77.07 372.91 76.59 373.33 76.12 373.74 75.65 374.16 75.19 374.58 74.73 375 74.29 375.43 74.29 375.43 74.29 375.43M287.41 429.81Q287.41 429.81 287.41 429.81 285.8 429.56 284.2 429.3 282.59 429.05 280.98 428.8 279.37 428.56 277.76 428.33 276.15 428.1 274.53 427.88 272.92 427.66 271.31 427.45 269.69 427.23 268.08 427.01 266.47 426.79 264.86 426.56 263.25 426.33 261.64 426.1 261.62 424.89 261.61 423.69 261.59 422.48 261.57 421.28 261.56 420.08 261.54 418.87 261.53 417.67 261.51 416.47 261.5 415.27 261.48 414.07 261.47 412.87 261.45 411.67 261.44 410.46 261.42 409.26 261.41 408.06 261.39 406.86 261.38 405.66 261.36 404.45 261.35 403.25 261.33 402.05 261.32 400.85 261.31 399.64 261.29 398.44 261.28 397.24 261.27 396.03 261.26 394.83 261.24 393.62 261.23 392.42 261.22 391.21 261.21 390.01 261.2 388.8 261.18 387.59 261.17 386.39 261.16 385.18 261.15 383.97 261.14 382.76 261.13 381.56 261.12 380.35 261.11 379.14 261.1 377.93 261.09 376.72 261.08 375.51 261.07 374.3 261.06 373.09 261.05 371.88 261.04 370.67 261.03 369.45 261.02 368.24 261.01 367.03 261.01 365.82 261 364.6 260.99 363.39 260.98 362.17 260.97 360.96 260.96 359.74 260.95 358.53 260.95 357.31 260.94 356.09 260.93 354.87 260.92 353.66 260.91 352.44 260.9 351.22 260.9 350 260.89 348.78 260.96 347.58 261.04 346.41 261.12 345.24 261.21 344.09 261.31 342.94 261.42 341.82 261.52 340.7 261.64 339.6 261.76 338.51 261.9 337.43 262.03 336.36 262.18 335.31 262.32 334.26 262.48 333.24 262.64 332.21 262.81 331.21 262.98 330.21 263.16 329.23 263.35 328.25 263.55 327.3 263.94 325.38 264.38 323.57 264.83 321.76 265.33 320.04 265.82 318.32 266.37 316.7 266.92 315.08 267.52 313.55 268.12 312.03 268.77 310.6 269.42 309.17 270.13 307.85 270.83 306.52 271.59 305.3 272.35 304.07 273.16 302.96 273.97 301.83 274.83 300.82 275.69 299.81 276.61 298.9 277.53 298 278.5 297.2 278.5 297.2 278.5 297.2 279.73 296.32 280.88 295.76 282.03 295.19 283.1 294.94 283.1 294.94 283.1 294.94 284.08 294.71 285.1 295.05 286.13 295.39 287.21 296.3 288.28 297.22 289.4 298.71 289.96 299.46 290.53 300.36 291.1 301.25 291.69 302.3 291.69 302.3 291.69 302.3 292.49 303.75 293.31 305.06 294.13 306.38 294.97 307.54 295.8 308.72 296.65 309.74 297.5 310.76 298.37 311.64 299.23 312.52 300.11 313.25 300.99 313.98 301.89 314.56 302.78 315.15 303.7 315.58 304.61 316.01 305.53 316.29 305.53 316.29 305.53 316.29 306.41 316.48 307.34 316.58 308.26 316.68 309.23 316.7 310.2 316.72 311.22 316.66 312.23 316.61 313.29 316.46 313.29 316.46 313.29 316.46 315.05 316.23 316.68 315.77 318.31 315.31 319.82 314.61 321.33 313.92 322.71 312.98 324.08 312.05 325.34 310.88 326.59 309.7 327.71 308.29 328.84 306.87 329.84 305.21 330.84 303.55 331.71 301.64 332.58 299.73 333.33 297.57 333.33 297.57 333.33 297.57 333.85 296.1 334.26 294.61 334.67 293.13 334.95 291.63 335.24 290.12 335.4 288.61 335.38 287.12 335.41 285.59 335.41 285.59 335.41 285.59 335.43 284.23 335.52 282.92 335.52 281.62 335.41 280.4 335.3 279.18 335.11 278.03 334.93 276.88 334.68 275.81 334.43 274.73 334.11 273.73 333.79 272.73 333.4 271.8 332.62 269.95 331.56 268.41 330.49 266.89 329.13 265.69 328.45 265.11 327.69 264.6 326.94 264.1 326.11 263.68 325.28 263.27 324.39 262.93 323.49 262.6 322.52 262.35 321.55 262.11 320.51 261.94 319.47 261.77 318.36 261.68 318.36 261.68 318.36 261.68 317.27 261.62 316.16 261.64 315.06 261.66 313.93 261.76 312.8 261.87 311.65 262.05 310.5 262.25 309.33 262.52 309.33 262.52 309.33 262.52 307.93 262.84 306.56 263.24 305.18 263.64 303.83 264.12 302.48 264.6 301.16 265.14 299.83 265.7 298.52 266.32 297.22 266.95 295.94 267.65 294.66 268.35 293.4 269.13 292.15 269.9 290.91 270.75 289.68 271.6 288.47 272.52 287.26 273.44 286.07 274.44 284.89 275.43 283.72 276.5 282.56 277.56 281.42 278.7 280.28 279.83 279.16 281.04 278.05 282.24 276.95 283.51 275.86 284.78 274.79 286.12 273.72 287.46 272.67 288.86 271.63 290.26 270.6 291.72 270.6 291.72 270.6 291.72 269.69 293.13 268.83 294.54 267.97 295.94 267.17 297.36 266.37 298.76 265.62 300.18 264.88 301.58 264.19 303 263.5 304.4 262.86 305.81 262.23 307.22 261.65 308.63 261.07 310.03 260.54 311.44 260.02 312.84 259.55 314.25 259.55 314.25 259.55 314.25 259.46 313.19 259.37 312.13 259.28 311.07 259.19 310.01 259.1 308.95 259.01 307.88 258.92 306.82 258.83 305.76 258.73 304.69 258.64 303.62 258.55 302.55 258.46 301.48 258.36 300.41 258.27 299.34 258.18 298.26 258.08 297.19 257.99 296.11 257.89 295.04 257.8 293.96 257.7 292.88 257.6 291.8 257.51 290.71 257.41 289.63 257.31 288.54 257.22 287.46 257.12 286.37 257.02 285.28 256.92 284.2 256.83 283.11 256.73 282.02 256.63 280.93 256.53 279.84 255.57 280.14 254.6 280.44 253.64 280.74 252.67 281.05 251.71 281.35 250.75 281.66 249.79 281.97 248.82 282.27 247.86 282.58 246.9 282.89 245.94 283.21 244.98 283.52 244.02 283.84 243.06 284.16 242.1 284.47 241.14 284.79 240.19 285.11 239.23 285.44 238.27 285.76 237.31 286.09 236.36 286.41 235.4 286.74 234.45 287.07 233.49 287.41 232.54 287.74 231.59 288.07 230.63 288.41 229.68 288.75 228.73 289.08 227.78 289.42 226.83 289.77 225.88 290.11 224.93 290.45 223.98 290.8 223.03 291.15 222.08 291.5 221.14 291.85 220.19 292.2 219.24 292.55 218.3 292.91 217.35 293.26 216.41 293.62 215.46 293.98 214.52 294.34 213.58 294.7 212.63 295.07 211.69 295.43 210.75 295.8 209.81 296.16 208.87 296.53 207.93 296.9 206.99 297.27 206.05 297.64 205.12 298.01 204.18 298.39 203.24 298.76 202.31 299.13 201.37 299.49 200.43 299.86 199.5 300.22 198.56 300.56 197.62 300.89 196.68 301.19 195.73 301.43 195.73 302.38 195.73 303.32 195.73 304.27 195.73 305.21 195.73 306.15 195.73 307.1 195.73 308.04 195.73 308.99 196.99 308.71 198.26 308.42 199.52 308.1 200.77 307.76 202.03 307.41 203.29 307.04 204.54 306.66 205.8 306.26 207.05 305.86 208.3 305.45 209.56 305.04 210.81 304.62 212.06 304.2 213.32 303.77 214.57 303.35 215.83 302.92 215.85 304.62 215.88 306.31 215.9 307.98 215.92 309.64 215.94 311.29 215.95 312.93 215.97 314.56 215.98 316.19 216 317.8 216.01 319.41 216.02 321.01 216.03 322.61 216.04 324.21 216.05 325.8 216.06 327.39 216.07 328.97 216.08 330.56 216.09 332.14 216.09 333.71 216.1 335.29 216.11 336.86 216.12 338.44 216.12 340.01 216.13 341.58 216.14 343.15 216.14 344.71 216.15 346.28 216.16 347.85 216.16 349.41 216.17 350.97 216.18 352.54 216.18 354.1 216.19 355.66 216.2 357.22 216.2 358.78 216.21 360.34 216.22 361.9 216.22 363.46 216.23 365.02 216.24 366.58 216.25 368.14 216.26 369.7 216.27 371.25 216.28 372.81 216.29 374.37 216.3 375.93 216.31 377.48 216.32 379.04 216.33 380.6 216.35 382.16 216.36 383.71 216.38 385.27 216.4 386.83 216.42 388.39 216.44 389.94 216.46 391.5 216.49 393.06 216.52 394.62 216.55 396.18 216.58 397.75 216.61 399.31 216.65 400.88 216.69 402.44 216.74 404.01 216.76 404.86 216.73 405.66 216.71 406.46 216.64 407.22 216.49 408.72 216.15 410.03 215.8 411.34 215.26 412.44 214.73 413.55 213.99 414.45 213.25 415.35 212.32 416.05 211.38 416.75 210.25 417.24 209.11 417.74 207.78 418.04 206.44 418.34 204.91 418.46 204.91 418.46 204.91 418.46 204.03 418.55 203.08 418.6 202.13 418.66 201.12 418.69 200.1 418.72 199.01 418.73 197.92 418.75 196.76 418.74 196.76 418.74 196.76 418.74 196.81 419.69 196.87 420.63 196.92 421.58 196.98 422.52 197.03 423.46 197.09 424.41 197.14 425.35 197.24 426.19 198.74 426.34 200.29 426.51 201.84 426.68 203.39 426.85 204.94 427.02 206.49 427.2 208.04 427.38 209.59 427.55 211.14 427.73 212.69 427.91 214.24 428.09 215.79 428.27 217.33 428.53 218.86 428.78 220.4 429.04 221.94 429.29 223.48 429.55 225.01 429.8 226.55 430.07 228.08 430.33 229.62 430.6 231.15 430.86 232.69 431.13 234.22 431.39 235.77 431.57 237.32 431.75 238.87 431.93 240.42 432.11 241.97 432.3 243.52 432.48 245.07 432.66 246.62 432.84 248.17 433.02 249.72 433.2 251.27 433.38 252.82 433.58 254.34 433.88 255.87 434.19 257.4 434.49 258.93 434.79 260.45 435.09 261.98 435.38 263.52 435.61 265.07 435.83 266.61 436.05 268.15 436.28 269.69 436.5 271.23 436.72 272.78 436.91 274.33 437.1 275.88 437.29 277.43 437.47 278.98 437.66 280.52 437.88 282.05 438.2 283.57 438.53 285.1 438.86 286.62 439.18 288.15 439.51 289.68 439.81 291.22 440.03 292.77 440.24 294.31 440.45 295.86 440.67 295.84 438.7 295.53 437.01 295.23 435.31 294.66 434.05 294.08 432.79 293.23 431.97 292.37 431.15 291.24 430.79 291.24 430.79 291.24 430.79 290.37 430.47 289.41 430.22 288.45 429.98 287.41 429.81 287.41 429.81 287.41 429.81M425.12 257.05Q425.12 257.05 425.12 257.05 426.5 257 427.79 257.17 429.08 257.33 430.28 257.72 431.49 258.1 432.6 258.7 433.71 259.3 434.73 260.12 435.76 260.94 436.69 261.98 437.62 263.02 438.46 264.27 439.3 265.53 440.05 267 440.8 268.48 441.45 270.17 442.11 271.86 442.68 273.77 443.24 275.69 443.72 277.81 444.19 279.94 444.57 282.29 444.96 284.63 445.25 287.19 445.4 288.47 445.52 289.81 445.65 291.14 445.75 292.53 445.86 293.92 445.94 295.36 446.02 296.8 446.08 298.29 446.14 299.78 446.18 301.33 446.22 302.88 446.24 304.48 446.26 306.07 446.26 307.73 446.25 309.38 446.23 311.08 446.23 311.08 446.23 311.08 446.2 312.57 446.14 314 446.08 315.42 445.98 316.77 445.78 319.47 445.45 321.88 445.11 324.29 444.64 326.4 444.16 328.51 443.54 330.33 442.93 332.15 442.17 333.67 441.41 335.19 440.5 336.41 439.6 337.64 438.55 338.57 437.5 339.49 436.31 340.13 436.31 340.13 436.31 340.13 435.46 340.53 434.5 340.86 433.55 341.19 432.49 341.44 431.42 341.69 430.26 341.86 429.09 342.04 427.82 342.14 426.55 342.24 425.17 342.27 423.79 342.3 422.31 342.25 420.82 342.21 419.23 342.09 417.64 341.98 415.95 341.79 415.95 341.79 415.95 341.79 414.59 341.65 413.24 341.51 411.88 341.37 410.53 341.24 409.17 341.1 407.82 340.96 406.46 340.83 405.11 340.7 403.75 340.56 402.4 340.43 401.04 340.3 399.69 340.17 398.33 340.04 396.98 339.92 395.63 339.79 394.27 339.66 394.37 337.27 394.49 334.94 394.62 332.62 394.76 330.36 394.91 328.1 395.08 325.92 395.24 323.73 395.44 321.61 395.63 319.49 395.85 317.44 396.06 315.38 396.3 313.4 396.54 311.41 396.81 309.5 397.07 307.57 397.36 305.73 397.65 303.87 397.96 302.09 398.27 300.3 398.61 298.58 398.95 296.86 399.31 295.21 399.67 293.56 400.05 291.98 400.44 290.39 400.85 288.87 401.26 287.35 401.69 285.9 402.13 284.45 402.58 283.07 403.04 281.69 403.52 280.38 404.01 279.06 404.51 277.82 405.02 276.58 405.55 275.4 406.08 274.23 406.64 273.13 407.19 272.03 407.77 271 408.93 268.93 410.18 267.17 411.44 265.4 412.79 263.93 414.14 262.45 415.59 261.29 417.03 260.12 418.57 259.26 420.11 258.39 421.75 257.84 423.39 257.29 425.12 257.05 425.12 257.05 425.12 257.05M486.42 422.15Q486.42 422.15 486.42 422.15 485.41 421.48 484.4 420.82 483.39 420.16 482.37 419.49 481.36 418.83 480.35 418.16 479.33 417.5 478.32 416.84 477.72 418.76 477.09 420.6 476.45 422.43 475.77 424.18 475.08 425.91 474.36 427.56 473.63 429.2 472.86 430.75 472.1 432.29 471.28 433.74 470.47 435.19 469.61 436.54 468.76 437.89 467.86 439.14 466.96 440.38 466.01 441.54 465.07 442.68 464.08 443.74 463.09 444.79 462.06 445.75 461.02 446.7 459.95 447.56 458.87 448.41 457.75 449.18 456.63 449.94 455.46 450.61 454.3 451.28 453.09 451.85 451.88 452.43 450.63 452.92 449.38 453.4 448.08 453.8 448.08 453.8 448.08 453.8 447.04 454.13 446 454.38 444.96 454.64 443.91 454.82 442.87 455.01 441.82 455.12 440.76 455.23 439.71 455.27 438.65 455.31 437.59 455.28 436.53 455.25 435.46 455.14 434.4 455.04 433.33 454.87 432.26 454.7 431.18 454.46 431.18 454.46 431.18 454.46 429.46 454.08 427.82 453.52 426.18 452.96 424.62 452.23 423.07 451.5 421.59 450.59 420.11 449.69 418.71 448.62 417.31 447.55 415.99 446.32 414.67 445.08 413.43 443.68 412.19 442.28 411.03 440.72 409.88 439.16 408.8 437.43 407.73 435.71 406.73 433.82 405.74 431.93 404.83 429.88 403.92 427.84 403.09 425.63 402.67 424.52 402.28 423.38 401.89 422.24 401.51 421.05 401.14 419.87 400.78 418.64 400.43 417.42 400.1 416.15 399.76 414.89 399.45 413.58 399.14 412.28 398.85 410.93 398.55 409.59 398.28 408.2 398.01 406.81 397.75 405.39 397.5 403.96 397.26 402.49 397.03 401.03 396.81 399.52 396.81 399.52 396.81 399.52 396.65 398.28 396.49 397.01 396.34 395.75 396.19 394.46 396.04 393.17 395.91 391.85 395.77 390.53 395.65 389.19 395.53 387.85 395.41 386.47 395.3 385.11 395.19 383.71 395.09 382.31 394.99 380.89 394.9 379.47 394.82 378.02 394.73 376.57 394.66 375.09 394.58 373.61 394.52 372.11 394.46 370.6 394.4 369.07 394.35 367.54 394.31 365.98 394.26 364.42 394.23 362.83 394.2 361.25 394.18 359.63 394.15 358.01 394.14 356.37 394.13 354.73 394.12 353.05 394.12 353.05 394.12 353.05 395.1 353.15 396.07 353.25 397.04 353.34 398.01 353.44 398.98 353.54 399.96 353.63 400.93 353.73 401.9 353.83 402.87 353.93 403.85 354.03 404.82 354.13 405.79 354.23 406.76 354.33 407.74 354.43 408.71 354.54 409.68 354.64 410.66 354.74 411.63 354.85 412.6 354.95 413.58 355.06 414.55 355.16 415.53 355.27 416.5 355.37 417.47 355.48 418.45 355.59 419.42 355.7 420.39 355.81 421.37 355.91 422.34 356.02 423.32 356.13 424.29 356.25 425.26 356.36 426.97 356.55 428.62 356.71 430.28 356.87 431.9 357 433.51 357.13 435.08 357.23 436.65 357.33 438.17 357.4 439.69 357.47 441.17 357.51 442.65 357.54 444.08 357.55 445.51 357.55 446.9 357.52 448.29 357.49 449.63 357.42 450.97 357.36 452.27 357.26 453.56 357.16 454.81 357.03 456.07 356.9 457.27 356.73 458.48 356.56 459.64 356.36 460.8 356.16 461.91 355.92 463.03 355.68 464.1 355.41 465.17 355.13 466.19 354.83 467.22 354.52 468.2 354.17 469.18 353.83 470.11 353.44 471.04 353.06 471.93 352.65 472.82 352.23 473.67 351.78 474.51 351.32 475.32 350.84 476.92 349.86 478.34 348.74 479.76 347.62 481.01 346.36 482.25 345.09 483.32 343.69 484.39 342.28 485.28 340.73 486.17 339.19 486.89 337.5 487.6 335.81 488.14 333.98 488.14 333.98 488.14 333.98 488.64 332.15 489.01 330.21 489.38 328.26 489.63 326.22 489.88 324.17 490 322.01 489.97 319.84 489.97 317.58 489.97 317.58 489.97 317.58 489.97 316.16 490 314.77 490.03 313.38 490.01 312.01 489.9 309.27 489.68 306.62 489.46 303.97 489.13 301.41 488.81 298.85 488.38 296.38 487.96 293.92 487.47 291.55 487.01 289.17 486.49 286.9 485.99 284.62 485.38 282.44 484.77 280.27 484.05 278.19 483.31 276.12 482.46 274.14 481.59 272.18 480.6 270.31 479.6 268.45 478.47 266.7 477.32 264.95 476.05 263.31 475.4 262.5 474.73 261.71 474.05 260.92 473.34 260.16 472.62 259.4 471.88 258.67 471.13 257.94 470.35 257.23 469.56 256.53 468.75 255.86 467.93 255.19 467.08 254.54 466.23 253.9 465.34 253.28 464.46 252.67 463.54 252.08 463.54 252.08 463.54 252.08 462.51 251.45 461.45 250.87 460.4 250.29 459.32 249.75 458.24 249.22 457.14 248.74 456.05 248.25 454.93 247.81 453.81 247.37 452.67 246.98 451.53 246.59 450.38 246.25 449.22 245.9 448.04 245.61 446.87 245.31 445.67 245.06 444.48 244.81 443.26 244.61 442.05 244.41 440.81 244.25 439.58 244.09 438.33 243.98 437.08 243.88 435.8 243.81 434.53 243.75 433.25 243.73 431.96 243.72 430.65 243.75 429.34 243.78 428.02 243.85 426.69 243.93 425.35 244.05 425.35 244.05 425.35 244.05 424.12 244.17 422.92 244.32 421.71 244.47 420.52 244.65 419.33 244.85 418.15 245.08 416.98 245.31 415.82 245.57 414.66 245.84 413.52 246.14 412.38 246.45 411.26 246.79 410.14 247.13 409.03 247.51 407.92 247.89 406.83 248.31 405.74 248.72 404.67 249.18 403.59 249.63 402.54 250.12 401.48 250.61 400.44 251.14 399.4 251.66 398.38 252.23 397.36 252.79 396.35 253.39 395.35 253.98 394.36 254.62 393.37 255.25 392.4 255.92 391.43 256.58 390.47 257.28 389.52 257.98 388.58 258.72 387.64 259.45 386.72 260.22 385.81 260.98 384.9 261.78 384 262.58 383.12 263.41 382.23 264.23 381.36 265.09 380.5 265.94 379.64 266.83 378.79 267.71 377.96 268.63 377.13 269.54 376.31 270.48 375.5 271.41 374.7 272.38 373.9 273.34 373.12 274.32 372.34 275.31 371.58 276.32 370.82 277.32 370.07 278.35 369.33 279.38 368.6 280.43 367.88 281.48 367.17 282.55 366.46 283.62 365.77 284.72 365.08 285.8 364.4 286.92 364.4 286.92 364.4 286.92 363.38 288.65 362.41 290.41 361.45 292.16 360.56 293.94 359.67 295.72 358.84 297.53 358.01 299.34 357.24 301.19 356.48 303.03 355.78 304.91 355.08 306.78 354.44 308.71 353.81 310.62 353.24 312.58 352.67 314.54 352.16 316.55 351.65 318.55 351.21 320.6 350.77 322.64 350.39 324.74 350.01 326.83 349.69 328.97 349.54 330.04 349.39 331.12 349.25 332.2 349.13 333.3 349 334.39 348.89 335.5 348.78 336.61 348.68 337.72 348.59 338.84 348.51 339.97 348.43 341.11 348.37 342.25 348.31 343.39 348.26 344.55 348.21 345.7 348.18 346.87 348.15 348.04 348.13 349.22 348.12 350.41 348.12 351.6 348.12 351.6 348.12 351.6 348.12 353.55 348.15 355.46 348.19 357.37 348.26 359.25 348.33 361.12 348.44 362.97 348.54 364.81 348.68 366.62 348.83 368.43 349 370.2 349.18 371.98 349.39 373.72 349.6 375.46 349.85 377.17 350.09 378.88 350.37 380.55 350.65 382.23 350.96 383.87 351.28 385.52 351.62 387.13 351.97 388.74 352.35 390.32 352.72 391.9 353.13 393.45 353.54 395 353.97 396.52 354.41 398.04 354.87 399.53 355.33 401.02 355.82 402.48 356.3 403.94 356.81 405.37 357.31 406.8 357.85 408.2 358.38 409.61 358.94 410.98 359.5 412.36 360.09 413.71 360.68 415.07 361.31 416.39 361.94 417.72 362.61 419.02 363.28 420.33 363.99 421.61 364.71 422.89 365.46 424.15 366.22 425.41 367.02 426.65 367.82 427.89 368.66 429.1 369.51 430.32 370.4 431.52 371.29 432.72 372.22 433.89 373.15 435.07 374.13 436.23 375.11 437.39 376.13 438.52 377.15 439.66 378.21 440.77 379.27 441.88 380.38 442.97 381.48 444.05 382.63 445.11 382.63 445.11 382.63 445.11 383.72 446.1 384.84 447.05 385.96 448 387.11 448.89 388.25 449.79 389.42 450.64 390.59 451.49 391.77 452.31 392.96 453.13 394.17 453.91 395.37 454.7 396.6 455.45 397.82 456.2 399.07 456.92 400.31 457.65 401.57 458.34 402.83 459.04 404.11 459.7 405.39 460.36 406.69 460.98 407.99 461.59 409.31 462.15 410.64 462.7 411.98 463.2 413.33 463.71 414.7 464.16 416.06 464.62 417.45 465.03 418.83 465.43 420.23 465.72 421.63 466.01 423.05 466.36 423.05 466.36 423.05 466.36 424.3 466.67 425.54 467.01 426.77 467.35 427.99 467.64 429.21 467.84 430.41 467.99 431.6 468.15 432.78 468.26 433.96 468.37 435.11 468.44 436.26 468.52 437.39 468.55 438.52 468.59 439.62 468.59 440.73 468.58 441.82 468.53 442.9 468.47 443.96 468.37 445.03 468.27 446.07 468.12 447.11 467.97 448.14 467.77 449.16 467.57 450.16 467.33 451.15 467.09 452.13 466.8 453.11 466.51 454.06 466.18 455.02 465.84 455.95 465.47 456.88 465.09 457.79 464.66 458.7 464.23 459.58 463.76 460.47 463.28 461.33 462.76 462.2 462.23 463.04 461.66 463.88 461.09 464.7 460.46 465.52 459.84 466.31 459.16 467.11 458.49 467.88 457.76 468.65 457.04 469.4 456.26 470.15 455.48 470.87 454.65 471.6 453.81 472.3 452.92 473 452.03 473.68 451.09 474.36 450.15 475.02 449.15 475.67 448.15 476.3 447.1 476.94 446.05 477.55 444.94 478.16 443.83 478.74 442.67 479.33 441.51 479.9 440.3 480.46 439.08 481 437.81 481 437.81 481 437.81 481.85 435.96 482.61 434.06 483.37 432.15 484.05 430.19 484.73 428.23 485.32 426.22 485.92 424.21 486.42 422.15 486.42 422.15 486.42 422.15M612.46 515.37Q612.46 515.37 612.46 515.37 613.84 515.82 615.16 516.36 616.49 516.7 617.78 516.76 619.06 516.82 620.28 516.74 621.5 516.67 622.65 516.46 623.8 516.27 624.87 515.95 625.94 515.67 626.94 515.26 627.93 514.86 628.86 514.32 629.79 513.77 630.65 513.08 631.52 512.39 632.32 511.55 633.11 510.7 633.85 509.71 634.58 508.71 635.24 507.56 635.91 506.4 636.51 505.09 637.11 503.77 637.65 502.31 638.19 500.83 638.66 499.21 639.13 497.59 639.53 495.82 639.94 494.05 640.28 492.13 640.28 492.13 640.28 492.13 640.51 490.67 640.72 489.11 640.93 487.55 641.13 485.88 641.33 484.21 641.52 482.43 641.7 480.65 641.87 478.76 642.04 476.87 642.2 474.88 642.35 472.88 642.5 470.78 642.64 468.68 642.77 466.47 642.9 464.26 642.86 461.9 642.86 461.9 642.86 461.9 642.03 461.65 641.04 461.36 640.06 461.07 639.07 460.78 638.09 460.49 637.1 460.19 636.12 459.9 635.13 459.6 635.02 462.17 634.88 464.57 634.74 466.97 634.57 469.21 634.4 471.44 634.2 473.51 634 475.57 633.78 477.47 633.56 479.36 633.31 481.09 633.06 482.81 632.78 484.37 632.5 485.93 632.2 487.31 631.89 488.7 631.56 489.92 630.89 492.34 630.12 494.1 629.34 495.85 628.46 496.93 627.57 498.01 626.58 498.43 625.58 498.85 624.47 498.61 624.47 498.61 624.47 498.61 623.63 498.23 622.89 497.47 622.16 496.7 621.53 495.54 620.9 494.38 620.37 492.83 619.85 491.27 619.43 489.33 619.01 487.38 618.7 485.04 618.39 482.69 618.18 479.95 617.98 477.21 617.88 474.07 617.83 472.5 617.81 470.82 617.78 469.15 617.79 467.38 617.79 467.38 617.79 467.38 617.79 465.44 617.79 463.51 617.8 461.58 617.8 459.64 617.8 457.71 617.81 455.77 617.81 453.83 617.82 451.9 617.82 449.96 617.83 448.02 617.83 446.08 617.84 444.14 617.84 442.2 617.85 440.25 617.85 438.31 617.86 436.37 617.86 434.43 617.87 432.48 617.87 430.54 617.88 428.59 617.88 426.65 617.89 424.7 617.9 422.76 617.9 420.81 617.91 418.87 617.91 416.92 617.92 414.97 617.93 413.03 617.93 411.08 617.94 409.13 617.95 407.18 617.96 405.23 617.96 403.29 617.97 401.34 617.98 399.39 617.99 397.44 618 395.49 618.01 393.54 618.02 391.59 618.03 389.64 618.04 387.69 618.05 385.74 618.06 383.79 618.07 381.84 618.08 379.89 618.09 377.94 618.1 375.99 618.12 374.04 618.13 372.08 618.14 370.13 618.16 368.18 618.17 366.23 618.18 364.28 618.2 362.32 618.22 360.37 618.23 358.42 618.25 356.47 618.27 354.51 618.29 352.56 618.31 350.61 618.33 348.65 618.35 346.7 618.37 344.75 618.39 342.79 618.42 340.45 618.42 338.17 618.41 335.88 618.38 333.64 618.34 331.41 618.27 329.22 618.21 327.03 618.11 324.9 618.01 322.76 617.88 320.68 617.75 318.6 617.59 316.56 617.43 314.53 617.23 312.55 617.04 310.57 616.81 308.64 616.58 306.71 616.32 304.84 616.06 302.96 615.76 301.14 615.47 299.31 615.14 297.54 614.8 295.77 614.44 294.05 614.07 292.33 613.66 290.67 613.26 289 612.82 287.39 612.38 285.78 611.9 284.22 611.42 282.66 610.9 281.16 610.38 279.65 609.82 278.2 609.27 276.75 608.67 275.35 608.08 273.96 607.45 272.61 606.81 271.27 606.14 269.98 605.47 268.69 604.76 267.46 604.05 266.23 603.3 265.05 602.55 263.87 601.77 262.74 600.98 261.62 600.16 260.55 599.33 259.48 598.47 258.47 597.61 257.46 596.71 256.5 595.81 255.54 594.87 254.64 593.93 253.74 592.96 252.89 591.98 252.04 590.97 251.25 589.96 250.46 588.91 249.73 587.86 249 586.77 248.32 585.68 247.64 584.56 247.02 584.56 247.02 584.56 247.02 583.39 246.41 582.2 245.87 581.01 245.33 579.8 244.85 578.58 244.38 577.34 243.97 576.1 243.57 574.83 243.22 573.56 242.88 572.27 242.61 570.97 242.34 569.65 242.13 568.33 241.92 566.99 241.78 565.64 241.64 564.27 241.56 564.27 241.56 564.27 241.56 562.94 241.49 561.64 241.45 560.34 241.42 559.07 241.43 557.79 241.43 556.55 241.47 555.31 241.52 554.1 241.6 552.89 241.68 551.71 241.8 550.53 241.92 549.38 242.07 548.23 242.23 547.11 242.42 546 242.61 544.91 242.84 543.82 243.07 542.76 243.34 541.7 243.6 540.68 243.9 539.65 244.21 538.65 244.54 537.66 244.88 536.69 245.25 535.73 245.62 534.79 246.03 533.86 246.44 532.95 246.88 532.05 247.32 531.17 247.8 530.3 248.28 529.46 248.79 528.62 249.3 527.8 249.84 526.99 250.38 526.21 250.96 525.43 251.53 524.68 252.14 523.93 252.75 523.21 253.39 521.78 254.66 520.47 256.07 519.16 257.46 517.97 258.98 516.78 260.49 515.72 262.12 514.66 263.75 513.73 265.49 512.79 267.23 511.98 269.08 511.18 270.93 510.49 272.9 510.49 272.9 510.49 272.9 509.79 274.9 509.27 276.97 508.74 279.03 508.39 281.18 508.04 283.32 507.86 285.54 507.69 287.76 507.68 290.06 507.68 290.06 507.68 290.06 507.68 292.71 507.86 295.12 508.04 297.54 508.39 299.73 508.75 301.92 509.28 303.88 509.81 305.85 510.53 307.59 511.24 309.33 512.13 310.85 513.02 312.37 514.09 313.67 515.16 314.96 516.4 316.03 517.65 317.1 519.08 317.95 519.08 317.95 519.08 317.95 520.47 318.93 521.93 319.5 523.4 320.08 524.94 320.25 524.94 320.25 524.94 320.25 525.77 320.34 526.57 320.34 527.37 320.33 528.13 320.24 529.66 320.04 531.05 319.46 532.45 318.88 533.71 317.92 534.97 316.96 536.1 315.61 537.23 314.25 538.23 312.52 539.23 310.77 540.1 308.64 540.96 306.51 541.7 303.99 542.07 302.72 542.4 301.36 542.74 300 543.04 298.54 543.04 298.54 543.04 298.54 543.36 296.87 543.85 294.07 544.09 292.67 544.38 290.99 544.66 289.3 544.99 287.34 544.99 287.34 544.99 287.34 545.44 284.52 545.92 281.96 546.41 279.4 546.91 277.11 547.42 274.81 547.96 272.77 548.5 270.73 549.06 268.97 549.63 267.19 550.22 265.69 550.82 264.19 551.43 262.95 552.05 261.72 552.7 260.75 553.35 259.79 554.02 259.1 554.02 259.1 554.02 259.1 554.89 258.42 555.82 257.92 556.74 257.43 557.72 257.12 558.71 256.81 559.75 256.69 560.78 256.57 561.88 256.63 561.88 256.63 561.88 256.63 562.8 256.69 563.67 256.87 564.54 257.05 565.37 257.36 566.19 257.68 566.97 258.12 567.74 258.56 568.47 259.13 569.93 260.28 571.2 261.93 572.47 263.59 573.55 265.77 574.09 266.85 574.58 268.07 575.08 269.28 575.52 270.63 575.97 271.97 576.36 273.44 576.76 274.92 577.11 276.52 577.46 278.12 577.77 279.84 578.07 281.57 578.32 283.42 578.58 285.28 578.79 287.26 579 289.24 579.16 291.34 579.16 291.34 579.16 291.34 579.29 292.9 579.4 294.52 579.52 296.15 579.61 297.84 579.7 299.54 579.77 301.31 579.84 303.07 579.89 304.91 579.95 306.74 579.98 308.65 580.01 310.55 580.02 312.53 580.04 314.5 580.03 316.54 580.02 318.59 579.99 320.7 579.99 320.7 579.99 320.7 579.96 323.07 579.94 325.43 579.91 327.8 579.88 330.17 579.85 332.53 579.83 334.9 579.8 337.26 579.77 339.62 579.75 341.99 579.72 344.35 579.7 346.71 579.68 349.07 579.65 351.42 579.63 353.78 579.61 356.14 579.58 358.5 578.35 358.35 577.14 358.22 575.93 358.1 574.73 357.99 573.54 357.89 572.36 357.81 571.19 357.72 570.03 357.66 568.87 357.6 567.73 357.56 566.59 357.52 565.47 357.5 564.35 357.48 563.25 357.48 562.15 357.48 561.07 357.51 559.99 357.53 558.92 357.57 557.86 357.61 556.81 357.67 555.77 357.74 554.74 357.82 553.72 357.9 552.71 358 551.71 358.1 550.72 358.23 549.73 358.35 548.76 358.49 547.79 358.63 546.85 358.79 545.9 358.95 544.97 359.13 544.04 359.31 543.13 359.51 542.22 359.71 541.33 359.93 540.44 360.15 539.56 360.39 538.69 360.62 537.84 360.88 536.99 361.14 536.16 361.41 535.32 361.69 534.51 361.98 533.7 362.27 532.9 362.59 532.11 362.9 531.33 363.23 530.56 363.56 529.8 363.91 529.05 364.26 528.31 364.63 526.84 365.37 525.45 366.18 524.05 366.99 522.74 367.88 521.42 368.77 520.18 369.73 518.94 370.69 517.78 371.73 516.62 372.77 515.54 373.88 514.45 375 513.44 376.19 512.44 377.37 511.51 378.64 510.58 379.91 509.73 381.25 508.88 382.59 508.1 384.01 507.32 385.43 506.63 386.92 505.93 388.42 505.31 389.99 504.69 391.57 504.14 393.22 503.6 394.87 503.13 396.6 502.66 398.33 502.27 400.14 501.88 401.95 501.56 403.83 501.25 405.72 501.01 407.69 500.77 409.65 500.61 411.7 500.45 413.74 500.36 415.87 500.28 417.99 500.27 420.2 500.27 420.2 500.27 420.2 500.27 421.7 500.29 423.16 500.31 424.63 500.36 426.07 500.41 427.51 500.48 428.92 500.55 430.34 500.64 431.72 500.82 434.48 501.07 437.12 501.29 439.77 501.6 442.3 501.91 444.83 502.32 447.25 502.72 449.66 503.23 451.96 503.73 454.26 504.33 456.45 504.93 458.65 505.63 460.72 506.33 462.81 507.14 464.78 507.94 466.76 508.84 468.63 509.75 470.5 510.75 472.27 511.76 474.04 512.87 475.71 513.98 477.38 515.18 478.95 516.39 480.53 517.69 482.01 518.99 483.5 520.38 484.91 521.77 486.33 523.24 487.65 523.24 487.65 523.24 487.65 524.12 488.41 525.01 489.12 525.91 489.82 526.84 490.45 527.77 491.06 528.73 491.61 529.69 492.15 530.67 492.64 531.66 493.13 532.67 493.56 533.68 494 534.71 494.37 535.75 494.7 536.82 494.87 537.88 495.05 538.97 495.29 538.97 495.29 538.97 495.29 539.8 495.47 540.61 495.69 541.43 495.91 542.23 496.15 543.83 496.38 545.34 496.56 546.84 496.8 548.29 496.87 549.73 496.94 551.13 496.84 552.53 496.72 553.9 496.38 555.27 496.02 556.6 495.48 557.92 494.95 559.2 494.25 560.47 493.56 561.69 492.71 562.91 491.86 564.07 490.86 565.23 489.86 566.34 488.71 567.45 487.57 568.5 486.28 569.54 484.98 570.54 483.54 571.53 482.09 572.47 480.48 573.41 478.88 574.3 477.11 575.18 475.34 576.02 473.41 576.85 471.48 577.63 469.39 577.63 469.39 577.63 469.39 578.25 467.69 578.82 465.93 579.39 464.17 579.89 462.36 580.4 460.55 580.85 458.69 581.31 456.82 581.7 454.9 581.7 454.9 581.7 454.9 581.89 456.5 582.1 458.05 582.31 459.6 582.54 461.12 582.77 462.63 583.02 464.1 583.27 465.57 583.53 467 584.06 469.86 584.67 472.56 585.27 475.26 585.94 477.8 586.62 480.34 587.37 482.72 588.11 485.1 588.93 487.31 589.75 489.53 590.64 491.59 591.53 493.65 592.49 495.55 593.45 497.45 594.48 499.2 595.51 500.96 596.61 502.56 597.71 504.15 598.88 505.58 600.06 506.99 601.32 508.22 602.58 509.44 603.91 510.48 605.24 511.52 606.65 512.4 608.04 513.33 609.49 514.16 610.94 514.99 612.46 515.37 612.46 515.37 612.46 515.37M555.11 475.66Q555.11 475.66 555.11 475.66 554.15 475.34 553.25 474.85 552.35 474.36 551.52 473.7 550.68 473.03 549.9 472.2 549.12 471.36 548.4 470.36 547.68 469.36 547.02 468.19 546.37 467.02 545.77 465.68 545.17 464.34 544.63 462.83 544.1 461.33 543.62 459.65 543.14 457.98 542.72 456.13 542.31 454.29 541.95 452.28 541.59 450.27 541.3 448.09 541 445.91 540.77 443.56 540.53 441.22 540.36 438.7 540.18 436.19 540.06 433.51 539.95 430.82 539.89 427.97 539.86 426.54 539.85 425.07 539.83 423.6 539.83 422.09 539.83 422.09 539.83 422.09 539.85 419.8 539.93 417.62 540.01 415.45 540.15 413.38 540.29 411.32 540.5 409.37 540.71 407.41 540.98 405.57 541.25 403.73 541.58 402 541.91 400.26 542.31 398.64 542.71 397.02 543.17 395.51 543.63 394 544.16 392.59 544.69 391.19 545.28 389.9 545.87 388.6 546.52 387.42 547.18 386.23 547.9 385.16 548.62 384.08 549.4 383.11 550.19 382.14 551.03 381.29 551.88 380.43 552.79 379.68 553.71 378.93 554.68 378.29 555.66 377.65 556.7 377.12 556.7 377.12 556.7 377.12 557.82 376.67 559.01 376.3 560.21 375.92 561.48 375.62 562.75 375.32 564.09 375.09 565.44 374.87 566.86 374.71 568.28 374.56 569.78 374.48 571.28 374.4 572.85 374.4 573.64 374.4 574.44 374.42 575.25 374.44 576.07 374.48 576.9 374.51 577.74 374.57 578.58 374.63 579.44 374.7 579.44 374.7 579.44 374.7 579.43 376.46 579.42 378.21 579.4 379.96 579.39 381.71 579.38 383.47 579.36 385.22 579.35 386.97 579.34 388.72 579.32 390.47 579.31 392.22 579.3 393.97 579.29 395.72 579.27 397.47 579.26 399.22 579.25 400.97 579.24 402.72 579.23 404.47 579.22 406.22 579.2 407.97 579.19 409.72 579.18 411.46 579.17 413.21 579.16 414.96 579.15 416.71 579.14 418.45 579.13 420.2 579.12 421.94 579.11 423.69 579.1 425.44 579.09 427.18 579.08 428.93 579.07 430.67 578.69 433.1 578.28 435.41 577.88 437.71 577.45 439.89 577.01 442.06 576.55 444.1 576.1 446.14 575.61 448.05 575.12 449.96 574.61 451.73 574.1 453.51 573.56 455.16 573.02 456.81 572.45 458.32 571.89 459.84 571.29 461.23 570.7 462.62 570.08 463.87 569.46 465.13 568.81 466.26 568.16 467.39 567.48 468.39 566.81 469.39 566.11 470.26 565.4 471.14 564.67 471.88 563.94 472.63 563.19 473.25 562.43 473.86 561.64 474.36 560.86 474.85 560.05 475.21 560.05 475.21 560.05 475.21 558.65 475.71 557.42 475.83 556.19 475.94 555.11 475.66 555.11 475.66 555.11 475.66M658.83 310Q658.83 311.64 658.83 313.28 658.83 314.92 658.83 316.55 658.83 318.19 658.83 319.83 658.83 321.46 658.83 323.1 660.67 323.56 662.5 324.01 664.34 324.46 666.17 324.91 668.01 325.36 669.84 325.81 671.67 326.26 673.51 326.71 675.34 327.16 677.17 327.61 679 328.05 680.84 328.5 682.67 328.95 684.5 329.39 686.33 329.84 688.16 330.29 688.16 332.27 688.17 334.26 688.17 336.25 688.18 338.23 688.18 340.22 688.18 342.21 688.19 344.19 688.19 346.17 688.2 348.16 688.2 350.14 688.2 352.13 688.21 354.11 688.21 356.09 688.22 358.07 688.22 360.05 688.23 362.03 688.23 364.01 688.24 366 688.24 367.98 688.25 369.96 688.25 371.94 688.25 373.91 688.26 375.89 688.26 377.87 688.27 379.85 688.27 381.83 688.28 383.81 688.28 385.79 688.29 387.76 688.29 389.74 688.3 391.72 688.3 393.7 688.31 395.68 688.32 397.65 688.32 399.63 688.33 401.61 688.33 403.58 688.34 405.56 688.34 407.54 688.35 409.51 688.36 411.49 688.36 413.46 688.37 415.44 688.38 417.42 688.38 419.39 688.39 421.37 688.4 423.34 688.41 425.32 688.42 427.29 688.42 429.27 688.43 431.25 688.44 433.22 688.45 435.2 688.46 437.17 688.47 439.15 688.48 441.12 688.5 443.1 688.51 445.07 688.52 447.04 688.53 449.02 688.55 450.99 688.56 452.97 688.58 454.94 688.6 456.92 688.62 459.21 688.69 461.45 688.76 463.68 688.89 465.87 689.02 468.06 689.19 470.2 689.37 472.33 689.6 474.42 689.83 476.51 690.12 478.54 690.4 480.58 690.74 482.56 691.07 484.55 691.46 486.48 691.84 488.42 692.28 490.3 692.71 492.19 693.2 494.02 693.68 495.85 694.22 497.64 694.75 499.42 695.33 501.16 695.91 502.89 696.54 504.58 697.17 506.26 697.85 507.9 698.52 509.53 699.25 511.12 699.97 512.7 700.74 514.24 701.51 515.77 702.33 517.26 703.14 518.74 704.01 520.17 704.87 521.61 705.78 522.99 706.69 524.37 707.65 525.7 708.61 527.02 709.61 528.3 710.62 529.58 711.67 530.8 712.73 532.03 713.83 533.2 714.93 534.38 716.07 535.51 717.22 536.64 718.41 537.73 719.6 538.82 720.84 539.87 722.08 540.92 723.37 541.92 724.65 542.92 725.98 543.87 727.32 544.82 728.7 545.72 730.08 546.61 731.52 547.46 732.95 548.3 734.43 549.1 735.91 549.89 737.44 550.64 738.96 551.39 740.54 552.08 740.54 552.08 740.54 552.08 741.8 552.59 743.06 553.07 744.32 553.55 745.57 553.99 746.83 554.31 748.08 554.66 749.34 555.01 750.59 555.4 750.59 555.4 750.59 555.4 752.61 556.02 754.54 556.72 756.47 557.29 758.33 557.67 760.2 557.97 762.02 558.05 763.84 558.13 765.58 558.1 767.31 558.08 768.95 558 770.58 557.97 772.13 557.83 773.67 557.69 775.13 557.44 776.6 557.18 777.99 556.8 779.37 556.42 780.68 555.91 781.99 555.41 783.22 554.78 784.45 554.14 785.6 553.39 786.75 552.63 787.83 551.75 788.9 550.86 789.9 549.85 790.9 548.84 791.82 547.71 792.74 546.57 793.59 545.32 794.43 544.06 795.2 542.68 795.2 542.68 795.2 542.68 795.94 541.29 796.64 539.76 797.34 538.23 798 536.56 798.66 534.89 799.29 533.08 799.91 531.27 800.49 529.32 801.07 527.37 801.62 525.28 802.16 523.19 802.67 520.96 803.17 518.73 803.64 516.36 804.1 513.99 804.33 511.43 804.33 511.43 804.33 511.43 803.09 510.83 801.65 510.18 800.22 509.52 798.78 508.87 797.35 508.21 795.92 507.56 794.48 506.9 793.05 506.24 792.52 508.69 791.96 510.98 791.4 513.26 790.81 515.4 790.21 517.53 789.59 519.51 788.97 521.48 788.32 523.3 787.66 525.13 786.98 526.79 786.3 528.46 785.58 529.97 784.87 531.48 784.12 532.83 783.38 534.19 782.6 535.39 781.83 536.59 781.02 537.63 780.22 538.67 779.38 539.56 778.55 540.45 777.68 541.18 776.81 541.92 775.91 542.49 775.02 543.07 774.08 543.5 773.15 543.92 772.19 544.2 770.27 544.74 768.21 544.68 768.21 544.68 768.21 544.68 766.95 544.59 765.68 544.37 764.41 544.15 763.14 543.81 763.14 543.81 763.14 543.81 761.19 543.27 759.42 542.37 757.66 541.46 756.09 540.18 754.51 538.9 753.13 537.26 751.74 535.61 750.55 533.61 749.35 531.6 748.34 529.23 747.33 526.87 746.51 524.14 746.1 522.78 745.73 521.33 745.36 519.88 745.05 518.34 744.73 516.8 744.46 515.17 744.19 513.54 743.96 511.83 743.96 511.83 743.96 511.83 743.74 510.23 743.57 508.63 743.4 507.02 743.28 505.39 743.16 503.77 743.1 502.13 743.03 500.49 743.02 498.83 743.02 498.83 743.02 498.83 743 496.42 742.98 494 742.97 491.59 742.95 489.18 742.93 486.76 742.92 484.35 742.9 481.94 742.88 479.52 742.87 477.11 742.85 474.7 742.84 472.29 742.82 469.87 742.81 467.46 742.8 465.05 742.78 462.63 742.77 460.22 742.75 457.8 742.74 455.39 742.73 452.98 742.72 450.56 742.7 448.15 742.69 445.73 742.68 443.32 742.66 440.9 742.65 438.49 742.64 436.07 742.63 433.66 742.62 431.24 742.6 428.83 742.59 426.41 742.58 424 742.57 421.58 742.55 419.16 742.54 416.74 742.53 414.33 742.52 411.91 742.5 409.49 742.49 407.07 742.48 404.65 742.47 402.23 742.45 399.81 742.44 397.39 742.43 394.97 742.41 392.55 742.4 390.12 742.38 387.7 742.37 385.28 742.35 382.85 742.34 380.43 742.32 378 742.3 375.57 742.28 373.14 742.27 370.72 742.25 368.29 742.23 365.85 742.21 363.42 742.19 360.99 742.17 358.55 742.15 356.12 742.13 353.68 742.1 351.24 742.08 348.8 742.06 346.36 742.03 343.91 743.79 344.38 745.54 344.84 747.29 345.31 749.05 345.78 750.8 346.25 752.56 346.73 754.32 347.2 756.08 347.68 757.84 348.15 759.6 348.63 761.36 349.11 763.13 349.59 764.9 350.07 766.66 350.56 768.43 351.04 770.21 351.53 771.98 352.01 773.76 352.5 775.54 352.99 777.32 353.48 779.1 353.97 780.89 354.46 782.68 354.95 784.47 355.44 786.27 355.93 788.06 356.42 789.86 356.91 791.66 357.4 793.47 357.89 795.27 358.39 797.07 358.88 798.87 359.37 798.86 357.7 798.86 356.04 798.85 354.37 798.84 352.7 798.82 351.04 798.81 349.37 798.78 347.7 798.76 346.04 796.92 345.54 795.09 345.04 793.26 344.55 791.44 344.05 789.63 343.55 787.82 343.05 786.01 342.56 784.22 342.06 782.42 341.56 780.63 341.07 778.84 340.57 777.06 340.07 775.28 339.58 773.51 339.09 771.73 338.59 769.97 338.1 768.2 337.61 766.43 337.12 764.67 336.63 762.91 336.15 761.15 335.66 759.4 335.18 757.64 334.7 755.89 334.22 754.13 333.74 752.38 333.26 750.63 332.79 748.88 332.32 747.13 331.85 745.39 331.38 743.64 330.91 741.89 330.45 741.87 328.56 741.85 326.68 741.83 324.79 741.81 322.9 741.79 321.01 741.77 319.12 741.75 317.23 741.73 315.33 741.71 313.43 741.69 311.53 741.67 309.63 741.65 307.73 741.63 305.82 741.61 303.91 741.59 302 741.57 300.09 741.55 298.17 741.53 296.25 741.52 294.33 741.5 292.41 741.49 290.48 741.47 288.55 741.46 286.62 741.44 284.69 741.43 282.76 741.42 280.83 741.41 278.89 741.4 276.96 741.38 275.02 741.37 273.09 741.36 271.16 741.35 269.23 739.7 269.14 738.05 269.04 736.4 268.95 734.75 268.87 733.1 268.79 731.44 268.71 729.79 268.64 728.13 268.57 726.47 268.5 724.81 268.44 723.15 268.38 721.49 268.32 719.83 268.27 718.17 268.22 716.51 268.18 714.84 268.14 713.18 268.1 711.51 268.07 709.84 268.04 708.17 268.01 706.5 267.99 704.83 267.96 703.16 267.95 701.49 267.93 699.82 267.92 698.14 267.91 696.47 267.91 694.79 267.9 693.12 267.9 691.44 267.91 689.76 267.91 688.09 267.92 688.09 269.48 688.09 271.04 688.09 272.6 688.09 274.15 688.09 275.71 688.09 277.26 688.09 278.81 688.09 280.35 688.09 281.9 688.09 283.44 688.09 284.98 688.1 286.52 688.1 288.06 688.1 289.59 688.1 291.13 688.1 292.66 688.1 294.19 688.1 295.72 688.11 297.25 688.11 298.78 688.11 300.3 688.11 301.83 688.11 303.35 688.12 304.87 688.12 306.39 688.12 307.92 688.12 309.44 688.12 310.96 688.13 312.47 688.13 313.99 688.13 315.51 688.14 317.03 686.31 316.59 684.48 316.16 682.65 315.72 680.82 315.29 678.99 314.85 677.16 314.42 675.33 313.98 673.5 313.54 671.66 313.11 669.83 312.67 668 312.23 666.17 311.79 664.33 311.34 662.5 310.9 660.67 310.45 658.83 310 658.83 310 658.83 310M914.15 362.95Q914.15 362.95 914.15 362.95 915.85 364.23 917.42 365.69 918.98 367.15 920.42 368.79 921.86 370.44 923.17 372.26 924.47 374.09 925.66 376.08 926.85 378.08 927.92 380.24 928.99 382.39 929.95 384.71 930.92 387.02 931.77 389.49 932.63 391.94 933.39 394.55 934.16 397.14 934.83 399.88 935.51 402.6 936.09 405.46 936.69 408.3 937.18 411.27 937.69 414.23 938.11 417.31 938.31 418.84 938.5 420.41 938.68 421.97 938.84 423.57 939.01 425.15 939.14 426.78 939.27 428.39 939.38 430.04 939.49 431.68 939.57 433.36 939.64 435.03 939.69 436.73 939.74 438.43 939.75 440.16 939.76 441.88 939.74 443.64 939.74 443.64 939.74 443.64 939.7 445.18 939.62 446.61 939.52 448.03 939.38 449.36 939.08 452 938.57 454.22 938.05 456.45 937.32 458.27 936.58 460.1 935.64 461.52 934.69 462.95 933.55 463.99 932.4 465.03 931.06 465.68 929.73 466.33 928.21 466.59 926.69 466.87 925 466.75 925 466.75 925 466.75 923.81 466.62 922.47 466.34 921.15 466.06 919.69 465.65 918.23 465.23 916.64 464.68 915.06 464.13 913.35 463.43 911.65 462.74 909.82 461.91 907.99 461.09 906.04 460.12 904.1 459.15 902.03 458.04 899.97 456.94 897.78 455.7 897.78 455.7 897.78 455.7 896.04 454.71 894.3 453.73 892.56 452.75 890.83 451.77 889.1 450.79 887.37 449.82 885.65 448.85 883.93 447.88 882.21 446.92 880.49 445.96 878.78 445 877.07 444.04 875.36 443.09 873.65 442.13 871.94 441.19 870.23 440.24 870.48 437.27 870.75 434.41 871.01 431.54 871.31 428.78 871.6 426.01 871.92 423.35 872.24 420.69 872.59 418.14 872.93 415.58 873.31 413.13 873.68 410.68 874.09 408.34 874.49 405.99 874.93 403.75 875.36 401.51 875.82 399.38 876.29 397.25 876.78 395.23 877.28 393.2 877.81 391.29 878.33 389.37 878.89 387.57 879.45 385.76 880.03 384.07 880.62 382.37 881.24 380.79 881.86 379.2 882.51 377.73 883.16 376.26 883.84 374.9 884.52 373.54 885.22 372.29 885.93 371.04 886.67 369.91 887.4 368.78 888.17 367.77 888.93 366.75 889.72 365.85 890.51 364.96 891.33 364.18 892.96 362.62 894.69 361.53 896.42 360.45 898.25 359.85 900.07 359.26 901.98 359.14 903.89 359.04 905.88 359.42 907.87 359.81 909.94 360.69 912 361.58 914.15 362.95 914.15 362.95 914.15 362.95M985.52 570.9Q985.52 570.9 985.52 570.9 984.01 569.75 982.51 568.61 981.01 567.47 979.5 566.34 978.01 565.21 976.52 564.08 975.03 562.96 973.55 561.85 971.76 563.05 969.92 564.17 968.08 565.28 966.2 566.31 964.32 567.34 962.41 568.28 960.5 569.23 958.57 570.1 956.64 570.97 954.69 571.77 952.76 572.58 950.81 573.32 948.88 574.07 946.95 574.75 945.03 575.45 943.12 576.07 941.23 576.72 939.35 577.3 937.49 577.9 935.65 578.44 933.84 578.99 932.04 579.48 930.28 579.99 928.52 580.43 926.8 580.9 925.1 581.29 923.42 581.7 921.75 582.04 920.11 582.4 918.48 582.69 916.86 582.99 915.26 583.21 915.26 583.21 915.26 583.21 913.98 583.41 912.73 583.55 911.5 583.69 910.29 583.77 909.09 583.85 907.92 583.87 906.75 583.89 905.61 583.84 904.47 583.79 903.36 583.68 902.25 583.56 901.15 583.37 900.07 583.19 899 582.93 897.93 582.66 896.88 582.33 896.88 582.33 896.88 582.33 895.21 581.78 893.67 581.06 892.12 580.33 890.7 579.43 889.28 578.53 887.97 577.45 886.66 576.36 885.46 575.1 884.26 573.84 883.16 572.39 882.06 570.94 881.06 569.3 880.05 567.65 879.15 565.81 878.24 563.97 877.43 561.93 876.6 559.88 875.88 557.64 875.14 555.38 874.49 552.93 873.83 550.46 873.26 547.79 872.97 546.45 872.71 545.06 872.44 543.67 872.19 542.22 871.94 540.78 871.71 539.28 871.47 537.77 871.26 536.22 871.04 534.66 870.85 533.05 870.65 531.44 870.47 529.77 870.29 528.11 870.13 526.38 869.97 524.66 869.82 522.89 869.68 521.11 869.55 519.27 869.42 517.44 869.32 515.55 869.32 515.55 869.32 515.55 869.24 514 869.17 512.42 869.1 510.83 869.04 509.21 868.98 507.59 868.93 505.94 868.88 504.28 868.84 502.59 868.8 500.9 868.77 499.17 868.74 497.45 868.72 495.69 868.69 493.93 868.68 492.13 868.67 490.33 868.67 488.51 868.67 486.67 868.68 484.81 868.69 482.94 868.71 481.05 868.73 479.15 868.76 477.21 868.8 475.28 868.84 473.31 868.88 471.34 868.93 469.34 868.99 467.34 869.05 465.3 869.12 463.27 869.19 461.2 869.27 459.13 869.36 457.03 869.36 457.03 869.36 457.03 870.56 457.65 871.77 458.27 872.98 458.89 874.18 459.51 875.39 460.14 876.6 460.76 877.82 461.39 879.03 462.01 880.24 462.64 881.46 463.27 882.67 463.9 883.89 464.53 885.11 465.17 886.34 465.8 887.56 466.44 888.78 467.07 890.01 467.71 891.24 468.35 892.47 468.99 893.71 469.63 894.94 470.28 896.18 470.92 897.42 471.57 898.67 472.21 899.91 472.86 901.16 473.51 902.42 474.16 903.67 474.82 904.93 475.47 906.19 476.13 907.46 476.79 908.73 477.44 910.96 478.6 913.15 479.69 915.35 480.8 917.5 481.84 919.67 482.9 921.8 483.9 923.94 484.9 926.04 485.85 928.15 486.8 930.22 487.7 932.3 488.61 934.34 489.46 936.4 490.32 938.41 491.12 940.44 491.93 942.42 492.68 944.42 493.44 946.37 494.15 948.33 494.86 950.25 495.51 952.18 496.17 954.07 496.77 955.97 497.38 957.81 497.93 959.67 498.49 961.48 498.99 963.3 499.5 965.07 499.95 966.85 500.4 968.57 500.79 970.3 501.19 971.97 501.53 973.66 501.87 975.28 502.16 976.9 502.44 978.47 502.67 980.04 502.9 981.55 503.07 983.06 503.25 984.5 503.36 987.39 503.59 990 503.57 992.61 503.56 994.92 503.3 997.22 503.05 999.21 502.55 1001.18 502.05 1002.82 501.3 1004.45 500.55 1005.74 499.55 1007.02 498.56 1007.95 497.32 1007.95 497.32 1007.95 497.32 1008.79 496.05 1009.38 494.59 1009.94 493.14 1010.25 491.51 1010.55 489.88 1010.59 488.07 1010.34 486.14 1010.13 484.15 1010.13 484.15 1010.13 484.15 1009.99 482.91 1009.86 481.72 1009.72 480.52 1009.51 479.32 1008.96 476.84 1008.13 474.38 1007.31 471.91 1006.27 469.45 1005.19 467 1003.92 464.54 1002.61 462.09 1001.12 459.64 999.61 457.18 997.92 454.72 996.22 452.25 994.36 449.77 992.51 447.27 990.53 444.74 988.57 442.19 986.51 439.6 984.5 436.96 982.42 434.27 980.41 431.52 978.35 428.7 976.38 425.81 974.37 422.84 973.41 421.34 972.43 419.81 971.47 418.27 970.5 416.7 969.55 415.13 968.59 413.53 967.65 411.93 966.69 410.31 965.75 408.68 964.78 407.04 963.83 405.38 962.86 403.72 961.9 402.05 960.91 400.37 959.93 398.69 958.92 397 958.92 397 958.92 397 957.79 395.12 956.64 393.28 955.49 391.44 954.32 389.62 953.15 387.81 951.96 386.03 950.77 384.26 949.55 382.52 948.33 380.78 947.08 379.08 945.83 377.38 944.55 375.72 943.27 374.07 941.96 372.45 940.64 370.85 939.29 369.27 937.94 367.71 936.55 366.19 935.17 364.67 933.75 363.19 932.32 361.72 930.87 360.29 929.41 358.87 927.91 357.49 926.41 356.12 924.89 354.78 923.35 353.46 921.78 352.18 920.21 350.9 918.6 349.67 916.99 348.45 915.35 347.27 915.35 347.27 915.35 347.27 913.84 346.2 912.35 345.2 910.86 344.2 909.38 343.27 907.89 342.36 906.41 341.5 904.94 340.65 903.47 339.87 902 339.1 900.55 338.39 899.09 337.68 897.64 337.05 896.19 336.42 894.76 335.86 893.32 335.3 891.89 334.81 890.47 334.32 889.05 333.9 887.64 333.49 886.24 333.14 884.84 332.79 883.45 332.51 882.06 332.24 880.68 332.03 879.31 331.82 877.95 331.69 876.58 331.55 875.24 331.48 873.89 331.42 872.56 331.41 871.23 331.42 869.91 331.48 868.6 331.56 867.3 331.69 866 331.83 864.72 332.03 863.44 332.23 862.18 332.5 860.92 332.77 859.68 333.11 858.44 333.44 857.23 333.84 856.01 334.24 854.81 334.7 853.62 335.17 852.44 335.69 851.27 336.22 850.12 336.8 848.98 337.39 847.85 338.04 846.74 338.69 845.64 339.4 844.55 340.11 843.48 340.88 842.42 341.65 841.38 342.48 840.35 343.31 839.34 344.2 838.33 345.09 837.36 346.03 836.38 346.98 835.43 347.99 834.49 349 833.57 350.06 833.57 350.06 833.57 350.06 832.18 351.74 830.88 353.52 829.6 355.31 828.4 357.21 827.21 359.11 826.11 361.13 825.01 363.14 824.01 365.26 823.01 367.39 822.09 369.63 821.18 371.87 820.36 374.21 819.54 376.56 818.8 379.02 818.06 381.48 817.41 384.05 816.76 386.62 816.2 389.3 815.63 391.98 815.15 394.77 814.67 397.56 814.27 400.46 814.07 401.91 813.89 403.39 813.71 404.86 813.55 406.37 813.39 407.87 813.25 409.4 813.11 410.93 812.99 412.49 812.87 414.04 812.78 415.63 812.68 417.21 812.6 418.82 812.52 420.43 812.46 422.07 812.4 423.71 812.36 425.37 812.32 427.04 812.3 428.73 812.28 430.42 812.28 432.13 812.28 432.13 812.28 432.13 812.28 434.93 812.33 437.7 812.37 440.46 812.46 443.19 812.55 445.92 812.68 448.62 812.81 451.31 812.98 453.97 813.16 456.64 813.37 459.26 813.59 461.89 813.85 464.48 814.11 467.07 814.41 469.63 814.71 472.18 815.05 474.7 815.39 477.22 815.78 479.7 816.16 482.18 816.58 484.62 817.01 487.06 817.47 489.47 817.93 491.87 818.44 494.24 818.94 496.6 819.49 498.92 820.03 501.25 820.61 503.53 821.19 505.81 821.81 508.05 822.43 510.28 823.09 512.48 823.75 514.67 824.44 516.82 825.13 518.96 825.86 521.06 826.58 523.15 827.34 525.2 828.09 527.25 828.87 529.24 829.64 531.23 830.44 533.18 831.24 535.11 832.06 537 832.87 538.87 833.71 540.7 834.54 542.52 835.39 544.29 836.23 546.05 837.1 547.76 837.96 549.46 838.85 551.11 839.72 552.75 840.62 554.34 841.51 555.92 842.43 557.45 843.34 558.98 844.28 560.46 845.21 561.93 846.17 563.36 847.12 564.77 848.11 566.15 849.09 567.52 850.09 568.84 850.09 568.84 850.09 568.84 851.05 570.09 852.03 571.29 853 572.48 853.99 573.61 854.98 574.73 855.99 575.8 856.99 576.86 858.02 577.87 859.05 578.88 860.09 579.83 861.13 580.78 862.2 581.68 863.26 582.58 864.35 583.43 865.43 584.27 866.54 585.07 867.64 585.86 868.77 586.59 869.9 587.32 871.06 588 872.21 588.68 873.39 589.31 874.57 589.94 875.78 590.51 876.98 591.1 878.2 591.64 879.43 592.19 880.68 592.69 881.94 593.14 883.24 593.48 884.55 593.82 885.85 594.25 885.85 594.25 885.85 594.25 886.99 594.65 888.1 595.09 889.22 595.53 890.32 595.94 891.44 596.24 892.56 596.51 893.67 596.77 894.8 596.93 895.93 597.07 897.05 597.16 898.18 597.25 899.3 597.3 900.42 597.35 901.54 597.36 902.65 597.37 903.76 597.33 904.88 597.3 905.99 597.22 907.1 597.15 908.21 597.03 909.33 596.92 910.45 596.76 911.57 596.61 912.69 596.42 913.82 596.23 914.95 596 916.08 595.78 917.23 595.52 918.38 595.27 919.54 594.98 920.72 594.69 921.9 594.37 923.1 594.06 924.31 593.72 925.55 593.39 926.79 593.02 928.06 592.66 929.35 592.28 930.66 591.91 931.99 591.5 933.35 591.12 934.73 590.7 936.14 590.3 937.57 589.88 939.02 589.47 940.5 589.03 942 588.61 943.52 588.16 945.06 587.73 946.61 587.26 948.18 586.82 949.76 586.34 951.35 585.87 952.94 585.37 954.54 584.88 956.13 584.36 957.74 583.84 959.33 583.29 960.93 582.74 962.52 582.16 964.11 581.58 965.69 580.95 967.26 580.34 968.82 579.68 968.82 579.68 968.82 579.68 971.2 578.75 973.44 577.74 975.67 576.74 977.77 575.65 979.86 574.55 981.8 573.37 983.73 572.18 985.52 570.9 985.52 570.9 985.52 570.9"></path><path fill="#375152" d="M126.7 559.47Q126.7 559.47 126.7 559.47 126.29 557.07 125.92 554.72 125.56 552.37 125.26 550.07 124.97 547.77 124.73 545.53 124.5 543.28 124.32 541.09 124.16 538.89 124.04 536.75 123.94 534.61 123.87 532.52 123.83 530.43 123.82 528.39 123.82 526.35 123.87 524.36 123.93 522.38 124.02 520.45 124.13 518.51 124.27 516.63 124.42 514.75 124.61 512.93 124.81 511.1 125.03 509.33 125.27 507.56 125.54 505.84 125.81 504.12 126.12 502.45 126.43 500.79 126.77 499.18 127.11 497.56 127.49 496.01 127.86 494.45 128.26 492.95 128.67 491.44 129.1 490 129.53 488.55 129.99 487.16 130.44 485.76 130.92 484.42 131.89 481.74 132.94 479.29 133.99 476.83 135.12 474.6 136.25 472.36 137.46 470.36 138.66 468.35 139.94 466.58 141.21 464.8 142.56 463.25 143.9 461.7 145.32 460.39 145.32 460.39 145.32 460.39 147.05 458.85 148.95 457.54 150.84 456.22 152.89 455.12 154.93 454.03 157.12 453.16 159.32 452.3 161.67 451.67 164.02 451.05 166.52 450.66 169.03 450.28 171.69 450.14 174.36 450 177.18 450.11 180 450.22 182.99 450.57 182.99 450.57 182.99 450.57 185.51 450.87 187.91 451.31 190.31 451.76 192.6 452.34 194.89 452.93 197.07 453.66 199.24 454.4 201.31 455.28 203.37 456.17 205.33 457.2 207.28 458.24 209.12 459.42 210.97 460.61 212.7 461.94 214.44 463.28 216.06 464.76 217.69 466.24 219.21 467.86 220.73 469.48 222.14 471.25 223.55 473.02 224.86 474.93 226.17 476.84 227.37 478.89 228.57 480.94 229.66 483.14 230.76 485.33 231.75 487.67 232.74 490 233.62 492.48 234.51 494.96 235.28 497.57 235.28 497.57 235.28 497.57 235.8 499.27 236.3 501.07 236.79 502.88 237.26 504.8 237.73 506.72 238.18 508.75 238.62 510.79 239.04 512.93 239.46 515.08 239.86 517.34 240.26 519.6 240.63 521.97 241.01 524.34 241.36 526.83 241.71 529.31 242.04 531.91 242.36 534.51 242.67 537.22 242.97 539.93 243.26 542.75 243.54 545.57 243.8 548.5 244.06 551.44 244.3 554.48 244.54 557.53 244.76 560.68 244.87 562.26 244.98 563.87 245.08 565.48 245.18 567.11 245.28 568.75 245.38 570.41 245.47 572.07 245.56 573.76 245.66 575.45 245.74 577.17 245.83 578.89 245.91 580.64 245.91 580.64 245.91 580.64 246.04 583.44 246.15 586.17 246.27 588.9 246.35 591.57 246.44 594.23 246.51 596.83 246.58 599.42 246.63 601.95 246.67 604.48 246.7 606.93 246.72 609.39 246.72 611.78 246.73 614.17 246.71 616.49 246.69 618.81 246.65 621.06 246.61 623.31 246.55 625.49 246.49 627.67 246.41 629.78 246.33 631.9 246.22 633.94 246.12 635.99 245.99 637.96 245.87 639.93 245.72 641.84 245.58 643.74 245.41 645.58 245.24 647.42 245.06 649.18 244.87 650.95 244.66 652.64 244.45 654.34 244.22 655.97 243.99 657.59 243.73 659.15 243.48 660.7 243.21 662.19 242.93 663.67 242.64 665.09 242.05 667.92 241.37 670.46 240.7 673.01 239.93 675.26 239.16 677.52 238.3 679.49 237.45 681.45 236.5 683.13 235.56 684.8 234.52 686.18 233.48 687.56 232.35 688.64 232.35 688.64 232.35 688.64 231.03 689.81 229.59 690.73 228.16 691.65 226.6 692.32 225.05 692.98 223.38 693.39 221.71 693.8 219.91 693.95 218.11 694.1 216.19 694 214.27 693.88 212.22 693.51 210.17 693.14 207.98 692.5 205.8 691.86 203.48 690.96 203.48 690.96 203.48 690.96 201.43 690.16 199.46 689.23 197.5 688.31 195.61 687.26 193.73 686.21 191.92 685.04 190.11 683.86 188.36 682.57 186.61 681.27 184.92 679.85 183.23 678.43 181.59 676.9 179.95 675.37 178.36 673.72 176.77 672.07 175.24 670.32 173.69 668.56 172.2 666.7 170.7 664.85 169.25 662.89 167.79 660.94 166.38 658.88 164.95 656.84 163.58 654.7 162.2 652.57 160.86 650.34 159.51 648.12 158.2 645.81 156.88 643.52 155.61 641.13 154.32 638.75 153.09 636.28 153.09 636.28 153.09 636.28 152.25 634.63 151.41 632.88 150.56 631.14 149.7 629.31 148.84 627.48 147.97 625.55 147.1 623.63 146.22 621.62 145.33 619.61 144.45 617.5 143.56 615.4 142.66 613.21 141.77 611.02 140.88 608.73 139.99 606.45 139.1 604.07 138.22 601.69 137.34 599.21 136.47 596.74 135.61 594.16 134.76 591.59 133.92 588.91 133.09 586.23 132.29 583.46 131.89 582.06 131.5 580.65 131.11 579.23 130.73 577.79 130.36 576.34 129.99 574.87 129.63 573.4 129.27 571.91 128.92 570.41 128.58 568.88 128.25 567.35 127.92 565.8 127.61 564.24 127.3 562.66 127 561.08 126.7 559.47 126.7 559.47 126.7 559.47M186.13 435.15Q186.13 435.15 186.13 435.15 183.74 434.85 181.38 434.61 179.02 434.38 176.69 434.21 174.36 434.05 172.06 433.94 169.76 433.83 167.5 433.78 165.24 433.72 163.01 433.72 160.77 433.72 158.58 433.78 156.38 433.85 154.21 433.98 152.04 434.13 149.9 434.4 147.75 434.71 145.64 435.07 143.52 435.42 141.44 435.78 139.36 436.1 137.31 436.45 135.26 436.79 133.23 437.17 131.21 437.55 129.21 437.99 127.2 438.43 125.23 438.92 123.25 439.42 121.29 439.98 119.33 440.54 117.39 441.16 115.45 441.78 113.52 442.46 111.59 443.13 109.68 443.86 107.76 444.58 105.86 445.35 103.95 446.11 102.06 446.92 100.15 447.73 98.26 448.59 96.35 449.44 94.46 450.34 92.55 451.23 90.65 452.17 88.73 453.11 86.83 454.09 84.9 455.06 82.98 456.08 81.04 457.09 79.11 458.14 77.16 459.19 75.22 460.28 73.26 461.36 71.31 462.49 69.34 463.6 67.38 464.76 65.4 465.91 63.45 467.1 61.47 468.29 59.52 469.52 57.55 470.74 55.62 472.01 55.62 472.01 55.62 472.01 52.89 473.81 50.29 475.67 47.69 477.52 45.23 479.43 42.78 481.33 40.48 483.29 38.2 485.25 36.08 487.28 33.99 489.3 32.08 491.39 30.2 493.48 28.5 495.63 26.85 497.77 25.38 499.96 23.96 502.13 22.74 504.34 21.56 506.56 20.59 508.9 19.67 511.32 18.95 513.85 18.29 516.33 17.83 518.82 17.43 521.3 17.23 523.83 17.08 526.35 17.15 528.92 17.25 531.49 17.59 534.1 17.95 536.71 18.44 539.03 18.93 541.2 19.67 543.61 19.67 543.61 19.67 543.61 20.27 545.46 20.93 547.29 21.63 549.11 22.41 550.91 23.19 552.71 24.05 554.48 24.95 556.25 25.91 558 26.88 559.74 27.94 561.46 29.01 563.17 30.14 564.87 31.29 566.56 32.52 568.22 33.75 569.88 35.06 571.52 36.37 573.15 37.76 574.76 39.15 576.36 40.6 577.94 42.06 579.5 43.58 581.05 45.1 582.57 46.67 584.06 48.23 585.53 49.83 586.96 51.43 588.37 53.08 589.76 54.73 591.14 56.44 592.53 58.17 593.92 59.94 595.3 61.72 596.69 63.55 598.08 65.38 599.46 67.25 600.84 69.11 602.21 71.01 603.58 72.91 604.94 74.83 606.3 76.75 607.65 78.69 609 80.62 610.36 82.58 611.72 84.52 613.08 86.48 614.44 88.43 615.81 90.4 617.19 92.34 618.58 94.3 619.97 96.24 621.38 98.19 622.8 100.12 624.24 102.05 625.69 103.96 627.16 105.87 628.64 107.75 630.14 109.64 631.65 111.5 633.19 113.36 634.74 115.2 636.31 117.03 637.9 118.84 639.51 120.66 641.13 120.66 641.13 120.66 641.13 123.48 643.74 126.25 646.31 128.96 648.91 131.64 651.47 134.26 654.06 136.86 656.58 139.43 659.13 141.98 661.6 144.51 664.09 147.03 666.49 149.54 668.91 152.05 671.23 154.53 673.54 157.02 675.76 159.52 677.98 162.06 680.12 164.64 682.27 167.29 684.34 169.95 686.41 172.6 688.35 175.15 690.23 177.63 691.96 180.09 693.66 182.57 695.26 185.23 696.92 188.08 698.53 189.48 699.33 190.78 700.04 192.02 700.73 193.27 701.39 194.52 702.05 195.78 702.67 197.03 703.29 198.28 703.82 199.52 704.29 200.89 704.83 202.37 705.41 203.87 706.03 203.87 706.03 203.87 706.03 205.92 706.87 207.96 707.74 210 708.6 212 709.41 213.76 709.99 215.42 710.49 217.1 710.99 218.94 711.5 220.86 712.03 222.74 712.48 224.48 712.88 226.09 713.17 227.72 713.47 229.4 713.73 231.18 714.01 232.92 714.22 234.62 714.42 236.22 714.52 237.82 714.61 239.41 714.65 241.04 714.69 242.66 714.67 244.27 714.64 245.84 714.54 247.41 714.44 248.95 714.26 250.51 714.09 252.05 713.86 253.6 713.62 255.12 713.32 256.65 713.01 258.15 712.63 259.64 712.25 261.1 711.8 262.57 711.35 264 710.83 265.44 710.31 266.84 709.72 268.26 709.13 269.65 708.48 271.04 707.82 272.41 707.11 273.78 706.38 275.14 705.6 276.49 704.81 277.82 703.96 279.16 703.11 280.47 702.2 281.79 701.29 283.09 700.31 284.39 699.33 285.66 698.3 286.94 697.26 288.2 696.16 289.46 695.06 290.7 693.9 291.95 692.74 293.17 691.52 294.4 690.3 295.6 689.02 296.81 687.74 298 686.4 299.19 685.06 300.36 683.66 300.36 683.66 300.36 683.66 302.12 681.55 303.77 679.37 305.44 677.18 307 674.92 308.57 672.66 310.03 670.32 311.5 667.98 312.86 665.57 314.23 663.15 315.48 660.66 316.75 658.17 317.9 655.61 319.05 653.04 320.09 650.4 321.13 647.76 322.06 645.04 322.99 642.32 323.81 639.53 324.63 636.74 325.33 633.87 326.03 631 326.62 628.06 327.21 625.11 327.68 622.09 328.16 619.07 328.51 615.98 328.87 612.88 329.1 609.72 329.22 608.13 329.31 606.53 329.4 604.93 329.42 603.29 329.36 601.65 329.33 600 329.3 598.34 329.3 596.68 329.3 596.68 329.3 596.68 329.3 594.47 329.35 592.3 329.39 590.13 329.39 587.98 329.3 585.81 329.15 583.66 329.01 581.51 328.82 579.38 328.63 577.25 328.39 575.14 328.15 573.03 327.87 570.94 327.58 568.86 327.25 566.79 326.91 564.72 326.53 562.68 326.14 560.63 325.71 558.61 325.28 556.58 324.79 554.58 324.31 552.58 323.78 550.6 323.25 548.61 322.66 546.65 322.08 544.69 321.45 542.75 320.81 540.82 320.13 538.9 319.44 536.98 318.7 535.09 317.96 533.19 317.17 531.32 316.37 529.44 315.53 527.59 314.68 525.74 313.77 523.91 312.86 522.08 311.9 520.28 310.93 518.47 309.92 516.69 308.89 514.9 307.82 513.14 306.74 511.38 305.61 509.64 304.48 507.9 303.31 506.19 302.13 504.47 300.9 502.78 299.67 501.09 298.4 499.42 297.12 497.75 295.8 496.11 294.48 494.47 293.12 492.85 291.75 491.23 290.34 489.63 288.93 488.04 287.48 486.47 286.03 484.9 284.53 483.35 283.03 481.81 281.49 480.29 279.95 478.77 278.37 477.27 278.37 477.27 278.37 477.27 275.92 475.04 273.43 472.91 270.93 470.79 268.39 468.77 265.84 466.77 263.24 464.87 260.64 462.98 257.99 461.19 255.34 459.41 252.64 457.73 249.93 456.07 247.17 454.53 244.41 453 241.58 451.6 238.76 450.2 235.88 448.91 233 447.6 230.07 446.37 227.15 445.11 224.17 443.95 221.2 442.78 218.16 441.73 215.12 440.71 212.01 439.87 208.89 439.05 205.72 438.35 204.13 438 202.53 437.69 200.93 437.37 199.31 437.08 197.69 436.78 196.06 436.52 194.43 436.25 192.78 436.02 191.13 435.78 189.47 435.56 187.81 435.35 186.13 435.15 186.13 435.15 186.13 435.15M608.5 745.87Q608.5 745.87 608.5 745.87 605.25 746.04 601.99 746.22 598.72 746.41 595.46 746.6 592.2 746.79 588.93 746.98 585.67 747.16 582.41 747.34 579.14 747.51 575.88 747.68 572.61 747.84 569.33 747.99 566.05 748.14 562.77 748.28 559.48 748.41 556.19 748.53 556.11 746.28 556.04 744.07 555.98 741.88 555.92 739.73 555.86 737.6 555.81 735.51 555.76 733.43 555.71 731.38 555.66 729.35 555.62 727.34 555.58 725.35 555.54 723.37 555.5 721.4 555.47 719.46 555.44 717.52 555.4 715.59 555.37 713.68 555.34 711.77 555.32 709.87 555.29 707.98 555.26 706.1 555.24 704.22 555.21 702.35 555.19 700.48 555.17 698.62 555.15 696.76 555.13 694.91 555.11 693.06 555.09 691.22 555.07 689.37 555.05 687.53 555.03 685.7 555.02 683.86 555 682.03 554.98 680.2 554.97 678.38 554.96 676.55 554.94 674.73 554.93 672.91 554.92 671.09 554.9 669.27 554.89 667.45 554.88 665.64 554.87 663.82 554.86 662.01 554.85 660.19 554.84 658.38 554.83 656.57 554.82 654.76 554.81 652.95 554.81 651.14 554.8 649.34 554.79 647.53 554.78 645.72 554.78 643.92 554.77 642.11 554.77 640.31 554.76 638.5 554.76 636.7 554.75 634.89 554.75 633.09 554.74 631.29 554.74 629.48 554.73 627.68 554.73 625.88 554.73 624.08 554.72 622.28 554.72 620.47 554.72 618.67 554.72 616.87 554.72 615.07 554.71 613.27 554.71 611.47 554.71 609.67 554.71 607.87 554.71 606.07 554.71 604.27 554.71 602.47 554.71 600.67 554.71 598.87 554.72 597.06 554.72 595.26 554.72 593.46 554.72 591.66 554.73 589.86 554.73 588.06 554.73 586.26 554.74 584.45 554.74 582.65 554.75 580.85 554.76 579.05 554.76 577.24 554.77 575.44 554.78 573.63 554.79 571.83 554.8 570.02 554.81 568.21 554.82 566.4 554.84 564.59 554.85 562.78 554.87 560.96 554.88 559.15 554.9 557.33 554.92 555.51 554.94 553.69 554.96 551.87 554.99 550.04 555.01 548.21 555.03 546.37 555.06 544.53 555.09 542.69 555.11 540.84 555.14 538.99 555.17 537.13 555.2 535.26 555.24 533.39 555.27 531.51 555.3 529.61 555.34 527.71 555.37 525.8 555.41 523.88 555.45 521.95 555.48 520 555.52 518.05 555.55 516.1 555.58 514.15 555.59 512.24 555.59 510.35 552.18 509.44 548.84 508.29 545.5 507.14 542.09 506.23 538.63 505.46 535.18 504.69 531.75 503.85 528.31 503.01 524.9 502.09 521.53 501.02 518.16 499.96 514.74 499.06 511.3 498.23 507.86 497.4 504.41 496.61 500.97 495.81 497.54 494.93 494.14 493.96 490.74 492.99 487.34 492.02 483.95 491.05 480.54 490.11 477.1 489.3 473.65 488.49 470.21 487.68 466.76 486.88 463.32 486.07 459.88 485.25 456.44 484.43 452.99 483.62 449.55 482.82 446.1 482.03 442.66 481.21 439.22 480.38 435.78 479.55 432.33 478.76 428.88 477.98 425.44 477.18 422 476.33 418.57 475.49 415.12 474.7 411.67 473.93 408.22 473.15 404.78 472.3 401.35 471.46 397.9 470.65 394.44 469.92 390.98 469.18 387.5 468.59 384.01 468.06 380.52 467.49 377.08 466.66 373.64 465.84 370.2 465.02 366.76 464.22 363.31 463.43 359.84 462.76 356.37 462.13 352.9 461.49 349.43 460.86 345.95 460.23 342.5 459.51 339.05 458.71 335.61 457.91 335.61 459.35 335.61 460.79 335.61 462.23 335.61 463.68 335.61 465.12 335.61 466.56 335.61 468.01 335.61 469.45 340.84 470.47 346.09 471.5 351.33 472.55 356.58 473.6 361.83 474.67 367.08 475.75 372.33 476.84 377.59 477.94 382.84 479.04 388.09 480.14 393.35 481.26 398.6 482.39 403.84 483.54 409.09 484.7 414.33 485.88 419.57 487.06 419.55 488.91 419.52 490.76 419.49 492.6 419.47 494.45 419.45 496.29 419.42 498.12 419.4 499.96 419.38 501.79 419.37 503.63 419.35 505.45 419.33 507.28 419.32 509.1 419.3 510.93 419.29 512.75 419.28 514.56 419.27 516.38 419.25 518.2 419.24 520.01 419.23 521.82 419.23 523.63 419.22 525.44 419.21 527.24 419.2 529.05 419.19 530.86 419.19 532.66 419.18 534.46 419.17 536.26 419.17 538.06 419.16 539.86 419.16 541.66 419.15 543.46 419.15 545.26 419.14 547.05 419.14 548.85 419.14 550.64 419.13 552.44 419.13 554.23 419.13 556.02 419.13 557.82 419.12 559.61 419.12 561.4 419.12 563.19 419.12 564.98 419.12 566.77 419.12 568.56 419.12 570.35 419.11 572.14 419.11 573.93 419.11 575.72 419.11 577.51 419.11 579.3 419.11 581.09 419.12 582.88 419.12 584.67 419.12 586.46 419.12 588.24 419.12 590.03 419.12 591.82 419.12 593.61 419.13 595.4 419.13 597.18 419.13 598.97 419.13 600.76 419.14 602.55 419.14 604.34 419.14 606.13 419.15 607.92 419.15 609.71 419.16 611.49 419.16 613.28 419.17 615.07 419.17 616.86 419.18 618.65 419.18 620.45 419.19 622.24 419.2 624.03 419.2 625.82 419.21 627.61 419.22 629.41 419.23 631.2 419.24 632.99 419.25 634.79 419.26 636.58 419.27 638.38 419.28 640.17 419.29 641.97 419.3 643.77 419.31 645.57 419.33 647.37 419.34 649.17 419.36 650.97 419.38 652.77 419.39 654.58 419.41 656.38 419.43 658.19 419.45 660 419.48 661.8 419.5 663.61 419.53 665.43 419.55 667.24 419.58 669.05 419.61 670.87 419.65 672.69 419.68 674.51 419.72 676.33 419.76 678.16 419.81 679.99 419.85 681.82 419.9 683.65 419.95 685.48 420.01 687.32 420.07 689.16 420.13 691.01 420.19 692.86 420.26 694.71 420.34 696.57 420.41 698.43 420.49 700.29 420.57 702.16 420.66 704.04 420.75 705.92 420.84 707.81 420.93 709.7 421.02 711.6 421.12 713.51 421.21 715.43 421.31 717.35 421.41 719.28 421.52 721.63 421.08 723.71 420.64 725.8 419.64 727.63 418.65 729.46 417.1 731.02 415.55 732.59 413.44 733.87 411.34 735.15 408.69 736.13 406.04 737.11 402.85 737.79 399.65 738.46 395.91 738.81 392.18 739.15 387.9 739.17 387.9 739.17 387.9 739.17 383.48 739.1 378.34 738.8 375.77 738.64 373.02 738.42 370.26 738.2 367.33 737.92 364.4 737.63 361.29 737.3 358.17 736.96 354.88 736.57 351.59 736.18 348.1 735.75 344.61 735.33 340.91 734.87 340.91 734.87 340.91 734.87 341.08 736.31 341.24 737.76 341.41 739.2 341.57 740.64 341.74 742.09 341.9 743.53 342.06 744.98 342.37 746.26 346.26 746.95 350.76 747.76 355.2 748.54 359.32 749.24 364 750.01 368.69 750.76 373.37 751.48 378.05 752.17 382.72 752.84 387.39 753.47 391.85 754.06 396 754.59 400.18 755.1 404.72 755.63 409.39 756.15 414.07 756.65 418.73 757.12 423.39 757.57 428.04 757.99 432.69 758.4 437.33 758.77 441.48 759.09 445.72 759.39 450.39 759.7 455.05 759.99 459.71 760.25 464.36 760.5 469 760.72 473.63 760.91 478.26 761.08 482.88 761.23 487.5 761.36 492.1 761.47 496.7 761.55 501.29 761.61 505.87 761.65 510.47 761.67 515.03 761.66 519.59 761.64 524.17 761.6 528.77 761.53 533.37 761.43 537.97 761.32 542.59 761.19 547.21 761.03 551.84 760.85 556.48 760.65 561.12 760.43 565.78 760.18 570.43 759.9 575.1 759.61 579.72 759.29 583.7 759 588.15 758.65 592.79 758.27 597.44 757.87 602.09 757.43 606.76 756.98 611.42 756.5 616.09 756 620.77 755.46 625.08 754.95 629.24 754.44 632.58 753.83 632.97 752.17 632.6 750.66 631.76 749.14 630.08 748.07 628.39 747 625.86 746.4 623.33 745.82 619.96 745.73 619.96 745.73 619.96 745.73 617.35 745.64 614.49 745.67 611.62 745.71 608.5 745.87 608.5 745.87 608.5 745.87M761.46 707.73Q761.21 708.32 760.95 708.92 760.7 709.52 760.45 710.11 760.19 710.71 759.94 711.31 759.69 711.91 759.44 712.51 759.19 713.11 758.94 713.72 758.69 714.32 758.44 714.93 758.19 715.53 757.94 716.14 757.7 716.75 757.45 717.36 757.21 717.97 756.96 718.59 756.72 719.2 756.48 719.82 756.24 720.44 756 721.06 755.76 721.68 755.53 722.3 755.29 722.93 755.06 723.55 754.83 724.18 754.6 724.81 754.37 725.44 754.15 726.07 753.94 726.7 753.73 727.33 754.58 727.09 755.41 726.86 756.22 726.63 757.03 726.4 757.83 726.17 758.64 725.94 759.45 725.71 760.27 725.47 761.12 725.22 761.97 724.97 762.84 724.71 763.72 724.46 764.6 724.19 765.49 723.93 766.38 723.67 767.26 723.4 768.15 723.13 769.03 722.87 769.91 722.6 770.78 722.33 771.64 722.07 772.49 721.81 773.31 721.55 774.13 721.3 774.93 721.05 775.73 720.8 776.54 720.55 777.35 720.29 778.17 720.03 779.01 719.76 779.86 719.49 780.71 719.22 781.58 718.94 782.44 718.66 783.29 718.39 784.13 718.11 784.95 717.84 785.76 717.58 786.56 717.32 787.36 717.05 788.16 716.79 788.97 716.52 789.8 716.24 790.63 715.96 791.48 715.68 792.34 715.39 793.2 715.1 794.06 714.81 794.91 714.53 795.75 714.25 796.57 713.97 797.39 713.7 798.2 713.43 799.01 713.16 799.83 712.9 800.65 712.63 801.5 712.36 802.36 712.1 803.24 711.84 804.14 711.6 805.07 711.38 806.02 711.19 807.01 711.07 807.88 711.02 808.52 710.78 809.16 710.56 809.69 710.34 810.04 710.15 810.8 709.74 811.07 709.41 811.34 709.09 811.02 708.91 810.7 708.73 809.79 708.72 809.79 708.72 809.79 708.72 809.02 708.74 808.02 708.82 807.03 708.91 805.82 709.08 805.82 709.08 805.82 709.08 804.85 709.23 803.88 709.39 802.92 709.56 801.97 709.75 801.03 709.94 800.09 710.13 799.15 710.34 798.23 710.55 797.3 710.76 796.38 710.98 795.47 711.2 794.56 711.42 793.65 711.65 792.74 711.88 791.84 712.11 790.94 712.34 791.81 711.52 792.69 710.72 793.6 709.94 794.51 709.17 795.44 708.42 796.38 707.67 797.34 706.95 798.29 706.23 799.26 705.52 800.23 704.81 801.21 704.12 802.19 703.43 803.18 702.74 804.17 702.06 805.17 701.39 806.16 700.71 807.16 700.04 808.17 699.37 809.17 698.7 810.18 698.03 811.19 697.37 812.21 696.7 813.22 696.03 814.23 695.37 815.25 694.7 816.27 694.03 817.28 693.36 818.3 692.69 819.32 692.02 820.34 691.35 821.35 690.68 822.37 690.01 823.39 689.33 824.4 688.65 825.42 687.98 826.43 687.3 827.45 686.62 828.46 685.93 829.47 685.25 830.48 684.56 831.48 683.88 832.49 683.19 833.49 682.49 834.5 681.8 835.5 681.11 836.5 680.41 837.5 679.71 838.49 679.01 839.49 678.31 840.48 677.6 841.48 676.89 842.47 676.18 843.46 675.46 844.45 674.75 845.44 674.03 846.42 673.31 847.41 672.58 848.39 671.86 849.37 671.13 850.35 670.39 851.33 669.66 852.31 668.92 853.28 668.18 854.25 667.44 855.23 666.69 856.2 665.94 857.16 665.19 858.13 664.43 859.1 663.67 860.06 662.91 861.02 662.15 861.98 661.38 862.93 660.61 863.88 659.84 864.83 659.06 865.78 658.29 866.73 657.5 867.67 656.72 868.61 655.93 869.55 655.14 870.48 654.35 871.41 653.55 872.34 652.75 873.27 651.94 874.19 651.14 875.11 650.32 876.03 649.51 876.95 648.69 877.86 647.86 878.77 647.04 879.67 646.21 880.58 645.37 881.48 644.53 882.37 643.68 883.26 642.83 884.15 641.98 885.03 641.12 885.9 640.26 886.77 639.39 887.64 638.52 888.49 637.65 889.34 636.77 890.19 635.88 891.02 634.99 891.85 634.09 892.67 633.19 893.48 632.28 894.29 631.36 895.08 630.43 895.86 629.5 896.63 628.55 897.39 627.6 898.13 626.64 898.87 625.67 899.58 624.69 900.29 623.69 900.97 622.69 901.64 621.68 902.29 620.65 902.92 619.62 903.53 618.58 904.12 617.52 904.69 616.46 905.25 615.39 905.79 614.3 906.31 613.21 906.83 612.1 907.33 610.97 905.35 610.43 903.36 609.89 901.38 609.35 899.4 608.81 897.41 608.27 895.43 607.73 893.46 607.15 891.52 606.46 889.58 605.78 887.64 605.09 885.71 604.41 883.75 603.78 881.78 603.18 879.82 602.59 877.85 601.99 875.89 601.39 873.91 600.83 871.93 600.27 869.96 599.71 867.98 599.15 866 598.58 864.03 598 862.06 597.43 860.08 596.85 858.11 596.28 856.13 595.73 854.14 595.19 852.16 594.64 850.18 594.1 848.2 593.53 846.24 592.94 844.27 592.35 842.3 591.75 840.33 591.17 838.35 590.62 836.36 590.08 834.38 589.54 832.4 588.99 830.42 588.43 828.45 587.86 826.47 587.28 824.5 586.7 822.53 586.12 820.56 585.53 818.59 584.94 816.62 584.35 814.65 583.76 812.68 583.18 810.7 582.61 808.72 582.05 806.75 581.48 804.77 580.92 802.79 580.36 800.81 579.81 798.83 579.25 796.85 578.69 794.88 578.13 792.91 577.54 790.94 576.95 788.97 576.36 787 575.77 785.03 575.18 783.06 574.59 781.09 574 780.79 574.81 780.48 575.62 780.17 576.44 779.87 577.26 779.56 578.08 779.26 578.9 778.95 579.72 778.65 580.55 780.29 581.01 781.92 581.48 783.56 581.95 785.2 582.42 786.83 582.89 788.47 583.36 790.11 583.83 791.74 584.3 793.38 584.77 795.02 585.24 796.66 585.7 798.3 586.17 799.93 586.64 801.57 587.11 803.21 587.57 804.85 588.04 806.49 588.51 808.13 588.98 809.76 589.45 811.4 589.92 813.04 590.39 814.68 590.86 816.32 591.33 817.96 591.8 819.59 592.27 821.23 592.74 822.87 593.21 824.51 593.68 826.15 594.15 827.79 594.61 829.43 595.08 831.07 595.55 830.7 596.37 830.32 597.18 829.94 598 829.57 598.81 829.18 599.63 828.8 600.44 828.41 601.25 828.03 602.06 827.64 602.86 827.24 603.67 826.85 604.47 826.45 605.27 826.06 606.07 825.66 606.87 825.25 607.67 824.85 608.46 824.44 609.26 824.03 610.05 823.62 610.84 823.21 611.63 822.8 612.41 822.38 613.2 821.96 613.98 821.54 614.76 821.12 615.54 820.7 616.32 820.27 617.1 819.85 617.87 819.42 618.65 818.99 619.42 818.55 620.19 818.12 620.96 817.68 621.72 817.25 622.49 816.81 623.25 816.37 624.02 815.93 624.78 815.48 625.54 815.04 626.3 814.59 627.05 814.14 627.81 813.69 628.56 813.24 629.32 812.79 630.07 812.34 630.82 811.88 631.57 811.43 632.32 810.97 633.06 810.51 633.81 810.05 634.55 809.59 635.3 809.13 636.04 808.67 636.78 808.2 637.52 807.74 638.26 807.27 639 806.8 639.73 806.33 640.47 805.87 641.2 805.4 641.94 804.92 642.67 804.45 643.4 803.98 644.13 803.5 644.86 802.29 643.97 801.01 643.1 799.72 642.23 798.35 641.37 796.98 640.51 795.54 639.68 794.1 638.83 792.58 638.01 791.06 637.19 789.48 636.39 787.88 635.58 786.22 634.8 784.56 634.02 782.83 633.26 781.09 632.5 779.29 631.77 777.49 631.03 775.63 630.32 773.76 629.61 771.83 628.93 769.89 628.24 767.9 627.59 765.9 626.94 763.85 626.31 761.79 625.69 759.68 625.1 757.57 624.51 755.4 623.95 753.23 623.4 751 622.87 748.78 622.35 746.5 621.87 746.5 621.87 746.5 621.87 744.98 621.55 743.47 621.25 741.96 620.95 740.46 620.68 738.97 620.4 737.48 620.15 736 619.91 734.54 619.68 733.07 619.46 731.62 619.26 730.17 619.06 728.74 618.89 727.3 618.72 725.89 618.57 724.47 618.43 723.07 618.31 721.67 618.19 720.29 618.1 718.91 618.01 717.54 617.95 716.18 617.89 714.83 617.85 713.49 617.82 712.16 617.81 710.83 617.81 709.52 617.83 708.22 617.85 706.93 617.9 705.64 617.96 704.37 618.04 703.11 618.12 701.86 618.23 700.61 618.34 699.38 618.48 698.15 618.62 696.95 618.79 695.74 618.97 694.55 619.17 693.37 619.37 692.2 619.6 691.04 619.83 689.89 620.09 688.75 620.36 687.63 620.65 686.51 620.94 685.4 621.26 684.3 621.59 683.22 621.94 682.14 622.29 681.08 622.68 680.02 623.06 678.99 623.48 677.95 623.89 676.93 624.34 675.92 624.78 674.92 625.26 673.93 625.74 672.95 626.24 671.98 626.75 671.03 627.28 670.08 627.82 669.14 628.39 668.21 628.96 667.3 629.55 667.3 629.55 667.3 629.55 666.51 630.1 665.75 630.66 664.99 631.22 664.26 631.8 663.52 632.38 662.81 632.98 662.11 633.58 661.43 634.19 660.75 634.81 660.1 635.44 659.44 636.08 658.82 636.72 658.19 637.37 657.59 638.04 656.99 638.71 656.42 639.39 655.84 640.07 655.3 640.77 654.75 641.47 654.23 642.18 653.71 642.9 653.21 643.63 652.71 644.36 652.24 645.11 651.77 645.86 651.32 646.62 650.88 647.38 650.46 648.16 650.04 648.94 649.64 649.73 649.25 650.52 648.87 651.33 648.5 652.14 648.16 652.96 647.81 653.79 647.49 654.62 647.16 655.46 646.87 656.32 646.57 657.17 646.29 658.04 646.02 658.9 645.77 659.79 645.52 660.67 645.29 661.56 645.06 662.46 644.86 663.37 644.65 664.28 644.47 665.2 644.29 666.13 644.14 667.07 643.98 668 643.84 668.96 643.71 669.91 643.6 670.87 643.49 671.84 643.4 672.82 643.31 673.8 643.24 674.79 643.18 675.78 643.13 676.78 643.09 677.79 643.07 678.81 643.04 679.82 643.04 680.85 643.04 680.85 643.04 680.85 643.04 682.13 643.08 683.39 643.11 684.65 643.18 685.89 643.24 687.13 643.35 688.36 643.45 689.58 643.58 690.78 643.71 691.98 643.88 693.17 644.05 694.35 644.25 695.51 644.44 696.67 644.68 697.82 644.91 698.96 645.17 700.08 645.43 701.2 645.73 702.3 646.03 703.4 646.36 704.48 646.69 705.56 647.07 706.62 647.44 707.68 647.86 708.71 648.28 709.75 648.74 710.76 649.21 711.77 649.7 712.76 650.19 713.75 650.71 714.72 651.23 715.68 651.78 716.62 652.32 717.56 652.89 718.48 653.46 719.39 654.05 720.28 654.64 721.16 655.25 722.02 655.86 722.88 656.49 723.71 657.11 724.54 657.76 725.34 658.4 726.14 659.06 726.91 659.71 727.68 660.39 728.42 661.05 729.15 661.74 729.85 662.41 730.55 663.1 731.22 663.78 731.88 664.48 732.52 665.17 733.15 665.87 733.74 666.57 734.33 667.28 734.9 667.97 735.45 668.69 735.98 669.39 736.5 670.11 736.99 670.82 737.47 671.55 737.92 672.27 738.37 673 738.79 673 738.79 673 738.79 673.83 739.28 674.66 739.71 675.49 740.13 676.32 740.51 677.16 740.89 678.01 741.22 678.86 741.54 679.72 741.82 680.58 742.09 681.45 742.32 682.32 742.55 683.19 742.74 684.05 742.93 684.9 743.08 685.74 743.23 686.58 743.34 687.42 743.45 688.29 743.51 689.19 743.57 690.14 743.58 691.11 743.58 692.11 743.55 693.12 743.51 694.15 743.43 695.18 743.35 696.23 743.22 697.28 743.1 698.36 742.94 699.44 742.78 700.56 742.51 701.68 742.24 702.81 741.99 702.81 741.99 702.81 741.99 703.75 741.79 704.66 741.61 705.57 741.43 706.47 741.25 707.26 741.03 708.04 740.81 708.82 740.58 709.6 740.33 710.38 740.09 711.15 739.82 711.95 739.56 712.8 739.25 713.68 738.95 714.56 738.62 715.43 738.3 716.3 737.96 717.15 737.62 717.98 737.27 718.79 736.92 719.58 736.57 721.13 735.86 722.68 735.08 724.27 734.29 725.88 733.43 727.52 732.56 729.15 731.63 730.78 730.7 732.39 729.71 734.01 728.73 735.59 727.69 737.18 726.66 738.74 725.57 740.31 724.49 741.85 723.36 742.62 722.8 743.39 722.23 744.17 721.66 744.93 721.07 745.7 720.49 746.47 719.9 747.24 719.31 748.01 718.71 748.78 718.11 749.54 717.5 750.31 716.89 751.08 716.27 751.85 715.66 752.62 715.03 753.4 714.41 754.17 713.78 754.17 713.78 754.17 713.78 755.12 713.02 756.05 712.25 756.99 711.49 757.9 710.73 758.81 709.98 759.7 709.22 760.59 708.48 761.46 707.73 761.46 707.73 761.46 707.73 761.46 707.73 761.46 707.73M700.55 680.27Q700.55 680.27 700.55 680.27 700.75 678.95 700.98 677.66 701.2 676.37 701.45 675.12 701.69 673.86 701.96 672.64 702.23 671.41 702.52 670.22 702.81 669.03 703.12 667.87 703.44 666.72 703.78 665.6 704.12 664.47 704.48 663.39 704.84 662.3 705.23 661.25 705.62 660.2 706.03 659.18 706.45 658.16 706.88 657.18 707.32 656.21 707.79 655.26 708.26 654.32 708.75 653.41 709.24 652.51 709.76 651.64 710.28 650.77 710.83 649.94 711.38 649.11 711.95 648.31 712.52 647.52 713.13 646.76 713.73 646.01 714.36 645.29 714.99 644.58 715.65 643.9 716.31 643.22 717 642.58 717.69 641.94 718.4 641.34 719.12 640.74 719.86 640.18 720.61 639.61 721.38 639.09 722.16 638.57 722.96 638.08 723.76 637.6 724.59 637.15 726.26 636.27 728.03 635.53 729.81 634.8 731.7 634.22 733.6 633.64 735.6 633.21 737.61 632.79 739.72 632.52 739.72 632.52 739.72 632.52 742.13 632.27 744.57 632.2 747.01 632.15 749.47 632.27 751.94 632.41 754.43 632.71 756.91 633.03 759.41 633.51 759.41 633.51 759.41 633.51 761.66 633.95 763.76 634.47 765.85 634.99 767.8 635.6 769.74 636.21 771.53 636.89 773.32 637.57 774.94 638.33 776.56 639.08 778.02 639.91 779.48 640.74 780.76 641.63 782.05 642.52 783.16 643.48 784.27 644.44 785.21 645.46 786.14 646.47 786.9 647.56 787.65 648.63 788.23 649.77 788.81 650.9 789.21 652.1 789.4 652.69 789.56 653.3 789.71 653.91 789.82 654.53 789.92 655.16 789.99 655.8 790.05 656.43 790.07 657.09 790.08 657.74 790.05 658.4 790.02 659.07 789.95 659.75 789.88 660.43 789.76 661.12 789.64 661.81 789.48 662.52 789.31 663.23 789.11 663.95 788.9 664.67 788.65 665.41 788.65 665.41 788.65 665.41 788.34 666.2 788 667 787.65 667.8 787.26 668.61 786.88 669.41 786.45 670.22 786.02 671.03 785.56 671.85 785.09 672.66 784.59 673.49 784.09 674.31 783.55 675.15 783 675.98 782.43 676.82 781.85 677.66 781.23 678.52 781.23 678.52 781.23 678.52 780.56 679.46 779.87 680.38 779.18 681.3 778.49 682.19 777.79 683.09 777.09 683.97 776.39 684.84 775.68 685.7 774.97 686.56 774.26 687.39 773.54 688.23 772.82 689.06 772.1 689.88 771.38 690.68 770.66 691.49 769.93 692.28 769.21 693.07 768.48 693.84 767.75 694.62 767.02 695.37 766.29 696.14 765.56 696.88 764.83 697.63 764.09 698.36 763.36 699.09 762.63 699.81 761.89 700.53 761.16 701.24 760.43 701.95 759.69 702.64 758.96 703.34 758.23 704.01 757.5 704.7 756.76 705.37 756.03 706.04 755.3 706.69 754.56 707.35 753.83 707.99 753.1 708.63 752.36 709.26 751.63 709.89 750.89 710.51 750.16 711.13 749.43 711.73 748.69 712.33 747.95 712.92 747.22 713.51 746.48 714.08 745.01 715.24 743.52 716.32 742.04 717.41 740.53 718.42 739.04 719.44 737.52 720.39 736 721.34 734.46 722.21 734.46 722.21 734.46 722.21 733.6 722.69 732.73 723.13 731.87 723.58 731.02 723.98 729.31 724.79 727.62 725.45 725.94 726.1 724.28 726.59 723.44 726.84 722.62 727.04 721.79 727.25 720.96 727.41 720.96 727.41 720.96 727.41 719.58 727.68 718.31 727.82 717.04 727.96 715.87 727.97 714.69 727.97 713.62 727.85 712.53 727.72 711.55 727.45 710.56 727.19 709.66 726.78 708.76 726.38 707.95 725.83 707.13 725.28 706.4 724.6 705.67 723.9 705.03 723.07 704.37 722.23 703.81 721.25 703.23 720.27 702.74 719.14 702.49 718.57 702.26 717.97 702.03 717.37 701.81 716.73 701.6 716.08 701.41 715.41 701.21 714.73 701.03 714.01 700.86 713.29 700.7 712.54 700.54 711.79 700.4 711 700.25 710.2 700.13 709.37 700 708.54 699.9 707.68 699.79 706.81 699.7 705.91 699.62 705 699.55 704.06 699.48 703.12 699.43 702.15 699.38 701.17 699.35 700.16 699.35 700.16 699.35 700.16 699.3 699.05 699.28 697.92 699.26 696.78 699.27 695.6 699.27 694.43 699.31 693.22 699.35 692.01 699.43 690.76 699.5 689.52 699.6 688.24 699.71 686.96 699.85 685.65 699.99 684.33 700.16 682.99 700.34 681.65 700.55 680.27 700.55 680.27 700.55 680.27"></path></svg>