<svg xmlns="http://www.w3.org/2000/svg" data-media-id="WUjfEHmKBEH" style="visibility: visible" viewBox="-0.3899998664855957 -4.139999985694885 699.7723999023438 703.1820068359375" width="704.7723999023438px" height="708.1820068359375px">
        <defs>
            <linearGradient id="sampleGradient" gradientTransform="rotate(1)" x1="0%" y1="50%" x2="100%" y2="50%" gradientUnits="userSpaceOnUse">
                <stop offset="0%" id="first_color" stop-color="#6b6fff"></stop>
                <stop offset="100%" id="second_color" stop-color="#bc91c1"></stop>
            </linearGradient>
            <filter id="contrast">
                <feComponentTransfer>
                    <feFuncR type="linear" id="filter_R" slope="1.25"></feFuncR>
                    <feFuncG type="linear" id="filter_G" slope="1.25"></feFuncG>
                    <feFuncB type="linear" id="filter_B" slope="1.25"></feFuncB>
                </feComponentTransfer>
            </filter>
        </defs>
    <path fill="#d73d24" d="M65.9 365.75Q65.9 365.75 65.9 365.75 64.96 366.08 64.04 366.42 63.12 366.76 62.21 367.11 61.31 367.46 60.42 367.76 59.53 368.04 58.68 368.36 57.83 368.69 56.99 369 56.16 369.31 55.34 369.6 54.53 369.9 53.72 370.17 52.92 370.43 52.12 370.66 50.53 371.11 49 371.49 47.47 371.87 46.01 372.21 44.56 372.56 43.18 372.84 41.8 373.13 40.49 373.36 39.19 373.59 37.94 373.75 36.7 373.91 35.51 373.98 34.32 374.04 33.18 374.02 32.05 373.98 30.97 373.87 29.89 373.76 28.88 373.57 27.87 373.38 26.92 373.11 25.96 372.85 25.07 372.51 24.18 372.17 23.35 371.76 22.52 371.34 21.74 370.85 20.96 370.35 20.22 369.78 19.49 369.22 18.8 368.58 18.1 367.94 17.46 367.24 16.81 366.55 16.2 365.8 15.6 365.06 15.04 364.25 14.49 363.46 13.98 362.61 13.47 361.78 13.01 360.89 12.55 360 12.14 359.06 11.73 358.13 11.38 357.13 11.02 356.15 10.73 355.1 10.43 354.06 10.19 352.94 9.95 351.84 9.77 350.66 9.59 349.49 9.47 348.25 9.36 347.01 9.3 345.7 9.24 344.39 9.25 343 9.25 343 9.25 343 9.26 342.11 9.26 341.22 9.27 340.33 9.28 339.44 9.3 338.55 9.31 337.66 9.33 336.77 9.35 335.88 9.37 334.99 9.39 334.1 9.42 333.22 9.44 332.33 9.47 331.44 9.5 330.55 9.53 329.67 9.56 328.78 9.6 327.89 9.64 327.01 9.68 326.12 9.72 325.24 9.76 324.35 9.81 323.47 9.85 322.58 9.9 321.7 9.95 320.81 10.01 319.93 10.06 319.05 10.12 318.16 10.17 317.28 10.23 316.4 10.3 315.51 10.36 314.63 10.43 313.75 10.49 312.87 10.56 311.98 10.63 311.1 10.71 310.22 10.78 309.34 10.86 308.46 10.94 307.58 11.02 306.7 11.1 305.81 11.19 304.93 11.27 304.05 11.36 303.17 11.45 302.29 11.55 301.41 11.64 300.54 11.74 299.66 11.83 298.78 11.93 297.9 12.04 297.02 12.14 296.14 12.25 295.27 12.35 294.39 12.46 293.51 12.57 292.63 12.69 291.76 12.8 290.88 12.92 290.01 13.04 289.13 13.16 288.25 13.28 287.38 13.4 286.51 12.3 287.39 11.2 288.27 10.09 289.15 8.99 290.02 7.89 290.9 6.79 291.78 5.7 292.65 4.61 293.53 4.83 292.18 5.05 290.83 5.28 289.48 5.52 288.14 5.77 286.79 6.01 285.45 6.26 284.1 6.52 282.76 6.79 281.42 7.05 280.08 7.32 278.74 7.61 277.41 7.89 276.07 8.18 274.73 8.47 273.4 8.77 272.06 9.08 270.73 9.39 269.4 9.7 268.07 10.03 266.74 10.35 265.42 10.68 264.09 11.01 262.76 11.36 261.44 11.71 260.12 12.06 258.8 12.41 257.48 12.78 256.16 13.15 254.85 13.52 253.53 13.89 252.22 14.28 250.91 15.68 249.43 17.06 247.93 18.44 246.42 19.81 244.88 21.16 243.33 22.5 241.76 23.83 240.17 25.14 238.57 25.43 237.6 25.71 236.63 25.99 235.65 26.26 234.68 26.54 233.7 26.81 232.71 27.08 231.73 27.35 230.74 27.61 229.74 27.87 228.74 28.13 227.74 28.38 226.73 28.62 225.72 28.86 224.7 29.1 223.67 29.32 222.64 29.54 221.6 29.75 220.55 29.96 219.49 30.15 218.43 30.33 217.35 30.5 216.26 30.66 215.16 30.8 214.05 30.94 212.93 31.06 211.79 31.16 210.64 31.26 209.48 31.34 208.3 31.41 207.11 31.48 205.91 31.54 204.71 32.26 203.13 32.99 201.56 33.74 199.99 34.49 198.42 35.24 196.86 36.01 195.3 36.78 193.75 37.56 192.2 38.35 190.65 39.15 189.11 39.95 187.57 40.76 186.03 41.58 184.5 42.41 182.98 43.23 181.45 44.08 179.94 44.93 178.42 45.78 176.91 46.65 175.41 47.53 173.91 48.4 172.41 49.29 170.91 50.19 169.43 51.08 167.94 51.99 166.46 52.91 164.99 53.83 163.52 54.76 162.05 55.7 160.59 56.65 159.14 57.59 157.68 58.56 156.24 59.52 154.8 60.49 153.35 61.48 151.93 62.47 150.5 63.45 149.07 64.46 147.66 65.47 146.25 66.48 144.84 67.51 143.43 68.54 142.04 69.57 140.64 70.62 139.26 71.67 137.88 72.72 136.5 73.79 135.12 74.86 133.76 75.94 132.4 77.02 131.04 78.11 129.69 79.21 128.35 80.31 127 81.42 125.67 82.54 124.35 83.66 123.02 84.8 121.7 85.93 120.39 87.07 119.08 88.22 117.78 89.38 116.49 90.54 115.2 91.71 113.92 92.89 112.64 92.97 113.81 93.06 114.99 93.15 116.19 93.25 117.38 93.34 118.58 93.43 119.79 93.53 121 93.62 122.21 93.7 123.42 93.79 124.63 93.88 125.85 93.96 127.07 94.04 128.29 94.12 129.51 94.19 130.73 94.26 131.95 94.34 133.17 94.4 134.39 94.47 135.61 94.54 136.83 94.6 138.05 94.66 139.27 94.72 140.49 94.78 141.71 94.83 142.93 94.89 144.15 94.94 145.37 94.99 146.59 95.04 147.81 95.09 149.03 95.13 150.25 95.17 151.47 96.22 150.4 97.27 149.34 98.33 148.28 99.39 147.23 100.44 146.19 101.51 145.14 102.57 144.11 103.64 143.08 104.7 142.05 105.77 141.04 106.84 140.02 107.91 139.02 108.98 138.02 110.05 137.02 111.11 136.03 112.04 135.18 112.19 137.22 112.21 139.39 112.23 141.55 112.25 143.72 112.25 145.89 112.19 148.05 112.12 150.22 112.06 152.38 111.99 154.55 111.92 156.71 111.85 158.87 111.79 161.04 111.72 163.2 111.65 165.36 111.58 167.52 111.51 169.68 111.45 171.84 111.38 174 111.31 176.16 111.24 178.32 111.17 180.48 111.11 182.64 111.04 184.79 110.97 186.95 110.9 189.11 110.83 191.26 110.76 193.42 110.69 195.57 110.63 197.72 110.56 199.88 110.49 202.03 110.42 204.18 109.5 204.94 108.58 205.7 107.66 206.45 106.74 207.21 105.82 207.97 104.9 208.73 103.98 209.49 103.06 210.26 102.14 211.02 101.22 211.78 100.3 212.55 99.39 213.32 98.47 214.08 97.55 214.85 96.63 215.62 95.71 216.39 95.71 218.16 95.7 219.93 95.69 221.7 95.68 223.47 95.67 225.24 95.67 227.01 95.66 228.78 95.65 230.55 95.64 232.32 95.63 234.09 95.62 235.86 95.61 237.63 95.6 239.4 95.59 241.17 95.58 242.94 95.57 244.71 95.56 246.48 95.55 248.25 95.54 250.01 95.53 251.78 95.52 253.55 95.51 255.32 95.51 257.09 95.5 258.86 95.49 260.63 95.48 262.39 95.47 264.16 95.46 265.93 95.45 267.7 95.44 269.47 95.43 271.24 95.42 273.01 95.41 275.31 95.82 276.77 96.23 278.23 97.06 278.85 97.9 279.48 99.15 279.26 100.41 279.04 102.09 277.96 102.09 277.96 102.09 277.96 103.05 277.34 104.01 276.72 104.96 276.1 105.92 275.48 106.88 274.85 107.83 274.22 108.79 273.59 109.75 272.95 109.72 274.12 109.68 275.28 109.65 276.44 109.62 277.6 109.59 278.76 109.56 279.92 109.53 281.08 109.5 282.24 109.47 283.4 109.44 284.56 109.41 285.72 109.38 286.88 109.34 288.04 109.31 289.2 109.28 290.36 109.25 291.52 109.22 292.68 109.19 293.84 109.16 294.99 109.13 296.15 109.1 297.31 109.06 298.47 109.03 299.63 109 300.79 108.97 301.94 108.94 303.1 108.91 304.26 108.88 305.42 108.85 306.57 108.81 307.73 108.78 308.89 108.75 310.04 108.72 311.2 108.69 312.35 108.66 313.51 108.63 314.67 108.59 315.82 108.56 316.98 108.53 318.13 108.5 319.29 108.47 320.44 108.44 321.59 108.4 322.75 108.37 323.9 108.34 325.05 108.31 326.2 108.28 327.36 108.24 328.51 108.21 329.66 108.18 330.8 108.15 331.95 108.11 333.1 108.08 334.25 108.05 335.39 108.01 336.53 107.98 337.67 107.94 338.81 107.91 339.94 107.87 341.07 107.84 342.2 107.8 343.31 107.76 344.42 107.72 345.52 107.68 346.61 106.15 347.42 104.64 348.2 103.13 348.97 101.66 349.71 100.18 350.46 98.75 351.21 97.32 351.99 95.94 352.76 94.55 353.53 93.19 354.27 91.81 354.97 90.44 355.6 89.07 356.22 87.72 356.81 86.38 357.4 85.06 357.96 83.74 358.52 82.45 359.06 81.16 359.6 79.89 360.12 78.65 360.69 77.46 361.29 76.26 361.89 75.09 362.47 73.93 363.05 72.78 363.59 71.59 364.02 70.43 364.36 69.27 364.7 68.14 365.05 67.01 365.39 65.9 365.75 65.9 365.75 65.9 365.75M118.66 176.99Q118.66 175.6 118.67 174.23 118.69 172.85 118.71 171.49 118.74 170.13 118.78 168.78 118.82 167.44 118.88 166.1 118.98 163.44 119.14 160.83 119.31 158.23 119.52 155.67 119.73 153.12 120 150.63 120.27 148.13 120.59 145.69 120.91 143.24 121.28 140.85 121.65 138.46 122.07 136.12 122.49 133.77 122.97 131.48 123.44 129.18 123.96 126.93 124.48 124.67 125.05 122.46 125.61 120.24 126.23 118.07 126.84 115.88 127.49 113.74 128.15 111.58 128.85 109.47 129.55 107.34 130.29 105.25 131.03 103.15 131.82 101.08 132.6 99.01 133.43 96.98 134.26 94.95 135.13 92.96 136 90.97 136.92 89.03 137.84 87.08 138.81 85.19 139.29 84.25 139.79 83.32 140.29 82.39 140.8 81.47 141.31 80.56 141.83 79.66 142.36 78.76 142.89 77.87 143.43 76.99 143.98 76.12 144.53 75.25 145.1 74.4 145.66 73.55 146.24 72.71 146.82 71.88 147.42 71.06 148.01 70.24 148.62 69.44 149.23 68.64 149.85 67.86 150.48 67.08 151.11 66.31 151.75 65.55 152.4 64.8 153.06 64.06 153.72 63.33 154.39 62.6 155.08 61.9 155.76 61.19 156.46 60.5 157.15 59.81 157.87 59.14 158.58 58.47 159.31 57.83 160.04 57.18 160.79 56.55 161.53 55.92 162.29 55.31 163.05 54.7 163.83 54.11 164.6 53.53 165.4 52.96 166.19 52.39 166.99 51.84 167.8 51.3 168.63 50.77 169.45 50.25 170.29 49.74 171.13 49.24 171.97 48.75 172.81 48.27 173.65 47.8 174.5 47.33 175.34 46.87 176.18 46.42 177.02 45.98 177.87 45.55 178.71 45.13 179.56 44.71 180.4 44.31 181.24 43.9 182.09 43.51 182.93 43.13 183.78 42.76 184.63 42.4 185.47 42.04 186.32 41.69 187.16 41.35 188.01 41.02 188.86 40.7 189.71 40.38 190.55 40.08 191.4 39.78 192.25 39.49 193.1 39.21 193.95 38.94 194.79 38.68 195.64 38.42 196.49 38.17 197.34 37.94 198.19 37.71 199.04 37.49 199.89 37.27 200.74 37.07 201.59 36.87 202.44 36.69 203.29 36.51 204.14 36.34 204.99 36.17 205.84 36.02 206.69 35.87 207.54 35.74 208.39 35.61 209.24 35.49 210.09 35.38 210.94 35.28 211.8 35.18 212.65 35.09 213.5 35.01 214.35 34.94 215.2 34.88 216.05 34.83 216.9 34.78 217.76 34.75 218.61 34.71 219.46 34.69 220.31 34.68 221.16 34.67 222.01 34.67 222.86 34.68 223.71 34.7 224.56 34.72 224.56 34.72 224.56 34.72 224.57 36.23 224.57 37.73 224.58 39.23 224.59 40.73 224.59 42.23 224.6 43.73 224.61 45.24 224.61 46.74 224.62 48.24 224.63 49.74 224.63 51.24 224.64 52.74 224.65 54.24 224.65 55.74 224.66 57.25 224.66 58.75 224.67 60.25 224.67 61.75 224.68 63.25 224.68 64.75 224.69 66.25 224.69 67.75 224.69 69.25 224.69 70.75 224.69 72.25 224.69 73.75 224.69 75.26 224.68 76.76 224.67 78.26 224.66 79.76 224.65 81.26 224.63 82.76 224.6 84.26 224.57 85.76 224.54 87.26 224.5 88.76 224.47 90.26 224.43 91.76 224.38 93.26 224.34 94.75 224.29 96.25 224.25 97.75 224.2 99.25 224.15 100.75 224.11 102.25 224.06 103.75 224.01 105.25 223.96 106.75 223.91 108.25 223.86 109.74 223.81 111.24 223.76 112.74 223.71 114.24 223.66 115.74 223.62 117.24 223.57 118.73 223.52 120.23 223.46 121.73 223.41 123.23 223.36 124.72 223.31 126.22 223.26 127.72 223.21 129.22 223.16 130.71 222.42 130.82 221.67 130.92 220.92 131.02 220.18 131.12 219.43 131.23 218.68 131.33 217.93 131.44 217.19 131.54 216.44 131.65 215.69 131.76 214.94 131.87 214.2 131.98 213.45 132.09 212.7 132.2 211.96 132.31 211.21 132.42 210.47 132.54 209.72 132.65 208.98 132.77 208.23 132.88 207.49 133 206.75 133.12 206 133.24 205.26 133.36 204.52 133.48 203.78 133.6 203.04 133.72 202.3 133.85 201.56 133.97 200.82 134.1 200.08 134.22 199.35 134.35 198.61 134.48 197.87 134.61 197.14 134.74 196.4 134.87 195.67 135.01 194.94 135.14 194.2 135.28 193.47 135.41 192.74 135.55 192.01 135.69 191.28 135.83 190.55 135.97 189.82 136.11 189.09 136.25 188.36 136.4 187.63 136.54 186.91 136.69 186.18 136.84 185.46 136.99 184.73 137.14 184.01 137.29 183.28 137.44 182.56 137.59 181.84 137.75 181.12 137.9 180.4 138.06 179.67 138.22 178.96 138.38 178.24 138.54 177.52 138.7 176.8 138.86 176.08 139.03 176.12 141.01 176.15 143 176.19 144.98 176.22 146.97 177.08 146.73 177.92 146.52 178.75 146.31 179.57 146.11 180.39 145.92 181.2 145.75 182 145.58 182.78 145.42 183.57 145.27 184.33 145.13 185.1 145 185.85 144.88 186.6 144.77 187.33 144.67 188.06 144.58 188.77 144.5 189.49 144.42 190.18 144.36 190.88 144.3 191.55 144.26 192.23 144.22 192.89 144.2 193.54 144.18 194.18 144.18 194.82 144.17 195.44 144.19 196.06 144.2 196.66 144.24 197.87 144.31 198.99 144.44 200.12 144.58 201.22 144.82 202.32 145.07 203.4 145.41 204.47 145.76 205.52 146.21 206.57 146.66 207.59 147.21 208.61 147.77 209.6 148.42 210.59 149.08 211.55 149.84 212.52 150.6 213.45 151.47 214.38 152.33 215.29 153.3 215.29 153.3 215.29 153.3 216.14 154.21 216.94 155.28 217.75 156.34 218.5 157.57 219.24 158.79 219.94 160.17 220.63 161.54 221.27 163.07 221.91 164.61 222.5 166.29 223.08 167.98 223.61 169.82 224.14 171.66 224.62 173.65 225.1 175.64 225.52 177.79 225.94 179.94 226.31 182.24 226.68 184.54 227 186.99 227.32 189.44 227.58 192.05 227.85 194.65 228.06 197.41 228.27 200.17 228.42 203.08 228.5 204.53 228.57 206.03 228.63 207.52 228.69 209.05 228.74 210.58 228.78 212.15 228.82 213.72 228.84 215.33 228.81 216.95 228.8 218.61 228.79 220.26 228.79 221.94 228.79 221.94 228.79 221.94 228.79 223.46 228.8 224.94 228.81 226.43 228.84 227.89 228.79 230.84 228.69 233.72 228.58 236.6 228.43 239.4 228.27 242.2 228.06 244.93 227.86 247.65 227.6 250.29 227.34 252.94 227.03 255.51 226.71 258.07 226.35 260.56 225.99 263.04 225.57 265.45 225.16 267.85 224.69 270.18 224.23 272.5 223.71 274.73 223.2 276.97 222.63 279.12 222.06 281.27 221.44 283.33 220.82 285.39 220.15 287.36 219.49 289.32 218.77 291.2 218.05 293.06 217.27 294.84 216.5 296.61 215.68 298.29 214.86 299.96 213.99 301.55 213.11 303.12 212.19 304.61 211.26 306.09 210.29 307.49 209.31 308.88 208.29 310.19 207.26 311.5 206.18 312.74 205.11 313.98 203.98 315.14 203.42 315.72 202.84 316.28 202.27 316.84 201.68 317.38 201.09 317.93 200.49 318.45 199.89 318.97 199.27 319.47 198.66 319.97 198.03 320.45 197.4 320.93 196.76 321.39 196.12 321.84 195.47 322.29 194.81 322.73 194.15 323.15 193.48 323.58 192.81 323.99 192.13 324.4 191.44 324.8 190.75 325.19 190.05 325.57 189.35 325.94 188.64 326.3 187.92 326.66 187.19 327 186.47 327.33 185.73 327.65 184.99 327.97 184.23 328.27 183.48 328.57 182.72 328.85 181.95 329.13 181.17 329.39 180.39 329.64 179.6 329.79 178.81 329.95 178 330.13 177.2 330.31 176.38 330.51 176.38 330.51 176.38 330.51 175.52 330.73 174.65 330.95 173.78 331.18 172.92 331.4 172.05 331.63 171.18 331.86 170.31 332.09 169.44 332.29 168.57 332.45 167.7 332.6 166.83 332.75 165.96 332.89 165.08 333.03 164.21 333.16 163.34 333.29 162.47 333.41 161.6 333.53 160.73 333.64 159.86 333.76 158.99 333.88 158.12 334.01 157.26 334.12 156.39 334.24 155.53 334.35 154.66 334.45 153.79 334.55 152.93 334.67 152.08 334.8 151.23 334.94 150.38 335.07 149.53 335.2 148.67 335.32 147.82 335.44 146.96 335.54 146.1 335.62 145.24 335.67 144.37 335.71 143.5 335.74 142.63 335.77 141.76 335.79 140.89 335.81 140.02 335.83 139.15 335.85 138.29 335.87 137.42 335.89 136.56 335.91 135.69 335.93 134.83 335.94 133.96 335.96 133.1 335.97 132.24 335.99 131.38 336.01 130.53 336.03 129.67 336.05 128.81 336.07 127.96 336.08 127.1 336.09 126.24 336.1 125.38 336.11 124.52 336.11 123.66 336.12 122.8 336.12 121.94 336.13 121.07 336.13 121.07 336.13 121.07 336.13 121.09 333.59 121.12 331.04 121.14 328.5 121.16 325.95 121.18 323.41 121.2 320.86 121.22 318.32 121.25 315.77 121.27 313.23 121.29 310.68 121.31 308.14 121.34 305.59 121.36 303.05 121.38 300.5 121.41 297.95 121.44 295.41 121.47 292.86 121.52 290.32 121.56 287.77 121.61 285.22 121.66 282.67 121.7 280.13 121.75 277.58 121.8 275.03 121.85 272.48 121.9 269.93 121.95 267.38 122 264.84 122.05 262.29 122.1 259.74 122.15 257.19 122.2 254.64 122.96 254.51 123.72 254.38 124.48 254.26 125.24 254.14 126 254.02 126.76 253.9 127.52 253.78 128.28 253.66 129.04 253.54 129.8 253.43 130.56 253.31 131.32 253.2 132.08 253.09 132.84 252.97 133.6 252.87 134.36 252.76 135.12 252.65 135.88 252.54 136.64 252.44 137.41 252.34 138.17 252.23 138.93 252.13 139.69 252.03 140.45 251.94 141.21 251.84 141.97 251.74 142.73 251.65 143.5 251.56 144.26 251.46 145.02 251.37 145.78 251.28 146.54 251.2 147.3 251.11 148.07 251.02 148.83 250.94 149.59 250.85 150.35 250.77 151.12 250.69 151.88 250.61 152.64 250.53 153.4 250.45 154.17 250.38 154.93 250.3 155.69 250.23 156.46 250.15 157.22 250.08 157.98 250.01 158.75 249.94 159.51 249.87 160.28 249.8 161.04 249.74 161.8 249.67 162.57 249.61 163.33 249.54 164.1 249.48 164.86 249.42 165.63 249.36 166.39 249.3 167.16 249.24 167.93 249.18 168.69 249.12 169.46 249.07 170.22 249.01 170.99 248.96 170.98 247.03 170.97 245.09 170.96 243.16 170.94 241.23 170.11 241.25 169.29 241.26 168.47 241.27 167.67 241.27 166.87 241.28 166.09 241.28 165.31 241.28 164.55 241.27 163.79 241.26 163.05 241.24 162.31 241.23 161.59 241.21 160.87 241.18 160.17 241.15 159.47 241.13 158.79 241.09 158.1 241.05 157.44 241.01 156.78 240.97 156.13 240.92 155.49 240.87 154.87 240.81 154.24 240.75 153.64 240.69 153.03 240.62 152.45 240.55 151.86 240.48 151.29 240.4 150.16 240.24 149.1 240.04 148.05 239.85 147 239.59 145.96 239.34 144.93 239.01 143.9 238.69 142.88 238.3 141.87 237.92 140.86 237.46 139.86 237.01 138.87 236.49 137.88 235.98 136.9 235.39 135.93 234.81 134.97 234.17 134 233.52 133.06 232.81 133.06 232.81 133.06 232.81 132.15 232.08 131.31 231.23 130.46 230.38 129.67 229.4 128.88 228.42 128.15 227.31 127.41 226.21 126.74 224.98 126.06 223.75 125.44 222.39 124.82 221.04 124.26 219.55 123.7 218.07 123.19 216.46 122.69 214.85 122.24 213.11 121.79 211.37 121.4 209.5 121.01 207.63 120.67 205.64 120.33 203.64 120.05 201.51 119.78 199.39 119.55 197.13 119.33 194.88 119.16 192.49 118.99 190.11 118.88 187.59 118.83 186.33 118.78 185.04 118.74 183.75 118.71 182.42 118.69 181.1 118.67 179.74 118.66 178.38 118.66 176.99 118.66 176.99 118.66 176.99M297.69 310.96Q297.69 310.96 297.69 310.96 296.82 311.02 295.95 311.08 295.09 311.15 294.25 311.24 293.4 311.32 292.57 311.35 291.74 311.36 290.92 311.36 290.11 311.36 289.31 311.34 288.51 311.32 287.72 311.28 286.94 311.25 286.17 311.19 285.4 311.14 284.64 311.05 283.12 310.85 281.67 310.58 280.22 310.31 278.82 310 277.44 309.73 276.11 309.43 274.78 309.14 273.52 308.78 272.25 308.42 271.05 307.99 269.84 307.55 268.7 307.04 267.55 306.52 266.47 305.93 265.38 305.34 264.35 304.67 263.33 304 262.36 303.25 261.4 302.5 260.49 301.68 259.58 300.86 258.74 299.96 257.89 299.07 257.11 298.09 256.32 297.12 255.59 296.06 254.86 294.99 254.17 293.84 253.49 292.68 252.86 291.44 252.23 290.19 251.65 288.85 251.07 287.52 250.54 286.09 250.01 284.67 249.54 283.15 249.06 281.63 248.63 280.03 248.21 278.42 247.83 276.72 247.46 275.03 247.13 273.24 246.81 271.45 246.53 269.58 246.26 267.7 246.03 265.73 245.8 263.77 245.63 261.71 245.45 259.65 245.32 257.51 245.18 255.36 245.1 253.13 245.01 250.89 244.97 248.57 244.93 246.24 244.94 243.82 244.94 243.82 244.94 243.82 244.94 242.27 244.95 240.72 244.95 239.16 244.95 237.61 244.96 236.05 244.96 234.5 244.96 232.94 244.96 231.39 244.97 229.83 244.97 228.28 244.97 226.72 244.97 225.17 244.98 223.61 244.98 222.06 244.98 220.5 244.98 218.95 244.98 217.39 244.98 215.84 244.98 214.28 244.99 212.73 244.99 211.17 244.99 209.62 244.99 208.06 244.99 206.51 244.99 204.95 244.99 203.4 244.99 201.84 245 200.29 245 198.73 245 197.17 245 195.62 245 194.06 245 192.51 245 190.95 245 189.39 245 187.84 245 186.28 245.01 184.73 245.01 183.17 245.01 181.61 245.01 180.06 245.01 178.5 245.01 176.95 245.01 175.39 245.01 173.83 245.01 172.28 245.01 170.72 245.01 169.16 245.01 167.61 245.02 166.05 245.02 164.49 245.02 162.94 245.02 161.38 245.02 159.82 245.02 158.27 245.02 156.71 245.02 155.15 245.02 153.6 245.02 152.04 245.02 150.48 245.02 148.92 245.02 147.37 245.02 145.81 245.03 144.25 243.99 144.41 242.96 144.57 241.92 144.72 240.89 144.88 239.85 145.04 238.82 145.2 237.78 145.35 236.75 145.51 236.75 143.03 236.75 140.55 236.75 138.08 236.75 135.6 236.75 133.12 236.75 130.64 236.75 128.16 236.75 125.69 236.75 123.21 236.75 120.73 236.75 118.25 236.75 115.77 236.75 113.3 236.75 110.82 236.75 108.34 236.75 105.86 236.75 103.39 236.75 100.91 236.75 98.43 236.75 95.95 236.75 93.47 236.75 91 236.75 88.52 236.75 86.04 236.75 83.56 236.75 81.08 236.75 78.61 236.75 76.13 236.75 73.65 236.75 71.17 236.75 68.69 236.75 66.22 238.21 65.94 239.67 65.66 241.13 65.38 242.59 65.09 244.05 64.8 245.51 64.5 246.97 64.2 248.43 63.9 248.55 62.38 248.66 60.85 248.78 59.33 248.89 57.8 249.01 56.28 249.12 54.75 249.24 53.22 249.35 51.69 249.46 50.15 249.58 48.62 249.69 47.08 249.81 45.54 249.92 44 250.03 42.45 250.15 40.91 250.26 39.36 250.37 37.8 250.48 36.25 250.6 34.69 250.71 33.12 250.82 31.55 250.93 29.98 251.04 28.41 251.15 26.82 251.26 25.24 251.37 23.65 251.48 22.05 251.59 20.46 251.7 18.85 251.81 17.25 251.92 15.64 252.03 14.03 253.18 13.7 254.34 13.37 255.49 13.05 256.64 12.73 257.79 12.4 258.95 12.1 260.11 11.79 261.27 11.49 262.42 11.18 263.58 10.88 264.75 10.6 265.91 10.31 267.07 10.02 268.23 9.73 269.4 9.46 270.57 9.19 271.73 8.93 272.9 8.66 274.07 8.39 275.24 8.14 276.41 7.89 277.58 7.64 278.75 7.39 279.92 7.15 281.1 6.92 282.27 6.69 283.45 6.46 284.62 6.23 285.8 6.01 286.98 5.8 288.16 5.59 289.33 5.37 290.51 5.17 291.7 4.98 292.88 4.78 294.06 4.59 295.24 4.39 296.42 4.21 297.61 4.04 298.79 3.86 299.98 3.69 301.16 3.52 302.35 3.36 303.53 3.2 304.72 3.04 305.91 2.88 307.1 2.74 308.29 2.6 309.48 2.46 310.66 2.32 311.85 2.19 313.05 2.07 314.24 1.95 315.43 1.83 316.62 1.71 317.81 1.6 319 1.5 320.2 1.39 321.39 1.29 322.58 1.19 323.78 1.11 324.97 1.02 326.17 0.94 327.36 0.86 327.34 2.44 327.31 4.03 327.28 5.62 327.26 7.21 327.23 8.8 327.19 10.39 327.16 11.97 327.12 13.55 327.09 15.13 327.05 16.71 327.01 18.29 326.97 19.86 326.92 21.43 326.88 23 326.84 24.57 326.79 26.13 326.75 27.7 326.7 29.26 326.65 30.82 326.61 32.38 326.56 33.94 326.51 35.49 326.46 37.05 326.42 38.6 326.37 40.16 326.32 41.71 326.28 43.26 326.23 44.81 326.18 46.36 326.14 47.9 326.09 49.45 326.05 51 327.07 50.89 328.09 50.77 329.11 50.66 330.12 50.55 331.14 50.44 332.15 50.33 333.16 50.22 334.16 50.11 335.17 50 336.17 49.89 337.17 49.78 338.17 49.67 339.17 49.56 340.18 49.45 341.18 49.34 342.06 49.25 341.99 51.81 341.81 54.38 341.61 56.95 341.42 59.53 341.24 62.1 341.17 64.68 341.1 67.25 341.03 69.83 340.97 72.4 340.9 74.98 340.84 77.55 340.77 80.13 340.7 82.7 340.64 85.28 340.57 87.85 340.5 90.43 340.44 93 340.37 95.58 340.31 98.15 340.24 100.73 340.17 103.3 340.11 105.88 340.04 108.45 339.97 111.03 339.91 113.6 339.84 116.18 339.77 118.75 339.7 121.33 339.64 123.9 339.57 126.48 339.5 129.05 339.44 131.63 338.54 131.73 337.65 131.83 336.76 131.93 335.87 132.03 334.98 132.13 334.09 132.23 333.2 132.33 332.3 132.44 331.41 132.54 330.52 132.64 329.63 132.74 328.74 132.85 327.85 132.95 326.95 133.05 326.06 133.16 325.17 133.26 325.17 135.51 325.16 137.75 325.16 140 325.15 142.24 325.15 144.49 325.14 146.73 325.14 148.97 325.13 151.22 325.13 153.46 325.13 155.7 325.12 157.95 325.12 160.19 325.12 162.43 325.11 164.67 325.11 166.92 325.11 169.16 325.1 171.4 325.1 173.64 325.1 175.88 325.09 178.12 325.09 180.37 325.09 182.61 325.09 184.85 325.08 187.09 325.08 189.33 325.08 191.57 325.08 193.81 325.07 196.05 325.07 198.29 325.07 200.52 325.06 202.76 325.06 205 325.06 207.92 325.46 210.07 325.86 212.22 326.66 213.61 327.46 214.99 328.66 215.61 329.87 216.23 331.47 216.09 331.47 216.09 331.47 216.09 332.39 216 333.31 215.92 334.23 215.83 335.14 215.75 336.06 215.66 336.98 215.58 337.89 215.49 338.81 215.41 338.78 216.81 338.75 218.21 338.72 219.61 338.7 221.01 338.67 222.42 338.64 223.82 338.61 225.22 338.58 226.62 338.55 228.02 338.52 229.42 338.49 230.83 338.46 232.23 338.43 233.63 338.4 235.03 338.37 236.43 338.35 237.83 338.32 239.23 338.29 240.63 338.26 242.04 338.23 243.44 338.2 244.84 338.17 246.24 338.14 247.64 338.11 249.04 338.08 250.44 338.05 251.84 338.02 253.24 338 254.64 337.97 256.04 337.94 257.44 337.91 258.84 337.88 260.24 337.85 261.64 337.82 263.04 337.79 264.44 337.76 265.84 337.73 267.24 337.7 268.64 337.67 270.04 337.65 271.44 337.62 272.84 337.59 274.24 337.56 275.64 337.53 277.04 337.5 278.44 337.47 279.83 337.44 281.23 337.41 282.63 337.38 284.03 337.35 285.43 337.32 286.82 337.29 288.22 337.26 289.62 337.23 291.01 337.2 292.41 337.17 293.8 337.14 295.19 337.11 296.59 337.08 297.98 337.05 299.37 337.02 300.76 336.99 302.14 336.96 303.53 336.93 304.91 335.5 305.25 334.09 305.56 332.69 305.87 331.31 306.16 329.93 306.45 328.57 306.71 327.22 306.98 325.88 307.22 324.55 307.46 323.25 307.69 321.94 307.91 320.66 308.11 319.39 308.31 318.13 308.49 316.88 308.67 315.65 308.83 314.42 309 313.22 309.15 312.02 309.34 310.84 309.53 309.67 309.72 308.52 309.88 307.37 310.05 306.25 310.19 305.13 310.36 304.04 310.52 302.94 310.67 301.87 310.73 300.8 310.78 299.76 310.84 298.71 310.9 297.69 310.96 297.69 310.96 297.69 310.96M355.63 107.23Q355.63 105.57 355.65 103.93 355.66 102.3 355.69 100.69 355.71 99.08 355.75 97.5 355.79 95.91 355.84 94.36 355.95 91.25 356.11 88.25 356.27 85.24 356.48 82.35 356.69 79.45 356.96 76.67 357.22 73.88 357.54 71.2 357.86 68.52 358.23 65.94 358.6 63.37 359.02 60.9 359.44 58.43 359.92 56.07 360.4 53.71 360.93 51.45 361.45 49.19 362.04 47.03 362.62 44.88 363.25 42.83 363.88 40.77 364.57 38.83 365.26 36.87 366 35.03 366.73 33.18 367.52 31.43 368.32 29.68 369.16 28.03 370 26.39 370.89 24.85 371.78 23.31 372.72 21.88 373.66 20.45 374.65 19.13 375.63 17.81 376.67 16.6 377.18 16 377.71 15.42 378.24 14.85 378.78 14.3 379.32 13.76 379.88 13.24 380.43 12.72 380.99 12.24 381.56 11.75 382.14 11.29 382.71 10.84 383.3 10.41 383.89 9.98 384.49 9.58 385.09 9.19 385.7 8.82 386.31 8.45 386.94 8.11 387.56 7.78 388.2 7.47 388.83 7.16 389.48 6.89 390.13 6.61 390.78 6.37 391.44 6.12 392.11 5.91 392.79 5.69 393.47 5.51 394.15 5.32 394.84 5.17 395.54 5.02 396.24 4.9 396.95 4.78 397.67 4.69 398.38 4.6 399.11 4.54 399.84 4.48 400.58 4.46 401.32 4.43 402.08 4.44 402.83 4.44 403.59 4.48 404.36 4.51 405.13 4.58 405.9 4.65 406.69 4.76 407.48 4.86 408.28 4.99 409.07 5.13 409.87 5.27 410.66 5.42 411.46 5.59 412.25 5.75 413.04 5.93 413.83 6.11 414.62 6.3 415.4 6.49 416.19 6.7 416.97 6.91 417.75 7.13 418.53 7.36 419.31 7.59 420.09 7.83 420.87 8.08 421.64 8.33 422.41 8.6 423.19 8.87 423.96 9.15 424.73 9.44 425.5 9.73 426.26 10.02 427.03 10.33 427.79 10.65 428.55 10.97 429.32 11.3 430.08 11.64 430.83 11.98 431.59 12.33 432.35 12.69 433.1 13.06 433.86 13.43 434.61 13.81 435.36 14.19 436.11 14.59 436.86 14.98 437.6 15.39 438.35 15.81 439.09 16.23 439.83 16.66 440.58 17.1 441.32 17.54 442.06 17.99 442.8 18.44 443.53 18.91 444.27 19.38 445 19.86 445.74 20.34 446.47 20.83 447.21 21.32 447.94 21.83 448.67 22.33 449.4 22.85 450.13 23.37 450.86 23.9 451.6 24.42 452.33 24.96 453.06 25.5 453.8 26.04 454.54 26.58 455.28 27.13 456.03 27.67 456.78 28.21 456.78 28.21 456.78 28.21 456.8 29.71 456.81 31.21 456.83 32.7 456.85 34.2 456.86 35.7 456.88 37.2 456.9 38.7 456.91 40.2 456.93 41.7 456.95 43.2 456.96 44.69 456.98 46.19 457 47.69 457.01 49.19 457.03 50.69 457.04 52.19 457.06 53.68 457.07 55.18 457.09 56.68 457.1 58.18 457.12 59.68 457.13 61.18 457.14 62.67 457.15 64.17 457.16 65.67 457.17 67.17 457.18 68.67 457.18 70.17 457.18 71.67 457.17 73.17 457.17 74.66 457.15 76.16 457.13 77.66 457.11 79.16 457.08 80.66 457.05 82.16 457.02 83.66 456.98 85.16 456.94 86.65 456.9 88.15 456.86 89.65 456.81 91.15 456.77 92.65 456.73 94.15 456.68 95.65 456.64 97.15 456.59 98.65 456.54 100.15 456.5 101.65 456.45 103.14 456.4 104.64 456.36 106.14 456.31 107.64 456.26 109.14 456.21 110.64 456.17 112.14 456.12 113.64 456.07 115.14 456.02 116.64 455.97 118.14 455.93 119.64 455.88 121.14 455.83 122.64 455.78 124.14 455.08 123.83 454.38 123.52 453.68 123.21 452.98 122.9 452.28 122.59 451.58 122.28 450.88 121.97 450.18 121.65 449.48 121.34 448.78 121.03 448.08 120.72 447.38 120.41 446.68 120.09 445.98 119.78 445.28 119.47 444.59 119.16 443.89 118.84 443.19 118.53 442.5 118.22 441.8 117.9 441.11 117.59 440.41 117.27 439.72 116.96 439.02 116.65 438.33 116.33 437.64 116.02 436.95 115.71 436.25 115.39 435.56 115.08 434.87 114.77 434.18 114.45 433.49 114.14 432.8 113.83 432.12 113.51 431.43 113.2 430.74 112.89 430.05 112.58 429.37 112.26 428.68 111.95 427.99 111.64 427.31 111.33 426.62 111.02 425.94 110.71 425.25 110.4 424.57 110.08 423.88 109.78 423.2 109.47 422.52 109.16 421.83 108.85 421.15 108.54 420.47 108.23 419.79 107.92 419.1 107.62 418.42 107.31 417.74 107 417.06 106.7 416.38 106.39 415.7 106.09 415.02 105.78 414.33 105.48 413.65 105.17 412.97 104.87 412.29 104.57 411.61 104.27 411.62 106.43 411.63 108.59 411.64 110.75 411.65 112.9 412.46 113.21 413.26 113.53 414.05 113.84 414.83 114.17 415.61 114.49 416.37 114.82 417.12 115.15 417.87 115.48 418.61 115.82 419.33 116.16 420.05 116.51 420.76 116.85 421.47 117.2 422.15 117.56 422.84 117.91 423.51 118.28 424.18 118.64 424.84 119.01 425.49 119.37 426.12 119.75 426.76 120.12 427.38 120.5 427.99 120.88 428.59 121.26 429.19 121.65 429.77 122.04 430.35 122.43 430.92 122.83 432.05 123.62 433.1 124.43 434.16 125.25 435.19 126.15 436.22 127.05 437.22 128.03 438.23 129.02 439.21 130.09 440.19 131.16 441.15 132.31 442.1 133.47 443.03 134.7 443.96 135.94 444.86 137.27 445.76 138.59 446.64 139.99 447.51 141.4 448.36 142.89 448.36 142.89 448.36 142.89 449.16 144.3 449.92 145.83 450.67 147.36 451.37 149.02 452.07 150.68 452.73 152.46 453.38 154.24 453.98 156.15 454.58 158.06 455.13 160.1 455.68 162.13 456.18 164.29 456.68 166.45 457.13 168.74 457.58 171.02 457.98 173.43 458.38 175.84 458.73 178.38 459.08 180.92 459.38 183.58 459.67 186.25 459.92 189.04 460.17 191.83 460.37 194.74 460.57 197.66 460.72 200.7 460.79 202.22 460.85 203.78 460.92 205.33 460.97 206.92 461.02 208.5 461.05 210.12 461.09 211.74 461.11 213.38 461.09 215.02 461.07 216.7 461.06 218.38 461.06 220.09 461.06 220.09 461.06 220.09 461.06 221.63 461.07 223.15 461.09 224.67 461.11 226.17 461.07 229.15 460.97 232.03 460.87 234.91 460.72 237.69 460.57 240.46 460.38 243.14 460.18 245.81 459.93 248.38 459.69 250.95 459.39 253.41 459.1 255.88 458.75 258.24 458.41 260.6 458.02 262.86 457.62 265.12 457.18 267.28 456.74 269.43 456.25 271.48 455.76 273.54 455.22 275.48 454.68 277.43 454.09 279.28 453.51 281.12 452.87 282.86 452.24 284.6 451.55 286.23 450.87 287.87 450.14 289.4 449.41 290.93 448.63 292.36 447.85 293.79 447.02 295.12 446.19 296.46 445.31 297.69 444.44 298.93 443.51 300.08 442.58 301.23 441.61 302.29 440.63 303.35 439.6 304.3 438.58 305.25 437.51 306.09 436.97 306.51 436.42 306.9 435.87 307.29 435.31 307.65 434.75 308.01 434.18 308.34 433.61 308.67 433.02 308.98 432.44 309.28 431.84 309.56 431.25 309.84 430.64 310.09 430.03 310.34 429.41 310.56 428.79 310.79 428.15 310.99 427.52 311.19 426.87 311.37 426.23 311.55 425.57 311.74 424.9 311.94 424.23 312.12 423.55 312.31 422.86 312.47 422.17 312.64 421.47 312.78 420.77 312.92 420.06 313.04 419.35 313.15 418.62 313.22 417.9 313.27 417.17 313.29 416.43 313.31 415.68 313.3 414.94 313.29 414.18 313.16 413.42 313.04 412.65 312.93 411.87 312.83 411.09 312.78 411.09 312.78 411.09 312.78 410.26 312.72 409.43 312.67 408.59 312.62 407.76 312.59 406.93 312.55 406.1 312.52 405.27 312.5 404.43 312.43 403.6 312.32 402.77 312.21 401.93 312.09 401.1 311.97 400.27 311.84 399.43 311.7 398.6 311.56 397.77 311.41 396.93 311.23 396.1 311.04 395.27 310.86 394.44 310.66 393.6 310.46 392.77 310.25 391.94 310.05 391.1 309.84 390.27 309.65 389.43 309.47 388.59 309.29 387.75 309.1 386.92 308.9 386.08 308.7 385.24 308.49 384.4 308.27 383.57 308.02 382.73 307.74 381.9 307.46 381.06 307.16 380.23 306.86 379.39 306.55 378.56 306.25 377.72 305.94 376.89 305.65 376.05 305.37 375.21 305.11 374.37 304.84 373.53 304.57 372.68 304.29 371.84 304.02 371 303.74 370.16 303.45 369.32 303.16 368.48 302.87 367.63 302.58 366.79 302.28 365.95 301.97 365.1 301.66 364.26 301.33 363.42 301.01 362.57 300.67 361.73 300.34 360.89 299.99 360.05 299.63 359.2 299.26 358.36 298.88 357.52 298.49 357.52 298.49 357.52 298.49 357.56 295.48 357.61 292.47 357.66 289.47 357.7 286.46 357.75 283.45 357.8 280.44 357.85 277.43 357.89 274.42 357.94 271.41 357.99 268.4 358.03 265.39 358.08 262.38 358.13 259.37 358.17 256.37 358.22 253.36 358.27 250.35 358.32 247.34 358.37 244.33 358.41 241.32 358.46 238.31 358.51 235.3 358.56 232.29 358.61 229.28 358.66 226.27 358.71 223.26 358.76 220.25 358.81 217.24 358.86 214.23 358.91 211.22 358.96 208.21 359.01 205.2 359.06 202.19 359.79 202.49 360.53 202.78 361.26 203.08 361.99 203.38 362.73 203.67 363.46 203.97 364.19 204.26 364.93 204.56 365.66 204.85 366.39 205.15 367.13 205.44 367.86 205.74 368.59 206.03 369.33 206.32 370.06 206.62 370.79 206.91 371.53 207.21 372.26 207.5 373 207.79 373.73 208.09 374.46 208.38 375.2 208.68 375.93 208.97 376.67 209.27 377.4 209.56 378.13 209.85 378.87 210.15 379.6 210.44 380.34 210.74 381.07 211.03 381.8 211.33 382.54 211.62 383.27 211.92 384.01 212.21 384.74 212.51 385.47 212.8 386.21 213.1 386.94 213.4 387.68 213.69 388.41 213.99 389.14 214.29 389.88 214.58 390.61 214.88 391.35 215.18 392.08 215.48 392.82 215.77 393.55 216.07 394.28 216.37 395.02 216.67 395.75 216.97 396.49 217.27 397.22 217.57 397.95 217.87 398.69 218.17 399.42 218.47 400.16 218.77 400.89 219.07 401.63 219.37 402.36 219.67 403.1 219.97 403.83 220.27 404.56 220.57 405.3 220.88 406.03 221.18 406.03 219.05 406.02 216.91 406.02 214.78 406.01 212.65 405.21 212.26 404.43 211.87 403.64 211.48 402.88 211.09 402.11 210.71 401.36 210.32 400.62 209.93 399.89 209.54 399.16 209.15 398.45 208.77 397.74 208.38 397.04 207.99 396.35 207.6 395.68 207.21 395.01 206.82 394.35 206.43 393.69 206.05 393.06 205.66 392.42 205.27 391.8 204.88 391.18 204.49 390.58 204.1 389.98 203.71 389.4 203.32 388.82 202.93 388.26 202.54 387.69 202.14 387.15 201.75 386.06 200.97 385.04 200.18 384.02 199.4 383.02 198.54 382.01 197.68 381.02 196.74 380.03 195.8 379.05 194.79 378.07 193.77 377.11 192.69 376.14 191.6 375.19 190.43 374.23 189.26 373.29 188.02 372.35 186.78 371.42 185.46 370.49 184.14 369.58 182.75 369.58 182.75 369.58 182.75 368.7 181.35 367.89 179.84 367.07 178.33 366.31 176.69 365.54 175.06 364.83 173.31 364.13 171.55 363.47 169.67 362.82 167.8 362.22 165.8 361.62 163.8 361.08 161.68 360.53 159.56 360.04 157.32 359.55 155.08 359.12 152.72 358.68 150.36 358.3 147.88 357.92 145.4 357.59 142.8 357.26 140.19 356.99 137.47 356.72 134.75 356.5 131.91 356.29 129.06 356.12 126.1 355.96 123.13 355.85 120.05 355.8 118.51 355.75 116.93 355.71 115.36 355.69 113.76 355.66 112.16 355.65 110.53 355.63 108.89 355.63 107.23 355.63 107.23 355.63 107.23M468.72 123.82Q468.72 122.22 468.74 120.65 468.75 119.08 468.78 117.54 468.81 116 468.85 114.49 468.89 112.98 468.95 111.5 469.06 108.53 469.23 105.69 469.4 102.85 469.63 100.12 469.86 97.4 470.14 94.8 470.43 92.19 470.77 89.71 471.12 87.23 471.52 84.87 471.92 82.51 472.38 80.27 472.84 78.03 473.36 75.91 473.88 73.79 474.45 71.8 475.03 69.81 475.67 67.94 476.31 66.07 477.01 64.32 477.71 62.58 478.47 60.96 479.24 59.35 480.06 57.85 480.89 56.37 481.77 55 482.66 53.64 483.61 52.41 484.56 51.18 485.57 50.08 486.58 48.98 487.64 48.01 488.7 47.05 489.81 46.21 490.93 45.38 492.09 44.67 492.67 44.33 493.27 44.01 493.87 43.69 494.47 43.41 495.08 43.13 495.7 42.88 496.32 42.64 496.95 42.42 497.58 42.21 498.23 42.03 498.87 41.85 499.52 41.71 500.18 41.56 500.85 41.45 501.51 41.34 502.19 41.27 502.87 41.19 503.56 41.15 504.25 41.11 504.95 41.11 505.65 41.1 506.36 41.13 507.07 41.17 507.79 41.23 508.52 41.29 509.25 41.39 509.98 41.5 510.73 41.63 511.47 41.77 512.23 41.94 512.98 42.11 513.75 42.32 514.51 42.53 515.29 42.77 516.06 43.02 516.85 43.29 517.63 43.57 518.43 43.88 519.23 44.2 520.03 44.55 520.84 44.9 521.65 45.29 522.47 45.67 523.3 46.09 524.12 46.52 524.96 46.98 525.79 47.44 526.64 47.93 527.48 48.42 528.33 48.93 529.16 49.44 530 49.97 530.83 50.49 531.66 51.02 532.49 51.56 533.32 52.11 534.14 52.66 534.96 53.23 535.78 53.79 536.59 54.36 537.41 54.94 538.22 55.53 539.02 56.12 539.82 56.73 540.63 57.33 541.43 57.95 542.23 58.56 543.02 59.19 543.81 59.83 544.6 60.47 545.38 61.11 546.17 61.76 546.95 62.42 547.73 63.09 548.5 63.76 549.28 64.44 550.05 65.12 550.82 65.81 551.59 66.51 552.35 67.22 553.11 67.92 553.87 68.64 554.62 69.36 555.38 70.09 556.13 70.82 556.88 71.57 557.62 72.31 558.37 73.06 559.11 73.82 559.85 74.58 560.59 75.35 561.32 76.13 562.06 76.91 562.79 77.69 563.52 78.48 564.24 79.28 564.97 80.08 565.69 80.89 566.41 81.7 567.14 82.51 567.86 83.33 568.57 84.15 569.29 84.98 570.01 85.8 570.73 86.63 571.45 87.46 572.17 88.28 572.89 89.11 573.62 89.92 574.36 90.73 575.1 91.52 575.85 92.3 575.85 92.3 575.85 92.3 575.87 93.52 575.88 94.75 575.89 95.97 575.9 97.2 575.92 98.42 575.93 99.65 575.94 100.87 575.96 102.1 575.97 103.32 575.98 104.54 575.99 105.77 576.01 106.99 576.02 108.21 576.03 109.44 576.04 110.66 576.06 111.88 576.07 113.11 576.08 114.33 576.09 115.56 576.1 116.78 576.11 118 576.12 119.23 576.13 120.45 576.14 121.68 576.14 122.9 576.15 124.13 576.15 125.35 576.15 126.58 576.14 127.8 576.14 129.03 576.12 130.25 576.11 131.48 576.08 132.7 576.06 133.93 576.03 135.16 575.99 136.38 575.95 137.61 575.91 138.83 575.87 140.06 575.83 141.29 575.78 142.51 575.74 143.74 575.69 144.97 575.64 146.2 575.59 147.42 575.54 148.65 575.49 149.88 575.45 151.11 575.4 152.33 575.35 153.56 575.3 154.79 575.24 156.02 575.19 157.25 575.14 158.48 575.09 159.7 575.04 160.93 574.99 162.16 574.94 163.39 574.89 164.62 574.84 165.85 574.78 167.08 574.73 168.31 574.68 169.54 574.63 170.77 573.9 170.31 573.17 169.84 572.44 169.37 571.71 168.9 570.99 168.43 570.26 167.95 569.53 167.48 568.8 167 568.07 166.53 567.34 166.05 566.62 165.57 565.89 165.09 565.16 164.6 564.44 164.12 563.71 163.63 562.99 163.15 562.26 162.66 561.54 162.17 560.82 161.68 560.09 161.19 559.37 160.7 558.65 160.21 557.93 159.71 557.21 159.22 556.49 158.72 555.77 158.22 555.05 157.73 554.33 157.23 553.61 156.73 552.89 156.23 552.17 155.73 551.45 155.23 550.74 154.72 550.02 154.22 549.3 153.72 548.59 153.21 547.87 152.71 547.15 152.2 546.44 151.7 545.72 151.19 545.01 150.69 544.29 150.18 543.58 149.67 542.86 149.16 542.15 148.66 541.43 148.15 540.72 147.64 540.01 147.13 539.29 146.62 538.58 146.11 537.86 145.6 537.15 145.09 536.43 144.58 535.72 144.07 535 143.56 534.29 143.05 533.57 142.54 532.86 142.04 532.15 141.53 531.43 141.02 530.72 140.51 530 140 529.28 139.49 528.57 138.98 528.56 140.92 528.55 142.86 528.54 144.79 528.53 146.73 529.39 147.28 530.22 147.83 531.06 148.38 531.88 148.93 532.69 149.48 533.49 150.03 534.29 150.57 535.06 151.12 535.84 151.67 536.6 152.21 537.36 152.76 538.1 153.3 538.84 153.84 539.56 154.39 540.28 154.93 540.98 155.47 541.68 156.01 542.36 156.54 543.04 157.08 543.71 157.62 544.37 158.15 545.01 158.68 545.66 159.22 546.28 159.75 546.91 160.28 547.52 160.8 548.12 161.33 548.71 161.86 549.89 162.91 550.98 163.95 552.08 164.98 553.16 166.08 554.23 167.18 555.28 168.34 556.32 169.49 557.34 170.71 558.36 171.92 559.35 173.19 560.35 174.46 561.31 175.78 562.28 177.11 563.22 178.49 564.16 179.87 565.07 181.31 565.98 182.74 566.86 184.23 566.86 184.23 566.86 184.23 567.7 185.64 568.48 187.14 569.27 188.63 570 190.21 570.73 191.79 571.41 193.46 572.09 195.12 572.72 196.87 573.35 198.62 573.92 200.46 574.5 202.29 575.02 204.22 575.54 206.14 576.01 208.15 576.48 210.16 576.9 212.26 577.32 214.36 577.68 216.55 578.05 218.74 578.36 221.01 578.68 223.29 578.94 225.66 579.2 228.03 579.41 230.48 579.62 232.94 579.77 235.49 579.85 236.77 579.92 238.06 579.98 239.36 580.03 240.68 580.09 242 580.12 243.35 580.16 244.69 580.18 246.06 580.16 247.41 580.15 248.79 580.13 250.17 580.13 251.59 580.13 251.59 580.13 251.59 580.13 252.86 580.15 254.12 580.16 255.38 580.18 256.62 580.14 259.08 580.03 261.43 579.93 263.79 579.77 266.05 579.62 268.32 579.41 270.49 579.2 272.66 578.94 274.74 578.68 276.82 578.37 278.8 578.06 280.79 577.7 282.69 577.33 284.59 576.91 286.4 576.5 288.21 576.03 289.94 575.56 291.67 575.04 293.31 574.52 294.96 573.95 296.53 573.37 298.1 572.75 299.59 572.12 301.09 571.44 302.51 570.76 303.94 570.03 305.29 569.3 306.65 568.52 307.93 567.73 309.23 566.9 310.44 566.06 311.66 565.17 312.81 564.28 313.96 563.34 315.02 562.4 316.09 561.41 317.08 560.41 318.07 559.37 318.97 558.33 319.86 557.23 320.66 556.14 321.45 554.99 322.13 554.42 322.47 553.83 322.79 553.25 323.1 552.65 323.39 552.05 323.68 551.44 323.95 550.83 324.21 550.21 324.46 549.58 324.7 548.95 324.92 548.31 325.14 547.66 325.34 547.01 325.54 546.35 325.72 545.68 325.91 545 326.09 544.32 326.3 543.63 326.5 542.93 326.71 542.22 326.9 541.51 327.1 540.79 327.27 540.07 327.45 539.33 327.6 538.6 327.75 537.85 327.84 537.11 327.88 536.36 327.88 535.61 327.88 534.84 327.86 534.08 327.84 533.3 327.79 532.52 327.74 531.73 327.67 530.94 327.58 530.14 327.39 529.33 327.2 528.52 327.03 527.7 326.86 526.87 326.71 526.87 326.71 526.87 326.71 526 326.55 525.12 326.4 524.24 326.25 523.35 326.22 522.46 326.19 521.57 326.18 520.68 326.16 519.8 326.11 518.91 326.02 518.02 325.92 517.13 325.82 516.24 325.64 515.36 325.46 514.48 325.26 513.59 325.06 512.71 324.86 511.83 324.65 510.94 324.43 510.06 324.21 509.18 323.96 508.29 323.7 507.41 323.44 506.53 323.17 505.65 322.9 504.77 322.62 503.89 322.33 503 322.04 502.12 321.74 501.24 321.43 500.36 321.11 499.48 320.79 498.6 320.47 497.72 320.14 496.84 319.82 495.95 319.52 495.07 319.24 494.18 318.97 493.29 318.69 492.4 318.42 491.51 318.13 490.62 317.84 489.73 317.54 488.84 317.22 487.95 316.89 487.06 316.56 486.18 316.21 485.29 315.85 484.4 315.48 483.51 315.11 482.63 314.72 481.74 314.32 480.86 313.91 479.97 313.49 479.09 313.06 478.2 312.62 477.32 312.17 476.43 311.73 475.55 311.26 474.66 310.8 473.78 310.32 472.89 309.84 472.01 309.34 471.13 308.83 470.24 308.3 470.24 308.3 470.24 308.3 470.32 305.42 470.4 302.53 470.47 299.65 470.55 296.76 470.63 293.88 470.7 290.99 470.78 288.11 470.86 285.22 470.93 282.34 471.01 279.45 471.08 276.57 471.16 273.68 471.23 270.8 471.31 267.91 471.38 265.03 471.45 262.15 471.52 259.26 471.58 256.38 471.64 253.5 471.69 250.61 471.75 247.73 471.8 244.85 471.86 241.96 471.91 239.08 471.97 236.2 472.02 233.32 472.08 230.43 472.13 227.55 472.18 224.67 472.24 221.79 472.29 218.91 472.35 216.03 473.12 216.48 473.9 216.93 474.67 217.38 475.45 217.83 476.22 218.28 477 218.72 477.77 219.17 478.54 219.61 479.32 220.06 480.09 220.5 480.87 220.94 481.64 221.38 482.42 221.82 483.19 222.25 483.97 222.69 484.74 223.12 485.51 223.56 486.29 223.99 487.06 224.42 487.84 224.85 488.61 225.28 489.39 225.71 490.16 226.14 490.94 226.56 491.71 226.99 492.49 227.41 493.26 227.83 494.04 228.25 494.81 228.68 495.59 229.1 496.36 229.51 497.14 229.93 497.91 230.35 498.69 230.77 499.46 231.18 500.24 231.6 501.01 232.01 501.79 232.42 502.57 232.84 503.34 233.25 504.12 233.66 504.89 234.07 505.67 234.48 506.45 234.88 507.22 235.29 508 235.7 508.77 236.1 509.55 236.51 510.33 236.91 511.1 237.32 511.88 237.72 512.65 238.12 513.43 238.53 514.21 238.93 514.98 239.33 515.76 239.73 516.53 240.13 517.31 240.53 518.09 240.92 518.86 241.32 519.64 241.72 520.42 242.11 521.19 242.51 521.97 242.9 521.97 240.97 521.98 239.03 521.98 237.09 521.99 235.15 521.14 234.66 520.31 234.17 519.48 233.67 518.67 233.18 517.86 232.69 517.07 232.2 516.28 231.71 515.51 231.22 514.74 230.74 513.99 230.25 513.24 229.76 512.51 229.28 511.78 228.79 511.07 228.3 510.36 227.82 509.66 227.34 508.97 226.85 508.3 226.37 507.63 225.89 506.97 225.41 506.32 224.93 505.69 224.45 505.05 223.97 504.44 223.49 503.82 223.01 503.23 222.54 502.63 222.06 502.06 221.59 500.9 220.63 499.83 219.69 498.76 218.75 497.7 217.73 496.64 216.72 495.59 215.63 494.54 214.54 493.51 213.37 492.48 212.21 491.46 210.97 490.44 209.72 489.43 208.41 488.42 207.09 487.43 205.7 486.43 204.31 485.45 202.84 484.47 201.37 483.5 199.83 483.5 199.83 483.5 199.83 482.58 198.3 481.72 196.66 480.85 195.03 480.05 193.28 479.24 191.54 478.49 189.68 477.74 187.83 477.05 185.87 476.35 183.91 475.72 181.85 475.08 179.78 474.51 177.61 473.93 175.44 473.41 173.17 472.89 170.89 472.43 168.51 471.96 166.13 471.56 163.65 471.15 161.16 470.81 158.58 470.46 155.99 470.17 153.3 469.88 150.6 469.65 147.81 469.42 145.02 469.24 142.12 469.07 139.22 468.95 136.22 468.9 134.72 468.85 133.2 468.81 131.68 468.78 130.13 468.75 128.58 468.74 127 468.72 125.42 468.72 123.82 468.72 123.82 468.72 123.82M642.3 157.5Q642.3 157.5 642.3 157.5 642.97 158.53 643.67 159.62 644.38 160.71 645.11 161.86 645.84 163.02 646.59 164.24 647.35 165.47 648.13 166.75 648.91 168.05 649.71 169.41 650.5 170.76 651.33 172.19 652.15 173.62 652.99 175.11 653.83 176.61 654.69 178.17 655.55 179.74 656.43 181.38 657.3 183.02 658.19 184.72 659.08 186.43 659.98 188.21 660.88 189.99 661.8 191.84 662.71 193.69 663.64 195.61 664.1 196.57 664.57 197.55 665.03 198.52 665.5 199.52 665.97 200.51 666.45 201.51 666.93 202.51 667.42 203.52 667.93 204.51 668.46 205.49 669.03 206.41 669.56 207.12 669.56 207.12 669.56 207.12 669.98 208.02 670.29 208.78 670.59 209.55 670.89 210.32 671.19 211.09 671.47 211.86 671.76 212.64 672.04 213.41 672.33 214.19 672.61 214.97 672.89 215.75 673.16 216.54 673.43 217.32 673.69 218.11 673.96 218.9 674.23 219.69 674.49 220.48 674.74 221.28 674.99 222.08 675.24 222.88 675.49 223.68 675.74 224.48 675.98 225.28 676.22 226.09 676.46 226.9 676.69 227.71 676.92 228.52 677.15 229.33 677.38 230.14 677.6 230.96 677.82 231.78 678.04 232.6 677.3 232 676.56 231.4 675.83 230.79 675.09 230.18 674.36 229.57 673.63 228.95 672.9 228.33 672.17 227.71 671.45 227.08 670.72 226.45 670 225.82 669.28 225.18 668.56 224.54 667.85 223.9 667.13 223.25 666.42 222.6 666.65 223.54 666.88 224.47 667.11 225.41 667.34 226.34 668.05 226.95 668.76 227.55 669.47 228.16 670.19 228.76 670.9 229.36 671.62 229.95 672.34 230.55 673.06 231.14 673.78 231.72 674.5 232.31 675.23 232.89 675.95 233.47 676.68 234.05 677.41 234.62 678.14 235.19 678.87 235.76 679.11 236.64 679.35 237.53 679.59 238.42 679.82 239.31 680.06 240.2 680.28 241.1 680.51 241.99 680.74 242.89 680.96 243.79 681.18 244.69 681.39 245.59 681.6 246.49 681.81 247.4 682.02 248.3 682.23 249.21 682.43 250.12 682.63 251.03 682.83 251.94 683.02 252.86 683.21 253.77 683.4 254.69 683.58 255.6 683.77 256.52 683.95 257.44 684.12 258.37 684.3 259.29 684.47 260.21 684.64 261.14 684.81 262.07 684.97 263 685.13 263.93 685.29 264.86 684.08 264.23 682.87 263.61 681.67 262.99 680.46 262.37 679.25 261.74 678.05 261.12 676.84 260.5 675.64 259.87 675.74 260.43 675.84 260.99 675.95 261.55 676.05 262.11 676.15 262.67 676.25 263.23 676.35 263.79 676.45 264.36 676.54 264.92 676.64 265.48 676.74 266.04 676.83 266.6 676.93 267.16 677.02 267.72 677.12 268.29 677.21 268.85 677.3 269.41 677.39 269.97 677.48 270.54 677.57 271.1 677.66 271.66 677.75 272.22 677.84 272.79 677.92 273.35 678.01 273.91 678.1 274.48 678.18 275.04 678.26 275.61 678.35 276.17 678.43 276.73 678.51 277.3 678.59 277.86 678.67 278.43 678.75 278.99 678.83 279.56 678.91 280.12 678.98 280.69 679.06 281.25 679.13 281.82 679.21 282.38 679.28 282.95 679.36 283.51 679.43 284.08 679.5 284.65 679.57 285.21 679.64 285.78 679.71 286.34 679.77 286.91 679.84 287.48 679.91 288.04 679.97 288.61 680.03 289.18 680.1 289.75 680.16 290.31 680.22 290.88 680.28 291.45 680.34 292.02 680.4 292.59 680.46 293.15 680.51 293.72 680.57 294.29 680.62 294.86 680.67 295.43 680.73 296 680.78 296.57 680.83 297.14 680.88 297.71 680.92 298.28 680.97 298.85 681.02 299.42 681.06 299.99 681.1 300.56 681.14 301.14 681.18 301.71 681.22 302.28 681.26 302.85 681.3 303.43 681.33 304 681.36 304.58 681.4 305.15 681.43 305.73 681.45 306.3 681.48 306.88 681.5 307.45 681.53 308.03 681.55 308.61 681.57 309.19 681.58 309.77 681.6 310.35 681.61 310.93 681.62 311.51 681.63 312.09 681.63 312.68 681.63 313.26 681.63 313.85 681.63 314.44 681.62 315.03 681.61 315.62 681.59 316.21 681.57 316.8 681.55 317.4 681.52 317.99 681.49 318.59 681.45 319.19 681.41 319.8 681.36 320.41 681.3 321.01 681.24 321.63 681.17 322.24 681.09 322.86 681 323.49 680.91 324.11 680.8 324.75 680.69 325.38 680.56 326.03 680.43 326.68 680.28 327.33 680.13 327.99 679.96 328.66 679.78 329.34 679.6 330.03 679.41 330.72 679.21 331.43 679.02 332.14 678.82 332.87 678.64 333.6 678.46 334.35 678.33 334.95 677.04 335.02 675.75 335.08 674.46 335.15 673.17 335.21 671.88 335.28 670.6 335.39 669.31 335.51 668.03 335.63 666.74 335.75 665.46 335.87 664.17 335.92 662.88 335.92 661.58 335.92 660.29 335.92 658.99 335.92 657.7 335.92 656.41 335.92 655.11 335.92 653.82 335.92 652.53 335.92 651.23 335.92 649.94 335.92 648.65 335.92 647.35 335.92 646.06 335.92 644.77 335.92 643.47 335.92 642.18 335.92 640.88 335.92 639.59 335.92 638.3 335.92 637 335.92 635.71 335.92 634.42 335.92 633.12 335.92 631.83 335.92 630.54 335.92 629.24 335.92 627.95 335.92 626.66 335.92 625.36 335.92 624.07 335.92 622.78 335.92 621.48 335.92 620.19 335.92 618.9 335.92 617.6 335.92 616.31 335.92 615.02 335.87 613.74 335.69 612.46 335.51 611.18 335.33 609.91 335.14 608.63 334.96 607.34 334.92 606.05 334.92 604.75 334.92 603.46 334.92 602.17 334.92 600.87 334.89 599.59 334.81 598.3 334.72 597.01 334.64 595.73 334.55 595.75 333.89 595.77 333.06 595.8 332.21 595.83 331.36 595.86 330.49 595.89 329.62 595.92 328.74 595.96 327.85 596 326.96 596.03 326.06 596.07 325.16 596.11 324.25 596.15 323.35 596.19 322.44 596.23 321.53 596.27 320.61 596.31 319.7 596.35 318.78 596.39 317.86 596.43 316.94 596.48 316.02 596.52 315.1 596.56 314.18 596.6 313.26 596.64 312.34 596.68 311.41 596.72 310.49 596.77 309.56 596.81 308.64 596.85 307.72 596.89 306.79 596.93 305.87 596.97 304.94 597.01 304.01 597.05 303.09 597.09 302.16 597.13 301.24 597.17 300.31 597.21 299.39 597.24 298.46 597.28 297.53 597.32 296.61 597.35 295.68 597.38 294.76 597.42 293.83 597.45 292.9 597.48 291.98 597.5 291.05 597.53 290.13 597.55 289.2 597.58 288.27 597.6 287.35 597.61 286.42 597.63 285.5 597.64 284.57 597.66 283.65 597.67 282.72 597.68 281.79 597.68 280.87 597.69 279.94 597.7 279.02 597.7 278.09 597.71 277.17 597.71 276.24 597.71 275.32 597.72 274.39 597.72 273.47 597.72 272.54 597.72 271.62 597.72 270.69 597.73 269.77 597.73 268.84 597.73 267.92 597.73 266.99 597.73 266.07 597.73 265.14 597.73 264.22 597.72 263.29 597.72 262.37 597.72 261.45 597.72 260.52 597.72 259.6 597.72 258.67 597.72 257.75 597.71 256.82 597.71 255.9 597.71 254.98 597.71 254.05 597.71 253.13 597.7 252.21 597.7 251.28 597.7 250.36 597.7 249.43 597.69 248.51 597.69 247.59 597.69 246.66 597.68 245.74 597.68 244.82 597.68 243.89 597.67 242.97 597.67 242.05 597.67 241.12 597.66 240.2 597.66 239.28 597.66 238.35 597.65 237.43 597.65 236.51 597.65 235.58 597.64 234.66 597.64 233.74 597.63 232.81 597.63 231.89 597.63 230.97 597.62 230.04 597.62 229.12 597.61 228.2 597.61 227.27 597.6 226.35 597.6 225.43 597.6 224.5 597.59 223.58 597.59 222.66 597.58 221.74 597.58 220.81 597.57 219.89 597.57 218.97 597.56 218.04 597.56 217.12 596.58 216.57 595.6 216.02 594.62 215.47 593.64 214.92 592.66 214.37 591.68 213.82 590.7 213.27 589.72 212.72 589.72 210.98 589.72 209.24 589.72 207.5 589.72 205.76 589.72 204.02 589.72 202.28 589.72 200.54 589.72 198.81 589.72 197.07 589.72 195.33 589.72 193.59 589.72 191.85 589.72 190.11 589.72 188.37 589.72 186.63 589.72 184.89 589.71 183.15 589.71 181.41 589.71 179.68 589.71 177.94 589.71 176.2 589.71 174.46 589.71 172.72 589.71 170.98 589.71 169.24 589.71 167.5 589.71 165.76 589.71 164.02 589.71 162.28 589.71 160.55 589.71 158.81 589.71 157.07 590.66 157.78 591.61 158.5 592.56 159.22 593.51 159.95 594.46 160.68 595.4 161.41 596.35 162.15 597.29 162.9 597.29 161.16 597.28 159.43 597.27 157.7 597.27 155.97 597.26 154.23 597.3 152.59 597.34 150.95 597.42 149.41 597.51 147.86 597.64 146.42 597.76 144.97 597.94 143.62 598.11 142.27 598.32 141.02 598.54 139.77 598.8 138.62 599.06 137.48 599.36 136.43 599.67 135.39 600.02 134.45 600.37 133.51 600.76 132.68 601.16 131.85 601.6 131.13 602.04 130.41 602.52 129.8 603.01 129.19 603.54 128.69 604.07 128.2 604.65 127.82 605.23 127.44 605.85 127.17 606.47 126.91 607.14 126.76 607.8 126.61 608.51 126.58 609.22 126.55 609.98 126.64 610.74 126.73 611.56 126.94 612.37 127.16 613.24 127.5 614.1 127.84 615.01 128.3 615.92 128.77 616.88 129.35 617.84 129.94 618.84 130.65 619.84 131.36 620.88 132.2 621.92 133.04 623 133.99 624.07 134.96 625.19 136.04 626.3 137.13 627.46 138.34 628.6 139.56 629.79 140.9 630.97 142.24 632.18 143.71 632.79 144.44 633.4 145.2 634.01 145.97 634.63 146.77 635.25 147.57 635.88 148.4 636.51 149.22 637.14 150.09 637.77 150.95 638.41 151.85 639.05 152.74 639.7 153.66 640.34 154.6 640.99 155.56 641.64 156.52 642.3 157.5 642.3 157.5 642.3 157.5"></path><path fill="#f4f5f0" d="M218.71 430.99Q218.71 430.99 218.71 430.99 218.69 432.84 218.68 434.69 218.66 436.54 218.64 438.39 218.63 440.23 218.61 442.08 218.59 443.93 218.58 445.78 218.56 447.63 218.54 449.48 218.52 451.33 218.5 453.17 218.49 455.02 218.47 456.87 218.45 458.72 218.43 460.56 218.41 462.41 218.39 464.26 218.37 466.11 218.35 467.95 218.34 469.8 218.32 471.65 218.3 473.49 218.28 475.34 218.26 477.19 218.24 479.03 218.22 480.88 218.2 482.72 218.18 484.57 218.16 486.42 218.14 488.26 218.12 490.11 218.1 491.95 218.08 493.8 218.06 495.64 218.04 497.49 218.02 499.33 218 501.18 217.99 503.02 217.97 504.87 217.95 506.71 217.93 508.56 217.91 510.4 217.89 512.25 217.87 514.09 217.85 515.93 217.83 517.78 217.81 519.62 217.79 521.47 217.77 523.31 217.75 525.15 217.73 527 217.71 528.84 217.69 530.68 217.67 532.53 217.65 534.37 217.63 536.21 217.61 538.05 217.59 539.9 217.57 541.74 217.55 543.58 217.53 545.42 217.51 547.27 217.49 549.11 217.5 551.17 217.64 552.99 217.79 554.81 218.07 556.4 218.62 559.57 219.72 561.79 220.82 564.01 222.45 565.28 223.28 565.91 224.23 566.29 225.19 566.68 226.11 566.8 226.11 566.8 226.11 566.8 226.13 570.18 225.98 573.54 225.83 576.89 225.67 580.25 225.52 583.6 225.37 586.95 225.22 590.31 225.07 593.66 224.92 597.01 224.77 600.36 224.62 603.71 224.47 607.05 224.32 610.4 224.17 613.75 224.02 617.09 223.87 620.44 223.73 623.78 223.58 627.12 223.43 630.47 223.28 633.81 223.14 637.15 222.99 640.48 222.85 643.82 222.7 647.15 222.56 650.48 222.42 653.81 222.28 657.13 222.15 660.44 222.02 663.73 221.9 667 221.79 670.22 221.72 673.37 220.52 673.07 219.36 672.76 218.2 672.44 217.07 672.12 215.95 671.8 214.85 671.47 213.76 671.13 212.7 670.8 211.64 670.47 210.61 670.13 209.58 669.79 208.58 669.44 207.59 669.1 206.62 668.75 205.65 668.41 204.72 668.06 203.79 667.7 202.89 667.35 201.99 667 201.11 666.65 200.24 666.3 199.41 665.94 198.57 665.58 197.76 665.23 196.94 664.8 196.16 664.4 195.38 663.98 194.63 663.59 193.13 662.8 191.75 662.11 191.75 662.11 191.75 662.11 190.89 661.68 190.05 661.26 189.21 660.84 188.39 660.45 187.56 660.05 186.75 659.66 185.94 659.18 185.15 658.68 184.35 658.18 183.57 657.67 182.79 657.16 182.02 656.64 180.5 655.59 179.03 654.49 177.56 653.39 176.15 652.25 174.75 651.1 173.4 649.9 172.05 648.71 170.76 647.47 169.47 646.22 168.23 644.94 167 643.66 165.83 642.33 164.65 641 163.53 639.64 162.41 638.28 161.35 636.87 160.28 635.47 159.27 634.03 158.26 632.59 157.3 631.12 156.34 629.65 155.43 628.14 154.53 626.64 153.67 625.1 152.82 623.56 152.01 622 152.01 622 152.01 622 151.29 621.54 150.57 621.09 149.58 621.51 148.58 621.85 147.58 622.17 146.57 622.41 145.56 622.64 144.54 622.78 143.52 622.91 142.49 622.96 141.47 622.99 140.43 622.94 139.39 622.88 138.35 622.74 137.3 622.59 136.25 622.35 135.19 622.11 134.13 621.78 133.07 621.44 131.99 621.02 130.92 620.6 129.83 620.09 128.75 619.57 127.66 618.97 126.56 618.37 125.46 617.68 124.36 616.98 123.24 616.22 122.13 615.44 121 614.57 119.88 613.7 118.72 612.64 117.57 611.56 116.42 610.53 116.42 610.53 116.42 610.53 115.75 609.93 115.09 609.36 114.43 608.78 113.8 608.23 113.16 607.67 112.53 607.07 111.89 606.44 111.26 605.79 110.01 604.5 108.79 603.15 107.58 601.82 106.39 600.44 105.22 599.06 104.07 597.65 102.93 596.24 101.82 594.79 100.71 593.34 99.63 591.87 98.55 590.39 97.5 588.89 96.45 587.39 95.42 585.87 94.39 584.36 93.38 582.82 92.37 581.3 91.38 579.76 90.37 578.24 89.38 576.7 88.39 575.19 87.39 573.67 86.39 572.18 85.39 570.69 84.37 569.24 83.34 567.8 82.3 566.39 81.24 565 80.17 563.65 79.08 562.32 77.97 561.04 76.86 559.76 75.72 558.53 74.58 557.31 73.42 556.12 72.26 554.94 71.09 553.78 69.92 552.63 68.75 551.49 67.59 550.34 66.42 549.2 65.27 548.06 64.12 546.92 62.99 545.75 61.86 544.6 60.76 543.42 59.66 542.24 58.59 541.04 57.52 539.84 56.48 538.6 55.44 537.37 54.44 536.1 53.45 534.83 52.48 533.53 51.52 532.22 50.61 530.88 49.69 529.53 48.8 528.15 47.94 526.76 47.11 525.33 47.11 525.33 47.11 525.33 46.59 524.44 46.11 523.57 45.64 522.7 45.2 521.84 44.77 520.98 44.37 520.14 43.97 519.31 43.61 518.49 43.26 517.66 42.95 516.86 42.63 516.05 42.35 515.27 41.8 513.69 41.41 512.18 41.02 510.67 40.78 509.23 40.56 507.79 40.48 506.41 40.41 505.03 40.49 503.72 40.58 502.4 40.81 501.15 41.06 499.89 41.45 498.7 41.85 497.5 42.4 496.38 42.96 495.24 43.66 494.17 44.36 493.1 45.21 492.09 46.07 491.07 47.07 490.12 48.07 489.17 49.21 488.28 50.35 487.38 51.63 486.55 52.92 485.71 54.33 484.94 54.33 484.94 54.33 484.94 55.09 484.54 55.86 484.15 56.63 483.75 57.42 483.37 58.2 482.99 59.01 482.62 59.81 482.24 60.63 481.88 61.45 481.51 62.29 481.16 63.13 480.8 63.98 480.45 64.83 480.1 65.7 479.77 66.57 479.43 67.45 479.1 68.33 478.77 69.23 478.45 70.13 478.14 71.05 477.83 71.96 477.52 72.89 477.22 73.82 476.93 74.76 476.64 75.7 476.36 76.66 476.08 77.62 475.81 78.59 475.55 79.57 475.28 80.55 475.04 81.54 474.79 82.54 474.55 83.55 474.31 84.58 474.08 85.62 473.85 86.69 473.62 87.76 473.38 88.87 473.16 89.98 472.93 91.12 472.7 92.26 472.47 93.44 472.25 94.61 472.03 95.82 471.81 97.04 471.59 98.28 471.37 99.53 471.15 100.81 470.94 102.09 470.73 103.41 470.52 104.72 470.31 106.07 470.11 107.42 469.9 108.81 469.7 110.2 469.5 111.62 469.31 113.04 469.11 114.49 468.92 115.95 468.73 117.44 468.55 118.93 468.37 120.46 468.19 121.99 468.01 123.55 467.84 123.55 467.84 123.55 467.84 123.37 466.44 123.19 465.04 123.01 463.64 122.83 462.23 122.65 460.83 122.47 459.42 122.3 458.02 122.12 456.61 120.82 456.89 119.52 457.16 118.22 457.44 116.92 457.71 115.62 457.99 114.32 458.26 113.02 458.53 111.73 458.8 110.43 459.08 109.13 459.35 107.83 459.62 106.53 459.89 105.24 460.15 103.94 460.42 102.64 460.69 101.34 460.96 100.04 461.22 98.74 461.49 97.44 461.75 96.14 462.01 94.84 462.28 93.53 462.54 92.23 462.8 90.93 463.06 89.62 463.32 88.32 463.58 87.01 463.83 85.7 464.09 84.39 464.34 83.08 464.6 81.77 464.85 80.46 465.1 79.15 465.35 77.83 465.6 76.51 465.85 75.19 466.1 73.87 466.34 72.55 466.59 71.23 466.83 69.9 467.07 68.57 467.31 67.24 467.55 65.91 467.79 64.58 468.02 63.24 468.26 61.9 468.49 60.56 468.72 59.21 468.95 57.87 469.17 56.52 469.4 55.17 469.62 53.81 469.84 52.45 470.06 51.1 470.28 49.73 470.49 48.37 470.7 47 470.91 45.63 471.12 44.26 471.32 42.89 471.53 41.51 471.72 40.14 471.92 38.76 472.11 37.38 472.3 36.93 471.33 36.48 470.35 36.04 469.38 35.6 468.4 35.16 467.43 34.72 466.45 34.28 465.48 33.85 464.5 33.42 463.52 32.99 462.55 32.56 461.57 32.14 460.59 31.72 459.61 31.3 458.63 30.88 457.65 30.47 456.68 30.06 455.7 29.65 454.72 29.24 453.73 28.84 452.75 28.44 451.77 28.04 450.79 27.65 449.81 27.25 448.83 26.86 447.84 26.47 446.86 26.09 445.87 25.7 444.89 25.32 443.9 24.95 442.92 24.57 441.93 24.2 440.94 23.83 439.96 23.47 438.97 23.1 437.98 22.74 436.99 22.39 436 22.03 435 21.68 434.01 21.33 433.02 20.99 432.02 20.65 431.03 20.31 430.03 19.97 429.03 19.64 428.03 19.31 427.03 18.99 426.02 18.67 425.02 18.35 424.01 18.04 422.99 17.73 421.98 17.43 420.96 17.13 419.94 16.84 418.91 16.55 417.88 16.27 416.85 16 415.8 15.73 414.75 15.47 413.68 15.23 412.61 14.99 411.52 14.77 410.41 14.57 409.28 14.38 408.12 16.48 406.89 18.49 405.68 20.45 404.49 22.34 403.36 24.2 402.25 26.02 401.17 27.81 400.12 29.59 399.09 31.35 398.07 33.09 397.06 34.82 396.04 36.53 395.02 38.23 393.99 39.91 392.98 41.59 391.97 43.27 390.98 44.95 390.01 46.62 389.06 48.3 388.13 49.98 387.22 51.65 386.32 53.32 385.42 54.98 384.52 56.62 383.62 58.27 382.72 59.92 381.86 61.58 381.03 63.24 380.24 64.9 379.47 66.57 378.72 68.24 377.99 69.9 377.28 71.56 376.57 73.21 375.84 74.82 375.04 76.42 374.21 78.01 373.38 79.61 372.59 81.23 371.87 82.85 371.19 84.48 370.52 86.1 369.86 87.72 369.2 89.33 368.56 90.94 367.91 92.53 367.26 94.1 366.52 95.64 365.76 97.18 364.99 98.71 364.24 100.28 363.57 101.85 362.96 103.43 362.35 104.99 361.75 106.57 361.16 108.13 360.6 109.7 360.03 111.26 359.48 112.81 358.93 114.36 358.39 115.91 357.86 117.46 357.33 119 356.81 120.53 356.3 122.07 355.78 123.57 355.3 125.08 354.82 126.57 354.36 128.05 353.91 129.51 353.48 130.97 353.05 132.4 352.65 133.85 352.31 135.28 352.01 136.71 351.71 138.11 351.44 139.52 351.17 140.9 350.96 142.29 350.76 143.65 350.58 145.01 350.39 146.34 350.21 147.66 349.99 148.94 349.77 150.23 349.55 151.49 349.36 152.75 349.19 154 349.06 155.25 348.96 156.47 348.89 157.7 348.83 158.91 348.8 160.11 348.78 161.29 348.79 162.48 348.81 163.63 348.86 164.79 348.91 165.92 348.98 167.05 349.06 168.16 349.16 169.26 349.26 170.34 349.39 171.42 349.52 172.47 349.68 173.52 349.83 174.55 350.01 175.57 350.19 176.57 350.4 178.56 350.82 180.45 351.35 182.34 351.89 184.12 352.54 185.9 353.2 187.58 353.98 189.26 354.77 190.83 355.68 192.4 356.6 193.86 357.64 195.32 358.7 196.71 359.91 198.09 361.13 199.4 362.5 200.7 363.89 201.92 365.42 203.14 366.98 204.28 368.68 205.42 370.4 206.47 372.26 207.53 374.14 208.5 376.17 209.48 378.2 210.37 380.38 211.26 382.57 212.06 384.9 212.87 387.24 213.59 389.72 214.3 392.2 214.94 394.81 215.56 397.43 216.09 400.19 216.61 402.94 217.03 405.83 217.43 408.72 217.74 411.73 218.04 414.75 218.25 417.9 218.45 421.04 218.57 424.32 218.68 427.59 218.71 430.99 218.71 430.99 218.71 430.99M133.62 520.54Q131.94 520.22 130.27 519.9 128.59 519.57 126.91 519.25 127.27 521.86 127.63 524.47 127.98 527.09 128.34 529.71 128.69 532.32 129.04 534.95 129.39 537.57 129.74 540.19 130.09 542.82 130.43 545.46 130.78 548.09 131.12 550.73 131.46 553.37 131.8 556.02 132.13 558.67 132.46 561.33 134 561.98 135.54 562.63 137.08 563.28 138.62 563.92 138.33 561.19 138.03 558.46 137.72 555.73 137.42 553.01 137.11 550.29 136.8 547.58 136.49 544.87 136.18 542.16 135.86 539.45 135.55 536.74 135.23 534.04 134.91 531.34 134.59 528.64 134.27 525.94 133.95 523.24 133.62 520.54 133.62 520.54 133.62 520.54M417.75 693.28Q417.75 693.28 417.75 693.28 416.67 693.49 415.61 693.72 414.54 693.93 413.5 694.16 412.45 694.38 411.42 694.61 410.4 694.74 409.38 694.84 408.37 694.93 407.37 695 406.38 695.07 405.4 695.13 403.44 695.21 401.56 695.2 399.67 695.18 397.85 695.06 396.03 694.94 394.29 694.72 392.54 694.49 390.86 694.17 389.18 693.85 387.58 693.43 385.97 693 384.44 692.49 382.9 691.97 381.44 691.35 379.98 690.74 378.59 690.03 377.2 689.32 375.88 688.52 374.56 687.72 373.31 686.83 372.07 685.94 370.9 684.97 369.72 683.99 368.62 682.92 367.52 681.86 366.5 680.71 366.5 680.71 366.5 680.71 365.52 680.75 364.55 680.79 363.34 682.04 362.11 683.2 360.88 684.36 359.62 685.45 358.36 686.52 357.08 687.52 355.8 688.52 354.5 689.43 353.19 690.34 351.86 691.17 350.53 692 349.18 692.74 347.83 693.48 346.46 694.14 345.08 694.79 343.68 695.36 342.28 695.93 340.86 696.42 339.44 696.9 338 697.29 336.55 697.68 335.08 697.99 333.61 698.3 332.12 698.52 330.63 698.73 329.12 698.87 327.6 699 326.07 699.04 324.53 699.06 322.97 698.88 321.41 698.68 319.83 698.55 319.83 698.55 319.83 698.55 318.51 698.43 317.2 698.36 315.9 698.27 314.62 698.22 313.33 698.01 312.07 697.77 310.81 697.51 309.57 697.21 308.33 696.91 307.12 696.58 305.9 696.23 304.7 695.84 303.51 695.45 302.33 695.02 301.16 694.59 300.01 694.12 298.85 693.64 297.72 693.12 296.59 692.6 295.49 692.04 294.38 691.47 293.29 690.86 292.2 690.26 291.14 689.61 290.08 688.96 289.03 688.27 287.99 687.58 286.97 686.85 285.95 686.12 284.95 685.35 283.95 684.58 282.98 683.77 282 682.95 281.05 682.1 280.09 681.25 279.16 680.37 278.22 679.48 277.31 678.56 276.4 677.63 275.51 676.67 274.62 675.71 273.75 674.72 272.88 673.73 272.04 672.7 271.19 671.68 270.36 670.62 269.53 669.56 268.73 668.48 267.92 667.39 267.14 666.28 266.35 665.16 265.58 664.02 264.82 662.88 264.07 661.72 263.32 660.56 262.6 659.37 261.87 658.18 261.16 656.97 260.46 655.76 259.77 654.53 259.08 653.3 258.41 652.05 257.74 650.8 257.09 649.52 256.44 648.26 255.8 646.96 255.17 645.67 254.56 644.36 253.95 643.05 253.35 641.71 252.76 640.38 252.18 639.03 251.61 637.68 251.05 636.3 250.49 634.92 249.95 633.52 249.42 632.12 248.9 630.7 248.38 629.27 247.88 627.82 247.38 626.37 246.9 624.9 246.42 623.42 245.96 621.92 245.5 620.42 245.06 618.89 244.63 617.36 244.21 615.8 243.79 614.24 243.39 612.65 242.99 611.07 242.62 609.45 242.24 607.84 241.89 606.19 241.53 604.54 241.2 602.87 240.87 601.19 240.57 599.49 240.26 597.78 239.97 596.04 239.68 594.3 239.42 592.54 239.15 590.77 238.9 588.97 238.66 587.17 238.43 585.34 238.21 583.51 238 581.64 237.8 579.78 237.61 577.88 237.43 575.99 237.27 574.06 237.1 572.13 236.96 570.17 236.82 568.21 236.7 566.22 236.57 564.23 236.47 562.2 236.37 560.18 236.29 558.12 236.21 556.06 236.14 553.97 236.08 551.88 236.04 549.75 236 547.63 235.98 545.47 235.96 543.31 235.96 541.12 235.96 541.12 235.96 541.12 235.96 539.05 235.98 537.01 236 534.97 236.05 532.96 236.09 530.96 236.15 528.98 236.22 527 236.3 525.06 236.39 523.11 236.5 521.2 236.61 519.28 236.73 517.4 236.86 515.51 237.01 513.66 237.16 511.81 237.34 509.98 237.51 508.16 237.7 506.37 237.9 504.58 238.11 502.82 238.33 501.05 238.56 499.32 238.8 497.59 239.06 495.89 239.31 494.19 239.59 492.52 239.87 490.85 240.17 489.21 240.48 487.57 240.8 485.96 241.12 484.35 241.46 482.77 241.81 481.18 242.17 479.63 242.54 478.08 242.92 476.56 243.31 475.04 243.72 473.55 244.13 472.06 244.56 470.6 244.99 469.14 245.44 467.71 245.89 466.28 246.36 464.88 246.83 463.47 247.32 462.1 247.82 460.73 248.33 459.39 248.85 458.04 249.38 456.73 249.92 455.41 250.48 454.13 251.03 452.85 251.61 451.59 252.19 450.33 252.79 449.11 253.39 447.88 254.01 446.68 254.63 445.48 255.28 444.32 255.92 443.15 256.58 442.01 257.25 440.87 257.93 439.75 258.62 438.64 259.32 437.56 260.03 436.48 260.75 435.43 261.47 434.38 262.21 433.37 262.95 432.35 263.71 431.37 264.47 430.38 265.25 429.43 266.03 428.48 266.83 427.56 267.63 426.64 268.44 425.75 269.26 424.87 270.09 424.01 270.93 423.16 271.78 422.33 272.63 421.51 273.5 420.72 274.37 419.93 275.26 419.17 276.15 418.41 277.06 417.68 277.97 416.96 278.9 416.26 279.83 415.57 280.77 414.91 281.72 414.25 282.68 413.62 283.65 412.99 284.63 412.4 285.61 411.81 286.62 411.25 287.62 410.69 288.64 410.16 289.66 409.63 290.7 409.14 291.74 408.65 292.8 408.19 293.86 407.73 294.93 407.31 296.01 406.88 297.11 406.5 298.2 406.11 299.32 405.76 300.43 405.4 301.57 405.09 302.7 404.77 303.85 404.49 305.01 404.21 306.18 403.96 307.35 403.72 308.54 403.51 309.73 403.31 310.94 403.13 312.15 402.96 313.38 402.83 314.61 402.7 315.86 402.6 317.11 402.51 318.38 402.45 319.64 402.39 320.93 402.37 320.93 402.37 320.93 402.37 322.22 402.35 323.63 402.4 325.04 402.46 326.58 402.59 328.12 402.72 329.79 402.92 331.45 403.12 333.24 403.4 335.04 403.68 336.95 404.04 337.91 404.22 338.9 404.42 339.89 404.61 340.92 404.83 341.94 405.05 342.99 405.29 344.05 405.52 345.13 405.78 346.22 406.04 347.34 406.31 348.45 406.59 349.6 406.89 349.6 406.89 349.6 406.89 349.58 404.21 349.56 401.53 349.53 398.85 349.5 396.17 349.48 393.48 349.45 390.8 349.43 388.1 349.4 385.41 349.37 382.71 349.35 380.01 349.32 377.31 349.29 374.6 349.26 371.89 349.24 369.18 349.21 366.47 349.18 363.75 349.15 361.03 349.12 358.31 349.1 355.59 349.07 352.86 349.04 350.13 349.01 347.41 348.98 344.68 348.95 341.95 348.93 339.22 348.9 336.49 348.87 333.76 348.84 331.03 348.81 328.3 348.78 325.58 348.75 322.86 348.72 320.14 350.24 320.14 351.75 320.14 353.27 320.14 354.78 320.14 356.3 320.14 357.81 320.14 359.33 320.14 360.84 320.14 362.36 320.14 363.87 320.14 365.39 320.14 366.9 320.14 368.42 320.14 369.93 320.15 371.45 320.17 372.96 320.2 374.47 320.23 375.99 320.25 377.49 320.35 379 320.53 380.5 320.72 382 320.91 383.5 321.09 385.01 321.19 386.52 321.25 388.03 321.31 389.54 321.36 391.05 321.43 392.56 321.59 394.06 321.74 395.56 321.9 397.07 322.05 398.57 322.19 400.08 322.29 401.58 322.4 403.09 322.51 404.6 322.61 406.1 322.72 407.61 322.83 409.12 322.93 410.62 323.04 412.13 323.15 413.63 323.31 415.14 323.46 416.64 323.62 418.14 323.77 419.65 323.89 421.16 323.95 422.67 324.01 424.18 324.07 425.69 324.13 427.19 324.3 428.69 324.52 430.19 324.74 431.69 324.95 433.18 325.17 434.68 325.38 436.18 325.59 437.68 325.8 439.17 326.01 440.67 326.17 442.18 326.25 443.69 326.32 445.2 326.4 445.25 328.51 445.32 330.62 445.39 332.7 445.46 334.77 445.54 336.82 445.63 338.86 445.72 340.89 445.81 342.92 445.91 344.94 446 346.95 446.1 348.96 446.2 350.97 446.3 352.98 446.4 354.98 446.5 356.98 446.6 358.98 446.7 360.98 446.8 362.98 446.91 364.98 447.01 366.98 447.11 368.97 447.21 370.97 447.31 372.97 447.41 374.96 447.51 376.95 447.61 378.95 447.7 380.94 447.8 382.94 447.89 384.93 447.98 386.92 448.07 388.91 448.16 390.9 448.24 392.9 448.31 394.89 448.37 396.88 448.43 398.87 448.49 400.86 448.53 402.85 448.57 404.84 448.6 406.83 448.63 408.82 448.65 410.82 448.67 412.81 448.69 414.8 448.7 416.79 448.72 418.78 448.73 420.77 448.74 422.76 448.75 424.75 448.76 426.73 448.77 428.72 448.78 430.71 448.78 432.7 448.79 434.69 448.8 436.68 448.8 438.67 448.81 440.66 448.82 442.65 448.82 444.64 448.83 446.63 448.83 448.62 448.83 450.61 448.84 452.6 448.84 454.58 448.85 456.57 448.85 458.56 448.85 460.55 448.86 462.54 448.86 464.53 448.86 466.52 448.87 468.51 448.87 470.5 448.87 472.49 448.88 474.48 448.88 476.46 448.88 478.45 448.88 480.44 448.89 482.43 448.89 484.42 448.89 486.41 448.89 488.4 448.89 490.39 448.9 492.38 448.9 494.37 448.9 496.36 448.9 498.34 448.91 500.33 448.91 502.32 448.91 504.31 448.91 506.3 448.91 508.29 448.91 510.28 448.92 512.27 448.92 514.26 448.92 516.25 448.92 518.24 448.92 520.23 448.92 522.22 448.93 524.21 448.93 526.2 448.93 528.19 448.93 530.18 448.93 532.17 448.93 534.16 448.93 536.15 448.94 538.14 448.94 540.13 448.94 542.12 448.94 544.11 448.94 546.11 448.94 548.1 448.94 550.09 448.95 552.08 448.95 554.07 448.95 556.06 448.95 558.05 448.95 560.05 448.95 562.04 448.95 564.03 448.96 566.02 448.96 568.01 448.96 570.01 448.96 572 448.96 573.99 448.96 575.99 448.96 577.98 448.96 579.97 448.97 581.97 448.97 583.57 449.11 584.97 449.26 586.37 449.55 587.55 450.13 589.92 451.29 591.46 452.44 592.99 454.18 593.68 455.05 594.03 456.06 594.17 457.07 594.31 458.05 594.25 458.05 594.25 458.05 594.25 458.06 596.94 457.89 599.64 457.72 602.34 457.55 605.04 457.39 607.74 457.22 610.45 457.05 613.15 456.88 615.86 456.71 618.56 456.54 621.27 456.38 623.97 456.21 626.68 456.04 629.39 455.87 632.1 455.71 634.81 455.54 637.53 455.37 640.24 455.21 642.96 455.04 645.67 454.87 648.39 454.71 651.12 454.54 653.84 454.38 656.57 454.21 659.3 454.05 662.04 453.89 664.78 453.73 667.54 453.57 670.3 453.41 673.09 453.26 675.9 453.11 678.75 452.97 681.68 451.4 682.33 449.9 682.96 448.39 683.58 446.94 684.17 445.49 684.75 444.09 685.29 442.7 685.84 441.36 686.35 440.02 686.85 438.74 687.32 437.46 687.79 436.24 688.22 435.02 688.65 433.86 689.04 432.7 689.44 431.59 689.81 430.49 690.16 429.44 690.49 428.4 690.81 427.41 691.11 425.44 691.7 423.71 692.17 421.97 692.52 420.48 692.78 418.99 693.03 417.75 693.28 417.75 693.28 417.75 693.28M345.69 611.82Q347.62 611.84 349.55 611.84 351.48 611.84 353.42 611.84 353.41 610.04 353.4 608.25 353.4 606.45 353.39 604.67 353.39 602.88 353.38 601.09 353.37 599.31 353.37 597.53 353.36 595.76 353.35 593.98 353.35 592.21 353.34 590.44 353.33 588.67 353.33 586.9 353.32 585.14 353.32 583.38 353.31 581.62 353.3 579.86 353.3 578.1 353.29 576.35 353.28 574.59 353.28 572.84 353.27 571.09 353.26 569.34 353.26 567.6 353.25 565.85 353.24 564.11 353.24 562.37 353.23 560.63 353.22 558.89 353.22 557.15 353.21 555.42 353.2 553.68 353.2 551.95 353.19 550.22 353.18 548.49 353.18 546.76 353.17 545.03 353.16 543.3 353.15 541.57 353.15 539.85 353.14 538.12 353.13 536.4 353.13 534.68 353.12 532.95 353.11 531.23 353.1 529.51 353.09 527.79 353.09 526.08 353.08 524.36 353.07 522.64 353.06 520.93 353.06 519.21 353.05 517.49 353.04 515.78 353.03 514.07 353.02 512.35 353.01 510.64 353.01 508.93 353 507.22 352.99 505.51 352.98 503.79 352.97 502.08 352.96 500.37 351.04 500.37 349.11 500.37 347.19 500.36 345.27 500.35 345.28 502.06 345.29 503.77 345.29 505.49 345.3 507.2 345.31 508.91 345.32 510.62 345.33 512.33 345.33 514.05 345.34 515.76 345.35 517.48 345.36 519.19 345.37 520.91 345.37 522.62 345.38 524.34 345.39 526.06 345.39 527.77 345.4 529.49 345.41 531.21 345.42 532.93 345.42 534.66 345.43 536.38 345.44 538.1 345.44 539.83 345.45 541.55 345.46 543.28 345.46 545.01 345.47 546.74 345.48 548.47 345.48 550.2 345.49 551.93 345.5 553.66 345.5 555.4 345.51 557.13 345.52 558.87 345.52 560.61 345.53 562.35 345.53 564.09 345.54 565.83 345.55 567.58 345.55 569.33 345.56 571.07 345.57 572.82 345.57 574.57 345.58 576.33 345.58 578.08 345.59 579.84 345.59 581.6 345.6 583.36 345.61 585.12 345.61 586.89 345.62 588.65 345.62 590.42 345.63 592.19 345.64 593.96 345.64 595.74 345.65 597.52 345.65 599.3 345.66 601.08 345.66 602.86 345.67 604.65 345.67 606.44 345.68 608.23 345.68 610.03 345.69 611.82 345.69 611.82 345.69 611.82M601.75 345.09Q601.75 345.09 601.75 345.09 603.77 345.09 605.9 345.1 608.02 345.12 610.24 345.41 612.44 345.74 614.75 346.09 617.09 346.2 619.53 346.24 621.98 346.27 624.53 346.32 627.08 346.37 629.74 346.42 632.4 346.47 635.16 346.54 637.93 346.6 640.8 346.67 643.67 346.74 646.65 346.82 649.64 346.9 652.73 346.99 655.82 347.07 659.03 347.16 662.24 347.23 665.56 347.24 668.87 347.11 672.31 346.97 674.04 346.92 675.81 346.88 677.58 346.83 679.39 346.77 681.21 346.69 683.08 346.6 684.98 346.52 686.96 346.46 688.99 346.43 691.15 346.42 693.45 346.39 695.51 346.37 695.51 346.37 695.51 346.37 697.66 348.04 699.34 349.74 699.46 351.32 699.24 352.87 699.01 354.42 698.79 355.98 698.55 357.53 698.32 359.08 698.08 360.63 697.83 362.18 697.58 363.74 697.32 365.29 697.06 366.85 696.78 368.4 696.51 369.95 696.22 371.51 695.93 373.06 695.64 374.62 695.33 376.18 695.03 377.73 694.71 379.29 694.39 380.85 694.06 382.4 693.73 383.96 693.38 385.52 693.04 387.08 692.68 388.64 692.32 390.19 691.96 391.75 691.59 393.31 691.21 394.87 690.82 396.43 688.95 396.66 687.07 396.88 685.19 397.1 683.31 397.32 681.43 397.53 679.55 397.74 677.66 397.94 675.78 398.14 673.9 398.34 672.02 398.53 670.14 398.72 668.26 398.91 666.38 399.09 664.5 399.27 662.63 399.45 660.75 399.62 660.61 401.16 660.47 402.69 660.32 404.22 660.16 405.75 661.98 405.57 663.8 405.37 665.62 405.18 667.45 404.98 669.27 404.78 671.1 404.58 672.92 404.37 674.75 404.16 676.58 403.95 678.4 403.73 680.23 403.52 682.06 403.29 683.88 403.07 685.7 402.84 687.53 402.61 689.35 402.37 688.99 403.99 688.62 405.6 688.25 407.22 687.87 408.84 687.48 410.45 687.09 412.07 686.69 413.68 686.28 415.3 685.86 416.91 685.44 418.53 685.02 420.14 684.58 421.75 684.14 423.36 683.69 424.98 683.24 426.59 682.78 428.2 682.31 429.81 681.84 431.42 681.35 433.03 680.87 434.63 680.37 436.24 679.87 437.85 679.37 439.45 678.85 441.06 678.33 442.66 677.81 444.27 677.27 445.87 676.73 447.47 676.19 449.07 675.64 450.67 675.08 452.27 674.51 453.86 671.9 454.46 669.29 455.06 666.68 455.66 664.07 456.25 661.46 456.85 658.85 457.44 656.24 458.03 653.64 458.63 653.42 459.52 653.2 460.42 652.98 461.32 652.76 462.21 652.53 463.11 652.31 464 652.08 464.9 651.85 465.79 651.62 466.69 651.38 467.58 651.15 468.47 650.91 469.37 650.67 470.26 650.43 471.15 650.19 472.04 649.94 472.93 649.7 473.82 649.45 474.71 649.2 475.6 648.95 476.49 648.69 477.37 648.44 478.26 648.18 479.15 647.92 480.03 647.66 480.92 647.4 481.81 647.14 482.69 646.87 483.58 646.6 484.46 646.33 485.34 646.06 486.23 645.79 487.11 645.52 487.99 645.24 488.87 644.97 489.75 644.69 490.63 644.41 491.51 644.12 492.39 643.84 493.27 643.55 494.15 643.27 495.02 642.98 495.9 642.69 496.78 642.4 497.65 642.1 498.53 641.81 499.41 641.51 500.28 641.21 501.15 640.91 502.03 640.61 502.9 640.31 503.77 640.01 504.65 639.7 505.52 639.4 506.39 639.09 507.26 638.78 508.13 638.47 509 638.15 509.87 637.84 510.74 637.53 511.61 637.21 512.48 636.89 513.35 636.57 514.22 636.25 515.08 635.93 515.95 635.61 516.82 635.29 517.69 634.96 518.55 634.63 519.42 634.31 520.29 633.98 521.15 633.65 522.02 633.32 522.89 632.99 523.75 632.66 524.62 632.33 525.49 631.99 526.35 631.66 527.22 631.33 528.09 630.99 528.96 630.66 529.82 630.32 530.69 629.98 531.56 629.65 532.43 629.31 533.3 628.97 534.17 628.64 535.05 628.3 535.92 627.96 536.79 627.63 537.67 627.29 538.54 626.96 539.42 626.62 540.3 626.29 541.18 625.96 542.07 625.63 542.95 625.3 543.84 624.97 544.73 624.65 545.63 624.32 546.52 624 547.43 623.68 548.33 623.37 549.24 623.06 550.15 622.75 551.07 622.45 551.99 622.15 552.92 621.86 553.86 621.58 554.81 621.3 555.76 621.02 556.72 620.76 557.69 620.5 558.67 620.26 559.66 620.02 560.66 619.8 561.67 619.58 562.7 619.38 563.74 619.19 564.8 619.02 565.87 618.86 566.96 618.72 568.07 618.59 569.19 618.47 570.33 618.37 571.49 618.29 572.67 618.21 573.85 618.15 574.82 616.46 576.81 614.76 578.79 613.05 580.76 611.31 582.71 609.57 584.66 607.81 586.59 606.03 588.5 604.25 590.41 602.44 592.29 600.63 594.17 598.8 596.03 596.96 597.88 595.09 599.72 593.23 601.54 591.34 603.35 589.45 605.15 587.53 606.92 585.61 608.69 583.67 610.43 581.72 612.18 579.76 613.89 577.78 615.61 575.79 617.29 573.79 618.98 571.78 620.64 569.75 622.29 567.72 623.92 565.67 625.54 563.6 627.14 561.53 628.73 559.45 630.3 557.35 631.85 555.24 633.4 553.12 634.92 550.99 636.44 548.84 637.92 546.69 639.41 544.52 640.86 542.35 642.31 540.16 643.74 537.97 645.15 535.76 646.55 533.54 647.93 531.31 649.29 529.07 650.64 526.82 651.97 524.57 653.28 522.3 654.58 520.02 655.86 517.73 657.12 515.43 658.36 513.13 659.59 510.81 660.8 508.49 662 506.15 663.17 503.81 664.34 501.46 665.47 499.1 666.6 496.73 667.7 494.36 668.79 491.97 669.86 489.58 670.92 487.18 671.94 484.77 672.96 484.76 671.86 484.75 670.48 484.73 669.08 484.71 667.68 484.69 666.28 484.67 664.88 484.65 663.48 484.63 662.07 484.61 660.67 484.59 659.27 484.58 657.86 484.56 656.46 484.54 655.07 484.53 653.67 484.51 652.27 484.5 650.88 484.49 649.48 484.48 648.09 484.46 646.7 484.45 645.31 484.44 643.92 484.43 642.53 484.43 641.14 484.42 639.75 484.41 638.37 484.4 636.98 484.4 635.6 484.39 634.21 484.38 632.83 484.38 631.45 484.37 630.07 484.37 628.69 484.37 627.31 484.36 625.93 484.36 624.55 484.36 623.17 484.35 621.79 484.35 620.41 484.35 619.04 484.35 617.66 484.35 616.29 484.35 614.91 484.35 613.54 484.35 612.16 484.35 610.79 484.35 609.42 484.35 608.04 484.36 606.67 484.36 605.3 484.36 603.93 484.37 602.56 484.37 601.19 484.38 599.82 484.38 598.45 484.39 597.08 484.39 595.71 484.4 594.34 484.41 592.97 484.42 591.6 484.42 590.24 484.43 588.87 484.44 587.5 484.45 586.13 484.46 584.77 484.47 583.4 484.48 582.04 484.49 580.67 484.5 579.31 484.51 577.94 484.52 576.58 484.53 575.21 484.54 573.85 484.55 572.48 484.56 571.12 484.57 569.75 484.58 568.39 484.59 567.03 484.6 565.66 484.62 564.3 484.63 562.94 484.64 561.58 484.65 560.21 484.66 558.85 484.67 557.49 484.69 556.13 484.7 554.77 484.71 553.41 484.72 552.04 484.73 550.68 484.74 549.32 484.76 547.96 484.77 546.6 484.78 545.24 484.79 543.88 484.81 542.52 484.82 541.16 484.83 539.8 484.84 538.44 484.86 537.08 484.87 535.72 484.88 534.36 484.89 533 484.9 531.64 484.92 530.28 484.93 528.92 484.94 527.57 484.95 526.21 484.97 524.85 484.98 523.49 484.99 522.13 485 520.77 485.02 519.41 485.03 518.06 485.04 516.7 485.05 515.34 485.07 513.98 485.08 512.62 485.09 511.27 485.1 509.91 485.12 508.55 485.13 507.19 485.14 505.84 485.15 504.48 485.16 503.12 485.18 501.76 485.19 500.41 485.2 499.05 485.21 497.69 483.1 498.18 480.99 498.66 478.87 499.14 476.76 499.63 474.65 500.11 472.54 500.6 470.43 501.08 468.32 501.56 468.32 499.01 468.32 496.47 468.32 493.92 468.32 491.37 468.32 488.82 468.32 486.27 468.32 483.72 468.32 481.17 468.32 478.62 468.32 476.07 468.32 473.53 468.32 470.98 468.32 468.43 468.32 465.88 468.32 463.33 468.32 460.78 468.32 458.23 468.32 455.68 468.32 453.14 468.32 450.59 468.32 448.04 468.32 445.49 468.32 442.94 468.32 440.39 468.32 437.84 468.32 435.29 468.32 432.74 468.33 430.2 468.33 427.65 468.33 425.1 468.33 422.55 468.33 420 470.5 419.74 472.68 419.49 474.87 419.25 477.05 419.01 479.24 418.77 481.42 418.55 483.61 418.33 485.8 418.11 485.82 415.57 485.83 413.04 485.85 410.51 485.86 407.97 485.87 405.44 485.99 402.98 486.1 400.53 486.32 398.15 486.54 395.78 486.85 393.49 487.17 391.2 487.59 389 488.01 386.8 488.54 384.68 489.06 382.57 489.69 380.55 490.32 378.54 491.05 376.61 491.78 374.7 492.62 372.88 493.45 371.07 494.39 369.35 495.33 367.65 496.38 366.05 497.42 364.46 498.58 362.98 499.73 361.51 500.98 360.14 502.24 358.79 503.6 357.55 504.97 356.32 506.44 355.2 507.9 354.1 509.48 353.1 511.05 352.12 512.73 351.25 514.41 350.38 516.23 349.62 518.04 348.86 520 348.2 521.95 347.54 524.05 346.97 526.14 346.41 528.37 345.94 530.6 345.49 532.97 345.12 535.34 344.76 537.84 344.47 540.35 344.16 542.99 343.9 545.64 343.64 548.42 343.5 551.2 343.41 554.11 343.44 557.01 343.48 560.06 343.55 563.12 343.53 566.31 343.56 569.5 343.63 572.84 343.76 574.51 343.75 576.22 343.72 577.93 343.67 579.67 343.66 581.41 343.73 583.17 343.9 584.93 344.07 586.72 344.25 588.53 344.36 590.37 344.46 592.21 344.56 594.09 344.68 595.97 344.77 597.88 344.89 599.8 345 601.75 345.09 601.75 345.09 601.75 345.09"></path></svg>