<svg xmlns="http://www.w3.org/2000/svg" data-media-id="WIvRqoATnzv" style="visibility: visible" viewBox="13.563043594360352 235.16888427734375 994.79150390625 519.6611328125" width="999.79150390625px" height="524.6611328125px">
        <defs>
            <linearGradient id="sampleGradient" gradientTransform="rotate(1)" x1="0%" y1="50%" x2="100%" y2="50%" gradientUnits="userSpaceOnUse">
                <stop offset="0%" id="first_color" stop-color="#6b6fff"></stop>
                <stop offset="100%" id="second_color" stop-color="#bc91c1"></stop>
            </linearGradient>
        </defs>
    <path fill="#95609c" d="M240.99 319.52Q240.99 319.52 240.99 319.52 241.2 320.58 241.38 321.61 241.57 322.65 241.73 323.68 241.9 324.7 242.05 325.71 242.2 326.71 242.34 327.71 242.6 329.69 242.8 331.62 243 333.55 243.01 335.46 243.01 337.38 243.07 339.19 243.13 341 243.25 342.69 243.33 344.39 243.2 346.08 243.07 347.76 242.88 349.39 242.88 349.39 242.88 349.39 242.88 349.39 242.68 350.7 242.48 352 242.09 354.61 241.9 355.91 241.65 357.54 241.41 359.17 241.11 361.12 240.82 363.07 240.48 365.35 240.31 366.49 240.13 367.71 239.95 368.93 239.75 370.23 239.75 370.23 239.75 370.23 239.49 372.03 239.35 374.04 239.28 375.04 239.24 376.09 239.19 377.14 239.18 378.24 239.16 379.34 239.18 380.49 239.19 381.65 239.24 382.85 239.28 384.05 239.35 385.3 239.42 386.55 239.52 387.86 239.62 389.16 239.65 390.4 239.67 391.63 239.63 392.8 239.6 393.97 239.49 395.07 239.38 396.16 239.2 397.19 238.85 399.25 238.22 401.03 237.6 402.81 236.7 404.32 235.8 405.82 234.6 407.23 233.39 408.65 231.88 409.97 230.37 411.29 228.55 412.53 226.73 413.77 224.6 414.92 222.47 416.07 220.56 416.95 218.65 417.82 216.97 418.43 215.29 419.03 213.82 419.36 212.36 419.7 211.12 419.76 208.65 419.88 206.36 419.89 204.07 419.9 201.97 419.79 201.97 419.79 201.97 419.79 200.66 419.79 199.41 419.89 198.16 419.99 196.97 420.18 194.58 420.56 192.45 421.3 190.32 422.04 188.43 423.14 186.55 424.23 184.91 425.68 183.29 427.12 181.91 428.64 180.53 430.16 179.4 431.77 178.27 433.37 177.4 435.05 176.52 436.73 175.9 438.5 175.28 440.26 174.79 442.08 174.31 443.9 173.96 445.78 173.62 447.66 173.42 449.59 173.21 451.53 173.15 453.52 173.15 453.52 173.15 453.52 173.01 455.03 172.92 456.64 172.83 458.24 172.8 459.92 172.77 461.61 172.8 463.39 172.83 465.17 172.91 467.03 172.96 467.97 173.01 468.92 173.07 469.88 173.15 470.85 173.22 471.83 173.31 472.83 173.4 473.83 173.5 474.85 173.61 475.88 173.72 476.92 173.84 477.97 173.98 479.03 174.11 480.1 174.26 481.19 174.41 482.28 174.57 483.4 174.57 483.4 174.57 483.4 174.8 485 174.97 486.45 175.15 487.91 175.26 489.2 175.38 490.5 175.44 491.63 175.5 492.77 175.5 493.76 175.5 495.72 175.56 497.44 175.61 499.15 175.72 500.61 175.72 500.61 175.72 500.61 175.85 502.35 176.16 504 176.48 505.65 176.99 507.22 177.49 508.79 178.18 510.27 178.87 511.76 179.74 513.17 180.61 514.58 181.27 515.85 181.93 517.12 182.4 518.24 182.86 519.36 183.12 520.34 183.38 521.32 183.45 522.14 183.58 523.8 183.39 525.22 183.2 526.64 182.69 527.84 182.18 529.02 181.36 530.11 180.54 531.2 179.4 532.19 178.28 533.19 177.27 534.14 176.27 535.09 175.39 536 174.52 536.91 173.58 537.83 172.65 538.75 171.66 539.69 170.67 540.62 169.63 541.61 168.6 542.6 167.52 543.64 167.52 543.64 167.52 543.64 167.81 544.68 168.09 545.7 168.36 546.72 168.62 547.71 168.87 548.7 169.11 549.67 169.35 550.64 169.57 551.58 169.79 552.53 170 553.45 170.2 554.37 170.39 555.26 170.76 557.06 171.06 558.75 171.37 560.44 171.6 562.03 171.84 563.62 172.01 565.12 172.18 566.61 172.28 568 172.38 569.39 172.41 570.68 172.45 571.97 172.49 573.2 172.54 574.44 172.59 575.62 172.64 576.8 172.71 577.94 172.77 579.07 172.85 580.15 172.92 581.23 173 582.25 173.08 583.28 173.17 584.26 173.26 585.24 173.36 586.16 173.46 587.09 173.56 587.97 173.77 589.72 173.74 591.33 173.71 592.93 173.44 594.38 173.17 595.83 172.67 597.12 172.17 598.42 171.42 599.57 171.42 599.57 171.42 599.57 170.43 601.03 168.79 602.46 167.97 603.17 166.99 603.87 166.01 604.57 164.87 605.26 163.73 605.95 162.43 606.62 161.14 607.3 159.68 607.97 158.22 608.64 156.6 609.29 154.98 609.95 153.17 610.44 153.17 610.44 153.17 610.44 151 610.8 149.11 611.08 147.15 611.06 145.34 610.49 143.53 609.92 141.87 608.82 141.04 608.28 140.25 607.61 139.45 606.94 138.68 606.15 137.92 605.35 137.2 604.49 136.49 603.63 135.83 602.71 135.16 601.79 134.56 600.8 133.94 599.82 133.39 598.77 132.83 597.72 132.33 596.61 131.82 595.5 131.37 594.32 130.92 593.15 130.54 591.91 130.15 590.67 129.82 589.37 129.49 588.07 129.16 586.85 128.82 585.64 128.48 584.5 128.13 583.36 127.78 582.31 127.43 581.25 127.07 580.28 126.7 579.31 126.33 578.41 125.96 577.52 125.58 576.71 124.82 575.09 124.02 573.8 123.22 572.51 122.41 571.34 121.6 570.18 120.77 569.14 119.94 568.1 119.11 567.19 118.26 566.28 117.41 565.49 116.55 564.7 115.72 563.96 114.89 563.23 114.09 562.54 113.29 561.85 112.51 561.21 111.73 560.57 110.98 559.98 110.24 559.39 109.47 558.65 108.7 557.91 107.92 557.01 107.13 556.12 106.33 555.07 105.53 554.03 104.72 552.83 103.91 551.64 103.41 550.28 102.91 548.93 102.73 547.41 102.57 545.89 102.72 544.2 102.89 542.5 103.38 540.64 103.38 540.64 103.38 540.64 102.27 540.31 101.23 539.95 100.18 539.59 99.21 539.2 97.25 538.43 95.58 537.52 93.91 536.62 92.54 535.59 91.16 534.55 90.09 533.38 89.03 532.21 88.31 530.69 87.95 529.92 87.69 529.06 87.43 528.21 87.26 527.26 87.09 526.31 87.01 525.27 86.94 524.23 86.97 523.09 87 521.95 87.12 520.72 87.26 519.48 87.48 518.15 87.72 516.82 87.93 515.52 88.15 514.22 88.34 512.96 88.54 511.69 88.71 510.46 88.89 509.23 89.04 508.04 89.2 506.85 89.33 505.7 89.46 504.54 89.57 503.43 89.68 502.31 89.76 501.23 89.85 500.15 89.91 499.11 89.97 498.07 90.01 497.06 90.05 496.04 90.07 495.06 90.09 494.08 90.08 493.13 90.08 492.18 90.04 491.26 90.02 490.34 89.96 489.45 89.91 488.56 89.83 487.7 89.75 486.85 89.65 486.02 89.55 485.19 89.42 484.4 89.42 484.4 89.42 484.4 89.28 483.48 89.12 482.63 88.95 481.78 88.75 480.99 88.37 479.42 87.84 478.1 87.33 476.79 86.67 475.74 86.02 474.69 85.22 473.91 84.43 473.12 83.49 472.6 82.55 472.09 81.46 471.83 80.37 471.58 79.12 471.59 77.88 471.61 76.47 471.88 76.47 471.88 76.47 471.88 74.41 472.39 72.24 473.23 70.06 474.08 67.78 475.26 65.49 476.45 63.09 477.97 60.69 479.48 58.18 481.33 55.68 483.17 53.45 484.74 51.21 486.31 49.26 487.61 47.3 488.9 45.63 489.93 43.96 490.95 42.57 491.71 39.79 493.23 37.06 493.93 34.34 494.63 31.68 494.53 29.04 494.42 27.8 493.57 26.58 492.71 26.77 491.1 26.87 490.3 27.08 489.43 27.28 488.56 27.59 487.62 27.91 486.68 28.33 485.68 28.75 484.67 29.28 483.6 29.81 482.53 30.32 481.48 30.84 480.43 31.34 479.39 31.85 478.35 32.34 477.33 32.83 476.31 33.31 475.31 33.79 474.31 34.03 473.42 34.27 472.54 34.26 471.77 34.26 471 34.01 470.36 33.76 469.71 33.27 469.19 33.27 469.19 33.27 469.19 32.3 468.14 30.95 467.75 29.61 467.38 27.86 467.66 26.13 467.94 24.62 467.86 23.11 467.78 21.84 467.33 21.84 467.33 21.84 467.33 21 467.13 20.37 466.74 19.75 466.36 19.33 465.79 18.92 465.22 18.72 464.46 18.53 463.71 18.57 462.77 18.62 461.84 18.87 460.72 19.12 459.6 19.59 458.29 20.09 457 20.81 455.52 21.53 454.04 22.46 452.37 23.43 450.71 24.36 449.13 25.29 447.56 26.18 446.06 27.09 444.56 27.95 443.15 28.82 441.74 29.64 440.4 30.47 439.07 31.25 437.82 32.03 436.57 32.77 435.4 33.51 434.23 34.2 433.13 34.89 432.04 35.53 431.02 36.18 430.01 36.78 429.06 37.39 428.11 37.95 427.23 38.52 426.35 39.05 425.54 39.58 424.72 40.06 423.97 41.04 422.47 41.84 421.22 42.65 419.98 43.29 418.99 43.92 418 44.65 416.98 45.36 415.95 46.15 414.89 46.93 413.81 47.78 412.69 48.61 411.55 49.5 410.36 50.36 409.14 51.31 407.81 52.23 406.45 53.22 404.97 54.17 403.46 55.21 401.83 56.2 400.17 57.27 398.39 57.27 398.39 57.27 398.39 58.57 396.23 59.93 394.08 61.28 391.92 62.7 389.8 64.13 387.68 65.66 385.61 67.19 383.55 68.83 381.55 70.49 379.57 72.26 377.64 74.05 375.75 75.95 373.91 77.87 372.09 79.91 370.35 81.97 368.62 84.15 366.97 84.15 366.97 84.15 366.97 85.41 366.04 86.66 365.14 87.93 364.24 89.17 363.36 90.42 362.48 91.67 361.63 92.91 360.78 94.14 359.94 95.38 359.11 96.61 358.3 97.84 357.5 99.06 356.71 100.28 355.93 101.48 355.16 102.7 354.4 103.89 353.65 106.3 352.17 108.65 350.75 111.01 349.35 113.31 348.01 115.62 346.68 117.86 345.41 120.12 344.15 122.32 342.95 124.52 341.75 126.65 340.61 128.8 339.48 130.87 338.4 132.95 337.32 134.96 336.3 136.98 335.28 138.93 334.31 140.88 333.34 142.76 332.42 144.64 331.51 146.45 330.63 148.26 329.76 150 328.94 151.74 328.11 153.41 327.33 155.08 326.55 156.68 325.8 158.27 325.06 159.79 324.36 161.31 323.66 162.76 322.99 164.2 322.33 165.57 321.69 168.31 320.44 170.73 319.31 173.16 318.19 175.27 317.18 177.38 316.18 179.17 315.29 180.96 314.4 182.42 313.62 185.35 312.06 186.97 310.89 186.97 310.89 186.97 310.89 189.56 309.07 191.9 307.37 194.25 305.69 196.33 304.14 196.33 304.14 196.33 304.14 198.57 302.42 200.72 300.99 202.86 299.57 204.91 298.43 206.96 297.3 208.91 296.45 210.86 295.61 212.71 295.05 214.56 294.49 216.31 294.22 218.06 293.94 219.71 293.95 221.35 293.95 222.89 294.23 224.43 294.5 225.85 295.04 227.27 295.57 228.58 296.35 229.88 297.13 231.06 298.16 232.24 299.18 233.3 300.46 234.36 301.73 235.3 303.25 235.77 304.01 236.21 304.84 236.65 305.66 237.07 306.55 237.48 307.44 237.86 308.39 238.24 309.34 238.6 310.36 238.96 311.37 239.28 312.45 239.61 313.53 239.91 314.68 240.21 315.82 240.48 317.04 240.75 318.25 240.99 319.52 240.99 319.52 240.99 319.52M379.58 492.27Q379.58 492.27 379.58 492.27 380.61 493.76 381.9 494.78 383.18 495.79 384.73 496.33 386.27 496.87 388.07 496.93 389.87 496.99 391.93 496.58 391.93 496.58 391.93 496.58 393.84 496.19 395.42 496 397 495.81 398.25 495.81 400.75 495.81 401.92 496.58 401.92 496.58 401.92 496.58 402.95 497.47 403.46 498.96 403.97 500.45 403.97 502.55 403.97 503.6 403.84 504.8 403.71 505.99 403.46 507.34 403.2 508.69 402.81 510.19 402.43 511.69 401.91 513.34 401.91 513.34 401.91 513.34 401.32 515.26 400.86 516.95 400.4 518.64 400.07 520.1 399.74 521.56 399.54 522.8 399.33 524.04 399.26 525.06 399.1 527.09 398.88 528.83 398.66 530.57 398.36 532.02 398.36 532.02 398.36 532.02 398.07 533.28 397.4 534.66 396.74 536.04 395.71 537.55 394.68 539.05 393.28 540.68 391.88 542.31 390.12 544.06 390.12 544.06 390.12 544.06 388.2 545.54 386.19 546.88 384.18 548.21 382.08 549.41 379.97 550.6 377.78 551.65 375.58 552.7 373.3 553.6 371.01 554.51 368.93 555.32 366.85 556.13 364.97 556.85 363.09 557.57 361.41 558.2 359.73 558.83 358.25 559.36 356.78 559.89 355.23 560.53 353.68 561.16 352.05 561.89 350.43 562.62 348.72 563.45 347.02 564.27 345.24 565.2 345.24 565.2 345.24 565.2 342.58 566.58 340.12 567.67 337.66 568.76 335.4 569.57 333.14 570.39 331.09 570.94 329.05 571.53 327.22 571.83 325.39 572.14 323.78 572.43 322.17 572.72 320.79 572.99 318.02 573.52 316.12 573.88 314.21 574.21 312.01 574.91 309.79 575.58 307.28 576.65 304.76 577.69 302.76 578.28 300.76 578.54 299.28 578.88 297.8 579.16 296.32 579.17 294.85 579.24 293.38 579.17 293.38 579.17 293.38 579.17 291.18 579.06 289.06 579.09 286.94 579.11 284.89 579.27 282.84 579.43 280.86 579.7 278.88 579.97 276.97 580.35 276.97 580.35 276.97 580.35 274.31 580.86 272.12 579.85 271.03 579.35 270.05 578.47 269.07 577.59 268.21 576.32 267.35 575.04 266.61 573.36 266.24 572.51 265.89 571.57 265.55 570.62 265.23 569.58 264.91 568.53 264.63 567.38 264.34 566.23 264.08 564.98 263.82 563.73 263.59 562.38 263.36 561.03 263.16 559.58 263.16 559.58 263.16 559.58 262.95 558.43 262.79 557.28 262.63 556.13 262.51 554.98 262.4 553.83 262.33 552.69 262.26 551.54 262.24 550.4 262.21 549.26 262.23 548.12 262.26 546.98 262.32 545.84 262.39 544.71 262.5 543.57 262.61 542.44 262.77 541.31 263.09 539.04 263.51 537.15 263.93 535.25 264.45 533.72 264.97 532.19 265.6 531.02 266.23 529.86 266.96 529.05 268.44 527.45 270.2 526.18 271.96 524.92 274 523.99 276.05 523.07 277.95 522.28 279.86 521.48 281.61 520.82 283.36 520.16 284.97 519.58 286.58 519 288.05 518.49 288.05 518.49 288.05 518.49 289.8 517.53 290.77 515.18 291.25 514.01 291.53 512.49 291.81 510.98 291.89 509.11 291.97 507.25 292.06 505.44 292.16 503.63 292.27 501.89 292.38 500.14 292.51 498.45 292.64 496.76 292.79 495.13 292.79 495.13 292.79 495.13 292.83 494.02 292.88 492.95 292.93 491.88 292.99 490.85 293.12 488.79 293.28 486.88 293.45 484.97 293.66 483.21 293.88 481.45 294.13 479.85 294.39 478.25 294.7 476.8 295 475.35 295.35 474.05 295.7 472.75 296.09 471.61 296.49 470.46 296.93 469.47 296.93 469.47 296.93 469.47 297.66 467.97 298.18 466.56 298.71 465.16 299.02 463.84 299.33 462.53 299.43 461.31 299.53 460.08 299.42 458.95 299.31 457.83 298.99 456.79 298.67 455.76 298.14 454.81 297.6 453.87 296.86 453.02 296.12 452.17 295.17 451.42 295.17 451.42 295.17 451.42 294.22 450.46 293.42 449.22 292.61 447.99 291.95 446.47 291.3 444.95 290.79 443.15 290.27 441.36 289.91 439.28 289.73 438.24 289.58 437.13 289.43 436.02 289.32 434.84 289.21 433.66 289.14 432.41 289.07 431.16 289.03 429.84 288.99 428.52 288.99 427.13 288.99 425.74 289.03 424.28 289.07 422.82 289.14 421.29 289.21 419.76 289.32 418.16 289.32 418.16 289.32 418.16 289.47 416.23 289.57 414.39 289.67 412.55 289.72 410.81 289.78 409.07 289.78 407.43 289.79 405.78 289.76 404.24 289.72 402.69 289.63 401.24 289.55 399.79 289.42 398.44 289.29 397.09 289.12 395.83 288.95 394.58 288.73 393.42 288.73 393.42 288.73 393.42 288.58 392.27 288.44 391.16 288.31 390.06 288.18 388.99 288.06 387.93 287.94 386.9 287.83 385.88 287.73 384.9 287.53 382.93 287.37 381.13 287.21 379.33 287.1 377.7 286.99 376.06 286.92 374.6 286.86 373.13 286.84 371.83 286.82 370.53 286.85 369.39 286.88 368.25 286.95 367.28 286.95 367.28 286.95 367.28 287.1 365.85 287.2 364.57 287.31 363.29 287.38 362.17 287.53 359.92 287.52 358.31 287.52 356.7 287.37 355.53 287.23 354.35 286.93 353.61 286.93 353.61 286.93 353.61 286.05 352.18 283.41 351.88 282.09 351.73 280.34 351.86 278.58 351.99 276.39 352.41 274.2 352.82 272.08 352.9 269.96 352.99 267.92 352.74 265.87 352.5 263.9 351.92 261.93 351.35 260.04 350.45 258.14 349.56 256.79 348.17 255.44 346.78 254.63 344.9 254.23 343.96 253.97 342.89 253.7 341.83 253.57 340.64 253.44 339.46 253.45 338.15 253.46 336.84 253.6 335.41 253.6 335.41 253.6 335.41 253.82 333.96 253.98 332.55 254.15 331.14 254.26 329.78 254.37 328.42 254.42 327.1 254.48 325.77 254.48 324.5 254.48 323.22 254.42 321.99 254.37 320.75 254.26 319.56 254.15 318.37 253.98 317.23 253.82 316.08 253.6 314.98 253.39 313.87 253.25 312.81 253.12 311.75 253.06 310.74 252.95 308.71 253.17 306.86 253.39 305 253.93 303.33 254.48 301.65 255.34 300.14 256.22 298.63 256.91 297.27 257.6 295.9 258.1 294.67 258.61 293.44 258.93 292.35 259.26 291.26 259.4 290.31 259.68 288.42 260.11 286.68 260.54 284.94 261.1 283.35 261.1 283.35 261.1 283.35 261.95 281.46 263.36 279.75 264.75 278.02 266.71 276.48 268.66 274.94 271.18 273.61 273.7 272.29 276.78 271.2 278.33 270.67 279.85 270.17 281.37 269.68 282.86 269.23 285.86 268.34 288.74 267.6 291.64 266.88 294.42 266.31 297.21 265.76 299.9 265.36 302.59 264.98 305.19 264.67 307.8 264.37 310.31 264.14 312.83 263.92 315.26 263.77 317.69 263.63 320.03 263.55 320.03 263.55 320.03 263.55 321.57 263.49 323.04 263.43 324.52 263.38 325.92 263.32 328.74 263.22 331.29 263.1 333.84 263 336.13 262.89 338.42 262.79 340.44 262.67 342.46 262.56 344.22 262.44 345.97 262.32 347.46 262.18 350.45 261.91 352.36 261.57 352.36 261.57 352.36 261.57 353.82 261.31 355.38 260.97 356.94 260.63 358.6 260.21 360.25 259.79 361.99 259.3 363.74 258.8 365.57 258.23 367.41 257.66 369.24 257.12 371.06 256.57 372.87 256.05 374.67 255.53 376.46 255.03 378.25 254.53 380.02 254.06 380.02 254.06 380.02 254.06 382.08 253.49 384.03 253.03 385.97 252.58 387.79 252.24 389.61 251.9 391.31 251.67 393 251.44 394.58 251.32 397.73 251.09 400.39 251.27 403.05 251.45 405.21 252.03 407.37 252.61 409.12 253.29 410.87 253.97 412.21 254.76 413.55 255.53 414.48 256.43 415.41 257.33 415.94 258.35 416.47 259.38 416.86 260.46 417.26 261.53 417.53 262.67 417.8 263.8 417.94 264.99 418.07 266.18 418.08 267.43 418.09 268.68 418.05 269.98 418 271.28 417.9 272.62 417.8 273.96 417.64 275.35 417.49 276.74 417.27 278.18 417.06 279.62 417.02 281.08 416.97 282.54 417.09 284.02 417.22 285.5 417.51 287 417.8 288.5 418.25 290.02 418.25 290.02 418.25 290.02 418.93 291.7 419.45 293.32 419.96 294.94 420.33 296.5 420.69 298.07 420.89 299.58 420.91 301.12 420.89 302.58 420.86 304.05 420.99 305.4 420.97 306.78 420.69 308.13 420.42 309.47 419.99 310.76 419.55 312.05 418.97 313.28 418.38 314.51 417.8 315.63 417.22 316.76 416.65 317.76 415.5 319.78 414.4 321.33 413.3 322.89 412.23 323.99 411.17 325.1 410.14 325.74 408.08 327.03 406.09 327.96 404.1 328.89 402.19 329.46 400.27 330.02 398.36 330.53 396.45 331.05 394.54 331.51 392.63 331.97 390.94 333.05 389.25 334.13 387.78 335.81 387.78 335.81 387.78 335.81 387.19 336.58 386.68 337.79 386.17 339.01 385.73 340.67 385.3 342.34 384.93 344.45 384.75 345.51 384.59 346.68 384.42 347.85 384.28 349.13 384.13 350.42 384.01 351.81 383.88 353.2 383.77 354.71 383.67 356.22 383.58 357.83 383.49 359.45 383.41 361.18 383.34 362.91 383.29 364.75 383.24 366.6 383.2 368.55 383.17 370.5 383.15 372.57 383.14 373.6 383.14 374.66 383.13 375.72 383.13 376.81 383.13 376.81 383.13 376.81 383.15 377.85 383.17 378.89 383.19 379.94 383.21 380.98 383.23 382.02 383.25 383.06 383.27 384.1 383.28 385.14 383.3 386.18 383.32 387.22 383.34 388.26 383.36 389.3 383.38 390.35 383.4 391.39 383.42 392.43 383.43 393.47 383.45 394.51 383.47 395.55 383.49 396.59 383.51 397.63 383.53 398.67 383.55 399.71 383.56 400.75 383.58 401.79 383.6 402.83 383.62 403.87 383.64 404.91 383.66 405.95 383.68 406.99 383.69 408.03 383.71 409.07 383.73 410.11 383.75 411.15 383.77 412.19 383.79 413.23 383.81 414.27 383.82 415.31 383.84 416.35 383.86 417.39 383.88 418.43 383.9 419.47 383.92 420.51 383.93 421.55 383.95 422.59 383.97 423.63 383.99 424.67 384.01 425.71 384.03 426.75 384.04 427.79 384.06 428.83 384.08 429.87 384.1 430.91 384.12 431.95 384.13 432.99 384.15 434.03 384.17 435.07 384.19 436.11 384.21 437.15 384.23 438.19 384.24 439.23 384.26 440.27 384.28 441.3 384.3 442.34 384.32 443.38 384.32 444.98 384.3 446.57 384.28 448.16 384.24 449.74 384.2 451.32 384.15 452.9 384.09 454.47 384.02 456.03 383.94 457.59 383.85 459.15 383.76 460.7 383.65 462.25 383.54 463.79 383.41 465.33 383.28 466.87 383.13 468.4 382.98 469.92 382.82 471.44 382.65 472.96 382.47 474.47 382.28 475.98 382.08 477.48 381.87 478.98 381.65 480.47 381.43 481.97 381.19 483.45 380.95 484.93 380.69 486.41 380.43 487.88 380.16 489.35 379.88 490.81 379.58 492.27 379.58 492.27 379.58 492.27M526.46 438.2Q526.46 438.2 526.46 438.2 525.16 438.39 524.03 438.41 522.9 438.42 521.95 438.26 520.04 437.93 518.84 436.89 517.63 435.84 517.13 434.09 516.88 433.21 516.8 432.16 516.72 431.1 516.82 429.87 516.82 429.87 516.82 429.87 517.02 427.87 517.09 426.08 517.17 424.29 517.13 422.71 517.09 421.12 516.93 419.73 516.77 418.35 516.5 417.16 516.5 417.16 516.5 417.16 516.27 416.16 516.09 415.22 515.91 414.29 515.77 413.41 515.5 411.66 515.41 410.17 515.32 408.68 515.42 407.45 515.51 406.22 515.8 405.24 515.8 405.24 515.8 405.24 516.17 403.79 516.83 402.58 517.49 401.37 518.43 400.39 519.37 399.42 520.6 398.69 521.82 397.95 523.33 397.46 524.84 396.97 526.64 396.71 527.53 396.58 528.5 396.51 529.47 396.44 530.51 396.43 531.55 396.42 532.66 396.47 533.77 396.52 534.96 396.62 536.14 396.73 537.39 396.89 538.65 397.05 539.97 397.28 539.97 397.28 539.97 397.28 541.83 397.62 543.32 397.73 544.81 397.83 545.92 397.71 547.04 397.59 548.15 397.37 549.27 397.15 550.39 396.85 550.39 396.85 550.39 396.85 552.07 396.39 553.66 396.07 555.26 395.75 556.77 395.56 558.28 395.37 559.71 395.32 561.14 395.26 562.49 395.34 563.84 395.42 565.11 395.43 566.38 395.43 567.57 395.37 568.76 395.31 569.86 395.17 570.97 395.04 571.99 394.84 573.01 394.64 574.01 394.42 575 394.2 575.95 393.96 577.86 393.49 579.63 392.94 581.4 392.4 583.03 391.87 584.66 391.35 586.16 390.83 587.65 390.32 589.04 390 590.44 389.68 591.75 389.54 591.75 389.54 591.75 389.54 593.61 389.35 594.96 390.66 595.63 391.31 596.18 392.34 596.73 393.37 597.15 394.77 597.57 396.18 597.86 397.67 598.15 399.17 598.32 400.75 598.4 402.35 598.36 404.03 598.33 405.71 598.42 407.46 598.42 407.46 598.42 407.46 598.39 408.58 598.29 409.65 598.19 410.73 598.07 411.74 597.95 412.76 597.8 413.72 597.65 414.68 597.48 415.58 597.13 417.39 596.67 418.98 596.22 420.57 595.66 421.94 595.1 423.3 594.43 424.45 593.77 425.59 593 426.52 592.23 427.44 591.35 428.14 590.48 428.85 589.5 429.33 589.5 429.33 589.5 429.33 588.1 430.04 586.73 430.91 585.37 431.77 584.04 432.79 582.71 433.82 581.41 434.99 580.12 436.17 578.86 437.5 577.6 438.84 576.73 440.39 575.87 441.96 575.4 443.74 575.17 444.63 575.03 445.58 574.9 446.53 574.86 447.54 574.82 448.54 574.88 449.6 574.95 450.66 575.11 451.77 575.27 452.88 575.42 453.94 575.56 454.99 575.69 455.99 575.82 456.98 575.93 457.92 576.04 458.86 576.13 459.73 576.32 461.49 576.43 463.01 576.55 464.53 576.6 465.82 576.64 467.11 576.66 468.31 576.68 469.51 576.68 470.62 576.68 471.74 576.66 472.77 576.63 473.8 576.59 474.75 576.49 476.64 576.39 478.27 576.3 479.89 576.2 481.25 576.11 482.62 576.2 484.3 576.25 485.14 576.34 486.07 576.43 486.99 576.57 488 576.71 489.01 576.75 490.2 576.8 491.4 576.75 492.78 576.7 494.16 576.56 495.73 576.42 497.31 576.19 499.07 575.95 500.84 575.61 502.55 575.27 504.26 574.82 505.9 574.37 507.55 573.82 509.14 573.26 510.73 572.6 512.25 572.6 512.25 572.6 512.25 571.8 514.08 570.94 515.67 570.08 517.25 569.16 518.59 568.25 519.92 567.28 521 566.31 522.08 565.29 522.9 564.27 523.73 563.2 524.32 562.13 524.92 561.02 525.3 559.91 525.68 558.75 525.82 557.59 525.95 556.37 525.83 556.37 525.83 556.37 525.83 555.49 525.77 554.6 525.58 553.72 525.4 552.85 525.09 551.97 524.77 551.1 524.34 550.22 523.89 549.36 523.32 548.49 522.75 547.63 522.05 546.76 521.35 545.91 520.53 545.05 519.71 544.2 518.77 543.35 517.83 542.51 516.77 542.51 516.77 542.51 516.77 541.94 516.04 541.39 515.36 540.84 514.68 540.3 514.06 539.23 512.82 538.2 511.81 537.17 510.8 535.81 510.7 534.45 510.59 532.75 511.4 531.05 512.21 529.58 513.45 528.12 514.68 526.88 516.34 525.65 518 524.37 519.71 523.72 520.57 523.07 521.44 522.41 522.32 521.75 523.2 521.75 523.2 521.75 523.2 520.75 524.63 519.71 525.93 518.68 527.24 517.61 528.43 516.55 529.62 515.45 530.69 514.35 531.77 513.22 532.74 512.1 533.71 510.94 534.56 509.78 535.39 508.58 536.08 507.37 536.73 506.13 537.25 504.89 537.77 503.62 538.16 502.34 538.5 501.04 538.67 499.75 538.91 498.42 539.29 497.09 539.56 495.73 539.64 494.37 539.73 492.98 539.68 491.59 539.64 490.17 539.48 488.74 539.31 487.29 539.01 485.83 538.69 484.33 538.23 482.84 537.74 481.31 537.12 481.31 537.12 481.31 537.12 479.75 536.53 478.32 535.87 476.89 535.21 475.58 534.49 474.28 533.77 473.09 532.98 471.91 532.18 470.85 531.31 469.79 530.44 468.84 529.49 467.91 528.53 467.09 527.5 466.27 526.46 465.57 525.34 464.88 524.23 464.3 523.03 464.3 523.03 464.3 523.03 463.86 521.95 463.41 520.8 462.96 519.65 462.51 518.43 462.05 517.21 461.59 515.91 461.13 514.62 460.66 513.25 460.19 511.88 459.69 510.54 459.19 509.2 458.65 507.88 458.12 506.57 457.55 505.28 456.98 504 456.37 502.74 456.37 502.74 456.37 502.74 455.68 501.25 455 499.89 454.31 498.53 453.63 497.3 452.95 496.07 452.27 494.97 451.59 493.87 450.91 492.91 450.24 491.94 449.56 491.11 448.89 490.27 448.21 489.57 446.87 488.16 445.54 487.29 445.54 487.29 445.54 487.29 444.91 486.85 444.37 485.86 443.82 484.88 443.35 483.35 442.87 481.82 442.46 479.75 442.26 478.71 442.07 477.54 441.88 476.37 441.7 475.06 441.53 473.76 441.37 472.31 441.21 470.87 441.07 469.29 440.92 467.71 440.8 466 440.67 464.28 440.56 462.43 440.45 460.58 440.35 458.6 440.31 457.6 440.26 456.58 440.22 455.55 440.18 454.49 440.14 453.43 440.11 452.33 440.07 451.24 440.04 450.11 440.01 448.98 439.99 447.82 439.96 446.66 439.94 445.46 439.94 445.46 439.94 445.46 439.85 443.4 439.83 441.46 439.81 439.52 439.86 437.71 439.9 435.9 440.02 434.21 440.13 432.53 440.32 430.97 440.5 429.42 440.64 427.66 440.78 425.9 440.88 423.94 440.92 422.96 440.96 421.92 440.99 420.89 441.02 419.81 441.04 418.72 441.05 417.59 441.06 416.45 441.07 415.26 441.07 415.26 441.07 415.26 441.07 414.13 441.07 412.99 441.07 411.85 441.07 410.72 441.07 409.58 441.07 408.44 441.07 407.31 441.07 406.17 441.07 405.03 441.07 403.9 441.07 402.76 441.07 401.62 441.07 400.49 441.07 399.35 441.07 398.21 441.07 397.07 441.07 395.99 441.07 394.91 441.06 393.84 441.05 392.78 441.04 391.72 441.02 390.67 441.01 389.62 440.98 388.59 440.96 387.55 440.93 386.53 440.9 385.51 440.87 384.5 440.8 382.48 440.71 380.51 440.71 380.51 440.71 380.51 440.71 378.93 440.74 377.39 440.77 375.86 440.83 374.37 440.88 372.88 440.97 371.43 441.06 369.99 441.18 368.6 441.29 367.2 441.44 365.85 441.58 364.5 441.76 363.2 441.93 361.9 442.13 360.64 442.34 359.39 442.57 358.18 442.57 358.18 442.57 358.18 441.09 357.28 439.84 356.11 438.59 354.95 437.56 353.52 436.53 352.09 435.73 350.4 434.93 348.71 434.35 346.75 434.06 345.77 433.83 344.73 433.59 343.69 433.42 342.58 433.24 341.47 433.12 340.29 433 339.12 432.94 337.88 432.87 336.64 432.86 335.33 432.86 334.03 432.9 332.65 432.95 331.28 433.06 329.85 433.16 328.41 433.32 326.91 433.32 326.91 433.32 326.91 433.55 325 433.81 323.23 434.07 321.45 434.35 319.8 434.63 318.14 434.94 316.62 435.25 315.09 435.59 313.69 435.92 312.28 436.28 311.01 436.64 309.73 437.03 308.58 437.42 307.43 437.83 306.4 438.24 305.37 438.68 304.47 439.56 302.68 440.35 300.88 441.14 299.09 441.83 297.31 442.52 295.53 443.12 293.75 443.72 291.98 444.23 290.21 444.74 288.44 445.26 286.62 445.78 284.8 446.31 282.94 446.84 281.07 447.38 279.15 447.93 277.23 448.48 275.26 449.04 273.29 449.71 271.65 450.37 270 451.16 268.69 451.94 267.38 452.84 266.39 453.74 265.4 454.76 264.75 455.78 264.09 456.61 263.49 457.44 262.9 458.08 262.36 459.38 261.29 459.93 260.47 461.04 258.82 462.14 257.17 462.14 257.17 462.14 257.17 463.02 255.73 464.15 254.39 465.28 253.05 466.66 251.81 468.05 250.57 469.69 249.44 470.51 248.87 471.39 248.33 472.27 247.79 473.22 247.28 474.17 246.77 475.18 246.28 476.19 245.8 477.26 245.35 478.33 244.89 479.47 244.46 480.61 244.04 481.81 243.64 483.01 243.24 484.28 242.87 485.54 242.51 486.87 242.17 488.2 241.83 489.59 241.52 490.99 241.22 492.44 240.94 492.44 240.94 492.44 240.94 493.74 240.67 495.03 240.5 496.32 240.32 497.6 240.24 498.88 240.16 500.16 240.17 501.44 240.19 502.71 240.31 503.98 240.42 505.25 240.62 506.51 240.83 507.77 241.13 509.03 241.43 510.29 241.82 511.54 242.22 512.79 242.71 514.04 243.2 515.24 243.65 516.44 244.09 517.58 244.49 518.73 244.89 519.82 245.24 520.92 245.59 521.96 245.9 523 246.2 523.99 246.46 524.98 246.71 525.91 246.92 527.79 247.34 529.45 247.56 531.12 247.78 532.74 247.98 534.36 248.19 535.93 248.37 537.5 248.55 539.03 248.71 540.55 248.87 542.03 249.01 542.03 249.01 542.03 249.01 543.63 249.15 545.16 249.33 546.68 249.51 548.14 249.72 549.6 249.93 550.98 250.17 552.37 250.41 553.69 250.69 555.01 250.97 556.26 251.27 557.51 251.58 558.69 251.91 559.87 252.25 560.98 252.62 562.09 252.98 563.13 253.37 564.17 253.77 565.14 254.19 566.11 254.61 567.02 255.06 568.82 255.95 570.35 256.95 571.88 257.95 573.14 259.04 574.39 260.13 575.37 261.33 575.37 261.33 575.37 261.33 576.07 262.14 576.71 262.94 577.35 263.75 577.92 264.55 579.07 266.14 579.96 267.72 580.86 269.3 581.5 270.87 582.14 272.44 582.52 274.02 582.91 275.59 583.35 277 583.79 278.4 584.29 279.65 584.8 280.89 585.35 281.98 585.91 283.06 586.53 283.98 587.14 284.9 587.56 285.85 587.98 286.79 588.2 287.76 588.42 288.73 588.44 289.73 588.46 290.72 588.28 291.74 588.1 292.77 588.01 293.7 587.91 294.63 587.89 295.48 587.86 297.16 588.15 298.48 588.44 299.8 588.3 301.18 588.17 302.56 587.61 304 587.06 305.43 586.5 306.88 585.95 308.32 585.39 309.76 585.39 309.76 585.39 309.76 584.83 311.65 584.59 313.26 584.35 314.87 584.42 316.2 584.49 317.52 584.87 318.57 585.26 319.61 585.96 320.38 586.66 321.13 587.32 321.86 587.99 322.59 588.62 323.28 589.88 324.66 591 325.92 592.12 327.17 592.96 328.49 593.8 329.8 594.35 331.18 594.35 331.18 594.35 331.18 594.77 332.03 595.1 332.85 595.43 333.68 595.66 334.47 596.13 336.07 596.22 337.56 596.31 339.04 596.03 340.43 595.75 341.81 595.1 343.09 594.45 344.37 593.76 345.63 593.08 346.9 592.35 348.14 591.63 349.39 590.88 350.61 590.12 351.84 589.33 353.05 588.54 354.26 587.64 355.22 586.74 356.18 585.74 356.88 584.74 357.58 583.63 358.03 582.53 358.47 581.32 358.66 581.32 358.66 581.32 358.66 579.69 358.93 578.19 359.21 576.7 359.5 575.33 359.8 573.97 360.11 572.75 360.44 571.52 360.76 570.42 361.11 569.33 361.46 568.37 361.83 567.41 362.19 566.58 362.58 564.93 363.36 563.81 364.22 562.7 365.08 561.67 365.81 560.65 366.54 559.72 367.14 557.86 368.34 556.37 369.01 556.37 369.01 556.37 369.01 555.44 369.5 554.53 369.87 553.61 370.25 552.72 370.51 550.93 371.03 549.21 371.09 547.49 371.15 545.83 370.75 544.18 370.34 542.6 369.47 542.6 369.47 542.6 369.47 541.3 368.99 540.19 368.36 539.07 367.73 538.14 366.95 537.22 366.18 536.47 365.26 535.73 364.34 535.17 363.28 534.62 362.21 534.25 361 533.88 359.79 533.69 358.44 533.51 357.09 533.51 355.59 533.51 354.1 533.69 352.46 533.69 352.46 533.69 352.46 533.78 350.51 533.67 348.79 533.56 347.07 533.25 345.58 532.94 344.09 532.42 342.83 531.9 341.58 531.18 340.55 530.46 339.52 529.54 338.72 528.62 337.93 527.49 337.36 526.37 336.79 525.04 336.46 523.71 336.12 522.18 336.02 522.18 336.02 522.18 336.02 520.79 335.92 519.37 336.11 517.96 336.31 516.52 336.82 515.08 337.33 513.62 338.15 512.16 338.97 510.68 340.1 509.2 341.24 507.88 342.54 506.56 343.84 505.4 345.29 504.24 346.75 503.24 348.37 502.25 349.99 501.41 351.77 501.41 351.77 501.41 351.77 500.93 352.92 500.49 354.07 500.06 355.21 499.68 356.34 499.3 357.47 498.97 358.59 498.64 359.7 498.37 360.81 498.1 361.91 497.88 363 497.66 364.09 497.49 365.16 497.33 366.23 497.21 367.29 497.1 368.35 497.04 369.4 496.98 370.44 496.98 371.47 496.97 372.5 497.02 373.51 497.06 374.52 497.17 375.52 497.27 376.52 497.42 377.5 497.58 378.48 497.79 379.45 497.99 380.41 498.26 381.36 498.52 382.31 498.83 383.25 499.15 384.18 499.52 385.09 499.52 385.09 499.52 385.09 499.89 386.01 500.16 387.05 500.44 388.09 500.62 389.26 500.8 390.43 500.89 391.73 500.98 393.02 500.98 394.45 500.98 394.45 500.98 394.45 500.98 395.69 500.97 396.92 500.97 398.16 500.97 399.4 500.96 400.63 500.96 401.87 500.96 403.1 500.95 404.34 500.95 405.43 500.92 406.46 500.88 407.48 500.81 408.44 500.68 410.36 500.42 412 500.16 413.65 499.78 415.03 499.39 416.41 498.88 417.52 498.37 418.64 497.96 419.82 497.55 421 497.24 422.26 496.93 423.51 496.73 424.84 496.53 426.16 496.43 427.56 496.33 428.95 496.26 430.45 496.2 431.95 496.17 433.55 496.13 435.15 496.13 436.85 496.13 438.56 496.17 440.37 496.2 442.17 496.29 444.03 496.37 445.89 496.49 447.8 496.55 448.75 496.63 449.72 496.7 450.69 496.79 451.67 496.87 452.65 496.97 453.65 497.06 454.64 497.17 455.65 497.28 456.65 497.39 457.64 497.51 458.62 497.64 459.58 497.89 461.5 498.17 463.34 498.45 465.17 498.77 466.91 499.09 468.66 499.45 470.31 499.45 470.31 499.45 470.31 499.94 472.22 500.49 473.86 501.03 475.5 501.64 476.87 502.24 478.23 502.89 479.33 503.55 480.42 504.27 481.24 504.98 482.06 505.75 482.61 506.52 483.16 507.34 483.44 508.99 483.99 510.86 483.46 510.86 483.46 510.86 483.46 512.36 483.19 513.7 482.6 515.03 482.01 516.21 481.09 517.39 480.17 518.4 478.94 519.42 477.7 520.27 476.14 520.27 476.14 520.27 476.14 520.84 474.92 521.5 473.68 522.16 472.44 522.91 471.19 523.67 469.94 524.8 468.86 525.92 467.78 527.43 466.87 528.92 465.96 530 464.71 531.08 463.46 531.75 461.87 532.41 460.28 532.74 458.46 532.91 457.56 533 456.59 533.09 455.63 533.09 454.61 533.09 454.61 533.09 454.61 533.19 453.49 533.2 451.8 533.2 450.95 533.18 449.97 533.16 448.98 533.12 447.85 533.08 446.73 533.02 445.46 532.95 444.19 532.86 442.79 532.78 441.38 532.67 439.83 532.56 438.28 532.42 436.59 532.42 436.59 532.42 436.59 530.93 437.18 529.44 437.58 527.95 437.98 526.46 438.2 526.46 438.2 526.46 438.2M610.54 298.92Q610.54 298.92 610.54 298.92 610.59 297.68 610.64 296.43 610.7 295.19 610.75 293.95 610.8 292.71 610.85 291.47 610.9 290.23 610.95 288.98 611.01 287.74 611.06 286.5 611.11 285.26 611.16 284.02 611.21 282.78 611.27 281.54 611.32 280.3 611.37 279.06 611.37 277.84 611.31 276.61 611.24 275.39 611.11 274.16 610.98 272.93 610.79 271.7 610.59 270.46 610.33 269.22 610.08 267.99 610.13 266.74 610.19 265.49 610.55 264.22 610.92 262.96 611.59 261.68 612.26 260.41 613.25 259.12 614.24 257.85 615.49 256.68 616.74 255.52 618.25 254.47 619.76 253.44 621.53 252.52 622.42 252.07 623.38 251.65 624.33 251.23 625.35 250.85 626.37 250.46 627.43 250.15 628.48 249.84 629.57 249.6 630.66 249.36 631.78 249.19 632.89 249.02 634.05 248.92 635.2 248.83 636.38 248.8 637.56 248.78 638.77 248.82 639.98 248.86 641.23 248.97 642.47 249.08 643.74 249.27 645.02 249.45 646.22 249.66 647.42 249.88 648.56 250.13 650.83 250.63 652.83 251.26 654.83 251.9 656.56 252.66 658.29 253.43 659.74 254.32 661.2 255.21 662.6 256.04 664 256.87 665.35 257.63 666.7 258.39 668 259.08 669.3 259.78 670.55 260.4 671.79 261.03 673.12 261.63 674.44 262.24 675.85 262.81 677.25 263.39 678.74 263.95 680.22 264.51 681.79 265.04 681.79 265.04 681.79 265.04 683.46 265.55 685.12 265.97 686.78 266.39 688.43 266.71 690.08 267.04 691.72 267.27 693.35 267.51 694.99 267.65 696.62 267.8 698.24 267.85 699.86 267.91 701.47 267.87 703.09 267.83 704.69 267.71 706.3 267.58 707.89 267.37 707.89 267.37 707.89 267.37 709.65 267.11 711.31 267.01 712.98 266.92 714.54 266.97 716.11 267.03 717.58 267.25 719.05 267.46 720.43 267.83 721.81 268.2 723.08 268.72 724.36 269.24 725.55 269.91 726.73 270.58 727.81 271.39 728.89 272.2 729.88 273.16 729.88 273.16 729.88 273.16 730.96 273.47 732.06 273.75 733.16 274.04 734.27 274.3 735.39 274.56 736.51 274.8 737.64 275.04 738.78 275.26 739.92 275.48 741.08 275.68 742.23 275.88 743.4 276.05 744.57 276.23 745.75 276.38 746.93 276.54 748.13 276.67 748.13 276.67 748.13 276.67 750.11 276.91 751.93 277.18 753.74 277.46 755.4 277.76 757.05 278.07 758.54 278.41 760.03 278.76 761.37 279.12 762.69 279.49 763.86 279.88 765.03 280.27 766.03 280.68 768.04 281.48 769.4 282.33 769.4 282.33 769.4 282.33 770.89 283.32 772.02 284.31 773.14 285.26 773.91 286.25 774.68 287.22 775.1 288.25 775.53 289.27 775.6 290.38 775.38 291.44 775.26 292.65 775.2 293.26 775.07 293.89 774.85 294.51 774.55 295.16 774.24 295.8 773.86 296.47 773.47 297.14 772.99 297.84 772.52 298.53 771.96 299.25 771.41 299.97 770.76 300.72 770.76 300.72 770.76 300.72 770.03 301.6 769.6 302.41 769.18 303.21 769.07 303.94 768.96 304.66 768.85 305.38 768.74 306.1 768.63 306.82 768.63 306.82 768.63 306.82 768.47 307.9 768.26 308.84 768.04 309.78 767.78 310.58 767.52 311.38 767.2 312.04 766.9 312.69 766.54 313.21 765.84 314.24 765.46 315.12 765.09 316 765.04 316.72 764.99 317.45 764.95 318.3 764.91 319.14 764.88 320.11 764.88 320.11 764.88 320.11 765.04 321.1 765 322.05 764.96 323 764.7 323.92 764.45 324.84 763.97 325.73 763.49 326.62 762.8 327.49 762.8 327.49 762.8 327.49 762 328.53 761.6 329.39 761.2 330.25 761.19 330.93 761.18 331.6 761.18 332.24 761.17 332.88 761.17 333.49 761.17 333.49 761.17 333.49 761.16 334.28 760.81 335.04 760.45 335.81 759.76 336.54 759.06 337.28 758.01 337.99 756.97 338.7 755.57 339.39 755.57 339.39 755.57 339.39 754.43 340.09 753.33 340.7 752.23 341.32 751.18 341.85 750.13 342.37 749.13 342.81 748.14 343.25 747.19 343.6 745.29 344.3 743.59 344.63 741.89 344.97 740.4 344.92 740.4 344.92 740.4 344.92 739.2 344.88 738 344.32 736.82 343.76 734.44 343.15 734.44 343.15 734.44 343.15 733.24 342.84 732.03 342.55 730.82 342.26 729.59 341.99 728.37 341.72 727.12 341.47 725.88 341.21 724.62 340.99 723.36 340.76 722.08 340.55 720.8 340.34 719.5 340.15 718.2 339.97 716.89 339.8 715.58 339.64 714.25 339.5 712.91 339.36 711.67 339.24 710.43 339.13 709.28 339.04 708.12 338.95 707.06 338.89 706 338.83 705.03 338.8 703.08 338.73 701.5 338.77 699.91 338.82 698.69 338.97 698.69 338.97 698.69 338.97 697.17 339.11 695.79 339.35 694.41 339.58 693.18 339.9 691.94 340.22 690.85 340.64 689.75 341.05 688.81 341.55 687.86 342.06 687.06 342.66 686.25 343.25 685.6 343.94 684.94 344.63 684.43 345.4 683.91 346.18 683.55 347.04 683.55 347.04 683.55 347.04 683.13 347.94 682.84 348.79 682.54 349.65 682.38 350.45 682.06 352.07 682.24 353.48 682.43 354.88 683.12 356.08 683.82 357.28 685.02 358.25 685.02 358.25 685.02 358.25 686.03 359.15 687.13 359.74 688.24 360.33 689.46 360.62 690.67 360.9 691.83 360.93 692.99 360.96 694.11 360.73 695.23 360.49 696.74 360.52 698.26 360.54 700.17 360.81 702.09 361.08 704.05 361.42 705.04 361.58 706.03 361.77 707.03 361.95 708.03 362.15 708.03 362.15 708.03 362.15 709.39 362.34 710.64 362.49 711.89 362.64 713.03 362.74 714.16 362.84 715.19 362.89 716.22 362.95 717.14 362.96 718.97 362.98 720.37 362.83 721.77 362.68 722.73 362.36 724.65 361.72 725.96 361.47 727.27 361.22 727.96 361.34 729.37 361.59 730.17 362.12 730.17 362.12 730.17 362.12 731.57 363.02 732.87 363.45 734.17 363.88 735.37 363.86 735.37 363.86 735.37 363.86 736.98 363.76 738.33 363.92 739.68 364.07 740.78 364.48 741.88 364.88 742.73 365.54 743.57 366.2 744.17 367.1 744.77 368 745.01 369.02 745.26 370.04 745.15 371.17 745.04 372.3 744.59 373.56 744.36 374.18 744.04 374.84 743.72 375.5 743.31 376.2 743.31 376.2 743.31 376.2 743.31 376.58 743.01 377.55 742.7 378.53 742.09 380.11 742.09 380.11 742.09 380.11 741.73 380.9 741.43 381.63 741.12 382.36 740.86 383.03 740.33 384.38 740 385.46 739.67 386.56 739.53 387.39 739.38 388.23 739.43 388.8 739.53 389.96 739.17 391.18 738.81 392.41 737.99 393.73 737.18 395.05 736.07 396.24 734.96 397.44 733.54 398.53 733.54 398.53 733.54 398.53 732.68 399.12 731.8 399.64 730.93 400.15 730.03 400.59 728.23 401.46 726.36 402.01 724.49 402.55 722.54 402.76 720.6 402.96 718.58 402.82 718.58 402.82 718.58 402.82 716.76 402.51 715.15 401.96 713.54 401.4 712.13 400.6 712.13 400.6 712.13 400.6 710.84 400.5 709.61 400.43 708.37 400.36 707.19 400.32 706 400.28 704.87 400.27 703.74 400.27 702.66 400.29 700.5 400.35 698.55 400.54 696.59 400.74 694.85 401.07 693.1 401.41 691.56 401.9 690.02 402.39 688.69 403.03 687.36 403.67 686.24 404.46 685.11 405.25 684.2 406.2 684.2 406.2 684.2 406.2 683.17 407.24 682.38 408.19 681.59 409.15 681.03 410.03 680.46 410.9 680.13 411.69 679.79 412.49 679.69 413.19 679.58 413.89 679.5 414.86 679.41 415.82 679.35 417.05 679.29 418.29 679.25 419.78 679.23 420.53 679.22 421.35 679.21 422.16 679.2 423.04 679.2 423.04 679.2 423.04 679.19 424.46 679.17 425.87 679.16 427.29 679.15 428.71 679.14 430.13 679.12 431.55 679.11 432.97 679.09 434.39 680.41 434.82 681.67 435.3 682.93 435.78 684.14 436.31 685.35 436.83 686.51 437.41 687.67 437.98 688.78 438.6 689.9 439.22 691.13 439.61 692.37 440 693.74 440.15 695.11 440.31 696.61 440.24 698.11 440.16 699.73 439.86 701.36 439.56 702.89 439.2 704.43 438.84 705.88 438.42 707.32 438 708.68 437.52 710.04 437.04 711.31 436.51 712.58 435.97 713.81 435.44 715.04 434.91 716.24 434.38 717.43 433.85 718.59 433.33 719.74 432.81 720.86 432.29 720.86 432.29 720.86 432.29 722.08 431.68 723.27 431.15 724.46 430.62 725.63 430.17 726.79 429.73 727.93 429.36 729.07 428.99 730.19 428.7 731.3 428.41 732.39 428.2 733.48 427.98 734.54 427.84 735.61 427.7 736.64 427.63 737.68 427.57 738.69 427.57 740.72 427.58 742.36 427.74 744 427.9 745.27 428.2 746.53 428.51 747.41 428.95 748.29 429.4 748.8 429.99 749.3 430.58 749.6 431.32 749.91 432.06 750.01 432.95 750.11 433.85 750.01 434.89 749.9 435.94 749.6 437.15 749.3 438.36 749.08 439.4 748.87 440.44 748.74 441.32 748.62 442.19 748.58 442.9 748.54 443.6 748.59 444.13 748.69 445.2 748.74 446.18 748.79 447.16 748.79 448.06 748.79 448.06 748.79 448.06 748.79 449.16 748.47 450.33 748.14 451.51 747.48 452.78 746.83 454.06 745.84 455.43 744.86 456.81 743.55 458.3 743.55 458.3 743.55 458.3 742.84 459.24 742.14 460.11 741.45 460.99 740.77 461.79 739.41 463.42 738.09 464.75 736.78 466.1 735.51 467.14 734.25 468.19 733.03 468.93 731.82 469.67 730.42 470.35 729.03 471.02 727.45 471.64 725.88 472.25 724.13 472.8 722.38 473.34 720.45 473.81 718.52 474.27 716.76 474.8 715 475.32 713.42 475.91 711.84 476.49 710.43 477.15 709.02 477.81 707.79 478.54 706.56 479.27 705.4 480.03 704.23 480.79 703.13 481.57 702.02 482.36 700.98 483.17 699.94 483.99 698.97 484.83 697.99 485.67 697.03 486.49 696.06 487.32 695.11 488.11 694.16 488.91 693.22 489.69 692.27 490.46 691.35 491.21 691.35 491.21 691.35 491.21 689.8 492.47 688.15 493.36 686.5 494.1 684.74 494.62 682.98 495.14 681.12 495.47 679.27 495.63 677.31 495.45 677.31 495.45 677.31 495.45 675.88 495.28 674.44 495.1 673.01 494.93 671.57 494.75 671.57 494.75 671.57 494.75 670.65 494.68 669.67 494.67 668.69 494.66 667.67 494.72 666.64 494.78 665.56 494.9 664.48 495.02 663.34 495.2 662.21 495.39 661.02 495.63 659.84 495.88 658.6 496.19 657.36 496.49 656.07 496.86 654.77 497.22 653.42 497.64 652.07 498.05 650.76 498.36 649.45 498.66 648.17 498.85 646.9 499.04 645.66 499.14 644.43 499.23 643.24 499.23 642.05 499.24 640.91 499.14 639.76 499.05 638.66 498.86 637.56 498.66 636.5 498.36 635.44 498.05 634.42 497.64 633.4 497.22 632.52 496.73 631.63 496.23 630.87 495.65 630.12 495.07 629.49 494.42 628.86 493.77 628.36 493.04 627.87 492.31 627.5 491.51 627.13 490.7 626.89 489.82 626.65 488.95 626.54 488 626.43 487.05 626.44 486.04 626.45 485.02 626.49 484.07 626.52 483.12 626.57 482.24 626.68 480.47 626.86 478.97 627.05 477.47 627.31 476.24 627.57 475.01 627.9 474.06 628.57 472.14 629.22 470.62 629.88 469.09 630.51 467.96 630.51 467.96 630.51 467.96 630.95 466.77 631.08 465.77 631.21 464.78 631.03 463.97 630.68 462.35 629.11 461.47 629.11 461.47 629.11 461.47 627.93 460.88 626.94 460.19 625.96 459.49 625.17 458.7 624.38 457.89 623.78 456.99 623.19 456.09 622.78 455.09 622.37 454.08 622.16 452.98 621.94 451.88 621.91 450.68 621.89 449.48 622.05 448.19 622.22 446.89 622.58 445.51 622.58 445.51 622.58 445.51 622.89 444.09 623.2 442.82 623.5 441.55 623.81 440.43 624.12 439.32 624.42 438.35 624.73 437.39 625.03 436.58 625.64 434.95 625.75 433.27 625.86 431.59 625.46 429.85 625.07 428.11 624.92 426.5 624.77 424.89 624.87 423.43 624.98 421.96 624.94 420.55 624.89 419.15 624.69 417.8 624.69 417.8 624.69 417.8 624.49 416.45 624.04 415.43 623.59 414.41 622.88 413.71 622.17 413.01 621.21 412.64 620.25 412.26 619.04 412.22 619.04 412.22 619.04 412.22 617.52 412.19 616.25 411.54 614.99 410.88 613.98 409.59 613.47 408.94 613.03 408.13 612.58 407.32 612.2 406.36 611.82 405.39 611.51 404.26 611.19 403.13 610.94 401.84 610.94 401.84 610.94 401.84 610.64 400.6 610.44 399.35 610.24 398.1 610.14 396.85 610.05 395.59 610.06 394.32 610.07 393.05 610.18 391.78 610.3 390.51 610.51 389.23 610.73 387.95 611.06 386.67 611.38 385.38 611.81 384.09 612.24 382.81 612.77 381.52 613.31 380.23 613.76 379.01 614.22 377.79 614.59 376.65 614.97 375.51 615.26 374.44 615.56 373.37 615.78 372.38 615.99 371.38 616.13 370.46 616.27 369.54 616.33 368.68 616.44 366.98 616.24 365.56 616.04 364.14 615.86 362.77 615.68 361.4 615.53 360.08 615.37 358.76 615.25 357.5 615.12 356.23 615.02 355.02 615.02 355.02 615.02 355.02 615.07 353.33 615.12 351.63 615.17 349.94 615.22 348.25 615.28 346.55 615.33 344.86 615.38 343.17 615.43 341.48 615.44 340.22 615.4 339.07 615.37 337.91 615.31 336.86 615.25 335.81 615.15 334.86 615.06 333.91 614.93 333.06 614.68 331.37 614.29 330.08 613.91 328.8 613.4 327.92 612.89 327.04 612.56 325.96 612.23 324.88 612.07 323.59 611.92 322.3 611.95 320.81 611.97 319.32 612.18 317.63 612.38 315.94 612.46 314.43 612.54 312.93 612.49 311.63 612.44 310.32 612.26 309.2 612.08 308.09 611.77 307.16 611.46 306.24 611.23 305.26 611 304.28 610.85 303.25 610.7 302.22 610.62 301.14 610.54 300.05 610.54 298.92 610.54 298.92 610.54 298.92M843.51 394.62Q843.51 394.62 843.51 394.62 843.7 395.13 843.89 395.64 844.08 396.15 844.27 396.65 844.46 397.16 844.65 397.67 844.84 398.18 845.03 398.69 845.22 399.19 845.42 399.7 845.61 400.21 845.8 400.72 845.99 401.23 846.19 401.73 846.38 402.24 846.58 402.75 846.87 403.58 847.01 404.4 847.16 405.21 847.14 406.01 847.13 406.82 846.96 407.6 846.79 408.39 846.47 409.16 846.15 409.94 845.66 410.69 845.18 411.46 844.55 412.2 843.91 412.95 843.11 413.68 842.32 414.42 841.37 415.14 841.37 415.14 841.37 415.14 841.3 416.19 841.26 417.2 841.23 418.22 841.22 419.19 841.21 420.17 841.23 421.11 841.26 422.04 841.31 422.94 841.36 423.83 841.45 424.68 841.53 425.54 841.64 426.35 841.76 427.16 841.9 427.92 842.05 428.69 842.22 429.41 842.22 429.41 842.22 429.41 841.73 430.36 840.99 431.25 840.24 432.14 839.25 432.97 838.26 433.8 837.05 434.63 835.86 435.51 834.46 436.42 834.46 436.42 834.46 436.42 833.14 437.25 831.92 437.94 830.7 438.63 829.57 439.15 828.4 439.62 827.34 439.95 826.27 440.28 825.31 440.48 823.39 440.89 821.89 440.8 821.14 440.75 820.5 440.58 819.85 440.4 819.32 440.09 819.32 440.09 819.32 440.09 818.57 439.74 817.86 439.45 817.16 439.15 816.5 438.91 815.2 438.41 814.07 438.15 812.95 437.87 812.01 437.83 811.07 437.79 810.31 437.99 810.31 437.99 810.31 437.99 809.53 438.09 807.83 438.67 806.98 438.96 805.98 439.19 804.98 439.42 803.82 439.6 802.66 439.76 802.1 439.09 801.82 438.76 801.69 438.21 801.56 437.66 801.58 436.9 801.59 436.14 801.54 435.48 801.5 434.82 801.38 434.26 801.14 433.13 800.64 432.38 800.13 431.64 799.53 430.87 798.93 430.09 798.23 429.29 798.23 429.29 798.23 429.29 797.76 428.69 797.33 428.09 796.91 427.48 796.53 426.87 796.15 426.25 795.83 425.62 795.5 425 795.22 424.36 794.95 423.72 794.72 423.07 794.5 422.43 794.33 421.77 794.16 421.12 794.04 420.46 793.92 419.8 793.86 419.13 793.86 419.13 793.86 419.13 793.77 418.18 793.71 417.27 793.66 416.36 793.63 415.49 793.6 414.62 793.59 413.79 793.59 412.96 793.6 412.17 793.61 411.38 793.61 410.59 793.61 409.8 793.6 409.01 793.6 408.23 793.58 407.45 793.57 406.67 793.54 405.89 793.54 405.89 793.54 405.89 793.47 405.28 793.4 404.68 793.33 404.08 793.25 403.49 793.17 402.91 793.07 402.34 792.98 401.76 792.89 401.2 792.79 400.65 792.68 400.1 792.57 399.55 792.45 399.02 792.22 397.96 791.96 396.95 791.69 395.93 791.39 394.97 791.09 394.01 790.75 393.1 790.42 392.19 790.05 391.33 789.68 390.47 789.28 389.66 788.88 388.85 788.51 388.1 788.15 387.35 787.82 386.68 787.49 386 787.2 385.39 786.91 384.77 786.65 384.23 786.14 383.15 785.77 382.34 785.39 381.53 785.15 381.01 785.15 381.01 785.15 381.01 784.91 380.43 784.7 379.85 784.49 379.27 784.31 378.69 784.13 378.11 783.99 377.53 783.84 376.95 783.72 376.37 783.6 375.8 783.51 375.22 783.42 374.64 783.36 374.06 783.25 372.91 783.25 371.77 783.25 371.77 783.25 371.77 783.25 371.08 783.3 370.48 783.36 369.87 783.48 369.35 783.71 368.32 784.17 367.62 784.63 366.92 785.08 366.19 785.54 365.47 785.99 364.72 785.99 364.72 785.99 364.72 786.6 363.78 787.02 362.8 787.44 361.82 787.67 360.8 787.91 359.78 787.96 358.72 788.01 357.66 787.89 356.55 787.76 355.43 787.64 354.31 787.51 353.19 787.39 352.06 787.27 350.93 787.14 349.79 787.08 349.22 787.02 348.65 786.96 348.08 786.9 347.5 786.84 346.93 786.78 346.34 786.72 345.74 786.66 345.13 786.6 344.52 786.54 343.89 786.48 343.27 786.42 342.62 786.36 341.97 786.3 341.31 786.24 340.64 786.18 339.96 786.13 339.27 786.07 338.57 786.01 337.87 785.95 337.15 785.89 336.43 785.83 335.7 785.78 334.97 785.72 334.22 785.66 333.47 785.6 332.72 785.55 331.96 785.49 331.18 785.43 330.41 785.38 329.63 785.32 328.84 785.26 328.04 785.21 327.25 785.15 326.43 785.1 325.62 785.04 324.8 784.99 323.98 784.94 323.16 784.89 322.34 784.84 321.53 784.8 320.72 784.77 319.92 784.73 319.11 784.7 318.31 784.68 317.52 784.65 316.73 784.63 315.93 784.62 315.15 784.6 314.37 784.59 313.59 784.58 312.81 784.58 312.04 784.58 312.04 784.58 312.04 784.58 311.42 784.58 310.81 784.59 310.2 784.6 309.61 784.61 308.42 784.66 307.31 784.7 306.19 784.76 305.15 784.83 304.1 784.91 303.13 785 302.16 785.11 301.26 785.21 300.36 785.34 299.53 785.47 298.7 785.62 297.94 785.77 297.18 785.94 296.5 786.11 295.82 786.3 295.21 786.49 294.6 786.7 294.07 787.11 293.01 787.6 292.24 788.08 291.49 788.64 291.04 789.19 290.6 789.83 290.45 789.83 290.45 789.83 290.45 790.28 290.35 790.82 290.26 791.35 290.16 791.95 290.08 792.56 290 793.28 289.85 794 289.71 794.83 289.51 795.65 289.32 796.37 289.12 797.09 288.93 797.72 288.72 798.34 288.52 799.01 288.43 799.67 288.34 800.38 288.36 800.38 288.36 800.38 288.36 801.02 288.36 801.77 288.54 802.53 288.72 803.39 289.07 804.25 289.42 805.22 289.95 806.19 290.48 807.27 291.18 808.35 291.89 809.27 292.48 810.2 293.08 810.97 293.57 811.74 294.06 812.35 294.45 812.97 294.83 813.42 295.1 814.34 295.65 815.25 296.16 816.16 296.66 817.06 297.13 817.96 297.59 818.97 298.03 819.98 298.46 821.1 298.86 821.66 299.07 822.35 299.32 823.03 299.58 823.83 299.88 824.63 300.19 825.56 300.54 826.48 300.9 827.52 301.31 828.56 301.72 829.65 302.16 830.19 302.38 830.74 302.61 831.29 302.85 831.86 303.09 832.42 303.33 832.99 303.58 833.57 303.83 834.15 304.09 834.74 304.35 835.33 304.62 835.93 304.88 836.54 305.16 837.14 305.44 837.75 305.72 838.35 306.01 838.96 306.3 839.56 306.6 840.16 306.9 840.76 307.2 841.36 307.51 841.96 307.82 842.56 308.14 843.15 308.46 843.75 308.78 844.35 309.11 844.94 309.44 845.54 309.77 846.13 310.11 846.13 310.11 846.13 310.11 847.09 310.63 848.03 311.18 848.97 311.71 849.9 312.27 850.83 312.82 851.75 313.38 852.67 313.93 853.58 314.5 854.5 315.06 855.4 315.63 856.31 316.19 857.21 316.75 858.12 317.31 859.02 317.87 859.93 318.41 860.83 318.96 861.74 319.49 862.65 320.02 863.57 320.53 864.49 321.04 865.42 321.53 866.35 322.01 867.29 322.48 868.22 322.94 869.17 323.38 870.12 323.81 871.08 324.23 872.04 324.63 873.01 325.03 873.98 325.42 874.95 325.79 875.92 326.17 875.92 326.17 875.92 326.17 876.78 326.49 877.57 326.78 878.37 327.07 879.09 327.34 879.83 327.61 880.49 327.86 881.16 328.1 881.76 328.33 882.36 328.56 882.88 328.78 883.41 328.99 883.87 329.2 884.33 329.4 884.72 329.59 885.11 329.78 885.42 329.97 885.73 330.15 886.05 330.34 886.36 330.52 886.67 330.7 887.3 331.06 887.93 331.42 888.55 331.77 889.18 332.12 889.8 332.47 890.43 332.81 891.05 333.15 891.79 333.51 892.15 333.69 892.55 333.87 892.95 334.06 893.37 334.25 893.8 334.43 894.25 334.63 894.71 334.82 895.19 335.01 895.67 335.2 896.19 335.4 896.7 335.6 897.25 335.79 897.79 335.99 898.29 336.19 898.8 336.38 899.26 336.58 899.72 336.78 900.15 336.98 900.57 337.17 900.96 337.37 901.34 337.56 901.61 337.77 901.88 337.97 902.18 338.17 902.48 338.37 902.82 338.56 903.15 338.75 903.37 338.95 903.81 339.35 904.15 339.69 904.49 340.05 904.72 340.34 904.95 340.64 905.09 340.88 905.22 341.12 905.26 341.3 905.33 341.66 905.32 342 905.31 342.34 905.21 342.67 905.21 342.67 905.21 342.67 905.22 343 905.35 343.33 905.47 343.66 905.72 343.98 905.96 344.3 906.33 344.61 906.69 344.92 907.18 345.21 907.18 345.21 907.18 345.21 907.59 345.45 907.94 345.68 908.29 345.91 908.59 346.13 908.88 346.36 909.12 346.57 909.36 346.79 909.53 347 909.89 347.43 910.02 347.83 910.14 348.23 910.03 348.62 909.91 349 909.8 349.4 909.68 349.8 909.57 350.2 909.45 350.61 909.33 351.02 909.21 351.44 909.09 351.87 909.09 351.87 909.09 351.87 908.85 352.42 908.54 352.94 908.22 353.46 907.84 353.96 907.45 354.46 907 354.92 906.55 355.39 906.03 355.82 905.5 356.26 904.91 356.66 904.32 357.06 903.67 357.43 903.01 357.79 902.3 358.12 901.58 358.45 900.8 358.74 900.8 358.74 900.8 358.74 899.04 359.34 897.62 359.85 896.2 360.36 895.11 360.79 894.02 361.22 893.53 361.65 893.04 362.08 893.15 362.51 893.15 362.51 893.15 362.51 893.02 362.88 893.76 363.05 894.5 363.21 896.12 363.16 896.93 363.13 897.79 363.14 898.65 363.15 899.56 363.19 900.47 363.23 901.42 363.3 902.38 363.38 903.39 363.48 904.39 363.58 905.3 363.64 906.21 363.7 907.03 363.71 908.65 363.73 909.88 363.59 911.09 363.45 912.16 363.26 913.23 363.08 914.15 362.85 914.15 362.85 914.15 362.85 915.52 362.5 916.66 362.23 917.81 361.97 918.71 361.79 920.53 361.42 921.42 361.38 921.42 361.38 921.42 361.38 922.46 361.37 923.38 361.37 924.31 361.37 925.12 361.37 926.73 361.38 927.86 361.43 928.98 361.47 929.71 361.84 930.07 362.02 930.34 362.29 930.6 362.56 930.75 362.91 930.75 362.91 930.75 362.91 930.91 363.27 931.16 363.6 931.41 363.93 931.75 364.24 932.1 364.55 932.54 364.84 932.98 365.12 933.51 365.38 934.05 365.64 934.6 365.9 935.15 366.16 935.71 366.44 936.26 366.71 936.83 366.99 937.39 367.27 937.96 367.56 938.54 367.85 939 368.13 939.46 368.42 939.8 368.71 940.15 368.99 940.38 369.28 940.61 369.57 940.72 369.87 940.94 370.46 941.16 370.87 941.38 371.28 941.6 371.5 941.6 371.5 941.6 371.5 942.09 371.72 942.58 371.93 943.07 372.14 943.57 372.35 944.06 372.56 944.56 372.77 945.06 372.97 945.56 373.18 945.83 373.45 945.99 373.74 946.16 374.03 946.21 374.36 946.25 374.68 946.18 375.05 946.1 375.41 945.89 375.82 945.41 376.67 944.35 377.73 943.09 378.92 941.1 380.43 938.84 382.11 936.71 383.63 934.62 385.15 933.02 386.29 931.62 387.32 930.56 388.04 929.57 388.73 928.79 389.18 927.29 389.89 925.94 390.66 924.61 391.46 923.42 391.89 922.2 392.33 921.15 392.6 920.09 392.86 919.2 392.94 917.37 393.11 916.24 393.43 915.12 393.74 913.43 394.52 911.74 395.29 909.83 395.88 909.83 395.88 909.83 395.88 908.98 396.19 908.14 396.33 907.3 396.47 906.47 396.44 905.64 396.42 904.81 396.23 903.97 396.05 903.14 395.7 902.71 395.53 902.29 395.32 901.86 395.12 901.43 394.87 901 394.62 900.56 394.34 900.12 394.06 899.67 393.74 899.22 393.42 898.76 393.06 898.3 392.71 897.83 392.32 897.36 391.93 896.88 391.51 896.4 391.09 895.91 390.64 895.91 390.64 895.91 390.64 895.39 390.21 894.83 389.86 894.26 389.51 893.65 389.24 893.04 388.97 892.39 388.77 891.73 388.58 891.04 388.46 890.34 388.34 889.61 388.3 888.87 388.26 888.1 388.29 886.55 388.34 884.86 388.69 884.86 388.69 884.86 388.69 883.56 388.98 882.41 389.17 881.25 389.36 880.22 389.47 879.2 389.57 878.31 389.59 877.42 389.6 876.66 389.54 875.9 389.47 875.26 389.31 874.63 389.16 874.13 388.92 873.63 388.68 873.26 388.37 872.89 388.05 872.64 387.65 872.64 387.65 872.64 387.65 872.41 387.28 872.14 386.83 871.88 386.38 871.58 385.85 871.29 385.33 870.97 384.73 870.64 384.13 870.29 383.46 870.29 383.46 870.29 383.46 869.85 382.82 869.33 382.29 868.82 381.76 868.22 381.32 867.64 380.89 866.97 380.55 866.31 380.21 865.58 379.97 864.85 379.73 864.05 379.58 863.25 379.43 862.38 379.38 861.51 379.33 860.56 379.37 859.63 379.41 858.61 379.54 858.61 379.54 858.61 379.54 857.61 379.7 856.67 379.88 855.72 380.05 854.84 380.25 853.06 380.64 851.51 381.14 849.96 381.63 848.52 382.54 847.8 383 847.1 383.57 846.41 384.13 845.73 384.81 845.73 384.81 845.73 384.81 844.85 385.79 844.27 386.89 843.98 387.45 843.77 388.03 843.55 388.61 843.41 389.23 843.27 389.84 843.2 390.49 843.14 391.13 843.15 391.81 843.16 392.48 843.25 393.19 843.34 393.89 843.51 394.62 843.51 394.62 843.51 394.62M851.43 358.8Q852.28 358.17 853.12 357.58 853.95 356.99 854.78 356.44 855.6 355.89 856.42 355.37 857.24 354.86 858.05 354.38 858.85 353.9 859.56 353.39 860.26 352.89 860.85 352.35 861.44 351.83 861.93 351.27 862.41 350.71 862.78 350.13 863.15 349.55 863.45 348.98 863.75 348.42 863.97 347.87 864.19 347.33 864.34 346.79 864.48 346.26 864.56 345.73 864.56 345.73 864.56 345.73 864.58 345.25 864.56 344.78 864.53 344.32 864.46 343.86 864.39 343.42 864.28 342.98 864.16 342.55 864 342.12 863.84 341.7 863.64 341.3 863.44 340.89 863.2 340.49 862.96 340.09 862.67 339.7 862.39 339.31 862.07 338.93 861.75 338.55 861.44 338.2 861.14 337.85 860.85 337.53 860.27 336.89 859.76 336.37 859.25 335.85 858.8 335.45 858.35 335.05 857.97 334.78 857.2 334.24 855.73 333.89 855 333.71 854.1 333.58 853.2 333.45 852.12 333.36 851.05 333.28 849.94 333.13 848.84 332.98 847.7 332.75 846.57 332.52 845.42 332.21 844.27 331.9 843.09 331.5 841.92 331.1 840.97 330.69 840.04 330.28 839.32 329.85 838.61 329.42 838.12 328.98 837.63 328.55 837.37 328.1 837.37 328.1 837.37 328.1 836.94 327.16 836.44 326.48 835.94 325.81 835.37 325.4 834.8 324.99 834.16 324.85 833.52 324.72 832.8 324.86 832.8 324.86 832.8 324.86 832.02 325.05 831.49 325.26 830.95 325.47 830.66 325.71 830.36 325.94 830.27 326.75 830.22 327.16 830.23 327.71 830.23 328.26 830.28 328.96 830.28 328.96 830.28 328.96 830.37 329.68 830.48 330.36 830.58 331.05 830.7 331.7 830.82 332.36 830.96 332.97 831.09 333.58 831.25 334.16 831.4 334.74 831.57 335.28 831.74 335.82 831.93 336.32 832.11 336.81 832.32 337.27 832.52 337.73 832.75 338.15 833.2 338.99 833.58 339.68 833.95 340.37 834.25 340.92 834.85 342.01 835.13 342.54 835.41 343.08 835.67 343.65 835.93 344.22 836.17 344.84 836.41 345.45 836.67 346.14 836.93 346.84 837.21 347.61 837.35 348 837.54 348.5 837.73 349 837.97 349.61 838.21 350.21 838.5 350.93 838.79 351.65 839.13 352.48 839.47 353.3 839.75 354.07 840.03 354.83 840.24 355.53 840.45 356.23 840.6 356.88 840.75 357.52 840.83 358.11 840.91 358.69 841.09 359.28 841.27 359.86 841.55 360.43 841.83 361.01 842.21 361.57 842.59 362.13 843.08 362.69 843.08 362.69 843.08 362.69 844.31 362.36 845.45 361.95 846.59 361.54 847.64 361.05 848.69 360.57 849.64 360 850.58 359.44 851.43 358.8 851.43 358.8 851.43 358.8"></path><path fill="#f1f3f5" d="M227.74 697.51Q227.74 697.51 227.74 697.51 228.69 697.53 229.7 697.59 230.72 697.66 231.8 697.77 232.88 697.88 234.03 698.04 235.17 698.2 236.38 698.41 237.59 698.63 238.68 698.85 239.77 699.08 240.75 699.32 242.7 699.8 244.17 700.34 245.64 700.89 247.12 701.49 248.59 702.09 250.06 702.73 250.06 702.73 250.06 702.73 250.94 703.14 251.83 703.51 252.71 703.89 253.6 704.24 254.49 704.59 255.38 704.9 256.28 705.22 257.18 705.51 258.09 705.79 259 706.05 259.91 706.3 260.84 706.52 261.76 706.74 262.7 706.92 263.64 707.11 264.59 707.25 265.54 707.4 266.46 707.53 267.38 707.67 268.26 707.79 270.03 708.03 271.65 708.22 273.29 708.41 274.77 708.56 276.26 708.71 277.59 708.82 278.94 708.92 280.27 709.14 281.61 709.37 282.93 709.72 284.26 710.07 285.57 710.55 286.88 711.03 288.17 711.64 288.17 711.64 288.17 711.64 288.96 712.08 289.64 712.57 290.32 713.06 290.89 713.6 291.46 714.14 291.92 714.73 292.38 715.32 292.73 715.96 293.08 716.61 293.31 717.3 293.55 717.99 293.68 718.74 293.65 719.47 293.64 720.26 293.62 721.05 293.71 721.91 293.71 721.91 293.71 721.91 293.65 722.71 293.5 723.43 293.35 724.14 293.13 724.78 292.92 725.42 292.64 725.97 292.36 726.52 292.03 727 291.36 727.94 290.46 728.55 289.58 729.14 288.47 729.39 287.38 729.62 286.34 729.73 285.33 729.83 284.36 729.82 283.4 729.79 282.48 729.67 281.58 729.55 280.71 729.33 279.85 729.11 279 728.87 278.15 728.64 277.3 728.38 276.45 728.13 275.6 727.86 274.74 727.59 273.88 727.3 273.02 727 272.17 726.72 271.33 726.43 270.5 726.16 269.68 725.88 268.88 725.62 268.09 725.35 267.31 725.1 265.77 724.59 264.52 724.42 263.28 724.25 262.35 724.43 262.35 724.43 262.35 724.43 261.74 724.48 261.13 724.5 260.52 724.52 259.91 724.51 258.67 724.48 257.46 724.35 256.25 724.22 255.07 723.99 253.89 723.76 252.77 723.45 251.68 723.15 250.71 722.78 249.76 722.43 248.84 721.98 247.9 721.53 246.97 720.99 246 720.44 245.06 719.79 245.06 719.79 245.06 719.79 244.13 719.12 243.14 718.53 242.15 717.94 241.1 717.43 240.04 716.92 238.92 716.48 237.8 716.05 236.61 715.69 235.43 715.33 234.32 715.02 233.22 714.72 232.19 714.47 231.16 714.22 230.21 714.03 229.26 713.84 228.4 713.71 227.54 713.57 226.68 713.43 225.84 713.28 224.99 713.12 224.15 712.96 223.28 712.77 222.4 712.58 221.47 712.35 221.47 712.35 221.47 712.35 220.4 712.12 219.34 711.85 218.28 711.58 217.29 711.29 216.39 711.04 215.54 710.76 214.68 710.49 213.84 710.15 212.98 709.8 212.15 709.48 211.21 709.12 210.3 708.74 209.38 708.32 208.49 707.89 207.59 707.45 206.72 707 205.86 706.54 205.03 706.06 204.2 705.59 203.4 705.1 202.61 704.62 201.86 704.13 201.11 703.64 200.39 703.15 199.66 702.66 198.96 702.17 198.24 701.69 197.54 701.2 196.82 700.72 196.11 700.23 195.38 699.77 194.66 699.29 194.66 699.29 194.66 699.29 194.09 698.93 193.54 698.59 192.99 698.25 192.47 697.95 191.94 697.64 191.45 697.36 190.95 697.09 190.5 696.83 189.56 696.33 188.68 695.91 187.78 695.49 186.94 695.15 186.94 695.15 186.94 695.15 185.94 694.75 184.99 694.31 184.51 694.09 184.05 693.86 183.58 693.62 183.12 693.38 182.66 693.13 182.21 692.87 181.76 692.61 181.32 692.33 180.88 692.05 180.46 691.75 180.03 691.45 179.62 691.13 179.62 691.13 179.62 691.13 179.31 690.91 179 690.69 178.7 690.47 178.4 690.26 178.09 690.05 177.79 689.84 177.5 689.64 177.2 689.44 176.61 689.04 176.04 688.67 175.47 688.3 174.91 687.96 174.36 687.62 173.81 687.31 173.27 687 172.73 686.72 172.2 686.44 171.68 686.19 171.15 685.94 170.63 685.72 170.11 685.5 169.61 685.29 169.12 685.08 168.64 684.89 167.69 684.5 166.83 684.15 165.97 683.81 165.2 683.52 164.43 683.22 163.75 682.97 163.75 682.97 163.75 682.97 162.89 682.65 162.11 682.34 161.33 682.04 160.62 681.75 159.91 681.46 159.27 681.19 158.62 680.92 158.05 680.66 157.48 680.4 156.98 680.15 156.48 679.91 156.06 679.68 155.64 679.46 155.3 679.25 154.96 679.04 154.7 678.85 154.7 678.85 154.7 678.85 154.33 678.52 153.89 678.18 153.46 677.85 152.97 677.52 152.49 677.18 151.94 676.85 151.4 676.51 150.79 676.18 150.19 675.84 149.51 675.5 148.84 675.17 148.1 674.82 147.36 674.48 146.54 674.14 145.73 673.8 144.85 673.45 144.85 673.45 144.85 673.45 144.41 673.25 144.16 672.99 143.91 672.73 143.84 672.41 143.77 672.09 143.87 671.7 143.98 671.3 144.27 670.83 144.27 670.83 144.27 670.83 144.52 670.45 144.7 670.09 144.88 669.72 144.99 669.37 145.11 669.01 145.15 668.67 145.2 668.33 145.17 668.01 145.15 667.69 145.05 667.38 144.95 667.07 144.78 666.78 144.61 666.49 144.36 666.22 144.11 665.95 143.78 665.69 143.46 665.44 143.05 665.21 142.65 664.98 142.16 664.77 141.67 664.56 141.1 664.37 140.53 664.18 139.88 664.01 138.57 663.68 136.93 663.44 135.29 663.2 133.31 663.06 133.31 663.06 133.31 663.06 131.8 662.96 130.42 662.87 129.05 662.78 127.82 662.7 126.59 662.62 125.71 662.4 124.82 662.18 124.28 661.8 124.28 661.8 124.28 661.8 123.84 661.61 123.39 661.4 122.94 661.19 122.48 660.98 122.02 660.76 121.56 660.54 121.09 660.32 120.63 660.09 120.16 659.86 119.69 659.63 119.22 659.4 118.74 659.16 118.27 658.92 117.8 658.69 117.34 658.45 116.88 658.22 116.45 658 116.03 657.79 115.63 657.58 115.22 657.38 114.82 657.17 114.42 656.96 114.02 656.75 113.61 656.54 113.21 656.33 112.81 656.12 112.41 655.9 112 655.68 111.59 655.46 111.16 655.21 110.69 654.94 110.21 654.65 109.72 654.36 109.23 654.06 108.75 653.76 108.25 653.46 107.76 653.15 107.27 652.85 106.78 652.54 106.28 652.23 105.79 651.91 105.29 651.6 104.8 651.28 104.31 650.95 103.82 650.62 103.32 650.28 102.83 649.95 102.34 649.61 101.84 649.27 101.35 648.93 100.85 648.59 100.35 648.24 99.86 647.89 99.38 647.55 98.98 647.26 98.58 646.96 98.18 646.67 97.78 646.37 97.37 646.07 96.97 645.76 96.57 645.46 96.17 645.15 95.77 644.84 95.37 644.52 95.37 644.52 95.37 644.52 95.07 644.29 95.08 643.92 95.08 643.55 95.44 643.07 95.82 642.56 96.56 641.92 97.34 641.22 98.54 640.33 98.54 640.33 98.54 640.33 99.73 639.39 100.93 638.45 102.18 637.45 103.41 636.51 105.89 634.61 108.06 633.29 110.19 632.11 112.02 631.44 113.84 630.81 115.42 630.56 115.42 630.56 115.42 630.56 118.07 630.2 120.64 629.76 123.21 629.29 125.69 628.77 128.17 628.24 130.58 627.68 132.98 627.13 135.31 626.56 137.63 626.01 139.89 625.45 142.15 624.91 144.33 624.36 146.51 623.81 148.61 623.24 150.71 622.67 152.74 622.07 154.76 621.47 156.72 620.91 158.68 620.34 160.58 619.8 162.47 619.27 164.31 618.77 166.15 618.27 167.93 617.8 169.71 617.33 171.43 616.89 173.15 616.46 174.81 616.05 176.47 615.65 178.07 615.28 179.67 614.91 181.21 614.56 182.74 614.22 184.24 613.95 185.75 613.67 187.21 613.46 188.67 613.25 190.1 613.1 191.53 612.94 192.91 612.85 194.3 612.75 195.65 612.72 197 612.68 198.31 612.71 199.63 612.74 200.9 612.84 202.17 612.94 203.41 613.1 203.41 613.1 203.41 613.1 204.8 613.31 206.08 613.57 207.36 613.83 208.52 614.12 209.68 614.42 210.72 614.76 211.76 615.1 212.68 615.48 213.61 615.86 214.41 616.28 215.21 616.7 215.9 617.16 216.58 617.62 217.15 618.12 217.72 618.62 218.17 619.15 218.62 619.69 218.96 620.26 219.29 620.83 219.52 621.44 219.74 622.05 219.85 622.69 219.96 623.33 219.96 624.01 219.97 624.68 219.86 625.39 219.76 626.1 219.55 626.84 219.34 627.57 219.02 628.34 218.71 629.11 218.29 629.9 218.29 629.9 218.29 629.9 217.81 630.66 217.51 631.36 217.22 632.06 217.12 632.7 217.03 633.35 217.12 633.94 217.22 634.53 217.51 635.07 217.79 635.61 217.84 636.21 217.9 636.81 217.72 637.47 217.54 638.12 217.14 638.84 216.74 639.55 216.11 640.32 215.5 641.08 215.11 641.77 214.72 642.46 214.57 643.09 214.42 643.71 214.49 644.27 214.57 644.84 214.87 645.34 215.16 645.84 215.53 646.44 215.89 647.04 216.32 647.73 216.53 648.08 216.76 648.45 216.99 648.83 217.24 649.23 217.48 649.62 217.74 650.05 218 650.47 218.28 650.92 218.28 650.92 218.28 650.92 218.63 651.5 218.93 652.07 219.23 652.64 219.46 653.21 219.7 653.77 219.89 654.32 220.07 654.87 220.2 655.41 220.32 655.95 220.4 656.47 220.47 657 220.49 657.51 220.51 658.02 220.47 658.52 220.44 659.02 220.35 659.5 220.26 659.98 220.12 660.45 219.98 660.92 219.79 661.37 219.6 661.82 219.36 662.26 219.12 662.69 218.82 663.12 218.53 663.53 218.19 663.94 217.84 664.34 217.45 664.72 217.06 665.11 216.61 665.48 216.17 665.84 215.68 666.19 215.68 666.19 215.68 666.19 215.17 666.56 214.76 666.94 214.35 667.31 214.05 667.7 213.75 668.08 213.55 668.47 213.35 668.86 213.25 669.26 213.16 669.66 213.16 670.07 213.17 670.48 213.27 670.91 213.37 671.33 213.58 671.76 213.78 672.2 214.08 672.65 214.38 673.1 214.66 673.53 214.95 673.96 215.23 674.37 215.51 674.78 215.77 675.18 216.04 675.57 216.3 675.94 216.56 676.31 216.8 676.67 217.05 677.02 217.28 677.36 217.76 678.03 218.19 678.62 218.62 679.21 218.99 679.82 219.36 680.44 219.66 681.08 219.97 681.72 220.21 682.38 220.46 683.04 220.64 683.72 220.74 684.06 220.85 684.41 220.96 684.77 221.09 685.14 221.22 685.51 221.36 685.89 221.51 686.27 221.67 686.67 221.83 687.07 222.01 687.48 222.18 687.9 222.38 688.33 222.57 688.76 222.78 689.2 222.99 689.65 223.22 690.11 223.44 690.57 223.68 691.03 223.92 691.49 224.18 691.95 224.43 692.41 224.7 692.87 224.97 693.33 225.26 693.79 225.54 694.25 225.84 694.71 226.13 695.18 226.44 695.64 226.75 696.11 227.08 696.57 227.4 697.04 227.74 697.51 227.74 697.51 227.74 697.51M460.89 711.73Q460.89 711.73 460.89 711.73 462.15 712.89 463.73 713.78 465.3 714.68 467.2 715.31 469.09 715.94 471.3 716.3 473.51 716.66 476.03 716.74 476.03 716.74 476.03 716.74 478.38 716.81 480.32 716.95 482.25 717.09 483.79 717.3 486.85 717.73 488.29 718.45 488.29 718.45 488.29 718.45 489.55 719.22 490.18 720.33 490.81 721.43 490.8 722.86 490.8 723.58 490.65 724.37 490.49 725.17 490.17 726.04 489.85 726.92 489.38 727.88 488.9 728.83 488.27 729.87 488.27 729.87 488.27 729.87 487.55 731.07 486.98 732.15 486.41 733.22 486 734.16 485.6 735.11 485.34 735.92 485.09 736.73 485 737.42 484.8 738.79 484.53 739.95 484.25 741.11 483.88 742.06 483.88 742.06 483.88 742.06 483.52 742.88 482.7 743.71 481.88 744.55 480.61 745.4 479.34 746.26 477.61 747.13 475.88 748.01 473.7 748.9 473.7 748.9 473.7 748.9 471.33 749.57 468.84 750.12 466.36 750.67 463.76 751.09 461.16 751.51 458.44 751.8 455.73 752.09 452.91 752.24 450.11 752.39 447.55 752.51 445.01 752.63 442.72 752.72 440.43 752.81 438.39 752.87 436.36 752.93 434.56 752.97 432.77 753.01 430.88 753.09 428.99 753.17 427 753.31 425 753.43 422.9 753.61 420.8 753.78 418.6 754 418.6 754 418.6 754 415.28 754.32 412.22 754.47 409.15 754.6 406.33 754.57 403.53 754.54 401.04 754.35 398.67 754.17 396.59 753.85 394.51 753.52 392.68 753.23 390.81 752.92 389.14 752.65 385.7 752.09 383.32 751.69 380.92 751.28 378.16 751.06 375.4 750.83 372.25 750.78 369.1 750.71 366.59 750.49 364.09 750.04 362.24 749.8 360.39 749.52 358.61 749.05 357 748.6 355.37 748.04 355.37 748.04 355.37 748.04 352.79 747.18 350.2 746.41 347.66 745.64 345.25 744.99 342.83 744.34 340.46 743.79 338.03 743.23 335.68 742.77 335.68 742.77 335.68 742.77 332.39 742.12 329.64 740.59 328.28 739.84 327.07 738.9 325.86 737.98 324.8 736.9 323.73 735.85 322.8 734.65 322.34 734.06 321.91 733.44 321.47 732.82 321.08 732.17 320.68 731.52 320.31 730.84 319.95 730.16 319.61 729.44 319.28 728.73 318.98 727.98 318.68 727.23 318.42 726.44 318.42 726.44 318.42 726.44 318.15 725.8 317.94 725.18 317.73 724.57 317.58 723.96 317.43 723.36 317.33 722.76 317.23 722.17 317.19 721.59 317.14 721.02 317.16 720.45 317.17 719.88 317.24 719.33 317.31 718.77 317.43 718.22 317.56 717.68 317.74 717.14 318.1 716.07 318.6 715.2 319.09 714.33 319.72 713.66 320.35 712.98 321.12 712.51 321.88 712.04 322.78 711.77 324.58 711.22 326.73 710.9 328.89 710.57 331.4 710.47 333.92 710.37 336.25 710.3 338.59 710.24 340.74 710.22 342.89 710.2 344.87 710.19 346.84 710.19 348.65 710.2 348.65 710.2 348.65 710.2 350.8 710.01 351.97 708.92 352.55 708.38 352.9 707.61 353.24 706.84 353.33 705.85 353.42 704.86 353.53 703.9 353.65 702.94 353.78 702.02 353.92 701.1 354.07 700.21 354.23 699.33 354.41 698.48 354.41 698.48 354.41 698.48 354.46 697.89 354.52 697.32 354.58 696.75 354.65 696.21 354.8 695.12 355 694.12 355.21 693.12 355.47 692.21 355.73 691.3 356.04 690.47 356.36 689.65 356.73 688.91 357.1 688.17 357.53 687.52 357.96 686.87 358.44 686.3 358.93 685.74 359.47 685.26 359.47 685.26 359.47 685.26 360.37 684.53 361.01 683.84 361.65 683.14 362.03 682.46 362.41 681.79 362.53 681.14 362.65 680.49 362.52 679.86 362.38 679.24 361.99 678.65 361.59 678.05 360.94 677.49 360.29 676.93 359.38 676.4 358.47 675.87 357.3 675.38 357.3 675.38 357.3 675.38 356.13 674.77 355.15 674.04 354.16 673.31 353.35 672.45 352.54 671.59 351.92 670.59 351.29 669.6 350.84 668.48 350.62 667.92 350.44 667.32 350.26 666.73 350.12 666.1 349.99 665.47 349.9 664.81 349.81 664.15 349.76 663.45 349.72 662.76 349.72 662.03 349.72 661.3 349.76 660.53 349.8 659.77 349.89 658.97 349.98 658.17 350.12 657.33 350.12 657.33 350.12 657.33 350.29 656.32 350.42 655.36 350.54 654.4 350.61 653.49 350.67 652.57 350.68 651.71 350.69 650.85 350.65 650.03 350.6 649.22 350.5 648.46 350.4 647.69 350.24 646.98 350.08 646.27 349.87 645.61 349.65 644.95 349.38 644.34 349.38 644.34 349.38 644.34 349.2 643.73 349.04 643.15 348.87 642.57 348.72 642.01 348.56 641.45 348.42 640.92 348.28 640.38 348.16 639.87 347.91 638.84 347.72 637.9 347.52 636.97 347.39 636.12 347.25 635.27 347.17 634.5 347.09 633.74 347.07 633.06 347.05 632.39 347.08 631.8 347.12 631.21 347.21 630.7 347.21 630.7 347.21 630.7 347.38 629.95 347.52 629.28 347.65 628.62 347.74 628.03 347.91 626.86 347.91 626.03 347.91 625.19 347.73 624.59 347.55 623.98 347.19 623.6 347.19 623.6 347.19 623.6 346.1 622.89 342.87 622.82 341.25 622.79 339.1 622.91 336.94 623.03 334.25 623.31 331.56 623.59 328.96 623.69 326.36 623.79 323.85 623.73 321.34 623.67 318.92 623.44 316.51 623.22 314.18 622.83 311.85 622.45 310.19 621.81 308.54 621.17 307.55 620.29 307.06 619.84 306.73 619.34 306.4 618.83 306.25 618.26 306.09 617.69 306.1 617.06 306.1 616.42 306.28 615.72 306.28 615.72 306.28 615.72 306.55 615.01 306.75 614.33 306.95 613.64 307.09 612.97 307.22 612.31 307.29 611.67 307.35 611.02 307.35 610.4 307.35 609.79 307.29 609.19 307.22 608.6 307.09 608.02 306.95 607.45 306.75 606.91 306.55 606.36 306.28 605.84 306.01 605.32 305.85 604.81 305.68 604.31 305.62 603.82 305.49 602.84 305.75 601.93 306.02 601.03 306.69 600.18 307.36 599.33 308.42 598.55 309.5 597.76 310.35 597.05 311.2 596.34 311.83 595.7 312.46 595.06 312.86 594.51 313.26 593.95 313.44 593.48 313.79 592.53 314.33 591.64 314.86 590.75 315.57 589.91 315.57 589.91 315.57 589.91 316.63 588.9 318.39 587.89 320.13 586.84 322.56 585.78 324.99 584.69 328.11 583.67 331.23 582.65 335.07 581.8 336.99 581.39 338.88 581 340.77 580.61 342.63 580.25 346.34 579.52 349.92 578.89 353.5 578.25 356.95 577.7 360.39 577.13 363.69 576.62 367 576.11 370.19 575.65 373.38 575.18 376.46 574.75 379.54 574.33 382.51 573.95 385.48 573.57 388.34 573.23 388.34 573.23 388.34 573.23 390.22 573.01 392.01 572.79 393.81 572.57 395.52 572.35 398.95 571.93 402.05 571.53 405.16 571.13 407.94 570.76 410.72 570.39 413.17 570.04 415.63 569.69 417.76 569.37 419.89 569.05 421.69 568.75 425.3 568.15 427.62 567.67 427.62 567.67 427.62 567.67 429.4 567.31 431.29 566.88 433.18 566.45 435.18 565.96 437.18 565.47 439.29 564.92 441.4 564.38 443.63 563.79 445.86 563.21 448.07 562.65 450.28 562.1 452.47 561.57 454.67 561.05 456.84 560.54 459 560.01 461.14 559.48 461.14 559.48 461.14 559.48 463.64 558.83 465.98 558.25 468.32 557.67 470.51 557.18 472.7 556.69 474.75 556.3 476.8 555.93 478.71 555.65 482.51 555.06 485.71 554.74 488.91 554.4 491.51 554.4 494.11 554.42 496.23 554.6 498.35 554.81 499.98 555.17 501.62 555.55 502.77 556.06 503.92 556.59 504.58 557.24 505.24 557.9 505.75 558.61 506.25 559.33 506.6 560.09 506.95 560.85 507.14 561.66 507.33 562.47 507.37 563.33 507.4 564.19 507.37 565.09 507.34 565.98 507.24 566.91 507.14 567.84 506.98 568.81 506.81 569.77 506.58 570.77 506.34 571.77 506.32 572.78 506.29 573.78 506.47 574.79 506.65 575.81 507.03 576.83 507.41 577.85 508 578.88 508 578.88 508 578.88 508.87 580.01 509.53 581.12 510.2 582.22 510.68 583.3 511.15 584.37 511.43 585.41 511.49 586.47 511.49 587.49 511.49 588.5 511.67 589.43 511.66 590.39 511.32 591.32 510.99 592.25 510.46 593.14 509.93 594.04 509.2 594.89 508.48 595.74 507.77 596.52 507.05 597.29 506.35 597.99 504.95 599.38 503.6 600.45 502.24 601.52 500.93 602.27 499.63 603.03 498.36 603.47 495.83 604.35 493.39 604.99 490.94 605.62 488.6 606.02 486.25 606.41 483.9 606.77 481.55 607.13 479.2 607.46 476.86 607.79 474.79 608.51 472.71 609.24 470.91 610.36 470.91 610.36 470.91 610.36 470.19 610.87 469.56 611.67 468.94 612.46 468.4 613.55 467.87 614.64 467.42 616.01 467.2 616.7 467 617.46 466.8 618.22 466.63 619.05 466.45 619.88 466.29 620.79 466.14 621.69 466.01 622.67 465.88 623.64 465.77 624.69 465.66 625.74 465.57 626.86 465.48 627.98 465.42 629.17 465.35 630.37 465.31 631.63 465.27 632.9 465.25 634.24 465.24 634.91 465.24 635.59 465.23 636.28 465.23 636.99 465.23 636.99 465.23 636.99 465.26 637.66 465.28 638.34 465.3 639.02 465.33 639.69 465.35 640.37 465.37 641.04 465.4 641.72 465.42 642.4 465.44 643.07 465.47 643.75 465.49 644.43 465.51 645.1 465.54 645.78 465.56 646.46 465.58 647.13 465.61 647.81 465.63 648.49 465.65 649.16 465.67 649.84 465.7 650.52 465.72 651.2 465.74 651.87 465.77 652.55 465.79 653.23 465.81 653.91 465.84 654.58 465.86 655.26 465.88 655.94 465.9 656.62 465.93 657.29 465.95 657.97 465.97 658.65 466 659.33 466.02 660.01 466.04 660.68 466.06 661.36 466.09 662.04 466.11 662.72 466.13 663.4 466.15 664.08 466.18 664.76 466.2 665.44 466.22 666.11 466.25 666.79 466.27 667.47 466.29 668.15 466.31 668.83 466.34 669.51 466.36 670.19 466.38 670.87 466.4 671.55 466.43 672.23 466.45 672.91 466.47 673.59 466.49 674.27 466.52 674.95 466.54 675.63 466.56 676.31 466.58 676.99 466.6 677.67 466.63 678.36 466.65 679.04 466.67 679.72 466.69 680.4 466.69 681.44 466.67 682.48 466.65 683.52 466.6 684.55 466.56 685.58 466.49 686.6 466.42 687.62 466.33 688.64 466.24 689.65 466.13 690.66 466.01 691.66 465.88 692.66 465.74 693.66 465.58 694.64 465.42 695.63 465.24 696.61 465.06 697.59 464.86 698.57 464.65 699.54 464.43 700.5 464.2 701.46 463.95 702.42 463.7 703.37 463.43 704.31 463.16 705.26 462.86 706.19 462.57 707.13 462.25 708.06 461.93 708.98 461.59 709.9 461.25 710.82 460.89 711.73 460.89 711.73 460.89 711.73M529.94 597.11Q529.76 596.27 529.63 595.42 529.49 594.57 529.41 593.71 529.32 592.84 529.27 591.95 529.23 591.07 529.23 590.16 529.23 589.26 529.36 588.26 529.48 587.25 529.72 586.15 529.97 585.04 530.33 583.83 530.7 582.61 531.19 581.3 531.67 579.98 532.53 578.64 533.4 577.3 534.64 575.93 535.88 574.56 537.5 573.17 538.31 572.47 539.22 571.76 540.13 571.06 541.13 570.34 542.13 569.63 543.1 568.92 544.07 568.22 545.01 567.51 545.95 566.81 546.86 566.12 547.76 565.42 548.63 564.74 550.38 563.36 551.99 562.01 553.6 560.66 555.08 559.34 556.56 558.03 557.95 556.72 559.34 555.41 560.64 554.11 561.95 552.82 563.17 551.53 564.39 550.24 565.52 548.97 566.65 547.69 567.9 546.49 569.15 545.29 570.53 544.17 571.9 543.05 573.4 542.01 574.9 540.97 576.52 540.01 576.52 540.01 576.52 540.01 577.93 539.18 579.4 538.38 580.87 537.57 582.41 536.79 583.94 536 585.55 535.22 587.15 534.44 588.82 533.67 590.48 532.89 592.21 532.13 593.94 531.37 595.74 530.63 597.54 529.9 599.41 529.21 601.29 528.56 603.24 527.95 605.19 527.35 607.21 526.76 609.2 526.07 611.26 525.37 613.31 524.66 615.43 523.97 617.57 523.4 619.8 522.9 622.02 522.4 624.31 521.92 626.57 521.33 628.89 520.7 631.21 520.08 633.59 519.47 635.96 518.82 638.39 518.19 638.39 518.19 638.39 518.19 640.37 517.69 642.4 517.32 644.45 517.08 646.53 516.94 648.61 516.78 650.71 516.63 652.79 516.42 654.88 516.23 656.97 516.03 659.08 515.88 661.19 515.73 663.32 515.65 665.45 515.56 667.6 515.54 668.68 515.54 669.76 515.55 670.84 515.56 671.92 515.59 671.92 515.59 671.92 515.59 672.98 515.61 673.99 515.72 675 515.83 675.97 516.02 676.94 516.22 677.86 516.5 678.78 516.79 679.66 517.16 680.54 517.53 681.37 517.99 682.2 518.45 682.98 519 683.76 519.55 684.5 520.2 685.24 520.84 685.93 521.58 686.62 522.32 687.25 523.01 687.89 523.7 688.47 524.34 689.05 524.98 689.58 525.56 690.1 526.15 690.57 526.68 691.52 527.74 692.25 528.57 692.98 529.4 693.5 529.99 693.5 529.99 693.5 529.99 694.02 530.59 694.64 531.05 695.25 531.52 695.96 531.86 697.38 532.54 699.17 532.72 700.97 532.9 702.56 533.4 704.15 533.91 705.54 534.74 706.23 535.16 706.93 535.76 707.64 536.36 708.35 537.13 709.07 537.91 709.8 538.88 710.53 539.84 711.28 540.99 712.04 542.13 712.76 543.4 713.13 544.04 713.48 544.7 713.85 545.37 714.2 546.06 714.56 546.76 714.92 547.49 715.27 548.22 715.62 548.98 715.98 549.74 716.32 550.53 716.67 551.32 717 552.14 717 552.14 717 552.14 717.45 553.07 717.88 553.98 718.3 554.9 718.69 555.81 719.09 556.71 719.45 557.61 719.81 558.5 720.15 559.38 720.48 560.27 720.78 561.13 721.08 562 721.35 562.86 721.61 563.72 721.85 564.56 722.09 565.41 722.29 566.24 722.49 567.07 722.66 567.89 722.83 568.7 722.97 569.51 723.11 570.31 723.22 571.11 723.32 571.9 723.4 572.68 723.34 574.28 723.32 575.79 723.31 577.3 723.43 578.69 723.34 580.14 723.23 581.59 723.12 583.04 723.02 584.5 722.91 585.95 722.82 587.41 722.72 588.87 722.64 590.33 722.55 591.79 722.47 593.25 722.39 594.72 722.31 596.19 722.24 597.65 722.17 599.12 722.11 600.59 722.05 602.07 722.05 602.07 722.05 602.07 721.99 603.38 721.91 604.66 721.84 605.93 721.75 607.16 721.66 608.39 721.55 609.58 721.44 610.77 721.31 611.92 721.19 613.06 721.05 614.17 720.91 615.27 720.75 616.33 720.59 617.39 720.41 618.41 720.24 619.43 720.05 620.41 719.86 621.39 719.65 622.32 719.44 623.25 719.22 624.15 718.99 625.04 718.75 625.89 718.51 626.74 718.25 627.54 717.74 629.16 717.15 630.6 716.57 632.04 715.92 633.32 715.28 634.59 714.67 635.81 714.06 637.03 713.49 638.19 712.93 639.35 712.4 640.46 711.87 641.56 711.38 642.61 710.9 643.66 710.45 644.66 710.01 645.65 709.6 646.59 709.19 647.53 708.83 648.42 708.46 649.3 708.14 650.13 707.49 651.79 706.98 653.35 706.46 654.92 706.08 656.39 705.7 657.86 705.44 659.23 705.19 660.61 705.07 661.89 704.95 663.17 704.86 664.43 704.78 665.68 704.72 666.91 704.66 668.14 704.63 669.35 704.6 670.56 704.6 671.74 704.6 671.74 704.6 671.74 704.48 673.33 704.35 674.78 704.22 676.22 704.09 677.51 703.95 678.79 703.8 679.92 703.65 681.06 703.49 682.03 703.17 683.98 702.8 685.31 702.43 686.64 702.03 687.35 701.2 688.77 699.84 690.28 699.17 691.04 698.36 691.82 697.55 692.6 696.6 693.4 695.66 694.21 694.68 695.01 693.69 695.81 692.66 696.61 691.64 697.41 690.56 698.21 689.49 699 688.37 699.79 687.25 700.59 686.15 701.37 685.05 702.15 683.96 702.92 682.87 703.69 681.79 704.45 680.72 705.21 679.65 705.95 677.54 707.44 676.01 708.62 674.48 709.8 673.53 710.69 672.59 711.57 671.47 712.76 670.36 713.95 669.07 715.46 667.77 716.96 666.48 718.55 665.84 719.35 665.19 720.16 664.54 720.98 663.9 721.81 662.61 723.49 661.44 725.03 660.27 726.57 659.21 727.97 658.16 729.37 657.39 730.39 656.63 731.42 656.16 732.07 655.69 732.72 654.87 733.88 654.05 735.04 652.88 736.72 652.28 737.56 651.63 738.42 650.98 739.29 650.27 740.19 649.55 741.09 648.78 742.02 648 742.94 647.16 743.9 647.16 743.9 647.16 743.9 645.98 745.07 644.8 746.12 643.62 747.17 642.45 748.1 641.27 749.02 640.1 749.82 638.92 750.62 637.75 751.29 636.59 751.97 635.43 752.52 634.27 753.07 633.15 753.49 631.06 754.31 629.05 754.52 627.03 754.69 625.03 754.83 623 754.69 620.85 754.09 619.74 753.78 618.64 753.36 617.53 752.94 616.43 752.39 615.33 751.84 614.25 751.18 613.16 750.51 612.08 749.72 612.08 749.72 612.08 749.72 611.34 748.97 610.19 748.69 609.03 748.4 607.46 748.56 605.89 748.72 604.08 749.28 602.27 749.83 600.21 750.76 599.19 751.23 597.96 751.52 596.73 751.81 595.32 751.92 593.9 752.02 592.3 751.95 590.7 751.87 588.92 751.61 588.92 751.61 588.92 751.61 587.14 751.35 585.57 750.94 583.99 750.53 582.6 749.97 581.2 749.41 580 748.7 578.79 748 577.77 747.16 576.74 746.32 575.75 745.56 574.76 744.82 573.8 744.16 572.83 743.5 571.9 742.93 570.97 742.36 570.07 741.89 568.27 740.94 566.53 740.22 564.79 739.51 563.12 739.03 561.44 738.55 559.76 738.16 558.08 737.77 556.41 737.45 556.41 737.45 556.41 737.45 554.14 736.9 552.41 736.36 550.68 735.84 549.49 735.34 547.11 734.35 546.88 733.42 546.65 732.5 546.49 731.61 546.32 730.73 546.2 729.87 546.1 729.02 545.81 727.97 545.53 726.92 545.06 725.68 545.06 725.68 545.06 725.68 544.83 724.84 544.57 723.97 544.3 723.1 543.98 722.19 543.67 721.28 543.32 720.34 542.96 719.39 542.57 718.41 542.17 717.43 541.73 716.41 541.29 715.4 540.81 714.35 540.33 713.3 539.8 712.21 539.27 711.12 538.7 710 538.13 708.88 537.51 707.73 536.9 706.57 536.24 705.39 535.58 704.2 534.88 702.98 534.17 701.75 533.43 700.5 533.05 699.87 532.67 699.23 532.28 698.6 531.89 697.96 531.49 697.31 531.08 696.66 530.68 696.01 530.26 695.35 529.84 694.69 529.42 694.02 528.99 693.35 528.55 692.67 528.11 691.99 527.66 691.31 527.21 690.62 526.75 689.93 526.75 689.93 526.75 689.93 526.03 688.9 525.39 687.85 524.74 686.8 524.15 685.73 523.57 684.67 523.05 683.59 522.53 682.51 522.08 681.42 521.63 680.33 521.24 679.22 520.85 678.12 520.52 676.99 520.2 675.87 519.94 674.73 519.68 673.6 519.49 672.44 519.3 671.29 519.17 670.12 519.04 668.95 518.97 667.76 518.91 666.58 518.91 665.37 518.91 664.17 518.98 662.95 519.05 661.73 519.18 660.5 519.31 659.26 519.51 658 519.71 656.75 519.97 655.48 520.23 654.21 520.56 652.92 520.56 652.92 520.56 652.92 520.8 651.97 521.04 651.05 521.27 650.12 521.51 649.21 521.74 648.31 521.98 647.42 522.21 646.53 522.44 645.66 522.68 644.79 522.91 643.94 523.14 643.08 523.36 642.25 523.59 641.42 523.82 640.6 524.05 639.79 524.27 638.99 524.49 638.19 524.72 637.41 524.94 636.63 525.16 635.88 525.38 635.12 525.6 634.37 525.82 633.63 526.04 632.91 526.47 631.46 526.9 630.09 527.32 628.72 527.74 627.43 527.74 627.43 527.74 627.43 528.07 626.44 528.38 625.49 528.68 624.55 528.96 623.64 529.24 622.74 529.5 621.87 529.75 621 529.98 620.17 530.21 619.35 530.41 618.56 530.62 617.77 530.8 617.02 531.16 615.53 531.41 614.19 531.67 612.85 531.83 611.67 531.98 610.49 532.03 609.47 532.09 608.45 532.04 607.59 531.99 606.73 531.84 606.03 531.55 604.63 531.28 603.37 531.01 602.12 530.77 601 530.54 599.89 530.33 598.91 530.12 597.94 529.94 597.11 529.94 597.11 529.94 597.11M622.76 593.38Q620.56 593.98 618.72 594.7 616.88 595.42 615.42 596.25 613.95 597.09 612.85 598.04 611.75 598.99 611.02 600.06 610.3 601.12 609.66 602.15 609.02 603.18 608.47 604.17 607.92 605.16 607.46 606.11 607 607.06 606.63 607.98 606.26 608.89 605.85 609.73 605.44 610.57 604.99 611.34 604.08 612.88 602.99 614.12 601.92 615.36 600.89 616.59 599.87 617.81 598.9 619.03 598.9 619.03 598.9 619.03 597.88 620.14 597.08 621.22 596.29 622.29 595.71 623.33 595.14 624.37 594.79 625.37 594.44 626.38 594.31 627.34 594.19 628.31 594.29 629.24 594.38 630.17 594.7 631.07 595.02 631.97 595.57 632.84 596.11 633.7 596.88 634.54 596.88 634.54 596.88 634.54 597.44 635.14 597.96 635.72 598.49 636.3 598.98 636.85 599.97 637.97 600.82 638.99 601.68 640.01 602.4 640.94 603.12 641.87 603.71 642.7 604.3 643.54 604.75 644.28 605.21 645.02 605.53 645.66 606.17 646.95 606.29 647.85 606.4 648.74 606.51 649.85 606.63 650.95 606.74 652.26 606.85 653.56 606.97 655.07 607.02 655.83 607.08 656.64 607.14 657.44 607.19 658.3 607.25 659.16 607.32 660.03 607.39 660.89 607.48 661.76 607.56 662.63 607.66 663.5 607.76 664.38 607.88 665.26 607.99 666.14 608.12 667.02 608.25 667.91 608.4 668.8 608.54 669.69 608.7 670.59 608.86 671.48 609.03 672.39 609.03 672.39 609.03 672.39 609.3 673.52 609.58 674.57 609.86 675.63 610.15 676.61 610.45 677.59 610.76 678.5 611.08 679.41 611.41 680.24 611.74 681.08 612.09 681.84 612.44 682.6 612.8 683.28 613.53 684.65 614.33 685.71 615.13 686.78 616 687.54 616.86 688.3 617.8 688.76 619.66 689.67 621.8 689.34 621.8 689.34 621.8 689.34 622.99 689.16 624.15 688.54 625.3 687.93 626.43 686.87 627.56 685.82 628.66 684.33 629.21 683.58 629.76 682.73 630.3 681.87 630.84 680.91 630.84 680.91 630.84 680.91 631.31 680.07 631.61 678.72 631.76 678.05 631.86 677.26 631.96 676.46 632.02 675.53 632.09 674.61 632.22 673.6 632.36 672.59 632.57 671.49 632.78 670.39 633.07 669.21 633.35 668.02 633.71 666.74 633.71 666.74 633.71 666.74 634.04 665.61 634.34 664.52 634.65 663.43 634.93 662.38 635.21 661.34 635.46 660.34 635.72 659.34 635.94 658.38 636.17 657.43 636.38 656.52 636.58 655.62 636.76 654.75 636.94 653.89 637.1 653.08 637.25 652.26 637.38 651.49 637.64 649.95 637.8 648.6 637.95 647.24 638.01 646.07 638.07 644.9 638.03 643.91 637.98 642.92 637.84 642.12 637.69 641.32 637.57 640.54 637.44 639.76 637.32 639 637.1 637.48 636.93 636.05 636.76 634.62 636.65 633.27 636.54 631.92 636.5 630.65 636.45 629.39 636.41 628.1 636.38 626.82 636.36 625.51 636.34 624.2 636.33 622.88 636.33 621.55 636.34 620.2 636.34 620.2 636.34 620.2 636.36 619.06 636.37 617.92 636.38 616.78 636.39 615.63 636.4 614.49 636.42 613.35 636.43 612.21 636.44 611.07 636.46 609.93 636.47 608.79 636.49 607.65 636.5 606.52 636.52 605.38 636.53 604.24 636.55 603.1 636.57 601.96 636.59 600.32 636.45 598.95 636.31 597.59 636.01 596.49 635.7 595.39 635.23 594.56 634.76 593.74 634.12 593.18 633.48 592.62 632.45 592.35 631.43 592.09 630.01 592.11 628.59 592.14 626.78 592.45 624.97 592.77 622.76 593.38 622.76 593.38 622.76 593.38M897.04 418.78Q897.04 418.78 897.04 418.78 898.47 417.55 899.86 416.5 901.24 415.45 902.58 414.59 903.94 413.75 905.28 413.13 906.64 412.53 907.96 412.1 909.29 411.67 910.59 411.41 911.9 411.14 913.2 411.02 914.51 410.9 915.82 410.95 917.16 411.01 918.53 411.23 918.53 411.23 918.53 411.23 919.85 410.33 921.24 409.55 922.64 408.76 924.13 408.08 925.64 407.41 927.26 406.86 928.94 406.32 930.77 405.92 932.69 405.54 934.83 405.29 937.1 405.06 939.68 404.97 942.44 404.9 945.57 404.97 948.94 405.05 952.66 405.27 956.51 405.49 960.11 405.94 963.55 406.37 966.45 406.99 969.12 407.58 971.25 408.38 973.24 409.16 974.79 410.16 976.26 411.12 977.29 412.22 978.23 413.26 978.84 414.51 979.15 415.15 979.39 415.89 979.66 416.66 979.87 417.52 980.09 418.39 980.23 419.34 980.38 420.29 980.46 421.31 980.46 421.31 980.46 421.31 980.4 422.38 980.41 423.35 980.41 424.32 980.49 425.19 980.63 426.94 981.04 428.3 981.45 429.67 982.13 430.64 982.8 431.61 983.74 432.18 984.69 432.75 985.73 433.29 986.77 433.83 987.91 434.34 989.04 434.84 990.27 435.32 991.5 435.79 992.83 436.24 994.15 436.68 995.17 437.29 996.17 437.92 996.87 438.71 997.2 439.63 997.66 440.58 998.13 441.53 998.54 442.57 998.63 443.71 998.71 444.92 998.79 446.13 998.84 447.4 998.88 448.67 998.87 450.01 998.86 451.35 998.82 452.75 998.82 452.75 998.82 452.75 998.72 453.76 998.65 454.74 998.57 455.71 998.51 456.65 998.46 457.59 998.43 458.49 998.4 459.38 998.4 460.23 998.36 461.9 998.44 463.39 998.51 464.88 998.71 466.26 998.91 467.68 999.25 469 999.59 470.35 1000.07 471.58 1000.54 472.82 1001.14 473.93 1001.73 475.03 1002.47 476 1002.47 476 1002.47 476 1003.36 477.14 1004.13 478.32 1004.88 479.51 1005.5 480.75 1006.12 481.99 1006.62 483.27 1007.1 484.56 1007.45 485.89 1007.79 487.23 1008.02 488.63 1008.23 490.06 1008.31 491.59 1008.38 493.14 1008.34 494.72 1008.28 496.26 1008.08 497.72 1007.87 499.13 1007.54 500.56 1007.19 502 1006.73 503.47 1006.25 504.96 1005.64 506.51 1005.03 508.11 1004.28 509.81 1003.51 511.55 1002.63 513.35 1001.72 515.15 1000.7 516.96 999.65 518.76 998.49 520.58 997.31 522.39 996.01 524.23 996.01 524.23 996.01 524.23 995.3 525.24 994.62 526.24 993.93 527.24 993.26 528.24 992.59 529.24 991.94 530.24 991.28 531.24 990.65 532.24 990.01 533.23 989.39 534.22 988.77 535.21 988.17 536.2 987.56 537.19 986.98 538.18 986.39 539.16 985.82 540.14 985.25 541.11 984.7 542.09 984.15 543.06 983.61 544.03 983.07 545 982.55 545.96 982.03 546.93 981.52 547.89 981.01 548.86 980.52 549.82 980.03 550.78 979.55 551.75 979.07 552.71 978.6 553.68 978.13 554.65 977.67 555.61 977.22 556.58 976.77 557.56 976.32 558.53 975.89 559.5 975.45 560.47 975.03 561.45 974.61 562.42 974.2 563.4 973.78 564.37 973.38 565.34 972.97 566.32 972.58 567.29 972.18 568.27 971.8 569.24 971.41 570.21 971.04 571.18 970.66 572.15 970.29 573.12 969.92 574.09 969.56 575.06 969.2 576.03 968.85 576.99 968.5 577.96 968.15 578.92 967.8 579.88 967.47 580.84 967.13 581.8 966.8 582.75 966.46 583.7 966.14 584.65 965.81 585.6 965.49 586.54 965.49 586.54 965.49 586.54 965.07 587.88 964.63 589.16 964.19 590.42 963.75 591.63 963.3 592.82 962.85 593.96 962.4 595.08 961.95 596.15 961.49 597.2 961.04 598.21 960.58 599.21 960.12 600.16 959.66 601.11 959.2 602.01 958.73 602.91 958.27 603.76 957.81 604.62 957.36 605.42 956.9 606.23 956.45 606.99 956 607.74 955.56 608.45 955.13 609.16 954.71 609.82 953.86 611.14 953.09 612.26 952.32 613.38 951.62 614.32 950.92 615.25 950.22 616.18 949.52 617.11 948.8 618.03 948.1 618.96 947.39 619.89 946.69 620.83 945.98 621.76 944.62 623.67 943.23 625.57 941.9 627.53 940.54 629.49 939.23 631.49 937.75 633.46 936.33 635.42 934.73 637.29 933.12 639.16 931.19 641.01 929.23 642.86 927.17 644.47 927.17 644.47 927.17 644.47 925.45 645.79 923.77 646.96 921.97 648.2 920.29 649.23 918.6 650.25 917.08 651.02 915.61 651.74 914.34 652.2 913.09 652.63 911.99 652.84 910.88 653.05 909.91 653.04 908.93 653.03 908.11 652.8 907.29 652.57 906.63 652.12 906.63 652.12 906.63 652.12 905.88 651.6 905.37 650.78 904.87 649.96 904.62 648.84 904.37 647.73 904.38 646.33 904.4 644.94 904.69 643.26 904.99 641.6 905.13 640.13 905.28 638.66 905.25 637.39 905.23 636.12 905.03 635.03 904.83 633.94 904.45 633.04 904.07 632.13 903.6 631.3 903.12 630.48 902.56 629.74 901.99 629 901.33 628.33 900.66 627.67 899.9 627.09 899.9 627.09 899.9 627.09 898.97 626.51 898.02 626.01 897.07 625.51 896.11 625.09 895.14 624.66 894.17 624.31 893.19 623.97 892.2 623.7 891.21 623.42 890.21 623.23 889.21 623.03 888.21 622.92 887.2 622.8 886.19 622.76 885.18 622.72 884.17 622.76 884.17 622.76 884.17 622.76 882.5 622.78 880.97 622.48 879.44 622.17 878.05 621.54 877.35 621.23 876.68 620.83 876.02 620.44 875.38 619.96 874.75 619.48 874.14 618.92 873.54 618.37 872.96 617.73 872.39 617.09 871.84 616.38 871.29 615.66 870.78 614.86 870.26 614.07 869.77 613.19 869.28 612.32 868.82 611.37 868.35 610.41 867.92 609.38 867.48 608.35 867.07 607.25 866.66 606.14 866.27 604.95 865.88 603.77 865.52 602.51 865.52 602.51 865.52 602.51 865.32 601.55 865.11 600.63 864.89 599.7 864.66 598.8 864.42 597.9 864.17 597.04 863.91 596.17 863.64 595.33 863.37 594.49 863.08 593.68 862.79 592.87 862.49 592.08 862.18 591.3 861.86 590.55 861.54 589.79 861.2 589.07 860.86 588.34 860.51 587.65 860.15 586.95 859.78 586.28 859.41 585.61 859.03 584.97 858.64 584.33 858.24 583.72 857.43 582.5 856.58 581.38 855.71 580.27 854.8 579.27 854.8 579.27 854.8 579.27 854.27 578.68 853.81 578.03 853.35 577.38 852.96 576.67 852.57 575.97 852.24 575.2 851.91 574.44 851.65 573.62 851.39 572.8 851.13 572 850.86 571.19 850.59 570.39 850.32 569.59 850.05 568.8 849.78 568.01 849.5 567.23 849.5 567.23 849.5 567.23 849.09 566.43 848.6 565.77 848.11 565.12 847.54 564.61 846.4 563.6 844.96 563.18 843.52 562.77 841.79 562.96 840.06 563.14 838.04 563.92 838.04 563.92 838.04 563.92 836.5 564.52 835.2 565.36 833.9 566.2 832.84 567.28 831.78 568.35 830.96 569.67 830.14 570.99 829.55 572.55 828.96 574.11 828.61 575.91 828.43 576.82 828.31 577.78 828.18 578.74 828.12 579.76 828.05 580.78 828.04 581.87 828.02 582.95 828.07 584.1 828.11 585.24 828.21 586.45 828.3 587.66 828.45 588.92 828.45 588.92 828.45 588.92 828.56 590 828.76 591 828.96 592 829.23 592.91 829.51 593.83 829.86 594.66 830.22 595.5 830.66 596.25 831.1 597 831.32 597.92 831.53 598.85 831.53 599.95 831.53 601.05 831.31 602.33 831.08 603.62 830.64 605.07 830.19 606.53 829.68 608.04 829.17 609.55 828.59 611.11 828 612.67 827.35 614.28 826.71 615.88 825.99 617.54 825.99 617.54 825.99 617.54 825.56 618.6 825.17 619.61 824.78 620.63 824.43 621.6 823.72 623.54 823.18 625.31 822.64 627.08 822.25 628.67 821.87 630.26 821.64 631.67 821.41 633.08 821.34 634.31 821.27 635.55 821.35 636.6 821.44 637.66 821.68 638.54 821.92 639.41 822.32 640.11 822.32 640.11 822.32 640.11 822.71 640.93 823.02 641.8 823.34 642.66 823.58 643.58 823.82 644.49 823.99 645.45 824.16 646.41 824.26 647.41 824.35 648.42 824.37 649.47 824.39 650.53 824.34 651.63 824.29 652.73 824.17 653.87 824.05 655.02 823.86 656.22 823.67 657.41 823.45 658.56 823.23 659.71 822.99 660.81 822.75 661.91 822.48 662.96 822.21 664.01 821.91 665.01 821.32 667.02 820.63 668.82 819.93 670.62 819.13 672.22 818.33 673.81 817.26 675.34 816.19 676.86 814.86 678.31 813.53 679.75 811.92 681.11 810.32 682.47 808.45 683.75 808.45 683.75 808.45 683.75 807.28 685.63 806.2 687.58 805.13 689.53 804.14 691.55 803.16 693.57 802.27 695.67 801.82 696.72 801.4 697.79 800.97 698.85 800.57 699.94 799.77 702.12 799.08 703.95 798.39 705.78 797.82 707.25 797.26 708.73 796.81 709.85 796.37 710.96 796.05 711.72 795.41 713.23 794.63 714.24 793.84 715.25 792.82 715.79 792.82 715.79 792.82 715.79 790.56 717.14 788.28 718.17 786.34 718.75 784.39 719.51 782.36 720.24 780.05 720.6 777.79 720.95 775.7 720.9 773.66 720.84 771.91 720.52 770.1 720.22 768.68 719.65 767.27 719.08 766.27 718.24 765.27 717.4 764.68 716.29 764.09 715.2 763.67 714.1 763.25 713 763.01 711.89 762.76 710.78 762.68 709.66 762.61 708.54 762.7 707.4 762.8 706.26 762.77 705.23 762.74 704.19 762.58 703.26 762.42 702.33 762.14 701.49 761.85 700.67 761.44 699.94 760.61 698.49 760.28 697.17 759.95 695.84 760.11 694.63 760.28 693.42 760.38 692.23 760.48 691.05 760.51 689.89 760.51 689.89 760.51 689.89 760.8 688.47 760.8 687.32 760.8 686.17 760.52 685.3 760.23 684.43 759.66 683.83 759.08 683.24 758.22 682.92 758.22 682.92 758.22 682.92 757.12 682.53 756.28 681.9 755.45 681.27 754.88 680.39 754.31 679.52 754 678.4 753.7 677.28 753.66 675.92 753.62 674.56 753.59 673.29 753.56 672.02 753.54 670.85 753.53 669.68 753.52 668.61 753.52 667.54 753.52 666.56 753.53 665.58 753.6 664.66 753.67 663.74 753.8 662.88 754.07 661.15 754.58 659.64 754.58 659.64 754.58 659.64 755.03 658.7 755.41 657.67 755.8 656.65 756.12 655.55 756.45 654.45 756.71 653.27 756.97 652.09 757.16 650.84 757.36 649.58 757.5 648.25 757.63 646.92 757.7 645.52 757.77 644.11 757.78 642.63 757.79 641.15 757.73 639.59 757.73 639.59 757.73 639.59 757.64 638.14 757.53 636.78 757.41 635.42 757.28 634.15 757.14 632.87 756.97 631.67 756.81 630.48 756.62 629.37 756.43 628.26 756.22 627.23 756.01 626.21 755.77 625.26 755.53 624.32 755.27 623.46 755.01 622.6 754.72 621.82 754.43 621.04 754.12 620.35 753.81 619.66 753.48 619.05 752.8 617.82 752.04 616.93 751.27 616.04 750.41 615.48 749.55 614.92 748.59 614.7 748.59 614.7 748.59 614.7 747.37 614.41 746.29 613.91 745.22 613.4 744.27 612.68 743.33 611.96 742.53 611.03 741.72 610.09 741.05 608.94 740.38 607.79 739.85 606.42 739.58 605.74 739.35 605 739.11 604.26 738.91 603.47 738.71 602.68 738.55 601.84 738.38 600.99 738.25 600.09 738.12 599.19 738.02 598.24 737.93 597.29 737.86 596.28 737.86 596.28 737.86 596.28 737.74 595.36 737.72 594.42 737.71 593.49 737.8 592.54 737.9 591.59 738.1 590.63 738.3 589.67 738.62 588.69 738.94 587.72 739.13 586.78 739.32 585.84 739.38 584.95 739.44 584.05 739.38 583.2 739.31 582.34 739.12 581.53 738.93 580.71 738.95 579.82 738.97 578.92 739.19 577.94 739.41 576.96 739.84 575.9 740.26 574.84 740.9 573.7 740.9 573.7 740.9 573.7 741.4 572.65 741.82 571.55 742.24 570.44 742.57 569.29 742.9 568.13 743.14 566.92 743.39 565.7 743.54 564.44 743.69 563.17 743.76 561.85 743.83 560.53 743.81 559.16 743.79 557.79 743.68 556.36 743.57 554.93 743.38 553.45 743.19 551.97 743.02 550.59 742.84 549.21 742.69 547.93 742.54 546.66 742.41 545.49 742.28 544.31 742.17 543.24 742.05 542.18 741.96 541.21 741.87 540.24 741.8 539.38 741.66 537.66 741.59 536.34 741.53 535.04 741.43 533.7 741.33 532.36 741.2 531 741.08 529.63 740.92 528.24 740.76 526.84 740.57 525.42 740.38 523.99 740.38 522.58 740.38 521.16 740.56 519.75 740.75 518.35 741.11 516.95 741.48 515.55 742.03 514.17 742.57 512.78 743.31 511.39 744.05 510 744.99 508.6 745.92 507.21 747.04 505.82 748.15 504.42 749.45 503.03 749.45 503.03 749.45 503.03 750.92 501.37 752.53 499.8 754.12 498.23 755.84 496.75 757.55 495.28 759.4 493.89 761.23 492.5 763.2 491.19 765.16 489.89 767.25 488.66 769.34 487.43 771.58 486.28 772.69 485.7 773.84 485.13 774.99 484.57 776.17 484.03 777.36 483.48 778.58 482.95 779.8 482.42 781.06 481.9 781.06 481.9 781.06 481.9 782.11 480.91 783.21 479.93 784.29 478.95 785.43 477.98 786.56 477.01 787.74 476.05 788.91 475.08 790.13 474.13 791.34 473.17 792.6 472.23 793.86 471.28 795.17 470.34 796.47 469.4 797.82 468.47 799.17 467.54 800.57 466.62 801.97 465.7 803.32 464.87 804.66 464.05 805.97 463.31 807.27 462.58 808.53 461.95 809.79 461.31 811 460.77 812.22 460.23 813.39 459.79 814.57 459.34 815.7 458.99 817.96 458.29 820.06 457.96 822.16 457.63 823.99 457.56 825.83 457.49 827.4 457.68 828.97 457.87 830.29 458.35 831.61 458.82 832.67 459.58 833.73 460.35 834.73 461.18 835.75 462.02 836.7 462.92 837.66 463.83 838.56 464.8 839.47 465.78 840.32 466.83 841.17 467.88 842.02 468.94 842.88 470 843.75 471.07 844.61 472.15 845.48 473.24 846.35 474.32 847.23 475.42 848.1 476.52 849.14 477.42 850.19 478.32 851.41 479.01 852.63 479.7 854.02 480.19 855.42 480.67 857 480.95 857 480.95 857 480.95 858.59 481.23 860.02 481.67 861.46 482.11 862.73 482.71 864.01 483.31 865.13 484.08 866.25 484.85 867.2 485.78 868.16 486.72 869.07 487.63 869.98 488.55 870.86 489.46 871.73 490.36 872.57 491.25 873.4 492.14 874.19 493.01 874.98 493.89 875.75 494.68 876.52 495.46 877.26 496.17 878.01 496.87 878.73 497.49 879.46 498.1 880.17 498.63 881.58 499.69 883.53 499.74 885.49 499.8 888 498.84 888 498.84 888 498.84 890.52 497.89 891.54 495.35 892.04 494.08 892.15 492.42 892.19 491.59 892.14 490.66 892.09 489.73 891.93 488.7 891.77 487.68 891.57 486.62 891.37 485.57 891.13 484.49 890.89 483.41 890.61 482.3 890.33 481.19 890.02 480.05 889.69 478.91 889.33 477.75 888.97 476.59 888.57 475.4 888.16 474.21 887.72 472.99 887.27 471.77 886.78 470.53 886.29 469.29 885.79 468.05 885.29 466.82 884.79 465.6 884.27 464.37 883.76 463.16 883.24 461.94 882.71 460.74 882.19 459.53 881.66 458.34 881.12 457.14 880.59 455.96 880.05 454.77 879.51 453.59 878.97 452.42 878.43 451.25 877.89 450.08 877.43 448.97 876.97 447.86 876.59 446.81 876.21 445.76 875.91 444.77 875.61 443.78 875.39 442.85 875.17 441.92 875.03 441.05 874.89 440.18 874.83 439.37 874.7 437.74 874.9 436.35 875.08 434.96 875.59 433.59 876.09 432.22 876.91 430.86 877.71 429.49 878.83 428.13 879.93 426.77 881.35 425.42 882.76 424.07 884.44 423 886.11 421.94 888.05 421.1 889.97 420.25 892.21 419.67 893.33 419.38 894.53 419.16 895.74 418.94 897.04 418.78 897.04 418.78 897.04 418.78"></path></svg>