<svg xmlns="http://www.w3.org/2000/svg" data-media-id="WL2UF2CTf9t" style="visibility: visible" viewBox="6.649999618530273 0.32666683197021484 690.8800048828125 698.5022583007812" width="695.8800048828125px" height="703.5022583007812px">
        <defs>
            <linearGradient id="sampleGradient" gradientTransform="rotate(1)" x1="0%" y1="50%" x2="100%" y2="50%" gradientUnits="userSpaceOnUse">
                <stop offset="0%" id="first_color" stop-color="#6b6fff"></stop>
                <stop offset="100%" id="second_color" stop-color="#bc91c1"></stop>
            </linearGradient>
            <filter id="contrast">
                <feComponentTransfer>
                    <feFuncR type="linear" id="filter_R" slope="1.25"></feFuncR>
                    <feFuncG type="linear" id="filter_G" slope="1.25"></feFuncG>
                    <feFuncB type="linear" id="filter_B" slope="1.25"></feFuncB>
                </feComponentTransfer>
            </filter>
        </defs>
    <path fill="#2b577e" d="M67.66 283.63Q66.96 283.55 66.27 283.49 65.58 283.42 64.9 283.37 64.22 283.3 63.56 283.2 62.89 283.1 62.24 282.98 61.59 282.88 60.95 282.81 60.31 282.76 59.68 282.7 58.42 282.58 57.21 282.43 56 282.27 54.84 282.08 53.69 281.88 52.58 281.65 51.48 281.42 50.42 281.15 49.37 280.88 48.37 280.57 47.37 280.26 46.42 279.92 45.48 279.57 44.58 279.19 43.69 278.8 42.85 278.38 42.01 277.96 41.22 277.5 40.44 277.05 39.71 276.55 38.98 276.06 38.3 275.53 37.63 275 37.01 274.44 36.39 273.88 35.83 273.28 35.27 272.68 34.76 272.05 34.25 271.42 33.79 270.76 33.33 270.1 32.93 269.41 32.52 268.72 32.17 267.99 31.82 267.28 31.52 266.53 31.22 265.79 30.96 265.01 30.71 264.25 30.51 263.45 30.31 262.67 30.16 261.85 30.01 261.04 29.91 260.21 29.8 259.38 29.75 258.52 29.7 257.67 29.69 256.79 29.69 255.92 29.73 255.01 29.77 254.12 29.87 253.19 29.91 252.72 29.97 252.25 30.03 251.78 30.1 251.3 30.17 250.83 30.25 250.34 30.34 249.86 30.43 249.36 30.53 248.87 30.63 248.37 30.74 247.87 30.86 247.36 30.86 247.36 30.86 247.36 31.03 246.67 31.19 245.97 31.36 245.28 31.52 244.59 31.69 243.9 31.86 243.21 32.02 242.52 32.19 241.83 32.36 241.14 32.53 240.45 32.7 239.77 32.88 239.08 33.05 238.4 33.22 237.71 33.4 237.03 33.57 236.35 33.75 235.66 33.92 234.98 34.1 234.3 34.28 233.62 34.46 232.94 34.64 232.26 34.82 231.58 35 230.9 35.18 230.22 35.36 229.54 35.55 228.86 35.73 228.19 35.92 227.51 36.1 226.83 36.29 226.16 36.48 225.48 36.67 224.8 36.86 224.13 37.05 223.46 37.24 222.78 37.43 222.11 37.62 221.43 37.82 220.76 38.01 220.09 38.21 219.41 38.4 218.74 38.6 218.07 38.8 217.4 39 216.73 39.2 216.06 39.4 215.39 39.6 214.72 39.8 214.05 40.01 213.38 40.21 212.71 40.41 212.04 40.62 211.37 40.83 210.7 41.03 210.04 41.24 209.37 41.45 208.7 41.66 208.04 41.87 207.37 42.08 206.7 42.29 206.04 42.51 205.37 42.72 204.71 42.93 204.04 42.03 204.57 41.12 205.09 40.21 205.61 39.3 206.13 38.39 206.65 37.47 207.16 36.55 207.67 35.63 208.18 34.71 208.68 33.79 209.18 32.87 209.68 31.95 210.17 31.02 210.66 30.1 211.15 29.17 211.64 28.25 212.12 28.55 211.42 28.85 210.71 29.16 210.01 29.47 209.32 29.78 208.62 30.09 207.92 30.4 207.22 30.71 206.52 31.02 205.82 31.34 205.12 31.66 204.43 31.98 203.73 32.3 203.04 32.62 202.34 32.94 201.65 33.26 200.95 34.02 200.21 34.77 199.45 35.52 198.69 36.27 197.93 37.02 197.15 37.76 196.37 38.5 195.59 39.23 194.79 39.97 193.99 40.7 193.18 41.42 192.36 42.14 191.54 42.86 190.7 43.57 189.86 44.27 189.01 44.98 188.15 45.67 187.28 46.36 186.4 47.05 185.51 47.73 184.6 48.4 183.69 49.07 182.77 49.73 181.84 50.39 180.9 51.04 179.95 51.68 178.99 52.32 178.01 52.95 177.03 53.58 176.04 54.2 175.03 54.81 174.01 55.42 172.99 56.02 171.95 56.62 170.91 57.21 169.85 57.79 168.79 58.37 167.71 58.95 166.63 59.52 165.53 60.08 164.43 60.64 163.32 61.2 162.21 61.75 161.08 62.3 159.95 62.85 158.81 63.39 157.66 63.93 156.51 64.46 155.35 65 154.18 65.53 153.01 66.06 151.84 66.58 150.66 67.11 149.47 67.63 148.28 68.15 147.09 68.68 145.9 69.2 144.7 69.72 143.5 70.24 142.29 70.76 141.09 71.29 139.88 71.81 138.67 72.34 137.47 72.87 136.26 73.45 135.59 74.04 134.92 74.64 134.26 75.23 133.6 75.83 132.93 76.42 132.27 77.02 131.62 77.63 130.97 78.24 130.32 78.84 129.67 79.45 129.02 80.06 128.37 80.68 127.73 81.3 127.09 81.92 126.45 82.54 125.82 82.46 126.69 82.38 127.56 82.3 128.44 82.23 129.31 82.15 130.19 82.08 131.07 82 131.95 81.93 132.83 81.85 133.71 81.77 134.59 81.69 135.47 81.61 136.35 81.53 137.23 81.45 138.11 81.37 138.99 81.29 139.87 81.2 140.74 81.12 141.62 81.03 142.5 80.94 143.38 80.85 144.26 80.76 145.13 80.67 146.01 80.58 146.88 80.49 147.76 80.4 148.63 80.31 149.51 80.21 150.38 80.12 151.25 80.02 152.13 79.93 153 79.83 153.87 80.31 153.41 80.78 152.95 81.25 152.5 81.73 152.04 82.2 151.58 82.68 151.13 83.15 150.67 83.63 150.22 84.1 149.77 84.58 149.32 85.06 148.87 85.53 148.42 86.01 147.97 86.49 147.52 86.96 147.07 87.44 146.63 87.92 146.18 88.39 145.74 88.87 145.3 89.35 144.86 89.82 144.42 90.3 143.98 90.78 143.55 91.26 143.11 91.73 142.68 92.21 142.24 92.69 141.81 93.16 141.38 93.64 140.95 94.12 140.53 94.59 140.1 95.07 139.68 95.55 139.26 96.02 138.84 96.5 138.42 96.97 138 97.44 137.59 97.92 137.18 98.39 136.76 98.86 136.36 99.34 135.95 99.81 135.54 100.28 135.14 100.75 134.74 101.22 134.34 101.69 133.95 102.16 133.55 102.62 133.16 103.09 132.77 103.55 132.39 104.02 132 104.48 131.62 104.94 131.24 105.41 130.87 105.87 130.49 106.33 130.12 106.79 129.75 107.24 129.39 107.7 129.03 108.16 128.67 108.62 128.31 109.09 127.95 109.56 127.6 110.04 127.25 109.91 128.35 109.79 129.45 109.69 130.55 109.67 131.65 109.66 132.75 109.66 133.85 109.66 134.95 109.66 136.05 109.66 137.15 109.66 138.25 109.65 139.35 109.65 140.45 109.65 141.55 109.65 142.65 109.65 143.75 109.65 144.85 109.65 145.95 109.65 147.05 109.65 148.15 109.65 149.25 109.65 150.35 109.64 151.45 109.64 152.55 109.64 153.65 109.64 154.75 109.64 155.85 109.64 156.95 109.64 158.05 109.64 159.15 109.64 160.25 109.64 161.35 109.64 162.45 109.11 162.74 108.59 163.03 108.07 163.32 107.55 163.62 107.03 163.91 106.5 164.21 105.98 164.5 105.47 164.8 104.95 165.1 104.43 165.4 103.91 165.7 103.39 166 102.87 166.3 102.36 166.61 101.84 166.91 101.33 167.22 100.81 167.53 100.29 167.83 99.78 168.14 99.26 168.45 98.75 168.76 98.23 169.07 97.72 169.38 97.2 169.7 96.69 170.01 96.17 170.33 95.66 170.64 95.15 170.96 94.63 171.28 94.12 171.59 93.6 171.91 93.09 172.23 92.58 172.55 92.06 172.87 91.55 173.2 91.03 173.52 90.52 173.84 90 174.17 89.49 174.49 88.98 174.82 88.46 175.14 87.95 175.47 87.43 175.8 86.92 176.13 86.4 176.46 85.89 176.79 85.37 177.12 84.86 177.45 84.34 177.78 83.83 178.11 83.31 178.44 82.8 178.78 82.28 179.11 81.76 179.44 81.25 179.78 80.73 180.11 80.22 180.45 79.7 180.78 79.18 181.12 78.67 181.46 78.15 181.79 77.63 182.13 77.12 182.47 76.6 182.81 76.51 183.59 76.43 184.38 76.34 185.16 76.26 185.95 76.17 186.73 76.09 187.52 76.01 188.3 75.92 189.09 75.84 189.87 75.76 190.66 75.67 191.44 75.59 192.23 75.51 193.01 75.43 193.8 75.34 194.58 75.26 195.37 75.18 196.15 75.1 196.94 75.02 197.72 74.94 198.5 74.86 199.29 74.78 200.07 74.7 200.86 74.62 201.64 74.54 202.43 74.46 203.21 74.38 204 74.3 204.78 74.22 205.56 74.14 206.35 74.06 207.13 73.98 207.92 73.91 208.7 73.83 209.49 73.75 210.27 73.67 211.05 73.6 211.84 73.52 212.62 73.44 213.41 73.37 214.19 73.29 214.98 73.21 215.76 73.14 216.55 73.06 217.33 72.99 218.12 72.91 218.9 72.83 219.68 72.76 220.47 72.68 221.25 72.61 222.04 72.53 222.82 72.46 223.61 72.39 224.39 72.31 225.18 72.24 225.96 72.16 226.75 72.09 227.53 72.02 228.32 71.94 229.1 71.87 229.88 71.8 230.67 71.72 231.45 71.65 232.24 71.58 233.02 71.51 233.75 71.46 234.45 71.4 235.15 71.37 235.82 71.33 236.48 71.31 237.12 71.29 237.75 71.28 238.35 71.27 239.55 71.32 240.63 71.37 241.71 71.48 242.66 71.59 243.61 71.77 244.44 71.94 245.26 72.18 245.97 72.42 246.67 72.72 247.25 73.02 247.83 73.39 248.28 73.75 248.74 74.22 249.13 74.68 249.52 75.25 249.84 75.82 250.17 76.49 250.42 77.16 250.68 77.94 250.87 78.71 251.06 79.58 251.18 80.46 251.3 81.43 251.34 82.4 251.39 83.48 251.37 84.55 251.34 85.72 251.23 85.72 251.23 85.72 251.23 86.7 251.14 87.79 251 88.87 250.86 90.05 250.66 90.64 250.56 91.25 250.45 91.87 250.33 92.5 250.2 93.13 250.07 93.79 249.92 94.45 249.77 95.13 249.6 95.81 249.44 96.51 249.25 97.21 249.06 97.93 248.86 98.66 248.65 99.4 248.43 100.14 248.2 100.91 247.95 101.67 247.7 102.45 247.43 103.23 247.16 104.04 246.86 104.84 246.56 105.66 246.24 106.48 245.92 107.32 245.57 107.32 245.57 107.32 245.57 107.41 246.5 107.49 247.42 107.57 248.35 107.65 249.28 107.74 250.2 107.82 251.13 107.9 252.06 107.99 252.99 108.07 253.92 108.15 254.85 108.24 255.78 108.32 256.71 108.41 257.64 108.49 258.57 108.58 259.51 108.66 260.44 108.75 261.37 108.83 262.31 108.92 263.24 109 264.17 109.09 265.11 109.17 266.04 109.26 266.98 109.35 267.91 109.43 268.85 109.52 269.79 109.6 270.72 109.69 271.66 109.78 272.6 109.87 273.53 109.95 274.47 109.93 275.43 109.51 275.81 108.98 276.2 108.44 276.58 107.88 276.94 107.33 277.3 106.76 277.64 106.19 277.97 105.6 278.29 105.01 278.6 104.41 278.89 103.81 279.17 103.2 279.44 102.58 279.69 101.95 279.93 101.32 280.16 100.67 280.38 100.03 280.58 99.38 280.77 98.72 280.95 98.06 281.12 97.4 281.28 96.72 281.43 96.05 281.57 95.36 281.7 94.68 281.83 93.99 281.94 93.29 282.06 92.59 282.16 91.89 282.26 91.18 282.36 90.47 282.46 89.75 282.56 89.02 282.67 88.3 282.77 87.58 282.89 86.87 283.01 86.15 283.13 85.44 283.24 84.72 283.36 84.01 283.46 83.3 283.56 82.6 283.65 81.89 283.72 81.2 283.75 80.5 283.78 79.8 283.79 79.11 283.8 78.42 283.79 77.74 283.79 77.05 283.78 76.37 283.76 75.69 283.74 75.01 283.74 74.33 283.76 73.65 283.79 72.97 283.81 72.3 283.82 71.63 283.83 70.96 283.84 70.29 283.81 69.63 283.77 68.97 283.73 68.31 283.7 67.66 283.63 67.66 283.63 67.66 283.63 67.66 283.63 67.66 283.63M172.11 296.92Q170.8 296.72 169.47 296.57 168.8 296.5 168.13 296.44 167.46 296.31 166.78 296.17 166.1 296.02 165.41 295.86 164.72 295.7 164.03 295.53 163.34 295.36 162.64 295.18 161.94 294.99 161.23 294.8 160.52 294.6 159.81 294.39 159.1 294.18 158.38 293.96 157.66 293.73 156.93 293.5 156.21 293.26 155.47 293.01 154.74 292.76 154 292.5 153.26 292.23 152.52 291.95 151.78 291.65 151.03 291.32 150.3 290.97 149.55 290.59 148.81 290.22 148.06 289.83 147.31 289.44 146.55 289.04 145.8 288.65 145.03 288.26 144.26 287.89 143.48 287.51 142.7 287.15 141.91 286.78 141.12 286.41 140.32 286.04 139.52 285.66 138.71 285.28 137.91 284.9 137.1 284.51 136.28 284.12 135.46 283.72 134.64 283.33 133.82 282.93 132.99 282.53 132.15 282.13 131.32 281.74 130.47 281.35 129.63 280.97 128.78 280.58 127.93 280.22 127.07 279.86 126.21 279.51 125.34 279.18 124.47 278.87 123.6 278.56 123.6 278.56 123.6 278.56 123.62 277.41 123.64 276.28 123.65 275.15 123.67 274.03 123.69 272.92 123.71 271.82 123.74 270.73 123.76 269.65 123.78 268.58 123.8 267.52 123.82 266.46 123.84 265.42 123.87 264.38 123.89 263.36 123.92 262.34 123.94 261.33 123.96 260.33 123.99 259.34 124.02 258.36 124.04 257.39 124.07 256.43 124.1 255.48 124.12 254.53 124.15 253.6 124.21 251.74 124.27 249.95 124.34 248.16 124.44 246.45 124.54 244.74 124.64 243.1 124.75 241.46 124.85 239.89 124.96 238.33 125.07 236.83 125.18 235.34 125.29 233.92 125.4 232.5 125.51 231.16 125.62 229.81 125.74 228.54 125.85 227.27 125.96 226.07 126.08 224.87 126.19 223.75 126.19 223.75 126.19 223.75 127.13 223.38 128.08 223.01 129.02 222.64 129.97 222.27 130.91 221.9 131.85 221.54 132.8 221.18 133.74 220.82 134.69 220.45 135.63 220.1 136.57 219.74 137.51 219.38 138.46 219.02 139.4 218.67 140.34 218.31 141.28 217.96 141.81 218.74 142.34 219.53 142.86 220.32 143.39 221.12 143.92 221.92 144.45 222.72 144.98 223.53 145.51 224.34 146.03 225.15 146.56 225.97 147.09 226.79 147.62 227.62 148.15 228.45 148.68 229.28 149.21 230.12 149.74 230.96 150.27 231.8 150.8 232.65 151.33 233.51 151.86 234.37 152.39 235.23 152.92 236.09 153.45 236.97 153.98 237.84 154.51 238.72 155.05 239.6 155.58 240.49 156.11 241.38 156.64 242.27 157.17 243.17 157.7 244.07 158.23 244.98 159.33 245.56 160.45 246.09 161.58 246.62 162.74 247.09 163.9 247.57 165.09 247.98 166.28 248.4 167.5 248.76 168.73 249.12 169.98 249.42 171.23 249.73 172.52 249.97 173.81 250.21 175.12 250.39 175.78 250.48 176.45 250.55 177.12 250.62 177.79 250.68 177.79 250.68 177.79 250.68 178.55 250.74 179.26 250.78 179.98 250.82 180.65 250.84 182 250.87 183.18 250.8 184.37 250.73 185.38 250.56 186.4 250.39 187.25 250.11 187.25 250.11 187.25 250.11 187.63 248.28 187.81 245.74 187.9 244.46 187.94 243.01 187.97 241.55 187.96 239.92 187.96 239.92 187.96 239.92 187.95 238.51 187.85 237.22 187.75 235.93 187.56 234.76 187.18 232.42 186.44 230.54 186.07 229.61 185.48 228.58 184.88 227.56 184.07 226.46 183.25 225.36 182.21 224.18 181.69 223.6 181.11 222.99 180.54 222.39 179.9 221.77 179.27 221.16 178.52 220.46 177.78 219.77 176.91 219 176.05 218.23 175.07 217.39 174.08 216.56 172.99 215.66 171.89 214.76 170.68 213.8 170.07 213.32 169.43 212.82 168.8 212.33 168.13 211.82 167.47 211.32 166.78 210.8 166.08 210.28 165.36 209.75 164.64 209.22 163.88 208.68 163.13 208.14 162.35 207.59 162.35 207.59 162.35 207.59 161.37 206.85 160.42 206.12 159.47 205.4 158.55 204.7 157.63 204 156.73 203.31 155.84 202.63 154.98 201.97 154.12 201.31 153.28 200.66 152.45 200.02 151.64 199.39 150.84 198.77 150.06 198.15 149.29 197.55 148.54 196.95 147.8 196.36 147.08 195.77 146.37 195.2 145.68 194.63 144.99 194.06 144.33 193.51 143.68 192.95 143.05 192.41 142.42 191.87 141.82 191.34 141.22 190.81 140.65 190.29 140.08 189.77 139.54 189.26 139 188.75 138.49 188.24 137.47 187.24 136.52 186.23 135.57 185.22 134.69 184.2 133.82 183.18 133.02 182.15 132.21 181.12 131.48 180.07 130.75 179.03 130.09 177.96 129.43 176.9 128.85 175.82 128.26 174.74 127.75 173.64 127.24 172.54 126.79 171.42 126.35 170.3 125.97 169.11 125.58 167.92 125.25 166.66 124.92 165.41 124.64 164.08 124.37 162.75 124.15 161.35 123.93 159.95 123.76 158.48 123.6 157.01 123.49 155.47 123.38 153.93 123.32 152.31 123.27 150.7 123.27 149.01 123.27 149.01 123.27 149.01 123.27 147.13 123.33 145.28 123.39 143.43 123.51 141.61 123.62 139.79 123.8 138 123.98 136.2 124.22 134.43 124.46 132.66 124.76 130.91 125.05 129.16 125.41 127.43 125.76 125.69 126.18 123.98 126.59 122.26 127.06 120.56 127.53 118.85 128.06 117.16 128.58 115.45 129.16 113.76 129.74 112.06 130.37 110.36 131.01 108.65 131.69 106.94 132.37 105.21 133.11 103.48 133.84 101.73 134.63 99.98 135.41 98.2 136.24 96.42 137.07 94.61 137.95 92.79 138.83 90.95 139.74 89.15 140.66 87.32 141.61 85.53 142.56 83.72 143.56 81.95 144.55 80.17 145.59 78.44 146.63 76.7 147.71 75 148.25 74.16 148.81 73.32 149.36 72.49 149.93 71.66 150.49 70.84 151.07 70.03 151.65 69.22 152.24 68.43 152.83 67.63 153.44 66.85 154.04 66.07 154.66 65.31 155.28 64.54 155.91 63.8 156.54 63.05 157.18 62.31 157.83 61.58 158.49 60.86 159.14 60.15 159.82 59.45 160.49 58.75 161.17 58.06 161.86 57.38 162.55 56.72 163.25 56.05 163.97 55.4 164.68 54.76 165.4 54.13 166.13 53.5 166.87 52.88 167.61 52.27 168.36 51.68 169.12 51.09 169.89 50.52 170.66 49.95 171.43 49.39 172.22 48.83 173.02 48.3 173.81 47.77 174.62 47.25 175.43 46.74 176.26 46.24 177.08 45.74 177.92 45.27 177.92 45.27 177.92 45.27 178.62 44.88 179.31 44.51 180.01 44.14 180.71 43.78 181.42 43.42 182.13 43.09 182.85 42.76 183.57 42.44 184.29 42.13 185.01 41.83 185.74 41.53 186.47 41.25 187.21 40.97 187.95 40.72 188.7 40.46 189.44 40.22 190.19 39.98 190.95 39.76 191.71 39.54 192.47 39.34 193.24 39.15 194.01 38.97 194.78 38.79 195.56 38.63 196.34 38.47 197.12 38.33 197.91 38.2 198.7 38.08 199.5 37.96 200.3 37.87 201.1 37.77 201.91 37.7 202.72 37.62 203.52 37.57 204.33 37.52 205.12 37.49 205.91 37.46 206.7 37.46 207.49 37.45 208.26 37.47 209.04 37.48 209.81 37.52 210.58 37.56 211.34 37.62 212.1 37.69 212.86 37.77 213.61 37.86 214.35 37.96 215.1 38.07 215.84 38.2 216.57 38.33 217.3 38.49 218.02 38.64 218.74 38.82 219.46 39 220.17 39.2 220.88 39.4 221.57 39.63 222.27 39.86 222.96 40.11 223.65 40.37 224.33 40.64 225 40.93 225.67 41.23 225.67 41.23 225.67 41.23 225.75 43.36 225.82 45.53 225.88 47.7 225.94 49.9 225.99 52.11 226.04 54.34 226.09 56.58 226.12 58.86 226.16 61.13 226.18 63.43 226.21 65.74 226.22 68.08 226.23 70.42 226.22 72.79 226.22 75.16 226.19 77.57 226.16 79.97 226.12 82.41 226.07 84.84 226 87.31 225.93 89.78 225.85 92.28 225.76 94.78 225.67 97.31 225.57 99.84 225.46 102.41 225.35 104.97 225.22 107.57 225.1 110.16 224.97 112.78 224.9 114.1 224.83 115.42 224.77 116.73 224.69 118.06 224.69 118.06 224.69 118.06 223.81 118.54 222.92 119.02 222.04 119.5 221.15 119.98 220.27 120.46 219.38 120.95 218.5 121.43 217.61 121.92 216.73 122.41 215.85 122.9 214.97 123.39 214.08 123.88 213.2 124.37 212.32 124.86 211.44 125.36 210.57 125.85 209.99 124.86 209.41 123.88 208.82 122.89 208.24 121.91 207.66 120.94 207.08 119.97 206.5 119 205.91 118.04 205.33 117.08 204.74 116.12 204.16 115.17 203.57 114.22 202.99 113.27 202.4 112.33 201.82 111.39 201.23 110.46 200.64 109.53 200.06 108.6 199.47 107.68 198.88 106.76 198.29 105.85 197.7 104.94 197.11 104.03 196.53 103.13 195.94 102.23 195.35 101.33 194.76 100.44 194.17 99.55 193.58 98.67 192.99 97.79 192.39 96.91 191.8 96.04 190.92 95.91 189.94 95.89 188.96 95.87 187.88 95.96 186.8 96.05 185.63 96.25 184.46 96.46 183.19 96.78 181.92 97.1 180.56 97.53 179.88 97.75 179.18 97.99 178.48 98.24 177.75 98.51 177.03 98.79 176.28 99.09 175.53 99.39 174.76 99.73 173.99 100.06 173.19 100.42 172.4 100.78 171.59 101.17 171.59 101.17 171.59 101.17 171.06 101.42 170.28 101.85 169.5 102.29 168.47 102.9 167.43 103.52 166.14 104.33 165.49 104.73 164.78 105.17 164.08 105.62 163.3 106.12 163.3 106.12 163.3 106.12 162.95 107.65 162.81 109.86 162.74 110.96 162.72 112.24 162.71 113.51 162.74 114.95 162.74 114.95 162.74 114.95 162.77 116.5 162.94 117.9 163.1 119.3 163.39 120.54 163.67 121.78 164.09 122.88 164.51 123.97 165.05 124.92 165.59 125.87 166.34 126.8 167.09 127.73 168.05 128.65 169 129.58 170.16 130.49 170.75 130.96 171.38 131.42 172.01 131.88 172.7 132.34 173.39 132.81 174.17 133.32 174.96 133.84 175.85 134.4 176.75 134.97 177.74 135.58 178.74 136.2 179.83 136.88 180.93 137.56 182.14 138.3 182.74 138.67 183.37 139.05 183.99 139.44 184.65 139.85 185.3 140.25 185.98 140.68 186.66 141.1 187.37 141.54 188.07 141.99 188.8 142.45 189.54 142.91 190.3 143.39 190.3 143.39 190.3 143.39 191.41 144.05 192.49 144.71 193.56 145.38 194.61 146.05 195.65 146.72 196.66 147.4 197.68 148.08 198.65 148.76 199.63 149.45 200.57 150.13 201.52 150.82 202.43 151.51 203.33 152.2 204.21 152.89 205.08 153.58 205.92 154.27 206.77 154.97 207.57 155.65 208.38 156.35 209.15 157.03 209.92 157.72 210.66 158.41 211.4 159.1 212.1 159.78 212.8 160.46 213.47 161.14 214.14 161.81 214.77 162.49 215.4 163.16 216 163.82 216.6 164.49 217.17 165.15 218.3 166.47 219.34 167.81 220.38 169.17 221.34 170.54 222.3 171.93 223.18 173.33 224.05 174.74 224.84 176.17 225.63 177.61 226.34 179.06 227.04 180.52 227.66 182 228.28 183.48 228.82 184.98 229.35 186.48 229.81 188 230.26 189.52 230.65 191.14 231.05 192.75 231.39 194.46 231.73 196.17 232.01 197.96 232.29 199.76 232.52 201.65 232.74 203.54 232.91 205.52 233.08 207.5 233.19 209.58 233.31 211.65 233.34 213.81 233.29 215.98 233.29 218.23 233.29 218.23 233.29 218.23 233.29 219.59 233.3 220.92 233.32 222.26 233.35 223.58 233.29 226.22 233.16 228.8 233.03 231.37 232.83 233.88 232.64 236.38 232.38 238.81 232.12 241.24 231.8 243.6 231.47 245.95 231.08 248.23 230.7 250.51 230.24 252.71 229.79 254.9 229.27 257.02 228.76 259.13 228.18 261.16 227.6 263.18 226.95 265.12 226.31 267.05 225.6 268.89 224.9 270.72 224.13 272.46 223.36 274.18 222.53 275.81 221.7 277.43 220.8 278.95 219.91 280.45 218.96 281.85 218 283.23 216.98 284.52 215.97 285.79 214.9 286.94 213.84 288.08 212.73 289.11 211.62 290.13 210.46 291.04 209.88 291.49 209.29 291.92 208.69 292.34 208.09 292.74 207.49 293.14 206.87 293.51 206.26 293.88 205.63 294.22 205 294.56 204.36 294.88 203.72 295.19 203.07 295.47 202.42 295.75 201.76 296.01 201.1 296.26 200.42 296.49 199.75 296.72 199.06 296.93 198.37 297.15 197.67 297.34 196.96 297.54 196.25 297.73 195.53 297.91 194.8 298.07 194.07 298.23 193.33 298.36 192.59 298.49 191.84 298.59 191.09 298.67 190.33 298.72 189.57 298.77 188.8 298.79 188.02 298.81 187.24 298.81 186.46 298.81 185.66 298.79 184.86 298.81 184.04 298.83 183.21 298.85 182.38 298.84 181.55 298.84 180.7 298.82 179.85 298.79 178.99 298.75 178.15 298.62 177.3 298.44 176.46 298.26 175.6 297.99 174.73 297.71 173.86 297.44 172.99 297.17 172.11 296.92 172.11 296.92 172.11 296.92 172.11 296.92 172.11 296.92M304.65 326.7Q303.93 326.51 303.21 326.34 302.5 326.16 301.79 326.02 301.08 325.87 300.37 325.72 299.66 325.57 298.96 325.4 298.26 325.23 297.58 325.04 296.89 324.85 296.22 324.64 294.87 324.21 293.6 323.61 292.34 322.94 291.12 322.19 289.91 321.45 288.75 320.63 287.58 319.82 286.47 318.93 285.35 318.05 284.28 317.1 283.22 316.15 282.19 315.14 281.17 314.13 280.2 313.07 279.22 312 278.3 310.88 277.37 309.77 276.48 308.6 275.6 307.43 274.76 306.2 273.93 304.98 273.14 303.69 272.36 302.4 271.62 301.04 270.89 299.68 270.2 298.25 269.52 296.83 268.88 295.33 268.24 293.83 267.65 292.27 267.05 290.7 266.51 289.07 265.96 287.43 265.46 285.73 264.96 284.03 264.51 282.26 264.06 280.5 263.65 278.66 263.24 276.82 262.88 274.92 262.52 273.02 262.2 271.04 261.89 269.07 261.62 267.03 261.34 264.99 261.11 262.88 260.88 260.77 260.7 258.58 260.51 256.4 260.36 254.15 260.22 251.89 260.11 249.57 260.06 248.4 260.02 247.22 259.97 246.04 259.94 244.84 259.91 243.64 259.89 242.42 259.86 241.2 259.85 239.96 259.84 238.72 259.83 237.47 259.83 236.21 259.84 234.93 259.84 234.93 259.84 234.93 259.85 233.19 259.86 231.45 259.86 229.71 259.87 227.97 259.88 226.22 259.88 224.48 259.89 222.74 259.89 221 259.9 219.26 259.9 217.51 259.91 215.77 259.91 214.03 259.92 212.29 259.92 210.55 259.92 208.8 259.92 207.06 259.93 205.32 259.93 203.58 259.93 201.83 259.93 200.09 259.94 198.35 259.94 196.61 259.94 194.86 259.94 193.12 259.94 191.38 259.94 189.64 259.94 187.89 259.94 186.15 259.94 184.41 259.94 182.66 259.94 180.92 259.94 179.18 259.94 177.43 259.94 175.69 259.94 173.95 259.94 172.2 259.94 170.46 259.94 168.71 259.94 166.97 259.93 165.23 259.93 163.48 259.93 161.74 259.93 159.99 259.93 158.25 259.93 156.5 259.93 154.76 259.92 153.01 259.92 151.27 259.92 149.52 259.92 147.78 259.91 146.03 259.91 144.29 259.91 142.54 259.91 140.8 259.9 139.05 259.9 137.3 259.9 135.56 259.89 133.81 259.89 132.07 259.89 130.32 259.88 128.57 259.88 126.83 259.88 125.08 259.87 123.33 258.75 123.36 257.62 123.39 256.5 123.42 255.37 123.45 254.25 123.48 253.12 123.51 252 123.53 250.87 123.56 249.75 123.58 248.62 123.6 247.5 123.63 246.37 123.64 245.25 123.66 244.12 123.68 243 123.7 241.87 123.71 241.87 121.66 241.87 119.61 241.87 117.55 241.87 115.5 241.87 113.45 241.87 111.4 241.87 109.35 241.87 107.29 241.87 105.24 241.87 103.19 241.87 101.14 241.87 99.09 241.87 97.04 241.87 94.98 241.87 92.93 241.87 90.88 242.59 89.69 243.31 88.5 244.03 87.31 244.75 86.11 245.47 84.91 246.19 83.71 246.9 82.5 247.62 81.29 248.34 80.07 249.05 78.85 249.77 77.62 250.48 76.39 251.2 75.16 251.91 73.92 252.62 72.67 253.34 71.42 254.05 70.17 254.76 68.91 255.47 67.65 256.17 66.38 256.88 65.1 257.59 63.82 258.29 62.53 259 61.24 259.7 59.94 260.41 58.63 261.11 57.32 261.81 56.01 262.51 54.68 263.21 53.36 263.9 52.02 264.6 50.68 265.3 49.34 265.99 47.99 266.68 46.63 267.38 45.27 268.07 43.9 268.76 42.53 269.45 41.16 270.14 39.78 270.83 38.39 271.51 37 272.2 35.61 272.89 34.21 273.57 32.81 274.26 31.41 274.94 30 275.62 28.59 276.31 27.18 276.99 25.76 277.67 24.35 278.35 22.93 279.04 21.51 279.72 20.09 280.4 18.66 281.08 17.24 281.76 15.82 282.44 14.39 283.12 12.97 283.8 11.55 284.48 10.12 285.16 8.7 285.85 7.28 286.53 5.87 287.45 5.92 288.36 5.98 289.28 6.03 290.2 6.09 291.12 6.16 292.04 6.22 292.96 6.29 293.88 6.36 294.8 6.43 295.73 6.51 296.65 6.59 297.57 6.68 298.5 6.76 299.42 6.85 300.35 6.94 301.27 7.03 301.31 8.82 301.36 10.62 301.4 12.41 301.44 14.21 301.49 16 301.53 17.8 301.58 19.59 301.62 21.39 301.66 23.18 301.71 24.97 301.75 26.77 301.8 28.56 301.84 30.35 301.88 32.14 301.93 33.92 301.97 35.71 302.01 37.49 302.06 39.28 302.1 41.06 302.14 42.84 302.18 44.62 302.22 46.4 302.26 48.17 302.3 49.95 302.34 51.72 302.38 53.49 302.42 55.26 302.46 57.03 302.49 58.8 302.53 60.57 302.57 62.33 302.6 64.1 303.28 64.03 303.96 63.97 304.64 63.91 305.32 63.85 306.01 63.79 306.69 63.73 307.37 63.68 308.05 63.62 308.74 63.56 309.42 63.51 310.11 63.46 310.79 63.4 311.48 63.35 312.17 63.3 312.86 63.25 313.54 63.2 314.23 63.15 314.92 63.1 315.61 63.06 316.3 63.01 317 62.97 317.69 62.92 318.38 62.88 319.08 62.84 319.77 62.8 320.47 62.75 321.16 62.72 321.86 62.68 322.56 62.64 323.26 62.6 323.96 62.57 324.66 62.53 325.37 62.5 326.07 62.47 326.78 62.43 327.48 62.4 328.19 62.37 328.9 62.34 329.61 62.32 330.32 62.29 331.04 62.26 331.75 62.24 332.47 62.21 333.19 62.19 333.91 62.17 334.63 62.15 335.35 62.13 336.07 62.11 336.8 62.09 337.53 62.07 338.26 62.06 338.99 62.04 339.72 62.03 340.46 62.01 341.19 62 341.93 61.99 342.67 61.98 343.41 61.97 344.15 61.96 344.9 61.95 345.64 61.95 346.38 61.94 347.11 61.94 347.84 61.93 347.96 63.83 348.07 65.73 348.17 67.63 348.19 69.53 348.19 71.42 348.19 73.32 348.2 75.22 348.2 77.12 348.2 79.02 348.2 80.91 348.2 82.81 348.2 84.71 348.2 86.61 348.2 88.51 348.2 90.4 348.2 92.3 348.2 94.2 348.2 96.1 348.2 98 348.2 99.89 348.2 101.79 348.2 103.69 348.2 105.59 348.2 107.49 348.2 109.38 348.2 111.28 348.2 113.18 348.21 115.08 348.21 116.98 348.21 118.87 348.21 120.77 348.21 122.67 347.5 122.65 346.8 122.64 346.09 122.62 345.39 122.61 344.68 122.59 343.97 122.58 343.27 122.56 342.56 122.55 341.86 122.54 341.15 122.53 340.44 122.51 339.74 122.5 339.03 122.49 338.33 122.48 337.62 122.47 336.92 122.46 336.21 122.45 335.5 122.44 334.8 122.44 334.09 122.43 333.39 122.42 332.68 122.42 331.98 122.41 331.28 122.4 330.57 122.4 329.87 122.39 329.17 122.39 328.46 122.39 327.76 122.38 327.06 122.38 326.36 122.38 325.65 122.38 324.95 122.37 324.25 122.37 323.55 122.37 322.85 122.37 322.15 122.37 321.45 122.37 320.75 122.38 320.06 122.38 319.36 122.38 318.66 122.38 317.96 122.39 317.27 122.39 316.57 122.39 315.88 122.4 315.18 122.4 314.49 122.41 313.79 122.42 313.1 122.42 312.4 122.43 311.71 122.44 311.02 122.44 310.32 122.45 309.63 122.46 308.94 122.47 308.25 122.48 307.56 122.49 306.87 122.5 306.18 122.51 305.49 122.52 304.8 122.53 304.11 122.55 303.42 122.56 303.43 124.14 303.45 125.73 303.46 127.31 303.47 128.9 303.48 130.48 303.49 132.07 303.51 133.65 303.52 135.23 303.53 136.82 303.54 138.4 303.55 139.98 303.56 141.56 303.57 143.15 303.58 144.73 303.58 146.31 303.59 147.89 303.6 149.47 303.61 151.05 303.62 152.63 303.62 154.21 303.63 155.79 303.64 157.38 303.64 158.96 303.65 160.54 303.66 162.11 303.66 163.69 303.67 165.27 303.68 166.85 303.68 168.43 303.69 170.01 303.69 171.59 303.7 173.17 303.7 174.75 303.7 176.33 303.71 177.9 303.71 179.48 303.72 181.06 303.72 182.64 303.72 184.22 303.73 185.79 303.73 187.37 303.73 188.95 303.74 190.53 303.74 192.1 303.74 193.68 303.74 195.26 303.75 196.83 303.75 198.41 303.75 199.99 303.75 201.56 303.75 203.14 303.75 204.72 303.76 206.29 303.76 207.87 303.76 209.44 303.76 211.02 303.76 212.6 303.76 214.17 303.76 215.75 303.76 217.32 303.76 218.9 303.76 220.47 303.76 222.05 303.76 223.62 303.76 225.09 303.77 226.5 303.79 227.91 303.81 229.26 303.84 230.61 303.88 231.9 303.92 233.19 303.98 234.42 304.09 236.88 304.25 239.11 304.42 241.33 304.64 243.32 304.86 245.32 305.13 247.07 305.41 248.83 305.74 250.36 306.07 251.88 306.46 253.17 306.85 254.46 307.29 255.52 307.74 256.58 308.29 257.53 308.84 258.49 309.49 259.34 310.15 260.19 310.91 260.94 311.67 261.69 312.54 262.33 313.41 262.98 314.38 263.52 315.36 264.06 316.44 264.5 317.51 264.93 318.7 265.26 319.88 265.59 321.18 265.81 321.18 265.81 321.18 265.81 322.27 266 323.47 266.13 324.67 266.26 325.98 266.34 326.63 266.37 327.31 266.4 327.99 266.42 328.7 266.43 329.41 266.43 330.14 266.43 330.88 266.42 331.64 266.39 332.4 266.37 333.19 266.33 333.98 266.29 334.8 266.23 335.61 266.18 336.46 266.1 337.3 266.03 338.17 265.94 339.04 265.85 339.94 265.74 340.83 265.63 341.76 265.5 342.68 265.37 343.63 265.23 344.58 265.08 345.56 264.91 345.56 264.91 345.56 264.91 345.66 266.56 345.76 268.21 345.86 269.86 345.96 271.51 346.06 273.16 346.16 274.81 346.26 276.46 346.36 278.12 346.45 279.77 346.55 281.42 346.65 283.07 346.75 284.72 346.85 286.38 346.95 288.03 347.05 289.68 347.15 291.33 347.25 292.99 347.35 294.64 347.45 296.29 347.55 297.95 347.65 299.6 347.74 301.26 347.84 302.91 347.94 304.56 348.04 306.22 348.14 307.87 348.24 309.53 348.34 311.18 348.44 312.84 348.54 314.5 348.64 316.15 348.62 317.79 348.14 318.26 347.53 318.7 346.93 319.13 346.32 319.55 345.7 319.96 345.08 320.35 344.46 320.73 343.83 321.1 343.2 321.46 342.56 321.8 341.92 322.14 341.27 322.46 340.62 322.78 339.96 323.08 339.3 323.37 338.64 323.65 337.97 323.93 337.29 324.19 336.62 324.45 335.93 324.69 335.25 324.94 334.55 325.17 333.86 325.4 333.16 325.62 332.45 325.84 331.74 326.04 331.02 326.25 330.3 326.45 329.58 326.64 328.84 326.83 328.11 327.02 327.36 327.2 326.62 327.39 325.88 327.56 325.13 327.73 324.39 327.88 323.65 328.03 322.92 328.16 322.18 328.29 321.45 328.39 320.72 328.48 320 328.54 319.28 328.59 318.56 328.62 317.84 328.65 317.13 328.66 316.42 328.67 315.71 328.65 315 328.63 314.29 328.59 313.59 328.54 312.9 328.47 312.2 328.39 311.51 328.3 310.81 328.21 310.12 328.09 309.43 327.98 308.75 327.85 308.06 327.71 307.38 327.52 306.69 327.29 306.01 327.09 305.33 326.89 304.65 326.7 304.65 326.7 304.65 326.7 304.65 326.7 304.65 326.7M403.24 349.74Q401.94 349.53 400.61 349.39 399.94 349.32 399.27 349.27 398.6 349.12 397.92 348.95 397.24 348.77 396.56 348.58 395.88 348.36 395.2 348.08 394.53 347.81 393.84 347.52 393.16 347.23 392.46 346.92 391.77 346.61 391.08 346.28 390.38 345.95 389.68 345.6 388.98 345.23 388.27 344.85 387.57 344.46 386.86 344.06 386.14 343.66 385.43 343.23 384.71 342.82 383.98 342.38 383.25 341.96 382.51 341.55 381.77 341.14 381.02 340.73 380.27 340.33 379.51 339.91 378.75 339.48 377.99 339.04 377.22 338.59 376.46 338.12 375.69 337.63 374.92 337.13 374.15 336.61 373.37 336.07 372.59 335.54 371.81 334.97 371.03 334.41 370.24 333.83 369.46 333.25 368.67 332.64 367.87 332.04 367.08 331.41 366.28 330.79 365.47 330.16 364.67 329.52 363.85 328.88 363.04 328.24 362.22 327.58 361.4 326.93 360.57 326.26 359.74 325.6 358.9 324.92 358.07 324.24 357.23 323.55 356.39 322.86 355.54 322.15 355.54 322.15 355.54 322.15 355.59 320.26 355.64 318.4 355.69 316.54 355.74 314.71 355.79 312.88 355.84 311.08 355.89 309.29 355.94 307.52 355.99 305.76 356.04 304.02 356.09 302.28 356.14 300.58 356.19 298.88 356.24 297.2 356.3 295.53 356.35 293.89 356.4 292.24 356.45 290.63 356.5 289.02 356.55 287.44 356.61 285.86 356.66 284.31 356.71 282.76 356.76 281.24 356.87 278.2 356.98 275.29 357.08 272.37 357.19 269.58 357.29 266.79 357.4 264.12 357.51 261.46 357.62 258.91 357.72 256.37 357.83 253.95 357.94 251.53 358.05 249.23 358.16 246.94 358.27 244.76 358.38 242.59 358.5 240.54 358.61 238.49 358.72 236.57 358.83 234.64 358.95 232.84 358.95 232.84 358.95 232.84 359.88 232.59 360.81 232.34 361.73 232.08 362.66 231.83 363.59 231.58 364.52 231.33 365.45 231.08 366.38 230.83 367.31 230.58 368.24 230.33 369.17 230.08 370.09 229.83 371.02 229.58 371.95 229.33 372.88 229.08 373.81 228.83 374.32 230.24 374.84 231.64 375.35 233.05 375.86 234.45 376.38 235.86 376.89 237.26 377.4 238.67 377.91 240.07 378.43 241.48 378.94 242.89 379.45 244.3 379.97 245.7 380.48 247.11 380.99 248.52 381.51 249.93 382.02 251.34 382.53 252.75 383.04 254.16 383.56 255.57 384.07 256.98 384.58 258.4 385.1 259.81 385.61 261.22 386.12 262.63 386.63 264.05 387.15 265.46 387.66 266.88 388.17 268.29 388.69 269.71 389.2 271.12 389.71 272.54 390.22 273.95 391.3 274.96 392.41 275.87 393.51 276.79 394.66 277.61 395.8 278.44 396.97 279.17 398.14 279.9 399.35 280.54 400.56 281.19 401.8 281.74 403.03 282.29 404.31 282.75 405.58 283.2 406.88 283.57 407.54 283.75 408.2 283.91 408.86 284.07 409.53 284.21 409.53 284.21 409.53 284.21 410.28 284.37 410.99 284.48 411.7 284.6 412.37 284.67 413.7 284.83 414.88 284.83 416.05 284.84 417.07 284.69 418.08 284.54 418.93 284.24 418.93 284.24 418.93 284.24 419.32 281.81 419.52 278.39 419.62 276.68 419.67 274.73 419.72 272.78 419.72 270.58 419.72 270.58 419.72 270.58 419.72 268.69 419.63 266.94 419.54 265.19 419.36 263.59 419 260.37 418.29 257.73 417.93 256.4 417.35 254.91 416.77 253.42 415.97 251.76 415.17 250.11 414.15 248.3 413.64 247.39 413.08 246.45 412.51 245.5 411.89 244.51 411.27 243.52 410.54 242.4 409.8 241.27 408.96 240 408.11 238.74 407.15 237.33 406.18 235.92 405.11 234.38 404.03 232.83 402.84 231.14 402.25 230.3 401.62 229.42 401 228.55 400.35 227.64 399.7 226.72 399.01 225.78 398.33 224.83 397.62 223.85 396.92 222.87 396.18 221.86 395.44 220.84 394.67 219.79 394.67 219.79 394.67 219.79 393.71 218.39 392.78 217.02 391.85 215.64 390.94 214.28 390.04 212.93 389.16 211.6 388.29 210.27 387.44 208.96 386.59 207.65 385.77 206.36 384.95 205.07 384.16 203.81 383.37 202.55 382.61 201.3 381.85 200.06 381.12 198.84 380.38 197.62 379.68 196.43 378.97 195.23 378.3 194.05 377.62 192.88 376.97 191.72 376.32 190.57 375.7 189.44 375.09 188.31 374.49 187.2 373.9 186.09 373.34 185 372.78 183.91 372.25 182.85 371.71 181.78 371.21 180.74 370.2 178.65 369.26 176.56 368.32 174.47 367.45 172.38 366.58 170.29 365.79 168.2 364.99 166.11 364.26 164.02 363.54 161.94 362.88 159.84 362.23 157.76 361.65 155.66 361.07 153.57 360.55 151.48 360.04 149.39 359.6 147.29 359.16 145.2 358.78 143.02 358.39 140.84 358.06 138.57 357.73 136.3 357.46 133.95 357.18 131.59 356.96 129.15 356.74 126.71 356.58 124.18 356.41 121.65 356.3 119.03 356.19 116.41 356.14 113.71 356.08 111 356.08 108.21 356.08 108.21 356.08 108.21 356.08 105.1 356.14 102.09 356.2 99.08 356.32 96.16 356.44 93.23 356.63 90.4 356.81 87.57 357.05 84.82 357.29 82.07 357.6 79.42 357.9 76.76 358.27 74.19 358.63 71.62 359.06 69.13 359.48 66.65 359.97 64.25 360.45 61.85 361 59.53 361.55 57.22 362.16 54.98 362.76 52.75 363.43 50.6 364.1 48.44 364.83 46.37 365.56 44.29 366.36 42.29 367.15 40.29 368 38.36 368.86 36.43 369.77 34.58 370.69 32.73 371.66 30.95 372.64 29.17 373.66 27.5 374.68 25.83 375.75 24.28 376.81 22.73 377.92 21.29 379.03 19.85 380.18 18.54 381.33 17.22 382.53 16.03 383.13 15.43 383.73 14.87 384.34 14.31 384.96 13.78 385.58 13.24 386.21 12.74 386.84 12.25 387.48 11.78 388.12 11.31 388.77 10.88 389.42 10.45 390.08 10.05 390.74 9.65 391.41 9.28 392.08 8.91 392.77 8.58 393.45 8.24 394.14 7.94 394.83 7.65 395.54 7.38 396.24 7.12 396.95 6.88 397.66 6.65 398.39 6.45 399.11 6.25 399.85 6.09 400.58 5.93 401.32 5.8 402.07 5.68 402.82 5.58 403.57 5.49 404.34 5.42 405.1 5.36 405.88 5.34 406.65 5.32 407.44 5.33 408.22 5.34 409.02 5.39 409.81 5.43 410.62 5.51 411.42 5.6 412.23 5.71 413.05 5.83 413.87 5.98 413.87 5.98 413.87 5.98 414.55 6.11 415.24 6.25 415.92 6.41 416.61 6.59 417.29 6.77 417.98 6.98 418.68 7.19 419.37 7.43 420.07 7.66 420.77 7.92 421.46 8.18 422.17 8.48 422.87 8.77 423.58 9.09 424.28 9.41 424.99 9.76 425.7 10.1 426.42 10.48 427.13 10.86 427.85 11.26 428.57 11.67 429.29 12.1 430.01 12.53 430.74 12.99 431.46 13.45 432.19 13.94 432.92 14.43 433.66 14.94 434.39 15.46 435.13 16.01 435.86 16.55 436.6 17.13 437.34 17.7 438.07 18.29 438.8 18.88 439.53 19.49 440.25 20.09 440.96 20.72 441.67 21.34 442.37 21.98 443.07 22.62 443.76 23.28 444.45 23.93 445.13 24.61 445.81 25.28 446.49 25.96 447.16 26.65 447.82 27.35 448.48 28.06 449.14 28.77 449.79 29.49 450.44 30.22 451.08 30.95 451.72 31.69 452.36 32.44 452.99 33.19 453.62 33.95 454.24 34.72 454.86 35.48 455.47 36.26 456.09 37.04 456.7 37.82 457.31 38.61 457.91 39.41 457.91 39.41 457.91 39.41 457.94 41.98 457.97 44.58 457.99 47.18 458.01 49.82 458.03 52.45 458.04 55.12 458.05 57.79 458.06 60.49 458.06 63.19 458.05 65.92 458.04 68.66 458.03 71.43 458.01 74.2 457.98 77 457.94 79.8 457.9 82.64 457.85 85.47 457.79 88.35 457.72 91.22 457.65 94.12 457.57 97.03 457.48 99.97 457.38 102.91 457.28 105.89 457.17 108.86 457.06 111.87 456.94 114.88 456.82 117.92 456.69 120.97 456.56 124.05 456.49 125.59 456.42 127.14 456.35 128.68 456.28 130.24 456.28 130.24 456.28 130.24 455.42 130.37 454.57 130.51 453.72 130.64 452.87 130.77 452.02 130.91 451.16 131.04 450.31 131.18 449.46 131.31 448.61 131.45 447.76 131.58 446.91 131.72 446.06 131.86 445.21 132 444.36 132.14 443.51 132.28 442.66 132.41 442.11 130.88 441.56 129.35 441.01 127.81 440.46 126.28 439.91 124.74 439.36 123.21 438.81 121.67 438.26 120.14 437.71 118.6 437.16 117.07 436.62 115.53 436.07 113.99 435.52 112.45 434.97 110.91 434.42 109.38 433.87 107.84 433.32 106.3 432.78 104.76 432.23 103.22 431.68 101.68 431.13 100.13 430.59 98.59 430.04 97.05 429.49 95.51 428.95 93.96 428.4 92.42 427.86 90.88 427.31 89.33 426.77 87.79 426.22 86.24 425.68 84.69 425.13 83.15 424.29 82.34 423.35 81.59 422.41 80.84 421.37 80.16 420.33 79.47 419.2 78.85 418.06 78.23 416.83 77.67 415.6 77.12 414.27 76.63 413.6 76.39 412.91 76.16 412.22 75.93 411.51 75.72 410.79 75.52 410.05 75.32 409.32 75.13 408.55 74.96 407.79 74.78 407 74.63 406.21 74.47 405.4 74.33 405.4 74.33 405.4 74.33 404.88 74.24 404.1 74.19 403.32 74.14 402.28 74.13 401.24 74.12 399.93 74.15 399.28 74.16 398.57 74.19 397.85 74.22 397.07 74.25 397.07 74.25 397.07 74.25 396.68 76.1 396.48 79.09 396.38 80.58 396.33 82.36 396.28 84.14 396.27 86.2 396.27 86.2 396.27 86.2 396.27 88.42 396.4 90.52 396.53 92.63 396.79 94.61 397.05 96.6 397.44 98.46 397.83 100.33 398.35 102.08 398.87 103.82 399.59 105.68 400.31 107.54 401.24 109.52 402.17 111.49 403.3 113.59 403.86 114.63 404.48 115.71 405.1 116.79 405.76 117.9 406.43 119 407.2 120.23 407.97 121.46 408.83 122.82 409.7 124.17 410.67 125.65 411.63 127.13 412.7 128.73 413.77 130.33 414.93 132.06 415.52 132.92 416.12 133.82 416.73 134.71 417.37 135.64 418 136.56 418.66 137.52 419.32 138.48 420 139.47 420.68 140.46 421.39 141.48 422.1 142.5 422.84 143.55 422.84 143.55 422.84 143.55 423.91 145.02 424.96 146.47 426 147.91 427.01 149.33 428.02 150.75 429 152.14 429.98 153.54 430.92 154.9 431.87 156.27 432.78 157.61 433.69 158.95 434.57 160.26 435.45 161.57 436.3 162.85 437.14 164.14 437.96 165.39 438.77 166.65 439.55 167.88 440.33 169.11 441.08 170.31 441.82 171.51 442.54 172.69 443.25 173.86 443.93 175.01 444.61 176.15 445.26 177.27 445.91 178.39 446.52 179.48 447.14 180.57 447.72 181.63 448.3 182.7 448.85 183.73 449.94 185.8 450.96 187.86 451.97 189.92 452.9 191.97 453.83 194.01 454.68 196.05 455.53 198.08 456.3 200.1 457.07 202.13 457.76 204.14 458.44 206.15 459.05 208.14 459.65 210.14 460.18 212.13 460.7 214.12 461.14 216.09 461.58 218.07 461.97 220.13 462.36 222.19 462.69 224.34 463.02 226.48 463.29 228.72 463.57 230.95 463.79 233.27 464.01 235.59 464.18 238 464.34 240.41 464.45 242.9 464.56 245.4 464.6 247.97 464.54 250.53 464.54 253.2 464.54 253.2 464.54 253.2 464.54 254.81 464.56 256.4 464.57 257.99 464.61 259.56 464.54 262.68 464.42 265.7 464.29 268.72 464.1 271.64 463.91 274.55 463.65 277.37 463.4 280.18 463.08 282.9 462.76 285.61 462.37 288.22 461.99 290.83 461.55 293.35 461.1 295.86 460.59 298.27 460.08 300.68 459.5 302.98 458.93 305.29 458.29 307.5 457.65 309.71 456.95 311.81 456.25 313.92 455.48 315.92 454.72 317.93 453.89 319.83 453.06 321.74 452.16 323.54 451.27 325.35 450.31 327.05 449.35 328.76 448.33 330.37 447.3 331.98 446.23 333.47 445.16 334.97 444.03 336.34 442.91 337.72 441.74 338.98 441.15 339.61 440.55 340.2 439.96 340.8 439.35 341.36 438.74 341.93 438.11 342.46 437.49 342.99 436.86 343.49 436.23 343.98 435.58 344.44 434.94 344.91 434.28 345.34 433.63 345.76 432.96 346.16 432.29 346.55 431.61 346.92 430.94 347.28 430.24 347.61 429.55 347.95 428.85 348.26 428.14 348.56 427.42 348.84 426.71 349.13 425.98 349.38 425.25 349.63 424.5 349.85 423.76 350.06 423.01 350.24 422.26 350.41 421.5 350.55 420.74 350.69 419.96 350.79 419.19 350.9 418.41 350.97 417.62 351.05 416.82 351.1 416.02 351.18 415.19 351.25 414.37 351.33 413.54 351.37 412.7 351.41 411.86 351.43 411.01 351.44 410.15 351.42 409.31 351.34 408.46 351.2 407.6 351.06 406.74 350.79 405.88 350.5 405 350.24 404.13 349.98 403.24 349.74 403.24 349.74 403.24 349.74 403.24 349.74 403.24 349.74M520.06 370Q518.76 369.81 517.42 369.69 516.75 369.62 516.08 369.58 515.41 369.44 514.73 369.27 514.05 369.11 513.37 368.93 512.68 368.76 511.99 368.56 511.3 368.36 510.6 368.15 509.9 367.94 509.2 367.71 508.5 367.48 507.79 367.23 507.08 366.98 506.36 366.72 505.64 366.45 504.92 366.17 504.2 365.89 503.47 365.59 502.74 365.29 502.01 364.98 501.27 364.66 500.53 364.33 499.79 363.99 499.05 363.64 498.3 363.29 497.55 362.92 496.79 362.55 496.03 362.17 495.28 361.78 494.51 361.37 493.75 360.97 492.98 360.55 492.21 360.13 491.43 359.69 490.65 359.25 489.87 358.79 489.09 358.33 488.3 357.86 487.51 357.38 486.72 356.89 485.93 356.4 485.13 355.89 484.33 355.38 483.53 354.85 482.72 354.32 481.91 353.77 481.11 353.22 480.29 352.65 479.48 352.07 478.67 351.47 477.86 350.86 477.04 350.23 476.23 349.59 475.41 348.93 474.6 348.25 473.78 347.54 472.97 346.83 472.15 346.08 472.15 346.08 472.15 346.08 472.26 344.18 472.37 342.32 472.48 340.45 472.59 338.62 472.7 336.79 472.8 334.98 472.91 333.18 473.02 331.41 473.13 329.64 473.23 327.9 473.34 326.16 473.44 324.45 473.55 322.74 473.65 321.06 473.76 319.39 473.86 317.74 473.96 316.09 474.07 314.48 474.17 312.86 474.27 311.28 474.37 309.7 474.47 308.14 474.57 306.59 474.67 305.07 474.87 302.03 475.05 299.11 475.22 296.19 475.36 293.4 475.48 290.61 475.59 287.94 475.7 285.27 475.81 282.73 475.92 280.19 476.03 277.77 476.14 275.36 476.25 273.06 476.36 270.77 476.47 268.6 476.58 266.44 476.7 264.39 476.81 262.35 476.92 260.43 477.03 258.52 477.15 256.72 477.15 256.72 477.15 256.72 478.06 256.56 478.98 256.4 479.89 256.24 480.8 256.08 481.72 255.91 482.63 255.75 483.55 255.58 484.46 255.42 485.38 255.26 486.29 255.09 487.21 254.92 488.13 254.76 489.04 254.59 489.96 254.43 490.88 254.26 491.8 254.09 492.3 255.52 492.8 256.94 493.3 258.36 493.8 259.78 494.29 261.19 494.79 262.61 495.29 264.02 495.79 265.43 496.29 266.84 496.78 268.24 497.28 269.65 497.78 271.05 498.27 272.45 498.77 273.84 499.27 275.24 499.76 276.63 500.26 278.02 500.76 279.41 501.26 280.8 501.75 282.18 502.25 283.57 502.75 284.95 503.24 286.32 503.74 287.7 504.24 289.07 504.74 290.45 505.23 291.81 505.73 293.18 506.23 294.55 506.73 295.91 507.23 297.27 507.73 298.63 508.79 299.59 509.9 300.47 511 301.34 512.14 302.12 513.27 302.9 514.45 303.59 515.62 304.27 516.83 304.87 518.04 305.47 519.28 305.97 520.52 306.47 521.8 306.89 523.08 307.3 524.39 307.63 525.05 307.79 525.72 307.93 526.38 308.06 527.06 308.18 527.06 308.18 527.06 308.18 527.81 308.31 528.53 308.41 529.24 308.5 529.92 308.56 531.27 308.69 532.45 308.67 533.64 308.65 534.66 308.5 535.69 308.34 536.55 308.06 536.55 308.06 536.55 308.06 536.96 305.82 537.18 302.7 537.29 301.14 537.35 299.36 537.41 297.58 537.42 295.58 537.42 295.58 537.42 295.58 537.44 293.86 537.36 292.26 537.28 290.67 537.1 289.21 536.76 286.27 536.05 283.84 535.7 282.62 535.13 281.24 534.55 279.86 533.76 278.32 532.97 276.77 531.95 275.07 531.44 274.21 530.88 273.32 530.32 272.42 529.7 271.48 529.09 270.54 528.36 269.46 527.63 268.37 526.79 267.15 525.94 265.93 524.99 264.56 524.03 263.19 522.96 261.68 521.89 260.17 520.71 258.5 520.12 257.67 519.5 256.8 518.88 255.93 518.24 255.02 517.59 254.11 516.91 253.17 516.24 252.22 515.54 251.23 514.83 250.24 514.1 249.22 513.37 248.19 512.61 247.12 512.61 247.12 512.61 247.12 511.66 245.7 510.74 244.3 509.81 242.9 508.92 241.51 508.02 240.12 507.16 238.75 506.29 237.38 505.45 236.03 504.62 234.67 503.81 233.34 503 232 502.22 230.68 501.43 229.36 500.68 228.07 499.93 226.77 499.2 225.49 498.48 224.21 497.78 222.95 497.08 221.69 496.42 220.45 495.75 219.21 495.11 218 494.46 216.78 493.85 215.58 493.24 214.38 492.65 213.21 492.07 212.03 491.51 210.88 490.96 209.73 490.43 208.6 489.9 207.47 489.4 206.36 488.39 204.14 487.46 201.93 486.53 199.72 485.67 197.51 484.81 195.29 484.02 193.09 483.22 190.88 482.5 188.68 481.78 186.47 481.13 184.28 480.48 182.08 479.9 179.89 479.32 177.7 478.81 175.52 478.3 173.33 477.86 171.16 477.42 168.98 477.03 166.73 476.65 164.47 476.32 162.14 475.99 159.8 475.71 157.39 475.44 154.98 475.22 152.48 475 149.99 474.83 147.42 474.67 144.85 474.56 142.2 474.45 139.55 474.39 136.82 474.34 134.09 474.34 131.29 474.34 131.29 474.34 131.29 474.34 128.17 474.4 125.16 474.46 122.15 474.58 119.24 474.7 116.33 474.89 113.53 475.07 110.72 475.32 108.02 475.56 105.33 475.87 102.73 476.18 100.14 476.55 97.65 476.92 95.16 477.36 92.78 477.79 90.4 478.29 88.12 478.78 85.85 479.34 83.68 479.91 81.52 480.53 79.46 481.16 77.4 481.85 75.45 482.55 73.51 483.31 71.67 484.07 69.83 484.89 68.11 485.73 66.39 486.62 64.77 487.52 63.16 488.49 61.67 489.46 60.17 490.5 58.79 491.54 57.41 492.62 56.18 493.71 54.94 494.85 53.85 495.98 52.76 497.16 51.81 498.34 50.87 499.57 50.06 500.79 49.27 502.06 48.61 502.69 48.29 503.33 48 503.97 47.71 504.62 47.46 505.28 47.2 505.94 46.99 506.6 46.78 507.27 46.6 507.94 46.42 508.62 46.28 509.3 46.14 509.99 46.04 510.68 45.94 511.38 45.87 512.08 45.81 512.79 45.78 513.5 45.76 514.21 45.77 514.93 45.78 515.65 45.83 516.38 45.88 517.11 45.96 517.84 46.05 518.59 46.18 519.33 46.3 520.08 46.47 520.83 46.63 521.58 46.83 522.34 47.03 523.11 47.27 523.88 47.51 524.65 47.79 525.42 48.07 526.2 48.39 526.99 48.7 527.78 49.05 528.57 49.41 529.36 49.8 530.16 50.2 530.96 50.63 531.77 51.06 532.59 51.52 533.4 51.99 534.21 52.51 534.21 52.51 534.21 52.51 534.89 52.93 535.57 53.37 536.24 53.82 536.92 54.29 537.6 54.76 538.28 55.27 538.96 55.77 539.65 56.3 540.33 56.84 541.01 57.39 541.7 57.95 542.39 58.53 543.07 59.13 543.76 59.74 544.45 60.36 545.14 61 545.83 61.64 546.52 62.31 547.21 62.98 547.9 63.68 548.6 64.39 549.29 65.11 549.99 65.84 550.68 66.59 551.38 67.35 552.08 68.13 552.77 68.92 553.47 69.73 554.17 70.54 554.87 71.38 555.57 72.22 556.27 73.08 556.97 73.95 557.66 74.82 558.35 75.7 559.03 76.59 559.71 77.47 560.38 78.37 561.04 79.26 561.7 80.17 562.36 81.07 563 81.99 563.65 82.9 564.28 83.82 564.92 84.74 565.54 85.67 566.17 86.6 566.78 87.53 567.4 88.46 568.01 89.4 568.61 90.34 569.21 91.28 569.81 92.22 570.4 93.16 570.99 94.1 571.58 95.05 572.16 95.99 572.74 96.93 573.32 97.86 573.9 98.8 574.47 99.73 575.04 100.66 575.61 101.58 576.18 102.5 576.18 102.5 576.18 102.5 576.2 104.68 576.21 106.89 576.22 109.09 576.23 111.31 576.24 113.52 576.24 115.77 576.24 118.01 576.24 120.27 576.23 122.53 576.21 124.82 576.2 127.11 576.17 129.42 576.15 131.74 576.11 134.08 576.07 136.41 576.02 138.78 575.97 141.15 575.9 143.54 575.83 145.93 575.75 148.35 575.66 150.77 575.57 153.21 575.47 155.66 575.37 158.13 575.26 160.61 575.14 163.11 575.02 165.61 574.9 168.14 574.77 170.67 574.63 173.23 574.56 174.51 574.49 175.8 574.42 177.09 574.35 178.38 574.35 178.38 574.35 178.38 573.51 178.28 572.66 178.17 571.82 178.06 570.98 177.96 570.14 177.85 569.3 177.74 568.46 177.63 567.62 177.53 566.78 177.42 565.94 177.31 565.1 177.2 564.26 177.1 563.42 176.99 562.58 176.88 561.74 176.78 560.9 176.67 560.36 175.2 559.83 173.72 559.29 172.25 558.76 170.76 558.22 169.28 557.68 167.79 557.15 166.3 556.62 164.8 556.08 163.3 555.55 161.8 555.02 160.29 554.48 158.78 553.95 157.27 553.42 155.75 552.89 154.23 552.36 152.71 551.83 151.18 551.3 149.65 550.77 148.11 550.25 146.57 549.72 145.03 549.19 143.48 548.67 141.93 548.14 140.37 547.62 138.81 547.09 137.25 546.57 135.68 546.05 134.11 545.53 132.54 545.01 130.96 544.48 129.38 543.96 127.8 543.14 126.76 542.22 125.75 541.3 124.73 540.28 123.74 539.26 122.74 538.14 121.76 537.02 120.78 535.8 119.83 534.58 118.87 533.26 117.94 532.6 117.47 531.92 117.01 531.23 116.55 530.52 116.1 529.81 115.65 529.07 115.21 528.34 114.76 527.58 114.32 526.81 113.89 526.02 113.46 525.24 113.03 524.42 112.61 524.42 112.61 524.42 112.61 523.9 112.34 523.12 112.01 522.33 111.69 521.28 111.31 520.23 110.93 518.92 110.5 518.26 110.28 517.54 110.06 516.82 109.83 516.02 109.59 516.02 109.59 516.02 109.59 515.6 111.21 515.37 113.97 515.25 115.35 515.18 117.01 515.11 118.68 515.09 120.63 515.09 120.63 515.09 120.63 515.06 122.74 515.17 124.77 515.28 126.81 515.52 128.77 515.76 130.73 516.14 132.61 516.51 134.5 517.02 136.31 517.53 138.11 518.24 140.08 518.95 142.04 519.87 144.18 520.78 146.3 521.9 148.59 522.45 149.73 523.06 150.91 523.67 152.1 524.33 153.32 524.99 154.54 525.75 155.89 526.51 157.25 527.36 158.74 528.22 160.24 529.17 161.86 530.13 163.49 531.18 165.25 532.23 167.01 533.39 168.89 533.96 169.84 534.56 170.81 535.16 171.79 535.79 172.79 536.41 173.8 537.06 174.84 537.71 175.87 538.39 176.94 539.06 178.01 539.76 179.11 540.46 180.2 541.19 181.33 541.19 181.33 541.19 181.33 542.25 182.92 543.28 184.46 544.31 186.01 545.31 187.52 546.3 189.02 547.27 190.48 548.24 191.94 549.17 193.37 550.1 194.79 551 196.17 551.9 197.55 552.77 198.9 553.64 200.24 554.48 201.55 555.32 202.85 556.12 204.12 556.92 205.38 557.69 206.61 558.47 207.84 559.21 209.03 559.94 210.23 560.65 211.38 561.36 212.54 562.03 213.66 562.71 214.78 563.35 215.87 563.99 216.95 564.6 218.01 565.21 219.06 565.78 220.08 566.36 221.09 566.9 222.08 567.99 224.05 568.99 225.98 570 227.92 570.92 229.82 571.85 231.72 572.69 233.58 573.54 235.45 574.3 237.29 575.07 239.12 575.75 240.93 576.43 242.73 577.03 244.51 577.63 246.28 578.15 248.03 578.67 249.78 579.11 251.5 579.55 253.23 579.94 255.01 580.32 256.79 580.65 258.64 580.98 260.48 581.26 262.39 581.53 264.3 581.75 266.27 581.97 268.24 582.14 270.27 582.3 272.3 582.41 274.4 582.52 276.49 582.56 278.65 582.5 280.78 582.5 283 582.5 283 582.5 283 582.5 284.34 582.52 285.67 582.53 287 582.57 288.32 582.5 290.91 582.38 293.42 582.25 295.92 582.06 298.33 581.87 300.75 581.61 303.07 581.35 305.4 581.03 307.64 580.71 309.88 580.33 312.03 579.95 314.19 579.5 316.26 579.05 318.33 578.53 320.32 578.02 322.32 577.44 324.23 576.86 326.15 576.22 327.99 575.57 329.84 574.86 331.62 574.15 333.4 573.38 335.11 572.6 336.84 571.76 338.49 570.91 340.16 570 341.76 569.09 343.38 568.12 344.93 567.14 346.5 566.09 347.99 565.05 349.51 563.95 350.93 562.86 352.37 561.71 353.7 560.56 355.05 559.37 356.29 558.77 356.91 558.16 357.5 557.55 358.09 556.93 358.66 556.31 359.22 555.67 359.76 555.04 360.31 554.39 360.82 553.74 361.34 553.08 361.84 552.42 362.34 551.75 362.81 551.08 363.29 550.39 363.74 549.71 364.2 549.01 364.63 548.32 365.06 547.61 365.45 546.9 365.84 546.18 366.2 545.46 366.54 544.73 366.86 544 367.17 543.25 367.45 542.51 367.74 541.76 368 541 368.26 540.23 368.52 539.46 368.8 538.68 369.06 537.89 369.32 537.1 369.56 536.3 369.81 535.49 370.03 534.68 370.24 533.86 370.42 533.05 370.56 532.22 370.64 531.39 370.73 530.55 370.78 529.71 370.83 528.86 370.86 528.01 370.88 527.15 370.88 526.29 370.87 525.41 370.82 524.54 370.78 523.65 370.62 522.77 370.44 521.87 370.29 520.97 370.13 520.06 370 520.06 370 520.06 370 520.06 370 520.06 370M590.33 374.9Q590.3 374.1 590.28 373.07 590.26 372.03 590.24 370.98 590.21 369.93 590.19 368.88 590.17 367.82 590.15 366.77 590.13 365.71 590.1 364.66 590.08 363.6 590.06 362.55 590.04 361.49 590.01 360.44 589.99 359.38 589.97 358.32 589.95 357.27 589.92 356.21 589.9 355.15 589.88 354.1 589.86 353.04 589.84 351.98 589.81 350.93 589.79 349.87 589.77 348.81 589.75 347.76 589.73 346.7 589.7 345.64 589.68 344.58 589.66 343.53 589.64 342.47 589.61 341.41 590.75 341.17 591.89 340.92 593.02 340.67 594.16 340.4 595.3 340.12 596.43 339.83 597.57 339.54 598.71 339.24 599.85 338.94 600.99 338.63 602.13 338.31 603.27 337.99 604.41 337.67 605.55 337.34 606.69 337.01 607.84 336.67 607.84 335.1 607.84 333.53 607.84 331.96 607.84 330.38 607.83 328.81 607.83 327.24 607.83 325.66 607.83 324.09 607.83 322.51 607.82 320.94 607.82 319.36 607.82 317.79 607.81 316.22 607.81 314.64 607.8 313.07 607.8 311.49 607.79 309.92 607.79 308.34 607.78 306.77 607.78 305.2 607.77 303.62 607.76 302.05 607.76 300.48 607.75 298.9 607.74 297.33 607.73 295.76 607.73 294.19 607.72 292.62 607.71 291.05 607.7 289.47 607.69 287.9 607.68 286.33 607.67 284.76 607.66 283.19 607.65 281.62 607.64 280.05 607.63 278.48 607.62 276.91 607.61 275.34 607.59 273.77 607.58 272.21 607.57 270.64 607.56 269.07 607.55 267.5 607.53 265.93 607.52 264.36 607.51 262.79 607.5 261.23 607.48 259.66 607.47 258.09 607.45 256.52 607.44 254.96 607.43 253.39 607.41 251.82 607.4 250.25 607.38 248.69 607.37 247.12 607.36 245.55 607.34 243.98 607.33 242.42 607.31 240.85 607.3 239.28 607.28 237.72 607.27 236.15 606.16 235.51 605.06 234.88 603.96 234.25 602.86 233.62 601.76 232.98 600.66 232.35 599.56 231.72 598.46 231.09 597.36 230.46 596.26 229.83 595.16 229.2 594.05 228.58 592.95 227.95 591.85 227.32 590.75 226.7 589.65 226.07 589.65 224.95 589.65 223.83 589.65 222.71 589.65 221.59 589.65 220.47 589.65 219.35 589.65 218.23 589.65 217.11 589.65 215.99 589.65 214.86 589.65 213.74 589.65 212.62 589.65 211.5 589.65 210.38 589.65 209.26 589.65 208.14 589.65 207.02 589.65 205.9 589.65 204.78 589.65 203.65 589.65 202.53 589.65 201.41 589.65 200.29 589.65 199.17 589.65 198.05 589.65 196.93 589.65 195.81 589.65 194.69 589.65 193.56 589.65 192.44 589.65 191.32 589.65 190.2 590.74 190.83 591.82 191.47 592.9 192.11 593.99 192.75 595.07 193.4 596.15 194.06 597.23 194.72 598.31 195.38 599.39 196.05 600.47 196.72 601.55 197.4 602.62 198.08 603.7 198.77 604.78 199.46 605.85 200.16 606.92 200.86 606.91 199.46 606.9 198.07 606.89 196.67 606.88 195.28 606.86 193.88 606.85 192.49 606.84 191.09 606.83 189.7 606.82 188.3 606.81 186.91 606.8 185.51 606.79 184.11 606.78 182.71 606.77 181.32 606.77 179.92 606.76 178.52 606.75 177.54 606.76 176.59 606.77 175.63 606.79 174.7 606.81 173.77 606.84 172.87 606.88 171.97 606.93 171.09 606.97 170.21 607.03 169.35 607.09 168.5 607.17 167.67 607.24 166.84 607.32 166.04 607.41 165.24 607.51 164.46 607.61 163.69 607.72 162.94 607.83 162.19 607.96 161.47 608.21 160.03 608.51 158.7 608.82 157.37 609.17 156.16 609.53 154.94 609.93 153.84 610.34 152.74 610.81 151.76 611.27 150.78 611.78 149.92 612.3 149.06 612.86 148.32 613.43 147.59 614.05 146.97 614.67 146.36 615.34 145.87 616.01 145.39 616.74 145.02 617.46 144.67 618.23 144.43 619 144.2 619.81 144.09 620.63 143.99 621.48 144.01 622.34 144.04 623.23 144.2 624.12 144.36 625.04 144.65 625.97 144.95 626.92 145.37 627.87 145.8 628.86 146.35 629.84 146.91 630.85 147.6 631.86 148.29 632.9 149.11 633.41 149.52 633.93 149.97 634.46 150.41 634.98 150.89 635.51 151.37 636.04 151.88 636.57 152.39 637.11 152.93 637.65 153.48 638.19 154.05 638.73 154.63 639.28 155.24 639.83 155.85 640.38 156.49 640.93 157.13 641.48 157.81 642.04 158.48 642.6 159.19 643.15 159.9 643.72 160.64 644.28 161.39 644.84 162.16 645.41 162.93 645.98 163.74 646.55 164.55 647.12 165.39 647.69 166.23 648.27 167.1 648.84 167.98 649.42 168.88 649.99 169.79 650.57 170.73 651.16 171.67 651.74 172.64 652.32 173.62 652.9 174.62 652.9 174.62 652.9 174.62 653.5 175.66 654.12 176.73 654.72 177.82 655.34 178.95 655.95 180.08 656.59 181.25 657.2 182.42 657.83 183.65 658.46 184.87 659.11 186.13 659.74 187.4 660.38 188.72 661.02 190.03 661.67 191.39 662.32 192.75 662.97 194.16 663.62 195.57 664.28 197.02 664.93 198.47 665.6 199.97 666.25 201.47 666.92 203.01 667.59 204.54 668.26 206.12 668.94 207.7 669.63 209.31 670.32 210.91 671.04 212.53 671.78 214.11 672.58 215.67 673.46 217.13 674.36 218.36 674.36 218.36 674.36 218.36 674.61 219.06 674.77 219.65 674.92 220.24 675.07 220.83 675.21 221.43 675.35 222.03 675.48 222.64 675.62 223.24 675.75 223.85 675.88 224.46 676 225.07 676.12 225.68 676.24 226.3 676.35 226.92 676.46 227.54 676.57 228.17 676.68 228.79 676.78 229.42 676.88 230.06 676.98 230.69 677.07 231.33 677.16 231.97 677.25 232.61 677.34 233.25 677.42 233.9 677.5 234.55 677.58 235.2 677.65 235.86 677.73 236.52 677.79 237.18 677.86 237.84 677.92 238.51 677.23 237.77 676.55 237.05 675.87 236.32 675.2 235.6 674.54 234.87 673.9 234.16 673.25 233.44 672.62 232.73 672 232.01 671.39 231.31 670.78 230.6 670.18 229.91 668.99 228.5 667.86 227.15 666.74 225.78 665.67 224.47 664.61 223.14 663.59 221.87 662.59 220.59 661.63 219.38 660.67 218.15 659.76 216.99 658.85 215.83 657.95 214.67 657.05 213.51 656.15 212.37 655.25 211.22 654.36 210.08 653.46 208.94 652.57 207.82 651.67 206.7 650.78 205.59 649.88 204.49 648.99 203.4 648.09 202.31 647.19 201.24 646.29 200.17 645.39 199.13 645.39 199.13 645.39 199.13 645.44 200.13 645.5 201.13 645.55 202.12 645.61 203.12 645.67 204.11 645.73 205.1 645.8 206.09 645.86 207.08 645.93 208.06 645.99 209.05 646.06 210.03 646.13 211.02 646.2 212 646.27 212.98 646.35 213.96 646.42 214.94 646.49 215.92 646.57 216.89 646.65 217.87 646.72 218.85 646.8 219.82 646.87 220.79 646.95 221.77 647.03 222.74 647.11 223.71 647.19 224.69 647.26 225.66 647.34 226.63 647.42 227.6 647.5 228.57 647.58 229.54 647.66 230.51 648.52 231.16 649.37 231.81 650.23 232.47 651.09 233.12 651.95 233.77 652.81 234.43 653.67 235.08 654.53 235.73 655.4 236.38 656.26 237.04 657.12 237.69 657.98 238.34 658.85 238.99 659.71 239.64 660.58 240.28 661.45 240.93 662.31 241.58 663.18 242.22 664.05 242.87 664.92 243.51 665.8 244.15 666.67 244.79 667.54 245.43 668.42 246.06 669.3 246.69 670.17 247.33 671.05 247.96 671.94 248.58 672.82 249.21 673.7 249.83 674.59 250.45 675.47 251.07 675.63 251.87 675.8 252.66 675.95 253.45 676.11 254.25 676.27 255.04 676.43 255.84 676.58 256.63 676.73 257.43 676.89 258.23 677.04 259.02 677.19 259.82 677.34 260.61 677.48 261.41 677.63 262.21 677.77 263.01 677.92 263.8 678.06 264.6 678.2 265.4 678.34 266.2 678.48 267 678.61 267.8 678.75 268.6 678.88 269.4 679.02 270.2 679.15 271 679.28 271.8 679.4 272.6 679.53 273.4 679.66 274.2 679.78 275.01 679.91 275.81 680.03 276.61 679.07 276.12 678.11 275.62 677.16 275.12 676.2 274.63 675.25 274.13 674.29 273.63 673.34 273.13 672.39 272.63 671.44 272.13 670.5 271.63 669.55 271.12 668.6 270.62 667.66 270.12 666.72 269.61 665.78 269.11 664.84 268.6 663.9 268.09 662.96 267.59 662.02 267.08 661.09 266.57 660.15 266.06 659.22 265.55 658.29 265.04 657.36 264.53 656.43 264.01 655.5 263.5 654.58 262.99 653.65 262.47 652.73 261.96 651.8 261.45 650.88 260.93 649.96 260.41 650.03 261.47 650.1 262.53 650.17 263.59 650.25 264.64 650.31 265.7 650.38 266.76 650.45 267.82 650.52 268.88 650.58 269.94 650.65 271 650.71 272.05 650.78 273.11 650.84 274.17 650.9 275.23 650.96 276.29 651.02 277.35 651.08 278.41 651.14 279.47 651.2 280.53 651.25 281.6 651.31 282.66 651.36 283.72 651.41 284.78 651.47 285.84 651.52 286.91 651.57 287.97 651.61 289.03 651.66 290.1 651.71 291.16 651.75 292.23 651.8 293.29 651.84 294.36 651.88 295.42 651.92 296.49 651.96 297.56 652 298.62 652.03 299.69 652.07 300.76 652.1 301.83 652.14 302.9 652.17 303.97 652.2 305.04 652.23 306.11 652.25 307.19 652.28 308.26 652.3 309.33 652.33 310.41 652.35 311.48 652.37 312.56 652.39 313.64 652.41 314.72 652.42 315.8 652.43 316.88 652.45 317.96 652.46 319.05 652.47 320.13 652.47 321.22 652.48 322.3 652.48 323.39 652.48 324.49 652.48 325.58 652.48 326.67 652.48 327.77 652.47 328.87 652.46 330.3 652.5 331.5 652.54 332.7 652.63 333.66 652.72 334.63 652.86 335.35 653 336.07 653.2 336.55 653.59 337.51 654.73 338.52 655.29 339.03 656.05 339.54 656.8 340.04 657.74 340.56 657.74 340.56 657.74 340.56 658.79 341.09 659.83 341.62 660.88 342.15 661.93 342.66 662.97 343.17 664.02 343.68 665.07 344.17 666.12 344.66 667.17 345.15 668.22 345.62 669.28 346.1 670.33 346.56 671.39 347.02 672.45 347.47 673.51 347.91 674.57 348.35 674.41 349.45 674.24 350.56 674.07 351.67 673.88 352.81 673.69 353.95 673.49 355.11 673.29 356.28 673.07 357.47 672.86 358.67 672.64 359.89 672.43 361.12 672.21 362.37 672 363.64 671.8 364.92 671.6 366.21 671.42 367.35 670.17 367.56 668.91 367.77 667.65 367.98 666.39 368.19 665.13 368.39 663.87 368.59 662.61 368.79 661.35 368.98 660.08 369.18 658.82 369.38 657.56 369.57 656.3 369.76 655.04 369.96 653.78 370.15 652.52 370.34 651.26 370.53 649.99 370.73 648.73 370.92 647.47 371.11 646.21 371.31 644.95 371.48 643.68 371.57 642.41 371.65 641.14 371.73 639.87 371.81 638.6 371.89 637.33 372 636.06 372.11 634.79 372.23 633.53 372.34 632.26 372.45 631 372.58 629.73 372.77 628.47 372.96 627.21 373.15 625.95 373.34 624.69 373.53 623.42 373.63 622.14 373.69 620.87 373.75 619.6 373.81 618.33 373.87 617.06 373.92 615.78 373.92 614.5 373.92 613.23 373.92 611.95 373.92 610.68 373.92 609.4 373.92 608.12 373.92 606.85 373.92 605.57 373.92 604.3 373.92 603.02 373.96 601.76 374.11 600.49 374.25 599.22 374.39 597.96 374.54 596.69 374.68 595.42 374.74 594.15 374.78 592.87 374.82 591.6 374.86 590.33 374.9 590.33 374.9 590.33 374.9"></path><path fill="#f5f3f5" d="M86.05 579.71Q84.76 578.23 83.51 576.87 82.28 575.41 81.07 573.81 79.88 572.21 78.72 570.56 77.56 568.9 76.44 567.19 75.33 565.48 74.24 563.72 73.16 561.96 72.12 560.14 71.08 558.33 70.06 556.47 69.05 554.62 68.07 552.72 67.09 550.82 66.13 548.88 65.16 546.95 64.22 544.98 63.28 543.02 62.34 541.03 61.4 539.05 60.47 537.04 59.52 535.06 58.57 533.05 57.61 531.07 56.64 529.07 55.64 527.11 54.62 525.14 53.58 523.2 52.51 521.26 51.41 519.36 50.32 517.52 49.18 515.7 48.06 513.94 46.9 512.2 45.76 510.51 44.59 508.84 43.45 507.21 42.28 505.6 41.15 504.01 40 502.44 38.88 500.89 37.76 499.36 36.68 497.83 35.59 496.32 34.55 494.81 33.51 493.31 32.51 491.82 31.52 490.33 30.58 488.85 29.65 487.36 28.77 485.88 27.89 484.4 27.07 482.91 26.26 481.43 25.5 479.95 24.75 478.47 24.06 476.98 23.37 475.49 22.74 474 22.13 472.5 21.58 471 21.58 471 21.58 471 20.84 468.99 20.28 467.09 19.72 465.19 19.33 463.4 18.95 461.59 18.74 459.9 18.55 458.21 18.52 456.62 18.5 455.02 18.65 453.53 18.82 452.03 19.15 450.65 19.5 449.25 20.01 447.96 20.54 446.66 21.24 445.47 21.95 444.27 22.82 443.18 23.71 442.07 24.76 441.08 25.82 440.07 27.04 439.17 28.28 438.26 29.67 437.45 30.37 437.05 31.11 436.67 31.85 436.28 32.64 435.92 33.42 435.56 34.24 435.23 35.06 434.89 35.93 434.58 36.79 434.27 37.69 433.98 38.59 433.69 39.53 433.42 40.47 433.16 41.45 432.91 42.43 432.67 43.45 432.45 44.47 432.22 45.52 432.02 46.57 431.82 47.65 431.65 48.74 431.47 49.85 431.32 50.97 431.17 52.12 431.04 53.27 430.91 54.45 430.8 55.63 430.69 56.85 430.61 58.06 430.52 59.3 430.46 60.55 430.4 61.82 430.36 63.09 430.32 64.4 430.31 65.7 430.29 67.04 430.3 68.37 430.3 69.73 430.33 71.09 430.36 72.49 430.41 73.88 430.46 75.3 430.54 76.72 430.61 78.17 430.71 79.62 430.81 81.09 430.94 82.57 431.06 84.07 431.2 85.58 431.35 87.11 431.52 88.64 431.69 90.2 431.89 91.76 432.08 93.35 432.3 94.94 432.52 96.56 432.77 98.17 433.01 99.82 433.28 101.46 433.55 103.13 433.85 104.8 434.15 106.5 434.47 108.2 434.8 109.92 435.15 111.65 435.5 113.4 435.88 115.15 436.26 116.94 436.67 118.72 437.07 120.53 437.51 122.33 437.95 124.17 438.41 126.01 438.88 127.87 439.37 129.74 439.87 131.63 440.4 133.52 440.92 135.44 441.48 137.36 442.04 139.31 442.62 139.31 442.62 139.31 442.62 139.27 440.89 139.22 439.21 139.17 437.53 139.12 435.9 139.06 434.27 138.99 432.69 138.92 431.11 138.84 429.59 138.68 426.54 138.48 423.7 138.28 420.87 138.04 418.24 137.8 415.62 137.51 413.21 137.23 410.8 136.9 408.6 136.57 406.41 136.19 404.42 135.82 402.44 135.4 400.68 134.98 398.92 134.48 397.26 133.99 395.61 133.42 394.07 132.85 392.53 132.2 391.1 131.55 389.67 130.82 388.36 130.1 387.05 129.29 385.85 128.49 384.65 127.61 383.57 126.73 382.48 125.77 381.51 124.81 380.54 123.78 379.69 122.74 378.83 121.57 378.03 120.4 377.23 119.09 376.47 117.78 375.73 116.34 375.03 114.9 374.33 113.32 373.69 111.74 373.04 110.02 372.45 108.3 371.86 106.45 371.33 104.59 370.79 102.59 370.31 100.6 369.83 98.46 369.4 98.46 369.4 98.46 369.4 96.27 368.96 94.23 368.59 92.19 368.21 90.31 367.9 88.43 367.58 86.71 367.33 84.98 367.07 83.42 366.88 81.85 366.68 80.44 366.54 79.03 366.4 77.78 366.31 76.53 366.23 75.44 366.2 74.35 366.17 73.43 366.19 73.43 366.19 73.43 366.19 72.89 367.41 72.36 368.62 71.83 369.83 71.29 371.03 70.76 372.23 70.23 373.42 69.7 374.6 69.17 375.78 68.65 376.95 68.12 378.12 67.59 379.29 67.07 380.44 66.55 381.6 66.03 382.74 65.51 383.89 64.99 385.02 64.47 386.16 63.96 387.28 63.44 388.41 62.93 389.52 62.42 390.63 61.91 391.74 61.4 392.84 60.9 393.94 60.39 395.03 59.89 396.12 59.39 397.2 58.89 398.28 58.4 399.36 57.9 400.43 57.41 401.49 56.92 402.55 54.84 401.8 52.75 401.06 50.65 400.31 48.55 399.57 46.43 398.83 44.31 398.09 42.18 397.34 40.04 396.6 37.89 395.86 35.74 395.12 33.57 394.38 31.4 393.63 29.22 392.89 27.04 392.14 24.84 391.39 22.64 390.64 22.3 389.46 21.96 388.27 21.62 387.09 21.29 385.9 20.97 384.72 20.65 383.53 20.34 382.35 20.03 381.16 19.72 379.98 19.43 378.79 19.13 377.6 18.85 376.42 18.56 375.23 18.29 374.05 18.01 372.86 17.75 371.67 17.49 370.49 17.23 369.3 16.98 368.11 16.74 366.93 16.49 365.74 16.26 364.55 16.03 363.36 15.81 362.18 15.59 360.99 15.38 359.8 15.17 358.61 14.97 357.42 14.78 356.23 14.59 355.04 14.41 353.85 14.23 352.66 14.06 351.47 13.89 350.28 13.73 349.09 13.58 347.9 13.42 346.71 13.28 345.51 13.14 344.32 13.01 343.12 12.89 341.93 12.77 340.74 12.65 339.54 12.55 338.34 12.44 337.15 12.35 335.95 12.26 334.75 12.18 333.55 12.1 332.35 12.03 331.15 11.96 329.94 11.9 328.74 11.85 327.53 11.8 326.33 11.76 325.12 11.73 323.91 11.7 322.69 11.68 321.48 11.66 320.26 11.65 319.04 11.65 317.82 11.65 316.59 11.66 315.36 11.68 314.13 11.68 314.13 11.68 314.13 13.39 313.7 15.11 313.25 16.82 312.78 18.53 312.3 20.23 311.81 21.93 311.31 23.61 310.8 25.3 310.3 26.97 309.79 28.66 309.29 30.33 308.78 32.01 308.29 33.68 307.79 35.36 307.3 37.03 306.81 38.72 306.33 40.4 305.85 42.09 305.39 43.78 304.92 45.48 304.47 47.18 304.01 48.89 303.58 50.6 303.14 52.33 302.71 54.05 302.29 55.78 301.89 57.52 301.49 59.27 301.12 61.01 300.77 62.78 300.46 64.53 300.17 66.31 299.91 68.08 299.66 69.84 299.41 71.59 299.16 73.34 298.92 75.08 298.7 76.8 298.53 78.52 298.39 80.23 298.28 81.94 298.15 83.63 297.99 85.33 297.79 87.02 297.6 88.7 297.43 90.36 297.36 92.02 297.35 93.66 297.39 95.3 297.43 96.93 297.49 98.56 297.54 100.18 297.63 101.79 297.7 103.4 297.74 105.01 297.64 106.62 297.54 108.22 297.44 109.81 297.38 111.38 297.49 112.94 297.66 114.5 297.84 116.05 298.03 117.59 298.23 119.12 298.45 119.12 298.45 119.12 298.45 120.52 298.65 121.9 298.87 123.27 299.09 124.62 299.33 125.97 299.57 127.29 299.83 128.62 300.09 129.92 300.37 131.22 300.67 132.49 300.99 133.76 301.32 135.01 301.67 136.26 302.02 137.48 302.39 138.7 302.75 139.9 303.13 141.1 303.51 142.28 303.92 143.45 304.34 144.58 304.82 145.72 305.33 146.82 305.88 147.92 306.43 149 306.99 150.09 307.53 151.15 308.08 152.22 308.6 153.27 309.12 154.32 309.63 155.35 310.16 156.37 310.69 157.38 311.23 159.38 312.32 161.29 313.51 163.2 314.7 165 315.98 166.81 317.29 168.51 318.69 170.2 320.11 171.8 321.63 173.4 323.15 174.9 324.76 176.39 326.38 177.79 328.07 179.19 329.77 180.5 331.55 181.8 333.34 183 335.22 184.2 337.1 185.33 339.1 186.46 341.11 187.51 343.24 188.56 345.38 189.53 347.64 190.51 349.91 191.41 352.3 192.3 354.7 193.13 357.23 193.95 359.76 194.69 362.41 195.44 365.08 196.11 367.86 196.78 370.65 197.38 373.57 197.97 376.49 198.49 379.53 199.01 382.57 199.46 385.74 199.9 388.91 200.28 392.19 200.46 393.84 200.63 395.52 200.8 397.19 200.95 398.9 201.1 400.6 201.23 402.34 201.36 404.07 201.47 405.84 201.58 407.6 201.68 409.4 201.77 411.19 201.85 413.02 201.93 414.84 201.98 416.69 202.04 418.55 202.08 420.43 202.12 422.31 202.14 424.22 202.17 426.13 202.17 428.07 202.17 428.07 202.17 428.07 202.17 430.18 202.18 432.29 202.18 434.4 202.19 436.51 202.19 438.62 202.19 440.73 202.2 442.84 202.2 444.95 202.21 447.07 202.21 449.18 202.22 451.29 202.22 453.4 202.22 455.51 202.23 457.62 202.23 459.73 202.24 461.84 202.24 463.96 202.25 466.07 202.25 468.18 202.26 470.29 202.26 472.4 202.27 474.52 202.27 476.63 202.27 478.74 202.28 480.85 202.28 482.96 202.29 485.08 202.29 487.19 202.3 489.3 202.3 491.42 202.31 493.53 202.31 495.64 202.31 497.76 202.32 499.87 202.32 501.98 202.32 504.1 202.33 506.21 202.33 508.33 202.33 510.44 202.34 512.56 202.34 514.67 202.34 516.79 202.35 518.9 202.35 521.02 202.35 523.14 202.35 525.25 202.36 527.37 202.36 529.49 202.36 531.61 202.36 533.72 202.36 535.84 202.36 537.96 202.37 540.08 202.37 542.2 202.37 544.32 202.37 546.44 202.37 548.56 202.37 550.68 202.36 552.8 202.36 554.92 202.36 557.05 202.36 559.17 202.36 561.29 202.36 563.42 202.35 566.35 202.44 568.87 202.52 571.39 202.69 573.51 202.87 575.62 203.13 577.33 203.39 579.04 203.74 580.35 204.44 582.96 206.01 585.96 206.79 587.46 207.79 589.06 208.79 590.66 210.01 592.36 210.01 592.36 210.01 592.36 211.02 593.75 212.04 595.15 213.05 596.55 214.07 597.94 215.09 599.33 216.11 600.73 217.12 602.12 218.14 603.51 219.16 604.89 220.18 606.28 221.2 607.67 222.22 609.05 223.24 610.43 224.26 611.82 225.28 613.19 226.1 614.49 226.2 617.08 226.1 619.58 225.99 622.08 225.89 624.59 225.79 627.09 225.69 629.59 225.58 632.1 225.48 634.6 225.38 637.1 225.27 639.61 225.17 642.11 225.07 644.62 224.96 647.12 224.86 649.63 224.75 652.13 224.65 654.64 223.14 654.57 221.65 654.5 220.16 654.42 218.68 654.33 217.2 654.23 215.74 654.12 214.27 654.01 212.82 653.89 211.37 653.76 209.95 653.62 208.52 653.48 207.11 653.32 205.7 653.16 204.32 652.98 202.93 652.8 201.57 652.61 200.21 652.41 198.87 652.2 197.54 651.98 196.22 651.75 194.91 651.52 193.62 651.28 192.34 651.03 191.07 650.76 189.81 650.5 188.57 650.22 187.33 649.94 186.12 649.64 184.9 649.34 183.71 649.04 182.52 648.72 181.36 648.4 180.19 648.07 179.05 647.73 177.91 647.39 176.8 647.04 175.68 646.68 174.59 646.32 173.5 645.95 172.43 645.57 171.36 645.19 170.32 644.8 169.28 644.41 168.26 644.01 167.24 643.6 166.24 643.19 165.24 642.77 164.27 642.35 162.33 641.49 160.47 640.61 158.62 639.72 156.85 638.8 155.09 637.87 153.41 636.92 151.74 635.96 150.15 634.98 150.15 634.98 150.15 634.98 149.8 632.83 149.31 629.03 149.06 627.13 148.78 624.81 148.51 622.49 148.19 619.76 147.88 617.03 147.58 614.38 147.29 611.73 147.02 609.15 146.74 606.58 146.49 604.09 146.23 601.6 145.99 599.19 145.99 599.19 145.99 599.19 145.05 599.55 144.1 599.88 143.16 600.2 142.2 600.49 141.25 600.77 140.29 601.01 139.33 601.25 138.36 601.46 137.4 601.65 136.43 601.81 135.46 601.97 134.48 602.09 133.51 602.2 132.53 602.27 131.55 602.34 130.56 602.37 129.58 602.4 128.59 602.39 127.61 602.37 126.62 602.32 125.63 602.26 124.63 602.16 123.64 602.06 122.64 601.92 121.65 601.77 120.65 601.58 119.65 601.39 118.65 601.16 117.65 600.93 116.65 600.66 115.65 600.38 114.65 600.06 113.64 599.74 112.65 599.38 111.67 599.02 110.69 598.62 109.72 598.22 108.76 597.78 107.8 597.33 106.85 596.85 105.91 596.37 104.98 595.85 104.05 595.33 103.13 594.78 102.21 594.22 101.31 593.62 100.41 593.02 99.51 592.39 98.62 591.76 97.75 591.09 96.87 590.41 96 589.71 95.14 589 94.28 588.26 93.44 587.52 92.6 586.74 91.75 585.96 90.92 585.15 90.1 584.34 89.28 583.49 88.46 582.52 87.64 581.58 86.84 580.63 86.05 579.71 86.05 579.71 86.05 579.71 86.05 579.71 86.05 579.71M106.5 535.9Q107.41 536.56 108.34 537.18 109.27 537.8 110.23 538.38 111.19 538.95 112.17 539.48 113.15 540 114.15 540.48 115.16 540.96 116.2 541.38 117.23 541.81 118.29 542.18 119.36 542.56 120.45 542.88 121.54 543.2 122.65 543.46 123.77 543.73 124.92 543.94 126.07 544.15 127.25 544.3 128.43 544.45 129.63 544.55 130.84 544.64 132.08 544.68 133.32 544.71 134.59 544.69 135.86 544.66 137.16 544.58 138.46 544.48 139.79 544.34 141.13 544.18 142.49 543.97 142.49 543.97 142.49 543.97 142.37 541.03 142.24 538.09 142.11 535.15 141.98 532.23 141.84 529.3 141.7 526.39 141.56 523.48 141.41 520.57 141.26 517.67 141.11 514.77 140.96 511.88 140.81 508.99 140.65 506.1 140.49 503.22 140.33 500.35 140.17 497.47 138.97 496.74 137.88 496.08 136.78 495.42 135.79 494.83 133.8 493.63 132.21 492.71 130.61 491.78 129.42 491.13 128.23 490.47 127.43 490.08 127.43 490.08 127.43 490.08 126.09 489.41 124.7 488.77 123.31 488.13 121.86 487.51 120.42 486.88 118.92 486.28 117.42 485.67 115.86 485.08 114.31 484.49 112.7 483.91 111.1 483.33 109.44 482.76 107.78 482.2 106.07 481.64 104.36 481.09 102.6 480.54 100.83 479.99 99.16 479.5 97.49 479 95.92 478.56 94.34 478.11 92.86 477.72 91.38 477.33 90 476.99 88.61 476.66 87.32 476.37 86.03 476.09 84.84 475.86 83.65 475.63 82.55 475.46 81.45 475.29 80.45 475.17 80.45 475.17 80.45 475.17 80.33 476.65 80.28 478.11 80.24 479.57 80.26 481 80.29 482.43 80.38 483.84 80.48 485.25 80.64 486.64 80.64 486.64 80.64 486.64 80.86 488.54 81.16 490.4 81.47 492.26 81.86 494.08 82.25 495.9 82.73 497.68 83.2 499.47 83.75 501.22 84.3 502.97 84.93 504.69 85.55 506.42 86.26 508.11 86.96 509.8 87.74 511.46 88.51 513.13 89.37 514.76 90.22 516.4 91.12 517.96 92.03 519.53 92.98 521.01 93.93 522.51 94.94 523.92 95.95 525.33 97.02 526.66 98.08 527.99 99.2 529.24 100.32 530.48 101.51 531.64 102.69 532.8 103.94 533.86 105.19 534.93 106.5 535.9 106.5 535.9 106.5 535.9 106.5 535.9 106.5 535.9M316.65 698.3Q315.45 698.18 314.27 698.09 313.09 698.01 311.92 697.93 310.76 697.73 309.61 697.49 308.46 697.25 307.33 696.97 306.19 696.69 305.08 696.37 303.96 696.05 302.87 695.69 301.77 695.33 300.69 694.93 299.61 694.52 298.54 694.08 297.48 693.63 296.43 693.15 295.39 692.66 294.36 692.14 293.33 691.61 292.31 691.05 291.3 690.49 290.31 689.88 289.31 689.28 288.33 688.64 287.36 687.99 286.39 687.31 285.43 686.63 284.49 685.91 283.54 685.19 282.62 684.43 281.69 683.67 280.78 682.88 279.87 682.08 278.97 681.25 278.08 680.42 277.2 679.55 276.32 678.69 275.46 677.79 274.6 676.89 273.75 675.96 272.9 675.02 272.07 674.06 271.24 673.09 270.42 672.1 269.6 671.1 268.8 670.08 268 669.06 267.21 668 266.42 666.95 265.64 665.88 264.87 664.8 264.11 663.69 263.34 662.59 262.59 661.46 261.84 660.34 261.11 659.19 260.37 658.04 259.64 656.86 258.92 655.69 258.2 654.49 257.49 653.3 256.79 652.08 256.09 650.86 255.4 649.63 254.72 648.41 254.05 647.17 253.38 645.93 252.74 644.67 252.09 643.42 251.45 642.16 250.82 640.9 250.21 639.62 249.59 638.34 249 637.05 248.4 635.76 247.83 634.46 247.25 633.15 246.69 631.83 246.13 630.51 245.6 629.18 245.06 627.84 244.54 626.49 244.02 625.14 243.52 623.77 243.02 622.4 242.54 621.02 242.06 619.63 241.6 618.23 241.14 616.83 240.7 615.41 240.27 613.99 239.86 612.56 239.45 611.12 239.06 609.67 238.69 608.21 238.34 606.74 238 605.27 237.68 603.78 237.37 602.29 237.09 600.78 236.8 599.27 236.54 597.74 236.28 596.22 236.05 594.67 235.81 593.13 235.59 591.56 235.38 590 235.18 588.41 234.99 586.83 234.82 585.23 234.65 583.63 234.5 582.01 234.35 580.39 234.22 578.75 234.09 577.11 233.99 575.45 233.88 573.79 233.79 572.11 233.71 570.43 233.64 568.74 233.58 567.04 233.54 565.32 233.5 563.61 233.47 561.87 233.45 560.14 233.45 558.38 233.45 558.38 233.45 558.38 233.45 556.37 233.48 554.39 233.51 552.41 233.57 550.46 233.63 548.52 233.71 546.6 233.8 544.69 233.92 542.82 234.03 540.94 234.18 539.1 234.32 537.26 234.49 535.46 234.67 533.65 234.87 531.88 235.07 530.11 235.3 528.38 235.53 526.64 235.79 524.94 236.05 523.24 236.34 521.58 236.63 519.91 236.95 518.28 237.27 516.65 237.61 515.06 237.96 513.47 238.33 511.91 238.71 510.35 239.11 508.83 239.52 507.3 239.95 505.82 240.38 504.33 240.84 502.88 241.31 501.42 241.8 500.01 242.29 498.59 242.8 497.21 243.32 495.83 243.87 494.48 244.42 493.14 245 491.83 245.57 490.52 246.18 489.25 246.78 487.97 247.42 486.74 248.05 485.5 248.71 484.3 249.38 483.09 250.07 481.93 250.76 480.76 251.48 479.63 252.2 478.5 252.95 477.41 253.7 476.32 254.47 475.26 255.25 474.2 256.06 473.18 256.86 472.16 257.7 471.18 258.53 470.2 259.4 469.25 260.26 468.3 261.15 467.39 262.05 466.48 262.97 465.6 263.89 464.73 264.83 463.89 265.78 463.06 266.75 462.26 267.72 461.46 268.71 460.69 269.71 459.93 270.72 459.21 271.74 458.48 272.79 457.8 273.83 457.11 274.9 456.46 275.96 455.81 277.05 455.2 278.15 454.58 279.26 454.01 280.38 453.44 281.52 452.9 282.66 452.36 283.82 451.86 284.99 451.36 286.17 450.9 287.36 450.44 288.58 450.01 289.79 449.59 291.03 449.2 292.26 448.82 293.53 448.47 294.79 448.12 296.07 447.8 297.36 447.49 298.67 447.22 299.98 446.94 301.32 446.7 302.65 446.46 304.01 446.26 305.37 446.06 306.75 445.9 308.14 445.73 309.55 445.6 310.95 445.47 312.39 445.38 313.82 445.29 315.27 445.23 316.73 445.18 318.21 445.16 319.69 445.14 321.2 445.15 322.71 445.17 324.24 445.22 325.77 445.27 327.32 445.36 328.88 445.44 330.45 445.56 332.03 445.68 333.64 445.84 335.24 446 336.87 446.19 338.5 446.37 340.15 446.6 341.8 446.82 343.48 447.08 345.16 447.34 346.86 447.63 346.86 447.63 346.86 447.63 347.66 447.76 349.36 448.11 350.21 448.28 351.29 448.5 352.36 448.72 353.67 449 354.97 449.27 356.49 449.59 358.02 449.92 359.77 450.29 361.52 450.66 363.5 451.08 364.49 451.29 365.54 451.51 366.58 451.74 367.68 451.97 367.68 451.97 367.68 451.97 367.68 450.36 367.67 448.75 367.67 447.15 367.66 445.54 367.65 443.94 367.65 442.33 367.64 440.73 367.64 439.12 367.63 437.52 367.63 435.91 367.62 434.31 367.61 432.71 367.61 431.1 367.6 429.5 367.59 427.9 367.59 426.3 367.58 425.12 367.56 424.05 367.54 422.97 367.49 421.99 367.41 420.03 367.25 418.46 367.1 416.88 366.87 415.69 366.64 414.5 366.33 413.7 365.73 412.08 364.02 410.14 363.16 409.17 362.03 408.12 360.9 407.07 359.5 405.93 359.5 405.93 359.5 405.93 358.37 405.09 357.24 404.25 356.11 403.4 354.98 402.55 353.86 401.7 352.73 400.85 351.6 400 350.47 399.15 349.34 398.3 348.22 397.44 347.09 396.59 345.96 395.73 344.83 394.87 343.71 394.01 342.58 393.15 341.45 392.29 341.57 390.25 341.68 388.22 341.8 386.19 341.91 384.16 342.03 382.13 342.14 380.1 342.26 378.07 342.37 376.04 342.49 374.01 342.6 371.98 342.72 369.95 342.83 367.93 342.94 365.9 343.06 363.88 343.17 361.85 343.29 359.83 344.48 359.88 345.66 359.94 346.83 359.99 347.99 360.05 349.15 360.1 350.29 360.15 351.42 360.2 352.54 360.25 353.66 360.3 354.76 360.34 355.86 360.39 356.94 360.43 358.03 360.47 359.09 360.52 360.15 360.56 361.19 360.6 362.23 360.65 363.26 360.69 364.28 360.74 365.28 360.79 367.29 360.89 369.21 360.99 371.14 361.09 372.99 361.18 374.84 361.27 376.62 361.34 378.4 361.39 380.1 361.45 381.8 361.51 383.42 361.59 385.04 361.68 386.57 361.79 388.11 361.91 389.56 362.03 391.02 362.15 392.39 362.26 393.78 362.37 395.08 362.46 396.39 362.54 397.62 362.6 398.86 362.64 400.02 362.68 401.18 362.72 402.31 362.76 403.43 362.83 404.52 362.92 405.61 363.02 406.66 363.14 407.72 363.26 408.74 363.37 409.77 363.47 410.78 363.55 411.79 363.6 412.77 363.65 414.74 363.72 416.58 363.83 418.41 364.02 420.11 364.25 421.82 364.48 423.4 364.72 425 364.91 426.47 365.11 427.95 365.31 429.31 365.52 429.31 365.52 429.31 365.52 429.77 366.82 430.2 368.17 430.63 369.5 431.02 370.87 431.42 372.22 431.79 373.6 432.16 374.97 432.5 376.38 432.84 377.78 433.14 379.21 433.45 380.63 433.73 382.09 434 383.54 434.24 385.03 434.49 386.51 434.7 388.03 434.7 388.03 434.7 388.03 434.71 389.84 434.72 391.65 434.74 393.45 434.75 395.26 434.76 397.07 434.77 398.88 434.78 400.68 434.79 402.49 434.8 404.29 434.81 406.1 434.82 407.9 434.83 409.71 434.84 411.51 434.85 413.32 434.86 415.12 434.87 416.93 434.88 418.73 434.89 420.53 434.9 422.34 434.9 424.14 434.91 425.95 434.92 427.75 434.93 429.56 434.93 431.36 434.94 433.16 434.94 434.97 434.95 436.77 434.95 438.58 434.96 440.38 434.96 442.19 434.97 443.99 434.97 445.8 434.97 447.6 434.98 449.41 434.98 451.22 434.98 453.02 434.99 454.83 434.99 456.63 434.99 458.44 435 460.25 435 462.05 435 463.86 435 465.67 435.01 467.47 435.01 469.28 435.01 471.09 435.01 472.9 435.02 474.7 435.02 476.51 435.02 478.32 435.02 480.13 435.02 481.94 435.03 483.74 435.03 485.55 435.03 487.36 435.03 489.17 435.03 490.98 435.03 492.79 435.04 494.6 435.04 496.41 435.04 498.22 435.04 500.03 435.04 501.84 435.05 503.65 435.05 505.46 435.05 507.27 435.05 509.08 435.05 510.9 435.05 512.71 435.06 514.52 435.06 516.33 435.06 518.14 435.06 519.96 435.06 521.77 435.07 523.58 435.07 525.4 435.07 527.21 435.07 529.02 435.07 530.84 435.07 532.65 435.08 534.47 435.08 536.28 435.08 538.1 435.08 539.91 435.08 541.73 435.09 543.55 435.09 545.36 435.09 547.18 435.09 549 435.09 550.82 435.1 552.63 435.1 554.45 435.1 556.27 435.1 558.09 435.1 559.91 435.11 561.73 435.11 563.55 435.11 565.37 435.11 567.19 435.12 569.02 435.12 570.84 435.12 572.66 435.12 574.49 435.13 576.31 435.13 578.14 435.13 579.96 435.13 581.79 435.14 583.62 435.14 585.44 435.14 587.27 435.15 589.1 435.15 590.93 435.15 592.76 435.15 594.59 435.16 596.43 435.16 598.26 435.17 600.09 435.17 601.93 435.17 603.77 435.18 605.6 435.18 607.44 435.18 609.28 435.19 611.13 435.19 612.97 435.2 614.81 435.2 616.66 435.21 618.51 435.21 620.36 435.22 622.23 435.31 623.82 435.4 625.4 435.58 626.7 435.76 628 436.02 629 436.28 630.01 436.63 630.72 437.33 632.15 438.97 633.52 439.79 634.21 440.84 634.88 441.89 635.55 443.18 636.2 443.18 636.2 443.18 636.2 444.12 636.75 445.07 637.29 446.01 637.83 446.95 638.38 447.89 638.92 448.83 639.46 449.77 640.01 450.71 640.55 451.65 641.1 452.59 641.64 453.54 642.19 454.48 642.74 455.42 643.29 456.36 643.84 457.3 644.39 458.04 644.95 458.14 646.5 458.04 648.06 457.94 649.62 457.84 651.18 457.75 652.74 457.65 654.3 457.55 655.86 457.45 657.42 457.35 658.98 457.25 660.54 457.15 662.1 457.06 663.67 456.96 665.23 456.86 666.8 456.76 668.37 456.66 669.94 455.46 670.37 454.26 670.82 453.07 671.3 451.87 671.79 450.68 672.3 449.49 672.83 448.31 673.37 447.12 673.92 445.94 674.49 444.76 675.06 443.58 675.63 442.4 676.21 441.22 676.79 440.05 677.36 438.87 677.94 437.69 678.51 436.51 679.08 435.34 679.65 434.16 680.21 432.98 680.76 431.81 681.31 430.63 681.85 429.45 682.39 428.28 682.92 427.1 683.45 425.92 683.96 424.74 684.47 423.57 684.97 422.39 685.46 421.21 685.94 420.03 686.42 418.85 686.89 417.68 687.35 416.5 687.8 415.32 688.24 414.14 688.67 412.96 689.1 411.78 689.52 410.6 689.93 409.42 690.32 408.24 690.72 407.06 691.1 405.89 691.47 404.71 691.83 403.53 692.19 402.35 692.53 401.17 692.87 399.99 693.2 398.81 693.52 397.63 693.83 396.45 694.13 395.28 694.43 394.1 694.71 392.92 694.99 391.74 695.25 390.57 695.51 389.39 695.76 388.21 696 387.04 696.23 385.86 696.45 384.68 696.66 383.51 696.87 382.33 697.06 381.16 697.25 381.16 697.25 381.16 697.25 380.79 696.08 380.43 694.85 380.06 693.62 379.7 692.32 379.33 691.01 378.96 689.65 378.6 688.28 378.23 686.84 377.86 685.41 377.5 683.91 377.13 682.41 376.76 680.85 376.39 679.3 376.03 677.68 375.66 676.06 375.29 674.38 375.29 674.38 375.29 674.38 374.45 675.2 373.61 676 372.76 676.8 371.91 677.57 371.06 678.34 370.21 679.09 369.35 679.84 368.49 680.56 367.63 681.28 366.77 681.98 365.9 682.67 365.03 683.34 364.16 684.01 363.29 684.65 362.42 685.29 361.54 685.9 359.78 687.13 358 688.25 356.22 689.36 354.42 690.36 352.63 691.35 350.81 692.24 348.99 693.12 347.16 693.89 345.33 694.65 343.47 695.31 341.62 695.95 339.75 696.48 337.88 697.01 335.99 697.42 334.1 697.83 332.19 698.13 330.28 698.41 328.36 698.59 326.43 698.75 324.49 698.81 322.55 698.87 320.59 698.74 318.63 698.47 316.65 698.3 316.65 698.3 316.65 698.3 316.65 698.3 316.65 698.3M339.4 635.35Q341.04 635.43 342.74 635.33 344.44 635.23 346.18 634.96 347.93 634.68 349.72 634.23 351.51 633.78 353.35 633.16 355.19 632.53 357.08 631.74 358.03 631.34 358.98 630.9 359.94 630.46 360.91 629.98 361.88 629.5 362.86 628.98 363.84 628.45 364.83 627.89 365.82 627.33 366.83 626.72 367.83 626.12 368.85 625.47 368.85 625.47 368.85 625.47 368.84 623.58 368.82 621.68 368.81 619.8 368.79 617.92 368.78 616.04 368.77 614.17 368.75 612.3 368.74 610.43 368.73 608.57 368.72 606.72 368.7 604.86 368.69 603.02 368.68 601.17 368.67 599.33 368.66 597.49 368.65 595.66 368.64 593.83 368.63 592 368.61 590.17 368.6 588.35 368.59 586.53 368.58 584.72 368.57 582.9 368.56 581.09 368.55 579.28 368.54 577.48 368.54 575.67 368.53 573.87 368.52 572.07 368.51 570.28 368.5 568.48 368.49 566.69 368.48 564.9 368.47 563.11 368.47 561.32 368.46 559.54 368.45 557.75 368.44 555.97 368.43 554.19 368.43 552.41 368.42 550.64 368.41 548.86 368.4 547.09 368.4 545.31 368.39 543.54 368.38 541.77 368.38 540.01 368.37 538.24 368.36 536.47 368.36 534.71 368.35 532.94 368.34 531.18 368.34 529.42 368.33 527.66 368.32 525.9 368.32 524.14 368.31 522.38 368.31 520.63 368.3 518.87 368.29 517.12 368.29 515.36 368.28 513.61 368.28 511.86 368.27 510.11 366.77 509.23 365.16 508.43 363.55 507.62 361.83 506.89 360.12 506.16 358.3 505.49 356.47 504.83 354.55 504.24 352.62 503.64 350.58 503.12 349.57 502.86 348.52 502.62 347.48 502.37 346.41 502.15 345.34 501.92 344.24 501.71 343.15 501.5 342.02 501.31 340.9 501.12 339.75 500.95 338.6 500.78 337.42 500.62 337.42 500.62 337.42 500.62 335.52 500.37 333.63 500.19 331.75 500.01 329.89 499.9 328.02 499.79 326.17 499.75 324.33 499.71 322.5 499.74 320.67 499.77 318.86 499.88 317.05 499.98 315.26 500.15 313.47 500.33 311.7 500.58 309.93 500.82 308.18 501.15 308.18 501.15 308.18 501.15 307.78 502.16 307.4 503.29 307.03 504.41 306.67 505.63 306.32 506.86 305.99 508.19 305.66 509.51 305.35 510.95 305.04 512.38 304.76 513.92 304.47 515.45 304.21 517.09 303.94 518.73 303.7 520.48 303.46 522.23 303.24 524.08 303.02 525.93 302.83 527.83 302.64 529.74 302.48 531.7 302.31 533.67 302.18 535.68 302.05 537.7 301.94 539.78 301.84 541.85 301.76 543.99 301.69 546.12 301.64 548.31 301.6 550.5 301.58 552.74 301.56 554.99 301.58 557.29 301.58 557.29 301.58 557.29 301.58 558.48 301.6 559.64 301.61 560.8 301.64 561.95 301.69 564.24 301.77 566.46 301.86 568.69 301.98 570.84 302.1 572.99 302.25 575.07 302.41 577.15 302.6 579.16 302.79 581.17 303.02 583.11 303.24 585.05 303.51 586.92 303.77 588.79 304.06 590.59 304.36 592.38 304.69 594.11 305.03 595.83 305.39 597.48 305.76 599.13 306.16 600.71 306.56 602.29 307 603.8 307.43 605.3 307.9 606.74 308.38 608.17 308.88 609.52 309.39 610.88 309.93 612.16 310.46 613.45 311.04 614.65 311.61 615.86 312.23 617 312.84 618.14 313.49 619.22 314.14 620.29 314.84 621.29 315.53 622.3 316.26 623.24 316.99 624.17 317.76 625.04 318.53 625.91 319.33 626.71 320.14 627.5 320.99 628.23 321.84 628.96 322.72 629.61 323.61 630.27 324.53 630.85 325.46 631.43 326.42 631.94 327.39 632.45 328.39 632.88 329.39 633.32 330.43 633.68 331.48 634.04 332.56 634.33 333.64 634.61 334.76 634.82 335.88 635.03 337.04 635.16 338.2 635.29 339.4 635.35 339.4 635.35 339.4 635.35 339.4 635.35 339.4 635.35M470.05 678.76Q470.05 677.83 470.06 676.7 470.07 675.56 470.08 674.42 470.09 673.29 470.11 672.15 470.12 671.02 470.13 669.88 470.14 668.74 470.16 667.61 470.17 666.47 470.18 665.34 470.19 664.2 470.21 663.07 470.22 661.94 470.23 660.8 470.25 659.67 470.26 658.53 470.27 657.4 470.29 656.26 470.3 655.13 470.31 654 470.33 652.86 470.34 651.73 470.35 650.59 470.37 649.46 470.38 648.33 470.39 647.19 470.41 646.06 470.42 644.92 470.44 643.79 470.45 642.66 472.47 641.37 474.48 640.07 476.49 638.77 478.5 637.46 480.49 636.14 482.49 634.82 484.48 633.48 486.46 632.15 488.45 630.8 490.42 629.45 492.4 628.09 494.37 626.72 496.34 625.35 498.3 623.97 500.26 622.59 502.22 621.2 502.31 619.41 502.4 617.62 502.49 615.84 502.58 614.06 502.66 612.28 502.75 610.5 502.83 608.72 502.92 606.95 503 605.18 503.08 603.41 503.16 601.64 503.24 599.87 503.32 598.11 503.4 596.35 503.47 594.58 503.54 592.82 503.62 591.06 503.69 589.3 503.76 587.55 503.83 585.79 503.9 584.04 503.97 582.28 504.03 580.53 504.1 578.78 504.17 577.03 504.23 575.28 504.3 573.53 504.36 571.78 504.43 570.03 504.49 568.29 504.55 566.54 504.62 564.8 504.68 563.05 504.74 561.31 504.8 559.56 504.87 557.82 504.93 556.08 504.99 554.34 505.05 552.6 505.11 550.86 505.17 549.12 505.24 547.38 505.3 545.64 505.36 543.9 505.42 542.16 505.48 540.43 505.54 538.69 505.6 536.95 505.65 535.22 505.71 533.48 505.77 531.75 505.83 530.01 505.89 528.28 505.95 526.54 506 524.81 506.06 523.08 506.12 521.34 506.17 519.61 506.23 517.88 506.29 516.14 506.34 514.41 506.4 512.68 506.45 510.95 506.51 509.22 504.32 509.68 502.14 510.15 499.95 510.61 497.77 511.07 495.59 511.54 493.41 512 491.23 512.46 489.05 512.93 486.87 513.39 484.7 513.85 482.52 514.32 480.35 514.78 478.17 515.25 476 515.71 473.82 516.18 471.65 516.64 471.65 515.42 471.65 514.19 471.65 512.97 471.65 511.74 471.65 510.52 471.65 509.29 471.65 508.07 471.65 506.85 471.65 505.62 471.65 504.4 471.65 503.17 471.65 501.95 471.65 500.72 471.65 499.5 471.65 498.27 471.65 497.05 471.65 495.82 471.65 494.6 471.65 493.37 471.65 492.15 471.65 490.92 471.65 489.7 471.65 488.48 471.65 487.25 471.65 486.03 471.65 484.8 471.65 483.58 471.65 482.35 471.65 481.13 471.65 479.9 471.65 478.68 471.65 477.45 473.88 476.98 476.11 476.51 478.35 476.04 480.59 475.58 482.83 475.13 485.07 474.67 487.32 474.23 489.56 473.78 491.81 473.34 494.07 472.9 496.32 472.47 498.58 472.04 500.84 471.61 503.1 471.19 505.37 470.77 507.64 470.35 507.68 468.83 507.72 467.3 507.76 465.77 507.8 464.24 507.84 462.72 507.88 461.19 507.92 459.66 507.96 458.14 507.99 456.61 508.03 455.09 508.07 453.57 508.11 452.04 508.14 450.52 508.18 449 508.22 447.48 508.25 445.96 508.28 444.9 508.33 443.85 508.38 442.8 508.46 441.77 508.54 440.73 508.64 439.71 508.75 438.69 508.88 437.68 509.02 436.68 509.18 435.69 509.34 434.7 509.52 433.73 509.71 432.75 509.93 431.79 510.14 430.84 510.39 429.9 510.63 428.96 510.9 428.03 511.17 427.11 511.47 426.21 512.07 424.4 512.78 422.66 513.49 420.94 514.31 419.28 515.14 417.63 516.08 416.05 517.02 414.49 518.07 413 519.12 411.53 520.29 410.13 521.46 408.75 522.75 407.45 524.03 406.16 525.43 404.95 526.84 403.76 528.35 402.65 529.87 401.55 531.51 400.53 533.14 399.53 534.89 398.6 536.64 397.68 538.51 396.84 540.38 396 542.35 395.24 544.32 394.49 546.39 393.8 548.47 393.12 550.65 392.51 552.83 391.9 555.11 391.35 557.39 390.81 559.77 390.32 562.16 389.83 564.64 389.38 567.13 388.92 569.72 388.49 571.02 388.27 572.34 388.06 573.66 387.85 575.01 387.65 576.35 387.45 577.72 387.27 579.1 387.1 580.49 386.94 581.89 386.8 583.3 386.7 584.72 386.61 586.16 386.56 587.6 386.51 589.07 386.47 590.53 386.38 592.02 386.26 593.52 386.1 595.04 385.94 596.56 385.74 598.1 385.51 599.64 385.25 601.2 385 602.76 384.75 604.36 384.58 605.95 384.48 607.58 384.41 609.2 384.34 610.85 384.28 612.5 384.23 614.18 384.19 615.85 384.15 617.55 384.11 619.25 384 620.97 383.91 622.69 383.81 624.43 383.71 624.43 383.71 624.43 383.71 626.21 383.45 628.04 383.19 629.87 382.93 631.75 382.7 633.64 382.56 635.57 382.43 637.5 382.3 639.48 382.21 641.47 382.14 643.5 382.07 645.53 381.96 647.59 381.74 649.66 381.52 651.78 381.3 653.9 381.08 656.06 380.87 658.23 380.66 660.45 380.45 662.67 380.24 664.95 380.04 667.23 379.82 669.56 379.6 671.89 379.36 674.28 379.09 676.68 378.8 679.16 378.54 681.68 378.33 684.33 378.19 687.08 378.13 690.05 378.21 693.24 378.51 696.34 378.99 696.34 378.99 696.34 378.99 697.27 381.22 697.53 383.12 697.01 384.31 696.46 385.47 695.92 386.64 695.39 387.81 694.85 388.99 694.31 390.16 693.77 391.34 693.23 392.52 692.69 393.69 692.14 394.87 691.59 396.05 691.04 397.23 690.49 398.41 689.93 399.58 689.37 400.76 688.81 401.94 688.24 403.12 687.68 404.29 687.1 405.47 686.53 406.65 685.95 407.83 685.37 409.01 684.79 410.19 684.2 411.36 683.61 412.54 683.02 413.72 682.42 414.9 681.82 416.08 681.22 417.26 680.62 418.44 679.07 418.43 677.54 418.42 676.02 418.41 674.51 418.4 673.01 418.39 671.53 418.38 670.05 418.37 668.59 418.37 667.13 418.35 665.7 418.35 664.27 418.34 662.86 418.33 660.05 418.31 657.34 418.31 654.63 418.3 652.02 418.31 649.41 418.31 646.91 418.33 644.41 418.34 642.01 418.37 639.62 418.4 637.32 418.44 635.03 418.48 632.74 418.54 630.45 418.6 628.16 418.68 625.86 418.75 623.57 418.84 621.28 418.93 618.98 419.04 616.69 419.14 614.39 419.27 612.1 419.39 609.8 419.53 607.51 419.66 605.21 419.82 602.91 419.97 600.61 420.14 600.61 420.14 600.61 420.14 600.52 421.23 600.43 422.31 600.34 423.4 600.24 424.49 600.14 425.58 600.04 426.68 599.94 427.78 599.84 428.88 599.73 429.98 599.62 431.08 599.52 432.19 599.41 433.29 599.29 434.4 599.18 435.51 599.06 436.62 598.94 437.73 598.82 438.85 598.7 439.96 598.58 441.08 598.45 442.2 598.33 443.32 598.2 444.44 598.07 445.56 597.93 446.68 597.8 447.8 597.67 448.93 597.53 450.05 597.39 451.17 597.25 452.3 597.11 453.43 596.96 454.55 596.82 455.68 598.76 455.36 600.7 455.04 602.64 454.72 604.59 454.39 606.54 454.07 608.49 453.74 610.44 453.42 612.39 453.09 614.35 452.76 616.31 452.44 618.27 452.11 620.24 451.77 622.2 451.44 624.17 451.11 626.14 450.78 628.12 450.44 630.09 450.1 632.07 449.77 634.05 449.43 636.03 449.09 638.01 448.75 640 448.41 641.99 448.06 643.98 447.72 645.97 447.37 647.96 447.02 649.96 446.67 651.95 446.32 653.95 445.97 655.95 445.62 657.95 445.26 659.95 444.9 659.72 445.94 659.49 446.97 659.26 448 659.02 449.04 658.78 450.07 658.53 451.1 658.29 452.13 658.04 453.16 657.79 454.2 657.53 455.23 657.27 456.25 657.01 457.28 656.75 458.31 656.49 459.34 656.22 460.37 655.95 461.39 655.67 462.42 655.4 463.44 655.12 464.47 654.84 465.49 654.55 466.52 654.27 467.54 653.98 468.56 653.69 469.58 653.39 470.6 653.1 471.62 652.8 472.64 652.5 473.66 652.19 474.68 651.88 475.69 651.57 476.71 651.26 477.73 649.37 478.14 647.48 478.55 645.59 478.96 643.7 479.37 641.81 479.78 639.92 480.19 638.04 480.6 636.16 481.01 634.27 481.42 632.4 481.82 630.52 482.23 628.64 482.64 626.77 483.05 624.9 483.45 623.03 483.86 621.16 484.27 619.3 484.67 617.43 485.08 615.57 485.48 613.71 485.89 611.85 486.29 610 486.7 608.15 487.1 606.29 487.5 604.44 487.91 602.6 488.31 600.75 488.71 598.91 489.11 597.07 489.51 595.23 489.91 593.39 490.31 591.55 490.71 591.34 491.95 591.13 493.19 590.91 494.43 590.7 495.68 590.48 496.92 590.26 498.16 590.04 499.4 589.82 500.64 589.59 501.89 589.37 503.13 589.14 504.37 588.91 505.61 588.68 506.85 588.45 508.1 588.22 509.34 587.98 510.58 587.75 511.82 587.51 513.07 587.27 514.31 587.03 515.55 586.79 516.8 586.55 518.04 586.31 519.28 586.06 520.53 585.82 521.77 585.57 523.01 585.32 524.26 585.08 525.5 584.83 526.75 584.58 527.99 584.32 529.24 584.07 530.49 583.82 531.73 583.56 532.98 583.31 534.23 583.05 535.48 582.79 536.73 582.54 537.98 582.28 539.23 582.02 540.48 581.76 541.74 581.5 542.99 581.24 544.24 580.98 545.5 580.72 546.76 580.46 548.02 580.2 549.28 579.94 550.54 579.68 551.8 579.42 553.07 579.16 554.33 578.9 555.6 578.65 556.87 578.39 558.14 578.13 559.42 577.87 560.7 577.62 561.98 577.37 563.26 577.11 564.54 576.86 565.83 576.61 567.12 576.36 568.42 576.12 569.72 575.88 571.02 575.56 572.72 575.38 574.1 575.21 575.48 575.16 576.54 575.12 577.59 575.21 578.31 575.29 579.03 575.51 579.41 575.93 580.18 577.47 580.3 578.24 580.35 579.28 580.23 580.31 580.11 581.62 579.82 581.62 579.82 581.62 579.82 583.06 579.45 584.5 579.07 585.93 578.69 587.35 578.29 588.76 577.88 590.17 577.46 591.56 577.02 592.95 576.58 594.33 576.13 595.7 575.66 597.06 575.19 598.42 574.7 599.76 574.2 601.1 573.69 602.42 573.17 603.74 572.64 603.32 573.99 602.91 575.35 602.51 576.73 602.13 578.12 601.76 579.53 601.4 580.96 601.07 582.41 600.75 583.87 600.45 585.36 600.16 586.87 599.89 588.4 599.64 589.94 599.41 591.51 599.19 593.09 598.97 594.68 598.77 596.09 597.08 597.8 595.36 599.49 593.64 601.18 591.9 602.84 590.16 604.51 588.4 606.15 586.63 607.79 584.85 609.41 583.06 611.02 581.26 612.62 579.44 614.2 577.62 615.78 575.79 617.34 573.94 618.89 572.09 620.42 570.22 621.94 568.35 623.46 566.45 624.95 564.56 626.44 562.65 627.91 560.74 629.37 558.81 630.81 556.87 632.24 554.92 633.66 552.96 635.07 551 636.46 549.02 637.84 547.04 639.21 545.04 640.55 543.04 641.89 541.02 643.21 539 644.52 536.97 645.82 534.93 647.1 532.88 648.38 530.82 649.62 528.76 650.87 526.68 652.09 524.6 653.3 522.51 654.5 520.4 655.68 518.3 656.85 516.18 658 514.06 659.14 511.92 660.26 509.78 661.37 507.64 662.47 505.48 663.55 503.32 664.61 501.15 665.66 498.97 666.7 496.78 667.71 494.59 668.72 492.39 669.71 490.19 670.68 487.98 671.64 485.76 672.58 483.53 673.52 481.3 674.42 479.06 675.33 476.82 676.2 474.57 677.08 472.31 677.92 470.05 678.76 470.05 678.76 470.05 678.76"></path></svg>