<?xml version="1.0" encoding="utf-8"?>
<!-- Generator: Adobe Illustrator 24.0.1, SVG Export Plug-In . SVG Version: 6.00 Build 0)  -->
<svg version="1.1" id="Layer_1" xmlns="http://www.w3.org/2000/svg" xmlns:xlink="http://www.w3.org/1999/xlink" x="0px" y="0px"
	 viewBox="0 0 300 64" style="enable-background:new 0 0 300 64;" xml:space="preserve">
<style type="text/css">
	.st0{fill:#FFFFFF;}
</style>
<g>
	<g>
		<g>
			<path class="st0" d="M34.8,9.1H21.9v37.9h-9.1V9.1H0V0h34.8V9.1z"/>
		</g>
		<g>
			<path class="st0" d="M68.2,31.1H41.3c0.6,5.9,4.4,8.9,9.1,8.9c3.5,0,6.6-1.7,7.8-4.6h9.4C65,44.1,58,47.9,50.5,47.9
				c-11,0-18.5-8.2-18.5-19.2c0-11.1,7.6-19.4,18.3-19.4C61.9,9.3,69.1,18.9,68.2,31.1z M41.7,24h16.8c-1-4-3.9-6.8-8.3-6.8
				C45.8,17.2,42.9,20,41.7,24z"/>
		</g>
		<g>
			<path class="st0" d="M92.6,47.1l-7.2-11.6l-6.8,11.6h-11L80,28L68.2,10.1h10.8l6.6,10.8l6.2-10.8h11L91.1,28.2l12.3,18.8H92.6z"
				/>
		</g>
		<g>
			<path class="st0" d="M222.1,10.1l-0.1,37h-9.1v-5c-2.4,3.5-6.1,5.8-11,5.8c-9.2,0-16-7.9-16-19.3c0-11.4,7-19.3,16-19.3
				c5,0,8.7,2.4,11.1,6v-5.2H222.1z M212.9,28.6c0-6.1-3.9-10.2-9-10.2c-5.1,0-8.9,4.1-8.9,10.2c0,6.1,3.8,10.2,8.9,10.2
				C209,38.7,212.9,34.7,212.9,28.6z"/>
		</g>
		<g>
			<path class="st0" d="M249.6,9.4v9.9c-0.7-0.1-1.2-0.1-2.2-0.1c-5.8,0-10.8,2.7-10.8,11.4v16.5h-9.1v-37h9.1v6.5
				c2.2-4.8,6-7.3,11-7.3C248.4,9.3,249.1,9.3,249.6,9.4z"/>
		</g>
		<g>
			<path class="st0" d="M288.2,28.6c0,11.4-6.9,19.3-16,19.3c-5,0-8.6-2.3-11.1-5.8v21.8h-9.1V10.1h9.1v5.2c2.4-3.6,6.2-6,11.1-6
				C281.1,9.3,288.2,17.1,288.2,28.6z M278.9,28.6c0-6.1-3.8-10.2-8.9-10.2s-9,4.1-9,10.2c0,6.1,3.9,10.2,9,10.2
				C275.1,38.7,278.9,34.7,278.9,28.6z"/>
		</g>
		<g>
			<polygon class="st0" points="106.5,47.1 115.6,47.1 115.6,19.2 122.5,19.2 122.5,10.1 115.6,10.1 115.6,0 106.5,2.1 			"/>
		</g>
		<g>
			<g>
				<path class="st0" d="M184.7,0c-1,4.3-2.1,8.6-3.1,12.8c-0.2,0.9-0.5,1.8-0.6,2.7c-0.2,1.3,0.8,2,1.7,2.6
					c1.5,1.1,3.2,1.9,4.8,2.9c0.7,0.5,2.1,1.4,1.9,2.5c-0.2,1.2-2.2,2-3.1,2.5c-2,1-4.2,1.9-6.2,2.9c-1.1,0.6-2.5,1.3-3,2.6
					c-0.3,0.9-0.4,1.8-0.6,2.7c-1,4.3-2.1,8.6-3.1,12.8c-3.8,0-7.5,0-11.3,0c-0.7-3.2-1.3-6.5-2-9.7c-0.3-1.4-0.6-2.8-0.8-4.2
					c-0.1-0.6-0.4-1.4-0.4-2c0-0.9,0.9-1.5,1.5-2c2.1-1.5,4.7-2.3,6.6-4.2c2-2-1.2-3.4-2.6-4.2c-1.4-0.7-2.8-1.3-4.3-2
					c-1.3-0.6-3.1-1.3-4-2.5c-0.5-0.6-0.5-1.5-0.7-2.2c-0.2-0.9-0.4-1.9-0.6-2.8c-0.4,0-0.8,0-1.2,0c-0.2,0.9-0.4,1.9-0.6,2.8
					c-0.2,0.8-0.5,1.7-0.1,2.4c0.6,1.1,1.9,1.7,2.9,2.3c1.2,0.7,2.5,1.4,3.7,2.2c0.7,0.5,1.8,1.2,2,2.1c0.1,1-1,1.6-1.6,2.1
					c-2.5,1.7-5.4,2.5-8,4c-0.8,0.5-1.9,1-2.3,2c-0.3,0.7-0.3,1.5-0.5,2.2c-0.3,1.4-0.6,2.8-0.8,4.2c-0.6,3.2-1.3,6.3-1.9,9.5
					c-3.8,0-7.5,0-11.3,0c-1-4.3-2.1-8.6-3.1-12.8c-0.2-0.9-0.5-1.8-0.6-2.7c-0.2-1.3,0.8-2,1.7-2.6c1.5-1.1,3.2-1.9,4.8-2.9
					c0.7-0.5,2.1-1.4,1.9-2.5c-0.2-1.2-2.2-2-3.1-2.5c-2-1-4.2-1.9-6.2-2.9c-1.1-0.6-2.5-1.3-3-2.6c-0.3-0.9-0.4-1.8-0.6-2.7
					c-1-4.3-2.1-8.6-3.1-12.8c3.1,0,6.3,0,9.4,0c0.7,3.3,1.4,6.6,2.1,9.9c0.3,1.4,0.6,2.8,0.9,4.2c0.1,0.7,0.2,1.6,0.6,2.2
					c0.7,0.9,1.9,1.5,2.9,2c2.6,1.3,5.6,2.2,7.8,4c0.6,0.5,1.3,1.2,0.8,2.1c-0.5,1.1-1.9,1.7-2.8,2.3c-1.2,0.7-2.5,1.4-3.7,2.2
					c-0.7,0.5-2,1.2-2,2.3c0,0.8,0.4,1.8,0.5,2.6c0.2,0.9,0.4,1.9,0.6,2.8c0.2-0.9,0.4-1.9,0.6-2.8c0.2-0.8,0.3-1.7,0.5-2.4
					c0.4-1.2,1.7-1.8,2.7-2.3c1.6-0.9,3.4-1.6,5.1-2.4c1.2-0.6,5.4-2.1,4-4.2c-0.7-1-1.9-1.6-2.9-2.2c-1.1-0.7-2.3-1.3-3.4-2
					c-0.7-0.5-1.8-1.1-2.1-2c-0.2-0.6,0.1-1.4,0.2-2c0.3-1.5,0.6-2.9,0.9-4.4c0.7-3.3,1.4-6.6,2.1-9.9c3.8,0,7.7,0,11.5,0
					c0.7,3.3,1.4,6.6,2.1,10c0.3,1.4,0.6,2.8,0.9,4.2c0.2,0.7,0.2,1.6,0.7,2.2c0.7,0.9,2,1.5,3,2c1.4,0.7,2.9,1.3,4.3,2
					c1.2,0.6,2.5,1.1,3.5,2c0.6,0.5,1.2,1.2,0.7,2.1c-0.6,1.1-1.9,1.7-2.9,2.3c-1.2,0.7-2.5,1.4-3.7,2.2c-0.7,0.5-1.9,1.2-1.9,2.3
					c0,0.9,0.4,1.8,0.5,2.6c0.2,0.9,0.4,1.9,0.6,2.8c0.4-1.7,0.6-3.6,1.1-5.2c0.4-1.2,1.5-1.8,2.5-2.3c1.6-0.9,3.4-1.6,5-2.4
					c1.2-0.5,5.5-2.1,4.2-4.2c-0.6-1-1.9-1.6-2.8-2.2c-1.1-0.7-2.3-1.3-3.4-2c-0.7-0.5-1.8-1.1-2.2-2c-0.2-0.6,0.1-1.4,0.2-2
					c0.3-1.5,0.6-2.9,0.9-4.4c0.7-3.3,1.4-6.6,2.1-10C178.5,0,181.6,0,184.7,0z"/>
			</g>
		</g>
	</g>
	<g>
		<g>
			<path class="st0" d="M300,14.8c0,0.8-0.1,1.5-0.4,2.2c-0.3,0.7-0.6,1.3-1.1,1.8c-0.5,0.5-1,0.9-1.7,1.2c-0.6,0.3-1.3,0.4-2,0.4
				h-0.1c-0.7,0-1.4-0.1-2.1-0.4c-0.6-0.3-1.2-0.7-1.7-1.2c-0.5-0.5-0.8-1.1-1.1-1.8c-0.3-0.7-0.4-1.4-0.4-2.2v-0.1
				c0-0.8,0.1-1.5,0.4-2.1s0.6-1.2,1.1-1.8c0.5-0.5,1-0.9,1.7-1.2c0.6-0.3,1.3-0.4,2.1-0.4h0.1c0.7,0,1.4,0.1,2,0.4
				c0.6,0.3,1.2,0.7,1.7,1.2c0.5,0.5,0.8,1.1,1.1,1.8C299.9,13.3,300,14,300,14.8L300,14.8z M298.5,12.5c-0.4-0.7-0.9-1.2-1.5-1.6
				c-0.6-0.4-1.4-0.6-2.2-0.6h-0.1c-0.8,0-1.5,0.2-2.2,0.6c-0.6,0.4-1.2,0.9-1.5,1.6c-0.4,0.7-0.6,1.4-0.6,2.3v0.1
				c0,0.8,0.2,1.6,0.6,2.3c0.4,0.7,0.9,1.2,1.5,1.6c0.6,0.4,1.4,0.6,2.2,0.6h0.1c0.8,0,1.5-0.2,2.2-0.6c0.6-0.4,1.1-0.9,1.5-1.6
				c0.4-0.7,0.6-1.4,0.6-2.3v-0.1C299,13.9,298.8,13.2,298.5,12.5z M292.7,11.9h2.2c0.6,0,1.1,0.2,1.5,0.5c0.4,0.3,0.5,0.8,0.5,1.4
				v0c0,0.4-0.1,0.7-0.3,1c-0.2,0.3-0.5,0.5-0.8,0.6l1.3,2.3H296l-1.1-2.1c0,0,0,0-0.1,0s0,0-0.1,0h-1v2.1h-1V11.9z M294.9,14.7
				c0.3,0,0.6-0.1,0.8-0.3s0.3-0.4,0.3-0.7c0-0.3-0.1-0.5-0.3-0.7c-0.2-0.2-0.5-0.2-0.8-0.2h-1.1v1.9H294.9z"/>
		</g>
	</g>
</g>
</svg>
