<?xml version="1.0" encoding="iso-8859-1"?>
<!-- Generator: Adobe Illustrator 19.0.0, SVG Export Plug-In . SVG Version: 6.00 Build 0)  -->
<svg version="1.1" id="Layer_1" xmlns="http://www.w3.org/2000/svg" xmlns:xlink="http://www.w3.org/1999/xlink" x="0px" y="0px"
	 viewBox="0 0 512 512" style="enable-background:new 0 0 512 512;" xml:space="preserve">
<g>
	<g>
		<path d="M500.055,42.745l-30.81-30.81c-7.69-7.69-17.948-11.925-28.885-11.925c-10.937,0-21.195,4.235-28.885,11.925
			L56.312,367.099c-0.193,0.193-0.375,0.394-0.547,0.605c-0.141,0.171-0.267,0.35-0.392,0.529c-0.027,0.039-0.059,0.076-0.085,0.115
			c-0.317,0.474-0.578,0.974-0.784,1.49L0.616,500.709c-1.256,3.049-0.554,6.555,1.778,8.888c1.563,1.563,3.652,2.393,5.779,2.393
			c1.047,0,2.103-0.201,3.109-0.615l130.872-53.888c0.272-0.109,0.539-0.233,0.801-0.373c0.243-0.131,0.468-0.265,0.686-0.411
			c0.048-0.032,0.093-0.07,0.139-0.102c0.171-0.12,0.342-0.24,0.505-0.375c0.21-0.172,0.413-0.354,0.605-0.547l355.165-355.165
			C515.982,84.586,515.982,58.672,500.055,42.745z M23.19,488.798l10.334-25.098l14.763,14.763L23.19,488.798z M64.656,471.726
			l-24.392-24.392l24.712-60.016l59.695,59.695L64.656,471.726z M139.114,438.347l-26.959-26.959l210.741-210.741
			c3.191-3.191,3.191-8.364,0-11.553c-3.191-3.191-8.364-3.191-11.553,0L100.601,399.835l-26.959-26.959L347.929,98.588
			l26.959,26.959l-40.438,40.438c-3.191,3.191-3.191,8.364,0,11.553c1.595,1.595,3.686,2.393,5.777,2.393s4.182-0.797,5.777-2.393
			l40.438-40.438l26.959,26.959L139.114,438.347z M424.955,152.506l-65.473-65.471l19.257-19.257l65.471,65.471L424.955,152.506z
			 M488.501,88.961l-32.736,32.736l-65.472-65.471l32.736-32.736c4.603-4.603,10.758-7.139,17.331-7.139
			c6.572,0,12.727,2.536,17.331,7.139l30.81,30.81C498.057,63.854,498.057,79.404,488.501,88.961z"/>
	</g>
</g>
<g>
</g>
<g>
</g>
<g>
</g>
<g>
</g>
<g>
</g>
<g>
</g>
<g>
</g>
<g>
</g>
<g>
</g>
<g>
</g>
<g>
</g>
<g>
</g>
<g>
</g>
<g>
</g>
<g>
</g>
</svg>
