<svg xmlns="http://www.w3.org/2000/svg" viewBox="0 0 288.69 47.9">
  <g>
    <g>
      <path d="M51.12,16a6.48,6.48,0,0,0-4.49,1.58A8.23,8.23,0,0,0,44.22,22H44V16.61H34V47.25H44V31a8,8,0,0,1,.74-3.65A5,5,0,0,1,47,25.11a7.53,7.53,0,0,1,3.56-.76,9.78,9.78,0,0,1,1.73.14,5.76,5.76,0,0,1,1.45.42V16.35a6.51,6.51,0,0,0-1.23-.29A8.62,8.62,0,0,0,51.12,16Z" fill="#000"/>
      <path d="M75.71,34a6.88,6.88,0,0,1-.63,3,4.9,4.9,0,0,1-1.77,2,5.06,5.06,0,0,1-2.75.73,4.54,4.54,0,0,1-3.68-1.48,6.17,6.17,0,0,1-1.24-4.09V16.61h-10V36.33a14.23,14.23,0,0,0,1.24,6.22,8.85,8.85,0,0,0,3.6,4A11.13,11.13,0,0,0,66.2,47.9,10.21,10.21,0,0,0,72,46.32a9.48,9.48,0,0,0,3.49-4.47h.19v5.4h10V16.61h-10Z" fill="#000"/>
      <path d="M112,17.86a17.86,17.86,0,0,0-16.11,0,13.23,13.23,0,0,0-5.29,5.52,18,18,0,0,0-1.88,8.5v0a18.11,18.11,0,0,0,1.88,8.53A13,13,0,0,0,95.93,46a16.9,16.9,0,0,0,8.33,1.93,18.56,18.56,0,0,0,6.29-.94,13,13,0,0,0,4.3-2.47,12.27,12.27,0,0,0,2.66-3.25,12.11,12.11,0,0,0,1.3-3.33l.08-.34h-9l0,.11a4.06,4.06,0,0,1-.89,1.38,5.31,5.31,0,0,1-1.79,1.24,6.59,6.59,0,0,1-2.73.51,6,6,0,0,1-3.19-.83,5.32,5.32,0,0,1-2.05-2.38,8.64,8.64,0,0,1-.71-3.38h20.59V31.3a16.75,16.75,0,0,0-1.86-8.09A13.15,13.15,0,0,0,112,17.86ZM98.62,28.31a7.5,7.5,0,0,1,.57-2.06,5.28,5.28,0,0,1,2-2.38,5.39,5.39,0,0,1,3-.82,5.46,5.46,0,0,1,3,.8,5.35,5.35,0,0,1,2,2.37,8.1,8.1,0,0,1,.58,2.09Z" fill="#000"/>
      <path d="M151.57,27.37a11.17,11.17,0,0,0-5-1.42v-.2a9.64,9.64,0,0,0,4.15-1.53,9.11,9.11,0,0,0,2.91-3.11,8.37,8.37,0,0,0,1.07-4.19v-.06a9.5,9.5,0,0,0-1.55-5.46,10,10,0,0,0-4.43-3.52,17.6,17.6,0,0,0-6.91-1.23H122.87v40.6h19.39a18.31,18.31,0,0,0,7.54-1.43,11.38,11.38,0,0,0,4.92-4,10.77,10.77,0,0,0,1.75-6.14v-.06a8.87,8.87,0,0,0-1.32-4.79A10,10,0,0,0,151.57,27.37ZM133.2,13.93H139a6.32,6.32,0,0,1,4.08,1.2,4,4,0,0,1,1.49,3.31v0A4.3,4.3,0,0,1,143,22.05a7.44,7.44,0,0,1-4.72,1.28H133.2Zm12.72,21a4.47,4.47,0,0,1-1.71,3.76,7.88,7.88,0,0,1-4.88,1.3H133.2V29.86H139a11.27,11.27,0,0,1,3.81.56,4.61,4.61,0,0,1,2.31,1.69,4.67,4.67,0,0,1,.78,2.73Z" fill="#000"/>
      <path d="M176.7,16a6.48,6.48,0,0,0-4.49,1.58A8.17,8.17,0,0,0,169.8,22h-.2V16.61h-10V47.25h10V31a8,8,0,0,1,.75-3.65,5,5,0,0,1,2.2-2.23,7.51,7.51,0,0,1,3.55-.76,9.81,9.81,0,0,1,1.74.14,5.76,5.76,0,0,1,1.45.42V16.35a6.51,6.51,0,0,0-1.23-.29A8.71,8.71,0,0,0,176.7,16Z" fill="#000"/>
      <path d="M201.29,34a6.88,6.88,0,0,1-.63,3,4.9,4.9,0,0,1-1.77,2,5.06,5.06,0,0,1-2.75.73,4.54,4.54,0,0,1-3.68-1.48,6.17,6.17,0,0,1-1.24-4.09V16.61h-10V36.33a14.23,14.23,0,0,0,1.24,6.22,8.85,8.85,0,0,0,3.6,4,11.13,11.13,0,0,0,5.71,1.38,10.21,10.21,0,0,0,5.83-1.58,9.48,9.48,0,0,0,3.49-4.47h.19v5.4h10V16.61h-10Z" fill="#000"/>
      <path d="M233.26,29.1,227.88,28a7.38,7.38,0,0,1-3-1.07,2,2,0,0,1-.82-1.63v0a2.06,2.06,0,0,1,.5-1.39,3.29,3.29,0,0,1,1.39-.9,6.12,6.12,0,0,1,2.11-.32,4.88,4.88,0,0,1,3.24,1A3.39,3.39,0,0,1,232.58,26l0,.22h9.12V26a8.82,8.82,0,0,0-1.61-5,10.85,10.85,0,0,0-4.6-3.63A18.17,18.17,0,0,0,228.05,16a19.73,19.73,0,0,0-7.25,1.21,10.5,10.5,0,0,0-4.72,3.42,8.56,8.56,0,0,0-1.65,5.28v0a7.82,7.82,0,0,0,2.31,5.79,13.07,13.07,0,0,0,6.81,3.19l5.4,1A7.55,7.55,0,0,1,231.84,37a2,2,0,0,1,.83,1.64v0a2,2,0,0,1-.51,1.34,3.23,3.23,0,0,1-1.46.88,7.35,7.35,0,0,1-2.28.31A5.74,5.74,0,0,1,225,40.3a4,4,0,0,1-1.59-2.42l-.06-.22H213.7l0,.25a10.21,10.21,0,0,0,2.08,5.23,11.21,11.21,0,0,0,4.9,3.51,21,21,0,0,0,7.71,1.25,19.81,19.81,0,0,0,7.4-1.27,11.41,11.41,0,0,0,5-3.6,8.73,8.73,0,0,0,1.8-5.49v0a7,7,0,0,0-2.21-5.45Q238.19,30.06,233.26,29.1Z" fill="#000"/>
      <path d="M274.1,21.43a9.17,9.17,0,0,0-3.63-4.05A11,11,0,0,0,264.74,16a10.23,10.23,0,0,0-5.81,1.58,9.58,9.58,0,0,0-3.53,4.58h-.2V6.65h-10v40.6h10V29.89a6.8,6.8,0,0,1,.64-3,5,5,0,0,1,1.78-2,4.86,4.86,0,0,1,2.71-.75,4.58,4.58,0,0,1,3.75,1.55,6.49,6.49,0,0,1,1.28,4.28V47.25h10V27.78A14.62,14.62,0,0,0,274.1,21.43Z" fill="#000"/>
      <path d="M55.39,2.15C54.5,2.26,38,8,37.36,6.87s3.29-2,5.27-2.84L42.3,3S47.1,1,48.62.17c.36-.28-1.46-.31-4.51.71C43.68,1,20.69,9.33,3.89,11.08c-2.26.23-3.8,3.92-2.3,3.77.88-.09,2.92-.93,3.08-.4.4,1.34-4.19,4-4.59,5.05-.88,2.25,5.49,1.89,7.51,1.62a69.57,69.57,0,0,0,7.66-1.52V47.25H25.57V16.37C37.75,11.92,49.19,5.76,56.23,2.73Z" fill="#000"/>
    </g>
    <path d="M288.69,21.16a5.18,5.18,0,0,1-1.49,3.64,5.07,5.07,0,0,1-3.64,1.49h-.07a5.14,5.14,0,0,1-2-.39,5,5,0,0,1-1.64-1.1,5.12,5.12,0,0,1-1.48-3.64v-.07A5.07,5.07,0,0,1,283.49,16h.07a5.09,5.09,0,0,1,2,.39,5.25,5.25,0,0,1,1.64,1.1,5.14,5.14,0,0,1,1.49,3.64ZM287.18,19a4.14,4.14,0,0,0-3.62-2.06h-.07a4.14,4.14,0,0,0-4.19,4.18v.07a4.15,4.15,0,0,0,.56,2.12,4.2,4.2,0,0,0,1.51,1.51,4.12,4.12,0,0,0,2.12.56h.07a4.12,4.12,0,0,0,2.12-.56,4.25,4.25,0,0,0,1.5-1.51,4.14,4.14,0,0,0,.55-2.12v-.07A4.11,4.11,0,0,0,287.18,19Zm-5.67-.52h2.21a2.18,2.18,0,0,1,1.46.45,1.57,1.57,0,0,1,.53,1.26h0a1.53,1.53,0,0,1-.3.94,1.64,1.64,0,0,1-.8.58l1.25,2.12h-1.13l-1.12-2H282.5v2h-1ZM283.63,21a1.16,1.16,0,0,0,.78-.24.78.78,0,0,0,.28-.63.75.75,0,0,0-.29-.64,1.18,1.18,0,0,0-.79-.23h-1.1V21Z" fill="#000"/>
  </g>
</svg>
